<?xml version="1.0" encoding="utf-8" standalone="no"?>
<!DOCTYPE svg PUBLIC "-//W3C//DTD SVG 1.1//EN"
  "http://www.w3.org/Graphics/SVG/1.1/DTD/svg11.dtd">
<svg xmlns:xlink="http://www.w3.org/1999/xlink" width="731.768338pt" height="326.053196pt" viewBox="0 0 731.768338 326.053196" xmlns="http://www.w3.org/2000/svg" version="1.1">
 <metadata>
  <rdf:RDF xmlns:dc="http://purl.org/dc/elements/1.1/" xmlns:cc="http://creativecommons.org/ns#" xmlns:rdf="http://www.w3.org/1999/02/22-rdf-syntax-ns#">
   <cc:Work>
    <dc:type rdf:resource="http://purl.org/dc/dcmitype/StillImage"/>
    <dc:date>2022-08-18T01:05:37.461003</dc:date>
    <dc:format>image/svg+xml</dc:format>
    <dc:creator>
     <cc:Agent>
      <dc:title>Matplotlib v3.5.1, https://matplotlib.org/</dc:title>
     </cc:Agent>
    </dc:creator>
   </cc:Work>
  </rdf:RDF>
 </metadata>
 <defs>
  <style type="text/css">*{stroke-linejoin: round; stroke-linecap: butt}</style>
 </defs>
 <g id="figure_1">
  <g id="patch_1">
   <path d="M 0 326.053196 
L 731.768338 326.053196 
L 731.768338 0 
L 0 0 
z
" style="fill: #ffffff"/>
  </g>
  <g id="axes_1">
   <g id="patch_2">
    <path d="M 58.568338 275.4 
L 362.931975 275.4 
L 362.931975 3.6 
L 58.568338 3.6 
z
" style="fill: #e5e5e5"/>
   </g>
   <g id="matplotlib.axis_1">
    <g id="xtick_1">
     <g id="line2d_1">
      <path d="M 95.4609 275.4 
L 95.4609 3.6 
" clip-path="url(#p15c4cfbdc4)" style="fill: none; stroke: #ffffff; stroke-width: 1.5; stroke-linecap: square"/>
     </g>
     <g id="line2d_2">
      <defs>
       <path id="m8d78f114ce" d="M 0 0 
L 0 9 
" style="stroke: #555555; stroke-width: 1.875"/>
      </defs>
      <g>
       <use xlink:href="#m8d78f114ce" x="95.4609" y="275.4" style="fill: #555555; stroke: #555555; stroke-width: 1.875"/>
      </g>
     </g>
     <g id="text_1">
      <!-- $\mathdefault{−1.0}$ -->
      <g style="fill: #555555" transform="translate(78.784819 299.315505)scale(0.165 -0.165)">
       <defs>
        <path id="CMSY10-0" d="M 4218 1472 
C 4326 1472 4442 1472 4442 1600 
C 4442 1728 4326 1728 4218 1728 
L 755 1728 
C 646 1728 531 1728 531 1600 
C 531 1472 646 1472 755 1472 
L 4218 1472 
z
" transform="scale(0.015625)"/>
        <path id="CMR17-31" d="M 1702 4058 
C 1702 4192 1696 4192 1606 4192 
C 1357 3916 979 3827 621 3827 
C 602 3827 570 3827 563 3808 
C 557 3795 557 3782 557 3648 
C 755 3648 1088 3686 1344 3839 
L 1344 461 
C 1344 236 1331 160 781 160 
L 589 160 
L 589 0 
C 896 0 1216 0 1523 0 
C 1830 0 2150 0 2458 0 
L 2458 160 
L 2266 160 
C 1715 160 1702 230 1702 458 
L 1702 4058 
z
" transform="scale(0.015625)"/>
        <path id="CMMI12-3a" d="M 1178 307 
C 1178 492 1024 619 870 619 
C 685 619 557 466 557 313 
C 557 128 710 0 864 0 
C 1050 0 1178 153 1178 307 
z
" transform="scale(0.015625)"/>
        <path id="CMR17-30" d="M 2688 2025 
C 2688 2416 2682 3080 2413 3591 
C 2176 4039 1798 4198 1466 4198 
C 1158 4198 768 4058 525 3597 
C 269 3118 243 2524 243 2025 
C 243 1661 250 1106 448 619 
C 723 -39 1216 -128 1466 -128 
C 1760 -128 2208 -7 2470 600 
C 2662 1042 2688 1559 2688 2025 
z
M 1466 -26 
C 1056 -26 813 325 723 812 
C 653 1188 653 1738 653 2096 
C 653 2588 653 2997 736 3387 
C 858 3929 1216 4096 1466 4096 
C 1728 4096 2067 3923 2189 3400 
C 2272 3036 2278 2607 2278 2096 
C 2278 1680 2278 1169 2202 792 
C 2067 95 1690 -26 1466 -26 
z
" transform="scale(0.015625)"/>
       </defs>
       <use xlink:href="#CMSY10-0" transform="scale(0.996264)"/>
       <use xlink:href="#CMR17-31" transform="translate(77.487468 0)scale(0.996264)"/>
       <use xlink:href="#CMMI12-3a" transform="translate(123.177945 0)scale(0.996264)"/>
       <use xlink:href="#CMR17-30" transform="translate(150.275122 0)scale(0.996264)"/>
      </g>
     </g>
    </g>
    <g id="xtick_2">
     <g id="line2d_3">
      <path d="M 153.105528 275.4 
L 153.105528 3.6 
" clip-path="url(#p15c4cfbdc4)" style="fill: none; stroke: #ffffff; stroke-width: 1.5; stroke-linecap: square"/>
     </g>
     <g id="line2d_4">
      <g>
       <use xlink:href="#m8d78f114ce" x="153.105528" y="275.4" style="fill: #555555; stroke: #555555; stroke-width: 1.875"/>
      </g>
     </g>
     <g id="text_2">
      <!-- $\mathdefault{−0.5}$ -->
      <g style="fill: #555555" transform="translate(136.429447 299.315505)scale(0.165 -0.165)">
       <defs>
        <path id="CMR17-35" d="M 730 3692 
C 794 3666 1056 3584 1325 3584 
C 1920 3584 2246 3911 2432 4100 
C 2432 4157 2432 4192 2394 4192 
C 2387 4192 2374 4192 2323 4163 
C 2099 4058 1837 3973 1517 3973 
C 1325 3973 1037 3999 723 4139 
C 653 4171 640 4171 634 4171 
C 602 4171 595 4164 595 4037 
L 595 2203 
C 595 2089 595 2057 659 2057 
C 691 2057 704 2070 736 2114 
C 941 2401 1222 2522 1542 2522 
C 1766 2522 2246 2382 2246 1289 
C 2246 1085 2246 715 2054 421 
C 1894 159 1645 25 1370 25 
C 947 25 518 320 403 814 
C 429 807 480 795 506 795 
C 589 795 749 840 749 1038 
C 749 1210 627 1280 506 1280 
C 358 1280 262 1190 262 1011 
C 262 454 704 -128 1382 -128 
C 2042 -128 2669 440 2669 1264 
C 2669 2030 2170 2624 1549 2624 
C 1222 2624 947 2503 730 2274 
L 730 3692 
z
" transform="scale(0.015625)"/>
       </defs>
       <use xlink:href="#CMSY10-0" transform="scale(0.996264)"/>
       <use xlink:href="#CMR17-30" transform="translate(77.487468 0)scale(0.996264)"/>
       <use xlink:href="#CMMI12-3a" transform="translate(123.177945 0)scale(0.996264)"/>
       <use xlink:href="#CMR17-35" transform="translate(150.275122 0)scale(0.996264)"/>
      </g>
     </g>
    </g>
    <g id="xtick_3">
     <g id="line2d_5">
      <path d="M 210.750157 275.4 
L 210.750157 3.6 
" clip-path="url(#p15c4cfbdc4)" style="fill: none; stroke: #ffffff; stroke-width: 1.5; stroke-linecap: square"/>
     </g>
     <g id="line2d_6">
      <g>
       <use xlink:href="#m8d78f114ce" x="210.750157" y="275.4" style="fill: #555555; stroke: #555555; stroke-width: 1.875"/>
      </g>
     </g>
     <g id="text_3">
      <!-- $\mathdefault{0.0}$ -->
      <g style="fill: #555555" transform="translate(200.466789 299.315505)scale(0.165 -0.165)">
       <use xlink:href="#CMR17-30" transform="scale(0.996264)"/>
       <use xlink:href="#CMMI12-3a" transform="translate(45.690477 0)scale(0.996264)"/>
       <use xlink:href="#CMR17-30" transform="translate(72.787654 0)scale(0.996264)"/>
      </g>
     </g>
    </g>
    <g id="xtick_4">
     <g id="line2d_7">
      <path d="M 268.394785 275.4 
L 268.394785 3.6 
" clip-path="url(#p15c4cfbdc4)" style="fill: none; stroke: #ffffff; stroke-width: 1.5; stroke-linecap: square"/>
     </g>
     <g id="line2d_8">
      <g>
       <use xlink:href="#m8d78f114ce" x="268.394785" y="275.4" style="fill: #555555; stroke: #555555; stroke-width: 1.875"/>
      </g>
     </g>
     <g id="text_4">
      <!-- $\mathdefault{0.5}$ -->
      <g style="fill: #555555" transform="translate(258.111417 299.315505)scale(0.165 -0.165)">
       <use xlink:href="#CMR17-30" transform="scale(0.996264)"/>
       <use xlink:href="#CMMI12-3a" transform="translate(45.690477 0)scale(0.996264)"/>
       <use xlink:href="#CMR17-35" transform="translate(72.787654 0)scale(0.996264)"/>
      </g>
     </g>
    </g>
    <g id="xtick_5">
     <g id="line2d_9">
      <path d="M 326.039413 275.4 
L 326.039413 3.6 
" clip-path="url(#p15c4cfbdc4)" style="fill: none; stroke: #ffffff; stroke-width: 1.5; stroke-linecap: square"/>
     </g>
     <g id="line2d_10">
      <g>
       <use xlink:href="#m8d78f114ce" x="326.039413" y="275.4" style="fill: #555555; stroke: #555555; stroke-width: 1.875"/>
      </g>
     </g>
     <g id="text_5">
      <!-- $\mathdefault{1.0}$ -->
      <g style="fill: #555555" transform="translate(315.756045 299.315505)scale(0.165 -0.165)">
       <use xlink:href="#CMR17-31" transform="scale(0.996264)"/>
       <use xlink:href="#CMMI12-3a" transform="translate(45.690477 0)scale(0.996264)"/>
       <use xlink:href="#CMR17-30" transform="translate(72.787654 0)scale(0.996264)"/>
      </g>
     </g>
    </g>
    <g id="xtick_6">
     <g id="line2d_11">
      <defs>
       <path id="m4fc55c2b72" d="M 0 0 
L 0 6 
" style="stroke: #555555; stroke-width: 1.5"/>
      </defs>
      <g>
       <use xlink:href="#m4fc55c2b72" x="60.874123" y="275.4" style="fill: #555555; stroke: #555555; stroke-width: 1.5"/>
      </g>
     </g>
    </g>
    <g id="xtick_7">
     <g id="line2d_12">
      <g>
       <use xlink:href="#m4fc55c2b72" x="72.403049" y="275.4" style="fill: #555555; stroke: #555555; stroke-width: 1.5"/>
      </g>
     </g>
    </g>
    <g id="xtick_8">
     <g id="line2d_13">
      <g>
       <use xlink:href="#m4fc55c2b72" x="83.931975" y="275.4" style="fill: #555555; stroke: #555555; stroke-width: 1.5"/>
      </g>
     </g>
    </g>
    <g id="xtick_9">
     <g id="line2d_14">
      <g>
       <use xlink:href="#m4fc55c2b72" x="106.989826" y="275.4" style="fill: #555555; stroke: #555555; stroke-width: 1.5"/>
      </g>
     </g>
    </g>
    <g id="xtick_10">
     <g id="line2d_15">
      <g>
       <use xlink:href="#m4fc55c2b72" x="118.518752" y="275.4" style="fill: #555555; stroke: #555555; stroke-width: 1.5"/>
      </g>
     </g>
    </g>
    <g id="xtick_11">
     <g id="line2d_16">
      <g>
       <use xlink:href="#m4fc55c2b72" x="130.047677" y="275.4" style="fill: #555555; stroke: #555555; stroke-width: 1.5"/>
      </g>
     </g>
    </g>
    <g id="xtick_12">
     <g id="line2d_17">
      <g>
       <use xlink:href="#m4fc55c2b72" x="141.576603" y="275.4" style="fill: #555555; stroke: #555555; stroke-width: 1.5"/>
      </g>
     </g>
    </g>
    <g id="xtick_13">
     <g id="line2d_18">
      <g>
       <use xlink:href="#m4fc55c2b72" x="164.634454" y="275.4" style="fill: #555555; stroke: #555555; stroke-width: 1.5"/>
      </g>
     </g>
    </g>
    <g id="xtick_14">
     <g id="line2d_19">
      <g>
       <use xlink:href="#m4fc55c2b72" x="176.16338" y="275.4" style="fill: #555555; stroke: #555555; stroke-width: 1.5"/>
      </g>
     </g>
    </g>
    <g id="xtick_15">
     <g id="line2d_20">
      <g>
       <use xlink:href="#m4fc55c2b72" x="187.692305" y="275.4" style="fill: #555555; stroke: #555555; stroke-width: 1.5"/>
      </g>
     </g>
    </g>
    <g id="xtick_16">
     <g id="line2d_21">
      <g>
       <use xlink:href="#m4fc55c2b72" x="199.221231" y="275.4" style="fill: #555555; stroke: #555555; stroke-width: 1.5"/>
      </g>
     </g>
    </g>
    <g id="xtick_17">
     <g id="line2d_22">
      <g>
       <use xlink:href="#m4fc55c2b72" x="222.279082" y="275.4" style="fill: #555555; stroke: #555555; stroke-width: 1.5"/>
      </g>
     </g>
    </g>
    <g id="xtick_18">
     <g id="line2d_23">
      <g>
       <use xlink:href="#m4fc55c2b72" x="233.808008" y="275.4" style="fill: #555555; stroke: #555555; stroke-width: 1.5"/>
      </g>
     </g>
    </g>
    <g id="xtick_19">
     <g id="line2d_24">
      <g>
       <use xlink:href="#m4fc55c2b72" x="245.336933" y="275.4" style="fill: #555555; stroke: #555555; stroke-width: 1.5"/>
      </g>
     </g>
    </g>
    <g id="xtick_20">
     <g id="line2d_25">
      <g>
       <use xlink:href="#m4fc55c2b72" x="256.865859" y="275.4" style="fill: #555555; stroke: #555555; stroke-width: 1.5"/>
      </g>
     </g>
    </g>
    <g id="xtick_21">
     <g id="line2d_26">
      <g>
       <use xlink:href="#m4fc55c2b72" x="279.92371" y="275.4" style="fill: #555555; stroke: #555555; stroke-width: 1.5"/>
      </g>
     </g>
    </g>
    <g id="xtick_22">
     <g id="line2d_27">
      <g>
       <use xlink:href="#m4fc55c2b72" x="291.452636" y="275.4" style="fill: #555555; stroke: #555555; stroke-width: 1.5"/>
      </g>
     </g>
    </g>
    <g id="xtick_23">
     <g id="line2d_28">
      <g>
       <use xlink:href="#m4fc55c2b72" x="302.981561" y="275.4" style="fill: #555555; stroke: #555555; stroke-width: 1.5"/>
      </g>
     </g>
    </g>
    <g id="xtick_24">
     <g id="line2d_29">
      <g>
       <use xlink:href="#m4fc55c2b72" x="314.510487" y="275.4" style="fill: #555555; stroke: #555555; stroke-width: 1.5"/>
      </g>
     </g>
    </g>
    <g id="xtick_25">
     <g id="line2d_30">
      <g>
       <use xlink:href="#m4fc55c2b72" x="337.568338" y="275.4" style="fill: #555555; stroke: #555555; stroke-width: 1.5"/>
      </g>
     </g>
    </g>
    <g id="xtick_26">
     <g id="line2d_31">
      <g>
       <use xlink:href="#m4fc55c2b72" x="349.097264" y="275.4" style="fill: #555555; stroke: #555555; stroke-width: 1.5"/>
      </g>
     </g>
    </g>
    <g id="xtick_27">
     <g id="line2d_32">
      <g>
       <use xlink:href="#m4fc55c2b72" x="360.62619" y="275.4" style="fill: #555555; stroke: #555555; stroke-width: 1.5"/>
      </g>
     </g>
    </g>
    <g id="text_6">
     <!-- $x$ -->
     <g style="fill: #555555" transform="translate(205.761091 318.965132)scale(0.18 -0.18)">
      <defs>
       <path id="CMMI12-78" d="M 3034 2606 
C 2829 2567 2752 2414 2752 2293 
C 2752 2139 2874 2088 2963 2088 
C 3155 2088 3290 2254 3290 2427 
C 3290 2695 2982 2816 2714 2816 
C 2323 2816 2106 2433 2048 2312 
C 1901 2816 1504 2816 1389 2816 
C 736 2816 390 1980 390 1839 
C 390 1814 416 1782 461 1782 
C 512 1782 525 1820 538 1846 
C 755 2555 1184 2689 1370 2689 
C 1658 2689 1715 2420 1715 2267 
C 1715 2127 1677 1980 1600 1673 
L 1382 798 
C 1286 415 1101 64 762 64 
C 730 64 570 64 435 147 
C 666 192 717 383 717 460 
C 717 588 621 664 499 664 
C 346 664 179 530 179 326 
C 179 57 480 -64 755 -64 
C 1062 -64 1280 179 1414 441 
C 1517 64 1837 -64 2074 -64 
C 2726 -64 3072 773 3072 913 
C 3072 945 3046 971 3008 971 
C 2950 971 2944 939 2925 888 
C 2752 326 2381 64 2093 64 
C 1869 64 1747 230 1747 492 
C 1747 632 1773 734 1875 1156 
L 2099 2024 
C 2195 2408 2413 2689 2707 2689 
C 2720 2689 2899 2689 3034 2606 
z
" transform="scale(0.015625)"/>
      </defs>
      <use xlink:href="#CMMI12-78" transform="scale(0.996264)"/>
     </g>
    </g>
   </g>
   <g id="matplotlib.axis_2">
    <g id="ytick_1">
     <g id="line2d_33">
      <path d="M 58.568338 263.045455 
L 362.931975 263.045455 
" clip-path="url(#p15c4cfbdc4)" style="fill: none; stroke: #ffffff; stroke-width: 1.5; stroke-linecap: square"/>
     </g>
     <g id="line2d_34">
      <defs>
       <path id="m79c37a5c07" d="M 0 0 
L -9 0 
" style="stroke: #555555; stroke-width: 1.875"/>
      </defs>
      <g>
       <use xlink:href="#m79c37a5c07" x="58.568338" y="263.045455" style="fill: #555555; stroke: #555555; stroke-width: 1.875"/>
      </g>
     </g>
     <g id="text_7">
      <!-- $\mathdefault{0.0}$ -->
      <g style="fill: #555555" transform="translate(25.501604 268.753207)scale(0.165 -0.165)">
       <use xlink:href="#CMR17-30" transform="scale(0.996264)"/>
       <use xlink:href="#CMMI12-3a" transform="translate(45.690477 0)scale(0.996264)"/>
       <use xlink:href="#CMR17-30" transform="translate(72.787654 0)scale(0.996264)"/>
      </g>
     </g>
    </g>
    <g id="ytick_2">
     <g id="line2d_35">
      <path d="M 58.568338 204.459343 
L 362.931975 204.459343 
" clip-path="url(#p15c4cfbdc4)" style="fill: none; stroke: #ffffff; stroke-width: 1.5; stroke-linecap: square"/>
     </g>
     <g id="line2d_36">
      <g>
       <use xlink:href="#m79c37a5c07" x="58.568338" y="204.459343" style="fill: #555555; stroke: #555555; stroke-width: 1.875"/>
      </g>
     </g>
     <g id="text_8">
      <!-- $\mathdefault{0.5}$ -->
      <g style="fill: #555555" transform="translate(25.501604 210.167095)scale(0.165 -0.165)">
       <use xlink:href="#CMR17-30" transform="scale(0.996264)"/>
       <use xlink:href="#CMMI12-3a" transform="translate(45.690477 0)scale(0.996264)"/>
       <use xlink:href="#CMR17-35" transform="translate(72.787654 0)scale(0.996264)"/>
      </g>
     </g>
    </g>
    <g id="ytick_3">
     <g id="line2d_37">
      <path d="M 58.568338 145.87323 
L 362.931975 145.87323 
" clip-path="url(#p15c4cfbdc4)" style="fill: none; stroke: #ffffff; stroke-width: 1.5; stroke-linecap: square"/>
     </g>
     <g id="line2d_38">
      <g>
       <use xlink:href="#m79c37a5c07" x="58.568338" y="145.87323" style="fill: #555555; stroke: #555555; stroke-width: 1.875"/>
      </g>
     </g>
     <g id="text_9">
      <!-- $\mathdefault{1.0}$ -->
      <g style="fill: #555555" transform="translate(25.501604 151.580983)scale(0.165 -0.165)">
       <use xlink:href="#CMR17-31" transform="scale(0.996264)"/>
       <use xlink:href="#CMMI12-3a" transform="translate(45.690477 0)scale(0.996264)"/>
       <use xlink:href="#CMR17-30" transform="translate(72.787654 0)scale(0.996264)"/>
      </g>
     </g>
    </g>
    <g id="ytick_4">
     <g id="line2d_39">
      <path d="M 58.568338 87.287118 
L 362.931975 87.287118 
" clip-path="url(#p15c4cfbdc4)" style="fill: none; stroke: #ffffff; stroke-width: 1.5; stroke-linecap: square"/>
     </g>
     <g id="line2d_40">
      <g>
       <use xlink:href="#m79c37a5c07" x="58.568338" y="87.287118" style="fill: #555555; stroke: #555555; stroke-width: 1.875"/>
      </g>
     </g>
     <g id="text_10">
      <!-- $\mathdefault{1.5}$ -->
      <g style="fill: #555555" transform="translate(25.501604 92.994871)scale(0.165 -0.165)">
       <use xlink:href="#CMR17-31" transform="scale(0.996264)"/>
       <use xlink:href="#CMMI12-3a" transform="translate(45.690477 0)scale(0.996264)"/>
       <use xlink:href="#CMR17-35" transform="translate(72.787654 0)scale(0.996264)"/>
      </g>
     </g>
    </g>
    <g id="ytick_5">
     <g id="line2d_41">
      <path d="M 58.568338 28.701006 
L 362.931975 28.701006 
" clip-path="url(#p15c4cfbdc4)" style="fill: none; stroke: #ffffff; stroke-width: 1.5; stroke-linecap: square"/>
     </g>
     <g id="line2d_42">
      <g>
       <use xlink:href="#m79c37a5c07" x="58.568338" y="28.701006" style="fill: #555555; stroke: #555555; stroke-width: 1.875"/>
      </g>
     </g>
     <g id="text_11">
      <!-- $\mathdefault{2.0}$ -->
      <g style="fill: #555555" transform="translate(25.501604 34.408759)scale(0.165 -0.165)">
       <defs>
        <path id="CMR17-32" d="M 2669 989 
L 2554 989 
C 2490 536 2438 459 2413 420 
C 2381 369 1920 369 1830 369 
L 602 369 
C 832 619 1280 1072 1824 1597 
C 2214 1967 2669 2402 2669 3035 
C 2669 3790 2067 4224 1395 4224 
C 691 4224 262 3604 262 3030 
C 262 2780 448 2748 525 2748 
C 589 2748 781 2787 781 3010 
C 781 3207 614 3264 525 3264 
C 486 3264 448 3258 422 3245 
C 544 3790 915 4058 1306 4058 
C 1862 4058 2227 3617 2227 3035 
C 2227 2479 1901 2000 1536 1584 
L 262 146 
L 262 0 
L 2515 0 
L 2669 989 
z
" transform="scale(0.015625)"/>
       </defs>
       <use xlink:href="#CMR17-32" transform="scale(0.996264)"/>
       <use xlink:href="#CMMI12-3a" transform="translate(45.690477 0)scale(0.996264)"/>
       <use xlink:href="#CMR17-30" transform="translate(72.787654 0)scale(0.996264)"/>
      </g>
     </g>
    </g>
    <g id="ytick_6">
     <g id="line2d_43">
      <defs>
       <path id="m4920b44850" d="M 0 0 
L -6 0 
" style="stroke: #555555; stroke-width: 1.5"/>
      </defs>
      <g>
       <use xlink:href="#m4920b44850" x="58.568338" y="274.762677" style="fill: #555555; stroke: #555555; stroke-width: 1.5"/>
      </g>
     </g>
    </g>
    <g id="ytick_7">
     <g id="line2d_44">
      <g>
       <use xlink:href="#m4920b44850" x="58.568338" y="251.328232" style="fill: #555555; stroke: #555555; stroke-width: 1.5"/>
      </g>
     </g>
    </g>
    <g id="ytick_8">
     <g id="line2d_45">
      <g>
       <use xlink:href="#m4920b44850" x="58.568338" y="239.61101" style="fill: #555555; stroke: #555555; stroke-width: 1.5"/>
      </g>
     </g>
    </g>
    <g id="ytick_9">
     <g id="line2d_46">
      <g>
       <use xlink:href="#m4920b44850" x="58.568338" y="227.893787" style="fill: #555555; stroke: #555555; stroke-width: 1.5"/>
      </g>
     </g>
    </g>
    <g id="ytick_10">
     <g id="line2d_47">
      <g>
       <use xlink:href="#m4920b44850" x="58.568338" y="216.176565" style="fill: #555555; stroke: #555555; stroke-width: 1.5"/>
      </g>
     </g>
    </g>
    <g id="ytick_11">
     <g id="line2d_48">
      <g>
       <use xlink:href="#m4920b44850" x="58.568338" y="192.74212" style="fill: #555555; stroke: #555555; stroke-width: 1.5"/>
      </g>
     </g>
    </g>
    <g id="ytick_12">
     <g id="line2d_49">
      <g>
       <use xlink:href="#m4920b44850" x="58.568338" y="181.024898" style="fill: #555555; stroke: #555555; stroke-width: 1.5"/>
      </g>
     </g>
    </g>
    <g id="ytick_13">
     <g id="line2d_50">
      <g>
       <use xlink:href="#m4920b44850" x="58.568338" y="169.307675" style="fill: #555555; stroke: #555555; stroke-width: 1.5"/>
      </g>
     </g>
    </g>
    <g id="ytick_14">
     <g id="line2d_51">
      <g>
       <use xlink:href="#m4920b44850" x="58.568338" y="157.590453" style="fill: #555555; stroke: #555555; stroke-width: 1.5"/>
      </g>
     </g>
    </g>
    <g id="ytick_15">
     <g id="line2d_52">
      <g>
       <use xlink:href="#m4920b44850" x="58.568338" y="134.156008" style="fill: #555555; stroke: #555555; stroke-width: 1.5"/>
      </g>
     </g>
    </g>
    <g id="ytick_16">
     <g id="line2d_53">
      <g>
       <use xlink:href="#m4920b44850" x="58.568338" y="122.438786" style="fill: #555555; stroke: #555555; stroke-width: 1.5"/>
      </g>
     </g>
    </g>
    <g id="ytick_17">
     <g id="line2d_54">
      <g>
       <use xlink:href="#m4920b44850" x="58.568338" y="110.721563" style="fill: #555555; stroke: #555555; stroke-width: 1.5"/>
      </g>
     </g>
    </g>
    <g id="ytick_18">
     <g id="line2d_55">
      <g>
       <use xlink:href="#m4920b44850" x="58.568338" y="99.004341" style="fill: #555555; stroke: #555555; stroke-width: 1.5"/>
      </g>
     </g>
    </g>
    <g id="ytick_19">
     <g id="line2d_56">
      <g>
       <use xlink:href="#m4920b44850" x="58.568338" y="75.569896" style="fill: #555555; stroke: #555555; stroke-width: 1.5"/>
      </g>
     </g>
    </g>
    <g id="ytick_20">
     <g id="line2d_57">
      <g>
       <use xlink:href="#m4920b44850" x="58.568338" y="63.852674" style="fill: #555555; stroke: #555555; stroke-width: 1.5"/>
      </g>
     </g>
    </g>
    <g id="ytick_21">
     <g id="line2d_58">
      <g>
       <use xlink:href="#m4920b44850" x="58.568338" y="52.135451" style="fill: #555555; stroke: #555555; stroke-width: 1.5"/>
      </g>
     </g>
    </g>
    <g id="ytick_22">
     <g id="line2d_59">
      <g>
       <use xlink:href="#m4920b44850" x="58.568338" y="40.418229" style="fill: #555555; stroke: #555555; stroke-width: 1.5"/>
      </g>
     </g>
    </g>
    <g id="ytick_23">
     <g id="line2d_60">
      <g>
       <use xlink:href="#m4920b44850" x="58.568338" y="16.983784" style="fill: #555555; stroke: #555555; stroke-width: 1.5"/>
      </g>
     </g>
    </g>
    <g id="ytick_24">
     <g id="line2d_61">
      <g>
       <use xlink:href="#m4920b44850" x="58.568338" y="5.266562" style="fill: #555555; stroke: #555555; stroke-width: 1.5"/>
      </g>
     </g>
    </g>
    <g id="text_12">
     <!-- $f(x)$ -->
     <g style="fill: #555555" transform="translate(17.03342 156.124418)rotate(-90)scale(0.18 -0.18)">
      <defs>
       <path id="CMMI12-66" d="M 2854 2566 
C 2982 2566 3034 2566 3034 2688 
C 3034 2752 2982 2752 2867 2752 
L 2349 2752 
C 2470 3429 2560 3897 2611 4107 
C 2650 4265 2784 4416 2950 4416 
C 3085 4416 3219 4358 3283 4298 
C 3034 4272 2957 4082 2957 3969 
C 2957 3837 3053 3759 3174 3759 
C 3302 3759 3494 3870 3494 4119 
C 3494 4393 3226 4544 2944 4544 
C 2669 4544 2400 4334 2272 4078 
C 2157 3848 2093 3611 1946 2752 
L 1517 2752 
C 1395 2752 1331 2752 1331 2637 
C 1331 2566 1370 2566 1498 2566 
L 1907 2566 
C 1792 1976 1530 542 1382 -137 
C 1274 -689 1178 -1152 858 -1152 
C 838 -1152 653 -1152 538 -1031 
C 864 -1005 864 -726 864 -720 
C 864 -593 768 -517 646 -517 
C 518 -517 326 -625 326 -867 
C 326 -1140 608 -1280 858 -1280 
C 1510 -1280 1779 -118 1850 199 
C 1965 688 2278 2376 2310 2566 
L 2854 2566 
z
" transform="scale(0.015625)"/>
       <path id="CMR17-28" d="M 1958 -1561 
C 1958 -1555 1958 -1542 1939 -1523 
C 1645 -1224 858 -407 858 1581 
C 858 3569 1632 4379 1946 4697 
C 1946 4704 1958 4717 1958 4736 
C 1958 4755 1939 4768 1914 4768 
C 1843 4768 1299 4296 986 3594 
C 666 2887 576 2199 576 1588 
C 576 1128 621 351 1005 -471 
C 1312 -1135 1837 -1600 1914 -1600 
C 1946 -1600 1958 -1587 1958 -1561 
z
" transform="scale(0.015625)"/>
       <path id="CMR17-29" d="M 1683 1581 
C 1683 2040 1638 2817 1254 3639 
C 947 4303 422 4768 346 4768 
C 326 4768 301 4761 301 4729 
C 301 4717 307 4710 314 4697 
C 621 4378 1402 3568 1402 1584 
C 1402 -407 627 -1217 314 -1537 
C 307 -1549 301 -1556 301 -1568 
C 301 -1600 326 -1600 346 -1600 
C 416 -1600 960 -1128 1274 -426 
C 1594 281 1683 969 1683 1581 
z
" transform="scale(0.015625)"/>
      </defs>
      <use xlink:href="#CMMI12-66" transform="scale(0.996264)"/>
      <use xlink:href="#CMR17-28" transform="translate(58.720305 0)scale(0.996264)"/>
      <use xlink:href="#CMMI12-78" transform="translate(94.001073 0)scale(0.996264)"/>
      <use xlink:href="#CMR17-29" transform="translate(149.435132 0)scale(0.996264)"/>
     </g>
    </g>
   </g>
   <g id="line2d_62">
    <path d="M 72.403049 263.045451 
L 75.19794 263.045447 
L 77.992831 263.04544 
L 80.787722 263.045425 
L 83.582613 263.045397 
L 86.377504 263.045342 
L 89.172395 263.04524 
L 91.967286 263.045051 
L 94.762178 263.044706 
L 97.557069 263.044088 
L 100.35196 263.042995 
L 103.146851 263.041092 
L 105.941742 263.03783 
L 108.736633 263.032324 
L 111.531524 263.023171 
L 114.326415 263.008188 
L 117.121306 262.98404 
L 119.916197 262.945722 
L 122.711088 262.885859 
L 125.505979 262.793787 
L 128.30087 262.654388 
L 131.095761 262.446637 
L 133.890652 262.141893 
L 136.685543 261.701948 
L 139.480435 261.076929 
L 142.275326 260.20321 
L 145.070217 259.001548 
L 147.865108 257.375756 
L 150.659999 255.212277 
L 153.45489 252.381085 
L 156.249781 248.738356 
L 159.044672 244.131292 
L 161.839563 238.405389 
L 164.634454 231.414246 
L 167.429345 223.031739 
L 170.224236 213.166061 
L 173.019127 201.774785 
L 175.814018 188.879725 
L 178.608909 174.580125 
L 181.4038 159.062511 
L 184.198691 142.60558 
L 186.993583 125.578705 
L 189.788474 108.433093 
L 192.583365 91.68526 
L 195.378256 75.893288 
L 198.173147 61.627142 
L 200.968038 49.435136 
L 203.762929 39.809222 
L 206.55782 33.15215 
L 209.352711 29.749536 
L 212.147602 29.749536 
L 214.942493 33.15215 
L 217.737384 39.809222 
L 220.532275 49.435136 
L 223.327166 61.627142 
L 226.122057 75.893288 
L 228.916948 91.68526 
L 231.711839 108.433093 
L 234.506731 125.578705 
L 237.301622 142.60558 
L 240.096513 159.062511 
L 242.891404 174.580125 
L 245.686295 188.879725 
L 248.481186 201.774785 
L 251.276077 213.166061 
L 254.070968 223.031739 
L 256.865859 231.414246 
L 259.66075 238.405389 
L 262.455641 244.131292 
L 265.250532 248.738356 
L 268.045423 252.381085 
L 270.840314 255.212277 
L 273.635205 257.375756 
L 276.430096 259.001548 
L 279.224987 260.20321 
L 282.019879 261.076929 
L 284.81477 261.701948 
L 287.609661 262.141893 
L 290.404552 262.446637 
L 293.199443 262.654388 
L 295.994334 262.793787 
L 298.789225 262.885859 
L 301.584116 262.945722 
L 304.379007 262.98404 
L 307.173898 263.008188 
L 309.968789 263.023171 
L 312.76368 263.032324 
L 315.558571 263.03783 
L 318.353462 263.041092 
L 321.148353 263.042995 
L 323.943244 263.044088 
L 326.738135 263.044706 
L 329.533027 263.045051 
L 332.327918 263.04524 
L 335.122809 263.045342 
L 337.9177 263.045397 
L 340.712591 263.045425 
L 343.507482 263.04544 
L 346.302373 263.045447 
L 349.097264 263.045451 
" clip-path="url(#p15c4cfbdc4)" style="fill: none; stroke: #4d3c2f; stroke-width: 2.25; stroke-linecap: square"/>
   </g>
   <g id="line2d_63">
    <path d="M 72.403049 258.005309 
L 75.19794 257.80123 
L 77.992831 257.58463 
L 80.787722 257.354476 
L 83.582613 257.109624 
L 86.377504 256.848811 
L 89.172395 256.570639 
L 91.967286 256.273552 
L 94.762178 255.95582 
L 97.557069 255.615513 
L 100.35196 255.250476 
L 103.146851 254.858291 
L 105.941742 254.436247 
L 108.736633 253.981291 
L 111.531524 253.489976 
L 114.326415 252.958404 
L 117.121306 252.382153 
L 119.916197 251.75619 
L 122.711088 251.074775 
L 125.505979 250.331338 
L 128.30087 249.518339 
L 131.095761 248.627096 
L 133.890652 247.647579 
L 136.685543 246.568166 
L 139.480435 245.375344 
L 142.275326 244.053349 
L 145.070217 242.583733 
L 147.865108 240.944836 
L 150.659999 239.111149 
L 153.45489 237.052547 
L 156.249781 234.73337 
L 159.044672 232.111321 
L 161.839563 229.13619 
L 164.634454 225.748377 
L 167.429345 221.877284 
L 170.224236 217.439664 
L 173.019127 212.338192 
L 175.814018 206.460727 
L 178.608909 199.681153 
L 181.4038 191.863335 
L 184.198691 182.870727 
L 186.993583 172.585505 
L 189.788474 160.942596 
L 192.583365 147.984499 
L 195.378256 133.940187 
L 198.173147 119.321048 
L 200.968038 105.004532 
L 203.762929 92.244289 
L 206.55782 82.5276 
L 209.352711 77.24254 
L 212.147602 77.24254 
L 214.942493 82.5276 
L 217.737384 92.244289 
L 220.532275 105.004532 
L 223.327166 119.321048 
L 226.122057 133.940187 
L 228.916948 147.984499 
L 231.711839 160.942596 
L 234.506731 172.585505 
L 237.301622 182.870727 
L 240.096513 191.863335 
L 242.891404 199.681153 
L 245.686295 206.460727 
L 248.481186 212.338192 
L 251.276077 217.439664 
L 254.070968 221.877284 
L 256.865859 225.748377 
L 259.66075 229.13619 
L 262.455641 232.111321 
L 265.250532 234.73337 
L 268.045423 237.052547 
L 270.840314 239.111149 
L 273.635205 240.944836 
L 276.430096 242.583733 
L 279.224987 244.053349 
L 282.019879 245.375344 
L 284.81477 246.568166 
L 287.609661 247.647579 
L 290.404552 248.627096 
L 293.199443 249.518339 
L 295.994334 250.331338 
L 298.789225 251.074775 
L 301.584116 251.75619 
L 304.379007 252.382153 
L 307.173898 252.958404 
L 309.968789 253.489976 
L 312.76368 253.981291 
L 315.558571 254.436247 
L 318.353462 254.858291 
L 321.148353 255.250476 
L 323.943244 255.615513 
L 326.738135 255.95582 
L 329.533027 256.273552 
L 332.327918 256.570639 
L 335.122809 256.848811 
L 337.9177 257.109624 
L 340.712591 257.354476 
L 343.507482 257.58463 
L 346.302373 257.80123 
L 349.097264 258.005309 
" clip-path="url(#p15c4cfbdc4)" style="fill: none; stroke: #c07156; stroke-width: 2.25; stroke-linecap: square"/>
   </g>
   <g id="line2d_64">
    <path d="M 210.750157 263.045455 
L 213.102998 263.025942 
L 215.45584 262.892607 
L 217.808682 262.54057 
L 220.161524 261.874708 
L 222.514366 260.809654 
L 224.867208 259.269797 
L 227.22005 257.189283 
L 229.572892 254.512014 
L 231.925734 251.191647 
L 234.278576 247.191597 
L 236.631418 242.485034 
L 238.98426 237.054884 
L 241.337102 230.893831 
L 243.689944 224.004314 
L 246.042786 216.398527 
L 248.395628 208.098423 
L 250.74847 199.135709 
L 253.101312 189.551848 
L 255.454154 179.398062 
L 257.806996 168.735327 
L 260.159838 157.634374 
L 262.51268 146.175694 
L 264.865522 134.44953 
L 267.218364 122.555885 
L 269.571206 110.604515 
L 271.924048 98.714935 
L 274.27689 87.016414 
L 276.629731 75.647978 
L 278.982573 64.758411 
L 281.335415 54.506249 
L 283.688257 45.059789 
L 286.041099 36.597081 
L 288.393941 29.305933 
L 290.746783 23.383907 
L 293.099625 19.038324 
L 295.452467 16.486259 
L 297.805309 15.954545 
L 300.158151 17.67977 
L 302.510993 21.908279 
L 304.863835 28.896171 
L 307.216677 38.909305 
L 309.569519 52.223294 
L 311.922361 69.123506 
L 314.275203 89.905068 
L 316.628045 114.872861 
L 318.980887 144.341524 
L 321.333729 178.635451 
L 323.686571 218.088792 
L 326.039413 263.045455 
" clip-path="url(#p15c4cfbdc4)" style="fill: none; stroke: #e8c767; stroke-width: 2.25; stroke-linecap: square"/>
   </g>
   <g id="patch_3">
    <path d="M 58.568338 275.4 
L 58.568338 3.6 
" style="fill: none; stroke: #ffffff; stroke-width: 1.875; stroke-linejoin: miter; stroke-linecap: square"/>
   </g>
   <g id="patch_4">
    <path d="M 58.568338 275.4 
L 362.931975 275.4 
" style="fill: none; stroke: #ffffff; stroke-width: 1.875; stroke-linejoin: miter; stroke-linecap: square"/>
   </g>
   <g id="legend_1">
    <g id="line2d_65">
     <path d="M 73.418338 25.003767 
L 89.918338 25.003767 
L 106.418338 25.003767 
" style="fill: none; stroke: #4d3c2f; stroke-width: 2.25; stroke-linecap: square"/>
    </g>
    <g id="text_13">
     <!-- $\mathcal{N}(0, 0.2)$ -->
     <g transform="translate(119.618338 30.778767)scale(0.165 -0.165)">
      <defs>
       <path id="CMSY10-4e" d="M 1958 3706 
C 2074 3373 2214 2893 2502 2106 
C 2906 1018 3085 621 3475 13 
C 3565 -122 3571 -128 3629 -128 
C 3718 -128 3853 -51 3923 0 
C 4013 83 4019 90 4090 404 
C 4474 2089 4960 3846 5088 4141 
C 5094 4154 5222 4397 6010 4397 
C 6138 4397 6259 4744 6259 4888 
C 6259 4992 6221 4992 6131 4992 
C 5491 4992 5203 4724 5126 4641 
C 4947 4412 4794 3946 4499 2882 
C 4275 2066 4070 1237 3872 415 
C 3520 944 3322 1448 3014 2269 
C 2675 3174 2470 3837 2298 4411 
C 2259 4538 2253 4544 2195 4544 
C 2182 4544 2054 4544 1869 4391 
C 1805 4334 1798 4276 1792 4207 
C 1613 2511 1011 836 838 530 
C 787 434 710 320 582 320 
C 518 320 269 352 102 504 
C 70 530 58 530 51 530 
C -51 530 -186 210 -186 57 
C -186 -141 205 -269 384 -269 
C 794 -269 1120 614 1222 909 
C 1638 2067 1837 3021 1958 3706 
z
" transform="scale(0.015625)"/>
       <path id="CMMI12-3b" d="M 1248 -31 
C 1248 343 1126 619 864 619 
C 659 619 557 453 557 313 
C 557 172 653 0 870 0 
C 954 0 1024 26 1082 83 
C 1094 96 1101 96 1107 96 
C 1120 96 1120 5 1120 -27 
C 1120 -240 1082 -659 710 -1080 
C 640 -1157 640 -1170 640 -1183 
C 640 -1216 672 -1248 704 -1248 
C 755 -1248 1248 -771 1248 -31 
z
" transform="scale(0.015625)"/>
      </defs>
      <use xlink:href="#CMSY10-4e" transform="scale(0.996264)"/>
      <use xlink:href="#CMR17-28" transform="translate(96.423461 0)scale(0.996264)"/>
      <use xlink:href="#CMR17-30" transform="translate(131.704229 0)scale(0.996264)"/>
      <use xlink:href="#CMMI12-3b" transform="translate(177.394706 0)scale(0.996264)"/>
      <use xlink:href="#CMR17-30" transform="translate(221.096289 0)scale(0.996264)"/>
      <use xlink:href="#CMMI12-3a" transform="translate(266.786766 0)scale(0.996264)"/>
      <use xlink:href="#CMR17-32" transform="translate(293.883943 0)scale(0.996264)"/>
      <use xlink:href="#CMR17-29" transform="translate(339.57442 0)scale(0.996264)"/>
     </g>
    </g>
    <g id="line2d_66">
     <path d="M 73.418338 49.692123 
L 89.918338 49.692123 
L 106.418338 49.692123 
" style="fill: none; stroke: #c07156; stroke-width: 2.25; stroke-linecap: square"/>
    </g>
    <g id="text_14">
     <!-- t$(0, 0.2, 1)$ -->
     <g transform="translate(119.618338 55.467123)scale(0.165 -0.165)">
      <defs>
       <path id="CMR17-74" d="M 966 2560 
L 1862 2560 
L 1862 2725 
L 966 2725 
L 966 3904 
L 851 3904 
C 838 3245 614 2668 70 2668 
L 70 2560 
L 627 2560 
L 627 771 
C 627 650 627 -64 1370 -64 
C 1747 -64 1965 306 1965 777 
L 1965 1140 
L 1850 1140 
L 1850 783 
C 1850 344 1677 51 1408 51 
C 1222 51 966 178 966 758 
L 966 2560 
z
" transform="scale(0.015625)"/>
      </defs>
      <use xlink:href="#CMR17-74" transform="scale(0.996264)"/>
      <use xlink:href="#CMR17-28" transform="translate(35.280768 0)scale(0.996264)"/>
      <use xlink:href="#CMR17-30" transform="translate(70.561536 0)scale(0.996264)"/>
      <use xlink:href="#CMMI12-3b" transform="translate(116.252013 0)scale(0.996264)"/>
      <use xlink:href="#CMR17-30" transform="translate(159.953595 0)scale(0.996264)"/>
      <use xlink:href="#CMMI12-3a" transform="translate(205.644072 0)scale(0.996264)"/>
      <use xlink:href="#CMR17-32" transform="translate(232.741249 0)scale(0.996264)"/>
      <use xlink:href="#CMMI12-3b" transform="translate(278.431726 0)scale(0.996264)"/>
      <use xlink:href="#CMR17-31" transform="translate(322.133309 0)scale(0.996264)"/>
      <use xlink:href="#CMR17-29" transform="translate(367.823786 0)scale(0.996264)"/>
     </g>
    </g>
    <g id="line2d_67">
     <path d="M 73.418338 74.380479 
L 89.918338 74.380479 
L 106.418338 74.380479 
" style="fill: none; stroke: #e8c767; stroke-width: 2.25; stroke-linecap: square"/>
    </g>
    <g id="text_15">
     <!-- Beta$(4, 2)$ -->
     <g transform="translate(119.618338 80.155479)scale(0.165 -0.165)">
      <defs>
       <path id="CMR17-42" d="M 333 4352 
L 333 4186 
C 774 4186 845 4186 845 3900 
L 845 452 
C 845 166 774 166 333 166 
L 333 0 
L 2534 0 
C 3354 0 3885 583 3885 1164 
C 3885 1741 3360 2233 2675 2233 
C 3290 2356 3718 2771 3718 3264 
C 3718 3802 3194 4352 2368 4352 
L 333 4352 
z
M 1248 2304 
L 1248 3937 
C 1248 4155 1261 4186 1517 4186 
L 2336 4186 
C 2970 4186 3251 3674 3251 3277 
C 3251 2791 2861 2304 2170 2304 
L 1248 2304 
z
M 1517 166 
C 1261 166 1248 197 1248 413 
L 1248 2202 
L 2432 2202 
C 3091 2202 3411 1625 3411 1162 
C 3411 699 3046 166 2349 166 
L 1517 166 
z
" transform="scale(0.015625)"/>
       <path id="CMR17-65" d="M 2438 1472 
C 2464 1498 2464 1511 2464 1576 
C 2464 2238 2118 2816 1389 2816 
C 710 2816 173 2169 173 1383 
C 173 551 781 -64 1459 -64 
C 2176 -64 2458 607 2458 740 
C 2458 784 2419 784 2406 784 
C 2362 784 2355 771 2330 696 
C 2189 265 1837 51 1504 51 
C 1229 51 954 203 781 480 
C 582 803 582 1176 582 1472 
L 2438 1472 
z
M 589 1568 
C 634 2505 1126 2714 1382 2714 
C 1818 2714 2112 2297 2118 1568 
L 589 1568 
z
" transform="scale(0.015625)"/>
       <path id="CMR17-61" d="M 2304 1653 
C 2304 2072 2304 2294 2035 2543 
C 1798 2752 1523 2816 1306 2816 
C 800 2816 435 2407 435 1971 
C 435 1728 627 1728 666 1728 
C 749 1728 896 1778 896 1954 
C 896 2112 774 2181 666 2181 
C 640 2181 608 2174 589 2168 
C 723 2592 1069 2714 1293 2714 
C 1613 2714 1965 2429 1965 1885 
L 1965 1600 
C 1587 1600 1133 1549 774 1357 
C 371 1133 256 813 256 570 
C 256 77 832 -64 1171 -64 
C 1523 -64 1850 139 1990 511 
C 2003 233 2182 -18 2464 -18 
C 2598 -18 2938 70 2938 567 
L 2938 920 
L 2822 920 
L 2822 562 
C 2822 178 2650 128 2566 128 
C 2304 128 2304 458 2304 738 
L 2304 1653 
z
M 1965 870 
C 1965 317 1568 38 1216 38 
C 896 38 646 275 646 570 
C 646 761 730 1100 1101 1305 
C 1408 1478 1760 1504 1965 1504 
L 1965 870 
z
" transform="scale(0.015625)"/>
       <path id="CMR17-34" d="M 2150 4122 
C 2150 4256 2144 4256 2029 4256 
L 128 1254 
L 128 1088 
L 1779 1088 
L 1779 457 
C 1779 224 1766 160 1318 160 
L 1197 160 
L 1197 0 
C 1402 0 1747 0 1965 0 
C 2182 0 2528 0 2733 0 
L 2733 160 
L 2611 160 
C 2163 160 2150 224 2150 457 
L 2150 1088 
L 2803 1088 
L 2803 1254 
L 2150 1254 
L 2150 4122 
z
M 1798 3703 
L 1798 1254 
L 256 1254 
L 1798 3703 
z
" transform="scale(0.015625)"/>
      </defs>
      <use xlink:href="#CMR17-42" transform="scale(0.996264)"/>
      <use xlink:href="#CMR17-65" transform="translate(65.188754 0)scale(0.996264)"/>
      <use xlink:href="#CMR17-74" transform="translate(105.674415 0)scale(0.996264)"/>
      <use xlink:href="#CMR17-61" transform="translate(140.955183 0)scale(0.996264)"/>
      <use xlink:href="#CMR17-28" transform="translate(186.64566 0)scale(0.996264)"/>
      <use xlink:href="#CMR17-34" transform="translate(221.926428 0)scale(0.996264)"/>
      <use xlink:href="#CMMI12-3b" transform="translate(267.616905 0)scale(0.996264)"/>
      <use xlink:href="#CMR17-32" transform="translate(311.318487 0)scale(0.996264)"/>
      <use xlink:href="#CMR17-29" transform="translate(357.008964 0)scale(0.996264)"/>
     </g>
    </g>
   </g>
  </g>
  <g id="axes_2">
   <g id="patch_5">
    <path d="M 423.804702 275.4 
L 728.168338 275.4 
L 728.168338 3.6 
L 423.804702 3.6 
z
" style="fill: #e5e5e5"/>
   </g>
   <g id="matplotlib.axis_3">
    <g id="xtick_28">
     <g id="line2d_68">
      <path d="M 437.639413 275.4 
L 437.639413 3.6 
" clip-path="url(#p28c8e61987)" style="fill: none; stroke: #ffffff; stroke-width: 1.5; stroke-linecap: square"/>
     </g>
     <g id="line2d_69">
      <g>
       <use xlink:href="#m8d78f114ce" x="437.639413" y="275.4" style="fill: #555555; stroke: #555555; stroke-width: 1.875"/>
      </g>
     </g>
     <g id="text_16">
      <!-- $\mathdefault{0}$ -->
      <g style="fill: #555555" transform="translate(433.615486 299.315505)scale(0.165 -0.165)">
       <use xlink:href="#CMR17-30" transform="scale(0.996264)"/>
      </g>
     </g>
    </g>
    <g id="xtick_29">
     <g id="line2d_70">
      <path d="M 529.870818 275.4 
L 529.870818 3.6 
" clip-path="url(#p28c8e61987)" style="fill: none; stroke: #ffffff; stroke-width: 1.5; stroke-linecap: square"/>
     </g>
     <g id="line2d_71">
      <g>
       <use xlink:href="#m8d78f114ce" x="529.870818" y="275.4" style="fill: #555555; stroke: #555555; stroke-width: 1.875"/>
      </g>
     </g>
     <g id="text_17">
      <!-- $\mathdefault{2}$ -->
      <g style="fill: #555555" transform="translate(525.846891 299.315505)scale(0.165 -0.165)">
       <use xlink:href="#CMR17-32" transform="scale(0.996264)"/>
      </g>
     </g>
    </g>
    <g id="xtick_30">
     <g id="line2d_72">
      <path d="M 622.102223 275.4 
L 622.102223 3.6 
" clip-path="url(#p28c8e61987)" style="fill: none; stroke: #ffffff; stroke-width: 1.5; stroke-linecap: square"/>
     </g>
     <g id="line2d_73">
      <g>
       <use xlink:href="#m8d78f114ce" x="622.102223" y="275.4" style="fill: #555555; stroke: #555555; stroke-width: 1.875"/>
      </g>
     </g>
     <g id="text_18">
      <!-- $\mathdefault{4}$ -->
      <g style="fill: #555555" transform="translate(618.078296 299.315505)scale(0.165 -0.165)">
       <use xlink:href="#CMR17-34" transform="scale(0.996264)"/>
      </g>
     </g>
    </g>
    <g id="xtick_31">
     <g id="line2d_74">
      <path d="M 714.333628 275.4 
L 714.333628 3.6 
" clip-path="url(#p28c8e61987)" style="fill: none; stroke: #ffffff; stroke-width: 1.5; stroke-linecap: square"/>
     </g>
     <g id="line2d_75">
      <g>
       <use xlink:href="#m8d78f114ce" x="714.333628" y="275.4" style="fill: #555555; stroke: #555555; stroke-width: 1.875"/>
      </g>
     </g>
     <g id="text_19">
      <!-- $\mathdefault{6}$ -->
      <g style="fill: #555555" transform="translate(710.309701 299.315505)scale(0.165 -0.165)">
       <defs>
        <path id="CMR17-36" d="M 678 2176 
C 678 3690 1395 4032 1811 4032 
C 1946 4032 2272 4009 2400 3776 
C 2298 3776 2106 3776 2106 3553 
C 2106 3381 2246 3323 2336 3323 
C 2394 3323 2566 3348 2566 3560 
C 2566 3954 2246 4179 1805 4179 
C 1043 4179 243 3390 243 1984 
C 243 253 966 -128 1478 -128 
C 2099 -128 2688 427 2688 1283 
C 2688 2081 2170 2662 1517 2662 
C 1126 2662 838 2407 678 1960 
L 678 2176 
z
M 1478 25 
C 691 25 691 1200 691 1436 
C 691 1896 909 2560 1504 2560 
C 1613 2560 1926 2560 2138 2120 
C 2253 1870 2253 1609 2253 1289 
C 2253 944 2253 690 2118 434 
C 1978 171 1773 25 1478 25 
z
" transform="scale(0.015625)"/>
       </defs>
       <use xlink:href="#CMR17-36" transform="scale(0.996264)"/>
      </g>
     </g>
    </g>
    <g id="xtick_32">
     <g id="line2d_76">
      <g>
       <use xlink:href="#m4fc55c2b72" x="460.697264" y="275.4" style="fill: #555555; stroke: #555555; stroke-width: 1.5"/>
      </g>
     </g>
    </g>
    <g id="xtick_33">
     <g id="line2d_77">
      <g>
       <use xlink:href="#m4fc55c2b72" x="483.755115" y="275.4" style="fill: #555555; stroke: #555555; stroke-width: 1.5"/>
      </g>
     </g>
    </g>
    <g id="xtick_34">
     <g id="line2d_78">
      <g>
       <use xlink:href="#m4fc55c2b72" x="506.812966" y="275.4" style="fill: #555555; stroke: #555555; stroke-width: 1.5"/>
      </g>
     </g>
    </g>
    <g id="xtick_35">
     <g id="line2d_79">
      <g>
       <use xlink:href="#m4fc55c2b72" x="552.928669" y="275.4" style="fill: #555555; stroke: #555555; stroke-width: 1.5"/>
      </g>
     </g>
    </g>
    <g id="xtick_36">
     <g id="line2d_80">
      <g>
       <use xlink:href="#m4fc55c2b72" x="575.98652" y="275.4" style="fill: #555555; stroke: #555555; stroke-width: 1.5"/>
      </g>
     </g>
    </g>
    <g id="xtick_37">
     <g id="line2d_81">
      <g>
       <use xlink:href="#m4fc55c2b72" x="599.044371" y="275.4" style="fill: #555555; stroke: #555555; stroke-width: 1.5"/>
      </g>
     </g>
    </g>
    <g id="xtick_38">
     <g id="line2d_82">
      <g>
       <use xlink:href="#m4fc55c2b72" x="645.160074" y="275.4" style="fill: #555555; stroke: #555555; stroke-width: 1.5"/>
      </g>
     </g>
    </g>
    <g id="xtick_39">
     <g id="line2d_83">
      <g>
       <use xlink:href="#m4fc55c2b72" x="668.217925" y="275.4" style="fill: #555555; stroke: #555555; stroke-width: 1.5"/>
      </g>
     </g>
    </g>
    <g id="xtick_40">
     <g id="line2d_84">
      <g>
       <use xlink:href="#m4fc55c2b72" x="691.275776" y="275.4" style="fill: #555555; stroke: #555555; stroke-width: 1.5"/>
      </g>
     </g>
    </g>
    <g id="text_20">
     <!-- $x$ -->
     <g style="fill: #555555" transform="translate(570.997455 318.965132)scale(0.18 -0.18)">
      <use xlink:href="#CMMI12-78" transform="scale(0.996264)"/>
     </g>
    </g>
   </g>
   <g id="matplotlib.axis_4">
    <g id="ytick_25">
     <g id="line2d_85">
      <path d="M 423.804702 263.045455 
L 728.168338 263.045455 
" clip-path="url(#p28c8e61987)" style="fill: none; stroke: #ffffff; stroke-width: 1.5; stroke-linecap: square"/>
     </g>
     <g id="line2d_86">
      <g>
       <use xlink:href="#m79c37a5c07" x="423.804702" y="263.045455" style="fill: #555555; stroke: #555555; stroke-width: 1.875"/>
      </g>
     </g>
     <g id="text_21">
      <!-- $\mathdefault{0.0}$ -->
      <g style="fill: #555555" transform="translate(390.737967 268.753207)scale(0.165 -0.165)">
       <use xlink:href="#CMR17-30" transform="scale(0.996264)"/>
       <use xlink:href="#CMMI12-3a" transform="translate(45.690477 0)scale(0.996264)"/>
       <use xlink:href="#CMR17-30" transform="translate(72.787654 0)scale(0.996264)"/>
      </g>
     </g>
    </g>
    <g id="ytick_26">
     <g id="line2d_87">
      <path d="M 423.804702 213.627273 
L 728.168338 213.627273 
" clip-path="url(#p28c8e61987)" style="fill: none; stroke: #ffffff; stroke-width: 1.5; stroke-linecap: square"/>
     </g>
     <g id="line2d_88">
      <g>
       <use xlink:href="#m79c37a5c07" x="423.804702" y="213.627273" style="fill: #555555; stroke: #555555; stroke-width: 1.875"/>
      </g>
     </g>
     <g id="text_22">
      <!-- $\mathdefault{0.2}$ -->
      <g style="fill: #555555" transform="translate(390.737967 219.335025)scale(0.165 -0.165)">
       <use xlink:href="#CMR17-30" transform="scale(0.996264)"/>
       <use xlink:href="#CMMI12-3a" transform="translate(45.690477 0)scale(0.996264)"/>
       <use xlink:href="#CMR17-32" transform="translate(72.787654 0)scale(0.996264)"/>
      </g>
     </g>
    </g>
    <g id="ytick_27">
     <g id="line2d_89">
      <path d="M 423.804702 164.209091 
L 728.168338 164.209091 
" clip-path="url(#p28c8e61987)" style="fill: none; stroke: #ffffff; stroke-width: 1.5; stroke-linecap: square"/>
     </g>
     <g id="line2d_90">
      <g>
       <use xlink:href="#m79c37a5c07" x="423.804702" y="164.209091" style="fill: #555555; stroke: #555555; stroke-width: 1.875"/>
      </g>
     </g>
     <g id="text_23">
      <!-- $\mathdefault{0.4}$ -->
      <g style="fill: #555555" transform="translate(390.737967 169.916843)scale(0.165 -0.165)">
       <use xlink:href="#CMR17-30" transform="scale(0.996264)"/>
       <use xlink:href="#CMMI12-3a" transform="translate(45.690477 0)scale(0.996264)"/>
       <use xlink:href="#CMR17-34" transform="translate(72.787654 0)scale(0.996264)"/>
      </g>
     </g>
    </g>
    <g id="ytick_28">
     <g id="line2d_91">
      <path d="M 423.804702 114.790909 
L 728.168338 114.790909 
" clip-path="url(#p28c8e61987)" style="fill: none; stroke: #ffffff; stroke-width: 1.5; stroke-linecap: square"/>
     </g>
     <g id="line2d_92">
      <g>
       <use xlink:href="#m79c37a5c07" x="423.804702" y="114.790909" style="fill: #555555; stroke: #555555; stroke-width: 1.875"/>
      </g>
     </g>
     <g id="text_24">
      <!-- $\mathdefault{0.6}$ -->
      <g style="fill: #555555" transform="translate(390.737967 120.498662)scale(0.165 -0.165)">
       <use xlink:href="#CMR17-30" transform="scale(0.996264)"/>
       <use xlink:href="#CMMI12-3a" transform="translate(45.690477 0)scale(0.996264)"/>
       <use xlink:href="#CMR17-36" transform="translate(72.787654 0)scale(0.996264)"/>
      </g>
     </g>
    </g>
    <g id="ytick_29">
     <g id="line2d_93">
      <path d="M 423.804702 65.372727 
L 728.168338 65.372727 
" clip-path="url(#p28c8e61987)" style="fill: none; stroke: #ffffff; stroke-width: 1.5; stroke-linecap: square"/>
     </g>
     <g id="line2d_94">
      <g>
       <use xlink:href="#m79c37a5c07" x="423.804702" y="65.372727" style="fill: #555555; stroke: #555555; stroke-width: 1.875"/>
      </g>
     </g>
     <g id="text_25">
      <!-- $\mathdefault{0.8}$ -->
      <g style="fill: #555555" transform="translate(390.737967 71.08048)scale(0.165 -0.165)">
       <defs>
        <path id="CMR17-38" d="M 1741 2264 
C 2144 2467 2554 2773 2554 3263 
C 2554 3841 1990 4179 1472 4179 
C 890 4179 378 3759 378 3180 
C 378 3021 416 2747 666 2505 
C 730 2442 998 2251 1171 2130 
C 883 1983 211 1634 211 934 
C 211 279 838 -128 1459 -128 
C 2144 -128 2720 362 2720 1010 
C 2720 1590 2330 1857 2074 2029 
L 1741 2264 
z
M 902 2822 
C 851 2854 595 3051 595 3351 
C 595 3739 998 4032 1459 4032 
C 1965 4032 2336 3676 2336 3262 
C 2336 2669 1670 2331 1638 2331 
C 1632 2331 1626 2331 1574 2370 
L 902 2822 
z
M 2080 1519 
C 2176 1449 2483 1240 2483 851 
C 2483 381 2010 25 1472 25 
C 890 25 448 438 448 940 
C 448 1443 838 1862 1280 2060 
L 2080 1519 
z
" transform="scale(0.015625)"/>
       </defs>
       <use xlink:href="#CMR17-30" transform="scale(0.996264)"/>
       <use xlink:href="#CMMI12-3a" transform="translate(45.690477 0)scale(0.996264)"/>
       <use xlink:href="#CMR17-38" transform="translate(72.787654 0)scale(0.996264)"/>
      </g>
     </g>
    </g>
    <g id="ytick_30">
     <g id="line2d_95">
      <path d="M 423.804702 15.954545 
L 728.168338 15.954545 
" clip-path="url(#p28c8e61987)" style="fill: none; stroke: #ffffff; stroke-width: 1.5; stroke-linecap: square"/>
     </g>
     <g id="line2d_96">
      <g>
       <use xlink:href="#m79c37a5c07" x="423.804702" y="15.954545" style="fill: #555555; stroke: #555555; stroke-width: 1.875"/>
      </g>
     </g>
     <g id="text_26">
      <!-- $\mathdefault{1.0}$ -->
      <g style="fill: #555555" transform="translate(390.737967 21.662298)scale(0.165 -0.165)">
       <use xlink:href="#CMR17-31" transform="scale(0.996264)"/>
       <use xlink:href="#CMMI12-3a" transform="translate(45.690477 0)scale(0.996264)"/>
       <use xlink:href="#CMR17-30" transform="translate(72.787654 0)scale(0.996264)"/>
      </g>
     </g>
    </g>
    <g id="ytick_31">
     <g id="line2d_97">
      <g>
       <use xlink:href="#m4920b44850" x="423.804702" y="250.690909" style="fill: #555555; stroke: #555555; stroke-width: 1.5"/>
      </g>
     </g>
    </g>
    <g id="ytick_32">
     <g id="line2d_98">
      <g>
       <use xlink:href="#m4920b44850" x="423.804702" y="238.336364" style="fill: #555555; stroke: #555555; stroke-width: 1.5"/>
      </g>
     </g>
    </g>
    <g id="ytick_33">
     <g id="line2d_99">
      <g>
       <use xlink:href="#m4920b44850" x="423.804702" y="225.981818" style="fill: #555555; stroke: #555555; stroke-width: 1.5"/>
      </g>
     </g>
    </g>
    <g id="ytick_34">
     <g id="line2d_100">
      <g>
       <use xlink:href="#m4920b44850" x="423.804702" y="201.272727" style="fill: #555555; stroke: #555555; stroke-width: 1.5"/>
      </g>
     </g>
    </g>
    <g id="ytick_35">
     <g id="line2d_101">
      <g>
       <use xlink:href="#m4920b44850" x="423.804702" y="188.918182" style="fill: #555555; stroke: #555555; stroke-width: 1.5"/>
      </g>
     </g>
    </g>
    <g id="ytick_36">
     <g id="line2d_102">
      <g>
       <use xlink:href="#m4920b44850" x="423.804702" y="176.563636" style="fill: #555555; stroke: #555555; stroke-width: 1.5"/>
      </g>
     </g>
    </g>
    <g id="ytick_37">
     <g id="line2d_103">
      <g>
       <use xlink:href="#m4920b44850" x="423.804702" y="151.854545" style="fill: #555555; stroke: #555555; stroke-width: 1.5"/>
      </g>
     </g>
    </g>
    <g id="ytick_38">
     <g id="line2d_104">
      <g>
       <use xlink:href="#m4920b44850" x="423.804702" y="139.5" style="fill: #555555; stroke: #555555; stroke-width: 1.5"/>
      </g>
     </g>
    </g>
    <g id="ytick_39">
     <g id="line2d_105">
      <g>
       <use xlink:href="#m4920b44850" x="423.804702" y="127.145455" style="fill: #555555; stroke: #555555; stroke-width: 1.5"/>
      </g>
     </g>
    </g>
    <g id="ytick_40">
     <g id="line2d_106">
      <g>
       <use xlink:href="#m4920b44850" x="423.804702" y="102.436364" style="fill: #555555; stroke: #555555; stroke-width: 1.5"/>
      </g>
     </g>
    </g>
    <g id="ytick_41">
     <g id="line2d_107">
      <g>
       <use xlink:href="#m4920b44850" x="423.804702" y="90.081818" style="fill: #555555; stroke: #555555; stroke-width: 1.5"/>
      </g>
     </g>
    </g>
    <g id="ytick_42">
     <g id="line2d_108">
      <g>
       <use xlink:href="#m4920b44850" x="423.804702" y="77.727273" style="fill: #555555; stroke: #555555; stroke-width: 1.5"/>
      </g>
     </g>
    </g>
    <g id="ytick_43">
     <g id="line2d_109">
      <g>
       <use xlink:href="#m4920b44850" x="423.804702" y="53.018182" style="fill: #555555; stroke: #555555; stroke-width: 1.5"/>
      </g>
     </g>
    </g>
    <g id="ytick_44">
     <g id="line2d_110">
      <g>
       <use xlink:href="#m4920b44850" x="423.804702" y="40.663636" style="fill: #555555; stroke: #555555; stroke-width: 1.5"/>
      </g>
     </g>
    </g>
    <g id="ytick_45">
     <g id="line2d_111">
      <g>
       <use xlink:href="#m4920b44850" x="423.804702" y="28.309091" style="fill: #555555; stroke: #555555; stroke-width: 1.5"/>
      </g>
     </g>
    </g>
    <g id="text_27">
     <!-- $f(x)$ -->
     <g style="fill: #555555" transform="translate(382.269783 156.124418)rotate(-90)scale(0.18 -0.18)">
      <use xlink:href="#CMMI12-66" transform="scale(0.996264)"/>
      <use xlink:href="#CMR17-28" transform="translate(58.720305 0)scale(0.996264)"/>
      <use xlink:href="#CMMI12-78" transform="translate(94.001073 0)scale(0.996264)"/>
      <use xlink:href="#CMR17-29" transform="translate(149.435132 0)scale(0.996264)"/>
     </g>
    </g>
   </g>
   <g id="line2d_112">
    <path d="M 437.639413 263.045455 
L 440.434304 262.915518 
L 443.229195 262.124623 
L 446.024086 260.292417 
L 448.818977 257.264672 
L 451.613868 253.04373 
L 454.408759 247.735395 
L 457.20365 241.508936 
L 459.998541 234.567448 
L 462.793432 227.126359 
L 465.588323 219.398282 
L 468.383214 211.582773 
L 471.178105 203.859816 
L 473.972996 196.386131 
L 476.767888 189.293557 
L 479.562779 182.688936 
L 482.35767 176.655046 
L 485.152561 171.252238 
L 487.947452 166.520505 
L 490.742343 162.481784 
L 493.537234 159.142345 
L 496.332125 156.495152 
L 499.127016 154.52213 
L 501.921907 153.196279 
L 504.716798 152.483613 
L 507.511689 152.344897 
L 510.30658 152.737185 
L 513.101471 153.615161 
L 515.896362 154.932282 
L 518.691253 156.641749 
L 521.486144 158.697301 
L 524.281036 161.053872 
L 527.075927 163.6681 
L 529.870818 166.498727 
L 532.665709 169.506883 
L 535.4606 172.656292 
L 538.255491 175.913396 
L 541.050382 179.247409 
L 543.845273 182.630328 
L 546.640164 186.03689 
L 549.435055 189.444504 
L 552.229946 192.833144 
L 555.024837 196.185233 
L 557.819728 199.485504 
L 560.614619 202.720853 
L 563.40951 205.88019 
L 566.204401 208.95428 
L 568.999293 211.935589 
L 571.794184 214.818135 
L 574.589075 217.597338 
L 577.383966 220.269874 
L 580.178857 222.833547 
L 582.973748 225.287156 
L 585.768639 227.630373 
L 588.56353 229.863638 
L 591.358421 231.988048 
L 594.153312 234.005265 
L 596.948203 235.91743 
L 599.743094 237.727079 
L 602.537985 239.437077 
L 605.332876 241.050549 
L 608.127767 242.570823 
L 610.922658 244.001379 
L 613.717549 245.345803 
L 616.512441 246.607747 
L 619.307332 247.790896 
L 622.102223 248.898935 
L 624.897114 249.935522 
L 627.692005 250.904271 
L 630.486896 251.808728 
L 633.281787 252.652359 
L 636.076678 253.438537 
L 638.871569 254.170528 
L 641.66646 254.85149 
L 644.461351 255.48446 
L 647.256242 256.072356 
L 650.051133 256.61797 
L 652.846024 257.123969 
L 655.640915 257.592893 
L 658.435806 258.027159 
L 661.230697 258.429057 
L 664.025589 258.800759 
L 666.82048 259.144317 
L 669.615371 259.461667 
L 672.410262 259.754635 
L 675.205153 260.024938 
L 678.000044 260.27419 
L 680.794935 260.503904 
L 683.589826 260.715501 
L 686.384717 260.910309 
L 689.179608 261.08957 
L 691.974499 261.254444 
L 694.76939 261.406014 
L 697.564281 261.545289 
L 700.359172 261.673208 
L 703.154063 261.790645 
L 705.948954 261.898414 
L 708.743845 261.997268 
L 711.538737 262.087908 
L 714.333628 262.170983 
" clip-path="url(#p28c8e61987)" style="fill: none; stroke: #4d3c2f; stroke-width: 2.25; stroke-linecap: square"/>
   </g>
   <g id="line2d_113">
    <path d="M 437.639413 15.954545 
L 440.434304 30.484988 
L 443.229195 44.160953 
L 446.024086 57.032688 
L 448.818977 69.147487 
L 451.613868 80.549863 
L 454.408759 91.281709 
L 457.20365 101.382458 
L 459.998541 110.889222 
L 462.793432 119.836931 
L 465.588323 128.25846 
L 468.383214 136.184752 
L 471.178105 143.64493 
L 473.972996 150.666404 
L 476.767888 157.274973 
L 479.562779 163.494919 
L 482.35767 169.349094 
L 485.152561 174.859007 
L 487.947452 180.044905 
L 490.742343 184.92584 
L 493.537234 189.519747 
L 496.332125 193.843504 
L 499.127016 197.912998 
L 501.921907 201.743181 
L 504.716798 205.348126 
L 507.511689 208.741079 
L 510.30658 211.934505 
L 513.101471 214.940139 
L 515.896362 217.769023 
L 518.691253 220.431551 
L 521.486144 222.937507 
L 524.281036 225.296098 
L 527.075927 227.515988 
L 529.870818 229.605336 
L 532.665709 231.571818 
L 535.4606 233.422659 
L 538.255491 235.164658 
L 541.050382 236.804218 
L 543.845273 238.347362 
L 546.640164 239.799759 
L 549.435055 241.166747 
L 552.229946 242.453348 
L 555.024837 243.664288 
L 557.819728 244.804018 
L 560.614619 245.876725 
L 563.40951 246.886351 
L 566.204401 247.836604 
L 568.999293 248.730977 
L 571.794184 249.572755 
L 574.589075 250.365031 
L 577.383966 251.110717 
L 580.178857 251.812552 
L 582.973748 252.473114 
L 585.768639 253.094832 
L 588.56353 253.679989 
L 591.358421 254.230735 
L 594.153312 254.749094 
L 596.948203 255.23697 
L 599.743094 255.696156 
L 602.537985 256.12834 
L 605.332876 256.535108 
L 608.127767 256.917956 
L 610.922658 257.27829 
L 613.717549 257.617434 
L 616.512441 257.936635 
L 619.307332 258.237064 
L 622.102223 258.519827 
L 624.897114 258.785961 
L 627.692005 259.036445 
L 630.486896 259.272199 
L 633.281787 259.494089 
L 636.076678 259.702931 
L 638.871569 259.899492 
L 641.66646 260.084493 
L 644.461351 260.258616 
L 647.256242 260.422499 
L 650.051133 260.576745 
L 652.846024 260.72192 
L 655.640915 260.858558 
L 658.435806 260.98716 
L 661.230697 261.108201 
L 664.025589 261.222123 
L 666.82048 261.329346 
L 669.615371 261.430263 
L 672.410262 261.525246 
L 675.205153 261.614644 
L 678.000044 261.698784 
L 680.794935 261.777977 
L 683.589826 261.852512 
L 686.384717 261.922664 
L 689.179608 261.988691 
L 691.974499 262.050835 
L 694.76939 262.109325 
L 697.564281 262.164375 
L 700.359172 262.216188 
L 703.154063 262.264954 
L 705.948954 262.310852 
L 708.743845 262.354051 
L 711.538737 262.39471 
L 714.333628 262.432977 
" clip-path="url(#p28c8e61987)" style="fill: none; stroke: #c07156; stroke-width: 2.25; stroke-linecap: square"/>
   </g>
   <g id="patch_6">
    <path d="M 423.804702 275.4 
L 423.804702 3.6 
" style="fill: none; stroke: #ffffff; stroke-width: 1.875; stroke-linejoin: miter; stroke-linecap: square"/>
   </g>
   <g id="patch_7">
    <path d="M 423.804702 275.4 
L 728.168338 275.4 
" style="fill: none; stroke: #ffffff; stroke-width: 1.875; stroke-linejoin: miter; stroke-linecap: square"/>
   </g>
   <g id="legend_2">
    <g id="line2d_114">
     <path d="M 608.020695 25.003767 
L 624.520695 25.003767 
L 641.020695 25.003767 
" style="fill: none; stroke: #4d3c2f; stroke-width: 2.25; stroke-linecap: square"/>
    </g>
    <g id="text_28">
     <!-- $\mathcal{G}(4, 0.5)$ -->
     <g transform="translate(654.220695 30.778767)scale(0.165 -0.165)">
      <defs>
       <path id="CMSY10-47" d="M 2790 1063 
C 2618 480 2451 179 2387 74 
C 2138 -371 2003 -384 1786 -384 
C 1677 -384 1222 -384 845 -114 
C 557 -114 333 -343 333 -416 
C 333 -474 768 -743 1363 -743 
C 1824 -743 2579 -497 3059 552 
C 3226 913 3334 1280 3354 1357 
C 3482 1801 3616 2316 3616 2343 
C 3616 2381 3603 2401 3546 2401 
C 3488 2401 3379 2369 3245 2279 
C 3098 2184 3091 2152 3046 1993 
C 2982 1775 2605 832 1811 832 
C 1190 832 826 1336 826 2056 
C 826 2547 1024 3204 1395 3650 
C 1568 3854 1882 4192 2605 4192 
C 2726 4192 2912 4173 3072 4122 
C 3142 4102 3302 4052 3302 3847 
C 3302 3631 2970 3222 2944 3185 
C 2918 3159 2899 3134 2899 3108 
C 2899 3063 2931 3063 2970 3063 
C 3155 3063 3366 3236 3539 3472 
C 3590 3542 3846 3900 3846 4116 
C 3846 4378 3648 4442 3571 4467 
C 3334 4544 3117 4544 3027 4544 
C 1581 4544 282 3281 282 1782 
C 282 1137 570 480 1395 480 
C 1875 480 2368 723 2790 1063 
z
" transform="scale(0.015625)"/>
      </defs>
      <use xlink:href="#CMSY10-47" transform="scale(0.996264)"/>
      <use xlink:href="#CMR17-28" transform="translate(65.172504 0)scale(0.996264)"/>
      <use xlink:href="#CMR17-34" transform="translate(100.453272 0)scale(0.996264)"/>
      <use xlink:href="#CMMI12-3b" transform="translate(146.143749 0)scale(0.996264)"/>
      <use xlink:href="#CMR17-30" transform="translate(189.845331 0)scale(0.996264)"/>
      <use xlink:href="#CMMI12-3a" transform="translate(235.535808 0)scale(0.996264)"/>
      <use xlink:href="#CMR17-35" transform="translate(262.632985 0)scale(0.996264)"/>
      <use xlink:href="#CMR17-29" transform="translate(308.323462 0)scale(0.996264)"/>
     </g>
    </g>
    <g id="line2d_115">
     <path d="M 608.020695 49.692123 
L 624.520695 49.692123 
L 641.020695 49.692123 
" style="fill: none; stroke: #c07156; stroke-width: 2.25; stroke-linecap: square"/>
    </g>
    <g id="text_29">
     <!-- Exp$(1)$ -->
     <g transform="translate(654.220695 55.467123)scale(0.165 -0.165)">
      <defs>
       <path id="CMR17-45" d="M 3885 1615 
L 3770 1615 
C 3629 676 3546 166 2419 166 
L 1530 166 
C 1274 166 1261 197 1261 414 
L 1261 2176 
L 1862 2176 
C 2464 2176 2522 1960 2522 1430 
L 2637 1430 
L 2637 3081 
L 2522 3081 
C 2522 2557 2464 2342 1862 2342 
L 1261 2342 
L 1261 3913 
C 1261 4128 1274 4160 1530 4160 
L 2406 4160 
C 3398 4160 3514 3769 3603 2929 
L 3718 2929 
L 3565 4325 
L 326 4325 
L 326 4160 
C 768 4160 838 4160 838 3874 
L 838 451 
C 838 166 768 166 326 166 
L 326 0 
L 3654 0 
L 3885 1615 
z
" transform="scale(0.015625)"/>
       <path id="CMR17-78" d="M 1664 1477 
C 1856 1726 2074 2006 2253 2216 
C 2464 2458 2707 2560 2989 2560 
L 2989 2726 
C 2880 2726 2656 2726 2541 2726 
C 2368 2726 2170 2726 2022 2732 
L 2022 2566 
C 2112 2553 2163 2489 2163 2400 
C 2163 2285 2099 2215 2067 2171 
L 1594 1573 
L 1030 2306 
C 973 2376 973 2388 973 2420 
C 973 2497 1037 2560 1146 2560 
L 1146 2732 
C 992 2726 717 2726 557 2726 
C 384 2726 179 2726 38 2732 
L 38 2560 
C 384 2560 461 2534 614 2343 
L 1350 1395 
C 1363 1382 1395 1344 1395 1325 
C 1395 1299 838 619 768 530 
C 480 185 179 160 6 160 
L 6 0 
C 115 0 339 0 454 0 
C 582 0 864 0 979 -6 
L 979 160 
C 941 166 838 179 838 325 
C 838 440 890 510 947 586 
L 1478 1236 
L 2035 512 
C 2086 442 2163 346 2163 301 
C 2163 211 2086 160 1984 160 
L 1984 -6 
C 2138 0 2413 0 2573 0 
C 2746 0 2950 0 3091 -6 
L 3091 160 
C 2771 160 2675 172 2522 370 
L 1664 1477 
z
" transform="scale(0.015625)"/>
       <path id="CMR17-70" d="M 1408 -1063 
C 998 -1063 973 -1037 973 -789 
L 973 402 
C 1158 134 1427 -38 1766 -38 
C 2406 -38 3053 523 3053 1388 
C 3053 2191 2496 2802 1837 2802 
C 1453 2802 1139 2592 960 2338 
L 960 2802 
L 198 2732 
L 198 2567 
C 576 2567 634 2528 634 2223 
L 634 -789 
C 634 -1031 608 -1063 198 -1063 
L 198 -1228 
C 352 -1216 634 -1216 800 -1216 
C 966 -1216 1254 -1216 1408 -1228 
L 1408 -1063 
z
M 973 2012 
C 973 2102 973 2235 1222 2471 
C 1254 2497 1472 2688 1792 2688 
C 2259 2688 2643 2108 2643 1382 
C 2643 656 2234 64 1728 64 
C 1498 64 1248 172 1056 472 
C 973 612 973 650 973 752 
L 973 2012 
z
" transform="scale(0.015625)"/>
      </defs>
      <use xlink:href="#CMR17-45" transform="scale(0.996264)"/>
      <use xlink:href="#CMR17-78" transform="translate(62.586301 0)scale(0.996264)"/>
      <use xlink:href="#CMR17-70" transform="translate(110.879216 0)scale(0.996264)"/>
      <use xlink:href="#CMR17-28" transform="translate(161.774586 0)scale(0.996264)"/>
      <use xlink:href="#CMR17-31" transform="translate(197.055354 0)scale(0.996264)"/>
      <use xlink:href="#CMR17-29" transform="translate(242.745831 0)scale(0.996264)"/>
     </g>
    </g>
   </g>
  </g>
 </g>
 <defs>
  <clipPath id="p15c4cfbdc4">
   <rect x="58.568338" y="3.6" width="304.363636" height="271.8"/>
  </clipPath>
  <clipPath id="p28c8e61987">
   <rect x="423.804702" y="3.6" width="304.363636" height="271.8"/>
  </clipPath>
 </defs>
</svg>
