<?xml version="1.0" encoding="utf-8" standalone="no"?>
<!DOCTYPE svg PUBLIC "-//W3C//DTD SVG 1.1//EN"
  "http://www.w3.org/Graphics/SVG/1.1/DTD/svg11.dtd">
<svg xmlns:xlink="http://www.w3.org/1999/xlink" width="332.274647pt" height="331.760948pt" viewBox="0 0 332.274647 331.760948" xmlns="http://www.w3.org/2000/svg" version="1.1">
 <metadata>
  <rdf:RDF xmlns:dc="http://purl.org/dc/elements/1.1/" xmlns:cc="http://creativecommons.org/ns#" xmlns:rdf="http://www.w3.org/1999/02/22-rdf-syntax-ns#">
   <cc:Work>
    <dc:type rdf:resource="http://purl.org/dc/dcmitype/StillImage"/>
    <dc:date>2022-08-18T01:10:37.976529</dc:date>
    <dc:format>image/svg+xml</dc:format>
    <dc:creator>
     <cc:Agent>
      <dc:title>Matplotlib v3.5.1, https://matplotlib.org/</dc:title>
     </cc:Agent>
    </dc:creator>
   </cc:Work>
  </rdf:RDF>
 </metadata>
 <defs>
  <style type="text/css">*{stroke-linejoin: round; stroke-linecap: butt}</style>
 </defs>
 <g id="figure_1">
  <g id="patch_1">
   <path d="M 0 331.760948 
L 332.274647 331.760948 
L 332.274647 0 
L 0 0 
z
" style="fill: #ffffff"/>
  </g>
  <g id="axes_1">
   <g id="patch_2">
    <path d="M 56.874647 281.107752 
L 328.674647 281.107752 
L 328.674647 9.307752 
L 56.874647 9.307752 
z
" style="fill: #e5e5e5"/>
   </g>
   <g id="matplotlib.axis_1">
    <g id="xtick_1">
     <g id="line2d_1">
      <path d="M 102.174647 281.107752 
L 102.174647 9.307752 
" clip-path="url(#p017fb48969)" style="fill: none; stroke: #ffffff; stroke-width: 1.5; stroke-linecap: square"/>
     </g>
     <g id="line2d_2">
      <defs>
       <path id="mc6914a469d" d="M 0 0 
L 0 9 
" style="stroke: #555555; stroke-width: 1.875"/>
      </defs>
      <g>
       <use xlink:href="#mc6914a469d" x="102.174647" y="281.107752" style="fill: #555555; stroke: #555555; stroke-width: 1.875"/>
      </g>
     </g>
     <g id="text_1">
      <!-- $\mathdefault{−2}$ -->
      <g style="fill: #555555" transform="translate(91.758006 305.023257)scale(0.165 -0.165)">
       <defs>
        <path id="CMSY10-0" d="M 4218 1472 
C 4326 1472 4442 1472 4442 1600 
C 4442 1728 4326 1728 4218 1728 
L 755 1728 
C 646 1728 531 1728 531 1600 
C 531 1472 646 1472 755 1472 
L 4218 1472 
z
" transform="scale(0.015625)"/>
        <path id="CMR17-32" d="M 2669 989 
L 2554 989 
C 2490 536 2438 459 2413 420 
C 2381 369 1920 369 1830 369 
L 602 369 
C 832 619 1280 1072 1824 1597 
C 2214 1967 2669 2402 2669 3035 
C 2669 3790 2067 4224 1395 4224 
C 691 4224 262 3604 262 3030 
C 262 2780 448 2748 525 2748 
C 589 2748 781 2787 781 3010 
C 781 3207 614 3264 525 3264 
C 486 3264 448 3258 422 3245 
C 544 3790 915 4058 1306 4058 
C 1862 4058 2227 3617 2227 3035 
C 2227 2479 1901 2000 1536 1584 
L 262 146 
L 262 0 
L 2515 0 
L 2669 989 
z
" transform="scale(0.015625)"/>
       </defs>
       <use xlink:href="#CMSY10-0" transform="scale(0.996264)"/>
       <use xlink:href="#CMR17-32" transform="translate(77.487468 0)scale(0.996264)"/>
      </g>
     </g>
    </g>
    <g id="xtick_2">
     <g id="line2d_3">
      <path d="M 192.774647 281.107752 
L 192.774647 9.307752 
" clip-path="url(#p017fb48969)" style="fill: none; stroke: #ffffff; stroke-width: 1.5; stroke-linecap: square"/>
     </g>
     <g id="line2d_4">
      <g>
       <use xlink:href="#mc6914a469d" x="192.774647" y="281.107752" style="fill: #555555; stroke: #555555; stroke-width: 1.875"/>
      </g>
     </g>
     <g id="text_2">
      <!-- $\mathdefault{0}$ -->
      <g style="fill: #555555" transform="translate(188.75072 305.023257)scale(0.165 -0.165)">
       <defs>
        <path id="CMR17-30" d="M 2688 2025 
C 2688 2416 2682 3080 2413 3591 
C 2176 4039 1798 4198 1466 4198 
C 1158 4198 768 4058 525 3597 
C 269 3118 243 2524 243 2025 
C 243 1661 250 1106 448 619 
C 723 -39 1216 -128 1466 -128 
C 1760 -128 2208 -7 2470 600 
C 2662 1042 2688 1559 2688 2025 
z
M 1466 -26 
C 1056 -26 813 325 723 812 
C 653 1188 653 1738 653 2096 
C 653 2588 653 2997 736 3387 
C 858 3929 1216 4096 1466 4096 
C 1728 4096 2067 3923 2189 3400 
C 2272 3036 2278 2607 2278 2096 
C 2278 1680 2278 1169 2202 792 
C 2067 95 1690 -26 1466 -26 
z
" transform="scale(0.015625)"/>
       </defs>
       <use xlink:href="#CMR17-30" transform="scale(0.996264)"/>
      </g>
     </g>
    </g>
    <g id="xtick_3">
     <g id="line2d_5">
      <path d="M 283.374647 281.107752 
L 283.374647 9.307752 
" clip-path="url(#p017fb48969)" style="fill: none; stroke: #ffffff; stroke-width: 1.5; stroke-linecap: square"/>
     </g>
     <g id="line2d_6">
      <g>
       <use xlink:href="#mc6914a469d" x="283.374647" y="281.107752" style="fill: #555555; stroke: #555555; stroke-width: 1.875"/>
      </g>
     </g>
     <g id="text_3">
      <!-- $\mathdefault{2}$ -->
      <g style="fill: #555555" transform="translate(279.35072 305.023257)scale(0.165 -0.165)">
       <use xlink:href="#CMR17-32" transform="scale(0.996264)"/>
      </g>
     </g>
    </g>
    <g id="xtick_4">
     <g id="line2d_7">
      <defs>
       <path id="m07a00874ef" d="M 0 0 
L 0 6 
" style="stroke: #555555; stroke-width: 1.5"/>
      </defs>
      <g>
       <use xlink:href="#m07a00874ef" x="79.524647" y="281.107752" style="fill: #555555; stroke: #555555; stroke-width: 1.5"/>
      </g>
     </g>
    </g>
    <g id="xtick_5">
     <g id="line2d_8">
      <g>
       <use xlink:href="#m07a00874ef" x="124.824647" y="281.107752" style="fill: #555555; stroke: #555555; stroke-width: 1.5"/>
      </g>
     </g>
    </g>
    <g id="xtick_6">
     <g id="line2d_9">
      <g>
       <use xlink:href="#m07a00874ef" x="147.474647" y="281.107752" style="fill: #555555; stroke: #555555; stroke-width: 1.5"/>
      </g>
     </g>
    </g>
    <g id="xtick_7">
     <g id="line2d_10">
      <g>
       <use xlink:href="#m07a00874ef" x="170.124647" y="281.107752" style="fill: #555555; stroke: #555555; stroke-width: 1.5"/>
      </g>
     </g>
    </g>
    <g id="xtick_8">
     <g id="line2d_11">
      <g>
       <use xlink:href="#m07a00874ef" x="215.424647" y="281.107752" style="fill: #555555; stroke: #555555; stroke-width: 1.5"/>
      </g>
     </g>
    </g>
    <g id="xtick_9">
     <g id="line2d_12">
      <g>
       <use xlink:href="#m07a00874ef" x="238.074647" y="281.107752" style="fill: #555555; stroke: #555555; stroke-width: 1.5"/>
      </g>
     </g>
    </g>
    <g id="xtick_10">
     <g id="line2d_13">
      <g>
       <use xlink:href="#m07a00874ef" x="260.724647" y="281.107752" style="fill: #555555; stroke: #555555; stroke-width: 1.5"/>
      </g>
     </g>
    </g>
    <g id="xtick_11">
     <g id="line2d_14">
      <g>
       <use xlink:href="#m07a00874ef" x="306.024647" y="281.107752" style="fill: #555555; stroke: #555555; stroke-width: 1.5"/>
      </g>
     </g>
    </g>
    <g id="xtick_12">
     <g id="line2d_15">
      <g>
       <use xlink:href="#m07a00874ef" x="328.674647" y="281.107752" style="fill: #555555; stroke: #555555; stroke-width: 1.5"/>
      </g>
     </g>
    </g>
    <g id="text_4">
     <!-- $x$ -->
     <g style="fill: #555555" transform="translate(187.785582 324.672884)scale(0.18 -0.18)">
      <defs>
       <path id="CMMI12-78" d="M 3034 2606 
C 2829 2567 2752 2414 2752 2293 
C 2752 2139 2874 2088 2963 2088 
C 3155 2088 3290 2254 3290 2427 
C 3290 2695 2982 2816 2714 2816 
C 2323 2816 2106 2433 2048 2312 
C 1901 2816 1504 2816 1389 2816 
C 736 2816 390 1980 390 1839 
C 390 1814 416 1782 461 1782 
C 512 1782 525 1820 538 1846 
C 755 2555 1184 2689 1370 2689 
C 1658 2689 1715 2420 1715 2267 
C 1715 2127 1677 1980 1600 1673 
L 1382 798 
C 1286 415 1101 64 762 64 
C 730 64 570 64 435 147 
C 666 192 717 383 717 460 
C 717 588 621 664 499 664 
C 346 664 179 530 179 326 
C 179 57 480 -64 755 -64 
C 1062 -64 1280 179 1414 441 
C 1517 64 1837 -64 2074 -64 
C 2726 -64 3072 773 3072 913 
C 3072 945 3046 971 3008 971 
C 2950 971 2944 939 2925 888 
C 2752 326 2381 64 2093 64 
C 1869 64 1747 230 1747 492 
C 1747 632 1773 734 1875 1156 
L 2099 2024 
C 2195 2408 2413 2689 2707 2689 
C 2720 2689 2899 2689 3034 2606 
z
" transform="scale(0.015625)"/>
      </defs>
      <use xlink:href="#CMMI12-78" transform="scale(0.996264)"/>
     </g>
    </g>
   </g>
   <g id="matplotlib.axis_2">
    <g id="ytick_1">
     <g id="line2d_16">
      <path d="M 56.874647 281.107752 
L 328.674647 281.107752 
" clip-path="url(#p017fb48969)" style="fill: none; stroke: #ffffff; stroke-width: 1.5; stroke-linecap: square"/>
     </g>
     <g id="line2d_17">
      <defs>
       <path id="m66d8008c54" d="M 0 0 
L -9 0 
" style="stroke: #555555; stroke-width: 1.875"/>
      </defs>
      <g>
       <use xlink:href="#m66d8008c54" x="56.874647" y="281.107752" style="fill: #555555; stroke: #555555; stroke-width: 1.875"/>
      </g>
     </g>
     <g id="text_5">
      <!-- $\mathdefault{−3}$ -->
      <g style="fill: #555555" transform="translate(23.541364 286.815505)scale(0.165 -0.165)">
       <defs>
        <path id="CMR17-33" d="M 1414 2157 
C 1984 2157 2234 1662 2234 1090 
C 2234 320 1824 25 1453 25 
C 1114 25 563 194 390 693 
C 422 680 454 680 486 680 
C 640 680 755 782 755 948 
C 755 1133 614 1216 486 1216 
C 378 1216 211 1165 211 926 
C 211 335 787 -128 1466 -128 
C 2176 -128 2720 430 2720 1085 
C 2720 1707 2208 2157 1600 2227 
C 2086 2328 2554 2756 2554 3329 
C 2554 3820 2048 4179 1472 4179 
C 890 4179 378 3829 378 3329 
C 378 3110 544 3072 627 3072 
C 762 3072 877 3155 877 3321 
C 877 3486 762 3569 627 3569 
C 602 3569 570 3569 544 3557 
C 730 3959 1235 4032 1459 4032 
C 1683 4032 2106 3925 2106 3320 
C 2106 3143 2080 2828 1862 2550 
C 1670 2304 1453 2304 1242 2284 
C 1210 2284 1062 2269 1037 2269 
C 992 2263 966 2257 966 2208 
C 966 2163 973 2157 1101 2157 
L 1414 2157 
z
" transform="scale(0.015625)"/>
       </defs>
       <use xlink:href="#CMSY10-0" transform="scale(0.996264)"/>
       <use xlink:href="#CMR17-33" transform="translate(77.487468 0)scale(0.996264)"/>
      </g>
     </g>
    </g>
    <g id="ytick_2">
     <g id="line2d_18">
      <path d="M 56.874647 235.807752 
L 328.674647 235.807752 
" clip-path="url(#p017fb48969)" style="fill: none; stroke: #ffffff; stroke-width: 1.5; stroke-linecap: square"/>
     </g>
     <g id="line2d_19">
      <g>
       <use xlink:href="#m66d8008c54" x="56.874647" y="235.807752" style="fill: #555555; stroke: #555555; stroke-width: 1.875"/>
      </g>
     </g>
     <g id="text_6">
      <!-- $\mathdefault{−2}$ -->
      <g style="fill: #555555" transform="translate(23.541364 241.515505)scale(0.165 -0.165)">
       <use xlink:href="#CMSY10-0" transform="scale(0.996264)"/>
       <use xlink:href="#CMR17-32" transform="translate(77.487468 0)scale(0.996264)"/>
      </g>
     </g>
    </g>
    <g id="ytick_3">
     <g id="line2d_20">
      <path d="M 56.874647 190.507752 
L 328.674647 190.507752 
" clip-path="url(#p017fb48969)" style="fill: none; stroke: #ffffff; stroke-width: 1.5; stroke-linecap: square"/>
     </g>
     <g id="line2d_21">
      <g>
       <use xlink:href="#m66d8008c54" x="56.874647" y="190.507752" style="fill: #555555; stroke: #555555; stroke-width: 1.875"/>
      </g>
     </g>
     <g id="text_7">
      <!-- $\mathdefault{−1}$ -->
      <g style="fill: #555555" transform="translate(23.541364 196.215505)scale(0.165 -0.165)">
       <defs>
        <path id="CMR17-31" d="M 1702 4058 
C 1702 4192 1696 4192 1606 4192 
C 1357 3916 979 3827 621 3827 
C 602 3827 570 3827 563 3808 
C 557 3795 557 3782 557 3648 
C 755 3648 1088 3686 1344 3839 
L 1344 461 
C 1344 236 1331 160 781 160 
L 589 160 
L 589 0 
C 896 0 1216 0 1523 0 
C 1830 0 2150 0 2458 0 
L 2458 160 
L 2266 160 
C 1715 160 1702 230 1702 458 
L 1702 4058 
z
" transform="scale(0.015625)"/>
       </defs>
       <use xlink:href="#CMSY10-0" transform="scale(0.996264)"/>
       <use xlink:href="#CMR17-31" transform="translate(77.487468 0)scale(0.996264)"/>
      </g>
     </g>
    </g>
    <g id="ytick_4">
     <g id="line2d_22">
      <path d="M 56.874647 145.207752 
L 328.674647 145.207752 
" clip-path="url(#p017fb48969)" style="fill: none; stroke: #ffffff; stroke-width: 1.5; stroke-linecap: square"/>
     </g>
     <g id="line2d_23">
      <g>
       <use xlink:href="#m66d8008c54" x="56.874647" y="145.207752" style="fill: #555555; stroke: #555555; stroke-width: 1.875"/>
      </g>
     </g>
     <g id="text_8">
      <!-- $\mathdefault{0}$ -->
      <g style="fill: #555555" transform="translate(36.326793 150.915505)scale(0.165 -0.165)">
       <use xlink:href="#CMR17-30" transform="scale(0.996264)"/>
      </g>
     </g>
    </g>
    <g id="ytick_5">
     <g id="line2d_24">
      <path d="M 56.874647 99.907752 
L 328.674647 99.907752 
" clip-path="url(#p017fb48969)" style="fill: none; stroke: #ffffff; stroke-width: 1.5; stroke-linecap: square"/>
     </g>
     <g id="line2d_25">
      <g>
       <use xlink:href="#m66d8008c54" x="56.874647" y="99.907752" style="fill: #555555; stroke: #555555; stroke-width: 1.875"/>
      </g>
     </g>
     <g id="text_9">
      <!-- $\mathdefault{1}$ -->
      <g style="fill: #555555" transform="translate(36.326793 105.615505)scale(0.165 -0.165)">
       <use xlink:href="#CMR17-31" transform="scale(0.996264)"/>
      </g>
     </g>
    </g>
    <g id="ytick_6">
     <g id="line2d_26">
      <path d="M 56.874647 54.607752 
L 328.674647 54.607752 
" clip-path="url(#p017fb48969)" style="fill: none; stroke: #ffffff; stroke-width: 1.5; stroke-linecap: square"/>
     </g>
     <g id="line2d_27">
      <g>
       <use xlink:href="#m66d8008c54" x="56.874647" y="54.607752" style="fill: #555555; stroke: #555555; stroke-width: 1.875"/>
      </g>
     </g>
     <g id="text_10">
      <!-- $\mathdefault{2}$ -->
      <g style="fill: #555555" transform="translate(36.326793 60.315505)scale(0.165 -0.165)">
       <use xlink:href="#CMR17-32" transform="scale(0.996264)"/>
      </g>
     </g>
    </g>
    <g id="ytick_7">
     <g id="line2d_28">
      <path d="M 56.874647 9.307752 
L 328.674647 9.307752 
" clip-path="url(#p017fb48969)" style="fill: none; stroke: #ffffff; stroke-width: 1.5; stroke-linecap: square"/>
     </g>
     <g id="line2d_29">
      <g>
       <use xlink:href="#m66d8008c54" x="56.874647" y="9.307752" style="fill: #555555; stroke: #555555; stroke-width: 1.875"/>
      </g>
     </g>
     <g id="text_11">
      <!-- $\mathdefault{3}$ -->
      <g style="fill: #555555" transform="translate(36.326793 15.015505)scale(0.165 -0.165)">
       <use xlink:href="#CMR17-33" transform="scale(0.996264)"/>
      </g>
     </g>
    </g>
    <g id="ytick_8">
     <g id="line2d_30">
      <defs>
       <path id="m7f5c9d58d9" d="M 0 0 
L -6 0 
" style="stroke: #555555; stroke-width: 1.5"/>
      </defs>
      <g>
       <use xlink:href="#m7f5c9d58d9" x="56.874647" y="272.047752" style="fill: #555555; stroke: #555555; stroke-width: 1.5"/>
      </g>
     </g>
    </g>
    <g id="ytick_9">
     <g id="line2d_31">
      <g>
       <use xlink:href="#m7f5c9d58d9" x="56.874647" y="262.987752" style="fill: #555555; stroke: #555555; stroke-width: 1.5"/>
      </g>
     </g>
    </g>
    <g id="ytick_10">
     <g id="line2d_32">
      <g>
       <use xlink:href="#m7f5c9d58d9" x="56.874647" y="253.927752" style="fill: #555555; stroke: #555555; stroke-width: 1.5"/>
      </g>
     </g>
    </g>
    <g id="ytick_11">
     <g id="line2d_33">
      <g>
       <use xlink:href="#m7f5c9d58d9" x="56.874647" y="244.867752" style="fill: #555555; stroke: #555555; stroke-width: 1.5"/>
      </g>
     </g>
    </g>
    <g id="ytick_12">
     <g id="line2d_34">
      <g>
       <use xlink:href="#m7f5c9d58d9" x="56.874647" y="226.747752" style="fill: #555555; stroke: #555555; stroke-width: 1.5"/>
      </g>
     </g>
    </g>
    <g id="ytick_13">
     <g id="line2d_35">
      <g>
       <use xlink:href="#m7f5c9d58d9" x="56.874647" y="217.687752" style="fill: #555555; stroke: #555555; stroke-width: 1.5"/>
      </g>
     </g>
    </g>
    <g id="ytick_14">
     <g id="line2d_36">
      <g>
       <use xlink:href="#m7f5c9d58d9" x="56.874647" y="208.627752" style="fill: #555555; stroke: #555555; stroke-width: 1.5"/>
      </g>
     </g>
    </g>
    <g id="ytick_15">
     <g id="line2d_37">
      <g>
       <use xlink:href="#m7f5c9d58d9" x="56.874647" y="199.567752" style="fill: #555555; stroke: #555555; stroke-width: 1.5"/>
      </g>
     </g>
    </g>
    <g id="ytick_16">
     <g id="line2d_38">
      <g>
       <use xlink:href="#m7f5c9d58d9" x="56.874647" y="181.447752" style="fill: #555555; stroke: #555555; stroke-width: 1.5"/>
      </g>
     </g>
    </g>
    <g id="ytick_17">
     <g id="line2d_39">
      <g>
       <use xlink:href="#m7f5c9d58d9" x="56.874647" y="172.387752" style="fill: #555555; stroke: #555555; stroke-width: 1.5"/>
      </g>
     </g>
    </g>
    <g id="ytick_18">
     <g id="line2d_40">
      <g>
       <use xlink:href="#m7f5c9d58d9" x="56.874647" y="163.327752" style="fill: #555555; stroke: #555555; stroke-width: 1.5"/>
      </g>
     </g>
    </g>
    <g id="ytick_19">
     <g id="line2d_41">
      <g>
       <use xlink:href="#m7f5c9d58d9" x="56.874647" y="154.267752" style="fill: #555555; stroke: #555555; stroke-width: 1.5"/>
      </g>
     </g>
    </g>
    <g id="ytick_20">
     <g id="line2d_42">
      <g>
       <use xlink:href="#m7f5c9d58d9" x="56.874647" y="136.147752" style="fill: #555555; stroke: #555555; stroke-width: 1.5"/>
      </g>
     </g>
    </g>
    <g id="ytick_21">
     <g id="line2d_43">
      <g>
       <use xlink:href="#m7f5c9d58d9" x="56.874647" y="127.087752" style="fill: #555555; stroke: #555555; stroke-width: 1.5"/>
      </g>
     </g>
    </g>
    <g id="ytick_22">
     <g id="line2d_44">
      <g>
       <use xlink:href="#m7f5c9d58d9" x="56.874647" y="118.027752" style="fill: #555555; stroke: #555555; stroke-width: 1.5"/>
      </g>
     </g>
    </g>
    <g id="ytick_23">
     <g id="line2d_45">
      <g>
       <use xlink:href="#m7f5c9d58d9" x="56.874647" y="108.967752" style="fill: #555555; stroke: #555555; stroke-width: 1.5"/>
      </g>
     </g>
    </g>
    <g id="ytick_24">
     <g id="line2d_46">
      <g>
       <use xlink:href="#m7f5c9d58d9" x="56.874647" y="90.847752" style="fill: #555555; stroke: #555555; stroke-width: 1.5"/>
      </g>
     </g>
    </g>
    <g id="ytick_25">
     <g id="line2d_47">
      <g>
       <use xlink:href="#m7f5c9d58d9" x="56.874647" y="81.787752" style="fill: #555555; stroke: #555555; stroke-width: 1.5"/>
      </g>
     </g>
    </g>
    <g id="ytick_26">
     <g id="line2d_48">
      <g>
       <use xlink:href="#m7f5c9d58d9" x="56.874647" y="72.727752" style="fill: #555555; stroke: #555555; stroke-width: 1.5"/>
      </g>
     </g>
    </g>
    <g id="ytick_27">
     <g id="line2d_49">
      <g>
       <use xlink:href="#m7f5c9d58d9" x="56.874647" y="63.667752" style="fill: #555555; stroke: #555555; stroke-width: 1.5"/>
      </g>
     </g>
    </g>
    <g id="ytick_28">
     <g id="line2d_50">
      <g>
       <use xlink:href="#m7f5c9d58d9" x="56.874647" y="45.547752" style="fill: #555555; stroke: #555555; stroke-width: 1.5"/>
      </g>
     </g>
    </g>
    <g id="ytick_29">
     <g id="line2d_51">
      <g>
       <use xlink:href="#m7f5c9d58d9" x="56.874647" y="36.487752" style="fill: #555555; stroke: #555555; stroke-width: 1.5"/>
      </g>
     </g>
    </g>
    <g id="ytick_30">
     <g id="line2d_52">
      <g>
       <use xlink:href="#m7f5c9d58d9" x="56.874647" y="27.427752" style="fill: #555555; stroke: #555555; stroke-width: 1.5"/>
      </g>
     </g>
    </g>
    <g id="ytick_31">
     <g id="line2d_53">
      <g>
       <use xlink:href="#m7f5c9d58d9" x="56.874647" y="18.367752" style="fill: #555555; stroke: #555555; stroke-width: 1.5"/>
      </g>
     </g>
    </g>
    <g id="text_12">
     <!-- $y$ -->
     <g style="fill: #555555" transform="translate(16.0533 149.488529)rotate(-90)scale(0.18 -0.18)">
      <defs>
       <path id="CMMI12-79" d="M 1683 -700 
C 1510 -939 1261 -1152 947 -1152 
C 870 -1152 563 -1152 467 -889 
C 486 -895 518 -895 531 -895 
C 723 -895 851 -729 851 -582 
C 851 -435 730 -384 634 -384 
C 531 -384 307 -458 307 -759 
C 307 -1071 582 -1286 947 -1286 
C 1587 -1286 2234 -700 2413 6 
L 3040 2485 
C 3046 2517 3059 2556 3059 2594 
C 3059 2689 2982 2753 2886 2753 
C 2829 2753 2694 2727 2643 2535 
L 2170 658 
C 2138 543 2138 530 2086 460 
C 1958 281 1747 64 1440 64 
C 1082 64 1050 415 1050 588 
C 1050 952 1222 1443 1395 1903 
C 1466 2088 1504 2178 1504 2305 
C 1504 2574 1312 2816 998 2816 
C 410 2816 173 1890 173 1839 
C 173 1814 198 1782 243 1782 
C 301 1782 307 1807 333 1897 
C 486 2433 730 2689 979 2689 
C 1037 2689 1146 2689 1146 2478 
C 1146 2312 1075 2127 979 1884 
C 666 1047 666 837 666 683 
C 666 77 1101 -64 1421 -64 
C 1606 -64 1837 -6 2061 230 
L 2067 224 
C 1971 -147 1907 -392 1683 -700 
z
" transform="scale(0.015625)"/>
      </defs>
      <use xlink:href="#CMMI12-79" transform="scale(0.996264)"/>
     </g>
    </g>
   </g>
   <g id="PathCollection_1"/>
   <g id="PathCollection_2">
    <path d="M 226.39432 181.084838 
L 236.289263 171.289571 
L 257.292829 150.625521 
L 261.186033 146.58048 
L 266.174112 141.089571 
L 271.020101 135.252248 
L 273.765556 131.633436 
L 274.884458 130.107752 
L 278.433542 124.616843 
L 281.378706 119.125934 
L 283.698896 113.635025 
L 284.747374 110.252486 
L 285.337497 108.144116 
L 285.917968 105.398662 
L 286.315632 102.653207 
L 286.536561 99.907752 
L 286.58295 97.162298 
L 286.453261 94.416843 
L 286.142266 91.671389 
L 285.640998 88.925934 
L 284.747374 85.598375 
L 284.068655 83.435025 
L 282.988407 80.689571 
L 281.677949 77.944116 
L 279.256465 73.781652 
L 278.389326 72.453207 
L 276.333067 69.707752 
L 273.765556 66.736921 
L 271.020101 64.006452 
L 268.045607 61.471389 
L 264.200747 58.725934 
L 262.783738 57.819329 
L 259.355565 55.98048 
L 257.292829 54.993992 
L 254.547374 53.913745 
L 251.80192 53.045805 
L 249.056465 52.341401 
L 246.311011 51.840134 
L 243.565556 51.529139 
L 240.820101 51.399449 
L 238.074647 51.445838 
L 235.329192 51.666767 
L 232.583738 52.064431 
L 229.838283 52.644902 
L 224.347374 54.283504 
L 220.27794 55.98048 
L 218.856465 56.603693 
L 214.851897 58.725934 
L 213.365556 59.548857 
L 207.874647 63.097942 
L 202.383738 67.227211 
L 196.892829 71.808287 
L 190.202671 77.944116 
L 184.574345 83.435025 
L 176.451458 91.671389 
L 157.598801 110.889571 
L 146.446625 121.871389 
L 129.667785 138.344116 
L 122.765556 145.56597 
L 119.375182 149.325934 
L 114.529192 155.163257 
L 111.783738 158.782068 
L 110.664836 160.307752 
L 107.115751 165.798662 
L 104.170588 171.289571 
L 101.850398 176.78048 
L 100.80192 180.163019 
L 100.211797 182.271389 
L 99.631326 185.016843 
L 99.233662 187.762298 
L 99.012733 190.507752 
L 98.966344 193.253207 
L 99.096033 195.998662 
L 99.407028 198.744116 
L 99.908296 201.489571 
L 100.80192 204.81713 
L 101.480639 206.98048 
L 102.560886 209.725934 
L 103.871345 212.471389 
L 106.292829 216.633853 
L 107.159967 217.962298 
L 109.216227 220.707752 
L 111.783738 223.678584 
L 114.529192 226.409053 
L 117.503687 228.944116 
L 121.348547 231.689571 
L 122.765556 232.596176 
L 126.193729 234.435025 
L 128.256465 235.421513 
L 131.00192 236.50176 
L 133.747374 237.369699 
L 136.492829 238.074104 
L 139.238283 238.575371 
L 141.983738 238.886366 
L 144.729192 239.016056 
L 147.474647 238.969666 
L 150.220101 238.748738 
L 152.965556 238.351074 
L 155.711011 237.770603 
L 161.20192 236.132001 
L 165.271354 234.435025 
L 166.692829 233.811812 
L 170.697397 231.689571 
L 172.183738 230.866648 
L 177.674647 227.317563 
L 183.165556 223.188294 
L 188.656465 218.607218 
L 195.346622 212.471389 
L 200.974949 206.98048 
L 207.852779 200.023405 
L 207.852779 200.023405 
" clip-path="url(#p017fb48969)" style="fill: none; stroke: #23160e; stroke-width: 2.25"/>
   </g>
   <g id="PathCollection_3">
    <path d="M 177.304519 106.289414 
L 153.488389 130.107752 
L 141.983738 141.990473 
L 137.755017 146.58048 
L 133.011166 152.071389 
L 128.256465 158.14524 
L 125.511011 162.044287 
L 124.816863 163.053207 
L 121.545113 168.544116 
L 120.020101 171.653451 
L 118.936276 174.035025 
L 117.902436 176.78048 
L 117.057885 179.525934 
L 116.377914 182.271389 
L 115.908645 185.016843 
L 115.647934 187.762298 
L 115.598846 190.507752 
L 115.769575 193.253207 
L 116.17347 195.998662 
L 116.82916 198.744116 
L 117.742152 201.489571 
L 118.940319 204.235025 
L 120.473948 206.98048 
L 122.765556 210.200474 
L 125.511011 213.21456 
L 128.256465 215.598535 
L 131.786169 217.962298 
L 133.747374 219.042081 
L 136.492829 220.240248 
L 139.238283 221.153239 
L 141.983738 221.80893 
L 144.729192 222.212824 
L 147.474647 222.383553 
L 150.220101 222.334465 
L 152.965556 222.073754 
L 155.711011 221.604485 
L 159.128588 220.707752 
L 161.20192 220.079964 
L 163.947374 219.046123 
L 169.438283 216.437286 
L 174.929192 213.165536 
L 180.420101 209.310046 
L 185.911011 204.971233 
L 193.021201 198.744116 
L 196.892829 195.165409 
L 205.129192 187.204545 
L 224.347374 168.052552 
L 238.074647 154.175893 
L 245.295844 146.58048 
L 251.80192 139.201444 
L 254.751247 135.598662 
L 258.883885 130.107752 
L 262.433149 124.616843 
L 265.372132 119.125934 
L 267.646858 113.635025 
L 268.491409 110.889571 
L 269.17138 108.144116 
L 269.640649 105.398662 
L 269.90136 102.653207 
L 269.950448 99.907752 
L 269.779719 97.162298 
L 269.375824 94.416843 
L 268.720134 91.671389 
L 267.807142 88.925934 
L 266.608975 86.18048 
L 265.075346 83.435025 
L 262.783738 80.21503 
L 260.038283 77.200945 
L 257.292829 74.81697 
L 253.763125 72.453207 
L 251.80192 71.373424 
L 249.056465 70.175257 
L 246.311011 69.262266 
L 243.565556 68.606575 
L 240.820101 68.20268 
L 238.074647 68.031951 
L 235.329192 68.08104 
L 232.583738 68.341751 
L 229.838283 68.81102 
L 226.420706 69.707752 
L 224.347374 70.335541 
L 221.60192 71.369382 
L 216.111011 73.978219 
L 210.620101 77.249968 
L 205.129192 81.105459 
L 199.638283 85.444272 
L 196.105138 88.469619 
L 196.105138 88.469619 
" clip-path="url(#p017fb48969)" style="fill: none; stroke: #452c1c; stroke-width: 2.25"/>
   </g>
   <g id="PathCollection_4">
    <path d="M 152.00434 141.660231 
L 147.474647 146.755164 
L 142.999605 152.071389 
L 138.814196 157.562298 
L 135.104504 163.053207 
L 132.008409 168.544116 
L 130.725904 171.289571 
L 129.600239 174.035025 
L 128.694086 176.78048 
L 127.987932 179.525934 
L 127.490581 182.271389 
L 127.233583 185.016843 
L 127.229192 187.762298 
L 127.497368 190.507752 
L 128.256465 193.856563 
L 128.968228 195.998662 
L 130.26682 198.744116 
L 132.060753 201.489571 
L 134.51556 204.235025 
L 136.492829 205.921647 
L 139.238283 207.715579 
L 141.983738 209.014171 
L 144.729192 209.916231 
L 147.474647 210.485031 
L 150.220101 210.753207 
L 152.965556 210.748816 
L 155.711011 210.491818 
L 159.461223 209.725934 
L 161.20192 209.288313 
L 163.947374 208.38216 
L 167.260931 206.98048 
L 169.438283 205.97399 
L 172.603875 204.235025 
L 174.929192 202.877896 
L 180.420101 199.168203 
L 185.911011 194.982795 
L 191.40192 190.360902 
L 197.370876 185.016843 
L 203.229149 179.525934 
L 211.699654 171.289571 
L 221.60192 161.34089 
L 227.906911 154.816843 
L 235.508003 146.58048 
L 240.820101 140.428206 
L 244.705704 135.598662 
L 248.651921 130.107752 
L 252.057653 124.616843 
L 253.540885 121.871389 
L 254.82339 119.125934 
L 255.949055 116.38048 
L 256.855208 113.635025 
L 257.561361 110.889571 
L 258.058712 108.144116 
L 258.31571 105.398662 
L 258.320102 102.653207 
L 258.051926 99.907752 
L 257.292829 96.558942 
L 256.581066 94.416843 
L 255.282474 91.671389 
L 253.488541 88.925934 
L 251.033734 86.18048 
L 249.056465 84.493858 
L 246.311011 82.699925 
L 243.565556 81.401333 
L 240.820101 80.499274 
L 238.074647 79.930473 
L 235.329192 79.662298 
L 232.583738 79.666689 
L 229.838283 79.923687 
L 226.088071 80.689571 
L 224.347374 81.127192 
L 221.60192 82.033345 
L 218.288363 83.435025 
L 216.111011 84.441515 
L 212.945419 86.18048 
L 210.620101 87.537609 
L 205.129192 91.247302 
L 199.638283 95.43271 
L 194.147374 100.054603 
L 188.178418 105.398662 
L 182.320145 110.889571 
L 173.84964 119.125934 
L 170.483456 122.471614 
L 170.483456 122.471614 
" clip-path="url(#p017fb48969)" style="fill: none; stroke: #69422a; stroke-width: 2.25"/>
   </g>
   <g id="PathCollection_5">
    <path d="M 236.000352 136.962251 
L 238.074647 134.113254 
L 238.983819 132.853207 
L 242.466949 127.362298 
L 245.305892 121.871389 
L 246.437374 119.125934 
L 247.383445 116.38048 
L 248.09213 113.635025 
L 248.553139 110.889571 
L 248.74474 108.144116 
L 248.632188 105.398662 
L 248.165681 102.653207 
L 247.277761 99.907752 
L 245.853962 97.162298 
L 243.565556 94.312824 
L 240.820101 92.128437 
L 240.02542 91.671389 
L 238.074647 90.704638 
L 235.329192 89.816719 
L 232.583738 89.350211 
L 229.838283 89.237659 
L 227.092829 89.42926 
L 224.347374 89.890269 
L 221.60192 90.598955 
L 218.563186 91.671389 
L 216.111011 92.676507 
L 212.654661 94.416843 
L 210.620101 95.51545 
L 205.129192 98.99858 
L 199.638283 103.022294 
L 193.357703 108.144116 
L 188.656465 112.237122 
L 180.420101 119.902772 
L 172.183738 128.021406 
L 164.858625 135.598662 
L 157.375459 143.835025 
L 152.767775 149.325934 
L 148.511517 154.816843 
L 144.729192 160.374174 
L 143.082345 163.053207 
L 140.243402 168.544116 
L 139.11192 171.289571 
L 138.165849 174.035025 
L 137.457164 176.78048 
L 136.996154 179.525934 
L 136.804554 182.271389 
L 136.917106 185.016843 
L 137.383613 187.762298 
L 138.271533 190.507752 
L 139.695332 193.253207 
L 141.983738 196.102681 
L 144.729192 198.287068 
L 145.523874 198.744116 
L 147.474647 199.710867 
L 150.220101 200.598786 
L 152.965556 201.065294 
L 155.711011 201.177845 
L 158.456465 200.986245 
L 161.20192 200.525236 
L 163.947374 199.81655 
L 166.986108 198.744116 
L 169.438283 197.738997 
L 172.894633 195.998662 
L 174.929192 194.900055 
L 180.420101 191.416925 
L 185.911011 187.393211 
L 192.191591 182.271389 
L 196.892829 178.178383 
L 205.129192 170.512733 
L 213.365556 162.394099 
L 217.935125 157.71147 
L 217.935125 157.71147 
" clip-path="url(#p017fb48969)" style="fill: none; stroke: #8c5838; stroke-width: 2.25"/>
   </g>
   <g id="PathCollection_6">
    <path d="M 195.54019 173.202279 
L 196.892829 172.029725 
L 197.711572 171.289571 
L 199.638283 169.560137 
L 200.731768 168.544116 
L 202.383738 167.012303 
L 203.656983 165.798662 
L 205.129192 164.390754 
L 206.498766 163.053207 
L 207.874647 161.69751 
L 209.264404 160.307752 
L 210.620101 158.931871 
L 211.957648 157.562298 
L 213.365556 156.090089 
L 214.579198 154.816843 
L 216.111011 153.164874 
L 217.127031 152.071389 
L 218.856465 150.144677 
L 219.59662 149.325934 
L 221.60192 147.012652 
L 221.981053 146.58048 
L 224.274355 143.835025 
L 224.347374 143.742604 
L 226.483593 141.089571 
L 227.092829 140.278418 
L 228.580281 138.344116 
L 229.838283 136.572109 
L 230.548927 135.598662 
L 232.379369 132.853207 
L 232.583738 132.512472 
L 234.076922 130.107752 
L 235.329192 127.828878 
L 235.595669 127.362298 
L 236.942568 124.616843 
L 238.074647 121.878835 
L 238.077865 121.871389 
L 238.99711 119.125934 
L 239.65709 116.38048 
L 240.028982 113.635025 
L 240.063465 110.889571 
L 239.684715 108.144116 
L 238.781762 105.398662 
L 238.074647 104.093344 
L 237.084735 102.653207 
L 235.329192 100.897664 
L 233.889055 99.907752 
L 232.583738 99.200637 
L 229.838283 98.297685 
L 227.092829 97.918935 
L 224.347374 97.953418 
L 221.60192 98.325309 
L 218.856465 98.98529 
L 216.111011 99.904534 
L 216.103565 99.907752 
L 213.365556 101.039831 
L 210.620101 102.38673 
L 210.153521 102.653207 
L 207.874647 103.905477 
L 205.469928 105.398662 
L 205.129192 105.603031 
L 202.383738 107.433472 
L 201.410291 108.144116 
L 199.638283 109.402119 
L 197.703981 110.889571 
L 196.892829 111.498806 
L 194.239795 113.635025 
L 194.147374 113.708044 
L 191.40192 116.001346 
L 190.969747 116.38048 
L 188.656465 118.38578 
L 187.837722 119.125934 
L 185.911011 120.855368 
L 184.817526 121.871389 
L 183.165556 123.403202 
L 181.89231 124.616843 
L 180.420101 126.024751 
L 179.050528 127.362298 
L 177.674647 128.717995 
L 176.28489 130.107752 
L 174.929192 131.483634 
L 173.591646 132.853207 
L 172.183738 134.325416 
L 170.970096 135.598662 
L 169.438283 137.250631 
L 168.422262 138.344116 
L 166.692829 140.270828 
L 165.952674 141.089571 
L 163.947374 143.402853 
L 163.568241 143.835025 
L 161.274938 146.58048 
L 161.20192 146.672901 
L 159.065701 149.325934 
L 158.456465 150.137087 
L 156.969013 152.071389 
L 155.711011 153.843396 
L 155.000367 154.816843 
L 153.169925 157.562298 
L 152.965556 157.903033 
L 151.472372 160.307752 
L 150.220101 162.586627 
L 149.953625 163.053207 
L 148.606726 165.798662 
L 147.474647 168.53667 
L 147.471429 168.544116 
L 146.552184 171.289571 
L 145.892204 174.035025 
L 145.520312 176.78048 
L 145.485829 179.525934 
L 145.864579 182.271389 
L 146.767531 185.016843 
L 147.474647 186.322161 
L 148.464558 187.762298 
L 150.220101 189.517841 
L 151.660239 190.507752 
L 152.965556 191.214868 
L 155.711011 192.11782 
L 158.456465 192.49657 
L 161.20192 192.462087 
L 163.947374 192.090195 
L 166.692829 191.430215 
L 169.438283 190.510971 
L 169.445729 190.507752 
L 172.183738 189.375674 
L 174.929192 188.028774 
L 175.395773 187.762298 
L 176.039374 187.408631 
" clip-path="url(#p017fb48969)" style="fill: none; stroke: #af6f47; stroke-width: 2.25"/>
   </g>
   <g id="PathCollection_7">
    <path d="M 168.748835 183.653434 
L 169.438283 183.520445 
L 172.183738 182.687406 
L 173.196114 182.271389 
L 174.929192 181.583418 
L 177.674647 180.258875 
L 178.972122 179.525934 
L 180.420101 178.731754 
L 183.165556 177.030586 
L 183.527262 176.78048 
L 185.911011 175.170004 
L 187.452706 174.035025 
L 188.656465 173.164636 
L 191.063431 171.289571 
L 191.40192 171.029142 
L 194.147374 168.776629 
L 194.41618 168.544116 
L 196.892829 166.412893 
L 197.575905 165.798662 
L 199.638283 163.942634 
L 200.591845 163.053207 
L 202.383738 161.369901 
L 203.483123 160.307752 
L 205.129192 158.695431 
L 206.262326 157.562298 
L 207.874647 155.916229 
L 208.936796 154.816843 
L 210.620101 153.02495 
L 211.509529 152.071389 
L 213.365556 150.009011 
L 213.979788 149.325934 
L 216.111011 146.849286 
L 216.343524 146.58048 
L 218.596037 143.835025 
L 218.856465 143.496536 
L 220.731531 141.089571 
L 221.60192 139.885811 
L 222.736898 138.344116 
L 224.347374 135.960367 
L 224.597481 135.598662 
L 226.298649 132.853207 
L 227.092829 131.405227 
L 227.825769 130.107752 
L 229.150312 127.362298 
L 229.838283 125.62922 
L 230.2543 124.616843 
L 231.087339 121.871389 
L 231.616916 119.125934 
L 231.769864 116.38048 
L 231.422768 113.635025 
L 230.372958 110.889571 
L 229.838283 110.093165 
L 227.889235 108.144116 
L 227.092829 107.609441 
L 224.347374 106.559632 
L 221.60192 106.212535 
L 218.856465 106.365484 
L 216.111011 106.89506 
L 213.365556 107.728099 
L 212.35318 108.144116 
L 210.620101 108.832087 
L 207.874647 110.15663 
L 206.577172 110.889571 
L 205.129192 111.68375 
L 202.383738 113.384918 
L 202.022032 113.635025 
L 199.638283 115.245501 
L 198.096588 116.38048 
L 196.892829 117.250868 
L 194.485863 119.125934 
L 194.147374 119.386363 
L 191.40192 121.638875 
L 191.133114 121.871389 
L 188.656465 124.002611 
L 187.973389 124.616843 
L 185.911011 126.472871 
L 184.957449 127.362298 
L 183.165556 129.045604 
L 182.066171 130.107752 
L 180.420101 131.720074 
L 179.286968 132.853207 
L 177.674647 134.499276 
L 176.612498 135.598662 
L 174.929192 137.390555 
L 174.039765 138.344116 
L 172.183738 140.406494 
L 171.569506 141.089571 
L 169.438283 143.566219 
L 169.20577 143.835025 
L 166.953257 146.58048 
L 166.692829 146.918968 
L 164.817763 149.325934 
L 163.947374 150.529693 
L 162.812396 152.071389 
L 161.20192 154.455138 
L 160.951813 154.816843 
L 159.250645 157.562298 
L 158.456465 159.010278 
L 157.723525 160.307752 
L 156.398982 163.053207 
L 155.711011 164.786285 
L 155.294994 165.798662 
L 154.896719 167.111258 
" clip-path="url(#p017fb48969)" style="fill: none; stroke: #d28555; stroke-width: 2.25"/>
   </g>
   <g id="PathCollection_8">
    <path d="M 198.376551 121.923311 
L 196.892829 122.945784 
L 194.660025 124.616843 
L 194.147374 125.000112 
L 191.40192 127.209301 
L 191.223501 127.362298 
L 188.656465 129.576638 
L 188.068918 130.107752 
L 185.911011 132.084364 
L 185.10271 132.853207 
L 183.165556 134.734804 
L 182.301698 135.598662 
L 180.420101 137.535816 
L 179.651258 138.344116 
L 177.674647 140.502024 
L 177.143533 141.089571 
L 174.929192 143.656607 
L 174.776195 143.835025 
L 172.567006 146.58048 
L 172.183738 147.093131 
L 170.512678 149.325934 
L 169.438283 150.885002 
L 168.614337 152.071389 
L 166.894484 154.816843 
L 166.692829 155.192314 
L 165.402885 157.562298 
L 164.118349 160.307752 
L 163.947374 160.797425 
L 163.146278 163.053207 
L 162.517076 165.798662 
L 162.340141 168.544116 
L 162.849756 171.289571 
L 163.947374 173.235528 
L 164.746871 174.035025 
L 166.692829 175.132643 
L 169.438283 175.642258 
L 172.183738 175.465323 
L 174.929192 174.836122 
L 177.184974 174.035025 
L 177.674647 173.86405 
L 180.420101 172.579514 
L 182.790086 171.289571 
L 183.165556 171.087915 
L 185.911011 169.368062 
L 187.097397 168.544116 
L 188.656465 167.469721 
L 190.889269 165.798662 
L 191.40192 165.415393 
L 194.147374 163.206204 
L 194.325793 163.053207 
L 196.892829 160.838867 
L 197.480376 160.307752 
L 199.638283 158.331141 
L 200.446583 157.562298 
L 202.383738 155.680701 
L 203.247596 154.816843 
L 205.129192 152.879689 
L 205.898036 152.071389 
L 207.874647 149.913481 
L 208.405761 149.325934 
L 210.620101 146.758898 
L 210.773099 146.58048 
L 212.982288 143.835025 
L 213.365556 143.322374 
L 215.036616 141.089571 
L 216.111011 139.530502 
L 216.934957 138.344116 
L 218.65481 135.598662 
L 218.856465 135.223191 
L 220.146409 132.853207 
L 221.430945 130.107752 
L 221.60192 129.61808 
L 222.403016 127.362298 
L 223.032218 124.616843 
L 223.209152 121.871389 
L 222.699538 119.125934 
L 221.60192 117.179977 
L 220.802422 116.38048 
L 218.856465 115.282862 
L 218.65688 115.245814 
" clip-path="url(#p017fb48969)" style="fill: none; stroke: #f69b63; stroke-width: 2.25"/>
   </g>
   <g id="PathCollection_9">
    <path d="M 174.595852 153.180135 
L 173.777752 154.816843 
L 172.704653 157.562298 
L 172.183738 159.90187 
L 172.094946 160.307752 
L 172.183738 161.703177 
L 172.338732 163.053207 
L 174.929192 165.643668 
L 176.279223 165.798662 
L 177.674647 165.887453 
L 178.080529 165.798662 
L 180.420101 165.277747 
L 183.165556 164.204647 
L 185.469152 163.053207 
L 185.911011 162.828763 
L 188.656465 161.102259 
L 189.780403 160.307752 
L 191.40192 159.139922 
L 193.414037 157.562298 
L 194.147374 156.971197 
L 196.635932 154.816843 
L 196.892829 154.585987 
L 199.530503 152.071389 
L 199.638283 151.963608 
L 202.152881 149.325934 
L 202.383738 149.069038 
L 204.538091 146.58048 
L 205.129192 145.847143 
L 206.706817 143.835025 
L 207.874647 142.213509 
L 208.669153 141.089571 
L 210.395657 138.344116 
L 210.620101 137.902257 
L 211.771542 135.598662 
L 212.844641 132.853207 
L 213.365556 130.513635 
L 213.454348 130.107752 
L 213.365556 128.712328 
L 213.210562 127.362298 
L 210.620101 124.771837 
L 209.270071 124.616843 
L 207.874647 124.528051 
L 207.468765 124.616843 
L 205.129192 125.137758 
L 202.383738 126.210858 
L 200.080142 127.362298 
L 199.638283 127.586742 
L 196.892829 129.313246 
L 195.76889 130.107752 
L 194.147374 131.275583 
L 192.575581 132.507966 
" clip-path="url(#p017fb48969)" style="fill: none; stroke: #ffb171; stroke-width: 2.25"/>
   </g>
   <g id="PathCollection_10"/>
   <g id="patch_3">
    <path d="M 56.874647 281.107752 
L 56.874647 9.307752 
" style="fill: none; stroke: #ffffff; stroke-width: 1.875; stroke-linejoin: miter; stroke-linecap: square"/>
   </g>
   <g id="patch_4">
    <path d="M 56.874647 281.107752 
L 328.674647 281.107752 
" style="fill: none; stroke: #ffffff; stroke-width: 1.875; stroke-linejoin: miter; stroke-linecap: square"/>
   </g>
   <g id="text_13">
    <!-- $\mathdefault{0.0260}$ -->
    <g transform="translate(203.89352 200.433903)rotate(-26.486809)scale(0.12 -0.12)">
     <defs>
      <path id="CMMI12-3a" d="M 1178 307 
C 1178 492 1024 619 870 619 
C 685 619 557 466 557 313 
C 557 128 710 0 864 0 
C 1050 0 1178 153 1178 307 
z
" transform="scale(0.015625)"/>
      <path id="CMR17-36" d="M 678 2176 
C 678 3690 1395 4032 1811 4032 
C 1946 4032 2272 4009 2400 3776 
C 2298 3776 2106 3776 2106 3553 
C 2106 3381 2246 3323 2336 3323 
C 2394 3323 2566 3348 2566 3560 
C 2566 3954 2246 4179 1805 4179 
C 1043 4179 243 3390 243 1984 
C 243 253 966 -128 1478 -128 
C 2099 -128 2688 427 2688 1283 
C 2688 2081 2170 2662 1517 2662 
C 1126 2662 838 2407 678 1960 
L 678 2176 
z
M 1478 25 
C 691 25 691 1200 691 1436 
C 691 1896 909 2560 1504 2560 
C 1613 2560 1926 2560 2138 2120 
C 2253 1870 2253 1609 2253 1289 
C 2253 944 2253 690 2118 434 
C 1978 171 1773 25 1478 25 
z
" transform="scale(0.015625)"/>
     </defs>
     <use xlink:href="#CMR17-30" transform="scale(0.996264)"/>
     <use xlink:href="#CMMI12-3a" transform="translate(45.690477 0)scale(0.996264)"/>
     <use xlink:href="#CMR17-30" transform="translate(72.787654 0)scale(0.996264)"/>
     <use xlink:href="#CMR17-32" transform="translate(118.478131 0)scale(0.996264)"/>
     <use xlink:href="#CMR17-36" transform="translate(164.168608 0)scale(0.996264)"/>
     <use xlink:href="#CMR17-30" transform="translate(209.859086 0)scale(0.996264)"/>
    </g>
   </g>
   <g id="text_14">
    <!-- $\mathdefault{0.0521}$ -->
    <g transform="translate(173.163538 106.712783)rotate(-24.875324)scale(0.12 -0.12)">
     <defs>
      <path id="CMR17-35" d="M 730 3692 
C 794 3666 1056 3584 1325 3584 
C 1920 3584 2246 3911 2432 4100 
C 2432 4157 2432 4192 2394 4192 
C 2387 4192 2374 4192 2323 4163 
C 2099 4058 1837 3973 1517 3973 
C 1325 3973 1037 3999 723 4139 
C 653 4171 640 4171 634 4171 
C 602 4171 595 4164 595 4037 
L 595 2203 
C 595 2089 595 2057 659 2057 
C 691 2057 704 2070 736 2114 
C 941 2401 1222 2522 1542 2522 
C 1766 2522 2246 2382 2246 1289 
C 2246 1085 2246 715 2054 421 
C 1894 159 1645 25 1370 25 
C 947 25 518 320 403 814 
C 429 807 480 795 506 795 
C 589 795 749 840 749 1038 
C 749 1210 627 1280 506 1280 
C 358 1280 262 1190 262 1011 
C 262 454 704 -128 1382 -128 
C 2042 -128 2669 440 2669 1264 
C 2669 2030 2170 2624 1549 2624 
C 1222 2624 947 2503 730 2274 
L 730 3692 
z
" transform="scale(0.015625)"/>
     </defs>
     <use xlink:href="#CMR17-30" transform="scale(0.996264)"/>
     <use xlink:href="#CMMI12-3a" transform="translate(45.690477 0)scale(0.996264)"/>
     <use xlink:href="#CMR17-30" transform="translate(72.787654 0)scale(0.996264)"/>
     <use xlink:href="#CMR17-35" transform="translate(118.478131 0)scale(0.996264)"/>
     <use xlink:href="#CMR17-32" transform="translate(164.168608 0)scale(0.996264)"/>
     <use xlink:href="#CMR17-31" transform="translate(209.859086 0)scale(0.996264)"/>
    </g>
   </g>
   <g id="text_15">
    <!-- $\mathdefault{0.0781}$ -->
    <g transform="translate(148.035726 141.89197)rotate(-26.789459)scale(0.12 -0.12)">
     <defs>
      <path id="CMR17-37" d="M 2886 3941 
L 2886 4081 
L 1382 4081 
C 634 4081 621 4165 595 4288 
L 480 4288 
L 294 3094 
L 410 3094 
C 429 3215 474 3540 550 3661 
C 589 3712 1062 3712 1171 3712 
L 2579 3712 
L 1869 2661 
C 1395 1954 1069 999 1069 165 
C 1069 89 1069 -128 1299 -128 
C 1530 -128 1530 89 1530 171 
L 1530 465 
C 1530 1508 1709 2196 2003 2636 
L 2886 3941 
z
" transform="scale(0.015625)"/>
      <path id="CMR17-38" d="M 1741 2264 
C 2144 2467 2554 2773 2554 3263 
C 2554 3841 1990 4179 1472 4179 
C 890 4179 378 3759 378 3180 
C 378 3021 416 2747 666 2505 
C 730 2442 998 2251 1171 2130 
C 883 1983 211 1634 211 934 
C 211 279 838 -128 1459 -128 
C 2144 -128 2720 362 2720 1010 
C 2720 1590 2330 1857 2074 2029 
L 1741 2264 
z
M 902 2822 
C 851 2854 595 3051 595 3351 
C 595 3739 998 4032 1459 4032 
C 1965 4032 2336 3676 2336 3262 
C 2336 2669 1670 2331 1638 2331 
C 1632 2331 1626 2331 1574 2370 
L 902 2822 
z
M 2080 1519 
C 2176 1449 2483 1240 2483 851 
C 2483 381 2010 25 1472 25 
C 890 25 448 438 448 940 
C 448 1443 838 1862 1280 2060 
L 2080 1519 
z
" transform="scale(0.015625)"/>
     </defs>
     <use xlink:href="#CMR17-30" transform="scale(0.996264)"/>
     <use xlink:href="#CMMI12-3a" transform="translate(45.690477 0)scale(0.996264)"/>
     <use xlink:href="#CMR17-30" transform="translate(72.787654 0)scale(0.996264)"/>
     <use xlink:href="#CMR17-37" transform="translate(118.478131 0)scale(0.996264)"/>
     <use xlink:href="#CMR17-38" transform="translate(164.168608 0)scale(0.996264)"/>
     <use xlink:href="#CMR17-31" transform="translate(209.859086 0)scale(0.996264)"/>
    </g>
   </g>
   <g id="text_16">
    <!-- $\mathdefault{0.1042}$ -->
    <g transform="translate(214.338447 158.30825)rotate(-29.089752)scale(0.12 -0.12)">
     <defs>
      <path id="CMR17-34" d="M 2150 4122 
C 2150 4256 2144 4256 2029 4256 
L 128 1254 
L 128 1088 
L 1779 1088 
L 1779 457 
C 1779 224 1766 160 1318 160 
L 1197 160 
L 1197 0 
C 1402 0 1747 0 1965 0 
C 2182 0 2528 0 2733 0 
L 2733 160 
L 2611 160 
C 2163 160 2150 224 2150 457 
L 2150 1088 
L 2803 1088 
L 2803 1254 
L 2150 1254 
L 2150 4122 
z
M 1798 3703 
L 1798 1254 
L 256 1254 
L 1798 3703 
z
" transform="scale(0.015625)"/>
     </defs>
     <use xlink:href="#CMR17-30" transform="scale(0.996264)"/>
     <use xlink:href="#CMMI12-3a" transform="translate(45.690477 0)scale(0.996264)"/>
     <use xlink:href="#CMR17-31" transform="translate(72.787654 0)scale(0.996264)"/>
     <use xlink:href="#CMR17-30" transform="translate(118.478131 0)scale(0.996264)"/>
     <use xlink:href="#CMR17-34" transform="translate(164.168608 0)scale(0.996264)"/>
     <use xlink:href="#CMR17-32" transform="translate(209.859086 0)scale(0.996264)"/>
    </g>
   </g>
   <g id="text_17">
    <!-- $\mathdefault{0.1302}$ -->
    <g transform="translate(171.607639 189.300663)rotate(-19.671232)scale(0.12 -0.12)">
     <use xlink:href="#CMR17-30" transform="scale(0.996264)"/>
     <use xlink:href="#CMMI12-3a" transform="translate(45.690477 0)scale(0.996264)"/>
     <use xlink:href="#CMR17-31" transform="translate(72.787654 0)scale(0.996264)"/>
     <use xlink:href="#CMR17-33" transform="translate(118.478131 0)scale(0.996264)"/>
     <use xlink:href="#CMR17-30" transform="translate(164.168608 0)scale(0.996264)"/>
     <use xlink:href="#CMR17-32" transform="translate(209.859086 0)scale(0.996264)"/>
    </g>
   </g>
   <g id="text_18">
    <!-- $\mathdefault{0.1563}$ -->
    <g transform="translate(142.53314 178.366119)rotate(-334.003308)scale(0.12 -0.12)">
     <use xlink:href="#CMR17-30" transform="scale(0.996264)"/>
     <use xlink:href="#CMMI12-3a" transform="translate(45.690477 0)scale(0.996264)"/>
     <use xlink:href="#CMR17-31" transform="translate(72.787654 0)scale(0.996264)"/>
     <use xlink:href="#CMR17-35" transform="translate(118.478131 0)scale(0.996264)"/>
     <use xlink:href="#CMR17-36" transform="translate(164.168608 0)scale(0.996264)"/>
     <use xlink:href="#CMR17-33" transform="translate(209.859086 0)scale(0.996264)"/>
    </g>
   </g>
   <g id="text_19">
    <!-- $\mathdefault{0.1823}$ -->
    <g transform="translate(192.866083 122.131138)rotate(-9.941014)scale(0.12 -0.12)">
     <use xlink:href="#CMR17-30" transform="scale(0.996264)"/>
     <use xlink:href="#CMMI12-3a" transform="translate(45.690477 0)scale(0.996264)"/>
     <use xlink:href="#CMR17-31" transform="translate(72.787654 0)scale(0.996264)"/>
     <use xlink:href="#CMR17-38" transform="translate(118.478131 0)scale(0.996264)"/>
     <use xlink:href="#CMR17-32" transform="translate(164.168608 0)scale(0.996264)"/>
     <use xlink:href="#CMR17-33" transform="translate(209.859086 0)scale(0.996264)"/>
    </g>
   </g>
   <g id="text_20">
    <!-- $\mathdefault{0.2083}$ -->
    <g transform="translate(170.34921 151.787093)rotate(-28.750937)scale(0.12 -0.12)">
     <use xlink:href="#CMR17-30" transform="scale(0.996264)"/>
     <use xlink:href="#CMMI12-3a" transform="translate(45.690477 0)scale(0.996264)"/>
     <use xlink:href="#CMR17-32" transform="translate(72.787654 0)scale(0.996264)"/>
     <use xlink:href="#CMR17-30" transform="translate(118.478131 0)scale(0.996264)"/>
     <use xlink:href="#CMR17-38" transform="translate(164.168608 0)scale(0.996264)"/>
     <use xlink:href="#CMR17-33" transform="translate(209.859086 0)scale(0.996264)"/>
    </g>
   </g>
  </g>
 </g>
 <defs>
  <clipPath id="p017fb48969">
   <rect x="56.874647" y="9.307752" width="271.8" height="271.8"/>
  </clipPath>
 </defs>
</svg>
