<?xml version="1.0" encoding="utf-8" standalone="no"?>
<!DOCTYPE svg PUBLIC "-//W3C//DTD SVG 1.1//EN"
  "http://www.w3.org/Graphics/SVG/1.1/DTD/svg11.dtd">
<svg xmlns:xlink="http://www.w3.org/1999/xlink" width="332.274647pt" height="331.760948pt" viewBox="0 0 332.274647 331.760948" xmlns="http://www.w3.org/2000/svg" version="1.1">
 <metadata>
  <rdf:RDF xmlns:dc="http://purl.org/dc/elements/1.1/" xmlns:cc="http://creativecommons.org/ns#" xmlns:rdf="http://www.w3.org/1999/02/22-rdf-syntax-ns#">
   <cc:Work>
    <dc:type rdf:resource="http://purl.org/dc/dcmitype/StillImage"/>
    <dc:date>2022-08-18T01:09:41.941358</dc:date>
    <dc:format>image/svg+xml</dc:format>
    <dc:creator>
     <cc:Agent>
      <dc:title>Matplotlib v3.5.1, https://matplotlib.org/</dc:title>
     </cc:Agent>
    </dc:creator>
   </cc:Work>
  </rdf:RDF>
 </metadata>
 <defs>
  <style type="text/css">*{stroke-linejoin: round; stroke-linecap: butt}</style>
 </defs>
 <g id="figure_1">
  <g id="patch_1">
   <path d="M 0 331.760948 
L 332.274647 331.760948 
L 332.274647 0 
L 0 0 
z
" style="fill: #ffffff"/>
  </g>
  <g id="axes_1">
   <g id="patch_2">
    <path d="M 56.874647 281.107752 
L 328.674647 281.107752 
L 328.674647 9.307752 
L 56.874647 9.307752 
z
" style="fill: #e5e5e5"/>
   </g>
   <g id="matplotlib.axis_1">
    <g id="xtick_1">
     <g id="line2d_1">
      <path d="M 102.174647 281.107752 
L 102.174647 9.307752 
" clip-path="url(#p46e583a0da)" style="fill: none; stroke: #ffffff; stroke-width: 1.5; stroke-linecap: square"/>
     </g>
     <g id="line2d_2">
      <defs>
       <path id="m53a9985e7f" d="M 0 0 
L 0 9 
" style="stroke: #555555; stroke-width: 1.875"/>
      </defs>
      <g>
       <use xlink:href="#m53a9985e7f" x="102.174647" y="281.107752" style="fill: #555555; stroke: #555555; stroke-width: 1.875"/>
      </g>
     </g>
     <g id="text_1">
      <!-- $\mathdefault{−2}$ -->
      <g style="fill: #555555" transform="translate(91.758006 305.023257)scale(0.165 -0.165)">
       <defs>
        <path id="CMSY10-0" d="M 4218 1472 
C 4326 1472 4442 1472 4442 1600 
C 4442 1728 4326 1728 4218 1728 
L 755 1728 
C 646 1728 531 1728 531 1600 
C 531 1472 646 1472 755 1472 
L 4218 1472 
z
" transform="scale(0.015625)"/>
        <path id="CMR17-32" d="M 2669 989 
L 2554 989 
C 2490 536 2438 459 2413 420 
C 2381 369 1920 369 1830 369 
L 602 369 
C 832 619 1280 1072 1824 1597 
C 2214 1967 2669 2402 2669 3035 
C 2669 3790 2067 4224 1395 4224 
C 691 4224 262 3604 262 3030 
C 262 2780 448 2748 525 2748 
C 589 2748 781 2787 781 3010 
C 781 3207 614 3264 525 3264 
C 486 3264 448 3258 422 3245 
C 544 3790 915 4058 1306 4058 
C 1862 4058 2227 3617 2227 3035 
C 2227 2479 1901 2000 1536 1584 
L 262 146 
L 262 0 
L 2515 0 
L 2669 989 
z
" transform="scale(0.015625)"/>
       </defs>
       <use xlink:href="#CMSY10-0" transform="scale(0.996264)"/>
       <use xlink:href="#CMR17-32" transform="translate(77.487468 0)scale(0.996264)"/>
      </g>
     </g>
    </g>
    <g id="xtick_2">
     <g id="line2d_3">
      <path d="M 192.774647 281.107752 
L 192.774647 9.307752 
" clip-path="url(#p46e583a0da)" style="fill: none; stroke: #ffffff; stroke-width: 1.5; stroke-linecap: square"/>
     </g>
     <g id="line2d_4">
      <g>
       <use xlink:href="#m53a9985e7f" x="192.774647" y="281.107752" style="fill: #555555; stroke: #555555; stroke-width: 1.875"/>
      </g>
     </g>
     <g id="text_2">
      <!-- $\mathdefault{0}$ -->
      <g style="fill: #555555" transform="translate(188.75072 305.023257)scale(0.165 -0.165)">
       <defs>
        <path id="CMR17-30" d="M 2688 2025 
C 2688 2416 2682 3080 2413 3591 
C 2176 4039 1798 4198 1466 4198 
C 1158 4198 768 4058 525 3597 
C 269 3118 243 2524 243 2025 
C 243 1661 250 1106 448 619 
C 723 -39 1216 -128 1466 -128 
C 1760 -128 2208 -7 2470 600 
C 2662 1042 2688 1559 2688 2025 
z
M 1466 -26 
C 1056 -26 813 325 723 812 
C 653 1188 653 1738 653 2096 
C 653 2588 653 2997 736 3387 
C 858 3929 1216 4096 1466 4096 
C 1728 4096 2067 3923 2189 3400 
C 2272 3036 2278 2607 2278 2096 
C 2278 1680 2278 1169 2202 792 
C 2067 95 1690 -26 1466 -26 
z
" transform="scale(0.015625)"/>
       </defs>
       <use xlink:href="#CMR17-30" transform="scale(0.996264)"/>
      </g>
     </g>
    </g>
    <g id="xtick_3">
     <g id="line2d_5">
      <path d="M 283.374647 281.107752 
L 283.374647 9.307752 
" clip-path="url(#p46e583a0da)" style="fill: none; stroke: #ffffff; stroke-width: 1.5; stroke-linecap: square"/>
     </g>
     <g id="line2d_6">
      <g>
       <use xlink:href="#m53a9985e7f" x="283.374647" y="281.107752" style="fill: #555555; stroke: #555555; stroke-width: 1.875"/>
      </g>
     </g>
     <g id="text_3">
      <!-- $\mathdefault{2}$ -->
      <g style="fill: #555555" transform="translate(279.35072 305.023257)scale(0.165 -0.165)">
       <use xlink:href="#CMR17-32" transform="scale(0.996264)"/>
      </g>
     </g>
    </g>
    <g id="xtick_4">
     <g id="line2d_7">
      <defs>
       <path id="me0fff08acb" d="M 0 0 
L 0 6 
" style="stroke: #555555; stroke-width: 1.5"/>
      </defs>
      <g>
       <use xlink:href="#me0fff08acb" x="79.524647" y="281.107752" style="fill: #555555; stroke: #555555; stroke-width: 1.5"/>
      </g>
     </g>
    </g>
    <g id="xtick_5">
     <g id="line2d_8">
      <g>
       <use xlink:href="#me0fff08acb" x="124.824647" y="281.107752" style="fill: #555555; stroke: #555555; stroke-width: 1.5"/>
      </g>
     </g>
    </g>
    <g id="xtick_6">
     <g id="line2d_9">
      <g>
       <use xlink:href="#me0fff08acb" x="147.474647" y="281.107752" style="fill: #555555; stroke: #555555; stroke-width: 1.5"/>
      </g>
     </g>
    </g>
    <g id="xtick_7">
     <g id="line2d_10">
      <g>
       <use xlink:href="#me0fff08acb" x="170.124647" y="281.107752" style="fill: #555555; stroke: #555555; stroke-width: 1.5"/>
      </g>
     </g>
    </g>
    <g id="xtick_8">
     <g id="line2d_11">
      <g>
       <use xlink:href="#me0fff08acb" x="215.424647" y="281.107752" style="fill: #555555; stroke: #555555; stroke-width: 1.5"/>
      </g>
     </g>
    </g>
    <g id="xtick_9">
     <g id="line2d_12">
      <g>
       <use xlink:href="#me0fff08acb" x="238.074647" y="281.107752" style="fill: #555555; stroke: #555555; stroke-width: 1.5"/>
      </g>
     </g>
    </g>
    <g id="xtick_10">
     <g id="line2d_13">
      <g>
       <use xlink:href="#me0fff08acb" x="260.724647" y="281.107752" style="fill: #555555; stroke: #555555; stroke-width: 1.5"/>
      </g>
     </g>
    </g>
    <g id="xtick_11">
     <g id="line2d_14">
      <g>
       <use xlink:href="#me0fff08acb" x="306.024647" y="281.107752" style="fill: #555555; stroke: #555555; stroke-width: 1.5"/>
      </g>
     </g>
    </g>
    <g id="xtick_12">
     <g id="line2d_15">
      <g>
       <use xlink:href="#me0fff08acb" x="328.674647" y="281.107752" style="fill: #555555; stroke: #555555; stroke-width: 1.5"/>
      </g>
     </g>
    </g>
    <g id="text_4">
     <!-- $x$ -->
     <g style="fill: #555555" transform="translate(187.785582 324.672884)scale(0.18 -0.18)">
      <defs>
       <path id="CMMI12-78" d="M 3034 2606 
C 2829 2567 2752 2414 2752 2293 
C 2752 2139 2874 2088 2963 2088 
C 3155 2088 3290 2254 3290 2427 
C 3290 2695 2982 2816 2714 2816 
C 2323 2816 2106 2433 2048 2312 
C 1901 2816 1504 2816 1389 2816 
C 736 2816 390 1980 390 1839 
C 390 1814 416 1782 461 1782 
C 512 1782 525 1820 538 1846 
C 755 2555 1184 2689 1370 2689 
C 1658 2689 1715 2420 1715 2267 
C 1715 2127 1677 1980 1600 1673 
L 1382 798 
C 1286 415 1101 64 762 64 
C 730 64 570 64 435 147 
C 666 192 717 383 717 460 
C 717 588 621 664 499 664 
C 346 664 179 530 179 326 
C 179 57 480 -64 755 -64 
C 1062 -64 1280 179 1414 441 
C 1517 64 1837 -64 2074 -64 
C 2726 -64 3072 773 3072 913 
C 3072 945 3046 971 3008 971 
C 2950 971 2944 939 2925 888 
C 2752 326 2381 64 2093 64 
C 1869 64 1747 230 1747 492 
C 1747 632 1773 734 1875 1156 
L 2099 2024 
C 2195 2408 2413 2689 2707 2689 
C 2720 2689 2899 2689 3034 2606 
z
" transform="scale(0.015625)"/>
      </defs>
      <use xlink:href="#CMMI12-78" transform="scale(0.996264)"/>
     </g>
    </g>
   </g>
   <g id="matplotlib.axis_2">
    <g id="ytick_1">
     <g id="line2d_16">
      <path d="M 56.874647 281.107752 
L 328.674647 281.107752 
" clip-path="url(#p46e583a0da)" style="fill: none; stroke: #ffffff; stroke-width: 1.5; stroke-linecap: square"/>
     </g>
     <g id="line2d_17">
      <defs>
       <path id="m468ea8ef5a" d="M 0 0 
L -9 0 
" style="stroke: #555555; stroke-width: 1.875"/>
      </defs>
      <g>
       <use xlink:href="#m468ea8ef5a" x="56.874647" y="281.107752" style="fill: #555555; stroke: #555555; stroke-width: 1.875"/>
      </g>
     </g>
     <g id="text_5">
      <!-- $\mathdefault{−3}$ -->
      <g style="fill: #555555" transform="translate(23.541364 286.815505)scale(0.165 -0.165)">
       <defs>
        <path id="CMR17-33" d="M 1414 2157 
C 1984 2157 2234 1662 2234 1090 
C 2234 320 1824 25 1453 25 
C 1114 25 563 194 390 693 
C 422 680 454 680 486 680 
C 640 680 755 782 755 948 
C 755 1133 614 1216 486 1216 
C 378 1216 211 1165 211 926 
C 211 335 787 -128 1466 -128 
C 2176 -128 2720 430 2720 1085 
C 2720 1707 2208 2157 1600 2227 
C 2086 2328 2554 2756 2554 3329 
C 2554 3820 2048 4179 1472 4179 
C 890 4179 378 3829 378 3329 
C 378 3110 544 3072 627 3072 
C 762 3072 877 3155 877 3321 
C 877 3486 762 3569 627 3569 
C 602 3569 570 3569 544 3557 
C 730 3959 1235 4032 1459 4032 
C 1683 4032 2106 3925 2106 3320 
C 2106 3143 2080 2828 1862 2550 
C 1670 2304 1453 2304 1242 2284 
C 1210 2284 1062 2269 1037 2269 
C 992 2263 966 2257 966 2208 
C 966 2163 973 2157 1101 2157 
L 1414 2157 
z
" transform="scale(0.015625)"/>
       </defs>
       <use xlink:href="#CMSY10-0" transform="scale(0.996264)"/>
       <use xlink:href="#CMR17-33" transform="translate(77.487468 0)scale(0.996264)"/>
      </g>
     </g>
    </g>
    <g id="ytick_2">
     <g id="line2d_18">
      <path d="M 56.874647 235.807752 
L 328.674647 235.807752 
" clip-path="url(#p46e583a0da)" style="fill: none; stroke: #ffffff; stroke-width: 1.5; stroke-linecap: square"/>
     </g>
     <g id="line2d_19">
      <g>
       <use xlink:href="#m468ea8ef5a" x="56.874647" y="235.807752" style="fill: #555555; stroke: #555555; stroke-width: 1.875"/>
      </g>
     </g>
     <g id="text_6">
      <!-- $\mathdefault{−2}$ -->
      <g style="fill: #555555" transform="translate(23.541364 241.515505)scale(0.165 -0.165)">
       <use xlink:href="#CMSY10-0" transform="scale(0.996264)"/>
       <use xlink:href="#CMR17-32" transform="translate(77.487468 0)scale(0.996264)"/>
      </g>
     </g>
    </g>
    <g id="ytick_3">
     <g id="line2d_20">
      <path d="M 56.874647 190.507752 
L 328.674647 190.507752 
" clip-path="url(#p46e583a0da)" style="fill: none; stroke: #ffffff; stroke-width: 1.5; stroke-linecap: square"/>
     </g>
     <g id="line2d_21">
      <g>
       <use xlink:href="#m468ea8ef5a" x="56.874647" y="190.507752" style="fill: #555555; stroke: #555555; stroke-width: 1.875"/>
      </g>
     </g>
     <g id="text_7">
      <!-- $\mathdefault{−1}$ -->
      <g style="fill: #555555" transform="translate(23.541364 196.215505)scale(0.165 -0.165)">
       <defs>
        <path id="CMR17-31" d="M 1702 4058 
C 1702 4192 1696 4192 1606 4192 
C 1357 3916 979 3827 621 3827 
C 602 3827 570 3827 563 3808 
C 557 3795 557 3782 557 3648 
C 755 3648 1088 3686 1344 3839 
L 1344 461 
C 1344 236 1331 160 781 160 
L 589 160 
L 589 0 
C 896 0 1216 0 1523 0 
C 1830 0 2150 0 2458 0 
L 2458 160 
L 2266 160 
C 1715 160 1702 230 1702 458 
L 1702 4058 
z
" transform="scale(0.015625)"/>
       </defs>
       <use xlink:href="#CMSY10-0" transform="scale(0.996264)"/>
       <use xlink:href="#CMR17-31" transform="translate(77.487468 0)scale(0.996264)"/>
      </g>
     </g>
    </g>
    <g id="ytick_4">
     <g id="line2d_22">
      <path d="M 56.874647 145.207752 
L 328.674647 145.207752 
" clip-path="url(#p46e583a0da)" style="fill: none; stroke: #ffffff; stroke-width: 1.5; stroke-linecap: square"/>
     </g>
     <g id="line2d_23">
      <g>
       <use xlink:href="#m468ea8ef5a" x="56.874647" y="145.207752" style="fill: #555555; stroke: #555555; stroke-width: 1.875"/>
      </g>
     </g>
     <g id="text_8">
      <!-- $\mathdefault{0}$ -->
      <g style="fill: #555555" transform="translate(36.326793 150.915505)scale(0.165 -0.165)">
       <use xlink:href="#CMR17-30" transform="scale(0.996264)"/>
      </g>
     </g>
    </g>
    <g id="ytick_5">
     <g id="line2d_24">
      <path d="M 56.874647 99.907752 
L 328.674647 99.907752 
" clip-path="url(#p46e583a0da)" style="fill: none; stroke: #ffffff; stroke-width: 1.5; stroke-linecap: square"/>
     </g>
     <g id="line2d_25">
      <g>
       <use xlink:href="#m468ea8ef5a" x="56.874647" y="99.907752" style="fill: #555555; stroke: #555555; stroke-width: 1.875"/>
      </g>
     </g>
     <g id="text_9">
      <!-- $\mathdefault{1}$ -->
      <g style="fill: #555555" transform="translate(36.326793 105.615505)scale(0.165 -0.165)">
       <use xlink:href="#CMR17-31" transform="scale(0.996264)"/>
      </g>
     </g>
    </g>
    <g id="ytick_6">
     <g id="line2d_26">
      <path d="M 56.874647 54.607752 
L 328.674647 54.607752 
" clip-path="url(#p46e583a0da)" style="fill: none; stroke: #ffffff; stroke-width: 1.5; stroke-linecap: square"/>
     </g>
     <g id="line2d_27">
      <g>
       <use xlink:href="#m468ea8ef5a" x="56.874647" y="54.607752" style="fill: #555555; stroke: #555555; stroke-width: 1.875"/>
      </g>
     </g>
     <g id="text_10">
      <!-- $\mathdefault{2}$ -->
      <g style="fill: #555555" transform="translate(36.326793 60.315505)scale(0.165 -0.165)">
       <use xlink:href="#CMR17-32" transform="scale(0.996264)"/>
      </g>
     </g>
    </g>
    <g id="ytick_7">
     <g id="line2d_28">
      <path d="M 56.874647 9.307752 
L 328.674647 9.307752 
" clip-path="url(#p46e583a0da)" style="fill: none; stroke: #ffffff; stroke-width: 1.5; stroke-linecap: square"/>
     </g>
     <g id="line2d_29">
      <g>
       <use xlink:href="#m468ea8ef5a" x="56.874647" y="9.307752" style="fill: #555555; stroke: #555555; stroke-width: 1.875"/>
      </g>
     </g>
     <g id="text_11">
      <!-- $\mathdefault{3}$ -->
      <g style="fill: #555555" transform="translate(36.326793 15.015505)scale(0.165 -0.165)">
       <use xlink:href="#CMR17-33" transform="scale(0.996264)"/>
      </g>
     </g>
    </g>
    <g id="ytick_8">
     <g id="line2d_30">
      <defs>
       <path id="m582c44365b" d="M 0 0 
L -6 0 
" style="stroke: #555555; stroke-width: 1.5"/>
      </defs>
      <g>
       <use xlink:href="#m582c44365b" x="56.874647" y="272.047752" style="fill: #555555; stroke: #555555; stroke-width: 1.5"/>
      </g>
     </g>
    </g>
    <g id="ytick_9">
     <g id="line2d_31">
      <g>
       <use xlink:href="#m582c44365b" x="56.874647" y="262.987752" style="fill: #555555; stroke: #555555; stroke-width: 1.5"/>
      </g>
     </g>
    </g>
    <g id="ytick_10">
     <g id="line2d_32">
      <g>
       <use xlink:href="#m582c44365b" x="56.874647" y="253.927752" style="fill: #555555; stroke: #555555; stroke-width: 1.5"/>
      </g>
     </g>
    </g>
    <g id="ytick_11">
     <g id="line2d_33">
      <g>
       <use xlink:href="#m582c44365b" x="56.874647" y="244.867752" style="fill: #555555; stroke: #555555; stroke-width: 1.5"/>
      </g>
     </g>
    </g>
    <g id="ytick_12">
     <g id="line2d_34">
      <g>
       <use xlink:href="#m582c44365b" x="56.874647" y="226.747752" style="fill: #555555; stroke: #555555; stroke-width: 1.5"/>
      </g>
     </g>
    </g>
    <g id="ytick_13">
     <g id="line2d_35">
      <g>
       <use xlink:href="#m582c44365b" x="56.874647" y="217.687752" style="fill: #555555; stroke: #555555; stroke-width: 1.5"/>
      </g>
     </g>
    </g>
    <g id="ytick_14">
     <g id="line2d_36">
      <g>
       <use xlink:href="#m582c44365b" x="56.874647" y="208.627752" style="fill: #555555; stroke: #555555; stroke-width: 1.5"/>
      </g>
     </g>
    </g>
    <g id="ytick_15">
     <g id="line2d_37">
      <g>
       <use xlink:href="#m582c44365b" x="56.874647" y="199.567752" style="fill: #555555; stroke: #555555; stroke-width: 1.5"/>
      </g>
     </g>
    </g>
    <g id="ytick_16">
     <g id="line2d_38">
      <g>
       <use xlink:href="#m582c44365b" x="56.874647" y="181.447752" style="fill: #555555; stroke: #555555; stroke-width: 1.5"/>
      </g>
     </g>
    </g>
    <g id="ytick_17">
     <g id="line2d_39">
      <g>
       <use xlink:href="#m582c44365b" x="56.874647" y="172.387752" style="fill: #555555; stroke: #555555; stroke-width: 1.5"/>
      </g>
     </g>
    </g>
    <g id="ytick_18">
     <g id="line2d_40">
      <g>
       <use xlink:href="#m582c44365b" x="56.874647" y="163.327752" style="fill: #555555; stroke: #555555; stroke-width: 1.5"/>
      </g>
     </g>
    </g>
    <g id="ytick_19">
     <g id="line2d_41">
      <g>
       <use xlink:href="#m582c44365b" x="56.874647" y="154.267752" style="fill: #555555; stroke: #555555; stroke-width: 1.5"/>
      </g>
     </g>
    </g>
    <g id="ytick_20">
     <g id="line2d_42">
      <g>
       <use xlink:href="#m582c44365b" x="56.874647" y="136.147752" style="fill: #555555; stroke: #555555; stroke-width: 1.5"/>
      </g>
     </g>
    </g>
    <g id="ytick_21">
     <g id="line2d_43">
      <g>
       <use xlink:href="#m582c44365b" x="56.874647" y="127.087752" style="fill: #555555; stroke: #555555; stroke-width: 1.5"/>
      </g>
     </g>
    </g>
    <g id="ytick_22">
     <g id="line2d_44">
      <g>
       <use xlink:href="#m582c44365b" x="56.874647" y="118.027752" style="fill: #555555; stroke: #555555; stroke-width: 1.5"/>
      </g>
     </g>
    </g>
    <g id="ytick_23">
     <g id="line2d_45">
      <g>
       <use xlink:href="#m582c44365b" x="56.874647" y="108.967752" style="fill: #555555; stroke: #555555; stroke-width: 1.5"/>
      </g>
     </g>
    </g>
    <g id="ytick_24">
     <g id="line2d_46">
      <g>
       <use xlink:href="#m582c44365b" x="56.874647" y="90.847752" style="fill: #555555; stroke: #555555; stroke-width: 1.5"/>
      </g>
     </g>
    </g>
    <g id="ytick_25">
     <g id="line2d_47">
      <g>
       <use xlink:href="#m582c44365b" x="56.874647" y="81.787752" style="fill: #555555; stroke: #555555; stroke-width: 1.5"/>
      </g>
     </g>
    </g>
    <g id="ytick_26">
     <g id="line2d_48">
      <g>
       <use xlink:href="#m582c44365b" x="56.874647" y="72.727752" style="fill: #555555; stroke: #555555; stroke-width: 1.5"/>
      </g>
     </g>
    </g>
    <g id="ytick_27">
     <g id="line2d_49">
      <g>
       <use xlink:href="#m582c44365b" x="56.874647" y="63.667752" style="fill: #555555; stroke: #555555; stroke-width: 1.5"/>
      </g>
     </g>
    </g>
    <g id="ytick_28">
     <g id="line2d_50">
      <g>
       <use xlink:href="#m582c44365b" x="56.874647" y="45.547752" style="fill: #555555; stroke: #555555; stroke-width: 1.5"/>
      </g>
     </g>
    </g>
    <g id="ytick_29">
     <g id="line2d_51">
      <g>
       <use xlink:href="#m582c44365b" x="56.874647" y="36.487752" style="fill: #555555; stroke: #555555; stroke-width: 1.5"/>
      </g>
     </g>
    </g>
    <g id="ytick_30">
     <g id="line2d_52">
      <g>
       <use xlink:href="#m582c44365b" x="56.874647" y="27.427752" style="fill: #555555; stroke: #555555; stroke-width: 1.5"/>
      </g>
     </g>
    </g>
    <g id="ytick_31">
     <g id="line2d_53">
      <g>
       <use xlink:href="#m582c44365b" x="56.874647" y="18.367752" style="fill: #555555; stroke: #555555; stroke-width: 1.5"/>
      </g>
     </g>
    </g>
    <g id="text_12">
     <!-- $y$ -->
     <g style="fill: #555555" transform="translate(16.0533 149.488529)rotate(-90)scale(0.18 -0.18)">
      <defs>
       <path id="CMMI12-79" d="M 1683 -700 
C 1510 -939 1261 -1152 947 -1152 
C 870 -1152 563 -1152 467 -889 
C 486 -895 518 -895 531 -895 
C 723 -895 851 -729 851 -582 
C 851 -435 730 -384 634 -384 
C 531 -384 307 -458 307 -759 
C 307 -1071 582 -1286 947 -1286 
C 1587 -1286 2234 -700 2413 6 
L 3040 2485 
C 3046 2517 3059 2556 3059 2594 
C 3059 2689 2982 2753 2886 2753 
C 2829 2753 2694 2727 2643 2535 
L 2170 658 
C 2138 543 2138 530 2086 460 
C 1958 281 1747 64 1440 64 
C 1082 64 1050 415 1050 588 
C 1050 952 1222 1443 1395 1903 
C 1466 2088 1504 2178 1504 2305 
C 1504 2574 1312 2816 998 2816 
C 410 2816 173 1890 173 1839 
C 173 1814 198 1782 243 1782 
C 301 1782 307 1807 333 1897 
C 486 2433 730 2689 979 2689 
C 1037 2689 1146 2689 1146 2478 
C 1146 2312 1075 2127 979 1884 
C 666 1047 666 837 666 683 
C 666 77 1101 -64 1421 -64 
C 1606 -64 1837 -6 2061 230 
L 2067 224 
C 1971 -147 1907 -392 1683 -700 
z
" transform="scale(0.015625)"/>
      </defs>
      <use xlink:href="#CMMI12-79" transform="scale(0.996264)"/>
     </g>
    </g>
   </g>
   <g id="PathCollection_1"/>
   <g id="PathCollection_2">
    <path d="M 231.073988 191.759149 
L 235.329192 187.608402 
L 240.820101 181.935002 
L 246.311011 175.870573 
L 250.222507 171.289571 
L 254.595274 165.798662 
L 258.768898 160.307752 
L 264.477251 152.071389 
L 269.612008 143.835025 
L 274.149626 135.598662 
L 276.866116 130.107752 
L 278.147785 127.362298 
L 281.505833 119.125934 
L 284.234519 110.889571 
L 285.67504 105.398662 
L 286.761141 99.907752 
L 287.452897 94.416843 
L 287.755005 88.925934 
L 287.722417 86.18048 
L 287.492829 82.901715 
L 287.249876 80.689571 
L 286.788944 77.944116 
L 286.141425 75.198662 
L 284.747374 71.108913 
L 284.177531 69.707752 
L 282.794729 66.962298 
L 281.05694 64.216843 
L 278.867703 61.471389 
L 276.064141 58.725934 
L 273.765556 56.925459 
L 271.020101 55.18767 
L 268.274647 53.804868 
L 265.529192 52.706025 
L 262.783738 51.840975 
L 260.038283 51.193455 
L 257.292829 50.732523 
L 254.547374 50.429325 
L 251.80192 50.259982 
L 249.056465 50.227394 
L 244.13761 50.489571 
L 240.820101 50.825957 
L 235.329192 51.714591 
L 229.838283 53.003171 
L 221.60192 55.493803 
L 213.25962 58.725934 
L 210.620101 59.834614 
L 205.129192 62.423128 
L 199.638283 65.268785 
L 191.40192 70.041436 
L 185.911011 73.505149 
L 177.674647 79.213501 
L 169.438283 85.530614 
L 162.111827 91.671389 
L 158.456465 94.929698 
L 152.965556 100.100757 
L 147.474647 105.598596 
L 141.983738 111.459713 
L 137.637925 116.38048 
L 133.097508 121.871389 
L 126.780396 130.107752 
L 121.072043 138.344116 
L 115.937286 146.58048 
L 111.399668 154.816843 
L 108.683178 160.307752 
L 107.401508 163.053207 
L 104.043461 171.289571 
L 101.314775 179.525934 
L 99.874254 185.016843 
L 98.788153 190.507752 
L 98.096397 195.998662 
L 97.794289 201.489571 
L 97.826877 204.235025 
L 98.056465 207.51379 
L 98.299418 209.725934 
L 98.76035 212.471389 
L 99.407869 215.216843 
L 100.80192 219.306592 
L 101.371763 220.707752 
L 102.754565 223.453207 
L 104.492354 226.198662 
L 106.681591 228.944116 
L 109.485153 231.689571 
L 111.783738 233.490045 
L 114.529192 235.227835 
L 117.274647 236.610637 
L 120.020101 237.70948 
L 122.765556 238.57453 
L 125.511011 239.222049 
L 128.256465 239.682982 
L 131.00192 239.98618 
L 133.747374 240.155522 
L 136.492829 240.188111 
L 141.411683 239.925934 
L 144.729192 239.589547 
L 150.220101 238.700913 
L 155.711011 237.412334 
L 163.947374 234.921701 
L 172.289674 231.689571 
L 174.929192 230.580891 
L 180.420101 227.992377 
L 185.911011 225.14672 
L 194.147374 220.374069 
L 199.638283 216.910356 
L 207.874647 211.202004 
L 211.964049 208.11352 
L 211.964049 208.11352 
" clip-path="url(#p46e583a0da)" style="fill: none; stroke: #23160e; stroke-width: 2.25"/>
   </g>
   <g id="PathCollection_3">
    <path d="M 176.903002 93.147769 
L 171.846341 97.162298 
L 166.692829 101.527867 
L 161.20192 106.55754 
L 155.711011 111.989011 
L 151.56114 116.38048 
L 146.72387 121.871389 
L 141.983738 127.70517 
L 138.073702 132.853207 
L 133.747374 139.117823 
L 130.730389 143.835025 
L 127.499371 149.325934 
L 124.587704 154.816843 
L 121.995985 160.307752 
L 119.739547 165.798662 
L 117.805861 171.289571 
L 116.237933 176.78048 
L 115.086765 182.271389 
L 114.386556 187.762298 
L 114.216834 190.507752 
L 114.191796 193.253207 
L 114.3249 195.998662 
L 114.63053 198.744116 
L 115.12503 201.489571 
L 115.850299 204.235025 
L 117.274647 207.90864 
L 118.173521 209.725934 
L 120.020101 212.616864 
L 122.765556 215.761325 
L 125.511011 218.070908 
L 128.256465 219.808878 
L 131.00192 221.133388 
L 133.747374 222.132101 
L 136.492829 222.85737 
L 140.14466 223.453207 
L 141.983738 223.657499 
L 144.729192 223.790604 
L 147.474647 223.765565 
L 151.492936 223.453207 
L 152.965556 223.300767 
L 155.711011 222.895635 
L 161.20192 221.744466 
L 166.692829 220.176539 
L 172.183738 218.242853 
L 179.312321 215.216843 
L 183.165556 213.394696 
L 189.954373 209.725934 
L 194.147374 207.252011 
L 199.638283 203.733908 
L 205.129192 199.908697 
L 210.620101 195.734669 
L 216.981035 190.507752 
L 221.60192 186.42126 
L 227.092829 181.194662 
L 232.583738 175.546686 
L 236.454533 171.289571 
L 241.100656 165.798662 
L 245.435067 160.307752 
L 249.41775 154.816843 
L 253.114095 149.325934 
L 257.292829 142.387478 
L 259.537166 138.344116 
L 262.783738 131.745426 
L 264.729747 127.362298 
L 266.83457 121.871389 
L 268.564892 116.38048 
L 269.943375 110.889571 
L 270.462529 108.144116 
L 271.162738 102.653207 
L 271.33246 99.907752 
L 271.357498 97.162298 
L 271.224394 94.416843 
L 270.918763 91.671389 
L 270.424264 88.925934 
L 269.698995 86.18048 
L 268.274647 82.506864 
L 267.375773 80.689571 
L 265.529192 77.798641 
L 262.783738 74.65418 
L 260.038283 72.344597 
L 257.292829 70.606626 
L 254.547374 69.282116 
L 251.80192 68.283404 
L 249.056465 67.558135 
L 245.404634 66.962298 
L 243.565556 66.758006 
L 240.820101 66.624901 
L 238.074647 66.64994 
L 234.056358 66.962298 
L 232.583738 67.114738 
L 229.838283 67.51987 
L 224.347374 68.671039 
L 218.856465 70.238966 
L 213.365556 72.172652 
L 206.236973 75.198662 
L 202.383738 77.020809 
L 196.60578 80.099918 
L 196.60578 80.099918 
" clip-path="url(#p46e583a0da)" style="fill: none; stroke: #452c1c; stroke-width: 2.25"/>
   </g>
   <g id="PathCollection_4">
    <path d="M 147.475148 132.713994 
L 144.729192 136.485826 
L 141.603786 141.089571 
L 138.209707 146.58048 
L 135.184333 152.071389 
L 132.526149 157.562298 
L 130.250613 163.053207 
L 129.257908 165.798662 
L 127.597203 171.289571 
L 126.930839 174.035025 
L 126.392887 176.78048 
L 125.987459 179.525934 
L 125.722508 182.271389 
L 125.61037 185.016843 
L 125.668531 187.762298 
L 125.920685 190.507752 
L 126.398175 193.253207 
L 127.141937 195.998662 
L 128.256465 198.849209 
L 129.692292 201.489571 
L 131.735317 204.235025 
L 133.747374 206.247082 
L 134.641358 206.98048 
L 136.492829 208.290107 
L 139.238283 209.777271 
L 141.983738 210.840462 
L 144.729192 211.584225 
L 147.474647 212.061715 
L 150.220101 212.313869 
L 152.965556 212.372029 
L 155.711011 212.259891 
L 158.456465 211.99494 
L 161.20192 211.589512 
L 163.947374 211.05156 
L 168.971452 209.725934 
L 169.438283 209.597775 
L 172.183738 208.724491 
L 177.674647 206.63341 
L 182.991544 204.235025 
L 185.911011 202.798066 
L 191.40192 199.772693 
L 197.459028 195.998662 
L 202.383738 192.636304 
L 208.820753 187.762298 
L 213.365556 184.0154 
L 218.856465 179.083339 
L 224.347374 173.696002 
L 229.170621 168.544116 
L 233.887791 163.053207 
L 238.180872 157.562298 
L 242.128597 152.071389 
L 246.311011 145.52818 
L 248.882038 141.089571 
L 251.80192 135.424649 
L 253.023145 132.853207 
L 255.298681 127.362298 
L 256.291386 124.616843 
L 257.952091 119.125934 
L 258.618455 116.38048 
L 259.156407 113.635025 
L 259.561835 110.889571 
L 259.826786 108.144116 
L 259.938924 105.398662 
L 259.880763 102.653207 
L 259.628609 99.907752 
L 259.151119 97.162298 
L 258.407357 94.416843 
L 257.292829 91.566296 
L 255.857001 88.925934 
L 253.813976 86.18048 
L 251.80192 84.168423 
L 250.907936 83.435025 
L 249.056465 82.125398 
L 246.311011 80.638234 
L 243.565556 79.575042 
L 240.820101 78.83128 
L 238.074647 78.35379 
L 235.329192 78.101636 
L 232.583738 78.043476 
L 229.838283 78.155614 
L 227.092829 78.420565 
L 224.347374 78.825993 
L 221.60192 79.363944 
L 216.577842 80.689571 
L 216.111011 80.81773 
L 213.365556 81.691013 
L 207.874647 83.782094 
L 202.55775 86.18048 
L 199.638283 87.617439 
L 194.147374 90.642812 
L 188.090266 94.416843 
L 183.165556 97.779201 
L 176.72854 102.653207 
L 172.183738 106.400104 
L 166.692829 111.332166 
L 165.633862 112.345555 
L 165.633862 112.345555 
" clip-path="url(#p46e583a0da)" style="fill: none; stroke: #69422a; stroke-width: 2.25"/>
   </g>
   <g id="PathCollection_5">
    <path d="M 240.831307 141.922816 
L 242.743975 138.344116 
L 245.29629 132.853207 
L 247.397797 127.362298 
L 248.266401 124.616843 
L 249.056465 121.62104 
L 249.613309 119.125934 
L 250.07246 116.38048 
L 250.368563 113.635025 
L 250.485548 110.889571 
L 250.400615 108.144116 
L 250.082658 105.398662 
L 249.490089 102.653207 
L 248.551133 99.907752 
L 247.163997 97.162298 
L 246.311011 95.887717 
L 245.143445 94.416843 
L 243.565556 92.838954 
L 242.094682 91.671389 
L 240.820101 90.818402 
L 238.074647 89.431266 
L 235.329192 88.49231 
L 232.583738 87.899741 
L 229.838283 87.581785 
L 227.092829 87.496851 
L 224.347374 87.613837 
L 221.60192 87.90994 
L 218.856465 88.36909 
L 216.111011 88.97955 
L 213.365556 89.715998 
L 210.620101 90.584602 
L 205.129192 92.68611 
L 199.638283 95.238424 
L 194.147374 98.216564 
L 188.656465 101.615524 
L 183.165556 105.448108 
L 177.674647 109.696563 
L 172.183738 114.425089 
L 167.235113 119.125934 
L 163.947374 122.504546 
L 159.566361 127.362298 
L 155.08044 132.853207 
L 151.041683 138.344116 
L 147.441911 143.835025 
L 144.244997 149.325934 
L 141.477329 154.816843 
L 139.238283 160.100668 
L 139.152811 160.307752 
L 138.151497 163.053207 
L 137.282893 165.798662 
L 136.492829 168.794465 
L 135.935985 171.289571 
L 135.476834 174.035025 
L 135.180731 176.78048 
L 135.063746 179.525934 
L 135.148679 182.271389 
L 135.466636 185.016843 
L 136.059204 187.762298 
L 136.998161 190.507752 
L 138.385297 193.253207 
L 139.238283 194.527788 
L 140.405849 195.998662 
L 141.983738 197.57655 
L 143.454612 198.744116 
L 144.729192 199.597103 
L 147.474647 200.984239 
L 150.220101 201.923195 
L 152.965556 202.515763 
L 155.711011 202.83372 
L 158.456465 202.918653 
L 161.20192 202.801668 
L 163.947374 202.505565 
L 166.692829 202.046415 
L 169.438283 201.435955 
L 172.183738 200.699507 
L 174.929192 199.830902 
L 180.420101 197.729395 
L 185.911011 195.17708 
L 191.40192 192.198941 
L 196.892829 188.799981 
L 202.383738 184.967397 
L 207.874647 180.718942 
L 213.365556 175.990416 
L 218.314181 171.289571 
L 221.60192 167.910959 
L 223.696393 165.642845 
L 223.696393 165.642845 
" clip-path="url(#p46e583a0da)" style="fill: none; stroke: #8c5838; stroke-width: 2.25"/>
   </g>
   <g id="PathCollection_6">
    <path d="M 201.258161 178.828144 
L 205.129192 175.846194 
L 207.874647 173.558186 
L 210.620101 171.128443 
L 213.369026 168.544116 
L 216.114381 165.798662 
L 221.12508 160.307752 
L 224.347374 156.378427 
L 227.585732 152.071389 
L 231.251827 146.58048 
L 234.422466 141.089571 
L 237.095782 135.598662 
L 238.237436 132.853207 
L 239.24641 130.107752 
L 240.109954 127.362298 
L 240.823472 124.616843 
L 241.371635 121.871389 
L 241.737886 119.125934 
L 241.901688 116.38048 
L 241.833649 113.635025 
L 241.493101 110.889571 
L 240.820101 108.13148 
L 239.683561 105.398662 
L 237.960382 102.653207 
L 235.178385 99.907752 
L 232.583738 98.298839 
L 229.838283 97.157748 
L 227.092829 96.489298 
L 224.347374 96.14875 
L 221.60192 96.080712 
L 218.856465 96.244513 
L 216.111011 96.610764 
L 213.35292 97.162298 
L 210.620101 97.872445 
L 207.874647 98.735989 
L 204.743944 99.907752 
L 202.383738 100.886617 
L 198.679043 102.653207 
L 196.892829 103.559933 
L 191.40192 106.730572 
L 185.911011 110.396667 
L 181.603973 113.635025 
L 177.674647 116.857319 
L 174.929192 119.287062 
L 172.180268 121.871389 
L 169.434913 124.616843 
L 164.424214 130.107752 
L 161.20192 134.037078 
L 157.963562 138.344116 
L 154.297467 143.835025 
L 151.126828 149.325934 
L 148.453512 154.816843 
L 147.311858 157.562298 
L 146.302884 160.307752 
L 145.43934 163.053207 
L 144.725822 165.798662 
L 144.177659 168.544116 
L 143.811408 171.289571 
L 143.647606 174.035025 
L 143.715645 176.78048 
L 144.056193 179.525934 
L 144.729192 182.284025 
L 145.865733 185.016843 
L 147.588912 187.762298 
L 150.370909 190.507752 
L 152.965556 192.116666 
L 155.711011 193.257756 
L 158.456465 193.926207 
L 161.20192 194.266754 
L 163.947374 194.334793 
L 166.692829 194.170992 
L 169.438283 193.804741 
L 172.196374 193.253207 
L 174.929192 192.543059 
L 177.674647 191.679515 
L 181.335424 190.287911 
L 181.335424 190.287911 
" clip-path="url(#p46e583a0da)" style="fill: none; stroke: #af6f47; stroke-width: 2.25"/>
   </g>
   <g id="PathCollection_7">
    <path d="M 162.092305 185.112151 
L 163.947374 185.611614 
L 166.692829 185.962689 
L 169.438283 185.990859 
L 172.183738 185.751491 
L 174.929192 185.283656 
L 176.000135 185.016843 
L 177.674647 184.603953 
L 180.420101 183.738757 
L 183.165556 182.710193 
L 184.169805 182.271389 
L 185.911011 181.513365 
L 188.656465 180.16634 
L 189.829769 179.525934 
L 191.40192 178.665565 
L 194.147374 177.022083 
L 194.518867 176.78048 
L 196.892829 175.222644 
L 198.578228 174.035025 
L 199.638283 173.277001 
L 202.244525 171.289571 
L 202.383738 171.181214 
L 205.129192 168.918087 
L 205.560443 168.544116 
L 207.874647 166.482851 
L 208.609295 165.798662 
L 210.620101 163.863891 
L 211.430785 163.053207 
L 213.365556 161.0424 
L 214.049746 160.307752 
L 216.111011 157.993548 
L 216.484982 157.562298 
L 218.748109 154.816843 
L 218.856465 154.677631 
L 220.843896 152.071389 
L 221.60192 151.011334 
L 222.789539 149.325934 
L 224.347374 146.951973 
L 224.588978 146.58048 
L 226.23246 143.835025 
L 227.092829 142.262875 
L 227.733235 141.089571 
L 229.080259 138.344116 
L 229.838283 136.602911 
L 230.277087 135.598662 
L 231.305651 132.853207 
L 232.170848 130.107752 
L 232.583738 128.433241 
L 232.850551 127.362298 
L 233.318386 124.616843 
L 233.557753 121.871389 
L 233.529583 119.125934 
L 233.178508 116.38048 
L 232.583738 114.171423 
L 232.412363 113.635025 
L 231.011587 110.889571 
L 229.838283 109.340238 
L 228.642162 108.144116 
L 227.092829 106.970812 
L 224.347374 105.570037 
L 223.810976 105.398662 
L 221.60192 104.803891 
L 218.856465 104.452816 
L 216.111011 104.424646 
L 213.365556 104.664014 
L 210.620101 105.131849 
L 209.549159 105.398662 
L 207.874647 105.811551 
L 205.129192 106.676748 
L 202.383738 107.705312 
L 201.379488 108.144116 
L 199.638283 108.90214 
L 196.892829 110.249164 
L 195.719525 110.889571 
L 194.147374 111.749939 
L 191.40192 113.393422 
L 191.030427 113.635025 
L 188.656465 115.192861 
L 186.971066 116.38048 
L 185.911011 117.138504 
L 183.304768 119.125934 
L 183.165556 119.234291 
L 180.420101 121.497417 
L 179.988851 121.871389 
L 177.674647 123.932654 
L 176.939999 124.616843 
L 174.929192 126.551614 
L 174.118509 127.362298 
L 172.183738 129.373105 
L 171.499548 130.107752 
L 169.438283 132.421956 
L 169.064312 132.853207 
L 166.801185 135.598662 
L 166.692829 135.737874 
L 164.705398 138.344116 
L 163.947374 139.404171 
L 162.759755 141.089571 
L 161.20192 143.463532 
L 160.960316 143.835025 
L 159.316834 146.58048 
L 158.456465 148.15263 
L 157.816059 149.325934 
L 156.469035 152.071389 
L 155.711011 153.812594 
L 155.272207 154.816843 
L 154.570994 156.688528 
" clip-path="url(#p46e583a0da)" style="fill: none; stroke: #d28555; stroke-width: 2.25"/>
   </g>
   <g id="PathCollection_8">
    <path d="M 205.780025 113.913755 
L 205.129192 114.060017 
L 202.383738 114.916548 
L 199.638283 115.969655 
L 198.744002 116.38048 
L 196.892829 117.243168 
L 194.147374 118.694492 
L 193.421483 119.125934 
L 191.40192 120.350919 
L 189.10486 121.871389 
L 188.656465 122.176239 
L 185.911011 124.206018 
L 185.393586 124.616843 
L 183.165556 126.444654 
L 182.112127 127.362298 
L 180.420101 128.895184 
L 179.150542 130.107752 
L 177.674647 131.583647 
L 176.462078 132.853207 
L 174.929192 134.545232 
L 174.011548 135.598662 
L 172.183738 137.826692 
L 171.772913 138.344116 
L 169.743133 141.089571 
L 169.438283 141.537965 
L 167.917813 143.835025 
L 166.692829 145.854588 
L 166.261386 146.58048 
L 164.810062 149.325934 
L 163.947374 151.177108 
L 163.536549 152.071389 
L 162.483443 154.816843 
L 161.626911 157.562298 
L 161.20192 159.45342 
L 161.011684 160.307752 
L 160.687601 163.053207 
L 160.684495 165.798662 
L 161.084724 168.544116 
L 161.20192 168.923943 
L 162.130646 171.289571 
L 163.947374 173.880042 
L 164.102358 174.035025 
L 166.692829 175.851754 
L 169.058456 176.78048 
L 169.438283 176.897676 
L 172.183738 177.297904 
L 174.929192 177.294799 
L 177.674647 176.970716 
L 178.52898 176.78048 
L 180.420101 176.355488 
L 183.165556 175.498957 
L 185.911011 174.44585 
L 186.805292 174.035025 
L 188.656465 173.172337 
L 191.40192 171.721013 
L 192.127811 171.289571 
L 194.147374 170.064586 
L 196.444434 168.544116 
L 196.892829 168.239266 
L 199.638283 166.209486 
L 200.155708 165.798662 
L 202.383738 163.970851 
L 203.437167 163.053207 
L 205.129192 161.520321 
L 206.398752 160.307752 
L 207.874647 158.831857 
L 209.087216 157.562298 
L 210.620101 155.870272 
L 211.537746 154.816843 
L 213.365556 152.588813 
L 213.776381 152.071389 
L 215.806161 149.325934 
L 216.111011 148.877539 
L 217.63148 146.58048 
L 218.856465 144.560916 
L 219.287908 143.835025 
L 220.739232 141.089571 
L 221.60192 139.238397 
L 222.012745 138.344116 
L 223.065851 135.598662 
L 223.922383 132.853207 
L 224.347374 130.962085 
L 224.53761 130.107752 
L 224.861693 127.362298 
L 224.864799 124.616843 
L 224.677173 123.329786 
" clip-path="url(#p46e583a0da)" style="fill: none; stroke: #f69b63; stroke-width: 2.25"/>
   </g>
   <g id="PathCollection_9">
    <path d="M 172.314697 151.061192 
L 172.183738 151.384065 
L 171.916344 152.071389 
L 171.185342 154.816843 
L 170.814809 157.562298 
L 170.934719 160.307752 
L 171.762716 163.053207 
L 172.183738 163.74053 
L 174.241869 165.798662 
L 174.929192 166.219684 
L 177.674647 167.047681 
L 180.420101 167.16759 
L 183.165556 166.797058 
L 185.911011 166.066055 
L 186.598334 165.798662 
L 188.656465 164.96387 
L 191.40192 163.603528 
L 192.339816 163.053207 
L 194.147374 161.94196 
L 196.528045 160.307752 
L 196.892829 160.043117 
L 199.638283 157.829692 
L 199.942511 157.562298 
L 202.383738 155.283783 
L 202.850678 154.816843 
L 205.129192 152.375616 
L 205.396586 152.071389 
L 207.610011 149.325934 
L 207.874647 148.96115 
L 209.508854 146.58048 
L 210.620101 144.772921 
L 211.170423 143.835025 
L 212.530764 141.089571 
L 213.365556 139.03144 
L 213.63295 138.344116 
L 214.363952 135.598662 
L 214.734484 132.853207 
L 214.614575 130.107752 
L 213.786578 127.362298 
L 213.365556 126.674974 
L 211.307425 124.616843 
L 210.620101 124.195821 
L 207.874647 123.367824 
L 205.129192 123.247915 
L 202.383738 123.618447 
L 199.638283 124.349449 
L 198.95096 124.616843 
L 196.892829 125.451635 
L 194.147374 126.811976 
L 193.209478 127.362298 
L 191.40192 128.473545 
L 189.89022 129.511249 
" clip-path="url(#p46e583a0da)" style="fill: none; stroke: #ffb171; stroke-width: 2.25"/>
   </g>
   <g id="PathCollection_10"/>
   <g id="patch_3">
    <path d="M 56.874647 281.107752 
L 56.874647 9.307752 
" style="fill: none; stroke: #ffffff; stroke-width: 1.875; stroke-linejoin: miter; stroke-linecap: square"/>
   </g>
   <g id="patch_4">
    <path d="M 56.874647 281.107752 
L 328.674647 281.107752 
" style="fill: none; stroke: #ffffff; stroke-width: 1.875; stroke-linejoin: miter; stroke-linecap: square"/>
   </g>
   <g id="text_13">
    <!-- $\mathdefault{0.0221}$ -->
    <g transform="translate(207.741517 209.353061)rotate(-22.605424)scale(0.12 -0.12)">
     <defs>
      <path id="CMMI12-3a" d="M 1178 307 
C 1178 492 1024 619 870 619 
C 685 619 557 466 557 313 
C 557 128 710 0 864 0 
C 1050 0 1178 153 1178 307 
z
" transform="scale(0.015625)"/>
     </defs>
     <use xlink:href="#CMR17-30" transform="scale(0.996264)"/>
     <use xlink:href="#CMMI12-3a" transform="translate(45.690477 0)scale(0.996264)"/>
     <use xlink:href="#CMR17-30" transform="translate(72.787654 0)scale(0.996264)"/>
     <use xlink:href="#CMR17-32" transform="translate(118.478131 0)scale(0.996264)"/>
     <use xlink:href="#CMR17-32" transform="translate(164.168608 0)scale(0.996264)"/>
     <use xlink:href="#CMR17-31" transform="translate(209.859086 0)scale(0.996264)"/>
    </g>
   </g>
   <g id="text_14">
    <!-- $\mathdefault{0.0442}$ -->
    <g transform="translate(172.131064 94.019904)rotate(-17.892947)scale(0.12 -0.12)">
     <defs>
      <path id="CMR17-34" d="M 2150 4122 
C 2150 4256 2144 4256 2029 4256 
L 128 1254 
L 128 1088 
L 1779 1088 
L 1779 457 
C 1779 224 1766 160 1318 160 
L 1197 160 
L 1197 0 
C 1402 0 1747 0 1965 0 
C 2182 0 2528 0 2733 0 
L 2733 160 
L 2611 160 
C 2163 160 2150 224 2150 457 
L 2150 1088 
L 2803 1088 
L 2803 1254 
L 2150 1254 
L 2150 4122 
z
M 1798 3703 
L 1798 1254 
L 256 1254 
L 1798 3703 
z
" transform="scale(0.015625)"/>
     </defs>
     <use xlink:href="#CMR17-30" transform="scale(0.996264)"/>
     <use xlink:href="#CMMI12-3a" transform="translate(45.690477 0)scale(0.996264)"/>
     <use xlink:href="#CMR17-30" transform="translate(72.787654 0)scale(0.996264)"/>
     <use xlink:href="#CMR17-34" transform="translate(118.478131 0)scale(0.996264)"/>
     <use xlink:href="#CMR17-34" transform="translate(164.168608 0)scale(0.996264)"/>
     <use xlink:href="#CMR17-32" transform="translate(209.859086 0)scale(0.996264)"/>
    </g>
   </g>
   <g id="text_15">
    <!-- $\mathdefault{0.0663}$ -->
    <g transform="translate(143.529426 132.271496)rotate(-28.570029)scale(0.12 -0.12)">
     <defs>
      <path id="CMR17-36" d="M 678 2176 
C 678 3690 1395 4032 1811 4032 
C 1946 4032 2272 4009 2400 3776 
C 2298 3776 2106 3776 2106 3553 
C 2106 3381 2246 3323 2336 3323 
C 2394 3323 2566 3348 2566 3560 
C 2566 3954 2246 4179 1805 4179 
C 1043 4179 243 3390 243 1984 
C 243 253 966 -128 1478 -128 
C 2099 -128 2688 427 2688 1283 
C 2688 2081 2170 2662 1517 2662 
C 1126 2662 838 2407 678 1960 
L 678 2176 
z
M 1478 25 
C 691 25 691 1200 691 1436 
C 691 1896 909 2560 1504 2560 
C 1613 2560 1926 2560 2138 2120 
C 2253 1870 2253 1609 2253 1289 
C 2253 944 2253 690 2118 434 
C 1978 171 1773 25 1478 25 
z
" transform="scale(0.015625)"/>
     </defs>
     <use xlink:href="#CMR17-30" transform="scale(0.996264)"/>
     <use xlink:href="#CMMI12-3a" transform="translate(45.690477 0)scale(0.996264)"/>
     <use xlink:href="#CMR17-30" transform="translate(72.787654 0)scale(0.996264)"/>
     <use xlink:href="#CMR17-36" transform="translate(118.478131 0)scale(0.996264)"/>
     <use xlink:href="#CMR17-36" transform="translate(164.168608 0)scale(0.996264)"/>
     <use xlink:href="#CMR17-33" transform="translate(209.859086 0)scale(0.996264)"/>
    </g>
   </g>
   <g id="text_16">
    <!-- $\mathdefault{0.0884}$ -->
    <g transform="translate(220.740693 166.280821)rotate(-33.823368)scale(0.12 -0.12)">
     <defs>
      <path id="CMR17-38" d="M 1741 2264 
C 2144 2467 2554 2773 2554 3263 
C 2554 3841 1990 4179 1472 4179 
C 890 4179 378 3759 378 3180 
C 378 3021 416 2747 666 2505 
C 730 2442 998 2251 1171 2130 
C 883 1983 211 1634 211 934 
C 211 279 838 -128 1459 -128 
C 2144 -128 2720 362 2720 1010 
C 2720 1590 2330 1857 2074 2029 
L 1741 2264 
z
M 902 2822 
C 851 2854 595 3051 595 3351 
C 595 3739 998 4032 1459 4032 
C 1965 4032 2336 3676 2336 3262 
C 2336 2669 1670 2331 1638 2331 
C 1632 2331 1626 2331 1574 2370 
L 902 2822 
z
M 2080 1519 
C 2176 1449 2483 1240 2483 851 
C 2483 381 2010 25 1472 25 
C 890 25 448 438 448 940 
C 448 1443 838 1862 1280 2060 
L 2080 1519 
z
" transform="scale(0.015625)"/>
     </defs>
     <use xlink:href="#CMR17-30" transform="scale(0.996264)"/>
     <use xlink:href="#CMMI12-3a" transform="translate(45.690477 0)scale(0.996264)"/>
     <use xlink:href="#CMR17-30" transform="translate(72.787654 0)scale(0.996264)"/>
     <use xlink:href="#CMR17-38" transform="translate(118.478131 0)scale(0.996264)"/>
     <use xlink:href="#CMR17-38" transform="translate(164.168608 0)scale(0.996264)"/>
     <use xlink:href="#CMR17-34" transform="translate(209.859086 0)scale(0.996264)"/>
    </g>
   </g>
   <g id="text_17">
    <!-- $\mathdefault{0.1105}$ -->
    <g transform="translate(176.556943 192.602796)rotate(-15.684187)scale(0.12 -0.12)">
     <defs>
      <path id="CMR17-35" d="M 730 3692 
C 794 3666 1056 3584 1325 3584 
C 1920 3584 2246 3911 2432 4100 
C 2432 4157 2432 4192 2394 4192 
C 2387 4192 2374 4192 2323 4163 
C 2099 4058 1837 3973 1517 3973 
C 1325 3973 1037 3999 723 4139 
C 653 4171 640 4171 634 4171 
C 602 4171 595 4164 595 4037 
L 595 2203 
C 595 2089 595 2057 659 2057 
C 691 2057 704 2070 736 2114 
C 941 2401 1222 2522 1542 2522 
C 1766 2522 2246 2382 2246 1289 
C 2246 1085 2246 715 2054 421 
C 1894 159 1645 25 1370 25 
C 947 25 518 320 403 814 
C 429 807 480 795 506 795 
C 589 795 749 840 749 1038 
C 749 1210 627 1280 506 1280 
C 358 1280 262 1190 262 1011 
C 262 454 704 -128 1382 -128 
C 2042 -128 2669 440 2669 1264 
C 2669 2030 2170 2624 1549 2624 
C 1222 2624 947 2503 730 2274 
L 730 3692 
z
" transform="scale(0.015625)"/>
     </defs>
     <use xlink:href="#CMR17-30" transform="scale(0.996264)"/>
     <use xlink:href="#CMMI12-3a" transform="translate(45.690477 0)scale(0.996264)"/>
     <use xlink:href="#CMR17-31" transform="translate(72.787654 0)scale(0.996264)"/>
     <use xlink:href="#CMR17-31" transform="translate(118.478131 0)scale(0.996264)"/>
     <use xlink:href="#CMR17-30" transform="translate(164.168608 0)scale(0.996264)"/>
     <use xlink:href="#CMR17-35" transform="translate(209.859086 0)scale(0.996264)"/>
    </g>
   </g>
   <g id="text_18">
    <!-- $\mathdefault{0.1326}$ -->
    <g transform="translate(142.29663 163.617149)rotate(-299.779126)scale(0.12 -0.12)">
     <use xlink:href="#CMR17-30" transform="scale(0.996264)"/>
     <use xlink:href="#CMMI12-3a" transform="translate(45.690477 0)scale(0.996264)"/>
     <use xlink:href="#CMR17-31" transform="translate(72.787654 0)scale(0.996264)"/>
     <use xlink:href="#CMR17-33" transform="translate(118.478131 0)scale(0.996264)"/>
     <use xlink:href="#CMR17-32" transform="translate(164.168608 0)scale(0.996264)"/>
     <use xlink:href="#CMR17-36" transform="translate(209.859086 0)scale(0.996264)"/>
    </g>
   </g>
   <g id="text_19">
    <!-- $\mathdefault{0.1546}$ -->
    <g transform="translate(199.580272 113.525985)rotate(-349.611786)scale(0.12 -0.12)">
     <use xlink:href="#CMR17-30" transform="scale(0.996264)"/>
     <use xlink:href="#CMMI12-3a" transform="translate(45.690477 0)scale(0.996264)"/>
     <use xlink:href="#CMR17-31" transform="translate(72.787654 0)scale(0.996264)"/>
     <use xlink:href="#CMR17-35" transform="translate(118.478131 0)scale(0.996264)"/>
     <use xlink:href="#CMR17-34" transform="translate(164.168608 0)scale(0.996264)"/>
     <use xlink:href="#CMR17-36" transform="translate(209.859086 0)scale(0.996264)"/>
    </g>
   </g>
   <g id="text_20">
    <!-- $\mathdefault{0.1767}$ -->
    <g transform="translate(167.841377 148.765609)rotate(-30.037332)scale(0.12 -0.12)">
     <defs>
      <path id="CMR17-37" d="M 2886 3941 
L 2886 4081 
L 1382 4081 
C 634 4081 621 4165 595 4288 
L 480 4288 
L 294 3094 
L 410 3094 
C 429 3215 474 3540 550 3661 
C 589 3712 1062 3712 1171 3712 
L 2579 3712 
L 1869 2661 
C 1395 1954 1069 999 1069 165 
C 1069 89 1069 -128 1299 -128 
C 1530 -128 1530 89 1530 171 
L 1530 465 
C 1530 1508 1709 2196 2003 2636 
L 2886 3941 
z
" transform="scale(0.015625)"/>
     </defs>
     <use xlink:href="#CMR17-30" transform="scale(0.996264)"/>
     <use xlink:href="#CMMI12-3a" transform="translate(45.690477 0)scale(0.996264)"/>
     <use xlink:href="#CMR17-31" transform="translate(72.787654 0)scale(0.996264)"/>
     <use xlink:href="#CMR17-37" transform="translate(118.478131 0)scale(0.996264)"/>
     <use xlink:href="#CMR17-36" transform="translate(164.168608 0)scale(0.996264)"/>
     <use xlink:href="#CMR17-37" transform="translate(209.859086 0)scale(0.996264)"/>
    </g>
   </g>
  </g>
 </g>
 <defs>
  <clipPath id="p46e583a0da">
   <rect x="56.874647" y="9.307752" width="271.8" height="271.8"/>
  </clipPath>
 </defs>
</svg>
