<?xml version="1.0" encoding="utf-8" standalone="no"?>
<!DOCTYPE svg PUBLIC "-//W3C//DTD SVG 1.1//EN"
  "http://www.w3.org/Graphics/SVG/1.1/DTD/svg11.dtd">
<svg xmlns:xlink="http://www.w3.org/1999/xlink" width="332.274647pt" height="331.760948pt" viewBox="0 0 332.274647 331.760948" xmlns="http://www.w3.org/2000/svg" version="1.1">
 <metadata>
  <rdf:RDF xmlns:dc="http://purl.org/dc/elements/1.1/" xmlns:cc="http://creativecommons.org/ns#" xmlns:rdf="http://www.w3.org/1999/02/22-rdf-syntax-ns#">
   <cc:Work>
    <dc:type rdf:resource="http://purl.org/dc/dcmitype/StillImage"/>
    <dc:date>2022-08-18T01:09:32.549882</dc:date>
    <dc:format>image/svg+xml</dc:format>
    <dc:creator>
     <cc:Agent>
      <dc:title>Matplotlib v3.5.1, https://matplotlib.org/</dc:title>
     </cc:Agent>
    </dc:creator>
   </cc:Work>
  </rdf:RDF>
 </metadata>
 <defs>
  <style type="text/css">*{stroke-linejoin: round; stroke-linecap: butt}</style>
 </defs>
 <g id="figure_1">
  <g id="patch_1">
   <path d="M 0 331.760948 
L 332.274647 331.760948 
L 332.274647 0 
L 0 0 
z
" style="fill: #ffffff"/>
  </g>
  <g id="axes_1">
   <g id="patch_2">
    <path d="M 56.874647 281.107752 
L 328.674647 281.107752 
L 328.674647 9.307752 
L 56.874647 9.307752 
z
" style="fill: #e5e5e5"/>
   </g>
   <g id="matplotlib.axis_1">
    <g id="xtick_1">
     <g id="line2d_1">
      <path d="M 102.174647 281.107752 
L 102.174647 9.307752 
" clip-path="url(#p6fb063232d)" style="fill: none; stroke: #ffffff; stroke-width: 1.5; stroke-linecap: square"/>
     </g>
     <g id="line2d_2">
      <defs>
       <path id="mb60934415a" d="M 0 0 
L 0 9 
" style="stroke: #555555; stroke-width: 1.875"/>
      </defs>
      <g>
       <use xlink:href="#mb60934415a" x="102.174647" y="281.107752" style="fill: #555555; stroke: #555555; stroke-width: 1.875"/>
      </g>
     </g>
     <g id="text_1">
      <!-- $\mathdefault{−2}$ -->
      <g style="fill: #555555" transform="translate(91.758006 305.023257)scale(0.165 -0.165)">
       <defs>
        <path id="CMSY10-0" d="M 4218 1472 
C 4326 1472 4442 1472 4442 1600 
C 4442 1728 4326 1728 4218 1728 
L 755 1728 
C 646 1728 531 1728 531 1600 
C 531 1472 646 1472 755 1472 
L 4218 1472 
z
" transform="scale(0.015625)"/>
        <path id="CMR17-32" d="M 2669 989 
L 2554 989 
C 2490 536 2438 459 2413 420 
C 2381 369 1920 369 1830 369 
L 602 369 
C 832 619 1280 1072 1824 1597 
C 2214 1967 2669 2402 2669 3035 
C 2669 3790 2067 4224 1395 4224 
C 691 4224 262 3604 262 3030 
C 262 2780 448 2748 525 2748 
C 589 2748 781 2787 781 3010 
C 781 3207 614 3264 525 3264 
C 486 3264 448 3258 422 3245 
C 544 3790 915 4058 1306 4058 
C 1862 4058 2227 3617 2227 3035 
C 2227 2479 1901 2000 1536 1584 
L 262 146 
L 262 0 
L 2515 0 
L 2669 989 
z
" transform="scale(0.015625)"/>
       </defs>
       <use xlink:href="#CMSY10-0" transform="scale(0.996264)"/>
       <use xlink:href="#CMR17-32" transform="translate(77.487468 0)scale(0.996264)"/>
      </g>
     </g>
    </g>
    <g id="xtick_2">
     <g id="line2d_3">
      <path d="M 192.774647 281.107752 
L 192.774647 9.307752 
" clip-path="url(#p6fb063232d)" style="fill: none; stroke: #ffffff; stroke-width: 1.5; stroke-linecap: square"/>
     </g>
     <g id="line2d_4">
      <g>
       <use xlink:href="#mb60934415a" x="192.774647" y="281.107752" style="fill: #555555; stroke: #555555; stroke-width: 1.875"/>
      </g>
     </g>
     <g id="text_2">
      <!-- $\mathdefault{0}$ -->
      <g style="fill: #555555" transform="translate(188.75072 305.023257)scale(0.165 -0.165)">
       <defs>
        <path id="CMR17-30" d="M 2688 2025 
C 2688 2416 2682 3080 2413 3591 
C 2176 4039 1798 4198 1466 4198 
C 1158 4198 768 4058 525 3597 
C 269 3118 243 2524 243 2025 
C 243 1661 250 1106 448 619 
C 723 -39 1216 -128 1466 -128 
C 1760 -128 2208 -7 2470 600 
C 2662 1042 2688 1559 2688 2025 
z
M 1466 -26 
C 1056 -26 813 325 723 812 
C 653 1188 653 1738 653 2096 
C 653 2588 653 2997 736 3387 
C 858 3929 1216 4096 1466 4096 
C 1728 4096 2067 3923 2189 3400 
C 2272 3036 2278 2607 2278 2096 
C 2278 1680 2278 1169 2202 792 
C 2067 95 1690 -26 1466 -26 
z
" transform="scale(0.015625)"/>
       </defs>
       <use xlink:href="#CMR17-30" transform="scale(0.996264)"/>
      </g>
     </g>
    </g>
    <g id="xtick_3">
     <g id="line2d_5">
      <path d="M 283.374647 281.107752 
L 283.374647 9.307752 
" clip-path="url(#p6fb063232d)" style="fill: none; stroke: #ffffff; stroke-width: 1.5; stroke-linecap: square"/>
     </g>
     <g id="line2d_6">
      <g>
       <use xlink:href="#mb60934415a" x="283.374647" y="281.107752" style="fill: #555555; stroke: #555555; stroke-width: 1.875"/>
      </g>
     </g>
     <g id="text_3">
      <!-- $\mathdefault{2}$ -->
      <g style="fill: #555555" transform="translate(279.35072 305.023257)scale(0.165 -0.165)">
       <use xlink:href="#CMR17-32" transform="scale(0.996264)"/>
      </g>
     </g>
    </g>
    <g id="xtick_4">
     <g id="line2d_7">
      <defs>
       <path id="m7ea7a53a04" d="M 0 0 
L 0 6 
" style="stroke: #555555; stroke-width: 1.5"/>
      </defs>
      <g>
       <use xlink:href="#m7ea7a53a04" x="79.524647" y="281.107752" style="fill: #555555; stroke: #555555; stroke-width: 1.5"/>
      </g>
     </g>
    </g>
    <g id="xtick_5">
     <g id="line2d_8">
      <g>
       <use xlink:href="#m7ea7a53a04" x="124.824647" y="281.107752" style="fill: #555555; stroke: #555555; stroke-width: 1.5"/>
      </g>
     </g>
    </g>
    <g id="xtick_6">
     <g id="line2d_9">
      <g>
       <use xlink:href="#m7ea7a53a04" x="147.474647" y="281.107752" style="fill: #555555; stroke: #555555; stroke-width: 1.5"/>
      </g>
     </g>
    </g>
    <g id="xtick_7">
     <g id="line2d_10">
      <g>
       <use xlink:href="#m7ea7a53a04" x="170.124647" y="281.107752" style="fill: #555555; stroke: #555555; stroke-width: 1.5"/>
      </g>
     </g>
    </g>
    <g id="xtick_8">
     <g id="line2d_11">
      <g>
       <use xlink:href="#m7ea7a53a04" x="215.424647" y="281.107752" style="fill: #555555; stroke: #555555; stroke-width: 1.5"/>
      </g>
     </g>
    </g>
    <g id="xtick_9">
     <g id="line2d_12">
      <g>
       <use xlink:href="#m7ea7a53a04" x="238.074647" y="281.107752" style="fill: #555555; stroke: #555555; stroke-width: 1.5"/>
      </g>
     </g>
    </g>
    <g id="xtick_10">
     <g id="line2d_13">
      <g>
       <use xlink:href="#m7ea7a53a04" x="260.724647" y="281.107752" style="fill: #555555; stroke: #555555; stroke-width: 1.5"/>
      </g>
     </g>
    </g>
    <g id="xtick_11">
     <g id="line2d_14">
      <g>
       <use xlink:href="#m7ea7a53a04" x="306.024647" y="281.107752" style="fill: #555555; stroke: #555555; stroke-width: 1.5"/>
      </g>
     </g>
    </g>
    <g id="xtick_12">
     <g id="line2d_15">
      <g>
       <use xlink:href="#m7ea7a53a04" x="328.674647" y="281.107752" style="fill: #555555; stroke: #555555; stroke-width: 1.5"/>
      </g>
     </g>
    </g>
    <g id="text_4">
     <!-- $x$ -->
     <g style="fill: #555555" transform="translate(187.785582 324.672884)scale(0.18 -0.18)">
      <defs>
       <path id="CMMI12-78" d="M 3034 2606 
C 2829 2567 2752 2414 2752 2293 
C 2752 2139 2874 2088 2963 2088 
C 3155 2088 3290 2254 3290 2427 
C 3290 2695 2982 2816 2714 2816 
C 2323 2816 2106 2433 2048 2312 
C 1901 2816 1504 2816 1389 2816 
C 736 2816 390 1980 390 1839 
C 390 1814 416 1782 461 1782 
C 512 1782 525 1820 538 1846 
C 755 2555 1184 2689 1370 2689 
C 1658 2689 1715 2420 1715 2267 
C 1715 2127 1677 1980 1600 1673 
L 1382 798 
C 1286 415 1101 64 762 64 
C 730 64 570 64 435 147 
C 666 192 717 383 717 460 
C 717 588 621 664 499 664 
C 346 664 179 530 179 326 
C 179 57 480 -64 755 -64 
C 1062 -64 1280 179 1414 441 
C 1517 64 1837 -64 2074 -64 
C 2726 -64 3072 773 3072 913 
C 3072 945 3046 971 3008 971 
C 2950 971 2944 939 2925 888 
C 2752 326 2381 64 2093 64 
C 1869 64 1747 230 1747 492 
C 1747 632 1773 734 1875 1156 
L 2099 2024 
C 2195 2408 2413 2689 2707 2689 
C 2720 2689 2899 2689 3034 2606 
z
" transform="scale(0.015625)"/>
      </defs>
      <use xlink:href="#CMMI12-78" transform="scale(0.996264)"/>
     </g>
    </g>
   </g>
   <g id="matplotlib.axis_2">
    <g id="ytick_1">
     <g id="line2d_16">
      <path d="M 56.874647 281.107752 
L 328.674647 281.107752 
" clip-path="url(#p6fb063232d)" style="fill: none; stroke: #ffffff; stroke-width: 1.5; stroke-linecap: square"/>
     </g>
     <g id="line2d_17">
      <defs>
       <path id="m7dc05a2517" d="M 0 0 
L -9 0 
" style="stroke: #555555; stroke-width: 1.875"/>
      </defs>
      <g>
       <use xlink:href="#m7dc05a2517" x="56.874647" y="281.107752" style="fill: #555555; stroke: #555555; stroke-width: 1.875"/>
      </g>
     </g>
     <g id="text_5">
      <!-- $\mathdefault{−3}$ -->
      <g style="fill: #555555" transform="translate(23.541364 286.815505)scale(0.165 -0.165)">
       <defs>
        <path id="CMR17-33" d="M 1414 2157 
C 1984 2157 2234 1662 2234 1090 
C 2234 320 1824 25 1453 25 
C 1114 25 563 194 390 693 
C 422 680 454 680 486 680 
C 640 680 755 782 755 948 
C 755 1133 614 1216 486 1216 
C 378 1216 211 1165 211 926 
C 211 335 787 -128 1466 -128 
C 2176 -128 2720 430 2720 1085 
C 2720 1707 2208 2157 1600 2227 
C 2086 2328 2554 2756 2554 3329 
C 2554 3820 2048 4179 1472 4179 
C 890 4179 378 3829 378 3329 
C 378 3110 544 3072 627 3072 
C 762 3072 877 3155 877 3321 
C 877 3486 762 3569 627 3569 
C 602 3569 570 3569 544 3557 
C 730 3959 1235 4032 1459 4032 
C 1683 4032 2106 3925 2106 3320 
C 2106 3143 2080 2828 1862 2550 
C 1670 2304 1453 2304 1242 2284 
C 1210 2284 1062 2269 1037 2269 
C 992 2263 966 2257 966 2208 
C 966 2163 973 2157 1101 2157 
L 1414 2157 
z
" transform="scale(0.015625)"/>
       </defs>
       <use xlink:href="#CMSY10-0" transform="scale(0.996264)"/>
       <use xlink:href="#CMR17-33" transform="translate(77.487468 0)scale(0.996264)"/>
      </g>
     </g>
    </g>
    <g id="ytick_2">
     <g id="line2d_18">
      <path d="M 56.874647 235.807752 
L 328.674647 235.807752 
" clip-path="url(#p6fb063232d)" style="fill: none; stroke: #ffffff; stroke-width: 1.5; stroke-linecap: square"/>
     </g>
     <g id="line2d_19">
      <g>
       <use xlink:href="#m7dc05a2517" x="56.874647" y="235.807752" style="fill: #555555; stroke: #555555; stroke-width: 1.875"/>
      </g>
     </g>
     <g id="text_6">
      <!-- $\mathdefault{−2}$ -->
      <g style="fill: #555555" transform="translate(23.541364 241.515505)scale(0.165 -0.165)">
       <use xlink:href="#CMSY10-0" transform="scale(0.996264)"/>
       <use xlink:href="#CMR17-32" transform="translate(77.487468 0)scale(0.996264)"/>
      </g>
     </g>
    </g>
    <g id="ytick_3">
     <g id="line2d_20">
      <path d="M 56.874647 190.507752 
L 328.674647 190.507752 
" clip-path="url(#p6fb063232d)" style="fill: none; stroke: #ffffff; stroke-width: 1.5; stroke-linecap: square"/>
     </g>
     <g id="line2d_21">
      <g>
       <use xlink:href="#m7dc05a2517" x="56.874647" y="190.507752" style="fill: #555555; stroke: #555555; stroke-width: 1.875"/>
      </g>
     </g>
     <g id="text_7">
      <!-- $\mathdefault{−1}$ -->
      <g style="fill: #555555" transform="translate(23.541364 196.215505)scale(0.165 -0.165)">
       <defs>
        <path id="CMR17-31" d="M 1702 4058 
C 1702 4192 1696 4192 1606 4192 
C 1357 3916 979 3827 621 3827 
C 602 3827 570 3827 563 3808 
C 557 3795 557 3782 557 3648 
C 755 3648 1088 3686 1344 3839 
L 1344 461 
C 1344 236 1331 160 781 160 
L 589 160 
L 589 0 
C 896 0 1216 0 1523 0 
C 1830 0 2150 0 2458 0 
L 2458 160 
L 2266 160 
C 1715 160 1702 230 1702 458 
L 1702 4058 
z
" transform="scale(0.015625)"/>
       </defs>
       <use xlink:href="#CMSY10-0" transform="scale(0.996264)"/>
       <use xlink:href="#CMR17-31" transform="translate(77.487468 0)scale(0.996264)"/>
      </g>
     </g>
    </g>
    <g id="ytick_4">
     <g id="line2d_22">
      <path d="M 56.874647 145.207752 
L 328.674647 145.207752 
" clip-path="url(#p6fb063232d)" style="fill: none; stroke: #ffffff; stroke-width: 1.5; stroke-linecap: square"/>
     </g>
     <g id="line2d_23">
      <g>
       <use xlink:href="#m7dc05a2517" x="56.874647" y="145.207752" style="fill: #555555; stroke: #555555; stroke-width: 1.875"/>
      </g>
     </g>
     <g id="text_8">
      <!-- $\mathdefault{0}$ -->
      <g style="fill: #555555" transform="translate(36.326793 150.915505)scale(0.165 -0.165)">
       <use xlink:href="#CMR17-30" transform="scale(0.996264)"/>
      </g>
     </g>
    </g>
    <g id="ytick_5">
     <g id="line2d_24">
      <path d="M 56.874647 99.907752 
L 328.674647 99.907752 
" clip-path="url(#p6fb063232d)" style="fill: none; stroke: #ffffff; stroke-width: 1.5; stroke-linecap: square"/>
     </g>
     <g id="line2d_25">
      <g>
       <use xlink:href="#m7dc05a2517" x="56.874647" y="99.907752" style="fill: #555555; stroke: #555555; stroke-width: 1.875"/>
      </g>
     </g>
     <g id="text_9">
      <!-- $\mathdefault{1}$ -->
      <g style="fill: #555555" transform="translate(36.326793 105.615505)scale(0.165 -0.165)">
       <use xlink:href="#CMR17-31" transform="scale(0.996264)"/>
      </g>
     </g>
    </g>
    <g id="ytick_6">
     <g id="line2d_26">
      <path d="M 56.874647 54.607752 
L 328.674647 54.607752 
" clip-path="url(#p6fb063232d)" style="fill: none; stroke: #ffffff; stroke-width: 1.5; stroke-linecap: square"/>
     </g>
     <g id="line2d_27">
      <g>
       <use xlink:href="#m7dc05a2517" x="56.874647" y="54.607752" style="fill: #555555; stroke: #555555; stroke-width: 1.875"/>
      </g>
     </g>
     <g id="text_10">
      <!-- $\mathdefault{2}$ -->
      <g style="fill: #555555" transform="translate(36.326793 60.315505)scale(0.165 -0.165)">
       <use xlink:href="#CMR17-32" transform="scale(0.996264)"/>
      </g>
     </g>
    </g>
    <g id="ytick_7">
     <g id="line2d_28">
      <path d="M 56.874647 9.307752 
L 328.674647 9.307752 
" clip-path="url(#p6fb063232d)" style="fill: none; stroke: #ffffff; stroke-width: 1.5; stroke-linecap: square"/>
     </g>
     <g id="line2d_29">
      <g>
       <use xlink:href="#m7dc05a2517" x="56.874647" y="9.307752" style="fill: #555555; stroke: #555555; stroke-width: 1.875"/>
      </g>
     </g>
     <g id="text_11">
      <!-- $\mathdefault{3}$ -->
      <g style="fill: #555555" transform="translate(36.326793 15.015505)scale(0.165 -0.165)">
       <use xlink:href="#CMR17-33" transform="scale(0.996264)"/>
      </g>
     </g>
    </g>
    <g id="ytick_8">
     <g id="line2d_30">
      <defs>
       <path id="m42acdd5fdc" d="M 0 0 
L -6 0 
" style="stroke: #555555; stroke-width: 1.5"/>
      </defs>
      <g>
       <use xlink:href="#m42acdd5fdc" x="56.874647" y="272.047752" style="fill: #555555; stroke: #555555; stroke-width: 1.5"/>
      </g>
     </g>
    </g>
    <g id="ytick_9">
     <g id="line2d_31">
      <g>
       <use xlink:href="#m42acdd5fdc" x="56.874647" y="262.987752" style="fill: #555555; stroke: #555555; stroke-width: 1.5"/>
      </g>
     </g>
    </g>
    <g id="ytick_10">
     <g id="line2d_32">
      <g>
       <use xlink:href="#m42acdd5fdc" x="56.874647" y="253.927752" style="fill: #555555; stroke: #555555; stroke-width: 1.5"/>
      </g>
     </g>
    </g>
    <g id="ytick_11">
     <g id="line2d_33">
      <g>
       <use xlink:href="#m42acdd5fdc" x="56.874647" y="244.867752" style="fill: #555555; stroke: #555555; stroke-width: 1.5"/>
      </g>
     </g>
    </g>
    <g id="ytick_12">
     <g id="line2d_34">
      <g>
       <use xlink:href="#m42acdd5fdc" x="56.874647" y="226.747752" style="fill: #555555; stroke: #555555; stroke-width: 1.5"/>
      </g>
     </g>
    </g>
    <g id="ytick_13">
     <g id="line2d_35">
      <g>
       <use xlink:href="#m42acdd5fdc" x="56.874647" y="217.687752" style="fill: #555555; stroke: #555555; stroke-width: 1.5"/>
      </g>
     </g>
    </g>
    <g id="ytick_14">
     <g id="line2d_36">
      <g>
       <use xlink:href="#m42acdd5fdc" x="56.874647" y="208.627752" style="fill: #555555; stroke: #555555; stroke-width: 1.5"/>
      </g>
     </g>
    </g>
    <g id="ytick_15">
     <g id="line2d_37">
      <g>
       <use xlink:href="#m42acdd5fdc" x="56.874647" y="199.567752" style="fill: #555555; stroke: #555555; stroke-width: 1.5"/>
      </g>
     </g>
    </g>
    <g id="ytick_16">
     <g id="line2d_38">
      <g>
       <use xlink:href="#m42acdd5fdc" x="56.874647" y="181.447752" style="fill: #555555; stroke: #555555; stroke-width: 1.5"/>
      </g>
     </g>
    </g>
    <g id="ytick_17">
     <g id="line2d_39">
      <g>
       <use xlink:href="#m42acdd5fdc" x="56.874647" y="172.387752" style="fill: #555555; stroke: #555555; stroke-width: 1.5"/>
      </g>
     </g>
    </g>
    <g id="ytick_18">
     <g id="line2d_40">
      <g>
       <use xlink:href="#m42acdd5fdc" x="56.874647" y="163.327752" style="fill: #555555; stroke: #555555; stroke-width: 1.5"/>
      </g>
     </g>
    </g>
    <g id="ytick_19">
     <g id="line2d_41">
      <g>
       <use xlink:href="#m42acdd5fdc" x="56.874647" y="154.267752" style="fill: #555555; stroke: #555555; stroke-width: 1.5"/>
      </g>
     </g>
    </g>
    <g id="ytick_20">
     <g id="line2d_42">
      <g>
       <use xlink:href="#m42acdd5fdc" x="56.874647" y="136.147752" style="fill: #555555; stroke: #555555; stroke-width: 1.5"/>
      </g>
     </g>
    </g>
    <g id="ytick_21">
     <g id="line2d_43">
      <g>
       <use xlink:href="#m42acdd5fdc" x="56.874647" y="127.087752" style="fill: #555555; stroke: #555555; stroke-width: 1.5"/>
      </g>
     </g>
    </g>
    <g id="ytick_22">
     <g id="line2d_44">
      <g>
       <use xlink:href="#m42acdd5fdc" x="56.874647" y="118.027752" style="fill: #555555; stroke: #555555; stroke-width: 1.5"/>
      </g>
     </g>
    </g>
    <g id="ytick_23">
     <g id="line2d_45">
      <g>
       <use xlink:href="#m42acdd5fdc" x="56.874647" y="108.967752" style="fill: #555555; stroke: #555555; stroke-width: 1.5"/>
      </g>
     </g>
    </g>
    <g id="ytick_24">
     <g id="line2d_46">
      <g>
       <use xlink:href="#m42acdd5fdc" x="56.874647" y="90.847752" style="fill: #555555; stroke: #555555; stroke-width: 1.5"/>
      </g>
     </g>
    </g>
    <g id="ytick_25">
     <g id="line2d_47">
      <g>
       <use xlink:href="#m42acdd5fdc" x="56.874647" y="81.787752" style="fill: #555555; stroke: #555555; stroke-width: 1.5"/>
      </g>
     </g>
    </g>
    <g id="ytick_26">
     <g id="line2d_48">
      <g>
       <use xlink:href="#m42acdd5fdc" x="56.874647" y="72.727752" style="fill: #555555; stroke: #555555; stroke-width: 1.5"/>
      </g>
     </g>
    </g>
    <g id="ytick_27">
     <g id="line2d_49">
      <g>
       <use xlink:href="#m42acdd5fdc" x="56.874647" y="63.667752" style="fill: #555555; stroke: #555555; stroke-width: 1.5"/>
      </g>
     </g>
    </g>
    <g id="ytick_28">
     <g id="line2d_50">
      <g>
       <use xlink:href="#m42acdd5fdc" x="56.874647" y="45.547752" style="fill: #555555; stroke: #555555; stroke-width: 1.5"/>
      </g>
     </g>
    </g>
    <g id="ytick_29">
     <g id="line2d_51">
      <g>
       <use xlink:href="#m42acdd5fdc" x="56.874647" y="36.487752" style="fill: #555555; stroke: #555555; stroke-width: 1.5"/>
      </g>
     </g>
    </g>
    <g id="ytick_30">
     <g id="line2d_52">
      <g>
       <use xlink:href="#m42acdd5fdc" x="56.874647" y="27.427752" style="fill: #555555; stroke: #555555; stroke-width: 1.5"/>
      </g>
     </g>
    </g>
    <g id="ytick_31">
     <g id="line2d_53">
      <g>
       <use xlink:href="#m42acdd5fdc" x="56.874647" y="18.367752" style="fill: #555555; stroke: #555555; stroke-width: 1.5"/>
      </g>
     </g>
    </g>
    <g id="text_12">
     <!-- $y$ -->
     <g style="fill: #555555" transform="translate(16.0533 149.488529)rotate(-90)scale(0.18 -0.18)">
      <defs>
       <path id="CMMI12-79" d="M 1683 -700 
C 1510 -939 1261 -1152 947 -1152 
C 870 -1152 563 -1152 467 -889 
C 486 -895 518 -895 531 -895 
C 723 -895 851 -729 851 -582 
C 851 -435 730 -384 634 -384 
C 531 -384 307 -458 307 -759 
C 307 -1071 582 -1286 947 -1286 
C 1587 -1286 2234 -700 2413 6 
L 3040 2485 
C 3046 2517 3059 2556 3059 2594 
C 3059 2689 2982 2753 2886 2753 
C 2829 2753 2694 2727 2643 2535 
L 2170 658 
C 2138 543 2138 530 2086 460 
C 1958 281 1747 64 1440 64 
C 1082 64 1050 415 1050 588 
C 1050 952 1222 1443 1395 1903 
C 1466 2088 1504 2178 1504 2305 
C 1504 2574 1312 2816 998 2816 
C 410 2816 173 1890 173 1839 
C 173 1814 198 1782 243 1782 
C 301 1782 307 1807 333 1897 
C 486 2433 730 2689 979 2689 
C 1037 2689 1146 2689 1146 2478 
C 1146 2312 1075 2127 979 1884 
C 666 1047 666 837 666 683 
C 666 77 1101 -64 1421 -64 
C 1606 -64 1837 -6 2061 230 
L 2067 224 
C 1971 -147 1907 -392 1683 -700 
z
" transform="scale(0.015625)"/>
      </defs>
      <use xlink:href="#CMMI12-79" transform="scale(0.996264)"/>
     </g>
    </g>
   </g>
   <g id="PathCollection_1"/>
   <g id="PathCollection_2">
    <path d="M 179.372371 239.253799 
L 183.165556 239.712137 
L 188.656465 240.10863 
L 194.147374 240.191398 
L 199.817099 239.925934 
L 205.129192 239.403489 
L 210.620101 238.530946 
L 216.111011 237.282848 
L 221.60192 235.740522 
L 227.092829 233.794792 
L 232.0448 231.689571 
L 235.329192 230.150961 
L 240.820101 227.165729 
L 246.311011 223.671332 
L 250.415694 220.707752 
L 253.844281 217.962298 
L 257.292829 214.921145 
L 260.038283 212.273152 
L 262.783738 209.403323 
L 265.529192 206.277387 
L 268.274647 202.848799 
L 271.020101 199.05529 
L 273.055115 195.998662 
L 276.266886 190.507752 
L 279.020657 185.016843 
L 281.361686 179.525934 
L 283.307417 174.035025 
L 284.849743 168.544116 
L 286.09784 163.053207 
L 286.970383 157.562298 
L 287.509072 152.071389 
L 287.758293 146.58048 
L 287.675524 141.089571 
L 287.279032 135.598662 
L 286.57814 130.107752 
L 285.523946 124.616843 
L 284.127703 119.125934 
L 283.307417 116.38048 
L 281.361686 110.889571 
L 279.256465 105.937599 
L 277.717856 102.653207 
L 274.732624 97.162298 
L 271.238227 91.671389 
L 268.274647 87.566706 
L 265.529192 84.138118 
L 262.48804 80.689571 
L 259.840046 77.944116 
L 256.970218 75.198662 
L 253.844281 72.453207 
L 250.415694 69.707752 
L 246.622185 66.962298 
L 243.565556 64.927284 
L 238.074647 61.715514 
L 232.583738 58.961743 
L 227.092829 56.620713 
L 221.60192 54.674982 
L 216.111011 53.132657 
L 210.620101 51.884559 
L 205.129192 51.012016 
L 199.638283 50.473327 
L 194.147374 50.224106 
L 188.656465 50.306875 
L 183.165556 50.703368 
L 177.674647 51.404259 
L 172.183738 52.458453 
L 166.692829 53.854696 
L 163.947374 54.674982 
L 158.456465 56.620713 
L 153.504494 58.725934 
L 150.220101 60.264543 
L 144.729192 63.249775 
L 139.238283 66.744172 
L 135.1336 69.707752 
L 131.705013 72.453207 
L 128.256465 75.49436 
L 125.511011 78.142353 
L 122.765556 81.012182 
L 120.020101 84.138118 
L 117.274647 87.566706 
L 114.529192 91.360215 
L 112.494179 94.416843 
L 109.282408 99.907752 
L 106.528637 105.398662 
L 104.187608 110.889571 
L 102.241877 116.38048 
L 100.699551 121.871389 
L 99.451454 127.362298 
L 98.578911 132.853207 
L 98.040221 138.344116 
L 97.791001 143.835025 
L 97.873769 149.325934 
L 98.270262 154.816843 
L 98.971154 160.307752 
L 100.025348 165.798662 
L 101.42159 171.289571 
L 102.241877 174.035025 
L 104.187608 179.525934 
L 106.292829 184.477905 
L 107.831438 187.762298 
L 110.81667 193.253207 
L 114.311067 198.744116 
L 117.274647 202.848799 
L 120.020101 206.277387 
L 123.061254 209.725934 
L 125.709248 212.471389 
L 128.579076 215.216843 
L 131.705013 217.962298 
L 135.1336 220.707752 
L 138.927109 223.453207 
L 141.983738 225.488221 
L 147.474647 228.699991 
L 152.965556 231.453762 
L 158.837318 233.932393 
L 158.837318 233.932393 
" clip-path="url(#p6fb063232d)" style="fill: none; stroke: #23160e; stroke-width: 2.25"/>
   </g>
   <g id="PathCollection_3">
    <path d="M 212.691365 221.237928 
L 216.111011 220.267406 
L 218.856465 219.367535 
L 224.347374 217.195518 
L 228.47879 215.216843 
L 229.838283 214.525493 
L 233.420552 212.471389 
L 235.329192 211.298275 
L 238.074647 209.436902 
L 241.365928 206.98048 
L 244.670058 204.235025 
L 247.638209 201.489571 
L 250.322758 198.744116 
L 252.761011 195.998662 
L 254.978434 193.253207 
L 257.292829 190.086829 
L 260.038283 185.853658 
L 260.549563 185.016843 
L 262.783738 180.911895 
L 263.49326 179.525934 
L 265.529192 174.916887 
L 266.93443 171.289571 
L 268.631947 165.798662 
L 269.335934 163.053207 
L 270.406271 157.562298 
L 271.06847 152.071389 
L 271.365704 146.58048 
L 271.266989 141.089571 
L 270.784886 135.598662 
L 269.925112 130.107752 
L 269.335934 127.362298 
L 267.834301 121.871389 
L 266.93443 119.125934 
L 264.762412 113.635025 
L 262.783738 109.50361 
L 262.092388 108.144116 
L 260.038283 104.561847 
L 258.86517 102.653207 
L 257.003797 99.907752 
L 254.547374 96.616472 
L 251.80192 93.312341 
L 249.056465 90.34419 
L 246.311011 87.659641 
L 243.565556 85.221388 
L 240.820101 83.003966 
L 237.653723 80.689571 
L 233.420552 77.944116 
L 232.583738 77.432836 
L 228.47879 75.198662 
L 227.092829 74.489139 
L 222.483782 72.453207 
L 218.856465 71.04797 
L 213.365556 69.350453 
L 210.620101 68.646465 
L 205.129192 67.576128 
L 199.638283 66.91393 
L 194.147374 66.616696 
L 188.656465 66.71541 
L 183.165556 67.197513 
L 177.674647 68.057287 
L 174.929192 68.646465 
L 169.438283 70.148099 
L 166.692829 71.04797 
L 161.20192 73.219987 
L 157.070504 75.198662 
L 155.711011 75.890012 
L 152.128742 77.944116 
L 150.220101 79.117229 
L 147.474647 80.978602 
L 144.183366 83.435025 
L 140.879236 86.18048 
L 137.911085 88.925934 
L 135.226536 91.671389 
L 132.788282 94.416843 
L 130.57086 97.162298 
L 128.256465 100.328676 
L 125.511011 104.561847 
L 124.999731 105.398662 
L 122.765556 109.50361 
L 122.056034 110.889571 
L 120.020101 115.498618 
L 118.614864 119.125934 
L 116.917347 124.616843 
L 116.21336 127.362298 
L 115.143023 132.853207 
L 114.480824 138.344116 
L 114.18359 143.835025 
L 114.282305 149.325934 
L 114.764407 154.816843 
L 115.624182 160.307752 
L 116.21336 163.053207 
L 117.714993 168.544116 
L 118.614864 171.289571 
L 120.786882 176.78048 
L 122.765556 180.911895 
L 123.456906 182.271389 
L 125.511011 185.853658 
L 126.684124 187.762298 
L 128.545497 190.507752 
L 131.00192 193.799033 
L 133.747374 197.103163 
L 136.492829 200.071315 
L 139.238283 202.755864 
L 141.983738 205.194117 
L 144.729192 207.411539 
L 147.895571 209.725934 
L 152.128742 212.471389 
L 152.965556 212.982669 
L 157.070504 215.216843 
L 158.456465 215.926366 
L 163.065512 217.962298 
L 166.692829 219.367535 
L 172.183738 221.065052 
L 174.929192 221.76904 
L 180.420101 222.839377 
L 185.911011 223.501575 
L 191.40192 223.798809 
L 192.034483 223.798809 
L 192.034483 223.798809 
" clip-path="url(#p6fb063232d)" style="fill: none; stroke: #452c1c; stroke-width: 2.25"/>
   </g>
   <g id="PathCollection_4">
    <path d="M 157.18353 202.167188 
L 158.456465 202.966736 
L 161.20192 204.506411 
L 163.947374 205.89612 
L 166.692829 207.116785 
L 169.438283 208.214363 
L 174.099237 209.725934 
L 174.929192 209.975608 
L 177.674647 210.679383 
L 180.420101 211.254129 
L 183.165556 211.706386 
L 185.911011 212.041245 
L 191.40192 212.372435 
L 196.892829 212.262443 
L 199.638283 212.041245 
L 202.383738 211.706386 
L 205.129192 211.254129 
L 207.874647 210.679383 
L 213.365556 209.15999 
L 216.111011 208.214363 
L 219.162644 206.98048 
L 221.60192 205.89612 
L 224.835955 204.235025 
L 227.092829 202.966736 
L 229.838283 201.236963 
L 233.348726 198.744116 
L 236.738759 195.998662 
L 239.725948 193.253207 
L 242.382499 190.507752 
L 244.759047 187.762298 
L 246.889988 185.016843 
L 249.056465 181.877681 
L 250.53363 179.525934 
L 252.073306 176.78048 
L 253.463015 174.035025 
L 254.683679 171.289571 
L 255.781258 168.544116 
L 257.292829 163.883162 
L 257.542502 163.053207 
L 258.246277 160.307752 
L 258.821023 157.562298 
L 259.273281 154.816843 
L 259.60814 152.071389 
L 259.939329 146.58048 
L 259.829338 141.089571 
L 259.60814 138.344116 
L 259.273281 135.598662 
L 258.821023 132.853207 
L 258.246277 130.107752 
L 256.726885 124.616843 
L 255.781258 121.871389 
L 254.547374 118.819755 
L 253.463015 116.38048 
L 251.80192 113.146444 
L 250.53363 110.889571 
L 248.803857 108.144116 
L 246.311011 104.633673 
L 243.565556 101.24364 
L 240.820101 98.256452 
L 238.074647 95.5999 
L 235.329192 93.223352 
L 232.583738 91.092412 
L 229.444576 88.925934 
L 227.092829 87.448769 
L 224.347374 85.909093 
L 221.60192 84.519385 
L 218.856465 83.29872 
L 216.111011 82.201141 
L 211.450057 80.689571 
L 210.620101 80.439897 
L 207.874647 79.736122 
L 205.129192 79.161376 
L 202.383738 78.709119 
L 199.638283 78.37426 
L 194.147374 78.04307 
L 188.656465 78.153061 
L 185.911011 78.37426 
L 183.165556 78.709119 
L 180.420101 79.161376 
L 177.674647 79.736122 
L 172.183738 81.255514 
L 169.438283 82.201141 
L 166.38665 83.435025 
L 163.947374 84.519385 
L 160.713339 86.18048 
L 158.456465 87.448769 
L 155.711011 89.178542 
L 152.200567 91.671389 
L 148.810535 94.416843 
L 145.823346 97.162298 
L 143.166795 99.907752 
L 140.790247 102.653207 
L 138.659306 105.398662 
L 136.492829 108.537823 
L 135.015663 110.889571 
L 133.475988 113.635025 
L 132.086279 116.38048 
L 130.865615 119.125934 
L 129.768036 121.871389 
L 128.256465 126.532342 
L 128.006792 127.362298 
L 127.303017 130.107752 
L 126.72827 132.853207 
L 126.276013 135.598662 
L 125.941154 138.344116 
L 125.609965 143.835025 
L 125.719956 149.325934 
L 125.941154 152.071389 
L 126.276013 154.816843 
L 126.72827 157.562298 
L 127.303017 160.307752 
L 128.822409 165.798662 
L 129.768036 168.544116 
L 131.00192 171.595749 
L 132.086279 174.035025 
L 133.747374 177.26906 
L 135.015663 179.525934 
L 136.745437 182.271389 
L 138.397557 184.641363 
L 138.397557 184.641363 
" clip-path="url(#p6fb063232d)" style="fill: none; stroke: #69422a; stroke-width: 2.25"/>
   </g>
   <g id="PathCollection_5">
    <path d="M 203.10837 88.424803 
L 202.383738 88.282839 
L 199.638283 87.884595 
L 196.892829 87.621527 
L 194.147374 87.490715 
L 191.40192 87.490715 
L 188.656465 87.621527 
L 185.911011 87.884595 
L 183.165556 88.282839 
L 179.990832 88.925934 
L 177.674647 89.489128 
L 174.929192 90.304243 
L 171.221997 91.671389 
L 169.438283 92.407283 
L 165.369085 94.416843 
L 163.947374 95.195065 
L 160.787981 97.162298 
L 157.009151 99.907752 
L 153.779126 102.653207 
L 150.978028 105.398662 
L 148.52354 108.144116 
L 146.359792 110.889571 
L 144.450204 113.635025 
L 141.983738 117.80219 
L 141.275523 119.125934 
L 139.238283 123.655103 
L 138.845089 124.616843 
L 137.871137 127.362298 
L 137.056022 130.107752 
L 136.387598 132.853207 
L 135.849734 135.598662 
L 135.45149 138.344116 
L 135.188421 141.089571 
L 135.05761 143.835025 
L 135.05761 146.58048 
L 135.188421 149.325934 
L 135.45149 152.071389 
L 135.849734 154.816843 
L 136.492829 157.991567 
L 137.056022 160.307752 
L 137.871137 163.053207 
L 139.238283 166.760402 
L 139.974178 168.544116 
L 141.983738 172.613315 
L 142.761959 174.035025 
L 144.729192 177.194418 
L 147.474647 180.973248 
L 150.220101 184.203273 
L 152.965556 187.004371 
L 155.711011 189.45886 
L 158.456465 191.622607 
L 161.20192 193.532195 
L 165.369085 195.998662 
L 166.692829 196.706876 
L 171.221997 198.744116 
L 172.183738 199.13731 
L 174.929192 200.111262 
L 177.674647 200.926377 
L 180.420101 201.594801 
L 183.165556 202.132666 
L 185.911011 202.53091 
L 188.656465 202.793978 
L 191.40192 202.924789 
L 194.147374 202.924789 
L 196.892829 202.793978 
L 199.638283 202.53091 
L 202.383738 202.132666 
L 205.558462 201.489571 
L 207.874647 200.926377 
L 210.620101 200.111262 
L 214.327297 198.744116 
L 216.111011 198.008222 
L 220.180209 195.998662 
L 221.60192 195.22044 
L 224.761313 193.253207 
L 228.540143 190.507752 
L 231.770168 187.762298 
L 234.571266 185.016843 
L 237.025754 182.271389 
L 239.189502 179.525934 
L 241.09909 176.78048 
L 243.565556 172.613315 
L 244.273771 171.289571 
L 246.311011 166.760402 
L 246.704205 165.798662 
L 247.678157 163.053207 
L 248.493272 160.307752 
L 249.161695 157.562298 
L 249.69956 154.816843 
L 250.097804 152.071389 
L 250.360873 149.325934 
L 250.491684 146.58048 
L 250.491684 143.835025 
L 250.360873 141.089571 
L 250.097804 138.344116 
L 249.69956 135.598662 
L 249.056465 132.423937 
L 248.493272 130.107752 
L 247.678157 127.362298 
L 246.311011 123.655103 
L 245.575116 121.871389 
L 243.565556 117.80219 
L 242.787335 116.38048 
L 240.820101 113.221087 
L 238.074647 109.442257 
L 235.329192 106.212232 
L 232.583738 103.411134 
L 229.838283 100.956645 
L 227.092829 98.792898 
L 223.419955 96.313018 
L 223.419955 96.313018 
" clip-path="url(#p6fb063232d)" style="fill: none; stroke: #8c5838; stroke-width: 2.25"/>
   </g>
   <g id="PathCollection_6">
    <path d="M 193.505782 194.346332 
L 194.147374 194.346332 
L 196.892829 194.192442 
L 199.638283 193.88296 
L 203.091054 193.253207 
L 205.129192 192.785031 
L 207.874647 191.986585 
L 211.815165 190.507752 
L 213.365556 189.840653 
L 217.350039 187.762298 
L 218.856465 186.86842 
L 221.608265 185.016843 
L 225.050888 182.271389 
L 227.9569 179.525934 
L 230.443496 176.78048 
L 232.588425 174.035025 
L 235.329192 169.783144 
L 236.035094 168.544116 
L 238.074647 164.24827 
L 238.575785 163.053207 
L 239.553479 160.307752 
L 240.351925 157.562298 
L 240.981349 154.816843 
L 241.449855 152.071389 
L 241.759336 149.325934 
L 241.913226 146.58048 
L 241.913226 143.835025 
L 241.759336 141.089571 
L 241.449855 138.344116 
L 240.820101 134.891346 
L 240.351925 132.853207 
L 239.553479 130.107752 
L 238.074647 126.167235 
L 237.407548 124.616843 
L 235.329192 120.63236 
L 234.435314 119.125934 
L 232.583738 116.374134 
L 229.838283 112.931512 
L 227.092829 110.0255 
L 224.347374 107.538903 
L 221.60192 105.393974 
L 217.350039 102.653207 
L 216.111011 101.947305 
L 211.815165 99.907752 
L 210.620101 99.406614 
L 207.874647 98.42892 
L 205.129192 97.630474 
L 202.383738 97.001051 
L 199.638283 96.532545 
L 196.892829 96.223063 
L 194.147374 96.069173 
L 191.40192 96.069173 
L 188.656465 96.223063 
L 185.911011 96.532545 
L 182.45824 97.162298 
L 180.420101 97.630474 
L 177.674647 98.42892 
L 173.734129 99.907752 
L 172.183738 100.574852 
L 168.199255 102.653207 
L 166.692829 103.547085 
L 163.941028 105.398662 
L 160.498406 108.144116 
L 157.592394 110.889571 
L 155.105798 113.635025 
L 152.960868 116.38048 
L 150.220101 120.63236 
L 149.5142 121.871389 
L 147.474647 126.167235 
L 146.973509 127.362298 
L 145.995815 130.107752 
L 145.197369 132.853207 
L 144.567945 135.598662 
L 144.099439 138.344116 
L 143.789958 141.089571 
L 143.636067 143.835025 
L 143.636067 146.58048 
L 143.789958 149.325934 
L 144.099439 152.071389 
L 144.729192 155.524159 
L 145.197369 157.562298 
L 145.995815 160.307752 
L 147.474647 164.24827 
L 148.141746 165.798662 
L 150.220101 169.783144 
L 151.11398 171.289571 
L 152.965556 174.041371 
L 155.711011 177.483993 
L 158.456465 180.390005 
L 161.20192 182.876602 
L 163.947374 185.021531 
L 168.199255 187.762298 
L 169.438283 188.4682 
L 172.938148 190.165259 
L 172.938148 190.165259 
" clip-path="url(#p6fb063232d)" style="fill: none; stroke: #af6f47; stroke-width: 2.25"/>
   </g>
   <g id="PathCollection_7">
    <path d="M 227.820802 166.142272 
L 228.034193 165.798662 
L 229.504899 163.053207 
L 229.838283 162.321472 
L 230.714001 160.307752 
L 231.69483 157.562298 
L 232.466626 154.816843 
L 232.583738 154.259111 
L 233.030978 152.071389 
L 233.402563 149.325934 
L 233.587335 146.58048 
L 233.587335 143.835025 
L 233.402563 141.089571 
L 233.030978 138.344116 
L 232.583738 136.156394 
L 232.466626 135.598662 
L 231.69483 132.853207 
L 230.714001 130.107752 
L 229.838283 128.094032 
L 229.504899 127.362298 
L 228.034193 124.616843 
L 227.092829 123.10102 
L 226.279111 121.871389 
L 224.347374 119.3098 
L 224.197493 119.125934 
L 221.700627 116.38048 
L 221.60192 116.281772 
L 218.856465 113.784906 
L 218.672599 113.635025 
L 216.111011 111.703288 
L 214.88138 110.889571 
L 213.365556 109.948206 
L 210.620101 108.477501 
L 209.888367 108.144116 
L 207.874647 107.268399 
L 205.129192 106.287569 
L 202.383738 105.515773 
L 201.826005 105.398662 
L 199.638283 104.951422 
L 196.892829 104.579836 
L 194.147374 104.395064 
L 191.40192 104.395064 
L 188.656465 104.579836 
L 185.911011 104.951422 
L 183.723289 105.398662 
L 183.165556 105.515773 
L 180.420101 106.287569 
L 177.674647 107.268399 
L 175.660927 108.144116 
L 174.929192 108.477501 
L 172.183738 109.948206 
L 170.667914 110.889571 
L 169.438283 111.703288 
L 166.876695 113.635025 
L 166.692829 113.784906 
L 163.947374 116.281772 
L 163.848667 116.38048 
L 161.351801 119.125934 
L 161.20192 119.3098 
L 159.270182 121.871389 
L 158.456465 123.10102 
L 157.515101 124.616843 
L 156.044395 127.362298 
L 155.711011 128.094032 
L 154.835293 130.107752 
L 153.854464 132.853207 
L 153.082668 135.598662 
L 152.965556 136.156394 
L 152.518316 138.344116 
L 152.146731 141.089571 
L 151.961959 143.835025 
L 151.961959 146.58048 
L 152.146731 149.325934 
L 152.518316 152.071389 
L 152.965556 154.259111 
L 153.082668 154.816843 
L 153.854464 157.562298 
L 154.835293 160.307752 
L 155.711011 162.321472 
L 156.044395 163.053207 
L 157.515101 165.798662 
L 158.456465 167.314485 
L 159.270182 168.544116 
L 161.20192 171.105705 
L 161.351801 171.289571 
L 163.848667 174.035025 
L 163.947374 174.133732 
L 166.692829 176.630599 
L 166.876695 176.78048 
L 169.438283 178.712217 
L 170.667914 179.525934 
L 172.183738 180.467299 
L 174.929192 181.938004 
L 175.660927 182.271389 
L 177.674647 183.147106 
L 180.420101 184.127935 
L 183.165556 184.899732 
L 183.723289 185.016843 
L 185.911011 185.464083 
L 188.656465 185.835669 
L 191.40192 186.02044 
L 194.147374 186.02044 
L 196.892829 185.835669 
L 199.638283 185.464083 
L 201.826005 185.016843 
L 202.383738 184.899732 
L 205.129192 184.127935 
L 207.874647 183.147106 
L 208.943752 182.682179 
" clip-path="url(#p6fb063232d)" style="fill: none; stroke: #d28555; stroke-width: 2.25"/>
   </g>
   <g id="PathCollection_8">
    <path d="M 186.549881 113.662699 
L 185.911011 113.776945 
L 183.165556 114.516311 
L 180.420101 115.514891 
L 178.536574 116.38048 
L 177.674647 116.807486 
L 174.929192 118.452158 
L 173.971916 119.125934 
L 172.183738 120.511616 
L 170.656785 121.871389 
L 169.438283 123.089891 
L 168.07851 124.616843 
L 166.692829 126.405022 
L 166.019053 127.362298 
L 164.374381 130.107752 
L 163.947374 130.96968 
L 163.081786 132.853207 
L 162.083206 135.598662 
L 161.34384 138.344116 
L 161.20192 139.137739 
L 160.870611 141.089571 
L 160.638387 143.835025 
L 160.638387 146.58048 
L 160.870611 149.325934 
L 161.20192 151.277766 
L 161.34384 152.071389 
L 162.083206 154.816843 
L 163.081786 157.562298 
L 163.947374 159.445825 
L 164.374381 160.307752 
L 166.019053 163.053207 
L 166.692829 164.010483 
L 168.07851 165.798662 
L 169.438283 167.325614 
L 170.656785 168.544116 
L 172.183738 169.903889 
L 173.971916 171.289571 
L 174.929192 171.963347 
L 177.674647 173.608019 
L 178.536574 174.035025 
L 180.420101 174.900613 
L 183.165556 175.899194 
L 185.911011 176.638559 
L 186.704633 176.78048 
L 188.656465 177.111789 
L 191.40192 177.344012 
L 194.147374 177.344012 
L 196.892829 177.111789 
L 198.844661 176.78048 
L 199.638283 176.638559 
L 202.383738 175.899194 
L 205.129192 174.900613 
L 207.01272 174.035025 
L 207.874647 173.608019 
L 210.620101 171.963347 
L 211.577377 171.289571 
L 213.365556 169.903889 
L 214.892508 168.544116 
L 216.111011 167.325614 
L 217.470784 165.798662 
L 218.856465 164.010483 
L 219.530241 163.053207 
L 221.174913 160.307752 
L 221.60192 159.445825 
L 222.467508 157.562298 
L 223.466088 154.816843 
L 224.205454 152.071389 
L 224.347374 151.277766 
L 224.678683 149.325934 
L 224.910906 146.58048 
L 224.910906 143.835025 
L 224.678683 141.089571 
L 224.347374 139.137739 
L 224.205454 138.344116 
L 223.466088 135.598662 
L 222.467508 132.853207 
L 221.60192 130.96968 
L 221.174913 130.107752 
L 219.530241 127.362298 
L 218.856465 126.405022 
L 217.470784 124.616843 
L 216.111011 123.089891 
L 214.892508 121.871389 
L 213.365556 120.511616 
L 211.577377 119.125934 
L 210.620101 118.452158 
L 207.874647 116.807486 
L 207.121991 116.434614 
" clip-path="url(#p6fb063232d)" style="fill: none; stroke: #f69b63; stroke-width: 2.25"/>
   </g>
   <g id="PathCollection_9">
    <path d="M 174.076575 156.811361 
L 174.506358 157.562298 
L 174.929192 158.152103 
L 176.722259 160.307752 
L 177.674647 161.26014 
L 179.830296 163.053207 
L 180.420101 163.476041 
L 183.165556 165.047344 
L 184.931597 165.798662 
L 185.911011 166.169318 
L 188.656465 166.860551 
L 191.40192 167.204267 
L 194.147374 167.204267 
L 196.892829 166.860551 
L 199.638283 166.169318 
L 200.617697 165.798662 
L 202.383738 165.047344 
L 205.129192 163.476041 
L 205.718998 163.053207 
L 207.874647 161.26014 
L 208.827034 160.307752 
L 210.620101 158.152103 
L 211.042936 157.562298 
L 212.614238 154.816843 
L 213.365556 153.050803 
L 213.736213 152.071389 
L 214.427445 149.325934 
L 214.771162 146.58048 
L 214.771162 143.835025 
L 214.427445 141.089571 
L 213.736213 138.344116 
L 213.365556 137.364702 
L 212.614238 135.598662 
L 211.042936 132.853207 
L 210.620101 132.263401 
L 208.827034 130.107752 
L 207.874647 129.155365 
L 205.718998 127.362298 
L 205.129192 126.939464 
L 202.383738 125.368161 
L 200.617697 124.616843 
L 199.638283 124.246186 
L 196.892829 123.554954 
L 194.147374 123.211237 
L 191.40192 123.211237 
L 188.656465 123.554954 
L 185.911011 124.246186 
L 184.931597 124.616843 
L 183.165556 125.368161 
L 180.420101 126.939464 
L 180.369302 126.975882 
" clip-path="url(#p6fb063232d)" style="fill: none; stroke: #ffb171; stroke-width: 2.25"/>
   </g>
   <g id="PathCollection_10"/>
   <g id="patch_3">
    <path d="M 56.874647 281.107752 
L 56.874647 9.307752 
" style="fill: none; stroke: #ffffff; stroke-width: 1.875; stroke-linejoin: miter; stroke-linecap: square"/>
   </g>
   <g id="patch_4">
    <path d="M 56.874647 281.107752 
L 328.674647 281.107752 
" style="fill: none; stroke: #ffffff; stroke-width: 1.875; stroke-linejoin: miter; stroke-linecap: square"/>
   </g>
   <g id="text_13">
    <!-- $\mathdefault{0.0177}$ -->
    <g transform="translate(152.564123 238.11036)rotate(-352.808198)scale(0.12 -0.12)">
     <defs>
      <path id="CMMI12-3a" d="M 1178 307 
C 1178 492 1024 619 870 619 
C 685 619 557 466 557 313 
C 557 128 710 0 864 0 
C 1050 0 1178 153 1178 307 
z
" transform="scale(0.015625)"/>
      <path id="CMR17-37" d="M 2886 3941 
L 2886 4081 
L 1382 4081 
C 634 4081 621 4165 595 4288 
L 480 4288 
L 294 3094 
L 410 3094 
C 429 3215 474 3540 550 3661 
C 589 3712 1062 3712 1171 3712 
L 2579 3712 
L 1869 2661 
C 1395 1954 1069 999 1069 165 
C 1069 89 1069 -128 1299 -128 
C 1530 -128 1530 89 1530 171 
L 1530 465 
C 1530 1508 1709 2196 2003 2636 
L 2886 3941 
z
" transform="scale(0.015625)"/>
     </defs>
     <use xlink:href="#CMR17-30" transform="scale(0.996264)"/>
     <use xlink:href="#CMMI12-3a" transform="translate(45.690477 0)scale(0.996264)"/>
     <use xlink:href="#CMR17-30" transform="translate(72.787654 0)scale(0.996264)"/>
     <use xlink:href="#CMR17-31" transform="translate(118.478131 0)scale(0.996264)"/>
     <use xlink:href="#CMR17-37" transform="translate(164.168608 0)scale(0.996264)"/>
     <use xlink:href="#CMR17-37" transform="translate(209.859086 0)scale(0.996264)"/>
    </g>
   </g>
   <g id="text_14">
    <!-- $\mathdefault{0.0353}$ -->
    <g transform="translate(186.333278 227.173765)rotate(-3.428629)scale(0.12 -0.12)">
     <defs>
      <path id="CMR17-35" d="M 730 3692 
C 794 3666 1056 3584 1325 3584 
C 1920 3584 2246 3911 2432 4100 
C 2432 4157 2432 4192 2394 4192 
C 2387 4192 2374 4192 2323 4163 
C 2099 4058 1837 3973 1517 3973 
C 1325 3973 1037 3999 723 4139 
C 653 4171 640 4171 634 4171 
C 602 4171 595 4164 595 4037 
L 595 2203 
C 595 2089 595 2057 659 2057 
C 691 2057 704 2070 736 2114 
C 941 2401 1222 2522 1542 2522 
C 1766 2522 2246 2382 2246 1289 
C 2246 1085 2246 715 2054 421 
C 1894 159 1645 25 1370 25 
C 947 25 518 320 403 814 
C 429 807 480 795 506 795 
C 589 795 749 840 749 1038 
C 749 1210 627 1280 506 1280 
C 358 1280 262 1190 262 1011 
C 262 454 704 -128 1382 -128 
C 2042 -128 2669 440 2669 1264 
C 2669 2030 2170 2624 1549 2624 
C 1222 2624 947 2503 730 2274 
L 730 3692 
z
" transform="scale(0.015625)"/>
     </defs>
     <use xlink:href="#CMR17-30" transform="scale(0.996264)"/>
     <use xlink:href="#CMMI12-3a" transform="translate(45.690477 0)scale(0.996264)"/>
     <use xlink:href="#CMR17-30" transform="translate(72.787654 0)scale(0.996264)"/>
     <use xlink:href="#CMR17-33" transform="translate(118.478131 0)scale(0.996264)"/>
     <use xlink:href="#CMR17-35" transform="translate(164.168608 0)scale(0.996264)"/>
     <use xlink:href="#CMR17-33" transform="translate(209.859086 0)scale(0.996264)"/>
    </g>
   </g>
   <g id="text_15">
    <!-- $\mathdefault{0.0530}$ -->
    <g transform="translate(131.422069 190.868436)rotate(-335.76912)scale(0.12 -0.12)">
     <use xlink:href="#CMR17-30" transform="scale(0.996264)"/>
     <use xlink:href="#CMMI12-3a" transform="translate(45.690477 0)scale(0.996264)"/>
     <use xlink:href="#CMR17-30" transform="translate(72.787654 0)scale(0.996264)"/>
     <use xlink:href="#CMR17-35" transform="translate(118.478131 0)scale(0.996264)"/>
     <use xlink:href="#CMR17-33" transform="translate(164.168608 0)scale(0.996264)"/>
     <use xlink:href="#CMR17-30" transform="translate(209.859086 0)scale(0.996264)"/>
    </g>
   </g>
   <g id="text_16">
    <!-- $\mathdefault{0.0707}$ -->
    <g transform="translate(196.834929 91.216903)rotate(-349.37108)scale(0.12 -0.12)">
     <use xlink:href="#CMR17-30" transform="scale(0.996264)"/>
     <use xlink:href="#CMMI12-3a" transform="translate(45.690477 0)scale(0.996264)"/>
     <use xlink:href="#CMR17-30" transform="translate(72.787654 0)scale(0.996264)"/>
     <use xlink:href="#CMR17-37" transform="translate(118.478131 0)scale(0.996264)"/>
     <use xlink:href="#CMR17-30" transform="translate(164.168608 0)scale(0.996264)"/>
     <use xlink:href="#CMR17-37" transform="translate(209.859086 0)scale(0.996264)"/>
    </g>
   </g>
   <g id="text_17">
    <!-- $\mathdefault{0.0883}$ -->
    <g transform="translate(166.692837 194.798262)rotate(-354.385436)scale(0.12 -0.12)">
     <defs>
      <path id="CMR17-38" d="M 1741 2264 
C 2144 2467 2554 2773 2554 3263 
C 2554 3841 1990 4179 1472 4179 
C 890 4179 378 3759 378 3180 
C 378 3021 416 2747 666 2505 
C 730 2442 998 2251 1171 2130 
C 883 1983 211 1634 211 934 
C 211 279 838 -128 1459 -128 
C 2144 -128 2720 362 2720 1010 
C 2720 1590 2330 1857 2074 2029 
L 1741 2264 
z
M 902 2822 
C 851 2854 595 3051 595 3351 
C 595 3739 998 4032 1459 4032 
C 1965 4032 2336 3676 2336 3262 
C 2336 2669 1670 2331 1638 2331 
C 1632 2331 1626 2331 1574 2370 
L 902 2822 
z
M 2080 1519 
C 2176 1449 2483 1240 2483 851 
C 2483 381 2010 25 1472 25 
C 890 25 448 438 448 940 
C 448 1443 838 1862 1280 2060 
L 2080 1519 
z
" transform="scale(0.015625)"/>
     </defs>
     <use xlink:href="#CMR17-30" transform="scale(0.996264)"/>
     <use xlink:href="#CMMI12-3a" transform="translate(45.690477 0)scale(0.996264)"/>
     <use xlink:href="#CMR17-30" transform="translate(72.787654 0)scale(0.996264)"/>
     <use xlink:href="#CMR17-38" transform="translate(118.478131 0)scale(0.996264)"/>
     <use xlink:href="#CMR17-38" transform="translate(164.168608 0)scale(0.996264)"/>
     <use xlink:href="#CMR17-33" transform="translate(209.859086 0)scale(0.996264)"/>
    </g>
   </g>
   <g id="text_18">
    <!-- $\mathdefault{0.1060}$ -->
    <g transform="translate(205.004574 185.652267)rotate(-22.659518)scale(0.12 -0.12)">
     <defs>
      <path id="CMR17-36" d="M 678 2176 
C 678 3690 1395 4032 1811 4032 
C 1946 4032 2272 4009 2400 3776 
C 2298 3776 2106 3776 2106 3553 
C 2106 3381 2246 3323 2336 3323 
C 2394 3323 2566 3348 2566 3560 
C 2566 3954 2246 4179 1805 4179 
C 1043 4179 243 3390 243 1984 
C 243 253 966 -128 1478 -128 
C 2099 -128 2688 427 2688 1283 
C 2688 2081 2170 2662 1517 2662 
C 1126 2662 838 2407 678 1960 
L 678 2176 
z
M 1478 25 
C 691 25 691 1200 691 1436 
C 691 1896 909 2560 1504 2560 
C 1613 2560 1926 2560 2138 2120 
C 2253 1870 2253 1609 2253 1289 
C 2253 944 2253 690 2118 434 
C 1978 171 1773 25 1478 25 
z
" transform="scale(0.015625)"/>
     </defs>
     <use xlink:href="#CMR17-30" transform="scale(0.996264)"/>
     <use xlink:href="#CMMI12-3a" transform="translate(45.690477 0)scale(0.996264)"/>
     <use xlink:href="#CMR17-31" transform="translate(72.787654 0)scale(0.996264)"/>
     <use xlink:href="#CMR17-30" transform="translate(118.478131 0)scale(0.996264)"/>
     <use xlink:href="#CMR17-36" transform="translate(164.168608 0)scale(0.996264)"/>
     <use xlink:href="#CMR17-30" transform="translate(209.859086 0)scale(0.996264)"/>
    </g>
   </g>
   <g id="text_19">
    <!-- $\mathdefault{0.1237}$ -->
    <g transform="translate(180.475256 115.234698)rotate(-356.291642)scale(0.12 -0.12)">
     <use xlink:href="#CMR17-30" transform="scale(0.996264)"/>
     <use xlink:href="#CMMI12-3a" transform="translate(45.690477 0)scale(0.996264)"/>
     <use xlink:href="#CMR17-31" transform="translate(72.787654 0)scale(0.996264)"/>
     <use xlink:href="#CMR17-32" transform="translate(118.478131 0)scale(0.996264)"/>
     <use xlink:href="#CMR17-33" transform="translate(164.168608 0)scale(0.996264)"/>
     <use xlink:href="#CMR17-37" transform="translate(209.859086 0)scale(0.996264)"/>
    </g>
   </g>
   <g id="text_20">
    <!-- $\mathdefault{0.1413}$ -->
    <g transform="translate(167.430118 154.28322)rotate(-64.208241)scale(0.12 -0.12)">
     <defs>
      <path id="CMR17-34" d="M 2150 4122 
C 2150 4256 2144 4256 2029 4256 
L 128 1254 
L 128 1088 
L 1779 1088 
L 1779 457 
C 1779 224 1766 160 1318 160 
L 1197 160 
L 1197 0 
C 1402 0 1747 0 1965 0 
C 2182 0 2528 0 2733 0 
L 2733 160 
L 2611 160 
C 2163 160 2150 224 2150 457 
L 2150 1088 
L 2803 1088 
L 2803 1254 
L 2150 1254 
L 2150 4122 
z
M 1798 3703 
L 1798 1254 
L 256 1254 
L 1798 3703 
z
" transform="scale(0.015625)"/>
     </defs>
     <use xlink:href="#CMR17-30" transform="scale(0.996264)"/>
     <use xlink:href="#CMMI12-3a" transform="translate(45.690477 0)scale(0.996264)"/>
     <use xlink:href="#CMR17-31" transform="translate(72.787654 0)scale(0.996264)"/>
     <use xlink:href="#CMR17-34" transform="translate(118.478131 0)scale(0.996264)"/>
     <use xlink:href="#CMR17-31" transform="translate(164.168608 0)scale(0.996264)"/>
     <use xlink:href="#CMR17-33" transform="translate(209.859086 0)scale(0.996264)"/>
    </g>
   </g>
  </g>
 </g>
 <defs>
  <clipPath id="p6fb063232d">
   <rect x="56.874647" y="9.307752" width="271.8" height="271.8"/>
  </clipPath>
 </defs>
</svg>
