<?xml version="1.0" encoding="utf-8" standalone="no"?>
<!DOCTYPE svg PUBLIC "-//W3C//DTD SVG 1.1//EN"
  "http://www.w3.org/Graphics/SVG/1.1/DTD/svg11.dtd">
<svg xmlns:xlink="http://www.w3.org/1999/xlink" width="342.291466pt" height="331.760948pt" viewBox="0 0 342.291466 331.760948" xmlns="http://www.w3.org/2000/svg" version="1.1">
 <metadata>
  <rdf:RDF xmlns:dc="http://purl.org/dc/elements/1.1/" xmlns:cc="http://creativecommons.org/ns#" xmlns:rdf="http://www.w3.org/1999/02/22-rdf-syntax-ns#">
   <cc:Work>
    <dc:type rdf:resource="http://purl.org/dc/dcmitype/StillImage"/>
    <dc:date>2022-08-18T01:45:19.685198</dc:date>
    <dc:format>image/svg+xml</dc:format>
    <dc:creator>
     <cc:Agent>
      <dc:title>Matplotlib v3.5.1, https://matplotlib.org/</dc:title>
     </cc:Agent>
    </dc:creator>
   </cc:Work>
  </rdf:RDF>
 </metadata>
 <defs>
  <style type="text/css">*{stroke-linejoin: round; stroke-linecap: butt}</style>
 </defs>
 <g id="figure_1">
  <g id="patch_1">
   <path d="M 0 331.760948 
L 342.291466 331.760948 
L 342.291466 0 
L 0 0 
z
" style="fill: #ffffff"/>
  </g>
  <g id="axes_1">
   <g id="patch_2">
    <path d="M 56.608099 281.107752 
L 328.408099 281.107752 
L 328.408099 9.307752 
L 56.608099 9.307752 
z
" style="fill: #e5e5e5"/>
   </g>
   <g id="matplotlib.axis_1">
    <g id="xtick_1">
     <g id="line2d_1">
      <path d="M 328.408099 281.107752 
L 328.408099 9.307752 
" clip-path="url(#p135e9aef11)" style="fill: none; stroke: #ffffff; stroke-width: 1.5; stroke-linecap: square"/>
     </g>
     <g id="line2d_2">
      <defs>
       <path id="m6679bf739c" d="M 0 0 
L 0 9 
" style="stroke: #555555; stroke-width: 1.875"/>
      </defs>
      <g>
       <use xlink:href="#m6679bf739c" x="328.408099" y="281.107752" style="fill: #555555; stroke: #555555; stroke-width: 1.875"/>
      </g>
     </g>
     <g id="text_1">
      <!-- $\mathdefault{0.0}$ -->
      <g style="fill: #555555" transform="translate(318.124732 305.023257)scale(0.165 -0.165)">
       <defs>
        <path id="CMR17-30" d="M 2688 2025 
C 2688 2416 2682 3080 2413 3591 
C 2176 4039 1798 4198 1466 4198 
C 1158 4198 768 4058 525 3597 
C 269 3118 243 2524 243 2025 
C 243 1661 250 1106 448 619 
C 723 -39 1216 -128 1466 -128 
C 1760 -128 2208 -7 2470 600 
C 2662 1042 2688 1559 2688 2025 
z
M 1466 -26 
C 1056 -26 813 325 723 812 
C 653 1188 653 1738 653 2096 
C 653 2588 653 2997 736 3387 
C 858 3929 1216 4096 1466 4096 
C 1728 4096 2067 3923 2189 3400 
C 2272 3036 2278 2607 2278 2096 
C 2278 1680 2278 1169 2202 792 
C 2067 95 1690 -26 1466 -26 
z
" transform="scale(0.015625)"/>
        <path id="CMMI12-3a" d="M 1178 307 
C 1178 492 1024 619 870 619 
C 685 619 557 466 557 313 
C 557 128 710 0 864 0 
C 1050 0 1178 153 1178 307 
z
" transform="scale(0.015625)"/>
       </defs>
       <use xlink:href="#CMR17-30" transform="scale(0.996264)"/>
       <use xlink:href="#CMMI12-3a" transform="translate(45.690477 0)scale(0.996264)"/>
       <use xlink:href="#CMR17-30" transform="translate(72.787654 0)scale(0.996264)"/>
      </g>
     </g>
    </g>
    <g id="xtick_2">
     <g id="line2d_3">
      <path d="M 274.048099 281.107752 
L 274.048099 9.307752 
" clip-path="url(#p135e9aef11)" style="fill: none; stroke: #ffffff; stroke-width: 1.5; stroke-linecap: square"/>
     </g>
     <g id="line2d_4">
      <g>
       <use xlink:href="#m6679bf739c" x="274.048099" y="281.107752" style="fill: #555555; stroke: #555555; stroke-width: 1.875"/>
      </g>
     </g>
     <g id="text_2">
      <!-- $\mathdefault{0.2}$ -->
      <g style="fill: #555555" transform="translate(263.764732 305.023257)scale(0.165 -0.165)">
       <defs>
        <path id="CMR17-32" d="M 2669 989 
L 2554 989 
C 2490 536 2438 459 2413 420 
C 2381 369 1920 369 1830 369 
L 602 369 
C 832 619 1280 1072 1824 1597 
C 2214 1967 2669 2402 2669 3035 
C 2669 3790 2067 4224 1395 4224 
C 691 4224 262 3604 262 3030 
C 262 2780 448 2748 525 2748 
C 589 2748 781 2787 781 3010 
C 781 3207 614 3264 525 3264 
C 486 3264 448 3258 422 3245 
C 544 3790 915 4058 1306 4058 
C 1862 4058 2227 3617 2227 3035 
C 2227 2479 1901 2000 1536 1584 
L 262 146 
L 262 0 
L 2515 0 
L 2669 989 
z
" transform="scale(0.015625)"/>
       </defs>
       <use xlink:href="#CMR17-30" transform="scale(0.996264)"/>
       <use xlink:href="#CMMI12-3a" transform="translate(45.690477 0)scale(0.996264)"/>
       <use xlink:href="#CMR17-32" transform="translate(72.787654 0)scale(0.996264)"/>
      </g>
     </g>
    </g>
    <g id="xtick_3">
     <g id="line2d_5">
      <path d="M 219.688099 281.107752 
L 219.688099 9.307752 
" clip-path="url(#p135e9aef11)" style="fill: none; stroke: #ffffff; stroke-width: 1.5; stroke-linecap: square"/>
     </g>
     <g id="line2d_6">
      <g>
       <use xlink:href="#m6679bf739c" x="219.688099" y="281.107752" style="fill: #555555; stroke: #555555; stroke-width: 1.875"/>
      </g>
     </g>
     <g id="text_3">
      <!-- $\mathdefault{0.4}$ -->
      <g style="fill: #555555" transform="translate(209.404732 305.023257)scale(0.165 -0.165)">
       <defs>
        <path id="CMR17-34" d="M 2150 4122 
C 2150 4256 2144 4256 2029 4256 
L 128 1254 
L 128 1088 
L 1779 1088 
L 1779 457 
C 1779 224 1766 160 1318 160 
L 1197 160 
L 1197 0 
C 1402 0 1747 0 1965 0 
C 2182 0 2528 0 2733 0 
L 2733 160 
L 2611 160 
C 2163 160 2150 224 2150 457 
L 2150 1088 
L 2803 1088 
L 2803 1254 
L 2150 1254 
L 2150 4122 
z
M 1798 3703 
L 1798 1254 
L 256 1254 
L 1798 3703 
z
" transform="scale(0.015625)"/>
       </defs>
       <use xlink:href="#CMR17-30" transform="scale(0.996264)"/>
       <use xlink:href="#CMMI12-3a" transform="translate(45.690477 0)scale(0.996264)"/>
       <use xlink:href="#CMR17-34" transform="translate(72.787654 0)scale(0.996264)"/>
      </g>
     </g>
    </g>
    <g id="xtick_4">
     <g id="line2d_7">
      <path d="M 165.328099 281.107752 
L 165.328099 9.307752 
" clip-path="url(#p135e9aef11)" style="fill: none; stroke: #ffffff; stroke-width: 1.5; stroke-linecap: square"/>
     </g>
     <g id="line2d_8">
      <g>
       <use xlink:href="#m6679bf739c" x="165.328099" y="281.107752" style="fill: #555555; stroke: #555555; stroke-width: 1.875"/>
      </g>
     </g>
     <g id="text_4">
      <!-- $\mathdefault{0.6}$ -->
      <g style="fill: #555555" transform="translate(155.044732 305.023257)scale(0.165 -0.165)">
       <defs>
        <path id="CMR17-36" d="M 678 2176 
C 678 3690 1395 4032 1811 4032 
C 1946 4032 2272 4009 2400 3776 
C 2298 3776 2106 3776 2106 3553 
C 2106 3381 2246 3323 2336 3323 
C 2394 3323 2566 3348 2566 3560 
C 2566 3954 2246 4179 1805 4179 
C 1043 4179 243 3390 243 1984 
C 243 253 966 -128 1478 -128 
C 2099 -128 2688 427 2688 1283 
C 2688 2081 2170 2662 1517 2662 
C 1126 2662 838 2407 678 1960 
L 678 2176 
z
M 1478 25 
C 691 25 691 1200 691 1436 
C 691 1896 909 2560 1504 2560 
C 1613 2560 1926 2560 2138 2120 
C 2253 1870 2253 1609 2253 1289 
C 2253 944 2253 690 2118 434 
C 1978 171 1773 25 1478 25 
z
" transform="scale(0.015625)"/>
       </defs>
       <use xlink:href="#CMR17-30" transform="scale(0.996264)"/>
       <use xlink:href="#CMMI12-3a" transform="translate(45.690477 0)scale(0.996264)"/>
       <use xlink:href="#CMR17-36" transform="translate(72.787654 0)scale(0.996264)"/>
      </g>
     </g>
    </g>
    <g id="xtick_5">
     <g id="line2d_9">
      <path d="M 110.968099 281.107752 
L 110.968099 9.307752 
" clip-path="url(#p135e9aef11)" style="fill: none; stroke: #ffffff; stroke-width: 1.5; stroke-linecap: square"/>
     </g>
     <g id="line2d_10">
      <g>
       <use xlink:href="#m6679bf739c" x="110.968099" y="281.107752" style="fill: #555555; stroke: #555555; stroke-width: 1.875"/>
      </g>
     </g>
     <g id="text_5">
      <!-- $\mathdefault{0.8}$ -->
      <g style="fill: #555555" transform="translate(100.684732 305.023257)scale(0.165 -0.165)">
       <defs>
        <path id="CMR17-38" d="M 1741 2264 
C 2144 2467 2554 2773 2554 3263 
C 2554 3841 1990 4179 1472 4179 
C 890 4179 378 3759 378 3180 
C 378 3021 416 2747 666 2505 
C 730 2442 998 2251 1171 2130 
C 883 1983 211 1634 211 934 
C 211 279 838 -128 1459 -128 
C 2144 -128 2720 362 2720 1010 
C 2720 1590 2330 1857 2074 2029 
L 1741 2264 
z
M 902 2822 
C 851 2854 595 3051 595 3351 
C 595 3739 998 4032 1459 4032 
C 1965 4032 2336 3676 2336 3262 
C 2336 2669 1670 2331 1638 2331 
C 1632 2331 1626 2331 1574 2370 
L 902 2822 
z
M 2080 1519 
C 2176 1449 2483 1240 2483 851 
C 2483 381 2010 25 1472 25 
C 890 25 448 438 448 940 
C 448 1443 838 1862 1280 2060 
L 2080 1519 
z
" transform="scale(0.015625)"/>
       </defs>
       <use xlink:href="#CMR17-30" transform="scale(0.996264)"/>
       <use xlink:href="#CMMI12-3a" transform="translate(45.690477 0)scale(0.996264)"/>
       <use xlink:href="#CMR17-38" transform="translate(72.787654 0)scale(0.996264)"/>
      </g>
     </g>
    </g>
    <g id="xtick_6">
     <g id="line2d_11">
      <path d="M 56.608099 281.107752 
L 56.608099 9.307752 
" clip-path="url(#p135e9aef11)" style="fill: none; stroke: #ffffff; stroke-width: 1.5; stroke-linecap: square"/>
     </g>
     <g id="line2d_12">
      <g>
       <use xlink:href="#m6679bf739c" x="56.608099" y="281.107752" style="fill: #555555; stroke: #555555; stroke-width: 1.875"/>
      </g>
     </g>
     <g id="text_6">
      <!-- $\mathdefault{1.0}$ -->
      <g style="fill: #555555" transform="translate(46.324732 305.023257)scale(0.165 -0.165)">
       <defs>
        <path id="CMR17-31" d="M 1702 4058 
C 1702 4192 1696 4192 1606 4192 
C 1357 3916 979 3827 621 3827 
C 602 3827 570 3827 563 3808 
C 557 3795 557 3782 557 3648 
C 755 3648 1088 3686 1344 3839 
L 1344 461 
C 1344 236 1331 160 781 160 
L 589 160 
L 589 0 
C 896 0 1216 0 1523 0 
C 1830 0 2150 0 2458 0 
L 2458 160 
L 2266 160 
C 1715 160 1702 230 1702 458 
L 1702 4058 
z
" transform="scale(0.015625)"/>
       </defs>
       <use xlink:href="#CMR17-31" transform="scale(0.996264)"/>
       <use xlink:href="#CMMI12-3a" transform="translate(45.690477 0)scale(0.996264)"/>
       <use xlink:href="#CMR17-30" transform="translate(72.787654 0)scale(0.996264)"/>
      </g>
     </g>
    </g>
    <g id="xtick_7">
     <g id="line2d_13">
      <defs>
       <path id="m04f2a405ef" d="M 0 0 
L 0 6 
" style="stroke: #555555; stroke-width: 1.5"/>
      </defs>
      <g>
       <use xlink:href="#m04f2a405ef" x="314.818099" y="281.107752" style="fill: #555555; stroke: #555555; stroke-width: 1.5"/>
      </g>
     </g>
    </g>
    <g id="xtick_8">
     <g id="line2d_14">
      <g>
       <use xlink:href="#m04f2a405ef" x="301.228099" y="281.107752" style="fill: #555555; stroke: #555555; stroke-width: 1.5"/>
      </g>
     </g>
    </g>
    <g id="xtick_9">
     <g id="line2d_15">
      <g>
       <use xlink:href="#m04f2a405ef" x="287.638099" y="281.107752" style="fill: #555555; stroke: #555555; stroke-width: 1.5"/>
      </g>
     </g>
    </g>
    <g id="xtick_10">
     <g id="line2d_16">
      <g>
       <use xlink:href="#m04f2a405ef" x="260.458099" y="281.107752" style="fill: #555555; stroke: #555555; stroke-width: 1.5"/>
      </g>
     </g>
    </g>
    <g id="xtick_11">
     <g id="line2d_17">
      <g>
       <use xlink:href="#m04f2a405ef" x="246.868099" y="281.107752" style="fill: #555555; stroke: #555555; stroke-width: 1.5"/>
      </g>
     </g>
    </g>
    <g id="xtick_12">
     <g id="line2d_18">
      <g>
       <use xlink:href="#m04f2a405ef" x="233.278099" y="281.107752" style="fill: #555555; stroke: #555555; stroke-width: 1.5"/>
      </g>
     </g>
    </g>
    <g id="xtick_13">
     <g id="line2d_19">
      <g>
       <use xlink:href="#m04f2a405ef" x="206.098099" y="281.107752" style="fill: #555555; stroke: #555555; stroke-width: 1.5"/>
      </g>
     </g>
    </g>
    <g id="xtick_14">
     <g id="line2d_20">
      <g>
       <use xlink:href="#m04f2a405ef" x="192.508099" y="281.107752" style="fill: #555555; stroke: #555555; stroke-width: 1.5"/>
      </g>
     </g>
    </g>
    <g id="xtick_15">
     <g id="line2d_21">
      <g>
       <use xlink:href="#m04f2a405ef" x="178.918099" y="281.107752" style="fill: #555555; stroke: #555555; stroke-width: 1.5"/>
      </g>
     </g>
    </g>
    <g id="xtick_16">
     <g id="line2d_22">
      <g>
       <use xlink:href="#m04f2a405ef" x="151.738099" y="281.107752" style="fill: #555555; stroke: #555555; stroke-width: 1.5"/>
      </g>
     </g>
    </g>
    <g id="xtick_17">
     <g id="line2d_23">
      <g>
       <use xlink:href="#m04f2a405ef" x="138.148099" y="281.107752" style="fill: #555555; stroke: #555555; stroke-width: 1.5"/>
      </g>
     </g>
    </g>
    <g id="xtick_18">
     <g id="line2d_24">
      <g>
       <use xlink:href="#m04f2a405ef" x="124.558099" y="281.107752" style="fill: #555555; stroke: #555555; stroke-width: 1.5"/>
      </g>
     </g>
    </g>
    <g id="xtick_19">
     <g id="line2d_25">
      <g>
       <use xlink:href="#m04f2a405ef" x="97.378099" y="281.107752" style="fill: #555555; stroke: #555555; stroke-width: 1.5"/>
      </g>
     </g>
    </g>
    <g id="xtick_20">
     <g id="line2d_26">
      <g>
       <use xlink:href="#m04f2a405ef" x="83.788099" y="281.107752" style="fill: #555555; stroke: #555555; stroke-width: 1.5"/>
      </g>
     </g>
    </g>
    <g id="xtick_21">
     <g id="line2d_27">
      <g>
       <use xlink:href="#m04f2a405ef" x="70.198099" y="281.107752" style="fill: #555555; stroke: #555555; stroke-width: 1.5"/>
      </g>
     </g>
    </g>
    <g id="text_7">
     <!-- $u$ -->
     <g style="fill: #555555" transform="translate(187.511273 324.672884)scale(0.18 -0.18)">
      <defs>
       <path id="CMMI12-75" d="M 2182 370 
C 2266 13 2573 -64 2726 -64 
C 2931 -64 3085 70 3187 287 
C 3296 517 3379 894 3379 913 
C 3379 945 3354 971 3315 971 
C 3258 971 3251 939 3226 843 
C 3110 402 2995 64 2739 64 
C 2547 64 2547 275 2547 358 
C 2547 505 2566 568 2630 837 
C 2675 1009 2720 1181 2758 1360 
L 3021 2401 
C 3066 2561 3066 2574 3066 2593 
C 3066 2689 2989 2753 2893 2753 
C 2707 2753 2662 2593 2624 2433 
C 2560 2184 2214 811 2170 588 
C 2163 588 1914 64 1446 64 
C 1114 64 1050 351 1050 588 
C 1050 952 1229 1462 1395 1890 
C 1472 2095 1504 2178 1504 2305 
C 1504 2580 1306 2816 998 2816 
C 410 2816 173 1890 173 1839 
C 173 1814 198 1782 243 1782 
C 301 1782 307 1807 333 1896 
C 486 2441 736 2682 979 2682 
C 1043 2682 1146 2682 1146 2478 
C 1146 2312 1075 2127 979 1884 
C 698 1124 666 881 666 690 
C 666 38 1158 -64 1421 -64 
C 1830 -64 2054 217 2182 370 
z
" transform="scale(0.015625)"/>
      </defs>
      <use xlink:href="#CMMI12-75" transform="scale(0.996264)"/>
     </g>
    </g>
   </g>
   <g id="matplotlib.axis_2">
    <g id="ytick_1">
     <g id="line2d_28">
      <path d="M 56.608099 9.307752 
L 328.408099 9.307752 
" clip-path="url(#p135e9aef11)" style="fill: none; stroke: #ffffff; stroke-width: 1.5; stroke-linecap: square"/>
     </g>
     <g id="line2d_29">
      <defs>
       <path id="me03b7d4926" d="M 0 0 
L -9 0 
" style="stroke: #555555; stroke-width: 1.875"/>
      </defs>
      <g>
       <use xlink:href="#me03b7d4926" x="56.608099" y="9.307752" style="fill: #555555; stroke: #555555; stroke-width: 1.875"/>
      </g>
     </g>
     <g id="text_8">
      <!-- $\mathdefault{0.0}$ -->
      <g style="fill: #555555" transform="translate(23.541364 15.015505)scale(0.165 -0.165)">
       <use xlink:href="#CMR17-30" transform="scale(0.996264)"/>
       <use xlink:href="#CMMI12-3a" transform="translate(45.690477 0)scale(0.996264)"/>
       <use xlink:href="#CMR17-30" transform="translate(72.787654 0)scale(0.996264)"/>
      </g>
     </g>
    </g>
    <g id="ytick_2">
     <g id="line2d_30">
      <path d="M 56.608099 63.667752 
L 328.408099 63.667752 
" clip-path="url(#p135e9aef11)" style="fill: none; stroke: #ffffff; stroke-width: 1.5; stroke-linecap: square"/>
     </g>
     <g id="line2d_31">
      <g>
       <use xlink:href="#me03b7d4926" x="56.608099" y="63.667752" style="fill: #555555; stroke: #555555; stroke-width: 1.875"/>
      </g>
     </g>
     <g id="text_9">
      <!-- $\mathdefault{0.2}$ -->
      <g style="fill: #555555" transform="translate(23.541364 69.375505)scale(0.165 -0.165)">
       <use xlink:href="#CMR17-30" transform="scale(0.996264)"/>
       <use xlink:href="#CMMI12-3a" transform="translate(45.690477 0)scale(0.996264)"/>
       <use xlink:href="#CMR17-32" transform="translate(72.787654 0)scale(0.996264)"/>
      </g>
     </g>
    </g>
    <g id="ytick_3">
     <g id="line2d_32">
      <path d="M 56.608099 118.027752 
L 328.408099 118.027752 
" clip-path="url(#p135e9aef11)" style="fill: none; stroke: #ffffff; stroke-width: 1.5; stroke-linecap: square"/>
     </g>
     <g id="line2d_33">
      <g>
       <use xlink:href="#me03b7d4926" x="56.608099" y="118.027752" style="fill: #555555; stroke: #555555; stroke-width: 1.875"/>
      </g>
     </g>
     <g id="text_10">
      <!-- $\mathdefault{0.4}$ -->
      <g style="fill: #555555" transform="translate(23.541364 123.735505)scale(0.165 -0.165)">
       <use xlink:href="#CMR17-30" transform="scale(0.996264)"/>
       <use xlink:href="#CMMI12-3a" transform="translate(45.690477 0)scale(0.996264)"/>
       <use xlink:href="#CMR17-34" transform="translate(72.787654 0)scale(0.996264)"/>
      </g>
     </g>
    </g>
    <g id="ytick_4">
     <g id="line2d_34">
      <path d="M 56.608099 172.387752 
L 328.408099 172.387752 
" clip-path="url(#p135e9aef11)" style="fill: none; stroke: #ffffff; stroke-width: 1.5; stroke-linecap: square"/>
     </g>
     <g id="line2d_35">
      <g>
       <use xlink:href="#me03b7d4926" x="56.608099" y="172.387752" style="fill: #555555; stroke: #555555; stroke-width: 1.875"/>
      </g>
     </g>
     <g id="text_11">
      <!-- $\mathdefault{0.6}$ -->
      <g style="fill: #555555" transform="translate(23.541364 178.095505)scale(0.165 -0.165)">
       <use xlink:href="#CMR17-30" transform="scale(0.996264)"/>
       <use xlink:href="#CMMI12-3a" transform="translate(45.690477 0)scale(0.996264)"/>
       <use xlink:href="#CMR17-36" transform="translate(72.787654 0)scale(0.996264)"/>
      </g>
     </g>
    </g>
    <g id="ytick_5">
     <g id="line2d_36">
      <path d="M 56.608099 226.747752 
L 328.408099 226.747752 
" clip-path="url(#p135e9aef11)" style="fill: none; stroke: #ffffff; stroke-width: 1.5; stroke-linecap: square"/>
     </g>
     <g id="line2d_37">
      <g>
       <use xlink:href="#me03b7d4926" x="56.608099" y="226.747752" style="fill: #555555; stroke: #555555; stroke-width: 1.875"/>
      </g>
     </g>
     <g id="text_12">
      <!-- $\mathdefault{0.8}$ -->
      <g style="fill: #555555" transform="translate(23.541364 232.455505)scale(0.165 -0.165)">
       <use xlink:href="#CMR17-30" transform="scale(0.996264)"/>
       <use xlink:href="#CMMI12-3a" transform="translate(45.690477 0)scale(0.996264)"/>
       <use xlink:href="#CMR17-38" transform="translate(72.787654 0)scale(0.996264)"/>
      </g>
     </g>
    </g>
    <g id="ytick_6">
     <g id="line2d_38">
      <path d="M 56.608099 281.107752 
L 328.408099 281.107752 
" clip-path="url(#p135e9aef11)" style="fill: none; stroke: #ffffff; stroke-width: 1.5; stroke-linecap: square"/>
     </g>
     <g id="line2d_39">
      <g>
       <use xlink:href="#me03b7d4926" x="56.608099" y="281.107752" style="fill: #555555; stroke: #555555; stroke-width: 1.875"/>
      </g>
     </g>
     <g id="text_13">
      <!-- $\mathdefault{1.0}$ -->
      <g style="fill: #555555" transform="translate(23.541364 286.815505)scale(0.165 -0.165)">
       <use xlink:href="#CMR17-31" transform="scale(0.996264)"/>
       <use xlink:href="#CMMI12-3a" transform="translate(45.690477 0)scale(0.996264)"/>
       <use xlink:href="#CMR17-30" transform="translate(72.787654 0)scale(0.996264)"/>
      </g>
     </g>
    </g>
    <g id="ytick_7">
     <g id="line2d_40">
      <defs>
       <path id="mbdd3154a14" d="M 0 0 
L -6 0 
" style="stroke: #555555; stroke-width: 1.5"/>
      </defs>
      <g>
       <use xlink:href="#mbdd3154a14" x="56.608099" y="22.897752" style="fill: #555555; stroke: #555555; stroke-width: 1.5"/>
      </g>
     </g>
    </g>
    <g id="ytick_8">
     <g id="line2d_41">
      <g>
       <use xlink:href="#mbdd3154a14" x="56.608099" y="36.487752" style="fill: #555555; stroke: #555555; stroke-width: 1.5"/>
      </g>
     </g>
    </g>
    <g id="ytick_9">
     <g id="line2d_42">
      <g>
       <use xlink:href="#mbdd3154a14" x="56.608099" y="50.077752" style="fill: #555555; stroke: #555555; stroke-width: 1.5"/>
      </g>
     </g>
    </g>
    <g id="ytick_10">
     <g id="line2d_43">
      <g>
       <use xlink:href="#mbdd3154a14" x="56.608099" y="77.257752" style="fill: #555555; stroke: #555555; stroke-width: 1.5"/>
      </g>
     </g>
    </g>
    <g id="ytick_11">
     <g id="line2d_44">
      <g>
       <use xlink:href="#mbdd3154a14" x="56.608099" y="90.847752" style="fill: #555555; stroke: #555555; stroke-width: 1.5"/>
      </g>
     </g>
    </g>
    <g id="ytick_12">
     <g id="line2d_45">
      <g>
       <use xlink:href="#mbdd3154a14" x="56.608099" y="104.437752" style="fill: #555555; stroke: #555555; stroke-width: 1.5"/>
      </g>
     </g>
    </g>
    <g id="ytick_13">
     <g id="line2d_46">
      <g>
       <use xlink:href="#mbdd3154a14" x="56.608099" y="131.617752" style="fill: #555555; stroke: #555555; stroke-width: 1.5"/>
      </g>
     </g>
    </g>
    <g id="ytick_14">
     <g id="line2d_47">
      <g>
       <use xlink:href="#mbdd3154a14" x="56.608099" y="145.207752" style="fill: #555555; stroke: #555555; stroke-width: 1.5"/>
      </g>
     </g>
    </g>
    <g id="ytick_15">
     <g id="line2d_48">
      <g>
       <use xlink:href="#mbdd3154a14" x="56.608099" y="158.797752" style="fill: #555555; stroke: #555555; stroke-width: 1.5"/>
      </g>
     </g>
    </g>
    <g id="ytick_16">
     <g id="line2d_49">
      <g>
       <use xlink:href="#mbdd3154a14" x="56.608099" y="185.977752" style="fill: #555555; stroke: #555555; stroke-width: 1.5"/>
      </g>
     </g>
    </g>
    <g id="ytick_17">
     <g id="line2d_50">
      <g>
       <use xlink:href="#mbdd3154a14" x="56.608099" y="199.567752" style="fill: #555555; stroke: #555555; stroke-width: 1.5"/>
      </g>
     </g>
    </g>
    <g id="ytick_18">
     <g id="line2d_51">
      <g>
       <use xlink:href="#mbdd3154a14" x="56.608099" y="213.157752" style="fill: #555555; stroke: #555555; stroke-width: 1.5"/>
      </g>
     </g>
    </g>
    <g id="ytick_19">
     <g id="line2d_52">
      <g>
       <use xlink:href="#mbdd3154a14" x="56.608099" y="240.337752" style="fill: #555555; stroke: #555555; stroke-width: 1.5"/>
      </g>
     </g>
    </g>
    <g id="ytick_20">
     <g id="line2d_53">
      <g>
       <use xlink:href="#mbdd3154a14" x="56.608099" y="253.927752" style="fill: #555555; stroke: #555555; stroke-width: 1.5"/>
      </g>
     </g>
    </g>
    <g id="ytick_21">
     <g id="line2d_54">
      <g>
       <use xlink:href="#mbdd3154a14" x="56.608099" y="267.517752" style="fill: #555555; stroke: #555555; stroke-width: 1.5"/>
      </g>
     </g>
    </g>
    <g id="text_14">
     <!-- $v$ -->
     <g style="fill: #555555" transform="translate(16.0533 149.452204)rotate(-90)scale(0.18 -0.18)">
      <defs>
       <path id="CMMI12-76" d="M 2925 2389 
C 2925 2791 2720 2816 2669 2816 
C 2515 2816 2374 2663 2374 2535 
C 2374 2459 2419 2414 2445 2389 
C 2509 2331 2675 2159 2675 1827 
C 2675 1558 2291 64 1523 64 
C 1133 64 1056 390 1056 626 
C 1056 945 1203 1392 1376 1852 
C 1478 2114 1504 2178 1504 2305 
C 1504 2574 1312 2816 998 2816 
C 410 2816 173 1890 173 1839 
C 173 1814 198 1782 243 1782 
C 301 1782 307 1807 333 1897 
C 486 2446 736 2689 979 2689 
C 1037 2689 1146 2689 1146 2478 
C 1146 2312 1075 2127 979 1884 
C 672 1067 672 869 672 715 
C 672 575 691 313 890 134 
C 1120 -64 1440 -64 1498 -64 
C 2560 -64 2925 2024 2925 2389 
z
" transform="scale(0.015625)"/>
      </defs>
      <use xlink:href="#CMMI12-76" transform="scale(0.996264)"/>
     </g>
    </g>
   </g>
   <g id="PathCollection_1"/>
   <g id="PathCollection_2"/>
   <g id="PathCollection_3">
    <path d="M 64.099017 278.389752 
L 64.70719 277.785078 
L 67.397735 277.788584 
L 69.496932 275.699207 
L 70.088281 275.111331 
L 72.778826 275.114811 
L 74.894979 273.008662 
L 75.469372 272.437714 
L 78.159917 272.441167 
L 80.293159 270.318116 
L 80.850463 269.764228 
L 83.541008 269.76765 
L 85.691469 267.627571 
L 86.231553 267.090869 
L 88.922099 267.09426 
L 91.089909 264.937025 
L 91.612644 264.417637 
L 94.30319 264.420993 
L 96.488475 262.24648 
L 96.993735 261.74453 
L 99.684281 261.747848 
L 101.887167 259.555934 
L 102.374826 259.071545 
L 105.065372 259.074823 
L 107.28598 256.865389 
L 107.755917 256.398679 
L 110.446463 256.401914 
L 112.684913 254.174843 
L 113.137008 253.725928 
L 115.827553 253.729117 
L 118.083961 251.484298 
L 118.518099 251.05329 
L 120.789506 248.793752 
L 121.208644 248.377683 
L 123.89919 248.38076 
L 126.188829 246.103207 
L 126.589735 245.705312 
L 129.280281 245.708332 
L 131.588257 243.412662 
L 131.970826 243.033042 
L 134.661372 243.036 
L 136.987783 240.722116 
L 137.351917 240.360867 
L 140.042463 240.363759 
L 142.387403 238.031571 
L 142.733008 237.688779 
L 145.093831 235.341025 
L 145.423553 235.014032 
L 148.114099 235.016771 
L 150.493691 232.65048 
L 150.804644 232.342175 
L 153.49519 232.344833 
L 155.893622 229.959934 
L 156.185735 229.670385 
L 158.876281 229.672956 
L 161.293615 227.269389 
L 161.566826 226.998649 
L 164.000748 224.578843 
L 164.257372 224.324584 
L 166.947917 224.326956 
L 169.400932 221.888298 
L 169.638463 221.653025 
L 172.108461 219.197752 
L 172.329008 218.979343 
L 175.019553 218.981488 
L 177.508806 216.507207 
L 177.710099 216.30793 
L 180.400644 216.309954 
L 182.909153 213.816662 
L 183.09119 213.636511 
L 185.617196 211.126116 
L 185.781735 210.963317 
L 188.472281 210.965065 
L 191.017634 208.435571 
L 191.162826 208.291971 
L 193.726046 205.745025 
L 193.853372 205.619126 
L 196.543917 205.620559 
L 199.126519 203.05448 
L 199.234463 202.947792 
L 201.83528 200.363934 
L 201.925008 200.275274 
L 204.544304 197.673389 
L 204.615553 197.603008 
L 207.306099 197.60388 
L 209.944797 194.982843 
L 209.996644 194.931654 
L 212.654135 192.292298 
L 212.68719 192.259673 
L 215.377735 192.260105 
L 218.054467 189.601752 
L 218.068281 189.588126 
L 220.758826 187.655239 
L 223.449372 187.655239 
L 226.139917 187.655239 
L 228.830463 187.655239 
L 231.521008 187.655239 
L 234.211553 187.655239 
L 236.902099 187.655239 
L 239.592644 187.655239 
L 242.28319 187.655239 
L 244.973735 187.655239 
L 247.664281 187.655239 
L 250.354826 187.655239 
L 253.045372 187.655239 
L 255.735917 187.655239 
L 258.426463 187.655239 
L 261.117008 187.655239 
L 263.807553 187.655239 
L 266.498099 187.655239 
L 269.188644 187.655239 
L 271.87919 187.655239 
L 274.569735 187.655239 
L 277.260281 187.655239 
L 279.271684 187.655239 
" clip-path="url(#p135e9aef11)" style="fill: none; stroke: #20140d; stroke-width: 2.25"/>
    <path d="M 296.773241 187.655239 
L 298.784644 187.655239 
L 301.47519 187.655239 
L 304.165735 187.655239 
L 306.856281 187.655239 
L 309.546826 187.655239 
L 312.237372 187.655239 
L 314.927917 187.655239 
L 317.618463 187.655239 
L 320.309008 187.655239 
L 322.999553 187.655239 
L 325.690099 187.655239 
" clip-path="url(#p135e9aef11)" style="fill: none; stroke: #20140d; stroke-width: 2.25"/>
   </g>
   <g id="PathCollection_4">
    <path d="M 62.953447 278.389752 
L 64.70719 276.646098 
L 67.397735 276.656208 
L 68.359234 275.699207 
L 70.088281 273.980314 
L 72.778826 273.990491 
L 73.765319 273.008662 
L 75.469372 271.314829 
L 78.078715 271.324763 
" clip-path="url(#p135e9aef11)" style="fill: none; stroke: #311f14; stroke-width: 2.25"/>
    <path d="M 94.645358 262.99018 
L 96.993735 260.655976 
L 99.684281 260.666491 
L 102.374826 257.992062 
L 105.065372 258.002646 
L 107.755917 255.328478 
L 110.446463 255.339131 
L 113.137008 252.665229 
L 115.827553 252.675953 
L 121.208644 247.328929 
L 123.89919 247.339762 
L 126.589735 244.66665 
L 129.280281 244.677553 
L 131.970826 242.004728 
L 134.661372 242.015701 
L 137.351917 239.343168 
L 140.042463 239.354211 
L 145.423553 234.010006 
L 148.114099 234.021153 
L 150.804644 231.349492 
L 153.49519 231.360708 
L 156.185735 228.689359 
L 158.876281 228.700644 
L 164.257372 223.358871 
L 166.947917 223.370252 
L 172.329008 218.02973 
L 175.019553 218.041201 
L 177.710099 215.371429 
L 180.400644 215.382963 
L 185.781735 210.04442 
L 188.472281 210.056031 
L 193.853372 204.718843 
L 196.543917 204.73052 
L 204.615553 196.727362 
L 207.306099 196.739082 
L 212.68719 191.405443 
L 215.377735 191.417185 
L 223.449372 183.419494 
L 226.139917 183.43119 
L 239.592644 170.10934 
L 242.28319 170.120718 
L 282.435177 130.409752 
L 282.461969 127.719207 
L 288.022463 122.229623 
L 293.357546 116.957025 
L 293.403553 114.253274 
L 296.094099 113.185617 
L 325.690099 113.185617 
L 325.690099 113.185617 
" clip-path="url(#p135e9aef11)" style="fill: none; stroke: #311f14; stroke-width: 2.25"/>
   </g>
   <g id="PathCollection_5">
    <path d="M 95.240259 12.025752 
L 95.240259 14.716298 
L 95.240259 17.406843 
L 95.240259 20.097389 
L 95.240259 22.787934 
L 95.240259 25.47848 
L 95.240259 28.169025 
L 95.240259 29.037668 
" clip-path="url(#p135e9aef11)" style="fill: none; stroke: #41291a; stroke-width: 2.25"/>
    <path d="M 95.240259 64.968018 
L 95.240259 259.555934 
L 99.713626 259.555934 
L 102.374826 256.912579 
L 105.130781 256.865389 
L 107.755917 254.258277 
L 110.548487 254.174843 
L 113.137008 251.604531 
L 115.827553 251.622788 
L 121.208644 246.280175 
L 123.89919 246.298764 
L 126.589735 243.627988 
L 129.280281 243.646774 
L 131.970826 240.976414 
L 134.661372 240.995401 
L 137.351917 238.325469 
L 140.042463 238.344662 
L 145.423553 233.00598 
L 148.114099 233.025536 
L 150.804644 230.356809 
L 153.49519 230.376583 
L 156.185735 227.708334 
L 158.876281 227.728332 
L 164.257372 222.393158 
L 166.947917 222.413549 
L 172.329008 217.080118 
L 175.019553 217.100915 
L 177.710099 214.434927 
L 180.400644 214.455973 
L 185.781735 209.125522 
L 188.472281 209.146998 
L 193.853372 203.81856 
L 196.543917 203.840482 
L 204.615553 195.851717 
L 207.306099 195.874285 
L 212.68719 190.551213 
L 215.377735 190.574264 
L 223.449372 182.594125 
L 226.139917 182.61787 
L 239.592644 169.33007 
L 242.28319 169.354913 
L 268.131306 143.86248 
L 281.803366 130.409752 
L 281.823344 127.719207 
L 290.713008 118.999232 
L 292.778752 116.957025 
L 292.803928 114.26648 
L 298.287628 108.885389 
L 298.316829 106.194843 
L 301.47519 103.11139 
L 303.804076 100.813752 
L 303.837907 98.123207 
L 306.582487 95.432662 
L 306.620424 92.742116 
L 309.546826 89.88336 
L 312.108852 87.361025 
L 312.237372 84.592641 
L 314.89412 81.979934 
L 314.927917 80.100786 
L 325.690099 80.100786 
L 325.690099 80.100786 
" clip-path="url(#p135e9aef11)" style="fill: none; stroke: #41291a; stroke-width: 2.25"/>
   </g>
   <g id="PathCollection_6">
    <path d="M 205.15534 12.025752 
L 205.15534 14.716298 
L 205.15534 17.406843 
L 205.15534 20.097389 
L 205.15534 22.787934 
L 205.15534 25.47848 
L 205.15534 28.169025 
L 205.15534 29.037668 
" clip-path="url(#p135e9aef11)" style="fill: none; stroke: #533421; stroke-width: 2.25"/>
    <path d="M 205.15534 64.968018 
L 205.15534 194.982843 
L 207.332923 194.982843 
L 212.68719 189.696983 
L 215.377735 189.731344 
L 223.449372 181.768757 
L 226.139917 181.80455 
L 239.592644 168.550801 
L 242.28319 168.589107 
L 259.216461 151.934116 
L 281.171554 130.409752 
L 281.184719 127.719207 
L 292.199958 116.957025 
L 292.21808 114.26648 
L 297.737637 108.885389 
L 297.759516 106.194843 
L 303.288169 100.813752 
L 303.314505 98.123207 
L 306.082501 95.432662 
L 306.112589 92.742116 
L 309.546826 89.436514 
L 311.654975 87.361025 
L 311.690811 84.67048 
L 314.464124 81.979934 
L 314.550216 76.598843 
L 314.927917 76.258914 
L 317.324762 73.908298 
L 317.376562 71.217752 
L 317.618463 71.004964 
L 320.148113 68.527207 
L 320.309008 63.116306 
L 322.999553 61.898747 
L 325.690099 61.898747 
L 325.690099 61.898747 
" clip-path="url(#p135e9aef11)" style="fill: none; stroke: #533421; stroke-width: 2.25"/>
   </g>
   <g id="PathCollection_7">
    <path d="M 255.192328 12.025752 
L 255.192328 14.716298 
L 255.192328 17.406843 
L 255.192328 20.097389 
L 255.192328 22.787934 
L 255.192328 25.47848 
L 255.192328 28.169025 
L 255.192328 29.037668 
" clip-path="url(#p135e9aef11)" style="fill: none; stroke: #633e28; stroke-width: 2.25"/>
    <path d="M 255.192328 64.968018 
L 255.192328 65.836662 
L 255.192328 68.527207 
L 255.192328 71.217752 
L 255.192328 73.908298 
L 255.192328 76.598843 
L 255.192328 79.289389 
L 255.192328 81.979934 
L 255.192328 84.67048 
L 255.192328 87.361025 
L 255.192328 90.051571 
L 255.192328 92.742116 
L 255.192328 95.432662 
L 255.192328 98.123207 
L 255.192328 100.813752 
L 255.192328 103.504298 
L 255.192328 106.194843 
L 255.192328 108.885389 
L 255.192328 111.575934 
L 255.192328 114.26648 
L 255.192328 116.957025 
L 255.192328 119.647571 
L 255.192328 122.338116 
L 255.192328 125.028662 
L 255.192328 127.719207 
L 255.192328 130.409752 
L 255.192328 133.100298 
L 255.192328 135.790843 
L 255.192328 138.481389 
L 255.192328 141.171934 
L 255.192328 143.86248 
L 255.192328 146.553025 
L 255.192328 149.243571 
L 255.192328 151.934116 
L 255.192328 154.624662 
L 255.735917 154.635789 
L 255.747141 154.624662 
L 258.426463 152.002264 
L 258.495212 151.934116 
L 261.117008 149.370201 
L 261.244778 149.243571 
L 263.807553 146.739666 
L 263.995907 146.553025 
L 266.498099 144.110728 
L 266.74867 143.86248 
L 269.188644 141.483459 
L 269.50314 141.171934 
L 271.87919 138.857937 
L 272.259398 138.481389 
L 274.569735 136.234242 
L 275.017524 135.790843 
L 277.260281 133.612461 
L 277.777609 133.100298 
L 279.950826 130.992686 
L 280.539742 130.409752 
L 280.546093 127.719207 
L 282.641372 125.691313 
L 283.311299 125.028662 
L 285.331917 123.076754 
L 286.078806 122.338116 
L 288.022463 120.464555 
L 288.848723 119.647571 
L 290.713008 117.854833 
L 291.621164 116.957025 
L 291.632232 114.26648 
L 293.403553 112.568631 
L 294.408529 111.575934 
L 296.094099 109.965402 
L 297.187645 108.885389 
L 297.202203 106.194843 
L 298.784644 104.689363 
L 299.985677 103.504298 
L 301.47519 102.093421 
L 302.772262 100.813752 
L 302.791104 98.123207 
L 304.165735 96.82901 
L 305.582515 95.432662 
L 305.604755 92.742116 
L 306.856281 91.572558 
L 308.401248 90.051571 
L 309.546826 88.989668 
L 311.201097 87.361025 
L 311.229218 84.67048 
L 312.237372 83.746905 
L 314.034128 81.979934 
L 314.067035 79.289389 
L 314.103595 76.598843 
L 314.927917 75.856958 
L 316.914901 73.908298 
L 316.957843 71.217752 
L 317.618463 70.636636 
L 319.772071 68.527207 
L 319.822044 65.836662 
L 319.879059 63.146116 
L 320.309008 62.782272 
L 322.692675 60.455571 
L 322.758434 57.765025 
L 322.835244 55.07448 
L 322.999553 54.944621 
L 325.632575 52.383934 
L 325.690099 50.558671 
" clip-path="url(#p135e9aef11)" style="fill: none; stroke: #633e28; stroke-width: 2.25"/>
   </g>
   <g id="PathCollection_8">
    <path d="M 281.255659 12.025752 
L 281.255659 14.716298 
L 281.255659 17.406843 
L 281.255659 20.097389 
L 281.255659 22.787934 
L 281.255659 25.47848 
L 281.255659 28.169025 
L 281.255659 29.037668 
" clip-path="url(#p135e9aef11)" style="fill: none; stroke: #74492f; stroke-width: 2.25"/>
    <path d="M 281.255659 64.968018 
L 281.255659 65.836662 
L 281.255659 68.527207 
L 281.255659 71.217752 
L 281.255659 73.908298 
L 281.255659 76.598843 
L 281.255659 79.289389 
L 281.255659 81.979934 
L 281.255659 84.67048 
L 281.255659 87.361025 
L 281.255659 90.051571 
L 281.255659 92.742116 
L 281.255659 95.432662 
L 281.255659 98.123207 
L 281.255659 100.813752 
L 281.255659 103.504298 
L 281.255659 106.194843 
L 281.255659 108.885389 
L 281.255659 111.575934 
L 281.255659 114.26648 
L 281.255659 116.957025 
L 281.255659 119.647571 
L 281.255659 122.338116 
L 281.255659 125.028662 
L 282.641372 125.073226 
L 282.686426 125.028662 
L 285.331917 122.473129 
L 285.468438 122.338116 
L 288.022463 119.876199 
L 288.253687 119.647571 
L 290.713008 117.282634 
L 291.042369 116.957025 
L 291.046383 114.26648 
L 293.403553 112.007084 
L 293.840036 111.575934 
L 296.094099 109.422217 
L 296.637654 108.885389 
L 296.644889 106.194843 
L 298.784644 104.159154 
L 299.448324 103.504298 
L 301.47519 101.584436 
L 302.256355 100.813752 
L 302.267703 98.123207 
L 304.165735 96.336234 
L 305.082529 95.432662 
L 305.096921 92.742116 
L 306.856281 91.097984 
L 307.919192 90.051571 
L 309.546826 88.542822 
L 310.74722 87.361025 
L 310.767625 84.67048 
L 312.237372 83.324037 
L 313.604132 81.979934 
L 313.629164 79.289389 
L 313.656974 76.598843 
L 314.927917 75.455002 
L 316.50504 73.908298 
L 316.539124 71.217752 
L 317.618463 70.268308 
L 319.396029 68.527207 
L 319.437276 65.836662 
L 319.484336 63.146116 
L 320.309008 62.448238 
L 322.350463 60.455571 
L 322.406781 57.765025 
L 322.472564 55.07448 
L 322.999553 54.657984 
L 325.337841 52.383934 
L 325.413931 49.693389 
L 325.505577 47.002843 
L 325.618226 44.312298 
L 325.690099 42.914967 
" clip-path="url(#p135e9aef11)" style="fill: none; stroke: #74492f; stroke-width: 2.25"/>
   </g>
   <g id="PathCollection_9">
    <path d="M 296.221694 12.025752 
L 296.221694 14.716298 
L 296.221694 17.406843 
L 296.221694 20.097389 
L 296.221694 22.787934 
L 296.221694 25.47848 
L 296.221694 28.169025 
L 296.221694 30.859571 
L 296.221694 33.550116 
L 296.221694 36.240662 
L 296.221694 38.931207 
L 296.221694 41.621752 
L 296.221694 44.312298 
L 296.221694 47.002843 
L 296.221694 49.693389 
L 296.221694 52.383934 
L 296.221694 55.07448 
L 296.221694 57.765025 
L 296.221694 60.455571 
L 296.221694 63.146116 
L 296.221694 65.836662 
L 296.221694 68.527207 
L 296.221694 71.217752 
L 296.221694 73.908298 
L 296.221694 76.598843 
L 296.221694 79.289389 
L 296.221694 81.979934 
L 296.221694 84.67048 
L 296.221694 87.361025 
L 296.221694 90.051571 
L 296.221694 92.742116 
L 296.221694 95.432662 
L 296.221694 98.123207 
L 296.221694 100.182366 
" clip-path="url(#p135e9aef11)" style="fill: none; stroke: #845435; stroke-width: 2.25"/>
    <path d="M 308.511425 89.055749 
L 309.546826 88.095976 
L 310.293342 87.361025 
L 310.306032 84.67048 
L 312.237372 82.901169 
L 313.174136 81.979934 
L 313.191293 79.289389 
L 313.210353 76.598843 
L 314.927917 75.053046 
L 316.095179 73.908298 
L 316.120405 71.217752 
L 317.618463 69.899981 
L 319.019987 68.527207 
L 319.052508 65.836662 
L 319.089613 63.146116 
L 320.309008 62.114205 
L 322.008251 60.455571 
L 322.055129 57.765025 
L 322.109884 55.07448 
L 322.999553 54.371346 
L 325.043106 52.383934 
L 325.109605 49.693389 
L 325.1897 47.002843 
L 325.28815 44.312298 
L 325.412249 41.621752 
L 325.690099 41.439666 
" clip-path="url(#p135e9aef11)" style="fill: none; stroke: #845435; stroke-width: 2.25"/>
   </g>
   <g id="PathCollection_10">
    <path d="M 305.371189 12.025752 
L 305.371189 14.716298 
L 305.371189 17.406843 
L 305.371189 20.097389 
L 305.371189 22.787934 
L 305.371189 25.47848 
L 305.371189 28.169025 
L 305.371189 29.037668 
" clip-path="url(#p135e9aef11)" style="fill: none; stroke: #955f3c; stroke-width: 2.25"/>
    <path d="M 305.371189 64.968018 
L 305.371189 65.836662 
L 305.371189 68.527207 
L 305.371189 71.217752 
L 305.371189 73.908298 
L 305.371189 76.598843 
L 305.371189 79.289389 
L 305.371189 81.979934 
L 305.371189 84.67048 
L 305.371189 87.361025 
L 305.371189 90.051571 
L 306.856281 90.148836 
L 306.955079 90.051571 
L 309.546826 87.64913 
L 309.839465 87.361025 
L 309.844439 84.67048 
L 312.237372 82.478302 
L 312.74414 81.979934 
L 312.753421 79.289389 
L 312.763733 76.598843 
L 314.927917 74.65109 
L 315.685317 73.908298 
L 315.701686 71.217752 
L 317.618463 69.531653 
L 318.643945 68.527207 
L 318.667741 65.836662 
L 318.694889 63.146116 
L 320.309008 61.780171 
L 321.666039 60.455571 
L 321.703476 57.765025 
L 321.747204 55.07448 
L 322.999553 54.084709 
L 324.748372 52.383934 
L 324.80528 49.693389 
L 324.873823 47.002843 
L 324.958074 44.312298 
L 325.064274 41.621752 
L 325.690099 41.211624 
" clip-path="url(#p135e9aef11)" style="fill: none; stroke: #955f3c; stroke-width: 2.25"/>
   </g>
   <g id="PathCollection_11">
    <path d="M 311.337439 12.025752 
L 311.337439 14.716298 
L 311.337439 17.406843 
L 311.337439 20.097389 
L 311.337439 22.787934 
L 311.337439 25.47848 
L 311.337439 28.169025 
L 311.337439 30.859571 
L 311.337439 33.550116 
L 311.337439 36.240662 
L 311.337439 38.931207 
L 311.337439 41.621752 
L 311.337439 44.312298 
L 311.337439 47.002843 
L 311.337439 49.693389 
L 311.337439 52.383934 
L 311.337439 55.07448 
L 311.337439 57.765025 
L 311.337439 60.455571 
L 311.337439 63.146116 
L 311.337439 65.836662 
L 311.337439 68.527207 
L 311.337439 71.217752 
L 311.337439 73.908298 
L 311.337439 76.598843 
L 311.337439 79.289389 
L 311.337439 81.979934 
L 312.237372 82.055434 
L 312.314144 81.979934 
L 312.31555 79.289389 
L 312.317112 76.598843 
L 314.927917 74.249134 
L 315.275456 73.908298 
L 315.282967 71.217752 
L 315.675875 70.87213 
" clip-path="url(#p135e9aef11)" style="fill: none; stroke: #a66943; stroke-width: 2.25"/>
    <path d="M 324.566817 46.662126 
L 324.627997 44.312298 
L 324.7163 41.621752 
L 325.690099 40.983583 
" clip-path="url(#p135e9aef11)" style="fill: none; stroke: #a66943; stroke-width: 2.25"/>
   </g>
   <g id="PathCollection_12">
    <path d="M 315.393298 35.372018 
L 315.393298 36.240662 
L 315.393298 38.931207 
L 315.393298 41.621752 
L 315.393298 44.312298 
L 315.393298 47.002843 
L 315.393298 49.693389 
L 315.393298 52.383934 
L 315.393298 55.07448 
L 315.393298 57.765025 
L 315.393298 60.455571 
L 315.393298 63.146116 
L 315.393298 65.836662 
L 315.393298 68.527207 
L 317.618463 68.794997 
L 317.891861 68.527207 
L 317.898205 65.836662 
L 317.905443 63.146116 
L 320.309008 61.112103 
L 320.981615 60.455571 
L 321.00017 57.765025 
L 321.021844 55.07448 
L 322.999553 53.511434 
L 324.158903 52.383934 
L 324.196629 49.693389 
L 324.242069 47.002843 
L 324.297921 44.312298 
L 324.368325 41.621752 
L 325.690099 40.755541 
" clip-path="url(#p135e9aef11)" style="fill: none; stroke: #b7744a; stroke-width: 2.25"/>
   </g>
   <g id="PathCollection_13">
    <path d="M 318.211476 12.025752 
L 318.211476 14.716298 
L 318.211476 17.406843 
L 318.211476 20.097389 
L 318.211476 22.787934 
L 318.211476 25.47848 
L 318.211476 28.169025 
L 318.211476 29.037668 
" clip-path="url(#p135e9aef11)" style="fill: none; stroke: #c77e50; stroke-width: 2.25"/>
    <path d="M 320.394436 60.694683 
L 320.639403 60.455571 
L 320.648518 57.765025 
L 320.659164 55.07448 
L 322.999553 53.224796 
L 323.864169 52.383934 
L 323.892304 49.693389 
L 323.926191 47.002843 
L 323.967845 44.312298 
L 324.02035 41.621752 
L 325.690099 40.527499 
" clip-path="url(#p135e9aef11)" style="fill: none; stroke: #c77e50; stroke-width: 2.25"/>
   </g>
   <g id="PathCollection_14">
    <path d="M 320.356216 12.025752 
L 320.356216 14.716298 
L 320.356216 17.406843 
L 320.356216 20.097389 
L 320.356216 22.787934 
L 320.356216 23.656578 
" clip-path="url(#p135e9aef11)" style="fill: none; stroke: #d88957; stroke-width: 2.25"/>
    <path d="M 323.572559 51.930521 
L 323.587978 49.693389 
L 323.610314 47.002843 
L 323.637769 44.312298 
L 323.672376 41.621752 
L 325.690099 40.299457 
" clip-path="url(#p135e9aef11)" style="fill: none; stroke: #d88957; stroke-width: 2.25"/>
   </g>
   <g id="PathCollection_15">
    <path d="M 321.723314 12.025752 
L 321.723314 14.716298 
L 321.723314 17.406843 
L 321.723314 20.097389 
L 321.723314 22.787934 
L 321.723314 23.656578 
" clip-path="url(#p135e9aef11)" style="fill: none; stroke: #e8935e; stroke-width: 2.25"/>
    <path d="M 323.288678 48.439814 
L 323.294437 47.002843 
L 323.307692 44.312298 
L 323.324401 41.621752 
L 325.690099 40.071416 
" clip-path="url(#p135e9aef11)" style="fill: none; stroke: #e8935e; stroke-width: 2.25"/>
   </g>
   <g id="PathCollection_16">
    <path d="M 323.043527 12.025752 
L 323.043527 14.716298 
L 323.043527 17.406843 
L 323.043527 20.097389 
L 323.043527 22.787934 
L 323.043527 25.47848 
L 323.043527 28.169025 
L 323.043527 30.859571 
L 323.043527 33.550116 
L 323.043527 36.240662 
L 323.043527 38.931207 
L 325.690099 39.843374 
" clip-path="url(#p135e9aef11)" style="fill: none; stroke: #fa9e64; stroke-width: 2.25"/>
   </g>
   <g id="PathCollection_17">
    <path d="M 323.70517 12.025752 
L 323.70517 14.716298 
L 323.70517 17.406843 
L 323.70517 20.097389 
L 323.70517 22.787934 
L 323.70517 25.47848 
L 323.70517 28.169025 
L 323.70517 30.859571 
L 323.70517 33.550116 
L 323.70517 36.240662 
L 323.70517 38.931207 
L 325.690099 39.615332 
" clip-path="url(#p135e9aef11)" style="fill: none; stroke: #ffa86b; stroke-width: 2.25"/>
   </g>
   <g id="PathCollection_18">
    <path d="M 324.366813 12.025752 
L 324.366813 14.716298 
L 324.366813 17.406843 
L 324.366813 20.097389 
L 324.366813 22.787934 
L 324.366813 25.47848 
L 324.366813 28.169025 
L 324.366813 30.859571 
L 324.366813 33.550116 
L 324.366813 36.240662 
L 324.366813 38.931207 
L 325.690099 39.38729 
" clip-path="url(#p135e9aef11)" style="fill: none; stroke: #ffb372; stroke-width: 2.25"/>
   </g>
   <g id="PathCollection_19">
    <path d="M 325.028456 12.025752 
L 325.028456 14.716298 
L 325.028456 17.406843 
L 325.028456 20.097389 
L 325.028456 22.787934 
L 325.028456 25.47848 
L 325.028456 28.169025 
L 325.028456 30.859571 
L 325.028456 33.550116 
L 325.028456 36.240662 
L 325.028456 38.931207 
L 325.690099 39.159249 
" clip-path="url(#p135e9aef11)" style="fill: none; stroke: #ffbd78; stroke-width: 2.25"/>
   </g>
   <g id="PathCollection_20"/>
   <g id="patch_3">
    <path d="M 56.608099 281.107752 
L 56.608099 9.307752 
" style="fill: none; stroke: #ffffff; stroke-width: 1.875; stroke-linejoin: miter; stroke-linecap: square"/>
   </g>
   <g id="patch_4">
    <path d="M 56.608099 281.107752 
L 328.408099 281.107752 
" style="fill: none; stroke: #ffffff; stroke-width: 1.875; stroke-linejoin: miter; stroke-linecap: square"/>
   </g>
   <g id="text_15">
    <!-- $\mathdefault{0.343}$ -->
    <g transform="translate(274.690651 190.644031)scale(0.12 -0.12)">
     <defs>
      <path id="CMR17-33" d="M 1414 2157 
C 1984 2157 2234 1662 2234 1090 
C 2234 320 1824 25 1453 25 
C 1114 25 563 194 390 693 
C 422 680 454 680 486 680 
C 640 680 755 782 755 948 
C 755 1133 614 1216 486 1216 
C 378 1216 211 1165 211 926 
C 211 335 787 -128 1466 -128 
C 2176 -128 2720 430 2720 1085 
C 2720 1707 2208 2157 1600 2227 
C 2086 2328 2554 2756 2554 3329 
C 2554 3820 2048 4179 1472 4179 
C 890 4179 378 3829 378 3329 
C 378 3110 544 3072 627 3072 
C 762 3072 877 3155 877 3321 
C 877 3486 762 3569 627 3569 
C 602 3569 570 3569 544 3557 
C 730 3959 1235 4032 1459 4032 
C 1683 4032 2106 3925 2106 3320 
C 2106 3143 2080 2828 1862 2550 
C 1670 2304 1453 2304 1242 2284 
C 1210 2284 1062 2269 1037 2269 
C 992 2263 966 2257 966 2208 
C 966 2163 973 2157 1101 2157 
L 1414 2157 
z
" transform="scale(0.015625)"/>
     </defs>
     <use xlink:href="#CMR17-30" transform="scale(0.996264)"/>
     <use xlink:href="#CMMI12-3a" transform="translate(45.690477 0)scale(0.996264)"/>
     <use xlink:href="#CMR17-33" transform="translate(72.787654 0)scale(0.996264)"/>
     <use xlink:href="#CMR17-34" transform="translate(118.478131 0)scale(0.996264)"/>
     <use xlink:href="#CMR17-33" transform="translate(164.168608 0)scale(0.996264)"/>
    </g>
   </g>
   <g id="text_16">
    <!-- $\mathdefault{0.514}$ -->
    <g transform="translate(73.964358 272.000252)rotate(-13.486067)scale(0.12 -0.12)">
     <defs>
      <path id="CMR17-35" d="M 730 3692 
C 794 3666 1056 3584 1325 3584 
C 1920 3584 2246 3911 2432 4100 
C 2432 4157 2432 4192 2394 4192 
C 2387 4192 2374 4192 2323 4163 
C 2099 4058 1837 3973 1517 3973 
C 1325 3973 1037 3999 723 4139 
C 653 4171 640 4171 634 4171 
C 602 4171 595 4164 595 4037 
L 595 2203 
C 595 2089 595 2057 659 2057 
C 691 2057 704 2070 736 2114 
C 941 2401 1222 2522 1542 2522 
C 1766 2522 2246 2382 2246 1289 
C 2246 1085 2246 715 2054 421 
C 1894 159 1645 25 1370 25 
C 947 25 518 320 403 814 
C 429 807 480 795 506 795 
C 589 795 749 840 749 1038 
C 749 1210 627 1280 506 1280 
C 358 1280 262 1190 262 1011 
C 262 454 704 -128 1382 -128 
C 2042 -128 2669 440 2669 1264 
C 2669 2030 2170 2624 1549 2624 
C 1222 2624 947 2503 730 2274 
L 730 3692 
z
" transform="scale(0.015625)"/>
     </defs>
     <use xlink:href="#CMR17-30" transform="scale(0.996264)"/>
     <use xlink:href="#CMMI12-3a" transform="translate(45.690477 0)scale(0.996264)"/>
     <use xlink:href="#CMR17-35" transform="translate(72.787654 0)scale(0.996264)"/>
     <use xlink:href="#CMR17-31" transform="translate(118.478131 0)scale(0.996264)"/>
     <use xlink:href="#CMR17-34" transform="translate(164.168608 0)scale(0.996264)"/>
    </g>
   </g>
   <g id="text_17">
    <!-- $\mathdefault{0.686}$ -->
    <g transform="translate(92.251467 33.671032)rotate(-270)scale(0.12 -0.12)">
     <use xlink:href="#CMR17-30" transform="scale(0.996264)"/>
     <use xlink:href="#CMMI12-3a" transform="translate(45.690477 0)scale(0.996264)"/>
     <use xlink:href="#CMR17-36" transform="translate(72.787654 0)scale(0.996264)"/>
     <use xlink:href="#CMR17-38" transform="translate(118.478131 0)scale(0.996264)"/>
     <use xlink:href="#CMR17-36" transform="translate(164.168608 0)scale(0.996264)"/>
    </g>
   </g>
   <g id="text_18">
    <!-- $\mathdefault{0.857}$ -->
    <g transform="translate(202.166548 33.671032)rotate(-270)scale(0.12 -0.12)">
     <defs>
      <path id="CMR17-37" d="M 2886 3941 
L 2886 4081 
L 1382 4081 
C 634 4081 621 4165 595 4288 
L 480 4288 
L 294 3094 
L 410 3094 
C 429 3215 474 3540 550 3661 
C 589 3712 1062 3712 1171 3712 
L 2579 3712 
L 1869 2661 
C 1395 1954 1069 999 1069 165 
C 1069 89 1069 -128 1299 -128 
C 1530 -128 1530 89 1530 171 
L 1530 465 
C 1530 1508 1709 2196 2003 2636 
L 2886 3941 
z
" transform="scale(0.015625)"/>
     </defs>
     <use xlink:href="#CMR17-30" transform="scale(0.996264)"/>
     <use xlink:href="#CMMI12-3a" transform="translate(45.690477 0)scale(0.996264)"/>
     <use xlink:href="#CMR17-38" transform="translate(72.787654 0)scale(0.996264)"/>
     <use xlink:href="#CMR17-35" transform="translate(118.478131 0)scale(0.996264)"/>
     <use xlink:href="#CMR17-37" transform="translate(164.168608 0)scale(0.996264)"/>
    </g>
   </g>
   <g id="text_19">
    <!-- $\mathdefault{1.029}$ -->
    <g transform="translate(252.203536 33.671032)rotate(-270)scale(0.12 -0.12)">
     <defs>
      <path id="CMR17-39" d="M 2253 1864 
C 2253 464 1670 31 1190 31 
C 1043 31 685 31 538 294 
C 704 268 826 357 826 518 
C 826 692 685 749 595 749 
C 538 749 365 723 365 506 
C 365 71 742 -128 1203 -128 
C 1939 -128 2688 674 2688 2073 
C 2688 3817 1971 4179 1485 4179 
C 851 4179 243 3628 243 2778 
C 243 1991 762 1408 1414 1408 
C 1952 1408 2189 1903 2253 2112 
L 2253 1864 
z
M 1427 1510 
C 1254 1510 1011 1542 813 1922 
C 678 2169 678 2461 678 2771 
C 678 3146 678 3405 858 3684 
C 947 3817 1114 4032 1485 4032 
C 2240 4032 2240 2885 2240 2632 
C 2240 2182 2035 1510 1427 1510 
z
" transform="scale(0.015625)"/>
     </defs>
     <use xlink:href="#CMR17-31" transform="scale(0.996264)"/>
     <use xlink:href="#CMMI12-3a" transform="translate(45.690477 0)scale(0.996264)"/>
     <use xlink:href="#CMR17-30" transform="translate(72.787654 0)scale(0.996264)"/>
     <use xlink:href="#CMR17-32" transform="translate(118.478131 0)scale(0.996264)"/>
     <use xlink:href="#CMR17-39" transform="translate(164.168608 0)scale(0.996264)"/>
    </g>
   </g>
   <g id="text_20">
    <!-- $\mathdefault{1.200}$ -->
    <g transform="translate(278.266867 33.671032)rotate(-270)scale(0.12 -0.12)">
     <use xlink:href="#CMR17-31" transform="scale(0.996264)"/>
     <use xlink:href="#CMMI12-3a" transform="translate(45.690477 0)scale(0.996264)"/>
     <use xlink:href="#CMR17-32" transform="translate(72.787654 0)scale(0.996264)"/>
     <use xlink:href="#CMR17-30" transform="translate(118.478131 0)scale(0.996264)"/>
     <use xlink:href="#CMR17-30" transform="translate(164.168608 0)scale(0.996264)"/>
    </g>
   </g>
   <g id="text_21">
    <!-- $\mathdefault{1.372}$ -->
    <g transform="translate(292.180076 107.880034)rotate(-32.935204)scale(0.12 -0.12)">
     <use xlink:href="#CMR17-31" transform="scale(0.996264)"/>
     <use xlink:href="#CMMI12-3a" transform="translate(45.690477 0)scale(0.996264)"/>
     <use xlink:href="#CMR17-33" transform="translate(72.787654 0)scale(0.996264)"/>
     <use xlink:href="#CMR17-37" transform="translate(118.478131 0)scale(0.996264)"/>
     <use xlink:href="#CMR17-32" transform="translate(164.168608 0)scale(0.996264)"/>
    </g>
   </g>
   <g id="text_22">
    <!-- $\mathdefault{1.543}$ -->
    <g transform="translate(302.382397 33.671032)rotate(-270)scale(0.12 -0.12)">
     <use xlink:href="#CMR17-31" transform="scale(0.996264)"/>
     <use xlink:href="#CMMI12-3a" transform="translate(45.690477 0)scale(0.996264)"/>
     <use xlink:href="#CMR17-35" transform="translate(72.787654 0)scale(0.996264)"/>
     <use xlink:href="#CMR17-34" transform="translate(118.478131 0)scale(0.996264)"/>
     <use xlink:href="#CMR17-33" transform="translate(164.168608 0)scale(0.996264)"/>
    </g>
   </g>
   <g id="text_23">
    <!-- $\mathdefault{1.715}$ -->
    <g transform="translate(315.475693 72.803421)rotate(-52.021108)scale(0.12 -0.12)">
     <use xlink:href="#CMR17-31" transform="scale(0.996264)"/>
     <use xlink:href="#CMMI12-3a" transform="translate(45.690477 0)scale(0.996264)"/>
     <use xlink:href="#CMR17-37" transform="translate(72.787654 0)scale(0.996264)"/>
     <use xlink:href="#CMR17-31" transform="translate(118.478131 0)scale(0.996264)"/>
     <use xlink:href="#CMR17-35" transform="translate(164.168608 0)scale(0.996264)"/>
    </g>
   </g>
   <g id="text_24">
    <!-- $\mathdefault{1.886}$ -->
    <g transform="translate(312.404506 4.075032)rotate(-270)scale(0.12 -0.12)">
     <use xlink:href="#CMR17-31" transform="scale(0.996264)"/>
     <use xlink:href="#CMMI12-3a" transform="translate(45.690477 0)scale(0.996264)"/>
     <use xlink:href="#CMR17-38" transform="translate(72.787654 0)scale(0.996264)"/>
     <use xlink:href="#CMR17-38" transform="translate(118.478131 0)scale(0.996264)"/>
     <use xlink:href="#CMR17-36" transform="translate(164.168608 0)scale(0.996264)"/>
    </g>
   </g>
   <g id="text_25">
    <!-- $\mathdefault{2.058}$ -->
    <g transform="translate(315.222684 33.671032)rotate(-270)scale(0.12 -0.12)">
     <use xlink:href="#CMR17-32" transform="scale(0.996264)"/>
     <use xlink:href="#CMMI12-3a" transform="translate(45.690477 0)scale(0.996264)"/>
     <use xlink:href="#CMR17-30" transform="translate(72.787654 0)scale(0.996264)"/>
     <use xlink:href="#CMR17-35" transform="translate(118.478131 0)scale(0.996264)"/>
     <use xlink:href="#CMR17-38" transform="translate(164.168608 0)scale(0.996264)"/>
    </g>
   </g>
   <g id="text_26">
    <!-- $\mathdefault{2.229}$ -->
    <g transform="translate(316.117167 28.633276)rotate(-275.439198)scale(0.12 -0.12)">
     <use xlink:href="#CMR17-32" transform="scale(0.996264)"/>
     <use xlink:href="#CMMI12-3a" transform="translate(45.690477 0)scale(0.996264)"/>
     <use xlink:href="#CMR17-32" transform="translate(72.787654 0)scale(0.996264)"/>
     <use xlink:href="#CMR17-32" transform="translate(118.478131 0)scale(0.996264)"/>
     <use xlink:href="#CMR17-39" transform="translate(164.168608 0)scale(0.996264)"/>
    </g>
   </g>
   <g id="text_27">
    <!-- $\mathdefault{2.400}$ -->
    <g transform="translate(317.484265 28.633276)rotate(-275.439198)scale(0.12 -0.12)">
     <use xlink:href="#CMR17-32" transform="scale(0.996264)"/>
     <use xlink:href="#CMMI12-3a" transform="translate(45.690477 0)scale(0.996264)"/>
     <use xlink:href="#CMR17-34" transform="translate(72.787654 0)scale(0.996264)"/>
     <use xlink:href="#CMR17-30" transform="translate(118.478131 0)scale(0.996264)"/>
     <use xlink:href="#CMR17-30" transform="translate(164.168608 0)scale(0.996264)"/>
    </g>
   </g>
  </g>
 </g>
 <defs>
  <clipPath id="p135e9aef11">
   <rect x="56.608099" y="9.307752" width="271.8" height="271.8"/>
  </clipPath>
 </defs>
</svg>
