<?xml version="1.0" encoding="utf-8" standalone="no"?>
<!DOCTYPE svg PUBLIC "-//W3C//DTD SVG 1.1//EN"
  "http://www.w3.org/Graphics/SVG/1.1/DTD/svg11.dtd">
<svg xmlns:xlink="http://www.w3.org/1999/xlink" width="347.571464pt" height="333.817556pt" viewBox="0 0 347.571464 333.817556" xmlns="http://www.w3.org/2000/svg" version="1.1">
 <metadata>
  <rdf:RDF xmlns:dc="http://purl.org/dc/elements/1.1/" xmlns:cc="http://creativecommons.org/ns#" xmlns:rdf="http://www.w3.org/1999/02/22-rdf-syntax-ns#">
   <cc:Work>
    <dc:type rdf:resource="http://purl.org/dc/dcmitype/StillImage"/>
    <dc:date>2022-08-18T01:09:18.502541</dc:date>
    <dc:format>image/svg+xml</dc:format>
    <dc:creator>
     <cc:Agent>
      <dc:title>Matplotlib v3.5.1, https://matplotlib.org/</dc:title>
     </cc:Agent>
    </dc:creator>
   </cc:Work>
  </rdf:RDF>
 </metadata>
 <defs>
  <style type="text/css">*{stroke-linejoin: round; stroke-linecap: butt}</style>
 </defs>
 <g id="figure_1">
  <g id="patch_1">
   <path d="M 0 333.817556 
L 347.571464 333.817556 
L 347.571464 0 
L 0 0 
z
" style="fill: #ffffff"/>
  </g>
  <g id="patch_2">
   <path d="M 3.6 324.72 
L 324.72 324.72 
L 324.72 3.6 
L 3.6 3.6 
z
" style="fill: #ffffff"/>
  </g>
  <g id="pane3d_1">
   <g id="patch_3">
    <path d="M 34.938629 258.643868 
L 111.762766 160.642883 
L 109.336047 32.086677 
L 28.641521 121.554732 
" style="fill: #f2f2f2; opacity: 0.5; stroke: #f2f2f2; stroke-width: 1.5; stroke-linejoin: miter"/>
   </g>
  </g>
  <g id="pane3d_2">
   <g id="patch_4">
    <path d="M 111.762766 160.642883 
L 294.245607 194.225295 
L 299.812026 62.660731 
L 109.336047 32.086677 
" style="fill: #e6e6e6; opacity: 0.5; stroke: #e6e6e6; stroke-width: 1.5; stroke-linejoin: miter"/>
   </g>
  </g>
  <g id="pane3d_3">
   <g id="patch_5">
    <path d="M 34.938629 258.643868 
L 233.076486 299.2424 
L 294.245607 194.225295 
L 111.762766 160.642883 
" style="fill: #ececec; opacity: 0.5; stroke: #ececec; stroke-width: 1.5; stroke-linejoin: miter"/>
   </g>
  </g>
  <g id="axis3d_1">
   <g id="line2d_1">
    <path d="M 34.938629 258.643868 
L 233.076486 299.2424 
" style="fill: none; stroke: #ffffff; stroke-width: 1.875; stroke-linecap: square"/>
   </g>
   <g id="text_1">
    <!-- $u$ -->
    <g style="fill: #555555" transform="translate(115.988605 319.807328)scale(0.18 -0.18)">
     <defs>
      <path id="CMMI12-75" d="M 2182 370 
C 2266 13 2573 -64 2726 -64 
C 2931 -64 3085 70 3187 287 
C 3296 517 3379 894 3379 913 
C 3379 945 3354 971 3315 971 
C 3258 971 3251 939 3226 843 
C 3110 402 2995 64 2739 64 
C 2547 64 2547 275 2547 358 
C 2547 505 2566 568 2630 837 
C 2675 1009 2720 1181 2758 1360 
L 3021 2401 
C 3066 2561 3066 2574 3066 2593 
C 3066 2689 2989 2753 2893 2753 
C 2707 2753 2662 2593 2624 2433 
C 2560 2184 2214 811 2170 588 
C 2163 588 1914 64 1446 64 
C 1114 64 1050 351 1050 588 
C 1050 952 1229 1462 1395 1890 
C 1472 2095 1504 2178 1504 2305 
C 1504 2580 1306 2816 998 2816 
C 410 2816 173 1890 173 1839 
C 173 1814 198 1782 243 1782 
C 301 1782 307 1807 333 1896 
C 486 2441 736 2682 979 2682 
C 1043 2682 1146 2682 1146 2478 
C 1146 2312 1075 2127 979 1884 
C 698 1124 666 881 666 690 
C 666 38 1158 -64 1421 -64 
C 1830 -64 2054 217 2182 370 
z
" transform="scale(0.015625)"/>
     </defs>
     <use xlink:href="#CMMI12-75" transform="scale(0.996264)"/>
    </g>
   </g>
   <g id="Line3DCollection_1">
    <path d="M 38.763177 259.42752 
L 115.296471 161.293192 
L 113.019355 32.6779 
" style="fill: none; stroke: #ffffff; stroke-width: 1.5"/>
    <path d="M 75.757754 267.007724 
L 149.454652 167.57934 
L 148.634198 38.394579 
" style="fill: none; stroke: #ffffff; stroke-width: 1.5"/>
    <path d="M 113.26491 274.692957 
L 184.043423 173.94473 
L 184.717463 44.186447 
" style="fill: none; stroke: #ffffff; stroke-width: 1.5"/>
    <path d="M 151.295369 282.485414 
L 219.070979 180.390869 
L 221.278452 50.054996 
" style="fill: none; stroke: #ffffff; stroke-width: 1.5"/>
    <path d="M 189.860163 290.387357 
L 254.545724 186.919305 
L 258.326717 56.00176 
" style="fill: none; stroke: #ffffff; stroke-width: 1.5"/>
    <path d="M 228.97063 298.401109 
L 290.476274 193.531623 
L 295.872063 62.028312 
" style="fill: none; stroke: #ffffff; stroke-width: 1.5"/>
    <path d="M 47.964343 261.312842 
L 123.796089 162.857381 
L 121.879651 34.100101 
" style="fill: none; stroke: #ffffff; stroke-width: 1.5"/>
    <path d="M 57.197052 263.204629 
L 132.322242 164.426454 
L 130.768796 35.526933 
" style="fill: none; stroke: #ffffff; stroke-width: 1.5"/>
    <path d="M 66.461468 265.102911 
L 140.875054 166.000432 
L 139.686931 36.958418 
" style="fill: none; stroke: #ffffff; stroke-width: 1.5"/>
    <path d="M 85.086075 268.919101 
L 158.06116 169.1632 
L 157.610741 39.83544 
" style="fill: none; stroke: #ffffff; stroke-width: 1.5"/>
    <path d="M 94.446596 270.837076 
L 166.694706 170.752036 
L 166.616702 41.281022 
" style="fill: none; stroke: #ffffff; stroke-width: 1.5"/>
    <path d="M 103.839485 272.761683 
L 175.355418 172.345871 
L 175.652228 42.73135 
" style="fill: none; stroke: #ffffff; stroke-width: 1.5"/>
    <path d="M 122.723039 276.630932 
L 192.758851 175.548634 
L 193.812555 45.646336 
" style="fill: none; stroke: #ffffff; stroke-width: 1.5"/>
    <path d="M 132.214044 278.575643 
L 201.501833 177.15761 
L 202.937651 47.111042 
" style="fill: none; stroke: #ffffff; stroke-width: 1.5"/>
    <path d="M 141.738097 280.527125 
L 210.272498 178.77168 
L 212.0929 48.580587 
" style="fill: none; stroke: #ffffff; stroke-width: 1.5"/>
    <path d="M 160.886036 284.450546 
L 227.897409 182.015201 
L 230.494458 51.534294 
" style="fill: none; stroke: #ffffff; stroke-width: 1.5"/>
    <path d="M 170.510273 286.422556 
L 236.75192 183.644702 
L 239.741068 53.018504 
" style="fill: none; stroke: #ffffff; stroke-width: 1.5"/>
    <path d="M 180.168256 288.401481 
L 245.634646 185.279395 
L 249.018437 54.507651 
" style="fill: none; stroke: #ffffff; stroke-width: 1.5"/>
    <path d="M 199.586172 292.380221 
L 263.485288 188.564457 
L 267.666063 57.500855 
" style="fill: none; stroke: #ffffff; stroke-width: 1.5"/>
    <path d="M 209.346466 294.380109 
L 272.453476 190.214878 
L 277.036631 59.004962 
" style="fill: none; stroke: #ffffff; stroke-width: 1.5"/>
    <path d="M 219.141224 296.387059 
L 281.450425 191.870591 
L 286.438578 60.514106 
" style="fill: none; stroke: #ffffff; stroke-width: 1.5"/>
   </g>
   <g id="xtick_1">
    <g id="line2d_2">
     <path d="M 168.499459 159.820541 
" clip-path="url(#p28dc621458)" style="fill: none; stroke: #ffffff; stroke-width: 1.5; stroke-linecap: square"/>
    </g>
    <g id="line2d_3">
     <path d="M 39.434785 258.566354 
L 37.416803 261.153898 
" style="fill: none; stroke: #555555; stroke-width: 1.875; stroke-linecap: square"/>
    </g>
    <g id="text_2">
     <!-- $\mathdefault{0.0}$ -->
     <g style="fill: #555555" transform="translate(23.085256 287.315901)scale(0.165 -0.165)">
      <defs>
       <path id="CMR17-30" d="M 2688 2025 
C 2688 2416 2682 3080 2413 3591 
C 2176 4039 1798 4198 1466 4198 
C 1158 4198 768 4058 525 3597 
C 269 3118 243 2524 243 2025 
C 243 1661 250 1106 448 619 
C 723 -39 1216 -128 1466 -128 
C 1760 -128 2208 -7 2470 600 
C 2662 1042 2688 1559 2688 2025 
z
M 1466 -26 
C 1056 -26 813 325 723 812 
C 653 1188 653 1738 653 2096 
C 653 2588 653 2997 736 3387 
C 858 3929 1216 4096 1466 4096 
C 1728 4096 2067 3923 2189 3400 
C 2272 3036 2278 2607 2278 2096 
C 2278 1680 2278 1169 2202 792 
C 2067 95 1690 -26 1466 -26 
z
" transform="scale(0.015625)"/>
       <path id="CMMI12-3a" d="M 1178 307 
C 1178 492 1024 619 870 619 
C 685 619 557 466 557 313 
C 557 128 710 0 864 0 
C 1050 0 1178 153 1178 307 
z
" transform="scale(0.015625)"/>
      </defs>
      <use xlink:href="#CMR17-30" transform="scale(0.996264)"/>
      <use xlink:href="#CMMI12-3a" transform="translate(45.690477 0)scale(0.996264)"/>
      <use xlink:href="#CMR17-30" transform="translate(72.787654 0)scale(0.996264)"/>
     </g>
    </g>
   </g>
   <g id="xtick_2">
    <g id="line2d_4">
     <path d="M 168.499459 159.820541 
" clip-path="url(#p28dc621458)" style="fill: none; stroke: #ffffff; stroke-width: 1.5; stroke-linecap: square"/>
    </g>
    <g id="line2d_5">
     <path d="M 76.404865 266.134673 
L 74.46047 268.757959 
" style="fill: none; stroke: #555555; stroke-width: 1.875; stroke-linecap: square"/>
    </g>
    <g id="text_3">
     <!-- $\mathdefault{0.2}$ -->
     <g style="fill: #555555" transform="translate(60.178112 295.037626)scale(0.165 -0.165)">
      <defs>
       <path id="CMR17-32" d="M 2669 989 
L 2554 989 
C 2490 536 2438 459 2413 420 
C 2381 369 1920 369 1830 369 
L 602 369 
C 832 619 1280 1072 1824 1597 
C 2214 1967 2669 2402 2669 3035 
C 2669 3790 2067 4224 1395 4224 
C 691 4224 262 3604 262 3030 
C 262 2780 448 2748 525 2748 
C 589 2748 781 2787 781 3010 
C 781 3207 614 3264 525 3264 
C 486 3264 448 3258 422 3245 
C 544 3790 915 4058 1306 4058 
C 1862 4058 2227 3617 2227 3035 
C 2227 2479 1901 2000 1536 1584 
L 262 146 
L 262 0 
L 2515 0 
L 2669 989 
z
" transform="scale(0.015625)"/>
      </defs>
      <use xlink:href="#CMR17-30" transform="scale(0.996264)"/>
      <use xlink:href="#CMMI12-3a" transform="translate(45.690477 0)scale(0.996264)"/>
      <use xlink:href="#CMR17-32" transform="translate(72.787654 0)scale(0.996264)"/>
     </g>
    </g>
   </g>
   <g id="xtick_3">
    <g id="line2d_6">
     <path d="M 168.499459 159.820541 
" clip-path="url(#p28dc621458)" style="fill: none; stroke: #ffffff; stroke-width: 1.5; stroke-linecap: square"/>
    </g>
    <g id="line2d_7">
     <path d="M 113.886777 273.807772 
L 112.018211 276.467545 
" style="fill: none; stroke: #555555; stroke-width: 1.875; stroke-linecap: square"/>
    </g>
    <g id="text_4">
     <!-- $\mathdefault{0.4}$ -->
     <g style="fill: #555555" transform="translate(97.786803 302.866733)scale(0.165 -0.165)">
      <defs>
       <path id="CMR17-34" d="M 2150 4122 
C 2150 4256 2144 4256 2029 4256 
L 128 1254 
L 128 1088 
L 1779 1088 
L 1779 457 
C 1779 224 1766 160 1318 160 
L 1197 160 
L 1197 0 
C 1402 0 1747 0 1965 0 
C 2182 0 2528 0 2733 0 
L 2733 160 
L 2611 160 
C 2163 160 2150 224 2150 457 
L 2150 1088 
L 2803 1088 
L 2803 1254 
L 2150 1254 
L 2150 4122 
z
M 1798 3703 
L 1798 1254 
L 256 1254 
L 1798 3703 
z
" transform="scale(0.015625)"/>
      </defs>
      <use xlink:href="#CMR17-30" transform="scale(0.996264)"/>
      <use xlink:href="#CMMI12-3a" transform="translate(45.690477 0)scale(0.996264)"/>
      <use xlink:href="#CMR17-34" transform="translate(72.787654 0)scale(0.996264)"/>
     </g>
    </g>
   </g>
   <g id="xtick_4">
    <g id="line2d_8">
     <path d="M 168.499459 159.820541 
" clip-path="url(#p28dc621458)" style="fill: none; stroke: #ffffff; stroke-width: 1.5; stroke-linecap: square"/>
    </g>
    <g id="line2d_9">
     <path d="M 151.891224 281.587841 
L 150.100799 284.284868 
" style="fill: none; stroke: #555555; stroke-width: 1.875; stroke-linecap: square"/>
    </g>
    <g id="text_5">
     <!-- $\mathdefault{0.6}$ -->
     <g style="fill: #555555" transform="translate(135.922164 310.805479)scale(0.165 -0.165)">
      <defs>
       <path id="CMR17-36" d="M 678 2176 
C 678 3690 1395 4032 1811 4032 
C 1946 4032 2272 4009 2400 3776 
C 2298 3776 2106 3776 2106 3553 
C 2106 3381 2246 3323 2336 3323 
C 2394 3323 2566 3348 2566 3560 
C 2566 3954 2246 4179 1805 4179 
C 1043 4179 243 3390 243 1984 
C 243 253 966 -128 1478 -128 
C 2099 -128 2688 427 2688 1283 
C 2688 2081 2170 2662 1517 2662 
C 1126 2662 838 2407 678 1960 
L 678 2176 
z
M 1478 25 
C 691 25 691 1200 691 1436 
C 691 1896 909 2560 1504 2560 
C 1613 2560 1926 2560 2138 2120 
C 2253 1870 2253 1609 2253 1289 
C 2253 944 2253 690 2118 434 
C 1978 171 1773 25 1478 25 
z
" transform="scale(0.015625)"/>
      </defs>
      <use xlink:href="#CMR17-30" transform="scale(0.996264)"/>
      <use xlink:href="#CMMI12-3a" transform="translate(45.690477 0)scale(0.996264)"/>
      <use xlink:href="#CMR17-36" transform="translate(72.787654 0)scale(0.996264)"/>
     </g>
    </g>
   </g>
   <g id="xtick_5">
    <g id="line2d_10">
     <path d="M 168.499459 159.820541 
" clip-path="url(#p28dc621458)" style="fill: none; stroke: #ffffff; stroke-width: 1.5; stroke-linecap: square"/>
    </g>
    <g id="line2d_11">
     <path d="M 190.429211 289.477134 
L 188.719316 292.212203 
" style="fill: none; stroke: #555555; stroke-width: 1.875; stroke-linecap: square"/>
    </g>
    <g id="text_6">
     <!-- $\mathdefault{0.8}$ -->
     <g style="fill: #555555" transform="translate(174.595337 318.856183)scale(0.165 -0.165)">
      <defs>
       <path id="CMR17-38" d="M 1741 2264 
C 2144 2467 2554 2773 2554 3263 
C 2554 3841 1990 4179 1472 4179 
C 890 4179 378 3759 378 3180 
C 378 3021 416 2747 666 2505 
C 730 2442 998 2251 1171 2130 
C 883 1983 211 1634 211 934 
C 211 279 838 -128 1459 -128 
C 2144 -128 2720 362 2720 1010 
C 2720 1590 2330 1857 2074 2029 
L 1741 2264 
z
M 902 2822 
C 851 2854 595 3051 595 3351 
C 595 3739 998 4032 1459 4032 
C 1965 4032 2336 3676 2336 3262 
C 2336 2669 1670 2331 1638 2331 
C 1632 2331 1626 2331 1574 2370 
L 902 2822 
z
M 2080 1519 
C 2176 1449 2483 1240 2483 851 
C 2483 381 2010 25 1472 25 
C 890 25 448 438 448 940 
C 448 1443 838 1862 1280 2060 
L 2080 1519 
z
" transform="scale(0.015625)"/>
      </defs>
      <use xlink:href="#CMR17-30" transform="scale(0.996264)"/>
      <use xlink:href="#CMMI12-3a" transform="translate(45.690477 0)scale(0.996264)"/>
      <use xlink:href="#CMR17-38" transform="translate(72.787654 0)scale(0.996264)"/>
     </g>
    </g>
   </g>
   <g id="xtick_6">
    <g id="line2d_12">
     <path d="M 168.499459 159.820541 
" clip-path="url(#p28dc621458)" style="fill: none; stroke: #ffffff; stroke-width: 1.5; stroke-linecap: square"/>
    </g>
    <g id="line2d_13">
     <path d="M 229.512051 297.477966 
L 227.885154 300.251888 
" style="fill: none; stroke: #555555; stroke-width: 1.875; stroke-linecap: square"/>
    </g>
    <g id="text_7">
     <!-- $\mathdefault{1.0}$ -->
     <g style="fill: #555555" transform="translate(213.817779 327.021229)scale(0.165 -0.165)">
      <defs>
       <path id="CMR17-31" d="M 1702 4058 
C 1702 4192 1696 4192 1606 4192 
C 1357 3916 979 3827 621 3827 
C 602 3827 570 3827 563 3808 
C 557 3795 557 3782 557 3648 
C 755 3648 1088 3686 1344 3839 
L 1344 461 
C 1344 236 1331 160 781 160 
L 589 160 
L 589 0 
C 896 0 1216 0 1523 0 
C 1830 0 2150 0 2458 0 
L 2458 160 
L 2266 160 
C 1715 160 1702 230 1702 458 
L 1702 4058 
z
" transform="scale(0.015625)"/>
      </defs>
      <use xlink:href="#CMR17-31" transform="scale(0.996264)"/>
      <use xlink:href="#CMMI12-3a" transform="translate(45.690477 0)scale(0.996264)"/>
      <use xlink:href="#CMR17-30" transform="translate(72.787654 0)scale(0.996264)"/>
     </g>
    </g>
   </g>
   <g id="xtick_7">
    <g id="line2d_14">
     <path d="M 48.629895 260.448729 
L 46.630104 263.045139 
" style="fill: none; stroke: #555555; stroke-width: 1.5; stroke-linecap: square"/>
    </g>
   </g>
   <g id="xtick_8">
    <g id="line2d_15">
     <path d="M 57.856503 262.337551 
L 55.87504 264.942874 
" style="fill: none; stroke: #555555; stroke-width: 1.5; stroke-linecap: square"/>
    </g>
   </g>
   <g id="xtick_9">
    <g id="line2d_16">
     <path d="M 67.114772 264.232855 
L 65.151774 266.847136 
" style="fill: none; stroke: #555555; stroke-width: 1.5; stroke-linecap: square"/>
    </g>
   </g>
   <g id="xtick_10">
    <g id="line2d_17">
     <path d="M 85.726946 268.04304 
L 83.801295 270.675377 
" style="fill: none; stroke: #555555; stroke-width: 1.5; stroke-linecap: square"/>
    </g>
   </g>
   <g id="xtick_11">
    <g id="line2d_18">
     <path d="M 95.08118 269.95799 
L 93.174415 272.599424 
" style="fill: none; stroke: #555555; stroke-width: 1.5; stroke-linecap: square"/>
    </g>
   </g>
   <g id="xtick_12">
    <g id="line2d_19">
     <path d="M 104.467735 271.879555 
L 102.579997 274.530135 
" style="fill: none; stroke: #555555; stroke-width: 1.5; stroke-linecap: square"/>
    </g>
   </g>
   <g id="xtick_13">
    <g id="line2d_20">
     <path d="M 123.338477 275.742674 
L 121.489226 278.411688 
" style="fill: none; stroke: #555555; stroke-width: 1.5; stroke-linecap: square"/>
    </g>
   </g>
   <g id="xtick_14">
    <g id="line2d_21">
     <path d="M 132.823003 277.684296 
L 130.993214 280.362599 
" style="fill: none; stroke: #555555; stroke-width: 1.5; stroke-linecap: square"/>
    </g>
   </g>
   <g id="xtick_15">
    <g id="line2d_22">
     <path d="M 142.340528 279.632673 
L 140.530347 282.320314 
" style="fill: none; stroke: #555555; stroke-width: 1.5; stroke-linecap: square"/>
    </g>
   </g>
   <g id="xtick_16">
    <g id="line2d_23">
     <path d="M 161.475265 283.549835 
L 159.704746 286.256298 
" style="fill: none; stroke: #555555; stroke-width: 1.5; stroke-linecap: square"/>
    </g>
   </g>
   <g id="xtick_17">
    <g id="line2d_24">
     <path d="M 171.092825 285.518691 
L 169.342362 288.234639 
" style="fill: none; stroke: #555555; stroke-width: 1.5; stroke-linecap: square"/>
    </g>
   </g>
   <g id="xtick_18">
    <g id="line2d_25">
     <path d="M 180.744082 287.494445 
L 179.013826 290.219929 
" style="fill: none; stroke: #555555; stroke-width: 1.5; stroke-linecap: square"/>
    </g>
   </g>
   <g id="xtick_19">
    <g id="line2d_26">
     <path d="M 200.148392 291.466793 
L 198.459012 294.211498 
" style="fill: none; stroke: #555555; stroke-width: 1.5; stroke-linecap: square"/>
    </g>
   </g>
   <g id="xtick_20">
    <g id="line2d_27">
     <path d="M 209.901804 293.46346 
L 208.233095 296.217853 
" style="fill: none; stroke: #555555; stroke-width: 1.5; stroke-linecap: square"/>
    </g>
   </g>
   <g id="xtick_21">
    <g id="line2d_28">
     <path d="M 219.68963 295.467172 
L 218.041748 298.231303 
" style="fill: none; stroke: #555555; stroke-width: 1.5; stroke-linecap: square"/>
    </g>
   </g>
  </g>
  <g id="axis3d_2">
   <g id="line2d_29">
    <path d="M 294.245607 194.225295 
L 233.076486 299.2424 
" style="fill: none; stroke: #ffffff; stroke-width: 1.875; stroke-linecap: square"/>
   </g>
   <g id="text_8">
    <!-- $v$ -->
    <g style="fill: #555555" transform="translate(289.605994 273.758243)scale(0.18 -0.18)">
     <defs>
      <path id="CMMI12-76" d="M 2925 2389 
C 2925 2791 2720 2816 2669 2816 
C 2515 2816 2374 2663 2374 2535 
C 2374 2459 2419 2414 2445 2389 
C 2509 2331 2675 2159 2675 1827 
C 2675 1558 2291 64 1523 64 
C 1133 64 1056 390 1056 626 
C 1056 945 1203 1392 1376 1852 
C 1478 2114 1504 2178 1504 2305 
C 1504 2574 1312 2816 998 2816 
C 410 2816 173 1890 173 1839 
C 173 1814 198 1782 243 1782 
C 301 1782 307 1807 333 1897 
C 486 2446 736 2689 979 2689 
C 1037 2689 1146 2689 1146 2478 
C 1146 2312 1075 2127 979 1884 
C 672 1067 672 869 672 715 
C 672 575 691 313 890 134 
C 1120 -64 1440 -64 1498 -64 
C 2560 -64 2925 2024 2925 2389 
z
" transform="scale(0.015625)"/>
     </defs>
     <use xlink:href="#CMMI12-76" transform="scale(0.996264)"/>
    </g>
   </g>
   <g id="Line3DCollection_2">
    <path d="M 30.416906 119.586317 
L 36.621952 256.496531 
L 234.421088 296.933944 
" style="fill: none; stroke: #ffffff; stroke-width: 1.5"/>
    <path d="M 47.09876 101.090725 
L 52.453901 236.300448 
L 247.057856 275.238737 
" style="fill: none; stroke: #ffffff; stroke-width: 1.5"/>
    <path d="M 63.151206 83.292974 
L 67.714384 216.833359 
L 259.222331 254.354377 
" style="fill: none; stroke: #ffffff; stroke-width: 1.5"/>
    <path d="M 78.609207 66.154299 
L 82.433793 198.056492 
L 270.940505 234.23624 
" style="fill: none; stroke: #ffffff; stroke-width: 1.5"/>
    <path d="M 93.505182 49.638756 
L 96.640403 179.933779 
L 282.236497 214.842919 
" style="fill: none; stroke: #ffffff; stroke-width: 1.5"/>
    <path d="M 107.869234 33.712969 
L 110.360554 162.43162 
L 293.13272 196.135936 
" style="fill: none; stroke: #ffffff; stroke-width: 1.5"/>
    <path d="M 34.648391 114.894763 
L 40.635262 251.376938 
L 237.626055 291.431555 
" style="fill: none; stroke: #ffffff; stroke-width: 1.5"/>
    <path d="M 38.8388 110.248751 
L 44.611348 246.30483 
L 240.800211 285.982061 
" style="fill: none; stroke: #ffffff; stroke-width: 1.5"/>
    <path d="M 42.988729 105.647621 
L 48.550726 241.279548 
L 243.944 280.584703 
" style="fill: none; stroke: #ffffff; stroke-width: 1.5"/>
    <path d="M 51.169467 96.57743 
L 56.321372 231.366896 
L 250.142203 269.943431 
" style="fill: none; stroke: #ffffff; stroke-width: 1.5"/>
    <path d="M 55.201412 92.107111 
L 60.153625 226.478269 
L 253.197459 264.698069 
" style="fill: none; stroke: #ffffff; stroke-width: 1.5"/>
    <path d="M 59.195145 87.679159 
L 63.951139 221.633956 
L 256.224035 259.501948 
" style="fill: none; stroke: #ffffff; stroke-width: 1.5"/>
    <path d="M 67.070128 78.947967 
L 71.443823 212.075887 
L 262.192742 249.254679 
" style="fill: none; stroke: #ffffff; stroke-width: 1.5"/>
    <path d="M 70.952429 74.643561 
L 75.139908 207.360963 
L 265.135656 244.202191 
" style="fill: none; stroke: #ffffff; stroke-width: 1.5"/>
    <path d="M 74.798622 70.37919 
L 78.803086 202.688017 
L 268.051453 239.196258 
" style="fill: none; stroke: #ffffff; stroke-width: 1.5"/>
    <path d="M 82.384677 61.96834 
L 86.03246 193.46584 
L 273.803179 229.32151 
" style="fill: none; stroke: #ffffff; stroke-width: 1.5"/>
    <path d="M 86.125514 57.820779 
L 89.599509 188.915522 
L 276.639835 224.451448 
" style="fill: none; stroke: #ffffff; stroke-width: 1.5"/>
    <path d="M 89.832194 53.71109 
L 93.135354 184.405008 
L 279.450825 219.62545 
" style="fill: none; stroke: #ffffff; stroke-width: 1.5"/>
    <path d="M 97.144934 45.603271 
L 100.115058 175.501324 
L 284.997191 210.103271 
" style="fill: none; stroke: #ffffff; stroke-width: 1.5"/>
    <path d="M 100.751901 41.604135 
L 103.559711 171.10714 
L 287.733242 205.405933 
" style="fill: none; stroke: #ffffff; stroke-width: 1.5"/>
    <path d="M 104.326524 37.640862 
L 106.974749 166.750734 
L 290.444977 200.750339 
" style="fill: none; stroke: #ffffff; stroke-width: 1.5"/>
   </g>
   <g id="xtick_22">
    <g id="line2d_30">
     <path d="M 168.499459 159.820541 
" clip-path="url(#p28dc621458)" style="fill: none; stroke: #ffffff; stroke-width: 1.5; stroke-linecap: square"/>
    </g>
    <g id="line2d_31">
     <path d="M 232.780945 296.598638 
L 237.704273 297.605147 
" style="fill: none; stroke: #555555; stroke-width: 1.875; stroke-linecap: square"/>
    </g>
    <g id="text_9">
     <!-- $\mathdefault{0.0}$ -->
     <g style="fill: #555555" transform="translate(238.018236 320.416242)scale(0.165 -0.165)">
      <use xlink:href="#CMR17-30" transform="scale(0.996264)"/>
      <use xlink:href="#CMMI12-3a" transform="translate(45.690477 0)scale(0.996264)"/>
      <use xlink:href="#CMR17-30" transform="translate(72.787654 0)scale(0.996264)"/>
     </g>
    </g>
   </g>
   <g id="xtick_23">
    <g id="line2d_32">
     <path d="M 168.499459 159.820541 
" clip-path="url(#p28dc621458)" style="fill: none; stroke: #ffffff; stroke-width: 1.5; stroke-linecap: square"/>
    </g>
    <g id="line2d_33">
     <path d="M 245.445289 274.916078 
L 250.285785 275.884613 
" style="fill: none; stroke: #555555; stroke-width: 1.875; stroke-linecap: square"/>
    </g>
    <g id="text_10">
     <!-- $\mathdefault{0.2}$ -->
     <g style="fill: #555555" transform="translate(250.382511 298.505716)scale(0.165 -0.165)">
      <use xlink:href="#CMR17-30" transform="scale(0.996264)"/>
      <use xlink:href="#CMMI12-3a" transform="translate(45.690477 0)scale(0.996264)"/>
      <use xlink:href="#CMR17-32" transform="translate(72.787654 0)scale(0.996264)"/>
     </g>
    </g>
   </g>
   <g id="xtick_24">
    <g id="line2d_34">
     <path d="M 168.499459 159.820541 
" clip-path="url(#p28dc621458)" style="fill: none; stroke: #ffffff; stroke-width: 1.5; stroke-linecap: square"/>
    </g>
    <g id="line2d_35">
     <path d="M 257.636443 254.043663 
L 262.396804 254.976333 
" style="fill: none; stroke: #555555; stroke-width: 1.875; stroke-linecap: square"/>
    </g>
    <g id="text_11">
     <!-- $\mathdefault{0.4}$ -->
     <g style="fill: #555555" transform="translate(262.284976 277.413553)scale(0.165 -0.165)">
      <use xlink:href="#CMR17-30" transform="scale(0.996264)"/>
      <use xlink:href="#CMMI12-3a" transform="translate(45.690477 0)scale(0.996264)"/>
      <use xlink:href="#CMR17-34" transform="translate(72.787654 0)scale(0.996264)"/>
     </g>
    </g>
   </g>
   <g id="xtick_25">
    <g id="line2d_36">
     <path d="M 168.499459 159.820541 
" clip-path="url(#p28dc621458)" style="fill: none; stroke: #ffffff; stroke-width: 1.5; stroke-linecap: square"/>
    </g>
    <g id="line2d_37">
     <path d="M 269.380442 233.93682 
L 274.063235 234.83558 
" style="fill: none; stroke: #555555; stroke-width: 1.875; stroke-linecap: square"/>
    </g>
    <g id="text_12">
     <!-- $\mathdefault{0.6}$ -->
     <g style="fill: #555555" transform="translate(273.751031 257.094745)scale(0.165 -0.165)">
      <use xlink:href="#CMR17-30" transform="scale(0.996264)"/>
      <use xlink:href="#CMMI12-3a" transform="translate(45.690477 0)scale(0.996264)"/>
      <use xlink:href="#CMR17-36" transform="translate(72.787654 0)scale(0.996264)"/>
     </g>
    </g>
   </g>
   <g id="xtick_26">
    <g id="line2d_38">
     <path d="M 168.499459 159.820541 
" clip-path="url(#p28dc621458)" style="fill: none; stroke: #ffffff; stroke-width: 1.5; stroke-linecap: square"/>
    </g>
    <g id="line2d_39">
     <path d="M 280.701445 214.554188 
L 285.30912 215.420855 
" style="fill: none; stroke: #555555; stroke-width: 1.875; stroke-linecap: square"/>
    </g>
    <g id="text_13">
     <!-- $\mathdefault{0.8}$ -->
     <g style="fill: #555555" transform="translate(284.804246 237.507526)scale(0.165 -0.165)">
      <use xlink:href="#CMR17-30" transform="scale(0.996264)"/>
      <use xlink:href="#CMMI12-3a" transform="translate(45.690477 0)scale(0.996264)"/>
      <use xlink:href="#CMR17-38" transform="translate(72.787654 0)scale(0.996264)"/>
     </g>
    </g>
   </g>
   <g id="xtick_27">
    <g id="line2d_40">
     <path d="M 168.499459 159.820541 
" clip-path="url(#p28dc621458)" style="fill: none; stroke: #ffffff; stroke-width: 1.5; stroke-linecap: square"/>
    </g>
    <g id="line2d_41">
     <path d="M 291.6219 195.857331 
L 296.156793 196.693593 
" style="fill: none; stroke: #555555; stroke-width: 1.875; stroke-linecap: square"/>
    </g>
    <g id="text_14">
     <!-- $\mathdefault{1.0}$ -->
     <g style="fill: #555555" transform="translate(295.466522 218.613082)scale(0.165 -0.165)">
      <use xlink:href="#CMR17-31" transform="scale(0.996264)"/>
      <use xlink:href="#CMMI12-3a" transform="translate(45.690477 0)scale(0.996264)"/>
      <use xlink:href="#CMR17-30" transform="translate(72.787654 0)scale(0.996264)"/>
     </g>
    </g>
   </g>
   <g id="xtick_28">
    <g id="line2d_42">
     <path d="M 235.992892 291.09948 
L 240.895252 292.096289 
" style="fill: none; stroke: #555555; stroke-width: 1.5; stroke-linecap: square"/>
    </g>
   </g>
   <g id="xtick_29">
    <g id="line2d_43">
     <path d="M 239.173971 285.65317 
L 244.055538 286.640418 
" style="fill: none; stroke: #555555; stroke-width: 1.5; stroke-linecap: square"/>
    </g>
   </g>
   <g id="xtick_30">
    <g id="line2d_44">
     <path d="M 242.324625 280.258951 
L 247.185572 281.236775 
" style="fill: none; stroke: #555555; stroke-width: 1.5; stroke-linecap: square"/>
    </g>
   </g>
   <g id="xtick_31">
    <g id="line2d_45">
     <path d="M 248.536388 269.623822 
L 253.356603 270.583199 
" style="fill: none; stroke: #555555; stroke-width: 1.5; stroke-linecap: square"/>
    </g>
   </g>
   <g id="xtick_32">
    <g id="line2d_46">
     <path d="M 251.598342 264.381467 
L 256.398441 265.331815 
" style="fill: none; stroke: #555555; stroke-width: 1.5; stroke-linecap: square"/>
    </g>
   </g>
   <g id="xtick_33">
    <g id="line2d_47">
     <path d="M 254.631559 259.188311 
L 259.411708 260.129757 
" style="fill: none; stroke: #555555; stroke-width: 1.5; stroke-linecap: square"/>
    </g>
   </g>
   <g id="xtick_34">
    <g id="line2d_48">
     <path d="M 260.613389 248.946848 
L 265.354122 249.870863 
" style="fill: none; stroke: #555555; stroke-width: 1.5; stroke-linecap: square"/>
    </g>
   </g>
   <g id="xtick_35">
    <g id="line2d_49">
     <path d="M 263.562785 243.897202 
L 268.284049 244.812681 
" style="fill: none; stroke: #555555; stroke-width: 1.5; stroke-linecap: square"/>
    </g>
   </g>
   <g id="xtick_36">
    <g id="line2d_50">
     <path d="M 266.485012 238.894073 
L 271.186963 239.801135 
" style="fill: none; stroke: #555555; stroke-width: 1.5; stroke-linecap: square"/>
    </g>
   </g>
   <g id="xtick_37">
    <g id="line2d_51">
     <path d="M 272.249444 229.024817 
L 276.913232 229.915388 
" style="fill: none; stroke: #555555; stroke-width: 1.5; stroke-linecap: square"/>
    </g>
   </g>
   <g id="xtick_38">
    <g id="line2d_52">
     <path d="M 275.092377 224.157446 
L 279.737312 225.03994 
" style="fill: none; stroke: #555555; stroke-width: 1.5; stroke-linecap: square"/>
    </g>
   </g>
   <g id="xtick_39">
    <g id="line2d_53">
     <path d="M 277.909595 219.334101 
L 282.535826 220.208628 
" style="fill: none; stroke: #555555; stroke-width: 1.5; stroke-linecap: square"/>
    </g>
   </g>
   <g id="xtick_40">
    <g id="line2d_54">
     <path d="M 283.468269 209.817123 
L 288.057533 210.676035 
" style="fill: none; stroke: #555555; stroke-width: 1.5; stroke-linecap: square"/>
    </g>
   </g>
   <g id="xtick_41">
    <g id="line2d_55">
     <path d="M 286.210401 205.122333 
L 290.781399 205.973594 
" style="fill: none; stroke: #555555; stroke-width: 1.5; stroke-linecap: square"/>
    </g>
   </g>
   <g id="xtick_42">
    <g id="line2d_56">
     <path d="M 288.92817 200.469253 
L 293.481045 201.312965 
" style="fill: none; stroke: #555555; stroke-width: 1.5; stroke-linecap: square"/>
    </g>
   </g>
  </g>
  <g id="axis3d_3">
   <g id="line2d_57">
    <path d="M 294.245607 194.225295 
L 299.812026 62.660731 
" style="fill: none; stroke: #ffffff; stroke-width: 1.875; stroke-linecap: square"/>
   </g>
   <g id="text_15">
    <!-- $C(u,v)$ -->
    <g style="fill: #555555" transform="translate(337.243895 148.194901)rotate(-87.577294)scale(0.18 -0.18)">
     <defs>
      <path id="CMMI12-43" d="M 4781 4423 
C 4781 4480 4736 4480 4723 4480 
C 4710 4480 4685 4480 4634 4416 
L 4192 3882 
C 3968 4264 3616 4480 3136 4480 
C 1754 4480 320 3088 320 1595 
C 320 533 1069 -128 2003 -128 
C 2515 -128 2963 88 3334 400 
C 3891 863 4058 1481 4058 1531 
C 4058 1588 4006 1588 3987 1588 
C 3930 1588 3923 1550 3910 1524 
C 3616 534 2752 57 2112 57 
C 1434 57 845 489 845 1391 
C 845 1595 909 2700 1632 3532 
C 1984 3939 2586 4295 3194 4295 
C 3898 4295 4211 3717 4211 3068 
C 4211 2903 4192 2764 4192 2738 
C 4192 2681 4256 2681 4275 2681 
C 4346 2681 4352 2687 4378 2801 
L 4781 4423 
z
" transform="scale(0.015625)"/>
      <path id="CMR17-28" d="M 1958 -1561 
C 1958 -1555 1958 -1542 1939 -1523 
C 1645 -1224 858 -407 858 1581 
C 858 3569 1632 4379 1946 4697 
C 1946 4704 1958 4717 1958 4736 
C 1958 4755 1939 4768 1914 4768 
C 1843 4768 1299 4296 986 3594 
C 666 2887 576 2199 576 1588 
C 576 1128 621 351 1005 -471 
C 1312 -1135 1837 -1600 1914 -1600 
C 1946 -1600 1958 -1587 1958 -1561 
z
" transform="scale(0.015625)"/>
      <path id="CMMI12-3b" d="M 1248 -31 
C 1248 343 1126 619 864 619 
C 659 619 557 453 557 313 
C 557 172 653 0 870 0 
C 954 0 1024 26 1082 83 
C 1094 96 1101 96 1107 96 
C 1120 96 1120 5 1120 -27 
C 1120 -240 1082 -659 710 -1080 
C 640 -1157 640 -1170 640 -1183 
C 640 -1216 672 -1248 704 -1248 
C 755 -1248 1248 -771 1248 -31 
z
" transform="scale(0.015625)"/>
      <path id="CMR17-29" d="M 1683 1581 
C 1683 2040 1638 2817 1254 3639 
C 947 4303 422 4768 346 4768 
C 326 4768 301 4761 301 4729 
C 301 4717 307 4710 314 4697 
C 621 4378 1402 3568 1402 1584 
C 1402 -407 627 -1217 314 -1537 
C 307 -1549 301 -1556 301 -1568 
C 301 -1600 326 -1600 346 -1600 
C 416 -1600 960 -1128 1274 -426 
C 1594 281 1683 969 1683 1581 
z
" transform="scale(0.015625)"/>
     </defs>
     <use xlink:href="#CMMI12-43" transform="scale(0.996264)"/>
     <use xlink:href="#CMR17-28" transform="translate(76.946847 0)scale(0.996264)"/>
     <use xlink:href="#CMMI12-75" transform="translate(112.227614 0)scale(0.996264)"/>
     <use xlink:href="#CMMI12-3b" transform="translate(167.747944 0)scale(0.996264)"/>
     <use xlink:href="#CMMI12-76" transform="translate(211.449526 0)scale(0.996264)"/>
     <use xlink:href="#CMR17-29" transform="translate(262.1847 0)scale(0.996264)"/>
    </g>
   </g>
   <g id="Line3DCollection_3">
    <path d="M 294.352307 191.703408 
L 111.716184 158.175195 
L 34.818249 256.023174 
" style="fill: none; stroke: #ffffff; stroke-width: 1.5"/>
    <path d="M 295.385911 167.273745 
L 111.265076 134.277584 
L 33.651464 230.622052 
" style="fill: none; stroke: #ffffff; stroke-width: 1.5"/>
    <path d="M 296.436634 142.439487 
L 110.806742 109.997229 
L 32.464131 204.773618 
" style="fill: none; stroke: #ffffff; stroke-width: 1.5"/>
    <path d="M 297.504904 117.190499 
L 110.341009 85.324859 
L 31.255704 178.465951 
" style="fill: none; stroke: #ffffff; stroke-width: 1.5"/>
    <path d="M 298.591164 91.516305 
L 109.867695 60.250905 
L 30.025615 151.686703 
" style="fill: none; stroke: #ffffff; stroke-width: 1.5"/>
    <path d="M 299.695873 65.406072 
L 109.386614 34.765481 
L 28.773277 124.423079 
" style="fill: none; stroke: #ffffff; stroke-width: 1.5"/>
    <path d="M 294.609126 185.633381 
L 111.604075 152.236178 
L 34.52845 249.714193 
" style="fill: none; stroke: #ffffff; stroke-width: 1.5"/>
    <path d="M 294.866996 179.53853 
L 111.491523 146.273665 
L 34.237391 243.377798 
" style="fill: none; stroke: #ffffff; stroke-width: 1.5"/>
    <path d="M 295.125922 173.418703 
L 111.378524 140.287513 
L 33.945065 237.013812 
" style="fill: none; stroke: #ffffff; stroke-width: 1.5"/>
    <path d="M 295.646971 161.103501 
L 111.151177 128.243734 
L 33.356578 224.202338 
" style="fill: none; stroke: #ffffff; stroke-width: 1.5"/>
    <path d="M 295.909107 154.907816 
L 111.036823 122.185822 
L 33.060399 217.754484 
" style="fill: none; stroke: #ffffff; stroke-width: 1.5"/>
    <path d="M 296.172325 148.68653 
L 110.922013 116.103702 
L 32.76292 211.278307 
" style="fill: none; stroke: #ffffff; stroke-width: 1.5"/>
    <path d="M 296.70204 136.166524 
L 110.69101 103.866256 
L 32.164024 198.240229 
" style="fill: none; stroke: #ffffff; stroke-width: 1.5"/>
    <path d="M 296.968548 129.867481 
L 110.574812 97.710637 
L 31.862589 191.67795 
" style="fill: none; stroke: #ffffff; stroke-width: 1.5"/>
    <path d="M 297.236168 123.542194 
L 110.458146 91.530221 
L 31.559819 185.086588 
" style="fill: none; stroke: #ffffff; stroke-width: 1.5"/>
    <path d="M 297.774765 110.81223 
L 110.223398 79.0944 
L 30.950235 171.815842 
" style="fill: none; stroke: #ffffff; stroke-width: 1.5"/>
    <path d="M 298.045757 104.407221 
L 110.105311 72.838691 
L 30.643403 165.136063 
" style="fill: none; stroke: #ffffff; stroke-width: 1.5"/>
    <path d="M 298.317888 97.975302 
L 109.986744 66.557577 
L 30.3352 158.426417 
" style="fill: none; stroke: #ffffff; stroke-width: 1.5"/>
    <path d="M 298.865593 85.030056 
L 109.74816 53.918518 
L 29.71464 144.916717 
" style="fill: none; stroke: #ffffff; stroke-width: 1.5"/>
    <path d="M 299.141183 78.516384 
L 109.628137 47.560257 
L 29.402265 138.116255 
" style="fill: none; stroke: #ffffff; stroke-width: 1.5"/>
    <path d="M 299.41794 71.975115 
L 109.507623 41.175965 
L 29.08848 131.285112 
" style="fill: none; stroke: #ffffff; stroke-width: 1.5"/>
   </g>
   <g id="xtick_43">
    <g id="line2d_58">
     <path d="M 168.499459 159.820541 
" clip-path="url(#p28dc621458)" style="fill: none; stroke: #ffffff; stroke-width: 1.5; stroke-linecap: square"/>
    </g>
    <g id="line2d_59">
     <path d="M 292.84266 191.426268 
L 297.37403 192.258134 
" style="fill: none; stroke: #555555; stroke-width: 1.875; stroke-linecap: square"/>
    </g>
    <g id="text_16">
     <!-- $\mathdefault{0.0}$ -->
     <g style="fill: #555555" transform="translate(300.801929 198.972012)scale(0.165 -0.165)">
      <use xlink:href="#CMR17-30" transform="scale(0.996264)"/>
      <use xlink:href="#CMMI12-3a" transform="translate(45.690477 0)scale(0.996264)"/>
      <use xlink:href="#CMR17-30" transform="translate(72.787654 0)scale(0.996264)"/>
     </g>
    </g>
   </g>
   <g id="xtick_44">
    <g id="line2d_60">
     <path d="M 168.499459 159.820541 
" clip-path="url(#p28dc621458)" style="fill: none; stroke: #ffffff; stroke-width: 1.5; stroke-linecap: square"/>
    </g>
    <g id="line2d_61">
     <path d="M 293.86359 167.00093 
L 298.433024 167.819815 
" style="fill: none; stroke: #555555; stroke-width: 1.875; stroke-linecap: square"/>
    </g>
    <g id="text_17">
     <!-- $\mathdefault{0.2}$ -->
     <g style="fill: #555555" transform="translate(301.968224 174.607203)scale(0.165 -0.165)">
      <use xlink:href="#CMR17-30" transform="scale(0.996264)"/>
      <use xlink:href="#CMMI12-3a" transform="translate(45.690477 0)scale(0.996264)"/>
      <use xlink:href="#CMR17-32" transform="translate(72.787654 0)scale(0.996264)"/>
     </g>
    </g>
   </g>
   <g id="xtick_45">
    <g id="line2d_62">
     <path d="M 168.499459 159.820541 
" clip-path="url(#p28dc621458)" style="fill: none; stroke: #ffffff; stroke-width: 1.5; stroke-linecap: square"/>
    </g>
    <g id="line2d_63">
     <path d="M 294.901424 142.17118 
L 299.509566 142.976538 
" style="fill: none; stroke: #555555; stroke-width: 1.875; stroke-linecap: square"/>
    </g>
    <g id="text_18">
     <!-- $\mathdefault{0.4}$ -->
     <g style="fill: #555555" transform="translate(303.153756 149.840518)scale(0.165 -0.165)">
      <use xlink:href="#CMR17-30" transform="scale(0.996264)"/>
      <use xlink:href="#CMMI12-3a" transform="translate(45.690477 0)scale(0.996264)"/>
      <use xlink:href="#CMR17-34" transform="translate(72.787654 0)scale(0.996264)"/>
     </g>
    </g>
   </g>
   <g id="xtick_46">
    <g id="line2d_64">
     <path d="M 168.499459 159.820541 
" clip-path="url(#p28dc621458)" style="fill: none; stroke: #ffffff; stroke-width: 1.5; stroke-linecap: square"/>
    </g>
    <g id="line2d_65">
     <path d="M 295.956585 116.926889 
L 300.604097 117.718153 
" style="fill: none; stroke: #555555; stroke-width: 1.875; stroke-linecap: square"/>
    </g>
    <g id="text_19">
     <!-- $\mathdefault{0.6}$ -->
     <g style="fill: #555555" transform="translate(304.359004 124.661931)scale(0.165 -0.165)">
      <use xlink:href="#CMR17-30" transform="scale(0.996264)"/>
      <use xlink:href="#CMMI12-3a" transform="translate(45.690477 0)scale(0.996264)"/>
      <use xlink:href="#CMR17-36" transform="translate(72.787654 0)scale(0.996264)"/>
     </g>
    </g>
   </g>
   <g id="xtick_47">
    <g id="line2d_66">
     <path d="M 168.499459 159.820541 
" clip-path="url(#p28dc621458)" style="fill: none; stroke: #ffffff; stroke-width: 1.5; stroke-linecap: square"/>
    </g>
    <g id="line2d_67">
     <path d="M 297.02951 91.257589 
L 301.71707 92.034166 
" style="fill: none; stroke: #555555; stroke-width: 1.875; stroke-linecap: square"/>
    </g>
    <g id="text_20">
     <!-- $\mathdefault{0.8}$ -->
     <g style="fill: #555555" transform="translate(305.584466 99.061082)scale(0.165 -0.165)">
      <use xlink:href="#CMR17-30" transform="scale(0.996264)"/>
      <use xlink:href="#CMMI12-3a" transform="translate(45.690477 0)scale(0.996264)"/>
      <use xlink:href="#CMR17-38" transform="translate(72.787654 0)scale(0.996264)"/>
     </g>
    </g>
   </g>
   <g id="xtick_48">
    <g id="line2d_68">
     <path d="M 168.499459 159.820541 
" clip-path="url(#p28dc621458)" style="fill: none; stroke: #ffffff; stroke-width: 1.5; stroke-linecap: square"/>
    </g>
    <g id="line2d_69">
     <path d="M 298.120653 65.152455 
L 302.848955 65.913731 
" style="fill: none; stroke: #555555; stroke-width: 1.875; stroke-linecap: square"/>
    </g>
    <g id="text_21">
     <!-- $\mathdefault{1.0}$ -->
     <g style="fill: #555555" transform="translate(306.830653 73.027257)scale(0.165 -0.165)">
      <use xlink:href="#CMR17-31" transform="scale(0.996264)"/>
      <use xlink:href="#CMMI12-3a" transform="translate(45.690477 0)scale(0.996264)"/>
      <use xlink:href="#CMR17-30" transform="translate(72.787654 0)scale(0.996264)"/>
     </g>
    </g>
   </g>
   <g id="xtick_49">
    <g id="line2d_70">
     <path d="M 293.09633 185.357306 
L 297.637157 186.185976 
" style="fill: none; stroke: #555555; stroke-width: 1.5; stroke-linecap: square"/>
    </g>
   </g>
   <g id="xtick_50">
    <g id="line2d_71">
     <path d="M 293.351038 179.263531 
L 297.901361 180.088973 
" style="fill: none; stroke: #555555; stroke-width: 1.5; stroke-linecap: square"/>
    </g>
   </g>
   <g id="xtick_51">
    <g id="line2d_72">
     <path d="M 293.606789 173.14479 
L 298.166648 173.966971 
" style="fill: none; stroke: #555555; stroke-width: 1.5; stroke-linecap: square"/>
    </g>
   </g>
   <g id="xtick_52">
    <g id="line2d_73">
     <path d="M 294.121447 160.831797 
L 298.700498 161.647352 
" style="fill: none; stroke: #555555; stroke-width: 1.5; stroke-linecap: square"/>
    </g>
   </g>
   <g id="xtick_53">
    <g id="line2d_74">
     <path d="M 294.380368 154.637232 
L 298.969075 155.449423 
" style="fill: none; stroke: #555555; stroke-width: 1.5; stroke-linecap: square"/>
    </g>
   </g>
   <g id="xtick_54">
    <g id="line2d_75">
     <path d="M 294.640358 148.41708 
L 299.238762 149.225872 
" style="fill: none; stroke: #555555; stroke-width: 1.5; stroke-linecap: square"/>
    </g>
   </g>
   <g id="xtick_55">
    <g id="line2d_76">
     <path d="M 295.163573 135.899374 
L 299.781495 136.701262 
" style="fill: none; stroke: #555555; stroke-width: 1.5; stroke-linecap: square"/>
    </g>
   </g>
   <g id="xtick_56">
    <g id="line2d_77">
     <path d="M 295.426812 129.601498 
L 300.054555 130.399882 
" style="fill: none; stroke: #555555; stroke-width: 1.5; stroke-linecap: square"/>
    </g>
   </g>
   <g id="xtick_57">
    <g id="line2d_78">
     <path d="M 295.691147 123.277392 
L 300.328753 124.072233 
" style="fill: none; stroke: #555555; stroke-width: 1.5; stroke-linecap: square"/>
    </g>
   </g>
   <g id="xtick_58">
    <g id="line2d_79">
     <path d="M 296.223133 110.549825 
L 300.880593 111.337474 
" style="fill: none; stroke: #555555; stroke-width: 1.5; stroke-linecap: square"/>
    </g>
   </g>
   <g id="xtick_59">
    <g id="line2d_80">
     <path d="M 296.490799 104.146033 
L 301.158249 104.930029 
" style="fill: none; stroke: #555555; stroke-width: 1.5; stroke-linecap: square"/>
    </g>
   </g>
   <g id="xtick_60">
    <g id="line2d_81">
     <path d="M 296.759589 97.715344 
L 301.437072 98.49565 
" style="fill: none; stroke: #555555; stroke-width: 1.5; stroke-linecap: square"/>
    </g>
   </g>
   <g id="xtick_61">
    <g id="line2d_82">
     <path d="M 297.30057 84.772596 
L 301.998249 85.545406 
" style="fill: none; stroke: #555555; stroke-width: 1.5; stroke-linecap: square"/>
    </g>
   </g>
   <g id="xtick_62">
    <g id="line2d_83">
     <path d="M 297.572776 78.260192 
L 302.280618 79.029197 
" style="fill: none; stroke: #555555; stroke-width: 1.5; stroke-linecap: square"/>
    </g>
   </g>
   <g id="xtick_63">
    <g id="line2d_84">
     <path d="M 297.846134 71.720203 
L 302.564184 72.485364 
" style="fill: none; stroke: #555555; stroke-width: 1.5; stroke-linecap: square"/>
    </g>
   </g>
  </g>
  <g id="axes_1">
   <g id="Line3DCollection_4"/>
   <g id="Line3DCollection_5">
    <path d="M 287.912632 69.998178 
L 292.493975 73.963603 
" clip-path="url(#p28dc621458)" style="fill: none; stroke: #000000; stroke-width: 2.25"/>
   </g>
   <g id="Line3DCollection_6">
    <path d="M 281.258205 73.462467 
L 290.378715 81.437133 
" clip-path="url(#p28dc621458)" style="fill: none; stroke: #000000; stroke-width: 2.25"/>
   </g>
   <g id="Line3DCollection_7">
    <path d="M 274.638423 76.908719 
L 288.256161 88.936433 
" clip-path="url(#p28dc621458)" style="fill: none; stroke: #000000; stroke-width: 2.25"/>
   </g>
   <g id="Line3DCollection_8">
    <path d="M 268.053019 80.337074 
L 271.326027 83.713263 
L 281.927852 93.17664 
L 286.126276 96.461638 
" clip-path="url(#p28dc621458)" style="fill: none; stroke: #000000; stroke-width: 2.25"/>
   </g>
   <g id="Line3DCollection_9">
    <path d="M 261.501723 83.747672 
L 268.943709 91.50949 
L 274.436252 96.464885 
L 283.98902 104.012883 
" clip-path="url(#p28dc621458)" style="fill: none; stroke: #000000; stroke-width: 2.25"/>
   </g>
   <g id="Line3DCollection_10">
    <path d="M 254.984273 87.140651 
L 266.551351 99.338578 
L 266.986043 99.734964 
L 281.844357 111.590301 
" clip-path="url(#p28dc621458)" style="fill: none; stroke: #000000; stroke-width: 2.25"/>
   </g>
   <g id="Line3DCollection_11">
    <path d="M 248.500406 90.516146 
L 250.586034 93.194498 
L 259.576884 102.987025 
L 264.148887 107.200735 
L 276.104967 116.675788 
L 279.692246 119.19403 
" clip-path="url(#p28dc621458)" style="fill: none; stroke: #000000; stroke-width: 2.25"/>
   </g>
   <g id="Line3DCollection_12">
    <path d="M 242.049863 93.874292 
L 247.85276 101.420175 
L 252.208435 106.221217 
L 261.736254 115.09617 
L 267.533926 119.738309 
L 277.53265 126.824207 
" clip-path="url(#p28dc621458)" style="fill: none; stroke: #000000; stroke-width: 2.25"/>
   </g>
   <g id="Line3DCollection_13">
    <path d="M 235.632388 97.215223 
L 244.880361 109.437687 
L 245.105286 109.688587 
L 259.013711 122.78267 
L 259.313387 123.025096 
L 275.365529 134.48097 
" clip-path="url(#p28dc621458)" style="fill: none; stroke: #000000; stroke-width: 2.25"/>
   </g>
   <g id="Line3DCollection_14">
    <path d="M 229.247728 100.539071 
L 230.3071 102.358548 
L 237.592333 112.63658 
L 242.343501 118.000069 
L 250.54387 125.809032 
L 256.880221 130.987726 
L 270.564015 140.525126 
L 273.190844 142.164458 
" clip-path="url(#p28dc621458)" style="fill: none; stroke: #000000; stroke-width: 2.25"/>
   </g>
   <g id="Line3DCollection_15">
    <path d="M 222.895632 103.845966 
L 227.097649 111.173048 
L 230.344023 115.818041 
L 239.567293 126.354958 
L 242.123958 128.817553 
L 254.436691 138.984276 
L 260.549798 143.287555 
L 271.008555 149.874812 
" clip-path="url(#p28dc621458)" style="fill: none; stroke: #000000; stroke-width: 2.25"/>
   </g>
   <g id="Line3DCollection_16">
    <path d="M 216.57585 107.136039 
L 223.135106 118.98221 
L 223.867346 120.044817 
L 233.753536 131.808392 
L 236.776548 134.753593 
L 250.600315 146.032128 
L 251.982729 147.014962 
L 268.818623 157.612173 
" clip-path="url(#p28dc621458)" style="fill: none; stroke: #000000; stroke-width: 2.25"/>
   </g>
   <g id="Line3DCollection_17">
    <path d="M 210.288138 110.409416 
L 210.555498 111.114638 
L 215.965263 122.129229 
L 220.615988 128.974414 
L 225.432166 134.781703 
L 233.971151 143.196321 
L 240.71494 148.759016 
L 249.518269 155.080004 
L 265.522394 164.774053 
L 266.621006 165.376682 
" clip-path="url(#p28dc621458)" style="fill: none; stroke: #000000; stroke-width: 2.25"/>
   </g>
   <g id="Line3DCollection_18">
    <path d="M 204.032251 113.666224 
L 206.670418 120.77185 
L 208.834176 125.259237 
L 217.159421 137.737641 
L 217.343367 137.962406 
L 230.893055 151.46839 
L 231.150988 151.683489 
L 247.043243 163.179623 
L 253.482405 167.117556 
L 264.415665 173.168483 
" clip-path="url(#p28dc621458)" style="fill: none; stroke: #000000; stroke-width: 2.25"/>
   </g>
   <g id="Line3DCollection_19">
    <path d="M 197.807949 116.90659 
L 201.741533 128.372371 
L 202.753039 130.509353 
L 208.934875 140.676356 
L 214.049275 147.009368 
L 221.134051 154.160419 
L 228.315941 160.215449 
L 241.529168 169.444174 
L 244.557583 171.314041 
L 262.202559 180.987721 
" clip-path="url(#p28dc621458)" style="fill: none; stroke: #000000; stroke-width: 2.25"/>
   </g>
   <g id="Line3DCollection_20">
    <path d="M 191.614992 120.130637 
L 194.687024 131.468768 
L 198.802954 140.328151 
L 200.758107 143.598 
L 210.733499 156.115883 
L 211.437327 156.835267 
L 225.465893 168.792557 
L 229.661748 171.754087 
L 242.061221 179.483484 
L 259.981646 188.834539 
" clip-path="url(#p28dc621458)" style="fill: none; stroke: #000000; stroke-width: 2.25"/>
   </g>
   <g id="Line3DCollection_21">
    <path d="M 185.453146 123.338489 
L 186.563359 130.220203 
L 187.67034 134.548561 
L 192.628704 146.50272 
L 194.819752 150.229268 
L 201.802287 159.4931 
L 207.395824 165.28254 
L 217.879226 174.047476 
L 222.600723 177.415171 
L 239.554088 187.688177 
L 246.330248 191.233364 
L 257.752885 196.709085 
" clip-path="url(#p28dc621458)" style="fill: none; stroke: #000000; stroke-width: 2.25"/>
   </g>
   <g id="Line3DCollection_22">
    <path d="M 179.322175 126.530266 
L 180.69118 137.611885 
L 181.60104 141.2832 
L 184.546253 149.390663 
L 190.803016 160.213742 
L 192.228345 162.13408 
L 204.036034 174.509937 
L 206.180693 176.324517 
L 219.720311 186.083655 
L 231.368904 192.935803 
L 237.036112 195.92835 
L 255.516235 204.611506 
" clip-path="url(#p28dc621458)" style="fill: none; stroke: #000000; stroke-width: 2.25"/>
   </g>
   <g id="Line3DCollection_23">
    <path d="M 173.221849 129.70609 
L 173.749243 140.65887 
L 176.510351 152.261974 
L 176.583655 152.468962 
L 182.714921 164.758365 
L 186.75232 170.282632 
L 194.565254 178.585385 
L 200.653906 183.79868 
L 216.531341 194.624158 
L 216.824535 194.798376 
L 234.507225 204.204233 
L 253.271653 212.541949 
" clip-path="url(#p28dc621458)" style="fill: none; stroke: #000000; stroke-width: 2.25"/>
   </g>
   <g id="Line3DCollection_24">
    <path d="M 167.151938 132.86608 
L 166.769003 139.521616 
L 166.844232 143.689648 
L 168.520595 155.116796 
L 171.510281 163.779543 
L 173.261445 167.366113 
L 182.667231 180.437011 
L 183.032027 180.83025 
L 197.249219 193.149382 
L 201.816029 196.298602 
L 213.913273 203.559705 
L 231.967354 212.516059 
L 239.091795 215.64015 
L 251.019098 220.500565 
" clip-path="url(#p28dc621458)" style="fill: none; stroke: #000000; stroke-width: 2.25"/>
   </g>
   <g id="Line3DCollection_25">
    <path d="M 161.112215 136.010354 
L 159.975853 146.704347 
L 160.04357 152.832832 
L 160.57659 157.955271 
L 163.86735 169.957482 
L 166.379978 175.217045 
L 171.580143 183.059282 
L 178.54731 190.677973 
L 187.221465 197.959306 
L 193.821745 202.562666 
L 210.986398 212.368017 
L 219.117034 216.30717 
L 229.416428 220.864063 
L 248.758526 228.487503 
" clip-path="url(#p28dc621458)" style="fill: none; stroke: #000000; stroke-width: 2.25"/>
   </g>
   <g id="Line3DCollection_26">
    <path d="M 155.102457 139.139029 
L 153.143816 149.703095 
L 152.677944 160.777539 
L 153.212568 166.352995 
L 154.532079 172.532623 
L 160.208743 185.272649 
L 161.191781 186.783614 
L 172.746168 199.606438 
L 174.39211 201.006631 
L 190.371255 212.039162 
L 199.343625 216.967467 
L 208.043786 221.22369 
L 226.854376 229.248481 
L 246.489896 236.502916 
" clip-path="url(#p28dc621458)" style="fill: none; stroke: #000000; stroke-width: 2.25"/>
   </g>
   <g id="Line3DCollection_27">
    <path d="M 149.122439 142.25222 
L 147.280111 148.67949 
L 146.347832 152.686018 
L 144.824269 163.583739 
L 145.255081 175.09169 
L 146.273491 180.087065 
L 148.916983 187.470515 
L 155.944705 198.48145 
L 158.388681 201.240165 
L 170.201174 211.424116 
L 179.768541 217.621141 
L 186.897516 221.579509 
L 205.085309 230.127108 
L 224.281123 237.669552 
L 231.765473 240.343213 
L 244.213163 244.546955 
" clip-path="url(#p28dc621458)" style="fill: none; stroke: #000000; stroke-width: 2.25"/>
   </g>
   <g id="Line3DCollection_28">
    <path d="M 143.171942 145.350043 
L 139.587617 155.653241 
L 137.015182 166.374006 
L 136.98264 166.563133 
L 136.035813 177.634832 
L 137.704028 189.653041 
L 139.223754 194.040157 
L 144.147573 202.86065 
L 150.637741 210.312798 
L 160.388811 218.268292 
L 165.974041 221.931578 
L 183.400293 231.184354 
L 201.779981 238.950777 
L 202.110839 239.078658 
L 221.696596 246.127516 
L 241.928284 252.619774 
" clip-path="url(#p28dc621458)" style="fill: none; stroke: #000000; stroke-width: 2.25"/>
   </g>
   <g id="Line3DCollection_29">
    <path d="M 137.250749 148.43261 
L 132.86289 158.604888 
L 129.250304 169.148477 
L 126.873736 180.162198 
L 126.427689 184.893944 
L 126.569057 191.820388 
L 130.021435 204.468052 
L 132.060688 208.217553 
L 141.201526 218.909016 
L 145.269858 222.279958 
L 161.710239 232.530189 
L 172.20403 237.577358 
L 179.879346 240.854354 
L 199.120245 248.078732 
L 219.100721 254.622618 
L 239.635216 260.721529 
" clip-path="url(#p28dc621458)" style="fill: none; stroke: #000000; stroke-width: 2.25"/>
   </g>
   <g id="Line3DCollection_30">
    <path d="M 131.358642 151.500035 
L 128.089666 157.697123 
L 126.173371 161.541081 
L 121.529262 171.907285 
L 117.768322 182.673933 
L 115.511258 193.972715 
L 115.605477 203.688907 
L 116.008879 206.06253 
L 122.203835 219.543409 
L 124.781538 222.624706 
L 139.840002 234.385282 
L 143.029284 236.222569 
L 157.409289 243.22114 
L 176.334433 250.590174 
L 196.113395 257.127724 
L 216.493423 263.155102 
L 224.349673 265.347982 
L 237.333914 268.852374 
" clip-path="url(#p28dc621458)" style="fill: none; stroke: #000000; stroke-width: 2.25"/>
   </g>
   <g id="Line3DCollection_31">
    <path d="M 125.495409 154.552429 
L 119.518785 164.461941 
L 113.851686 174.650563 
L 108.719044 185.170183 
L 106.837534 189.638902 
L 104.529833 196.110176 
L 102.108541 207.644238 
L 103.392939 220.171564 
L 104.505723 222.965877 
L 114.247637 234.886036 
L 117.38346 237.267246 
L 134.347093 246.631176 
L 153.070703 254.005642 
L 164.525407 257.834616 
L 172.765309 260.392488 
L 193.090159 266.226034 
L 213.874627 271.725215 
L 235.024333 277.012467 
" clip-path="url(#p28dc621458)" style="fill: none; stroke: #000000; stroke-width: 2.25"/>
   </g>
   <g id="Line3DCollection_32">
    <path d="M 119.660837 157.589902 
L 112.89886 167.367588 
L 106.217208 177.378441 
L 99.725387 187.65109 
L 93.623993 198.232924 
L 88.319078 209.21333 
L 84.766098 220.793573 
L 84.439123 223.303529 
L 85.851195 233.56739 
L 93.117612 242.743638 
L 106.149123 250.503103 
L 109.863515 252.15099 
L 128.790027 259.020104 
L 148.693985 264.884929 
L 169.171726 270.261979 
L 190.050399 275.374068 
L 211.244256 280.333207 
L 232.706431 285.201966 
" clip-path="url(#p28dc621458)" style="fill: none; stroke: #000000; stroke-width: 2.25"/>
   </g>
   <g id="Poly3DCollection_1">
    <path d="M 125.267618 161.938638 
L 132.665497 150.819688 
L 113.854718 160.612562 
z
" clip-path="url(#p28dc621458)" style="fill: #150d08; fill-opacity: 0.9"/>
    <path d="M 113.854718 160.612562 
L 106.313324 170.25814 
L 125.267618 161.938638 
z
" clip-path="url(#p28dc621458)" style="fill: #0a0604; fill-opacity: 0.9"/>
    <path d="M 125.267618 161.938638 
L 106.313324 170.25814 
L 98.625467 180.091048 
z
" clip-path="url(#p28dc621458)" style="fill: #0a0604; fill-opacity: 0.9"/>
    <path d="M 151.776567 140.870483 
L 132.665497 150.819688 
L 144.508198 153.493479 
z
" clip-path="url(#p28dc621458)" style="fill: #382316; fill-opacity: 0.9"/>
    <path d="M 132.665497 150.819688 
L 125.267618 161.938638 
L 144.508198 153.493479 
z
" clip-path="url(#p28dc621458)" style="fill: #2a1b11; fill-opacity: 0.9"/>
    <path d="M 98.625467 180.091048 
L 117.732457 173.263923 
L 125.267618 161.938638 
z
" clip-path="url(#p28dc621458)" style="fill: #130c07; fill-opacity: 0.9"/>
    <path d="M 144.508198 153.493479 
L 171.195177 130.761174 
L 151.776567 140.870483 
z
" clip-path="url(#p28dc621458)" style="fill: #4f3220; fill-opacity: 0.9"/>
    <path d="M 144.508198 153.493479 
L 125.267618 161.938638 
L 117.732457 173.263923 
z
" clip-path="url(#p28dc621458)" style="fill: #281910; fill-opacity: 0.9"/>
    <path d="M 164.041598 144.919792 
L 171.195177 130.761174 
L 144.508198 153.493479 
z
" clip-path="url(#p28dc621458)" style="fill: #563723; fill-opacity: 0.9"/>
    <path d="M 110.056156 184.80134 
L 117.732457 173.263923 
L 98.625467 180.091048 
z
" clip-path="url(#p28dc621458)" style="fill: #100a06; fill-opacity: 0.9"/>
    <path d="M 110.056156 184.80134 
L 98.625467 180.091048 
L 90.786839 190.116796 
z
" clip-path="url(#p28dc621458)" style="fill: #070503; fill-opacity: 0.9"/>
    <path d="M 144.508198 153.493479 
L 117.732457 173.263923 
L 137.11132 166.339655 
z
" clip-path="url(#p28dc621458)" style="fill: #2f1e13; fill-opacity: 0.9"/>
    <path d="M 190.928811 120.487863 
L 171.195177 130.761174 
L 183.874556 136.214624 
z
" clip-path="url(#p28dc621458)" style="fill: #7c4e32; fill-opacity: 0.9"/>
    <path d="M 183.874556 136.214624 
L 171.195177 130.761174 
L 164.041598 144.919792 
z
" clip-path="url(#p28dc621458)" style="fill: #6b442b; fill-opacity: 0.9"/>
    <path d="M 144.508198 153.493479 
L 156.7679 159.316156 
L 164.041598 144.919792 
z
" clip-path="url(#p28dc621458)" style="fill: #4f3220; fill-opacity: 0.9"/>
    <path d="M 137.11132 166.339655 
L 156.7679 159.316156 
L 144.508198 153.493479 
z
" clip-path="url(#p28dc621458)" style="fill: #41291a; fill-opacity: 0.9"/>
    <path d="M 137.11132 166.339655 
L 117.732457 173.263923 
L 129.582495 179.414985 
z
" clip-path="url(#p28dc621458)" style="fill: #2a1b11; fill-opacity: 0.9"/>
    <path d="M 90.786839 190.116796 
L 82.792959 200.341112 
L 110.056156 184.80134 
z
" clip-path="url(#p28dc621458)" style="fill: #070503; fill-opacity: 0.9"/>
    <path d="M 117.732457 173.263923 
L 110.056156 184.80134 
L 129.582495 179.414985 
z
" clip-path="url(#p28dc621458)" style="fill: #20140d; fill-opacity: 0.9"/>
    <path d="M 164.041598 144.919792 
L 156.7679 159.316156 
L 183.874556 136.214624 
z
" clip-path="url(#p28dc621458)" style="fill: #643f28; fill-opacity: 0.9"/>
    <path d="M 190.928811 120.487863 
L 183.874556 136.214624 
L 204.014014 127.374924 
z
" clip-path="url(#p28dc621458)" style="fill: #8c5838; fill-opacity: 0.9"/>
    <path d="M 110.056156 184.80134 
L 82.792959 200.341112 
L 102.234712 196.556905 
z
" clip-path="url(#p28dc621458)" style="fill: #0e0905; fill-opacity: 0.9"/>
    <path d="M 204.014014 127.374924 
L 210.985197 110.046528 
L 190.928811 120.487863 
z
" clip-path="url(#p28dc621458)" style="fill: #9d633f; fill-opacity: 0.9"/>
    <path d="M 149.371032 173.956302 
L 156.7679 159.316156 
L 137.11132 166.339655 
z
" clip-path="url(#p28dc621458)" style="fill: #442b1b; fill-opacity: 0.9"/>
    <path d="M 137.11132 166.339655 
L 129.582495 179.414985 
L 149.371032 173.956302 
z
" clip-path="url(#p28dc621458)" style="fill: #392417; fill-opacity: 0.9"/>
    <path d="M 156.7679 159.316156 
L 176.708211 152.191276 
L 183.874556 136.214624 
z
" clip-path="url(#p28dc621458)" style="fill: #69422a; fill-opacity: 0.9"/>
    <path d="M 121.91816 192.725654 
L 129.582495 179.414985 
L 110.056156 184.80134 
z
" clip-path="url(#p28dc621458)" style="fill: #24170e; fill-opacity: 0.9"/>
    <path d="M 121.91816 192.725654 
L 110.056156 184.80134 
L 102.234712 196.556905 
z
" clip-path="url(#p28dc621458)" style="fill: #1b110b; fill-opacity: 0.9"/>
    <path d="M 204.014014 127.374924 
L 183.874556 136.214624 
L 176.708211 152.191276 
z
" clip-path="url(#p28dc621458)" style="fill: #825234; fill-opacity: 0.9"/>
    <path d="M 204.014014 127.374924 
L 231.372318 99.433012 
L 210.985197 110.046528 
z
" clip-path="url(#p28dc621458)" style="fill: #b47249; fill-opacity: 0.9"/>
    <path d="M 149.371032 173.956302 
L 176.708211 152.191276 
L 156.7679 159.316156 
z
" clip-path="url(#p28dc621458)" style="fill: #563723; fill-opacity: 0.9"/>
    <path d="M 102.234712 196.556905 
L 82.792959 200.341112 
L 94.263969 208.536866 
z
" clip-path="url(#p28dc621458)" style="fill: #0b0704; fill-opacity: 0.9"/>
    <path d="M 94.263969 208.536866 
L 82.792959 200.341112 
L 74.63917 210.769956 
z
" clip-path="url(#p28dc621458)" style="fill: #050302; fill-opacity: 0.9"/>
    <path d="M 121.91816 192.725654 
L 149.371032 173.956302 
L 129.582495 179.414985 
z
" clip-path="url(#p28dc621458)" style="fill: #342115; fill-opacity: 0.9"/>
    <path d="M 204.014014 127.374924 
L 176.708211 152.191276 
L 196.93844 144.962806 
z
" clip-path="url(#p28dc621458)" style="fill: #855436; fill-opacity: 0.9"/>
    <path d="M 102.234712 196.556905 
L 94.263969 208.536866 
L 121.91816 192.725654 
z
" clip-path="url(#p28dc621458)" style="fill: #19100a; fill-opacity: 0.9"/>
    <path d="M 224.467133 118.397551 
L 231.372318 99.433012 
L 204.014014 127.374924 
z
" clip-path="url(#p28dc621458)" style="fill: #b8744a; fill-opacity: 0.9"/>
    <path d="M 169.427084 168.423825 
L 176.708211 152.191276 
L 149.371032 173.956302 
z
" clip-path="url(#p28dc621458)" style="fill: #5a3924; fill-opacity: 0.9"/>
    <path d="M 141.847838 188.846476 
L 149.371032 173.956302 
L 121.91816 192.725654 
z
" clip-path="url(#p28dc621458)" style="fill: #382316; fill-opacity: 0.9"/>
    <path d="M 74.63917 210.769956 
L 66.320624 221.409526 
L 94.263969 208.536866 
z
" clip-path="url(#p28dc621458)" style="fill: #050302; fill-opacity: 0.9"/>
    <path d="M 196.93844 144.962806 
L 217.464957 137.628469 
L 204.014014 127.374924 
z
" clip-path="url(#p28dc621458)" style="fill: #98603d; fill-opacity: 0.9"/>
    <path d="M 204.014014 127.374924 
L 217.464957 137.628469 
L 224.467133 118.397551 
z
" clip-path="url(#p28dc621458)" style="fill: #a86a44; fill-opacity: 0.9"/>
    <path d="M 196.93844 144.962806 
L 176.708211 152.191276 
L 189.756114 162.816046 
z
" clip-path="url(#p28dc621458)" style="fill: #784c30; fill-opacity: 0.9"/>
    <path d="M 189.756114 162.816046 
L 176.708211 152.191276 
L 169.427084 168.423825 
z
" clip-path="url(#p28dc621458)" style="fill: #6a432b; fill-opacity: 0.9"/>
    <path d="M 94.263969 208.536866 
L 114.114624 206.278075 
L 121.91816 192.725654 
z
" clip-path="url(#p28dc621458)" style="fill: #1c120b; fill-opacity: 0.9"/>
    <path d="M 224.467133 118.397551 
L 245.241299 109.279263 
L 231.372318 99.433012 
z
" clip-path="url(#p28dc621458)" style="fill: #cd8253; fill-opacity: 0.9"/>
    <path d="M 231.372318 99.433012 
L 245.241299 109.279263 
L 252.098423 88.643021 
z
" clip-path="url(#p28dc621458)" style="fill: #e18e5b; fill-opacity: 0.9"/>
    <path d="M 149.371032 173.956302 
L 162.028395 184.918466 
L 169.427084 168.423825 
z
" clip-path="url(#p28dc621458)" style="fill: #503320; fill-opacity: 0.9"/>
    <path d="M 149.371032 173.956302 
L 141.847838 188.846476 
L 162.028395 184.918466 
z
" clip-path="url(#p28dc621458)" style="fill: #442b1b; fill-opacity: 0.9"/>
    <path d="M 134.195054 203.993139 
L 141.847838 188.846476 
L 121.91816 192.725654 
z
" clip-path="url(#p28dc621458)" style="fill: #2f1e13; fill-opacity: 0.9"/>
    <path d="M 94.263969 208.536866 
L 66.320624 221.409526 
L 86.139612 220.747707 
z
" clip-path="url(#p28dc621458)" style="fill: #090503; fill-opacity: 0.9"/>
    <path d="M 121.91816 192.725654 
L 114.114624 206.278075 
L 134.195054 203.993139 
z
" clip-path="url(#p28dc621458)" style="fill: #26180f; fill-opacity: 0.9"/>
    <path d="M 114.114624 206.278075 
L 94.263969 208.536866 
L 86.139612 220.747707 
z
" clip-path="url(#p28dc621458)" style="fill: #130c07; fill-opacity: 0.9"/>
    <path d="M 189.756114 162.816046 
L 217.464957 137.628469 
L 196.93844 144.962806 
z
" clip-path="url(#p28dc621458)" style="fill: #8a5738; fill-opacity: 0.9"/>
    <path d="M 162.028395 184.918466 
L 189.756114 162.816046 
L 169.427084 168.423825 
z
" clip-path="url(#p28dc621458)" style="fill: #5f3c26; fill-opacity: 0.9"/>
    <path d="M 245.241299 109.279263 
L 273.172039 77.672117 
L 252.098423 88.643021 
z
" clip-path="url(#p28dc621458)" style="fill: #f89d64; fill-opacity: 0.9"/>
    <path d="M 224.467133 118.397551 
L 217.464957 137.628469 
L 238.294318 130.185923 
z
" clip-path="url(#p28dc621458)" style="fill: #b47249; fill-opacity: 0.9"/>
    <path d="M 238.294318 130.185923 
L 245.241299 109.279263 
L 224.467133 118.397551 
z
" clip-path="url(#p28dc621458)" style="fill: #c77e50; fill-opacity: 0.9"/>
    <path d="M 154.509274 201.6816 
L 162.028395 184.918466 
L 141.847838 188.846476 
z
" clip-path="url(#p28dc621458)" style="fill: #41291a; fill-opacity: 0.9"/>
    <path d="M 114.114624 206.278075 
L 86.139612 220.747707 
L 106.168059 220.078894 
z
" clip-path="url(#p28dc621458)" style="fill: #150d08; fill-opacity: 0.9"/>
    <path d="M 210.363731 157.131419 
L 217.464957 137.628469 
L 189.756114 162.816046 
z
" clip-path="url(#p28dc621458)" style="fill: #8c5838; fill-opacity: 0.9"/>
    <path d="M 141.847838 188.846476 
L 134.195054 203.993139 
L 154.509274 201.6816 
z
" clip-path="url(#p28dc621458)" style="fill: #382316; fill-opacity: 0.9"/>
    <path d="M 182.4646 180.940696 
L 189.756114 162.816046 
L 162.028395 184.918466 
z
" clip-path="url(#p28dc621458)" style="fill: #623e27; fill-opacity: 0.9"/>
    <path d="M 86.139612 220.747707 
L 66.320624 221.409526 
L 77.857156 233.19617 
z
" clip-path="url(#p28dc621458)" style="fill: #060402; fill-opacity: 0.9"/>
    <path d="M 266.34413 100.016715 
L 273.172039 77.672117 
L 245.241299 109.279263 
z
" clip-path="url(#p28dc621458)" style="fill: #fa9e64; fill-opacity: 0.9"/>
    <path d="M 126.409303 219.402975 
L 134.195054 203.993139 
L 114.114624 206.278075 
z
" clip-path="url(#p28dc621458)" style="fill: #25170f; fill-opacity: 0.9"/>
    <path d="M 238.294318 130.185923 
L 217.464957 137.628469 
L 210.363731 157.131419 
z
" clip-path="url(#p28dc621458)" style="fill: #a46842; fill-opacity: 0.9"/>
    <path d="M 77.857156 233.19617 
L 66.320624 221.409526 
L 57.832278 232.266275 
z
" clip-path="url(#p28dc621458)" style="fill: #020201; fill-opacity: 0.9"/>
    <path d="M 266.34413 100.016715 
L 245.241299 109.279263 
L 238.294318 130.185923 
z
" clip-path="url(#p28dc621458)" style="fill: #dc8b59; fill-opacity: 0.9"/>
    <path d="M 106.168059 220.078894 
L 126.409303 219.402975 
L 114.114624 206.278075 
z
" clip-path="url(#p28dc621458)" style="fill: #1e130c; fill-opacity: 0.9"/>
    <path d="M 106.168059 220.078894 
L 86.139612 220.747707 
L 77.857156 233.19617 
z
" clip-path="url(#p28dc621458)" style="fill: #0e0905; fill-opacity: 0.9"/>
    <path d="M 189.756114 162.816046 
L 203.16134 176.912214 
L 210.363731 157.131419 
z
" clip-path="url(#p28dc621458)" style="fill: #7d4f32; fill-opacity: 0.9"/>
    <path d="M 182.4646 180.940696 
L 203.16134 176.912214 
L 189.756114 162.816046 
z
" clip-path="url(#p28dc621458)" style="fill: #6e462c; fill-opacity: 0.9"/>
    <path d="M 162.028395 184.918466 
L 175.061389 199.342991 
L 182.4646 180.940696 
z
" clip-path="url(#p28dc621458)" style="fill: #543522; fill-opacity: 0.9"/>
    <path d="M 154.509274 201.6816 
L 175.061389 199.342991 
L 162.028395 184.918466 
z
" clip-path="url(#p28dc621458)" style="fill: #482d1d; fill-opacity: 0.9"/>
    <path d="M 287.783488 90.606458 
L 273.172039 77.672117 
L 266.34413 100.016715 
z
" clip-path="url(#p28dc621458)" style="fill: #ffab6d; fill-opacity: 0.9"/>
    <path d="M 210.363731 157.131419 
L 231.255703 151.368353 
L 238.294318 130.185923 
z
" clip-path="url(#p28dc621458)" style="fill: #a46842; fill-opacity: 0.9"/>
    <path d="M 294.601978 66.515711 
L 273.172039 77.672117 
L 287.783488 90.606458 
z
" clip-path="url(#p28dc621458)" style="fill: #ffb976; fill-opacity: 0.9"/>
    <path d="M 238.294318 130.185923 
L 259.433276 122.632755 
L 266.34413 100.016715 
z
" clip-path="url(#p28dc621458)" style="fill: #dc8b59; fill-opacity: 0.9"/>
    <path d="M 154.509274 201.6816 
L 134.195054 203.993139 
L 146.866755 218.719836 
z
" clip-path="url(#p28dc621458)" style="fill: #342115; fill-opacity: 0.9"/>
    <path d="M 146.866755 218.719836 
L 134.195054 203.993139 
L 126.409303 219.402975 
z
" clip-path="url(#p28dc621458)" style="fill: #2a1b11; fill-opacity: 0.9"/>
    <path d="M 98.074497 234.135003 
L 106.168059 220.078894 
L 77.857156 233.19617 
z
" clip-path="url(#p28dc621458)" style="fill: #0f0906; fill-opacity: 0.9"/>
    <path d="M 210.363731 157.131419 
L 203.16134 176.912214 
L 231.255703 151.368353 
z
" clip-path="url(#p28dc621458)" style="fill: #8c5838; fill-opacity: 0.9"/>
    <path d="M 57.832278 232.266275 
L 49.168878 243.34692 
L 77.857156 233.19617 
z
" clip-path="url(#p28dc621458)" style="fill: #020201; fill-opacity: 0.9"/>
    <path d="M 126.409303 219.402975 
L 106.168059 220.078894 
L 98.074497 234.135003 
z
" clip-path="url(#p28dc621458)" style="fill: #19100a; fill-opacity: 0.9"/>
    <path d="M 182.4646 180.940696 
L 175.061389 199.342991 
L 203.16134 176.912214 
z
" clip-path="url(#p28dc621458)" style="fill: #623e27; fill-opacity: 0.9"/>
    <path d="M 259.433276 122.632755 
L 287.783488 90.606458 
L 266.34413 100.016715 
z
" clip-path="url(#p28dc621458)" style="fill: #fa9e64; fill-opacity: 0.9"/>
    <path d="M 231.255703 151.368353 
L 252.437956 145.525213 
L 238.294318 130.185923 
z
" clip-path="url(#p28dc621458)" style="fill: #b47249; fill-opacity: 0.9"/>
    <path d="M 146.866755 218.719836 
L 175.061389 199.342991 
L 154.509274 201.6816 
z
" clip-path="url(#p28dc621458)" style="fill: #3e2719; fill-opacity: 0.9"/>
    <path d="M 238.294318 130.185923 
L 252.437956 145.525213 
L 259.433276 122.632755 
z
" clip-path="url(#p28dc621458)" style="fill: #c77e50; fill-opacity: 0.9"/>
    <path d="M 231.255703 151.368353 
L 203.16134 176.912214 
L 224.123629 172.832045 
z
" clip-path="url(#p28dc621458)" style="fill: #8a5738; fill-opacity: 0.9"/>
    <path d="M 77.857156 233.19617 
L 49.168878 243.34692 
L 69.411941 245.889258 
z
" clip-path="url(#p28dc621458)" style="fill: #040201; fill-opacity: 0.9"/>
    <path d="M 98.074497 234.135003 
L 118.48709 235.082903 
L 126.409303 219.402975 
z
" clip-path="url(#p28dc621458)" style="fill: #19100a; fill-opacity: 0.9"/>
    <path d="M 203.16134 176.912214 
L 175.061389 199.342991 
L 195.855604 196.976834 
z
" clip-path="url(#p28dc621458)" style="fill: #5f3c26; fill-opacity: 0.9"/>
    <path d="M 146.866755 218.719836 
L 126.409303 219.402975 
L 118.48709 235.082903 
z
" clip-path="url(#p28dc621458)" style="fill: #23160e; fill-opacity: 0.9"/>
    <path d="M 98.074497 234.135003 
L 77.857156 233.19617 
L 89.829821 248.453552 
z
" clip-path="url(#p28dc621458)" style="fill: #0a0604; fill-opacity: 0.9"/>
    <path d="M 259.433276 122.632755 
L 280.888785 114.96648 
L 287.783488 90.606458 
z
" clip-path="url(#p28dc621458)" style="fill: #f89d64; fill-opacity: 0.9"/>
    <path d="M 252.437956 145.525213 
L 231.255703 151.368353 
L 224.123629 172.832045 
z
" clip-path="url(#p28dc621458)" style="fill: #a26641; fill-opacity: 0.9"/>
    <path d="M 167.543896 218.029361 
L 175.061389 199.342991 
L 146.866755 218.719836 
z
" clip-path="url(#p28dc621458)" style="fill: #3d2618; fill-opacity: 0.9"/>
    <path d="M 280.888785 114.96648 
L 259.433276 122.632755 
L 252.437956 145.525213 
z
" clip-path="url(#p28dc621458)" style="fill: #d88957; fill-opacity: 0.9"/>
    <path d="M 89.829821 248.453552 
L 77.857156 233.19617 
L 69.411941 245.889258 
z
" clip-path="url(#p28dc621458)" style="fill: #060402; fill-opacity: 0.9"/>
    <path d="M 203.16134 176.912214 
L 216.896222 194.582638 
L 224.123629 172.832045 
z
" clip-path="url(#p28dc621458)" style="fill: #784c30; fill-opacity: 0.9"/>
    <path d="M 195.855604 196.976834 
L 216.896222 194.582638 
L 203.16134 176.912214 
z
" clip-path="url(#p28dc621458)" style="fill: #6a432b; fill-opacity: 0.9"/>
    <path d="M 89.829821 248.453552 
L 118.48709 235.082903 
L 98.074497 234.135003 
z
" clip-path="url(#p28dc621458)" style="fill: #0f0906; fill-opacity: 0.9"/>
    <path d="M 146.866755 218.719836 
L 118.48709 235.082903 
L 139.097776 236.040002 
z
" clip-path="url(#p28dc621458)" style="fill: #21150d; fill-opacity: 0.9"/>
    <path d="M 175.061389 199.342991 
L 188.444285 217.331431 
L 195.855604 196.976834 
z
" clip-path="url(#p28dc621458)" style="fill: #503320; fill-opacity: 0.9"/>
    <path d="M 167.543896 218.029361 
L 188.444285 217.331431 
L 175.061389 199.342991 
z
" clip-path="url(#p28dc621458)" style="fill: #442b1b; fill-opacity: 0.9"/>
    <path d="M 224.123629 172.832045 
L 245.356612 168.699187 
L 252.437956 145.525213 
z
" clip-path="url(#p28dc621458)" style="fill: #9f6540; fill-opacity: 0.9"/>
    <path d="M 49.168878 243.34692 
L 60.799122 258.834254 
L 69.411941 245.889258 
z
" clip-path="url(#p28dc621458)" style="fill: #010100; fill-opacity: 0.9"/>
    <path d="M 273.916582 139.600317 
L 280.888785 114.96648 
L 252.437956 145.525213 
z
" clip-path="url(#p28dc621458)" style="fill: #d68756; fill-opacity: 0.9"/>
    <path d="M 146.866755 218.719836 
L 159.909454 237.006434 
L 167.543896 218.029361 
z
" clip-path="url(#p28dc621458)" style="fill: #2f1e13; fill-opacity: 0.9"/>
    <path d="M 139.097776 236.040002 
L 159.909454 237.006434 
L 146.866755 218.719836 
z
" clip-path="url(#p28dc621458)" style="fill: #26180f; fill-opacity: 0.9"/>
    <path d="M 224.123629 172.832045 
L 216.896222 194.582638 
L 245.356612 168.699187 
z
" clip-path="url(#p28dc621458)" style="fill: #855436; fill-opacity: 0.9"/>
    <path d="M 40.324953 254.65846 
L 60.799122 258.834254 
L 49.168878 243.34692 
z
" clip-path="url(#p28dc621458)" style="fill-opacity: 0.9"/>
    <path d="M 89.829821 248.453552 
L 110.424794 251.040087 
L 118.48709 235.082903 
z
" clip-path="url(#p28dc621458)" style="fill: #0e0905; fill-opacity: 0.9"/>
    <path d="M 188.444285 217.331431 
L 216.896222 194.582638 
L 195.855604 196.976834 
z
" clip-path="url(#p28dc621458)" style="fill: #5a3924; fill-opacity: 0.9"/>
    <path d="M 69.411941 245.889258 
L 60.799122 258.834254 
L 89.829821 248.453552 
z
" clip-path="url(#p28dc621458)" style="fill: #040201; fill-opacity: 0.9"/>
    <path d="M 252.437956 145.525213 
L 245.356612 168.699187 
L 266.865567 164.512614 
z
" clip-path="url(#p28dc621458)" style="fill: #ad6d46; fill-opacity: 0.9"/>
    <path d="M 139.097776 236.040002 
L 118.48709 235.082903 
L 131.199172 253.649154 
z
" clip-path="url(#p28dc621458)" style="fill: #160e09; fill-opacity: 0.9"/>
    <path d="M 252.437956 145.525213 
L 266.865567 164.512614 
L 273.916582 139.600317 
z
" clip-path="url(#p28dc621458)" style="fill: #be784d; fill-opacity: 0.9"/>
    <path d="M 167.543896 218.029361 
L 159.909454 237.006434 
L 188.444285 217.331431 
z
" clip-path="url(#p28dc621458)" style="fill: #382316; fill-opacity: 0.9"/>
    <path d="M 118.48709 235.082903 
L 110.424794 251.040087 
L 131.199172 253.649154 
z
" clip-path="url(#p28dc621458)" style="fill: #100a06; fill-opacity: 0.9"/>
    <path d="M 245.356612 168.699187 
L 216.896222 194.582638 
L 238.187648 192.159904 
z
" clip-path="url(#p28dc621458)" style="fill: #825234; fill-opacity: 0.9"/>
    <path d="M 209.571557 216.625924 
L 216.896222 194.582638 
L 188.444285 217.331431 
z
" clip-path="url(#p28dc621458)" style="fill: #563723; fill-opacity: 0.9"/>
    <path d="M 131.199172 253.649154 
L 159.909454 237.006434 
L 139.097776 236.040002 
z
" clip-path="url(#p28dc621458)" style="fill: #1c120b; fill-opacity: 0.9"/>
    <path d="M 89.829821 248.453552 
L 60.799122 258.834254 
L 81.42976 263.04196 
z
" clip-path="url(#p28dc621458)" style="fill: #020201; fill-opacity: 0.9"/>
    <path d="M 102.218667 267.281947 
L 110.424794 251.040087 
L 89.829821 248.453552 
z
" clip-path="url(#p28dc621458)" style="fill: #060402; fill-opacity: 0.9"/>
    <path d="M 188.444285 217.331431 
L 159.909454 237.006434 
L 180.925077 237.982337 
z
" clip-path="url(#p28dc621458)" style="fill: #342115; fill-opacity: 0.9"/>
    <path d="M 238.187648 192.159904 
L 259.734394 189.708117 
L 245.356612 168.699187 
z
" clip-path="url(#p28dc621458)" style="fill: #8c5838; fill-opacity: 0.9"/>
    <path d="M 81.42976 263.04196 
L 102.218667 267.281947 
L 89.829821 248.453552 
z
" clip-path="url(#p28dc621458)" style="fill: #020201; fill-opacity: 0.9"/>
    <path d="M 259.734394 189.708117 
L 266.865567 164.512614 
L 245.356612 168.699187 
z
" clip-path="url(#p28dc621458)" style="fill: #9d633f; fill-opacity: 0.9"/>
    <path d="M 216.896222 194.582638 
L 230.929427 215.912717 
L 238.187648 192.159904 
z
" clip-path="url(#p28dc621458)" style="fill: #6d452c; fill-opacity: 0.9"/>
    <path d="M 209.571557 216.625924 
L 230.929427 215.912717 
L 216.896222 194.582638 
z
" clip-path="url(#p28dc621458)" style="fill: #5e3b26; fill-opacity: 0.9"/>
    <path d="M 188.444285 217.331431 
L 202.147658 238.96785 
L 209.571557 216.625924 
z
" clip-path="url(#p28dc621458)" style="fill: #442b1b; fill-opacity: 0.9"/>
    <path d="M 131.199172 253.649154 
L 110.424794 251.040087 
L 102.218667 267.281947 
z
" clip-path="url(#p28dc621458)" style="fill: #090503; fill-opacity: 0.9"/>
    <path d="M 152.155311 256.281048 
L 159.909454 237.006434 
L 131.199172 253.649154 
z
" clip-path="url(#p28dc621458)" style="fill: #19100a; fill-opacity: 0.9"/>
    <path d="M 180.925077 237.982337 
L 202.147658 238.96785 
L 188.444285 217.331431 
z
" clip-path="url(#p28dc621458)" style="fill: #392417; fill-opacity: 0.9"/>
    <path d="M 159.909454 237.006434 
L 173.295606 258.936071 
L 180.925077 237.982337 
z
" clip-path="url(#p28dc621458)" style="fill: #24170e; fill-opacity: 0.9"/>
    <path d="M 230.929427 215.912717 
L 259.734394 189.708117 
L 238.187648 192.159904 
z
" clip-path="url(#p28dc621458)" style="fill: #774b30; fill-opacity: 0.9"/>
    <path d="M 152.155311 256.281048 
L 173.295606 258.936071 
L 159.909454 237.006434 
z
" clip-path="url(#p28dc621458)" style="fill: #1b110b; fill-opacity: 0.9"/>
    <path d="M 131.199172 253.649154 
L 102.218667 267.281947 
L 123.167672 271.554586 
z
" clip-path="url(#p28dc621458)" style="fill: #050302; fill-opacity: 0.9"/>
    <path d="M 223.580271 239.963117 
L 230.929427 215.912717 
L 209.571557 216.625924 
z
" clip-path="url(#p28dc621458)" style="fill: #4f3220; fill-opacity: 0.9"/>
    <path d="M 131.199172 253.649154 
L 144.278631 275.860256 
L 152.155311 256.281048 
z
" clip-path="url(#p28dc621458)" style="fill: #0b0704; fill-opacity: 0.9"/>
    <path d="M 209.571557 216.625924 
L 202.147658 238.96785 
L 223.580271 239.963117 
z
" clip-path="url(#p28dc621458)" style="fill: #41291a; fill-opacity: 0.9"/>
    <path d="M 230.929427 215.912717 
L 252.521689 215.191683 
L 259.734394 189.708117 
z
" clip-path="url(#p28dc621458)" style="fill: #70472d; fill-opacity: 0.9"/>
    <path d="M 123.167672 271.554586 
L 144.278631 275.860256 
L 131.199172 253.649154 
z
" clip-path="url(#p28dc621458)" style="fill: #050302; fill-opacity: 0.9"/>
    <path d="M 194.622495 261.614528 
L 202.147658 238.96785 
L 180.925077 237.982337 
z
" clip-path="url(#p28dc621458)" style="fill: #2a1b11; fill-opacity: 0.9"/>
    <path d="M 180.925077 237.982337 
L 173.295606 258.936071 
L 194.622495 261.614528 
z
" clip-path="url(#p28dc621458)" style="fill: #20140d; fill-opacity: 0.9"/>
    <path d="M 252.521689 215.191683 
L 230.929427 215.912717 
L 223.580271 239.963117 
z
" clip-path="url(#p28dc621458)" style="fill: #563723; fill-opacity: 0.9"/>
    <path d="M 165.553429 280.199342 
L 173.295606 258.936071 
L 152.155311 256.281048 
z
" clip-path="url(#p28dc621458)" style="fill: #0e0905; fill-opacity: 0.9"/>
    <path d="M 202.147658 238.96785 
L 194.622495 261.614528 
L 223.580271 239.963117 
z
" clip-path="url(#p28dc621458)" style="fill: #2f1e13; fill-opacity: 0.9"/>
    <path d="M 152.155311 256.281048 
L 144.278631 275.860256 
L 165.553429 280.199342 
z
" clip-path="url(#p28dc621458)" style="fill: #060402; fill-opacity: 0.9"/>
    <path d="M 173.295606 258.936071 
L 165.553429 280.199342 
L 194.622495 261.614528 
z
" clip-path="url(#p28dc621458)" style="fill: #100a06; fill-opacity: 0.9"/>
    <path d="M 245.226047 240.968282 
L 252.521689 215.191683 
L 223.580271 239.963117 
z
" clip-path="url(#p28dc621458)" style="fill: #4f3220; fill-opacity: 0.9"/>
    <path d="M 223.580271 239.963117 
L 194.622495 261.614528 
L 216.138461 264.316731 
z
" clip-path="url(#p28dc621458)" style="fill: #281910; fill-opacity: 0.9"/>
    <path d="M 194.622495 261.614528 
L 165.553429 280.199342 
L 186.993982 284.572234 
z
" clip-path="url(#p28dc621458)" style="fill: #090503; fill-opacity: 0.9"/>
    <path d="M 223.580271 239.963117 
L 237.846028 267.042997 
L 245.226047 240.968282 
z
" clip-path="url(#p28dc621458)" style="fill: #382316; fill-opacity: 0.9"/>
    <path d="M 216.138461 264.316731 
L 237.846028 267.042997 
L 223.580271 239.963117 
z
" clip-path="url(#p28dc621458)" style="fill: #2a1b11; fill-opacity: 0.9"/>
    <path d="M 194.622495 261.614528 
L 208.602234 288.979329 
L 216.138461 264.316731 
z
" clip-path="url(#p28dc621458)" style="fill: #130c07; fill-opacity: 0.9"/>
    <path d="M 186.993982 284.572234 
L 208.602234 288.979329 
L 194.622495 261.614528 
z
" clip-path="url(#p28dc621458)" style="fill: #090503; fill-opacity: 0.9"/>
    <path d="M 208.602234 288.979329 
L 237.846028 267.042997 
L 216.138461 264.316731 
z
" clip-path="url(#p28dc621458)" style="fill: #150d08; fill-opacity: 0.9"/>
    <path d="M 230.38016 293.42103 
L 237.846028 267.042997 
L 208.602234 288.979329 
z
" clip-path="url(#p28dc621458)" style="fill: #0b0704; fill-opacity: 0.9"/>
   </g>
   <g id="Line3DCollection_33">
    <path d="M 113.854718 160.612562 
L 106.313324 170.25814 
L 98.625467 180.091048 
L 90.786839 190.116796 
L 82.792959 200.341112 
L 74.63917 210.769956 
L 66.320624 221.409526 
L 57.832278 232.266275 
L 49.168878 243.34692 
L 60.799122 258.834254 
L 81.42976 263.04196 
L 102.218667 267.281947 
L 123.167672 271.554586 
L 144.278631 275.860256 
L 165.553429 280.199342 
L 186.993982 284.572234 
L 208.602234 288.979329 
L 230.38016 293.42103 
" clip-path="url(#p28dc621458)" style="fill: none; stroke: #000000; stroke-width: 2.25"/>
   </g>
  </g>
 </g>
 <defs>
  <clipPath id="p28dc621458">
   <rect x="3.6" y="3.6" width="321.12" height="321.12"/>
  </clipPath>
 </defs>
</svg>
