<?xml version="1.0" encoding="utf-8" standalone="no"?>
<!DOCTYPE svg PUBLIC "-//W3C//DTD SVG 1.1//EN"
  "http://www.w3.org/Graphics/SVG/1.1/DTD/svg11.dtd">
<svg xmlns:xlink="http://www.w3.org/1999/xlink" width="342.291466pt" height="331.760948pt" viewBox="0 0 342.291466 331.760948" xmlns="http://www.w3.org/2000/svg" version="1.1">
 <metadata>
  <rdf:RDF xmlns:dc="http://purl.org/dc/elements/1.1/" xmlns:cc="http://creativecommons.org/ns#" xmlns:rdf="http://www.w3.org/1999/02/22-rdf-syntax-ns#">
   <cc:Work>
    <dc:type rdf:resource="http://purl.org/dc/dcmitype/StillImage"/>
    <dc:date>2022-08-18T01:10:05.792866</dc:date>
    <dc:format>image/svg+xml</dc:format>
    <dc:creator>
     <cc:Agent>
      <dc:title>Matplotlib v3.5.1, https://matplotlib.org/</dc:title>
     </cc:Agent>
    </dc:creator>
   </cc:Work>
  </rdf:RDF>
 </metadata>
 <defs>
  <style type="text/css">*{stroke-linejoin: round; stroke-linecap: butt}</style>
 </defs>
 <g id="figure_1">
  <g id="patch_1">
   <path d="M 0 331.760948 
L 342.291466 331.760948 
L 342.291466 0 
L 0 0 
z
" style="fill: #ffffff"/>
  </g>
  <g id="axes_1">
   <g id="patch_2">
    <path d="M 56.608099 281.107752 
L 328.408099 281.107752 
L 328.408099 9.307752 
L 56.608099 9.307752 
z
" style="fill: #e5e5e5"/>
   </g>
   <g id="matplotlib.axis_1">
    <g id="xtick_1">
     <g id="line2d_1">
      <path d="M 56.608099 281.107752 
L 56.608099 9.307752 
" clip-path="url(#paab9bf6323)" style="fill: none; stroke: #ffffff; stroke-width: 1.5; stroke-linecap: square"/>
     </g>
     <g id="line2d_2">
      <defs>
       <path id="m00d214da53" d="M 0 0 
L 0 9 
" style="stroke: #555555; stroke-width: 1.875"/>
      </defs>
      <g>
       <use xlink:href="#m00d214da53" x="56.608099" y="281.107752" style="fill: #555555; stroke: #555555; stroke-width: 1.875"/>
      </g>
     </g>
     <g id="text_1">
      <!-- $\mathdefault{0.0}$ -->
      <g style="fill: #555555" transform="translate(46.324732 305.023257)scale(0.165 -0.165)">
       <defs>
        <path id="CMR17-30" d="M 2688 2025 
C 2688 2416 2682 3080 2413 3591 
C 2176 4039 1798 4198 1466 4198 
C 1158 4198 768 4058 525 3597 
C 269 3118 243 2524 243 2025 
C 243 1661 250 1106 448 619 
C 723 -39 1216 -128 1466 -128 
C 1760 -128 2208 -7 2470 600 
C 2662 1042 2688 1559 2688 2025 
z
M 1466 -26 
C 1056 -26 813 325 723 812 
C 653 1188 653 1738 653 2096 
C 653 2588 653 2997 736 3387 
C 858 3929 1216 4096 1466 4096 
C 1728 4096 2067 3923 2189 3400 
C 2272 3036 2278 2607 2278 2096 
C 2278 1680 2278 1169 2202 792 
C 2067 95 1690 -26 1466 -26 
z
" transform="scale(0.015625)"/>
        <path id="CMMI12-3a" d="M 1178 307 
C 1178 492 1024 619 870 619 
C 685 619 557 466 557 313 
C 557 128 710 0 864 0 
C 1050 0 1178 153 1178 307 
z
" transform="scale(0.015625)"/>
       </defs>
       <use xlink:href="#CMR17-30" transform="scale(0.996264)"/>
       <use xlink:href="#CMMI12-3a" transform="translate(45.690477 0)scale(0.996264)"/>
       <use xlink:href="#CMR17-30" transform="translate(72.787654 0)scale(0.996264)"/>
      </g>
     </g>
    </g>
    <g id="xtick_2">
     <g id="line2d_3">
      <path d="M 110.968099 281.107752 
L 110.968099 9.307752 
" clip-path="url(#paab9bf6323)" style="fill: none; stroke: #ffffff; stroke-width: 1.5; stroke-linecap: square"/>
     </g>
     <g id="line2d_4">
      <g>
       <use xlink:href="#m00d214da53" x="110.968099" y="281.107752" style="fill: #555555; stroke: #555555; stroke-width: 1.875"/>
      </g>
     </g>
     <g id="text_2">
      <!-- $\mathdefault{0.2}$ -->
      <g style="fill: #555555" transform="translate(100.684732 305.023257)scale(0.165 -0.165)">
       <defs>
        <path id="CMR17-32" d="M 2669 989 
L 2554 989 
C 2490 536 2438 459 2413 420 
C 2381 369 1920 369 1830 369 
L 602 369 
C 832 619 1280 1072 1824 1597 
C 2214 1967 2669 2402 2669 3035 
C 2669 3790 2067 4224 1395 4224 
C 691 4224 262 3604 262 3030 
C 262 2780 448 2748 525 2748 
C 589 2748 781 2787 781 3010 
C 781 3207 614 3264 525 3264 
C 486 3264 448 3258 422 3245 
C 544 3790 915 4058 1306 4058 
C 1862 4058 2227 3617 2227 3035 
C 2227 2479 1901 2000 1536 1584 
L 262 146 
L 262 0 
L 2515 0 
L 2669 989 
z
" transform="scale(0.015625)"/>
       </defs>
       <use xlink:href="#CMR17-30" transform="scale(0.996264)"/>
       <use xlink:href="#CMMI12-3a" transform="translate(45.690477 0)scale(0.996264)"/>
       <use xlink:href="#CMR17-32" transform="translate(72.787654 0)scale(0.996264)"/>
      </g>
     </g>
    </g>
    <g id="xtick_3">
     <g id="line2d_5">
      <path d="M 165.328099 281.107752 
L 165.328099 9.307752 
" clip-path="url(#paab9bf6323)" style="fill: none; stroke: #ffffff; stroke-width: 1.5; stroke-linecap: square"/>
     </g>
     <g id="line2d_6">
      <g>
       <use xlink:href="#m00d214da53" x="165.328099" y="281.107752" style="fill: #555555; stroke: #555555; stroke-width: 1.875"/>
      </g>
     </g>
     <g id="text_3">
      <!-- $\mathdefault{0.4}$ -->
      <g style="fill: #555555" transform="translate(155.044732 305.023257)scale(0.165 -0.165)">
       <defs>
        <path id="CMR17-34" d="M 2150 4122 
C 2150 4256 2144 4256 2029 4256 
L 128 1254 
L 128 1088 
L 1779 1088 
L 1779 457 
C 1779 224 1766 160 1318 160 
L 1197 160 
L 1197 0 
C 1402 0 1747 0 1965 0 
C 2182 0 2528 0 2733 0 
L 2733 160 
L 2611 160 
C 2163 160 2150 224 2150 457 
L 2150 1088 
L 2803 1088 
L 2803 1254 
L 2150 1254 
L 2150 4122 
z
M 1798 3703 
L 1798 1254 
L 256 1254 
L 1798 3703 
z
" transform="scale(0.015625)"/>
       </defs>
       <use xlink:href="#CMR17-30" transform="scale(0.996264)"/>
       <use xlink:href="#CMMI12-3a" transform="translate(45.690477 0)scale(0.996264)"/>
       <use xlink:href="#CMR17-34" transform="translate(72.787654 0)scale(0.996264)"/>
      </g>
     </g>
    </g>
    <g id="xtick_4">
     <g id="line2d_7">
      <path d="M 219.688099 281.107752 
L 219.688099 9.307752 
" clip-path="url(#paab9bf6323)" style="fill: none; stroke: #ffffff; stroke-width: 1.5; stroke-linecap: square"/>
     </g>
     <g id="line2d_8">
      <g>
       <use xlink:href="#m00d214da53" x="219.688099" y="281.107752" style="fill: #555555; stroke: #555555; stroke-width: 1.875"/>
      </g>
     </g>
     <g id="text_4">
      <!-- $\mathdefault{0.6}$ -->
      <g style="fill: #555555" transform="translate(209.404732 305.023257)scale(0.165 -0.165)">
       <defs>
        <path id="CMR17-36" d="M 678 2176 
C 678 3690 1395 4032 1811 4032 
C 1946 4032 2272 4009 2400 3776 
C 2298 3776 2106 3776 2106 3553 
C 2106 3381 2246 3323 2336 3323 
C 2394 3323 2566 3348 2566 3560 
C 2566 3954 2246 4179 1805 4179 
C 1043 4179 243 3390 243 1984 
C 243 253 966 -128 1478 -128 
C 2099 -128 2688 427 2688 1283 
C 2688 2081 2170 2662 1517 2662 
C 1126 2662 838 2407 678 1960 
L 678 2176 
z
M 1478 25 
C 691 25 691 1200 691 1436 
C 691 1896 909 2560 1504 2560 
C 1613 2560 1926 2560 2138 2120 
C 2253 1870 2253 1609 2253 1289 
C 2253 944 2253 690 2118 434 
C 1978 171 1773 25 1478 25 
z
" transform="scale(0.015625)"/>
       </defs>
       <use xlink:href="#CMR17-30" transform="scale(0.996264)"/>
       <use xlink:href="#CMMI12-3a" transform="translate(45.690477 0)scale(0.996264)"/>
       <use xlink:href="#CMR17-36" transform="translate(72.787654 0)scale(0.996264)"/>
      </g>
     </g>
    </g>
    <g id="xtick_5">
     <g id="line2d_9">
      <path d="M 274.048099 281.107752 
L 274.048099 9.307752 
" clip-path="url(#paab9bf6323)" style="fill: none; stroke: #ffffff; stroke-width: 1.5; stroke-linecap: square"/>
     </g>
     <g id="line2d_10">
      <g>
       <use xlink:href="#m00d214da53" x="274.048099" y="281.107752" style="fill: #555555; stroke: #555555; stroke-width: 1.875"/>
      </g>
     </g>
     <g id="text_5">
      <!-- $\mathdefault{0.8}$ -->
      <g style="fill: #555555" transform="translate(263.764732 305.023257)scale(0.165 -0.165)">
       <defs>
        <path id="CMR17-38" d="M 1741 2264 
C 2144 2467 2554 2773 2554 3263 
C 2554 3841 1990 4179 1472 4179 
C 890 4179 378 3759 378 3180 
C 378 3021 416 2747 666 2505 
C 730 2442 998 2251 1171 2130 
C 883 1983 211 1634 211 934 
C 211 279 838 -128 1459 -128 
C 2144 -128 2720 362 2720 1010 
C 2720 1590 2330 1857 2074 2029 
L 1741 2264 
z
M 902 2822 
C 851 2854 595 3051 595 3351 
C 595 3739 998 4032 1459 4032 
C 1965 4032 2336 3676 2336 3262 
C 2336 2669 1670 2331 1638 2331 
C 1632 2331 1626 2331 1574 2370 
L 902 2822 
z
M 2080 1519 
C 2176 1449 2483 1240 2483 851 
C 2483 381 2010 25 1472 25 
C 890 25 448 438 448 940 
C 448 1443 838 1862 1280 2060 
L 2080 1519 
z
" transform="scale(0.015625)"/>
       </defs>
       <use xlink:href="#CMR17-30" transform="scale(0.996264)"/>
       <use xlink:href="#CMMI12-3a" transform="translate(45.690477 0)scale(0.996264)"/>
       <use xlink:href="#CMR17-38" transform="translate(72.787654 0)scale(0.996264)"/>
      </g>
     </g>
    </g>
    <g id="xtick_6">
     <g id="line2d_11">
      <path d="M 328.408099 281.107752 
L 328.408099 9.307752 
" clip-path="url(#paab9bf6323)" style="fill: none; stroke: #ffffff; stroke-width: 1.5; stroke-linecap: square"/>
     </g>
     <g id="line2d_12">
      <g>
       <use xlink:href="#m00d214da53" x="328.408099" y="281.107752" style="fill: #555555; stroke: #555555; stroke-width: 1.875"/>
      </g>
     </g>
     <g id="text_6">
      <!-- $\mathdefault{1.0}$ -->
      <g style="fill: #555555" transform="translate(318.124732 305.023257)scale(0.165 -0.165)">
       <defs>
        <path id="CMR17-31" d="M 1702 4058 
C 1702 4192 1696 4192 1606 4192 
C 1357 3916 979 3827 621 3827 
C 602 3827 570 3827 563 3808 
C 557 3795 557 3782 557 3648 
C 755 3648 1088 3686 1344 3839 
L 1344 461 
C 1344 236 1331 160 781 160 
L 589 160 
L 589 0 
C 896 0 1216 0 1523 0 
C 1830 0 2150 0 2458 0 
L 2458 160 
L 2266 160 
C 1715 160 1702 230 1702 458 
L 1702 4058 
z
" transform="scale(0.015625)"/>
       </defs>
       <use xlink:href="#CMR17-31" transform="scale(0.996264)"/>
       <use xlink:href="#CMMI12-3a" transform="translate(45.690477 0)scale(0.996264)"/>
       <use xlink:href="#CMR17-30" transform="translate(72.787654 0)scale(0.996264)"/>
      </g>
     </g>
    </g>
    <g id="xtick_7">
     <g id="line2d_13">
      <defs>
       <path id="ma6e9165eed" d="M 0 0 
L 0 6 
" style="stroke: #555555; stroke-width: 1.5"/>
      </defs>
      <g>
       <use xlink:href="#ma6e9165eed" x="70.198099" y="281.107752" style="fill: #555555; stroke: #555555; stroke-width: 1.5"/>
      </g>
     </g>
    </g>
    <g id="xtick_8">
     <g id="line2d_14">
      <g>
       <use xlink:href="#ma6e9165eed" x="83.788099" y="281.107752" style="fill: #555555; stroke: #555555; stroke-width: 1.5"/>
      </g>
     </g>
    </g>
    <g id="xtick_9">
     <g id="line2d_15">
      <g>
       <use xlink:href="#ma6e9165eed" x="97.378099" y="281.107752" style="fill: #555555; stroke: #555555; stroke-width: 1.5"/>
      </g>
     </g>
    </g>
    <g id="xtick_10">
     <g id="line2d_16">
      <g>
       <use xlink:href="#ma6e9165eed" x="124.558099" y="281.107752" style="fill: #555555; stroke: #555555; stroke-width: 1.5"/>
      </g>
     </g>
    </g>
    <g id="xtick_11">
     <g id="line2d_17">
      <g>
       <use xlink:href="#ma6e9165eed" x="138.148099" y="281.107752" style="fill: #555555; stroke: #555555; stroke-width: 1.5"/>
      </g>
     </g>
    </g>
    <g id="xtick_12">
     <g id="line2d_18">
      <g>
       <use xlink:href="#ma6e9165eed" x="151.738099" y="281.107752" style="fill: #555555; stroke: #555555; stroke-width: 1.5"/>
      </g>
     </g>
    </g>
    <g id="xtick_13">
     <g id="line2d_19">
      <g>
       <use xlink:href="#ma6e9165eed" x="178.918099" y="281.107752" style="fill: #555555; stroke: #555555; stroke-width: 1.5"/>
      </g>
     </g>
    </g>
    <g id="xtick_14">
     <g id="line2d_20">
      <g>
       <use xlink:href="#ma6e9165eed" x="192.508099" y="281.107752" style="fill: #555555; stroke: #555555; stroke-width: 1.5"/>
      </g>
     </g>
    </g>
    <g id="xtick_15">
     <g id="line2d_21">
      <g>
       <use xlink:href="#ma6e9165eed" x="206.098099" y="281.107752" style="fill: #555555; stroke: #555555; stroke-width: 1.5"/>
      </g>
     </g>
    </g>
    <g id="xtick_16">
     <g id="line2d_22">
      <g>
       <use xlink:href="#ma6e9165eed" x="233.278099" y="281.107752" style="fill: #555555; stroke: #555555; stroke-width: 1.5"/>
      </g>
     </g>
    </g>
    <g id="xtick_17">
     <g id="line2d_23">
      <g>
       <use xlink:href="#ma6e9165eed" x="246.868099" y="281.107752" style="fill: #555555; stroke: #555555; stroke-width: 1.5"/>
      </g>
     </g>
    </g>
    <g id="xtick_18">
     <g id="line2d_24">
      <g>
       <use xlink:href="#ma6e9165eed" x="260.458099" y="281.107752" style="fill: #555555; stroke: #555555; stroke-width: 1.5"/>
      </g>
     </g>
    </g>
    <g id="xtick_19">
     <g id="line2d_25">
      <g>
       <use xlink:href="#ma6e9165eed" x="287.638099" y="281.107752" style="fill: #555555; stroke: #555555; stroke-width: 1.5"/>
      </g>
     </g>
    </g>
    <g id="xtick_20">
     <g id="line2d_26">
      <g>
       <use xlink:href="#ma6e9165eed" x="301.228099" y="281.107752" style="fill: #555555; stroke: #555555; stroke-width: 1.5"/>
      </g>
     </g>
    </g>
    <g id="xtick_21">
     <g id="line2d_27">
      <g>
       <use xlink:href="#ma6e9165eed" x="314.818099" y="281.107752" style="fill: #555555; stroke: #555555; stroke-width: 1.5"/>
      </g>
     </g>
    </g>
    <g id="text_7">
     <!-- $u$ -->
     <g style="fill: #555555" transform="translate(187.511273 324.672884)scale(0.18 -0.18)">
      <defs>
       <path id="CMMI12-75" d="M 2182 370 
C 2266 13 2573 -64 2726 -64 
C 2931 -64 3085 70 3187 287 
C 3296 517 3379 894 3379 913 
C 3379 945 3354 971 3315 971 
C 3258 971 3251 939 3226 843 
C 3110 402 2995 64 2739 64 
C 2547 64 2547 275 2547 358 
C 2547 505 2566 568 2630 837 
C 2675 1009 2720 1181 2758 1360 
L 3021 2401 
C 3066 2561 3066 2574 3066 2593 
C 3066 2689 2989 2753 2893 2753 
C 2707 2753 2662 2593 2624 2433 
C 2560 2184 2214 811 2170 588 
C 2163 588 1914 64 1446 64 
C 1114 64 1050 351 1050 588 
C 1050 952 1229 1462 1395 1890 
C 1472 2095 1504 2178 1504 2305 
C 1504 2580 1306 2816 998 2816 
C 410 2816 173 1890 173 1839 
C 173 1814 198 1782 243 1782 
C 301 1782 307 1807 333 1896 
C 486 2441 736 2682 979 2682 
C 1043 2682 1146 2682 1146 2478 
C 1146 2312 1075 2127 979 1884 
C 698 1124 666 881 666 690 
C 666 38 1158 -64 1421 -64 
C 1830 -64 2054 217 2182 370 
z
" transform="scale(0.015625)"/>
      </defs>
      <use xlink:href="#CMMI12-75" transform="scale(0.996264)"/>
     </g>
    </g>
   </g>
   <g id="matplotlib.axis_2">
    <g id="ytick_1">
     <g id="line2d_28">
      <path d="M 56.608099 281.107752 
L 328.408099 281.107752 
" clip-path="url(#paab9bf6323)" style="fill: none; stroke: #ffffff; stroke-width: 1.5; stroke-linecap: square"/>
     </g>
     <g id="line2d_29">
      <defs>
       <path id="m9bf0fbc23a" d="M 0 0 
L -9 0 
" style="stroke: #555555; stroke-width: 1.875"/>
      </defs>
      <g>
       <use xlink:href="#m9bf0fbc23a" x="56.608099" y="281.107752" style="fill: #555555; stroke: #555555; stroke-width: 1.875"/>
      </g>
     </g>
     <g id="text_8">
      <!-- $\mathdefault{0.0}$ -->
      <g style="fill: #555555" transform="translate(23.541364 286.815505)scale(0.165 -0.165)">
       <use xlink:href="#CMR17-30" transform="scale(0.996264)"/>
       <use xlink:href="#CMMI12-3a" transform="translate(45.690477 0)scale(0.996264)"/>
       <use xlink:href="#CMR17-30" transform="translate(72.787654 0)scale(0.996264)"/>
      </g>
     </g>
    </g>
    <g id="ytick_2">
     <g id="line2d_30">
      <path d="M 56.608099 226.747752 
L 328.408099 226.747752 
" clip-path="url(#paab9bf6323)" style="fill: none; stroke: #ffffff; stroke-width: 1.5; stroke-linecap: square"/>
     </g>
     <g id="line2d_31">
      <g>
       <use xlink:href="#m9bf0fbc23a" x="56.608099" y="226.747752" style="fill: #555555; stroke: #555555; stroke-width: 1.875"/>
      </g>
     </g>
     <g id="text_9">
      <!-- $\mathdefault{0.2}$ -->
      <g style="fill: #555555" transform="translate(23.541364 232.455505)scale(0.165 -0.165)">
       <use xlink:href="#CMR17-30" transform="scale(0.996264)"/>
       <use xlink:href="#CMMI12-3a" transform="translate(45.690477 0)scale(0.996264)"/>
       <use xlink:href="#CMR17-32" transform="translate(72.787654 0)scale(0.996264)"/>
      </g>
     </g>
    </g>
    <g id="ytick_3">
     <g id="line2d_32">
      <path d="M 56.608099 172.387752 
L 328.408099 172.387752 
" clip-path="url(#paab9bf6323)" style="fill: none; stroke: #ffffff; stroke-width: 1.5; stroke-linecap: square"/>
     </g>
     <g id="line2d_33">
      <g>
       <use xlink:href="#m9bf0fbc23a" x="56.608099" y="172.387752" style="fill: #555555; stroke: #555555; stroke-width: 1.875"/>
      </g>
     </g>
     <g id="text_10">
      <!-- $\mathdefault{0.4}$ -->
      <g style="fill: #555555" transform="translate(23.541364 178.095505)scale(0.165 -0.165)">
       <use xlink:href="#CMR17-30" transform="scale(0.996264)"/>
       <use xlink:href="#CMMI12-3a" transform="translate(45.690477 0)scale(0.996264)"/>
       <use xlink:href="#CMR17-34" transform="translate(72.787654 0)scale(0.996264)"/>
      </g>
     </g>
    </g>
    <g id="ytick_4">
     <g id="line2d_34">
      <path d="M 56.608099 118.027752 
L 328.408099 118.027752 
" clip-path="url(#paab9bf6323)" style="fill: none; stroke: #ffffff; stroke-width: 1.5; stroke-linecap: square"/>
     </g>
     <g id="line2d_35">
      <g>
       <use xlink:href="#m9bf0fbc23a" x="56.608099" y="118.027752" style="fill: #555555; stroke: #555555; stroke-width: 1.875"/>
      </g>
     </g>
     <g id="text_11">
      <!-- $\mathdefault{0.6}$ -->
      <g style="fill: #555555" transform="translate(23.541364 123.735505)scale(0.165 -0.165)">
       <use xlink:href="#CMR17-30" transform="scale(0.996264)"/>
       <use xlink:href="#CMMI12-3a" transform="translate(45.690477 0)scale(0.996264)"/>
       <use xlink:href="#CMR17-36" transform="translate(72.787654 0)scale(0.996264)"/>
      </g>
     </g>
    </g>
    <g id="ytick_5">
     <g id="line2d_36">
      <path d="M 56.608099 63.667752 
L 328.408099 63.667752 
" clip-path="url(#paab9bf6323)" style="fill: none; stroke: #ffffff; stroke-width: 1.5; stroke-linecap: square"/>
     </g>
     <g id="line2d_37">
      <g>
       <use xlink:href="#m9bf0fbc23a" x="56.608099" y="63.667752" style="fill: #555555; stroke: #555555; stroke-width: 1.875"/>
      </g>
     </g>
     <g id="text_12">
      <!-- $\mathdefault{0.8}$ -->
      <g style="fill: #555555" transform="translate(23.541364 69.375505)scale(0.165 -0.165)">
       <use xlink:href="#CMR17-30" transform="scale(0.996264)"/>
       <use xlink:href="#CMMI12-3a" transform="translate(45.690477 0)scale(0.996264)"/>
       <use xlink:href="#CMR17-38" transform="translate(72.787654 0)scale(0.996264)"/>
      </g>
     </g>
    </g>
    <g id="ytick_6">
     <g id="line2d_38">
      <path d="M 56.608099 9.307752 
L 328.408099 9.307752 
" clip-path="url(#paab9bf6323)" style="fill: none; stroke: #ffffff; stroke-width: 1.5; stroke-linecap: square"/>
     </g>
     <g id="line2d_39">
      <g>
       <use xlink:href="#m9bf0fbc23a" x="56.608099" y="9.307752" style="fill: #555555; stroke: #555555; stroke-width: 1.875"/>
      </g>
     </g>
     <g id="text_13">
      <!-- $\mathdefault{1.0}$ -->
      <g style="fill: #555555" transform="translate(23.541364 15.015505)scale(0.165 -0.165)">
       <use xlink:href="#CMR17-31" transform="scale(0.996264)"/>
       <use xlink:href="#CMMI12-3a" transform="translate(45.690477 0)scale(0.996264)"/>
       <use xlink:href="#CMR17-30" transform="translate(72.787654 0)scale(0.996264)"/>
      </g>
     </g>
    </g>
    <g id="ytick_7">
     <g id="line2d_40">
      <defs>
       <path id="me7d7c8513d" d="M 0 0 
L -6 0 
" style="stroke: #555555; stroke-width: 1.5"/>
      </defs>
      <g>
       <use xlink:href="#me7d7c8513d" x="56.608099" y="267.517752" style="fill: #555555; stroke: #555555; stroke-width: 1.5"/>
      </g>
     </g>
    </g>
    <g id="ytick_8">
     <g id="line2d_41">
      <g>
       <use xlink:href="#me7d7c8513d" x="56.608099" y="253.927752" style="fill: #555555; stroke: #555555; stroke-width: 1.5"/>
      </g>
     </g>
    </g>
    <g id="ytick_9">
     <g id="line2d_42">
      <g>
       <use xlink:href="#me7d7c8513d" x="56.608099" y="240.337752" style="fill: #555555; stroke: #555555; stroke-width: 1.5"/>
      </g>
     </g>
    </g>
    <g id="ytick_10">
     <g id="line2d_43">
      <g>
       <use xlink:href="#me7d7c8513d" x="56.608099" y="213.157752" style="fill: #555555; stroke: #555555; stroke-width: 1.5"/>
      </g>
     </g>
    </g>
    <g id="ytick_11">
     <g id="line2d_44">
      <g>
       <use xlink:href="#me7d7c8513d" x="56.608099" y="199.567752" style="fill: #555555; stroke: #555555; stroke-width: 1.5"/>
      </g>
     </g>
    </g>
    <g id="ytick_12">
     <g id="line2d_45">
      <g>
       <use xlink:href="#me7d7c8513d" x="56.608099" y="185.977752" style="fill: #555555; stroke: #555555; stroke-width: 1.5"/>
      </g>
     </g>
    </g>
    <g id="ytick_13">
     <g id="line2d_46">
      <g>
       <use xlink:href="#me7d7c8513d" x="56.608099" y="158.797752" style="fill: #555555; stroke: #555555; stroke-width: 1.5"/>
      </g>
     </g>
    </g>
    <g id="ytick_14">
     <g id="line2d_47">
      <g>
       <use xlink:href="#me7d7c8513d" x="56.608099" y="145.207752" style="fill: #555555; stroke: #555555; stroke-width: 1.5"/>
      </g>
     </g>
    </g>
    <g id="ytick_15">
     <g id="line2d_48">
      <g>
       <use xlink:href="#me7d7c8513d" x="56.608099" y="131.617752" style="fill: #555555; stroke: #555555; stroke-width: 1.5"/>
      </g>
     </g>
    </g>
    <g id="ytick_16">
     <g id="line2d_49">
      <g>
       <use xlink:href="#me7d7c8513d" x="56.608099" y="104.437752" style="fill: #555555; stroke: #555555; stroke-width: 1.5"/>
      </g>
     </g>
    </g>
    <g id="ytick_17">
     <g id="line2d_50">
      <g>
       <use xlink:href="#me7d7c8513d" x="56.608099" y="90.847752" style="fill: #555555; stroke: #555555; stroke-width: 1.5"/>
      </g>
     </g>
    </g>
    <g id="ytick_18">
     <g id="line2d_51">
      <g>
       <use xlink:href="#me7d7c8513d" x="56.608099" y="77.257752" style="fill: #555555; stroke: #555555; stroke-width: 1.5"/>
      </g>
     </g>
    </g>
    <g id="ytick_19">
     <g id="line2d_52">
      <g>
       <use xlink:href="#me7d7c8513d" x="56.608099" y="50.077752" style="fill: #555555; stroke: #555555; stroke-width: 1.5"/>
      </g>
     </g>
    </g>
    <g id="ytick_20">
     <g id="line2d_53">
      <g>
       <use xlink:href="#me7d7c8513d" x="56.608099" y="36.487752" style="fill: #555555; stroke: #555555; stroke-width: 1.5"/>
      </g>
     </g>
    </g>
    <g id="ytick_21">
     <g id="line2d_54">
      <g>
       <use xlink:href="#me7d7c8513d" x="56.608099" y="22.897752" style="fill: #555555; stroke: #555555; stroke-width: 1.5"/>
      </g>
     </g>
    </g>
    <g id="text_14">
     <!-- $v$ -->
     <g style="fill: #555555" transform="translate(16.0533 149.452204)rotate(-90)scale(0.18 -0.18)">
      <defs>
       <path id="CMMI12-76" d="M 2925 2389 
C 2925 2791 2720 2816 2669 2816 
C 2515 2816 2374 2663 2374 2535 
C 2374 2459 2419 2414 2445 2389 
C 2509 2331 2675 2159 2675 1827 
C 2675 1558 2291 64 1523 64 
C 1133 64 1056 390 1056 626 
C 1056 945 1203 1392 1376 1852 
C 1478 2114 1504 2178 1504 2305 
C 1504 2574 1312 2816 998 2816 
C 410 2816 173 1890 173 1839 
C 173 1814 198 1782 243 1782 
C 301 1782 307 1807 333 1897 
C 486 2446 736 2689 979 2689 
C 1037 2689 1146 2689 1146 2478 
C 1146 2312 1075 2127 979 1884 
C 672 1067 672 869 672 715 
C 672 575 691 313 890 134 
C 1120 -64 1440 -64 1498 -64 
C 2560 -64 2925 2024 2925 2389 
z
" transform="scale(0.015625)"/>
      </defs>
      <use xlink:href="#CMMI12-76" transform="scale(0.996264)"/>
     </g>
    </g>
   </g>
   <g id="PathCollection_1"/>
   <g id="PathCollection_2">
    <path d="M 177.307542 272.953752 
L 182.681484 271.981517 
L 189.23256 270.808597 
L 195.783637 269.630078 
L 202.334714 268.443774 
L 208.885791 267.247802 
L 213.566113 266.402675 
L 215.436868 265.963583 
L 221.987945 264.477155 
L 228.539022 262.955483 
L 235.090099 261.386713 
L 239.879043 260.199642 
" clip-path="url(#paab9bf6323)" style="fill: none; stroke: #23160e; stroke-width: 2.25"/>
    <path d="M 256.484434 255.15603 
L 261.294407 253.485421 
L 261.820921 253.300522 
L 267.845484 250.749983 
L 274.39656 247.461617 
L 275.679248 246.749445 
L 280.947637 243.204419 
L 284.587117 240.198368 
L 287.498714 237.286771 
L 290.504765 233.647291 
L 294.049791 228.378901 
L 294.761964 227.096214 
L 298.05033 220.545137 
L 300.600868 214.520574 
L 300.785767 213.99406 
L 303.0611 207.442983 
L 305.124908 200.891906 
L 307.04418 194.340829 
L 307.151945 193.982793 
L 308.68706 187.789752 
L 310.25583 181.238675 
L 311.777501 174.687599 
L 313.263929 168.136522 
L 313.703022 166.265767 
L 314.548149 161.585445 
L 315.744121 155.034368 
L 316.930425 148.483291 
L 318.108944 141.932214 
L 319.281863 135.381137 
L 320.254099 130.007196 
" clip-path="url(#paab9bf6323)" style="fill: none; stroke: #23160e; stroke-width: 2.25"/>
    <path d="M 320.254099 263.520466 
L 316.578201 266.402675 
L 313.703022 269.277855 
L 310.820812 272.953752 
" clip-path="url(#paab9bf6323)" style="fill: none; stroke: #23160e; stroke-width: 2.25"/>
    <path d="M 64.762099 26.895039 
L 68.437997 24.012829 
L 71.313176 21.13765 
L 74.195386 17.461752 
" clip-path="url(#paab9bf6323)" style="fill: none; stroke: #23160e; stroke-width: 2.25"/>
    <path d="M 207.708656 17.461752 
L 202.334714 18.433988 
L 195.783637 19.606907 
L 189.23256 20.785427 
L 182.681484 21.971731 
L 176.130407 23.167703 
L 171.450085 24.012829 
L 169.57933 24.451922 
L 163.028253 25.93835 
L 156.477176 27.460022 
L 149.926099 29.028791 
L 145.137155 30.215862 
" clip-path="url(#paab9bf6323)" style="fill: none; stroke: #23160e; stroke-width: 2.25"/>
    <path d="M 128.531764 35.259475 
L 123.721791 36.930084 
L 123.195277 37.114983 
L 117.170714 39.665522 
L 110.619637 42.953888 
L 109.33695 43.66606 
L 104.06856 47.211086 
L 100.429081 50.217137 
L 97.517484 53.128734 
L 94.511433 56.768214 
L 90.966407 62.036604 
L 90.254234 63.319291 
L 86.965868 69.870368 
L 84.41533 75.89493 
L 84.23043 76.421445 
L 81.955098 82.972522 
L 79.89129 89.523599 
L 77.972018 96.074675 
L 77.864253 96.432712 
L 76.329138 102.625752 
L 74.760368 109.176829 
L 73.238697 115.727906 
L 71.752269 122.278983 
L 71.313176 124.149738 
L 70.468049 128.83006 
L 69.272077 135.381137 
L 68.085773 141.932214 
L 66.907254 148.483291 
L 65.734335 155.034368 
L 64.762099 160.408309 
" clip-path="url(#paab9bf6323)" style="fill: none; stroke: #23160e; stroke-width: 2.25"/>
   </g>
   <g id="PathCollection_3">
    <path d="M 122.525345 272.953752 
L 123.721791 272.43599 
L 130.272868 269.920677 
L 136.823945 267.469794 
L 139.828107 266.402675 
L 143.375022 264.606586 
L 149.926099 261.498965 
L 153.560807 259.851599 
L 156.477176 258.159127 
L 163.028253 254.580607 
L 165.485567 253.300522 
L 169.57933 250.736895 
L 176.130407 246.793829 
L 176.207974 246.749445 
L 182.681484 242.479762 
L 186.242338 240.198368 
L 189.23256 238.042393 
L 195.509971 233.647291 
L 195.783637 233.435804 
L 202.334714 228.546332 
L 204.30925 227.096214 
L 208.885791 223.459629 
L 212.593495 220.545137 
L 215.436868 218.158611 
L 220.425267 213.99406 
L 221.987945 212.617306 
L 227.854639 207.442983 
L 228.539022 206.812703 
L 234.915063 200.891906 
L 235.090099 200.723831 
L 241.631326 194.340829 
L 241.641176 194.330979 
L 248.024177 187.789752 
L 248.192253 187.614717 
L 254.113049 181.238675 
L 254.74333 180.554293 
L 259.917652 174.687599 
L 260.583143 173.932236 
" clip-path="url(#paab9bf6323)" style="fill: none; stroke: #452c1c; stroke-width: 2.25"/>
    <path d="M 274.979455 156.215213 
L 275.846678 155.034368 
L 280.73615 148.483291 
L 280.947637 148.209625 
L 285.34274 141.932214 
L 287.498714 138.941992 
L 289.780109 135.381137 
L 294.049791 128.907627 
L 294.094176 128.83006 
L 298.037242 122.278983 
L 300.600868 118.185221 
L 301.880953 115.727906 
L 305.459474 109.176829 
L 307.151945 106.260461 
L 308.799311 102.625752 
L 311.906932 96.074675 
L 313.703022 92.527761 
L 314.77014 89.523599 
L 317.221023 82.972522 
L 319.736336 76.421445 
L 320.254099 75.224999 
" clip-path="url(#paab9bf6323)" style="fill: none; stroke: #452c1c; stroke-width: 2.25"/>
    <path d="M 262.490853 17.461752 
L 261.294407 17.979515 
L 254.74333 20.494828 
L 248.192253 22.945711 
L 245.18809 24.012829 
L 241.641176 25.808919 
L 235.090099 28.91654 
L 231.455391 30.563906 
L 228.539022 32.256378 
L 221.987945 35.834898 
L 219.530631 37.114983 
L 215.436868 39.67861 
L 208.885791 43.621675 
L 208.808224 43.66606 
L 202.334714 47.935742 
L 198.773859 50.217137 
L 195.783637 52.373111 
L 189.506226 56.768214 
L 189.23256 56.979701 
L 182.681484 61.869173 
L 180.706947 63.319291 
L 176.130407 66.955876 
L 172.422702 69.870368 
L 169.57933 72.256893 
L 164.590931 76.421445 
L 163.028253 77.798199 
L 157.161559 82.972522 
L 156.477176 83.602802 
L 150.101134 89.523599 
L 149.926099 89.691674 
L 143.384872 96.074675 
L 143.375022 96.084526 
L 136.992021 102.625752 
L 136.823945 102.800788 
L 130.903148 109.176829 
L 130.272868 109.861212 
L 125.098546 115.727906 
L 124.433055 116.483269 
" clip-path="url(#paab9bf6323)" style="fill: none; stroke: #452c1c; stroke-width: 2.25"/>
    <path d="M 110.036743 134.200292 
L 109.16952 135.381137 
L 104.280047 141.932214 
L 104.06856 142.20588 
L 99.673458 148.483291 
L 97.517484 151.473513 
L 95.236089 155.034368 
L 90.966407 161.507878 
L 90.922022 161.585445 
L 86.978956 168.136522 
L 84.41533 172.230284 
L 83.135244 174.687599 
L 79.556724 181.238675 
L 77.864253 184.155044 
L 76.216887 187.789752 
L 73.109266 194.340829 
L 71.313176 197.887744 
L 70.246058 200.891906 
L 67.795175 207.442983 
L 65.279861 213.99406 
L 64.762099 215.190506 
" clip-path="url(#paab9bf6323)" style="fill: none; stroke: #452c1c; stroke-width: 2.25"/>
   </g>
   <g id="PathCollection_4">
    <path d="M 103.56519 272.953752 
L 104.06856 272.565176 
L 110.619637 268.530268 
L 114.55356 266.402675 
L 117.170714 264.024609 
L 122.671997 259.851599 
L 123.721791 258.676171 
L 129.487571 253.300522 
L 130.272868 252.308727 
L 135.503496 246.749445 
L 136.823945 244.964705 
L 140.956066 240.198368 
L 143.375022 236.81834 
L 145.995998 233.647291 
L 149.926099 228.104224 
L 150.740013 227.096214 
L 155.293115 220.545137 
L 156.477176 218.623864 
L 159.694332 213.99406 
L 163.028253 208.821268 
L 164.016928 207.442983 
L 168.273831 200.891906 
L 169.57933 198.736822 
L 172.51791 194.340829 
L 176.130407 188.847723 
L 176.889613 187.789752 
L 181.310996 181.238675 
L 182.681484 179.175829 
L 185.925371 174.687599 
L 189.23256 170.264025 
L 190.947085 168.136522 
L 195.783637 162.380842 
L 196.497824 161.585445 
L 202.334714 155.400594 
L 202.700941 155.034368 
L 208.885791 149.197478 
L 209.681189 148.483291 
L 215.436868 143.646738 
L 217.564372 141.932214 
L 221.987945 138.625024 
L 226.476175 135.381137 
L 228.539022 134.010649 
L 235.090099 129.589267 
L 236.148069 128.83006 
L 241.641176 125.217564 
L 246.037168 122.278983 
L 248.192253 120.973485 
L 254.74333 116.716582 
L 256.121615 115.727906 
L 261.294407 112.393986 
L 265.92421 109.176829 
L 267.845484 107.992769 
L 274.39656 103.439667 
L 275.404571 102.625752 
L 280.947637 98.695651 
L 284.118687 96.074675 
L 287.498714 93.65572 
L 292.265051 89.523599 
L 294.049791 88.203149 
L 299.609073 82.972522 
L 300.600868 82.187224 
L 305.976518 76.421445 
L 307.151945 75.37165 
L 308.94188 73.011978 
" clip-path="url(#paab9bf6323)" style="fill: none; stroke: #69422a; stroke-width: 2.25"/>
    <path d="M 281.451008 17.461752 
L 280.947637 17.850329 
L 274.39656 21.885236 
L 270.462638 24.012829 
L 267.845484 26.390895 
L 262.344201 30.563906 
L 261.294407 31.739333 
L 255.528627 37.114983 
L 254.74333 38.106778 
L 249.512702 43.66606 
L 248.192253 45.4508 
L 244.060131 50.217137 
L 241.641176 53.597165 
L 239.0202 56.768214 
L 235.090099 62.31128 
L 234.276185 63.319291 
L 229.723082 69.870368 
L 228.539022 71.791641 
L 225.321866 76.421445 
L 221.987945 81.594236 
L 220.999269 82.972522 
L 216.742367 89.523599 
L 215.436868 91.678683 
L 212.498288 96.074675 
L 208.885791 101.567782 
L 208.126584 102.625752 
L 203.705202 109.176829 
L 202.334714 111.239676 
L 199.090827 115.727906 
L 195.783637 120.15148 
L 194.069113 122.278983 
L 189.23256 128.034662 
L 188.518374 128.83006 
L 182.681484 135.014911 
L 182.315257 135.381137 
L 176.130407 141.218027 
L 175.335009 141.932214 
L 169.57933 146.768767 
L 167.451826 148.483291 
L 163.028253 151.790481 
L 158.540023 155.034368 
L 156.477176 156.404856 
L 149.926099 160.826238 
L 148.868128 161.585445 
L 143.375022 165.197941 
L 138.979029 168.136522 
L 136.823945 169.44202 
L 130.272868 173.698923 
L 128.894583 174.687599 
L 123.721791 178.021519 
L 119.091988 181.238675 
L 117.170714 182.422736 
L 110.619637 186.975838 
L 109.611627 187.789752 
L 104.06856 191.719853 
L 100.897511 194.340829 
L 97.517484 196.759785 
L 92.751146 200.891906 
L 90.966407 202.212356 
L 85.407124 207.442983 
L 84.41533 208.228281 
L 79.03968 213.99406 
L 77.864253 215.043855 
L 76.074318 217.403527 
" clip-path="url(#paab9bf6323)" style="fill: none; stroke: #69422a; stroke-width: 2.25"/>
   </g>
   <g id="PathCollection_5">
    <path d="M 93.417381 272.953752 
L 97.517484 268.693526 
L 100.467701 266.402675 
L 104.06856 260.797705 
L 104.885859 259.851599 
L 107.865362 253.300522 
L 109.392582 246.749445 
L 109.396794 242.720219 
" clip-path="url(#paab9bf6323)" style="fill: none; stroke: #8c5838; stroke-width: 2.25"/>
    <path d="M 95.794059 228.318223 
L 90.966407 228.323269 
L 84.41533 229.850489 
L 77.864253 232.829992 
L 76.918146 233.647291 
L 71.313176 237.248151 
L 69.022325 240.198368 
L 64.762099 244.298471 
" clip-path="url(#paab9bf6323)" style="fill: none; stroke: #8c5838; stroke-width: 2.25"/>
    <path d="M 291.598817 17.461752 
L 287.498714 21.721979 
L 284.548497 24.012829 
L 280.947637 29.6178 
L 280.130339 30.563906 
L 277.150836 37.114983 
L 275.623616 43.66606 
L 275.619404 47.695286 
" clip-path="url(#paab9bf6323)" style="fill: none; stroke: #8c5838; stroke-width: 2.25"/>
    <path d="M 289.222138 62.097282 
L 294.049791 62.092235 
L 300.600868 60.565016 
L 307.151945 57.585512 
L 308.098052 56.768214 
L 313.703022 53.167354 
L 315.993872 50.217137 
L 320.254099 46.117034 
" clip-path="url(#paab9bf6323)" style="fill: none; stroke: #8c5838; stroke-width: 2.25"/>
   </g>
   <g id="PathCollection_6">
    <path d="M 86.726713 272.953752 
L 90.884791 266.402675 
L 90.966407 265.907906 
L 92.553036 259.851599 
L 91.996816 256.274467 
" clip-path="url(#paab9bf6323)" style="fill: none; stroke: #af6f47; stroke-width: 2.25"/>
    <path d="M 77.144861 245.351281 
L 71.807945 246.749445 
L 71.313176 246.831061 
L 64.762099 250.989139 
" clip-path="url(#paab9bf6323)" style="fill: none; stroke: #af6f47; stroke-width: 2.25"/>
    <path d="M 298.289485 17.461752 
L 294.131407 24.012829 
L 294.049791 24.507598 
L 292.463162 30.563906 
L 293.019382 34.141038 
" clip-path="url(#paab9bf6323)" style="fill: none; stroke: #af6f47; stroke-width: 2.25"/>
    <path d="M 307.871336 45.064224 
L 313.208253 43.66606 
L 313.703022 43.584444 
L 320.254099 39.426366 
" clip-path="url(#paab9bf6323)" style="fill: none; stroke: #af6f47; stroke-width: 2.25"/>
   </g>
   <g id="PathCollection_7">
    <path d="M 81.975595 272.953752 
L 83.960678 266.402675 
L 83.823922 265.738844 
" clip-path="url(#paab9bf6323)" style="fill: none; stroke: #d28555; stroke-width: 2.25"/>
    <path d="M 69.522944 254.297643 
L 64.762099 255.740256 
" clip-path="url(#paab9bf6323)" style="fill: none; stroke: #d28555; stroke-width: 2.25"/>
    <path d="M 303.040603 17.461752 
L 301.05552 24.012829 
L 301.192276 24.676661 
" clip-path="url(#paab9bf6323)" style="fill: none; stroke: #d28555; stroke-width: 2.25"/>
    <path d="M 315.493253 36.117862 
L 320.254099 34.675249 
" clip-path="url(#paab9bf6323)" style="fill: none; stroke: #d28555; stroke-width: 2.25"/>
   </g>
   <g id="PathCollection_8">
    <path d="M 77.98885 272.953752 
L 78.389027 266.402675 
L 77.864253 265.348059 
L 72.367793 259.851599 
L 71.313176 259.326825 
L 64.762099 259.727001 
" clip-path="url(#paab9bf6323)" style="fill: none; stroke: #f69b63; stroke-width: 2.25"/>
    <path d="M 307.027348 17.461752 
L 306.627171 24.012829 
L 307.151945 25.067446 
L 312.648405 30.563906 
L 313.703022 31.08868 
L 320.254099 30.688504 
" clip-path="url(#paab9bf6323)" style="fill: none; stroke: #f69b63; stroke-width: 2.25"/>
   </g>
   <g id="PathCollection_9">
    <path d="M 75.394348 272.953752 
L 73.600594 266.402675 
L 71.313176 264.115257 
L 64.762099 262.321503 
" clip-path="url(#paab9bf6323)" style="fill: none; stroke: #ffb171; stroke-width: 2.25"/>
    <path d="M 309.621849 17.461752 
L 311.415603 24.012829 
L 313.703022 26.300248 
L 320.254099 28.094002 
" clip-path="url(#paab9bf6323)" style="fill: none; stroke: #ffb171; stroke-width: 2.25"/>
   </g>
   <g id="PathCollection_10">
    <path d="M 72.844762 272.953752 
L 71.313176 269.423515 
L 68.292337 266.402675 
L 64.762099 264.871089 
" clip-path="url(#paab9bf6323)" style="fill: none; stroke: #ffc77f; stroke-width: 2.25"/>
    <path d="M 312.171436 17.461752 
L 313.703022 20.99199 
L 316.723861 24.012829 
L 320.254099 25.544416 
" clip-path="url(#paab9bf6323)" style="fill: none; stroke: #ffc77f; stroke-width: 2.25"/>
   </g>
   <g id="patch_3">
    <path d="M 56.608099 281.107752 
L 56.608099 9.307752 
" style="fill: none; stroke: #ffffff; stroke-width: 1.875; stroke-linejoin: miter; stroke-linecap: square"/>
   </g>
   <g id="patch_4">
    <path d="M 56.608099 281.107752 
L 328.408099 281.107752 
" style="fill: none; stroke: #ffffff; stroke-width: 1.875; stroke-linejoin: miter; stroke-linecap: square"/>
   </g>
   <g id="text_15">
    <!-- $\mathdefault{0.444}$ -->
    <g transform="translate(235.442027 262.733921)rotate(-8.422822)scale(0.12 -0.12)">
     <use xlink:href="#CMR17-30" transform="scale(0.996264)"/>
     <use xlink:href="#CMMI12-3a" transform="translate(45.690477 0)scale(0.996264)"/>
     <use xlink:href="#CMR17-34" transform="translate(72.787654 0)scale(0.996264)"/>
     <use xlink:href="#CMR17-34" transform="translate(118.478131 0)scale(0.996264)"/>
     <use xlink:href="#CMR17-34" transform="translate(164.168608 0)scale(0.996264)"/>
    </g>
   </g>
   <g id="text_16">
    <!-- $\mathdefault{0.444}$ -->
    <g transform="translate(124.073719 37.500303)rotate(-8.422822)scale(0.12 -0.12)">
     <use xlink:href="#CMR17-30" transform="scale(0.996264)"/>
     <use xlink:href="#CMMI12-3a" transform="translate(45.690477 0)scale(0.996264)"/>
     <use xlink:href="#CMR17-34" transform="translate(72.787654 0)scale(0.996264)"/>
     <use xlink:href="#CMR17-34" transform="translate(118.478131 0)scale(0.996264)"/>
     <use xlink:href="#CMR17-34" transform="translate(164.168608 0)scale(0.996264)"/>
    </g>
   </g>
   <g id="text_17">
    <!-- $\mathdefault{0.889}$ -->
    <g transform="translate(257.946142 174.709789)rotate(-30.932562)scale(0.12 -0.12)">
     <defs>
      <path id="CMR17-39" d="M 2253 1864 
C 2253 464 1670 31 1190 31 
C 1043 31 685 31 538 294 
C 704 268 826 357 826 518 
C 826 692 685 749 595 749 
C 538 749 365 723 365 506 
C 365 71 742 -128 1203 -128 
C 1939 -128 2688 674 2688 2073 
C 2688 3817 1971 4179 1485 4179 
C 851 4179 243 3628 243 2778 
C 243 1991 762 1408 1414 1408 
C 1952 1408 2189 1903 2253 2112 
L 2253 1864 
z
M 1427 1510 
C 1254 1510 1011 1542 813 1922 
C 678 2169 678 2461 678 2771 
C 678 3146 678 3405 858 3684 
C 947 3817 1114 4032 1485 4032 
C 2240 4032 2240 2885 2240 2632 
C 2240 2182 2035 1510 1427 1510 
z
" transform="scale(0.015625)"/>
     </defs>
     <use xlink:href="#CMR17-30" transform="scale(0.996264)"/>
     <use xlink:href="#CMMI12-3a" transform="translate(45.690477 0)scale(0.996264)"/>
     <use xlink:href="#CMR17-38" transform="translate(72.787654 0)scale(0.996264)"/>
     <use xlink:href="#CMR17-38" transform="translate(118.478131 0)scale(0.996264)"/>
     <use xlink:href="#CMR17-39" transform="translate(164.168608 0)scale(0.996264)"/>
    </g>
   </g>
   <g id="text_18">
    <!-- $\mathdefault{0.889}$ -->
    <g transform="translate(107.271373 134.538996)rotate(-30.932562)scale(0.12 -0.12)">
     <use xlink:href="#CMR17-30" transform="scale(0.996264)"/>
     <use xlink:href="#CMMI12-3a" transform="translate(45.690477 0)scale(0.996264)"/>
     <use xlink:href="#CMR17-38" transform="translate(72.787654 0)scale(0.996264)"/>
     <use xlink:href="#CMR17-38" transform="translate(118.478131 0)scale(0.996264)"/>
     <use xlink:href="#CMR17-39" transform="translate(164.168608 0)scale(0.996264)"/>
    </g>
   </g>
   <g id="text_19">
    <!-- $\mathdefault{1.333}$ -->
    <g transform="translate(306.873979 73.636691)rotate(-36.402503)scale(0.12 -0.12)">
     <defs>
      <path id="CMR17-33" d="M 1414 2157 
C 1984 2157 2234 1662 2234 1090 
C 2234 320 1824 25 1453 25 
C 1114 25 563 194 390 693 
C 422 680 454 680 486 680 
C 640 680 755 782 755 948 
C 755 1133 614 1216 486 1216 
C 378 1216 211 1165 211 926 
C 211 335 787 -128 1466 -128 
C 2176 -128 2720 430 2720 1085 
C 2720 1707 2208 2157 1600 2227 
C 2086 2328 2554 2756 2554 3329 
C 2554 3820 2048 4179 1472 4179 
C 890 4179 378 3829 378 3329 
C 378 3110 544 3072 627 3072 
C 762 3072 877 3155 877 3321 
C 877 3486 762 3569 627 3569 
C 602 3569 570 3569 544 3557 
C 730 3959 1235 4032 1459 4032 
C 1683 4032 2106 3925 2106 3320 
C 2106 3143 2080 2828 1862 2550 
C 1670 2304 1453 2304 1242 2284 
C 1210 2284 1062 2269 1037 2269 
C 992 2263 966 2257 966 2208 
C 966 2163 973 2157 1101 2157 
L 1414 2157 
z
" transform="scale(0.015625)"/>
     </defs>
     <use xlink:href="#CMR17-31" transform="scale(0.996264)"/>
     <use xlink:href="#CMMI12-3a" transform="translate(45.690477 0)scale(0.996264)"/>
     <use xlink:href="#CMR17-33" transform="translate(72.787654 0)scale(0.996264)"/>
     <use xlink:href="#CMR17-33" transform="translate(118.478131 0)scale(0.996264)"/>
     <use xlink:href="#CMR17-33" transform="translate(164.168608 0)scale(0.996264)"/>
    </g>
   </g>
   <g id="text_20">
    <!-- $\mathdefault{1.333}$ -->
    <g transform="translate(60.228947 237.413614)rotate(-36.402503)scale(0.12 -0.12)">
     <use xlink:href="#CMR17-31" transform="scale(0.996264)"/>
     <use xlink:href="#CMMI12-3a" transform="translate(45.690477 0)scale(0.996264)"/>
     <use xlink:href="#CMR17-33" transform="translate(72.787654 0)scale(0.996264)"/>
     <use xlink:href="#CMR17-33" transform="translate(118.478131 0)scale(0.996264)"/>
     <use xlink:href="#CMR17-33" transform="translate(164.168608 0)scale(0.996264)"/>
    </g>
   </g>
   <g id="text_21">
    <!-- $\mathdefault{1.778}$ -->
    <g transform="translate(90.697215 228.086003)rotate(-335.509833)scale(0.12 -0.12)">
     <defs>
      <path id="CMR17-37" d="M 2886 3941 
L 2886 4081 
L 1382 4081 
C 634 4081 621 4165 595 4288 
L 480 4288 
L 294 3094 
L 410 3094 
C 429 3215 474 3540 550 3661 
C 589 3712 1062 3712 1171 3712 
L 2579 3712 
L 1869 2661 
C 1395 1954 1069 999 1069 165 
C 1069 89 1069 -128 1299 -128 
C 1530 -128 1530 89 1530 171 
L 1530 465 
C 1530 1508 1709 2196 2003 2636 
L 2886 3941 
z
" transform="scale(0.015625)"/>
     </defs>
     <use xlink:href="#CMR17-31" transform="scale(0.996264)"/>
     <use xlink:href="#CMMI12-3a" transform="translate(45.690477 0)scale(0.996264)"/>
     <use xlink:href="#CMR17-37" transform="translate(72.787654 0)scale(0.996264)"/>
     <use xlink:href="#CMR17-37" transform="translate(118.478131 0)scale(0.996264)"/>
     <use xlink:href="#CMR17-38" transform="translate(164.168608 0)scale(0.996264)"/>
    </g>
   </g>
   <g id="text_22">
    <!-- $\mathdefault{1.778}$ -->
    <g transform="translate(267.576292 56.716237)rotate(-335.509833)scale(0.12 -0.12)">
     <use xlink:href="#CMR17-31" transform="scale(0.996264)"/>
     <use xlink:href="#CMMI12-3a" transform="translate(45.690477 0)scale(0.996264)"/>
     <use xlink:href="#CMR17-37" transform="translate(72.787654 0)scale(0.996264)"/>
     <use xlink:href="#CMR17-37" transform="translate(118.478131 0)scale(0.996264)"/>
     <use xlink:href="#CMR17-38" transform="translate(164.168608 0)scale(0.996264)"/>
    </g>
   </g>
   <g id="text_23">
    <!-- $\mathdefault{2.222}$ -->
    <g transform="translate(71.840453 245.927961)rotate(-343.917032)scale(0.12 -0.12)">
     <use xlink:href="#CMR17-32" transform="scale(0.996264)"/>
     <use xlink:href="#CMMI12-3a" transform="translate(45.690477 0)scale(0.996264)"/>
     <use xlink:href="#CMR17-32" transform="translate(72.787654 0)scale(0.996264)"/>
     <use xlink:href="#CMR17-32" transform="translate(118.478131 0)scale(0.996264)"/>
     <use xlink:href="#CMR17-32" transform="translate(164.168608 0)scale(0.996264)"/>
    </g>
   </g>
   <g id="text_24">
    <!-- $\mathdefault{2.222}$ -->
    <g transform="translate(285.899731 42.844577)rotate(-343.917032)scale(0.12 -0.12)">
     <use xlink:href="#CMR17-32" transform="scale(0.996264)"/>
     <use xlink:href="#CMMI12-3a" transform="translate(45.690477 0)scale(0.996264)"/>
     <use xlink:href="#CMR17-32" transform="translate(72.787654 0)scale(0.996264)"/>
     <use xlink:href="#CMR17-32" transform="translate(118.478131 0)scale(0.996264)"/>
     <use xlink:href="#CMR17-32" transform="translate(164.168608 0)scale(0.996264)"/>
    </g>
   </g>
   <g id="text_25">
    <!-- $\mathdefault{2.667}$ -->
    <g transform="translate(64.267801 253.760673)rotate(-341.718389)scale(0.12 -0.12)">
     <use xlink:href="#CMR17-32" transform="scale(0.996264)"/>
     <use xlink:href="#CMMI12-3a" transform="translate(45.690477 0)scale(0.996264)"/>
     <use xlink:href="#CMR17-36" transform="translate(72.787654 0)scale(0.996264)"/>
     <use xlink:href="#CMR17-36" transform="translate(118.478131 0)scale(0.996264)"/>
     <use xlink:href="#CMR17-37" transform="translate(164.168608 0)scale(0.996264)"/>
    </g>
   </g>
   <g id="text_26">
    <!-- $\mathdefault{2.667}$ -->
    <g transform="translate(293.555494 33.966653)rotate(-341.718389)scale(0.12 -0.12)">
     <use xlink:href="#CMR17-32" transform="scale(0.996264)"/>
     <use xlink:href="#CMMI12-3a" transform="translate(45.690477 0)scale(0.996264)"/>
     <use xlink:href="#CMR17-36" transform="translate(72.787654 0)scale(0.996264)"/>
     <use xlink:href="#CMR17-36" transform="translate(118.478131 0)scale(0.996264)"/>
     <use xlink:href="#CMR17-37" transform="translate(164.168608 0)scale(0.996264)"/>
    </g>
   </g>
  </g>
 </g>
 <defs>
  <clipPath id="paab9bf6323">
   <rect x="56.608099" y="9.307752" width="271.8" height="271.8"/>
  </clipPath>
 </defs>
</svg>
