<svg class="main-svg" xmlns="http://www.w3.org/2000/svg" xmlns:xlink="http://www.w3.org/1999/xlink" width="1500" height="1500" style="" viewBox="0 0 500 500"><rect x="0" y="0" width="500" height="500" style="fill: rgb(255, 255, 255); fill-opacity: 1;"/><defs id="defs-71fa5a"><g class="clips"><clipPath id="clip71fa5axyplot" class="plotclip"><rect width="370" height="437"/></clipPath><clipPath class="axesclip" id="clip71fa5ax"><rect x="28" y="0" width="370" height="500"/></clipPath><clipPath class="axesclip" id="clip71fa5ay"><rect x="0" y="40" width="500" height="437"/></clipPath><clipPath class="axesclip" id="clip71fa5axy"><rect x="28" y="40" width="370" height="437"/></clipPath><clipPath class="contourclip" id="clip71f3db"><path d="M0,0L370,0L370,437L0,437Z"/></clipPath></g><g class="gradients"/><g class="patterns"/></defs><g class="bglayer"><rect class="bg" x="28" y="40" width="370" height="437" style="fill: rgb(237, 237, 237); fill-opacity: 1; stroke-width: 0;"/></g><g class="layer-below"><g class="imagelayer"/><g class="shapelayer"/></g><g class="cartesianlayer"><g class="subplot xy"><g class="layer-subplot"><g class="shapelayer"/><g class="imagelayer"/></g><g class="gridlayer"><g class="x"><path class="xgrid crisp" transform="translate(89.67,0)" d="M0,40v437" style="stroke: rgb(255, 255, 255); stroke-opacity: 1; stroke-width: 1px;"/><path class="xgrid crisp" transform="translate(171.89,0)" d="M0,40v437" style="stroke: rgb(255, 255, 255); stroke-opacity: 1; stroke-width: 1px;"/><path class="xgrid crisp" transform="translate(254.11,0)" d="M0,40v437" style="stroke: rgb(255, 255, 255); stroke-opacity: 1; stroke-width: 1px;"/><path class="xgrid crisp" transform="translate(336.33,0)" d="M0,40v437" style="stroke: rgb(255, 255, 255); stroke-opacity: 1; stroke-width: 1px;"/></g><g class="y"><path class="ygrid crisp" transform="translate(0,452.72)" d="M28,0h370" style="stroke: rgb(255, 255, 255); stroke-opacity: 1; stroke-width: 1px;"/><path class="ygrid crisp" transform="translate(0,404.17)" d="M28,0h370" style="stroke: rgb(255, 255, 255); stroke-opacity: 1; stroke-width: 1px;"/><path class="ygrid crisp" transform="translate(0,355.61)" d="M28,0h370" style="stroke: rgb(255, 255, 255); stroke-opacity: 1; stroke-width: 1px;"/><path class="ygrid crisp" transform="translate(0,307.06)" d="M28,0h370" style="stroke: rgb(255, 255, 255); stroke-opacity: 1; stroke-width: 1px;"/><path class="ygrid crisp" transform="translate(0,258.5)" d="M28,0h370" style="stroke: rgb(255, 255, 255); stroke-opacity: 1; stroke-width: 1px;"/><path class="ygrid crisp" transform="translate(0,209.94)" d="M28,0h370" style="stroke: rgb(255, 255, 255); stroke-opacity: 1; stroke-width: 1px;"/><path class="ygrid crisp" transform="translate(0,161.39)" d="M28,0h370" style="stroke: rgb(255, 255, 255); stroke-opacity: 1; stroke-width: 1px;"/><path class="ygrid crisp" transform="translate(0,112.83)" d="M28,0h370" style="stroke: rgb(255, 255, 255); stroke-opacity: 1; stroke-width: 1px;"/><path class="ygrid crisp" transform="translate(0,64.28)" d="M28,0h370" style="stroke: rgb(255, 255, 255); stroke-opacity: 1; stroke-width: 1px;"/></g></g><g class="zerolinelayer"/><path class="xlines-below"/><path class="ylines-below"/><g class="overlines-below"/><g class="xaxislayer-below"/><g class="yaxislayer-below"/><g class="overaxes-below"/><g class="plot" transform="translate(28,40)" clip-path="url(#clip71fa5axyplot)"><g class="contourlayer mlayer"><g class="contour" clip-path="url(#clip71f3db)" style="opacity: 1;"><g class="heatmapcoloring"/><g class="contourbg"/><g class="contourfill"/><g class="contourlines"><g class="contourlevel"/><g class="contourlevel"><path class="openline" d="M370,382.42Q369.05,383.45 368.5,384.03C367.83,384.73 367.01,385.6 366.26,386.34C365.53,387.06 364.71,387.81 364.04,388.44C363.49,388.95 363.15,389.28 362.53,389.83C361.58,390.67 360.11,391.92 358.865,392.92C357.62,393.92 356.12,395.06 355.05,395.85C354.29,396.42 353.71,396.82 353.07,397.27C352.47,397.7 352.01,398.02 351.31,398.5C350.3,399.19 348.47,400.4 347.58,400.97C347.09,401.29 346.9,401.41 346.44,401.69C345.75,402.12 344.79,402.71 343.84,403.27C342.71,403.94 341,404.93 340.1,405.44C339.6,405.73 339.4,405.84 338.93,406.1C338.24,406.48 337.3,406.98 336.36,407.48C335.23,408.08 333.71,408.88 332.63,409.43C331.81,409.85 331.14,410.19 330.47,410.52C329.9,410.8 329.53,410.97 328.89,411.27C327.91,411.73 326.42,412.44 325.15,413.03C323.85,413.63 322.47,414.27 321.185,414.83000000000004C319.98,415.36 318.87,415.82 317.68,416.32C316.45,416.83 315.18,417.36 313.94,417.87C312.71,418.37 311.49,418.88 310.245,419.36C308.99,419.85 307.72,420.32 306.46,420.79C305.21,421.26 303.98,421.71 302.73,422.17C301.49,422.62 299.72,423.25 298.99,423.52C298.68,423.63 298.64,423.66 298.34,423.76C297.69,423.99 296.33,424.43 295.25,424.79C294.07,425.18 292.76,425.62 291.52,426.03C290.27,426.44 288.94,426.87 287.78,427.25C286.76,427.58 285.59,427.96 284.91,428.17C284.54,428.29 284.43,428.31 284.04,428.43C283.23,428.67 281.55,429.17 280.3,429.54C279.06,429.91 277.81,430.28 276.57,430.64C275.32,431 274.01,431.38 272.83,431.72C271.76,432.03 270.45,432.41 269.79,432.59C269.48,432.68 269.42,432.69 269.09,432.77C268.34,432.97 266.6,433.42 265.35,433.75C264.11,434.07 262.86,434.4 261.62,434.72C260.37,435.04 259.13,435.35 257.88,435.67C256.63,435.99 255.1,436.37 254.14,436.62Q253.53,436.77 252.66,437" style="stroke-miterlimit: 1; vector-effect: non-scaling-stroke; fill: none; stroke: rgb(47, 38, 33); stroke-opacity: 1; stroke-width: 2px;"/><path class="openline" d="M0,138.59Q0.19,137.56 0.32,136.84C0.53,135.7 0.85,133.89 1.12,132.42C1.39,130.95 1.66,129.48 1.93,128.01C2.2,126.54 2.48,125.07 2.75,123.6C3.03,122.13 3.41,120.07 3.58,119.18C3.65,118.79 3.67,118.72 3.74,118.35C3.89,117.57 4.21,116.03 4.47,114.77C4.76,113.37 5.08,111.82 5.39,110.35C5.7,108.88 6.01,107.41 6.32,105.94C6.63,104.47 7.05,102.49 7.25,101.53C7.35,101.06 7.37,100.94 7.47,100.49C7.65,99.69 7.98,98.31 8.26,97.11C8.58,95.74 8.95,94.17 9.29,92.7C9.64,91.23 10,89.68 10.33,88.28C10.63,87.01 11.02,85.4 11.21,84.64C11.3,84.29 11.32,84.23 11.41,83.87C11.64,83 12.17,80.92 12.56,79.45C12.95,77.98 13.34,76.51 13.73,75.04C14.13,73.56 14.52,72.05 14.934999999999999,70.57499999999999C15.34,69.11 15.77,67.67 16.2,66.21C16.63,64.74 17.07,63.25 17.51,61.8C17.93,60.39 18.33,59.07 18.775,57.650000000000006C19.25,56.13 19.79,54.51 20.3,52.97C20.79,51.48 21.39,49.72 21.78,48.56C22.04,47.8 22.18,47.36 22.42,46.69C22.7,45.9 22.99,45.11 23.35,44.14C23.82,42.87 24.49,41.06 24.99,39.73C25.41,38.62 25.84,37.51 26.16,36.7C26.38,36.15 26.48,35.9 26.72,35.31C27.15,34.25 27.99,32.24 28.56,30.9C29.04,29.78 29.54,28.65 29.9,27.83C30.14,27.29 30.24,27.06 30.51,26.48C31,25.43 32.02,23.26 32.6,22.07C33,21.25 33.28,20.7 33.64,19.99C34.02,19.23 34.36,18.56 34.84,17.66C35.51,16.4 36.47,14.63 37.32,13.155000000000001C38.17,11.69 39.23,9.95 39.94,8.83C40.4,8.1 40.68,7.69 41.11,7.04C41.64,6.25 42.27,5.28 42.89,4.41C43.52,3.53 44.25,2.57 44.85,1.78Q45.34,1.13 46.21,0" style="stroke-miterlimit: 1; vector-effect: non-scaling-stroke; fill: none; stroke: rgb(47, 38, 33); stroke-opacity: 1; stroke-width: 2px;"/></g><g class="contourlevel"><path class="openline" d="M370,316.81Q369.61,317.37 369.29,317.82C368.62,318.76 367.29,320.7 366.205,322.155C365.07,323.68 363.84,325.25 362.615,326.76C361.4,328.26 360.15,329.73 358.885,331.175C357.62,332.62 356.3,334.06 355.015,335.435C353.78,336.76 352.03,338.54 351.31,339.27C351.02,339.57 350.98,339.61 350.69,339.89C350.05,340.52 348.43,342.13 347.58,342.94C347.01,343.49 346.66,343.8 346.12,344.3C345.44,344.93 344.63,345.7 343.84,346.42C343.01,347.17 341.96,348.11 341.27,348.72C340.81,349.13 340.6,349.31 340.1,349.75C339.19,350.54 337.52,351.98 336.255,353.03999999999996C335.03,354.06 333.65,355.19 332.63,356.02C331.9,356.62 331.36,357.05 330.73,357.55C330.11,358.04 329.61,358.43 328.89,358.99C327.85,359.8 326.36,360.96 325.095,361.91499999999996C323.86,362.85 322.5,363.85 321.41,364.65C320.54,365.29 319.73,365.88 319.05,366.37C318.53,366.75 318.25,366.95 317.68,367.36C316.74,368.03 314.83,369.37 313.94,369.99C313.45,370.33 313.25,370.47 312.79,370.79C312.1,371.26 311.15,371.91 310.2,372.55C309.04,373.33 307.62,374.29 306.35,375.125C305.13,375.93 303.93,376.7 302.73,377.48C301.54,378.24 300.4,378.98 299.19,379.745C297.91,380.55 296.47,381.43 295.25,382.19C294.18,382.85 292.91,383.63 292.25,384.03C291.92,384.23 291.86,384.27 291.52,384.47C290.76,384.93 288.96,385.99 287.78,386.69C286.73,387.31 285.48,388.05 284.81,388.44C284.47,388.64 284.39,388.68 284.04,388.88C283.26,389.32 281.53,390.31 280.3,391.01C279.12,391.68 278.01,392.32 276.805,392.99C275.53,393.7 274.14,394.45 272.83,395.16C271.55,395.86 270.28,396.56 269.02,397.23C267.79,397.89 266.58,398.51 265.35,399.15C264.11,399.8 262.5,400.64 261.62,401.1C261.14,401.35 260.95,401.46 260.5,401.69C259.81,402.04 258.83,402.52 257.88,403C256.74,403.57 255.26,404.31 254.14,404.87C253.23,405.32 252.37,405.76 251.68,406.1C251.19,406.34 250.94,406.45 250.4,406.71C249.48,407.15 247.93,407.9 246.67,408.5C245.37,409.12 243.98,409.8 242.69,410.4C241.49,410.96 240.38,411.46 239.19,412C237.96,412.56 236.59,413.18 235.45,413.7C234.48,414.14 233.46,414.62 232.77,414.93C232.34,415.12 232.18,415.18 231.72,415.38C230.86,415.75 229.23,416.46 227.98,417C226.73,417.54 225.24,418.18 224.24,418.61C223.57,418.9 223.16,419.09 222.57,419.34C221.92,419.61 221.3,419.86 220.51,420.18C219.45,420.61 218.02,421.2 216.77,421.71C215.52,422.22 213.94,422.86 213.03,423.24C212.5,423.46 212.28,423.57 211.79,423.76C211.1,424.03 210.21,424.36 209.29,424.71C208.17,425.14 206.8,425.67 205.56,426.15C204.31,426.63 202.79,427.22 201.82,427.59C201.21,427.83 200.87,427.96 200.32,428.17C199.65,428.42 198.92,428.67 198.08,428.97C196.99,429.36 195.59,429.86 194.34,430.31C193.1,430.76 191.74,431.24 190.61,431.65C189.67,431.99 188.71,432.35 188.02,432.59C187.56,432.75 187.36,432.8 186.87,432.96C185.98,433.25 184.38,433.78 183.13,434.19C181.88,434.6 180.64,435.02 179.39,435.43C178.15,435.84 176.51,436.39 175.66,436.67Q175.22,436.82 174.67,437" style="stroke-miterlimit: 1; vector-effect: non-scaling-stroke; fill: none; stroke: rgb(59, 46, 38); stroke-opacity: 1; stroke-width: 2px;"/><path class="openline" d="M0,230.7Q0.16,230.05 0.28,229.54C0.52,228.54 0.98,226.59 1.33,225.12C1.68,223.65 2.03,222.18 2.38,220.71C2.73,219.24 3.17,217.34 3.42,216.29C3.56,215.71 3.61,215.48 3.74,214.94C3.94,214.13 4.24,212.99 4.53,211.88C4.88,210.54 5.29,208.93 5.67,207.46C6.05,205.99 6.47,204.33 6.8,203.05C7.05,202.06 7.26,201.19 7.47,200.4C7.64,199.75 7.77,199.36 7.97,198.64C8.29,197.5 8.78,195.69 9.19,194.22C9.59,192.75 10.04,191.13 10.4,189.81C10.7,188.73 10.98,187.67 11.21,186.86C11.38,186.28 11.47,186.01 11.65,185.39C11.97,184.31 12.51,182.45 12.94,180.98C13.37,179.51 13.87,177.83 14.24,176.57C14.51,175.63 14.72,174.89 14.95,174.12C15.16,173.43 15.32,172.94 15.57,172.15C15.94,170.97 16.48,169.21 16.94,167.74C17.4,166.27 18,164.34 18.31,163.32C18.48,162.78 18.53,162.59 18.69,162.08C18.95,161.27 19.36,160.05 19.73,158.91C20.17,157.56 20.7,155.94 21.17,154.49C21.63,153.09 22.04,151.78 22.520000000000003,150.365C23.03,148.85 23.6,147.21 24.13,145.67C24.64,144.17 25.28,142.34 25.65,141.25C25.87,140.62 25.96,140.32 26.16,139.74C26.44,138.93 26.82,137.91 27.2,136.84C27.67,135.52 28.31,133.76 28.79,132.42C29.19,131.3 29.6,130.13 29.9,129.32C30.09,128.79 30.18,128.58 30.39,128.01C30.78,126.97 31.49,125.06 32.04,123.6C32.58,122.15 33.11,120.72 33.67,119.265C34.24,117.78 34.83,116.28 35.42,114.77C36.02,113.22 36.66,111.58 37.26,110.07C37.83,108.65 38.37,107.34 38.94,105.94C39.53,104.49 40.37,102.45 40.74,101.53C40.91,101.11 40.94,101.02 41.11,100.62C41.44,99.83 42.07,98.35 42.6,97.11C43.19,95.72 44.09,93.6 44.48,92.7C44.65,92.3 44.68,92.22 44.85,91.83C45.19,91.05 45.85,89.54 46.41,88.28C47.05,86.83 47.8,85.14 48.480000000000004,83.63C49.13,82.2 49.75,80.85 50.4,79.45C51.05,78.03 51.7,76.62 52.385000000000005,75.17500000000001C53.09,73.68 53.91,71.99 54.57,70.63C55.11,69.51 55.66,68.39 56.06,67.57C56.33,67.03 56.45,66.79 56.74,66.21C57.27,65.16 58.41,62.91 58.97,61.8C59.31,61.12 59.48,60.78 59.8,60.17C60.22,59.36 60.72,58.41 61.26,57.38C61.94,56.09 62.78,54.5 63.575,53.04C64.38,51.56 65.37,49.79 66.05,48.56C66.53,47.7 66.86,47.11 67.27,46.38C67.69,45.64 68.06,45.01 68.56,44.14C69.26,42.94 70.22,41.3 71.08500000000001,39.855C71.98,38.36 73.2,36.38 73.87,35.31C74.24,34.71 74.4,34.48 74.75,33.93C75.27,33.12 76.05,31.88 76.69,30.9C77.29,29.97 77.95,29 78.48,28.2C78.91,27.56 79.17,27.16 79.64,26.48C80.33,25.48 81.69,23.56 82.22,22.8C82.46,22.46 82.49,22.41 82.74,22.07C83.36,21.22 84.87,19.17 85.99,17.7C87.15,16.18 88.38,14.62 89.605,13.125C90.83,11.63 92.06,10.17 93.33500000000001,8.725C94.61,7.28 95.94,5.83 97.235,4.48C98.46,3.2 100.11,1.63 100.91,0.84Q101.29,0.46 101.76,0" style="stroke-miterlimit: 1; vector-effect: non-scaling-stroke; fill: none; stroke: rgb(59, 46, 38); stroke-opacity: 1; stroke-width: 2px;"/></g><g class="contourlevel"><path class="openline" d="M0,283.96Q0.28,283.13 0.48,282.51C0.83,281.44 1.44,279.56 1.91,278.09C2.38,276.62 2.99,274.73 3.32,273.68C3.5,273.1 3.56,272.87 3.74,272.33C4.01,271.51 4.43,270.38 4.82,269.26C5.29,267.92 5.89,266.21 6.36,264.85C6.76,263.67 7.18,262.37 7.47,261.56C7.64,261.08 7.72,260.93 7.91,260.43C8.29,259.44 9,257.5 9.55,256.02C10.1,254.54 10.63,253.03 11.190000000000001,251.55C11.75,250.08 12.34,248.65 12.91,247.19C13.48,245.72 14.29,243.68 14.63,242.78C14.78,242.39 14.8,242.31 14.95,241.93C15.26,241.15 15.91,239.61 16.43,238.36C17,236.97 17.83,234.94 18.23,233.95C18.43,233.45 18.49,233.29 18.69,232.82C19.03,232.01 19.61,230.72 20.11,229.54C20.69,228.18 21.59,226.09 21.99,225.12C22.19,224.65 22.23,224.52 22.42,224.07C22.77,223.26 23.4,221.91 23.93,220.71C24.54,219.34 25.51,217.12 25.87,216.29C26.01,215.97 26.02,215.93 26.16,215.62C26.49,214.88 27.29,213.18 27.89,211.88C28.54,210.47 29.22,208.92 29.895,207.45C30.58,205.98 31.32,204.44 31.97,203.05C32.56,201.79 33.27,200.22 33.64,199.45C33.82,199.08 33.86,199.02 34.04,198.64C34.47,197.76 35.55,195.49 36.16,194.22C36.62,193.25 36.99,192.44 37.37,191.66C37.7,190.99 37.93,190.56 38.3,189.81C38.87,188.65 39.95,186.44 40.46,185.39C40.74,184.81 40.84,184.57 41.11,184.03C41.51,183.21 42.09,182.09 42.65,180.98C43.32,179.65 44.11,178.04 44.85,176.57C45.59,175.1 46.43,173.48 47.1,172.15C47.65,171.07 48.17,170 48.59,169.19C48.88,168.62 49.03,168.36 49.35,167.74C49.91,166.67 51.08,164.38 51.62,163.32C51.92,162.73 52.04,162.49 52.32,161.94C52.74,161.12 53.34,160.01 53.92,158.91C54.6,157.61 55.38,156.09 56.14,154.645C56.93,153.15 57.9,151.35 58.57,150.08C59.05,149.17 59.4,148.49 59.8,147.73C60.18,147.02 60.47,146.5 60.91,145.67C61.58,144.43 62.59,142.51 63.405,141.005C64.18,139.58 64.98,138.11 65.67,136.84C66.25,135.76 66.83,134.67 67.27,133.86C67.58,133.29 67.72,133.03 68.06,132.42C68.65,131.35 69.97,128.95 70.48,128.01C70.72,127.57 70.78,127.45 71.01,127.03C71.45,126.23 72.28,124.74 72.91,123.6C73.53,122.48 74.3,121.08 74.75,120.27C75.01,119.81 75.09,119.67 75.36,119.18C75.91,118.2 77.26,115.78 77.82,114.77C78.11,114.25 78.2,114.07 78.48,113.58C78.94,112.77 79.69,111.44 80.31,110.35C80.94,109.23 81.77,107.75 82.22,106.95C82.47,106.51 82.54,106.4 82.8,105.94C83.35,104.99 84.76,102.52 85.32,101.53C85.6,101.03 85.69,100.87 85.96,100.4C86.42,99.59 87.23,98.2 87.86,97.11C88.48,96.04 89.23,94.73 89.7,93.92C89.99,93.42 90.1,93.23 90.41,92.7C91,91.68 92.49,89.15 92.99,88.28C93.2,87.92 93.23,87.86 93.43,87.51C93.88,86.74 94.93,84.99 95.59,83.87C96.16,82.91 96.7,81.99 97.17,81.19C97.55,80.55 97.78,80.16 98.21,79.45C98.89,78.31 99.99,76.47 100.88,74.995C101.76,73.53 102.84,71.77 103.54,70.63C103.99,69.89 104.25,69.47 104.65,68.81C105.13,68.02 105.68,67.14 106.25,66.21C106.91,65.14 107.88,63.56 108.38,62.77C108.64,62.35 108.71,62.24 108.99,61.8C109.58,60.86 111.28,58.14 111.77,57.38C111.94,57.11 111.95,57.1 112.12,56.84C112.57,56.14 113.91,54.04 114.6,52.97C115.09,52.21 115.41,51.72 115.86,51.04C116.37,50.27 116.9,49.44 117.48,48.56C118.14,47.56 119.06,46.17 119.6,45.36C119.93,44.86 120.05,44.67 120.41,44.14C121.09,43.13 122.36,41.24 123.36500000000001,39.78C124.38,38.3 125.84,36.21 126.47,35.31C126.75,34.92 126.8,34.85 127.07,34.47C127.63,33.69 128.93,31.86 129.62,30.9C130.09,30.25 130.36,29.89 130.81,29.28C131.4,28.47 132.2,27.35 132.86,26.48C133.45,25.7 133.99,25.01 134.55,24.28C135.11,23.54 135.64,22.83 136.23,22.07C136.88,21.24 137.66,20.27 138.28,19.48C138.8,18.82 139.18,18.33 139.72,17.66C140.39,16.83 141.35,15.7 142.02,14.9C142.54,14.28 142.87,13.86 143.39,13.24C144.07,12.45 145.06,11.35 145.76,10.55C146.32,9.91 146.7,9.45 147.26,8.83C147.92,8.09 148.78,7.2 149.49,6.44C150.15,5.74 150.75,5.06 151.38,4.41C151.99,3.78 152.56,3.25 153.23,2.59Q154.03,1.8 155.85,0" style="stroke-miterlimit: 1; vector-effect: non-scaling-stroke; fill: none; stroke: rgb(72, 54, 43); stroke-opacity: 1; stroke-width: 2px;"/><path class="openline" d="M370,252.93Q368.47,255.08 367.8,256.02C367.24,256.81 366.79,257.47 366.26,258.2C365.71,258.94 365.14,259.65 364.55,260.43C363.9,261.27 363.16,262.29 362.53,263.08C362.01,263.73 361.61,264.19 361.07,264.85C360.39,265.68 359.46,266.85 358.79,267.65C358.27,268.27 357.92,268.65 357.39,269.26C356.71,270.05 355.75,271.17 355.05,271.97C354.49,272.61 354.07,273.06 353.51,273.68C352.84,274.42 352.02,275.34 351.31,276.11C350.67,276.81 350.06,277.43 349.44,278.09C348.82,278.75 348.24,279.39 347.58,280.08C346.84,280.85 345.89,281.81 345.21,282.51C344.69,283.04 344.39,283.36 343.84,283.91C343.03,284.73 341.48,286.26 340.82,286.92C340.5,287.24 340.44,287.3 340.1,287.63C339.34,288.38 337.58,290.09 336.32,291.28999999999996C335.09,292.47 333.48,293.99 332.63,294.79C332.18,295.21 332.02,295.35 331.59,295.75C330.9,296.39 329.74,297.47 328.89,298.25C328.15,298.93 327.45,299.56 326.79,300.16C326.21,300.69 325.79,301.07 325.15,301.65C324.25,302.46 322.48,304.05 321.88,304.58C321.65,304.78 321.64,304.79 321.41,304.99C320.76,305.56 318.47,307.59 317.68,308.28C317.31,308.6 317.22,308.68 316.86,308.99C316.19,309.57 314.84,310.73 313.94,311.51C313.16,312.19 312.41,312.83 311.74,313.4C311.18,313.88 310.83,314.19 310.2,314.72C309.23,315.54 307.74,316.81 306.5,317.85C305.25,318.9 303.7,320.2 302.73,321.01C302.13,321.51 301.8,321.78 301.26,322.23C300.59,322.79 299.8,323.43 298.99,324.1C298.04,324.88 296.55,326.12 295.9,326.65C295.6,326.89 295.56,326.93 295.25,327.18C294.52,327.78 292.38,329.52 291.52,330.22C291.07,330.59 290.91,330.72 290.48,331.06C289.79,331.62 288.69,332.5 287.78,333.23C286.86,333.97 285.68,334.92 284.99,335.47C284.59,335.79 284.46,335.89 284.04,336.23C283.2,336.9 281.11,338.56 280.3,339.2C279.91,339.51 279.81,339.59 279.44,339.89C278.76,340.43 277.51,341.41 276.57,342.15C275.65,342.88 274.53,343.76 273.84,344.3C273.42,344.63 273.27,344.74 272.83,345.08C271.98,345.74 269.92,347.35 269.09,348C268.68,348.32 268.56,348.42 268.17,348.72C267.49,349.25 266.3,350.15 265.35,350.88C264.39,351.62 263.12,352.61 262.45,353.13C262.09,353.41 262,353.47 261.62,353.76C260.82,354.37 258.78,355.92 257.88,356.61C257.36,357.01 257.15,357.19 256.67,357.55C255.98,358.07 255.05,358.75 254.14,359.44C253.06,360.25 251.82,361.21 250.61,362.115C249.33,363.07 247.72,364.26 246.67,365.05C245.97,365.58 245.52,365.92 244.92,366.37C244.28,366.85 243.7,367.26 242.93,367.83C241.85,368.62 240.33,369.77 239.065,370.69500000000005C237.84,371.59 236.55,372.51 235.45,373.31C234.52,373.99 233.58,374.7 232.89,375.2C232.43,375.54 232.22,375.67 231.72,376.03C230.82,376.67 228.89,378.06 227.98,378.72C227.46,379.1 227.23,379.27 226.75,379.62C226.06,380.11 225.16,380.72 224.24,381.37C223.12,382.16 221.76,383.15 220.51,384.03C219.27,384.9 217.9,385.83 216.77,386.62C215.83,387.28 214.87,387.96 214.18,388.44C213.72,388.76 213.52,388.88 213.03,389.22C212.14,389.83 210.27,391.1 209.29,391.77C208.66,392.21 208.3,392.48 207.73,392.86C207.07,393.31 206.38,393.74 205.56,394.29C204.48,395.01 202.57,396.29 201.82,396.8C201.5,397.02 201.44,397.06 201.13,397.27C200.48,397.7 199.15,398.54 198.08,399.24C196.9,400.01 195.6,400.89 194.35500000000002,401.695C193.11,402.5 191.8,403.3 190.61,404.06C189.51,404.76 188.07,405.71 187.44,406.1C187.18,406.26 187.14,406.27 186.87,406.44C186.17,406.86 184.29,408.02 183.13,408.74C182.12,409.37 180.98,410.11 180.29,410.52C179.91,410.75 179.79,410.8 179.39,411.03C178.57,411.51 176.81,412.56 175.66,413.25C174.66,413.85 173.57,414.53 172.88,414.93C172.48,415.16 172.34,415.22 171.92,415.46C171.08,415.93 169.36,416.91 168.18,417.59C167.12,418.2 165.82,418.97 165.16,419.34C164.84,419.52 164.77,419.54 164.44,419.72C163.68,420.13 161.95,421.07 160.71,421.75C159.48,422.43 158.26,423.12 157.01999999999998,423.78499999999997C155.77,424.45 154.49,425.07 153.23,425.72C151.98,426.36 150.32,427.22 149.49,427.66C149.07,427.88 148.94,427.97 148.54,428.17C147.86,428.51 146.75,429.01 145.76,429.49C144.6,430.04 143.15,430.74 142.02,431.3C141.08,431.76 140.12,432.27 139.43,432.59C138.97,432.8 138.77,432.87 138.28,433.08C137.39,433.47 135.79,434.18 134.55,434.74C133.3,435.3 131.72,436.01 130.81,436.43Q130.28,436.67 129.57,437" style="stroke-miterlimit: 1; vector-effect: non-scaling-stroke; fill: none; stroke: rgb(72, 54, 43); stroke-opacity: 1; stroke-width: 2px;"/></g><g class="contourlevel"><path class="openline" d="M0,317.79Q1.27,314.86 1.9,313.4C2.52,311.94 3.1,310.48 3.755,309.02C4.42,307.54 5.21,305.98 5.86,304.58C6.44,303.34 7.09,301.82 7.47,301.04C7.66,300.64 7.72,300.57 7.93,300.16C8.4,299.25 9.56,296.96 10.16,295.75C10.58,294.9 10.83,294.31 11.21,293.59C11.6,292.84 11.98,292.22 12.46,291.33C13.14,290.08 14.06,288.26 14.875,286.775C15.67,285.32 16.61,283.75 17.3,282.51C17.83,281.56 18.24,280.77 18.69,279.99C19.09,279.31 19.39,278.86 19.85,278.09C20.54,276.93 21.55,275.15 22.43,273.69C23.32,272.21 24.5,270.38 25.18,269.26C25.59,268.58 25.78,268.23 26.16,267.61C26.66,266.8 27.35,265.8 27.96,264.85C28.6,263.85 29.37,262.56 29.9,261.75C30.25,261.21 30.41,261 30.79,260.43C31.48,259.4 32.69,257.51 33.66,256.04999999999995C34.65,254.57 36.02,252.59 36.67,251.61C36.99,251.13 37.06,250.99 37.37,250.53C37.92,249.72 39.03,248.17 39.71,247.19C40.24,246.42 40.62,245.82 41.11,245.11C41.64,244.35 42.2,243.61 42.78,242.78C43.44,241.85 44.27,240.6 44.85,239.79C45.25,239.22 45.47,238.95 45.9,238.36C46.59,237.4 48.07,235.28 48.59,234.56C48.8,234.27 48.82,234.25 49.04,233.95C49.63,233.15 51.2,230.95 52.275,229.47C53.34,228.01 54.82,226.01 55.46,225.12C55.74,224.73 55.79,224.66 56.06,224.28C56.63,223.5 58.03,221.65 58.72,220.71C59.16,220.1 59.37,219.78 59.8,219.2C60.4,218.38 61.32,217.19 61.98,216.29C62.55,215.52 63.01,214.87 63.54,214.15C64.09,213.4 64.66,212.68 65.25,211.88C65.9,211.01 66.67,209.92 67.27,209.12C67.74,208.49 68.04,208.11 68.53,207.46C69.22,206.54 70.41,204.9 71.01,204.1C71.35,203.65 71.46,203.52 71.81,203.05C72.51,202.12 73.85,200.3 74.91499999999999,198.855C76.05,197.33 77.27,195.66 78.41499999999999,194.125C79.51,192.65 80.98,190.69 81.62,189.81C81.9,189.42 81.95,189.35 82.22,188.97C82.79,188.19 84.18,186.33 84.87,185.39C85.31,184.78 85.53,184.46 85.96,183.88C86.55,183.07 87.43,181.88 88.09,180.98C88.67,180.19 89.16,179.49 89.7,178.75C90.23,178.02 90.73,177.36 91.3,176.57C91.96,175.65 92.84,174.39 93.43,173.58C93.84,173.02 94.04,172.74 94.47,172.15C95.16,171.19 96.65,169.07 97.17,168.35C97.38,168.06 97.4,168.04 97.62,167.74C98.2,166.93 99.77,164.69 100.82499999999999,163.195C101.85,161.75 103.16,159.89 103.84,158.91C104.2,158.4 104.31,158.22 104.65,157.73C105.21,156.92 106.23,155.46 106.9,154.49C107.45,153.7 107.88,153.05 108.38,152.32C108.89,151.58 109.37,150.9 109.93,150.08C110.6,149.1 111.57,147.64 112.12,146.83C112.45,146.35 112.56,146.18 112.91,145.67C113.58,144.67 114.88,142.73 115.86500000000001,141.255C116.85,139.78 118.13,137.85 118.8,136.84C119.15,136.31 119.27,136.12 119.6,135.62C120.13,134.81 121.04,133.42 121.69,132.42C122.27,131.53 122.82,130.67 123.33,129.89C123.77,129.22 124.07,128.76 124.55,128.01C125.27,126.89 126.31,125.27 127.22,123.835C128.18,122.33 129.55,120.17 130.17,119.18C130.46,118.72 130.53,118.6 130.81,118.16C131.31,117.36 132.28,115.83 132.94,114.77C133.52,113.85 134.06,112.96 134.55,112.17C134.96,111.51 135.22,111.09 135.67,110.35C136.37,109.21 137.44,107.47 138.32999999999998,106.015C139.24,104.53 140.38,102.65 141.06,101.53C141.46,100.87 141.65,100.55 142.02,99.94C142.51,99.13 143.13,98.1 143.72,97.11C144.37,96.03 145.28,94.51 145.76,93.71C146.02,93.27 146.09,93.16 146.36,92.7C146.93,91.75 148.45,89.19 148.98,88.28C149.22,87.88 149.26,87.8 149.49,87.41C149.95,86.63 150.93,84.98 151.58,83.87C152.16,82.88 152.76,81.86 153.23,81.05C153.58,80.44 153.77,80.12 154.16,79.45C154.82,78.31 155.98,76.35 156.85500000000002,74.845C157.69,73.41 158.61,71.84 159.31,70.63C159.84,69.72 160.27,68.99 160.71,68.22C161.12,67.52 161.41,67.01 161.87,66.21C162.56,65.02 163.58,63.26 164.435,61.785C165.29,60.31 166.31,58.57 167,57.38C167.47,56.58 167.77,56.06 168.18,55.36C168.62,54.6 169.04,53.88 169.57,52.97C170.27,51.76 171.19,50.2 172.035,48.760000000000005C172.92,47.26 174.09,45.25 174.76,44.14C175.14,43.51 175.31,43.23 175.66,42.65C176.14,41.84 176.79,40.73 177.39,39.73C178.03,38.66 178.9,37.23 179.39,36.42C179.67,35.95 179.75,35.8 180.05,35.31C180.64,34.33 182.27,31.68 182.76,30.9C182.94,30.62 182.95,30.6 183.13,30.32C183.58,29.6 184.84,27.56 185.53,26.48C186.04,25.68 186.41,25.13 186.87,24.42C187.36,23.66 187.81,22.92 188.36,22.07C189.03,21.04 190.08,19.49 190.61,18.69C190.9,18.25 190.97,18.12 191.28,17.66C191.93,16.7 193.3,14.69 194.32999999999998,13.219999999999999C195.37,11.75 196.85,9.69 197.49,8.83C197.76,8.47 197.81,8.41 198.08,8.06C198.66,7.29 200.15,5.29 200.84,4.41C201.24,3.9 201.42,3.72 201.82,3.23Q202.48,2.42 204.44,0" style="stroke-miterlimit: 1; vector-effect: non-scaling-stroke; fill: none; stroke: rgb(85, 62, 47); stroke-opacity: 1; stroke-width: 2px;"/><path class="openline" d="M370,195.55Q367.95,197.86 367.26,198.64C366.84,199.11 366.69,199.31 366.26,199.79C365.52,200.61 363.83,202.36 363.18,203.05C362.88,203.37 362.84,203.43 362.53,203.75C361.8,204.51 360.06,206.25 358.805,207.48000000000002C357.56,208.7 355.87,210.31 355.05,211.08C354.66,211.45 354.55,211.53 354.17,211.88C353.49,212.51 352.18,213.74 351.31,214.53C350.59,215.18 349.97,215.72 349.33,216.29C348.73,216.83 348.26,217.28 347.58,217.88C346.67,218.69 344.94,220.18 344.33,220.71C344.09,220.92 344.08,220.93 343.84,221.14C343.18,221.71 340.93,223.64 340.1,224.34C339.68,224.69 339.56,224.79 339.16,225.12C338.47,225.69 337.27,226.73 336.36,227.49C335.51,228.2 334.58,228.97 333.89,229.54C333.4,229.95 333.17,230.15 332.63,230.6C331.69,231.38 329.99,232.77 328.72,233.81C327.5,234.81 326.17,235.9 325.15,236.73C324.38,237.35 323.78,237.84 323.13,238.36C322.53,238.84 322.09,239.2 321.41,239.76C320.41,240.58 318.93,241.78 317.69,242.79000000000002C316.44,243.8 314.95,245.01 313.94,245.82C313.26,246.37 312.83,246.71 312.24,247.19C311.59,247.71 310.97,248.21 310.2,248.84C309.17,249.67 307.85,250.76 306.63,251.745C305.36,252.78 303.7,254.14 302.73,254.92C302.16,255.38 301.89,255.6 301.37,256.02C300.69,256.58 299.83,257.28 298.99,257.97C298.05,258.74 296.65,259.88 295.99,260.43C295.66,260.7 295.59,260.77 295.25,261.05C294.48,261.69 292.33,263.47 291.52,264.14C291.13,264.46 291.03,264.54 290.66,264.85C289.98,265.41 288.7,266.48 287.78,267.25C286.94,267.95 286.06,268.69 285.38,269.26C284.87,269.69 284.6,269.92 284.04,270.39C283.09,271.19 281.49,272.55 280.235,273.625C279,274.68 277.53,275.93 276.57,276.76C275.95,277.3 275.59,277.61 275.03,278.09C274.36,278.67 273.61,279.31 272.83,279.99C271.93,280.77 270.63,281.92 269.95,282.51C269.58,282.83 269.48,282.92 269.09,283.26C268.25,283.99 266.43,285.61 265.15,286.74C263.94,287.81 262.56,289.04 261.62,289.89C260.98,290.46 260.6,290.81 260.03,291.33C259.37,291.93 258.64,292.58 257.88,293.27C257.03,294.04 255.87,295.12 255.18,295.75C254.75,296.14 254.59,296.28 254.14,296.69C253.28,297.48 251.64,299 250.39499999999998,300.155C249.15,301.31 247.51,302.84 246.67,303.64C246.23,304.05 246.09,304.19 245.68,304.58C244.99,305.23 243.76,306.38 242.93,307.17C242.24,307.83 241.67,308.39 241.04,308.99C240.42,309.58 239.86,310.09 239.19,310.74C238.36,311.53 237.14,312.74 236.45,313.4C236.04,313.8 235.89,313.94 235.45,314.36C234.62,315.17 233.05,316.71 231.825,317.91999999999996C230.56,319.16 228.67,321.03 227.98,321.71C227.73,321.96 227.71,321.98 227.46,322.23C226.85,322.84 225.05,324.6 224.24,325.42C223.74,325.92 223.52,326.17 223.04,326.65C222.35,327.34 221.29,328.39 220.51,329.17C219.84,329.84 219.28,330.43 218.66,331.06C218.04,331.69 217.44,332.27 216.77,332.95C216,333.73 215.01,334.77 214.32,335.47C213.82,335.98 213.55,336.24 213.03,336.77C212.23,337.58 210.66,339.22 210,339.89C209.68,340.21 209.62,340.27 209.29,340.6C208.54,341.36 206.89,343.09 205.64,344.38C204.34,345.73 202.93,347.18 201.635,348.52C200.41,349.78 198.87,351.37 198.08,352.19C197.68,352.6 197.57,352.73 197.19,353.13C196.51,353.84 195.12,355.24 194.34,356.06C193.79,356.64 193.47,357 192.94,357.55C192.26,358.25 191.35,359.17 190.61,359.93C189.93,360.63 189.32,361.3 188.68,361.96C188.07,362.59 187.52,363.13 186.87,363.8C186.11,364.58 185.1,365.66 184.41,366.37C183.92,366.87 183.64,367.13 183.13,367.65C182.33,368.46 180.77,370.12 180.11,370.79C179.79,371.11 179.72,371.16 179.39,371.49C178.64,372.24 176.95,374 175.715,375.255C174.46,376.53 172.6,378.37 171.92,379.07C171.66,379.33 171.65,379.36 171.4,379.62C170.79,380.24 168.99,381.97 168.18,382.79C167.68,383.3 167.45,383.55 166.97,384.03C166.28,384.71 165.23,385.7 164.44,386.47C163.74,387.16 163.11,387.82 162.47,388.44C161.87,389.02 161.36,389.47 160.71,390.1C159.88,390.9 158.57,392.21 157.88,392.86C157.5,393.22 157.37,393.31 156.97,393.69C156.14,394.46 154.46,396.08 153.20499999999998,397.245C151.97,398.39 150.36,399.82 149.49,400.63C149.01,401.08 148.83,401.28 148.38,401.69C147.7,402.31 146.61,403.23 145.76,403.98C144.95,404.7 144.11,405.5 143.42,406.1C142.9,406.55 142.6,406.78 142.02,407.27C141.07,408.08 139.53,409.45 138.275,410.51C137.04,411.55 135.53,412.74 134.55,413.56C133.9,414.1 133.51,414.46 132.93,414.93C132.28,415.46 131.61,415.94 130.81,416.56C129.76,417.38 128.43,418.48 127.195,419.42999999999995C125.94,420.39 124.39,421.49 123.33,422.29C122.58,422.86 122.06,423.3 121.42,423.76C120.81,424.2 120.31,424.51 119.6,425C118.57,425.71 116.63,427.08 115.86,427.63C115.52,427.88 115.45,427.94 115.12,428.17C114.46,428.62 113.17,429.4 112.12,430.08C110.93,430.85 109.62,431.78 108.35499999999999,432.57C107.13,433.34 105.88,434.01 104.65,434.75Q103.41,435.49 100.93,437" style="stroke-miterlimit: 1; vector-effect: non-scaling-stroke; fill: none; stroke: rgb(85, 62, 47); stroke-opacity: 1; stroke-width: 2px;"/></g><g class="contourlevel"><path class="openline" d="M0,341.07Q0.4,340.41 0.7,339.89C1.28,338.89 2.65,336.44 3.18,335.47C3.44,335 3.48,334.86 3.74,334.42C4.21,333.61 5.23,332.12 5.88,331.06C6.46,330.13 6.95,329.2 7.47,328.42C7.9,327.76 8.25,327.35 8.74,326.65C9.43,325.65 10.66,323.72 11.21,322.97C11.46,322.62 11.52,322.58 11.79,322.23C12.43,321.39 13.89,319.34 15.004999999999999,317.885C16.17,316.38 17.4,314.83 18.634999999999998,313.335C19.86,311.85 21.11,310.38 22.380000000000003,308.94C23.65,307.5 24.97,306.05 26.25,304.66999999999996C27.48,303.35 29.15,301.59 29.9,300.84C30.23,300.51 30.3,300.47 30.62,300.16C31.28,299.51 32.8,297.93 33.64,297.12C34.22,296.57 34.6,296.26 35.14,295.75C35.81,295.11 36.59,294.3 37.37,293.58C38.18,292.83 39.21,291.96 39.9,291.33C40.38,290.89 40.59,290.67 41.11,290.2C42.01,289.39 43.62,288.01 44.870000000000005,286.94C46.11,285.88 47.59,284.62 48.59,283.81C49.25,283.28 49.68,282.98 50.26,282.51C50.91,281.98 51.53,281.43 52.32,280.79C53.35,279.96 54.71,278.93 55.935,277.985C57.2,277.01 58.73,275.84 59.8,275.05C60.55,274.5 61.09,274.14 61.72,273.68C62.34,273.23 62.82,272.83 63.54,272.3C64.56,271.55 66.57,270.12 67.27,269.64C67.54,269.45 67.57,269.44 67.84,269.26C68.47,268.83 69.94,267.76 71.01,267.03C72.08,266.29 73.64,265.27 74.25,264.85C74.49,264.68 74.5,264.67 74.75,264.5C75.42,264.05 77.36,262.74 78.48,262.01C79.39,261.42 80.27,260.88 80.96,260.43C81.45,260.11 81.69,259.93 82.22,259.58C83.13,258.98 84.92,257.85 85.96,257.2C86.71,256.73 87.26,256.42 87.89,256.02C88.51,255.63 88.99,255.31 89.7,254.86C90.72,254.22 92.44,253.15 93.43,252.55C94.07,252.16 94.46,251.95 95.03,251.61C95.69,251.21 96.36,250.78 97.17,250.28C98.24,249.62 99.95,248.6 100.91,248.03C101.5,247.68 101.82,247.51 102.36,247.19C103.04,246.79 103.79,246.32 104.65,245.81C105.74,245.16 107.42,244.15 108.38,243.6C108.97,243.26 109.29,243.09 109.83,242.78C110.51,242.39 111.26,241.92 112.12,241.41C113.21,240.76 114.89,239.78 115.86,239.22C116.48,238.86 116.83,238.68 117.38,238.36C118.05,237.97 118.76,237.53 119.6,237.04C120.68,236.4 122.35,235.42 123.33,234.85C123.96,234.48 124.34,234.28 124.9,233.95C125.57,233.56 126.25,233.13 127.07,232.64C128.15,232 129.84,230.99 130.81,230.42C131.42,230.06 131.76,229.87 132.31,229.54C132.98,229.13 133.71,228.68 134.55,228.16C135.64,227.49 137.38,226.4 138.28,225.85C138.79,225.54 139,225.41 139.47,225.12C140.16,224.69 141.08,224.09 142.02,223.48C143.2,222.71 144.72,221.72 146,220.865C147.21,220.06 148.37,219.26 149.49,218.48C150.55,217.74 151.91,216.77 152.56,216.29C152.87,216.06 152.92,216.02 153.23,215.78C153.97,215.22 156.04,213.65 156.97,212.93C157.53,212.5 157.79,212.29 158.3,211.88C158.99,211.32 159.89,210.56 160.71,209.85C161.59,209.09 162.73,208.09 163.41,207.46C163.84,207.07 164,206.91 164.44,206.48C165.28,205.66 166.83,204.16 168.035,202.895C169.31,201.54 170.64,200.07 171.88,198.58999999999997C173.13,197.1 174.37,195.51 175.5,194.005C176.55,192.59 177.75,190.86 178.45,189.81C178.86,189.2 179.03,188.92 179.39,188.34C179.9,187.53 180.61,186.41 181.22,185.39C181.86,184.31 182.68,182.81 183.13,182.01C183.37,181.57 183.44,181.44 183.69,180.98C184.2,180.02 185.4,177.72 185.98,176.57C186.35,175.83 186.55,175.4 186.87,174.74C187.25,173.95 187.63,173.13 188.08,172.15C188.66,170.88 189.57,168.78 190.03,167.74C190.28,167.17 190.38,166.95 190.61,166.41C190.96,165.6 191.44,164.44 191.89,163.32C192.43,161.98 193.18,160.07 193.63,158.91C193.92,158.16 194.09,157.72 194.34,157.05C194.64,156.27 194.94,155.46 195.3,154.49C195.77,153.22 196.41,151.45 196.9,150.08C197.33,148.88 197.8,147.51 198.08,146.71C198.24,146.26 198.28,146.14 198.44,145.67C198.77,144.71 199.45,142.72 199.94,141.25C200.43,139.78 201.05,137.88 201.39,136.84C201.58,136.27 201.65,136.06 201.82,135.53C202.09,134.71 202.46,133.55 202.82,132.42C203.25,131.08 203.75,129.48 204.21,128.01C204.67,126.54 205.11,125.08 205.565,123.615C206.02,122.14 206.48,120.66 206.93,119.18C207.38,117.71 207.84,116.15 208.25,114.77C208.62,113.54 209.06,112.08 209.29,111.29C209.41,110.88 209.43,110.78 209.56,110.35C209.83,109.42 210.44,107.41 210.88,105.94C211.31,104.47 211.78,102.85 212.17,101.53C212.49,100.45 212.79,99.41 213.03,98.6C213.2,98.02 213.28,97.74 213.46,97.11C213.77,96.03 214.32,94.17 214.75,92.7C215.18,91.23 215.66,89.55 216.03,88.28C216.31,87.33 216.54,86.55 216.77,85.77C216.97,85.09 217.09,84.63 217.31,83.87C217.65,82.7 218.17,80.92 218.6,79.45C219.03,77.98 219.54,76.23 219.89,75.04C220.13,74.22 220.3,73.69 220.51,72.98C220.73,72.22 220.92,71.54 221.19,70.63C221.55,69.39 222.06,67.68 222.5,66.21C222.94,64.74 223.5,62.85 223.82,61.8C224,61.21 224.07,60.98 224.24,60.43C224.49,59.61 224.82,58.49 225.16,57.38C225.57,56.04 226.05,54.45 226.51,52.97C226.98,51.46 227.46,49.91 227.93,48.415000000000006C228.39,46.97 228.83,45.58 229.29,44.14C229.76,42.68 230.28,41.06 230.72,39.73C231.08,38.64 231.45,37.57 231.72,36.75C231.91,36.18 231.99,35.92 232.19,35.31C232.55,34.24 233.17,32.39 233.69,30.9C234.22,29.36 234.8,27.73 235.35,26.215C235.86,24.79 236.34,23.47 236.87,22.07C237.41,20.62 238.13,18.75 238.56,17.66C238.82,17.02 238.95,16.72 239.19,16.13C239.52,15.32 239.9,14.3 240.34,13.24C240.88,11.92 241.73,9.91 242.22,8.83C242.51,8.19 242.66,7.91 242.93,7.33C243.3,6.52 243.73,5.48 244.24,4.41Q244.87,3.08 246.45,0" style="stroke-miterlimit: 1; vector-effect: non-scaling-stroke; fill: none; stroke: rgb(98, 69, 51); stroke-opacity: 1; stroke-width: 2px;"/><path class="openline" d="M370,145.92Q367.38,147.78 366.26,148.53C365.36,149.13 364.48,149.64 363.8,150.08C363.31,150.4 363.07,150.58 362.53,150.92C361.62,151.49 359.91,152.5 358.79,153.14C357.89,153.65 357.03,154.1 356.35,154.49C355.85,154.77 355.6,154.94 355.05,155.24C354.13,155.75 352.54,156.6 351.31,157.24C350.12,157.86 349.01,158.42 347.79999999999995,159.03C346.52,159.67 345.14,160.36 343.84,160.99C342.58,161.6 341.01,162.35 340.1,162.77C339.58,163.01 339.36,163.1 338.88,163.32C338.19,163.64 337.28,164.07 336.36,164.5C335.24,165.02 333.87,165.64 332.63,166.19C331.42,166.73 330.24,167.26 329.01,167.79500000000002C327.75,168.35 326.43,168.92 325.15,169.47C323.89,170.01 322.54,170.59 321.41,171.07C320.47,171.47 319.53,171.86 318.84,172.15C318.38,172.35 318.18,172.44 317.68,172.65C316.79,173.03 315.19,173.69 313.94,174.21C312.69,174.73 311.25,175.33 310.2,175.76C309.43,176.07 308.85,176.31 308.21,176.57C307.61,176.82 307.15,177.01 306.46,177.29C305.45,177.7 303.97,178.3 302.73,178.81C301.48,179.32 299.98,179.94 298.99,180.34C298.34,180.6 297.95,180.75 297.38,180.98C296.72,181.25 296.06,181.52 295.25,181.85C294.18,182.29 292.76,182.86 291.52,183.37C290.27,183.88 288.7,184.52 287.78,184.89C287.25,185.1 287.01,185.19 286.52,185.39C285.83,185.67 284.95,186.04 284.04,186.41C282.92,186.87 281.55,187.43 280.3,187.94C279.06,188.45 277.36,189.17 276.57,189.49C276.21,189.64 276.12,189.67 275.77,189.81C275.1,190.09 273.87,190.61 272.83,191.04C271.66,191.53 270.34,192.07 269.09,192.6C267.84,193.13 266.58,193.68 265.33500000000004,194.215C264.09,194.75 262.86,195.27 261.62,195.81C260.37,196.35 259.02,196.95 257.88,197.46C256.93,197.88 255.94,198.33 255.25,198.64C254.8,198.84 254.62,198.92 254.14,199.14C253.26,199.54 251.64,200.27 250.4,200.85C249.15,201.43 247.49,202.24 246.67,202.63C246.27,202.82 246.16,202.87 245.78,203.05C245.1,203.38 243.94,203.94 242.93,204.44C241.77,205.02 240.27,205.79 239.19,206.34C238.37,206.76 237.69,207.11 237.03,207.46C236.46,207.76 236.09,207.96 235.45,208.31C234.47,208.84 232.85,209.72 231.72,210.36C230.77,210.9 229.8,211.47 229.11,211.88C228.66,212.15 228.46,212.26 227.98,212.55C227.09,213.09 225.32,214.18 224.24,214.86C223.41,215.39 222.71,215.85 222.05,216.29C221.49,216.67 221.13,216.91 220.51,217.35C219.53,218.04 217.58,219.45 216.77,220.05C216.38,220.34 216.27,220.42 215.9,220.71C215.22,221.24 213.95,222.22 213.03,222.97C212.16,223.69 211.22,224.52 210.53,225.12C210.04,225.55 209.8,225.76 209.29,226.24C208.4,227.07 206.93,228.49 205.74,229.725C204.46,231.06 203.11,232.53 201.86,233.995C200.6,235.47 199.35,237.03 198.21,238.53500000000003C197.13,239.96 195.87,241.79 195.18,242.78C194.81,243.31 194.67,243.49 194.34,244C193.81,244.81 192.96,246.15 192.32,247.19C191.72,248.16 191.08,249.22 190.61,250.03C190.26,250.63 190.09,250.95 189.72,251.61C189.11,252.71 187.78,255.14 187.3,256.02C187.1,256.39 187.06,256.46 186.87,256.82C186.47,257.59 185.64,259.18 185.02,260.43C184.36,261.76 183.68,263.14 183,264.565C182.27,266.08 181.43,267.87 180.78,269.26C180.26,270.37 179.76,271.45 179.39,272.27C179.14,272.83 179.04,273.08 178.78,273.68C178.31,274.74 177.39,276.81 176.82,278.09C176.38,279.08 176,279.94 175.66,280.73C175.38,281.38 175.22,281.78 174.91,282.51C174.42,283.65 173.57,285.65 173.02,286.92C172.6,287.89 172.25,288.69 171.92,289.48C171.64,290.15 171.47,290.58 171.16,291.33C170.68,292.49 169.84,294.47 169.3,295.75C168.88,296.74 168.51,297.58 168.18,298.37C167.91,299.02 167.75,299.43 167.45,300.16C166.98,301.31 166.15,303.29 165.6,304.58C165.17,305.59 164.77,306.48 164.44,307.28C164.18,307.91 164.04,308.29 163.75,308.99C163.28,310.12 162.43,312.11 161.88,313.4C161.45,314.41 161.05,315.3 160.71,316.1C160.44,316.74 160.3,317.12 160,317.82C159.52,318.95 158.64,320.96 158.09,322.23C157.67,323.19 157.31,323.98 156.97,324.76C156.68,325.43 156.5,325.89 156.17,326.65C155.67,327.81 154.77,329.85 154.22,331.06C153.84,331.9 153.56,332.47 153.23,333.2C152.89,333.94 152.62,334.59 152.23,335.47C151.68,336.7 150.73,338.81 150.22,339.89C149.92,340.52 149.76,340.8 149.49,341.38C149.11,342.19 148.66,343.23 148.16,344.3C147.54,345.62 146.43,347.94 146.05,348.72C145.91,349 145.9,349.02 145.76,349.3C145.41,350.01 144.54,351.86 143.91,353.13C143.29,354.39 142.39,356.14 142.02,356.88C141.87,357.19 141.86,357.23 141.7,357.55C141.29,358.38 140.09,360.75 139.45,361.96C139,362.81 138.66,363.38 138.28,364.11C137.89,364.85 137.59,365.49 137.12,366.37C136.45,367.63 135.46,369.45 134.635,370.94C133.84,372.39 132.96,373.98 132.26,375.2C131.72,376.13 131.26,376.87 130.81,377.64C130.41,378.33 130.16,378.83 129.7,379.62C129.01,380.8 127.95,382.54 127.055,384.005C126.15,385.48 124.99,387.37 124.3,388.44C123.9,389.05 123.7,389.3 123.33,389.87C122.8,390.68 122.07,391.9 121.43,392.86C120.82,393.77 120.14,394.7 119.6,395.5C119.16,396.15 118.9,396.58 118.43,397.27C117.75,398.26 116.41,400.06 115.86,400.84C115.59,401.22 115.56,401.3 115.28,401.69C114.64,402.58 113.16,404.55 112.045,405.995C110.88,407.5 109.65,409.06 108.425,410.565C107.2,412.06 105.97,413.54 104.70500000000001,414.99C103.44,416.44 102.14,417.9 100.85499999999999,419.275C99.63,420.59 97.89,422.31 97.17,423.07C96.87,423.39 96.84,423.46 96.54,423.76C95.9,424.41 94.28,425.86 93.43,426.68C92.84,427.25 92.49,427.66 91.93,428.17C91.27,428.77 90.48,429.37 89.7,430.05C88.81,430.83 87.55,432.03 86.86,432.59C86.49,432.89 86.36,432.95 85.96,433.25C85.14,433.87 83.07,435.49 82.22,436.17Q81.78,436.53 81.22,437" style="stroke-miterlimit: 1; vector-effect: non-scaling-stroke; fill: none; stroke: rgb(98, 69, 51); stroke-opacity: 1; stroke-width: 2px;"/></g><g class="contourlevel"><path class="openline" d="M0,358.17Q0.26,357.85 0.49,357.55C1.1,356.75 2.58,354.57 3.725,353.11C4.9,351.61 6.16,350.11 7.4399999999999995,348.675C8.72,347.24 10.13,345.79 11.43,344.49C12.62,343.3 13.99,341.99 14.95,341.16C15.57,340.62 15.97,340.36 16.53,339.89C17.2,339.33 17.87,338.68 18.69,338.01C19.72,337.18 21.03,336.22 22.26,335.34000000000003C23.52,334.43 24.96,333.42 26.16,332.66C27.14,332.04 28.19,331.48 28.88,331.06C29.3,330.8 29.45,330.68 29.9,330.41C30.75,329.91 32.39,329.02 33.64,328.39C34.87,327.77 36.11,327.2 37.355000000000004,326.64C38.6,326.09 39.85,325.55 41.11,325.06C42.35,324.58 43.6,324.14 44.85,323.74C46.09,323.34 47.56,322.91 48.59,322.64C49.3,322.46 49.8,322.37 50.41,322.23C51.04,322.08 51.57,321.92 52.32,321.77C53.36,321.56 54.81,321.29 56.06,321.12C57.3,320.95 58.55,320.81 59.8,320.73C61.05,320.65 62.29,320.6 63.54,320.61C64.78,320.62 66.03,320.67 67.27,320.78C68.52,320.89 69.76,321.06 71.01,321.29C72.28,321.53 73.59,321.83 74.83500000000001,322.20500000000004C76.08,322.58 77.27,323.01 78.48,323.54C79.74,324.09 81.22,324.89 82.22,325.48C82.92,325.9 83.37,326.22 83.96,326.65C84.61,327.12 85.25,327.58 85.96,328.2C86.86,328.99 88.19,330.34 88.86,331.06C89.24,331.47 89.36,331.61 89.7,332.05C90.31,332.84 91.46,334.42 92.12,335.47C92.65,336.32 93.03,337.07 93.43,337.84C93.79,338.54 94.07,339.07 94.42,339.89C94.93,341.07 95.6,342.83 96.07,344.3C96.52,345.73 96.88,347.15 97.195,348.615C97.51,350.1 97.77,351.63 97.97,353.13C98.17,354.61 98.3,356.08 98.4,357.55C98.5,359.02 98.54,360.49 98.55,361.96C98.56,363.43 98.51,364.9 98.44,366.37C98.37,367.84 98.25,369.32 98.11,370.79C97.96,372.26 97.75,373.98 97.57,375.2C97.44,376.08 97.3,376.71 97.17,377.46C97.05,378.19 96.98,378.77 96.82,379.62C96.6,380.83 96.24,382.56 95.9,384.03C95.56,385.5 95.18,386.97 94.77,388.44C94.36,389.92 93.91,391.41 93.44,392.88C92.97,394.35 92.49,395.81 91.96,397.27C91.43,398.75 90.67,400.68 90.25,401.69C90.03,402.22 89.92,402.39 89.7,402.89C89.34,403.7 88.87,404.94 88.34,406.1C87.7,407.51 86.84,409.21 86.07,410.71C85.33,412.15 84.52,413.71 83.81,414.93C83.25,415.9 82.69,416.69 82.22,417.48C81.82,418.15 81.61,418.61 81.15,419.34C80.45,420.46 79.33,422.08 78.32,423.5C77.22,425.03 76.01,426.69 74.785,428.21000000000004C73.57,429.72 72.3,431.21 71.025,432.605C69.8,433.94 67.95,435.7 67.27,436.42Q67.01,436.69 66.74,437" style="stroke-miterlimit: 1; vector-effect: non-scaling-stroke; fill: none; stroke: rgb(111, 76, 54); stroke-opacity: 1; stroke-width: 2px;"/><path class="openline" d="M370,104.09Q367.51,104.57 366.26,104.76C365.02,104.95 363.78,105.11 362.53,105.24C361.29,105.37 360.04,105.48 358.79,105.56C357.54,105.64 356.3,105.69 355.05,105.72C353.8,105.75 352.56,105.75 351.31,105.73C350.07,105.71 348.82,105.67 347.58,105.6C346.33,105.53 345.09,105.44 343.84,105.33C342.59,105.21 341.34,105.08 340.1,104.91C338.85,104.74 337.6,104.55 336.36,104.33C335.11,104.11 333.87,103.87 332.63,103.59C331.38,103.31 330.13,102.99 328.89,102.65C327.64,102.31 326.4,101.94 325.15999999999997,101.525C323.91,101.11 322.65,100.66 321.41,100.16C320.16,99.66 318.83,99.07 317.68,98.53C316.67,98.05 315.55,97.47 314.87,97.11C314.47,96.9 314.35,96.85 313.94,96.61C313.11,96.13 311.28,95.03 310.2,94.32C309.33,93.75 308.58,93.19 307.91,92.7C307.37,92.3 307.05,92.08 306.46,91.6C305.49,90.81 303.94,89.5 302.70000000000005,88.31C301.37,87.03 300.01,85.59 298.77,84.13C297.52,82.65 296.3,81.04 295.225,79.485C294.21,78.01 293.12,76.18 292.45,75.04C292.04,74.35 291.86,73.98 291.52,73.34C291.1,72.54 290.62,71.65 290.14,70.63C289.53,69.34 288.62,67.19 288.21,66.21C288.01,65.72 287.96,65.58 287.78,65.11C287.48,64.3 286.97,62.99 286.57,61.8C286.11,60.44 285.62,58.86 285.2,57.38C284.78,55.91 284.4,54.44 284.045,52.96C283.69,51.5 283.37,50.03 283.08,48.56C282.79,47.09 282.54,45.61 282.3,44.14C282.06,42.67 281.85,41.2 281.66,39.73C281.47,38.26 281.31,36.78 281.17,35.31C281.03,33.84 280.92,32.37 280.82,30.9C280.72,29.43 280.65,27.95 280.59,26.48C280.53,25.01 280.5,23.54 280.48,22.07C280.46,20.6 280.47,19.13 280.49,17.66C280.51,16.19 280.56,14.71 280.63,13.24C280.7,11.77 280.78,10.3 280.89,8.83C281,7.36 281.14,5.88 281.3,4.41Q281.46,2.94 281.87,0" style="stroke-miterlimit: 1; vector-effect: non-scaling-stroke; fill: none; stroke: rgb(111, 76, 54); stroke-opacity: 1; stroke-width: 2px;"/></g><g class="contourlevel"><path class="openline" d="M0,371.3Q0.29,371.04 0.54,370.79C1.17,370.17 2.89,368.21 3.74,367.42C4.25,366.95 4.54,366.79 5.03,366.37C5.72,365.78 6.58,364.88 7.47,364.17C8.43,363.4 9.96,362.43 10.6,361.96C10.89,361.75 10.91,361.69 11.21,361.48C11.92,360.99 13.7,359.88 14.95,359.2C16.14,358.55 17.29,358.01 18.515,357.45500000000004C19.78,356.89 21.12,356.3 22.42,355.84C23.67,355.39 24.91,355.03 26.16,354.71C27.4,354.39 28.65,354.13 29.9,353.92C31.14,353.72 32.39,353.57 33.64,353.48C34.88,353.39 36.13,353.35 37.37,353.38C38.62,353.41 39.87,353.49 41.11,353.65C42.36,353.81 43.61,354.04 44.85,354.34C46.11,354.65 47.36,355.02 48.59,355.49C49.85,355.97 51.6,356.81 52.32,357.18C52.63,357.34 52.67,357.37 52.96,357.55C53.61,357.95 55.07,358.82 56.06,359.55C57.06,360.29 58.26,361.35 58.93,361.96C59.31,362.31 59.43,362.42 59.8,362.81C60.52,363.58 62.17,365.53 62.82,366.37C63.16,366.81 63.25,366.95 63.54,367.4C64.06,368.2 64.96,369.62 65.58,370.79C66.21,371.97 66.94,373.69 67.27,374.45C67.42,374.79 67.45,374.84 67.58,375.2C67.9,376.06 68.62,378.14 69.02,379.62C69.42,381.08 69.73,382.55 69.99,384.03C70.25,385.49 70.43,386.97 70.57,388.44C70.7,389.91 70.78,391.39 70.8,392.86C70.82,394.33 70.8,395.8 70.72,397.27C70.64,398.74 70.51,400.22 70.34,401.69C70.16,403.16 69.94,404.63 69.67,406.1C69.4,407.58 69.09,409.04 68.71,410.52C68.32,412.05 67.83,413.64 67.35,415.135C66.89,416.58 66.43,417.93 65.88,419.34C65.3,420.81 64.36,422.92 63.94,423.76C63.77,424.11 63.72,424.14 63.54,424.48C63.14,425.23 62.31,427.03 61.66,428.17C61.06,429.21 60.3,430.24 59.8,431.06C59.44,431.65 59.31,431.98 58.91,432.59C58.25,433.59 56.59,435.64 56.06,436.37Q55.85,436.66 55.63,437" style="stroke-miterlimit: 1; vector-effect: non-scaling-stroke; fill: none; stroke: rgb(125, 85, 56); stroke-opacity: 1; stroke-width: 2px;"/><path class="openline" d="M370,69.55Q367.5,68.78 366.26,68.34C365.01,67.9 363.51,67.3 362.53,66.9C361.89,66.64 361.52,66.46 360.95,66.21C360.29,65.91 359.6,65.62 358.79,65.23C357.71,64.71 356.18,63.94 355.05,63.33C354.08,62.81 353.07,62.2 352.38,61.8C351.94,61.54 351.77,61.45 351.31,61.16C350.44,60.61 348.6,59.42 347.58,58.72C346.85,58.22 346.35,57.84 345.73,57.38C345.1,56.91 344.56,56.53 343.84,55.95C342.81,55.13 341.4,53.97 340.19,52.89C338.91,51.75 337.11,50 336.36,49.26C336.04,48.94 335.98,48.88 335.68,48.56C335.02,47.86 333.34,46.02 332.63,45.21C332.23,44.76 332.1,44.61 331.72,44.14C331.03,43.3 329.48,41.31 328.89,40.54C328.61,40.18 328.56,40.11 328.29,39.73C327.66,38.84 326.18,36.71 325.22,35.205C324.3,33.76 323.32,32.11 322.63,30.9C322.14,30.04 321.8,29.41 321.41,28.67C321.02,27.94 320.71,27.34 320.29,26.48C319.7,25.27 318.68,23.1 318.22,22.07C317.98,21.53 317.9,21.33 317.68,20.81C317.34,20 316.82,18.8 316.38,17.66C315.86,16.32 315.21,14.52 314.77,13.24C314.44,12.28 314.19,11.47 313.94,10.69C313.73,10.02 313.58,9.58 313.36,8.83C313.02,7.67 312.51,5.89 312.13,4.41Q311.76,2.94 311.11,0" style="stroke-miterlimit: 1; vector-effect: non-scaling-stroke; fill: none; stroke: rgb(125, 85, 56); stroke-opacity: 1; stroke-width: 2px;"/></g><g class="contourlevel"><path class="openline" d="M0,381.72Q2.17,380.15 2.85,379.62C3.24,379.32 3.33,379.17 3.74,378.88C4.54,378.31 6.22,377.29 7.47,376.64C8.64,376.03 9.77,375.56 10.99,375.09000000000003C12.26,374.6 13.64,374.11 14.95,373.76C16.2,373.43 17.44,373.2 18.69,373.03C19.93,372.86 21.18,372.76 22.42,372.74C23.67,372.72 24.92,372.77 26.16,372.91C27.41,373.05 28.66,373.26 29.9,373.56C31.16,373.87 32.79,374.42 33.64,374.74C34.1,374.91 34.25,375 34.68,375.2C35.37,375.52 36.42,375.96 37.37,376.51C38.54,377.18 40.37,378.47 41.11,379.03C41.45,379.28 41.5,379.34 41.81,379.62C42.47,380.22 44.07,381.72 44.85,382.55C45.38,383.11 45.63,383.42 46.1,384.03C46.81,384.95 48.09,386.84 48.59,387.62C48.82,387.98 48.87,388.05 49.08,388.44C49.56,389.32 50.65,391.49 51.22,392.86C51.69,393.99 52.05,395.22 52.32,396.03C52.49,396.54 52.57,396.73 52.72,397.27C53,398.29 53.45,400.21 53.71,401.69C53.96,403.15 54.15,404.63 54.26,406.1C54.37,407.57 54.42,409.05 54.4,410.52C54.38,411.99 54.3,413.46 54.16,414.93C54.02,416.4 53.82,417.86 53.54,419.34C53.25,420.88 52.83,422.51 52.415,424.02C52.02,425.45 51.63,426.78 51.11,428.17C50.57,429.63 49.7,431.64 49.21,432.59C48.97,433.07 48.84,433.18 48.59,433.63Q48.14,434.43 46.81,437" style="stroke-miterlimit: 1; vector-effect: non-scaling-stroke; fill: none; stroke: rgb(138, 93, 57); stroke-opacity: 1; stroke-width: 2px;"/><path class="openline" d="M370,41.74Q368,40.26 367.31,39.73C366.88,39.4 366.71,39.28 366.26,38.91C365.39,38.21 363.24,36.42 362.53,35.82C362.25,35.58 362.21,35.55 361.94,35.31C361.3,34.75 359.66,33.27 358.79,32.46C358.16,31.87 357.74,31.47 357.17,30.9C356.51,30.24 355.75,29.48 355.05,28.75C354.34,28.01 353.59,27.2 352.93,26.48C352.35,25.85 351.89,25.33 351.31,24.67C350.63,23.89 349.77,22.87 349.11,22.07C348.55,21.39 348.12,20.84 347.58,20.16C346.97,19.39 346.28,18.5 345.65,17.66C345.03,16.83 344.39,15.93 343.84,15.15C343.36,14.47 343.02,13.99 342.52,13.24C341.83,12.21 340.58,10.27 340.1,9.52C339.9,9.2 339.87,9.16 339.67,8.83C339.16,8 337.64,5.43 337.05,4.41C336.74,3.88 336.64,3.69 336.36,3.18Q335.92,2.37 334.66,0" style="stroke-miterlimit: 1; vector-effect: non-scaling-stroke; fill: none; stroke: rgb(138, 93, 57); stroke-opacity: 1; stroke-width: 2px;"/></g><g class="contourlevel"><path class="openline" d="M0,390.28Q2.38,388.94 3.625,388.375C4.87,387.81 6.18,387.29 7.47,386.91C8.71,386.55 9.96,386.3 11.21,386.14C12.45,385.98 13.7,385.9 14.95,385.92C16.2,385.94 17.45,386.05 18.69,386.25C19.94,386.46 21.21,386.76 22.42,387.15C23.61,387.53 24.71,387.98 25.884999999999998,388.565C27.2,389.22 28.77,390.16 29.9,390.96C30.8,391.6 31.53,392.27 32.2,392.86C32.75,393.34 33.11,393.67 33.64,394.23C34.39,395.03 35.55,396.39 36.22,397.27C36.7,397.9 36.96,398.33 37.37,398.97C37.87,399.76 38.45,400.64 38.98,401.69C39.66,403.03 40.45,404.89 41.004999999999995,406.425C41.51,407.82 41.88,409.12 42.21,410.52C42.54,411.95 42.8,413.46 42.97,414.93C43.14,416.4 43.23,417.87 43.25,419.34C43.27,420.81 43.2,422.29 43.06,423.76C42.92,425.23 42.72,426.7 42.41,428.17C42.09,429.68 41.65,431.24 41.17,432.72Q40.7,434.18 39.56,437" style="stroke-miterlimit: 1; vector-effect: non-scaling-stroke; fill: none; stroke: rgb(150, 102, 58); stroke-opacity: 1; stroke-width: 2px;"/><path class="openline" d="M370,19.99Q368.42,18.37 367.75,17.66C367.2,17.08 366.82,16.66 366.26,16.05C365.53,15.25 364.42,14.01 363.73,13.24C363.25,12.7 363,12.42 362.53,11.87C361.83,11.06 360.64,9.66 359.95,8.83C359.48,8.27 359.24,7.97 358.79,7.41C358.14,6.6 357.09,5.28 356.41,4.41C355.89,3.75 355.54,3.3 355.05,2.65Q354.45,1.86 353.07,0" style="stroke-miterlimit: 1; vector-effect: non-scaling-stroke; fill: none; stroke: rgb(150, 102, 58); stroke-opacity: 1; stroke-width: 2px;"/></g><g class="contourlevel"><path class="openline" d="M0,397.49Q0.41,397.38 0.73,397.27C1.39,397.05 2.67,396.46 3.74,396.19C4.9,395.89 6.22,395.69 7.47,395.61C8.71,395.53 9.97,395.55 11.21,395.68C12.46,395.81 13.85,396.09 14.95,396.39C15.85,396.64 16.67,397.01 17.35,397.27C17.86,397.47 18.14,397.53 18.69,397.8C19.64,398.26 21.37,399.27 22.42,399.99C23.25,400.56 23.88,401.13 24.53,401.69C25.12,402.2 25.58,402.61 26.16,403.22C26.91,404.01 27.93,405.22 28.6,406.1C29.12,406.79 29.47,407.33 29.9,408.02C30.38,408.79 30.86,409.55 31.34,410.52C31.96,411.77 32.8,413.82 33.19,414.93C33.42,415.58 33.48,415.9 33.64,416.5C33.86,417.31 34.17,418.28 34.38,419.34C34.64,420.64 34.88,422.28 34.99,423.76C35.1,425.23 35.12,426.7 35.05,428.17C34.98,429.64 34.8,431.21 34.55,432.59C34.32,433.85 33.83,435.36 33.64,436.14Q33.55,436.52 33.45,437" style="stroke-miterlimit: 1; vector-effect: non-scaling-stroke; fill: none; stroke: rgb(160, 112, 59); stroke-opacity: 1; stroke-width: 2px;"/><path class="openline" d="M370,3.61L366.94,0" style="stroke-miterlimit: 1; vector-effect: non-scaling-stroke; fill: none; stroke: rgb(160, 112, 59); stroke-opacity: 1; stroke-width: 2px;"/></g><g class="contourlevel"><path class="openline" d="M0,403.58Q2.49,403.06 3.74,402.99C4.98,402.92 6.23,402.96 7.47,403.13C8.72,403.3 9.98,403.59 11.21,404.01C12.48,404.44 14.22,405.3 14.95,405.69C15.26,405.86 15.31,405.9 15.6,406.1C16.25,406.54 17.77,407.52 18.69,408.29C19.54,409 20.31,409.81 20.97,410.52C21.52,411.11 21.92,411.58 22.42,412.23C23.02,413.02 23.71,413.94 24.3,414.93C24.96,416.03 25.79,417.8 26.16,418.57C26.33,418.92 26.37,418.97 26.51,419.34C26.84,420.2 27.58,422.27 27.94,423.76C28.3,425.22 28.54,426.69 28.68,428.17C28.82,429.64 28.86,431.12 28.8,432.59Q28.74,434.06 28.3,437" style="stroke-miterlimit: 1; vector-effect: non-scaling-stroke; fill: none; stroke: rgb(171, 122, 60); stroke-opacity: 1; stroke-width: 2px;"/></g><g class="contourlevel"><path class="openline" d="M0,408.91Q2.5,408.79 3.74,408.93C4.99,409.08 6.48,409.46 7.47,409.79C8.15,410.01 8.56,410.25 9.15,410.52C9.8,410.82 10.45,411.03 11.21,411.49C12.3,412.14 14.2,413.62 14.95,414.25C15.29,414.54 15.35,414.6 15.66,414.93C16.33,415.64 18.09,417.71 18.69,418.5C18.97,418.87 19.03,418.94 19.27,419.34C19.81,420.23 21.05,422.49 21.6,423.76C21.99,424.67 22.17,425.42 22.42,426.19C22.65,426.88 22.85,427.37 23.04,428.17C23.32,429.34 23.65,431.11 23.77,432.59Q23.89,434.06 23.79,437" style="stroke-miterlimit: 1; vector-effect: non-scaling-stroke; fill: none; stroke: rgb(180, 134, 64); stroke-opacity: 1; stroke-width: 2px;"/></g><g class="contourlevel"><path class="openline" d="M0,413.61Q2.74,413.96 3.74,414.24C4.45,414.44 4.89,414.68 5.49,414.93C6.13,415.19 6.73,415.37 7.47,415.78C8.55,416.38 10.38,417.72 11.21,418.4C11.66,418.77 11.8,418.92 12.2,419.34C12.9,420.08 14.32,421.77 14.95,422.59C15.31,423.07 15.44,423.23 15.75,423.76C16.33,424.75 17.46,426.91 17.97,428.17C18.33,429.06 18.47,429.75 18.69,430.51C18.9,431.22 19.1,431.76 19.27,432.59Q19.51,433.78 19.81,437" style="stroke-miterlimit: 1; vector-effect: non-scaling-stroke; fill: none; stroke: rgb(188, 147, 69); stroke-opacity: 1; stroke-width: 2px;"/></g><g class="contourlevel"><path class="openline" d="M0,417.8Q3.05,418.73 3.74,419.03C4.02,419.15 4.05,419.19 4.31,419.34C4.94,419.71 6.5,420.55 7.47,421.29C8.43,422.02 9.42,423.05 10.1,423.76C10.57,424.25 10.8,424.53 11.21,425.07C11.82,425.87 12.69,427.06 13.3,428.17C13.94,429.33 14.64,431.15 14.95,431.9C15.08,432.22 15.12,432.26 15.22,432.59Q15.48,433.42 16.26,437" style="stroke-miterlimit: 1; vector-effect: non-scaling-stroke; fill: none; stroke: rgb(195, 160, 78); stroke-opacity: 1; stroke-width: 2px;"/></g><g class="contourlevel"><path class="openline" d="M0,421.59Q3.1,423.02 3.74,423.41C3.98,423.56 3.99,423.58 4.21,423.76C4.81,424.24 6.64,425.71 7.47,426.54C8.06,427.13 8.36,427.49 8.85,428.17C9.57,429.16 10.81,431.3 11.21,432.02C11.36,432.29 11.38,432.3 11.5,432.59Q11.83,433.36 13.05,437" style="stroke-miterlimit: 1; vector-effect: non-scaling-stroke; fill: none; stroke: rgb(201, 174, 89); stroke-opacity: 1; stroke-width: 2px;"/></g><g class="contourlevel"><path class="openline" d="M0,425.07Q3,426.93 3.74,427.51C4.09,427.78 4.14,427.85 4.45,428.17C5.12,428.87 6.88,430.95 7.47,431.74C7.75,432.11 7.8,432.18 8.03,432.59Q8.53,433.48 10.1,437" style="stroke-miterlimit: 1; vector-effect: non-scaling-stroke; fill: none; stroke: rgb(207, 188, 102); stroke-opacity: 1; stroke-width: 2px;"/></g><g class="contourlevel"><path class="openline" d="M0,428.33Q2.92,430.63 3.74,431.44C4.2,431.89 4.33,432.06 4.71,432.59Q5.41,433.57 7.34,437" style="stroke-miterlimit: 1; vector-effect: non-scaling-stroke; fill: none; stroke: rgb(213, 202, 117); stroke-opacity: 1; stroke-width: 2px;"/></g><g class="contourlevel"><path class="openline" d="M0,431.31Q0.9,432.06 1.41,432.59C2.11,433.32 3.13,434.52 3.74,435.34Q4.19,435.95 4.81,437" style="stroke-miterlimit: 1; vector-effect: non-scaling-stroke; fill: none; stroke: rgb(219, 216, 134); stroke-opacity: 1; stroke-width: 2px;"/></g><g class="contourlevel"><path class="openline" d="M0,434.2L2.37,437" style="stroke-miterlimit: 1; vector-effect: non-scaling-stroke; fill: none; stroke: rgb(225, 231, 152); stroke-opacity: 1; stroke-width: 2px;"/></g><g class="contourlevel"/></g></g></g></g><g class="overplot"/><path class="xlines-above crisp" d="" style="fill: none; stroke-width: 1px; stroke: rgb(0, 0, 0); stroke-opacity: 0;"/><path class="ylines-above crisp" d="" style="fill: none; stroke-width: 1px; stroke: rgb(0, 0, 0); stroke-opacity: 0;"/><g class="overlines-above"/><g class="xaxislayer-above"><path class="xtick ticks crisp" d="M0,478v5" transform="translate(89.67,0)" style="stroke: rgb(51, 51, 51); stroke-opacity: 1; stroke-width: 1px;"/><path class="xtick ticks crisp" d="M0,478v5" transform="translate(171.89,0)" style="stroke: rgb(51, 51, 51); stroke-opacity: 1; stroke-width: 1px;"/><path class="xtick ticks crisp" d="M0,478v5" transform="translate(254.11,0)" style="stroke: rgb(51, 51, 51); stroke-opacity: 1; stroke-width: 1px;"/><path class="xtick ticks crisp" d="M0,478v5" transform="translate(336.33,0)" style="stroke: rgb(51, 51, 51); stroke-opacity: 1; stroke-width: 1px;"/><g class="xtick"><text text-anchor="middle" x="0" y="497.4" transform="translate(89.67,0)" style="font-family: 'Open Sans', verdana, arial, sans-serif; font-size: 12px; fill: rgb(51, 51, 51); fill-opacity: 1; white-space: pre; opacity: 1;">0.2</text></g><g class="xtick"><text text-anchor="middle" x="0" y="497.4" style="font-family: 'Open Sans', verdana, arial, sans-serif; font-size: 12px; fill: rgb(51, 51, 51); fill-opacity: 1; white-space: pre; opacity: 1;" transform="translate(171.89,0)">0.4</text></g><g class="xtick"><text text-anchor="middle" x="0" y="497.4" style="font-family: 'Open Sans', verdana, arial, sans-serif; font-size: 12px; fill: rgb(51, 51, 51); fill-opacity: 1; white-space: pre; opacity: 1;" transform="translate(254.11,0)">0.6</text></g><g class="xtick"><text text-anchor="middle" x="0" y="497.4" style="font-family: 'Open Sans', verdana, arial, sans-serif; font-size: 12px; fill: rgb(51, 51, 51); fill-opacity: 1; white-space: pre; opacity: 1;" transform="translate(336.33,0)">0.8</text></g></g><g class="yaxislayer-above"><path class="ytick ticks crisp" d="M27,0h-5" transform="translate(0,452.72)" style="stroke: rgb(51, 51, 51); stroke-opacity: 1; stroke-width: 1px;"/><path class="ytick ticks crisp" d="M27,0h-5" transform="translate(0,404.17)" style="stroke: rgb(51, 51, 51); stroke-opacity: 1; stroke-width: 1px;"/><path class="ytick ticks crisp" d="M27,0h-5" transform="translate(0,355.61)" style="stroke: rgb(51, 51, 51); stroke-opacity: 1; stroke-width: 1px;"/><path class="ytick ticks crisp" d="M27,0h-5" transform="translate(0,307.06)" style="stroke: rgb(51, 51, 51); stroke-opacity: 1; stroke-width: 1px;"/><path class="ytick ticks crisp" d="M27,0h-5" transform="translate(0,258.5)" style="stroke: rgb(51, 51, 51); stroke-opacity: 1; stroke-width: 1px;"/><path class="ytick ticks crisp" d="M27,0h-5" transform="translate(0,209.94)" style="stroke: rgb(51, 51, 51); stroke-opacity: 1; stroke-width: 1px;"/><path class="ytick ticks crisp" d="M27,0h-5" transform="translate(0,161.39)" style="stroke: rgb(51, 51, 51); stroke-opacity: 1; stroke-width: 1px;"/><path class="ytick ticks crisp" d="M27,0h-5" transform="translate(0,112.83)" style="stroke: rgb(51, 51, 51); stroke-opacity: 1; stroke-width: 1px;"/><path class="ytick ticks crisp" d="M27,0h-5" transform="translate(0,64.28)" style="stroke: rgb(51, 51, 51); stroke-opacity: 1; stroke-width: 1px;"/><g class="ytick"><text text-anchor="end" x="19.6" y="4.199999999999999" transform="translate(0,452.72)" style="font-family: 'Open Sans', verdana, arial, sans-serif; font-size: 12px; fill: rgb(51, 51, 51); fill-opacity: 1; white-space: pre; opacity: 1;">0.1</text></g><g class="ytick"><text text-anchor="end" x="19.6" y="4.199999999999999" style="font-family: 'Open Sans', verdana, arial, sans-serif; font-size: 12px; fill: rgb(51, 51, 51); fill-opacity: 1; white-space: pre; opacity: 1;" transform="translate(0,404.17)">0.2</text></g><g class="ytick"><text text-anchor="end" x="19.6" y="4.199999999999999" style="font-family: 'Open Sans', verdana, arial, sans-serif; font-size: 12px; fill: rgb(51, 51, 51); fill-opacity: 1; white-space: pre; opacity: 1;" transform="translate(0,355.61)">0.3</text></g><g class="ytick"><text text-anchor="end" x="19.6" y="4.199999999999999" style="font-family: 'Open Sans', verdana, arial, sans-serif; font-size: 12px; fill: rgb(51, 51, 51); fill-opacity: 1; white-space: pre; opacity: 1;" transform="translate(0,307.06)">0.4</text></g><g class="ytick"><text text-anchor="end" x="19.6" y="4.199999999999999" style="font-family: 'Open Sans', verdana, arial, sans-serif; font-size: 12px; fill: rgb(51, 51, 51); fill-opacity: 1; white-space: pre; opacity: 1;" transform="translate(0,258.5)">0.5</text></g><g class="ytick"><text text-anchor="end" x="19.6" y="4.199999999999999" style="font-family: 'Open Sans', verdana, arial, sans-serif; font-size: 12px; fill: rgb(51, 51, 51); fill-opacity: 1; white-space: pre; opacity: 1;" transform="translate(0,209.94)">0.6</text></g><g class="ytick"><text text-anchor="end" x="19.6" y="4.199999999999999" style="font-family: 'Open Sans', verdana, arial, sans-serif; font-size: 12px; fill: rgb(51, 51, 51); fill-opacity: 1; white-space: pre; opacity: 1;" transform="translate(0,161.39)">0.7</text></g><g class="ytick"><text text-anchor="end" x="19.6" y="4.199999999999999" style="font-family: 'Open Sans', verdana, arial, sans-serif; font-size: 12px; fill: rgb(51, 51, 51); fill-opacity: 1; white-space: pre; opacity: 1;" transform="translate(0,112.83)">0.8</text></g><g class="ytick"><text text-anchor="end" x="19.6" y="4.199999999999999" style="font-family: 'Open Sans', verdana, arial, sans-serif; font-size: 12px; fill: rgb(51, 51, 51); fill-opacity: 1; white-space: pre; opacity: 1;" transform="translate(0,64.28)">0.9</text></g></g><g class="overaxes-above"/></g></g><g class="polarlayer"/><g class="ternarylayer"/><g class="geolayer"/><g class="funnelarealayer"/><g class="pielayer"/><g class="iciclelayer"/><g class="treemaplayer"/><g class="sunburstlayer"/><g class="glimages"/><defs id="topdefs-71fa5a"><g class="clips"/></defs><g class="layer-above"><g class="imagelayer"/><g class="shapelayer"/></g><g class="infolayer"><g class="cb71f3db colorbar" transform="translate(28,40)"><rect class="cbbg" x="377" y="0" width="94.65625" height="437" style="fill: rgb(0, 0, 0); fill-opacity: 0; stroke: rgb(68, 68, 68); stroke-opacity: 1; stroke-width: 0;"/><g class="cbfills" transform="translate(0,10)"/><g class="cblines" transform="translate(0,10)"><path class="cbline" d="M387,417h30" style="fill: none; stroke: rgb(34, 30, 27); stroke-opacity: 1; stroke-width: 2px;"/><path class="cbline" d="M387,396h30" style="fill: none; stroke: rgb(47, 38, 33); stroke-opacity: 1; stroke-width: 2px;"/><path class="cbline" d="M387,375h30" style="fill: none; stroke: rgb(59, 46, 38); stroke-opacity: 1; stroke-width: 2px;"/><path class="cbline" d="M387,354h30" style="fill: none; stroke: rgb(72, 54, 43); stroke-opacity: 1; stroke-width: 2px;"/><path class="cbline" d="M387,334h30" style="fill: none; stroke: rgb(85, 62, 47); stroke-opacity: 1; stroke-width: 2px;"/><path class="cbline" d="M387,313h30" style="fill: none; stroke: rgb(98, 69, 51); stroke-opacity: 1; stroke-width: 2px;"/><path class="cbline" d="M387,292h30" style="fill: none; stroke: rgb(112, 77, 54); stroke-opacity: 1; stroke-width: 2px;"/><path class="cbline" d="M387,271h30" style="fill: none; stroke: rgb(125, 85, 56); stroke-opacity: 1; stroke-width: 2px;"/><path class="cbline" d="M387,250h30" style="fill: none; stroke: rgb(138, 93, 57); stroke-opacity: 1; stroke-width: 2px;"/><path class="cbline" d="M387,229h30" style="fill: none; stroke: rgb(150, 102, 58); stroke-opacity: 1; stroke-width: 2px;"/><path class="cbline" d="M387,209h30" style="fill: none; stroke: rgb(161, 112, 59); stroke-opacity: 1; stroke-width: 2px;"/><path class="cbline" d="M387,188h30" style="fill: none; stroke: rgb(171, 122, 60); stroke-opacity: 1; stroke-width: 2px;"/><path class="cbline" d="M387,167h30" style="fill: none; stroke: rgb(180, 134, 64); stroke-opacity: 1; stroke-width: 2px;"/><path class="cbline" d="M387,146h30" style="fill: none; stroke: rgb(188, 147, 69); stroke-opacity: 1; stroke-width: 2px;"/><path class="cbline" d="M387,125h30" style="fill: none; stroke: rgb(195, 161, 78); stroke-opacity: 1; stroke-width: 2px;"/><path class="cbline" d="M387,104h30" style="fill: none; stroke: rgb(202, 174, 89); stroke-opacity: 1; stroke-width: 2px;"/><path class="cbline" d="M387,83h30" style="fill: none; stroke: rgb(207, 188, 102); stroke-opacity: 1; stroke-width: 2px;"/><path class="cbline" d="M387,63h30" style="fill: none; stroke: rgb(213, 202, 118); stroke-opacity: 1; stroke-width: 2px;"/><path class="cbline" d="M387,42h30" style="fill: none; stroke: rgb(219, 216, 134); stroke-opacity: 1; stroke-width: 2px;"/><path class="cbline" d="M387,21h30" style="fill: none; stroke: rgb(225, 231, 152); stroke-opacity: 1; stroke-width: 2px;"/><path class="cbline" d="M387,0h30" style="fill: none; stroke: rgb(232, 245, 171); stroke-opacity: 1; stroke-width: 2px;"/></g><g class="cbaxis crisp" transform="translate(0,-40)"><path class="ycb71f3dbtick ticks crisp" d="M416.5,0h-6" transform="translate(0,362.75)" style="stroke: rgb(237, 237, 237); stroke-opacity: 1; stroke-width: 1px;"/><path class="ycb71f3dbtick ticks crisp" d="M416.5,0h-6" transform="translate(0,258.5)" style="stroke: rgb(237, 237, 237); stroke-opacity: 1; stroke-width: 1px;"/><path class="ycb71f3dbtick ticks crisp" d="M416.5,0h-6" transform="translate(0,154.25)" style="stroke: rgb(237, 237, 237); stroke-opacity: 1; stroke-width: 1px;"/><g class="ycb71f3dbtick"><text text-anchor="start" x="419.9" y="4.199999999999999" transform="translate(0,467)" style="font-family: 'Open Sans', verdana, arial, sans-serif; font-size: 12px; fill: rgb(51, 51, 51); fill-opacity: 1; white-space: pre; opacity: 1;">0.239</text></g><g class="ycb71f3dbtick"><text text-anchor="start" x="419.9" y="4.199999999999999" style="font-family: 'Open Sans', verdana, arial, sans-serif; font-size: 12px; fill: rgb(51, 51, 51); fill-opacity: 1; white-space: pre; opacity: 1;" transform="translate(0,362.75)">1.152</text></g><g class="ycb71f3dbtick"><text text-anchor="start" x="419.9" y="4.199999999999999" style="font-family: 'Open Sans', verdana, arial, sans-serif; font-size: 12px; fill: rgb(51, 51, 51); fill-opacity: 1; white-space: pre; opacity: 1;" transform="translate(0,258.5)">2.066</text></g><g class="ycb71f3dbtick"><text text-anchor="start" x="419.9" y="4.199999999999999" style="font-family: 'Open Sans', verdana, arial, sans-serif; font-size: 12px; fill: rgb(51, 51, 51); fill-opacity: 1; white-space: pre; opacity: 1;" transform="translate(0,154.25)">2.979</text></g><g class="ycb71f3dbtick"><text text-anchor="start" x="419.9" y="4.199999999999999" style="font-family: 'Open Sans', verdana, arial, sans-serif; font-size: 12px; fill: rgb(51, 51, 51); fill-opacity: 1; white-space: pre; opacity: 1;" transform="translate(0,50.000000000000014)">3.893</text></g></g><g class="cbtitleunshift" transform="translate(-28,-40)"><g class="cbtitle"/></g><rect class="cboutline" x="387" y="10" width="30" height="417" style="stroke: rgb(68, 68, 68); stroke-opacity: 1; fill: none; stroke-width: 0;"/></g><g class="g-gtitle"><text class="gtitle" x="250" y="20" text-anchor="middle" dy="0em" style="font-family: 'Open Sans', verdana, arial, sans-serif; font-size: 17px; fill: rgb(51, 51, 51); opacity: 1; font-weight: normal; white-space: pre;">Best fit: BB7(1.81, 1.54) copula</text></g><g class="g-xtitle"/><g class="g-ytitle"/></g></svg>