<svg class="main-svg" xmlns="http://www.w3.org/2000/svg" xmlns:xlink="http://www.w3.org/1999/xlink" width="1500" height="1500" style="" viewBox="0 0 500 500"><rect x="0" y="0" width="500" height="500" style="fill: rgb(255, 255, 255); fill-opacity: 1;"/><defs id="defs-54fde6"><g class="clips"><clipPath id="clip54fde6xyplot" class="plotclip"><rect width="370" height="437"/></clipPath><clipPath class="axesclip" id="clip54fde6x"><rect x="28" y="0" width="370" height="500"/></clipPath><clipPath class="axesclip" id="clip54fde6y"><rect x="0" y="40" width="500" height="437"/></clipPath><clipPath class="axesclip" id="clip54fde6xy"><rect x="28" y="40" width="370" height="437"/></clipPath><clipPath class="contourclip" id="clip6c9374"><path d="M0,0L370,0L370,437L0,437Z"/></clipPath></g><g class="gradients"/><g class="patterns"/></defs><g class="bglayer"><rect class="bg" x="28" y="40" width="370" height="437" style="fill: rgb(237, 237, 237); fill-opacity: 1; stroke-width: 0;"/></g><g class="layer-below"><g class="imagelayer"/><g class="shapelayer"/></g><g class="cartesianlayer"><g class="subplot xy"><g class="layer-subplot"><g class="shapelayer"/><g class="imagelayer"/></g><g class="gridlayer"><g class="x"><path class="xgrid crisp" transform="translate(89.67,0)" d="M0,40v437" style="stroke: rgb(255, 255, 255); stroke-opacity: 1; stroke-width: 1px;"/><path class="xgrid crisp" transform="translate(171.89,0)" d="M0,40v437" style="stroke: rgb(255, 255, 255); stroke-opacity: 1; stroke-width: 1px;"/><path class="xgrid crisp" transform="translate(254.11,0)" d="M0,40v437" style="stroke: rgb(255, 255, 255); stroke-opacity: 1; stroke-width: 1px;"/><path class="xgrid crisp" transform="translate(336.33,0)" d="M0,40v437" style="stroke: rgb(255, 255, 255); stroke-opacity: 1; stroke-width: 1px;"/></g><g class="y"><path class="ygrid crisp" transform="translate(0,452.72)" d="M28,0h370" style="stroke: rgb(255, 255, 255); stroke-opacity: 1; stroke-width: 1px;"/><path class="ygrid crisp" transform="translate(0,404.17)" d="M28,0h370" style="stroke: rgb(255, 255, 255); stroke-opacity: 1; stroke-width: 1px;"/><path class="ygrid crisp" transform="translate(0,355.61)" d="M28,0h370" style="stroke: rgb(255, 255, 255); stroke-opacity: 1; stroke-width: 1px;"/><path class="ygrid crisp" transform="translate(0,307.06)" d="M28,0h370" style="stroke: rgb(255, 255, 255); stroke-opacity: 1; stroke-width: 1px;"/><path class="ygrid crisp" transform="translate(0,258.5)" d="M28,0h370" style="stroke: rgb(255, 255, 255); stroke-opacity: 1; stroke-width: 1px;"/><path class="ygrid crisp" transform="translate(0,209.94)" d="M28,0h370" style="stroke: rgb(255, 255, 255); stroke-opacity: 1; stroke-width: 1px;"/><path class="ygrid crisp" transform="translate(0,161.39)" d="M28,0h370" style="stroke: rgb(255, 255, 255); stroke-opacity: 1; stroke-width: 1px;"/><path class="ygrid crisp" transform="translate(0,112.83)" d="M28,0h370" style="stroke: rgb(255, 255, 255); stroke-opacity: 1; stroke-width: 1px;"/><path class="ygrid crisp" transform="translate(0,64.28)" d="M28,0h370" style="stroke: rgb(255, 255, 255); stroke-opacity: 1; stroke-width: 1px;"/></g></g><g class="zerolinelayer"/><path class="xlines-below"/><path class="ylines-below"/><g class="overlines-below"/><g class="xaxislayer-below"/><g class="yaxislayer-below"/><g class="overaxes-below"/><g class="plot" transform="translate(28,40)" clip-path="url(#clip54fde6xyplot)"><g class="contourlayer mlayer"><g class="contour" clip-path="url(#clip6c9374)" style="opacity: 1;"><g class="heatmapcoloring"/><g class="contourbg"/><g class="contourfill"/><g class="contourlines"><g class="contourlevel"><path class="openline" d="M370,412.88Q367.51,413.33 366.26,413.56C365.02,413.78 363.79,414.01 362.53,414.23C361.25,414.46 359.91,414.68 358.645,414.905C357.42,415.13 356.26,415.35 355.05,415.58C353.82,415.81 352.56,416.04 351.31,416.27C350.07,416.5 348.82,416.73 347.58,416.95C346.33,417.17 345.09,417.39 343.84,417.61C342.59,417.83 341.35,418.04 340.1,418.26C338.85,418.47 337.49,418.71 336.36,418.9C335.41,419.06 334.45,419.22 333.76,419.34C333.31,419.42 333.12,419.46 332.63,419.55C331.75,419.71 330.14,420 328.89,420.23C327.64,420.45 326.4,420.68 325.15,420.9C323.9,421.12 322.66,421.33 321.41,421.55C320.17,421.76 318.92,421.98 317.68,422.19C316.43,422.4 315.19,422.61 313.94,422.82C312.69,423.03 311.25,423.26 310.2,423.43C309.44,423.56 308.87,423.65 308.23,423.76C307.62,423.86 307.16,423.95 306.46,424.07C305.45,424.25 303.97,424.51 302.73,424.73C301.48,424.95 300.24,425.16 298.99,425.37C297.74,425.58 296.5,425.8 295.25,426.01C294.01,426.22 292.76,426.42 291.52,426.62C290.27,426.82 289.03,427.03 287.78,427.23C286.53,427.43 285.13,427.65 284.04,427.82C283.19,427.95 282.44,428.06 281.76,428.17C281.22,428.26 280.9,428.32 280.3,428.42C279.34,428.58 277.81,428.85 276.57,429.06C275.32,429.27 274.08,429.48 272.83,429.69C271.58,429.9 270.34,430.1 269.09,430.3C267.84,430.5 266.6,430.69 265.35,430.89C264.11,431.08 262.86,431.28 261.62,431.47C260.37,431.66 259.13,431.85 257.88,432.04C256.63,432.23 255.39,432.4 254.14499999999998,432.59C252.9,432.79 251.65,433 250.4,433.21C249.16,433.41 247.91,433.62 246.67,433.82C245.42,434.02 244.18,434.22 242.93,434.41C241.68,434.6 240.44,434.79 239.19,434.98C237.94,435.17 236.7,435.36 235.45,435.54C234.21,435.72 232.96,435.9 231.72,436.08C230.47,436.26 229.14,436.45 227.98,436.61Q226.98,436.75 225.18,437" style="stroke-miterlimit: 1; vector-effect: non-scaling-stroke; fill: none; stroke: rgb(34, 30, 27); stroke-opacity: 1; stroke-width: 2px;"/><path class="openline" d="M0,171.04Q0.21,168.92 0.33,167.74C0.47,166.37 0.63,164.79 0.78,163.32C0.93,161.85 1.09,160.38 1.24,158.91C1.4,157.44 1.55,155.96 1.71,154.49C1.87,153.02 2.04,151.55 2.2,150.08C2.37,148.61 2.53,147.14 2.7,145.67C2.87,144.2 3.04,142.72 3.21,141.25C3.38,139.78 3.58,138.31 3.74,136.84C3.91,135.37 4.04,133.89 4.2,132.42C4.36,130.95 4.52,129.48 4.68,128.01C4.84,126.54 5,125.07 5.17,123.6C5.34,122.13 5.51,120.65 5.68,119.18C5.85,117.71 6.02,116.24 6.19,114.77C6.36,113.3 6.54,111.82 6.72,110.35C6.9,108.88 7.12,107.07 7.26,105.94C7.35,105.23 7.39,104.86 7.47,104.22C7.56,103.42 7.66,102.54 7.78,101.53C7.93,100.24 8.11,98.58 8.28,97.11C8.45,95.64 8.62,94.17 8.79,92.7C8.96,91.23 9.13,89.75 9.31,88.28C9.48,86.81 9.66,85.34 9.84,83.87C10.02,82.4 10.2,80.92 10.39,79.45C10.57,77.98 10.8,76.24 10.95,75.04C11.05,74.22 11.12,73.67 11.21,72.96C11.3,72.21 11.38,71.53 11.49,70.63C11.64,69.39 11.83,67.68 12.01,66.21C12.18,64.74 12.36,63.27 12.54,61.8C12.72,60.33 12.9,58.85 13.08,57.38C13.26,55.91 13.44,54.44 13.63,52.97C13.82,51.5 14.01,50.03 14.2,48.56C14.39,47.09 14.64,45.18 14.78,44.14C14.85,43.57 14.88,43.35 14.95,42.81C15.05,42 15.18,40.85 15.32,39.73C15.48,38.39 15.68,36.78 15.86,35.31C16.04,33.84 16.23,32.37 16.42,30.9C16.61,29.43 16.79,27.95 16.98,26.48C17.17,25.01 17.36,23.54 17.55,22.07C17.74,20.6 17.94,19.12 18.14,17.66C18.33,16.23 18.52,14.85 18.71,13.41C18.9,11.91 19.09,10.34 19.28,8.83C19.47,7.34 19.66,5.88 19.85,4.41Q20.04,2.94 20.42,0" style="stroke-miterlimit: 1; vector-effect: non-scaling-stroke; fill: none; stroke: rgb(34, 30, 27); stroke-opacity: 1; stroke-width: 2px;"/></g><g class="contourlevel"><path class="openline" d="M0,321.75Q0.56,319.17 0.86,317.82C1.18,316.39 1.52,314.87 1.86,313.4C2.2,311.93 2.58,310.36 2.91,308.99C3.2,307.8 3.55,306.44 3.74,305.64C3.85,305.19 3.88,305.05 3.99,304.58C4.22,303.61 4.68,301.63 5.03,300.16C5.38,298.69 5.74,297.22 6.11,295.75C6.48,294.28 7.01,292.26 7.24,291.33C7.35,290.91 7.37,290.81 7.47,290.4C7.67,289.61 8.02,288.15 8.33,286.92C8.68,285.54 9.07,283.98 9.45,282.51C9.83,281.04 10.29,279.32 10.61,278.09C10.84,277.21 11.01,276.57 11.21,275.83C11.4,275.1 11.55,274.52 11.77,273.68C12.09,272.47 12.54,270.73 12.93,269.26C13.32,267.79 13.77,266.18 14.13,264.85C14.43,263.76 14.73,262.68 14.95,261.86C15.1,261.3 15.18,261.04 15.34,260.43C15.63,259.36 16.13,257.49 16.53,256.02C16.94,254.55 17.39,252.97 17.77,251.61C18.1,250.45 18.46,249.18 18.69,248.37C18.83,247.88 18.88,247.71 19.02,247.19C19.3,246.19 19.83,244.25 20.25,242.78C20.67,241.31 21.13,239.7 21.52,238.36C21.84,237.24 22.18,236.09 22.42,235.28C22.58,234.74 22.64,234.52 22.81,233.95C23.11,232.91 23.66,231.01 24.09,229.54C24.52,228.07 25.01,226.39 25.39,225.12C25.68,224.15 25.92,223.34 26.16,222.55C26.36,221.89 26.49,221.46 26.71,220.71C27.05,219.55 27.58,217.76 28.02,216.29C28.46,214.82 29.02,213.01 29.37,211.88C29.59,211.17 29.71,210.78 29.9,210.14C30.14,209.34 30.4,208.46 30.71,207.46C31.1,206.17 31.6,204.55 32.06,203.05C32.54,201.5 33.07,199.84 33.54,198.32C33.98,196.91 34.37,195.61 34.8,194.22C35.25,192.78 35.75,191.22 36.19,189.81C36.6,188.51 37.13,186.83 37.37,186.08C37.47,185.76 37.49,185.72 37.59,185.39C37.85,184.56 38.51,182.45 38.98,180.98C39.45,179.51 40.01,177.79 40.4,176.57C40.68,175.7 40.87,175.09 41.11,174.35C41.35,173.61 41.54,173.01 41.82,172.15C42.21,170.93 42.76,169.23 43.24,167.74C43.74,166.21 44.28,164.59 44.769999999999996,163.075C45.24,161.65 45.66,160.32 46.12,158.91C46.59,157.46 47.13,155.83 47.57,154.49C47.94,153.38 48.32,152.24 48.59,151.43C48.77,150.89 48.84,150.66 49.03,150.08C49.37,149.03 50,147.14 50.49,145.67C50.98,144.2 51.65,142.22 51.97,141.25C52.13,140.77 52.17,140.64 52.32,140.18C52.59,139.37 53.03,138.03 53.43,136.84C53.89,135.47 54.45,133.8 54.91,132.42C55.32,131.21 55.79,129.83 56.06,129.03C56.21,128.59 56.25,128.47 56.41,128.01C56.73,127.06 57.39,125.07 57.89,123.6C58.39,122.13 59.05,120.19 59.39,119.18C59.57,118.65 59.63,118.47 59.8,117.97C60.07,117.16 60.49,115.92 60.88,114.77C61.34,113.42 61.91,111.72 62.38,110.35C62.79,109.16 63.26,107.8 63.54,107C63.69,106.55 63.74,106.41 63.9,105.94C64.23,104.97 64.9,103 65.4,101.53C65.9,100.06 66.59,98.07 66.92,97.11C67.08,96.64 67.12,96.52 67.27,96.07C67.54,95.27 68.02,93.9 68.43,92.7C68.9,91.33 69.48,89.62 69.94,88.28C70.33,87.16 70.73,86 71.01,85.19C71.19,84.66 71.27,84.44 71.47,83.87C71.83,82.83 72.47,80.92 72.98,79.45C73.49,77.98 74.22,75.87 74.51,75.04C74.62,74.71 74.64,74.67 74.75,74.35C75.01,73.6 75.58,71.92 76.02,70.63C76.5,69.22 77.1,67.5 77.55,66.21C77.9,65.2 78.2,64.3 78.48,63.5C78.7,62.87 78.83,62.5 79.07,61.8C79.46,60.67 80.08,58.86 80.59,57.38C81.11,55.87 81.65,54.32 82.17,52.825C82.67,51.38 83.15,49.99 83.64,48.56C84.14,47.1 84.73,45.38 85.16,44.14C85.47,43.24 85.7,42.57 85.96,41.82C86.21,41.11 86.4,40.56 86.68,39.73C87.09,38.53 87.68,36.78 88.19,35.31C88.69,33.85 89.21,32.4 89.71000000000001,30.935C90.22,29.46 90.71,27.96 91.22,26.48C91.72,25.01 92.33,23.26 92.74,22.07C93.02,21.27 93.19,20.75 93.43,20.05C93.69,19.29 93.94,18.58 94.25,17.66C94.68,16.41 95.25,14.7 95.75,13.24C96.24,11.8 96.73,10.42 97.22,8.969999999999999C97.73,7.48 98.25,5.92 98.76,4.41Q99.26,2.93 100.26,0" style="stroke-miterlimit: 1; vector-effect: non-scaling-stroke; fill: none; stroke: rgb(59, 46, 38); stroke-opacity: 1; stroke-width: 2px;"/><path class="openline" d="M370,318.59Q367.52,319.77 366.26,320.36C364.99,320.96 363.67,321.57 362.40999999999997,322.175C361.18,322.76 360.01,323.33 358.79,323.91C357.55,324.5 356.11,325.18 355.05,325.68C354.27,326.05 353.67,326.34 353.02,326.65C352.43,326.93 351.99,327.14 351.31,327.46C350.31,327.94 348.83,328.66 347.58,329.26C346.33,329.86 345.06,330.45 343.80999999999995,331.04499999999996C342.57,331.64 341.34,332.24 340.1,332.84C338.86,333.44 337.38,334.13 336.36,334.62C335.66,334.95 335.19,335.18 334.59,335.47C333.95,335.78 333.39,336.05 332.63,336.42C331.58,336.93 330.13,337.63 328.89,338.22C327.67,338.8 326.5,339.36 325.27,339.95C324,340.56 322.69,341.2 321.41,341.82C320.16,342.42 318.64,343.15 317.68,343.61C317.08,343.89 316.77,344.04 316.23,344.3C315.55,344.63 314.8,345 313.94,345.41C312.85,345.94 311.39,346.64 310.2,347.21C309.11,347.74 307.68,348.42 307.05,348.72C306.78,348.85 306.74,348.87 306.46,349C305.75,349.34 303.98,350.21 302.73,350.81C301.49,351.41 299.87,352.17 298.99,352.59C298.51,352.82 298.32,352.91 297.87,353.13C297.18,353.46 296.2,353.93 295.25,354.39C294.12,354.93 292.68,355.62 291.52,356.18C290.5,356.67 289.34,357.23 288.66,357.55C288.28,357.73 288.17,357.77 287.78,357.96C286.96,358.35 285.29,359.16 284.04,359.76C282.79,360.35 281.12,361.14 280.3,361.53C279.9,361.72 279.79,361.78 279.41,361.96C278.73,362.29 277.58,362.84 276.57,363.32C275.41,363.87 273.98,364.55 272.83,365.09C271.85,365.55 270.8,366.04 270.11,366.37C269.69,366.57 269.54,366.65 269.09,366.86C268.24,367.27 266.6,368.04 265.35,368.63C264.11,369.22 262.43,370 261.62,370.38C261.23,370.56 261.12,370.61 260.75,370.79C260.07,371.11 258.9,371.66 257.88,372.14C256.72,372.69 255.3,373.35 254.14,373.89C253.13,374.36 251.99,374.88 251.31,375.2C250.92,375.38 250.81,375.43 250.4,375.62C249.58,376 247.92,376.79 246.67,377.37C245.43,377.95 243.82,378.68 242.93,379.09C242.44,379.32 242.24,379.41 241.78,379.62C241.09,379.94 240.13,380.38 239.19,380.81C238.06,381.33 236.68,381.97 235.45,382.53C234.26,383.07 233.13,383.58 231.925,384.125C230.65,384.71 229.28,385.34 227.98,385.93C226.72,386.5 225.27,387.15 224.24,387.61C223.51,387.94 223,388.16 222.38,388.44C221.76,388.72 221.24,388.95 220.51,389.28C219.48,389.74 218.02,390.41 216.77,390.96C215.52,391.51 213.73,392.29 213.03,392.6C212.75,392.72 212.72,392.74 212.45,392.86C211.82,393.14 210.39,393.78 209.29,394.26C208.1,394.78 206.78,395.36 205.56,395.89C204.38,396.4 203.29,396.87 202.09,397.385C200.8,397.94 199.39,398.56 198.08,399.13C196.81,399.68 195.43,400.27 194.34,400.73C193.49,401.09 192.75,401.41 192.08,401.69C191.54,401.92 191.21,402.06 190.61,402.31C189.65,402.72 188.12,403.38 186.87,403.9C185.62,404.42 184.11,405.04 183.13,405.45C182.5,405.71 182.13,405.87 181.57,406.1C180.9,406.38 180.21,406.67 179.39,407.01C178.31,407.46 176.91,408.04 175.66,408.55C174.42,409.06 172.8,409.7 171.92,410.06C171.43,410.26 171.24,410.34 170.79,410.52C170.1,410.8 169.13,411.2 168.18,411.58C167.05,412.04 165.69,412.59 164.44,413.08C163.2,413.57 161.56,414.21 160.71,414.54C160.27,414.71 160.13,414.77 159.71,414.93C159.02,415.2 157.96,415.63 156.97,416.02C155.82,416.47 154.48,416.99 153.23,417.47C151.98,417.95 150.39,418.55 149.49,418.89C148.98,419.08 148.76,419.16 148.29,419.34C147.6,419.6 146.69,419.97 145.76,420.32C144.64,420.75 143.27,421.27 142.02,421.73C140.77,422.19 139.3,422.72 138.28,423.09C137.56,423.35 137.07,423.53 136.46,423.76C135.83,423.99 135.29,424.19 134.55,424.46C133.51,424.84 132.06,425.39 130.81,425.84C129.56,426.29 128.24,426.75 127.07,427.16C126.03,427.52 124.79,427.94 124.12,428.17C123.77,428.29 123.69,428.32 123.33,428.45C122.55,428.73 120.85,429.34 119.6,429.78C118.36,430.21 117.11,430.64 115.86,431.06C114.61,431.48 112.94,432.02 112.12,432.29C111.72,432.42 111.6,432.46 111.22,432.59C110.54,432.82 109.39,433.22 108.38,433.56C107.22,433.95 105.9,434.39 104.65,434.8C103.41,435.2 102.12,435.61 100.91,435.99Q99.77,436.34 97.58,437" style="stroke-miterlimit: 1; vector-effect: non-scaling-stroke; fill: none; stroke: rgb(59, 46, 38); stroke-opacity: 1; stroke-width: 2px;"/></g><g class="contourlevel"><path class="openline" d="M0,349.78Q0.17,349.19 0.31,348.72C0.59,347.75 1.14,345.77 1.57,344.3C2,342.83 2.51,341.19 2.9,339.89C3.21,338.87 3.49,337.94 3.74,337.14C3.93,336.51 4.04,336.16 4.25,335.47C4.59,334.35 5.15,332.53 5.61,331.06C6.07,329.59 6.69,327.71 7.03,326.65C7.22,326.05 7.29,325.8 7.47,325.24C7.73,324.42 8.09,323.33 8.45,322.23C8.89,320.9 9.42,319.27 9.9,317.82C10.37,316.41 10.82,315.09 11.3,313.66499999999996C11.81,312.15 12.35,310.52 12.88,308.99C13.39,307.5 14.04,305.67 14.42,304.58C14.64,303.94 14.74,303.65 14.95,303.06C15.24,302.25 15.6,301.23 15.98,300.16C16.45,298.84 17.08,297.09 17.56,295.75C17.97,294.62 18.39,293.45 18.69,292.63C18.88,292.1 18.96,291.89 19.17,291.33C19.55,290.3 20.24,288.39 20.79,286.92C21.33,285.46 21.89,284.01 22.44,282.54999999999995C23,281.07 23.55,279.57 24.12,278.09C24.68,276.61 25.48,274.59 25.83,273.68C25.98,273.28 26.01,273.19 26.16,272.8C26.46,272.01 27.05,270.5 27.54,269.26C28.09,267.87 28.86,265.95 29.29,264.85C29.55,264.2 29.66,263.89 29.9,263.29C30.22,262.48 30.62,261.49 31.05,260.43C31.58,259.12 32.35,257.2 32.83,256.02C33.15,255.22 33.35,254.72 33.64,254.02C33.95,253.25 34.26,252.53 34.64,251.61C35.16,250.36 35.96,248.41 36.46,247.19C36.82,246.32 37.06,245.71 37.37,244.97C37.68,244.24 37.94,243.64 38.3,242.78C38.81,241.56 39.64,239.59 40.16,238.36C40.53,237.48 40.79,236.84 41.11,236.1C41.42,235.37 41.68,234.79 42.04,233.95C42.56,232.74 43.41,230.75 43.93,229.54C44.29,228.7 44.54,228.12 44.85,227.4C45.18,226.65 45.46,226 45.85,225.12C46.39,223.89 47.26,221.87 47.77,220.71C48.1,219.95 48.29,219.5 48.59,218.83C48.93,218.05 49.28,217.25 49.71,216.29C50.27,215.02 51.19,212.96 51.67,211.88C51.95,211.25 52.06,210.97 52.32,210.39C52.68,209.58 53.16,208.54 53.64,207.46C54.23,206.14 55.2,204 55.62,203.05C55.82,202.6 55.87,202.49 56.06,202.06C56.42,201.26 57.05,199.87 57.61,198.64C58.26,197.22 59.03,195.53 59.709999999999994,194.025C60.36,192.59 60.98,191.22 61.63,189.81C62.28,188.39 62.93,186.97 63.599999999999994,185.52499999999998C64.29,184.03 65.04,182.39 65.69,180.98C66.25,179.76 66.9,178.35 67.27,177.55C67.47,177.12 67.52,177.01 67.73,176.57C68.17,175.63 69.18,173.44 69.78,172.15C70.24,171.15 70.64,170.28 71.01,169.49C71.31,168.85 71.5,168.46 71.84,167.74C72.37,166.6 73.36,164.47 73.9,163.32C74.25,162.58 74.44,162.15 74.75,161.49C75.12,160.7 75.5,159.89 75.96,158.91C76.56,157.63 77.59,155.43 78.03,154.49C78.24,154.05 78.28,153.94 78.48,153.51C78.85,152.71 79.53,151.3 80.1,150.08C80.76,148.69 81.5,147.1 82.2,145.62C82.89,144.16 83.6,142.64 84.25,141.25C84.85,139.98 85.6,138.36 85.96,137.6C86.12,137.25 86.15,137.2 86.32,136.84C86.73,135.98 87.79,133.72 88.4,132.42C88.88,131.39 89.32,130.44 89.7,129.64C89.99,129.02 90.15,128.69 90.47,128.01C90.99,126.9 92,124.77 92.54,123.6C92.9,122.83 93.11,122.35 93.43,121.67C93.79,120.89 94.16,120.13 94.61,119.18C95.2,117.92 96.22,115.74 96.67,114.77C96.89,114.29 96.96,114.15 97.17,113.69C97.55,112.88 98.17,111.55 98.73,110.35C99.38,108.95 100.16,107.3 100.85,105.805C101.52,104.36 102.17,102.95 102.83,101.53C103.48,100.13 104.1,98.78 104.765,97.35499999999999C105.46,95.85 106.26,94.11 106.91,92.7C107.45,91.53 108.01,90.29 108.38,89.48C108.61,88.98 108.69,88.81 108.93,88.28C109.39,87.27 110.37,85.14 110.95,83.87C111.39,82.9 111.76,82.08 112.12,81.29C112.42,80.62 112.62,80.2 112.96,79.45C113.48,78.3 114.43,76.22 114.96,75.04C115.32,74.24 115.55,73.74 115.86,73.04C116.21,72.27 116.53,71.55 116.95,70.63C117.51,69.38 118.43,67.3 118.92,66.21C119.2,65.57 119.34,65.29 119.6,64.7C119.96,63.89 120.42,62.87 120.89,61.8C121.47,60.48 122.41,58.36 122.84,57.38C123.06,56.89 123.12,56.74 123.33,56.27C123.69,55.46 124.26,54.15 124.78,52.97C125.38,51.61 126.32,49.45 126.71,48.56C126.88,48.17 126.91,48.1 127.07,47.73C127.41,46.95 128.08,45.4 128.62,44.14C129.22,42.75 130.18,40.55 130.53,39.73C130.67,39.42 130.68,39.39 130.81,39.08C131.13,38.34 131.85,36.62 132.41,35.31C133.01,33.9 133.95,31.7 134.29,30.9C134.42,30.6 134.43,30.58 134.55,30.29C134.86,29.56 135.59,27.8 136.14,26.48C136.73,25.06 137.64,22.91 137.99,22.07C138.13,21.74 138.15,21.7 138.28,21.37C138.59,20.62 139.29,18.95 139.82,17.66C140.4,16.25 141.25,14.17 141.63,13.24C141.81,12.81 141.85,12.71 142.02,12.29C142.34,11.5 142.93,10.05 143.43,8.83C143.99,7.45 144.79,5.46 145.21,4.41C145.45,3.83 145.54,3.59 145.76,3.05Q146.09,2.24 146.97,0" style="stroke-miterlimit: 1; vector-effect: non-scaling-stroke; fill: none; stroke: rgb(85, 62, 47); stroke-opacity: 1; stroke-width: 2px;"/><path class="openline" d="M370,263.41Q368.11,264.47 367.42,264.85C366.96,265.11 366.76,265.21 366.26,265.49C365.37,265.99 363.7,266.94 362.53,267.6C361.49,268.19 360.26,268.88 359.59,269.26C359.24,269.46 359.15,269.51 358.79,269.72C358,270.17 356.24,271.18 355.05,271.87C353.96,272.5 352.55,273.32 351.91,273.68C351.63,273.84 351.59,273.86 351.31,274.02C350.6,274.43 348.78,275.5 347.58,276.2C346.46,276.85 344.96,277.73 344.35,278.09C344.11,278.23 344.09,278.24 343.84,278.39C343.17,278.79 341.3,279.9 340.1,280.61C339,281.27 337.55,282.14 336.92,282.51C336.66,282.66 336.63,282.67 336.36,282.83C335.66,283.24 333.81,284.37 332.63,285.08C331.56,285.72 330.25,286.52 329.59,286.92C329.27,287.11 329.22,287.14 328.89,287.34C328.14,287.8 326.31,288.91 325.15,289.62C324.15,290.23 323.05,290.91 322.36,291.33C321.96,291.57 321.83,291.65 321.41,291.91C320.58,292.42 318.79,293.53 317.68,294.22C316.77,294.78 315.91,295.32 315.22,295.75C314.72,296.06 314.48,296.21 313.94,296.54C313.02,297.11 311.26,298.22 310.2,298.88C309.42,299.37 308.81,299.75 308.16,300.16C307.57,300.53 307.14,300.8 306.46,301.23C305.46,301.86 303.71,302.97 302.73,303.59C302.1,303.99 301.73,304.22 301.17,304.58C300.5,305 299.81,305.44 298.99,305.96C297.91,306.65 296.1,307.79 295.25,308.34C294.81,308.62 294.66,308.72 294.24,308.99C293.55,309.43 292.51,310.1 291.52,310.73C290.33,311.5 288.85,312.44 287.57,313.265C286.36,314.05 285.22,314.78 284.04,315.55C282.84,316.33 281.64,317.1 280.41499999999996,317.89C279.15,318.71 277.75,319.62 276.57,320.39C275.55,321.05 274.42,321.79 273.74,322.23C273.35,322.48 273.24,322.56 272.83,322.82C272.01,323.36 270.16,324.56 269.09,325.26C268.29,325.79 267.64,326.22 266.98,326.65C266.4,327.03 266,327.28 265.35,327.7C264.36,328.34 262.56,329.53 261.62,330.15C261.05,330.53 260.76,330.72 260.24,331.06C259.56,331.51 258.76,332.03 257.88,332.6C256.78,333.32 254.87,334.56 254.14,335.04C253.83,335.24 253.79,335.27 253.49,335.47C252.84,335.9 251.48,336.79 250.4,337.5C249.22,338.27 247.95,339.1 246.70999999999998,339.91499999999996C245.46,340.74 244.11,341.63 242.93,342.4C241.9,343.08 240.7,343.86 240.02,344.3C239.66,344.54 239.57,344.6 239.19,344.84C238.39,345.36 236.53,346.57 235.45,347.28C234.62,347.82 233.94,348.29 233.27,348.72C232.71,349.09 232.35,349.31 231.72,349.72C230.74,350.35 228.94,351.52 227.98,352.15C227.37,352.55 227.04,352.77 226.49,353.13C225.82,353.57 225.08,354.03 224.24,354.58C223.15,355.28 221.31,356.48 220.51,357C220.13,357.25 220.03,357.31 219.67,357.55C218.99,357.99 217.81,358.75 216.77,359.41C215.58,360.18 214.18,361.07 212.91500000000002,361.885C211.69,362.67 210.49,363.44 209.29,364.21C208.1,364.97 206.94,365.7 205.725,366.475C204.45,367.28 203.02,368.19 201.82,368.95C200.78,369.61 199.6,370.37 198.92,370.79C198.56,371.02 198.46,371.07 198.08,371.31C197.28,371.81 195.46,372.95 194.34,373.65C193.43,374.22 192.56,374.77 191.87,375.2C191.38,375.5 191.14,375.64 190.61,375.97C189.69,376.53 187.94,377.61 186.87,378.28C186.05,378.79 185.38,379.21 184.72,379.62C184.15,379.97 183.77,380.19 183.13,380.58C182.15,381.18 180.43,382.21 179.39,382.85C178.64,383.31 178.1,383.65 177.47,384.03C176.86,384.4 176.37,384.68 175.66,385.11C174.64,385.72 172.94,386.74 171.92,387.35C171.21,387.78 170.72,388.07 170.1,388.44C169.47,388.81 168.93,389.13 168.18,389.57C167.14,390.18 165.47,391.15 164.44,391.76C163.72,392.19 163.21,392.5 162.59,392.86C161.97,393.22 161.44,393.52 160.71,393.94C159.68,394.53 158.03,395.48 156.97,396.09C156.18,396.54 155.57,396.9 154.92,397.27C154.33,397.61 153.9,397.84 153.23,398.22C152.23,398.78 150.6,399.7 149.49,400.33C148.6,400.83 147.76,401.31 147.08,401.69C146.58,401.97 146.31,402.11 145.76,402.41C144.83,402.92 143.2,403.82 142.02,404.47C140.97,405.05 139.7,405.74 139.03,406.1C138.7,406.28 138.62,406.32 138.28,406.5C137.51,406.91 135.8,407.84 134.55,408.51C133.3,409.18 132.03,409.84 130.775,410.5C129.53,411.15 128.31,411.8 127.07,412.44C125.83,413.08 124.2,413.91 123.33,414.36C122.86,414.6 122.68,414.7 122.24,414.93C121.55,415.28 120.56,415.79 119.6,416.27C118.46,416.84 116.98,417.58 115.86,418.13C114.96,418.58 114.1,419 113.41,419.34C112.91,419.58 112.66,419.7 112.12,419.96C111.2,420.41 109.65,421.17 108.38,421.78C107.08,422.4 105.7,423.05 104.42500000000001,423.65C103.22,424.22 102.1,424.76 100.91,425.31C99.68,425.88 98.3,426.51 97.17,427.02C96.24,427.44 95.32,427.86 94.63,428.17C94.16,428.38 93.94,428.47 93.43,428.7C92.53,429.1 90.95,429.83 89.7,430.38C88.46,430.93 86.91,431.57 85.96,431.98C85.38,432.23 85.08,432.36 84.55,432.59C83.87,432.88 83.09,433.21 82.22,433.58C81.12,434.04 79.73,434.64 78.48,435.15C77.24,435.66 75.57,436.3 74.75,436.63Q74.35,436.79 73.85,437" style="stroke-miterlimit: 1; vector-effect: non-scaling-stroke; fill: none; stroke: rgb(85, 62, 47); stroke-opacity: 1; stroke-width: 2px;"/></g><g class="contourlevel"><path class="openline" d="M0,364.34Q0.5,362.87 0.81,361.96C1.24,360.71 1.82,359 2.33,357.55C2.83,356.14 3.31,354.8 3.825,353.365C4.37,351.86 4.94,350.25 5.5,348.72C6.05,347.23 6.83,345.21 7.16,344.3C7.31,343.9 7.33,343.82 7.47,343.43C7.76,342.65 8.35,341.13 8.83,339.89C9.37,338.5 10.12,336.59 10.56,335.47C10.83,334.78 10.96,334.42 11.21,333.8C11.53,333 11.91,332.08 12.33,331.06C12.86,329.76 13.65,327.84 14.13,326.65C14.46,325.85 14.66,325.33 14.95,324.63C15.27,323.86 15.59,323.15 15.98,322.23C16.51,320.98 17.36,319 17.86,317.82C18.19,317.03 18.39,316.54 18.69,315.85C19.03,315.08 19.36,314.34 19.78,313.4C20.34,312.14 21.25,310.09 21.73,308.99C22.02,308.33 22.15,308.01 22.42,307.41C22.78,306.6 23.25,305.63 23.73,304.58C24.33,303.27 25.35,301.08 25.76,300.16C25.95,299.75 25.98,299.66 26.16,299.26C26.52,298.47 27.24,296.99 27.83,295.75C28.49,294.37 29.21,292.83 29.91,291.36C30.62,289.88 31.4,288.28 32.06,286.92C32.63,285.75 33.24,284.49 33.64,283.68C33.88,283.19 33.97,283.03 34.23,282.51C34.73,281.51 35.86,279.26 36.44,278.09C36.82,277.33 37.03,276.86 37.37,276.19C37.76,275.41 38.18,274.64 38.68,273.68C39.35,272.38 40.25,270.59 41.025,269.095C41.77,267.65 42.57,266.15 43.25,264.85C43.83,263.74 44.42,262.58 44.85,261.77C45.14,261.23 45.27,261.01 45.58,260.43C46.14,259.39 47.39,257.04 47.93,256.02C48.22,255.48 48.32,255.29 48.59,254.78C49.03,253.97 49.72,252.71 50.32,251.61C50.96,250.43 51.9,248.68 52.32,247.92C52.51,247.58 52.54,247.54 52.73,247.19C53.2,246.34 54.57,243.89 55.18,242.78C55.55,242.11 55.72,241.76 56.06,241.15C56.51,240.34 57.07,239.37 57.64,238.36C58.3,237.18 59.39,235.22 59.8,234.51C59.96,234.24 59.97,234.23 60.13,233.95C60.58,233.18 62.01,230.65 62.64,229.54C63.02,228.87 63.19,228.54 63.54,227.93C64,227.12 64.59,226.12 65.17,225.12C65.83,223.98 66.83,222.19 67.27,221.44C67.47,221.1 67.5,221.06 67.71,220.71C68.21,219.86 69.69,217.32 70.28,216.29C70.6,215.74 70.71,215.53 71.01,215.01C71.48,214.19 72.24,212.93 72.86,211.88C73.49,210.81 74.27,209.44 74.75,208.63C75.04,208.14 75.14,207.98 75.45,207.46C76.04,206.46 77.56,203.91 78.06,203.05C78.26,202.7 78.28,202.65 78.48,202.31C78.92,201.55 80.01,199.76 80.68,198.64C81.24,197.69 81.75,196.79 82.22,196C82.61,195.35 82.86,194.95 83.3,194.22C83.99,193.07 85.06,191.26 85.945,189.78C86.82,188.31 87.88,186.55 88.57,185.39C89.03,184.62 89.29,184.16 89.7,183.48C90.17,182.7 90.66,181.9 91.21,180.98C91.88,179.86 92.98,177.98 93.43,177.24C93.62,176.93 93.64,176.89 93.84,176.57C94.34,175.74 95.9,173.15 96.49,172.15C96.79,171.64 96.88,171.47 97.17,170.98C97.65,170.17 98.49,168.8 99.12,167.74C99.73,166.72 100.42,165.53 100.91,164.72C101.24,164.16 101.4,163.92 101.76,163.32C102.42,162.22 103.62,160.19 104.515,158.68C105.36,157.25 106.29,155.69 107,154.49C107.53,153.59 107.93,152.89 108.38,152.13C108.8,151.42 109.13,150.89 109.61,150.08C110.31,148.9 111.3,147.19 112.16,145.735C113.03,144.25 114.11,142.42 114.79,141.25C115.23,140.5 115.47,140.06 115.86,139.39C116.32,138.61 116.8,137.79 117.36,136.84C118.07,135.62 118.93,134.11 119.75,132.685C120.62,131.17 121.79,129.16 122.44,128.01C122.82,127.34 122.99,127.03 123.33,126.43C123.79,125.62 124.38,124.61 124.96,123.6C125.62,122.44 126.65,120.59 127.07,119.85C127.25,119.54 127.27,119.5 127.45,119.18C127.91,118.36 129.3,115.88 129.92,114.77C130.29,114.1 130.47,113.78 130.81,113.17C131.26,112.36 131.81,111.38 132.38,110.35C133.07,109.09 133.89,107.6 134.675,106.17C135.5,104.66 136.55,102.76 137.21,101.53C137.65,100.72 137.9,100.22 138.28,99.52C138.69,98.75 139.08,98.04 139.58,97.11C140.26,95.84 141.19,94.1 141.97500000000002,92.61500000000001C142.75,91.16 143.58,89.58 144.26,88.28C144.81,87.22 145.34,86.21 145.76,85.4C146.07,84.81 146.23,84.51 146.56,83.87C147.13,82.78 148.3,80.49 148.83,79.45C149.12,78.88 149.22,78.66 149.49,78.13C149.9,77.32 150.5,76.16 151.07,75.04C151.74,73.71 152.53,72.14 153.255,70.675C153.99,69.2 154.8,67.56 155.46,66.21C156.01,65.09 156.57,63.93 156.97,63.12C157.23,62.59 157.34,62.37 157.62,61.8C158.13,60.76 159.17,58.57 159.74,57.38C160.13,56.57 160.37,56.05 160.71,55.35C161.07,54.59 161.41,53.89 161.84,52.97C162.43,51.73 163.44,49.56 163.9,48.56C164.14,48.05 164.22,47.88 164.44,47.39C164.82,46.58 165.4,45.32 165.94,44.14C166.59,42.72 167.38,40.98 168.065,39.47C168.71,38.04 169.3,36.72 169.93,35.31C170.58,33.85 171.25,32.33 171.89999999999998,30.854999999999997C172.54,29.39 173.17,27.94 173.8,26.48C174.43,25.02 175.05,23.57 175.675,22.11C176.3,20.63 176.93,19.14 177.55,17.66C178.17,16.18 178.78,14.71 179.39,13.24C180,11.77 180.59,10.32 181.19,8.83C181.81,7.31 182.45,5.72 183.055,4.220000000000001Q183.63,2.78 184.72,0" style="stroke-miterlimit: 1; vector-effect: non-scaling-stroke; fill: none; stroke: rgb(112, 77, 54); stroke-opacity: 1; stroke-width: 2px;"/><path class="openline" d="M370,218.83Q367.64,220.12 366.42499999999995,220.8C365.15,221.51 363.81,222.27 362.53,223C361.27,223.71 360.04,224.41 358.8,225.12C357.55,225.84 356.3,226.57 355.05,227.3C353.79,228.03 352.52,228.77 351.275,229.515C350.03,230.25 348.81,230.99 347.58,231.73C346.35,232.47 345.12,233.22 343.88,233.975C342.63,234.74 341.34,235.53 340.1,236.3C338.9,237.04 337.79,237.74 336.58000000000004,238.5C335.3,239.31 333.83,240.24 332.63,241.01C331.63,241.65 330.57,242.34 329.88,242.78C329.47,243.05 329.33,243.14 328.89,243.42C328.04,243.97 326.21,245.17 325.15,245.86C324.37,246.37 323.78,246.76 323.13,247.19C322.53,247.58 322.09,247.87 321.41,248.33C320.4,249 318.56,250.24 317.68,250.84C317.19,251.17 317,251.3 316.55,251.61C315.86,252.08 314.89,252.74 313.94,253.39C312.8,254.17 311.41,255.12 310.15999999999997,255.99C308.92,256.85 307.58,257.79 306.46,258.58C305.51,259.25 304.54,259.94 303.85,260.43C303.4,260.75 303.21,260.88 302.73,261.22C301.85,261.85 299.91,263.23 298.99,263.9C298.44,264.3 298.19,264.48 297.69,264.85C297,265.35 296.14,265.97 295.25,266.62C294.15,267.42 292.82,268.4 291.585,269.31C290.33,270.24 288.85,271.34 287.78,272.14C286.99,272.73 286.39,273.19 285.74,273.68C285.15,274.12 284.72,274.44 284.04,274.95C283,275.73 281.38,276.97 280.105,277.94C278.89,278.86 277.63,279.83 276.57,280.65C275.69,281.33 274.86,281.98 274.18,282.51C273.67,282.91 273.39,283.11 272.83,283.55C271.89,284.28 269.78,285.92 269.09,286.47C268.82,286.68 268.79,286.71 268.53,286.92C267.9,287.42 266.33,288.64 265.35,289.42C264.49,290.1 263.63,290.79 262.95,291.33C262.44,291.73 262.18,291.94 261.62,292.39C260.65,293.16 258.94,294.54 257.655,295.565C256.45,296.53 255.17,297.56 254.14,298.39C253.33,299.05 252.65,299.62 251.98,300.16C251.41,300.62 251.04,300.91 250.4,301.43C249.41,302.23 247.87,303.5 246.615,304.53C245.38,305.54 243.93,306.72 242.93,307.54C242.24,308.11 241.8,308.5 241.2,308.99C240.56,309.52 239.95,309.99 239.19,310.62C238.17,311.45 236.86,312.55 235.64999999999998,313.56C234.37,314.62 232.65,316.04 231.72,316.82C231.21,317.25 231,317.43 230.53,317.82C229.84,318.39 228.85,319.21 227.98,319.93C227.08,320.68 225.92,321.66 225.23,322.23C224.82,322.57 224.67,322.68 224.24,323.04C223.39,323.74 221.21,325.57 220.51,326.16C220.24,326.39 220.21,326.42 219.94,326.65C219.31,327.18 217.72,328.49 216.77,329.28C215.99,329.93 215.31,330.51 214.65,331.06C214.08,331.54 213.68,331.85 213.03,332.39C212.04,333.21 210.56,334.46 209.315,335.49C208.07,336.53 206.53,337.8 205.56,338.61C204.94,339.13 204.6,339.43 204.05,339.89C203.38,340.45 202.62,341.05 201.82,341.71C200.87,342.5 199.35,343.77 198.71,344.3C198.42,344.54 198.38,344.57 198.08,344.81C197.35,345.4 195.19,347.19 194.34,347.89C193.9,348.25 193.76,348.38 193.35,348.72C192.67,349.29 191.51,350.21 190.61,350.95C189.72,351.68 188.65,352.57 187.96,353.13C187.52,353.49 187.34,353.62 186.87,354C185.99,354.7 183.85,356.44 183.13,357.03C182.83,357.27 182.8,357.31 182.51,357.55C181.87,358.07 180.36,359.25 179.39,360.03C178.54,360.71 177.7,361.42 177.02,361.96C176.51,362.37 176.22,362.58 175.66,363.02C174.72,363.76 172.58,365.47 171.92,365.99C171.68,366.18 171.67,366.19 171.44,366.37C170.84,366.84 169.18,368.13 168.18,368.92C167.33,369.59 166.5,370.26 165.82,370.79C165.3,371.19 165.01,371.39 164.44,371.83C163.5,372.55 161.43,374.16 160.71,374.72C160.42,374.95 160.38,374.98 160.09,375.2C159.45,375.69 157.97,376.8 156.97,377.56C156.04,378.27 154.97,379.1 154.28,379.62C153.85,379.94 153.69,380.05 153.23,380.39C152.37,381.03 150.37,382.51 149.49,383.17C149.01,383.54 148.82,383.69 148.37,384.03C147.68,384.54 146.7,385.24 145.76,385.92C144.66,386.72 143.39,387.66 142.16500000000002,388.53999999999996C140.9,389.46 139.38,390.53 138.28,391.32C137.46,391.91 136.81,392.39 136.15,392.86C135.58,393.26 135.19,393.51 134.55,393.96C133.56,394.64 131.66,395.98 130.81,396.57C130.37,396.88 130.23,396.98 129.82,397.27C129.13,397.74 128.06,398.46 127.07,399.13C125.91,399.91 124.56,400.84 123.31,401.675C122.07,402.51 120.77,403.37 119.6,404.14C118.55,404.83 117.29,405.67 116.62,406.1C116.28,406.32 116.21,406.36 115.86,406.58C115.08,407.07 113.23,408.27 112.12,408.98C111.23,409.55 110.41,410.09 109.72,410.52C109.21,410.84 108.94,410.99 108.38,411.33C107.45,411.9 105.71,412.98 104.65,413.64C103.86,414.13 103.23,414.53 102.57,414.93C101.99,415.28 101.57,415.52 100.91,415.91C99.91,416.5 98.23,417.5 97.17,418.13C96.39,418.59 95.79,418.96 95.14,419.34C94.55,419.68 94.11,419.92 93.43,420.31C92.43,420.88 90.8,421.81 89.7,422.44C88.84,422.93 88.06,423.38 87.38,423.76C86.85,424.05 86.54,424.2 85.96,424.52C85.01,425.04 83.4,425.93 82.22,426.57C81.17,427.14 79.88,427.82 79.22,428.17C78.89,428.34 78.82,428.37 78.48,428.55C77.71,428.95 76.01,429.85 74.75,430.5C73.46,431.16 72.09,431.84 70.81,432.485C69.6,433.09 68.47,433.66 67.27,434.25C66.05,434.85 64.59,435.54 63.54,436.04Q62.76,436.41 61.52,437" style="stroke-miterlimit: 1; vector-effect: non-scaling-stroke; fill: none; stroke: rgb(112, 77, 54); stroke-opacity: 1; stroke-width: 2px;"/></g><g class="contourlevel"><path class="openline" d="M0,373.89Q0.76,371.91 1.2,370.79C1.72,369.45 2.46,367.57 2.93,366.37C3.25,365.55 3.45,365.01 3.74,364.3C4.05,363.54 4.34,362.86 4.72,361.96C5.24,360.72 6.06,358.77 6.56,357.55C6.92,356.68 7.15,356.07 7.47,355.33C7.79,354.59 8.08,353.99 8.46,353.13C9,351.91 9.9,349.87 10.41,348.72C10.74,347.98 10.91,347.54 11.21,346.88C11.57,346.09 11.96,345.27 12.42,344.3C13.02,343.03 14.04,340.85 14.48,339.89C14.69,339.43 14.74,339.3 14.95,338.86C15.33,338.06 16.02,336.67 16.61,335.47C17.27,334.12 18.01,332.6 18.735,331.145C19.48,329.66 20.34,327.97 21.01,326.65C21.54,325.61 22,324.65 22.42,323.85C22.74,323.23 22.94,322.9 23.3,322.23C23.9,321.12 25.14,318.78 25.64,317.82C25.88,317.36 25.93,317.24 26.16,316.8C26.59,316 27.42,314.54 28.04,313.4C28.66,312.27 29.45,310.79 29.9,309.99C30.15,309.55 30.23,309.44 30.49,308.99C31.04,308.04 32.43,305.58 32.99,304.58C33.28,304.07 33.36,303.9 33.64,303.41C34.11,302.6 34.93,301.23 35.56,300.16C36.17,299.11 36.88,297.84 37.37,297.03C37.69,296.51 37.83,296.31 38.17,295.75C38.82,294.68 40.05,292.6 40.97,291.09000000000003C41.84,289.66 42.85,288.08 43.56,286.92C44.07,286.09 44.4,285.51 44.85,284.79C45.32,284.04 45.79,283.36 46.33,282.51C47.01,281.45 48.09,279.7 48.59,278.92C48.83,278.54 48.88,278.48 49.14,278.09C49.74,277.17 51.17,274.94 52.165,273.43C53.11,272 54.22,270.35 54.94,269.26C55.4,268.56 55.64,268.17 56.06,267.54C56.6,266.74 57.29,265.76 57.91,264.85C58.54,263.92 59.25,262.83 59.8,262.02C60.22,261.41 60.47,261.08 60.92,260.43C61.61,259.43 63.03,257.34 63.54,256.62C63.74,256.33 63.76,256.31 63.97,256.02C64.54,255.21 66.11,252.95 67.16999999999999,251.455C68.19,250.01 69.52,248.16 70.21,247.19C70.56,246.69 70.67,246.52 71.01,246.04C71.59,245.23 72.71,243.73 73.39,242.78C73.91,242.06 74.26,241.54 74.75,240.86C75.32,240.08 75.99,239.21 76.61,238.36C77.24,237.5 77.9,236.54 78.48,235.75C78.97,235.09 79.34,234.64 79.85,233.95C80.54,233.03 81.62,231.51 82.22,230.7C82.58,230.21 82.73,230.04 83.11,229.54C83.79,228.63 85.42,226.4 85.96,225.69C86.17,225.41 86.19,225.4 86.4,225.12C86.99,224.34 88.6,222.19 89.705,220.72C90.82,219.24 92.5,217.04 93.06,216.29C93.25,216.04 93.25,216.03 93.43,215.78C93.95,215.09 95.75,212.76 96.41,211.88C96.75,211.43 96.84,211.29 97.17,210.85C97.78,210.04 99.08,208.37 99.77,207.46C100.23,206.85 100.46,206.53 100.91,205.94C101.53,205.13 102.47,203.93 103.14,203.05C103.69,202.32 104.12,201.74 104.65,201.04C105.24,200.27 105.89,199.45 106.51,198.64C107.14,197.82 107.79,196.92 108.38,196.14C108.9,195.46 109.33,194.93 109.87,194.22C110.55,193.34 111.5,192.04 112.12,191.23C112.55,190.67 112.78,190.39 113.22,189.81C113.91,188.9 115.26,187.09 115.86,186.3C116.17,185.9 116.24,185.81 116.56,185.39C117.24,184.5 118.65,182.61 119.74,181.165C120.88,179.64 122.11,178 123.25999999999999,176.47C124.36,175 125.84,173.03 126.48,172.15C126.76,171.77 126.8,171.7 127.07,171.33C127.64,170.55 129.04,168.68 129.73,167.74C130.17,167.13 130.39,166.82 130.81,166.24C131.4,165.43 132.3,164.23 132.96,163.32C133.53,162.53 134.02,161.84 134.55,161.1C135.08,160.37 135.57,159.7 136.14,158.91C136.8,157.98 137.7,156.69 138.28,155.88C138.67,155.33 138.87,155.07 139.28,154.49C139.97,153.52 141.54,151.27 142.02,150.58C142.19,150.33 142.19,150.33 142.37,150.08C142.9,149.31 144.56,146.94 145.595,145.425C146.58,144 147.73,142.31 148.44,141.25C148.88,140.6 149.09,140.27 149.49,139.67C150.03,138.86 150.77,137.78 151.4,136.84C152.02,135.91 152.7,134.86 153.23,134.05C153.64,133.43 153.87,133.09 154.31,132.42C155.02,131.33 156.13,129.6 157.06,128.14999999999998C158.02,126.66 159.31,124.63 159.96,123.6C160.29,123.07 160.4,122.89 160.71,122.39C161.22,121.58 162.07,120.22 162.71,119.18C163.31,118.2 163.95,117.13 164.44,116.32C164.8,115.72 164.99,115.42 165.39,114.77C166.06,113.65 167.22,111.71 168.10000000000002,110.215C168.95,108.77 169.91,107.15 170.61,105.94C171.12,105.06 171.49,104.39 171.92,103.64C172.33,102.92 172.66,102.37 173.13,101.53C173.82,100.32 174.81,98.53 175.625,97.05C176.43,95.59 177.33,93.97 178.01,92.7C178.54,91.72 178.97,90.89 179.39,90.1C179.74,89.44 179.98,89.02 180.37,88.28C180.98,87.13 182.2,84.79 182.67,83.87C182.88,83.46 182.93,83.37 183.13,82.97C183.53,82.18 184.31,80.67 184.93,79.45C185.6,78.13 186.3,76.73 187,75.30000000000001C187.74,73.79 188.62,71.99 189.28,70.63C189.79,69.58 190.23,68.66 190.61,67.85C190.9,67.23 191.07,66.89 191.39,66.21C191.91,65.1 192.9,62.98 193.44,61.8C193.8,61.01 194.02,60.52 194.34,59.83C194.69,59.06 195.03,58.32 195.45,57.38C196.01,56.13 196.94,54.06 197.42,52.97C197.7,52.34 197.83,52.04 198.08,51.46C198.43,50.65 198.88,49.63 199.34,48.56C199.91,47.24 200.77,45.21 201.22,44.14C201.48,43.53 201.58,43.27 201.82,42.71C202.16,41.9 202.61,40.82 203.06,39.73C203.61,38.4 204.4,36.45 204.86,35.31C205.15,34.6 205.3,34.21 205.56,33.57C205.88,32.78 206.22,31.9 206.61,30.9C207.11,29.61 207.84,27.74 208.33,26.48C208.7,25.53 208.99,24.77 209.29,23.99C209.55,23.31 209.73,22.84 210.02,22.07C210.46,20.9 211.15,19.07 211.67,17.66C212.15,16.37 212.76,14.69 213.03,13.94C213.15,13.61 213.16,13.57 213.28,13.24C213.58,12.4 214.34,10.3 214.86,8.83C215.38,7.36 216.07,5.37 216.41,4.41C216.57,3.95 216.62,3.83 216.77,3.39Q217.05,2.59 217.93,0" style="stroke-miterlimit: 1; vector-effect: non-scaling-stroke; fill: none; stroke: rgb(138, 93, 57); stroke-opacity: 1; stroke-width: 2px;"/><path class="openline" d="M370,179.61Q367.81,180.65 367.13,180.98C366.76,181.16 366.65,181.21 366.26,181.4C365.45,181.79 363.77,182.61 362.53,183.23C361.28,183.85 359.5,184.75 358.79,185.1C358.51,185.24 358.47,185.25 358.2,185.39C357.56,185.71 356.14,186.44 355.05,187.01C353.86,187.63 352.3,188.43 351.31,188.95C350.66,189.29 350.27,189.5 349.69,189.81C349.03,190.16 348.38,190.51 347.58,190.94C346.51,191.52 344.93,192.37 343.84,192.97C342.99,193.44 342.25,193.84 341.58,194.22C341.03,194.52 340.71,194.71 340.1,195.05C339.14,195.59 337.48,196.52 336.36,197.17C335.44,197.7 334.53,198.24 333.84,198.64C333.36,198.92 333.14,199.04 332.63,199.34C331.72,199.87 330.01,200.89 328.89,201.56C327.98,202.1 327.12,202.63 326.43,203.05C325.93,203.35 325.69,203.5 325.15,203.83C324.23,204.4 322.47,205.48 321.41,206.15C320.62,206.65 319.99,207.04 319.34,207.46C318.76,207.83 318.34,208.1 317.68,208.53C316.68,209.18 314.88,210.34 313.94,210.96C313.36,211.34 313.07,211.53 312.55,211.88C311.87,212.33 311.08,212.85 310.2,213.44C309.05,214.21 307.52,215.26 306.24,216.14C305.03,216.97 303.85,217.8 302.73,218.59C301.69,219.32 300.42,220.24 299.75,220.71C299.41,220.95 299.34,221 298.99,221.25C298.21,221.81 296.22,223.25 295.25,223.97C294.62,224.43 294.27,224.7 293.71,225.12C293.04,225.62 292.34,226.14 291.52,226.76C290.45,227.57 289.07,228.62 287.83,229.575C286.57,230.54 285.07,231.71 284.04,232.52C283.33,233.08 282.86,233.46 282.25,233.95C281.61,234.46 281.05,234.9 280.3,235.5C279.28,236.32 277.91,237.45 276.685,238.455C275.42,239.5 273.78,240.86 272.83,241.66C272.27,242.13 272.02,242.35 271.51,242.78C270.82,243.36 269.92,244.12 269.09,244.83C268.21,245.59 267.07,246.59 266.38,247.19C265.96,247.56 265.8,247.69 265.35,248.08C264.47,248.85 262.76,250.37 261.5,251.5C260.27,252.6 258.8,253.91 257.88,254.75C257.31,255.27 257.03,255.54 256.51,256.02C255.83,256.65 254.93,257.45 254.14,258.18C253.34,258.92 252.42,259.79 251.74,260.43C251.23,260.91 250.95,261.16 250.4,261.68C249.5,262.53 248.08,263.89 246.875,265.045C245.6,266.27 243.58,268.21 242.93,268.84C242.72,269.05 242.72,269.06 242.51,269.26C241.93,269.83 240.01,271.68 239.19,272.5C238.7,272.99 238.49,273.21 238.02,273.68C237.33,274.37 236.23,275.43 235.45,276.21C234.78,276.88 234.22,277.46 233.6,278.09C232.98,278.72 232.39,279.29 231.72,279.97C230.95,280.75 229.93,281.81 229.24,282.51C228.75,283 228.49,283.25 227.98,283.77C227.18,284.58 225.6,286.25 224.94,286.92C224.63,287.24 224.56,287.29 224.24,287.62C223.5,288.38 221.83,290.12 220.58999999999997,291.41499999999996C219.29,292.77 217.9,294.23 216.61,295.58000000000004C215.38,296.86 213.78,298.53 213.03,299.33C212.68,299.7 212.6,299.8 212.26,300.16C211.59,300.87 210.06,302.45 209.29,303.27C208.8,303.8 208.57,304.07 208.09,304.58C207.41,305.31 206.31,306.43 205.56,307.23C204.95,307.87 204.51,308.37 203.93,308.99C203.27,309.69 202.52,310.47 201.82,311.21C201.13,311.94 200.43,312.71 199.78,313.4C199.19,314.03 198.69,314.53 198.08,315.18C197.34,315.97 196.33,317.09 195.64,317.82C195.14,318.35 194.85,318.62 194.34,319.16C193.57,319.97 192.16,321.51 191.48,322.23C191.11,322.62 190.99,322.73 190.61,323.13C189.86,323.92 187.9,326.04 187.31,326.65C187.1,326.87 187.09,326.87 186.87,327.09C186.23,327.75 184.37,329.74 183.12,331.05C181.88,332.36 180.04,334.25 179.39,334.95C179.15,335.2 179.14,335.22 178.91,335.47C178.31,336.11 176.43,338.03 175.66,338.84C175.23,339.29 175.09,339.46 174.67,339.89C173.99,340.6 172.7,341.88 171.92,342.69C171.33,343.3 170.95,343.72 170.39,344.3C169.72,344.98 168.91,345.78 168.18,346.52C167.46,347.25 166.72,348.05 166.06,348.72C165.49,349.3 165.05,349.71 164.44,350.32C163.64,351.12 162.37,352.45 161.68,353.13C161.28,353.53 161.13,353.65 160.71,354.07C159.89,354.88 158.33,356.46 157.1,357.67C155.84,358.92 153.92,360.76 153.23,361.44C152.98,361.69 152.97,361.72 152.72,361.96C152.11,362.56 150.33,364.23 149.49,365.05C148.94,365.58 148.66,365.88 148.15,366.37C147.47,367.02 146.54,367.86 145.76,368.6C144.99,369.33 144.16,370.16 143.48,370.79C142.94,371.29 142.61,371.57 142.02,372.11C141.1,372.96 139.7,374.27 138.49,375.385C137.22,376.55 135.33,378.24 134.55,378.96C134.22,379.27 134.16,379.33 133.84,379.62C133.18,380.21 131.71,381.48 130.81,382.28C130.09,382.92 129.51,383.47 128.87,384.03C128.26,384.56 127.77,384.96 127.07,385.56C126.09,386.4 124.75,387.58 123.53999999999999,388.61C122.27,389.7 120.5,391.15 119.6,391.92C119.12,392.33 118.96,392.49 118.51,392.86C117.82,393.43 116.75,394.27 115.86,395C114.95,395.74 113.8,396.72 113.11,397.27C112.7,397.6 112.56,397.7 112.12,398.04C111.27,398.7 109.18,400.34 108.38,400.99C108,401.3 107.91,401.4 107.54,401.69C106.87,402.22 105.61,403.15 104.65,403.88C103.69,404.62 102.45,405.59 101.77,406.1C101.4,406.37 101.3,406.44 100.91,406.72C100.1,407.31 98.11,408.78 97.17,409.48C96.6,409.91 96.33,410.14 95.81,410.52C95.13,411.02 94.31,411.56 93.43,412.18C92.31,412.97 90.89,414 89.625,414.875C88.4,415.73 87.11,416.6 85.96,417.38C84.94,418.07 83.77,418.89 83.09,419.34C82.72,419.58 82.61,419.64 82.22,419.89C81.41,420.41 79.56,421.62 78.48,422.33C77.66,422.87 76.97,423.34 76.3,423.76C75.74,424.11 75.38,424.32 74.75,424.7C73.77,425.3 72.04,426.37 71.01,427.01C70.28,427.46 69.77,427.79 69.14,428.17C68.52,428.54 68,428.83 67.27,429.26C66.24,429.86 64.59,430.82 63.54,431.43C62.78,431.88 62.2,432.23 61.56,432.59C60.96,432.93 60.5,433.16 59.8,433.54C58.78,434.09 57.2,434.97 56.06,435.59Q55.11,436.11 53.44,437" style="stroke-miterlimit: 1; vector-effect: non-scaling-stroke; fill: none; stroke: rgb(138, 93, 57); stroke-opacity: 1; stroke-width: 2px;"/></g><g class="contourlevel"><path class="openline" d="M0,380.83Q0.31,380.15 0.54,379.62C0.98,378.61 1.85,376.53 2.42,375.2C2.9,374.09 3.37,372.97 3.74,372.16C3.99,371.61 4.12,371.38 4.39,370.79C4.88,369.74 5.85,367.61 6.42,366.37C6.83,365.48 7.11,364.82 7.47,364.07C7.82,363.35 8.12,362.79 8.54,361.96C9.14,360.76 10.24,358.52 10.71,357.55C10.94,357.08 10.99,356.94 11.21,356.49C11.61,355.68 12.38,354.29 12.98,353.13C13.62,351.9 14.56,350.05 14.95,349.33C15.11,349.04 15.13,349.02 15.3,348.72C15.75,347.92 17.09,345.45 17.71,344.3C18.11,343.56 18.32,343.14 18.69,342.48C19.13,341.69 19.66,340.84 20.21,339.89C20.88,338.73 22,336.71 22.42,336.01C22.58,335.75 22.6,335.74 22.76,335.47C23.23,334.71 24.8,332.09 25.41,331.06C25.74,330.5 25.84,330.29 26.16,329.77C26.66,328.95 27.51,327.67 28.15,326.65C28.76,325.68 29.38,324.61 29.9,323.81C30.29,323.2 30.53,322.89 30.96,322.23C31.67,321.16 32.78,319.4 33.74,317.96000000000004C34.74,316.46 36.23,314.32 36.83,313.4C37.09,313.01 37.12,312.93 37.37,312.56C37.9,311.78 39.21,309.98 39.9,308.99C40.38,308.3 40.65,307.86 41.11,307.22C41.68,306.42 42.43,305.45 43.06,304.58C43.67,303.73 44.28,302.84 44.85,302.06C45.35,301.38 45.77,300.87 46.31,300.16C46.99,299.26 47.97,297.87 48.59,297.06C49,296.53 49.21,296.3 49.63,295.75C50.32,294.86 51.7,293 52.32,292.22C52.64,291.82 52.73,291.73 53.05,291.33C53.71,290.5 55.48,288.23 56.06,287.51C56.29,287.22 56.32,287.21 56.56,286.92C57.19,286.16 58.81,284.14 59.985,282.72C61.19,281.26 62.46,279.75 63.705,278.28C64.95,276.81 66.23,275.32 67.47,273.895C68.66,272.52 70.34,270.59 71.01,269.85C71.27,269.56 71.3,269.54 71.56,269.26C72.19,268.57 74.04,266.46 74.75,265.69C75.1,265.31 75.2,265.22 75.55,264.85C76.22,264.13 77.72,262.43 78.48,261.62C78.95,261.12 79.17,260.91 79.63,260.43C80.32,259.7 81.46,258.43 82.22,257.63C82.81,257.01 83.24,256.61 83.8,256.02C84.47,255.32 85.24,254.46 85.96,253.71C86.66,252.99 87.4,252.28 88.05,251.61C88.64,251.01 89.08,250.51 89.7,249.87C90.48,249.07 91.7,247.89 92.38,247.19C92.81,246.75 92.97,246.56 93.43,246.09C94.26,245.25 95.75,243.79 96.975,242.575C98.29,241.27 99.77,239.82 101.09,238.53C102.32,237.33 103.77,235.9 104.65,235.07C105.16,234.59 105.39,234.4 105.86,233.95C106.55,233.29 107.57,232.26 108.38,231.49C109.11,230.8 109.84,230.16 110.49,229.54C111.07,228.99 111.49,228.55 112.12,227.95C112.97,227.14 114.49,225.75 115.15,225.12C115.47,224.81 115.53,224.75 115.86,224.43C116.63,223.7 118.46,222.01 119.72999999999999,220.825C120.95,219.68 122.43,218.29 123.33,217.46C123.87,216.97 124.13,216.75 124.63,216.29C125.32,215.66 126.26,214.75 127.07,214C127.85,213.28 128.72,212.51 129.4,211.88C129.93,211.39 130.23,211.08 130.81,210.54C131.72,209.69 133.14,208.39 134.345,207.265C135.62,206.08 137.54,204.28 138.28,203.6C138.57,203.33 138.61,203.31 138.89,203.05C139.53,202.46 141.15,200.91 142.02,200.1C142.64,199.53 143.04,199.17 143.61,198.64C144.28,198.01 145.01,197.28 145.76,196.57C146.56,195.81 147.58,194.88 148.26,194.22C148.75,193.75 148.98,193.51 149.49,193.01C150.33,192.2 152.23,190.38 152.81,189.81C153.02,189.61 153.02,189.6 153.23,189.39C153.87,188.75 155.86,186.81 157.13,185.545C158.35,184.33 159.9,182.76 160.71,181.94C161.13,181.52 161.27,181.39 161.67,180.98C162.36,180.28 163.66,178.9 164.44,178.09C165.01,177.5 165.38,177.14 165.92,176.57C166.6,175.85 167.46,174.89 168.18,174.12C168.82,173.43 169.41,172.82 170.02,172.15C170.65,171.46 171.28,170.74 171.92,170.02C172.59,169.27 173.31,168.48 173.96,167.74C174.56,167.06 175.06,166.45 175.66,165.76C176.32,164.99 177.1,164.1 177.75,163.32C178.33,162.62 178.82,162.02 179.39,161.32C180.02,160.55 180.74,159.7 181.38,158.91C181.99,158.16 182.55,157.42 183.13,156.68C183.7,155.95 184.25,155.26 184.84,154.49C185.49,153.64 186.27,152.59 186.87,151.79C187.35,151.16 187.66,150.75 188.15,150.08C188.84,149.13 190.05,147.42 190.61,146.63C190.91,146.21 190.99,146.11 191.29,145.67C191.94,144.73 193.32,142.69 194.31,141.20499999999998C195.28,139.75 196.48,137.91 197.16,136.84C197.56,136.22 197.72,135.94 198.08,135.36C198.58,134.55 199.28,133.43 199.89,132.42C200.53,131.36 201.34,129.96 201.82,129.15C202.1,128.67 202.2,128.52 202.49,128.01C203.06,127.02 204.43,124.58 204.97,123.6C205.24,123.12 205.31,122.97 205.56,122.51C206,121.7 206.75,120.33 207.35,119.18C207.99,117.96 208.92,116.1 209.29,115.38C209.44,115.09 209.45,115.07 209.6,114.77C210,113.97 211.17,111.63 211.79,110.35C212.27,109.37 212.66,108.52 213.03,107.73C213.34,107.08 213.53,106.67 213.87,105.94C214.4,104.8 215.35,102.72 215.88,101.53C216.24,100.73 216.46,100.2 216.77,99.5C217.1,98.74 217.41,98.03 217.8,97.11C218.33,95.86 219.16,93.9 219.66,92.7C220,91.88 220.22,91.34 220.51,90.63C220.82,89.87 221.09,89.19 221.45,88.28C221.94,87.04 222.69,85.17 223.19,83.87C223.59,82.84 223.94,81.9 224.24,81.09C224.47,80.47 224.61,80.13 224.86,79.45C225.27,78.34 225.95,76.5 226.48,75.04C227,73.6 227.5,72.18 228.015,70.725C228.54,69.24 229.07,67.71 229.58,66.21C230.08,64.73 230.67,62.98 231.06,61.8C231.33,61 231.49,60.5 231.72,59.8C231.97,59.03 232.2,58.31 232.5,57.38C232.9,56.13 233.44,54.44 233.9,52.97C234.36,51.5 235.03,49.36 235.27,48.56C235.36,48.26 235.36,48.24 235.45,47.95C235.67,47.22 236.21,45.46 236.6,44.14C237.02,42.72 237.47,41.2 237.9,39.73C238.33,38.25 238.76,36.75 239.18,35.275000000000006C239.6,33.81 240,32.36 240.41,30.9C240.82,29.43 241.21,27.97 241.62,26.48C242.03,24.95 242.47,23.36 242.87,21.85C243.25,20.42 243.6,19.08 243.97,17.66C244.35,16.21 244.73,14.71 245.11,13.24C245.48,11.77 245.93,9.97 246.22,8.83C246.4,8.11 246.51,7.71 246.67,7.06C246.87,6.27 247.08,5.41 247.32,4.41Q247.63,3.13 248.39,0" style="stroke-miterlimit: 1; vector-effect: non-scaling-stroke; fill: none; stroke: rgb(161, 112, 59); stroke-opacity: 1; stroke-width: 2px;"/><path class="openline" d="M370,143.64Q367.35,144.53 366.26,144.9C365.42,145.19 364.69,145.44 364.02,145.67C363.47,145.86 363.14,145.98 362.53,146.19C361.56,146.53 360.04,147.07 358.79,147.51C357.54,147.95 356.28,148.4 355.05,148.85C353.85,149.28 352.71,149.7 351.5,150.15C350.22,150.62 348.87,151.13 347.58,151.62C346.32,152.1 345.08,152.57 343.84,153.05C342.6,153.53 341.37,154.01 340.13,154.505C338.88,155 337.61,155.51 336.36,156.02C335.11,156.53 333.83,157.05 332.63,157.55C331.51,158.01 330.01,158.65 329.4,158.91C329.16,159.01 329.14,159.02 328.89,159.13C328.22,159.42 326.4,160.2 325.15,160.74C323.9,161.29 322.47,161.93 321.41,162.4C320.63,162.75 320.02,163.02 319.37,163.32C318.78,163.59 318.35,163.79 317.68,164.1C316.68,164.57 315.19,165.25 313.94,165.85C312.67,166.45 311.38,167.08 310.12,167.7C308.89,168.3 307.68,168.89 306.46,169.51C305.22,170.14 303.67,170.94 302.73,171.43C302.15,171.73 301.86,171.88 301.34,172.15C300.66,172.51 299.86,172.93 298.99,173.4C297.89,174 296.3,174.87 295.25,175.45C294.48,175.88 293.9,176.21 293.26,176.57C292.66,176.91 292.21,177.16 291.52,177.56C290.51,178.15 288.83,179.13 287.78,179.76C287,180.22 286.41,180.59 285.76,180.98C285.16,181.34 284.72,181.61 284.04,182.03C283.03,182.66 281.27,183.78 280.3,184.4C279.68,184.8 279.33,185.03 278.78,185.39C278.11,185.83 277.4,186.3 276.57,186.86C275.48,187.6 273.51,188.97 272.83,189.44C272.58,189.62 272.56,189.63 272.31,189.81C271.69,190.25 270.12,191.35 269.09,192.11C268.11,192.82 266.95,193.7 266.27,194.22C265.88,194.52 265.76,194.6 265.35,194.92C264.52,195.56 262.46,197.18 261.62,197.85C261.19,198.19 261.06,198.31 260.65,198.64C259.96,199.2 258.77,200.16 257.88,200.91C257.02,201.63 256.08,202.45 255.39,203.05C254.9,203.47 254.66,203.67 254.14,204.14C253.23,204.95 251.67,206.36 250.44,207.5C249.18,208.67 247.47,210.3 246.67,211.07C246.29,211.43 246.21,211.53 245.85,211.88C245.18,212.55 243.73,213.97 242.93,214.78C242.36,215.36 242.02,215.73 241.48,216.29C240.8,217 239.91,217.91 239.19,218.68C238.54,219.38 237.96,220.03 237.34,220.71C236.71,221.4 236.09,222.07 235.45,222.78C234.78,223.53 234.06,224.38 233.41,225.12C232.82,225.8 232.31,226.37 231.72,227.06C231.06,227.83 230.3,228.76 229.65,229.54C229.06,230.24 228.55,230.84 227.98,231.54C227.36,232.3 226.68,233.16 226.05,233.95C225.44,234.71 224.83,235.45 224.24,236.2C223.67,236.92 223.16,237.6 222.58,238.36C221.93,239.21 221.12,240.24 220.51,241.04C220.03,241.68 219.72,242.11 219.22,242.78C218.53,243.7 217.37,245.24 216.77,246.05C216.42,246.53 216.31,246.69 215.95,247.19C215.26,248.15 213.93,249.98 212.9,251.42000000000002C211.83,252.92 210.19,255.27 209.65,256.02C209.47,256.27 209.46,256.27 209.29,256.51C208.8,257.19 207.27,259.44 206.58,260.43C206.16,261.04 205.95,261.32 205.56,261.89C205,262.7 204.21,263.9 203.56,264.85C202.96,265.73 202.35,266.6 201.82,267.38C201.37,268.05 201.07,268.53 200.58,269.26C199.89,270.29 198.58,272.2 198.08,272.96C197.86,273.29 197.84,273.34 197.62,273.68C197.05,274.56 195.52,276.82 194.51,278.33C193.56,279.76 192.46,281.43 191.74,282.51C191.28,283.19 191.03,283.55 190.61,284.17C190.08,284.97 189.42,285.99 188.81,286.92C188.18,287.87 187.41,288.99 186.87,289.8C186.48,290.39 186.3,290.69 185.88,291.33C185.18,292.4 184,294.15 183.03,295.595C182.03,297.09 180.6,299.25 179.98,300.16C179.71,300.55 179.65,300.62 179.39,301C178.86,301.78 177.69,303.57 177,304.58C176.49,305.32 176.13,305.82 175.66,306.51C175.13,307.28 174.59,308.13 174,308.99C173.35,309.94 172.48,311.15 171.92,311.97C171.54,312.53 171.38,312.8 170.97,313.4C170.26,314.44 169.05,316.15 168.035,317.605C166.94,319.17 165.72,320.9 164.615,322.46000000000004C163.59,323.91 162.36,325.67 161.64,326.65C161.25,327.19 161.08,327.38 160.71,327.89C160.12,328.7 159.12,330.13 158.44,331.06C157.9,331.79 157.48,332.32 156.97,333.01C156.4,333.78 155.8,334.65 155.19,335.47C154.56,336.32 153.82,337.24 153.23,338.03C152.73,338.7 152.39,339.2 151.87,339.89C151.19,340.79 150.11,342.13 149.49,342.95C149.08,343.49 148.91,343.75 148.49,344.3C147.81,345.19 146.37,346.97 145.76,347.77C145.44,348.18 145.37,348.3 145.05,348.72C144.4,349.56 142.6,351.74 142.02,352.48C141.78,352.78 141.76,352.82 141.52,353.13C140.89,353.92 139.27,355.9 138.1,357.315C136.89,358.78 135.64,360.29 134.39,361.76C133.15,363.23 131.87,364.72 130.63,366.15C129.43,367.53 127.71,369.44 127.07,370.19C126.82,370.48 126.81,370.51 126.57,370.79C125.97,371.48 124.03,373.56 123.33,374.34C122.99,374.72 122.92,374.83 122.58,375.2C121.92,375.93 120.35,377.56 119.6,378.38C119.13,378.89 118.94,379.13 118.48,379.62C117.79,380.35 116.62,381.51 115.86,382.31C115.25,382.94 114.83,383.43 114.25,384.03C113.6,384.7 112.83,385.42 112.12,386.14C111.38,386.89 110.57,387.77 109.89,388.44C109.34,388.98 108.97,389.3 108.38,389.87C107.54,390.68 106.02,392.23 105.36,392.86C105.05,393.16 104.98,393.2 104.65,393.51C103.88,394.23 102.06,395.97 100.78999999999999,397.15C99.57,398.28 98.08,399.59 97.17,400.43C96.61,400.94 96.36,401.23 95.84,401.69C95.16,402.3 94.25,403.04 93.43,403.75C92.57,404.5 91.48,405.51 90.79,406.1C90.35,406.47 90.17,406.59 89.7,406.98C88.82,407.7 86.6,409.57 85.96,410.12C85.74,410.31 85.73,410.33 85.51,410.52C84.92,411.01 83.2,412.34 82.22,413.13C81.41,413.78 80.7,414.4 80.03,414.93C79.47,415.36 79.11,415.61 78.48,416.08C77.5,416.82 75.42,418.41 74.75,418.93C74.5,419.13 74.48,419.15 74.23,419.34C73.62,419.8 72.05,420.91 71.01,421.67C70.03,422.38 68.85,423.28 68.16,423.76C67.78,424.02 67.67,424.08 67.27,424.35C66.45,424.9 64.56,426.21 63.54,426.92C62.83,427.41 62.36,427.76 61.75,428.17C61.12,428.59 60.55,428.93 59.8,429.41C58.75,430.08 56.95,431.23 56.06,431.81C55.56,432.14 55.37,432.29 54.9,432.59C54.21,433.03 53.26,433.58 52.32,434.14C51.19,434.81 49.44,435.84 48.59,436.36Q48.14,436.63 47.56,437" style="stroke-miterlimit: 1; vector-effect: non-scaling-stroke; fill: none; stroke: rgb(161, 112, 59); stroke-opacity: 1; stroke-width: 2px;"/></g><g class="contourlevel"><path class="openline" d="M0,386.22Q0.64,384.89 1.05,384.03C1.63,382.82 2.64,380.66 3.13,379.62C3.4,379.05 3.48,378.82 3.74,378.29C4.14,377.47 4.75,376.32 5.32,375.2C5.99,373.88 6.76,372.33 7.52,370.875C8.3,369.38 9.27,367.64 9.95,366.37C10.44,365.45 10.78,364.75 11.21,363.99C11.61,363.28 11.95,362.77 12.42,361.96C13.11,360.77 14.09,359.02 14.955,357.555C15.83,356.08 16.96,354.27 17.65,353.13C18.08,352.41 18.29,352.01 18.69,351.37C19.19,350.57 19.84,349.64 20.44,348.72C21.09,347.72 21.88,346.38 22.42,345.57C22.77,345.05 22.94,344.85 23.32,344.3C24.02,343.29 25.23,341.43 26.23,339.98C27.26,338.49 28.86,336.31 29.44,335.47C29.67,335.15 29.68,335.1 29.9,334.79C30.43,334.04 32.02,331.99 32.7,331.06C33.1,330.51 33.25,330.27 33.64,329.75C34.26,328.93 35.41,327.53 36.09,326.65C36.59,326 36.87,325.57 37.37,324.94C38.01,324.13 38.95,323.06 39.62,322.23C40.17,321.55 40.56,321.01 41.11,320.34C41.76,319.55 42.64,318.61 43.3,317.82C43.87,317.15 44.28,316.59 44.85,315.92C45.53,315.13 46.45,314.16 47.12,313.4C47.67,312.78 48.03,312.32 48.59,311.69C49.31,310.89 50.44,309.74 51.12,308.99C51.6,308.46 51.82,308.17 52.32,307.63C53.08,306.81 54.63,305.29 55.29,304.58C55.63,304.21 55.7,304.11 56.06,303.73C56.82,302.93 58.48,301.29 59.715,300.07500000000005C60.97,298.84 62.77,297.08 63.54,296.37C63.86,296.07 63.93,296.04 64.24,295.75C64.9,295.15 66.38,293.7 67.27,292.9C67.94,292.29 68.47,291.87 69.08,291.33C69.72,290.76 70.28,290.21 71.01,289.57C71.92,288.77 73.5,287.47 74.14,286.92C74.42,286.67 74.46,286.63 74.75,286.38C75.46,285.77 77.61,284 78.48,283.31C78.94,282.95 79.12,282.85 79.55,282.51C80.24,281.97 81.29,281.08 82.22,280.36C83.2,279.6 84.63,278.59 85.28,278.09C85.59,277.85 85.64,277.79 85.96,277.55C86.7,276.99 88.68,275.57 89.7,274.86C90.4,274.38 90.88,274.09 91.48,273.68C92.12,273.24 92.67,272.82 93.43,272.3C94.47,271.59 96.31,270.39 97.17,269.86C97.61,269.59 97.77,269.51 98.19,269.26C98.88,268.84 99.93,268.15 100.91,267.56C102.05,266.87 103.79,265.87 104.65,265.39C105.1,265.14 105.26,265.08 105.69,264.85C106.38,264.48 107.4,263.88 108.38,263.36C109.52,262.76 111.02,262.01 112.12,261.48C112.98,261.07 113.76,260.74 114.44,260.43C114.97,260.18 115.27,260.02 115.86,259.76C116.81,259.34 118.35,258.71 119.6,258.22C120.84,257.74 122.17,257.24 123.33,256.86C124.33,256.53 125.45,256.23 126.13,256.02C126.53,255.9 126.65,255.84 127.07,255.72C127.9,255.49 129.56,255.1 130.81,254.86C132.05,254.62 133.3,254.42 134.55,254.3C135.79,254.18 137.04,254.11 138.28,254.14C139.53,254.17 140.78,254.26 142.02,254.5C143.28,254.74 144.99,255.3 145.76,255.61C146.13,255.76 146.21,255.81 146.54,256.02C147.22,256.44 148.65,257.36 149.49,258.13C150.26,258.84 150.86,259.54 151.45,260.43C152.12,261.44 152.88,263.12 153.23,263.92C153.41,264.32 153.45,264.42 153.58,264.85C153.85,265.77 154.31,267.78 154.52,269.26C154.72,270.73 154.79,272.21 154.82,273.68C154.85,275.15 154.79,276.62 154.69,278.09C154.59,279.56 154.42,281.04 154.22,282.51C154.02,283.98 153.69,285.94 153.49,286.92C153.39,287.41 153.34,287.56 153.23,288.03C153.05,288.84 152.8,290.15 152.52,291.33C152.19,292.7 151.78,294.28 151.37,295.75C150.96,297.22 150.43,299.04 150.07,300.16C149.85,300.85 149.7,301.2 149.49,301.83C149.22,302.63 148.96,303.56 148.61,304.58C148.17,305.88 147.53,307.64 147.02,308.99C146.58,310.14 146.07,311.37 145.76,312.18C145.57,312.68 145.51,312.87 145.3,313.4C144.9,314.42 144.04,316.47 143.46,317.82C142.96,318.98 142.38,320.22 142.02,321.03C141.8,321.53 141.74,321.71 141.51,322.23C141.06,323.24 140.05,325.42 139.45,326.65C139.01,327.55 138.65,328.21 138.28,328.96C137.93,329.67 137.69,330.24 137.28,331.06C136.68,332.26 135.47,334.59 135,335.47C134.8,335.85 134.75,335.91 134.55,336.28C134.13,337.05 133.26,338.73 132.62,339.89C132.01,340.98 131.27,342.23 130.81,343.05C130.53,343.56 130.44,343.76 130.13,344.3C129.55,345.33 128.05,347.88 127.53,348.72C127.32,349.06 127.28,349.1 127.07,349.43C126.6,350.18 125.51,352.05 124.83,353.13C124.29,353.99 123.81,354.66 123.33,355.41C122.87,356.13 122.52,356.75 122.01,357.55C121.34,358.6 120.11,360.35 119.6,361.13C119.36,361.5 119.33,361.58 119.07,361.96C118.47,362.87 116.98,364.99 115.935,366.47C114.91,367.93 113.52,369.89 112.84,370.79C112.52,371.21 112.43,371.29 112.12,371.7C111.52,372.48 110.24,374.3 109.54,375.2C109.09,375.79 108.83,376.05 108.38,376.62C107.74,377.43 106.78,378.77 106.1,379.62C105.57,380.28 105.18,380.7 104.65,381.34C104,382.13 103.18,383.23 102.51,384.03C101.95,384.71 101.48,385.19 100.91,385.86C100.25,386.64 99.45,387.67 98.78,388.44C98.21,389.09 97.75,389.55 97.17,390.2C96.47,390.99 95.57,392.11 94.88,392.86C94.35,393.44 93.98,393.78 93.43,394.37C92.68,395.18 91.51,396.54 90.81,397.27C90.37,397.73 90.16,397.91 89.7,398.38C88.91,399.19 87.18,401.06 86.54,401.69C86.27,401.95 86.24,401.97 85.96,402.23C85.24,402.92 83.41,404.8 82.14,406.02C80.91,407.2 79.33,408.64 78.48,409.46C78.01,409.91 77.85,410.11 77.41,410.52C76.73,411.16 75.6,412.1 74.75,412.86C73.96,413.57 73.18,414.34 72.5,414.93C71.96,415.4 71.62,415.64 71.01,416.15C70.04,416.96 68.52,418.29 67.27,419.33C66.03,420.35 64.54,421.51 63.54,422.33C62.85,422.89 62.42,423.29 61.82,423.76C61.18,424.26 60.58,424.66 59.8,425.24C58.73,426.04 57.25,427.18 55.985,428.11C54.76,429.01 53.44,429.92 52.32,430.72C51.38,431.39 50.4,432.12 49.71,432.59C49.26,432.89 49.07,432.99 48.59,433.3C47.71,433.87 45.88,435.07 44.85,435.75Q44.12,436.23 42.99,437" style="stroke-miterlimit: 1; vector-effect: non-scaling-stroke; fill: none; stroke: rgb(180, 134, 64); stroke-opacity: 1; stroke-width: 2px;"/><path class="openline" d="M370,109.76Q367.1,110.14 366.26,110.24C365.84,110.29 365.7,110.3 365.3,110.35C364.62,110.43 363.52,110.58 362.53,110.7C361.38,110.84 360.04,111 358.79,111.15C357.54,111.29 356.3,111.43 355.05,111.57C353.8,111.71 352.56,111.84 351.31,111.97C350.07,112.1 348.82,112.22 347.58,112.34C346.33,112.46 345.09,112.57 343.84,112.68C342.59,112.79 341.35,112.89 340.1,112.98C338.85,113.07 337.61,113.16 336.36,113.24C335.12,113.32 333.87,113.38 332.63,113.44C331.38,113.5 330.14,113.55 328.89,113.59C327.64,113.63 326.4,113.65 325.15,113.66C323.9,113.67 322.66,113.67 321.41,113.65C320.17,113.63 318.92,113.6 317.68,113.54C316.43,113.48 315.19,113.41 313.94,113.31C312.69,113.21 311.44,113.09 310.2,112.94C308.95,112.79 307.7,112.61 306.46,112.39C305.21,112.17 303.99,111.92 302.73,111.61C301.4,111.28 299.97,110.89 298.69,110.455C297.49,110.05 296.41,109.63 295.25,109.11C294.02,108.55 292.54,107.77 291.52,107.17C290.78,106.73 290.27,106.38 289.66,105.94C289.03,105.49 288.46,105.08 287.78,104.49C286.87,103.7 285.4,102.23 284.75,101.53C284.42,101.17 284.34,101.08 284.04,100.69C283.45,99.92 282.2,98.18 281.53,97.11C281.02,96.3 280.68,95.63 280.3,94.89C279.93,94.16 279.63,93.57 279.26,92.7C278.75,91.49 278.08,89.73 277.61,88.28C277.16,86.91 276.82,85.64 276.48,84.225C276.11,82.7 275.78,81.01 275.5,79.45C275.23,77.95 275.03,76.51 274.84,75.04C274.65,73.57 274.51,72.1 274.38,70.63C274.25,69.16 274.15,67.68 274.06,66.21C273.97,64.74 273.91,63.27 273.86,61.8C273.81,60.33 273.79,58.85 273.77,57.38C273.75,55.91 273.75,54.44 273.76,52.97C273.77,51.5 273.8,50.03 273.83,48.56C273.86,47.09 273.9,45.61 273.95,44.14C274,42.67 274.06,41.2 274.12,39.73C274.19,38.26 274.26,36.78 274.34,35.31C274.42,33.84 274.5,32.37 274.59,30.9C274.68,29.43 274.78,27.95 274.88,26.48C274.98,25.01 275.08,23.54 275.19,22.07C275.3,20.6 275.41,19.13 275.53,17.66C275.65,16.19 275.77,14.71 275.89,13.24C276.01,11.77 276.15,10.19 276.27,8.83C276.37,7.66 276.5,6.36 276.57,5.55C276.61,5.07 276.63,4.91 276.67,4.41Q276.76,3.42 277.07,0" style="stroke-miterlimit: 1; vector-effect: non-scaling-stroke; fill: none; stroke: rgb(180, 134, 64); stroke-opacity: 1; stroke-width: 2px;"/></g><g class="contourlevel"><path class="openline" d="M0,390.62Q0.7,389.29 1.14,388.44C1.77,387.23 2.97,384.88 3.39,384.03C3.56,383.69 3.57,383.64 3.74,383.31C4.13,382.55 5.14,380.8 5.78,379.62C6.37,378.53 7,377.29 7.47,376.48C7.78,375.95 7.93,375.76 8.27,375.2C8.89,374.17 10.41,371.59 10.87,370.79C11.04,370.5 11.04,370.47 11.21,370.18C11.65,369.45 12.96,367.46 13.64,366.37C14.15,365.56 14.48,364.95 14.95,364.23C15.44,363.48 15.97,362.79 16.53,361.96C17.2,360.97 18.12,359.49 18.69,358.69C19.03,358.21 19.18,358.05 19.55,357.55C20.26,356.59 21.51,354.75 22.57,353.31C23.69,351.78 24.91,350.18 26.11,348.645C27.31,347.11 28.52,345.6 29.75,344.1C30.98,342.61 32.22,341.14 33.480000000000004,339.69C34.74,338.24 36.01,336.81 37.31,335.4C38.61,333.99 39.98,332.55 41.28,331.21500000000003C42.49,329.97 43.99,328.44 44.85,327.63C45.31,327.19 45.5,327.06 45.94,326.65C46.63,326 47.74,324.87 48.59,324.09C49.33,323.41 50.07,322.82 50.73,322.23C51.3,321.72 51.67,321.33 52.32,320.76C53.28,319.92 54.72,318.73 55.955,317.725C57.21,316.7 58.75,315.46 59.8,314.67C60.5,314.14 60.98,313.85 61.58,313.4C62.22,312.93 62.77,312.46 63.54,311.91C64.58,311.16 66.55,309.82 67.27,309.36C67.56,309.18 67.6,309.17 67.88,308.99C68.52,308.59 69.9,307.66 71.01,306.98C72.25,306.23 73.7,305.41 74.985,304.695C76.18,304.04 77.29,303.44 78.48,302.85C79.7,302.25 81.1,301.59 82.22,301.11C83.1,300.73 83.95,300.44 84.63,300.16C85.14,299.95 85.4,299.81 85.96,299.6C86.89,299.25 88.45,298.73 89.7,298.37C90.94,298.01 92.18,297.7 93.43,297.44C94.67,297.19 95.92,296.97 97.17,296.84C98.41,296.71 99.66,296.64 100.91,296.67C102.16,296.7 103.42,296.8 104.65,297.04C105.91,297.29 107.18,297.63 108.38,298.15C109.63,298.69 110.86,299.29 112.005,300.25C113.36,301.38 114.84,303.17 115.785,304.71500000000003C116.63,306.09 117.11,307.53 117.56,308.99C118.01,310.43 118.29,311.92 118.5,313.4C118.71,314.87 118.78,316.35 118.81,317.82C118.84,319.29 118.78,320.76 118.67,322.23C118.56,323.7 118.39,325.18 118.17,326.65C117.95,328.12 117.68,329.59 117.37,331.06C117.06,332.53 116.62,334.37 116.33,335.47C116.15,336.13 116.03,336.44 115.86,337.04C115.63,337.85 115.38,338.84 115.06,339.89C114.66,341.2 114.1,342.86 113.59,344.3C113.09,345.71 112.58,347.02 112.02000000000001,348.435C111.42,349.95 110.73,351.67 110.09,353.13C109.52,354.44 108.72,356.06 108.38,356.82C108.23,357.16 108.23,357.21 108.07,357.55C107.68,358.4 106.55,360.73 105.91,361.96C105.45,362.86 105.05,363.51 104.65,364.26C104.27,364.98 104.02,365.54 103.57,366.37C102.9,367.6 101.85,369.42 100.985,370.90999999999997C100.14,372.36 99.13,374.07 98.42,375.2C97.94,375.96 97.6,376.4 97.17,377.08C96.67,377.86 96.18,378.74 95.6,379.62C94.95,380.62 93.97,381.92 93.43,382.74C93.08,383.26 92.98,383.48 92.61,384.03C91.93,385.04 90.63,386.81 89.565,388.245C88.44,389.77 87.22,391.39 86.02,392.93C84.83,394.46 83.62,395.97 82.39,397.46C81.16,398.95 79.91,400.42 78.65,401.87C77.39,403.32 76.11,404.75 74.81,406.16C73.51,407.57 72.15,409.02 70.855,410.345C69.64,411.59 68.08,413.07 67.27,413.9C66.84,414.34 66.72,414.52 66.3,414.93C65.62,415.6 64.37,416.68 63.54,417.47C62.83,418.14 62.25,418.76 61.61,419.34C61.01,419.89 60.49,420.29 59.8,420.89C58.87,421.7 57.19,423.24 56.57,423.76C56.33,423.96 56.31,423.96 56.06,424.16C55.39,424.7 53.19,426.5 52.32,427.23C51.85,427.63 51.69,427.81 51.24,428.17C50.56,428.72 49.51,429.47 48.59,430.17C47.59,430.94 46.1,432.13 45.46,432.59C45.18,432.79 45.14,432.8 44.85,433C44.13,433.5 42.14,434.91 41.11,435.65Q40.39,436.17 39.27,437" style="stroke-miterlimit: 1; vector-effect: non-scaling-stroke; fill: none; stroke: rgb(195, 161, 78); stroke-opacity: 1; stroke-width: 2px;"/><path class="openline" d="M370,77.26Q367.5,76.89 366.26,76.68C365.01,76.47 363.77,76.24 362.53,75.99C361.28,75.74 359.5,75.34 358.79,75.18C358.51,75.12 358.47,75.11 358.2,75.04C357.57,74.88 356.14,74.54 355.05,74.24C353.85,73.91 352.55,73.54 351.31,73.14C350.06,72.74 348.76,72.29 347.58,71.85C346.49,71.45 345.12,70.9 344.48,70.63C344.19,70.51 344.14,70.49 343.84,70.35C343.11,70.02 341.36,69.23 340.1,68.59C338.78,67.91 337.38,67.14 336.11,66.365C334.9,65.63 333.73,64.84 332.63,64.06C331.6,63.32 330.37,62.34 329.7,61.8C329.34,61.51 329.25,61.44 328.89,61.12C328.08,60.39 326.3,58.78 325.07,57.47C323.78,56.1 322.49,54.57 321.34000000000003,53.065C320.22,51.6 318.86,49.51 318.25,48.56C317.97,48.13 317.92,48.02 317.68,47.6C317.23,46.81 316.39,45.35 315.77,44.14C315.1,42.84 314.43,41.45 313.81,40.025C313.15,38.52 312.5,36.86 311.93,35.31C311.38,33.82 310.71,31.76 310.43,30.9C310.32,30.54 310.3,30.49 310.2,30.14C309.98,29.38 309.5,27.76 309.16,26.48C308.79,25.08 308.42,23.54 308.08,22.07C307.74,20.6 307.42,19.07 307.14,17.66C306.88,16.37 306.59,14.68 306.46,13.93C306.4,13.61 306.39,13.57 306.34,13.24C306.2,12.41 305.87,10.3 305.66,8.83C305.45,7.36 305.26,5.88 305.08,4.41Q304.9,2.94 304.58,0" style="stroke-miterlimit: 1; vector-effect: non-scaling-stroke; fill: none; stroke: rgb(195, 161, 78); stroke-opacity: 1; stroke-width: 2px;"/></g><g class="contourlevel"><path class="openline" d="M0,394.32Q0.49,393.48 0.84,392.86C1.44,391.79 2.74,389.37 3.24,388.44C3.47,388.01 3.51,387.9 3.74,387.49C4.19,386.69 5.17,385.13 5.82,384.03C6.41,383.03 6.97,381.97 7.47,381.17C7.85,380.57 8.1,380.27 8.53,379.62C9.24,378.55 10.32,376.75 11.285,375.29999999999995C12.28,373.8 13.8,371.7 14.41,370.79C14.67,370.41 14.69,370.33 14.95,369.96C15.5,369.18 16.97,367.31 17.65,366.37C18.08,365.78 18.26,365.47 18.69,364.9C19.31,364.08 20.41,362.82 21.09,361.96C21.61,361.3 21.9,360.83 22.42,360.19C23.07,359.39 24.07,358.35 24.74,357.55C25.28,356.91 25.61,356.43 26.16,355.8C26.86,354.99 27.97,353.89 28.65,353.13C29.14,352.58 29.38,352.25 29.9,351.69C30.66,350.87 32.18,349.42 32.85,348.72C33.2,348.35 33.27,348.24 33.64,347.86C34.42,347.07 36.12,345.46 37.37,344.3C38.61,343.16 40.16,341.74 41.11,340.95C41.67,340.49 41.96,340.31 42.47,339.89C43.16,339.33 43.99,338.55 44.85,337.86C45.82,337.08 47.42,335.95 48.04,335.47C48.3,335.27 48.32,335.23 48.59,335.03C49.28,334.52 51.22,333.13 52.32,332.42C53.15,331.88 53.9,331.48 54.57,331.06C55.12,330.71 55.44,330.46 56.06,330.08C57.02,329.5 58.64,328.58 59.8,327.98C60.79,327.47 61.91,326.99 62.59,326.65C62.99,326.45 63.11,326.35 63.54,326.15C64.37,325.76 66.02,325.07 67.27,324.61C68.51,324.15 69.76,323.74 71.01,323.39C72.25,323.05 73.62,322.73 74.75,322.53C75.67,322.37 76.6,322.31 77.29,322.23C77.76,322.17 77.97,322.11 78.48,322.08C79.41,322.03 81.17,322.04 82.445,322.19C83.66,322.33 84.79,322.53 85.96,322.93C87.21,323.35 88.64,324.04 89.7,324.72C90.61,325.3 91.38,326 92.03,326.65C92.58,327.2 92.97,327.66 93.43,328.3C93.99,329.08 94.58,330 95.07,331.06C95.66,332.33 96.22,334.01 96.58,335.47C96.92,336.86 97.08,338.2 97.205,339.625C97.33,341.13 97.34,343.2 97.3,344.3C97.28,344.91 97.22,345.15 97.17,345.71C97.1,346.53 97.06,347.62 96.92,348.72C96.75,350.05 96.48,351.66 96.19,353.13C95.89,354.61 95.54,356.08 95.15,357.55C94.76,359.03 94.18,360.98 93.85,361.96C93.68,362.46 93.6,362.61 93.43,363.08C93.14,363.89 92.74,365.2 92.31,366.37C91.8,367.74 91.03,369.66 90.53,370.79C90.21,371.52 89.99,371.9 89.7,372.55C89.34,373.34 89,374.21 88.54,375.2C87.93,376.49 86.77,378.81 86.33,379.62C86.16,379.93 86.13,379.96 85.96,380.26C85.55,380.99 84.6,382.87 83.94,384.03C83.36,385.04 82.7,386.03 82.22,386.84C81.87,387.44 81.72,387.78 81.32,388.44C80.65,389.55 79.45,391.39 78.48,392.86C77.5,394.34 76.14,396.35 75.47,397.27C75.16,397.7 75.06,397.79 74.75,398.2C74.16,398.99 72.93,400.78 72.23,401.69C71.76,402.29 71.47,402.58 71.01,403.16C70.37,403.97 69.44,405.27 68.75,406.1C68.22,406.75 67.81,407.15 67.27,407.78C66.59,408.58 65.71,409.74 65.03,410.52C64.49,411.13 64.09,411.49 63.54,412.1C62.81,412.9 61.75,414.19 61.05,414.93C60.57,415.43 60.3,415.64 59.8,416.15C59,416.96 57.42,418.69 56.76,419.34C56.45,419.64 56.38,419.68 56.06,419.98C55.29,420.7 53.51,422.49 52.239999999999995,423.66999999999996C51.02,424.8 49.5,426.1 48.59,426.93C48.04,427.44 47.79,427.72 47.27,428.17C46.59,428.76 45.69,429.43 44.85,430.12C43.92,430.89 42.6,432.06 41.92,432.59C41.57,432.86 41.48,432.9 41.11,433.17C40.32,433.76 38.28,435.3 37.37,436.01Q36.85,436.42 36.14,437" style="stroke-miterlimit: 1; vector-effect: non-scaling-stroke; fill: none; stroke: rgb(207, 188, 102); stroke-opacity: 1; stroke-width: 2px;"/><path class="openline" d="M370,45.66Q367.76,44.5 367.09,44.14C366.73,43.95 366.63,43.9 366.26,43.69C365.46,43.23 363.65,42.16 362.53,41.45C361.58,40.85 360.64,40.2 359.95,39.73C359.48,39.41 359.28,39.28 358.79,38.91C357.89,38.24 355.83,36.63 355.05,35.99C354.68,35.69 354.6,35.62 354.25,35.31C353.57,34.72 352.15,33.44 351.31,32.63C350.65,32 350.18,31.52 349.59,30.9C348.94,30.22 348.23,29.46 347.58,28.72C346.93,27.99 346.31,27.24 345.69,26.48C345.06,25.71 344.41,24.88 343.84,24.11C343.31,23.41 342.9,22.85 342.37,22.07C341.68,21.07 340.6,19.39 340.1,18.6C339.84,18.19 339.78,18.09 339.53,17.66C338.99,16.73 337.63,14.3 337.06,13.24C336.75,12.66 336.63,12.42 336.36,11.87C335.96,11.06 335.41,9.94 334.9,8.83C334.3,7.5 333.4,5.36 333.01,4.41C332.83,3.97 332.79,3.86 332.63,3.43Q332.33,2.63 331.34,0" style="stroke-miterlimit: 1; vector-effect: non-scaling-stroke; fill: none; stroke: rgb(207, 188, 102); stroke-opacity: 1; stroke-width: 2px;"/></g><g class="contourlevel"><path class="openline" d="M0,397.55Q2.06,394.06 2.74,392.86C3.16,392.12 3.35,391.72 3.74,391.07C4.23,390.27 4.89,389.37 5.48,388.44C6.13,387.43 6.92,386.02 7.47,385.22C7.81,384.72 7.98,384.55 8.36,384.03C9.07,383.05 10.28,381.2 11.325,379.755C12.44,378.22 13.65,376.6 14.855,375.065C16.05,373.54 17.27,372.04 18.520000000000003,370.565C19.76,369.1 21.02,367.65 22.315,366.24C23.61,364.83 24.99,363.39 26.3,362.08C27.52,360.85 29,359.4 29.9,358.59C30.42,358.13 30.68,357.97 31.16,357.55C31.85,356.95 32.78,356.01 33.64,355.28C34.52,354.54 35.71,353.69 36.39,353.13C36.8,352.79 36.93,352.64 37.37,352.29C38.21,351.63 40.15,350.21 41.11,349.57C41.68,349.19 41.99,349.05 42.51,348.72C43.2,348.28 43.97,347.69 44.85,347.14C45.94,346.47 47.6,345.54 48.59,345.03C49.22,344.71 49.61,344.57 50.17,344.3C50.83,343.98 51.49,343.59 52.32,343.22C53.39,342.75 54.8,342.19 56.06,341.76C57.3,341.34 58.55,340.97 59.8,340.68C61.04,340.4 62.29,340.16 63.54,340.04C64.78,339.92 66.03,339.85 67.27,339.93C68.52,340.01 69.79,340.17 71.01,340.53C72.28,340.9 73.65,341.49 74.75,342.16C75.75,342.77 76.72,343.65 77.39,344.3C77.86,344.76 78.1,345.05 78.48,345.59C79.04,346.39 79.79,347.56 80.3,348.72C80.88,350.04 81.36,351.64 81.68,353.13C81.99,354.59 82.12,356.08 82.19,357.55C82.26,359.02 82.21,360.49 82.1,361.96C81.99,363.43 81.79,364.9 81.55,366.37C81.31,367.85 81,369.32 80.64,370.79C80.28,372.27 79.81,373.94 79.4,375.2C79.09,376.17 78.75,376.96 78.48,377.75C78.25,378.42 78.14,378.87 77.87,379.62C77.44,380.79 76.65,382.74 76.08,384.03C75.62,385.07 75.12,385.99 74.75,386.8C74.47,387.42 74.35,387.77 74.03,388.44C73.49,389.56 72.29,391.87 71.73,392.86C71.43,393.38 71.3,393.53 71.01,394.02C70.53,394.83 69.82,396.23 69.19,397.27C68.58,398.28 67.78,399.38 67.27,400.2C66.91,400.77 66.78,401.08 66.39,401.69C65.71,402.75 64.48,404.49 63.435,405.935C62.32,407.47 61.11,409.11 59.91,410.645C58.72,412.17 57.5,413.66 56.25,415.13C55.01,416.6 53.74,418.04 52.44,419.455C51.14,420.87 49.78,422.31 48.475,423.625C47.25,424.86 45.68,426.29 44.85,427.12C44.4,427.57 44.27,427.76 43.84,428.17C43.16,428.81 41.97,429.76 41.11,430.53C40.33,431.23 39.57,432.01 38.89,432.59C38.35,433.05 37.99,433.27 37.37,433.76Q36.35,434.57 33.4,437" style="stroke-miterlimit: 1; vector-effect: non-scaling-stroke; fill: none; stroke: rgb(219, 216, 134); stroke-opacity: 1; stroke-width: 2px;"/><path class="openline" d="M370,14.57Q369.14,13.75 368.62,13.24C367.93,12.56 366.99,11.61 366.26,10.84C365.61,10.15 365.05,9.53 364.44,8.83C363.8,8.1 363.14,7.31 362.53,6.56C361.94,5.84 361.42,5.18 360.83,4.41C360.17,3.55 359.36,2.45 358.79,1.64Q358.35,1.03 357.66,0" style="stroke-miterlimit: 1; vector-effect: non-scaling-stroke; fill: none; stroke: rgb(219, 216, 134); stroke-opacity: 1; stroke-width: 2px;"/></g><g class="contourlevel"><path class="openline" d="M0,400.25Q1.29,398.27 1.91,397.27C2.53,396.27 3.2,395.04 3.74,394.24C4.11,393.68 4.33,393.45 4.75,392.86C5.47,391.84 6.6,390.06 7.63,388.63C8.73,387.1 9.95,385.48 11.15,383.945C12.35,382.42 13.57,380.92 14.83,379.46000000000004C16.08,378 17.38,376.55 18.67,375.18C19.91,373.85 21.67,372.05 22.42,371.35C22.72,371.07 22.79,371.06 23.09,370.79C23.75,370.21 25.24,368.69 26.16,367.89C26.86,367.28 27.46,366.89 28.09,366.37C28.71,365.86 29.17,365.37 29.9,364.79C30.92,363.97 32.45,362.89 33.72,362.01C34.94,361.17 36.13,360.36 37.37,359.61C38.59,358.87 39.85,358.18 41.11,357.55C42.35,356.93 43.59,356.34 44.85,355.83C46.08,355.33 47.33,354.89 48.59,354.53C49.82,354.18 51.07,353.88 52.32,353.69C53.56,353.5 54.81,353.37 56.06,353.39C57.31,353.41 58.57,353.51 59.8,353.81C61.07,354.12 62.42,354.63 63.54,355.28C64.61,355.9 65.75,356.91 66.41,357.55C66.81,357.93 66.95,358.11 67.27,358.57C67.82,359.35 68.67,360.72 69.19,361.96C69.75,363.3 70.16,364.89 70.43,366.37C70.69,367.83 70.77,369.32 70.79,370.79C70.81,372.26 70.7,373.73 70.54,375.2C70.38,376.68 70.13,378.15 69.83,379.62C69.53,381.1 69.15,382.57 68.73,384.03C68.3,385.51 67.8,386.98 67.27,388.44C66.73,389.92 66.16,391.41 65.53,392.86C64.9,394.32 64.21,395.73 63.495000000000005,397.17499999999995C62.75,398.67 61.84,400.48 61.14,401.69C60.65,402.54 60.23,403.09 59.8,403.82C59.36,404.56 59.03,405.26 58.51,406.1C57.84,407.18 56.55,408.96 56.06,409.73C55.83,410.08 55.83,410.16 55.59,410.52C55,411.41 53.47,413.48 52.34,414.95000000000005C51.18,416.46 49.96,418 48.725,419.485C47.49,420.96 46.22,422.41 44.925,423.83C43.63,425.25 42.26,426.68 40.95,427.985C39.74,429.19 38.23,430.54 37.37,431.39C36.87,431.89 36.69,432.15 36.21,432.59C35.53,433.22 34.49,434.01 33.64,434.74Q32.79,435.48 31.11,437" style="stroke-miterlimit: 1; vector-effect: non-scaling-stroke; fill: none; stroke: rgb(232, 245, 171); stroke-opacity: 1; stroke-width: 2px;"/></g></g></g></g></g><g class="overplot"/><path class="xlines-above crisp" d="" style="fill: none; stroke-width: 1px; stroke: rgb(0, 0, 0); stroke-opacity: 0;"/><path class="ylines-above crisp" d="" style="fill: none; stroke-width: 1px; stroke: rgb(0, 0, 0); stroke-opacity: 0;"/><g class="overlines-above"/><g class="xaxislayer-above"><path class="xtick ticks crisp" d="M0,478v5" transform="translate(89.67,0)" style="stroke: rgb(51, 51, 51); stroke-opacity: 1; stroke-width: 1px;"/><path class="xtick ticks crisp" d="M0,478v5" transform="translate(171.89,0)" style="stroke: rgb(51, 51, 51); stroke-opacity: 1; stroke-width: 1px;"/><path class="xtick ticks crisp" d="M0,478v5" transform="translate(254.11,0)" style="stroke: rgb(51, 51, 51); stroke-opacity: 1; stroke-width: 1px;"/><path class="xtick ticks crisp" d="M0,478v5" transform="translate(336.33,0)" style="stroke: rgb(51, 51, 51); stroke-opacity: 1; stroke-width: 1px;"/><g class="xtick"><text text-anchor="middle" x="0" y="497.4" transform="translate(89.67,0)" style="font-family: 'Open Sans', verdana, arial, sans-serif; font-size: 12px; fill: rgb(51, 51, 51); fill-opacity: 1; white-space: pre; opacity: 1;">0.2</text></g><g class="xtick"><text text-anchor="middle" x="0" y="497.4" style="font-family: 'Open Sans', verdana, arial, sans-serif; font-size: 12px; fill: rgb(51, 51, 51); fill-opacity: 1; white-space: pre; opacity: 1;" transform="translate(171.89,0)">0.4</text></g><g class="xtick"><text text-anchor="middle" x="0" y="497.4" style="font-family: 'Open Sans', verdana, arial, sans-serif; font-size: 12px; fill: rgb(51, 51, 51); fill-opacity: 1; white-space: pre; opacity: 1;" transform="translate(254.11,0)">0.6</text></g><g class="xtick"><text text-anchor="middle" x="0" y="497.4" style="font-family: 'Open Sans', verdana, arial, sans-serif; font-size: 12px; fill: rgb(51, 51, 51); fill-opacity: 1; white-space: pre; opacity: 1;" transform="translate(336.33,0)">0.8</text></g></g><g class="yaxislayer-above"><path class="ytick ticks crisp" d="M27,0h-5" transform="translate(0,452.72)" style="stroke: rgb(51, 51, 51); stroke-opacity: 1; stroke-width: 1px;"/><path class="ytick ticks crisp" d="M27,0h-5" transform="translate(0,404.17)" style="stroke: rgb(51, 51, 51); stroke-opacity: 1; stroke-width: 1px;"/><path class="ytick ticks crisp" d="M27,0h-5" transform="translate(0,355.61)" style="stroke: rgb(51, 51, 51); stroke-opacity: 1; stroke-width: 1px;"/><path class="ytick ticks crisp" d="M27,0h-5" transform="translate(0,307.06)" style="stroke: rgb(51, 51, 51); stroke-opacity: 1; stroke-width: 1px;"/><path class="ytick ticks crisp" d="M27,0h-5" transform="translate(0,258.5)" style="stroke: rgb(51, 51, 51); stroke-opacity: 1; stroke-width: 1px;"/><path class="ytick ticks crisp" d="M27,0h-5" transform="translate(0,209.94)" style="stroke: rgb(51, 51, 51); stroke-opacity: 1; stroke-width: 1px;"/><path class="ytick ticks crisp" d="M27,0h-5" transform="translate(0,161.39)" style="stroke: rgb(51, 51, 51); stroke-opacity: 1; stroke-width: 1px;"/><path class="ytick ticks crisp" d="M27,0h-5" transform="translate(0,112.83)" style="stroke: rgb(51, 51, 51); stroke-opacity: 1; stroke-width: 1px;"/><path class="ytick ticks crisp" d="M27,0h-5" transform="translate(0,64.28)" style="stroke: rgb(51, 51, 51); stroke-opacity: 1; stroke-width: 1px;"/><g class="ytick"><text text-anchor="end" x="19.6" y="4.199999999999999" transform="translate(0,452.72)" style="font-family: 'Open Sans', verdana, arial, sans-serif; font-size: 12px; fill: rgb(51, 51, 51); fill-opacity: 1; white-space: pre; opacity: 1;">0.1</text></g><g class="ytick"><text text-anchor="end" x="19.6" y="4.199999999999999" style="font-family: 'Open Sans', verdana, arial, sans-serif; font-size: 12px; fill: rgb(51, 51, 51); fill-opacity: 1; white-space: pre; opacity: 1;" transform="translate(0,404.17)">0.2</text></g><g class="ytick"><text text-anchor="end" x="19.6" y="4.199999999999999" style="font-family: 'Open Sans', verdana, arial, sans-serif; font-size: 12px; fill: rgb(51, 51, 51); fill-opacity: 1; white-space: pre; opacity: 1;" transform="translate(0,355.61)">0.3</text></g><g class="ytick"><text text-anchor="end" x="19.6" y="4.199999999999999" style="font-family: 'Open Sans', verdana, arial, sans-serif; font-size: 12px; fill: rgb(51, 51, 51); fill-opacity: 1; white-space: pre; opacity: 1;" transform="translate(0,307.06)">0.4</text></g><g class="ytick"><text text-anchor="end" x="19.6" y="4.199999999999999" style="font-family: 'Open Sans', verdana, arial, sans-serif; font-size: 12px; fill: rgb(51, 51, 51); fill-opacity: 1; white-space: pre; opacity: 1;" transform="translate(0,258.5)">0.5</text></g><g class="ytick"><text text-anchor="end" x="19.6" y="4.199999999999999" style="font-family: 'Open Sans', verdana, arial, sans-serif; font-size: 12px; fill: rgb(51, 51, 51); fill-opacity: 1; white-space: pre; opacity: 1;" transform="translate(0,209.94)">0.6</text></g><g class="ytick"><text text-anchor="end" x="19.6" y="4.199999999999999" style="font-family: 'Open Sans', verdana, arial, sans-serif; font-size: 12px; fill: rgb(51, 51, 51); fill-opacity: 1; white-space: pre; opacity: 1;" transform="translate(0,161.39)">0.7</text></g><g class="ytick"><text text-anchor="end" x="19.6" y="4.199999999999999" style="font-family: 'Open Sans', verdana, arial, sans-serif; font-size: 12px; fill: rgb(51, 51, 51); fill-opacity: 1; white-space: pre; opacity: 1;" transform="translate(0,112.83)">0.8</text></g><g class="ytick"><text text-anchor="end" x="19.6" y="4.199999999999999" style="font-family: 'Open Sans', verdana, arial, sans-serif; font-size: 12px; fill: rgb(51, 51, 51); fill-opacity: 1; white-space: pre; opacity: 1;" transform="translate(0,64.28)">0.9</text></g></g><g class="overaxes-above"/></g></g><g class="polarlayer"/><g class="ternarylayer"/><g class="geolayer"/><g class="funnelarealayer"/><g class="pielayer"/><g class="iciclelayer"/><g class="treemaplayer"/><g class="sunburstlayer"/><g class="glimages"/><defs id="topdefs-54fde6"><g class="clips"/></defs><g class="layer-above"><g class="imagelayer"/><g class="shapelayer"/></g><g class="infolayer"><g class="cb6c9374 colorbar" transform="translate(28,40)"><rect class="cbbg" x="377" y="0" width="94.65625" height="437" style="fill: rgb(0, 0, 0); fill-opacity: 0; stroke: rgb(68, 68, 68); stroke-opacity: 1; stroke-width: 0;"/><g class="cbfills" transform="translate(0,10)"/><g class="cblines" transform="translate(0,10)"><path class="cbline" d="M387,417h30" style="fill: none; stroke: rgb(34, 30, 27); stroke-opacity: 1; stroke-width: 2px;"/><path class="cbline" d="M387,375h30" style="fill: none; stroke: rgb(59, 46, 38); stroke-opacity: 1; stroke-width: 2px;"/><path class="cbline" d="M387,334h30" style="fill: none; stroke: rgb(85, 62, 47); stroke-opacity: 1; stroke-width: 2px;"/><path class="cbline" d="M387,292h30" style="fill: none; stroke: rgb(112, 77, 54); stroke-opacity: 1; stroke-width: 2px;"/><path class="cbline" d="M387,250h30" style="fill: none; stroke: rgb(138, 93, 57); stroke-opacity: 1; stroke-width: 2px;"/><path class="cbline" d="M387,209h30" style="fill: none; stroke: rgb(161, 112, 59); stroke-opacity: 1; stroke-width: 2px;"/><path class="cbline" d="M387,167h30" style="fill: none; stroke: rgb(180, 134, 64); stroke-opacity: 1; stroke-width: 2px;"/><path class="cbline" d="M387,125h30" style="fill: none; stroke: rgb(195, 161, 78); stroke-opacity: 1; stroke-width: 2px;"/><path class="cbline" d="M387,83h30" style="fill: none; stroke: rgb(207, 188, 102); stroke-opacity: 1; stroke-width: 2px;"/><path class="cbline" d="M387,42h30" style="fill: none; stroke: rgb(219, 216, 134); stroke-opacity: 1; stroke-width: 2px;"/><path class="cbline" d="M387,0h30" style="fill: none; stroke: rgb(232, 245, 171); stroke-opacity: 1; stroke-width: 2px;"/></g><g class="cbaxis crisp" transform="translate(0,-40)"><path class="ycb6c9374tick ticks crisp" d="M416.5,0h-6" transform="translate(0,383.6)" style="stroke: rgb(237, 237, 237); stroke-opacity: 1; stroke-width: 1px;"/><path class="ycb6c9374tick ticks crisp" d="M416.5,0h-6" transform="translate(0,300.2)" style="stroke: rgb(237, 237, 237); stroke-opacity: 1; stroke-width: 1px;"/><path class="ycb6c9374tick ticks crisp" d="M416.5,0h-6" transform="translate(0,216.8)" style="stroke: rgb(237, 237, 237); stroke-opacity: 1; stroke-width: 1px;"/><path class="ycb6c9374tick ticks crisp" d="M416.5,0h-6" transform="translate(0,133.40000000000003)" style="stroke: rgb(237, 237, 237); stroke-opacity: 1; stroke-width: 1px;"/><g class="ycb6c9374tick"><text text-anchor="start" x="419.9" y="4.199999999999999" transform="translate(0,467)" style="font-family: 'Open Sans', verdana, arial, sans-serif; font-size: 12px; fill: rgb(51, 51, 51); fill-opacity: 1; white-space: pre; opacity: 1;">0.035</text></g><g class="ycb6c9374tick"><text text-anchor="start" x="419.9" y="4.199999999999999" style="font-family: 'Open Sans', verdana, arial, sans-serif; font-size: 12px; fill: rgb(51, 51, 51); fill-opacity: 1; white-space: pre; opacity: 1;" transform="translate(0,383.6)">0.556</text></g><g class="ycb6c9374tick"><text text-anchor="start" x="419.9" y="4.199999999999999" style="font-family: 'Open Sans', verdana, arial, sans-serif; font-size: 12px; fill: rgb(51, 51, 51); fill-opacity: 1; white-space: pre; opacity: 1;" transform="translate(0,300.2)">1.077</text></g><g class="ycb6c9374tick"><text text-anchor="start" x="419.9" y="4.199999999999999" style="font-family: 'Open Sans', verdana, arial, sans-serif; font-size: 12px; fill: rgb(51, 51, 51); fill-opacity: 1; white-space: pre; opacity: 1;" transform="translate(0,216.8)">1.598</text></g><g class="ycb6c9374tick"><text text-anchor="start" x="419.9" y="4.199999999999999" style="font-family: 'Open Sans', verdana, arial, sans-serif; font-size: 12px; fill: rgb(51, 51, 51); fill-opacity: 1; white-space: pre; opacity: 1;" transform="translate(0,133.40000000000003)">2.119</text></g><g class="ycb6c9374tick"><text text-anchor="start" x="419.9" y="4.199999999999999" style="font-family: 'Open Sans', verdana, arial, sans-serif; font-size: 12px; fill: rgb(51, 51, 51); fill-opacity: 1; white-space: pre; opacity: 1;" transform="translate(0,50.000000000000014)">2.64</text></g></g><g class="cbtitleunshift" transform="translate(-28,-40)"><g class="cbtitle"/></g><rect class="cboutline" x="387" y="10" width="30" height="417" style="stroke: rgb(68, 68, 68); stroke-opacity: 1; fill: none; stroke-width: 0;"/></g><g class="g-gtitle"><text class="gtitle" x="250" y="20" text-anchor="middle" dy="0em" style="font-family: 'Open Sans', verdana, arial, sans-serif; font-size: 17px; fill: rgb(51, 51, 51); opacity: 1; font-weight: normal; white-space: pre;">Clayton copula</text></g><g class="g-xtitle"/><g class="g-ytitle"/></g></svg>