<svg class="main-svg" xmlns="http://www.w3.org/2000/svg" xmlns:xlink="http://www.w3.org/1999/xlink" width="1500" height="1500" style="" viewBox="0 0 500 500"><rect x="0" y="0" width="500" height="500" style="fill: rgb(255, 255, 255); fill-opacity: 1;"/><defs id="defs-726a58"><g class="clips"><clipPath id="clip726a58xyplot" class="plotclip"><rect width="364" height="437"/></clipPath><clipPath class="axesclip" id="clip726a58x"><rect x="26" y="0" width="364" height="500"/></clipPath><clipPath class="axesclip" id="clip726a58y"><rect x="0" y="40" width="500" height="437"/></clipPath><clipPath class="axesclip" id="clip726a58xy"><rect x="26" y="40" width="364" height="437"/></clipPath><clipPath class="contourclip" id="clip6d21d3"><path d="M0,0L364,0L364,437L0,437Z"/></clipPath></g><g class="gradients"/><g class="patterns"/></defs><g class="bglayer"><rect class="bg" x="26" y="40" width="364" height="437" style="fill: rgb(237, 237, 237); fill-opacity: 1; stroke-width: 0;"/></g><g class="layer-below"><g class="imagelayer"/><g class="shapelayer"/></g><g class="cartesianlayer"><g class="subplot xy"><g class="layer-subplot"><g class="shapelayer"/><g class="imagelayer"/></g><g class="gridlayer"><g class="x"><path class="xgrid crisp" transform="translate(84.61,0)" d="M0,40v437" style="stroke: rgb(255, 255, 255); stroke-opacity: 1; stroke-width: 1px;"/><path class="xgrid crisp" transform="translate(331.39,0)" d="M0,40v437" style="stroke: rgb(255, 255, 255); stroke-opacity: 1; stroke-width: 1px;"/></g><g class="y"><path class="ygrid crisp" transform="translate(0,406.64)" d="M26,0h364" style="stroke: rgb(255, 255, 255); stroke-opacity: 1; stroke-width: 1px;"/><path class="ygrid crisp" transform="translate(0,332.57)" d="M26,0h364" style="stroke: rgb(255, 255, 255); stroke-opacity: 1; stroke-width: 1px;"/><path class="ygrid crisp" transform="translate(0,184.43)" d="M26,0h364" style="stroke: rgb(255, 255, 255); stroke-opacity: 1; stroke-width: 1px;"/><path class="ygrid crisp" transform="translate(0,110.36)" d="M26,0h364" style="stroke: rgb(255, 255, 255); stroke-opacity: 1; stroke-width: 1px;"/></g></g><g class="zerolinelayer"><path class="xzl zl crisp" transform="translate(208,0)" d="M0,40v437" style="stroke: rgb(255, 255, 255); stroke-opacity: 1; stroke-width: 1px;"/><path class="yzl zl crisp" transform="translate(0,258.5)" d="M26,0h364" style="stroke: rgb(255, 255, 255); stroke-opacity: 1; stroke-width: 1px;"/></g><path class="xlines-below"/><path class="ylines-below"/><g class="overlines-below"/><g class="xaxislayer-below"/><g class="yaxislayer-below"/><g class="overaxes-below"/><g class="plot" transform="translate(26,40)" clip-path="url(#clip726a58xyplot)"><g class="contourlayer mlayer"><g class="contour" clip-path="url(#clip6d21d3)" style="opacity: 1;"><g class="heatmapcoloring"/><g class="contourbg"/><g class="contourfill"/><g class="contourlines"><g class="contourlevel"><path class="openline" d="M364,410.71Q361.55,411.54 360.32,411.91C359.1,412.27 357.88,412.61 356.65,412.91C355.43,413.21 354.2,413.48 352.97,413.73C351.75,413.98 350.5,414.2 349.29,414.41C348.12,414.62 347,414.71 345.815,414.99C344.55,415.29 343.22,415.81 341.94,416.16C340.7,416.5 339.49,416.8 338.26,417.08C337.04,417.36 335.82,417.62 334.59,417.86C333.37,418.1 332.14,418.31 330.91,418.51C329.68,418.71 328.28,418.92 327.23,419.07C326.45,419.18 325.84,419.21 325.2,419.34C324.62,419.46 324.22,419.62 323.56,419.8C322.58,420.06 321.11,420.46 319.88,420.75C318.66,421.04 317.43,421.3 316.2,421.55C314.98,421.8 313.76,422.02 312.53,422.24C311.31,422.45 310.08,422.65 308.85,422.84C307.62,423.02 306.39,423.19 305.17,423.35C303.98,423.51 302.82,423.57 301.63,423.79499999999996C300.38,424.03 299.08,424.46 297.82,424.75C296.59,425.04 295.37,425.29 294.14,425.54C292.91,425.79 291.69,426.02 290.46,426.24C289.24,426.46 288.02,426.65 286.79,426.84C285.57,427.03 284.34,427.2 283.11,427.37C281.88,427.53 280.59,427.69 279.43,427.83C278.39,427.95 277.1,428.06 276.46,428.17C276.14,428.23 276.09,428.26 275.76,428.34C275.02,428.52 273.31,428.94 272.08,429.22C270.86,429.49 269.63,429.75 268.4,429.99C267.18,430.23 265.96,430.46 264.73,430.68C263.51,430.89 262.28,431.09 261.05,431.28C259.82,431.47 258.6,431.64 257.37,431.81C256.15,431.98 254.81,432.15 253.7,432.29C252.78,432.4 251.86,432.47 251.18,432.59C250.72,432.68 250.52,432.76 250.02,432.88C249.14,433.1 247.57,433.51 246.34,433.8C245.12,434.09 243.9,434.35 242.67,434.61C241.45,434.86 240.22,435.1 238.99,435.33C237.76,435.55 236.54,435.76 235.31,435.96C234.09,436.16 232.86,436.35 231.64,436.52Q230.43,436.69 228.01,437" style="stroke-miterlimit: 1; vector-effect: non-scaling-stroke; fill: none; stroke: rgb(34, 30, 27); stroke-opacity: 1; stroke-width: 2px;"/><path class="openline" d="M0,163.26Q0.26,160.37 0.4,158.91C0.54,157.44 0.69,155.96 0.86,154.49C1.02,153.02 1.2,151.55 1.39,150.08C1.58,148.61 1.78,147.14 1.99,145.67C2.2,144.2 2.42,142.72 2.66,141.25C2.9,139.78 3.24,137.9 3.43,136.84C3.54,136.25 3.61,136 3.68,135.45C3.79,134.64 3.84,133.52 3.93,132.42C4.04,131.09 4.18,129.48 4.32,128.01C4.46,126.54 4.6,125.07 4.76,123.6C4.92,122.13 5.09,120.65 5.27,119.18C5.45,117.71 5.64,116.24 5.84,114.77C6.04,113.3 6.25,111.82 6.48,110.35C6.71,108.88 7.06,106.83 7.21,105.94C7.27,105.55 7.3,105.48 7.35,105.1C7.45,104.32 7.54,102.78 7.64,101.53C7.76,100.14 7.88,98.58 8.02,97.11C8.16,95.64 8.3,94.17 8.46,92.7C8.62,91.23 8.79,89.75 8.97,88.28C9.15,86.81 9.33,85.34 9.54,83.87C9.75,82.4 9.97,80.93 10.21,79.45C10.46,77.94 10.81,76.38 11,74.875C11.19,73.44 11.24,72.06 11.37,70.63C11.5,69.17 11.65,67.68 11.8,66.21C11.95,64.74 12.11,63.27 12.29,61.8C12.47,60.33 12.66,58.85 12.87,57.38C13.08,55.91 13.3,54.44 13.54,52.97C13.78,51.5 14.11,49.74 14.33,48.56C14.48,47.77 14.61,47.28 14.71,46.58C14.82,45.81 14.85,45.07 14.94,44.14C15.06,42.89 15.23,41.2 15.4,39.73C15.57,38.26 15.74,36.78 15.94,35.31C16.14,33.84 16.35,32.37 16.59,30.9C16.83,29.43 17.07,27.97 17.36,26.48C17.65,24.95 18.09,23.34 18.33,21.83C18.56,20.41 18.64,19.07 18.81,17.66C18.99,16.21 19.17,14.71 19.38,13.24C19.59,11.77 19.82,10.3 20.07,8.83C20.32,7.36 20.6,5.88 20.9,4.41Q21.21,2.94 21.9,0" style="stroke-miterlimit: 1; vector-effect: non-scaling-stroke; fill: none; stroke: rgb(34, 30, 27); stroke-opacity: 1; stroke-width: 2px;"/></g><g class="contourlevel"><path class="closedline" d="M11.03,424.6C10.7,424.52 10.41,424.14 10.33,423.76C10.21,423.18 10.82,422.09 11.03,421.32C11.22,420.63 11.26,420.11 11.54,419.34C11.97,418.14 13.03,416.07 13.64,414.93C14.04,414.19 14.34,413.79 14.71,413.13C15.15,412.35 15.55,411.48 16.08,410.52C16.76,409.29 17.69,407.79 18.515,406.36C19.39,404.85 20.55,402.76 21.21,401.69C21.56,401.12 21.73,400.93 22.06,400.4C22.56,399.59 23.25,398.28 23.87,397.27C24.48,396.29 25.24,395.22 25.74,394.41C26.1,393.82 26.25,393.5 26.64,392.86C27.31,391.77 28.54,389.98 29.455,388.515C30.37,387.04 31.45,385.11 32.13,384.03C32.52,383.41 32.73,383.16 33.09,382.59C33.6,381.78 34.24,380.59 34.85,379.62C35.46,378.65 36.26,377.57 36.77,376.75C37.14,376.16 37.28,375.84 37.68,375.2C38.35,374.12 39.6,372.38 40.525,370.925C41.47,369.44 42.62,367.41 43.28,366.37C43.63,365.82 43.79,365.64 44.12,365.12C44.63,364.31 45.35,362.96 45.98,361.96C46.58,361.01 47.29,360.05 47.8,359.25C48.2,358.62 48.38,358.24 48.81,357.55C49.5,356.45 50.68,354.78 51.595,353.34000000000003C52.55,351.84 53.78,349.73 54.42,348.72C54.74,348.22 54.86,348.08 55.15,347.61C55.65,346.81 56.44,345.33 57.08,344.3C57.66,343.36 58.33,342.47 58.83,341.67C59.23,341.03 59.43,340.6 59.87,339.89C60.56,338.78 61.73,337.13 62.635,335.69000000000005C63.58,334.19 64.78,332.09 65.42,331.06C65.75,330.54 65.88,330.38 66.18,329.89C66.67,329.08 67.42,327.68 68.05,326.65C68.65,325.68 69.36,324.68 69.86,323.87C70.24,323.26 70.4,322.9 70.81,322.23C71.49,321.13 72.7,319.39 73.6,317.93C74.5,316.45 75.53,314.51 76.21,313.4C76.61,312.74 76.85,312.45 77.21,311.85C77.7,311.05 78.24,309.96 78.83,308.99C79.46,307.94 80.4,306.59 80.89,305.77C81.19,305.28 81.26,305.1 81.57,304.58C82.19,303.54 83.54,301.47 84.435,299.95500000000004C85.27,298.53 86.08,296.94 86.78,295.75C87.31,294.85 87.79,294.17 88.24,293.41C88.66,292.7 88.92,292.14 89.4,291.33C90.09,290.16 91.17,288.56 92.025,287.11C92.91,285.62 93.94,283.65 94.61,282.51C95.01,281.83 95.24,281.51 95.6,280.89C96.06,280.09 96.56,279.07 97.12,278.09C97.76,276.97 98.82,275.35 99.27,274.56C99.49,274.17 99.52,274.08 99.75,273.68C100.26,272.77 101.68,270.25 102.26,269.26C102.56,268.75 102.68,268.6 102.95,268.11C103.4,267.3 104.07,265.93 104.68,264.85C105.3,263.76 106.17,262.41 106.63,261.59C106.9,261.11 106.96,260.94 107.24,260.43C107.78,259.43 109.18,256.97 109.72,256.02C109.98,255.57 110.06,255.46 110.3,255.02C110.74,254.22 111.46,252.73 112.08,251.61C112.69,250.5 113.53,249.14 113.98,248.33C114.24,247.86 114.3,247.69 114.57,247.19C115.1,246.2 116.42,243.79 116.98,242.78C117.27,242.25 117.39,242.08 117.66,241.58C118.09,240.77 118.7,239.46 119.29,238.36C119.92,237.18 120.91,235.51 121.33,234.74C121.52,234.38 121.55,234.32 121.74,233.95C122.19,233.08 123.42,230.68 124.03,229.54C124.42,228.81 124.67,228.41 125.01,227.75C125.42,226.96 125.81,226.1 126.32,225.12C126.99,223.84 127.95,222.24 128.715,220.765C129.48,219.29 130.23,217.59 130.9,216.29C131.43,215.26 131.95,214.36 132.36,213.56C132.68,212.94 132.84,212.57 133.19,211.88C133.76,210.75 134.94,208.45 135.45,207.46C135.71,206.96 135.8,206.81 136.04,206.34C136.44,205.53 137.03,204.21 137.61,203.05C138.27,201.73 139.09,200.28 139.815,198.83999999999997C140.56,197.34 141.35,195.55 142.01,194.22C142.51,193.2 142.99,192.33 143.39,191.53C143.7,190.9 143.87,190.51 144.21,189.81C144.76,188.68 145.86,186.44 146.38,185.39C146.67,184.8 146.8,184.57 147.07,184.02C147.46,183.21 147.95,182.08 148.49,180.98C149.14,179.64 150.02,178.03 150.735,176.54500000000002C151.44,175.08 152.1,173.51 152.75,172.15C153.32,170.96 154.03,169.62 154.42,168.81C154.64,168.36 154.7,168.22 154.93,167.74C155.39,166.77 156.43,164.53 157.02,163.32C157.43,162.46 157.75,161.87 158.1,161.14C158.45,160.4 158.73,159.78 159.14,158.91C159.73,157.68 160.85,155.42 161.31,154.49C161.52,154.06 161.58,153.96 161.78,153.55C162.16,152.76 162.82,151.29 163.41,150.08C164.06,148.74 164.83,147.29 165.54,145.85C166.28,144.35 167.09,142.58 167.75,141.25C168.26,140.23 168.73,139.35 169.13,138.55C169.45,137.92 169.63,137.54 169.98,136.84C170.55,135.71 171.73,133.4 172.24,132.42C172.49,131.93 172.57,131.79 172.81,131.33C173.23,130.52 173.91,129.14 174.5,128.01C175.13,126.81 176.07,125.1 176.48,124.34C176.66,124 176.69,123.95 176.88,123.6C177.34,122.74 178.67,120.28 179.28,119.18C179.64,118.52 179.82,118.2 180.16,117.6C180.61,116.79 181.19,115.76 181.76,114.77C182.4,113.66 183.37,112.04 183.84,111.25C184.08,110.85 184.13,110.76 184.38,110.35C184.94,109.43 186.57,106.77 187.09,105.94C187.29,105.61 187.32,105.58 187.52,105.26C188,104.52 189.25,102.57 189.93,101.53C190.42,100.79 190.73,100.3 191.19,99.62C191.72,98.84 192.35,97.96 192.95,97.11C193.57,96.23 194.28,95.23 194.87,94.44C195.35,93.79 195.69,93.36 196.2,92.7C196.87,91.83 197.9,90.48 198.55,89.67C199,89.11 199.26,88.83 199.72,88.28C200.4,87.48 201.5,86.13 202.22,85.33C202.74,84.75 203.07,84.42 203.59,83.87C204.26,83.15 205.14,82.16 205.9,81.39C206.59,80.69 207.3,80.06 207.94,79.45C208.52,78.9 208.92,78.47 209.58,77.87C210.52,77.02 211.89,75.88 213.10500000000002,74.915C214.34,73.93 215.82,72.78 216.93,72.01C217.75,71.44 218.47,71.05 219.13,70.63C219.67,70.28 220,70.03 220.61,69.66C221.55,69.09 223.06,68.24 224.28,67.64C225.44,67.07 226.56,66.6 227.755,66.115C229.01,65.61 230.35,65.07 231.64,64.66C232.87,64.26 234.08,63.95 235.31,63.67C236.53,63.39 237.76,63.17 238.99,63C240.21,62.83 241.44,62.72 242.67,62.65C243.89,62.58 245.12,62.57 246.34,62.6C247.57,62.63 248.8,62.71 250.02,62.84C251.25,62.97 252.48,63.15 253.7,63.38C254.93,63.61 256.15,63.89 257.37,64.22C258.6,64.55 260.01,65.01 261.05,65.38C261.84,65.66 262.46,65.95 263.11,66.21C263.68,66.44 264.09,66.56 264.73,66.84C265.71,67.26 267.19,67.94 268.4,68.57C269.63,69.21 270.82,69.92 272.03499999999997,70.655C273.28,71.41 274.64,72.26 275.76,73.04C276.74,73.72 277.74,74.53 278.42,75.04C278.84,75.36 278.99,75.46 279.43,75.81C280.28,76.5 282.43,78.35 283.11,78.95C283.37,79.18 283.4,79.21 283.65,79.45C284.27,80.03 285.98,81.68 286.79,82.5C287.32,83.04 287.59,83.33 288.08,83.87C288.76,84.61 289.77,85.73 290.46,86.53C291.01,87.17 291.39,87.62 291.92,88.28C292.59,89.11 293.53,90.33 294.14,91.14C294.59,91.73 294.83,92.06 295.28,92.7C295.97,93.68 297.33,95.74 297.82,96.47C298.02,96.77 298.05,96.8 298.24,97.11C298.74,97.92 300.28,100.51 300.85,101.53C301.14,102.06 301.23,102.24 301.49,102.74C301.92,103.55 302.6,104.78 303.16,105.94C303.81,107.3 304.52,108.92 305.15,110.405C305.76,111.86 306.36,113.3 306.89,114.77C307.42,116.23 307.98,118 308.33,119.18C308.56,119.95 308.66,120.43 308.85,121.12C309.06,121.9 309.3,122.65 309.54,123.6C309.85,124.86 310.23,126.54 310.51,128.01C310.79,129.48 311.02,130.95 311.21,132.42C311.4,133.89 311.54,135.37 311.65,136.84C311.76,138.31 311.83,139.78 311.86,141.25C311.89,142.72 311.87,144.2 311.81,145.67C311.75,147.14 311.66,148.61 311.52,150.08C311.38,151.55 311.2,153.02 310.97,154.49C310.74,155.97 310.47,157.42 310.14,158.91C309.8,160.45 309.35,162.06 308.93,163.565C308.53,165 308.14,166.34 307.66,167.74C307.16,169.2 306.45,171.02 305.98,172.15C305.67,172.88 305.46,173.27 305.17,173.92C304.82,174.71 304.5,175.58 304.02,176.57C303.38,177.9 302.42,179.67 301.595,181.155C300.79,182.6 299.84,184.25 299.13,185.39C298.64,186.18 298.28,186.67 297.82,187.36C297.31,188.13 296.78,188.98 296.2,189.81C295.57,190.71 294.74,191.78 294.14,192.58C293.68,193.2 293.41,193.6 292.93,194.22C292.26,195.08 291.13,196.41 290.46,197.23C290,197.79 289.78,198.1 289.31,198.64C288.64,199.42 287.52,200.65 286.79,201.45C286.24,202.06 285.88,202.47 285.34,203.05C284.68,203.75 283.84,204.6 283.11,205.35C282.4,206.07 281.67,206.82 281.02,207.46C280.46,208.01 280.05,208.39 279.43,208.98C278.57,209.79 276.95,211.31 276.33,211.88C276.07,212.12 276.03,212.15 275.76,212.39C275.07,213.01 272.84,214.98 272.08,215.65C271.74,215.95 271.67,216.01 271.34,216.29C270.69,216.85 269.33,218.02 268.4,218.79C267.57,219.48 266.71,220.16 266.04,220.71C265.54,221.12 265.28,221.33 264.73,221.77C263.82,222.5 261.76,224.09 261.05,224.64C260.76,224.87 260.71,224.9 260.43,225.12C259.8,225.61 258.37,226.74 257.37,227.5C256.43,228.21 255.28,229.04 254.61,229.54C254.22,229.83 254.11,229.92 253.7,230.22C252.89,230.82 250.96,232.25 250.02,232.93C249.43,233.35 249.12,233.57 248.59,233.95C247.92,234.43 247.19,234.99 246.34,235.6C245.24,236.39 243.76,237.37 242.51999999999998,238.255C241.32,239.11 240.11,240.03 238.99,240.82C237.98,241.53 236.76,242.32 236.1,242.78C235.75,243.02 235.67,243.09 235.31,243.34C234.53,243.89 232.66,245.24 231.64,245.94C230.92,246.44 230.39,246.76 229.78,247.19C229.17,247.61 228.68,247.99 227.96,248.49C226.95,249.19 225.09,250.45 224.28,251C223.88,251.27 223.77,251.35 223.39,251.61C222.72,252.08 221.61,252.92 220.61,253.61C219.48,254.39 218.16,255.19 216.95,256.03499999999997C215.71,256.9 214.37,257.94 213.25,258.73C212.33,259.37 211.39,259.96 210.72,260.43C210.26,260.75 210.07,260.91 209.58,261.26C208.7,261.89 206.84,263.21 205.9,263.87C205.31,264.28 205,264.48 204.47,264.85C203.8,265.33 203.08,265.9 202.22,266.51C201.12,267.3 199.62,268.25 198.38,269.145C197.17,270.01 195.98,270.99 194.87,271.79C193.91,272.48 192.8,273.2 192.13,273.68C191.73,273.97 191.61,274.07 191.19,274.38C190.37,274.99 188.46,276.42 187.52,277.1C186.95,277.52 186.64,277.71 186.12,278.09C185.45,278.59 184.7,279.22 183.84,279.85C182.76,280.65 181.34,281.56 180.115,282.475C178.88,283.4 177.55,284.55 176.48,285.35C175.67,285.96 174.94,286.43 174.29,286.92C173.74,287.33 173.42,287.63 172.81,288.1C171.86,288.83 169.86,290.3 169.13,290.84C168.82,291.07 168.77,291.1 168.47,291.33C167.82,291.83 166.44,293.03 165.45,293.79C164.54,294.49 163.45,295.23 162.78,295.75C162.36,296.07 162.22,296.21 161.78,296.56C160.94,297.23 158.93,298.81 158.1,299.45C157.68,299.77 157.54,299.85 157.15,300.16C156.47,300.7 155.35,301.71 154.42,302.45C153.49,303.19 152.24,304.06 151.58,304.58C151.22,304.87 151.13,304.96 150.75,305.27C149.96,305.92 147.9,307.59 147.07,308.25C146.65,308.58 146.51,308.67 146.11,308.99C145.43,309.54 144.31,310.58 143.39,311.32C142.5,312.05 141.35,312.86 140.68,313.4C140.27,313.73 140.15,313.87 139.72,314.23C138.89,314.92 136.8,316.63 136.04,317.24C135.7,317.51 135.63,317.55 135.31,317.82C134.65,318.37 133.29,319.63 132.36,320.41C131.55,321.08 130.7,321.68 130.04,322.23C129.52,322.66 129.26,322.94 128.69,323.42C127.74,324.22 126.09,325.47 124.85,326.52C123.64,327.55 122.31,328.84 121.33,329.67C120.66,330.24 120.19,330.56 119.6,331.06C118.96,331.6 118.41,332.18 117.66,332.82C116.67,333.66 115.34,334.63 114.155,335.63C112.89,336.7 111.17,338.32 110.3,339.07C109.87,339.44 109.71,339.54 109.31,339.89C108.63,340.49 107.51,341.6 106.63,342.36C105.82,343.06 104.92,343.72 104.25,344.3C103.74,344.74 103.5,345.01 102.95,345.5C102.03,346.31 100.41,347.56 99.18,348.64C97.96,349.72 96.52,351.18 95.6,351.99C95.04,352.48 94.74,352.68 94.23,353.13C93.55,353.73 92.73,354.58 91.92,355.3C91.07,356.06 89.89,356.96 89.22,357.55C88.81,357.91 88.68,358.07 88.24,358.46C87.38,359.23 85.63,360.68 84.38999999999999,361.81C83.18,362.9 81.82,364.29 80.89,365.12C80.3,365.65 79.94,365.89 79.41,366.37C78.74,366.97 78,367.76 77.21,368.47C76.36,369.24 75.13,370.19 74.46,370.79C74.06,371.15 73.96,371.29 73.54,371.67C72.7,372.44 70.93,373.92 69.685,375.055C68.48,376.16 67.1,377.58 66.18,378.41C65.61,378.92 65.28,379.15 64.76,379.62C64.09,380.23 63.3,381.08 62.51,381.8C61.68,382.55 60.55,383.42 59.88,384.03C59.44,384.42 59.3,384.61 58.83,385.04C57.96,385.83 56.27,387.22 55.035,388.345C53.81,389.46 52.37,390.94 51.47,391.76C50.94,392.24 50.68,392.42 50.19,392.86C49.51,393.48 48.62,394.42 47.8,395.16C46.99,395.89 45.99,396.66 45.32,397.27C44.84,397.71 44.64,397.96 44.12,398.43C43.23,399.24 41.6,400.54 40.379999999999995,401.64C39.15,402.74 37.68,404.22 36.77,405.02C36.24,405.49 35.97,405.67 35.48,406.1C34.8,406.71 33.91,407.62 33.09,408.35C32.25,409.09 31.16,409.93 30.49,410.52C30.05,410.91 29.89,411.11 29.41,411.53C28.52,412.31 26.78,413.71 25.525,414.765C24.34,415.76 23.09,416.86 22.06,417.69C21.26,418.33 20.54,418.81 19.89,419.34C19.33,419.79 19.01,420.15 18.38,420.63C17.44,421.35 15.72,422.63 14.71,423.15C14.08,423.48 13.64,423.53 13.06,423.76C12.42,424.01 11.5,424.72 11.03,424.6Z" style="stroke-miterlimit: 1; vector-effect: non-scaling-stroke; fill: none; stroke: rgb(59, 46, 38); stroke-opacity: 1; stroke-width: 2px;"/></g><g class="contourlevel"><path class="closedline" d="M29.41,402.55C29.06,402.46 28.79,402.09 28.7,401.69C28.56,401.07 29.21,399.81 29.41,399.01C29.57,398.37 29.59,397.97 29.84,397.27C30.26,396.12 31.35,394.02 31.97,392.86C32.39,392.07 32.71,391.61 33.09,390.92C33.51,390.15 33.88,389.37 34.39,388.44C35.07,387.2 36.01,385.62 36.845,384.17999999999995C37.71,382.69 38.82,380.72 39.49,379.62C39.88,378.98 40.08,378.71 40.44,378.13C40.93,377.32 41.55,376.18 42.15,375.2C42.77,374.18 43.62,372.96 44.12,372.14C44.45,371.6 44.56,371.37 44.91,370.79C45.56,369.73 46.85,367.8 47.765,366.315C48.66,364.86 49.68,363.06 50.37,361.96C50.81,361.27 51.07,360.92 51.47,360.29C51.97,359.49 52.52,358.48 53.11,357.55C53.74,356.54 54.63,355.28 55.15,354.46C55.48,353.93 55.59,353.7 55.95,353.13C56.61,352.09 57.91,350.22 58.84,348.74C59.76,347.27 60.81,345.38 61.5,344.3C61.91,343.66 62.14,343.38 62.51,342.79C63.02,341.99 63.63,340.85 64.24,339.89C64.86,338.91 65.67,337.78 66.18,336.96C66.54,336.39 66.68,336.09 67.07,335.47C67.74,334.4 69,332.62 69.92,331.15999999999997C70.85,329.68 71.97,327.71 72.64,326.65C73.01,326.06 73.2,325.84 73.54,325.29C74.05,324.48 74.73,323.22 75.35,322.23C75.95,321.26 76.7,320.21 77.21,319.4C77.59,318.8 77.75,318.47 78.16,317.82C78.84,316.73 80.05,314.99 80.96000000000001,313.525C81.89,312.04 83,310.06 83.67,308.99C84.04,308.39 84.23,308.16 84.57,307.61C85.07,306.8 85.74,305.58 86.35,304.58C86.96,303.59 87.74,302.47 88.24,301.65C88.6,301.07 88.74,300.78 89.12,300.16C89.79,299.08 91.04,297.27 91.945,295.78999999999996C92.84,294.32 93.85,292.45 94.53,291.33C94.95,290.63 95.22,290.29 95.6,289.66C96.09,288.86 96.61,287.87 97.19,286.92C97.83,285.87 98.77,284.44 99.27,283.63C99.56,283.16 99.63,283.01 99.93,282.51C100.55,281.49 101.9,279.37 102.805,277.855C103.65,276.43 104.48,274.86 105.19,273.68C105.72,272.79 106.18,272.13 106.63,271.37C107.06,270.65 107.35,270.08 107.84,269.26C108.53,268.1 109.57,266.51 110.43,265.07500000000005C111.33,263.57 112.45,261.53 113.1,260.43C113.47,259.81 113.65,259.56 113.98,258.99C114.45,258.18 115.06,257.03 115.65,256.02C116.28,254.94 117.18,253.53 117.66,252.72C117.93,252.25 118.01,252.1 118.29,251.61C118.86,250.62 120.37,248.05 120.88,247.19C121.09,246.83 121.13,246.78 121.33,246.43C121.77,245.67 122.7,243.91 123.35,242.78C123.92,241.78 124.54,240.8 125.01,239.99C125.36,239.38 125.53,239.04 125.92,238.36C126.57,237.22 127.76,235.31 128.60500000000002,233.805C129.42,232.37 130.23,230.77 130.92,229.54C131.45,228.6 131.92,227.84 132.36,227.06C132.75,226.38 132.99,225.9 133.43,225.12C134.1,223.94 135.2,222.16 136.02499999999998,220.68C136.84,219.22 137.69,217.52 138.37,216.29C138.87,215.38 139.3,214.7 139.72,213.94C140.12,213.23 140.39,212.69 140.84,211.88C141.51,210.68 142.56,208.93 143.38,207.445C144.19,205.98 145.04,204.29 145.72,203.05C146.23,202.13 146.65,201.42 147.07,200.65C147.46,199.95 147.72,199.44 148.16,198.64C148.83,197.44 149.88,195.63 150.7,194.135C151.49,192.68 152.31,191.06 152.99,189.81C153.52,188.84 153.99,188.03 154.42,187.24C154.79,186.57 155.01,186.14 155.43,185.39C156.09,184.2 157.17,182.29 157.995,180.79C158.78,179.36 159.58,177.82 160.26,176.57C160.81,175.56 161.34,174.65 161.78,173.85C162.13,173.22 162.32,172.85 162.71,172.15C163.36,170.98 164.48,169.01 165.32,167.5C166.11,166.07 166.92,164.56 167.61,163.32C168.16,162.33 168.68,161.45 169.13,160.65C169.5,160.01 169.71,159.63 170.12,158.91C170.78,157.75 171.88,155.87 172.74,154.375C173.57,152.92 174.51,151.27 175.2,150.08C175.69,149.23 176.05,148.62 176.48,147.89C176.92,147.15 177.3,146.51 177.81,145.67C178.48,144.56 179.72,142.52 180.16,141.81C180.33,141.54 180.34,141.53 180.51,141.25C180.99,140.48 182.68,137.77 183.26,136.84C183.52,136.42 183.58,136.32 183.84,135.91C184.34,135.12 185.42,133.44 186.09,132.42C186.62,131.61 187.03,130.99 187.52,130.26C188.02,129.52 188.5,128.82 189.06,128.01C189.71,127.07 190.61,125.75 191.19,124.94C191.58,124.4 191.77,124.16 192.18,123.6C192.86,122.68 194.29,120.71 194.87,119.95C195.14,119.59 195.2,119.53 195.48,119.18C196.11,118.38 197.98,116.01 198.55,115.31C198.77,115.05 198.79,115.03 199.01,114.77C199.6,114.08 201.56,111.76 202.22,111.02C202.51,110.7 202.56,110.66 202.85,110.35C203.49,109.67 205.1,107.9 205.9,107.1C206.39,106.61 206.64,106.4 207.12,105.94C207.8,105.29 208.75,104.31 209.58,103.56C210.38,102.84 211.34,102.11 212.01,101.53C212.5,101.11 212.72,100.87 213.25,100.44C214.14,99.72 216.09,98.28 216.93,97.71C217.35,97.43 217.49,97.37 217.89,97.11C218.57,96.68 219.62,95.92 220.61,95.33C221.73,94.67 223.3,93.84 224.28,93.37C224.91,93.07 225.31,92.95 225.87,92.7C226.52,92.42 227.16,92.08 227.96,91.76C229.01,91.35 230.41,90.87 231.64,90.52C232.86,90.17 234.08,89.88 235.31,89.66C236.53,89.44 237.76,89.28 238.99,89.18C240.21,89.08 241.44,89.03 242.67,89.05C243.89,89.07 245.12,89.15 246.34,89.29C247.57,89.43 248.8,89.63 250.02,89.89C251.25,90.16 252.48,90.49 253.7,90.89C254.93,91.29 256.59,91.96 257.37,92.3C257.74,92.46 257.83,92.53 258.18,92.7C258.84,93.03 260.05,93.56 261.05,94.11C262.22,94.75 263.9,95.82 264.73,96.38C265.17,96.68 265.31,96.8 265.72,97.11C266.4,97.62 267.52,98.43 268.4,99.16C269.3,99.9 270.36,100.91 271.04,101.53C271.47,101.93 271.65,102.08 272.08,102.52C272.85,103.31 274.6,105.24 275.21,105.94C275.47,106.24 275.51,106.28 275.76,106.59C276.35,107.32 277.95,109.43 278.6,110.35C278.97,110.87 279.1,111.09 279.43,111.6C279.95,112.41 280.79,113.7 281.41,114.77C282.02,115.83 282.69,117.18 283.11,117.99C283.37,118.48 283.47,118.65 283.72,119.18C284.19,120.18 285.08,122.21 285.61,123.6C286.08,124.81 286.52,126.24 286.79,127.04C286.93,127.46 286.99,127.57 287.12,128.01C287.4,128.95 287.96,130.94 288.29,132.42C288.62,133.89 288.9,135.36 289.12,136.84C289.34,138.31 289.51,139.78 289.63,141.25C289.75,142.72 289.82,144.2 289.83,145.67C289.84,147.14 289.8,148.61 289.72,150.08C289.64,151.55 289.5,153.02 289.32,154.49C289.13,155.97 288.9,157.44 288.61,158.91C288.32,160.39 287.91,162.06 287.57,163.32C287.31,164.28 287.03,165.05 286.79,165.83C286.58,166.51 286.48,166.98 286.23,167.74C285.84,168.91 285.16,170.8 284.6,172.15C284.11,173.33 283.47,174.6 283.11,175.41C282.9,175.89 282.85,176.06 282.61,176.57C282.14,177.57 280.93,179.9 280.33,180.98C279.97,181.62 279.77,181.9 279.43,182.48C278.95,183.29 278.34,184.43 277.74,185.39C277.12,186.38 276.3,187.53 275.76,188.34C275.38,188.91 275.2,189.22 274.79,189.81C274.12,190.76 272.64,192.7 272.08,193.46C271.83,193.81 271.8,193.87 271.53,194.22C270.92,195.01 268.97,197.36 268.4,198.07C268.18,198.34 268.17,198.37 267.95,198.64C267.37,199.34 265.39,201.55 264.73,202.31C264.43,202.65 264.39,202.72 264.09,203.05C263.46,203.75 261.82,205.47 261.05,206.28C260.59,206.77 260.38,206.99 259.93,207.46C259.25,208.15 258.16,209.24 257.37,210.02C256.7,210.69 256.12,211.28 255.5,211.88C254.9,212.46 254.37,212.95 253.7,213.58C252.85,214.38 251.46,215.68 250.8,216.29C250.46,216.6 250.38,216.67 250.02,216.99C249.25,217.68 246.98,219.71 246.34,220.29C246.11,220.5 246.1,220.51 245.88,220.71C245.29,221.24 243.6,222.73 242.67,223.53C241.97,224.14 241.44,224.59 240.82,225.12C240.21,225.64 239.7,226.07 238.99,226.67C238,227.5 236.62,228.62 235.41,229.62C234.17,230.65 232.6,231.98 231.64,232.77C231.05,233.26 230.72,233.51 230.19,233.95C229.53,234.49 228.79,235.1 227.96,235.77C226.93,236.6 225.67,237.57 224.48000000000002,238.52C223.22,239.53 221.59,240.88 220.61,241.66C220.02,242.13 219.72,242.36 219.19,242.78C218.52,243.31 217.77,243.94 216.93,244.6C215.89,245.42 214.6,246.37 213.41,247.315C212.16,248.3 210.58,249.61 209.58,250.4C208.95,250.9 208.59,251.17 208.03,251.61C207.37,252.13 206.71,252.69 205.9,253.32C204.86,254.14 203.5,255.13 202.29500000000002,256.08C201.05,257.06 199.56,258.33 198.55,259.13C197.88,259.66 197.45,259.97 196.87,260.43C196.23,260.94 195.64,261.45 194.87,262.06C193.84,262.87 192.42,263.89 191.20499999999998,264.86C189.97,265.85 188.52,267.11 187.52,267.92C186.84,268.46 186.39,268.79 185.8,269.26C185.16,269.77 184.6,270.27 183.84,270.88C182.82,271.7 181.4,272.72 180.185,273.70000000000005C178.94,274.7 177.47,276 176.48,276.81C175.84,277.34 175.44,277.63 174.87,278.09C174.22,278.62 173.6,279.18 172.81,279.82C171.79,280.65 170.45,281.63 169.25,282.61C167.99,283.63 166.4,285.04 165.45,285.83C164.89,286.29 164.61,286.5 164.1,286.92C163.43,287.48 162.61,288.22 161.78,288.91C160.84,289.69 159.36,290.8 158.73,291.33C158.44,291.57 158.4,291.62 158.1,291.88C157.38,292.5 155.24,294.31 154.42,294.99C154.01,295.33 153.88,295.42 153.49,295.75C152.81,296.32 151.65,297.4 150.75,298.16C149.91,298.87 148.94,299.59 148.27,300.16C147.79,300.56 147.59,300.78 147.07,301.22C146.15,302.01 144.45,303.35 143.20499999999998,304.42499999999995C142,305.46 140.69,306.71 139.72,307.54C139.04,308.12 138.55,308.48 137.96,308.99C137.33,309.53 136.78,310.07 136.04,310.71C135.06,311.55 133.74,312.57 132.56,313.58C131.29,314.67 129.55,316.29 128.69,317.03C128.27,317.39 128.14,317.48 127.75,317.82C127.07,318.41 125.89,319.55 125.01,320.32C124.22,321.01 123.39,321.65 122.73,322.23C122.2,322.69 121.91,323 121.33,323.51C120.4,324.33 118.84,325.55 117.625,326.62C116.39,327.71 114.88,329.2 113.98,330C113.46,330.46 113.22,330.63 112.74,331.06C112.06,331.67 111.13,332.59 110.3,333.33C109.47,334.06 108.44,334.87 107.77,335.47C107.31,335.88 107.13,336.09 106.63,336.54C105.74,337.34 104.08,338.69 102.85,339.79999999999995C101.63,340.9 100.18,342.35 99.27,343.17C98.73,343.65 98.45,343.85 97.96,344.3C97.28,344.91 96.41,345.81 95.6,346.54C94.78,347.28 93.72,348.11 93.05,348.72C92.59,349.13 92.41,349.34 91.92,349.79C91.04,350.59 89.39,351.94 88.16,353.06C86.94,354.17 85.46,355.66 84.57,356.47C84.06,356.94 83.81,357.12 83.33,357.55C82.65,358.17 81.71,359.13 80.89,359.87C80.09,360.59 79.15,361.35 78.48,361.96C77.98,362.41 77.75,362.68 77.21,363.17C76.31,363.99 74.73,365.26 73.52000000000001,366.355C72.28,367.47 70.73,369.04 69.86,369.83C69.39,370.26 69.19,370.39 68.75,370.79C68.06,371.41 67.02,372.47 66.18,373.23C65.41,373.93 64.56,374.6 63.9,375.2C63.37,375.68 63.09,376 62.51,376.53C61.59,377.36 60.09,378.58 58.875,379.65999999999997C57.63,380.77 56.04,382.3 55.15,383.08C54.67,383.5 54.47,383.64 54.02,384.03C53.33,384.63 52.32,385.64 51.47,386.39C50.66,387.11 49.7,387.85 49.03,388.44C48.54,388.87 48.33,389.12 47.8,389.59C46.89,390.4 45.24,391.73 43.995,392.765C42.79,393.77 41.47,394.89 40.44,395.71C39.67,396.32 39.02,396.76 38.38,397.27C37.8,397.73 37.43,398.12 36.77,398.62C35.81,399.36 34.06,400.68 33.09,401.18C32.52,401.47 32.17,401.49 31.64,401.69C30.97,401.94 29.92,402.68 29.41,402.55Z" style="stroke-miterlimit: 1; vector-effect: non-scaling-stroke; fill: none; stroke: rgb(85, 62, 47); stroke-opacity: 1; stroke-width: 2px;"/></g><g class="contourlevel"><path class="closedline" d="M44.12,387.06C43.11,386.88 41.77,385.2 41.59,384.03C41.39,382.75 42.88,380.64 43.38,379.62C43.66,379.05 43.83,378.85 44.12,378.32C44.56,377.51 45.17,376.27 45.76,375.2C46.39,374.04 47.37,372.41 47.8,371.63C48.01,371.26 48.03,371.18 48.24,370.79C48.73,369.89 50.22,367.33 50.8,366.37C51.09,365.89 51.19,365.77 51.47,365.31C51.96,364.51 52.8,363.01 53.44,361.96C54.02,361.01 54.66,360.07 55.15,359.27C55.54,358.64 55.74,358.25 56.17,357.55C56.85,356.43 57.99,354.7 58.894999999999996,353.245C59.82,351.76 60.97,349.77 61.64,348.72C62,348.14 62.17,347.94 62.51,347.4C63.02,346.59 63.75,345.3 64.38,344.3C64.98,343.35 65.67,342.36 66.18,341.55C66.57,340.93 66.76,340.57 67.19,339.89C67.88,338.8 69.04,337.09 69.96000000000001,335.64C70.91,334.15 72.14,332.07 72.79,331.06C73.11,330.55 73.24,330.41 73.54,329.93C74.05,329.13 74.89,327.67 75.53,326.65C76.11,325.74 76.71,324.87 77.21,324.08C77.63,323.42 77.88,322.95 78.34,322.23C79.01,321.17 80.44,319.06 80.89,318.36C81.06,318.1 81.06,318.09 81.22,317.82C81.69,317.06 83.38,314.31 83.97,313.4C84.24,312.98 84.32,312.9 84.57,312.5C85.07,311.72 86.02,310.04 86.68,308.99C87.23,308.11 87.76,307.37 88.24,306.6C88.68,305.9 88.98,305.35 89.47,304.58C90.14,303.52 91.45,301.57 91.92,300.83C92.12,300.52 92.13,300.48 92.33,300.16C92.84,299.33 94.52,296.63 95.08,295.75C95.32,295.37 95.37,295.32 95.6,294.95C96.08,294.18 97.1,292.4 97.76,291.33C98.3,290.46 98.8,289.74 99.27,288.98C99.71,288.27 100.03,287.71 100.52,286.92C101.19,285.85 102.49,283.87 102.95,283.14C103.14,282.84 103.15,282.82 103.34,282.51C103.84,281.7 105.48,279.01 106.05,278.09C106.31,277.67 106.38,277.58 106.63,277.18C107.11,276.39 108.05,274.75 108.7,273.68C109.26,272.76 109.82,271.93 110.3,271.15C110.71,270.48 110.97,270.01 111.43,269.26C112.13,268.13 113.21,266.49 114.1,265.05C115.02,263.55 116.21,261.49 116.86,260.43C117.2,259.87 117.34,259.67 117.66,259.15C118.15,258.34 118.87,257.04 119.49,256.02C120.1,255.02 120.83,253.88 121.33,253.07C121.68,252.5 121.82,252.23 122.2,251.61C122.86,250.52 124.09,248.63 124.98,247.14C125.85,245.68 126.82,243.94 127.51,242.78C127.97,242 128.28,241.54 128.69,240.85C129.15,240.08 129.6,239.26 130.14,238.36C130.8,237.26 131.89,235.52 132.36,234.75C132.58,234.39 132.62,234.32 132.84,233.95C133.36,233.07 134.9,230.48 135.46,229.54C135.72,229.1 135.79,228.99 136.04,228.57C136.51,227.77 137.39,226.21 138.03,225.12C138.61,224.14 139.24,223.14 139.72,222.33C140.08,221.72 140.27,221.38 140.67,220.71C141.34,219.59 142.49,217.74 143.37,216.26C144.23,214.8 145.2,213.05 145.89,211.88C146.35,211.09 146.66,210.59 147.07,209.89C147.52,209.12 147.96,208.35 148.49,207.46C149.15,206.35 150.31,204.46 150.75,203.72C150.94,203.41 150.95,203.37 151.14,203.05C151.62,202.23 153.15,199.64 153.74,198.64C154.04,198.13 154.14,197.96 154.42,197.47C154.9,196.66 155.7,195.28 156.33,194.22C156.93,193.21 157.61,192.07 158.1,191.26C158.44,190.69 158.6,190.43 158.97,189.81C159.63,188.72 160.82,186.77 161.70999999999998,185.27999999999997C162.58,183.83 163.56,182.14 164.25,180.98C164.72,180.19 165.03,179.69 165.45,178.99C165.92,178.22 166.39,177.46 166.93,176.57C167.59,175.49 168.65,173.77 169.13,172.99C169.37,172.61 169.42,172.54 169.66,172.15C170.22,171.26 171.89,168.56 172.4,167.74C172.6,167.42 172.62,167.39 172.81,167.08C173.27,166.34 174.5,164.39 175.17,163.32C175.67,162.52 176.02,161.95 176.48,161.24C176.97,160.48 177.46,159.75 178.01,158.91C178.67,157.91 179.62,156.43 180.16,155.62C180.48,155.14 180.59,154.99 180.93,154.49C181.6,153.51 182.88,151.6 183.89,150.15C184.92,148.67 186.44,146.52 187.03,145.67C187.26,145.34 187.29,145.29 187.52,144.97C188.06,144.22 189.59,142.16 190.26,141.25C190.65,140.72 190.8,140.49 191.19,139.98C191.81,139.16 192.99,137.71 193.67,136.84C194.14,136.23 194.39,135.88 194.87,135.29C195.53,134.47 196.61,133.23 197.29,132.42C197.78,131.84 198.04,131.49 198.55,130.91C199.27,130.09 200.54,128.76 201.21,128.01C201.63,127.55 201.77,127.34 202.22,126.87C203.02,126.02 204.5,124.55 205.70499999999998,123.395C206.95,122.21 208.75,120.56 209.58,119.85C209.96,119.53 210.07,119.47 210.43,119.18C211.1,118.64 212.27,117.59 213.25,116.86C214.23,116.12 215.67,115.22 216.3,114.77C216.59,114.56 216.63,114.51 216.93,114.31C217.64,113.84 219.37,112.77 220.61,112.1C221.82,111.45 223.04,110.88 224.26999999999998,110.345C225.49,109.82 226.72,109.32 227.96,108.91C229.18,108.51 230.41,108.18 231.64,107.92C232.86,107.66 234.08,107.46 235.31,107.34C236.53,107.22 237.76,107.16 238.99,107.18C240.22,107.2 241.45,107.29 242.67,107.45C243.9,107.62 245.13,107.85 246.34,108.17C247.58,108.5 248.98,108.99 250.02,109.4C250.81,109.72 251.43,110.04 252.07,110.35C252.65,110.62 253.06,110.79 253.7,111.15C254.69,111.71 256.41,112.82 257.37,113.51C258.02,113.98 258.39,114.3 258.95,114.77C259.61,115.32 260.34,115.93 261.05,116.61C261.85,117.38 262.83,118.43 263.5,119.18C263.99,119.73 264.27,120.07 264.73,120.65C265.36,121.45 266.23,122.64 266.87,123.6C267.44,124.46 267.94,125.34 268.4,126.12C268.79,126.79 269.06,127.24 269.45,128.01C270.03,129.16 270.96,131.24 271.42,132.42C271.72,133.2 271.85,133.69 272.08,134.38C272.34,135.15 272.62,135.89 272.88,136.84C273.23,138.09 273.63,139.77 273.9,141.25C274.17,142.72 274.36,144.19 274.5,145.67C274.64,147.14 274.72,148.61 274.73,150.08C274.74,151.55 274.69,153.02 274.59,154.49C274.49,155.96 274.33,157.44 274.11,158.91C273.89,160.39 273.61,161.85 273.28,163.32C272.94,164.8 272.53,166.28 272.085,167.75C271.64,169.23 271.18,170.69 270.63,172.15C270.08,173.63 269.18,175.71 268.78,176.57C268.61,176.93 268.57,176.97 268.4,177.32C268.03,178.08 267.28,179.79 266.66,180.98C266.05,182.14 265.18,183.57 264.73,184.37C264.49,184.81 264.44,184.93 264.17,185.39C263.58,186.39 262.21,188.55 261.21500000000003,190.04500000000002C260.26,191.48 259.03,193.25 258.32,194.22C257.93,194.76 257.76,194.94 257.37,195.44C256.75,196.25 255.64,197.78 254.96,198.64C254.48,199.24 254.18,199.56 253.7,200.14C253.03,200.95 251.99,202.25 251.31,203.05C250.82,203.62 250.52,203.92 250.02,204.49C249.3,205.3 248.08,206.71 247.4,207.46C246.97,207.93 246.78,208.11 246.34,208.58C245.58,209.39 243.88,211.23 243.25,211.88C242.98,212.16 242.95,212.18 242.67,212.46C241.97,213.17 240.17,215 238.93,216.23C237.72,217.44 236.12,218.98 235.31,219.78C234.9,220.19 234.78,220.33 234.38,220.71C233.71,221.36 232.47,222.5 231.64,223.29C230.94,223.95 230.33,224.54 229.7,225.12C229.11,225.67 228.62,226.1 227.96,226.7C227.07,227.51 225.45,228.99 224.83,229.54C224.57,229.77 224.54,229.79 224.28,230.02C223.6,230.63 221.35,232.65 220.61,233.32C220.29,233.61 220.23,233.67 219.91,233.95C219.26,234.53 217.83,235.8 216.93,236.59C216.19,237.24 215.55,237.8 214.91,238.36C214.33,238.87 213.91,239.23 213.25,239.8C212.28,240.63 210.88,241.82 209.67000000000002,242.86C208.43,243.93 206.81,245.36 205.9,246.15C205.39,246.6 205.16,246.78 204.69,247.19C204.01,247.77 203.06,248.6 202.22,249.32C201.34,250.07 200.18,251.04 199.51,251.61C199.11,251.95 198.97,252.07 198.55,252.43C197.72,253.13 195.56,254.95 194.87,255.54C194.6,255.77 194.57,255.79 194.31,256.02C193.69,256.55 192.12,257.93 191.19,258.73C190.45,259.37 189.81,259.89 189.17,260.43C188.59,260.93 188.18,261.3 187.52,261.86C186.54,262.68 185.08,263.84 183.865,264.875C182.63,265.93 181.09,267.32 180.16,268.12C179.6,268.6 179.32,268.82 178.81,269.26C178.14,269.84 177.3,270.59 176.48,271.29C175.58,272.06 174.27,273.12 173.61,273.68C173.26,273.98 173.18,274.06 172.81,274.38C172.03,275.05 169.86,276.89 169.13,277.52C168.82,277.79 168.77,277.83 168.47,278.09C167.83,278.65 166.37,279.97 165.45,280.76C164.7,281.41 164.02,281.95 163.38,282.51C162.81,283 162.43,283.37 161.78,283.92C160.82,284.75 159.35,285.91 158.14,286.95500000000004C156.9,288.03 155.33,289.5 154.42,290.29C153.91,290.74 153.67,290.91 153.2,291.33C152.52,291.93 151.59,292.81 150.75,293.54C149.9,294.28 148.82,295.16 148.14,295.75C147.7,296.13 147.54,296.3 147.07,296.71C146.19,297.48 144.47,298.91 143.225,300.015C142.02,301.08 140.66,302.38 139.72,303.22C139.09,303.77 138.7,304.08 138.14,304.58C137.49,305.16 136.8,305.83 136.04,306.5C135.15,307.28 133.77,308.41 133.12,308.99C132.78,309.29 132.71,309.37 132.36,309.68C131.6,310.37 129.37,312.35 128.69,312.94C128.43,313.16 128.4,313.18 128.15,313.4C127.53,313.95 125.91,315.52 125.01,316.33C124.36,316.92 123.88,317.29 123.29,317.82C122.65,318.39 122.06,318.99 121.33,319.64C120.44,320.44 118.96,321.66 118.32,322.23C118.02,322.5 117.97,322.56 117.66,322.85C116.93,323.52 114.67,325.55 113.98,326.16C113.71,326.4 113.68,326.41 113.42,326.65C112.8,327.21 111.19,328.77 110.3,329.58C109.66,330.16 109.19,330.53 108.61,331.06C107.97,331.64 107.36,332.27 106.63,332.93C105.76,333.72 104.35,334.88 103.7,335.47C103.36,335.78 103.3,335.87 102.95,336.19C102.19,336.89 99.9,338.92 99.27,339.49C99.05,339.69 99.04,339.69 98.83,339.89C98.25,340.43 96.49,342.14 95.6,342.95C95,343.5 94.6,343.8 94.05,344.3C93.39,344.9 92.68,345.63 91.92,346.33C91.07,347.1 89.86,348.11 89.19,348.72C88.79,349.09 88.67,349.23 88.24,349.62C87.4,350.39 85.66,351.88 84.425,353.01C83.22,354.11 81.8,355.5 80.89,356.33C80.33,356.84 80.02,357.08 79.5,357.55C78.83,358.16 78,358.99 77.21,359.71C76.38,360.46 75.3,361.35 74.63,361.96C74.18,362.37 74.02,362.56 73.54,363C72.67,363.8 71,365.19 69.765,366.28999999999996C68.55,367.38 67.11,368.75 66.18,369.57C65.6,370.08 65.27,370.32 64.74,370.79C64.07,371.38 63.3,372.14 62.51,372.84C61.64,373.61 60.38,374.61 59.71,375.2C59.33,375.54 59.23,375.67 58.83,376.02C58.03,376.72 55.9,378.48 55.15,379.08C54.83,379.34 54.76,379.37 54.45,379.62C53.8,380.14 52.44,381.3 51.47,382.06C50.58,382.76 49.55,383.5 48.88,384.03C48.44,384.38 48.29,384.58 47.8,384.92C46.95,385.51 45.17,387.24 44.12,387.06Z" style="stroke-miterlimit: 1; vector-effect: non-scaling-stroke; fill: none; stroke: rgb(112, 77, 54); stroke-opacity: 1; stroke-width: 2px;"/></g><g class="contourlevel"><path class="closedline" d="M51.47,376.41C50.97,376.27 50.6,375.77 50.47,375.2C50.26,374.25 51,372.39 51.519999999999996,370.985C52.09,369.45 53.17,367.63 53.85,366.37C54.33,365.47 54.74,364.83 55.15,364.08C55.54,363.36 55.81,362.79 56.27,361.96C56.94,360.74 57.94,358.97 58.795,357.495C59.64,356.03 60.68,354.26 61.37,353.13C61.82,352.4 62.11,352 62.51,351.34C62.99,350.55 63.5,349.64 64.06,348.72C64.7,347.67 65.69,346.17 66.18,345.36C66.46,344.91 66.52,344.78 66.81,344.3C67.42,343.3 68.78,341.17 69.71000000000001,339.66499999999996C70.59,338.23 71.56,336.6 72.27,335.47C72.76,334.7 73.1,334.23 73.54,333.54C74.03,332.77 74.49,331.94 75.05,331.06C75.7,330.03 76.7,328.56 77.21,327.75C77.5,327.29 77.58,327.14 77.89,326.65C78.52,325.65 79.87,323.61 80.81,322.115C81.72,320.67 82.75,318.92 83.45,317.82C83.9,317.12 84.17,316.76 84.57,316.12C85.08,315.32 85.65,314.33 86.24,313.4C86.87,312.41 87.72,311.16 88.24,310.34C88.58,309.8 88.71,309.57 89.08,308.99C89.75,307.95 91.01,306.09 91.945,304.62C92.88,303.15 94,301.22 94.68,300.16C95.06,299.56 95.25,299.32 95.6,298.76C96.12,297.95 96.83,296.73 97.45,295.75C98.05,294.8 98.76,293.76 99.27,292.95C99.66,292.34 99.85,291.99 100.27,291.33C100.96,290.24 102.12,288.52 103.045,287.07500000000005C103.99,285.59 105.22,283.53 105.87,282.51C106.2,281.99 106.32,281.82 106.63,281.33C107.14,280.52 107.97,279.11 108.61,278.09C109.19,277.16 109.8,276.25 110.3,275.46C110.71,274.81 110.95,274.4 111.4,273.68C112.1,272.57 113.21,270.91 114.11500000000001,269.475C115.06,267.97 116.34,265.85 116.97,264.85C117.28,264.36 117.37,264.23 117.66,263.77C118.16,262.97 119.03,261.47 119.68,260.43C120.25,259.51 120.84,258.63 121.33,257.84C121.74,257.18 121.99,256.75 122.45,256.02C123.15,254.91 124.24,253.25 125.14,251.815C126.08,250.31 127.33,248.21 127.97,247.19C128.29,246.68 128.39,246.54 128.69,246.06C129.19,245.25 130.04,243.82 130.68,242.78C131.26,241.84 131.86,240.9 132.36,240.1C132.76,239.46 132.99,239.07 133.43,238.36C134.12,237.25 135.23,235.55 136.135,234.1C137.06,232.61 138.27,230.59 138.92,229.54C139.27,228.98 139.4,228.77 139.72,228.25C140.22,227.44 140.99,226.14 141.62,225.12C142.22,224.15 142.88,223.1 143.39,222.29C143.77,221.69 143.97,221.37 144.38,220.71C145.07,219.62 146.21,217.83 147.12,216.37C148.04,214.89 149.21,212.96 149.87,211.88C150.24,211.27 150.4,211.02 150.75,210.46C151.25,209.65 151.98,208.45 152.6,207.46C153.21,206.49 153.91,205.38 154.42,204.57C154.79,203.98 154.98,203.69 155.38,203.05C156.06,201.97 157.23,200.18 158.14999999999998,198.71499999999997C159.09,197.23 160.3,195.26 160.96,194.22C161.31,193.66 161.45,193.45 161.78,192.93C162.3,192.12 163.13,190.81 163.77,189.81C164.35,188.9 164.94,187.97 165.45,187.18C165.88,186.52 166.16,186.1 166.63,185.39C167.31,184.36 168.65,182.3 169.13,181.58C169.32,181.29 169.34,181.27 169.54,180.98C170.07,180.19 171.98,177.33 172.47,176.57C172.64,176.31 172.64,176.3 172.81,176.04C173.27,175.34 174.76,173.16 175.44,172.15C175.87,171.51 176.07,171.18 176.48,170.59C177.04,169.78 177.86,168.65 178.5,167.74C179.08,166.91 179.62,166.09 180.16,165.33C180.66,164.63 181.1,164.06 181.64,163.32C182.3,162.41 183.24,161.08 183.84,160.27C184.25,159.72 184.46,159.47 184.89,158.91C185.57,158.02 186.9,156.2 187.52,155.41C187.84,155 187.94,154.9 188.27,154.49C188.93,153.67 190.57,151.54 191.19,150.79C191.47,150.46 191.53,150.41 191.81,150.08C192.45,149.34 194.2,147.17 194.87,146.42C195.18,146.07 195.26,146.01 195.57,145.67C196.22,144.96 197.79,143.14 198.55,142.34C198.99,141.87 199.2,141.7 199.64,141.25C200.32,140.56 201.41,139.34 202.22,138.56C202.89,137.91 203.5,137.42 204.12,136.84C204.73,136.28 205.19,135.77 205.9,135.14C206.86,134.29 208.18,133.2 209.385,132.255C210.63,131.28 212.13,130.12 213.25,129.36C214.07,128.8 214.79,128.43 215.45,128.01C215.99,127.67 216.32,127.41 216.93,127.05C217.87,126.5 219.36,125.69 220.61,125.12C221.84,124.55 223.13,124.06 224.375,123.625C225.58,123.21 226.75,122.84 227.96,122.56C229.17,122.28 230.41,122.07 231.64,121.94C232.86,121.81 234.09,121.76 235.31,121.8C236.54,121.84 237.77,121.96 238.99,122.18C240.23,122.4 241.8,122.84 242.67,123.13C243.17,123.3 243.36,123.41 243.81,123.6C244.49,123.89 245.44,124.23 246.34,124.72C247.47,125.33 249.17,126.46 250.02,127.09C250.51,127.45 250.68,127.62 251.12,128.01C251.81,128.63 252.96,129.71 253.7,130.51C254.31,131.17 254.74,131.69 255.29,132.42C255.96,133.31 256.86,134.69 257.37,135.51C257.7,136.04 257.84,136.26 258.14,136.84C258.67,137.87 259.61,139.9 260.12,141.25C260.53,142.34 260.81,143.47 261.05,144.29C261.21,144.84 261.3,145.08 261.44,145.67C261.68,146.72 262.05,148.61 262.23,150.08C262.41,151.55 262.51,153.02 262.54,154.49C262.57,155.96 262.53,157.44 262.43,158.91C262.33,160.38 262.14,161.86 261.91,163.32C261.68,164.77 261.38,166.18 261.03,167.625C260.67,169.12 260.26,170.66 259.78,172.15C259.3,173.64 258.63,175.43 258.17,176.57C257.87,177.3 257.65,177.69 257.37,178.34C257.02,179.13 256.72,179.99 256.25,180.98C255.62,182.32 254.66,184.13 253.83999999999997,185.625C253.05,187.06 252.15,188.66 251.44,189.81C250.92,190.65 250.49,191.22 250.02,191.95C249.54,192.69 249.13,193.41 248.58,194.22C247.93,195.18 246.92,196.51 246.34,197.33C245.97,197.86 245.83,198.1 245.44,198.64C244.78,199.54 243.26,201.42 242.67,202.2C242.38,202.58 242.34,202.67 242.04,203.05C241.41,203.85 239.61,205.96 238.99,206.72C238.71,207.06 238.68,207.13 238.4,207.46C237.78,208.2 235.99,210.19 235.31,210.98C234.97,211.38 234.89,211.49 234.55,211.88C233.9,212.62 232.39,214.21 231.64,215.03C231.17,215.54 230.96,215.8 230.5,216.29C229.83,217.01 228.72,218.13 227.96,218.93C227.34,219.58 226.88,220.1 226.29,220.71C225.66,221.36 224.98,222.01 224.28,222.71C223.52,223.47 222.58,224.45 221.9,225.12C221.41,225.61 221.14,225.87 220.61,226.38C219.77,227.2 217.95,228.98 217.37,229.54C217.16,229.74 217.15,229.75 216.93,229.95C216.3,230.55 213.9,232.82 213.25,233.46C213.01,233.7 213,233.72 212.76,233.95C212.16,234.53 210.44,236.14 209.58,236.95C208.99,237.51 208.64,237.85 208.09,238.36C207.43,238.97 206.66,239.68 205.9,240.38C205.07,241.15 203.98,242.16 203.3,242.78C202.86,243.18 202.69,243.34 202.22,243.76C201.35,244.55 199.72,246.01 198.485,247.13C197.27,248.24 195.76,249.63 194.87,250.45C194.34,250.94 194.1,251.16 193.61,251.61C192.94,252.22 192,253.06 191.19,253.79C190.37,254.53 189.38,255.41 188.7,256.02C188.23,256.44 188.03,256.63 187.52,257.08C186.62,257.88 185.01,259.27 183.775,260.375C182.55,261.47 181.07,262.85 180.16,263.67C179.61,264.16 179.34,264.4 178.84,264.85C178.17,265.45 177.29,266.25 176.48,266.97C175.64,267.72 174.56,268.66 173.88,269.26C173.44,269.65 173.28,269.8 172.81,270.22C171.93,271 170.25,272.45 169.005,273.565C167.79,274.65 166.37,275.98 165.45,276.81C164.87,277.34 164.54,277.61 164.01,278.09C163.35,278.69 162.56,279.42 161.78,280.12C160.92,280.89 159.72,281.91 159.05,282.51C158.65,282.86 158.52,282.98 158.1,283.36C157.25,284.12 155.5,285.64 154.25,286.765C153.05,287.85 151.68,289.15 150.75,289.99C150.14,290.54 149.78,290.84 149.23,291.33C148.57,291.92 147.84,292.63 147.07,293.32C146.21,294.09 144.96,295.15 144.29,295.75C143.91,296.09 143.8,296.2 143.39,296.57C142.55,297.32 140.79,298.86 139.54000000000002,300C138.34,301.09 136.97,302.42 136.04,303.26C135.44,303.8 135.09,304.09 134.55,304.58C133.89,305.18 133.13,305.91 132.36,306.61C131.51,307.38 130.33,308.38 129.66,308.99C129.25,309.36 129.12,309.5 128.69,309.9C127.84,310.67 126.12,312.15 124.88,313.28499999999997C123.67,314.39 122.23,315.79 121.33,316.62C120.78,317.12 120.49,317.36 119.99,317.82C119.32,318.44 118.46,319.28 117.66,320.01C116.84,320.75 115.83,321.61 115.15,322.23C114.68,322.66 114.48,322.87 113.98,323.33C113.09,324.14 111.49,325.5 110.265,326.615C109.04,327.74 107.5,329.25 106.63,330.05C106.15,330.49 105.95,330.65 105.5,331.06C104.82,331.69 103.78,332.71 102.95,333.47C102.18,334.17 101.35,334.86 100.69,335.47C100.16,335.96 99.86,336.28 99.27,336.82C98.35,337.66 96.9,338.9 95.695,339.985C94.45,341.12 92.76,342.73 91.92,343.49C91.51,343.86 91.39,343.95 91,344.3C90.32,344.92 89.1,346.12 88.24,346.9C87.51,347.57 86.82,348.14 86.18,348.72C85.61,349.24 85.22,349.65 84.57,350.24C83.63,351.09 82.27,352.25 81.08,353.31C79.82,354.43 78.05,356.05 77.21,356.79C76.82,357.14 76.7,357.22 76.33,357.55C75.66,358.15 74.42,359.31 73.54,360.09C72.77,360.77 72.01,361.38 71.35,361.96C70.8,362.44 70.47,362.78 69.86,363.32C68.92,364.15 67.45,365.39 66.225,366.40999999999997C65,367.43 63.53,368.64 62.51,369.44C61.82,369.99 61.34,370.32 60.74,370.79C60.11,371.29 59.59,371.77 58.83,372.35C57.78,373.16 56.29,374.46 54.989999999999995,375.145C53.83,375.76 52.24,376.62 51.47,376.41Z" style="stroke-miterlimit: 1; vector-effect: non-scaling-stroke; fill: none; stroke: rgb(138, 93, 57); stroke-opacity: 1; stroke-width: 2px;"/></g><g class="contourlevel"><path class="closedline" d="M58.83,366.96C58.59,366.89 58.4,366.65 58.34,366.37C58.24,365.92 58.66,365.08 58.83,364.38C59.01,363.61 59.08,362.87 59.39,361.96C59.83,360.69 60.87,358.7 61.46,357.55C61.85,356.79 62.14,356.35 62.51,355.68C62.94,354.9 63.34,354.09 63.86,353.13C64.54,351.88 65.42,350.29 66.25,348.85C67.11,347.35 68.26,345.4 68.93,344.3C69.31,343.67 69.51,343.41 69.86,342.83C70.36,342.02 71.01,340.88 71.61,339.89C72.23,338.88 73.04,337.65 73.54,336.83C73.87,336.29 73.99,336.05 74.35,335.47C75,334.41 76.24,332.47 77.16,330.985C78.06,329.53 79.14,327.75 79.83,326.65C80.26,325.97 80.5,325.64 80.89,325.02C81.4,324.22 82.01,323.17 82.61,322.23C83.24,321.24 84.05,320.05 84.57,319.23C84.92,318.68 85.06,318.42 85.44,317.82C86.11,316.76 87.34,314.92 88.275,313.455C89.21,311.98 90.39,310.04 91.06,308.99C91.42,308.42 91.58,308.2 91.92,307.67C92.44,306.86 93.22,305.57 93.85,304.58C94.44,303.65 95.09,302.71 95.6,301.91C96.01,301.27 96.24,300.86 96.69,300.16C97.39,299.06 98.5,297.42 99.425,295.99C100.39,294.48 101.76,292.27 102.37,291.33C102.64,290.92 102.7,290.84 102.95,290.45C103.45,289.67 104.48,287.96 105.15,286.92C105.69,286.08 106.15,285.41 106.63,284.66C107.09,283.94 107.47,283.31 107.98,282.51C108.65,281.47 109.79,279.73 110.3,278.95C110.55,278.57 110.59,278.49 110.85,278.09C111.45,277.16 112.88,274.96 113.83500000000001,273.45500000000004C114.74,272.03 115.74,270.38 116.45,269.26C116.93,268.51 117.23,268.07 117.66,267.4C118.16,266.62 118.69,265.75 119.26,264.85C119.9,263.84 120.81,262.46 121.33,261.65C121.65,261.15 121.77,260.96 122.11,260.43C122.77,259.41 124.05,257.48 124.995,256C125.93,254.54 127.05,252.69 127.73,251.61C128.13,250.98 128.32,250.69 128.69,250.11C129.21,249.3 129.92,248.16 130.53,247.19C131.14,246.24 131.84,245.16 132.36,244.35C132.74,243.75 132.94,243.43 133.36,242.78C134.05,241.7 135.21,239.96 136.135,238.51C137.09,237.02 138.38,234.95 139.02,233.95C139.33,233.46 139.42,233.32 139.72,232.86C140.23,232.05 141.18,230.56 141.83,229.54C142.39,228.66 142.89,227.87 143.39,227.1C143.84,226.4 144.18,225.88 144.67,225.12C145.34,224.08 146.57,222.18 147.07,221.43C147.29,221.1 147.32,221.05 147.55,220.71C148.11,219.86 149.92,217.04 150.41,216.29C150.58,216.03 150.58,216.02 150.75,215.77C151.2,215.08 152.58,212.93 153.26,211.88C153.72,211.17 153.99,210.73 154.42,210.08C154.94,209.29 155.56,208.36 156.15,207.46C156.78,206.5 157.56,205.31 158.1,204.5C158.48,203.93 158.67,203.66 159.08,203.05C159.78,202.01 160.95,200.27 161.91500000000002,198.82999999999998C162.93,197.33 164.46,195.06 165.02,194.22C165.23,193.9 165.24,193.87 165.45,193.56C165.95,192.82 167.35,190.8 168.03,189.81C168.48,189.16 168.71,188.79 169.13,188.18C169.69,187.37 170.48,186.29 171.11,185.39C171.7,184.55 172.26,183.72 172.81,182.95C173.31,182.26 173.72,181.71 174.25,180.98C174.91,180.06 175.88,178.67 176.48,177.86C176.87,177.33 177.07,177.11 177.48,176.57C178.16,175.67 179.57,173.71 180.16,172.94C180.44,172.58 180.5,172.52 180.79,172.15C181.43,171.34 183.3,168.87 183.84,168.2C184.03,167.97 184.04,167.97 184.23,167.74C184.81,167.04 186.5,164.89 187.66500000000002,163.49C188.82,162.09 190.59,160.01 191.19,159.34C191.39,159.12 191.4,159.13 191.6,158.91C192.17,158.29 194.15,156.03 194.87,155.27C195.21,154.91 195.31,154.84 195.65,154.49C196.31,153.82 197.72,152.29 198.55,151.49C199.13,150.92 199.54,150.6 200.09,150.08C200.75,149.46 201.45,148.71 202.22,148.02C203.08,147.25 204.39,146.24 205.05,145.67C205.42,145.35 205.51,145.23 205.9,144.91C206.69,144.26 208.63,142.79 209.58,142.14C210.15,141.75 210.48,141.59 211,141.25C211.67,140.82 212.39,140.26 213.25,139.75C214.31,139.11 215.83,138.3 216.93,137.78C217.77,137.38 218.56,137.12 219.23,136.84C219.75,136.62 220.03,136.44 220.61,136.23C221.53,135.89 223.05,135.42 224.28,135.14C225.5,134.86 226.73,134.66 227.96,134.56C229.18,134.46 230.42,134.45 231.64,134.54C232.87,134.63 234.1,134.82 235.31,135.13C236.55,135.45 238.27,136.14 238.99,136.47C239.31,136.62 239.35,136.66 239.65,136.84C240.3,137.23 241.73,138.06 242.67,138.8C243.6,139.53 244.6,140.54 245.26,141.25C245.72,141.74 245.94,142.01 246.34,142.55C246.93,143.35 247.77,144.57 248.38,145.67C249.01,146.81 249.69,148.52 250.02,149.29C250.17,149.65 250.21,149.7 250.33,150.08C250.61,150.95 251.17,153.01 251.44,154.49C251.71,155.95 251.86,157.44 251.94,158.91C252.02,160.38 252,161.85 251.92,163.32C251.84,164.79 251.66,166.27 251.43,167.74C251.2,169.22 250.8,171.04 250.52,172.15C250.35,172.84 250.2,173.19 250.02,173.81C249.79,174.61 249.57,175.55 249.24,176.57C248.81,177.88 248.14,179.7 247.6,180.98C247.17,182 246.7,182.88 246.34,183.68C246.06,184.31 245.93,184.69 245.6,185.39C245.06,186.53 243.83,188.86 243.29,189.81C243.03,190.28 242.93,190.39 242.67,190.83C242.2,191.63 241.35,193.18 240.7,194.22C240.12,195.15 239.5,196 238.99,196.79C238.56,197.45 238.3,197.94 237.82,198.64C237.15,199.63 235.87,201.32 235.31,202.11C235.02,202.52 234.97,202.64 234.67,203.05C234.04,203.92 232.16,206.3 231.64,206.98C231.46,207.22 231.47,207.22 231.28,207.46C230.72,208.17 228.99,210.3 227.82,211.7C226.66,213.09 224.86,215.14 224.28,215.83C224.09,216.06 224.09,216.07 223.9,216.29C223.35,216.93 221.29,219.18 220.61,219.95C220.3,220.3 220.25,220.37 219.95,220.71C219.31,221.42 217.68,223.12 216.93,223.93C216.48,224.42 216.29,224.65 215.85,225.12C215.18,225.84 214.01,227 213.25,227.8C212.64,228.44 212.19,228.94 211.61,229.54C210.97,230.2 210.28,230.87 209.58,231.58C208.83,232.34 207.92,233.28 207.25,233.95C206.74,234.46 206.44,234.74 205.9,235.27C205.07,236.08 203.39,237.76 202.77,238.36C202.51,238.61 202.49,238.63 202.22,238.89C201.52,239.57 199.64,241.41 198.385,242.62C197.19,243.78 195.74,245.18 194.87,246.02C194.36,246.51 194.14,246.73 193.66,247.19C192.98,247.84 191.99,248.78 191.19,249.54C190.44,250.25 189.68,250.99 189.02,251.61C188.48,252.12 188.12,252.46 187.52,253.01C186.65,253.82 184.86,255.48 184.28,256.02C184.07,256.22 184.06,256.22 183.84,256.42C183.21,257 180.86,259.2 180.16,259.86C179.87,260.13 179.84,260.17 179.56,260.43C178.93,261.02 177.35,262.51 176.48,263.32C175.85,263.91 175.42,264.31 174.84,264.85C174.2,265.44 173.54,266.06 172.81,266.73C171.96,267.51 170.71,268.64 170.04,269.26C169.65,269.61 169.54,269.73 169.13,270.1C168.3,270.86 166.57,272.42 165.32999999999998,273.565C164.12,274.68 162.68,276.06 161.78,276.89C161.24,277.39 160.97,277.63 160.47,278.09C159.8,278.71 158.9,279.57 158.1,280.3C157.3,281.04 156.35,281.89 155.67,282.51C155.18,282.95 154.95,283.18 154.42,283.66C153.52,284.47 151.98,285.82 150.765,286.935C149.53,288.07 147.92,289.61 147.07,290.4C146.63,290.81 146.47,290.94 146.05,291.33C145.37,291.96 144.23,293.06 143.39,293.83C142.65,294.52 141.92,295.15 141.27,295.75C140.71,296.26 140.34,296.63 139.72,297.2C138.79,298.05 137.41,299.25 136.225,300.33500000000004C134.96,301.48 133.13,303.2 132.36,303.92C132.03,304.23 131.97,304.28 131.65,304.58C131,305.19 129.56,306.57 128.69,307.37C128.02,307.99 127.49,308.43 126.89,308.99C126.27,309.56 125.71,310.12 125.01,310.76C124.14,311.56 122.72,312.8 122.07,313.4C121.74,313.71 121.68,313.78 121.33,314.1C120.55,314.83 118.71,316.47 117.46000000000001,317.635C116.26,318.75 114.9,320.08 113.98,320.92C113.39,321.46 113.05,321.74 112.52,322.23C111.85,322.84 111.07,323.62 110.3,324.33C109.48,325.09 108.39,326.03 107.72,326.65C107.28,327.06 107.11,327.24 106.63,327.68C105.76,328.48 104.13,329.9 102.905,331.02C101.68,332.14 100.15,333.61 99.27,334.42C98.78,334.87 98.56,335.05 98.1,335.47C97.42,336.09 96.42,337.07 95.6,337.82C94.81,338.54 93.94,339.28 93.27,339.89C92.76,340.36 92.48,340.65 91.92,341.16C91.01,341.99 89.52,343.28 88.305,344.36C87.07,345.47 85.46,346.95 84.57,347.74C84.09,348.17 83.89,348.32 83.44,348.72C82.76,349.32 81.74,350.28 80.89,351.03C80.07,351.75 79.11,352.53 78.44,353.13C77.96,353.56 77.74,353.79 77.21,354.25C76.3,355.05 74.67,356.43 73.42500000000001,357.46500000000003C72.23,358.46 70.9,359.51 69.86,360.33C69.07,360.95 68.39,361.45 67.74,361.96C67.18,362.4 66.82,362.75 66.18,363.22C65.23,363.93 63.58,365.17 62.51,365.7C61.77,366.07 61.13,366.15 60.49,366.37C59.91,366.57 59.2,367.06 58.83,366.96Z" style="stroke-miterlimit: 1; vector-effect: non-scaling-stroke; fill: none; stroke: rgb(161, 112, 59); stroke-opacity: 1; stroke-width: 2px;"/></g><g class="contourlevel"><path class="closedline" d="M66.18,358.3C65.87,358.21 65.64,357.9 65.56,357.55C65.43,356.97 65.99,355.76 66.18,354.97C66.34,354.31 66.35,353.86 66.61,353.13C67.03,351.96 68.14,349.89 68.75,348.72C69.17,347.92 69.48,347.43 69.86,346.73C70.28,345.96 70.66,345.22 71.16,344.3C71.84,343.06 72.74,341.42 73.58000000000001,339.96500000000003C74.44,338.47 75.58,336.57 76.25,335.47C76.65,334.82 76.85,334.53 77.21,333.94C77.71,333.13 78.34,332.03 78.94,331.06C79.57,330.04 80.39,328.78 80.89,327.96C81.21,327.43 81.33,327.22 81.68,326.65C82.33,325.6 83.58,323.63 84.50999999999999,322.145C85.42,320.69 86.51,318.91 87.2,317.82C87.62,317.15 87.85,316.82 88.24,316.21C88.75,315.4 89.39,314.35 89.99,313.4C90.61,312.42 91.4,311.25 91.92,310.44C92.28,309.87 92.44,309.6 92.83,308.99C93.51,307.93 94.71,306.12 95.65,304.66499999999996C96.6,303.18 97.84,301.18 98.49,300.16C98.83,299.63 98.95,299.46 99.27,298.96C99.79,298.15 100.65,296.75 101.3,295.75C101.87,294.86 102.45,294.02 102.95,293.24C103.39,292.56 103.68,292.07 104.16,291.33C104.83,290.29 106.15,288.33 106.63,287.59C106.83,287.28 106.85,287.24 107.06,286.92C107.59,286.1 109.4,283.31 109.91,282.51C110.1,282.21 110.11,282.19 110.3,281.9C110.76,281.17 112.04,279.14 112.72,278.09C113.2,277.34 113.54,276.85 113.98,276.17C114.48,275.39 115.01,274.56 115.58,273.68C116.23,272.69 117.13,271.33 117.66,270.51C117.99,270 118.12,269.8 118.47,269.26C119.13,268.24 120.4,266.35 121.35499999999999,264.885C122.31,263.41 123.53,261.46 124.19,260.43C124.54,259.88 124.68,259.69 125.01,259.18C125.54,258.37 126.41,257.01 127.05,256.02C127.62,255.14 128.18,254.3 128.69,253.52C129.13,252.84 129.45,252.35 129.93,251.61C130.6,250.58 131.86,248.69 132.36,247.93C132.59,247.59 132.62,247.54 132.85,247.19C133.43,246.31 134.91,244.06 135.89499999999998,242.55C136.83,241.12 137.9,239.44 138.61,238.36C139.06,237.67 139.31,237.3 139.72,236.67C140.25,235.87 140.91,234.87 141.51,233.95C142.13,233.01 142.85,231.91 143.39,231.1C143.79,230.5 144.02,230.18 144.45,229.54C145.13,228.53 146.61,226.31 147.07,225.62C147.24,225.37 147.24,225.37 147.41,225.12C147.91,224.38 149.84,221.5 150.36,220.71C150.55,220.42 150.56,220.4 150.75,220.12C151.23,219.4 152.64,217.3 153.32,216.29C153.76,215.63 154,215.26 154.42,214.64C154.97,213.84 155.71,212.79 156.33,211.88C156.93,211 157.56,210.06 158.1,209.27C158.56,208.61 158.88,208.16 159.37,207.46C160.05,206.49 161.22,204.79 161.78,204C162.07,203.58 162.15,203.48 162.46,203.05C163.11,202.13 164.49,200.19 165.52499999999998,198.735C166.59,197.25 168.25,194.98 168.78,194.22C168.96,193.97 168.95,193.96 169.13,193.71C169.63,193.02 171.37,190.71 172.03,189.81C172.38,189.34 172.47,189.18 172.81,188.72C173.41,187.91 174.7,186.28 175.37,185.39C175.82,184.79 176.04,184.47 176.48,183.89C177.11,183.07 178.14,181.83 178.81,180.98C179.32,180.33 179.65,179.87 180.16,179.23C180.8,178.43 181.73,177.37 182.39,176.57C182.93,175.91 183.29,175.41 183.84,174.76C184.51,173.96 185.47,172.92 186.14,172.15C186.66,171.54 186.98,171.12 187.52,170.51C188.24,169.7 189.43,168.48 190.1,167.74C190.54,167.25 190.72,167 191.19,166.5C191.96,165.68 193.74,163.94 194.35,163.32C194.6,163.06 194.61,163.03 194.87,162.77C195.54,162.11 197.88,159.9 198.55,159.32C198.79,159.11 198.81,159.11 199.05,158.91C199.65,158.4 201.24,156.95 202.22,156.16C203.02,155.52 203.82,154.99 204.48,154.49C205.01,154.09 205.3,153.81 205.9,153.38C206.83,152.72 208.57,151.57 209.58,150.98C210.25,150.59 210.7,150.4 211.29,150.08C211.92,149.74 212.48,149.35 213.25,148.98C214.27,148.48 215.69,147.88 216.93,147.45C218.14,147.03 219.37,146.67 220.61,146.42C221.83,146.17 223.05,145.99 224.28,145.95C225.5,145.91 226.74,145.95 227.96,146.15C229.2,146.36 230.45,146.69 231.64,147.2C232.9,147.74 234.54,148.79 235.31,149.35C235.7,149.63 235.8,149.73 236.14,150.08C236.83,150.79 238.41,152.69 238.99,153.5C239.29,153.92 239.37,154.03 239.6,154.49C240.07,155.42 240.94,157.42 241.39,158.91C241.82,160.36 242.09,161.84 242.26,163.32C242.43,164.79 242.47,166.27 242.43,167.74C242.39,169.21 242.25,170.68 242.04,172.15C241.83,173.63 241.53,175.11 241.18,176.57C240.82,178.05 240.32,179.75 239.9,180.98C239.59,181.89 239.28,182.57 238.99,183.33C238.72,184.04 238.57,184.58 238.24,185.39C237.75,186.59 236.8,188.69 236.24,189.81C235.89,190.52 235.65,190.87 235.31,191.51C234.89,192.31 234.47,193.25 233.93,194.22C233.28,195.39 232.06,197.32 231.64,198.04C231.47,198.33 231.48,198.35 231.3,198.64C230.81,199.44 228.97,202.25 228.42,203.05C228.21,203.36 228.17,203.38 227.96,203.68C227.44,204.41 226,206.53 225.31,207.46C224.9,208.02 224.69,208.24 224.28,208.78C223.66,209.59 222.65,211.02 221.97,211.88C221.47,212.52 221.11,212.91 220.61,213.53C219.96,214.33 219.1,215.48 218.43,216.29C217.89,216.94 217.48,217.38 216.93,218.03C216.26,218.82 215.38,219.93 214.71,220.71C214.18,221.32 213.79,221.71 213.25,222.33C212.54,223.13 211.51,224.36 210.83,225.12C210.35,225.65 210.08,225.92 209.58,226.46C208.83,227.27 207.48,228.82 206.8,229.54C206.42,229.94 206.29,230.06 205.9,230.47C205.15,231.26 203.23,233.35 202.65,233.95C202.44,234.16 202.43,234.16 202.22,234.38C201.59,235.03 199.71,237 198.47,238.275C197.26,239.52 195.63,241.16 194.87,241.95C194.51,242.32 194.43,242.42 194.08,242.78C193.42,243.45 191.99,244.85 191.19,245.66C190.61,246.25 190.24,246.64 189.69,247.19C189.04,247.84 188.25,248.6 187.52,249.32C186.76,250.07 185.88,250.95 185.21,251.61C184.7,252.11 184.39,252.4 183.84,252.93C183,253.74 181.25,255.45 180.65,256.02C180.42,256.24 180.4,256.25 180.16,256.48C179.5,257.11 177.09,259.43 176.48,260.03C176.27,260.23 176.27,260.23 176.07,260.43C175.5,260.98 173.65,262.76 172.81,263.58C172.28,264.1 172,264.37 171.5,264.85C170.83,265.5 169.91,266.37 169.13,267.11C168.37,267.84 167.53,268.63 166.86,269.26C166.33,269.76 166.02,270.05 165.45,270.59C164.55,271.44 163.16,272.73 161.97,273.855C160.71,275.04 158.83,276.82 158.1,277.51C157.81,277.79 157.77,277.82 157.49,278.09C156.86,278.69 155.28,280.2 154.42,281.01C153.8,281.59 153.4,281.98 152.83,282.51C152.18,283.12 151.49,283.79 150.75,284.48C149.92,285.25 148.79,286.29 148.11,286.92C147.68,287.32 147.53,287.48 147.07,287.9C146.22,288.69 144.58,290.15 143.36,291.29999999999995C142.13,292.45 140.57,293.98 139.72,294.78C139.27,295.21 139.11,295.35 138.68,295.75C138,296.39 136.87,297.48 136.04,298.25C135.31,298.93 134.61,299.56 133.96,300.16C133.39,300.69 132.99,301.09 132.36,301.67C131.48,302.48 129.79,304.02 129.19,304.58C128.95,304.8 128.93,304.82 128.69,305.05C128.03,305.67 125.7,307.83 125.01,308.47C124.74,308.72 124.71,308.74 124.45,308.99C123.83,309.57 122.2,311.14 121.33,311.95C120.71,312.52 120.3,312.88 119.74,313.4C119.09,314.01 118.4,314.69 117.66,315.38C116.83,316.16 115.66,317.19 114.98,317.82C114.56,318.2 114.42,318.35 113.98,318.76C113.13,319.54 111.46,321.03 110.22999999999999,322.165C109.01,323.29 107.51,324.73 106.63,325.55C106.12,326.02 105.89,326.21 105.42,326.65C104.74,327.28 103.77,328.21 102.95,328.96C102.16,329.68 101.28,330.45 100.61,331.06C100.1,331.53 99.83,331.81 99.27,332.32C98.36,333.15 96.88,334.45 95.66999999999999,335.54C94.43,336.65 92.8,338.15 91.92,338.93C91.45,339.35 91.26,339.5 90.82,339.89C90.14,340.5 89.09,341.48 88.24,342.23C87.43,342.95 86.51,343.71 85.84,344.3C85.35,344.74 85.11,344.98 84.57,345.46C83.66,346.27 82.07,347.64 80.825,348.67C79.62,349.67 78.24,350.76 77.21,351.57C76.44,352.17 75.83,352.63 75.19,353.13C74.61,353.59 74.21,353.96 73.54,354.46C72.57,355.19 70.85,356.53 69.86,357.03C69.27,357.33 68.88,357.36 68.33,357.55C67.67,357.78 66.65,358.43 66.18,358.3Z" style="stroke-miterlimit: 1; vector-effect: non-scaling-stroke; fill: none; stroke: rgb(180, 134, 64); stroke-opacity: 1; stroke-width: 2px;"/></g><g class="contourlevel"><path class="closedline" d="M73.54,350.14C72.96,349.99 72.5,349.38 72.35,348.72C72.12,347.68 72.94,345.7 73.51,344.25C74.1,342.75 75.17,341.13 75.85,339.89C76.36,338.95 76.79,338.21 77.21,337.44C77.59,336.75 77.84,336.26 78.27,335.47C78.93,334.27 79.96,332.44 80.825,330.95500000000004C81.68,329.5 82.73,327.78 83.43,326.65C83.88,325.92 84.16,325.5 84.57,324.84C85.06,324.05 85.58,323.15 86.15,322.23C86.79,321.19 87.74,319.71 88.24,318.9C88.52,318.44 88.6,318.3 88.9,317.82C89.52,316.82 90.85,314.72 91.80000000000001,313.215C92.71,311.78 93.75,310.09 94.46,308.99C94.92,308.28 95.19,307.89 95.6,307.24C96.11,306.45 96.69,305.5 97.28,304.58C97.91,303.59 98.74,302.34 99.27,301.52C99.62,300.98 99.76,300.74 100.14,300.16C100.81,299.12 102.04,297.27 102.985,295.805C103.94,294.33 105.18,292.34 105.84,291.33C106.18,290.8 106.31,290.64 106.63,290.14C107.16,289.33 108.04,287.92 108.69,286.92C109.26,286.05 109.8,285.25 110.3,284.48C110.75,283.79 111.09,283.27 111.58,282.51C112.25,281.48 113.47,279.65 113.98,278.88C114.22,278.52 114.25,278.46 114.5,278.09C115.09,277.19 116.55,274.99 117.53,273.485C118.47,272.05 119.56,270.34 120.26,269.26C120.7,268.59 120.93,268.25 121.33,267.64C121.86,266.84 122.55,265.78 123.16,264.85C123.77,263.92 124.48,262.88 125.01,262.07C125.42,261.45 125.65,261.09 126.09,260.43C126.77,259.41 128.22,257.26 128.69,256.56C128.87,256.3 128.87,256.29 129.05,256.02C129.56,255.26 131.46,252.4 131.98,251.61C132.17,251.32 132.18,251.3 132.36,251.02C132.83,250.3 134.22,248.21 134.9,247.19C135.36,246.5 135.62,246.11 136.04,245.47C136.57,244.67 137.24,243.68 137.85,242.78C138.47,241.86 139.17,240.8 139.72,240C140.14,239.38 140.39,239.02 140.84,238.36C141.52,237.37 142.88,235.35 143.39,234.61C143.6,234.3 143.63,234.27 143.85,233.95C144.43,233.11 145.95,230.89 146.97,229.39C147.96,227.94 149.21,226.12 149.89,225.12C150.26,224.58 150.39,224.37 150.75,223.86C151.31,223.04 152.3,221.66 152.96,220.71C153.5,219.93 153.91,219.3 154.42,218.58C154.95,217.83 155.49,217.1 156.07,216.29C156.71,215.38 157.52,214.21 158.1,213.4C158.53,212.81 158.78,212.5 159.23,211.88C159.91,210.94 161.21,209.1 161.78,208.32C162.06,207.93 162.13,207.86 162.43,207.46C163.09,206.58 164.49,204.65 165.57,203.2C166.7,201.68 167.91,200.08 169.075,198.56C170.2,197.09 171.88,194.95 172.44,194.22C172.63,193.98 172.62,193.97 172.81,193.73C173.34,193.05 175.37,190.58 175.97,189.81C176.22,189.5 176.23,189.45 176.48,189.14C177.08,188.39 179.03,186.13 179.64,185.39C179.89,185.09 179.9,185.04 180.16,184.74C180.8,183.97 182.46,182.1 183.66,180.765C184.91,179.38 186.25,177.93 187.53,176.57999999999998C188.76,175.29 190.41,173.59 191.19,172.85C191.54,172.52 191.64,172.46 191.98,172.15C192.65,171.54 193.98,170.2 194.87,169.41C195.59,168.77 196.26,168.28 196.9,167.74C197.48,167.24 197.87,166.84 198.55,166.29C199.55,165.48 201.13,164.31 202.39,163.425C203.57,162.6 204.7,161.84 205.9,161.13C207.1,160.42 208.82,159.52 209.58,159.18C209.9,159.03 209.97,159.03 210.29,158.91C210.94,158.65 212.2,158.04 213.25,157.7C214.4,157.33 215.7,156.99 216.93,156.81C218.15,156.63 219.39,156.52 220.61,156.59C221.84,156.66 223.1,156.85 224.28,157.25C225.49,157.66 226.69,158.15 227.79000000000002,159.02499999999998C229.14,160.1 230.66,161.97 231.54,163.52499999999998C232.31,164.89 232.68,166.3 233.02,167.74C233.36,169.18 233.51,170.68 233.57,172.15C233.63,173.62 233.54,175.1 233.39,176.57C233.24,178.05 232.95,179.6 232.64,180.98C232.36,182.24 231.85,183.76 231.64,184.54C231.54,184.92 231.53,185 231.41,185.39C231.12,186.29 230.38,188.37 229.79,189.81C229.2,191.24 228.57,192.59 227.875,194.01999999999998C227.14,195.53 226.17,197.43 225.49,198.64C225.04,199.44 224.69,199.91 224.28,200.61C223.83,201.38 223.43,202.17 222.89,203.05C222.24,204.11 221.12,205.73 220.61,206.52C220.35,206.93 220.3,207.04 220.02,207.46C219.4,208.39 218,210.39 216.92000000000002,211.865C215.8,213.4 214.59,215.01 213.43,216.51C212.32,217.95 210.76,219.93 210.12,220.71C209.87,221.02 209.83,221.04 209.58,221.34C208.97,222.07 207.07,224.4 206.45,225.12C206.2,225.42 206.16,225.44 205.9,225.74C205.26,226.47 203.2,228.9 202.63,229.54C202.43,229.76 202.42,229.76 202.22,229.98C201.61,230.65 199.84,232.66 198.61,234.015C197.35,235.41 196.01,236.86 194.745,238.22000000000003C193.54,239.51 191.92,241.2 191.19,241.99C190.86,242.35 190.8,242.43 190.48,242.78C189.84,243.47 188.3,245.02 187.52,245.84C187.01,246.38 186.74,246.68 186.25,247.19C185.58,247.89 184.59,248.86 183.84,249.63C183.16,250.32 182.56,250.97 181.93,251.61C181.33,252.22 180.81,252.71 180.16,253.36C179.37,254.15 178.21,255.34 177.53,256.02C177.1,256.45 176.93,256.6 176.48,257.05C175.65,257.87 174.14,259.36 172.935,260.55C171.69,261.78 169.83,263.61 169.13,264.3C168.86,264.56 168.84,264.59 168.58,264.85C167.96,265.46 166.28,267.09 165.45,267.91C164.9,268.45 164.6,268.76 164.09,269.26C163.42,269.91 162.55,270.76 161.78,271.5C161.03,272.23 160.2,273.04 159.53,273.68C159,274.19 158.67,274.5 158.1,275.05C157.25,275.86 155.51,277.52 154.91,278.09C154.68,278.31 154.66,278.33 154.42,278.56C153.77,279.19 151.38,281.46 150.75,282.07C150.53,282.29 150.52,282.3 150.3,282.51C149.72,283.08 147.92,284.81 147.07,285.62C146.52,286.15 146.22,286.43 145.71,286.92C145.04,287.56 144.16,288.4 143.39,289.14C142.62,289.87 141.74,290.7 141.07,291.33C140.56,291.82 140.28,292.09 139.72,292.62C138.82,293.46 137.4,294.78 136.2,295.9C134.95,297.08 133.11,298.83 132.36,299.54C132.05,299.83 132,299.88 131.7,300.16C131.06,300.77 129.55,302.23 128.69,303.04C128.06,303.64 127.62,304.04 127.04,304.58C126.4,305.19 125.74,305.83 125.01,306.51C124.18,307.29 123.01,308.36 122.33,308.99C121.92,309.38 121.77,309.52 121.33,309.93C120.48,310.72 118.84,312.21 117.61,313.36C116.39,314.5 114.85,315.97 113.98,316.78C113.5,317.23 113.3,317.4 112.85,317.82C112.17,318.45 111.12,319.45 110.3,320.21C109.54,320.91 108.74,321.62 108.08,322.23C107.54,322.73 107.22,323.05 106.63,323.6C105.72,324.45 104.3,325.71 103.105,326.79499999999996C101.85,327.93 100.11,329.52 99.27,330.27C98.87,330.63 98.75,330.72 98.37,331.06C97.7,331.66 96.47,332.8 95.6,333.57C94.83,334.25 94.08,334.88 93.42,335.47C92.87,335.96 92.53,336.29 91.92,336.84C90.98,337.68 89.55,338.94 88.33,339.97C87.1,341.01 85.57,342.24 84.57,343.03C83.92,343.55 83.5,343.85 82.93,344.3C82.28,344.81 81.67,345.32 80.89,345.94C79.86,346.76 78.53,348.04 77.255,348.75C76.07,349.41 74.39,350.36 73.54,350.14Z" style="stroke-miterlimit: 1; vector-effect: non-scaling-stroke; fill: none; stroke: rgb(195, 161, 78); stroke-opacity: 1; stroke-width: 2px;"/></g><g class="contourlevel"><path class="closedline" d="M80.89,342.28C80.04,342.1 79.07,340.87 78.89,339.89C78.67,338.69 80.03,336.34 80.43,335.47C80.61,335.08 80.69,335.03 80.89,334.66C81.32,333.89 82.21,332.21 82.84,331.06C83.43,329.99 84.12,328.78 84.57,327.96C84.86,327.43 84.96,327.21 85.28,326.65C85.86,325.61 87.35,323.04 87.84,322.23C88.03,321.92 88.05,321.89 88.24,321.59C88.69,320.86 89.88,318.9 90.55,317.82C91.06,316.99 91.47,316.37 91.92,315.64C92.38,314.9 92.77,314.24 93.29,313.4C93.96,312.33 95.12,310.51 95.6,309.75C95.82,309.4 95.85,309.35 96.07,308.99C96.61,308.13 98.34,305.39 98.86,304.58C99.06,304.27 99.08,304.24 99.27,303.94C99.74,303.21 101,301.21 101.68,300.16C102.17,299.4 102.5,298.91 102.95,298.22C103.45,297.45 103.97,296.62 104.54,295.75C105.19,294.75 106.1,293.38 106.63,292.56C106.96,292.06 107.07,291.86 107.42,291.33C108.08,290.32 109.35,288.41 110.315,286.94C111.28,285.47 112.53,283.52 113.19,282.51C113.53,281.99 113.65,281.81 113.98,281.32C114.52,280.51 115.44,279.08 116.09,278.09C116.65,277.24 117.15,276.5 117.66,275.74C118.13,275.03 118.51,274.46 119.03,273.68C119.7,272.68 120.8,271.02 121.33,270.22C121.61,269.8 121.68,269.7 121.98,269.26C122.62,268.32 123.99,266.28 124.975,264.8C125.95,263.34 127.2,261.43 127.87,260.43C128.22,259.9 128.35,259.72 128.69,259.22C129.24,258.41 130.19,256.99 130.84,256.02C131.39,255.2 131.85,254.5 132.36,253.76C132.85,253.03 133.3,252.4 133.84,251.61C134.5,250.64 135.48,249.18 136.04,248.37C136.38,247.88 136.5,247.71 136.86,247.19C137.54,246.21 138.82,244.36 139.815,242.91C140.84,241.42 142.38,239.19 142.95,238.36C143.16,238.05 143.18,238.01 143.39,237.71C143.9,236.97 145.34,234.93 146.02,233.95C146.45,233.33 146.66,233.01 147.07,232.42C147.64,231.61 148.49,230.45 149.13,229.54C149.7,228.73 150.21,227.98 150.75,227.23C151.27,226.51 151.74,225.89 152.29,225.12C152.95,224.21 153.83,222.93 154.42,222.12C154.83,221.56 155.06,221.29 155.49,220.71C156.17,219.79 157.52,217.88 158.1,217.11C158.38,216.74 158.45,216.67 158.74,216.29C159.4,215.43 160.82,213.49 161.91,212.04500000000002C163.05,210.54 164.25,208.96 165.435,207.435C166.62,205.91 167.81,204.39 169.01,202.89C170.21,201.39 171.42,199.9 172.64,198.42C173.86,196.95 175.09,195.48 176.33499999999998,194.04000000000002C177.58,192.6 178.84,191.17 180.12,189.76C181.41,188.35 182.76,186.9 184.04000000000002,185.57999999999998C185.23,184.35 186.64,182.91 187.52,182.08C188.03,181.6 188.28,181.42 188.76,180.98C189.44,180.36 190.36,179.41 191.19,178.67C192.02,177.94 193.07,177.15 193.75,176.57C194.2,176.18 194.38,175.98 194.87,175.58C195.73,174.88 197.66,173.44 198.55,172.84C199.03,172.52 199.24,172.43 199.69,172.15C200.37,171.72 201.28,171.04 202.22,170.5C203.32,169.86 204.78,169.1 205.9,168.62C206.79,168.23 207.7,167.99 208.38,167.74C208.85,167.57 209.06,167.42 209.58,167.28C210.46,167.03 212.02,166.69 213.25,166.62C214.47,166.55 215.85,166.61 216.93,166.84C217.82,167.03 218.63,167.43 219.29,167.74C219.8,167.98 220.12,168.06 220.61,168.46C221.48,169.18 223.09,171.13 223.68,172.15C224.03,172.75 224.08,173.12 224.28,173.73C224.54,174.53 224.87,175.51 225.03,176.57C225.23,177.87 225.27,179.51 225.21,180.98C225.15,182.45 224.88,184.33 224.67,185.39C224.55,186.01 224.43,186.26 224.28,186.83C224.07,187.64 223.87,188.73 223.55,189.81C223.15,191.15 222.51,192.9 221.98,194.22C221.53,195.34 220.97,196.44 220.61,197.26C220.37,197.81 220.3,198.06 220.03,198.64C219.53,199.7 218.33,202.01 217.75,203.05C217.42,203.63 217.25,203.85 216.93,204.39C216.45,205.2 215.79,206.46 215.18,207.46C214.57,208.46 213.77,209.57 213.25,210.39C212.88,210.97 212.74,211.27 212.34,211.88C211.65,212.93 210.45,214.62 209.42000000000002,216.05C208.32,217.58 207.12,219.21 205.94,220.755C204.77,222.29 203.58,223.8 202.375,225.3C201.17,226.8 199.96,228.27 198.73000000000002,229.74C197.5,231.2 196.26,232.65 195.005,234.095C193.75,235.54 192.49,236.96 191.215,238.385C189.94,239.81 188.64,241.25 187.38,242.62C186.18,243.93 184.56,245.64 183.84,246.43C183.52,246.78 183.46,246.85 183.15,247.19C182.51,247.88 180.93,249.51 180.16,250.33C179.67,250.85 179.45,251.11 178.98,251.61C178.31,252.32 177.24,253.38 176.48,254.17C175.84,254.83 175.33,255.4 174.73,256.02C174.11,256.66 173.49,257.27 172.81,257.96C172.05,258.73 171.08,259.74 170.4,260.43C169.91,260.92 169.65,261.18 169.13,261.7C168.32,262.52 166.62,264.24 166,264.85C165.74,265.11 165.71,265.13 165.45,265.39C164.75,266.08 162.91,267.92 161.67000000000002,269.15C160.46,270.35 158.92,271.87 158.1,272.69C157.67,273.12 157.53,273.27 157.12,273.68C156.45,274.35 155.23,275.53 154.42,276.32C153.76,276.97 153.24,277.5 152.63,278.09C152.01,278.7 151.43,279.26 150.75,279.92C149.94,280.71 148.76,281.86 148.08,282.51C147.66,282.91 147.51,283.06 147.07,283.48C146.23,284.28 144.65,285.79 143.435,286.96000000000004C142.2,288.15 140.51,289.8 139.72,290.56C139.36,290.91 139.27,290.99 138.92,291.33C138.26,291.97 136.88,293.3 136.04,294.1C135.39,294.72 134.91,295.18 134.32,295.75C133.69,296.35 133.06,296.95 132.36,297.62C131.54,298.4 130.35,299.52 129.68,300.16C129.27,300.55 129.13,300.7 128.69,301.11C127.85,301.9 126.22,303.41 124.995,304.565C123.77,305.72 122.17,307.23 121.33,308.03C120.89,308.45 120.73,308.59 120.31,308.99C119.63,309.63 118.49,310.72 117.66,311.5C116.93,312.18 116.24,312.8 115.6,313.4C115.03,313.94 114.61,314.34 113.98,314.93C113.11,315.74 111.44,317.25 110.83,317.82C110.58,318.05 110.56,318.08 110.3,318.32C109.63,318.94 107.35,321.02 106.63,321.67C106.33,321.94 106.28,321.97 105.99,322.23C105.35,322.8 103.84,324.2 102.95,325C102.26,325.62 101.71,326.1 101.09,326.65C100.48,327.2 99.96,327.67 99.27,328.29C98.37,329.1 96.74,330.51 96.13,331.06C95.88,331.29 95.86,331.32 95.6,331.55C94.93,332.14 92.79,333.91 91.92,334.61C91.45,334.99 91.26,335.12 90.82,335.47C90.14,336.01 89.13,336.84 88.24,337.55C87.28,338.31 85.89,339.38 85.25,339.89C84.94,340.14 84.9,340.23 84.57,340.44C83.85,340.91 81.87,342.48 80.89,342.28Z" style="stroke-miterlimit: 1; vector-effect: non-scaling-stroke; fill: none; stroke: rgb(207, 188, 102); stroke-opacity: 1; stroke-width: 2px;"/></g><g class="contourlevel"><path class="closedline" d="M84.395,335.68C84.17,335.46 84.46,334.69 84.57,334.08C84.72,333.23 84.92,332.14 85.3,331.06C85.77,329.71 86.78,327.75 87.34,326.65C87.69,325.97 87.9,325.64 88.24,325.02C88.68,324.21 89.22,323.23 89.78,322.23C90.43,321.06 91.52,319.13 91.92,318.41C92.08,318.13 92.08,318.11 92.25,317.82C92.71,317.03 94.3,314.38 94.9,313.4C95.2,312.91 95.31,312.77 95.6,312.3C96.11,311.49 97,310.02 97.65,308.99C98.22,308.08 98.77,307.21 99.27,306.42C99.69,305.76 99.96,305.32 100.43,304.58C101.13,303.46 102.18,301.81 103.09,300.38C104.05,298.87 105.46,296.68 106.06,295.75C106.32,295.34 106.38,295.27 106.63,294.88C107.14,294.1 108.26,292.36 108.93,291.33C109.44,290.54 109.83,289.95 110.3,289.24C110.8,288.49 111.28,287.76 111.83,286.92C112.49,285.93 113.44,284.47 113.98,283.66C114.3,283.18 114.41,283.02 114.75,282.51C115.41,281.52 116.7,279.58 117.675,278.115C118.66,276.64 119.97,274.66 120.62,273.68C120.94,273.2 121.03,273.06 121.33,272.6C121.87,271.79 122.91,270.25 123.58,269.26C124.11,268.47 124.52,267.86 125.01,267.14C125.52,266.39 126.01,265.67 126.57,264.85C127.22,263.89 128.13,262.54 128.69,261.73C129.05,261.2 129.21,260.99 129.59,260.43C130.28,259.42 131.5,257.64 132.49,256.2C133.52,254.7 135.12,252.4 135.66,251.61C135.85,251.33 135.85,251.32 136.04,251.05C136.53,250.34 138.05,248.17 138.73,247.19C139.14,246.59 139.33,246.31 139.72,245.75C140.29,244.94 141.18,243.7 141.83,242.78C142.39,241.98 142.86,241.28 143.39,240.54C143.91,239.81 144.41,239.14 144.97,238.36C145.62,237.45 146.48,236.21 147.07,235.4C147.49,234.83 147.71,234.54 148.15,233.95C148.83,233.02 150.18,231.13 150.75,230.36C151.03,229.99 151.09,229.92 151.37,229.54C152.02,228.67 153.45,226.71 154.52999999999997,225.26C155.66,223.74 156.88,222.13 158.035,220.615C159.16,219.14 160.79,217.04 161.37,216.29C161.57,216.02 161.58,216.01 161.78,215.75C162.33,215.05 164.25,212.67 164.87,211.88C165.14,211.53 165.18,211.46 165.45,211.12C166.06,210.35 167.84,208.25 168.48,207.46C168.78,207.09 168.83,207.01 169.13,206.64C169.77,205.86 171.6,203.79 172.22,203.05C172.5,202.72 172.53,202.67 172.81,202.34C173.49,201.56 175.1,199.75 176.31,198.435C177.57,197.06 178.93,195.6 180.22,194.275C181.44,193.02 183,191.45 183.84,190.67C184.26,190.28 184.42,190.18 184.83,189.81C185.51,189.2 186.64,188.07 187.52,187.3C188.32,186.61 189.2,185.95 189.87,185.39C190.38,184.96 190.63,184.69 191.19,184.24C192.1,183.52 194.02,182.1 194.87,181.55C195.29,181.27 195.45,181.22 195.86,180.98C196.54,180.57 197.57,179.84 198.55,179.3C199.66,178.69 201,178.02 202.22,177.54C203.37,177.09 204.46,176.71 205.655,176.485C206.91,176.25 208.57,176.08 209.58,176.17C210.23,176.22 210.59,176.39 211.15,176.57C211.81,176.78 212.55,176.89 213.25,177.39C214.25,178.11 215.64,179.82 216.24,180.98C216.69,181.85 216.75,182.73 216.93,183.51C217.08,184.18 217.21,184.62 217.26,185.39C217.33,186.6 217.2,188.59 216.995,190.10500000000002C216.8,191.53 216.49,192.83 216.11,194.22C215.72,195.68 215.17,197.29 214.66,198.64C214.21,199.81 213.59,201.05 213.25,201.86C213.04,202.35 213,202.53 212.77,203.05C212.31,204.06 211.15,206.36 210.54,207.46C210.17,208.13 209.94,208.45 209.58,209.06C209.11,209.86 208.57,210.92 207.99,211.88C207.36,212.93 206.41,214.29 205.9,215.1C205.59,215.59 205.51,215.78 205.18,216.29C204.53,217.29 203.22,219.17 202.175,220.635C201.07,222.18 199.86,223.81 198.72,225.32999999999998C197.63,226.78 196.11,228.73 195.46,229.54C195.19,229.88 195.14,229.91 194.87,230.24C194.25,230.99 192.53,233.18 191.88,233.95C191.57,234.31 191.5,234.37 191.19,234.73C190.53,235.49 188.79,237.62 188.15,238.36C187.87,238.69 187.81,238.73 187.52,239.06C186.86,239.81 184.88,242.13 184.29,242.78C184.07,243.02 184.06,243.02 183.84,243.26C183.21,243.95 181.47,245.92 180.24,247.26999999999998C178.98,248.66 177.64,250.12 176.37,251.48000000000002C175.16,252.78 173.53,254.49 172.81,255.27C172.49,255.61 172.44,255.69 172.13,256.02C171.49,256.71 169.9,258.31 169.13,259.13C168.63,259.65 168.4,259.93 167.92,260.43C167.25,261.14 166.21,262.17 165.45,262.95C164.8,263.63 164.25,264.22 163.64,264.85C163.03,265.48 162.44,266.05 161.78,266.72C161.01,267.5 159.98,268.57 159.3,269.26C158.83,269.73 158.6,269.96 158.1,270.45C157.29,271.26 155.48,273.1 154.89,273.68C154.67,273.9 154.65,273.91 154.42,274.13C153.76,274.78 151.84,276.69 150.595,277.93499999999995C149.4,279.13 147.91,280.6 147.07,281.43C146.61,281.89 146.43,282.08 145.99,282.51C145.31,283.18 144.19,284.26 143.39,285.04C142.71,285.71 142.11,286.31 141.49,286.92C140.89,287.51 140.38,288 139.72,288.64C138.9,289.44 137.6,290.68 136.93,291.33C136.55,291.7 136.44,291.81 136.04,292.19C135.23,292.97 133.57,294.55 132.34500000000003,295.73C131.12,296.9 129.52,298.45 128.69,299.24C128.26,299.65 128.12,299.78 127.72,300.16C127.04,300.8 125.84,301.95 125.01,302.74C124.31,303.41 123.7,303.98 123.07,304.58C122.47,305.14 121.99,305.61 121.33,306.23C120.48,307.03 119.03,308.38 118.38,308.99C118.06,309.29 118,309.36 117.66,309.67C116.88,310.39 115.05,312.08 113.795,313.235C112.6,314.33 111.23,315.58 110.3,316.43C109.69,316.99 109.32,317.32 108.77,317.82C108.12,318.41 107.39,319.08 106.63,319.77C105.77,320.54 104.54,321.62 103.87,322.23C103.48,322.58 103.36,322.7 102.95,323.07C102.14,323.79 99.93,325.7 99.27,326.25C99.03,326.45 99.01,326.46 98.78,326.65C98.18,327.14 96.58,328.44 95.6,329.22C94.77,329.89 93.94,330.52 93.27,331.06C92.76,331.47 92.49,331.73 91.92,332.15C91.01,332.82 89.38,334.02 88.24,334.59C87.35,335.03 86.44,335.29 85.73,335.47C85.22,335.6 84.6,335.88 84.395,335.68Z" style="stroke-miterlimit: 1; vector-effect: non-scaling-stroke; fill: none; stroke: rgb(219, 216, 134); stroke-opacity: 1; stroke-width: 2px;"/></g><g class="contourlevel"><path class="closedline" d="M91.92,328.3C91.27,328.14 90.69,327.39 90.54,326.65C90.31,325.56 91.25,323.58 91.86,322.12C92.48,320.63 93.55,319.04 94.24,317.82C94.75,316.9 95.17,316.19 95.6,315.42C95.99,314.72 96.27,314.2 96.72,313.4C97.39,312.21 98.37,310.43 99.25,308.96000000000004C100.13,307.49 101.32,305.66 102,304.58C102.4,303.95 102.58,303.65 102.95,303.07C103.46,302.26 104.18,301.13 104.79,300.16C105.4,299.2 106.11,298.09 106.63,297.28C107.01,296.69 107.2,296.39 107.61,295.75C108.3,294.68 109.43,292.89 110.37,291.435C111.34,289.94 112.7,287.88 113.33,286.92C113.62,286.47 113.7,286.36 113.98,285.93C114.51,285.13 115.59,283.51 116.26,282.51C116.78,281.72 117.18,281.12 117.66,280.4C118.16,279.65 118.65,278.92 119.21,278.09C119.86,277.12 120.78,275.74 121.33,274.93C121.68,274.42 121.82,274.22 122.19,273.68C122.87,272.68 124.11,270.84 125.095,269.385C126.11,267.89 127.6,265.72 128.19,264.85C128.43,264.5 128.46,264.46 128.69,264.12C129.21,263.36 130.56,261.41 131.24,260.43C131.69,259.78 131.93,259.41 132.36,258.8C132.92,257.99 133.7,256.92 134.33,256.02C134.92,255.17 135.49,254.32 136.04,253.55C136.53,252.86 136.92,252.34 137.44,251.61C138.11,250.67 139.14,249.18 139.72,248.37C140.08,247.88 140.22,247.7 140.59,247.19C141.26,246.27 142.89,243.95 143.39,243.27C143.57,243.03 143.58,243.03 143.76,242.78C144.31,242.04 145.94,239.78 147.02499999999998,238.29500000000002C148.1,236.83 149.66,234.77 150.26,233.95C150.5,233.63 150.52,233.59 150.75,233.27C151.3,232.52 152.94,230.42 153.6,229.54C153.96,229.06 154.06,228.89 154.42,228.42C155.04,227.61 156.34,226 157.02,225.12C157.46,224.55 157.66,224.25 158.1,223.69C158.74,222.87 159.86,221.56 160.53,220.71C161.02,220.09 161.29,219.7 161.78,219.09C162.44,218.28 163.47,217.1 164.14,216.29C164.65,215.67 164.94,215.26 165.45,214.65C166.13,213.84 167.21,212.67 167.88,211.88C168.37,211.3 168.63,210.95 169.13,210.37C169.84,209.55 171.12,208.22 171.79,207.46C172.21,206.98 172.37,206.76 172.81,206.28C173.56,205.46 175.29,203.72 175.91,203.05C176.18,202.76 176.2,202.7 176.48,202.41C177.18,201.68 179,199.9 180.25,198.71499999999997C181.45,197.58 182.88,196.28 183.84,195.46C184.46,194.94 184.85,194.67 185.41,194.22C186.07,193.69 186.71,193.08 187.52,192.45C188.56,191.64 189.94,190.61 191.19,189.81C192.4,189.03 193.62,188.32 194.87,187.7C196.08,187.1 197.3,186.53 198.55,186.14C199.76,185.76 201,185.38 202.22,185.37C203.45,185.36 204.82,185.47 205.9,186.11C207.12,186.84 208.37,188.43 208.98,189.81C209.57,191.14 209.6,192.75 209.6,194.22C209.6,195.69 209.28,197.18 208.96,198.64C208.64,200.12 208.16,201.59 207.66,203.05C207.15,204.53 206.55,206 205.9,207.46C205.23,208.95 204.38,210.62 203.7,211.88C203.18,212.85 202.66,213.62 202.22,214.4C201.84,215.07 201.63,215.54 201.19,216.29C200.51,217.44 199.43,219.16 198.485,220.60000000000002C197.5,222.1 196.01,224.28 195.4,225.12C195.16,225.46 195.11,225.49 194.87,225.81C194.32,226.56 192.87,228.64 192.18,229.54C191.78,230.06 191.59,230.25 191.19,230.76C190.56,231.57 189.45,233.09 188.77,233.95C188.29,234.55 188,234.86 187.52,235.45C186.86,236.26 185.89,237.54 185.21,238.36C184.7,238.97 184.35,239.33 183.84,239.94C183.16,240.75 182.18,241.99 181.5,242.78C181,243.36 180.67,243.69 180.16,244.28C179.46,245.09 178.36,246.42 177.68,247.19C177.21,247.72 176.96,247.96 176.48,248.49C175.75,249.3 174.42,250.87 173.74,251.61C173.35,252.03 173.21,252.16 172.81,252.59C172.07,253.38 170.31,255.35 169.69,256.02C169.43,256.3 169.4,256.33 169.13,256.61C168.45,257.33 166.72,259.19 165.505,260.485C164.27,261.79 162.4,263.75 161.78,264.41C161.57,264.63 161.57,264.64 161.37,264.85C160.8,265.45 158.87,267.42 158.1,268.22C157.68,268.66 157.53,268.83 157.12,269.26C156.45,269.96 155.2,271.2 154.42,272C153.81,272.63 153.38,273.1 152.81,273.68C152.17,274.33 151.46,275.02 150.75,275.73C150,276.49 149.1,277.41 148.43,278.09C147.92,278.6 147.61,278.9 147.07,279.44C146.25,280.26 144.63,281.89 144,282.51C143.72,282.79 143.68,282.82 143.39,283.1C142.67,283.8 140.86,285.6 139.615,286.815C138.41,288 136.87,289.49 136.04,290.31C135.59,290.75 135.43,290.91 135,291.33C134.32,291.99 133.17,293.1 132.36,293.88C131.67,294.55 131.07,295.14 130.44,295.75C129.84,296.33 129.35,296.8 128.69,297.43C127.85,298.23 126.5,299.53 125.83,300.16C125.47,300.5 125.38,300.59 125.01,300.94C124.21,301.7 122.49,303.33 121.245,304.495C120.04,305.62 118.55,306.98 117.66,307.81C117.13,308.3 116.87,308.54 116.38,308.99C115.71,309.61 114.78,310.46 113.98,311.19C113.17,311.93 112.23,312.78 111.55,313.4C111.06,313.84 110.83,314.07 110.3,314.55C109.4,315.37 107.89,316.78 106.655,317.845C105.44,318.89 103.95,320.07 102.95,320.88C102.28,321.42 101.85,321.76 101.27,322.23C100.63,322.74 100.03,323.23 99.27,323.85C98.25,324.67 96.95,325.97 95.69,326.725C94.5,327.43 92.82,328.52 91.92,328.3Z" style="stroke-miterlimit: 1; vector-effect: non-scaling-stroke; fill: none; stroke: rgb(232, 245, 171); stroke-opacity: 1; stroke-width: 2px;"/></g></g></g></g></g><g class="overplot"/><path class="xlines-above crisp" d="" style="fill: none; stroke-width: 1px; stroke: rgb(0, 0, 0); stroke-opacity: 0;"/><path class="ylines-above crisp" d="" style="fill: none; stroke-width: 1px; stroke: rgb(0, 0, 0); stroke-opacity: 0;"/><g class="overlines-above"/><g class="xaxislayer-above"><path class="xtick ticks crisp" d="M0,478v5" transform="translate(84.61,0)" style="stroke: rgb(51, 51, 51); stroke-opacity: 1; stroke-width: 1px;"/><path class="xtick ticks crisp" d="M0,478v5" transform="translate(208,0)" style="stroke: rgb(51, 51, 51); stroke-opacity: 1; stroke-width: 1px;"/><path class="xtick ticks crisp" d="M0,478v5" transform="translate(331.39,0)" style="stroke: rgb(51, 51, 51); stroke-opacity: 1; stroke-width: 1px;"/><g class="xtick"><text text-anchor="middle" x="0" y="497.4" transform="translate(84.61,0)" style="font-family: 'Open Sans', verdana, arial, sans-serif; font-size: 12px; fill: rgb(51, 51, 51); fill-opacity: 1; white-space: pre; opacity: 1;">2</text></g><g class="xtick"><text text-anchor="middle" x="0" y="497.4" style="font-family: 'Open Sans', verdana, arial, sans-serif; font-size: 12px; fill: rgb(51, 51, 51); fill-opacity: 1; white-space: pre; opacity: 1;" transform="translate(208,0)">0</text></g><g class="xtick"><text text-anchor="middle" x="0" y="497.4" style="font-family: 'Open Sans', verdana, arial, sans-serif; font-size: 12px; fill: rgb(51, 51, 51); fill-opacity: 1; white-space: pre; opacity: 1;" transform="translate(331.39,0)">2</text></g></g><g class="yaxislayer-above"><path class="ytick ticks crisp" d="M25,0h-5" transform="translate(0,406.64)" style="stroke: rgb(51, 51, 51); stroke-opacity: 1; stroke-width: 1px;"/><path class="ytick ticks crisp" d="M25,0h-5" transform="translate(0,332.57)" style="stroke: rgb(51, 51, 51); stroke-opacity: 1; stroke-width: 1px;"/><path class="ytick ticks crisp" d="M25,0h-5" transform="translate(0,258.5)" style="stroke: rgb(51, 51, 51); stroke-opacity: 1; stroke-width: 1px;"/><path class="ytick ticks crisp" d="M25,0h-5" transform="translate(0,184.43)" style="stroke: rgb(51, 51, 51); stroke-opacity: 1; stroke-width: 1px;"/><path class="ytick ticks crisp" d="M25,0h-5" transform="translate(0,110.36)" style="stroke: rgb(51, 51, 51); stroke-opacity: 1; stroke-width: 1px;"/><g class="ytick"><text text-anchor="end" x="17.6" y="4.199999999999999" transform="translate(0,406.64)" style="font-family: 'Open Sans', verdana, arial, sans-serif; font-size: 12px; fill: rgb(51, 51, 51); fill-opacity: 1; white-space: pre; opacity: 1;">2</text></g><g class="ytick"><text text-anchor="end" x="17.6" y="4.199999999999999" style="font-family: 'Open Sans', verdana, arial, sans-serif; font-size: 12px; fill: rgb(51, 51, 51); fill-opacity: 1; white-space: pre; opacity: 1;" transform="translate(0,332.57)">1</text></g><g class="ytick"><text text-anchor="end" x="17.6" y="4.199999999999999" style="font-family: 'Open Sans', verdana, arial, sans-serif; font-size: 12px; fill: rgb(51, 51, 51); fill-opacity: 1; white-space: pre; opacity: 1;" transform="translate(0,258.5)">0</text></g><g class="ytick"><text text-anchor="end" x="17.6" y="4.199999999999999" style="font-family: 'Open Sans', verdana, arial, sans-serif; font-size: 12px; fill: rgb(51, 51, 51); fill-opacity: 1; white-space: pre; opacity: 1;" transform="translate(0,184.43)">1</text></g><g class="ytick"><text text-anchor="end" x="17.6" y="4.199999999999999" style="font-family: 'Open Sans', verdana, arial, sans-serif; font-size: 12px; fill: rgb(51, 51, 51); fill-opacity: 1; white-space: pre; opacity: 1;" transform="translate(0,110.36)">2</text></g></g><g class="overaxes-above"/></g></g><g class="polarlayer"/><g class="ternarylayer"/><g class="geolayer"/><g class="funnelarealayer"/><g class="pielayer"/><g class="iciclelayer"/><g class="treemaplayer"/><g class="sunburstlayer"/><g class="glimages"/><defs id="topdefs-726a58"><g class="clips"/></defs><g class="layer-above"><g class="imagelayer"/><g class="shapelayer"/></g><g class="infolayer"><g class="cb6d21d3 colorbar" transform="translate(26,40)"><rect class="cbbg" x="371" y="0" width="102.28125" height="437" style="fill: rgb(0, 0, 0); fill-opacity: 0; stroke: rgb(68, 68, 68); stroke-opacity: 1; stroke-width: 0;"/><g class="cbfills" transform="translate(0,10)"/><g class="cblines" transform="translate(0,10)"><path class="cbline" d="M381,417h30" style="fill: none; stroke: rgb(34, 30, 27); stroke-opacity: 1; stroke-width: 2px;"/><path class="cbline" d="M381,375h30" style="fill: none; stroke: rgb(59, 46, 38); stroke-opacity: 1; stroke-width: 2px;"/><path class="cbline" d="M381,334h30" style="fill: none; stroke: rgb(85, 62, 47); stroke-opacity: 1; stroke-width: 2px;"/><path class="cbline" d="M381,292h30" style="fill: none; stroke: rgb(111, 77, 54); stroke-opacity: 1; stroke-width: 2px;"/><path class="cbline" d="M381,250h30" style="fill: none; stroke: rgb(138, 93, 57); stroke-opacity: 1; stroke-width: 2px;"/><path class="cbline" d="M381,209h30" style="fill: none; stroke: rgb(161, 112, 59); stroke-opacity: 1; stroke-width: 2px;"/><path class="cbline" d="M381,167h30" style="fill: none; stroke: rgb(180, 134, 64); stroke-opacity: 1; stroke-width: 2px;"/><path class="cbline" d="M381,125h30" style="fill: none; stroke: rgb(195, 161, 78); stroke-opacity: 1; stroke-width: 2px;"/><path class="cbline" d="M381,83h30" style="fill: none; stroke: rgb(207, 188, 102); stroke-opacity: 1; stroke-width: 2px;"/><path class="cbline" d="M381,42h30" style="fill: none; stroke: rgb(219, 216, 134); stroke-opacity: 1; stroke-width: 2px;"/><path class="cbline" d="M381,0h30" style="fill: none; stroke: rgb(232, 245, 171); stroke-opacity: 1; stroke-width: 2px;"/></g><g class="cbaxis crisp" transform="translate(0,-40)"><path class="ycb6d21d3tick ticks crisp" d="M410.5,0h-6" transform="translate(0,383.6)" style="stroke: rgb(237, 237, 237); stroke-opacity: 1; stroke-width: 1px;"/><path class="ycb6d21d3tick ticks crisp" d="M410.5,0h-6" transform="translate(0,300.2)" style="stroke: rgb(237, 237, 237); stroke-opacity: 1; stroke-width: 1px;"/><path class="ycb6d21d3tick ticks crisp" d="M410.5,0h-6" transform="translate(0,216.8)" style="stroke: rgb(237, 237, 237); stroke-opacity: 1; stroke-width: 1px;"/><path class="ycb6d21d3tick ticks crisp" d="M410.5,0h-6" transform="translate(0,133.40000000000003)" style="stroke: rgb(237, 237, 237); stroke-opacity: 1; stroke-width: 1px;"/><g class="ycb6d21d3tick"><text text-anchor="start" x="413.9" y="4.199999999999999" transform="translate(0,467)" style="font-family: 'Open Sans', verdana, arial, sans-serif; font-size: 12px; fill: rgb(51, 51, 51); fill-opacity: 1; white-space: pre; opacity: 1;">0</text></g><g class="ycb6d21d3tick"><text text-anchor="start" x="413.9" y="4.199999999999999" style="font-family: 'Open Sans', verdana, arial, sans-serif; font-size: 12px; fill: rgb(51, 51, 51); fill-opacity: 1; white-space: pre; opacity: 1;" transform="translate(0,383.6)">0.0532</text></g><g class="ycb6d21d3tick"><text text-anchor="start" x="413.9" y="4.199999999999999" style="font-family: 'Open Sans', verdana, arial, sans-serif; font-size: 12px; fill: rgb(51, 51, 51); fill-opacity: 1; white-space: pre; opacity: 1;" transform="translate(0,300.2)">0.1065</text></g><g class="ycb6d21d3tick"><text text-anchor="start" x="413.9" y="4.199999999999999" style="font-family: 'Open Sans', verdana, arial, sans-serif; font-size: 12px; fill: rgb(51, 51, 51); fill-opacity: 1; white-space: pre; opacity: 1;" transform="translate(0,216.8)">0.1597</text></g><g class="ycb6d21d3tick"><text text-anchor="start" x="413.9" y="4.199999999999999" style="font-family: 'Open Sans', verdana, arial, sans-serif; font-size: 12px; fill: rgb(51, 51, 51); fill-opacity: 1; white-space: pre; opacity: 1;" transform="translate(0,133.40000000000003)">0.213</text></g><g class="ycb6d21d3tick"><text text-anchor="start" x="413.9" y="4.199999999999999" style="font-family: 'Open Sans', verdana, arial, sans-serif; font-size: 12px; fill: rgb(51, 51, 51); fill-opacity: 1; white-space: pre; opacity: 1;" transform="translate(0,50.000000000000014)">0.2662</text></g></g><g class="cbtitleunshift" transform="translate(-26,-40)"><g class="cbtitle"/></g><rect class="cboutline" x="381" y="10" width="30" height="417" style="stroke: rgb(68, 68, 68); stroke-opacity: 1; fill: none; stroke-width: 0;"/></g><g class="g-gtitle"><text class="gtitle" x="250" y="20" text-anchor="middle" dy="0em" style="font-family: 'Open Sans', verdana, arial, sans-serif; font-size: 17px; fill: rgb(51, 51, 51); opacity: 1; font-weight: normal; white-space: pre;">Clayton copula</text></g><g class="g-xtitle"/><g class="g-ytitle"/></g></svg>