<svg class="main-svg" xmlns="http://www.w3.org/2000/svg" xmlns:xlink="http://www.w3.org/1999/xlink" width="1500" height="1500" style="" viewBox="0 0 500 500"><rect x="0" y="0" width="500" height="500" style="fill: rgb(255, 255, 255); fill-opacity: 1;"/><defs id="defs-6c31dc"><g class="clips"><clipPath id="clip6c31dcxyplot" class="plotclip"><rect width="364" height="437"/></clipPath><clipPath class="axesclip" id="clip6c31dcx"><rect x="26" y="0" width="364" height="500"/></clipPath><clipPath class="axesclip" id="clip6c31dcy"><rect x="0" y="40" width="500" height="437"/></clipPath><clipPath class="axesclip" id="clip6c31dcxy"><rect x="26" y="40" width="364" height="437"/></clipPath><clipPath class="contourclip" id="clip0bbd7a"><path d="M0,0L364,0L364,437L0,437Z"/></clipPath></g><g class="gradients"/><g class="patterns"/></defs><g class="bglayer"><rect class="bg" x="26" y="40" width="364" height="437" style="fill: rgb(237, 237, 237); fill-opacity: 1; stroke-width: 0;"/></g><g class="layer-below"><g class="imagelayer"/><g class="shapelayer"/></g><g class="cartesianlayer"><g class="subplot xy"><g class="layer-subplot"><g class="shapelayer"/><g class="imagelayer"/></g><g class="gridlayer"><g class="x"><path class="xgrid crisp" transform="translate(84.61,0)" d="M0,40v437" style="stroke: rgb(255, 255, 255); stroke-opacity: 1; stroke-width: 1px;"/><path class="xgrid crisp" transform="translate(331.39,0)" d="M0,40v437" style="stroke: rgb(255, 255, 255); stroke-opacity: 1; stroke-width: 1px;"/></g><g class="y"><path class="ygrid crisp" transform="translate(0,406.64)" d="M26,0h364" style="stroke: rgb(255, 255, 255); stroke-opacity: 1; stroke-width: 1px;"/><path class="ygrid crisp" transform="translate(0,332.57)" d="M26,0h364" style="stroke: rgb(255, 255, 255); stroke-opacity: 1; stroke-width: 1px;"/><path class="ygrid crisp" transform="translate(0,184.43)" d="M26,0h364" style="stroke: rgb(255, 255, 255); stroke-opacity: 1; stroke-width: 1px;"/><path class="ygrid crisp" transform="translate(0,110.36)" d="M26,0h364" style="stroke: rgb(255, 255, 255); stroke-opacity: 1; stroke-width: 1px;"/></g></g><g class="zerolinelayer"><path class="xzl zl crisp" transform="translate(208,0)" d="M0,40v437" style="stroke: rgb(255, 255, 255); stroke-opacity: 1; stroke-width: 1px;"/><path class="yzl zl crisp" transform="translate(0,258.5)" d="M26,0h364" style="stroke: rgb(255, 255, 255); stroke-opacity: 1; stroke-width: 1px;"/></g><path class="xlines-below"/><path class="ylines-below"/><g class="overlines-below"/><g class="xaxislayer-below"/><g class="yaxislayer-below"/><g class="overaxes-below"/><g class="plot" transform="translate(26,40)" clip-path="url(#clip6c31dcxyplot)"><g class="contourlayer mlayer"><g class="contour" clip-path="url(#clip0bbd7a)" style="opacity: 1;"><g class="heatmapcoloring"/><g class="contourbg"/><g class="contourfill"/><g class="contourlines"><g class="contourlevel"><path class="openline" d="M364,402.84Q361.55,403.99 360.32,404.5C359.1,405 357.39,405.59 356.65,405.86C356.33,405.97 356.27,405.97 355.97,406.1C355.32,406.37 354.03,407.06 352.97,407.53C351.81,408.04 350.52,408.57 349.29,409.03C348.07,409.49 346.38,410.03 345.62,410.28C345.28,410.39 345.2,410.4 344.87,410.52C344.21,410.77 342.98,411.39 341.94,411.82C340.79,412.3 339.49,412.79 338.26,413.23C337.04,413.66 335.59,414.11 334.59,414.42C333.9,414.63 333.42,414.72 332.83,414.93C332.2,415.15 331.66,415.43 330.91,415.72C329.88,416.12 328.46,416.68 327.23,417.11C326.01,417.53 324.8,417.92 323.56,418.28C322.3,418.65 320.98,418.91 319.745,419.30499999999995C318.53,419.69 317.4,420.21 316.2,420.63C314.99,421.05 313.76,421.46 312.53,421.83C311.31,422.2 310.08,422.54 308.85,422.86C307.62,423.18 306.38,423.4 305.155,423.755C303.92,424.12 302.72,424.62 301.49,425.02C300.27,425.41 299.05,425.78 297.82,426.13C296.6,426.47 295.37,426.79 294.14,427.09C292.92,427.39 291.34,427.73 290.46,427.92C289.97,428.03 289.76,428.05 289.31,428.17C288.63,428.35 287.71,428.7 286.79,428.98C285.68,429.32 284.34,429.72 283.11,430.06C281.89,430.4 280.66,430.71 279.43,431.01C278.21,431.31 276.99,431.58 275.76,431.84C274.53,432.1 273.27,432.28 272.04999999999995,432.58C270.82,432.89 269.62,433.32 268.4,433.67C267.18,434.02 265.96,434.35 264.73,434.66C263.51,434.97 262.28,435.25 261.05,435.53C259.82,435.8 258.6,436.06 257.37,436.31Q256.15,436.55 253.7,437" style="stroke-miterlimit: 1; vector-effect: non-scaling-stroke; fill: none; stroke: rgb(34, 30, 27); stroke-opacity: 1; stroke-width: 2px;"/><path class="openline" d="M0,132.42Q0.38,129.48 0.58,128.01C0.79,126.54 1,125.07 1.23,123.6C1.46,122.13 1.69,120.65 1.95,119.18C2.21,117.71 2.48,116.24 2.77,114.77C3.06,113.3 3.43,111.86 3.685,110.38499999999999C3.94,108.91 4.08,107.42 4.3,105.94C4.52,104.47 4.74,103 4.99,101.53C5.24,100.06 5.5,98.58 5.78,97.11C6.06,95.64 6.4,94.03 6.68,92.7C6.92,91.59 7.2,90.49 7.35,89.67C7.45,89.12 7.47,88.87 7.56,88.28C7.72,87.22 8.01,85.34 8.26,83.87C8.51,82.4 8.77,80.92 9.06,79.45C9.35,77.98 9.65,76.51 9.98,75.04C10.31,73.57 10.73,72.12 11.035,70.645C11.33,69.18 11.51,67.68 11.78,66.21C12.05,64.74 12.32,63.27 12.63,61.8C12.94,60.33 13.28,58.84 13.63,57.38C13.98,55.95 14.41,54.58 14.735,53.129999999999995C15.07,51.64 15.28,50.07 15.59,48.56C15.89,47.07 16.22,45.61 16.57,44.14C16.93,42.67 17.38,40.96 17.72,39.73C17.96,38.83 18.2,38.18 18.38,37.42C18.55,36.7 18.63,36.14 18.81,35.31C19.07,34.11 19.44,32.37 19.8,30.9C20.16,29.42 20.58,27.87 20.98,26.48C21.34,25.24 21.85,23.75 22.06,22.96C22.16,22.57 22.17,22.48 22.26,22.07C22.47,21.16 22.92,19.13 23.3,17.66C23.68,16.18 24.12,14.63 24.55,13.24C24.94,11.97 25.52,10.41 25.74,9.64C25.84,9.28 25.85,9.21 25.94,8.83C26.16,7.95 26.65,5.88 27.07,4.41Q27.49,2.93 28.45,0" style="stroke-miterlimit: 1; vector-effect: non-scaling-stroke; fill: none; stroke: rgb(34, 30, 27); stroke-opacity: 1; stroke-width: 2px;"/></g><g class="contourlevel"><path class="closedline" d="M22.06,413.91C20.91,413.48 19.62,411.82 19.23,410.52C18.83,409.22 19.43,407.56 19.7,406.1C19.98,404.62 20.47,403.03 20.9,401.69C21.27,400.54 21.77,399.36 22.06,398.54C22.24,398.02 22.28,397.82 22.48,397.27C22.85,396.24 23.65,394.22 24.23,392.86C24.74,391.66 25.4,390.32 25.74,389.51C25.93,389.06 25.97,388.92 26.17,388.44C26.58,387.47 27.53,385.31 28.12,384.03C28.58,383.03 29.04,382.19 29.41,381.39C29.71,380.74 29.86,380.34 30.19,379.62C30.71,378.48 31.75,376.3 32.29,375.2C32.61,374.54 32.8,374.23 33.09,373.63C33.48,372.83 33.89,371.84 34.4,370.79C35.05,369.45 35.97,367.74 36.7,366.245C37.4,364.8 38.05,363.29 38.71,361.96C39.3,360.78 40.04,359.45 40.44,358.64C40.67,358.18 40.73,358.03 40.96,357.55C41.43,356.57 42.53,354.29 43.12,353.13C43.51,352.36 43.78,351.91 44.12,351.23C44.51,350.46 44.83,349.68 45.3,348.72C45.95,347.41 46.95,345.62 47.695,344.105C48.4,342.67 49.03,341.21 49.69,339.89C50.29,338.69 51.07,337.31 51.47,336.5C51.69,336.06 51.74,335.93 51.96,335.47C52.42,334.51 53.52,332.24 54.11,331.06C54.51,330.26 54.8,329.77 55.15,329.07C55.53,328.31 55.83,327.58 56.29,326.65C56.93,325.34 57.95,323.48 58.69,321.96000000000004C59.38,320.54 59.97,319.15 60.62,317.82C61.24,316.56 62.13,314.95 62.51,314.18C62.68,313.83 62.7,313.77 62.87,313.4C63.28,312.53 64.34,310.23 64.95,308.99C65.41,308.06 65.81,307.36 66.18,306.59C66.52,305.89 66.73,305.38 67.11,304.58C67.68,303.39 68.77,301.16 69.27,300.16C69.53,299.65 69.63,299.49 69.86,299C70.25,298.19 70.78,296.91 71.33,295.75C71.98,294.39 72.84,292.83 73.545,291.35C74.24,289.88 74.87,288.29 75.52,286.92C76.09,285.7 76.83,284.31 77.21,283.51C77.41,283.08 77.46,282.96 77.66,282.51C78.09,281.56 79.08,279.35 79.67,278.09C80.12,277.14 80.53,276.38 80.89,275.6C81.21,274.92 81.39,274.45 81.74,273.68C82.27,272.51 83.25,270.37 83.78,269.26C84.1,268.58 84.29,268.25 84.57,267.63C84.94,266.83 85.31,265.88 85.77,264.85C86.36,263.54 87.41,261.34 87.83,260.43C88.02,260.03 88.07,259.95 88.24,259.56C88.59,258.78 89.19,257.27 89.75,256.02C90.39,254.6 91.21,253 91.87,251.5C92.51,250.05 93.05,248.62 93.68,247.19C94.31,245.76 95.02,244.37 95.655,242.91500000000002C96.31,241.43 96.92,239.8 97.55,238.36C98.13,237.04 98.95,235.32 99.27,234.59C99.4,234.29 99.41,234.26 99.54,233.95C99.88,233.14 100.77,230.92 101.37,229.54C101.91,228.29 102.61,226.8 102.95,226.01C103.12,225.62 103.15,225.53 103.32,225.12C103.7,224.21 104.56,222.08 105.14,220.71C105.65,219.51 106.29,218.15 106.63,217.34C106.82,216.89 106.86,216.76 107.05,216.29C107.44,215.33 108.28,213.24 108.86,211.88C109.36,210.7 109.96,209.4 110.3,208.59C110.5,208.12 110.56,207.96 110.76,207.46C111.16,206.47 111.98,204.41 112.55,203.05C113.05,201.87 113.64,200.57 113.98,199.76C114.18,199.29 114.23,199.14 114.43,198.64C114.83,197.65 115.65,195.58 116.22,194.22C116.72,193.03 117.32,191.71 117.66,190.9C117.85,190.44 117.9,190.3 118.1,189.81C118.5,188.83 119.32,186.76 119.89,185.39C120.39,184.2 120.99,182.86 121.33,182.05C121.52,181.6 121.57,181.46 121.76,180.98C122.15,180.01 122.98,177.93 123.56,176.57C124.06,175.38 124.67,174.05 125.01,173.24C125.21,172.78 125.26,172.64 125.46,172.15C125.86,171.17 126.7,169.09 127.28,167.74C127.77,166.59 128.34,165.37 128.69,164.55C128.91,164.05 128.98,163.86 129.2,163.32C129.63,162.3 130.5,160.22 131.07,158.91C131.53,157.84 132,156.83 132.36,156.02C132.62,155.43 132.74,155.13 133.02,154.49C133.5,153.4 134.4,151.32 134.96,150.08C135.37,149.17 135.7,148.49 136.04,147.73C136.36,147.02 136.58,146.48 136.95,145.67C137.49,144.47 138.49,142.33 139,141.25C139.3,140.62 139.45,140.33 139.72,139.75C140.1,138.94 140.55,137.91 141.06,136.84C141.71,135.48 142.58,133.77 143.32,132.27499999999998C144.03,130.83 144.74,129.32 145.4,128.01C145.98,126.87 146.65,125.63 147.07,124.82C147.33,124.32 147.42,124.13 147.7,123.6C148.23,122.58 149.5,120.2 150.06,119.18C150.35,118.64 150.47,118.46 150.75,117.95C151.2,117.14 151.91,115.83 152.51,114.77C153.13,113.68 153.94,112.3 154.42,111.49C154.7,111.01 154.79,110.86 155.1,110.35C155.72,109.32 157.01,107.21 157.95499999999998,105.71000000000001C158.86,104.28 159.94,102.61 160.65,101.53C161.1,100.84 161.35,100.47 161.78,99.84C162.33,99.04 163.05,98 163.68,97.11C164.28,96.26 164.88,95.41 165.45,94.64C165.96,93.95 166.39,93.41 166.93,92.7C167.59,91.84 168.49,90.66 169.13,89.85C169.61,89.25 169.92,88.88 170.42,88.28C171.09,87.47 172.11,86.24 172.81,85.44C173.34,84.83 173.7,84.45 174.23,83.87C174.89,83.14 175.75,82.16 176.48,81.39C177.14,80.7 177.79,80.08 178.42,79.45C179.02,78.85 179.49,78.34 180.16,77.71C181.01,76.9 182.48,75.63 183.13,75.04C183.45,74.75 183.51,74.68 183.84,74.39C184.58,73.75 186.67,72.03 187.52,71.37C187.96,71.03 188.11,70.94 188.53,70.63C189.21,70.13 190.21,69.32 191.19,68.64C192.32,67.86 193.69,67.01 194.93,66.245C196.14,65.5 197.33,64.77 198.55,64.11C199.76,63.46 201.33,62.69 202.22,62.29C202.72,62.06 202.94,62 203.41,61.8C204.09,61.51 204.98,61.07 205.9,60.7C207,60.26 208.35,59.76 209.58,59.36C210.8,58.96 212.02,58.62 213.25,58.31C214.47,58 216.11,57.67 216.93,57.52C217.33,57.45 217.45,57.44 217.84,57.38C218.51,57.27 219.62,57.05 220.61,56.92C221.75,56.77 223.05,56.64 224.28,56.56C225.5,56.48 226.73,56.43 227.96,56.43C229.19,56.43 230.42,56.47 231.64,56.54C232.87,56.61 234.11,56.73 235.31,56.88C236.49,57.02 237.6,57.2 238.78500000000003,57.41C240.05,57.63 241.4,57.89 242.67,58.18C243.92,58.47 245.12,58.79 246.34,59.15C247.57,59.52 248.81,59.92 250.02,60.37C251.24,60.82 252.42,61.31 253.625,61.825C254.87,62.35 256.14,62.89 257.37,63.48C258.61,64.08 260.12,64.88 261.05,65.39C261.63,65.71 261.92,65.91 262.44,66.21C263.11,66.6 263.89,67.01 264.73,67.53C265.82,68.2 267.57,69.36 268.4,69.93C268.83,70.23 268.97,70.34 269.37,70.63C270.05,71.12 271.16,71.87 272.08,72.57C273.08,73.33 274.53,74.54 275.16,75.04C275.44,75.26 275.48,75.28 275.76,75.52C276.47,76.11 278.67,78.06 279.43,78.75C279.78,79.06 279.85,79.14 280.18,79.45C280.84,80.08 282.3,81.47 283.11,82.29C283.71,82.89 284.08,83.29 284.63,83.87C285.29,84.57 286.11,85.43 286.79,86.19C287.43,86.9 288.01,87.57 288.61,88.28C289.23,89.01 289.86,89.77 290.46,90.51C291.05,91.24 291.61,91.93 292.2,92.7C292.83,93.52 293.56,94.5 294.14,95.29C294.63,95.95 294.96,96.4 295.46,97.11C296.14,98.09 297.3,99.84 297.82,100.63C298.08,101.03 298.15,101.11 298.41,101.53C298.99,102.44 300.6,105.09 301.09,105.94C301.29,106.28 301.3,106.33 301.49,106.66C301.91,107.41 302.92,109.15 303.55,110.35C304.14,111.46 304.77,112.8 305.17,113.61C305.41,114.09 305.5,114.26 305.75,114.77C306.22,115.76 307.19,117.88 307.75,119.18C308.18,120.2 308.53,121.13 308.85,121.93C309.1,122.56 309.26,122.91 309.53,123.6C309.96,124.72 310.63,126.53 311.13,128.01C311.63,129.5 312.07,131.02 312.505,132.51C312.93,133.96 313.34,135.39 313.71,136.84C314.08,138.3 314.42,139.78 314.73,141.25C315.03,142.72 315.3,144.17 315.54,145.67C315.78,147.2 315.99,148.82 316.17499999999995,150.33C316.35,151.75 316.51,153.08 316.63,154.49C316.76,155.94 316.85,157.44 316.91,158.91C316.97,160.38 317,161.85 317,163.32C317,164.79 316.96,166.27 316.89,167.74C316.82,169.21 316.72,170.78 316.59,172.15C316.48,173.34 316.29,174.67 316.2,175.48C316.15,175.94 316.15,176.09 316.09,176.57C315.97,177.55 315.69,179.51 315.43,180.98C315.17,182.45 314.88,183.92 314.55,185.39C314.22,186.87 313.81,188.49 313.44,189.81C313.14,190.91 312.77,191.98 312.53,192.79C312.36,193.35 312.3,193.61 312.11,194.22C311.77,195.29 311.15,197.18 310.6,198.64C310.05,200.1 309.44,201.53 308.82000000000005,202.98000000000002C308.19,204.47 307.48,206.1 306.83,207.46C306.27,208.63 305.59,209.84 305.17,210.66C304.91,211.16 304.83,211.35 304.55,211.88C304,212.9 302.58,215.39 302.04,216.29C301.8,216.69 301.73,216.76 301.49,217.15C301,217.93 299.94,219.69 299.27,220.71C298.75,221.5 298.32,222.08 297.82,222.79C297.29,223.54 296.78,224.32 296.2,225.12C295.56,226 294.75,227.03 294.14,227.83C293.65,228.47 293.34,228.9 292.83,229.54C292.16,230.38 291.13,231.59 290.46,232.4C289.96,233 289.66,233.37 289.16,233.95C288.49,234.72 287.51,235.81 286.79,236.6C286.2,237.25 285.75,237.75 285.17,238.36C284.53,239.04 283.82,239.77 283.11,240.49C282.37,241.24 281.5,242.12 280.83,242.78C280.31,243.29 280,243.59 279.43,244.13C278.53,244.98 277.15,246.28 275.95,247.365C274.7,248.5 272.94,250.05 272.08,250.8C271.66,251.17 271.53,251.27 271.13,251.61C270.46,252.18 269.31,253.17 268.4,253.91C267.52,254.63 266.44,255.48 265.76,256.02C265.34,256.36 265.18,256.49 264.73,256.84C263.88,257.5 261.9,259.04 261.05,259.68C260.61,260.01 260.45,260.12 260.03,260.43C259.35,260.94 258.33,261.74 257.37,262.44C256.28,263.24 255.03,264.09 253.825,264.94C252.58,265.82 251.15,266.87 250.02,267.65C249.13,268.26 248.27,268.8 247.6,269.26C247.11,269.59 246.87,269.77 246.34,270.13C245.44,270.74 243.67,271.93 242.67,272.58C241.99,273.02 241.54,273.3 240.95,273.68C240.32,274.09 239.75,274.49 238.99,274.98C237.96,275.65 236.22,276.74 235.31,277.31C234.78,277.64 234.53,277.78 234.04,278.09C233.36,278.52 232.53,279.09 231.64,279.65C230.55,280.34 228.81,281.38 227.96,281.89C227.51,282.16 227.36,282.25 226.94,282.51C226.26,282.93 225.24,283.6 224.28,284.19C223.16,284.88 221.42,285.9 220.61,286.38C220.21,286.62 220.08,286.69 219.7,286.92C219.03,287.33 217.92,288.05 216.93,288.65C215.79,289.34 214.06,290.35 213.25,290.82C212.85,291.05 212.74,291.1 212.36,291.33C211.69,291.73 210.58,292.47 209.58,293.07C208.44,293.76 206.71,294.74 205.9,295.22C205.49,295.46 205.37,295.52 204.99,295.75C204.32,296.16 203.21,296.87 202.22,297.47C201.09,298.15 199.37,299.14 198.55,299.62C198.13,299.86 198,299.92 197.61,300.16C196.93,300.57 195.86,301.28 194.87,301.88C193.74,302.57 192.01,303.55 191.19,304.03C190.78,304.27 190.65,304.34 190.26,304.58C189.59,304.99 188.51,305.71 187.52,306.31C186.39,307 184.65,308.01 183.84,308.48C183.45,308.71 183.33,308.76 182.96,308.99C182.29,309.4 181.16,310.16 180.16,310.78C179.02,311.48 177.24,312.51 176.48,312.96C176.14,313.16 176.07,313.2 175.74,313.4C175.08,313.81 173.85,314.65 172.81,315.3C171.66,316.02 169.8,317.09 169.13,317.5C168.87,317.65 168.85,317.66 168.6,317.82C167.99,318.21 166.56,319.2 165.45,319.89C164.25,320.64 162.9,321.38 161.66500000000002,322.15999999999997C160.45,322.93 159.3,323.78 158.1,324.54C156.91,325.29 155.71,325.94 154.51,326.71C153.26,327.51 151.94,328.49 150.75,329.25C149.71,329.92 148.45,330.64 147.8,331.06C147.47,331.27 147.41,331.33 147.07,331.56C146.31,332.07 144.48,333.32 143.39,334.03C142.54,334.58 141.74,335.03 141.08,335.47C140.56,335.81 140.29,336.03 139.72,336.42C138.8,337.05 137.02,338.23 136.04,338.87C135.4,339.29 135,339.51 134.43,339.89C133.78,340.33 133.15,340.81 132.36,341.35C131.32,342.06 129.48,343.25 128.69,343.76C128.31,344.01 128.21,344.06 127.85,344.3C127.18,344.76 126.03,345.64 125.01,346.33C123.87,347.11 122.53,347.88 121.315,348.71000000000004C120.08,349.56 118.8,350.59 117.66,351.37C116.7,352.03 115.62,352.67 114.95,353.13C114.54,353.41 114.41,353.53 113.98,353.84C113.15,354.44 111.29,355.75 110.3,356.43C109.64,356.89 109.2,357.14 108.62,357.55C107.98,358 107.4,358.47 106.63,359.02C105.6,359.75 103.68,361.04 102.95,361.53C102.65,361.73 102.59,361.75 102.3,361.96C101.66,362.41 100.32,363.47 99.27,364.22C98.17,365 97,365.71 95.82499999999999,366.53999999999996C94.55,367.44 93.02,368.66 91.92,369.43C91.14,369.98 90.53,370.34 89.9,370.79C89.31,371.21 88.91,371.56 88.24,372.04C87.26,372.75 85.37,374.07 84.57,374.62C84.19,374.88 84.08,374.94 83.72,375.2C83.05,375.68 81.89,376.62 80.89,377.34C79.79,378.13 78.56,378.89 77.375,379.74C76.11,380.64 74.63,381.83 73.54,382.61C72.75,383.18 72.09,383.57 71.45,384.03C70.88,384.44 70.5,384.77 69.86,385.24C68.89,385.95 67,387.27 66.18,387.83C65.78,388.11 65.65,388.17 65.27,388.44C64.59,388.92 63.5,389.81 62.51,390.52C61.4,391.31 60.14,392.09 58.935,392.94C57.68,393.82 56.27,394.93 55.15,395.71C54.28,396.32 53.45,396.8 52.78,397.27C52.27,397.62 52.02,397.85 51.47,398.24C50.56,398.89 48.75,400.12 47.8,400.75C47.2,401.15 46.86,401.33 46.32,401.69C45.65,402.14 44.95,402.68 44.12,403.24C43.06,403.95 41.25,405.08 40.44,405.58C40.05,405.82 39.93,405.87 39.55,406.1C38.88,406.52 37.77,407.3 36.77,407.91C35.64,408.6 33.95,409.56 33.09,410.01C32.64,410.25 32.46,410.3 32.03,410.52C31.35,410.86 30.37,411.47 29.41,411.91C28.3,412.42 26.98,413.02 25.74,413.35C24.53,413.67 23.11,414.31 22.06,413.91Z" style="stroke-miterlimit: 1; vector-effect: non-scaling-stroke; fill: none; stroke: rgb(59, 46, 38); stroke-opacity: 1; stroke-width: 2px;"/></g><g class="contourlevel"><path class="closedline" d="M40.44,389.38C40.02,389.15 39.86,388.91 39.67,388.44C39.3,387.54 39.19,385.49 39.27,384.03C39.35,382.55 39.92,380.49 40.16,379.62C40.26,379.24 40.32,379.19 40.44,378.83C40.7,378.06 41.19,376.46 41.63,375.2C42.12,373.8 42.82,371.95 43.29,370.79C43.6,370.02 43.83,369.56 44.12,368.88C44.45,368.1 44.73,367.32 45.13,366.37C45.66,365.1 46.56,363.05 47.06,361.96C47.36,361.31 47.53,361.02 47.8,360.43C48.17,359.62 48.59,358.61 49.07,357.55C49.67,356.23 50.78,353.92 51.17,353.13C51.31,352.84 51.33,352.82 51.47,352.53C51.82,351.81 52.63,349.98 53.24,348.72C53.86,347.45 54.8,345.65 55.15,344.92C55.29,344.63 55.3,344.6 55.44,344.3C55.82,343.5 56.93,341.15 57.55,339.89C58.02,338.94 58.44,338.19 58.83,337.41C59.17,336.73 59.37,336.25 59.75,335.47C60.32,334.3 61.47,332.02 61.96,331.06C62.2,330.59 62.28,330.47 62.51,330.02C62.91,329.22 63.53,327.83 64.12,326.65C64.78,325.32 65.57,323.9 66.29,322.46000000000004C67.04,320.96 67.89,319.13 68.55,317.82C69.04,316.85 69.47,316.09 69.86,315.31C70.2,314.63 70.4,314.17 70.78,313.4C71.36,312.23 72.53,309.94 73.02,308.99C73.25,308.54 73.32,308.42 73.54,307.99C73.94,307.19 74.58,305.77 75.17,304.58C75.83,303.25 76.61,301.84 77.33,300.41C78.08,298.9 78.92,297.06 79.58,295.75C80.07,294.77 80.5,294 80.89,293.22C81.22,292.55 81.42,292.09 81.79,291.33C82.36,290.16 83.5,287.9 84,286.92C84.25,286.43 84.34,286.28 84.57,285.81C84.97,285 85.56,283.68 86.13,282.51C86.79,281.17 87.6,279.68 88.31,278.23C89.04,276.74 89.8,275.02 90.46,273.68C90.99,272.6 91.52,271.6 91.92,270.79C92.21,270.2 92.33,269.9 92.64,269.26C93.16,268.17 94.22,265.96 94.77,264.85C95.11,264.17 95.3,263.82 95.6,263.2C95.99,262.4 96.38,261.47 96.88,260.43C97.52,259.08 98.44,257.32 99.16499999999999,255.81C99.85,254.38 100.45,252.97 101.1,251.61C101.71,250.32 102.6,248.62 102.95,247.87C103.1,247.55 103.11,247.52 103.26,247.19C103.64,246.36 104.69,244.07 105.3,242.78C105.78,241.76 106.25,240.86 106.63,240.06C106.93,239.43 107.08,239.06 107.4,238.36C107.92,237.23 108.94,235.08 109.48,233.95C109.81,233.24 110,232.87 110.3,232.23C110.67,231.43 111.05,230.55 111.52,229.54C112.12,228.25 113.21,225.98 113.62,225.12C113.79,224.77 113.82,224.72 113.98,224.37C114.33,223.61 115.04,221.98 115.63,220.71C116.27,219.32 117.02,217.85 117.69999999999999,216.385C118.39,214.9 119.08,213.27 119.72,211.88C120.28,210.67 120.96,209.29 121.33,208.49C121.54,208.05 121.59,207.92 121.8,207.46C122.24,206.5 123.22,204.32 123.81,203.05C124.26,202.09 124.65,201.3 125.01,200.52C125.32,199.85 125.51,199.4 125.86,198.64C126.39,197.48 127.4,195.33 127.92,194.22C128.24,193.55 128.4,193.21 128.69,192.6C129.06,191.8 129.48,190.84 129.96,189.81C130.57,188.5 131.68,186.2 132.06,185.39C132.21,185.09 132.22,185.06 132.36,184.76C132.7,184.03 133.49,182.27 134.1,180.98C134.75,179.61 135.46,178.22 136.14499999999998,176.785C136.87,175.28 137.68,173.5 138.33,172.15C138.84,171.1 139.32,170.16 139.72,169.35C140.02,168.74 140.17,168.41 140.5,167.74C141.04,166.63 142.15,164.38 142.68,163.32C142.98,162.72 143.11,162.48 143.39,161.92C143.8,161.11 144.33,160 144.89,158.91C145.56,157.6 146.38,156.07 147.135,154.62C147.91,153.13 148.83,151.34 149.5,150.08C149.98,149.18 150.34,148.53 150.75,147.78C151.14,147.06 151.44,146.5 151.9,145.67C152.57,144.46 153.57,142.7 154.41,141.225C155.25,139.76 156.25,138.01 156.93,136.84C157.39,136.05 157.68,135.56 158.1,134.87C158.57,134.1 159.05,133.31 159.6,132.42C160.26,131.36 161.27,129.75 161.78,128.96C162.05,128.54 162.11,128.44 162.4,128.01C163.02,127.07 164.39,125 165.39999999999998,123.52C166.4,122.06 167.8,120.1 168.45,119.18C168.76,118.75 168.83,118.65 169.13,118.24C169.72,117.45 171.1,115.65 171.78,114.77C172.2,114.22 172.38,113.97 172.81,113.44C173.47,112.62 174.7,111.16 175.38,110.35C175.82,109.82 176.02,109.56 176.48,109.03C177.2,108.21 178.63,106.67 179.3,105.94C179.67,105.54 179.77,105.41 180.16,105C180.94,104.19 182.53,102.6 183.75,101.435C184.98,100.26 186.63,98.75 187.52,97.99C187.98,97.59 188.17,97.47 188.61,97.11C189.29,96.56 190.25,95.71 191.19,94.99C192.25,94.18 193.45,93.35 194.65,92.53999999999999C195.9,91.69 197.28,90.77 198.55,90.01C199.72,89.32 200.8,88.76 201.99,88.155C203.24,87.51 204.6,86.83 205.9,86.27C207.13,85.74 208.36,85.28 209.58,84.86C210.75,84.46 211.87,84.14 213.065,83.81C214.32,83.47 215.65,83.13 216.93,82.87C218.17,82.62 219.38,82.43 220.61,82.28C221.83,82.13 223.05,82.02 224.28,81.96C225.5,81.9 226.73,81.89 227.96,81.92C229.19,81.95 230.42,82.03 231.64,82.15C232.87,82.27 234.09,82.44 235.31,82.65C236.54,82.86 238.04,83.19 238.99,83.43C239.61,83.59 239.95,83.71 240.5,83.87C241.16,84.06 241.86,84.22 242.67,84.47C243.74,84.81 245.12,85.28 246.34,85.76C247.57,86.25 249.03,86.89 250.02,87.37C250.72,87.7 251.17,87.97 251.77,88.28C252.4,88.6 252.96,88.86 253.7,89.27C254.74,89.85 256.38,90.84 257.37,91.48C258.07,91.93 258.54,92.29 259.14,92.7C259.76,93.13 260.32,93.48 261.05,94.02C262.11,94.8 263.6,95.99 264.82500000000005,97.025C266.05,98.06 267.51,99.39 268.4,100.23C268.95,100.75 269.21,101.02 269.71,101.53C270.39,102.22 271.36,103.21 272.08,103.99C272.71,104.67 273.22,105.26 273.81,105.94C274.45,106.68 275.15,107.51 275.76,108.27C276.33,108.98 276.82,109.6 277.38,110.35C278.03,111.22 278.86,112.39 279.43,113.2C279.85,113.8 280.08,114.11 280.51,114.77C281.21,115.84 282.32,117.6 283.18,119.065C284.05,120.55 285.03,122.34 285.68,123.6C286.14,124.48 286.43,125.13 286.79,125.88C287.14,126.6 287.42,127.17 287.8,128.01C288.33,129.21 289.16,131.18 289.64,132.42C289.98,133.31 290.19,133.98 290.46,134.73C290.72,135.45 290.94,136 291.22,136.84C291.62,138.04 292.16,139.77 292.56,141.25C292.96,142.72 293.36,144.39 293.64,145.67C293.85,146.65 293.99,147.47 294.14,148.26C294.27,148.92 294.37,149.34 294.5,150.08C294.7,151.23 294.97,153.02 295.15,154.49C295.33,155.96 295.47,157.44 295.57,158.91C295.67,160.38 295.73,161.85 295.76,163.32C295.79,164.79 295.78,166.27 295.73,167.74C295.68,169.21 295.59,170.68 295.47,172.15C295.34,173.62 295.19,175.08 294.98,176.57C294.77,178.1 294.48,179.7 294.19,181.2C293.92,182.63 293.64,183.98 293.31,185.39C292.96,186.85 292.59,188.32 292.14,189.81C291.68,191.36 291.1,192.99 290.57,194.495C290.06,195.92 289.6,197.23 289.02,198.64C288.4,200.16 287.63,201.81 286.925,203.315C286.25,204.75 285.55,206.19 284.87,207.46C284.28,208.58 283.57,209.74 283.11,210.56C282.81,211.09 282.72,211.32 282.38,211.88C281.75,212.94 280.49,214.92 279.51,216.39999999999998C278.54,217.86 277.22,219.77 276.54,220.71C276.2,221.18 276.1,221.3 275.76,221.74C275.15,222.54 273.87,224.26 273.18,225.12C272.74,225.67 272.52,225.91 272.08,226.45C271.4,227.27 270.2,228.75 269.51,229.54C269.07,230.05 268.86,230.26 268.4,230.77C267.66,231.58 266.17,233.24 265.51,233.95C265.17,234.31 265.09,234.39 264.73,234.76C263.97,235.54 262.34,237.22 261.115,238.425C259.89,239.64 258.16,241.28 257.37,242.03C257.01,242.37 256.93,242.46 256.58,242.78C255.92,243.39 254.58,244.61 253.7,245.4C252.96,246.06 252.3,246.63 251.66,247.19C251.08,247.69 250.68,248.05 250.02,248.6C249.04,249.42 247.58,250.62 246.36,251.625C245.13,252.63 243.68,253.83 242.67,254.64C241.98,255.19 241.51,255.55 240.91,256.02C240.28,256.51 239.74,256.95 238.99,257.52C237.94,258.32 236.45,259.42 235.20499999999998,260.355C234,261.26 232.73,262.25 231.64,263.05C230.73,263.72 229.81,264.36 229.13,264.85C228.67,265.19 228.46,265.34 227.96,265.7C227.08,266.34 225.2,267.68 224.28,268.33C223.72,268.72 223.45,268.9 222.94,269.26C222.27,269.73 221.49,270.32 220.61,270.93C219.49,271.71 218,272.69 216.745,273.555C215.55,274.38 214.39,275.22 213.25,276C212.18,276.73 210.71,277.68 210.1,278.09C209.85,278.26 209.83,278.28 209.58,278.45C208.91,278.91 206.99,280.25 205.9,280.98C205.04,281.56 204.24,282.06 203.57,282.51C203.06,282.85 202.78,283.05 202.22,283.43C201.3,284.05 199.52,285.25 198.55,285.89C197.92,286.31 197.54,286.55 196.98,286.92C196.33,287.36 195.67,287.82 194.87,288.36C193.82,289.07 191.99,290.26 191.19,290.78C190.81,291.03 190.7,291.09 190.34,291.33C189.67,291.78 188.53,292.59 187.52,293.27C186.36,294.04 185,294.88 183.765,295.7C182.54,296.52 181.32,297.42 180.16,298.19C179.11,298.89 177.74,299.74 177.11,300.16C176.82,300.35 176.78,300.39 176.48,300.59C175.76,301.08 173.89,302.39 172.81,303.11C171.97,303.67 171.22,304.13 170.56,304.58C170.03,304.94 169.72,305.17 169.13,305.57C168.19,306.21 166.39,307.43 165.45,308.06C164.87,308.45 164.56,308.63 164.04,308.99C163.37,309.45 162.63,310 161.78,310.58C160.71,311.31 158.79,312.57 158.1,313.03C157.83,313.21 157.8,313.22 157.54,313.4C156.92,313.83 155.5,314.88 154.42,315.62C153.29,316.39 152.11,317.13 150.925,317.945C149.66,318.81 148.19,319.91 147.07,320.69C146.21,321.28 145.44,321.77 144.77,322.23C144.25,322.59 143.96,322.82 143.39,323.22C142.46,323.88 140.63,325.15 139.72,325.78C139.19,326.15 138.94,326.31 138.45,326.65C137.77,327.13 136.94,327.77 136.04,328.4C134.92,329.18 133.48,330.1 132.245,330.98C131.03,331.84 129.81,332.81 128.69,333.6C127.72,334.29 126.6,334.99 125.93,335.47C125.54,335.75 125.42,335.86 125.01,336.16C124.19,336.76 122.3,338.13 121.33,338.81C120.7,339.25 120.32,339.49 119.76,339.89C119.11,340.36 118.47,340.87 117.66,341.46C116.57,342.25 115.03,343.26 113.775,344.15999999999997C112.58,345.02 111.41,345.95 110.3,346.75C109.31,347.46 108.12,348.24 107.46,348.72C107.1,348.98 107.01,349.06 106.63,349.34C105.84,349.92 103.93,351.34 102.95,352.03C102.31,352.48 101.92,352.72 101.36,353.13C100.71,353.6 100.08,354.11 99.27,354.7C98.18,355.49 96.65,356.51 95.405,357.41499999999996C94.21,358.28 93.03,359.22 91.92,360.01C90.94,360.72 89.78,361.48 89.11,361.96C88.73,362.23 88.63,362.32 88.24,362.61C87.44,363.2 85.55,364.58 84.57,365.27C83.93,365.72 83.52,365.97 82.95,366.37C82.3,366.83 81.68,367.34 80.89,367.91C79.85,368.66 77.88,370 77.21,370.45C76.96,370.62 76.94,370.62 76.7,370.79C76.09,371.21 74.6,372.34 73.54,373.08C72.49,373.81 70.96,374.78 70.36,375.2C70.12,375.37 70.11,375.39 69.86,375.57C69.2,376.04 67.28,377.36 66.18,378.09C65.3,378.67 64.45,379.17 63.78,379.62C63.29,379.95 63.05,380.14 62.51,380.5C61.61,381.1 59.89,382.18 58.83,382.82C58.04,383.3 57.39,383.64 56.74,384.03C56.17,384.37 55.8,384.65 55.15,385.03C54.18,385.59 52.64,386.43 51.47,387.02C50.42,387.55 49.1,388.13 48.46,388.44C48.16,388.59 48.12,388.65 47.8,388.78C47.08,389.07 45.36,389.75 44.12,389.85C42.9,389.95 41.17,389.79 40.44,389.38Z" style="stroke-miterlimit: 1; vector-effect: non-scaling-stroke; fill: none; stroke: rgb(85, 62, 47); stroke-opacity: 1; stroke-width: 2px;"/></g><g class="contourlevel"><path class="closedline" d="M55.15,373.51C54.17,373.08 53.26,371.89 52.88,370.79C52.46,369.56 52.84,367.83 53.05,366.37C53.26,364.89 53.74,363.27 54.13,361.96C54.45,360.87 54.88,359.82 55.15,359.01C55.34,358.44 55.41,358.16 55.63,357.55C56.02,356.47 56.8,354.5 57.36,353.13C57.86,351.91 58.5,350.51 58.83,349.71C59.01,349.28 59.04,349.17 59.23,348.72C59.63,347.77 60.58,345.6 61.18,344.3C61.66,343.26 62.14,342.32 62.51,341.51C62.79,340.9 62.92,340.56 63.23,339.89C63.74,338.78 64.76,336.61 65.31,335.47C65.66,334.75 65.87,334.37 66.18,333.72C66.56,332.93 66.94,332.07 67.43,331.06C68.08,329.72 69,327.93 69.74000000000001,326.41999999999996C70.44,324.99 71.1,323.55 71.76,322.23C72.36,321.02 73.14,319.58 73.54,318.78C73.75,318.36 73.79,318.26 74,317.82C74.46,316.88 75.59,314.58 76.19,313.4C76.59,312.61 76.86,312.13 77.21,311.44C77.6,310.67 77.94,309.93 78.41,308.99C79.06,307.69 80.03,305.89 80.78999999999999,304.385C81.51,302.95 82.19,301.47 82.86,300.16C83.45,299 84.16,297.71 84.57,296.9C84.81,296.42 84.89,296.26 85.14,295.75C85.64,294.75 86.78,292.45 87.36,291.33C87.72,290.63 87.92,290.27 88.24,289.64C88.64,288.84 89.07,287.93 89.58,286.92C90.24,285.62 91.15,283.96 91.9,282.475C92.64,281.01 93.38,279.41 94.05,278.09C94.6,277 95.19,275.93 95.6,275.11C95.88,274.55 96,274.29 96.3,273.68C96.83,272.61 97.99,270.33 98.53,269.26C98.84,268.64 98.98,268.38 99.27,267.81C99.68,267 100.18,265.93 100.72,264.85C101.38,263.53 102.24,261.96 102.975,260.49C103.72,259.01 104.49,257.34 105.15,256.02C105.68,254.95 106.22,253.95 106.63,253.14C106.93,252.55 107.06,252.25 107.38,251.61C107.92,250.52 109.04,248.26 109.58,247.19C109.88,246.59 110.02,246.33 110.3,245.77C110.7,244.96 111.22,243.87 111.76,242.78C112.42,241.45 113.27,239.86 113.995,238.39C114.73,236.92 115.48,235.28 116.14,233.95C116.68,232.85 117.26,231.75 117.66,230.94C117.93,230.39 118.05,230.14 118.34,229.54C118.86,228.48 119.97,226.23 120.52,225.12C120.85,224.45 121.03,224.12 121.33,223.51C121.73,222.71 122.17,221.75 122.69,220.71C123.35,219.38 124.23,217.7 124.97,216.20999999999998C125.69,214.76 126.4,213.21 127.06,211.88C127.63,210.73 128.28,209.49 128.69,208.67C128.94,208.17 129.02,207.99 129.28,207.46C129.78,206.45 130.9,204.19 131.47,203.05C131.83,202.33 132.04,201.94 132.36,201.29C132.76,200.5 133.18,199.64 133.68,198.64C134.34,197.33 135.24,195.61 135.99,194.12C136.72,192.67 137.47,191.12 138.14,189.81C138.7,188.71 139.3,187.59 139.72,186.77C140,186.22 140.12,185.98 140.42,185.39C140.96,184.33 142.17,182.01 142.71,180.98C143,180.42 143.11,180.21 143.39,179.68C143.82,178.87 144.44,177.66 145.02,176.57C145.66,175.36 146.67,173.5 147.07,172.77C147.23,172.48 147.25,172.45 147.41,172.15C147.85,171.35 149.18,168.87 149.8,167.74C150.19,167.04 150.4,166.67 150.75,166.03C151.2,165.23 151.71,164.3 152.26,163.32C152.91,162.17 153.99,160.29 154.42,159.56C154.6,159.25 154.62,159.22 154.81,158.91C155.29,158.09 156.81,155.49 157.4,154.49C157.7,153.98 157.81,153.81 158.1,153.33C158.59,152.52 159.45,151.11 160.09,150.08C160.67,149.14 161.27,148.19 161.78,147.4C162.19,146.76 162.45,146.36 162.9,145.67C163.58,144.64 164.96,142.53 165.45,141.82C165.64,141.54 165.65,141.53 165.85,141.25C166.41,140.46 167.96,138.19 169.035,136.70499999999998C170.09,135.25 171.59,133.27 172.23,132.42C172.5,132.06 172.54,132 172.81,131.65C173.41,130.88 175.1,128.82 175.75,128.01C176.08,127.61 176.15,127.5 176.48,127.1C177.15,126.31 178.94,124.31 179.57,123.6C179.84,123.29 179.87,123.24 180.16,122.93C180.85,122.18 182.57,120.37 183.81,119.15C185.03,117.94 186.66,116.4 187.52,115.63C187.96,115.24 188.13,115.13 188.55,114.77C189.23,114.2 190.28,113.24 191.19,112.51C192.12,111.77 193.43,110.84 194.09,110.35C194.43,110.1 194.51,110.02 194.87,109.77C195.64,109.23 197.43,108.01 198.55,107.33C199.44,106.78 200.34,106.33 201.02,105.94C201.49,105.67 201.7,105.51 202.22,105.24C203.11,104.77 204.66,104 205.9,103.46C207.12,102.93 208.59,102.37 209.58,102.03C210.24,101.8 210.68,101.71 211.26,101.53C211.9,101.33 212.48,101.11 213.25,100.9C214.28,100.62 215.7,100.29 216.93,100.06C218.15,99.83 219.38,99.66 220.61,99.54C221.83,99.42 223.06,99.35 224.28,99.33C225.51,99.31 226.74,99.34 227.96,99.42C229.19,99.5 230.42,99.64 231.64,99.83C232.87,100.02 234.1,100.27 235.31,100.56C236.5,100.85 237.64,101.18 238.835,101.57C240.09,101.98 241.42,102.45 242.67,102.97C243.92,103.49 245.28,104.15 246.34,104.7C247.17,105.13 247.86,105.56 248.52,105.94C249.07,106.25 249.42,106.43 250.02,106.81C250.98,107.42 252.79,108.65 253.7,109.32C254.26,109.73 254.52,109.95 255.02,110.35C255.69,110.89 256.57,111.58 257.37,112.28C258.24,113.04 259.36,114.12 260.03,114.77C260.45,115.18 260.63,115.34 261.05,115.78C261.81,116.57 263.51,118.46 264.13,119.18C264.41,119.5 264.46,119.56 264.73,119.9C265.33,120.65 266.9,122.69 267.56,123.6C267.93,124.11 268.06,124.31 268.4,124.82C268.94,125.63 269.84,126.97 270.47,128.01C271.06,128.97 271.63,130.03 272.08,130.84C272.41,131.44 272.6,131.75 272.94,132.42C273.5,133.52 274.54,135.69 275.04,136.84C275.36,137.57 275.5,137.98 275.76,138.64C276.07,139.43 276.43,140.26 276.79,141.25C277.25,142.52 277.8,144.18 278.23,145.67C278.67,147.18 279.05,148.76 279.395,150.265C279.72,151.7 280,153.06 280.24,154.49C280.49,155.94 280.69,157.44 280.85,158.91C281.01,160.38 281.12,161.85 281.19,163.32C281.26,164.79 281.29,166.27 281.27,167.74C281.25,169.21 281.19,170.68 281.09,172.15C280.99,173.62 280.85,175.1 280.66,176.57C280.47,178.04 280.2,179.74 279.96,180.98C279.78,181.9 279.59,182.61 279.43,183.37C279.28,184.07 279.2,184.59 279.01,185.39C278.73,186.58 278.26,188.34 277.82,189.81C277.37,191.29 276.73,193.16 276.34,194.22C276.11,194.84 275.98,195.09 275.76,195.66C275.44,196.47 275.06,197.56 274.6,198.64C274.03,199.97 273.02,202.13 272.57,203.05C272.36,203.48 272.29,203.57 272.08,203.98C271.67,204.77 270.9,206.33 270.28,207.46C269.68,208.55 268.88,209.82 268.4,210.64C268.1,211.15 268.01,211.35 267.68,211.88C267.04,212.91 265.76,214.86 264.755,216.325C263.74,217.8 262.24,219.88 261.61,220.71C261.35,221.05 261.31,221.09 261.05,221.42C260.46,222.17 258.79,224.31 258.13,225.12C257.8,225.52 257.71,225.62 257.37,226.01C256.7,226.8 254.98,228.82 254.34,229.54C254.05,229.86 254,229.91 253.7,230.23C252.99,230.99 251.35,232.79 250.13,234.06C248.89,235.35 247,237.23 246.34,237.89C246.11,238.12 246.1,238.14 245.87,238.36C245.28,238.94 243.53,240.61 242.67,241.42C242.09,241.97 241.76,242.28 241.22,242.78C240.56,243.39 239.77,244.1 238.99,244.8C238.14,245.57 236.97,246.6 236.29,247.19C235.88,247.54 235.74,247.66 235.31,248.03C234.48,248.74 232.32,250.57 231.64,251.15C231.38,251.37 231.35,251.39 231.09,251.61C230.47,252.12 228.92,253.43 227.96,254.21C227.15,254.87 226.38,255.49 225.71,256.02C225.18,256.44 224.87,256.7 224.28,257.16C223.34,257.9 221.28,259.51 220.61,260.03C220.36,260.22 220.34,260.24 220.09,260.43C219.48,260.9 217.93,262.12 216.93,262.89C216.02,263.58 215.01,264.34 214.33,264.85C213.89,265.18 213.72,265.32 213.25,265.67C212.39,266.32 210.46,267.77 209.58,268.42C209.09,268.78 208.89,268.92 208.43,269.26C207.75,269.76 206.82,270.47 205.9,271.15C204.81,271.95 203.51,272.86 202.305,273.74C201.06,274.65 199.64,275.73 198.55,276.52C197.72,277.12 197,277.61 196.34,278.09C195.8,278.48 195.47,278.73 194.87,279.16C193.92,279.84 192.03,281.19 191.19,281.79C190.75,282.1 190.6,282.21 190.19,282.51C189.51,283 188.48,283.77 187.52,284.45C186.41,285.24 185.12,286.11 183.91,286.97C182.67,287.86 181.27,288.91 180.16,289.7C179.29,290.32 178.5,290.85 177.83,291.33C177.32,291.7 177.04,291.91 176.48,292.31C175.56,292.97 173.7,294.29 172.81,294.92C172.31,295.27 172.09,295.42 171.63,295.75C170.95,296.24 170.05,296.92 169.13,297.57C168.02,298.36 166.65,299.27 165.43,300.145C164.2,301.02 162.88,302.04 161.78,302.83C160.87,303.48 159.97,304.1 159.29,304.58C158.82,304.92 158.61,305.08 158.1,305.44C157.21,306.08 155.33,307.44 154.42,308.09C153.89,308.47 153.64,308.64 153.15,308.99C152.47,309.48 151.64,310.12 150.75,310.76C149.65,311.55 148.25,312.48 147.02499999999998,313.37C145.8,314.25 144.49,315.27 143.39,316.07C142.49,316.72 141.59,317.33 140.92,317.82C140.45,318.16 140.23,318.34 139.72,318.71C138.83,319.36 136.93,320.74 136.04,321.38C135.54,321.74 135.32,321.89 134.85,322.23C134.17,322.73 133.27,323.43 132.36,324.09C131.26,324.89 129.93,325.79 128.715,326.66999999999996C127.48,327.57 126.1,328.66 125.01,329.45C124.17,330.07 123.4,330.58 122.74,331.06C122.21,331.45 121.91,331.69 121.33,332.12C120.4,332.81 118.49,334.2 117.66,334.79C117.23,335.09 117.09,335.18 116.69,335.47C116.01,335.97 114.95,336.81 113.98,337.52C112.89,338.32 111.66,339.14 110.465,340.01C109.21,340.92 107.71,342.09 106.63,342.87C105.85,343.44 105.23,343.84 104.59,344.3C104.01,344.72 103.61,345.05 102.95,345.53C101.97,346.25 100.05,347.61 99.27,348.16C98.91,348.42 98.82,348.47 98.47,348.72C97.81,349.2 96.61,350.12 95.6,350.84C94.5,351.63 93.3,352.43 92.11,353.27C90.85,354.16 89.36,355.26 88.24,356.04C87.4,356.62 86.68,357.09 86.02,357.55C85.48,357.93 85.17,358.18 84.57,358.6C83.63,359.26 81.82,360.48 80.89,361.09C80.33,361.46 80.05,361.62 79.54,361.96C78.87,362.41 78.08,362.98 77.21,363.55C76.13,364.26 74.33,365.41 73.54,365.89C73.17,366.12 73.07,366.16 72.71,366.37C72.04,366.77 70.88,367.54 69.86,368.14C68.72,368.82 67.08,369.74 66.18,370.21C65.67,370.47 65.44,370.56 64.96,370.79C64.28,371.12 63.42,371.62 62.51,372.01C61.42,372.47 60.07,373.06 58.83,373.31C57.62,373.55 56.15,373.94 55.15,373.51Z" style="stroke-miterlimit: 1; vector-effect: non-scaling-stroke; fill: none; stroke: rgb(111, 76, 54); stroke-opacity: 1; stroke-width: 2px;"/></g><g class="contourlevel"><path class="closedline" d="M66.18,360.44C65.16,360.01 64.16,358.7 63.77,357.55C63.35,356.3 63.77,354.59 63.99,353.13C64.21,351.65 64.69,350.06 65.09,348.72C65.43,347.56 65.91,346.33 66.18,345.52C66.35,345.02 66.39,344.83 66.58,344.3C66.95,343.28 67.76,341.28 68.33,339.89C68.85,338.63 69.54,337.09 69.86,336.31C70.02,335.93 70.03,335.86 70.2,335.47C70.58,334.57 71.57,332.37 72.17,331.06C72.66,329.99 73.16,328.98 73.54,328.17C73.81,327.58 73.93,327.29 74.23,326.65C74.74,325.56 75.77,323.37 76.32,322.23C76.67,321.5 76.89,321.09 77.21,320.44C77.6,319.65 77.98,318.82 78.47,317.82C79.12,316.49 80.03,314.69 80.775,313.17999999999995C81.48,311.75 82.18,310.31 82.84,308.99C83.44,307.81 84.16,306.43 84.57,305.63C84.8,305.18 84.86,305.05 85.09,304.58C85.57,303.61 86.73,301.3 87.31,300.16C87.68,299.43 87.91,299.02 88.24,298.37C88.64,297.58 89.05,296.74 89.56,295.75C90.22,294.45 91.13,292.76 91.89,291.275C92.64,289.82 93.41,288.22 94.08,286.92C94.63,285.86 95.18,284.84 95.6,284.03C95.9,283.44 96.04,283.15 96.37,282.51C96.93,281.42 98.13,279.09 98.65,278.09C98.92,277.57 99.02,277.4 99.27,276.91C99.69,276.1 100.32,274.82 100.91,273.68C101.58,272.38 102.35,270.96 103.09,269.53499999999997C103.87,268.02 104.82,266.11 105.48,264.85C105.93,263.98 106.25,263.4 106.63,262.67C107.01,261.93 107.31,261.31 107.76,260.43C108.41,259.16 109.41,257.31 110.19,255.805C110.93,254.38 111.65,252.91 112.32,251.61C112.9,250.48 113.56,249.27 113.98,248.45C114.25,247.94 114.35,247.74 114.63,247.19C115.16,246.17 116.36,243.85 116.91,242.78C117.23,242.17 117.37,241.91 117.66,241.34C118.08,240.53 118.62,239.44 119.18,238.36C119.85,237.07 120.67,235.56 121.41499999999999,234.115C122.19,232.62 123.1,230.82 123.76,229.54C124.24,228.61 124.61,227.91 125.01,227.15C125.38,226.45 125.64,225.93 126.06,225.12C126.68,223.93 127.97,221.5 128.38,220.71C128.53,220.42 128.54,220.4 128.69,220.12C129.06,219.4 130.02,217.51 130.66,216.29C131.24,215.17 131.93,213.89 132.36,213.08C132.62,212.58 132.72,212.41 133,211.88C133.53,210.87 134.76,208.51 135.32,207.46C135.63,206.88 135.75,206.66 136.04,206.12C136.47,205.31 137.08,204.13 137.66,203.05C138.3,201.85 139.33,199.97 139.72,199.25C139.88,198.96 139.89,198.94 140.05,198.64C140.48,197.84 141.8,195.36 142.42,194.22C142.81,193.5 143.03,193.1 143.39,192.45C143.82,191.66 144.3,190.79 144.84,189.81C145.53,188.57 146.39,187.04 147.195,185.61C148.04,184.1 149.15,182.14 149.8,180.98C150.19,180.28 150.39,179.93 150.75,179.31C151.21,178.51 151.77,177.54 152.34,176.57C152.99,175.47 153.95,173.83 154.42,173.04C154.66,172.64 154.71,172.56 154.96,172.15C155.51,171.24 157.12,168.6 157.64,167.74C157.86,167.38 157.89,167.33 158.1,166.98C158.57,166.22 159.72,164.38 160.39,163.32C160.91,162.5 161.31,161.88 161.78,161.15C162.26,160.41 162.72,159.73 163.26,158.91C163.92,157.92 164.9,156.44 165.45,155.63C165.78,155.15 165.9,154.99 166.25,154.49C166.93,153.52 168.21,151.69 169.26,150.25C170.37,148.73 171.57,147.13 172.755,145.6C173.94,144.08 175.13,142.58 176.365,141.10500000000002C177.59,139.64 178.86,138.18 180.12,136.79500000000002C181.35,135.44 183.19,133.54 183.84,132.88C184.07,132.65 184.08,132.64 184.31,132.42C184.9,131.85 186.63,130.15 187.52,129.35C188.13,128.8 188.53,128.49 189.09,128.01C189.74,127.45 190.39,126.85 191.19,126.2C192.21,125.38 193.54,124.38 194.755,123.50999999999999C195.99,122.63 197.33,121.7 198.55,120.95C199.63,120.28 201.08,119.53 201.69,119.18C201.94,119.04 201.96,119.01 202.22,118.87C202.89,118.51 204.66,117.62 205.9,117.09C207.12,116.57 208.37,116.1 209.58,115.69C210.74,115.3 211.83,115 213.015,114.69999999999999C214.27,114.39 215.64,114.08 216.93,113.88C218.17,113.68 219.38,113.56 220.61,113.48C221.83,113.4 223.06,113.38 224.28,113.42C225.51,113.46 226.74,113.57 227.96,113.73C229.19,113.89 230.72,114.18 231.64,114.39C232.2,114.52 232.47,114.63 232.98,114.77C233.65,114.96 234.45,115.14 235.31,115.43C236.4,115.8 237.78,116.31 238.99,116.85C240.23,117.4 241.92,118.3 242.67,118.72C243.02,118.92 243.08,118.97 243.41,119.18C244.06,119.59 245.34,120.35 246.34,121.06C247.46,121.86 248.64,122.77 249.805,123.775C251.09,124.89 253.03,126.8 253.7,127.48C253.94,127.73 253.95,127.75 254.18,128.01C254.78,128.7 256.8,131.12 257.37,131.84C257.59,132.11 257.6,132.13 257.81,132.42C258.38,133.23 259.98,135.56 260.905,137.095C261.75,138.5 262.5,139.91 263.16,141.25C263.76,142.46 264.39,143.98 264.73,144.77C264.9,145.17 264.95,145.25 265.11,145.67C265.46,146.58 266.21,148.6 266.67,150.08C267.12,151.54 267.56,153.18 267.86,154.49C268.1,155.53 268.24,156.49 268.4,157.3C268.52,157.91 268.61,158.24 268.72,158.91C268.9,160.01 269.14,161.85 269.27,163.32C269.4,164.79 269.49,166.27 269.52,167.74C269.55,169.21 269.54,170.68 269.48,172.15C269.42,173.62 269.32,175.08 269.15,176.57C268.98,178.11 268.72,179.75 268.46,181.26C268.21,182.68 267.96,184 267.64,185.39C267.3,186.84 266.91,188.34 266.47,189.81C266.03,191.29 265.29,193.41 264.99,194.22C264.87,194.54 264.85,194.56 264.73,194.87C264.44,195.61 263.81,197.33 263.25,198.64C262.62,200.09 261.85,201.7 261.12,203.185C260.4,204.64 259.58,206.23 258.89,207.46C258.35,208.42 257.83,209.2 257.37,209.98C256.97,210.66 256.72,211.14 256.26,211.88C255.59,212.95 254.17,215.01 253.7,215.72C253.52,215.99 253.51,216.01 253.32,216.29C252.77,217.08 251.19,219.27 250.055,220.755C248.9,222.27 247.69,223.78 246.465,225.26C245.24,226.73 244,228.18 242.725,229.6C241.46,231.02 240.12,232.46 238.845,233.795C237.65,235.05 236.11,236.59 235.31,237.41C234.9,237.83 234.77,237.97 234.37,238.36C233.7,239.02 232.47,240.21 231.64,241C230.96,241.65 230.39,242.2 229.77,242.78C229.16,243.35 228.64,243.82 227.96,244.44C227.08,245.24 225.56,246.62 224.92,247.19C224.63,247.45 224.58,247.49 224.28,247.75C223.56,248.38 221.37,250.3 220.61,250.96C220.27,251.26 220.2,251.32 219.87,251.61C219.22,252.17 217.85,253.33 216.93,254.11C216.12,254.79 215.31,255.47 214.64,256.02C214.12,256.45 213.83,256.69 213.25,257.16C212.29,257.95 210.65,259.27 209.4,260.28499999999997C208.21,261.25 206.93,262.28 205.9,263.11C205.08,263.76 204.36,264.33 203.7,264.85C203.16,265.28 202.82,265.54 202.22,266.01C201.27,266.75 199.22,268.34 198.55,268.86C198.3,269.05 198.28,269.07 198.03,269.26C197.42,269.73 195.87,270.96 194.87,271.73C193.98,272.42 193,273.16 192.32,273.68C191.87,274.02 191.67,274.17 191.19,274.54C190.32,275.2 188.36,276.69 187.52,277.33C187.08,277.66 186.93,277.77 186.51,278.09C185.83,278.61 184.77,279.44 183.84,280.14C182.83,280.91 181.25,282.07 180.65,282.51C180.42,282.68 180.4,282.69 180.16,282.87C179.5,283.36 177.47,284.91 176.48,285.66C175.81,286.16 175.37,286.48 174.79,286.92C174.16,287.4 173.58,287.85 172.81,288.42C171.75,289.21 170.24,290.3 168.995,291.23C167.79,292.13 166.53,293.11 165.45,293.92C164.55,294.59 163.65,295.25 162.97,295.75C162.5,296.1 162.29,296.27 161.78,296.65C160.89,297.32 158.95,298.75 158.1,299.38C157.64,299.72 157.48,299.84 157.05,300.16C156.37,300.67 155.36,301.45 154.42,302.15C153.34,302.95 152.12,303.82 150.925,304.71C149.67,305.64 148.13,306.83 147.07,307.62C146.34,308.16 145.83,308.53 145.21,308.99C144.6,309.45 144.11,309.83 143.39,310.37C142.34,311.16 140.75,312.3 139.49,313.235C138.3,314.12 137.12,315.04 136.04,315.85C135.09,316.56 134.03,317.32 133.35,317.82C132.94,318.13 132.8,318.24 132.36,318.57C131.52,319.2 129.6,320.63 128.69,321.3C128.15,321.69 127.9,321.87 127.41,322.23C126.73,322.73 125.9,323.39 125.01,324.05C123.93,324.85 122.59,325.79 121.38,326.685C120.14,327.6 118.74,328.68 117.66,329.48C116.84,330.09 116.13,330.58 115.47,331.06C114.92,331.46 114.59,331.73 113.98,332.18C113.03,332.88 111.1,334.27 110.3,334.85C109.91,335.13 109.8,335.2 109.43,335.47C108.76,335.96 107.62,336.83 106.63,337.55C105.53,338.35 104.33,339.17 103.13499999999999,340.025C101.88,340.92 100.38,342.02 99.27,342.8C98.44,343.38 97.75,343.84 97.09,344.3C96.54,344.68 96.21,344.94 95.6,345.37C94.65,346.04 92.83,347.28 91.92,347.89C91.39,348.25 91.14,348.39 90.65,348.72C89.97,349.17 89.13,349.77 88.24,350.36C87.15,351.08 85.32,352.26 84.57,352.72C84.25,352.92 84.18,352.94 83.87,353.13C83.22,353.52 81.94,354.35 80.89,354.97C79.73,355.65 78.06,356.61 77.21,357.06C76.77,357.29 76.61,357.35 76.19,357.55C75.51,357.88 74.51,358.45 73.54,358.86C72.43,359.33 71.1,359.91 69.86,360.17C68.65,360.42 67.19,360.87 66.18,360.44Z" style="stroke-miterlimit: 1; vector-effect: non-scaling-stroke; fill: none; stroke: rgb(138, 93, 57); stroke-opacity: 1; stroke-width: 2px;"/></g><g class="contourlevel"><path class="closedline" d="M77.21,349.22C76.51,349.22 75.68,349.09 75.08,348.72C74.45,348.33 73.87,347.58 73.54,346.86C73.2,346.11 73.12,345.14 73.12,344.3C73.12,343.48 73.41,342.63 73.54,341.86C73.66,341.17 73.68,340.67 73.86,339.89C74.14,338.7 74.75,336.94 75.24,335.47C75.73,333.99 76.46,331.97 76.82,331.06C76.99,330.64 77.04,330.55 77.21,330.15C77.54,329.36 78.14,327.88 78.66,326.65C79.25,325.26 80.19,323.05 80.57,322.23C80.72,321.91 80.74,321.88 80.89,321.57C81.24,320.83 82.01,319.11 82.61,317.82C83.25,316.44 83.94,315 84.63499999999999,313.54999999999995C85.35,312.05 86.18,310.32 86.84,308.99C87.36,307.94 87.84,307 88.24,306.19C88.54,305.58 88.7,305.25 89.03,304.58C89.58,303.47 90.71,301.2 91.24,300.16C91.53,299.59 91.65,299.38 91.92,298.85C92.34,298.04 92.91,296.86 93.48,295.75C94.15,294.44 94.94,292.94 95.68,291.495C96.45,290 97.36,288.2 98.02,286.92C98.5,286 98.87,285.3 99.27,284.54C99.64,283.84 99.9,283.32 100.32,282.51C100.94,281.32 102.23,278.87 102.64,278.09C102.79,277.81 102.8,277.79 102.95,277.51C103.33,276.8 104.29,274.9 104.93,273.68C105.51,272.57 106.2,271.32 106.63,270.5C106.9,269.99 106.99,269.8 107.27,269.26C107.8,268.24 109.05,265.89 109.6,264.85C109.9,264.28 110.02,264.06 110.3,263.53C110.73,262.71 111.35,261.52 111.93,260.43C112.57,259.22 113.59,257.34 113.98,256.62C114.13,256.33 114.14,256.31 114.3,256.02C114.72,255.23 116.01,252.78 116.63,251.61C117.04,250.84 117.3,250.37 117.66,249.69C118.07,248.91 118.47,248.14 118.98,247.19C119.65,245.93 120.57,244.29 121.35499999999999,242.82C122.15,241.34 123.04,239.61 123.71,238.36C124.2,237.44 124.6,236.73 125.01,235.97C125.39,235.27 125.66,234.76 126.1,233.95C126.76,232.73 127.78,230.87 128.595,229.37C129.38,227.93 130.2,226.38 130.88,225.12C131.42,224.11 131.92,223.21 132.36,222.41C132.71,221.78 132.91,221.41 133.3,220.71C133.92,219.58 135.32,217.06 135.74,216.29C135.89,216.02 135.89,216.01 136.04,215.74C136.43,215.03 137.51,213.06 138.16,211.88C138.72,210.87 139.27,209.9 139.72,209.09C140.07,208.47 140.25,208.14 140.64,207.46C141.29,206.31 142.41,204.33 143.265,202.825C144.08,201.39 144.96,199.85 145.65,198.64C146.18,197.71 146.62,196.94 147.07,196.17C147.47,195.48 147.75,195 148.21,194.22C148.9,193.06 149.92,191.34 150.79000000000002,189.88C151.68,188.4 152.81,186.5 153.48,185.39C153.87,184.74 154.05,184.43 154.42,183.83C154.92,183.02 155.6,181.95 156.2,180.98C156.82,179.98 157.58,178.75 158.1,177.94C158.45,177.39 158.62,177.16 159,176.57C159.68,175.53 160.86,173.68 161.82999999999998,172.23000000000002C162.82,170.74 164.25,168.65 164.87,167.74C165.14,167.34 165.18,167.26 165.45,166.88C166,166.1 167.32,164.27 168,163.32C168.45,162.69 168.69,162.34 169.13,161.74C169.73,160.93 170.63,159.77 171.29,158.91C171.84,158.19 172.26,157.6 172.81,156.91C173.42,156.14 174.15,155.27 174.78,154.49C175.37,153.77 175.88,153.1 176.48,152.39C177.12,151.63 177.89,150.81 178.53,150.08C179.11,149.43 179.55,148.87 180.16,148.21C180.88,147.42 181.93,146.38 182.61,145.67C183.09,145.17 183.32,144.9 183.84,144.38C184.7,143.52 186.13,142.17 187.335,141.07999999999998C188.58,139.96 190.25,138.51 191.19,137.76C191.71,137.35 191.95,137.2 192.43,136.84C193.11,136.33 193.95,135.63 194.87,134.98C195.99,134.19 197.43,133.27 198.695,132.505C199.88,131.79 201.02,131.12 202.22,130.51C203.42,129.9 204.81,129.27 205.9,128.83C206.75,128.49 207.54,128.25 208.21,128.01C208.73,127.82 209.01,127.69 209.58,127.51C210.5,127.22 212.02,126.8 213.25,126.54C214.47,126.28 215.7,126.09 216.93,125.96C218.15,125.83 219.38,125.75 220.61,125.75C221.83,125.75 223.06,125.81 224.28,125.94C225.51,126.07 226.74,126.28 227.96,126.55C229.19,126.83 230.79,127.3 231.64,127.59C232.1,127.75 232.25,127.84 232.68,128.01C233.36,128.29 234.37,128.65 235.31,129.11C236.45,129.66 237.99,130.55 238.99,131.17C239.71,131.62 240.19,131.98 240.79,132.42C241.41,132.87 241.97,133.27 242.67,133.85C243.62,134.65 245.32,136.28 245.9,136.84C246.12,137.05 246.13,137.06 246.34,137.29C246.94,137.95 249.09,140.54 249.64,141.25C249.84,141.5 249.84,141.52 250.02,141.78C250.49,142.48 251.85,144.54 252.51,145.67C253,146.51 253.32,147.17 253.7,147.92C254.07,148.64 254.37,149.22 254.74,150.08C255.26,151.28 256,153.13 256.46,154.49C256.84,155.62 257.14,156.84 257.37,157.66C257.52,158.17 257.59,158.36 257.72,158.91C257.96,159.93 258.36,161.84 258.59,163.32C258.82,164.79 258.98,166.27 259.09,167.74C259.2,169.21 259.25,170.68 259.25,172.15C259.25,173.62 259.19,175.1 259.08,176.57C258.97,178.04 258.81,179.51 258.6,180.98C258.38,182.45 258.03,184.28 257.79,185.39C257.64,186.07 257.52,186.41 257.37,187.03C257.17,187.83 256.98,188.78 256.69,189.81C256.32,191.12 255.8,192.77 255.29,194.22C254.78,195.66 254.23,197.03 253.63,198.45999999999998C253,199.97 252.23,201.7 251.57,203.05C251.04,204.15 250.45,205.17 250.02,205.98C249.72,206.56 249.6,206.84 249.25,207.46C248.62,208.58 247.42,210.6 246.485,212.095C245.58,213.54 244.45,215.26 243.74,216.29C243.31,216.91 243.09,217.19 242.67,217.76C242.08,218.57 241.2,219.83 240.54,220.71C239.99,221.44 239.53,221.98 238.99,222.67C238.38,223.44 237.7,224.35 237.06,225.12C236.47,225.84 235.91,226.46 235.31,227.17C234.66,227.93 233.94,228.81 233.3,229.54C232.73,230.19 232.24,230.7 231.64,231.36C230.92,232.15 229.96,233.23 229.28,233.95C228.78,234.48 228.49,234.77 227.96,235.31C227.17,236.12 225.65,237.7 225,238.36C224.68,238.68 224.61,238.74 224.28,239.06C223.52,239.8 221.79,241.52 220.54500000000002,242.715C219.34,243.88 217.8,245.31 216.93,246.12C216.44,246.58 216.24,246.77 215.78,247.19C215.1,247.81 214.08,248.73 213.25,249.48C212.45,250.2 211.55,251.01 210.88,251.61C210.38,252.05 210.13,252.27 209.58,252.74C208.66,253.54 207.08,254.91 205.84,255.96999999999997C204.63,257.01 203.19,258.24 202.22,259.06C201.57,259.61 201.17,259.95 200.6,260.43C199.96,260.97 199.33,261.5 198.55,262.14C197.54,262.97 196.25,264.02 195.06,265C193.8,266.03 192.15,267.38 191.19,268.16C190.62,268.62 190.34,268.84 189.83,269.26C189.16,269.8 188.36,270.46 187.52,271.13C186.54,271.92 184.89,273.22 184.3,273.68C184.08,273.85 184.07,273.86 183.84,274.04C183.2,274.55 181.1,276.22 180.16,276.97C179.58,277.43 179.27,277.67 178.74,278.09C178.07,278.62 177.32,279.21 176.48,279.87C175.44,280.69 174.15,281.68 172.95,282.615C171.7,283.59 170.15,284.82 169.13,285.61C168.46,286.14 168.03,286.47 167.45,286.92C166.81,287.42 166.22,287.88 165.45,288.47C164.4,289.27 162.97,290.35 161.745,291.30499999999995C160.52,292.25 159.15,293.35 158.1,294.16C157.31,294.77 156.67,295.25 156.02,295.75C155.45,296.19 155.06,296.49 154.42,296.98C153.45,297.72 151.41,299.28 150.75,299.78C150.51,299.97 150.49,299.98 150.25,300.16C149.65,300.62 148.08,301.86 147.07,302.63C146.17,303.32 145.17,304.06 144.49,304.58C144.05,304.92 143.86,305.06 143.39,305.42C142.52,306.08 140.57,307.57 139.72,308.21C139.27,308.55 139.11,308.67 138.69,308.99C138.01,309.51 136.97,310.32 136.04,311.02C135.03,311.78 133.45,312.95 132.85,313.4C132.61,313.58 132.6,313.6 132.36,313.78C131.71,314.28 129.68,315.82 128.69,316.56C128.02,317.06 127.58,317.38 126.99,317.82C126.35,318.3 125.78,318.75 125.01,319.32C123.95,320.11 122.44,321.2 121.195,322.13C119.99,323.02 118.75,323.98 117.66,324.78C116.73,325.46 115.75,326.15 115.07,326.65C114.63,326.97 114.45,327.11 113.98,327.46C113.12,328.09 111.22,329.45 110.3,330.11C109.74,330.51 109.47,330.7 108.96,331.06C108.29,331.54 107.51,332.13 106.63,332.75C105.52,333.54 104.07,334.53 102.825,335.39C101.62,336.22 100.42,337.05 99.27,337.82C98.2,338.54 96.76,339.47 96.15,339.89C95.89,340.07 95.87,340.09 95.6,340.27C94.92,340.72 93.08,341.85 91.92,342.56C90.89,343.19 89.66,343.9 89,344.3C88.66,344.5 88.59,344.57 88.24,344.77C87.48,345.2 85.8,346.07 84.57,346.67C83.35,347.26 81.89,347.99 80.89,348.33C80.25,348.55 79.83,348.58 79.25,348.72C78.61,348.88 77.9,349.22 77.21,349.22Z" style="stroke-miterlimit: 1; vector-effect: non-scaling-stroke; fill: none; stroke: rgb(161, 112, 59); stroke-opacity: 1; stroke-width: 2px;"/></g><g class="contourlevel"><path class="closedline" d="M84.57,338.42C83.53,337.99 82.49,336.64 82.11,335.47C81.7,334.21 82.15,332.52 82.38,331.06C82.61,329.58 83.1,327.98 83.5,326.65C83.84,325.52 84.29,324.38 84.57,323.56C84.75,323.02 84.81,322.8 85.02,322.23C85.41,321.18 86.23,319.18 86.8,317.82C87.3,316.63 87.89,315.3 88.24,314.49C88.44,314.03 88.49,313.88 88.7,313.4C89.13,312.42 90.13,310.25 90.72,308.99C91.17,308.04 91.55,307.27 91.92,306.49C92.24,305.81 92.45,305.35 92.82,304.58C93.38,303.41 94.46,301.18 94.97,300.16C95.24,299.62 95.34,299.43 95.6,298.92C96.01,298.11 96.6,296.88 97.17,295.75C97.83,294.43 98.61,292.92 99.345,291.475C100.11,289.98 101.02,288.2 101.68,286.92C102.16,285.99 102.55,285.27 102.95,284.5C103.31,283.8 103.57,283.3 103.98,282.51C104.6,281.33 105.89,278.88 106.31,278.09C106.47,277.8 106.48,277.78 106.63,277.49C107.01,276.77 108,274.88 108.64,273.68C109.22,272.59 109.86,271.39 110.3,270.57C110.58,270.04 110.7,269.83 111,269.26C111.56,268.22 112.84,265.84 113.37,264.85C113.64,264.35 113.72,264.2 113.98,263.72C114.42,262.91 115.15,261.54 115.75,260.43C116.37,259.28 117.23,257.73 117.66,256.94C117.88,256.53 117.93,256.44 118.16,256.02C118.66,255.1 119.98,252.67 120.56,251.61C120.89,251.01 121.02,250.76 121.33,250.2C121.78,249.38 122.4,248.24 122.98,247.19C123.62,246.03 124.59,244.29 125.01,243.53C125.2,243.19 125.23,243.13 125.43,242.78C125.91,241.92 127.27,239.44 127.87,238.36C128.22,237.74 128.37,237.46 128.69,236.89C129.14,236.08 129.75,234.98 130.33,233.95C130.97,232.81 131.92,231.12 132.36,230.35C132.57,229.98 132.61,229.92 132.83,229.54C133.33,228.66 134.74,226.15 135.32,225.12C135.63,224.57 135.75,224.37 136.04,223.85C136.5,223.04 137.23,221.77 137.84,220.71C138.46,219.63 139.25,218.26 139.72,217.45C140,216.97 140.09,216.8 140.39,216.29C140.97,215.29 142.48,212.73 142.97,211.88C143.17,211.53 143.19,211.49 143.39,211.15C143.83,210.39 144.91,208.57 145.57,207.46C146.12,206.54 146.6,205.72 147.07,204.94C147.48,204.26 147.76,203.81 148.22,203.05C148.91,201.91 149.94,200.22 150.83499999999998,198.77499999999998C151.76,197.28 153.03,195.26 153.67,194.22C154,193.68 154.1,193.5 154.42,193C154.93,192.19 155.84,190.81 156.48,189.81C157.05,188.92 157.59,188.06 158.1,187.28C158.55,186.6 158.88,186.12 159.37,185.39C160.05,184.38 161.25,182.57 161.78,181.8C162.03,181.43 162.08,181.36 162.35,180.98C162.97,180.09 164.39,178.03 165.445,176.56C166.5,175.08 168.09,172.95 168.68,172.15C168.9,171.85 168.91,171.82 169.13,171.53C169.68,170.8 171.43,168.58 172.08,167.74C172.41,167.32 172.48,167.21 172.81,166.8C173.45,166 175.05,164.11 175.71,163.32C176.05,162.91 176.13,162.79 176.48,162.38C177.16,161.58 178.98,159.6 179.6,158.91C179.86,158.62 179.89,158.57 180.16,158.28C180.85,157.55 182.61,155.72 183.85500000000002,154.505C185.07,153.32 186.62,151.88 187.52,151.09C188.03,150.64 188.26,150.48 188.74,150.08C189.42,149.52 190.29,148.73 191.19,148.02C192.23,147.2 193.45,146.32 194.64499999999998,145.5C195.89,144.64 197.27,143.74 198.55,142.99C199.73,142.3 200.83,141.73 202.035,141.15C203.28,140.55 204.62,139.96 205.9,139.48C207.13,139.02 208.35,138.63 209.58,138.31C210.8,137.99 212.02,137.73 213.25,137.54C214.47,137.36 215.7,137.24 216.93,137.2C218.16,137.16 219.39,137.18 220.61,137.29C221.84,137.4 223.06,137.59 224.28,137.86C225.52,138.14 226.75,138.5 227.96,138.95C229.2,139.41 230.79,140.18 231.64,140.62C232.11,140.86 232.27,140.98 232.69,141.25C233.37,141.68 234.42,142.32 235.31,143C236.32,143.77 237.79,145.1 238.41,145.67C238.69,145.93 238.73,145.96 238.99,146.25C239.64,146.96 241.59,149.31 242.18,150.08C242.42,150.4 242.46,150.45 242.67,150.78C243.15,151.52 244.26,153.29 244.89,154.49C245.46,155.57 245.98,156.82 246.34,157.64C246.57,158.16 246.67,158.35 246.87,158.91C247.24,159.93 247.88,161.84 248.26,163.32C248.64,164.78 248.94,166.26 249.17,167.74C249.4,169.21 249.55,170.68 249.64,172.15C249.73,173.62 249.76,175.1 249.72,176.57C249.68,178.04 249.58,179.51 249.43,180.98C249.28,182.45 249.07,183.92 248.8,185.39C248.53,186.87 248.21,188.33 247.82,189.81C247.42,191.34 246.92,192.94 246.425,194.44C245.94,195.88 245.47,197.21 244.89,198.64C244.27,200.17 243.52,201.82 242.81,203.32C242.13,204.75 241.39,206.21 240.71,207.46C240.12,208.54 239.46,209.6 238.99,210.41C238.66,210.98 238.52,211.27 238.15,211.88C237.49,212.96 236.29,214.81 235.3,216.26999999999998C234.29,217.76 232.77,219.89 232.16,220.71C231.92,221.04 231.88,221.07 231.64,221.38C231.07,222.12 229.42,224.29 228.75,225.12C228.41,225.54 228.31,225.65 227.96,226.06C227.3,226.85 225.73,228.77 225.06,229.54C224.72,229.93 224.63,230.01 224.28,230.4C223.58,231.18 221.73,233.29 221.12,233.95C220.88,234.21 220.86,234.23 220.61,234.49C219.95,235.19 218.17,237.1 216.935,238.37C215.71,239.63 213.99,241.34 213.25,242.09C212.93,242.41 212.88,242.47 212.57,242.78C211.93,243.41 210.42,244.86 209.58,245.67C208.97,246.26 208.57,246.65 208,247.19C207.35,247.8 206.64,248.45 205.9,249.14C205.07,249.91 203.92,250.99 203.24,251.61C202.82,251.99 202.67,252.12 202.22,252.52C201.36,253.29 199.68,254.81 198.435,255.915C197.23,256.98 195.82,258.22 194.87,259.05C194.24,259.6 193.86,259.94 193.3,260.43C192.65,260.99 191.96,261.57 191.19,262.23C190.26,263.02 188.76,264.32 188.13,264.85C187.85,265.09 187.81,265.12 187.52,265.36C186.81,265.95 184.67,267.75 183.84,268.45C183.42,268.81 183.28,268.92 182.88,269.26C182.2,269.83 181.06,270.78 180.16,271.52C179.28,272.25 178.23,273.12 177.55,273.68C177.12,274.03 176.94,274.17 176.48,274.54C175.62,275.24 173.55,276.94 172.81,277.54C172.49,277.8 172.44,277.84 172.13,278.09C171.48,278.61 170.08,279.76 169.13,280.53C168.27,281.23 167.36,281.97 166.68,282.51C166.2,282.89 165.97,283.07 165.45,283.48C164.55,284.19 162.5,285.85 161.78,286.42C161.48,286.66 161.44,286.69 161.15,286.92C160.51,287.43 159.07,288.59 158.1,289.36C157.23,290.05 156.28,290.8 155.6,291.33C155.13,291.7 154.92,291.86 154.42,292.26C153.53,292.96 151.52,294.55 150.75,295.15C150.4,295.43 150.32,295.48 149.98,295.75C149.32,296.27 148.03,297.29 147.07,298.04C146.14,298.76 145,299.63 144.33,300.16C143.93,300.47 143.81,300.57 143.39,300.9C142.57,301.54 140.58,303.07 139.72,303.74C139.25,304.1 139.07,304.24 138.63,304.58C137.95,305.1 136.95,305.88 136.04,306.58C135.04,307.35 133.46,308.53 132.86,308.99C132.62,309.17 132.6,309.18 132.36,309.37C131.7,309.87 129.68,311.42 128.69,312.16C128.03,312.66 127.61,312.96 127.03,313.4C126.39,313.88 125.79,314.35 125.01,314.93C123.94,315.73 122.46,316.81 121.21000000000001,317.73C120.01,318.62 118.76,319.54 117.66,320.34C116.71,321.02 115.69,321.74 115.01,322.23C114.59,322.54 114.43,322.67 113.98,322.99C113.13,323.6 111.27,324.89 110.3,325.56C109.66,326 109.28,326.26 108.71,326.65C108.06,327.09 107.42,327.54 106.63,328.08C105.58,328.79 103.76,329.99 102.95,330.51C102.55,330.76 102.43,330.82 102.05,331.06C101.38,331.47 100.27,332.19 99.27,332.79C98.14,333.47 96.47,334.46 95.6,334.93C95.13,335.18 94.94,335.25 94.49,335.47C93.81,335.81 92.87,336.35 91.92,336.76C90.82,337.24 89.48,337.82 88.24,338.1C87.03,338.37 85.59,338.84 84.57,338.42Z" style="stroke-miterlimit: 1; vector-effect: non-scaling-stroke; fill: none; stroke: rgb(180, 134, 64); stroke-opacity: 1; stroke-width: 2px;"/></g><g class="contourlevel"><path class="closedline" d="M91.92,327.88C91.39,327.6 91.13,327.24 90.9,326.65C90.51,325.67 90.51,323.7 90.62,322.23C90.73,320.75 91.28,318.78 91.55,317.82C91.68,317.34 91.76,317.22 91.92,316.77C92.2,315.97 92.65,314.59 93.09,313.4C93.6,312.02 94.33,310.13 94.8,308.99C95.11,308.25 95.31,307.84 95.6,307.18C95.95,306.39 96.3,305.56 96.73,304.58C97.3,303.3 98.27,301.14 98.73,300.16C98.96,299.66 99.04,299.51 99.27,299.04C99.66,298.23 100.29,296.92 100.86,295.75C101.52,294.4 102.26,292.86 102.985,291.4C103.72,289.91 104.59,288.22 105.26,286.92C105.77,285.92 106.22,285.07 106.63,284.28C106.96,283.63 107.17,283.23 107.54,282.51C108.13,281.37 109.38,278.99 109.85,278.09C110.06,277.7 110.1,277.62 110.3,277.24C110.71,276.46 111.58,274.84 112.2,273.68C112.8,272.56 113.54,271.18 113.98,270.37C114.23,269.9 114.31,269.75 114.58,269.26C115.11,268.28 116.41,265.87 116.97,264.85C117.27,264.31 117.38,264.11 117.66,263.6C118.11,262.79 118.8,261.51 119.4,260.43C120.03,259.29 120.89,257.72 121.33,256.93C121.56,256.53 121.61,256.44 121.85,256.02C122.37,255.1 123.74,252.63 124.31,251.61C124.61,251.06 124.72,250.86 125.01,250.35C125.47,249.53 126.19,248.26 126.79,247.19C127.41,246.09 128.23,244.65 128.69,243.85C128.95,243.39 129.03,243.26 129.3,242.78C129.86,241.81 131.3,239.29 131.83,238.36C132.07,237.94 132.13,237.84 132.36,237.43C132.82,236.64 133.74,235.05 134.38,233.95C134.96,232.95 135.56,231.9 136.04,231.09C136.39,230.49 136.58,230.19 136.97,229.54C137.63,228.42 138.76,226.49 139.64499999999998,224.995C140.51,223.54 141.52,221.87 142.21,220.71C142.68,219.92 142.97,219.41 143.39,218.72C143.86,217.95 144.34,217.18 144.89,216.29C145.55,215.22 146.58,213.51 147.07,212.73C147.31,212.35 147.36,212.27 147.61,211.88C148.18,210.98 149.87,208.25 150.37,207.46C150.55,207.17 150.57,207.15 150.75,206.86C151.21,206.14 152.53,204.11 153.2,203.05C153.68,202.3 153.98,201.81 154.42,201.13C154.93,200.35 155.51,199.51 156.09,198.64C156.73,197.68 157.55,196.41 158.1,195.6C158.47,195.05 158.65,194.8 159.06,194.22C159.76,193.2 160.94,191.47 161.95,190.04000000000002C163.04,188.5 164.23,186.82 165.37,185.27499999999998C166.46,183.8 168.01,181.8 168.62,180.98C168.86,180.65 168.88,180.61 169.13,180.29C169.71,179.54 171.47,177.38 172.12,176.57C172.43,176.18 172.49,176.08 172.81,175.7C173.46,174.91 175.22,172.9 175.85,172.15C176.14,171.81 176.18,171.74 176.48,171.4C177.17,170.61 178.8,168.84 180.01999999999998,167.57999999999998C181.26,166.3 183.16,164.42 183.84,163.77C184.08,163.54 184.1,163.54 184.34,163.32C184.94,162.78 186.58,161.25 187.52,160.45C188.24,159.84 188.83,159.41 189.46,158.91C190.05,158.43 190.49,158.02 191.19,157.5C192.18,156.76 194.1,155.44 194.87,154.94C195.21,154.72 195.29,154.69 195.63,154.49C196.29,154.1 197.51,153.31 198.55,152.75C199.69,152.13 201.11,151.44 202.22,150.97C203.1,150.6 203.97,150.33 204.65,150.08C205.14,149.9 205.37,149.78 205.9,149.61C206.8,149.33 208.35,148.91 209.58,148.68C210.8,148.45 212.02,148.29 213.25,148.22C214.47,148.15 215.71,148.16 216.93,148.26C218.16,148.36 219.39,148.55 220.61,148.85C221.85,149.15 223.1,149.55 224.305,150.07C225.55,150.61 226.82,151.33 227.96,152.08C229.06,152.81 230.41,153.96 231.03,154.49C231.32,154.74 231.37,154.77 231.64,155.06C232.3,155.76 234.26,158.12 234.84,158.91C235.08,159.24 235.11,159.3 235.31,159.64C235.76,160.39 236.72,162.02 237.32,163.32C237.96,164.7 238.55,166.23 239,167.71C239.44,169.17 239.76,170.66 240.01,172.15C240.26,173.62 240.41,175.1 240.5,176.57C240.59,178.04 240.6,179.51 240.54,180.98C240.48,182.45 240.34,183.92 240.15,185.39C239.96,186.87 239.61,188.73 239.38,189.81C239.24,190.45 239.14,190.73 238.99,191.31C238.78,192.12 238.56,193.16 238.25,194.22C237.86,195.55 237.29,197.26 236.77,198.64C236.3,199.88 235.63,201.35 235.31,202.14C235.14,202.54 235.12,202.64 234.94,203.05C234.53,203.97 233.43,206.27 232.81,207.46C232.38,208.29 232.04,208.83 231.64,209.54C231.22,210.3 230.86,211.01 230.35,211.88C229.69,213 228.41,214.97 227.96,215.69C227.78,215.98 227.78,216 227.59,216.29C227.06,217.11 225.48,219.39 224.41,220.88C223.36,222.33 221.88,224.28 221.23,225.12C220.95,225.48 220.89,225.53 220.61,225.88C219.99,226.64 218.31,228.76 217.65,229.54C217.33,229.92 217.25,229.99 216.93,230.36C216.26,231.13 214.45,233.25 213.82,233.95C213.56,234.24 213.52,234.27 213.25,234.56C212.57,235.3 210.91,237.15 209.675,238.46C208.39,239.82 206.99,241.27 205.70499999999998,242.575C204.51,243.79 203.06,245.19 202.22,246.04C201.74,246.53 201.54,246.74 201.08,247.19C200.41,247.85 199.35,248.84 198.55,249.61C197.82,250.31 197.12,251 196.47,251.61C195.9,252.14 195.49,252.51 194.87,253.08C193.99,253.89 192.31,255.47 191.7,256.02C191.46,256.24 191.44,256.25 191.19,256.47C190.52,257.06 188.27,259.11 187.52,259.79C187.19,260.09 187.13,260.15 186.81,260.43C186.16,261.01 184.74,262.26 183.84,263.05C183.1,263.71 182.45,264.29 181.81,264.85C181.23,265.35 180.81,265.71 180.16,266.27C179.2,267.1 177.79,268.31 176.58499999999998,269.35C175.35,270.41 173.74,271.76 172.81,272.56C172.26,273.03 172.01,273.26 171.51,273.68C170.84,274.25 169.96,274.97 169.13,275.67C168.21,276.44 166.89,277.54 166.23,278.09C165.89,278.37 165.81,278.44 165.45,278.73C164.68,279.37 162.59,281.09 161.78,281.76C161.38,282.09 161.27,282.19 160.89,282.51C160.22,283.06 159.02,284.03 158.1,284.78C157.21,285.5 156.15,286.37 155.47,286.92C155.04,287.27 154.88,287.39 154.42,287.76C153.57,288.45 151.52,290.1 150.75,290.72C150.4,291 150.33,291.06 149.99,291.33C149.33,291.86 148.02,292.9 147.07,293.66C146.17,294.38 145.12,295.21 144.44,295.75C144.01,296.09 143.85,296.21 143.39,296.57C142.54,297.24 140.54,298.8 139.72,299.44C139.31,299.76 139.19,299.86 138.8,300.16C138.13,300.68 136.98,301.58 136.04,302.3C135.07,303.05 133.72,304.08 133.07,304.58C132.75,304.82 132.69,304.87 132.36,305.12C131.61,305.69 129.64,307.18 128.69,307.89C128.09,308.34 127.75,308.59 127.21,308.99C126.55,309.48 125.84,310.02 125.01,310.63C123.93,311.43 122.51,312.47 121.275,313.36C120.06,314.23 118.78,315.12 117.66,315.91C116.68,316.59 115.58,317.35 114.91,317.82C114.52,318.09 114.4,318.19 113.98,318.47C113.16,319.02 111.37,320.19 110.3,320.87C109.48,321.39 108.79,321.82 108.13,322.23C107.58,322.57 107.25,322.81 106.63,323.18C105.68,323.75 104.1,324.63 102.95,325.24C101.96,325.77 100.82,326.31 100.15,326.65C99.77,326.84 99.67,326.93 99.27,327.09C98.47,327.41 96.84,328.07 95.6,328.2C94.39,328.33 92.72,328.3 91.92,327.88Z" style="stroke-miterlimit: 1; vector-effect: non-scaling-stroke; fill: none; stroke: rgb(195, 161, 78); stroke-opacity: 1; stroke-width: 2px;"/></g><g class="contourlevel"><path class="closedline" d="M102.95,318.35C102.17,318.38 101.05,318.2 100.42,317.82C99.89,317.5 99.54,317.04 99.27,316.44C98.92,315.66 98.81,314.34 98.83,313.4C98.85,312.58 99.12,311.87 99.27,311.12C99.41,310.4 99.47,309.82 99.69,308.99C100.01,307.78 100.65,306.06 101.18,304.58C101.72,303.07 102.28,301.5 102.88499999999999,300.01C103.48,298.56 104.15,297.17 104.79,295.75C105.43,294.33 106.03,292.95 106.71000000000001,291.51C107.42,290.01 108.3,288.25 108.96,286.92C109.46,285.9 109.9,285.03 110.3,284.23C110.62,283.59 110.81,283.22 111.17,282.51C111.75,281.38 112.94,279.05 113.44,278.09C113.68,277.63 113.75,277.51 113.98,277.07C114.41,276.27 115.18,274.82 115.79,273.68C116.41,272.52 117.24,270.97 117.66,270.18C117.88,269.77 117.92,269.68 118.15,269.26C118.65,268.34 119.99,265.91 120.57,264.85C120.9,264.25 121.02,264 121.33,263.45C121.78,262.63 122.43,261.48 123.02,260.43C123.66,259.29 124.57,257.66 125.01,256.88C125.23,256.5 125.27,256.42 125.5,256.02C126.01,255.12 127.44,252.61 128.01,251.61C128.31,251.09 128.41,250.91 128.69,250.42C129.16,249.61 129.95,248.26 130.57,247.19C131.17,246.15 131.88,244.9 132.36,244.09C132.67,243.56 132.8,243.35 133.14,242.78C133.78,241.7 135,239.62 135.89499999999998,238.11C136.75,236.68 137.7,235.12 138.4,233.95C138.91,233.1 139.27,232.48 139.72,231.75C140.17,231.01 140.58,230.38 141.09,229.54C141.76,228.45 142.93,226.51 143.39,225.77C143.58,225.46 143.61,225.43 143.81,225.12C144.33,224.31 146.02,221.59 146.57,220.71C146.8,220.34 146.84,220.27 147.07,219.91C147.56,219.14 148.73,217.33 149.4,216.29C149.91,215.5 150.28,214.9 150.75,214.19C151.24,213.44 151.74,212.72 152.29,211.88C152.94,210.89 153.87,209.45 154.42,208.64C154.75,208.15 154.88,207.98 155.24,207.46C155.92,206.48 157.17,204.61 158.18,203.16000000000003C159.22,201.67 160.85,199.41 161.4,198.64C161.59,198.37 161.59,198.36 161.78,198.1C162.29,197.4 164,195.11 164.66,194.22C165.01,193.75 165.1,193.59 165.45,193.14C166.06,192.33 167.39,190.68 168.07,189.81C168.5,189.25 168.69,188.98 169.13,188.44C169.79,187.62 170.99,186.21 171.67,185.39C172.13,184.84 172.34,184.55 172.81,184C173.51,183.18 174.83,181.75 175.5,180.98C175.91,180.51 176.05,180.32 176.48,179.85C177.23,179.03 179.05,177.21 179.65,176.57C179.89,176.31 179.9,176.28 180.16,176.02C180.84,175.33 182.79,173.48 184.06,172.335C185.23,171.28 186.49,170.2 187.52,169.37C188.32,168.73 189.05,168.24 189.71,167.74C190.25,167.33 190.57,167.03 191.19,166.6C192.13,165.94 193.86,164.82 194.87,164.23C195.54,163.84 196,163.63 196.59,163.32C197.22,162.98 197.78,162.63 198.55,162.27C199.57,161.79 200.98,161.19 202.22,160.76C203.43,160.34 204.66,159.98 205.9,159.72C207.12,159.46 208.35,159.27 209.58,159.19C210.8,159.11 212.03,159.12 213.25,159.26C214.48,159.4 215.72,159.64 216.93,160.02C218.18,160.41 219.53,161.01 220.61,161.61C221.54,162.13 222.41,162.8 223.07,163.32C223.56,163.7 223.82,163.9 224.28,164.37C225.05,165.15 226.44,166.83 227.09,167.74C227.49,168.31 227.65,168.61 227.96,169.19C228.39,169.99 228.95,171.05 229.38,172.15C229.89,173.46 230.38,175.09 230.71,176.57C231.03,178.03 231.24,179.51 231.35,180.98C231.46,182.45 231.46,183.92 231.4,185.39C231.34,186.86 231.18,188.34 230.96,189.81C230.74,191.29 230.44,192.76 230.09,194.22C229.74,195.7 229.25,197.41 228.84,198.64C228.54,199.55 228.24,200.22 227.96,200.98C227.7,201.69 227.54,202.24 227.21,203.05C226.72,204.25 225.79,206.32 225.23,207.46C224.87,208.2 224.62,208.6 224.28,209.25C223.87,210.04 223.46,210.91 222.92,211.88C222.23,213.11 221.34,214.61 220.455,216.02499999999998C219.5,217.55 217.95,219.89 217.38,220.71C217.17,221.01 217.14,221.03 216.93,221.32C216.4,222.04 214.87,224.22 214.19,225.12C213.8,225.63 213.64,225.81 213.25,226.3C212.61,227.11 211.43,228.7 210.74,229.54C210.29,230.1 210.04,230.35 209.58,230.9C208.9,231.71 207.73,233.16 207.04,233.95C206.59,234.47 206.36,234.7 205.9,235.22C205.18,236.03 203.8,237.62 203.12,238.36C202.74,238.77 202.61,238.89 202.22,239.31C201.47,240.1 199.57,242.17 198.99,242.78C198.78,243 198.77,243.01 198.55,243.23C197.91,243.89 196.02,245.84 194.775,247.095C193.57,248.31 192.01,249.82 191.19,250.63C190.76,251.06 190.62,251.21 190.21,251.61C189.54,252.27 188.34,253.39 187.52,254.17C186.82,254.84 186.22,255.43 185.59,256.02C185,256.58 184.5,257.02 183.84,257.63C182.97,258.43 181.48,259.84 180.83,260.43C180.53,260.71 180.47,260.75 180.16,261.03C179.43,261.69 177.15,263.73 176.48,264.35C176.22,264.59 176.2,264.62 175.95,264.85C175.34,265.4 173.72,266.82 172.81,267.62C172.11,268.24 171.58,268.72 170.96,269.26C170.35,269.79 169.84,270.23 169.13,270.84C168.16,271.68 166.85,272.83 165.66,273.855C164.41,274.93 162.68,276.38 161.78,277.15C161.3,277.56 161.12,277.71 160.68,278.09C160,278.66 158.97,279.52 158.1,280.25C157.21,280.99 156.09,281.95 155.41,282.51C155,282.85 154.85,282.96 154.42,283.31C153.58,283.99 151.5,285.71 150.75,286.33C150.42,286.6 150.35,286.66 150.03,286.92C149.38,287.45 148.02,288.54 147.07,289.3C146.2,290 145.24,290.79 144.56,291.33C144.1,291.7 143.89,291.86 143.39,292.25C142.51,292.95 140.49,294.55 139.72,295.15C139.37,295.42 139.3,295.49 138.96,295.75C138.3,296.26 137,297.25 136.04,297.99C135.09,298.72 133.89,299.65 133.22,300.16C132.85,300.44 132.75,300.52 132.36,300.81C131.56,301.41 129.63,302.84 128.69,303.53C128.1,303.96 127.78,304.19 127.25,304.58C126.59,305.06 125.86,305.59 125.01,306.19C123.91,306.98 122.44,308.04 121.185,308.895C119.99,309.7 118.84,310.43 117.66,311.19C116.48,311.96 115.32,312.76 114.105,313.485C112.87,314.21 111.56,314.88 110.3,315.53C109.07,316.16 107.65,316.93 106.63,317.32C105.94,317.58 105.45,317.65 104.85,317.82C104.23,317.99 103.63,318.33 102.95,318.35Z" style="stroke-miterlimit: 1; vector-effect: non-scaling-stroke; fill: none; stroke: rgb(207, 188, 102); stroke-opacity: 1; stroke-width: 2px;"/></g><g class="contourlevel"><path class="closedline" d="M110.3,307.75C109.21,307.35 108.03,305.81 107.66,304.58C107.28,303.3 107.89,301.62 108.18,300.16C108.48,298.68 109.04,296.97 109.44,295.75C109.73,294.86 110.01,294.23 110.3,293.48C110.58,292.75 110.79,292.17 111.14,291.33C111.64,290.12 112.52,288.1 113.05,286.92C113.41,286.12 113.65,285.62 113.98,284.92C114.34,284.15 114.69,283.43 115.13,282.51C115.73,281.26 116.84,278.95 117.27,278.09C117.45,277.73 117.48,277.68 117.66,277.34C118.06,276.58 118.96,274.87 119.58,273.68C120.18,272.54 120.9,271.12 121.33,270.32C121.57,269.87 121.64,269.73 121.9,269.26C122.42,268.29 123.75,265.88 124.31,264.85C124.61,264.3 124.72,264.09 125.01,263.57C125.46,262.75 126.19,261.5 126.79,260.43C127.41,259.32 128.24,257.85 128.69,257.05C128.94,256.61 129.01,256.48 129.28,256.02C129.83,255.06 131.3,252.53 131.83,251.61C132.07,251.19 132.12,251.09 132.36,250.69C132.83,249.9 133.81,248.28 134.46,247.19C135.03,246.24 135.56,245.3 136.04,244.51C136.43,243.87 136.67,243.49 137.1,242.78C137.79,241.66 138.85,239.87 139.75,238.41000000000003C140.66,236.93 141.88,235.01 142.54,233.95C142.91,233.36 143.04,233.12 143.39,232.57C143.91,231.75 144.72,230.52 145.35,229.54C145.94,228.61 146.55,227.63 147.07,226.83C147.49,226.19 147.76,225.81 148.21,225.12C148.89,224.09 150.28,221.95 150.75,221.25C150.93,220.99 150.94,220.98 151.12,220.71C151.66,219.92 153.23,217.57 154.26999999999998,216.065C155.26,214.63 156.54,212.87 157.23,211.88C157.61,211.34 157.73,211.13 158.1,210.62C158.69,209.8 159.77,208.37 160.44,207.46C160.95,206.76 161.28,206.27 161.78,205.61C162.37,204.82 163.14,203.87 163.77,203.05C164.36,202.29 164.87,201.56 165.45,200.83C166.03,200.09 166.65,199.38 167.26,198.64C167.88,197.88 168.5,197.05 169.13,196.3C169.73,195.58 170.34,194.92 170.95,194.22C171.57,193.5 172.16,192.76 172.81,192.04C173.48,191.29 174.25,190.51 174.9,189.81C175.47,189.2 175.87,188.71 176.48,188.08C177.26,187.27 178.54,186.06 179.21,185.39C179.61,184.99 179.73,184.85 180.16,184.44C180.99,183.65 182.69,182.12 183.945,181.06C185.14,180.06 186.43,179.03 187.52,178.23C188.4,177.58 189.3,177.03 189.97,176.57C190.45,176.24 190.66,176.05 191.19,175.72C192.08,175.16 193.64,174.26 194.87,173.65C196.05,173.06 197.21,172.54 198.425,172.095C199.66,171.65 200.95,171.25 202.22,171C203.45,170.75 204.67,170.59 205.9,170.57C207.13,170.55 208.36,170.61 209.58,170.86C210.84,171.11 212.15,171.47 213.33499999999998,172.10000000000002C214.61,172.77 216.04,173.97 216.93,174.83C217.56,175.44 217.87,175.83 218.37,176.57C219.1,177.66 220.09,179.39 220.65,180.875C221.19,182.33 221.48,183.88 221.69,185.39C221.9,186.86 221.95,188.34 221.93,189.81C221.91,191.28 221.77,192.74 221.56,194.22C221.35,195.73 221.03,197.3 220.655,198.785C220.29,200.24 219.84,201.63 219.35,203.05C218.84,204.52 218.1,206.39 217.64,207.46C217.37,208.09 217.2,208.35 216.93,208.93C216.54,209.74 216.08,210.81 215.54,211.88C214.87,213.18 214.02,214.73 213.185,216.165C212.31,217.67 211.03,219.7 210.37,220.71C210.03,221.22 209.91,221.37 209.58,221.85C209.02,222.66 208.01,224.18 207.34,225.12C206.82,225.85 206.41,226.34 205.9,227.02C205.32,227.8 204.67,228.73 204.04,229.54C203.44,230.31 202.82,231.03 202.22,231.77C201.63,232.5 201.09,233.22 200.49,233.95C199.87,234.7 199.19,235.46 198.55,236.2C197.93,236.93 197.34,237.66 196.72,238.36C196.11,239.05 195.51,239.68 194.87,240.39C194.18,241.15 193.39,242.07 192.73,242.78C192.18,243.37 191.77,243.78 191.19,244.39C190.43,245.19 189.24,246.48 188.56,247.19C188.14,247.63 187.97,247.79 187.52,248.24C186.7,249.07 185.23,250.59 184.03,251.79000000000002C182.78,253.04 180.82,254.92 180.16,255.57C179.94,255.79 179.93,255.81 179.71,256.02C179.13,256.59 177.34,258.24 176.48,259.06C175.91,259.6 175.59,259.93 175.06,260.43C174.4,261.05 173.58,261.79 172.81,262.5C171.99,263.26 170.96,264.23 170.28,264.85C169.82,265.26 169.62,265.43 169.13,265.87C168.24,266.66 166.65,268.13 165.415,269.225C164.2,270.3 162.72,271.58 161.78,272.4C161.19,272.92 160.87,273.21 160.33,273.68C159.67,274.25 158.89,274.9 158.1,275.58C157.19,276.36 155.85,277.53 155.19,278.09C154.85,278.38 154.77,278.44 154.42,278.73C153.65,279.37 151.55,281.12 150.75,281.79C150.36,282.11 150.26,282.2 149.89,282.51C149.22,283.06 147.99,284.04 147.07,284.79C146.18,285.51 145.14,286.37 144.46,286.92C144.03,287.27 143.85,287.4 143.39,287.76C142.53,288.43 140.53,290.02 139.72,290.65C139.32,290.96 139.21,291.04 138.83,291.33C138.16,291.84 136.99,292.72 136.04,293.44C135.05,294.19 133.63,295.28 132.99,295.75C132.7,295.96 132.66,296 132.36,296.21C131.64,296.72 129.73,298.06 128.69,298.78C127.92,299.31 127.31,299.72 126.67,300.16C126.09,300.55 125.68,300.85 125.01,301.28C124.03,301.92 122.34,302.98 121.33,303.58C120.63,303.99 120.14,304.25 119.54,304.58C118.92,304.92 118.4,305.25 117.66,305.61C116.65,306.09 115.23,306.77 113.98,307.13C112.77,307.48 111.34,308.13 110.3,307.75Z" style="stroke-miterlimit: 1; vector-effect: non-scaling-stroke; fill: none; stroke: rgb(219, 216, 134); stroke-opacity: 1; stroke-width: 2px;"/></g><g class="contourlevel"><path class="closedline" d="M121.33,296.32C120.36,296.4 118.38,296.48 117.67,295.735C116.9,294.92 117.1,292.5 117.18,291.33C117.23,290.54 117.49,290.05 117.66,289.36C117.85,288.59 117.98,287.84 118.27,286.92C118.66,285.66 119.39,283.88 119.93,282.51C120.41,281.3 120.99,279.91 121.33,279.11C121.52,278.67 121.56,278.55 121.77,278.09C122.21,277.13 123.3,274.9 123.9,273.68C124.33,272.81 124.64,272.19 125.01,271.45C125.38,270.72 125.69,270.13 126.14,269.26C126.79,268 127.75,266.12 128.56,264.615C129.34,263.18 130.23,261.66 130.92,260.43C131.46,259.46 131.91,258.63 132.36,257.84C132.74,257.18 132.99,256.76 133.42,256.02C134.09,254.86 135.12,253.02 136,251.54000000000002C136.87,250.07 137.97,248.32 138.66,247.19C139.09,246.48 139.32,246.08 139.72,245.44C140.21,244.64 140.82,243.71 141.4,242.78C142.04,241.76 142.87,240.37 143.39,239.56C143.71,239.06 143.84,238.89 144.18,238.36C144.84,237.35 146.07,235.37 147.04,233.89999999999998C148.01,232.43 149.33,230.53 149.99,229.54C150.33,229.03 150.42,228.87 150.75,228.39C151.3,227.58 152.37,226.08 153.04,225.12C153.56,224.37 153.93,223.81 154.42,223.11C154.97,222.34 155.59,221.53 156.19,220.71C156.82,219.84 157.51,218.82 158.1,218.03C158.58,217.38 158.93,216.96 159.44,216.29C160.11,215.4 161.15,213.99 161.78,213.18C162.2,212.65 162.41,212.41 162.84,211.88C163.52,211.03 164.79,209.37 165.45,208.57C165.84,208.1 166.01,207.93 166.41,207.46C167.09,206.67 168.42,205.05 169.13,204.24C169.57,203.74 169.79,203.53 170.23,203.05C170.91,202.31 172.05,201 172.81,200.2C173.39,199.59 173.81,199.2 174.37,198.64C175.02,197.98 175.74,197.2 176.48,196.48C177.26,195.72 178.28,194.84 178.96,194.22C179.43,193.78 179.63,193.56 180.16,193.1C181.08,192.3 182.78,190.91 184.055,189.95499999999998C185.23,189.08 186.33,188.32 187.52,187.57C188.73,186.81 190.01,186.03 191.26999999999998,185.42C192.46,184.84 193.65,184.35 194.87,183.97C196.08,183.59 197.32,183.26 198.55,183.12C199.77,182.98 201.01,182.92 202.22,183.11C203.46,183.3 204.97,183.81 205.9,184.28C206.55,184.61 206.91,184.9 207.43,185.39C208.13,186.04 209.05,187.15 209.58,187.97C210,188.61 210.23,189.04 210.5,189.81C210.9,190.94 211.32,192.74 211.48,194.22C211.64,195.68 211.59,197.17 211.47,198.64C211.35,200.12 211.08,201.6 210.76,203.05C210.44,204.51 210.04,205.93 209.55,207.37C209.05,208.87 208.41,210.42 207.77,211.88C207.15,213.3 206.51,214.62 205.78,216.035C204.99,217.56 203.83,219.61 203.16,220.71C202.78,221.34 202.58,221.58 202.22,222.15C201.7,222.96 200.98,224.18 200.35,225.12C199.76,226.01 199.1,226.88 198.55,227.66C198.08,228.33 197.75,228.84 197.24,229.54C196.57,230.45 195.49,231.81 194.87,232.63C194.47,233.16 194.3,233.42 193.88,233.95C193.21,234.8 191.85,236.4 191.19,237.21C190.8,237.69 190.67,237.89 190.27,238.36C189.6,239.16 188.23,240.69 187.52,241.51C187.07,242.03 186.88,242.28 186.43,242.78C185.76,243.54 184.58,244.77 183.84,245.58C183.28,246.19 182.93,246.61 182.39,247.19C181.73,247.89 180.88,248.74 180.16,249.49C179.47,250.21 178.8,250.95 178.16,251.61C177.58,252.2 177.1,252.64 176.48,253.26C175.68,254.06 174.44,255.35 173.76,256.02C173.37,256.41 173.23,256.53 172.81,256.93C171.99,257.72 170.4,259.31 169.17000000000002,260.47C167.94,261.63 166.29,263.12 165.45,263.91C165.01,264.32 164.87,264.47 164.46,264.85C163.79,265.47 162.63,266.47 161.78,267.24C161,267.94 160.23,268.67 159.56,269.26C159.03,269.74 158.69,270.01 158.1,270.53C157.16,271.35 155.7,272.68 154.475,273.725C153.25,274.77 151.72,276.01 150.75,276.82C150.13,277.34 149.78,277.64 149.23,278.09C148.58,278.63 147.87,279.18 147.07,279.83C146.05,280.66 144.79,281.72 143.58999999999997,282.65999999999997C142.34,283.63 140.77,284.77 139.72,285.56C139,286.1 138.51,286.47 137.9,286.92C137.29,287.37 136.77,287.74 136.04,288.25C135.02,288.97 133.16,290.29 132.36,290.81C131.99,291.06 131.88,291.11 131.52,291.33C130.86,291.73 129.7,292.44 128.69,293.02C127.55,293.67 126.07,294.53 125.01,295.01C124.25,295.35 123.62,295.52 122.98,295.75C122.4,295.96 122,296.26 121.33,296.32Z" style="stroke-miterlimit: 1; vector-effect: non-scaling-stroke; fill: none; stroke: rgb(232, 245, 171); stroke-opacity: 1; stroke-width: 2px;"/></g></g></g></g></g><g class="overplot"/><path class="xlines-above crisp" d="" style="fill: none; stroke-width: 1px; stroke: rgb(0, 0, 0); stroke-opacity: 0;"/><path class="ylines-above crisp" d="" style="fill: none; stroke-width: 1px; stroke: rgb(0, 0, 0); stroke-opacity: 0;"/><g class="overlines-above"/><g class="xaxislayer-above"><path class="xtick ticks crisp" d="M0,478v5" transform="translate(84.61,0)" style="stroke: rgb(51, 51, 51); stroke-opacity: 1; stroke-width: 1px;"/><path class="xtick ticks crisp" d="M0,478v5" transform="translate(208,0)" style="stroke: rgb(51, 51, 51); stroke-opacity: 1; stroke-width: 1px;"/><path class="xtick ticks crisp" d="M0,478v5" transform="translate(331.39,0)" style="stroke: rgb(51, 51, 51); stroke-opacity: 1; stroke-width: 1px;"/><g class="xtick"><text text-anchor="middle" x="0" y="497.4" transform="translate(84.61,0)" style="font-family: 'Open Sans', verdana, arial, sans-serif; font-size: 12px; fill: rgb(51, 51, 51); fill-opacity: 1; white-space: pre; opacity: 1;">2</text></g><g class="xtick"><text text-anchor="middle" x="0" y="497.4" style="font-family: 'Open Sans', verdana, arial, sans-serif; font-size: 12px; fill: rgb(51, 51, 51); fill-opacity: 1; white-space: pre; opacity: 1;" transform="translate(208,0)">0</text></g><g class="xtick"><text text-anchor="middle" x="0" y="497.4" style="font-family: 'Open Sans', verdana, arial, sans-serif; font-size: 12px; fill: rgb(51, 51, 51); fill-opacity: 1; white-space: pre; opacity: 1;" transform="translate(331.39,0)">2</text></g></g><g class="yaxislayer-above"><path class="ytick ticks crisp" d="M25,0h-5" transform="translate(0,406.64)" style="stroke: rgb(51, 51, 51); stroke-opacity: 1; stroke-width: 1px;"/><path class="ytick ticks crisp" d="M25,0h-5" transform="translate(0,332.57)" style="stroke: rgb(51, 51, 51); stroke-opacity: 1; stroke-width: 1px;"/><path class="ytick ticks crisp" d="M25,0h-5" transform="translate(0,258.5)" style="stroke: rgb(51, 51, 51); stroke-opacity: 1; stroke-width: 1px;"/><path class="ytick ticks crisp" d="M25,0h-5" transform="translate(0,184.43)" style="stroke: rgb(51, 51, 51); stroke-opacity: 1; stroke-width: 1px;"/><path class="ytick ticks crisp" d="M25,0h-5" transform="translate(0,110.36)" style="stroke: rgb(51, 51, 51); stroke-opacity: 1; stroke-width: 1px;"/><g class="ytick"><text text-anchor="end" x="17.6" y="4.199999999999999" transform="translate(0,406.64)" style="font-family: 'Open Sans', verdana, arial, sans-serif; font-size: 12px; fill: rgb(51, 51, 51); fill-opacity: 1; white-space: pre; opacity: 1;">2</text></g><g class="ytick"><text text-anchor="end" x="17.6" y="4.199999999999999" style="font-family: 'Open Sans', verdana, arial, sans-serif; font-size: 12px; fill: rgb(51, 51, 51); fill-opacity: 1; white-space: pre; opacity: 1;" transform="translate(0,332.57)">1</text></g><g class="ytick"><text text-anchor="end" x="17.6" y="4.199999999999999" style="font-family: 'Open Sans', verdana, arial, sans-serif; font-size: 12px; fill: rgb(51, 51, 51); fill-opacity: 1; white-space: pre; opacity: 1;" transform="translate(0,258.5)">0</text></g><g class="ytick"><text text-anchor="end" x="17.6" y="4.199999999999999" style="font-family: 'Open Sans', verdana, arial, sans-serif; font-size: 12px; fill: rgb(51, 51, 51); fill-opacity: 1; white-space: pre; opacity: 1;" transform="translate(0,184.43)">1</text></g><g class="ytick"><text text-anchor="end" x="17.6" y="4.199999999999999" style="font-family: 'Open Sans', verdana, arial, sans-serif; font-size: 12px; fill: rgb(51, 51, 51); fill-opacity: 1; white-space: pre; opacity: 1;" transform="translate(0,110.36)">2</text></g></g><g class="overaxes-above"/></g></g><g class="polarlayer"/><g class="ternarylayer"/><g class="geolayer"/><g class="funnelarealayer"/><g class="pielayer"/><g class="iciclelayer"/><g class="treemaplayer"/><g class="sunburstlayer"/><g class="glimages"/><defs id="topdefs-6c31dc"><g class="clips"/></defs><g class="layer-above"><g class="imagelayer"/><g class="shapelayer"/></g><g class="infolayer"><g class="cb0bbd7a colorbar" transform="translate(26,40)"><rect class="cbbg" x="371" y="0" width="102.28125" height="437" style="fill: rgb(0, 0, 0); fill-opacity: 0; stroke: rgb(68, 68, 68); stroke-opacity: 1; stroke-width: 0;"/><g class="cbfills" transform="translate(0,10)"/><g class="cblines" transform="translate(0,10)"><path class="cbline" d="M381,417h30" style="fill: none; stroke: rgb(34, 30, 27); stroke-opacity: 1; stroke-width: 2px;"/><path class="cbline" d="M381,375h30" style="fill: none; stroke: rgb(59, 46, 38); stroke-opacity: 1; stroke-width: 2px;"/><path class="cbline" d="M381,334h30" style="fill: none; stroke: rgb(85, 62, 47); stroke-opacity: 1; stroke-width: 2px;"/><path class="cbline" d="M381,292h30" style="fill: none; stroke: rgb(112, 77, 54); stroke-opacity: 1; stroke-width: 2px;"/><path class="cbline" d="M381,250h30" style="fill: none; stroke: rgb(138, 93, 57); stroke-opacity: 1; stroke-width: 2px;"/><path class="cbline" d="M381,209h30" style="fill: none; stroke: rgb(161, 112, 59); stroke-opacity: 1; stroke-width: 2px;"/><path class="cbline" d="M381,167h30" style="fill: none; stroke: rgb(180, 134, 64); stroke-opacity: 1; stroke-width: 2px;"/><path class="cbline" d="M381,125h30" style="fill: none; stroke: rgb(195, 161, 78); stroke-opacity: 1; stroke-width: 2px;"/><path class="cbline" d="M381,83h30" style="fill: none; stroke: rgb(207, 188, 102); stroke-opacity: 1; stroke-width: 2px;"/><path class="cbline" d="M381,42h30" style="fill: none; stroke: rgb(219, 216, 134); stroke-opacity: 1; stroke-width: 2px;"/><path class="cbline" d="M381,0h30" style="fill: none; stroke: rgb(232, 245, 171); stroke-opacity: 1; stroke-width: 2px;"/></g><g class="cbaxis crisp" transform="translate(0,-40)"><path class="ycb0bbd7atick ticks crisp" d="M410.5,0h-6" transform="translate(0,383.6)" style="stroke: rgb(237, 237, 237); stroke-opacity: 1; stroke-width: 1px;"/><path class="ycb0bbd7atick ticks crisp" d="M410.5,0h-6" transform="translate(0,300.2)" style="stroke: rgb(237, 237, 237); stroke-opacity: 1; stroke-width: 1px;"/><path class="ycb0bbd7atick ticks crisp" d="M410.5,0h-6" transform="translate(0,216.8)" style="stroke: rgb(237, 237, 237); stroke-opacity: 1; stroke-width: 1px;"/><path class="ycb0bbd7atick ticks crisp" d="M410.5,0h-6" transform="translate(0,133.40000000000003)" style="stroke: rgb(237, 237, 237); stroke-opacity: 1; stroke-width: 1px;"/><g class="ycb0bbd7atick"><text text-anchor="start" x="413.9" y="4.199999999999999" transform="translate(0,467)" style="font-family: 'Open Sans', verdana, arial, sans-serif; font-size: 12px; fill: rgb(51, 51, 51); fill-opacity: 1; white-space: pre; opacity: 1;">0</text></g><g class="ycb0bbd7atick"><text text-anchor="start" x="413.9" y="4.199999999999999" style="font-family: 'Open Sans', verdana, arial, sans-serif; font-size: 12px; fill: rgb(51, 51, 51); fill-opacity: 1; white-space: pre; opacity: 1;" transform="translate(0,383.6)">0.0394</text></g><g class="ycb0bbd7atick"><text text-anchor="start" x="413.9" y="4.199999999999999" style="font-family: 'Open Sans', verdana, arial, sans-serif; font-size: 12px; fill: rgb(51, 51, 51); fill-opacity: 1; white-space: pre; opacity: 1;" transform="translate(0,300.2)">0.0788</text></g><g class="ycb0bbd7atick"><text text-anchor="start" x="413.9" y="4.199999999999999" style="font-family: 'Open Sans', verdana, arial, sans-serif; font-size: 12px; fill: rgb(51, 51, 51); fill-opacity: 1; white-space: pre; opacity: 1;" transform="translate(0,216.8)">0.1182</text></g><g class="ycb0bbd7atick"><text text-anchor="start" x="413.9" y="4.199999999999999" style="font-family: 'Open Sans', verdana, arial, sans-serif; font-size: 12px; fill: rgb(51, 51, 51); fill-opacity: 1; white-space: pre; opacity: 1;" transform="translate(0,133.40000000000003)">0.1576</text></g><g class="ycb0bbd7atick"><text text-anchor="start" x="413.9" y="4.199999999999999" style="font-family: 'Open Sans', verdana, arial, sans-serif; font-size: 12px; fill: rgb(51, 51, 51); fill-opacity: 1; white-space: pre; opacity: 1;" transform="translate(0,50.000000000000014)">0.1969</text></g></g><g class="cbtitleunshift" transform="translate(-26,-40)"><g class="cbtitle"/></g><rect class="cboutline" x="381" y="10" width="30" height="417" style="stroke: rgb(68, 68, 68); stroke-opacity: 1; fill: none; stroke-width: 0;"/></g><g class="g-gtitle"><text class="gtitle" x="250" y="20" text-anchor="middle" dy="0em" style="font-family: 'Open Sans', verdana, arial, sans-serif; font-size: 17px; fill: rgb(51, 51, 51); opacity: 1; font-weight: normal; white-space: pre;">Clayton copula</text></g><g class="g-xtitle"/><g class="g-ytitle"/></g></svg>