<?xml version="1.0" encoding="utf-8" standalone="no"?>
<!DOCTYPE svg PUBLIC "-//W3C//DTD SVG 1.1//EN"
  "http://www.w3.org/Graphics/SVG/1.1/DTD/svg11.dtd">
<svg xmlns:xlink="http://www.w3.org/1999/xlink" width="832.32pt" height="328.32pt" viewBox="0 0 832.32 328.32" xmlns="http://www.w3.org/2000/svg" version="1.1">
 <metadata>
  <rdf:RDF xmlns:dc="http://purl.org/dc/elements/1.1/" xmlns:cc="http://creativecommons.org/ns#" xmlns:rdf="http://www.w3.org/1999/02/22-rdf-syntax-ns#">
   <cc:Work>
    <dc:type rdf:resource="http://purl.org/dc/dcmitype/StillImage"/>
    <dc:date>2022-05-29T12:46:50.968618</dc:date>
    <dc:format>image/svg+xml</dc:format>
    <dc:creator>
     <cc:Agent>
      <dc:title>Matplotlib v3.5.1, https://matplotlib.org/</dc:title>
     </cc:Agent>
    </dc:creator>
   </cc:Work>
  </rdf:RDF>
 </metadata>
 <defs>
  <style type="text/css">*{stroke-linejoin: round; stroke-linecap: butt}</style>
 </defs>
 <g id="figure_1">
  <g id="patch_1">
   <path d="M 0 328.32 
L 832.32 328.32 
L 832.32 0 
L 0 0 
z
" style="fill: #ffffff"/>
  </g>
  <g id="axes_1">
   <g id="patch_2">
    <path d="M 66.616192 277.666804 
L 421.414729 277.666804 
L 421.414729 3.6 
L 66.616192 3.6 
z
" style="fill: #e5e5e5"/>
   </g>
   <g id="matplotlib.axis_1">
    <g id="xtick_1">
     <g id="line2d_1">
      <path d="M 130.400199 277.666804 
L 130.400199 3.6 
" clip-path="url(#p6dd9fba89d)" style="fill: none; stroke: #ffffff; stroke-width: 1.5; stroke-linecap: square"/>
     </g>
     <g id="line2d_2">
      <defs>
       <path id="m7eef22460d" d="M 0 0 
L 0 9 
" style="stroke: #555555; stroke-width: 1.875"/>
      </defs>
      <g>
       <use xlink:href="#m7eef22460d" x="130.400199" y="277.666804" style="fill: #555555; stroke: #555555; stroke-width: 1.875"/>
      </g>
     </g>
     <g id="text_1">
      <!-- 2004 -->
      <g style="fill: #555555" transform="translate(114.304491 301.582309)scale(0.165 -0.165)">
       <defs>
        <path id="CMR17-32" d="M 2669 989 
L 2554 989 
C 2490 536 2438 459 2413 420 
C 2381 369 1920 369 1830 369 
L 602 369 
C 832 619 1280 1072 1824 1597 
C 2214 1967 2669 2402 2669 3035 
C 2669 3790 2067 4224 1395 4224 
C 691 4224 262 3604 262 3030 
C 262 2780 448 2748 525 2748 
C 589 2748 781 2787 781 3010 
C 781 3207 614 3264 525 3264 
C 486 3264 448 3258 422 3245 
C 544 3790 915 4058 1306 4058 
C 1862 4058 2227 3617 2227 3035 
C 2227 2479 1901 2000 1536 1584 
L 262 146 
L 262 0 
L 2515 0 
L 2669 989 
z
" transform="scale(0.015625)"/>
        <path id="CMR17-30" d="M 2688 2025 
C 2688 2416 2682 3080 2413 3591 
C 2176 4039 1798 4198 1466 4198 
C 1158 4198 768 4058 525 3597 
C 269 3118 243 2524 243 2025 
C 243 1661 250 1106 448 619 
C 723 -39 1216 -128 1466 -128 
C 1760 -128 2208 -7 2470 600 
C 2662 1042 2688 1559 2688 2025 
z
M 1466 -26 
C 1056 -26 813 325 723 812 
C 653 1188 653 1738 653 2096 
C 653 2588 653 2997 736 3387 
C 858 3929 1216 4096 1466 4096 
C 1728 4096 2067 3923 2189 3400 
C 2272 3036 2278 2607 2278 2096 
C 2278 1680 2278 1169 2202 792 
C 2067 95 1690 -26 1466 -26 
z
" transform="scale(0.015625)"/>
        <path id="CMR17-34" d="M 2150 4122 
C 2150 4256 2144 4256 2029 4256 
L 128 1254 
L 128 1088 
L 1779 1088 
L 1779 457 
C 1779 224 1766 160 1318 160 
L 1197 160 
L 1197 0 
C 1402 0 1747 0 1965 0 
C 2182 0 2528 0 2733 0 
L 2733 160 
L 2611 160 
C 2163 160 2150 224 2150 457 
L 2150 1088 
L 2803 1088 
L 2803 1254 
L 2150 1254 
L 2150 4122 
z
M 1798 3703 
L 1798 1254 
L 256 1254 
L 1798 3703 
z
" transform="scale(0.015625)"/>
       </defs>
       <use xlink:href="#CMR17-32" transform="scale(0.996264)"/>
       <use xlink:href="#CMR17-30" transform="translate(45.690477 0)scale(0.996264)"/>
       <use xlink:href="#CMR17-30" transform="translate(91.380954 0)scale(0.996264)"/>
       <use xlink:href="#CMR17-34" transform="translate(137.071431 0)scale(0.996264)"/>
      </g>
     </g>
    </g>
    <g id="xtick_2">
     <g id="line2d_3">
      <path d="M 210.130207 277.666804 
L 210.130207 3.6 
" clip-path="url(#p6dd9fba89d)" style="fill: none; stroke: #ffffff; stroke-width: 1.5; stroke-linecap: square"/>
     </g>
     <g id="line2d_4">
      <g>
       <use xlink:href="#m7eef22460d" x="210.130207" y="277.666804" style="fill: #555555; stroke: #555555; stroke-width: 1.875"/>
      </g>
     </g>
     <g id="text_2">
      <!-- 2009 -->
      <g style="fill: #555555" transform="translate(194.034499 301.582309)scale(0.165 -0.165)">
       <defs>
        <path id="CMR17-39" d="M 2253 1864 
C 2253 464 1670 31 1190 31 
C 1043 31 685 31 538 294 
C 704 268 826 357 826 518 
C 826 692 685 749 595 749 
C 538 749 365 723 365 506 
C 365 71 742 -128 1203 -128 
C 1939 -128 2688 674 2688 2073 
C 2688 3817 1971 4179 1485 4179 
C 851 4179 243 3628 243 2778 
C 243 1991 762 1408 1414 1408 
C 1952 1408 2189 1903 2253 2112 
L 2253 1864 
z
M 1427 1510 
C 1254 1510 1011 1542 813 1922 
C 678 2169 678 2461 678 2771 
C 678 3146 678 3405 858 3684 
C 947 3817 1114 4032 1485 4032 
C 2240 4032 2240 2885 2240 2632 
C 2240 2182 2035 1510 1427 1510 
z
" transform="scale(0.015625)"/>
       </defs>
       <use xlink:href="#CMR17-32" transform="scale(0.996264)"/>
       <use xlink:href="#CMR17-30" transform="translate(45.690477 0)scale(0.996264)"/>
       <use xlink:href="#CMR17-30" transform="translate(91.380954 0)scale(0.996264)"/>
       <use xlink:href="#CMR17-39" transform="translate(137.071431 0)scale(0.996264)"/>
      </g>
     </g>
    </g>
    <g id="xtick_3">
     <g id="line2d_5">
      <path d="M 289.860215 277.666804 
L 289.860215 3.6 
" clip-path="url(#p6dd9fba89d)" style="fill: none; stroke: #ffffff; stroke-width: 1.5; stroke-linecap: square"/>
     </g>
     <g id="line2d_6">
      <g>
       <use xlink:href="#m7eef22460d" x="289.860215" y="277.666804" style="fill: #555555; stroke: #555555; stroke-width: 1.875"/>
      </g>
     </g>
     <g id="text_3">
      <!-- 2014 -->
      <g style="fill: #555555" transform="translate(273.764507 301.582309)scale(0.165 -0.165)">
       <defs>
        <path id="CMR17-31" d="M 1702 4058 
C 1702 4192 1696 4192 1606 4192 
C 1357 3916 979 3827 621 3827 
C 602 3827 570 3827 563 3808 
C 557 3795 557 3782 557 3648 
C 755 3648 1088 3686 1344 3839 
L 1344 461 
C 1344 236 1331 160 781 160 
L 589 160 
L 589 0 
C 896 0 1216 0 1523 0 
C 1830 0 2150 0 2458 0 
L 2458 160 
L 2266 160 
C 1715 160 1702 230 1702 458 
L 1702 4058 
z
" transform="scale(0.015625)"/>
       </defs>
       <use xlink:href="#CMR17-32" transform="scale(0.996264)"/>
       <use xlink:href="#CMR17-30" transform="translate(45.690477 0)scale(0.996264)"/>
       <use xlink:href="#CMR17-31" transform="translate(91.380954 0)scale(0.996264)"/>
       <use xlink:href="#CMR17-34" transform="translate(137.071431 0)scale(0.996264)"/>
      </g>
     </g>
    </g>
    <g id="xtick_4">
     <g id="line2d_7">
      <path d="M 369.590224 277.666804 
L 369.590224 3.6 
" clip-path="url(#p6dd9fba89d)" style="fill: none; stroke: #ffffff; stroke-width: 1.5; stroke-linecap: square"/>
     </g>
     <g id="line2d_8">
      <g>
       <use xlink:href="#m7eef22460d" x="369.590224" y="277.666804" style="fill: #555555; stroke: #555555; stroke-width: 1.875"/>
      </g>
     </g>
     <g id="text_4">
      <!-- 2019 -->
      <g style="fill: #555555" transform="translate(353.494516 301.582309)scale(0.165 -0.165)">
       <use xlink:href="#CMR17-32" transform="scale(0.996264)"/>
       <use xlink:href="#CMR17-30" transform="translate(45.690477 0)scale(0.996264)"/>
       <use xlink:href="#CMR17-31" transform="translate(91.380954 0)scale(0.996264)"/>
       <use xlink:href="#CMR17-39" transform="translate(137.071431 0)scale(0.996264)"/>
      </g>
     </g>
    </g>
    <g id="xtick_5">
     <g id="line2d_9">
      <defs>
       <path id="med1219dab5" d="M 0 0 
L 0 6 
" style="stroke: #555555; stroke-width: 1.5"/>
      </defs>
      <g>
       <use xlink:href="#med1219dab5" x="66.616192" y="277.666804" style="fill: #555555; stroke: #555555; stroke-width: 1.5"/>
      </g>
     </g>
    </g>
    <g id="xtick_6">
     <g id="line2d_10">
      <g>
       <use xlink:href="#med1219dab5" x="82.562194" y="277.666804" style="fill: #555555; stroke: #555555; stroke-width: 1.5"/>
      </g>
     </g>
    </g>
    <g id="xtick_7">
     <g id="line2d_11">
      <g>
       <use xlink:href="#med1219dab5" x="98.508196" y="277.666804" style="fill: #555555; stroke: #555555; stroke-width: 1.5"/>
      </g>
     </g>
    </g>
    <g id="xtick_8">
     <g id="line2d_12">
      <g>
       <use xlink:href="#med1219dab5" x="114.454197" y="277.666804" style="fill: #555555; stroke: #555555; stroke-width: 1.5"/>
      </g>
     </g>
    </g>
    <g id="xtick_9">
     <g id="line2d_13">
      <g>
       <use xlink:href="#med1219dab5" x="146.346201" y="277.666804" style="fill: #555555; stroke: #555555; stroke-width: 1.5"/>
      </g>
     </g>
    </g>
    <g id="xtick_10">
     <g id="line2d_14">
      <g>
       <use xlink:href="#med1219dab5" x="162.292202" y="277.666804" style="fill: #555555; stroke: #555555; stroke-width: 1.5"/>
      </g>
     </g>
    </g>
    <g id="xtick_11">
     <g id="line2d_15">
      <g>
       <use xlink:href="#med1219dab5" x="178.238204" y="277.666804" style="fill: #555555; stroke: #555555; stroke-width: 1.5"/>
      </g>
     </g>
    </g>
    <g id="xtick_12">
     <g id="line2d_16">
      <g>
       <use xlink:href="#med1219dab5" x="194.184205" y="277.666804" style="fill: #555555; stroke: #555555; stroke-width: 1.5"/>
      </g>
     </g>
    </g>
    <g id="xtick_13">
     <g id="line2d_17">
      <g>
       <use xlink:href="#med1219dab5" x="226.076209" y="277.666804" style="fill: #555555; stroke: #555555; stroke-width: 1.5"/>
      </g>
     </g>
    </g>
    <g id="xtick_14">
     <g id="line2d_18">
      <g>
       <use xlink:href="#med1219dab5" x="242.02221" y="277.666804" style="fill: #555555; stroke: #555555; stroke-width: 1.5"/>
      </g>
     </g>
    </g>
    <g id="xtick_15">
     <g id="line2d_19">
      <g>
       <use xlink:href="#med1219dab5" x="257.968212" y="277.666804" style="fill: #555555; stroke: #555555; stroke-width: 1.5"/>
      </g>
     </g>
    </g>
    <g id="xtick_16">
     <g id="line2d_20">
      <g>
       <use xlink:href="#med1219dab5" x="273.914214" y="277.666804" style="fill: #555555; stroke: #555555; stroke-width: 1.5"/>
      </g>
     </g>
    </g>
    <g id="xtick_17">
     <g id="line2d_21">
      <g>
       <use xlink:href="#med1219dab5" x="305.806217" y="277.666804" style="fill: #555555; stroke: #555555; stroke-width: 1.5"/>
      </g>
     </g>
    </g>
    <g id="xtick_18">
     <g id="line2d_22">
      <g>
       <use xlink:href="#med1219dab5" x="321.752219" y="277.666804" style="fill: #555555; stroke: #555555; stroke-width: 1.5"/>
      </g>
     </g>
    </g>
    <g id="xtick_19">
     <g id="line2d_23">
      <g>
       <use xlink:href="#med1219dab5" x="337.69822" y="277.666804" style="fill: #555555; stroke: #555555; stroke-width: 1.5"/>
      </g>
     </g>
    </g>
    <g id="xtick_20">
     <g id="line2d_24">
      <g>
       <use xlink:href="#med1219dab5" x="353.644222" y="277.666804" style="fill: #555555; stroke: #555555; stroke-width: 1.5"/>
      </g>
     </g>
    </g>
    <g id="xtick_21">
     <g id="line2d_25">
      <g>
       <use xlink:href="#med1219dab5" x="385.536225" y="277.666804" style="fill: #555555; stroke: #555555; stroke-width: 1.5"/>
      </g>
     </g>
    </g>
    <g id="xtick_22">
     <g id="line2d_26">
      <g>
       <use xlink:href="#med1219dab5" x="401.482227" y="277.666804" style="fill: #555555; stroke: #555555; stroke-width: 1.5"/>
      </g>
     </g>
    </g>
    <g id="xtick_23">
     <g id="line2d_27">
      <g>
       <use xlink:href="#med1219dab5" x="417.428228" y="277.666804" style="fill: #555555; stroke: #555555; stroke-width: 1.5"/>
      </g>
     </g>
    </g>
    <g id="text_5">
     <!-- Date -->
     <g style="fill: #555555" transform="translate(226.748927 321.231936)scale(0.18 -0.18)">
      <defs>
       <path id="CMR17-44" d="M 333 4352 
L 333 4186 
C 774 4186 845 4186 845 3900 
L 845 452 
C 845 166 774 166 333 166 
L 333 0 
L 2368 0 
C 3398 0 4224 943 4224 2141 
C 4224 3346 3411 4352 2368 4352 
L 333 4352 
z
M 1523 166 
C 1267 166 1254 197 1254 414 
L 1254 3938 
C 1254 4155 1267 4186 1523 4186 
L 2240 4186 
C 2771 4186 3750 3874 3750 2141 
C 3750 1242 3488 879 3366 707 
C 3213 510 2848 166 2240 166 
L 1523 166 
z
" transform="scale(0.015625)"/>
       <path id="CMR17-61" d="M 2304 1653 
C 2304 2072 2304 2294 2035 2543 
C 1798 2752 1523 2816 1306 2816 
C 800 2816 435 2407 435 1971 
C 435 1728 627 1728 666 1728 
C 749 1728 896 1778 896 1954 
C 896 2112 774 2181 666 2181 
C 640 2181 608 2174 589 2168 
C 723 2592 1069 2714 1293 2714 
C 1613 2714 1965 2429 1965 1885 
L 1965 1600 
C 1587 1600 1133 1549 774 1357 
C 371 1133 256 813 256 570 
C 256 77 832 -64 1171 -64 
C 1523 -64 1850 139 1990 511 
C 2003 233 2182 -18 2464 -18 
C 2598 -18 2938 70 2938 567 
L 2938 920 
L 2822 920 
L 2822 562 
C 2822 178 2650 128 2566 128 
C 2304 128 2304 458 2304 738 
L 2304 1653 
z
M 1965 870 
C 1965 317 1568 38 1216 38 
C 896 38 646 275 646 570 
C 646 761 730 1100 1101 1305 
C 1408 1478 1760 1504 1965 1504 
L 1965 870 
z
" transform="scale(0.015625)"/>
       <path id="CMR17-74" d="M 966 2560 
L 1862 2560 
L 1862 2725 
L 966 2725 
L 966 3904 
L 851 3904 
C 838 3245 614 2668 70 2668 
L 70 2560 
L 627 2560 
L 627 771 
C 627 650 627 -64 1370 -64 
C 1747 -64 1965 306 1965 777 
L 1965 1140 
L 1850 1140 
L 1850 783 
C 1850 344 1677 51 1408 51 
C 1222 51 966 178 966 758 
L 966 2560 
z
" transform="scale(0.015625)"/>
       <path id="CMR17-65" d="M 2438 1472 
C 2464 1498 2464 1511 2464 1576 
C 2464 2238 2118 2816 1389 2816 
C 710 2816 173 2169 173 1383 
C 173 551 781 -64 1459 -64 
C 2176 -64 2458 607 2458 740 
C 2458 784 2419 784 2406 784 
C 2362 784 2355 771 2330 696 
C 2189 265 1837 51 1504 51 
C 1229 51 954 203 781 480 
C 582 803 582 1176 582 1472 
L 2438 1472 
z
M 589 1568 
C 634 2505 1126 2714 1382 2714 
C 1818 2714 2112 2297 2118 1568 
L 589 1568 
z
" transform="scale(0.015625)"/>
      </defs>
      <use xlink:href="#CMR17-44" transform="scale(0.996264)"/>
      <use xlink:href="#CMR17-61" transform="translate(70.393556 0)scale(0.996264)"/>
      <use xlink:href="#CMR17-74" transform="translate(116.084033 0)scale(0.996264)"/>
      <use xlink:href="#CMR17-65" transform="translate(151.364801 0)scale(0.996264)"/>
     </g>
    </g>
   </g>
   <g id="matplotlib.axis_2">
    <g id="ytick_1">
     <g id="line2d_28">
      <path d="M 66.616192 251.185136 
L 421.414729 251.185136 
" clip-path="url(#p6dd9fba89d)" style="fill: none; stroke: #ffffff; stroke-width: 1.5; stroke-linecap: square"/>
     </g>
     <g id="line2d_29">
      <defs>
       <path id="maa4808a06c" d="M 0 0 
L -9 0 
" style="stroke: #555555; stroke-width: 1.875"/>
      </defs>
      <g>
       <use xlink:href="#maa4808a06c" x="66.616192" y="251.185136" style="fill: #555555; stroke: #555555; stroke-width: 1.875"/>
      </g>
     </g>
     <g id="text_6">
      <!-- $\mathdefault{2.5}$ -->
      <g style="fill: #555555" transform="translate(33.549458 256.892889)scale(0.165 -0.165)">
       <defs>
        <path id="CMMI12-3a" d="M 1178 307 
C 1178 492 1024 619 870 619 
C 685 619 557 466 557 313 
C 557 128 710 0 864 0 
C 1050 0 1178 153 1178 307 
z
" transform="scale(0.015625)"/>
        <path id="CMR17-35" d="M 730 3692 
C 794 3666 1056 3584 1325 3584 
C 1920 3584 2246 3911 2432 4100 
C 2432 4157 2432 4192 2394 4192 
C 2387 4192 2374 4192 2323 4163 
C 2099 4058 1837 3973 1517 3973 
C 1325 3973 1037 3999 723 4139 
C 653 4171 640 4171 634 4171 
C 602 4171 595 4164 595 4037 
L 595 2203 
C 595 2089 595 2057 659 2057 
C 691 2057 704 2070 736 2114 
C 941 2401 1222 2522 1542 2522 
C 1766 2522 2246 2382 2246 1289 
C 2246 1085 2246 715 2054 421 
C 1894 159 1645 25 1370 25 
C 947 25 518 320 403 814 
C 429 807 480 795 506 795 
C 589 795 749 840 749 1038 
C 749 1210 627 1280 506 1280 
C 358 1280 262 1190 262 1011 
C 262 454 704 -128 1382 -128 
C 2042 -128 2669 440 2669 1264 
C 2669 2030 2170 2624 1549 2624 
C 1222 2624 947 2503 730 2274 
L 730 3692 
z
" transform="scale(0.015625)"/>
       </defs>
       <use xlink:href="#CMR17-32" transform="scale(0.996264)"/>
       <use xlink:href="#CMMI12-3a" transform="translate(45.690477 0)scale(0.996264)"/>
       <use xlink:href="#CMR17-35" transform="translate(72.787654 0)scale(0.996264)"/>
      </g>
     </g>
    </g>
    <g id="ytick_2">
     <g id="line2d_30">
      <path d="M 66.616192 212.207689 
L 421.414729 212.207689 
" clip-path="url(#p6dd9fba89d)" style="fill: none; stroke: #ffffff; stroke-width: 1.5; stroke-linecap: square"/>
     </g>
     <g id="line2d_31">
      <g>
       <use xlink:href="#maa4808a06c" x="66.616192" y="212.207689" style="fill: #555555; stroke: #555555; stroke-width: 1.875"/>
      </g>
     </g>
     <g id="text_7">
      <!-- $\mathdefault{5.0}$ -->
      <g style="fill: #555555" transform="translate(33.549458 217.915441)scale(0.165 -0.165)">
       <use xlink:href="#CMR17-35" transform="scale(0.996264)"/>
       <use xlink:href="#CMMI12-3a" transform="translate(45.690477 0)scale(0.996264)"/>
       <use xlink:href="#CMR17-30" transform="translate(72.787654 0)scale(0.996264)"/>
      </g>
     </g>
    </g>
    <g id="ytick_3">
     <g id="line2d_32">
      <path d="M 66.616192 173.230241 
L 421.414729 173.230241 
" clip-path="url(#p6dd9fba89d)" style="fill: none; stroke: #ffffff; stroke-width: 1.5; stroke-linecap: square"/>
     </g>
     <g id="line2d_33">
      <g>
       <use xlink:href="#maa4808a06c" x="66.616192" y="173.230241" style="fill: #555555; stroke: #555555; stroke-width: 1.875"/>
      </g>
     </g>
     <g id="text_8">
      <!-- $\mathdefault{7.5}$ -->
      <g style="fill: #555555" transform="translate(33.549458 178.937994)scale(0.165 -0.165)">
       <defs>
        <path id="CMR17-37" d="M 2886 3941 
L 2886 4081 
L 1382 4081 
C 634 4081 621 4165 595 4288 
L 480 4288 
L 294 3094 
L 410 3094 
C 429 3215 474 3540 550 3661 
C 589 3712 1062 3712 1171 3712 
L 2579 3712 
L 1869 2661 
C 1395 1954 1069 999 1069 165 
C 1069 89 1069 -128 1299 -128 
C 1530 -128 1530 89 1530 171 
L 1530 465 
C 1530 1508 1709 2196 2003 2636 
L 2886 3941 
z
" transform="scale(0.015625)"/>
       </defs>
       <use xlink:href="#CMR17-37" transform="scale(0.996264)"/>
       <use xlink:href="#CMMI12-3a" transform="translate(45.690477 0)scale(0.996264)"/>
       <use xlink:href="#CMR17-35" transform="translate(72.787654 0)scale(0.996264)"/>
      </g>
     </g>
    </g>
    <g id="ytick_4">
     <g id="line2d_34">
      <path d="M 66.616192 134.252794 
L 421.414729 134.252794 
" clip-path="url(#p6dd9fba89d)" style="fill: none; stroke: #ffffff; stroke-width: 1.5; stroke-linecap: square"/>
     </g>
     <g id="line2d_35">
      <g>
       <use xlink:href="#maa4808a06c" x="66.616192" y="134.252794" style="fill: #555555; stroke: #555555; stroke-width: 1.875"/>
      </g>
     </g>
     <g id="text_9">
      <!-- $\mathdefault{10.0}$ -->
      <g style="fill: #555555" transform="translate(25.501604 139.960546)scale(0.165 -0.165)">
       <use xlink:href="#CMR17-31" transform="scale(0.996264)"/>
       <use xlink:href="#CMR17-30" transform="translate(45.690477 0)scale(0.996264)"/>
       <use xlink:href="#CMMI12-3a" transform="translate(91.380954 0)scale(0.996264)"/>
       <use xlink:href="#CMR17-30" transform="translate(118.478131 0)scale(0.996264)"/>
      </g>
     </g>
    </g>
    <g id="ytick_5">
     <g id="line2d_36">
      <path d="M 66.616192 95.275346 
L 421.414729 95.275346 
" clip-path="url(#p6dd9fba89d)" style="fill: none; stroke: #ffffff; stroke-width: 1.5; stroke-linecap: square"/>
     </g>
     <g id="line2d_37">
      <g>
       <use xlink:href="#maa4808a06c" x="66.616192" y="95.275346" style="fill: #555555; stroke: #555555; stroke-width: 1.875"/>
      </g>
     </g>
     <g id="text_10">
      <!-- $\mathdefault{12.5}$ -->
      <g style="fill: #555555" transform="translate(25.501604 100.983099)scale(0.165 -0.165)">
       <use xlink:href="#CMR17-31" transform="scale(0.996264)"/>
       <use xlink:href="#CMR17-32" transform="translate(45.690477 0)scale(0.996264)"/>
       <use xlink:href="#CMMI12-3a" transform="translate(91.380954 0)scale(0.996264)"/>
       <use xlink:href="#CMR17-35" transform="translate(118.478131 0)scale(0.996264)"/>
      </g>
     </g>
    </g>
    <g id="ytick_6">
     <g id="line2d_38">
      <path d="M 66.616192 56.297899 
L 421.414729 56.297899 
" clip-path="url(#p6dd9fba89d)" style="fill: none; stroke: #ffffff; stroke-width: 1.5; stroke-linecap: square"/>
     </g>
     <g id="line2d_39">
      <g>
       <use xlink:href="#maa4808a06c" x="66.616192" y="56.297899" style="fill: #555555; stroke: #555555; stroke-width: 1.875"/>
      </g>
     </g>
     <g id="text_11">
      <!-- $\mathdefault{15.0}$ -->
      <g style="fill: #555555" transform="translate(25.501604 62.005651)scale(0.165 -0.165)">
       <use xlink:href="#CMR17-31" transform="scale(0.996264)"/>
       <use xlink:href="#CMR17-35" transform="translate(45.690477 0)scale(0.996264)"/>
       <use xlink:href="#CMMI12-3a" transform="translate(91.380954 0)scale(0.996264)"/>
       <use xlink:href="#CMR17-30" transform="translate(118.478131 0)scale(0.996264)"/>
      </g>
     </g>
    </g>
    <g id="ytick_7">
     <g id="line2d_40">
      <path d="M 66.616192 17.320451 
L 421.414729 17.320451 
" clip-path="url(#p6dd9fba89d)" style="fill: none; stroke: #ffffff; stroke-width: 1.5; stroke-linecap: square"/>
     </g>
     <g id="line2d_41">
      <g>
       <use xlink:href="#maa4808a06c" x="66.616192" y="17.320451" style="fill: #555555; stroke: #555555; stroke-width: 1.875"/>
      </g>
     </g>
     <g id="text_12">
      <!-- $\mathdefault{17.5}$ -->
      <g style="fill: #555555" transform="translate(25.501604 23.028204)scale(0.165 -0.165)">
       <use xlink:href="#CMR17-31" transform="scale(0.996264)"/>
       <use xlink:href="#CMR17-37" transform="translate(45.690477 0)scale(0.996264)"/>
       <use xlink:href="#CMMI12-3a" transform="translate(91.380954 0)scale(0.996264)"/>
       <use xlink:href="#CMR17-35" transform="translate(118.478131 0)scale(0.996264)"/>
      </g>
     </g>
    </g>
    <g id="ytick_8">
     <g id="line2d_42">
      <defs>
       <path id="ma0d9774e30" d="M 0 0 
L -6 0 
" style="stroke: #555555; stroke-width: 1.5"/>
      </defs>
      <g>
       <use xlink:href="#ma0d9774e30" x="66.616192" y="274.571605" style="fill: #555555; stroke: #555555; stroke-width: 1.5"/>
      </g>
     </g>
    </g>
    <g id="ytick_9">
     <g id="line2d_43">
      <g>
       <use xlink:href="#ma0d9774e30" x="66.616192" y="266.776115" style="fill: #555555; stroke: #555555; stroke-width: 1.5"/>
      </g>
     </g>
    </g>
    <g id="ytick_10">
     <g id="line2d_44">
      <g>
       <use xlink:href="#ma0d9774e30" x="66.616192" y="258.980626" style="fill: #555555; stroke: #555555; stroke-width: 1.5"/>
      </g>
     </g>
    </g>
    <g id="ytick_11">
     <g id="line2d_45">
      <g>
       <use xlink:href="#ma0d9774e30" x="66.616192" y="243.389647" style="fill: #555555; stroke: #555555; stroke-width: 1.5"/>
      </g>
     </g>
    </g>
    <g id="ytick_12">
     <g id="line2d_46">
      <g>
       <use xlink:href="#ma0d9774e30" x="66.616192" y="235.594157" style="fill: #555555; stroke: #555555; stroke-width: 1.5"/>
      </g>
     </g>
    </g>
    <g id="ytick_13">
     <g id="line2d_47">
      <g>
       <use xlink:href="#ma0d9774e30" x="66.616192" y="227.798668" style="fill: #555555; stroke: #555555; stroke-width: 1.5"/>
      </g>
     </g>
    </g>
    <g id="ytick_14">
     <g id="line2d_48">
      <g>
       <use xlink:href="#ma0d9774e30" x="66.616192" y="220.003178" style="fill: #555555; stroke: #555555; stroke-width: 1.5"/>
      </g>
     </g>
    </g>
    <g id="ytick_15">
     <g id="line2d_49">
      <g>
       <use xlink:href="#ma0d9774e30" x="66.616192" y="204.412199" style="fill: #555555; stroke: #555555; stroke-width: 1.5"/>
      </g>
     </g>
    </g>
    <g id="ytick_16">
     <g id="line2d_50">
      <g>
       <use xlink:href="#ma0d9774e30" x="66.616192" y="196.61671" style="fill: #555555; stroke: #555555; stroke-width: 1.5"/>
      </g>
     </g>
    </g>
    <g id="ytick_17">
     <g id="line2d_51">
      <g>
       <use xlink:href="#ma0d9774e30" x="66.616192" y="188.82122" style="fill: #555555; stroke: #555555; stroke-width: 1.5"/>
      </g>
     </g>
    </g>
    <g id="ytick_18">
     <g id="line2d_52">
      <g>
       <use xlink:href="#ma0d9774e30" x="66.616192" y="181.025731" style="fill: #555555; stroke: #555555; stroke-width: 1.5"/>
      </g>
     </g>
    </g>
    <g id="ytick_19">
     <g id="line2d_53">
      <g>
       <use xlink:href="#ma0d9774e30" x="66.616192" y="165.434752" style="fill: #555555; stroke: #555555; stroke-width: 1.5"/>
      </g>
     </g>
    </g>
    <g id="ytick_20">
     <g id="line2d_54">
      <g>
       <use xlink:href="#ma0d9774e30" x="66.616192" y="157.639262" style="fill: #555555; stroke: #555555; stroke-width: 1.5"/>
      </g>
     </g>
    </g>
    <g id="ytick_21">
     <g id="line2d_55">
      <g>
       <use xlink:href="#ma0d9774e30" x="66.616192" y="149.843773" style="fill: #555555; stroke: #555555; stroke-width: 1.5"/>
      </g>
     </g>
    </g>
    <g id="ytick_22">
     <g id="line2d_56">
      <g>
       <use xlink:href="#ma0d9774e30" x="66.616192" y="142.048283" style="fill: #555555; stroke: #555555; stroke-width: 1.5"/>
      </g>
     </g>
    </g>
    <g id="ytick_23">
     <g id="line2d_57">
      <g>
       <use xlink:href="#ma0d9774e30" x="66.616192" y="126.457304" style="fill: #555555; stroke: #555555; stroke-width: 1.5"/>
      </g>
     </g>
    </g>
    <g id="ytick_24">
     <g id="line2d_58">
      <g>
       <use xlink:href="#ma0d9774e30" x="66.616192" y="118.661815" style="fill: #555555; stroke: #555555; stroke-width: 1.5"/>
      </g>
     </g>
    </g>
    <g id="ytick_25">
     <g id="line2d_59">
      <g>
       <use xlink:href="#ma0d9774e30" x="66.616192" y="110.866325" style="fill: #555555; stroke: #555555; stroke-width: 1.5"/>
      </g>
     </g>
    </g>
    <g id="ytick_26">
     <g id="line2d_60">
      <g>
       <use xlink:href="#ma0d9774e30" x="66.616192" y="103.070836" style="fill: #555555; stroke: #555555; stroke-width: 1.5"/>
      </g>
     </g>
    </g>
    <g id="ytick_27">
     <g id="line2d_61">
      <g>
       <use xlink:href="#ma0d9774e30" x="66.616192" y="87.479857" style="fill: #555555; stroke: #555555; stroke-width: 1.5"/>
      </g>
     </g>
    </g>
    <g id="ytick_28">
     <g id="line2d_62">
      <g>
       <use xlink:href="#ma0d9774e30" x="66.616192" y="79.684367" style="fill: #555555; stroke: #555555; stroke-width: 1.5"/>
      </g>
     </g>
    </g>
    <g id="ytick_29">
     <g id="line2d_63">
      <g>
       <use xlink:href="#ma0d9774e30" x="66.616192" y="71.888878" style="fill: #555555; stroke: #555555; stroke-width: 1.5"/>
      </g>
     </g>
    </g>
    <g id="ytick_30">
     <g id="line2d_64">
      <g>
       <use xlink:href="#ma0d9774e30" x="66.616192" y="64.093388" style="fill: #555555; stroke: #555555; stroke-width: 1.5"/>
      </g>
     </g>
    </g>
    <g id="ytick_31">
     <g id="line2d_65">
      <g>
       <use xlink:href="#ma0d9774e30" x="66.616192" y="48.502409" style="fill: #555555; stroke: #555555; stroke-width: 1.5"/>
      </g>
     </g>
    </g>
    <g id="ytick_32">
     <g id="line2d_66">
      <g>
       <use xlink:href="#ma0d9774e30" x="66.616192" y="40.70692" style="fill: #555555; stroke: #555555; stroke-width: 1.5"/>
      </g>
     </g>
    </g>
    <g id="ytick_33">
     <g id="line2d_67">
      <g>
       <use xlink:href="#ma0d9774e30" x="66.616192" y="32.91143" style="fill: #555555; stroke: #555555; stroke-width: 1.5"/>
      </g>
     </g>
    </g>
    <g id="ytick_34">
     <g id="line2d_68">
      <g>
       <use xlink:href="#ma0d9774e30" x="66.616192" y="25.115941" style="fill: #555555; stroke: #555555; stroke-width: 1.5"/>
      </g>
     </g>
    </g>
    <g id="ytick_35">
     <g id="line2d_69">
      <g>
       <use xlink:href="#ma0d9774e30" x="66.616192" y="9.524962" style="fill: #555555; stroke: #555555; stroke-width: 1.5"/>
      </g>
     </g>
    </g>
    <g id="text_13">
     <!-- USD/pound -->
     <g style="fill: #555555" transform="translate(17.03342 184.54673)rotate(-90)scale(0.18 -0.18)">
      <defs>
       <path id="CMR17-55" d="M 3456 1433 
C 3456 579 2899 38 2291 38 
C 1965 38 1670 210 1491 477 
C 1286 783 1261 1178 1261 1401 
L 1261 3874 
C 1261 4160 1331 4160 1773 4160 
L 1773 4320 
C 1587 4320 1248 4320 1050 4320 
C 851 4320 512 4320 326 4320 
L 326 4160 
C 768 4160 838 4160 838 3874 
L 838 1433 
C 838 516 1536 -128 2278 -128 
C 3110 -128 3590 719 3590 1344 
L 3590 3766 
C 3590 4122 3917 4160 4102 4160 
L 4102 4326 
C 3955 4320 3686 4320 3526 4320 
C 3366 4320 3091 4320 2944 4326 
L 2944 4160 
C 3456 4160 3456 3861 3456 3702 
L 3456 1433 
z
" transform="scale(0.015625)"/>
       <path id="CMR17-53" d="M 2803 4290 
C 2803 4404 2797 4411 2758 4411 
C 2720 4411 2707 4385 2682 4328 
L 2490 3907 
C 2246 4257 1875 4416 1472 4416 
C 819 4416 294 3901 294 3253 
C 294 3056 339 2776 557 2510 
C 794 2218 1018 2167 1530 2033 
C 1722 1982 2042 1899 2106 1874 
C 2470 1722 2662 1341 2662 985 
C 2662 527 2336 38 1779 38 
C 1094 38 454 419 410 1311 
C 403 1413 397 1419 352 1419 
C 301 1419 294 1413 294 1285 
L 294 -1 
C 294 -115 301 -122 339 -122 
C 384 -122 397 -90 486 108 
C 493 127 493 140 614 381 
C 934 -39 1472 -128 1779 -128 
C 2477 -128 2970 451 2970 1124 
C 2970 1454 2848 1708 2778 1823 
C 2509 2230 2221 2306 1914 2382 
C 1869 2402 1856 2402 1498 2490 
C 1152 2579 1005 2624 845 2796 
C 666 2992 602 3196 602 3399 
C 602 3812 934 4263 1478 4263 
C 2157 4263 2579 3786 2675 2993 
C 2694 2878 2701 2872 2746 2872 
C 2803 2872 2803 2891 2803 2999 
L 2803 4290 
z
" transform="scale(0.015625)"/>
       <path id="CMR17-2f" d="M 2605 4545 
C 2637 4627 2637 4640 2637 4653 
C 2637 4729 2579 4768 2528 4768 
C 2451 4768 2426 4717 2400 4640 
L 326 -1377 
C 294 -1460 294 -1473 294 -1486 
C 294 -1562 352 -1600 403 -1600 
C 480 -1600 506 -1549 531 -1473 
L 2605 4545 
z
" transform="scale(0.015625)"/>
       <path id="CMR17-70" d="M 1408 -1063 
C 998 -1063 973 -1037 973 -789 
L 973 402 
C 1158 134 1427 -38 1766 -38 
C 2406 -38 3053 523 3053 1388 
C 3053 2191 2496 2802 1837 2802 
C 1453 2802 1139 2592 960 2338 
L 960 2802 
L 198 2732 
L 198 2567 
C 576 2567 634 2528 634 2223 
L 634 -789 
C 634 -1031 608 -1063 198 -1063 
L 198 -1228 
C 352 -1216 634 -1216 800 -1216 
C 966 -1216 1254 -1216 1408 -1228 
L 1408 -1063 
z
M 973 2012 
C 973 2102 973 2235 1222 2471 
C 1254 2497 1472 2688 1792 2688 
C 2259 2688 2643 2108 2643 1382 
C 2643 656 2234 64 1728 64 
C 1498 64 1248 172 1056 472 
C 973 612 973 650 973 752 
L 973 2012 
z
" transform="scale(0.015625)"/>
       <path id="CMR17-6f" d="M 2758 1356 
C 2758 2176 2163 2816 1466 2816 
C 768 2816 173 2176 173 1356 
C 173 551 768 -64 1466 -64 
C 2163 -64 2758 551 2758 1356 
z
M 1466 51 
C 1165 51 909 230 762 480 
C 602 767 582 1126 582 1408 
C 582 1677 595 2010 762 2298 
C 890 2509 1139 2714 1466 2714 
C 1754 2714 1997 2554 2150 2330 
C 2349 2029 2349 1607 2349 1408 
C 2349 1158 2336 775 2163 467 
C 1984 173 1709 51 1466 51 
z
" transform="scale(0.015625)"/>
       <path id="CMR17-75" d="M 1882 2693 
L 1882 2528 
C 2259 2528 2317 2489 2317 2186 
L 2317 1032 
C 2317 500 2029 38 1555 38 
C 1030 38 986 348 986 678 
L 986 2763 
L 211 2693 
L 211 2528 
C 467 2528 640 2528 646 2274 
L 646 1058 
C 646 633 646 361 813 183 
C 896 101 1056 -64 1517 -64 
C 2061 -64 2272 377 2323 506 
L 2330 506 
L 2330 -63 
L 3091 -63 
L 3091 128 
C 2714 128 2656 166 2656 473 
L 2656 2763 
L 1882 2693 
z
" transform="scale(0.015625)"/>
       <path id="CMR17-6e" d="M 2656 1933 
C 2656 2259 2592 2790 1837 2790 
C 1331 2790 1069 2400 973 2144 
L 966 2144 
L 966 2790 
L 211 2720 
L 211 2554 
C 589 2554 646 2515 646 2208 
L 646 428 
C 646 184 621 153 211 153 
L 211 -13 
C 365 0 646 0 813 0 
C 979 0 1267 0 1421 -13 
L 1421 153 
C 1011 153 986 178 986 428 
L 986 1658 
C 986 2247 1344 2688 1792 2688 
C 2266 2688 2317 2266 2317 1958 
L 2317 428 
C 2317 184 2291 153 1882 153 
L 1882 -13 
C 2035 0 2317 0 2483 0 
C 2650 0 2938 0 3091 -13 
L 3091 153 
C 2682 153 2656 178 2656 428 
L 2656 1933 
z
" transform="scale(0.015625)"/>
       <path id="CMR17-64" d="M 1869 4326 
L 1869 4160 
C 2246 4160 2304 4122 2304 3820 
L 2304 2345 
C 2278 2377 2016 2790 1498 2790 
C 845 2790 211 2208 211 1364 
C 211 525 806 -64 1434 -64 
C 1978 -64 2259 337 2291 380 
L 2291 -63 
L 3066 -63 
L 3066 128 
C 2688 128 2630 166 2630 473 
L 2630 4396 
L 1869 4326 
z
M 2291 755 
C 2291 563 2176 390 2029 262 
C 1811 70 1594 38 1472 38 
C 1286 38 621 134 621 1356 
C 621 2612 1363 2688 1530 2688 
C 1824 2688 2061 2522 2208 2291 
C 2291 2157 2291 2138 2291 2023 
L 2291 755 
z
" transform="scale(0.015625)"/>
      </defs>
      <use xlink:href="#CMR17-55" transform="scale(0.996264)"/>
      <use xlink:href="#CMR17-53" transform="translate(69.07243 0)scale(0.996264)"/>
      <use xlink:href="#CMR17-44" transform="translate(119.9678 0)scale(0.996264)"/>
      <use xlink:href="#CMR17-2f" transform="translate(190.361355 0)scale(0.996264)"/>
      <use xlink:href="#CMR17-70" transform="translate(236.051833 0)scale(0.996264)"/>
      <use xlink:href="#CMR17-6f" transform="translate(289.549641 0)scale(0.996264)"/>
      <use xlink:href="#CMR17-75" transform="translate(335.240118 0)scale(0.996264)"/>
      <use xlink:href="#CMR17-6e" transform="translate(386.135488 0)scale(0.996264)"/>
      <use xlink:href="#CMR17-64" transform="translate(437.030858 0)scale(0.996264)"/>
     </g>
    </g>
   </g>
   <g id="line2d_70">
    <path d="M 66.616192 210.960411 
L 67.945026 210.796705 
L 69.273859 205.113793 
L 70.602693 206.4858 
L 71.931526 209.479268 
L 74.589193 220.813909 
L 75.918027 211.747755 
L 77.24686 213.688832 
L 78.575694 217.173416 
L 79.904527 211.27223 
L 81.233361 211.007184 
L 82.562194 218.522035 
L 83.891027 219.176857 
L 85.219861 223.355239 
L 86.548694 221.991028 
L 87.877528 219.847269 
L 89.206361 215.965115 
L 90.535195 210.282203 
L 91.864028 214.593109 
L 93.192862 219.808291 
L 94.521695 222.326234 
L 95.850529 220.860682 
L 97.179362 224.368653 
L 99.837029 221.663618 
L 101.165863 215.910546 
L 102.494696 217.532008 
L 103.823529 210.843478 
L 105.152363 207.483622 
L 106.481196 203.367604 
L 107.81003 204.786383 
L 109.138863 205.074816 
L 110.467697 201.878665 
L 111.79653 199.929793 
L 113.125364 201.933234 
L 114.454197 202.229462 
L 115.783031 200.452091 
L 117.111864 200.59241 
L 118.440698 192.4851 
L 119.769531 192.79692 
L 121.098365 194.176722 
L 122.427198 208.793265 
L 123.756032 198.144626 
L 125.084865 184.572679 
L 126.413698 165.894686 
L 127.742532 172.255805 
L 129.071365 166.52612 
L 130.400199 162.394511 
L 131.729032 143.841246 
L 133.057866 135.032343 
L 134.386699 131.571145 
L 135.715533 163.252015 
L 137.044366 164.717567 
L 138.3732 199.812861 
L 139.702033 192.368168 
L 141.030867 207.998125 
L 142.3597 207.171803 
L 143.688534 206.789824 
L 145.017367 204.82536 
L 146.346201 209.90802 
L 147.675034 193.389377 
L 149.003867 192.329191 
L 150.332701 192.742352 
L 151.661534 184.104949 
L 152.990368 188.018285 
L 154.319201 184.775361 
L 155.648035 197.185781 
L 156.976868 200.787297 
L 158.305702 200.709342 
L 159.634535 203.164921 
L 160.963369 194.87052 
L 162.292202 197.513191 
L 163.621036 197.980921 
L 164.949869 201.060139 
L 166.278703 196.889552 
L 167.607536 199.812861 
L 168.93637 196.718051 
L 170.265203 199.064494 
L 171.594036 203.936675 
L 172.92287 204.801974 
L 174.251703 190.154249 
L 175.580537 183.286423 
L 176.90937 181.883235 
L 178.238204 177.98549 
L 179.567037 167.827967 
L 180.895871 171.476256 
L 182.224704 174.773748 
L 183.553538 164.460316 
L 184.882371 156.922077 
L 186.211205 159.229542 
L 187.540038 153.024333 
L 188.868872 135.617005 
L 190.197705 130.729233 
L 191.526539 121.780011 
L 192.855372 101.324646 
L 194.184205 91.455557 
L 195.513039 51.05933 
L 196.841872 103.499588 
L 198.170706 85.679099 
L 199.499539 77.579585 
L 200.828373 40.800466 
L 202.157206 72.738586 
L 203.48604 83.488566 
L 204.814873 127.236853 
L 206.143707 144.94041 
L 207.47254 152.494239 
L 208.801374 137.61265 
L 210.130207 137.37099 
L 211.459041 154.131292 
L 212.787874 141.736464 
L 214.116708 125.210026 
L 215.445541 105.565393 
L 216.774374 112.324082 
L 218.103208 124.586387 
L 219.432041 133.691519 
L 220.760875 145.634209 
L 222.089708 137.869901 
L 223.418542 124.820252 
L 224.747375 126.964011 
L 226.076209 147.661036 
L 227.405042 140.645095 
L 228.733876 143.451472 
L 230.062709 134.704932 
L 231.391543 143.958178 
L 232.720376 144.464885 
L 234.04921 131.119007 
L 235.378043 132.75606 
L 236.706877 117.609424 
L 238.03571 97.769903 
L 239.364543 96.366715 
L 240.693377 71.709582 
L 242.02221 69.862051 
L 243.351044 77.618563 
L 244.679877 70.290802 
L 247.337544 75.630713 
L 248.666378 87.347334 
L 249.995211 79.738936 
L 251.324045 63.189112 
L 252.652878 106.344941 
L 253.981712 100.685416 
L 255.310545 113.789634 
L 256.639379 102.150968 
L 257.968212 103.226746 
L 259.297046 84.564344 
L 260.625879 71.421148 
L 261.954712 55.51835 
L 263.283546 81.243465 
L 264.612379 58.176612 
L 265.941213 29.855598 
L 267.270046 16.057582 
L 268.59888 40.55101 
L 269.927713 48.751865 
L 271.256547 65.847373 
L 272.58538 70.119302 
L 273.914214 61.209057 
L 275.243047 63.056588 
L 276.571881 71.148306 
L 277.900714 69.901028 
L 279.229548 54.738801 
L 280.558381 62.892883 
L 281.887214 91.439966 
L 283.216048 76.441444 
L 284.544881 90.169301 
L 285.873715 92.305265 
L 287.202548 81.78915 
L 288.531382 88.025541 
L 289.860215 90.169301 
L 291.189049 69.698345 
L 293.846716 53.748774 
L 295.175549 57.35029 
L 296.504383 80.635417 
L 297.833216 114.810843 
L 299.16205 128.437359 
L 300.490883 147.777968 
L 301.819717 126.659987 
L 303.14855 131.758237 
L 304.477383 130.776006 
L 305.806217 140.333276 
L 307.13505 129.372817 
L 308.463884 138.423381 
L 309.792717 137.916674 
L 311.121551 144.54284 
L 312.450384 126.324781 
L 313.779218 140.684073 
L 315.108051 151.480826 
L 316.436885 151.091051 
L 317.765718 152.127851 
L 319.094552 152.806059 
L 320.423385 155.199274 
L 321.752219 152.611172 
L 323.081052 156.17371 
L 324.409886 148.167743 
L 325.738719 129.88732 
L 327.067552 122.013875 
L 328.396386 107.062126 
L 329.725219 130.744824 
L 331.054053 142.609559 
L 332.382886 141.424644 
L 333.71172 132.717082 
L 335.040553 129.224703 
L 336.369387 133.863019 
L 337.69822 130.433004 
L 339.027054 129.014225 
L 340.355887 142.671923 
L 341.684721 141.416849 
L 343.013554 147.349216 
L 344.342388 142.664127 
L 345.671221 134.486659 
L 347.000055 143.069493 
L 348.328888 139.20293 
L 349.657721 136.97342 
L 350.986555 136.474508 
L 352.315388 140.528163 
L 353.644222 134.91541 
L 354.973055 125.927211 
L 356.301889 127.275831 
L 357.630722 127.026375 
L 358.959556 131.368463 
L 360.288389 155.69039 
L 361.617223 148.635472 
L 362.946056 158.980087 
L 365.603723 157.76399 
L 366.932557 150.662299 
L 368.26139 151.013096 
L 369.590224 147.466149 
L 370.919057 148.643268 
L 372.24789 152.299352 
L 373.576724 157.413193 
L 376.234391 149.290293 
L 377.563224 154.832886 
L 378.892058 155.05116 
L 380.220891 148.908314 
L 381.549725 145.299003 
L 382.878558 153.468676 
L 384.207392 141.580554 
L 385.536225 154.131292 
L 386.865059 151.262552 
L 388.193892 152.02651 
L 389.522726 156.976646 
L 390.851559 159.081428 
L 392.180393 152.985355 
L 393.509226 151.137824 
L 394.838059 141.572759 
L 396.166893 130.588914 
L 397.495726 125.475073 
L 398.82456 107.981994 
L 400.153393 85.632326 
L 401.482227 76.566172 
L 404.139894 66.159193 
L 405.468727 49.812052 
L 406.797561 51.54265 
L 408.126394 66.587945 
L 409.455228 76.979332 
L 410.784061 88.454293 
L 412.112895 94.339888 
L 413.441728 95.782053 
L 414.770562 100.381392 
L 416.099395 81.687808 
L 418.757062 34.74337 
L 420.085895 37.861566 
L 421.414729 26.760789 
L 421.414729 26.760789 
" clip-path="url(#p6dd9fba89d)" style="fill: none; stroke: #4d3c2f; stroke-width: 2.25; stroke-linecap: square"/>
   </g>
   <g id="line2d_71">
    <path d="M 66.616192 261.727756 
L 67.945026 263.116913 
L 69.273859 258.760793 
L 70.602693 259.361046 
L 71.931526 262.945412 
L 73.26036 262.791061 
L 74.589193 263.511364 
L 75.918027 262.962562 
L 77.24686 263.202663 
L 78.575694 265.089172 
L 79.904527 264.471769 
L 82.562194 265.209222 
L 83.891027 263.082613 
L 85.219861 262.808211 
L 86.548694 264.025867 
L 87.877528 264.420319 
L 89.206361 263.957266 
L 90.535195 257.594588 
L 91.864028 261.350455 
L 93.192862 263.545665 
L 94.521695 263.562815 
L 95.850529 262.276559 
L 97.179362 263.700015 
L 98.508196 264.197368 
L 99.837029 263.682865 
L 101.165863 261.933557 
L 102.494696 262.259409 
L 103.823529 258.10909 
L 105.152363 258.726493 
L 106.481196 255.467978 
L 107.81003 254.747675 
L 109.138863 256.188282 
L 110.467697 252.706816 
L 111.79653 251.094709 
L 113.125364 253.61577 
L 114.454197 255.262177 
L 118.440698 252.552465 
L 119.769531 252.312364 
L 121.098365 252.518165 
L 122.427198 256.994335 
L 123.756032 254.421824 
L 125.084865 247.853344 
L 127.742532 243.188523 
L 129.071365 242.39962 
L 130.400199 239.964309 
L 131.729032 231.749422 
L 133.057866 234.887886 
L 134.386699 232.829877 
L 135.715533 242.056618 
L 137.044366 243.188523 
L 138.3732 252.912617 
L 139.702033 246.258387 
L 141.030867 254.661925 
L 142.3597 253.289919 
L 143.688534 254.696225 
L 145.017367 254.576174 
L 146.346201 256.960035 
L 147.675034 250.168605 
L 149.003867 250.888908 
L 150.332701 251.31766 
L 151.661534 250.460156 
L 154.319201 248.436447 
L 155.648035 251.592061 
L 156.976868 249.1739 
L 158.305702 250.957508 
L 159.634535 253.735821 
L 162.292202 251.832162 
L 163.621036 249.19105 
L 164.949869 251.077559 
L 166.278703 246.121186 
L 167.607536 247.01299 
L 168.93637 244.903531 
L 170.265203 244.063177 
L 171.594036 246.772889 
L 172.92287 248.745148 
L 175.580537 239.518407 
L 176.90937 239.381206 
L 178.238204 239.844258 
L 179.567037 237.580448 
L 180.895871 234.459134 
L 182.224704 232.383975 
L 183.553538 228.919659 
L 186.211205 225.026592 
L 187.540038 227.153201 
L 188.868872 221.733777 
L 190.197705 217.600609 
L 194.184205 198.032371 
L 195.513039 172.358706 
L 196.841872 201.873988 
L 198.170706 190.349136 
L 199.499539 185.015462 
L 200.828373 176.526174 
L 202.157206 189.903234 
L 203.48604 198.203872 
L 204.814873 214.050543 
L 206.143707 232.538326 
L 207.47254 233.841731 
L 208.801374 232.641226 
L 210.130207 234.030382 
L 211.459041 236.894445 
L 212.787874 232.504025 
L 215.445541 223.191534 
L 216.774374 229.828613 
L 218.103208 229.794313 
L 219.432041 229.880064 
L 220.760875 231.406421 
L 222.089708 227.736304 
L 223.418542 220.704773 
L 224.747375 220.378921 
L 226.076209 228.165056 
L 227.405042 222.213979 
L 228.733876 224.460639 
L 230.062709 223.517385 
L 232.720376 227.702004 
L 234.04921 221.682327 
L 235.378043 222.213979 
L 236.706877 212.970088 
L 238.03571 205.612705 
L 239.364543 202.817242 
L 240.693377 190.280536 
L 242.02221 190.897939 
L 243.351044 192.029844 
L 244.679877 189.354432 
L 246.008711 189.851784 
L 247.337544 189.851784 
L 248.666378 195.52846 
L 249.995211 194.516605 
L 251.324045 189.560233 
L 252.652878 204.137798 
L 253.981712 202.40564 
L 255.310545 205.355454 
L 256.639379 200.381931 
L 257.968212 202.920143 
L 259.297046 196.883316 
L 260.625879 195.66566 
L 261.954712 195.888611 
L 263.283546 205.784206 
L 264.612379 200.381931 
L 265.941213 199.730228 
L 267.270046 193.093149 
L 268.59888 200.02178 
L 269.927713 204.137798 
L 271.256547 204.978152 
L 272.58538 205.115353 
L 273.914214 199.507277 
L 275.243047 206.024307 
L 276.571881 204.223549 
L 279.229548 207.190512 
L 280.558381 210.723428 
L 281.887214 217.737809 
L 283.216048 214.787996 
L 284.544881 219.761518 
L 285.873715 219.281316 
L 287.202548 220.859123 
L 289.860215 225.609695 
L 291.189049 218.578163 
L 292.517882 220.841973 
L 293.846716 218.029361 
L 295.175549 224.134788 
L 296.504383 223.397335 
L 297.833216 228.165056 
L 299.16205 235.248038 
L 300.490883 234.682085 
L 301.819717 230.480316 
L 303.14855 234.819286 
L 304.477383 235.093687 
L 305.806217 238.712353 
L 307.13505 233.704531 
L 308.463884 238.0435 
L 309.792717 235.934041 
L 311.121551 233.001378 
L 312.450384 232.486875 
L 313.779218 238.575153 
L 315.108051 242.125219 
L 316.436885 243.360024 
L 317.765718 241.799367 
L 319.094552 239.809958 
L 320.423385 237.494698 
L 321.752219 237.203146 
L 323.081052 237.306047 
L 324.409886 231.475021 
L 325.738719 233.412979 
L 327.067552 235.591039 
L 328.396386 236.139842 
L 329.725219 237.9406 
L 331.054053 234.304783 
L 332.382886 232.881327 
L 335.040553 226.79305 
L 336.369387 230.806168 
L 337.69822 232.109574 
L 339.027054 232.058123 
L 340.355887 235.65964 
L 341.684721 235.86544 
L 343.013554 236.414243 
L 345.671221 230.497466 
L 347.000055 230.497466 
L 348.328888 233.961782 
L 349.657721 230.566067 
L 350.986555 232.143874 
L 352.315388 233.190028 
L 353.644222 233.44728 
L 354.973055 234.973636 
L 356.301889 235.505289 
L 357.630722 237.734799 
L 358.959556 236.791545 
L 360.288389 240.067209 
L 362.946056 241.319165 
L 364.27489 240.547411 
L 365.603723 242.108068 
L 366.932557 242.125219 
L 368.26139 242.50252 
L 369.590224 238.420802 
L 370.919057 238.386502 
L 372.24789 241.524966 
L 373.576724 242.45107 
L 374.905557 242.845522 
L 376.234391 241.559266 
L 377.563224 242.39962 
L 378.892058 241.044764 
L 380.220891 240.32446 
L 381.549725 237.426097 
L 382.878558 237.769099 
L 384.207392 230.634667 
L 385.536225 238.815254 
L 386.865059 241.096214 
L 388.193892 243.840226 
L 389.522726 244.66343 
L 390.851559 243.205673 
L 392.180393 241.953718 
L 393.509226 237.751949 
L 394.838059 233.944632 
L 397.495726 232.521175 
L 398.82456 225.729745 
L 400.153393 217.120406 
L 401.482227 213.638941 
L 402.81106 204.034898 
L 404.139894 199.404377 
L 405.468727 181.088095 
L 406.797561 177.332228 
L 408.126394 180.796544 
L 409.455228 179.201586 
L 410.784061 189.01143 
L 412.112895 189.474482 
L 413.441728 185.084063 
L 414.770562 195.51131 
L 416.099395 193.29895 
L 418.757062 165.670176 
L 420.085895 170.214946 
L 421.414729 144.078229 
L 421.414729 144.078229 
" clip-path="url(#p6dd9fba89d)" style="fill: none; stroke: #c07156; stroke-width: 2.25; stroke-linecap: square"/>
   </g>
   <g id="line2d_72">
    <path d="M 66.616192 234.939336 
L 67.945026 233.58791 
L 69.273859 231.097719 
L 70.602693 231.35154 
L 71.931526 229.554212 
L 73.26036 234.287633 
L 74.589193 239.617877 
L 75.918027 232.016963 
L 78.575694 231.989523 
L 79.904527 224.484649 
L 81.233361 224.731611 
L 82.562194 233.46443 
L 83.891027 236.976765 
L 85.219861 239.844258 
L 86.548694 237.395227 
L 87.877528 233.327229 
L 89.206361 231.523041 
L 90.535195 230.658677 
L 91.864028 232.428565 
L 93.192862 235.350938 
L 94.521695 235.007937 
L 95.850529 237.210007 
L 97.179362 240.612582 
L 98.508196 238.129251 
L 99.837029 238.197851 
L 101.165863 235.179437 
L 102.494696 235.508719 
L 103.823529 232.298224 
L 105.152363 229.410152 
L 106.481196 229.252371 
L 109.138863 231.22806 
L 110.467697 231.955223 
L 111.79653 232.833307 
L 113.125364 232.750987 
L 114.454197 231.30352 
L 115.783031 229.609092 
L 117.111864 231.20062 
L 118.440698 223.778066 
L 119.769531 224.923691 
L 121.098365 225.513654 
L 122.427198 233.745691 
L 123.756032 225.520514 
L 125.084865 221.356475 
L 126.413698 203.691896 
L 127.742532 211.958233 
L 129.071365 206.586829 
L 130.400199 202.491391 
L 131.729032 193.744852 
L 133.057866 182.357201 
L 134.386699 181.630037 
L 135.715533 202.765792 
L 137.044366 195.171738 
L 138.3732 225.266693 
L 139.702033 228.367427 
L 141.030867 235.625339 
L 142.3597 237.374647 
L 143.688534 236.887585 
L 145.017367 234.280773 
L 146.346201 237.408947 
L 147.675034 227.091461 
L 149.003867 226.021296 
L 150.332701 223.723186 
L 151.661534 216.520154 
L 152.990368 219.078945 
L 154.319201 217.802979 
L 155.648035 227.214942 
L 156.976868 231.934643 
L 158.305702 231.955223 
L 159.634535 231.152599 
L 160.963369 222.762782 
L 162.292202 226.707299 
L 163.621036 229.890354 
L 167.607536 231.029119 
L 168.93637 229.753153 
L 170.265203 233.869172 
L 171.594036 235.83114 
L 172.92287 234.191593 
L 174.251703 225.129492 
L 175.580537 223.112643 
L 176.90937 222.968583 
L 178.238204 219.024065 
L 179.567037 211.464311 
L 180.895871 217.514858 
L 182.224704 222.38548 
L 183.553538 215.76555 
L 184.882371 210.997829 
L 186.211205 215.443129 
L 187.540038 207.554094 
L 188.868872 193.827172 
L 190.197705 194.259354 
L 191.526539 189.985555 
L 192.855372 175.030688 
L 194.184205 173.027559 
L 195.513039 159.513298 
L 196.841872 179.613188 
L 198.170706 173.171619 
L 199.499539 173.027559 
L 200.828373 142.671923 
L 202.157206 160.837284 
L 203.48604 166.61343 
L 204.814873 192.791307 
L 206.143707 196.523164 
L 207.47254 202.820672 
L 208.801374 187.282703 
L 210.130207 183.489106 
L 211.459041 197.209167 
L 212.787874 188.87423 
L 214.116708 175.977372 
L 215.445541 158.964496 
L 216.774374 159.170297 
L 218.103208 174.159464 
L 219.432041 179.187866 
L 220.760875 192.016124 
L 222.089708 188.291127 
L 223.418542 181.252736 
L 224.747375 184.634731 
L 226.076209 196.248763 
L 227.405042 197.332648 
L 228.733876 198.992775 
L 230.062709 189.752314 
L 231.391543 196.351663 
L 232.720376 193.779152 
L 234.04921 187.090622 
L 235.378043 188.592968 
L 236.706877 185.224693 
L 238.03571 174.330965 
L 239.364543 173.446021 
L 240.693377 162.16127 
L 242.02221 159.719099 
L 243.351044 166.407629 
L 244.679877 163.011914 
L 246.008711 165.824526 
L 247.337544 168.294137 
L 248.666378 175.58635 
L 249.995211 169.124201 
L 251.324045 159.026236 
L 252.652878 184.57985 
L 253.981712 181.739798 
L 255.310545 190.061015 
L 256.639379 183.022624 
L 257.968212 180.642193 
L 259.297046 169.233962 
L 260.625879 156.837886 
L 261.954712 140.867734 
L 263.283546 154.848477 
L 264.612379 142.397521 
L 265.941213 111.287282 
L 267.270046 105.497416 
L 268.59888 123.148275 
L 269.927713 124.767242 
L 271.256547 140.476713 
L 272.58538 146.225418 
L 273.914214 143.906728 
L 275.243047 140.805994 
L 276.571881 151.384162 
L 277.900714 147.041762 
L 279.229548 136.772296 
L 280.558381 137.190758 
L 281.887214 149.456493 
L 283.216048 140.490433 
L 284.544881 150.801059 
L 285.873715 151.727163 
L 287.202548 139.036106 
L 288.531382 145.710916 
L 289.860215 144.009629 
L 291.189049 132.471057 
L 292.517882 125.761947 
L 293.846716 120.123001 
L 295.175549 118.593215 
L 297.833216 163.986038 
L 299.16205 160.377662 
L 300.490883 187.248402 
L 301.819717 156.734986 
L 303.14855 162.819833 
L 305.806217 177.006377 
L 307.13505 171.943674 
L 308.463884 178.069681 
L 311.121551 185.307014 
L 312.450384 168.93898 
L 313.779218 172.897218 
L 315.108051 182.096519 
L 316.436885 184.223129 
L 317.765718 185.752916 
L 320.423385 199.177996 
L 321.752219 196.728965 
L 323.081052 200.344201 
L 324.409886 197.449268 
L 327.067552 154.128174 
L 328.396386 151.00686 
L 329.725219 170.139486 
L 331.054053 184.120228 
L 332.382886 187.515944 
L 333.71172 181.739798 
L 335.040553 181.115535 
L 336.369387 181.822118 
L 337.69822 175.394269 
L 339.027054 175.037548 
L 340.355887 184.38091 
L 341.684721 182.123959 
L 343.013554 187.913825 
L 344.342388 185.258994 
L 345.671221 180.306051 
L 347.000055 188.613549 
L 348.328888 182.13768 
L 349.657721 183.214704 
L 350.986555 178.309782 
L 352.315388 181.787818 
L 353.644222 174.296664 
L 354.973055 154.814177 
L 356.301889 158.449993 
L 357.630722 155.205199 
L 358.959556 161.434107 
L 360.288389 176.505594 
L 361.617223 173.487181 
L 362.946056 185.746056 
L 364.27489 184.42207 
L 365.603723 185.066913 
L 366.932557 183.811527 
L 368.26139 184.120228 
L 369.590224 183.832107 
L 370.919057 185.457934 
L 372.24789 185.032613 
L 373.576724 187.509084 
L 374.905557 179.95619 
L 376.234391 182.16512 
L 377.563224 187.248402 
L 378.892058 190.273676 
L 380.220891 187.268983 
L 381.549725 185.752916 
L 382.878558 189.779754 
L 384.207392 185.979297 
L 385.536225 190.349136 
L 386.865059 185.821516 
L 388.193892 179.887589 
L 389.522726 189.320132 
L 390.851559 193.024548 
L 392.180393 191.19292 
L 393.509226 190.410877 
L 394.838059 185.053193 
L 397.495726 160.302202 
L 398.82456 156.042123 
L 400.153393 142.534722 
L 401.482227 142.328921 
L 402.81106 145.498255 
L 404.139894 145.004333 
L 405.468727 144.016489 
L 406.797561 154.505476 
L 408.126394 160.816704 
L 409.455228 169.576963 
L 410.784061 172.252375 
L 412.112895 177.589479 
L 413.441728 176.080272 
L 414.770562 172.444456 
L 416.099395 152.406306 
L 417.428228 146.47924 
L 418.757062 136.491035 
L 420.085895 129.809365 
L 421.414729 141.320496 
L 421.414729 141.320496 
" clip-path="url(#p6dd9fba89d)" style="fill: none; stroke: #e8c767; stroke-width: 2.25; stroke-linecap: square"/>
   </g>
   <g id="patch_3">
    <path d="M 66.616192 277.666804 
L 66.616192 3.6 
" style="fill: none; stroke: #ffffff; stroke-width: 1.875; stroke-linejoin: miter; stroke-linecap: square"/>
   </g>
   <g id="patch_4">
    <path d="M 66.616192 277.666804 
L 421.414729 277.666804 
" style="fill: none; stroke: #ffffff; stroke-width: 1.875; stroke-linejoin: miter; stroke-linecap: square"/>
   </g>
   <g id="legend_1">
    <g id="line2d_73">
     <path d="M 81.466192 24.225 
L 97.966192 24.225 
L 114.466192 24.225 
" style="fill: none; stroke: #4d3c2f; stroke-width: 2.25; stroke-linecap: square"/>
    </g>
    <g id="text_14">
     <!-- Soybean -->
     <g transform="translate(127.666192 30)scale(0.165 -0.165)">
      <defs>
       <path id="CMR17-79" d="M 2496 2197 
C 2656 2586 2944 2586 3034 2586 
L 3034 2752 
C 2912 2752 2752 2752 2630 2752 
C 2496 2752 2285 2752 2157 2758 
L 2157 2592 
C 2400 2573 2406 2394 2406 2343 
C 2406 2280 2394 2248 2362 2171 
L 1664 449 
L 902 2306 
C 870 2382 870 2426 870 2433 
C 870 2573 1018 2586 1171 2586 
L 1171 2758 
C 1018 2752 742 2752 582 2752 
C 410 2752 205 2752 64 2758 
L 64 2586 
C 410 2586 448 2554 531 2350 
L 1485 15 
C 1197 -738 1030 -1178 627 -1178 
C 557 -1178 397 -1159 282 -1044 
C 429 -1031 493 -942 493 -833 
C 493 -725 416 -629 288 -629 
C 147 -629 77 -725 77 -840 
C 77 -1095 339 -1280 627 -1280 
C 998 -1280 1229 -922 1357 -604 
L 2496 2197 
z
" transform="scale(0.015625)"/>
       <path id="CMR17-62" d="M 960 4396 
L 198 4326 
L 198 4160 
C 576 4160 634 4122 634 3817 
L 634 -13 
L 749 -13 
L 934 441 
C 1120 141 1395 -64 1766 -64 
C 2406 -64 3053 500 3053 1370 
C 3053 2188 2477 2790 1830 2790 
C 1434 2790 1152 2579 960 2330 
L 960 4396 
z
M 973 2004 
C 973 2118 973 2138 1062 2272 
C 1312 2657 1670 2688 1792 2688 
C 1984 2688 2643 2585 2643 1376 
C 2643 108 1888 38 1734 38 
C 1536 38 1248 114 1043 486 
C 973 608 973 621 973 735 
L 973 2004 
z
" transform="scale(0.015625)"/>
      </defs>
      <use xlink:href="#CMR17-53" transform="scale(0.996264)"/>
      <use xlink:href="#CMR17-6f" transform="translate(50.89537 0)scale(0.996264)"/>
      <use xlink:href="#CMR17-79" transform="translate(93.983393 0)scale(0.996264)"/>
      <use xlink:href="#CMR17-62" transform="translate(142.276309 0)scale(0.996264)"/>
      <use xlink:href="#CMR17-65" transform="translate(195.774117 0)scale(0.996264)"/>
      <use xlink:href="#CMR17-61" transform="translate(236.259778 0)scale(0.996264)"/>
      <use xlink:href="#CMR17-6e" transform="translate(281.950255 0)scale(0.996264)"/>
     </g>
    </g>
    <g id="line2d_74">
     <path d="M 81.466192 47.221327 
L 97.966192 47.221327 
L 114.466192 47.221327 
" style="fill: none; stroke: #c07156; stroke-width: 2.25; stroke-linecap: square"/>
    </g>
    <g id="text_15">
     <!-- Soybean Oil -->
     <g transform="translate(127.666192 52.996327)scale(0.165 -0.165)">
      <defs>
       <path id="CMR17-4f" d="M 4307 2135 
C 4307 3437 3366 4416 2304 4416 
C 1216 4416 294 3424 294 2135 
C 294 845 1229 -128 2298 -128 
C 3392 -128 4307 864 4307 2135 
z
M 2304 -13 
C 1574 -13 781 711 781 2217 
C 781 3716 1651 4301 2298 4301 
C 2976 4301 3821 3698 3821 2217 
C 3821 686 3008 -13 2304 -13 
z
" transform="scale(0.015625)"/>
       <path id="CMR17-69" d="M 992 3909 
C 992 4049 877 4170 730 4170 
C 589 4170 467 4056 467 3909 
C 467 3769 582 3648 730 3648 
C 870 3648 992 3763 992 3909 
z
M 243 2706 
L 243 2541 
C 602 2541 653 2502 653 2197 
L 653 427 
C 653 184 627 153 218 153 
L 218 -13 
C 371 0 646 0 806 0 
C 960 0 1222 0 1370 -13 
L 1370 153 
C 992 153 979 191 979 420 
L 979 2776 
L 243 2706 
z
" transform="scale(0.015625)"/>
       <path id="CMR17-6c" d="M 979 4396 
L 218 4326 
L 218 4160 
C 595 4160 653 4122 653 3817 
L 653 426 
C 653 184 627 153 218 153 
L 218 -13 
C 371 0 653 0 813 0 
C 979 0 1261 0 1414 -13 
L 1414 153 
C 1005 153 979 178 979 426 
L 979 4396 
z
" transform="scale(0.015625)"/>
      </defs>
      <use xlink:href="#CMR17-53" transform="scale(0.996264)"/>
      <use xlink:href="#CMR17-6f" transform="translate(50.89537 0)scale(0.996264)"/>
      <use xlink:href="#CMR17-79" transform="translate(93.983393 0)scale(0.996264)"/>
      <use xlink:href="#CMR17-62" transform="translate(142.276309 0)scale(0.996264)"/>
      <use xlink:href="#CMR17-65" transform="translate(195.774117 0)scale(0.996264)"/>
      <use xlink:href="#CMR17-61" transform="translate(236.259778 0)scale(0.996264)"/>
      <use xlink:href="#CMR17-6e" transform="translate(281.950255 0)scale(0.996264)"/>
      <use xlink:href="#CMR17-4f" transform="translate(362.921591 0)scale(0.996264)"/>
      <use xlink:href="#CMR17-69" transform="translate(434.636379 0)scale(0.996264)"/>
      <use xlink:href="#CMR17-6c" transform="translate(459.507438 0)scale(0.996264)"/>
     </g>
    </g>
    <g id="line2d_75">
     <path d="M 81.466192 70.217654 
L 97.966192 70.217654 
L 114.466192 70.217654 
" style="fill: none; stroke: #e8c767; stroke-width: 2.25; stroke-linecap: square"/>
    </g>
    <g id="text_16">
     <!-- Soybean Meal -->
     <g transform="translate(127.666192 75.992654)scale(0.165 -0.165)">
      <defs>
       <path id="CMR17-4d" d="M 1338 4224 
C 1299 4320 1293 4320 1158 4320 
L 339 4320 
L 339 4160 
C 781 4160 851 4160 851 3875 
L 851 610 
C 851 451 851 153 339 153 
L 339 -13 
C 486 0 755 0 915 0 
C 1075 0 1344 0 1491 -13 
L 1491 153 
C 979 153 979 451 979 610 
L 979 4135 
L 986 4135 
L 2490 89 
C 2515 25 2528 -13 2579 -13 
C 2630 -13 2643 25 2669 89 
L 4186 4166 
L 4192 4166 
L 4192 438 
C 4192 153 4122 153 3680 153 
L 3680 -13 
C 3853 0 4198 0 4384 0 
C 4570 0 4922 0 5094 -13 
L 5094 153 
C 4653 153 4582 153 4582 438 
L 4582 3875 
C 4582 4160 4653 4160 5094 4160 
L 5094 4320 
L 4282 4320 
C 4147 4320 4141 4314 4102 4218 
L 2720 502 
L 1338 4224 
z
" transform="scale(0.015625)"/>
      </defs>
      <use xlink:href="#CMR17-53" transform="scale(0.996264)"/>
      <use xlink:href="#CMR17-6f" transform="translate(50.89537 0)scale(0.996264)"/>
      <use xlink:href="#CMR17-79" transform="translate(93.983393 0)scale(0.996264)"/>
      <use xlink:href="#CMR17-62" transform="translate(142.276309 0)scale(0.996264)"/>
      <use xlink:href="#CMR17-65" transform="translate(195.774117 0)scale(0.996264)"/>
      <use xlink:href="#CMR17-61" transform="translate(236.259778 0)scale(0.996264)"/>
      <use xlink:href="#CMR17-6e" transform="translate(281.950255 0)scale(0.996264)"/>
      <use xlink:href="#CMR17-4d" transform="translate(362.921591 0)scale(0.996264)"/>
      <use xlink:href="#CMR17-65" transform="translate(447.608532 0)scale(0.996264)"/>
      <use xlink:href="#CMR17-61" transform="translate(488.094192 0)scale(0.996264)"/>
      <use xlink:href="#CMR17-6c" transform="translate(533.784669 0)scale(0.996264)"/>
     </g>
    </g>
   </g>
  </g>
  <g id="axes_2">
   <g id="patch_5">
    <path d="M 473.921463 277.666804 
L 828.72 277.666804 
L 828.72 3.6 
L 473.921463 3.6 
z
" style="fill: #e5e5e5"/>
   </g>
   <g id="matplotlib.axis_3">
    <g id="xtick_24">
     <g id="line2d_76">
      <path d="M 537.70547 277.666804 
L 537.70547 3.6 
" clip-path="url(#pcb2bed59d6)" style="fill: none; stroke: #ffffff; stroke-width: 1.5; stroke-linecap: square"/>
     </g>
     <g id="line2d_77">
      <g>
       <use xlink:href="#m7eef22460d" x="537.70547" y="277.666804" style="fill: #555555; stroke: #555555; stroke-width: 1.875"/>
      </g>
     </g>
     <g id="text_17">
      <!-- 2004 -->
      <g style="fill: #555555" transform="translate(521.609762 301.582309)scale(0.165 -0.165)">
       <use xlink:href="#CMR17-32" transform="scale(0.996264)"/>
       <use xlink:href="#CMR17-30" transform="translate(45.690477 0)scale(0.996264)"/>
       <use xlink:href="#CMR17-30" transform="translate(91.380954 0)scale(0.996264)"/>
       <use xlink:href="#CMR17-34" transform="translate(137.071431 0)scale(0.996264)"/>
      </g>
     </g>
    </g>
    <g id="xtick_25">
     <g id="line2d_78">
      <path d="M 617.435478 277.666804 
L 617.435478 3.6 
" clip-path="url(#pcb2bed59d6)" style="fill: none; stroke: #ffffff; stroke-width: 1.5; stroke-linecap: square"/>
     </g>
     <g id="line2d_79">
      <g>
       <use xlink:href="#m7eef22460d" x="617.435478" y="277.666804" style="fill: #555555; stroke: #555555; stroke-width: 1.875"/>
      </g>
     </g>
     <g id="text_18">
      <!-- 2009 -->
      <g style="fill: #555555" transform="translate(601.33977 301.582309)scale(0.165 -0.165)">
       <use xlink:href="#CMR17-32" transform="scale(0.996264)"/>
       <use xlink:href="#CMR17-30" transform="translate(45.690477 0)scale(0.996264)"/>
       <use xlink:href="#CMR17-30" transform="translate(91.380954 0)scale(0.996264)"/>
       <use xlink:href="#CMR17-39" transform="translate(137.071431 0)scale(0.996264)"/>
      </g>
     </g>
    </g>
    <g id="xtick_26">
     <g id="line2d_80">
      <path d="M 697.165486 277.666804 
L 697.165486 3.6 
" clip-path="url(#pcb2bed59d6)" style="fill: none; stroke: #ffffff; stroke-width: 1.5; stroke-linecap: square"/>
     </g>
     <g id="line2d_81">
      <g>
       <use xlink:href="#m7eef22460d" x="697.165486" y="277.666804" style="fill: #555555; stroke: #555555; stroke-width: 1.875"/>
      </g>
     </g>
     <g id="text_19">
      <!-- 2014 -->
      <g style="fill: #555555" transform="translate(681.069778 301.582309)scale(0.165 -0.165)">
       <use xlink:href="#CMR17-32" transform="scale(0.996264)"/>
       <use xlink:href="#CMR17-30" transform="translate(45.690477 0)scale(0.996264)"/>
       <use xlink:href="#CMR17-31" transform="translate(91.380954 0)scale(0.996264)"/>
       <use xlink:href="#CMR17-34" transform="translate(137.071431 0)scale(0.996264)"/>
      </g>
     </g>
    </g>
    <g id="xtick_27">
     <g id="line2d_82">
      <path d="M 776.895495 277.666804 
L 776.895495 3.6 
" clip-path="url(#pcb2bed59d6)" style="fill: none; stroke: #ffffff; stroke-width: 1.5; stroke-linecap: square"/>
     </g>
     <g id="line2d_83">
      <g>
       <use xlink:href="#m7eef22460d" x="776.895495" y="277.666804" style="fill: #555555; stroke: #555555; stroke-width: 1.875"/>
      </g>
     </g>
     <g id="text_20">
      <!-- 2019 -->
      <g style="fill: #555555" transform="translate(760.799787 301.582309)scale(0.165 -0.165)">
       <use xlink:href="#CMR17-32" transform="scale(0.996264)"/>
       <use xlink:href="#CMR17-30" transform="translate(45.690477 0)scale(0.996264)"/>
       <use xlink:href="#CMR17-31" transform="translate(91.380954 0)scale(0.996264)"/>
       <use xlink:href="#CMR17-39" transform="translate(137.071431 0)scale(0.996264)"/>
      </g>
     </g>
    </g>
    <g id="xtick_28">
     <g id="line2d_84">
      <g>
       <use xlink:href="#med1219dab5" x="473.921463" y="277.666804" style="fill: #555555; stroke: #555555; stroke-width: 1.5"/>
      </g>
     </g>
    </g>
    <g id="xtick_29">
     <g id="line2d_85">
      <g>
       <use xlink:href="#med1219dab5" x="489.867465" y="277.666804" style="fill: #555555; stroke: #555555; stroke-width: 1.5"/>
      </g>
     </g>
    </g>
    <g id="xtick_30">
     <g id="line2d_86">
      <g>
       <use xlink:href="#med1219dab5" x="505.813467" y="277.666804" style="fill: #555555; stroke: #555555; stroke-width: 1.5"/>
      </g>
     </g>
    </g>
    <g id="xtick_31">
     <g id="line2d_87">
      <g>
       <use xlink:href="#med1219dab5" x="521.759468" y="277.666804" style="fill: #555555; stroke: #555555; stroke-width: 1.5"/>
      </g>
     </g>
    </g>
    <g id="xtick_32">
     <g id="line2d_88">
      <g>
       <use xlink:href="#med1219dab5" x="553.651472" y="277.666804" style="fill: #555555; stroke: #555555; stroke-width: 1.5"/>
      </g>
     </g>
    </g>
    <g id="xtick_33">
     <g id="line2d_89">
      <g>
       <use xlink:href="#med1219dab5" x="569.597473" y="277.666804" style="fill: #555555; stroke: #555555; stroke-width: 1.5"/>
      </g>
     </g>
    </g>
    <g id="xtick_34">
     <g id="line2d_90">
      <g>
       <use xlink:href="#med1219dab5" x="585.543475" y="277.666804" style="fill: #555555; stroke: #555555; stroke-width: 1.5"/>
      </g>
     </g>
    </g>
    <g id="xtick_35">
     <g id="line2d_91">
      <g>
       <use xlink:href="#med1219dab5" x="601.489477" y="277.666804" style="fill: #555555; stroke: #555555; stroke-width: 1.5"/>
      </g>
     </g>
    </g>
    <g id="xtick_36">
     <g id="line2d_92">
      <g>
       <use xlink:href="#med1219dab5" x="633.38148" y="277.666804" style="fill: #555555; stroke: #555555; stroke-width: 1.5"/>
      </g>
     </g>
    </g>
    <g id="xtick_37">
     <g id="line2d_93">
      <g>
       <use xlink:href="#med1219dab5" x="649.327482" y="277.666804" style="fill: #555555; stroke: #555555; stroke-width: 1.5"/>
      </g>
     </g>
    </g>
    <g id="xtick_38">
     <g id="line2d_94">
      <g>
       <use xlink:href="#med1219dab5" x="665.273483" y="277.666804" style="fill: #555555; stroke: #555555; stroke-width: 1.5"/>
      </g>
     </g>
    </g>
    <g id="xtick_39">
     <g id="line2d_95">
      <g>
       <use xlink:href="#med1219dab5" x="681.219485" y="277.666804" style="fill: #555555; stroke: #555555; stroke-width: 1.5"/>
      </g>
     </g>
    </g>
    <g id="xtick_40">
     <g id="line2d_96">
      <g>
       <use xlink:href="#med1219dab5" x="713.111488" y="277.666804" style="fill: #555555; stroke: #555555; stroke-width: 1.5"/>
      </g>
     </g>
    </g>
    <g id="xtick_41">
     <g id="line2d_97">
      <g>
       <use xlink:href="#med1219dab5" x="729.05749" y="277.666804" style="fill: #555555; stroke: #555555; stroke-width: 1.5"/>
      </g>
     </g>
    </g>
    <g id="xtick_42">
     <g id="line2d_98">
      <g>
       <use xlink:href="#med1219dab5" x="745.003491" y="277.666804" style="fill: #555555; stroke: #555555; stroke-width: 1.5"/>
      </g>
     </g>
    </g>
    <g id="xtick_43">
     <g id="line2d_99">
      <g>
       <use xlink:href="#med1219dab5" x="760.949493" y="277.666804" style="fill: #555555; stroke: #555555; stroke-width: 1.5"/>
      </g>
     </g>
    </g>
    <g id="xtick_44">
     <g id="line2d_100">
      <g>
       <use xlink:href="#med1219dab5" x="792.841496" y="277.666804" style="fill: #555555; stroke: #555555; stroke-width: 1.5"/>
      </g>
     </g>
    </g>
    <g id="xtick_45">
     <g id="line2d_101">
      <g>
       <use xlink:href="#med1219dab5" x="808.787498" y="277.666804" style="fill: #555555; stroke: #555555; stroke-width: 1.5"/>
      </g>
     </g>
    </g>
    <g id="xtick_46">
     <g id="line2d_102">
      <g>
       <use xlink:href="#med1219dab5" x="824.7335" y="277.666804" style="fill: #555555; stroke: #555555; stroke-width: 1.5"/>
      </g>
     </g>
    </g>
    <g id="text_21">
     <!-- Date -->
     <g style="fill: #555555" transform="translate(634.054198 321.231936)scale(0.18 -0.18)">
      <use xlink:href="#CMR17-44" transform="scale(0.996264)"/>
      <use xlink:href="#CMR17-61" transform="translate(70.393556 0)scale(0.996264)"/>
      <use xlink:href="#CMR17-74" transform="translate(116.084033 0)scale(0.996264)"/>
      <use xlink:href="#CMR17-65" transform="translate(151.364801 0)scale(0.996264)"/>
     </g>
    </g>
   </g>
   <g id="matplotlib.axis_4">
    <g id="ytick_36">
     <g id="line2d_103">
      <path d="M 473.921463 272.854793 
L 828.72 272.854793 
" clip-path="url(#pcb2bed59d6)" style="fill: none; stroke: #ffffff; stroke-width: 1.5; stroke-linecap: square"/>
     </g>
     <g id="line2d_104">
      <g>
       <use xlink:href="#maa4808a06c" x="473.921463" y="272.854793" style="fill: #555555; stroke: #555555; stroke-width: 1.875"/>
      </g>
     </g>
     <g id="text_22">
      <!-- $\mathdefault{0.0}$ -->
      <g style="fill: #555555" transform="translate(440.854729 278.562546)scale(0.165 -0.165)">
       <use xlink:href="#CMR17-30" transform="scale(0.996264)"/>
       <use xlink:href="#CMMI12-3a" transform="translate(45.690477 0)scale(0.996264)"/>
       <use xlink:href="#CMR17-30" transform="translate(72.787654 0)scale(0.996264)"/>
      </g>
     </g>
    </g>
    <g id="ytick_37">
     <g id="line2d_105">
      <path d="M 473.921463 209.353371 
L 828.72 209.353371 
" clip-path="url(#pcb2bed59d6)" style="fill: none; stroke: #ffffff; stroke-width: 1.5; stroke-linecap: square"/>
     </g>
     <g id="line2d_106">
      <g>
       <use xlink:href="#maa4808a06c" x="473.921463" y="209.353371" style="fill: #555555; stroke: #555555; stroke-width: 1.875"/>
      </g>
     </g>
     <g id="text_23">
      <!-- $\mathdefault{0.5}$ -->
      <g style="fill: #555555" transform="translate(440.854729 215.061124)scale(0.165 -0.165)">
       <use xlink:href="#CMR17-30" transform="scale(0.996264)"/>
       <use xlink:href="#CMMI12-3a" transform="translate(45.690477 0)scale(0.996264)"/>
       <use xlink:href="#CMR17-35" transform="translate(72.787654 0)scale(0.996264)"/>
      </g>
     </g>
    </g>
    <g id="ytick_38">
     <g id="line2d_107">
      <path d="M 473.921463 145.851949 
L 828.72 145.851949 
" clip-path="url(#pcb2bed59d6)" style="fill: none; stroke: #ffffff; stroke-width: 1.5; stroke-linecap: square"/>
     </g>
     <g id="line2d_108">
      <g>
       <use xlink:href="#maa4808a06c" x="473.921463" y="145.851949" style="fill: #555555; stroke: #555555; stroke-width: 1.875"/>
      </g>
     </g>
     <g id="text_24">
      <!-- $\mathdefault{1.0}$ -->
      <g style="fill: #555555" transform="translate(440.854729 151.559701)scale(0.165 -0.165)">
       <use xlink:href="#CMR17-31" transform="scale(0.996264)"/>
       <use xlink:href="#CMMI12-3a" transform="translate(45.690477 0)scale(0.996264)"/>
       <use xlink:href="#CMR17-30" transform="translate(72.787654 0)scale(0.996264)"/>
      </g>
     </g>
    </g>
    <g id="ytick_39">
     <g id="line2d_109">
      <path d="M 473.921463 82.350527 
L 828.72 82.350527 
" clip-path="url(#pcb2bed59d6)" style="fill: none; stroke: #ffffff; stroke-width: 1.5; stroke-linecap: square"/>
     </g>
     <g id="line2d_110">
      <g>
       <use xlink:href="#maa4808a06c" x="473.921463" y="82.350527" style="fill: #555555; stroke: #555555; stroke-width: 1.875"/>
      </g>
     </g>
     <g id="text_25">
      <!-- $\mathdefault{1.5}$ -->
      <g style="fill: #555555" transform="translate(440.854729 88.058279)scale(0.165 -0.165)">
       <use xlink:href="#CMR17-31" transform="scale(0.996264)"/>
       <use xlink:href="#CMMI12-3a" transform="translate(45.690477 0)scale(0.996264)"/>
       <use xlink:href="#CMR17-35" transform="translate(72.787654 0)scale(0.996264)"/>
      </g>
     </g>
    </g>
    <g id="ytick_40">
     <g id="line2d_111">
      <path d="M 473.921463 18.849105 
L 828.72 18.849105 
" clip-path="url(#pcb2bed59d6)" style="fill: none; stroke: #ffffff; stroke-width: 1.5; stroke-linecap: square"/>
     </g>
     <g id="line2d_112">
      <g>
       <use xlink:href="#maa4808a06c" x="473.921463" y="18.849105" style="fill: #555555; stroke: #555555; stroke-width: 1.875"/>
      </g>
     </g>
     <g id="text_26">
      <!-- $\mathdefault{2.0}$ -->
      <g style="fill: #555555" transform="translate(440.854729 24.556857)scale(0.165 -0.165)">
       <use xlink:href="#CMR17-32" transform="scale(0.996264)"/>
       <use xlink:href="#CMMI12-3a" transform="translate(45.690477 0)scale(0.996264)"/>
       <use xlink:href="#CMR17-30" transform="translate(72.787654 0)scale(0.996264)"/>
      </g>
     </g>
    </g>
    <g id="ytick_41">
     <g id="line2d_113">
      <g>
       <use xlink:href="#ma0d9774e30" x="473.921463" y="260.154509" style="fill: #555555; stroke: #555555; stroke-width: 1.5"/>
      </g>
     </g>
    </g>
    <g id="ytick_42">
     <g id="line2d_114">
      <g>
       <use xlink:href="#ma0d9774e30" x="473.921463" y="247.454224" style="fill: #555555; stroke: #555555; stroke-width: 1.5"/>
      </g>
     </g>
    </g>
    <g id="ytick_43">
     <g id="line2d_115">
      <g>
       <use xlink:href="#ma0d9774e30" x="473.921463" y="234.75394" style="fill: #555555; stroke: #555555; stroke-width: 1.5"/>
      </g>
     </g>
    </g>
    <g id="ytick_44">
     <g id="line2d_116">
      <g>
       <use xlink:href="#ma0d9774e30" x="473.921463" y="222.053656" style="fill: #555555; stroke: #555555; stroke-width: 1.5"/>
      </g>
     </g>
    </g>
    <g id="ytick_45">
     <g id="line2d_117">
      <g>
       <use xlink:href="#ma0d9774e30" x="473.921463" y="196.653087" style="fill: #555555; stroke: #555555; stroke-width: 1.5"/>
      </g>
     </g>
    </g>
    <g id="ytick_46">
     <g id="line2d_118">
      <g>
       <use xlink:href="#ma0d9774e30" x="473.921463" y="183.952802" style="fill: #555555; stroke: #555555; stroke-width: 1.5"/>
      </g>
     </g>
    </g>
    <g id="ytick_47">
     <g id="line2d_119">
      <g>
       <use xlink:href="#ma0d9774e30" x="473.921463" y="171.252518" style="fill: #555555; stroke: #555555; stroke-width: 1.5"/>
      </g>
     </g>
    </g>
    <g id="ytick_48">
     <g id="line2d_120">
      <g>
       <use xlink:href="#ma0d9774e30" x="473.921463" y="158.552233" style="fill: #555555; stroke: #555555; stroke-width: 1.5"/>
      </g>
     </g>
    </g>
    <g id="ytick_49">
     <g id="line2d_121">
      <g>
       <use xlink:href="#ma0d9774e30" x="473.921463" y="133.151664" style="fill: #555555; stroke: #555555; stroke-width: 1.5"/>
      </g>
     </g>
    </g>
    <g id="ytick_50">
     <g id="line2d_122">
      <g>
       <use xlink:href="#ma0d9774e30" x="473.921463" y="120.45138" style="fill: #555555; stroke: #555555; stroke-width: 1.5"/>
      </g>
     </g>
    </g>
    <g id="ytick_51">
     <g id="line2d_123">
      <g>
       <use xlink:href="#ma0d9774e30" x="473.921463" y="107.751096" style="fill: #555555; stroke: #555555; stroke-width: 1.5"/>
      </g>
     </g>
    </g>
    <g id="ytick_52">
     <g id="line2d_124">
      <g>
       <use xlink:href="#ma0d9774e30" x="473.921463" y="95.050811" style="fill: #555555; stroke: #555555; stroke-width: 1.5"/>
      </g>
     </g>
    </g>
    <g id="ytick_53">
     <g id="line2d_125">
      <g>
       <use xlink:href="#ma0d9774e30" x="473.921463" y="69.650242" style="fill: #555555; stroke: #555555; stroke-width: 1.5"/>
      </g>
     </g>
    </g>
    <g id="ytick_54">
     <g id="line2d_126">
      <g>
       <use xlink:href="#ma0d9774e30" x="473.921463" y="56.949958" style="fill: #555555; stroke: #555555; stroke-width: 1.5"/>
      </g>
     </g>
    </g>
    <g id="ytick_55">
     <g id="line2d_127">
      <g>
       <use xlink:href="#ma0d9774e30" x="473.921463" y="44.249673" style="fill: #555555; stroke: #555555; stroke-width: 1.5"/>
      </g>
     </g>
    </g>
    <g id="ytick_56">
     <g id="line2d_128">
      <g>
       <use xlink:href="#ma0d9774e30" x="473.921463" y="31.549389" style="fill: #555555; stroke: #555555; stroke-width: 1.5"/>
      </g>
     </g>
    </g>
    <g id="ytick_57">
     <g id="line2d_129">
      <g>
       <use xlink:href="#ma0d9774e30" x="473.921463" y="6.14882" style="fill: #555555; stroke: #555555; stroke-width: 1.5"/>
      </g>
     </g>
    </g>
   </g>
   <g id="line2d_130">
    <path d="M 473.921463 236.55738 
L 475.250297 238.198257 
L 476.57913 228.721305 
L 477.907964 224.50227 
L 479.236797 214.67479 
L 480.565631 206.508507 
L 481.894464 208.931722 
L 483.223298 216.396949 
L 484.552131 202.038007 
L 485.880965 189.299622 
L 487.209798 171.206797 
L 488.538632 178.03193 
L 489.867465 191.306267 
L 491.196299 197.26016 
L 492.525132 184.346511 
L 493.853966 185.428575 
L 495.182799 172.967056 
L 496.511632 186.122011 
L 497.840466 173.543649 
L 499.169299 183.439711 
L 500.498133 182.644673 
L 501.826966 159.479354 
L 503.1558 178.877769 
L 504.484633 189.614589 
L 505.813467 183.914701 
L 508.471134 199.866259 
L 509.799967 191.994622 
L 511.128801 186.51826 
L 512.457634 195.390678 
L 513.786468 201.090566 
L 515.115301 191.43327 
L 516.444135 209.145086 
L 517.772968 212.744347 
L 519.101801 222.640409 
L 520.430635 226.186328 
L 521.759468 225.39383 
L 523.088302 218.525517 
L 524.417135 223.641191 
L 525.745969 221.395781 
L 527.074802 226.232049 
L 528.403636 221.474523 
L 529.732469 205.929374 
L 531.061303 204.715227 
L 532.390136 227.844985 
L 533.71897 216.262326 
L 535.047803 213.620667 
L 536.376637 210.112848 
L 537.70547 190.56965 
L 539.034304 203.536641 
L 540.363137 208.096043 
L 541.69197 213.602886 
L 543.020804 202.863526 
L 544.349637 138.285119 
L 545.678471 176.764441 
L 547.007304 208.461811 
L 548.336138 208.718357 
L 550.993805 229.122634 
L 552.322638 222.912195 
L 553.651472 226.409853 
L 554.980305 221.601525 
L 556.309139 227.387775 
L 557.637972 208.794559 
L 558.966806 213.493664 
L 560.295639 193.798063 
L 561.624472 201.997366 
L 562.953306 203.277555 
L 564.282139 192.688058 
L 565.610973 208.019841 
L 566.939806 204.110694 
L 568.26864 195.789467 
L 569.597473 198.431127 
L 570.926307 199.03566 
L 572.25514 192.449293 
L 573.583974 189.010056 
L 574.912807 175.646816 
L 576.241641 173.279483 
L 577.570474 180.848853 
L 578.899308 179.215596 
L 580.228141 174.877179 
L 581.556975 182.936779 
L 582.885808 184.7326 
L 584.214641 193.871724 
L 585.543475 197.2627 
L 586.872308 199.983101 
L 588.201142 194.12573 
L 589.529975 190.036238 
L 590.858809 191.90318 
L 592.187642 198.545429 
L 593.516476 200.173606 
L 594.845309 203.780486 
L 596.174143 189.614589 
L 597.502976 199.282046 
L 598.83181 185.677501 
L 600.160643 182.146822 
L 601.489477 186.848467 
L 602.81831 196.691188 
L 604.147144 173.678272 
L 605.475977 172.489526 
L 606.80481 193.846324 
L 608.133644 177.018447 
L 609.462477 173.795115 
L 610.791311 200.894982 
L 612.120144 186.853547 
L 613.448978 223.641191 
L 614.777811 224.02474 
L 616.106645 208.898701 
L 617.435478 191.280866 
L 618.764312 189.845734 
L 620.093145 187.153274 
L 621.421979 177.183551 
L 622.750812 162.298817 
L 624.079646 162.984633 
L 625.408479 184.918024 
L 626.737313 152.407836 
L 628.066146 172.055176 
L 629.394979 175.062603 
L 630.723813 166.751537 
L 632.052646 174.183743 
L 633.38148 163.619647 
L 634.710313 181.123179 
L 636.039147 190.08704 
L 637.36798 178.379917 
L 638.696814 174.224384 
L 640.025647 165.765995 
L 641.354481 170.960411 
L 642.683314 174.193904 
L 644.012148 194.839486 
L 645.340981 207.778536 
L 646.669815 189.2285 
L 647.998648 196.035853 
L 649.327482 196.221277 
L 650.656315 196.741989 
L 651.985148 206.978418 
L 653.313982 212.985652 
L 654.642815 210.559898 
L 655.971649 220.760767 
L 657.300482 221.855531 
L 658.629316 234.037644 
L 659.958149 209.399092 
L 661.286983 218.256271 
L 662.615816 203.323276 
L 663.94465 200.282828 
L 665.273483 192.804901 
L 666.602317 202.721283 
L 667.93115 198.888337 
L 669.259984 200.155825 
L 670.588817 185.095828 
L 671.917651 227.565579 
L 673.246484 199.536051 
L 674.575317 210.704681 
L 675.904151 211.405737 
L 677.232984 191.318967 
L 678.561818 186.873868 
L 679.890651 200.021202 
L 681.219485 208.032542 
L 682.548318 220.811568 
L 683.877152 226.397153 
L 685.205985 213.897533 
L 686.534819 265.209222 
L 687.863652 230.974335 
L 689.192486 155.486385 
L 690.521319 180.597387 
L 691.850153 193.274811 
L 693.178986 179.507703 
L 694.50782 174.643494 
L 695.836653 196.935033 
L 697.165486 185.591139 
L 698.49432 201.075326 
L 699.823153 228.302196 
L 701.151987 225.942483 
L 702.48082 233.87762 
L 703.809654 216.955761 
L 705.138487 168.405114 
L 706.467321 85.708482 
L 707.796154 142.438112 
L 709.124988 31.676392 
L 710.453821 75.058023 
L 711.782655 141.90216 
L 713.111488 152.481497 
L 714.440322 159.73082 
L 715.769155 171.252518 
L 717.097989 186.52842 
L 718.426822 139.285902 
L 719.755655 150.164966 
L 721.084489 115.033439 
L 722.413322 130.939275 
L 723.742156 161.496159 
L 725.070989 152.799005 
L 726.399823 184.826582 
L 727.728656 202.073568 
L 729.05749 200.83148 
L 730.386323 202.098969 
L 731.715157 196.233977 
L 733.04399 182.223024 
L 734.372824 89.919896 
L 735.701657 190.760155 
L 737.030491 168.364473 
L 738.359324 155.984236 
L 739.688157 181.702312 
L 741.016991 180.853933 
L 742.345824 179.350219 
L 743.674658 180.013174 
L 745.003491 166.210505 
L 746.332325 174.442829 
L 747.661158 168.636259 
L 748.989992 162.151494 
L 750.318825 165.461188 
L 751.647659 158.529373 
L 752.976492 160.068647 
L 754.305326 157.825777 
L 755.634159 164.790613 
L 756.962993 164.064157 
L 758.291826 141.025841 
L 759.62066 144.858787 
L 760.949493 131.653031 
L 762.278326 58.600995 
L 763.60716 81.563109 
L 764.935993 75.324729 
L 766.264827 83.010942 
L 767.59366 34.340911 
L 768.922494 72.111557 
L 770.251327 93.013686 
L 771.580161 81.14908 
L 772.908994 103.814007 
L 774.237828 151.577237 
L 775.566661 154.307798 
L 776.895495 147.604588 
L 778.224328 150.980324 
L 779.553162 143.299192 
L 780.881995 129.35936 
L 782.210829 104.449022 
L 783.539662 144.731784 
L 784.868495 147.835733 
L 786.197329 159.664778 
L 787.526162 179.360379 
L 788.854996 172.801953 
L 790.183829 141.848819 
L 791.512663 149.613773 
L 792.841496 149.611233 
L 794.17033 154.678647 
L 795.499163 122.470725 
L 796.827997 165.689793 
L 798.15683 166.845519 
L 799.485664 191.385009 
L 800.814497 165.837117 
L 802.143331 169.09601 
L 803.472164 153.121592 
L 804.800998 87.011531 
L 806.129831 139.484026 
L 807.458664 141.381449 
L 808.787498 185.19743 
L 810.116331 176.533296 
L 811.445165 175.81192 
L 812.773998 151.72456 
L 814.102832 192.474693 
L 815.431665 149.547732 
L 816.760499 123.268303 
L 818.089332 131.498087 
L 819.418166 130.802112 
L 820.746999 70.996472 
L 822.075833 88.853072 
L 823.404666 59.878643 
L 824.7335 89.843695 
L 826.062333 87.577964 
L 827.391167 44.770385 
L 828.72 16.057582 
L 828.72 16.057582 
" clip-path="url(#pcb2bed59d6)" style="fill: none; stroke: #4d3c2f; stroke-width: 2.25; stroke-linecap: square"/>
   </g>
   <g id="patch_6">
    <path d="M 473.921463 277.666804 
L 473.921463 3.6 
" style="fill: none; stroke: #ffffff; stroke-width: 1.875; stroke-linejoin: miter; stroke-linecap: square"/>
   </g>
   <g id="patch_7">
    <path d="M 473.921463 277.666804 
L 828.72 277.666804 
" style="fill: none; stroke: #ffffff; stroke-width: 1.875; stroke-linejoin: miter; stroke-linecap: square"/>
   </g>
   <g id="legend_2">
    <g id="line2d_131">
     <path d="M 488.771463 24.225 
L 505.271463 24.225 
L 521.771463 24.225 
" style="fill: none; stroke: #4d3c2f; stroke-width: 2.25; stroke-linecap: square"/>
    </g>
    <g id="text_27">
     <!-- Crush Spread -->
     <g transform="translate(534.971463 30)scale(0.165 -0.165)">
      <defs>
       <path id="CMR17-43" d="M 3974 4289 
C 3974 4403 3968 4410 3930 4410 
C 3904 4410 3898 4403 3853 4327 
L 3571 3792 
C 3258 4187 2874 4416 2381 4416 
C 1286 4416 294 3456 294 2148 
C 294 826 1286 -128 2387 -128 
C 3366 -128 3974 730 3974 1461 
C 3974 1524 3974 1550 3917 1550 
C 3866 1550 3866 1531 3859 1474 
C 3808 585 3168 38 2477 38 
C 1824 38 781 495 781 2147 
C 781 3805 1843 4250 2464 4250 
C 3187 4250 3712 3628 3834 2745 
C 3846 2668 3846 2655 3904 2655 
C 3974 2655 3974 2668 3974 2783 
L 3974 4289 
z
" transform="scale(0.015625)"/>
       <path id="CMR17-72" d="M 960 1497 
C 960 2112 1222 2688 1702 2688 
C 1747 2688 1792 2682 1837 2662 
C 1837 2662 1696 2617 1696 2452 
C 1696 2298 1818 2234 1914 2234 
C 1990 2234 2131 2279 2131 2458 
C 2131 2663 1926 2790 1709 2790 
C 1222 2790 1011 2317 947 2093 
L 941 2093 
L 941 2790 
L 198 2720 
L 198 2554 
C 576 2554 634 2515 634 2208 
L 634 428 
C 634 184 608 153 198 153 
L 198 -13 
C 352 0 646 0 813 0 
C 998 0 1325 0 1498 -13 
L 1498 153 
C 1037 153 960 153 960 440 
L 960 1497 
z
" transform="scale(0.015625)"/>
       <path id="CMR17-73" d="M 1978 2697 
C 1978 2813 1971 2819 1933 2819 
C 1907 2819 1901 2813 1824 2717 
C 1805 2691 1747 2626 1728 2601 
C 1523 2819 1235 2819 1126 2819 
C 416 2819 160 2447 160 2076 
C 160 1498 813 1365 998 1325 
C 1402 1243 1542 1217 1677 1101 
C 1760 1025 1901 884 1901 654 
C 1901 384 1747 38 1158 38 
C 602 38 403 460 288 1021 
C 269 1110 269 1117 218 1117 
C 166 1117 160 1110 160 983 
L 160 63 
C 160 -51 166 -58 205 -58 
C 237 -58 243 -51 275 0 
C 314 57 410 211 448 276 
C 576 103 800 -64 1158 -64 
C 1792 -64 2131 283 2131 784 
C 2131 1112 1958 1285 1875 1362 
C 1683 1561 1459 1606 1190 1657 
C 838 1735 390 1825 390 2217 
C 390 2383 480 2737 1126 2737 
C 1811 2737 1850 2094 1862 1888 
C 1869 1856 1901 1849 1920 1849 
C 1978 1849 1978 1869 1978 1978 
L 1978 2697 
z
" transform="scale(0.015625)"/>
       <path id="CMR17-68" d="M 2656 1933 
C 2656 2259 2592 2790 1837 2790 
C 1312 2790 1056 2368 979 2157 
L 973 2157 
L 973 4396 
L 211 4326 
L 211 4160 
C 589 4160 646 4122 646 3817 
L 646 426 
C 646 184 621 153 211 153 
L 211 -13 
C 365 0 646 0 813 0 
C 979 0 1267 0 1421 -13 
L 1421 153 
C 1011 153 986 178 986 428 
L 986 1658 
C 986 2247 1344 2688 1792 2688 
C 2266 2688 2317 2266 2317 1958 
L 2317 428 
C 2317 184 2291 153 1882 153 
L 1882 -13 
C 2035 0 2317 0 2483 0 
C 2650 0 2938 0 3091 -13 
L 3091 153 
C 2682 153 2656 178 2656 428 
L 2656 1933 
z
" transform="scale(0.015625)"/>
      </defs>
      <use xlink:href="#CMR17-43" transform="scale(0.996264)"/>
      <use xlink:href="#CMR17-72" transform="translate(66.509881 0)scale(0.996264)"/>
      <use xlink:href="#CMR17-75" transform="translate(101.790648 0)scale(0.996264)"/>
      <use xlink:href="#CMR17-73" transform="translate(152.686018 0)scale(0.996264)"/>
      <use xlink:href="#CMR17-68" transform="translate(188.487356 0)scale(0.996264)"/>
      <use xlink:href="#CMR17-53" transform="translate(269.458692 0)scale(0.996264)"/>
      <use xlink:href="#CMR17-70" transform="translate(320.354062 0)scale(0.996264)"/>
      <use xlink:href="#CMR17-72" transform="translate(371.249431 0)scale(0.996264)"/>
      <use xlink:href="#CMR17-65" transform="translate(406.530199 0)scale(0.996264)"/>
      <use xlink:href="#CMR17-61" transform="translate(447.01586 0)scale(0.996264)"/>
      <use xlink:href="#CMR17-64" transform="translate(492.706337 0)scale(0.996264)"/>
     </g>
    </g>
   </g>
  </g>
 </g>
 <defs>
  <clipPath id="p6dd9fba89d">
   <rect x="66.616192" y="3.6" width="354.798537" height="274.066804"/>
  </clipPath>
  <clipPath id="pcb2bed59d6">
   <rect x="473.921463" y="3.6" width="354.798537" height="274.066804"/>
  </clipPath>
 </defs>
</svg>
