<svg class="main-svg" xmlns="http://www.w3.org/2000/svg" xmlns:xlink="http://www.w3.org/1999/xlink" width="1500" height="1500" style="" viewBox="0 0 500 500"><rect x="0" y="0" width="500" height="500" style="fill: rgb(255, 255, 255); fill-opacity: 1;"/><defs id="defs-00b6a8"><g class="clips"><clipPath id="clip00b6a8xyplot" class="plotclip"><rect width="364" height="437"/></clipPath><clipPath class="axesclip" id="clip00b6a8x"><rect x="26" y="0" width="364" height="500"/></clipPath><clipPath class="axesclip" id="clip00b6a8y"><rect x="0" y="40" width="500" height="437"/></clipPath><clipPath class="axesclip" id="clip00b6a8xy"><rect x="26" y="40" width="364" height="437"/></clipPath><clipPath class="contourclip" id="clipa302c0"><path d="M0,0L364,0L364,437L0,437Z"/></clipPath></g><g class="gradients"/><g class="patterns"/></defs><g class="bglayer"><rect class="bg" x="26" y="40" width="364" height="437" style="fill: rgb(237, 237, 237); fill-opacity: 1; stroke-width: 0;"/></g><g class="layer-below"><g class="imagelayer"/><g class="shapelayer"/></g><g class="cartesianlayer"><g class="subplot xy"><g class="layer-subplot"><g class="shapelayer"/><g class="imagelayer"/></g><g class="gridlayer"><g class="x"><path class="xgrid crisp" transform="translate(84.61,0)" d="M0,40v437" style="stroke: rgb(255, 255, 255); stroke-opacity: 1; stroke-width: 1px;"/><path class="xgrid crisp" transform="translate(331.39,0)" d="M0,40v437" style="stroke: rgb(255, 255, 255); stroke-opacity: 1; stroke-width: 1px;"/></g><g class="y"><path class="ygrid crisp" transform="translate(0,406.64)" d="M26,0h364" style="stroke: rgb(255, 255, 255); stroke-opacity: 1; stroke-width: 1px;"/><path class="ygrid crisp" transform="translate(0,332.57)" d="M26,0h364" style="stroke: rgb(255, 255, 255); stroke-opacity: 1; stroke-width: 1px;"/><path class="ygrid crisp" transform="translate(0,184.43)" d="M26,0h364" style="stroke: rgb(255, 255, 255); stroke-opacity: 1; stroke-width: 1px;"/><path class="ygrid crisp" transform="translate(0,110.36)" d="M26,0h364" style="stroke: rgb(255, 255, 255); stroke-opacity: 1; stroke-width: 1px;"/></g></g><g class="zerolinelayer"><path class="xzl zl crisp" transform="translate(208,0)" d="M0,40v437" style="stroke: rgb(255, 255, 255); stroke-opacity: 1; stroke-width: 1px;"/><path class="yzl zl crisp" transform="translate(0,258.5)" d="M26,0h364" style="stroke: rgb(255, 255, 255); stroke-opacity: 1; stroke-width: 1px;"/></g><path class="xlines-below"/><path class="ylines-below"/><g class="overlines-below"/><g class="xaxislayer-below"/><g class="yaxislayer-below"/><g class="overaxes-below"/><g class="plot" transform="translate(26,40)" clip-path="url(#clip00b6a8xyplot)"><g class="contourlayer mlayer"><g class="contour" clip-path="url(#clipa302c0)" style="opacity: 1;"><g class="heatmapcoloring"/><g class="contourbg"/><g class="contourfill"/><g class="contourlines"><g class="contourlevel"><path class="openline" d="M364,368.57Q363.13,369.97 362.6,370.79C361.94,371.81 360.85,373.41 360.32,374.21C360.04,374.64 359.97,374.75 359.67,375.2C359.03,376.15 357.66,378.15 356.65,379.62C355.64,381.09 354.25,383.12 353.61,384.03C353.32,384.44 353.25,384.52 352.97,384.92C352.41,385.7 351.13,387.5 350.45,388.44C349.99,389.07 349.73,389.41 349.29,390.01C348.69,390.82 347.83,391.99 347.18,392.86C346.62,393.6 346.16,394.2 345.62,394.9C345.03,395.66 344.39,396.48 343.78,397.27C343.17,398.05 342.54,398.85 341.94,399.6C341.37,400.32 340.85,400.97 340.27,401.69C339.63,402.48 338.9,403.37 338.26,404.14C337.69,404.83 337.21,405.41 336.63,406.1C335.99,406.86 335.25,407.74 334.59,408.51C333.99,409.21 333.45,409.84 332.85,410.52C332.22,411.24 331.56,412 330.91,412.73C330.26,413.47 329.57,414.23 328.93,414.93C328.34,415.58 327.85,416.13 327.23,416.8C326.51,417.58 325.53,418.62 324.86,419.34C324.36,419.87 324.08,420.18 323.56,420.73C322.78,421.55 321.28,423.09 320.62,423.76C320.29,424.1 320.22,424.17 319.88,424.52C319.12,425.28 317.43,426.95 316.2,428.17C314.98,429.38 313.32,431.05 312.53,431.81C312.16,432.17 312.06,432.25 311.7,432.59C311.03,433.22 309.7,434.52 308.85,435.32Q308.17,435.95 307,437" style="stroke-miterlimit: 1; vector-effect: non-scaling-stroke; fill: none; stroke: rgb(34, 30, 27); stroke-opacity: 1; stroke-width: 2px;"/><path class="openline" d="M0,68.43Q0.87,67.03 1.4,66.21C2.06,65.19 3.15,63.59 3.68,62.79C3.96,62.36 4.03,62.25 4.33,61.8C4.97,60.85 6.34,58.85 7.35,57.38C8.36,55.91 9.75,53.88 10.39,52.97C10.68,52.56 10.75,52.48 11.03,52.08C11.59,51.3 12.87,49.5 13.55,48.56C14.01,47.93 14.27,47.59 14.71,46.99C15.31,46.18 16.17,45.01 16.82,44.14C17.38,43.4 17.84,42.8 18.38,42.1C18.97,41.34 19.61,40.52 20.22,39.73C20.83,38.95 21.46,38.15 22.06,37.4C22.63,36.68 23.15,36.03 23.73,35.31C24.37,34.52 25.1,33.63 25.74,32.86C26.31,32.17 26.79,31.59 27.37,30.9C28.01,30.14 28.75,29.26 29.41,28.49C30.01,27.79 30.55,27.16 31.15,26.48C31.78,25.76 32.44,25 33.09,24.27C33.74,23.53 34.43,22.77 35.07,22.07C35.66,21.42 36.15,20.87 36.77,20.2C37.49,19.42 38.47,18.38 39.14,17.66C39.64,17.13 39.92,16.82 40.44,16.27C41.22,15.45 42.72,13.91 43.38,13.24C43.71,12.9 43.78,12.83 44.12,12.48C44.88,11.72 46.57,10.05 47.8,8.83C49.02,7.62 50.68,5.95 51.47,5.19C51.84,4.83 51.94,4.75 52.3,4.41C52.97,3.78 54.3,2.48 55.15,1.68Q55.83,1.05 57,0" style="stroke-miterlimit: 1; vector-effect: non-scaling-stroke; fill: none; stroke: rgb(34, 30, 27); stroke-opacity: 1; stroke-width: 2px;"/></g><g class="contourlevel"><path class="closedline" d="M95.46,379.68C94.25,379.18 93.1,378.7 91.92,378.12C90.69,377.52 89.2,376.7 88.24,376.15C87.61,375.79 87.26,375.54 86.7,375.2C86.05,374.8 85.37,374.42 84.57,373.9C83.5,373.2 81.62,371.85 80.89,371.31C80.57,371.08 80.52,371.03 80.22,370.79C79.58,370.29 78.13,369.19 77.21,368.41C76.38,367.72 75.59,366.97 74.92,366.37C74.4,365.9 74.09,365.63 73.54,365.11C72.7,364.3 71.01,362.59 70.4,361.96C70.14,361.7 70.12,361.67 69.86,361.39C69.19,360.66 67.46,358.75 66.32,357.38C65.17,356 63.58,353.93 62.98,353.13C62.75,352.82 62.73,352.79 62.51,352.48C61.99,351.75 60.55,349.73 59.88,348.72C59.44,348.06 59.22,347.68 58.83,347.05C58.33,346.25 57.71,345.29 57.13,344.3C56.48,343.19 55.57,341.46 55.15,340.69C54.95,340.33 54.91,340.27 54.72,339.89C54.27,339.01 53.14,336.75 52.56,335.47C52.12,334.51 51.8,333.69 51.47,332.91C51.19,332.24 50.98,331.81 50.68,331.06C50.22,329.91 49.53,328.11 49.04,326.65C48.56,325.23 48.16,323.84 47.745,322.395C47.32,320.9 46.87,319.34 46.51,317.82C46.16,316.34 45.86,314.88 45.59,313.4C45.32,311.93 45.09,310.46 44.9,308.99C44.71,307.52 44.57,306.05 44.45,304.58C44.34,303.11 44.26,301.63 44.21,300.16C44.16,298.69 44.15,297.22 44.17,295.75C44.19,294.28 44.25,292.8 44.34,291.33C44.43,289.86 44.56,288.39 44.72,286.92C44.88,285.45 45.08,283.98 45.31,282.51C45.55,281.03 45.82,279.56 46.13,278.09C46.44,276.62 46.86,274.88 47.18,273.68C47.4,272.85 47.6,272.29 47.8,271.57C48.01,270.82 48.17,270.15 48.43,269.26C48.8,268.02 49.34,266.3 49.85,264.85C50.36,263.4 50.93,261.99 51.51,260.53999999999996C52.1,259.05 52.74,257.45 53.37,256.02C53.95,254.7 54.81,253.01 55.15,252.27C55.29,251.96 55.3,251.93 55.45,251.61C55.84,250.79 57.05,248.38 57.68,247.19C58.12,246.37 58.44,245.84 58.83,245.13C59.25,244.37 59.6,243.67 60.11,242.78C60.8,241.58 61.76,240.01 62.635,238.58C63.56,237.07 64.9,234.92 65.53,233.95C65.82,233.5 65.9,233.4 66.18,232.98C66.71,232.18 67.8,230.52 68.47,229.54C68.99,228.79 69.37,228.26 69.86,227.57C70.4,226.8 70.97,225.95 71.57,225.12C72.2,224.25 72.95,223.25 73.54,222.46C74.01,221.82 74.32,221.37 74.82,220.71C75.49,219.82 76.59,218.41 77.21,217.59C77.61,217.06 77.79,216.82 78.2,216.29C78.87,215.42 80.25,213.7 80.89,212.9C81.24,212.46 81.35,212.32 81.7,211.88C82.36,211.06 83.93,209.14 84.57,208.35C84.89,207.96 84.97,207.85 85.29,207.46C85.94,206.67 87.59,204.68 88.24,203.9C88.56,203.52 88.63,203.43 88.95,203.05C89.6,202.28 91.25,200.33 91.92,199.54C92.26,199.14 92.34,199.04 92.68,198.64C93.34,197.87 94.92,196.03 95.6,195.23C95.97,194.79 96.09,194.65 96.46,194.22C97.13,193.44 98.57,191.77 99.27,190.96C99.69,190.48 99.86,190.29 100.27,189.81C100.95,189.03 102.24,187.54 102.95,186.72C103.41,186.18 103.64,185.92 104.1,185.39C104.78,184.61 105.93,183.29 106.63,182.48C107.14,181.9 107.43,181.55 107.93,180.98C108.6,180.2 109.61,179.04 110.3,178.24C110.84,177.61 111.22,177.19 111.75,176.57C112.41,175.8 113.3,174.78 113.98,173.99C114.55,173.33 115,172.81 115.56,172.15C116.21,171.39 117,170.48 117.66,169.71C118.25,169.02 118.77,168.42 119.35,167.74C119.98,167 120.69,166.17 121.33,165.41C121.94,164.69 122.51,164.03 123.11,163.32C123.73,162.58 124.38,161.81 125.01,161.07C125.62,160.34 126.22,159.64 126.83,158.91C127.45,158.18 128.07,157.43 128.69,156.69C129.3,155.96 129.9,155.23 130.51,154.49C131.12,153.75 131.75,153 132.36,152.26C132.96,151.53 133.55,150.82 134.16,150.08C134.78,149.33 135.43,148.54 136.04,147.79C136.63,147.07 137.18,146.4 137.78,145.67C138.41,144.9 139.1,144.05 139.72,143.29C140.29,142.58 140.78,141.96 141.36,141.25C142,140.46 142.76,139.52 143.39,138.74C143.94,138.06 144.37,137.53 144.92,136.84C145.58,136.03 146.43,134.97 147.07,134.17C147.59,133.53 147.95,133.07 148.47,132.42C149.14,131.59 150.1,130.38 150.75,129.57C151.23,128.97 151.52,128.62 152,128.01C152.68,127.16 153.77,125.78 154.42,124.97C154.86,124.42 155.08,124.15 155.52,123.6C156.2,122.75 157.45,121.19 158.1,120.38C158.5,119.88 158.66,119.68 159.06,119.18C159.74,118.34 161.13,116.6 161.78,115.8C162.14,115.36 162.26,115.22 162.62,114.77C163.29,113.95 164.8,112.06 165.45,111.27C165.78,110.86 165.87,110.76 166.21,110.35C166.87,109.55 168.49,107.57 169.13,106.79C169.45,106.41 169.52,106.32 169.84,105.94C170.49,105.16 172.15,103.17 172.81,102.39C173.14,102 173.22,101.91 173.55,101.53C174.2,100.76 175.79,98.87 176.48,98.08C176.85,97.65 176.97,97.53 177.34,97.11C178.01,96.35 179.44,94.7 180.16,93.89C180.6,93.39 180.8,93.18 181.24,92.7C181.92,91.95 183.09,90.64 183.84,89.83C184.39,89.23 184.76,88.85 185.3,88.28C185.96,87.58 186.79,86.67 187.52,85.92C188.21,85.21 188.91,84.52 189.55,83.87C190.13,83.29 190.56,82.82 191.19,82.2C192.01,81.39 193.4,80.08 194.06,79.45C194.41,79.11 194.5,79.03 194.87,78.68C195.67,77.93 197.47,76.31 198.72500000000002,75.19C199.91,74.14 201.21,72.99 202.22,72.16C202.96,71.55 203.55,71.13 204.18,70.63C204.77,70.16 205.21,69.77 205.9,69.24C206.89,68.48 208.89,67.06 209.58,66.58C209.84,66.4 209.87,66.39 210.13,66.21C210.75,65.79 212.15,64.77 213.25,64.07C214.44,63.32 215.77,62.56 217.02,61.845C218.23,61.15 219.4,60.47 220.61,59.85C221.82,59.24 223.25,58.58 224.28,58.14C225.02,57.82 225.58,57.63 226.21,57.38C226.81,57.14 227.26,56.91 227.96,56.65C228.96,56.27 230.41,55.76 231.64,55.38C232.86,55.01 234.08,54.68 235.31,54.4C236.53,54.12 237.76,53.88 238.99,53.69C240.21,53.5 241.44,53.35 242.67,53.24C243.89,53.13 245.12,53.06 246.34,53.03C247.57,53 248.79,53.02 250.02,53.07C251.25,53.12 252.48,53.22 253.7,53.36C254.93,53.5 256.15,53.68 257.37,53.91C258.6,54.14 259.83,54.41 261.05,54.73C262.28,55.05 263.5,55.42 264.73,55.84C266,56.28 267.3,56.81 268.53999999999996,57.32C269.75,57.82 270.9,58.3 272.08,58.88C273.31,59.48 274.8,60.3 275.76,60.85C276.39,61.21 276.74,61.46 277.3,61.8C277.95,62.2 278.63,62.58 279.43,63.1C280.5,63.8 282.38,65.15 283.11,65.69C283.43,65.92 283.48,65.97 283.78,66.21C284.42,66.71 285.87,67.81 286.79,68.59C287.62,69.28 288.41,70.03 289.08,70.63C289.6,71.1 289.91,71.37 290.46,71.89C291.3,72.7 292.99,74.41 293.6,75.04C293.86,75.3 293.88,75.33 294.14,75.61C294.81,76.34 296.54,78.25 297.68,79.62C298.83,81 300.42,83.07 301.02,83.87C301.25,84.18 301.27,84.21 301.49,84.52C302.01,85.25 303.45,87.27 304.12,88.28C304.56,88.94 304.78,89.32 305.17,89.95C305.67,90.75 306.29,91.71 306.87,92.7C307.52,93.81 308.43,95.54 308.85,96.31C309.05,96.67 309.09,96.73 309.28,97.11C309.73,97.99 310.86,100.25 311.44,101.53C311.88,102.49 312.2,103.31 312.53,104.09C312.81,104.76 313.02,105.19 313.32,105.94C313.78,107.09 314.47,108.89 314.96,110.35C315.44,111.77 315.84,113.16 316.255,114.60499999999999C316.68,116.1 317.13,117.66 317.49,119.18C317.84,120.66 318.14,122.12 318.41,123.6C318.68,125.07 318.91,126.54 319.1,128.01C319.29,129.48 319.43,130.95 319.55,132.42C319.66,133.89 319.74,135.37 319.79,136.84C319.84,138.31 319.85,139.78 319.83,141.25C319.81,142.72 319.75,144.2 319.66,145.67C319.57,147.14 319.44,148.61 319.28,150.08C319.12,151.55 318.92,153.02 318.69,154.49C318.45,155.97 318.18,157.44 317.87,158.91C317.56,160.38 317.14,162.12 316.82,163.32C316.6,164.15 316.4,164.71 316.2,165.43C315.99,166.18 315.83,166.85 315.57,167.74C315.2,168.98 314.66,170.7 314.15,172.15C313.64,173.6 313.07,175.01 312.49,176.45999999999998C311.9,177.95 311.26,179.55 310.63,180.98C310.05,182.3 309.19,183.99 308.85,184.73C308.71,185.04 308.7,185.07 308.55,185.39C308.16,186.21 306.95,188.62 306.32,189.81C305.88,190.63 305.56,191.16 305.17,191.87C304.75,192.63 304.4,193.33 303.89,194.22C303.2,195.42 302.24,196.99 301.365,198.42C300.44,199.93 299.1,202.08 298.47,203.05C298.18,203.5 298.1,203.6 297.82,204.02C297.29,204.82 296.2,206.48 295.53,207.46C295.01,208.21 294.63,208.74 294.14,209.43C293.6,210.2 293.03,211.05 292.43,211.88C291.8,212.75 291.05,213.75 290.46,214.54C289.99,215.18 289.68,215.63 289.18,216.29C288.51,217.18 287.41,218.59 286.79,219.41C286.39,219.94 286.21,220.18 285.8,220.71C285.13,221.58 283.75,223.3 283.11,224.1C282.76,224.54 282.65,224.68 282.3,225.12C281.64,225.94 280.07,227.86 279.43,228.65C279.11,229.04 279.03,229.15 278.71,229.54C278.06,230.33 276.41,232.32 275.76,233.1C275.44,233.48 275.37,233.57 275.05,233.95C274.4,234.72 272.75,236.67 272.08,237.46C271.74,237.86 271.66,237.96 271.32,238.36C270.66,239.13 269.08,240.97 268.4,241.77C268.03,242.21 267.91,242.35 267.54,242.78C266.87,243.56 265.43,245.23 264.73,246.04C264.31,246.52 264.14,246.71 263.73,247.19C263.05,247.97 261.76,249.46 261.05,250.28C260.59,250.82 260.36,251.08 259.9,251.61C259.22,252.39 258.07,253.71 257.37,254.52C256.86,255.1 256.57,255.45 256.07,256.02C255.4,256.8 254.39,257.96 253.7,258.76C253.16,259.39 252.78,259.81 252.25,260.43C251.59,261.2 250.7,262.22 250.02,263.01C249.45,263.67 249,264.19 248.44,264.85C247.79,265.61 247,266.52 246.34,267.29C245.75,267.98 245.23,268.58 244.65,269.26C244.02,270 243.31,270.83 242.67,271.59C242.06,272.31 241.49,272.97 240.89,273.68C240.27,274.42 239.62,275.19 238.99,275.93C238.38,276.66 237.78,277.36 237.17,278.09C236.55,278.82 235.93,279.57 235.31,280.31C234.7,281.04 234.1,281.77 233.49,282.51C232.88,283.25 232.25,284 231.64,284.74C231.04,285.47 230.45,286.18 229.84,286.92C229.22,287.67 228.57,288.46 227.96,289.21C227.37,289.93 226.82,290.6 226.22,291.33C225.59,292.1 224.9,292.95 224.28,293.71C223.71,294.42 223.22,295.04 222.64,295.75C222,296.54 221.24,297.48 220.61,298.26C220.06,298.94 219.63,299.47 219.08,300.16C218.42,300.97 217.57,302.03 216.93,302.83C216.41,303.47 216.05,303.93 215.53,304.58C214.86,305.41 213.9,306.62 213.25,307.43C212.77,308.03 212.48,308.38 212,308.99C211.32,309.84 210.23,311.22 209.58,312.03C209.14,312.58 208.92,312.85 208.48,313.4C207.8,314.25 206.55,315.81 205.9,316.62C205.5,317.12 205.34,317.32 204.94,317.82C204.26,318.66 202.87,320.4 202.22,321.2C201.86,321.64 201.74,321.78 201.38,322.23C200.71,323.05 199.2,324.94 198.55,325.73C198.22,326.14 198.13,326.24 197.79,326.65C197.13,327.45 195.51,329.43 194.87,330.21C194.55,330.59 194.48,330.68 194.16,331.06C193.51,331.84 191.85,333.83 191.19,334.61C190.86,335 190.78,335.09 190.45,335.47C189.8,336.24 188.21,338.13 187.52,338.92C187.15,339.35 187.03,339.47 186.66,339.89C185.99,340.65 184.56,342.3 183.84,343.11C183.4,343.61 183.2,343.82 182.76,344.3C182.08,345.05 180.91,346.36 180.16,347.17C179.61,347.77 179.24,348.15 178.7,348.72C178.04,349.42 177.21,350.33 176.48,351.08C175.79,351.79 175.09,352.48 174.45,353.13C173.87,353.71 173.44,354.18 172.81,354.8C171.99,355.61 170.6,356.92 169.94,357.55C169.59,357.89 169.5,357.97 169.13,358.32C168.33,359.07 166.53,360.69 165.27499999999998,361.81C164.09,362.86 162.79,364.01 161.78,364.84C161.04,365.45 160.45,365.87 159.82,366.37C159.23,366.84 158.79,367.23 158.1,367.76C157.11,368.52 155.11,369.94 154.42,370.42C154.16,370.6 154.13,370.61 153.87,370.79C153.25,371.21 151.85,372.23 150.75,372.93C149.56,373.68 148.23,374.44 146.98,375.155C145.77,375.85 144.6,376.53 143.39,377.15C142.18,377.76 140.75,378.42 139.72,378.86C138.98,379.18 138.42,379.37 137.79,379.62C137.19,379.86 136.74,380.09 136.04,380.35C135.04,380.73 133.59,381.24 132.36,381.62C131.14,381.99 129.92,382.32 128.69,382.6C127.47,382.88 126.24,383.12 125.01,383.31C123.79,383.5 122.56,383.65 121.33,383.76C120.11,383.87 118.88,383.94 117.66,383.97C116.43,384 115.21,383.98 113.98,383.93C112.75,383.88 111.52,383.78 110.3,383.64C109.07,383.5 107.85,383.32 106.63,383.09C105.4,382.86 104.17,382.59 102.95,382.27C101.72,381.95 100.5,381.58 99.27,381.16C98,380.72 96.7,380.19 95.46,379.68Z" style="stroke-miterlimit: 1; vector-effect: non-scaling-stroke; fill: none; stroke: rgb(59, 46, 38); stroke-opacity: 1; stroke-width: 2px;"/></g><g class="contourlevel"><path class="closedline" d="M110.3,358.32C109.23,358.1 107.87,357.71 107.24,357.55C106.96,357.48 106.92,357.48 106.63,357.39C105.92,357.18 104.17,356.64 102.95,356.17C101.71,355.69 100.38,355.1 99.27,354.55C98.32,354.08 97.36,353.5 96.68,353.13C96.24,352.89 96.06,352.82 95.6,352.54C94.73,352.02 92.92,350.84 91.92,350.13C91.19,349.61 90.7,349.2 90.09,348.72C89.47,348.24 88.93,347.83 88.24,347.24C87.31,346.44 85.67,344.87 85.07,344.3C84.83,344.07 84.81,344.06 84.57,343.81C83.91,343.12 82.1,341.2 80.95,339.815C79.79,338.42 78.21,336.26 77.63,335.47C77.42,335.18 77.4,335.16 77.21,334.87C76.73,334.15 75.43,332.17 74.77,331.06C74.27,330.23 73.94,329.58 73.54,328.84C73.14,328.11 72.79,327.52 72.36,326.65C71.76,325.44 70.78,323.27 70.35,322.23C70.12,321.67 70.06,321.46 69.86,320.93C69.55,320.12 69.07,318.95 68.68,317.82C68.22,316.48 67.73,314.88 67.33,313.4C66.94,311.94 66.48,309.85 66.31,308.99C66.24,308.64 66.24,308.59 66.18,308.25C66.05,307.49 65.71,305.86 65.53,304.58C65.33,303.18 65.16,301.63 65.04,300.16C64.92,298.69 64.85,297.22 64.82,295.75C64.79,294.28 64.8,292.8 64.86,291.33C64.92,289.86 65.01,288.39 65.15,286.92C65.29,285.45 65.51,283.78 65.71,282.51C65.86,281.53 66.04,280.72 66.18,279.93C66.3,279.27 66.35,278.83 66.5,278.09C66.73,276.93 67.12,275.15 67.49,273.68C67.87,272.2 68.32,270.61 68.75,269.26C69.12,268.1 69.59,266.86 69.86,266.05C70.03,265.55 70.07,265.37 70.25,264.85C70.61,263.84 71.36,261.82 71.93,260.43C72.45,259.16 73.2,257.6 73.54,256.83C73.7,256.46 73.71,256.4 73.88,256.02C74.28,255.14 75.37,252.83 75.99,251.61C76.44,250.72 76.82,250.08 77.21,249.33C77.59,248.61 77.86,248.02 78.32,247.19C78.99,245.98 80.02,244.24 80.88499999999999,242.775C81.76,241.3 82.86,239.45 83.55,238.36C83.96,237.71 84.18,237.41 84.57,236.82C85.1,236.01 85.79,234.88 86.41,233.95C87.01,233.04 87.7,232.09 88.24,231.3C88.68,230.65 88.96,230.22 89.44,229.54C90.11,228.58 91.35,226.9 91.92,226.1C92.23,225.67 92.3,225.56 92.62,225.12C93.29,224.21 94.68,222.35 95.75999999999999,220.925C96.9,219.42 98.11,217.85 99.3,216.32999999999998C100.49,214.81 101.68,213.3 102.88,211.79500000000002C104.08,210.29 105.29,208.8 106.5,207.305C107.71,205.82 108.93,204.34 110.145,202.86C111.36,201.38 112.59,199.91 113.815,198.445C115.04,196.97 116.27,195.51 117.505,194.04000000000002C118.73,192.57 119.96,191.11 121.195,189.65C122.43,188.19 123.66,186.72 124.89500000000001,185.26C126.13,183.8 127.37,182.33 128.6,180.87C129.83,179.41 131.06,177.94 132.29000000000002,176.48C133.52,175.01 134.75,173.55 135.98,172.07999999999998C137.21,170.61 138.44,169.14 139.66500000000002,167.67000000000002C140.89,166.2 142.11,164.72 143.32999999999998,163.25C144.55,161.78 145.78,160.3 147,158.825C148.22,157.35 149.44,155.87 150.66,154.385C151.88,152.91 153.09,151.42 154.31,149.945C155.53,148.46 156.75,146.98 157.965,145.505C159.18,144.02 160.4,142.54 161.625,141.065C162.85,139.59 164.06,138.11 165.29,136.64C166.51,135.17 167.74,133.7 168.975,132.235C170.21,130.77 171.44,129.31 172.68,127.85499999999999C173.92,126.4 175.16,124.95 176.41,123.515C177.66,122.07 178.92,120.64 180.19,119.215C181.46,117.79 182.77,116.34 184.01999999999998,114.965C185.21,113.67 186.76,111.99 187.52,111.19C187.88,110.81 187.98,110.72 188.33,110.35C188.99,109.66 190.39,108.19 191.19,107.38C191.76,106.81 192.12,106.47 192.66,105.94C193.32,105.29 194.11,104.47 194.87,103.74C195.64,103 196.59,102.16 197.26,101.53C197.76,101.06 198,100.8 198.55,100.3C199.45,99.48 200.99,98.15 202.215,97.10499999999999C203.44,96.06 204.88,94.83 205.9,94.03C206.59,93.48 207.08,93.16 207.68,92.7C208.3,92.22 208.83,91.77 209.58,91.23C210.6,90.49 212.51,89.18 213.25,88.7C213.56,88.5 213.62,88.47 213.93,88.28C214.58,87.87 215.87,86.99 216.93,86.36C218.08,85.68 219.76,84.77 220.61,84.34C221.04,84.12 221.2,84.07 221.61,83.87C222.29,83.54 223.31,82.98 224.28,82.54C225.4,82.03 226.72,81.48 227.96,81.03C229.18,80.58 230.67,80.11 231.64,79.83C232.26,79.65 232.62,79.59 233.17,79.45C233.82,79.28 234.5,79.07 235.31,78.89C236.37,78.66 237.76,78.39 238.99,78.22C240.21,78.05 241.44,77.94 242.67,77.87C243.89,77.8 245.12,77.79 246.34,77.82C247.57,77.85 248.8,77.94 250.02,78.08C251.25,78.22 252.53,78.44 253.7,78.68C254.77,78.9 256.13,79.29 256.76,79.45C257.04,79.52 257.08,79.52 257.37,79.61C258.08,79.82 259.83,80.36 261.05,80.83C262.29,81.31 263.62,81.9 264.73,82.45C265.68,82.92 266.64,83.5 267.32,83.87C267.76,84.11 267.94,84.18 268.4,84.46C269.27,84.98 271.08,86.16 272.08,86.87C272.81,87.39 273.3,87.8 273.91,88.28C274.53,88.76 275.07,89.17 275.76,89.76C276.69,90.56 278.33,92.13 278.93,92.7C279.17,92.93 279.19,92.94 279.43,93.19C280.09,93.88 281.9,95.8 283.05,97.185C284.21,98.58 285.79,100.74 286.37,101.53C286.58,101.82 286.6,101.84 286.79,102.13C287.27,102.85 288.57,104.83 289.23,105.94C289.73,106.77 290.06,107.42 290.46,108.16C290.86,108.89 291.21,109.48 291.64,110.35C292.24,111.56 293.22,113.73 293.65,114.77C293.88,115.33 293.94,115.54 294.14,116.07C294.45,116.88 294.93,118.05 295.32,119.18C295.78,120.52 296.27,122.12 296.67,123.6C297.06,125.06 297.52,127.15 297.69,128.01C297.76,128.36 297.76,128.41 297.82,128.75C297.95,129.51 298.29,131.14 298.47,132.42C298.67,133.82 298.84,135.37 298.96,136.84C299.08,138.31 299.15,139.78 299.18,141.25C299.21,142.72 299.2,144.2 299.14,145.67C299.08,147.14 298.99,148.61 298.85,150.08C298.71,151.55 298.49,153.22 298.29,154.49C298.14,155.47 297.96,156.28 297.82,157.07C297.7,157.73 297.65,158.17 297.5,158.91C297.27,160.07 296.88,161.85 296.51,163.32C296.13,164.8 295.68,166.39 295.25,167.74C294.88,168.9 294.41,170.14 294.14,170.95C293.97,171.45 293.93,171.63 293.75,172.15C293.39,173.16 292.64,175.18 292.07,176.57C291.55,177.84 290.8,179.4 290.46,180.17C290.3,180.54 290.29,180.6 290.12,180.98C289.72,181.86 288.63,184.17 288.01,185.39C287.56,186.28 287.18,186.92 286.79,187.67C286.41,188.39 286.14,188.98 285.68,189.81C285.01,191.02 283.99,192.75 283.12,194.22C282.25,195.7 281.14,197.55 280.45,198.64C280.04,199.29 279.82,199.59 279.43,200.18C278.9,200.99 278.21,202.12 277.59,203.05C276.99,203.96 276.3,204.91 275.76,205.7C275.32,206.35 275.04,206.78 274.56,207.46C273.89,208.42 272.65,210.1 272.08,210.9C271.77,211.33 271.7,211.44 271.38,211.88C270.71,212.79 269.32,214.65 268.24,216.075C267.1,217.58 265.89,219.15 264.70000000000005,220.67000000000002C263.51,222.19 262.32,223.7 261.12,225.20499999999998C259.92,226.71 258.71,228.2 257.5,229.695C256.29,231.18 255.07,232.66 253.855,234.14C252.64,235.62 251.41,237.09 250.185,238.555C248.96,240.03 247.73,241.49 246.495,242.95999999999998C245.27,244.43 244.04,245.89 242.805,247.35C241.57,248.81 240.34,250.28 239.10500000000002,251.74C237.87,253.2 236.63,254.67 235.4,256.13C234.17,257.59 232.94,259.06 231.70999999999998,260.52C230.48,261.99 229.25,263.45 228.02,264.92C226.79,266.39 225.56,267.86 224.33499999999998,269.33C223.11,270.8 221.89,272.28 220.67000000000002,273.75C219.45,275.22 218.22,276.7 217,278.17499999999995C215.78,279.65 214.56,281.13 213.34,282.615C212.12,284.09 210.91,285.58 209.69,287.055C208.47,288.54 207.25,290.02 206.035,291.495C204.82,292.98 203.6,294.46 202.375,295.935C201.15,297.41 199.94,298.89 198.71,300.36C197.49,301.83 196.26,303.3 195.025,304.765C193.79,306.23 192.56,307.69 191.32,309.145C190.08,310.6 188.84,312.05 187.59,313.485C186.34,314.93 185.08,316.36 183.81,317.78499999999997C182.54,319.21 181.23,320.66 179.98000000000002,322.03499999999997C178.79,323.33 177.24,325.01 176.48,325.81C176.12,326.19 176.02,326.28 175.67,326.65C175.01,327.34 173.61,328.81 172.81,329.62C172.24,330.19 171.88,330.53 171.34,331.06C170.68,331.71 169.89,332.53 169.13,333.26C168.36,334 167.41,334.84 166.74,335.47C166.24,335.94 166,336.2 165.45,336.7C164.55,337.52 163.02,338.84 161.79,339.89C160.57,340.93 159.12,342.17 158.1,342.97C157.41,343.52 156.92,343.84 156.32,344.3C155.7,344.78 155.17,345.23 154.42,345.77C153.4,346.51 151.49,347.82 150.75,348.3C150.44,348.5 150.38,348.53 150.07,348.72C149.42,349.13 148.13,350.01 147.07,350.64C145.92,351.32 144.24,352.23 143.39,352.66C142.96,352.88 142.8,352.93 142.39,353.13C141.71,353.46 140.69,354.02 139.72,354.46C138.6,354.97 137.28,355.52 136.04,355.97C134.82,356.42 133.33,356.89 132.36,357.17C131.74,357.35 131.38,357.41 130.83,357.55C130.18,357.72 129.5,357.93 128.69,358.11C127.63,358.34 126.24,358.61 125.01,358.78C123.79,358.95 122.56,359.06 121.33,359.13C120.11,359.2 118.88,359.21 117.66,359.18C116.43,359.15 115.2,359.06 113.98,358.92C112.75,358.78 111.47,358.56 110.3,358.32Z" style="stroke-miterlimit: 1; vector-effect: non-scaling-stroke; fill: none; stroke: rgb(85, 62, 47); stroke-opacity: 1; stroke-width: 2px;"/></g><g class="contourlevel"><path class="closedline" d="M110.3,340.59C109.57,340.35 109.07,340.13 108.46,339.89C107.85,339.66 107.34,339.5 106.63,339.18C105.61,338.72 104.08,337.95 102.95,337.3C101.93,336.71 100.8,335.91 100.13,335.47C99.76,335.22 99.65,335.17 99.27,334.89C98.46,334.29 96.38,332.56 95.6,331.86C95.21,331.52 95.12,331.42 94.76,331.06C94.09,330.38 92.65,328.88 91.92,328.06C91.43,327.51 91.2,327.23 90.74,326.65C90.05,325.77 88.8,324.03 88.24,323.23C87.94,322.8 87.86,322.69 87.58,322.23C87,321.29 85.55,318.78 85.05,317.82C84.81,317.36 84.77,317.23 84.57,316.79C84.2,315.99 83.53,314.62 83.04,313.4C82.49,312.04 81.86,310.21 81.48,308.99C81.22,308.14 81.09,307.52 80.89,306.79C80.69,306.05 80.5,305.45 80.3,304.58C80.02,303.36 79.69,301.64 79.47,300.16C79.25,298.69 79.08,297.22 78.97,295.75C78.86,294.28 78.8,292.8 78.79,291.33C78.78,289.86 78.82,288.39 78.9,286.92C78.98,285.45 79.11,283.98 79.29,282.51C79.47,281.03 79.7,279.55 79.97,278.09C80.24,276.63 80.56,275.21 80.905,273.75C81.26,272.26 81.64,270.74 82.07,269.26C82.5,267.78 83.04,266.14 83.5,264.85C83.87,263.81 84.27,262.89 84.57,262.08C84.8,261.46 84.9,261.11 85.17,260.43C85.61,259.31 86.47,257.27 87.04,256.02C87.47,255.07 87.87,254.32 88.24,253.55C88.57,252.87 88.77,252.38 89.15,251.61C89.74,250.43 90.99,248.06 91.47,247.19C91.67,246.82 91.72,246.77 91.92,246.41C92.35,245.64 93.29,243.89 93.94,242.78C94.51,241.81 95.12,240.89 95.6,240.09C95.98,239.45 96.19,239.06 96.62,238.36C97.31,237.25 98.43,235.56 99.38,234.12C100.37,232.62 101.87,230.39 102.46,229.54C102.69,229.21 102.72,229.17 102.95,228.85C103.48,228.1 104.88,226.07 105.56,225.12C105.99,224.52 106.21,224.25 106.63,223.68C107.23,222.87 108.13,221.6 108.79,220.71C109.33,219.98 109.77,219.42 110.3,218.72C110.88,217.95 111.51,217.09 112.12,216.29C112.73,215.49 113.39,214.67 113.98,213.91C114.52,213.21 114.98,212.6 115.54,211.88C116.19,211.05 117.03,210.01 117.66,209.21C118.17,208.57 118.5,208.11 119.02,207.46C119.69,206.62 120.68,205.41 121.33,204.6C121.81,204.01 122.09,203.65 122.57,203.05C123.25,202.21 124.35,200.86 125.01,200.05C125.46,199.49 125.69,199.2 126.15,198.64C126.83,197.81 128.02,196.37 128.69,195.55C129.13,195.02 129.33,194.76 129.77,194.22C130.45,193.39 131.69,191.89 132.36,191.08C132.79,190.56 132.98,190.33 133.41,189.81C134.09,188.99 135.37,187.46 136.04,186.64C136.46,186.13 136.65,185.9 137.07,185.39C137.75,184.57 139.05,183.02 139.72,182.21C140.14,181.71 140.31,181.49 140.73,180.98C141.41,180.16 142.71,178.59 143.39,177.78C143.81,177.28 143.99,177.07 144.41,176.57C145.09,175.76 146.39,174.18 147.07,173.37C147.49,172.87 147.67,172.65 148.09,172.15C148.77,171.34 150.07,169.77 150.75,168.96C151.17,168.46 151.35,168.24 151.77,167.74C152.45,166.93 153.74,165.37 154.42,164.56C154.85,164.05 155.03,163.83 155.46,163.32C156.14,162.51 157.42,160.98 158.1,160.17C158.53,159.66 158.73,159.42 159.16,158.91C159.84,158.1 161.09,156.62 161.78,155.8C162.23,155.27 162.44,155.02 162.89,154.49C163.57,153.69 164.76,152.26 165.45,151.45C165.92,150.9 166.16,150.62 166.63,150.08C167.31,149.29 168.43,147.96 169.13,147.15C169.63,146.57 169.93,146.24 170.42,145.67C171.1,144.89 172.11,143.7 172.81,142.9C173.35,142.28 173.73,141.86 174.26,141.25C174.92,140.49 175.79,139.49 176.48,138.71C177.08,138.04 177.58,137.49 178.17,136.84C178.81,136.13 179.49,135.35 180.16,134.61C180.83,133.87 181.54,133.12 182.18,132.42C182.76,131.79 183.23,131.26 183.84,130.61C184.58,129.82 185.64,128.73 186.32,128.01C186.79,127.51 187.02,127.25 187.52,126.73C188.31,125.91 190.01,124.23 190.63,123.6C190.89,123.33 190.92,123.29 191.19,123.01C191.89,122.3 193.76,120.5 195.01,119.31C196.21,118.17 197.63,116.83 198.55,116C199.13,115.48 199.45,115.23 199.98,114.77C200.65,114.19 201.41,113.47 202.22,112.78C203.14,112 204.61,110.87 205.25,110.35C205.55,110.11 205.59,110.05 205.9,109.81C206.62,109.24 208.59,107.73 209.58,107.03C210.22,106.57 210.63,106.33 211.2,105.94C211.85,105.5 212.46,105.02 213.25,104.5C214.29,103.82 215.99,102.78 216.93,102.25C217.49,101.93 217.79,101.81 218.3,101.53C218.97,101.17 219.74,100.68 220.61,100.24C221.68,99.69 223.04,99.05 224.28,98.53C225.51,98.01 226.78,97.56 228.02,97.13C229.23,96.71 230.42,96.32 231.64,96C232.85,95.68 234.08,95.4 235.31,95.19C236.53,94.98 237.76,94.82 238.99,94.72C240.21,94.62 241.44,94.57 242.67,94.59C243.89,94.61 245.12,94.67 246.34,94.81C247.57,94.95 248.8,95.15 250.02,95.41C251.25,95.68 252.69,96.08 253.7,96.41C254.43,96.65 254.93,96.87 255.54,97.11C256.15,97.34 256.66,97.5 257.37,97.82C258.39,98.28 259.92,99.05 261.05,99.7C262.07,100.29 263.2,101.09 263.87,101.53C264.24,101.78 264.35,101.83 264.73,102.11C265.54,102.71 267.62,104.44 268.4,105.14C268.79,105.48 268.88,105.58 269.24,105.94C269.91,106.62 271.35,108.12 272.08,108.94C272.57,109.49 272.8,109.77 273.26,110.35C273.95,111.23 275.2,112.97 275.76,113.77C276.06,114.2 276.14,114.31 276.42,114.77C277,115.71 278.45,118.22 278.95,119.18C279.19,119.64 279.23,119.77 279.43,120.21C279.8,121.01 280.47,122.38 280.96,123.6C281.51,124.96 282.14,126.79 282.52,128.01C282.78,128.86 282.91,129.48 283.11,130.21C283.31,130.95 283.5,131.55 283.7,132.42C283.98,133.64 284.31,135.36 284.53,136.84C284.75,138.31 284.92,139.78 285.03,141.25C285.14,142.72 285.2,144.2 285.21,145.67C285.22,147.14 285.18,148.61 285.1,150.08C285.02,151.55 284.89,153.02 284.71,154.49C284.53,155.97 284.3,157.45 284.03,158.91C283.76,160.37 283.44,161.79 283.095,163.25C282.74,164.74 282.36,166.26 281.93,167.74C281.5,169.22 280.96,170.86 280.5,172.15C280.13,173.19 279.73,174.11 279.43,174.92C279.2,175.54 279.1,175.89 278.83,176.57C278.39,177.69 277.53,179.73 276.96,180.98C276.53,181.93 276.13,182.68 275.76,183.45C275.43,184.13 275.23,184.62 274.85,185.39C274.26,186.57 273.01,188.94 272.53,189.81C272.33,190.18 272.28,190.23 272.08,190.59C271.65,191.36 270.71,193.11 270.06,194.22C269.49,195.19 268.88,196.11 268.4,196.91C268.02,197.55 267.81,197.94 267.38,198.64C266.69,199.75 265.57,201.44 264.62,202.88C263.63,204.38 262.13,206.61 261.54,207.46C261.31,207.79 261.28,207.83 261.05,208.15C260.52,208.9 259.12,210.93 258.44,211.88C258.01,212.48 257.79,212.75 257.37,213.32C256.77,214.13 255.87,215.4 255.21,216.29C254.67,217.02 254.23,217.58 253.7,218.28C253.12,219.05 252.49,219.91 251.88,220.71C251.27,221.51 250.61,222.33 250.02,223.09C249.48,223.79 249.02,224.4 248.46,225.12C247.81,225.95 246.97,226.99 246.34,227.79C245.83,228.43 245.5,228.89 244.98,229.54C244.31,230.38 243.32,231.59 242.67,232.4C242.19,232.99 241.91,233.35 241.43,233.95C240.75,234.79 239.65,236.14 238.99,236.95C238.54,237.51 238.31,237.8 237.85,238.36C237.17,239.19 235.98,240.63 235.31,241.45C234.87,241.98 234.67,242.24 234.23,242.78C233.55,243.61 232.31,245.11 231.64,245.92C231.21,246.44 231.02,246.67 230.59,247.19C229.91,248.01 228.63,249.54 227.96,250.36C227.54,250.87 227.35,251.1 226.93,251.61C226.25,252.43 224.95,253.98 224.28,254.79C223.86,255.29 223.69,255.51 223.27,256.02C222.59,256.84 221.29,258.41 220.61,259.22C220.19,259.72 220.01,259.93 219.59,260.43C218.91,261.24 217.61,262.82 216.93,263.63C216.51,264.13 216.33,264.35 215.91,264.85C215.23,265.66 213.93,267.23 213.25,268.04C212.83,268.54 212.65,268.76 212.23,269.26C211.55,270.07 210.26,271.63 209.58,272.44C209.15,272.95 208.97,273.17 208.54,273.68C207.86,274.49 206.58,276.02 205.9,276.83C205.47,277.34 205.27,277.58 204.84,278.09C204.16,278.9 202.91,280.38 202.22,281.2C201.77,281.73 201.56,281.98 201.11,282.51C200.43,283.31 199.24,284.74 198.55,285.55C198.08,286.1 197.84,286.38 197.37,286.92C196.69,287.71 195.57,289.04 194.87,289.85C194.37,290.43 194.07,290.76 193.58,291.33C192.9,292.11 191.89,293.3 191.19,294.1C190.65,294.72 190.27,295.14 189.74,295.75C189.08,296.51 188.21,297.51 187.52,298.29C186.92,298.96 186.42,299.51 185.83,300.16C185.19,300.87 184.51,301.65 183.84,302.39C183.17,303.13 182.46,303.88 181.82,304.58C181.24,305.21 180.77,305.74 180.16,306.39C179.42,307.18 178.36,308.27 177.68,308.99C177.21,309.49 176.98,309.75 176.48,310.27C175.69,311.09 173.99,312.77 173.37,313.4C173.11,313.67 173.08,313.71 172.81,313.99C172.11,314.7 170.24,316.5 168.99,317.69C167.79,318.83 166.37,320.17 165.45,321C164.87,321.52 164.55,321.77 164.02,322.23C163.35,322.81 162.59,323.53 161.78,324.22C160.86,325 159.39,326.13 158.75,326.65C158.45,326.89 158.41,326.95 158.1,327.19C157.38,327.76 155.41,329.27 154.42,329.97C153.78,330.43 153.37,330.67 152.8,331.06C152.15,331.5 151.54,331.98 150.75,332.5C149.71,333.18 148.01,334.22 147.07,334.75C146.51,335.07 146.21,335.19 145.7,335.47C145.03,335.83 144.26,336.32 143.39,336.76C142.32,337.31 140.96,337.95 139.72,338.47C138.49,338.99 137.22,339.44 135.98,339.87C134.77,340.29 133.58,340.68 132.36,341C131.15,341.32 129.92,341.6 128.69,341.81C127.47,342.02 126.24,342.18 125.01,342.28C123.79,342.38 122.56,342.43 121.33,342.41C120.11,342.39 118.88,342.33 117.66,342.19C116.43,342.05 115.2,341.85 113.98,341.59C112.75,341.32 111.31,340.92 110.3,340.59Z" style="stroke-miterlimit: 1; vector-effect: non-scaling-stroke; fill: none; stroke: rgb(112, 77, 54); stroke-opacity: 1; stroke-width: 2px;"/></g><g class="contourlevel"><path class="closedline" d="M113.98,327.08C113.53,326.92 113.39,326.83 112.97,326.65C112.29,326.35 111.24,325.95 110.3,325.45C109.16,324.85 107.52,323.81 106.63,323.2C106.08,322.83 105.84,322.62 105.36,322.23C104.68,321.68 103.73,320.91 102.95,320.18C102.16,319.44 101.33,318.55 100.67,317.82C100.13,317.22 99.76,316.78 99.27,316.14C98.66,315.35 97.92,314.34 97.31,313.4C96.7,312.46 96.06,311.31 95.6,310.5C95.27,309.92 95.1,309.63 94.79,308.99C94.27,307.91 93.42,305.95 92.92,304.58C92.5,303.44 92.17,302.18 91.92,301.37C91.77,300.87 91.69,300.69 91.56,300.16C91.31,299.15 90.88,297.23 90.64,295.75C90.4,294.28 90.23,292.8 90.12,291.33C90.01,289.86 89.96,288.39 89.96,286.92C89.96,285.45 90.02,283.98 90.13,282.51C90.24,281.04 90.4,279.56 90.61,278.09C90.82,276.62 91.14,274.89 91.39,273.68C91.57,272.83 91.75,272.26 91.92,271.53C92.1,270.78 92.21,270.14 92.44,269.26C92.76,268.03 93.26,266.31 93.74,264.85C94.22,263.37 95.01,261.24 95.33,260.43C95.45,260.12 95.48,260.1 95.6,259.8C95.9,259.07 96.54,257.33 97.11,256.02C97.74,254.57 98.5,252.98 99.215,251.5C99.92,250.04 100.68,248.47 101.36,247.19C101.92,246.14 102.51,245.17 102.95,244.36C103.28,243.76 103.43,243.44 103.8,242.78C104.44,241.65 105.62,239.7 106.525,238.205C107.41,236.76 108.47,235.04 109.17,233.95C109.62,233.25 109.88,232.88 110.3,232.25C110.83,231.45 111.46,230.44 112.07,229.54C112.69,228.62 113.43,227.6 113.98,226.8C114.41,226.17 114.67,225.78 115.13,225.12C115.8,224.16 117.1,222.41 117.66,221.62C117.95,221.22 118,221.12 118.3,220.71C118.95,219.81 120.37,217.9 121.44999999999999,216.45499999999998C122.59,214.94 123.79,213.36 124.97,211.825C126.15,210.29 127.35,208.73 128.51,207.24C129.63,205.81 131.17,203.86 131.81,203.05C132.07,202.72 132.1,202.68 132.36,202.36C132.96,201.61 134.68,199.45 135.33,198.64C135.65,198.24 135.72,198.15 136.04,197.76C136.67,196.97 138.23,195.04 138.9,194.22C139.25,193.78 139.37,193.65 139.72,193.22C140.37,192.42 141.83,190.63 142.5,189.81C142.88,189.35 143.01,189.19 143.39,188.73C144.05,187.92 145.47,186.21 146.14,185.39C146.53,184.92 146.68,184.74 147.07,184.27C147.74,183.46 149.12,181.79 149.8,180.98C150.2,180.5 150.35,180.32 150.75,179.84C151.43,179.03 152.81,177.38 153.48,176.57C153.88,176.1 154.02,175.91 154.42,175.44C155.1,174.63 156.53,172.95 157.2,172.15C157.58,171.7 157.71,171.53 158.1,171.08C158.78,170.27 160.29,168.53 160.95,167.74C161.31,167.31 161.42,167.18 161.78,166.75C162.46,165.95 164.08,164.08 164.73,163.32C165.05,162.94 165.12,162.85 165.45,162.47C166.12,161.69 167.93,159.63 168.55,158.91C168.82,158.6 168.85,158.56 169.13,158.24C169.8,157.47 171.43,155.62 172.625,154.28C173.87,152.89 175.16,151.44 176.44,150.03C177.72,148.62 179.04,147.18 180.3,145.81C181.5,144.51 183.09,142.8 183.84,142.02C184.18,141.66 184.27,141.59 184.6,141.25C185.26,140.57 186.72,139.02 187.52,138.21C188.07,137.66 188.4,137.36 188.92,136.84C189.59,136.18 190.43,135.29 191.19,134.55C191.94,133.82 192.79,133.05 193.46,132.42C193.99,131.92 194.29,131.6 194.87,131.06C195.78,130.22 197.21,128.95 198.41500000000002,127.88999999999999C199.66,126.8 201.27,125.39 202.22,124.62C202.77,124.17 203.04,124 203.54,123.6C204.22,123.07 205.02,122.36 205.9,121.69C206.96,120.88 208.27,119.96 209.49,119.11500000000001C210.72,118.26 212.04,117.33 213.25,116.58C214.33,115.9 215.79,115.13 216.4,114.77C216.65,114.62 216.67,114.6 216.93,114.45C217.6,114.07 219.37,113.12 220.61,112.54C221.82,111.97 223.25,111.37 224.28,110.98C225.01,110.7 225.55,110.56 226.17,110.35C226.78,110.14 227.25,109.93 227.96,109.72C228.96,109.42 230.41,109.03 231.64,108.78C232.86,108.53 234.08,108.33 235.31,108.2C236.53,108.07 237.76,108 238.99,108C240.22,108 241.45,108.05 242.67,108.19C243.9,108.33 245.12,108.54 246.34,108.82C247.57,109.11 249.18,109.62 250.02,109.92C250.47,110.08 250.61,110.17 251.03,110.35C251.71,110.65 252.76,111.05 253.7,111.55C254.84,112.15 256.48,113.19 257.37,113.8C257.92,114.17 258.16,114.38 258.64,114.77C259.32,115.32 260.27,116.09 261.05,116.82C261.84,117.56 262.67,118.45 263.33,119.18C263.87,119.78 264.24,120.22 264.73,120.86C265.34,121.65 266.08,122.66 266.69,123.6C267.3,124.54 267.94,125.69 268.4,126.5C268.73,127.08 268.9,127.37 269.21,128.01C269.73,129.09 270.58,131.05 271.08,132.42C271.5,133.56 271.83,134.82 272.08,135.63C272.23,136.13 272.31,136.31 272.44,136.84C272.69,137.85 273.12,139.77 273.36,141.25C273.6,142.72 273.77,144.2 273.88,145.67C273.99,147.14 274.04,148.61 274.04,150.08C274.04,151.55 273.98,153.02 273.87,154.49C273.76,155.96 273.6,157.44 273.39,158.91C273.18,160.38 272.86,162.11 272.61,163.32C272.43,164.17 272.25,164.74 272.08,165.47C271.9,166.22 271.79,166.86 271.56,167.74C271.24,168.97 270.74,170.69 270.26,172.15C269.78,173.63 268.99,175.76 268.67,176.57C268.55,176.88 268.52,176.9 268.4,177.2C268.1,177.93 267.46,179.67 266.89,180.98C266.26,182.43 265.5,184.02 264.78499999999997,185.5C264.08,186.96 263.32,188.53 262.64,189.81C262.08,190.86 261.49,191.83 261.05,192.64C260.72,193.24 260.57,193.56 260.2,194.22C259.56,195.35 258.38,197.3 257.475,198.795C256.59,200.24 255.53,201.96 254.83,203.05C254.38,203.75 254.12,204.12 253.7,204.75C253.17,205.55 252.54,206.56 251.93,207.46C251.31,208.38 250.57,209.4 250.02,210.2C249.59,210.83 249.33,211.22 248.87,211.88C248.2,212.84 246.9,214.59 246.34,215.38C246.05,215.78 246,215.88 245.7,216.29C245.05,217.19 243.63,219.1 242.55,220.54500000000002C241.41,222.06 240.21,223.64 239.03,225.175C237.85,226.71 236.65,228.27 235.49,229.76C234.37,231.19 232.83,233.14 232.19,233.95C231.93,234.28 231.9,234.32 231.64,234.64C231.04,235.39 229.32,237.55 228.67,238.36C228.35,238.76 228.28,238.85 227.96,239.24C227.33,240.03 225.77,241.96 225.1,242.78C224.75,243.22 224.63,243.35 224.28,243.78C223.63,244.58 222.17,246.37 221.5,247.19C221.12,247.65 220.99,247.81 220.61,248.27C219.95,249.08 218.53,250.79 217.86,251.61C217.47,252.08 217.32,252.26 216.93,252.73C216.26,253.54 214.88,255.21 214.2,256.02C213.8,256.5 213.65,256.68 213.25,257.16C212.57,257.97 211.19,259.62 210.52,260.43C210.12,260.9 209.98,261.09 209.58,261.56C208.9,262.37 207.47,264.05 206.8,264.85C206.42,265.3 206.29,265.47 205.9,265.92C205.22,266.73 203.71,268.47 203.05,269.26C202.69,269.69 202.58,269.82 202.22,270.25C201.54,271.05 199.92,272.92 199.27,273.68C198.95,274.06 198.88,274.15 198.55,274.53C197.88,275.31 196.07,277.37 195.45,278.09C195.18,278.4 195.15,278.44 194.87,278.76C194.2,279.53 192.57,281.38 191.375,282.72C190.13,284.11 188.84,285.56 187.56,286.97C186.28,288.38 184.96,289.82 183.7,291.19C182.5,292.49 180.91,294.2 180.16,294.98C179.82,295.34 179.73,295.41 179.4,295.75C178.74,296.43 177.28,297.98 176.48,298.79C175.93,299.34 175.6,299.64 175.08,300.16C174.41,300.82 173.57,301.71 172.81,302.45C172.06,303.18 171.21,303.95 170.54,304.58C170.01,305.08 169.71,305.4 169.13,305.94C168.22,306.78 166.79,308.05 165.58499999999998,309.11C164.34,310.2 162.73,311.61 161.78,312.38C161.23,312.83 160.96,313 160.46,313.4C159.78,313.93 158.98,314.64 158.1,315.31C157.04,316.12 155.73,317.04 154.51,317.885C153.28,318.74 151.96,319.67 150.75,320.42C149.67,321.1 148.21,321.87 147.6,322.23C147.35,322.38 147.33,322.4 147.07,322.55C146.4,322.93 144.63,323.88 143.39,324.46C142.18,325.03 140.75,325.63 139.72,326.02C138.99,326.3 138.45,326.44 137.83,326.65C137.22,326.86 136.75,327.07 136.04,327.28C135.04,327.58 133.59,327.97 132.36,328.22C131.14,328.47 129.92,328.67 128.69,328.8C127.47,328.93 126.24,329 125.01,329C123.78,329 122.55,328.95 121.33,328.81C120.1,328.67 118.88,328.46 117.66,328.18C116.43,327.89 114.82,327.38 113.98,327.08Z" style="stroke-miterlimit: 1; vector-effect: non-scaling-stroke; fill: none; stroke: rgb(138, 93, 57); stroke-opacity: 1; stroke-width: 2px;"/></g><g class="contourlevel"><path class="closedline" d="M117.66,315.25C116.43,314.72 115.25,314.11 114.065,313.35C112.79,312.53 111.24,311.28 110.3,310.45C109.68,309.9 109.37,309.56 108.85,308.99C108.17,308.25 107.25,307.13 106.63,306.32C106.15,305.69 105.86,305.31 105.41,304.58C104.71,303.44 103.67,301.57 102.99000000000001,300.06C102.35,298.63 101.85,297.21 101.41,295.75C100.97,294.3 100.62,292.81 100.35,291.33C100.08,289.87 99.9,288.39 99.78,286.92C99.66,285.45 99.61,283.98 99.62,282.51C99.63,281.04 99.71,279.56 99.83,278.09C99.96,276.62 100.14,275.15 100.37,273.68C100.6,272.2 100.89,270.73 101.23,269.26C101.57,267.78 102.07,265.96 102.4,264.85C102.61,264.16 102.75,263.81 102.95,263.19C103.21,262.39 103.47,261.45 103.82,260.43C104.27,259.13 104.97,257.29 105.49,256.02C105.89,255.04 106.29,254.24 106.63,253.45C106.92,252.79 107.07,252.35 107.41,251.61C107.94,250.45 109,248.25 109.54,247.19C109.85,246.58 110,246.34 110.3,245.78C110.73,244.97 111.29,243.82 111.86,242.78C112.5,241.61 113.55,239.87 113.98,239.11C114.17,238.77 114.19,238.71 114.39,238.36C114.89,237.5 116.49,234.86 117.07,233.95C117.33,233.54 117.4,233.46 117.66,233.06C118.17,232.28 119.22,230.56 119.89,229.54C120.42,228.74 120.84,228.14 121.33,227.42C121.83,226.67 122.3,225.94 122.86,225.12C123.51,224.17 124.44,222.9 125.01,222.08C125.39,221.53 125.56,221.28 125.96,220.71C126.63,219.77 128.16,217.7 128.69,216.96C128.91,216.65 128.93,216.61 129.16,216.29C129.75,215.47 131.3,213.41 132.41000000000003,211.945C133.56,210.43 134.78,208.83 135.935,207.325C137.05,205.87 138.64,203.82 139.25,203.05C139.48,202.77 139.5,202.75 139.72,202.47C140.29,201.76 142.11,199.44 142.75,198.64C143.04,198.27 143.1,198.2 143.39,197.84C144.01,197.07 145.64,195.04 146.3,194.22C146.64,193.8 146.73,193.69 147.07,193.27C147.72,192.48 149.23,190.62 149.9,189.81C150.27,189.37 150.38,189.22 150.75,188.78C151.41,187.98 152.88,186.2 153.55,185.39C153.92,184.94 154.05,184.79 154.42,184.34C155.09,183.54 156.57,181.78 157.24,180.98C157.61,180.54 157.73,180.4 158.1,179.96C158.78,179.16 160.33,177.35 160.99,176.57C161.34,176.16 161.43,176.05 161.78,175.64C162.46,174.85 164.15,172.89 164.79,172.15C165.09,171.8 165.15,171.73 165.45,171.38C166.11,170.61 168.06,168.42 168.65,167.74C168.88,167.47 168.89,167.45 169.13,167.18C169.77,166.45 171.48,164.54 172.695,163.195C173.95,161.8 175.27,160.35 176.54,158.97C177.76,157.64 179.48,155.79 180.16,155.07C180.43,154.79 180.46,154.76 180.72,154.49C181.34,153.84 183.05,152.03 183.84,151.22C184.31,150.74 184.53,150.54 184.98,150.08C185.66,149.39 186.73,148.28 187.52,147.5C188.2,146.83 188.81,146.27 189.43,145.67C190.03,145.09 190.52,144.57 191.19,143.94C192.04,143.14 193.48,141.86 194.13,141.25C194.46,140.94 194.53,140.86 194.87,140.55C195.63,139.86 197.83,137.94 198.55,137.34C198.84,137.1 198.89,137.07 199.17,136.84C199.8,136.32 201.24,135.06 202.22,134.29C203.09,133.61 204.04,132.93 204.72,132.42C205.19,132.06 205.39,131.88 205.9,131.51C206.78,130.86 208.61,129.58 209.58,128.95C210.2,128.55 210.57,128.36 211.12,128.01C211.77,127.6 212.43,127.13 213.25,126.65C214.3,126.03 215.84,125.18 216.93,124.64C217.77,124.22 218.55,123.91 219.22,123.6C219.74,123.36 220.03,123.18 220.61,122.93C221.54,122.53 223.05,121.94 224.28,121.53C225.5,121.13 226.73,120.78 227.96,120.5C229.18,120.22 230.41,120 231.64,119.85C232.86,119.7 234.09,119.61 235.31,119.6C236.54,119.59 237.77,119.64 238.99,119.79C240.22,119.94 241.46,120.16 242.67,120.48C243.91,120.81 245.14,121.23 246.34,121.75C247.57,122.28 248.75,122.89 249.935,123.65C251.21,124.47 252.76,125.72 253.7,126.55C254.32,127.1 254.63,127.44 255.15,128.01C255.83,128.75 256.75,129.87 257.37,130.68C257.85,131.31 258.14,131.69 258.59,132.42C259.29,133.56 260.33,135.43 261.01,136.94C261.65,138.37 262.15,139.79 262.59,141.25C263.03,142.7 263.38,144.19 263.65,145.67C263.92,147.13 264.1,148.61 264.22,150.08C264.34,151.55 264.39,153.02 264.38,154.49C264.37,155.96 264.29,157.44 264.17,158.91C264.04,160.38 263.86,161.85 263.63,163.32C263.4,164.8 263.11,166.27 262.77,167.74C262.43,169.22 261.93,171.04 261.6,172.15C261.39,172.84 261.25,173.19 261.05,173.81C260.79,174.61 260.53,175.55 260.18,176.57C259.73,177.87 259.03,179.71 258.51,180.98C258.11,181.96 257.71,182.76 257.37,183.55C257.08,184.21 256.93,184.65 256.59,185.39C256.06,186.55 255,188.75 254.46,189.81C254.15,190.42 254,190.66 253.7,191.22C253.27,192.03 252.71,193.18 252.14,194.22C251.5,195.39 250.45,197.13 250.02,197.89C249.83,198.23 249.81,198.29 249.61,198.64C249.11,199.5 247.51,202.14 246.93,203.05C246.67,203.46 246.6,203.54 246.34,203.94C245.83,204.72 244.78,206.44 244.11,207.46C243.58,208.26 243.16,208.86 242.67,209.58C242.17,210.33 241.7,211.06 241.14,211.88C240.49,212.83 239.56,214.1 238.99,214.92C238.61,215.47 238.44,215.72 238.04,216.29C237.37,217.23 235.84,219.3 235.31,220.04C235.09,220.35 235.07,220.39 234.84,220.71C234.25,221.53 232.7,223.59 231.58999999999997,225.055C230.44,226.57 229.22,228.17 228.065,229.675C226.95,231.13 225.36,233.18 224.75,233.95C224.52,234.23 224.5,234.25 224.28,234.53C223.71,235.24 221.89,237.56 221.25,238.36C220.96,238.73 220.9,238.8 220.61,239.16C219.99,239.93 218.36,241.96 217.7,242.78C217.36,243.2 217.27,243.31 216.93,243.73C216.28,244.52 214.77,246.38 214.1,247.19C213.73,247.63 213.62,247.78 213.25,248.22C212.59,249.02 211.12,250.8 210.45,251.61C210.08,252.06 209.95,252.21 209.58,252.66C208.91,253.46 207.43,255.22 206.76,256.02C206.39,256.46 206.27,256.6 205.9,257.04C205.22,257.84 203.67,259.65 203.01,260.43C202.66,260.84 202.57,260.95 202.22,261.36C201.54,262.15 199.85,264.11 199.21,264.85C198.91,265.2 198.85,265.27 198.55,265.62C197.89,266.39 195.94,268.58 195.35,269.26C195.12,269.53 195.11,269.55 194.87,269.82C194.23,270.55 192.52,272.46 191.305,273.805C190.05,275.2 188.73,276.65 187.46,278.03C186.24,279.36 184.52,281.21 183.84,281.93C183.57,282.21 183.54,282.24 183.28,282.51C182.66,283.16 180.95,284.97 180.16,285.78C179.69,286.26 179.47,286.46 179.02,286.92C178.34,287.61 177.27,288.72 176.48,289.5C175.8,290.17 175.19,290.73 174.57,291.33C173.97,291.91 173.48,292.43 172.81,293.06C171.96,293.86 170.52,295.14 169.87,295.75C169.54,296.06 169.47,296.14 169.13,296.45C168.37,297.14 166.17,299.06 165.45,299.66C165.16,299.9 165.11,299.93 164.83,300.16C164.2,300.68 162.76,301.94 161.78,302.71C160.91,303.39 159.96,304.07 159.28,304.58C158.81,304.94 158.61,305.12 158.1,305.49C157.22,306.14 155.39,307.42 154.42,308.05C153.8,308.45 153.43,308.64 152.88,308.99C152.23,309.4 151.57,309.87 150.75,310.35C149.7,310.97 148.16,311.82 147.07,312.36C146.23,312.78 145.45,313.09 144.78,313.4C144.26,313.64 143.97,313.82 143.39,314.07C142.46,314.47 140.95,315.06 139.72,315.47C138.5,315.87 137.27,316.22 136.04,316.5C134.82,316.78 133.59,317 132.36,317.15C131.14,317.3 129.91,317.39 128.69,317.4C127.46,317.41 126.23,317.36 125.01,317.21C123.78,317.06 122.54,316.84 121.33,316.52C120.09,316.19 118.86,315.77 117.66,315.25Z" style="stroke-miterlimit: 1; vector-effect: non-scaling-stroke; fill: none; stroke: rgb(161, 112, 59); stroke-opacity: 1; stroke-width: 2px;"/></g><g class="contourlevel"><path class="closedline" d="M125.01,305.83C123.93,305.49 122.58,304.86 121.95,304.58C121.66,304.45 121.61,304.45 121.33,304.29C120.61,303.87 118.62,302.53 117.66,301.75C116.97,301.19 116.56,300.76 116,300.16C115.34,299.45 114.56,298.52 113.98,297.74C113.47,297.06 113.12,296.56 112.66,295.75C112,294.58 110.88,292.19 110.54,291.33C110.4,290.99 110.4,290.93 110.3,290.59C110.07,289.83 109.54,288.21 109.26,286.92C108.95,285.53 108.72,283.98 108.57,282.51C108.42,281.04 108.37,279.56 108.37,278.09C108.37,276.62 108.45,275.15 108.59,273.68C108.73,272.2 108.93,270.75 109.19,269.26C109.46,267.71 109.84,266.07 110.215,264.56C110.57,263.13 110.93,261.82 111.36,260.43C111.81,258.98 112.4,257.3 112.88,256.02C113.26,255.01 113.66,254.13 113.98,253.33C114.23,252.69 114.35,252.31 114.65,251.61C115.13,250.47 116.08,248.36 116.65,247.19C117.03,246.4 117.31,245.92 117.66,245.23C118.05,244.46 118.38,243.71 118.87,242.78C119.53,241.51 120.48,239.81 121.315,238.335C122.15,236.86 123.18,235.09 123.87,233.95C124.32,233.21 124.6,232.81 125.01,232.15C125.5,231.36 126.04,230.44 126.62,229.54C127.26,228.54 128.16,227.23 128.69,226.41C129.03,225.89 129.15,225.67 129.52,225.12C130.19,224.11 131.43,222.31 132.455,220.85000000000002C133.54,219.29 134.75,217.59 135.86,216.05C136.9,214.61 138.22,212.81 138.91,211.88C139.26,211.41 139.38,211.27 139.72,210.82C140.33,210.02 141.56,208.35 142.24,207.46C142.69,206.86 142.94,206.56 143.39,205.98C144.02,205.17 144.98,203.91 145.65,203.05C146.18,202.38 146.55,201.91 147.07,201.25C147.69,200.46 148.49,199.45 149.14,198.64C149.71,197.93 150.19,197.34 150.75,196.64C151.37,195.87 152.07,195 152.7,194.22C153.29,193.49 153.83,192.83 154.42,192.11C155.04,191.36 155.71,190.56 156.33,189.81C156.93,189.09 157.5,188.4 158.1,187.68C158.73,186.93 159.39,186.13 160.02,185.39C160.62,184.68 161.17,184.03 161.78,183.32C162.43,182.56 163.15,181.72 163.79,180.98C164.37,180.31 164.86,179.73 165.45,179.05C166.13,178.27 166.98,177.32 167.64,176.57C168.19,175.95 168.57,175.49 169.13,174.86C169.84,174.06 170.89,172.9 171.57,172.15C172.05,171.61 172.31,171.31 172.81,170.76C173.55,169.94 174.93,168.47 175.6,167.74C175.98,167.33 176.09,167.19 176.48,166.77C177.25,165.94 178.76,164.36 179.95999999999998,163.11C181.24,161.78 182.66,160.33 183.95499999999998,159.02499999999998C185.17,157.8 186.67,156.3 187.52,155.49C187.98,155.05 188.16,154.9 188.59,154.49C189.27,153.85 190.35,152.78 191.19,152.01C191.94,151.32 192.71,150.67 193.37,150.08C193.92,149.59 194.25,149.25 194.87,148.71C195.81,147.88 197.3,146.65 198.525,145.64999999999998C199.75,144.65 201.16,143.51 202.22,142.71C202.99,142.13 203.63,141.72 204.27,141.25C204.85,140.83 205.24,140.51 205.9,140.05C206.87,139.38 208.63,138.23 209.58,137.65C210.16,137.3 210.48,137.15 211.01,136.84C211.67,136.45 212.4,135.97 213.25,135.51C214.32,134.93 215.71,134.24 216.93,133.7C218.08,133.18 219.17,132.75 220.365,132.32C221.62,131.87 222.99,131.42 224.28,131.09C225.52,130.78 226.73,130.54 227.96,130.37C229.18,130.21 230.41,130.1 231.64,130.1C232.86,130.1 234.09,130.16 235.31,130.34C236.54,130.52 237.83,130.81 238.99,131.17C240.07,131.51 241.42,132.14 242.05,132.42C242.34,132.55 242.39,132.55 242.67,132.71C243.39,133.13 245.38,134.47 246.34,135.25C247.03,135.81 247.44,136.24 248,136.84C248.66,137.55 249.44,138.48 250.02,139.26C250.53,139.94 250.88,140.44 251.34,141.25C252,142.42 253.12,144.81 253.46,145.67C253.6,146.01 253.6,146.07 253.7,146.41C253.93,147.17 254.46,148.79 254.74,150.08C255.05,151.47 255.28,153.02 255.43,154.49C255.58,155.96 255.63,157.44 255.63,158.91C255.63,160.38 255.55,161.85 255.41,163.32C255.27,164.8 255.07,166.25 254.81,167.74C254.54,169.29 254.16,170.93 253.785,172.44C253.43,173.87 253.07,175.18 252.64,176.57C252.19,178.02 251.6,179.7 251.12,180.98C250.74,181.99 250.34,182.87 250.02,183.67C249.77,184.31 249.65,184.69 249.35,185.39C248.87,186.53 247.92,188.64 247.35,189.81C246.97,190.6 246.69,191.08 246.34,191.77C245.95,192.54 245.62,193.29 245.13,194.22C244.47,195.49 243.52,197.19 242.685,198.665C241.85,200.14 240.82,201.91 240.13,203.05C239.68,203.79 239.4,204.19 238.99,204.85C238.5,205.64 237.96,206.56 237.38,207.46C236.74,208.46 235.84,209.77 235.31,210.59C234.97,211.11 234.85,211.33 234.48,211.88C233.81,212.89 232.57,214.69 231.545,216.14999999999998C230.46,217.71 229.25,219.41 228.14,220.95C227.1,222.39 225.78,224.19 225.09,225.12C224.74,225.59 224.62,225.73 224.28,226.18C223.67,226.98 222.44,228.65 221.76,229.54C221.31,230.14 221.06,230.44 220.61,231.02C219.98,231.83 219.02,233.09 218.35,233.95C217.82,234.62 217.45,235.09 216.93,235.75C216.31,236.54 215.51,237.55 214.86,238.36C214.29,239.07 213.81,239.66 213.25,240.36C212.63,241.13 211.93,242 211.3,242.78C210.71,243.51 210.17,244.17 209.58,244.89C208.96,245.64 208.29,246.44 207.67,247.19C207.07,247.91 206.5,248.6 205.9,249.32C205.27,250.07 204.61,250.87 203.98,251.61C203.38,252.32 202.83,252.97 202.22,253.68C201.57,254.44 200.85,255.28 200.21,256.02C199.63,256.69 199.14,257.27 198.55,257.95C197.87,258.73 197.02,259.68 196.36,260.43C195.81,261.05 195.43,261.51 194.87,262.14C194.16,262.94 193.11,264.1 192.43,264.85C191.95,265.39 191.69,265.69 191.19,266.24C190.45,267.06 189.07,268.53 188.4,269.26C188.02,269.67 187.91,269.81 187.52,270.23C186.75,271.06 185.24,272.64 184.04000000000002,273.89C182.76,275.22 181.34,276.67 180.04500000000002,277.975C178.83,279.2 177.33,280.7 176.48,281.51C176.02,281.95 175.84,282.1 175.41,282.51C174.73,283.15 173.65,284.22 172.81,284.99C172.06,285.68 171.29,286.33 170.63,286.92C170.08,287.41 169.75,287.75 169.13,288.29C168.19,289.12 166.7,290.35 165.475,291.35C164.25,292.35 162.84,293.49 161.78,294.29C161.01,294.87 160.37,295.28 159.73,295.75C159.15,296.17 158.76,296.49 158.1,296.95C157.13,297.62 155.37,298.77 154.42,299.35C153.84,299.7 153.52,299.85 152.99,300.16C152.33,300.55 151.6,301.03 150.75,301.49C149.68,302.07 148.29,302.76 147.07,303.3C145.92,303.82 144.83,304.25 143.635,304.67999999999995C142.38,305.13 141.01,305.58 139.72,305.91C138.48,306.22 137.27,306.46 136.04,306.63C134.82,306.79 133.59,306.9 132.36,306.9C131.14,306.9 129.91,306.84 128.69,306.66C127.46,306.48 126.17,306.19 125.01,305.83Z" style="stroke-miterlimit: 1; vector-effect: non-scaling-stroke; fill: none; stroke: rgb(180, 134, 64); stroke-opacity: 1; stroke-width: 2px;"/></g><g class="contourlevel"><path class="closedline" d="M132.36,296.68C131.18,296.46 130.06,296.17 128.9,295.68C127.61,295.14 126.11,294.27 125.01,293.48C124.08,292.81 123.29,292.01 122.63,291.33C122.11,290.79 121.78,290.39 121.33,289.78C120.75,288.99 120.09,288.02 119.54,286.92C118.87,285.58 118.16,283.79 117.715,282.255C117.3,280.85 117.07,279.5 116.88,278.09C116.69,276.65 116.61,275.15 116.6,273.68C116.59,272.21 116.66,270.73 116.8,269.26C116.94,267.79 117.24,265.8 117.42,264.85C117.51,264.39 117.56,264.28 117.66,263.84C117.84,263.04 118.1,261.63 118.41,260.43C118.77,259.05 119.23,257.49 119.71,256.02C120.2,254.53 120.75,253.05 121.32,251.575C121.89,250.1 122.5,248.62 123.14,247.19C123.77,245.78 124.42,244.45 125.125,243.025C125.88,241.51 126.85,239.59 127.52,238.36C127.97,237.54 128.29,237.04 128.69,236.33C129.12,235.57 129.5,234.83 130.01,233.95C130.67,232.81 131.94,230.77 132.36,230.07C132.52,229.81 132.52,229.8 132.68,229.54C133.15,228.78 134.91,226 135.49,225.12C135.74,224.74 135.79,224.68 136.04,224.31C136.56,223.54 137.76,221.7 138.44,220.71C138.93,220 139.26,219.55 139.72,218.89C140.27,218.1 140.91,217.15 141.52,216.29C142.13,215.43 142.82,214.51 143.39,213.73C143.87,213.06 144.22,212.57 144.73,211.88C145.4,210.97 146.46,209.58 147.07,208.76C147.46,208.23 147.63,208 148.04,207.46C148.71,206.57 150.14,204.75 150.75,203.96C151.06,203.56 151.13,203.45 151.45,203.05C152.1,202.22 153.83,200.04 154.42,199.3C154.67,198.99 154.7,198.95 154.95,198.64C155.56,197.88 157.53,195.46 158.1,194.76C158.31,194.5 158.32,194.48 158.54,194.22C159.12,193.52 161.19,191.04 161.78,190.34C162,190.08 162.01,190.07 162.23,189.81C162.81,189.12 164.82,186.75 165.45,186.02C165.71,185.72 165.74,185.69 166,185.39C166.62,184.69 168.44,182.6 169.13,181.82C169.47,181.44 169.55,181.35 169.89,180.98C170.55,180.25 172.07,178.54 172.81,177.73C173.26,177.24 173.45,177.04 173.89,176.57C174.57,175.84 175.72,174.55 176.48,173.75C177.06,173.14 177.47,172.73 178.02,172.15C178.68,171.46 179.44,170.64 180.16,169.9C180.88,169.17 181.67,168.4 182.33,167.74C182.88,167.19 183.25,166.79 183.84,166.2C184.66,165.38 186.2,163.94 186.84,163.32C187.15,163.02 187.2,162.96 187.52,162.66C188.25,161.97 190.56,159.85 191.19,159.29C191.41,159.1 191.42,159.1 191.63,158.91C192.21,158.4 193.91,156.88 194.87,156.08C195.6,155.47 196.22,155.01 196.85,154.49C197.44,154.01 197.86,153.63 198.55,153.09C199.57,152.29 201.16,151.12 202.425,150.215C203.61,149.37 204.72,148.6 205.9,147.84C207.09,147.08 208.32,146.34 209.55,145.64999999999998C210.77,144.97 212.01,144.3 213.25,143.71C214.47,143.13 215.77,142.58 216.93,142.15C217.93,141.78 219.09,141.47 219.76,141.25C220.13,141.13 220.22,141.07 220.61,140.97C221.4,140.76 223.05,140.38 224.28,140.22C225.5,140.06 226.73,139.96 227.96,139.98C229.19,140 230.44,140.09 231.64,140.32C232.82,140.54 233.94,140.83 235.1,141.32C236.39,141.86 237.89,142.73 238.99,143.52C239.92,144.19 240.71,144.99 241.37,145.67C241.89,146.21 242.22,146.61 242.67,147.22C243.25,148.01 243.91,148.98 244.46,150.08C245.13,151.42 245.84,153.21 246.285,154.745C246.7,156.15 246.93,157.5 247.12,158.91C247.31,160.35 247.39,161.85 247.4,163.32C247.41,164.79 247.34,166.27 247.2,167.74C247.06,169.21 246.76,171.2 246.58,172.15C246.49,172.61 246.44,172.72 246.34,173.16C246.16,173.96 245.9,175.37 245.59,176.57C245.23,177.95 244.77,179.51 244.29,180.98C243.8,182.47 243.25,183.95 242.68,185.425C242.11,186.9 241.5,188.38 240.86,189.81C240.23,191.22 239.58,192.55 238.875,193.975C238.12,195.49 237.15,197.41 236.48,198.64C236.03,199.46 235.71,199.96 235.31,200.67C234.88,201.43 234.5,202.17 233.99,203.05C233.33,204.19 232.06,206.23 231.64,206.93C231.48,207.19 231.48,207.2 231.32,207.46C230.85,208.22 229.09,211 228.51,211.88C228.26,212.26 228.21,212.32 227.96,212.69C227.44,213.46 226.24,215.3 225.56,216.29C225.07,217 224.74,217.45 224.28,218.11C223.73,218.9 223.09,219.85 222.48,220.71C221.87,221.57 221.18,222.49 220.61,223.27C220.13,223.94 219.78,224.43 219.27,225.12C218.6,226.03 217.54,227.42 216.93,228.24C216.54,228.77 216.37,229 215.96,229.54C215.29,230.43 213.86,232.25 213.25,233.04C212.94,233.44 212.87,233.55 212.55,233.95C211.9,234.78 210.17,236.96 209.58,237.7C209.33,238.01 209.3,238.05 209.05,238.36C208.44,239.12 206.47,241.54 205.9,242.24C205.69,242.5 205.68,242.52 205.46,242.78C204.88,243.48 202.81,245.96 202.22,246.66C202,246.92 201.99,246.93 201.77,247.19C201.19,247.88 199.18,250.25 198.55,250.98C198.29,251.28 198.26,251.31 198,251.61C197.38,252.31 195.56,254.4 194.87,255.18C194.53,255.56 194.45,255.65 194.11,256.02C193.45,256.75 191.93,258.46 191.19,259.27C190.74,259.76 190.55,259.96 190.11,260.43C189.43,261.16 188.28,262.45 187.52,263.25C186.94,263.86 186.53,264.27 185.98,264.85C185.32,265.54 184.56,266.36 183.84,267.1C183.12,267.83 182.33,268.6 181.67,269.26C181.12,269.81 180.75,270.21 180.16,270.8C179.34,271.62 177.8,273.06 177.16,273.68C176.85,273.98 176.8,274.04 176.48,274.34C175.75,275.03 173.44,277.15 172.81,277.71C172.59,277.9 172.58,277.9 172.37,278.09C171.79,278.6 170.09,280.12 169.13,280.92C168.4,281.53 167.78,281.99 167.15,282.51C166.56,282.99 166.14,283.37 165.45,283.91C164.43,284.71 162.84,285.88 161.575,286.78499999999997C160.39,287.63 159.28,288.4 158.1,289.16C156.91,289.92 155.68,290.66 154.45,291.35C153.23,292.03 151.99,292.7 150.75,293.29C149.53,293.87 148.23,294.42 147.07,294.85C146.07,295.22 144.91,295.53 144.24,295.75C143.87,295.87 143.78,295.93 143.39,296.03C142.6,296.24 140.95,296.62 139.72,296.78C138.5,296.94 137.27,297.04 136.04,297.02C134.81,297 133.56,296.91 132.36,296.68Z" style="stroke-miterlimit: 1; vector-effect: non-scaling-stroke; fill: none; stroke: rgb(195, 161, 78); stroke-opacity: 1; stroke-width: 2px;"/></g><g class="contourlevel"><path class="closedline" d="M139.72,287.43C138.52,287.36 137.35,287.24 136.17000000000002,286.895C134.9,286.53 133.53,285.96 132.36,285.23C131.18,284.5 129.68,283.08 129.12,282.51C128.89,282.28 128.87,282.26 128.69,281.99C128.21,281.3 127.03,279.48 126.42,278.09C125.8,276.66 125.34,275.03 125.03,273.52C124.74,272.09 124.63,270.69 124.58,269.26C124.52,267.8 124.61,266.06 124.71,264.85C124.78,264 124.91,263.42 125.01,262.69C125.11,261.95 125.15,261.3 125.31,260.43C125.53,259.2 125.93,257.48 126.32,256.02C126.71,254.54 127.23,252.89 127.67,251.61C128.02,250.6 128.39,249.73 128.69,248.93C128.93,248.29 129.04,247.9 129.32,247.19C129.77,246.05 130.66,244 131.23,242.78C131.64,241.89 131.99,241.25 132.36,240.5C132.71,239.78 132.96,239.2 133.39,238.36C134.03,237.1 135.06,235.22 135.89999999999998,233.71499999999997C136.7,232.28 137.61,230.71 138.32,229.54C138.84,228.67 139.26,228.04 139.72,227.3C140.17,226.57 140.55,225.93 141.06,225.12C141.72,224.08 142.88,222.35 143.39,221.57C143.64,221.19 143.69,221.11 143.96,220.71C144.57,219.8 146,217.72 147.035,216.24C148.07,214.77 149.54,212.74 150.17,211.88C150.44,211.51 150.49,211.46 150.75,211.1C151.32,210.33 152.79,208.35 153.47,207.46C153.87,206.94 154.03,206.74 154.42,206.23C155.05,205.42 156.21,203.91 156.89,203.05C157.36,202.45 157.63,202.12 158.1,201.53C158.75,200.72 159.75,199.47 160.42,198.64C160.93,198.01 161.27,197.61 161.78,196.99C162.45,196.19 163.41,195.02 164.08,194.22C164.59,193.61 164.93,193.21 165.45,192.6C166.14,191.79 167.18,190.59 167.86,189.81C168.35,189.24 168.63,188.92 169.13,188.35C169.85,187.53 171.1,186.15 171.78,185.39C172.2,184.92 172.37,184.72 172.81,184.24C173.55,183.43 175.2,181.67 175.84,180.98C176.13,180.66 176.18,180.6 176.48,180.28C177.19,179.52 178.89,177.77 180.12,176.52499999999998C181.35,175.28 183.08,173.57 183.84,172.83C184.17,172.51 184.24,172.45 184.56,172.15C185.21,171.53 186.65,170.14 187.52,169.34C188.19,168.73 188.72,168.28 189.33,167.74C189.95,167.19 190.47,166.69 191.19,166.06C192.16,165.21 193.47,164.12 194.675,163.155C195.92,162.15 197.5,160.91 198.55,160.14C199.25,159.63 199.73,159.33 200.33,158.91C200.95,158.47 201.48,158.05 202.22,157.55C203.23,156.87 204.95,155.81 205.9,155.26C206.48,154.92 206.81,154.78 207.34,154.49C208.01,154.13 208.73,153.69 209.58,153.27C210.64,152.75 212.01,152.13 213.25,151.66C214.46,151.2 215.9,150.72 216.93,150.45C217.65,150.26 218.18,150.2 218.8,150.08C219.41,149.96 219.9,149.8 220.61,149.72C221.62,149.6 223.07,149.5 224.28,149.57C225.48,149.64 226.65,149.76 227.82999999999998,150.10500000000002C229.1,150.47 230.47,151.04 231.64,151.77C232.82,152.5 234.32,153.92 234.88,154.49C235.11,154.72 235.13,154.74 235.31,155.01C235.79,155.7 236.97,157.52 237.58,158.91C238.2,160.34 238.66,161.97 238.97,163.48C239.26,164.91 239.37,166.31 239.42,167.74C239.48,169.2 239.39,170.94 239.29,172.15C239.22,173 239.09,173.58 238.99,174.31C238.89,175.05 238.85,175.7 238.69,176.57C238.47,177.8 238.07,179.52 237.68,180.98C237.29,182.46 236.77,184.11 236.33,185.39C235.98,186.4 235.61,187.27 235.31,188.07C235.07,188.71 234.96,189.1 234.68,189.81C234.23,190.95 233.34,193 232.77,194.22C232.36,195.11 232.01,195.75 231.64,196.5C231.29,197.22 231.04,197.8 230.61,198.64C229.97,199.9 228.94,201.78 228.10000000000002,203.28500000000003C227.3,204.72 226.39,206.29 225.68,207.46C225.16,208.33 224.74,208.96 224.28,209.7C223.83,210.43 223.45,211.07 222.94,211.88C222.28,212.92 221.12,214.65 220.61,215.43C220.36,215.81 220.31,215.89 220.04,216.29C219.43,217.2 218,219.28 216.965,220.76C215.93,222.23 214.46,224.26 213.83,225.12C213.56,225.49 213.51,225.54 213.25,225.9C212.68,226.67 211.21,228.65 210.53,229.54C210.13,230.06 209.97,230.26 209.58,230.77C208.95,231.58 207.79,233.09 207.11,233.95C206.64,234.55 206.37,234.88 205.9,235.47C205.25,236.28 204.25,237.53 203.58,238.36C203.07,238.99 202.73,239.39 202.22,240.01C201.55,240.81 200.59,241.98 199.92,242.78C199.41,243.39 199.07,243.79 198.55,244.4C197.86,245.21 196.82,246.41 196.14,247.19C195.65,247.76 195.37,248.08 194.87,248.65C194.15,249.47 192.9,250.85 192.22,251.61C191.8,252.08 191.63,252.28 191.19,252.76C190.45,253.57 188.8,255.33 188.16,256.02C187.87,256.34 187.82,256.4 187.52,256.72C186.81,257.48 185.11,259.23 183.88,260.475C182.65,261.72 180.92,263.43 180.16,264.17C179.83,264.49 179.76,264.55 179.44,264.85C178.79,265.47 177.35,266.86 176.48,267.66C175.81,268.27 175.28,268.72 174.67,269.26C174.05,269.81 173.53,270.31 172.81,270.94C171.84,271.79 170.53,272.88 169.325,273.845C168.08,274.85 166.5,276.09 165.45,276.86C164.75,277.37 164.27,277.67 163.67,278.09C163.05,278.53 162.52,278.95 161.78,279.45C160.77,280.13 159.05,281.19 158.1,281.74C157.52,282.08 157.19,282.22 156.66,282.51C155.99,282.87 155.27,283.31 154.42,283.73C153.36,284.25 151.99,284.87 150.75,285.34C149.54,285.8 148.1,286.28 147.07,286.55C146.35,286.74 145.82,286.8 145.2,286.92C144.59,287.04 144.1,287.2 143.39,287.28C142.38,287.4 140.93,287.5 139.72,287.43Z" style="stroke-miterlimit: 1; vector-effect: non-scaling-stroke; fill: none; stroke: rgb(207, 188, 102); stroke-opacity: 1; stroke-width: 2px;"/></g><g class="contourlevel"><path class="closedline" d="M135.975,273.755C134.93,272.52 134.16,270.79 133.6,269.26C133.07,267.82 132.81,266.33 132.64,264.85C132.47,263.39 132.49,261.9 132.57,260.43C132.65,258.96 132.86,257.48 133.11,256.02C133.37,254.54 133.72,253.07 134.11,251.61C134.5,250.13 135.08,248.26 135.46,247.19C135.68,246.57 135.82,246.3 136.04,245.73C136.36,244.92 136.72,243.86 137.16,242.78C137.71,241.45 138.65,239.34 139.13,238.36C139.37,237.85 139.48,237.71 139.72,237.23C140.13,236.42 140.77,235.07 141.36,233.95C141.99,232.76 142.97,231.06 143.39,230.3C143.58,229.95 143.61,229.9 143.81,229.54C144.31,228.67 145.88,226.05 146.46,225.12C146.73,224.68 146.8,224.59 147.07,224.17C147.58,223.38 148.62,221.72 149.29,220.71C149.82,219.91 150.26,219.3 150.75,218.57C151.26,217.82 151.73,217.1 152.29,216.29C152.94,215.36 153.84,214.12 154.42,213.31C154.82,212.75 155.02,212.46 155.45,211.88C156.13,210.96 157.51,209.13 158.1,208.34C158.39,207.95 158.46,207.85 158.76,207.46C159.4,206.63 161.22,204.32 161.78,203.61C161.99,203.34 162,203.32 162.22,203.05C162.82,202.3 164.49,200.25 165.64,198.865C166.79,197.48 168.5,195.47 169.13,194.75C169.36,194.49 169.37,194.48 169.6,194.22C170.19,193.55 172.12,191.37 172.81,190.6C173.14,190.24 173.22,190.16 173.54,189.81C174.19,189.1 175.71,187.44 176.48,186.63C176.96,186.12 177.21,185.88 177.68,185.39C178.36,184.69 179.38,183.61 180.16,182.83C180.83,182.16 181.44,181.59 182.06,180.98C182.66,180.39 183.17,179.87 183.84,179.23C184.68,178.43 186.07,177.18 186.73,176.57C187.08,176.25 187.16,176.16 187.52,175.83C188.29,175.14 190.46,173.25 191.19,172.65C191.49,172.41 191.54,172.38 191.83,172.15C192.47,171.64 193.87,170.47 194.87,169.71C195.8,169.01 196.93,168.23 197.6,167.74C198,167.45 198.12,167.33 198.55,167.04C199.37,166.47 201.11,165.33 202.22,164.67C203.11,164.14 204,163.7 204.68,163.32C205.16,163.05 205.38,162.89 205.9,162.63C206.79,162.18 208.34,161.47 209.58,161C210.79,160.54 212.02,160.12 213.25,159.81C214.47,159.51 215.7,159.25 216.93,159.16C218.15,159.07 219.4,159.04 220.61,159.24C221.85,159.44 223.1,159.78 224.28,160.39C225.58,161.06 227.02,162.05 228.025,163.245C229.07,164.48 229.84,166.21 230.4,167.74C230.93,169.18 231.19,170.67 231.36,172.15C231.53,173.61 231.51,175.1 231.43,176.57C231.35,178.04 231.14,179.52 230.89,180.98C230.63,182.46 230.28,183.93 229.89,185.39C229.5,186.87 228.92,188.74 228.54,189.81C228.32,190.43 228.18,190.7 227.96,191.27C227.64,192.08 227.28,193.14 226.84,194.22C226.29,195.55 225.35,197.66 224.87,198.64C224.63,199.15 224.52,199.29 224.28,199.77C223.87,200.58 223.23,201.93 222.64,203.05C222.01,204.24 221.03,205.94 220.61,206.7C220.42,207.05 220.39,207.1 220.19,207.46C219.69,208.33 218.12,210.95 217.54,211.88C217.27,212.32 217.2,212.41 216.93,212.83C216.42,213.62 215.38,215.28 214.71,216.29C214.18,217.09 213.74,217.7 213.25,218.43C212.74,219.18 212.27,219.9 211.71,220.71C211.06,221.64 210.16,222.88 209.58,223.69C209.18,224.25 208.98,224.54 208.55,225.12C207.87,226.04 206.49,227.87 205.9,228.66C205.61,229.05 205.54,229.15 205.24,229.54C204.6,230.37 202.78,232.68 202.22,233.39C202.01,233.66 202,233.68 201.78,233.95C201.18,234.7 199.51,236.75 198.36,238.135C197.21,239.52 195.5,241.53 194.87,242.25C194.64,242.51 194.63,242.52 194.4,242.78C193.81,243.45 191.88,245.63 191.19,246.4C190.86,246.76 190.78,246.84 190.46,247.19C189.81,247.9 188.29,249.56 187.52,250.37C187.04,250.88 186.79,251.12 186.32,251.61C185.64,252.31 184.62,253.39 183.84,254.17C183.17,254.84 182.56,255.41 181.94,256.02C181.34,256.61 180.83,257.13 180.16,257.77C179.32,258.57 177.93,259.82 177.27,260.43C176.92,260.75 176.84,260.84 176.48,261.17C175.71,261.86 173.54,263.75 172.81,264.35C172.51,264.59 172.46,264.62 172.17,264.85C171.53,265.36 170.13,266.53 169.13,267.29C168.2,267.99 167.07,268.77 166.4,269.26C166,269.55 165.88,269.67 165.45,269.96C164.63,270.53 162.89,271.67 161.78,272.33C160.89,272.86 160,273.3 159.32,273.68C158.84,273.95 158.62,274.11 158.1,274.37C157.21,274.82 155.66,275.53 154.42,276C153.21,276.46 151.98,276.88 150.75,277.19C149.53,277.49 148.3,277.75 147.07,277.84C145.85,277.93 144.6,277.96 143.39,277.76C142.15,277.56 140.9,277.22 139.72,276.61C138.42,275.94 136.98,274.95 135.975,273.755Z" style="stroke-miterlimit: 1; vector-effect: non-scaling-stroke; fill: none; stroke: rgb(219, 216, 134); stroke-opacity: 1; stroke-width: 2px;"/></g><g class="contourlevel"><path class="closedline" d="M147.07,267.24C145.8,266.71 144.4,265.87 143.45999999999998,264.77C142.48,263.62 141.84,261.92 141.4,260.43C140.98,259 140.87,257.49 140.82,256.02C140.77,254.55 140.92,253.07 141.12,251.61C141.32,250.13 141.64,248.66 142.01,247.19C142.38,245.69 142.84,244.17 143.355,242.695C143.86,241.23 144.46,239.8 145.07,238.36C145.69,236.89 146.36,235.41 147.07,233.95C147.79,232.47 148.71,230.77 149.39,229.54C149.89,228.63 150.31,227.95 150.75,227.19C151.16,226.48 151.45,225.93 151.93,225.12C152.62,223.96 153.63,222.34 154.55,220.91500000000002C155.53,219.4 157.08,217.12 157.65,216.29C157.86,215.98 157.89,215.96 158.1,215.66C158.62,214.93 160.14,212.8 160.82,211.88C161.22,211.34 161.39,211.12 161.78,210.6C162.4,209.78 163.49,208.33 164.17,207.46C164.66,206.83 164.96,206.45 165.45,205.84C166.09,205.03 167.04,203.86 167.71,203.05C168.24,202.41 168.6,201.98 169.13,201.35C169.81,200.55 170.79,199.42 171.46,198.64C171.97,198.05 172.28,197.68 172.81,197.09C173.53,196.28 174.74,194.96 175.42,194.22C175.85,193.75 176.03,193.55 176.48,193.07C177.25,192.26 179.02,190.44 179.63,189.81C179.88,189.55 179.9,189.53 180.16,189.27C180.85,188.58 182.75,186.72 184.01,185.545C185.2,184.44 186.55,183.23 187.52,182.4C188.19,181.83 188.65,181.47 189.24,180.98C189.87,180.46 190.43,179.95 191.19,179.35C192.22,178.54 193.63,177.44 194.87,176.57C196.08,175.72 197.32,174.91 198.55,174.16C199.75,173.43 200.92,172.72 202.15,172.11C203.37,171.5 204.64,170.94 205.9,170.49C207.12,170.05 208.34,169.66 209.58,169.42C210.79,169.19 212.03,169 213.25,169.06C214.48,169.12 215.76,169.27 216.93,169.76C218.2,170.29 219.6,171.13 220.54000000000002,172.23000000000002C221.52,173.38 222.16,175.08 222.6,176.57C223.02,178 223.13,179.51 223.18,180.98C223.23,182.45 223.08,183.93 222.88,185.39C222.68,186.87 222.36,188.34 221.99,189.81C221.62,191.31 221.16,192.83 220.645,194.305C220.14,195.77 219.54,197.2 218.93,198.64C218.31,200.11 217.64,201.59 216.93,203.05C216.21,204.53 215.29,206.23 214.61,207.46C214.11,208.37 213.69,209.05 213.25,209.81C212.84,210.52 212.55,211.07 212.07,211.88C211.38,213.04 210.37,214.66 209.45,216.08499999999998C208.47,217.6 206.92,219.88 206.35,220.71C206.14,221.02 206.11,221.04 205.9,221.34C205.38,222.07 203.86,224.2 203.18,225.12C202.78,225.66 202.61,225.88 202.22,226.4C201.6,227.22 200.51,228.67 199.83,229.54C199.34,230.17 199.04,230.55 198.55,231.16C197.91,231.97 196.96,233.14 196.29,233.95C195.76,234.59 195.4,235.02 194.87,235.65C194.19,236.45 193.21,237.58 192.54,238.36C192.03,238.95 191.72,239.32 191.19,239.91C190.47,240.72 189.26,242.04 188.58,242.78C188.15,243.25 187.97,243.45 187.52,243.93C186.75,244.74 184.98,246.56 184.37,247.19C184.12,247.45 184.1,247.47 183.84,247.73C183.15,248.42 181.25,250.28 179.99,251.455C178.8,252.56 177.45,253.77 176.48,254.6C175.81,255.17 175.35,255.53 174.76,256.02C174.13,256.54 173.57,257.05 172.81,257.65C171.78,258.46 170.37,259.56 169.13,260.43C167.92,261.28 166.68,262.09 165.45,262.84C164.25,263.57 163.08,264.28 161.85,264.89C160.63,265.5 159.36,266.06 158.1,266.51C156.88,266.95 155.66,267.34 154.42,267.58C153.21,267.81 151.97,268 150.75,267.94C149.52,267.88 148.24,267.73 147.07,267.24Z" style="stroke-miterlimit: 1; vector-effect: non-scaling-stroke; fill: none; stroke: rgb(232, 245, 171); stroke-opacity: 1; stroke-width: 2px;"/></g></g></g></g></g><g class="overplot"/><path class="xlines-above crisp" d="" style="fill: none; stroke-width: 1px; stroke: rgb(0, 0, 0); stroke-opacity: 0;"/><path class="ylines-above crisp" d="" style="fill: none; stroke-width: 1px; stroke: rgb(0, 0, 0); stroke-opacity: 0;"/><g class="overlines-above"/><g class="xaxislayer-above"><path class="xtick ticks crisp" d="M0,478v5" transform="translate(84.61,0)" style="stroke: rgb(51, 51, 51); stroke-opacity: 1; stroke-width: 1px;"/><path class="xtick ticks crisp" d="M0,478v5" transform="translate(208,0)" style="stroke: rgb(51, 51, 51); stroke-opacity: 1; stroke-width: 1px;"/><path class="xtick ticks crisp" d="M0,478v5" transform="translate(331.39,0)" style="stroke: rgb(51, 51, 51); stroke-opacity: 1; stroke-width: 1px;"/><g class="xtick"><text text-anchor="middle" x="0" y="497.4" transform="translate(84.61,0)" style="font-family: 'Open Sans', verdana, arial, sans-serif; font-size: 12px; fill: rgb(51, 51, 51); fill-opacity: 1; white-space: pre; opacity: 1;">2</text></g><g class="xtick"><text text-anchor="middle" x="0" y="497.4" style="font-family: 'Open Sans', verdana, arial, sans-serif; font-size: 12px; fill: rgb(51, 51, 51); fill-opacity: 1; white-space: pre; opacity: 1;" transform="translate(208,0)">0</text></g><g class="xtick"><text text-anchor="middle" x="0" y="497.4" style="font-family: 'Open Sans', verdana, arial, sans-serif; font-size: 12px; fill: rgb(51, 51, 51); fill-opacity: 1; white-space: pre; opacity: 1;" transform="translate(331.39,0)">2</text></g></g><g class="yaxislayer-above"><path class="ytick ticks crisp" d="M25,0h-5" transform="translate(0,406.64)" style="stroke: rgb(51, 51, 51); stroke-opacity: 1; stroke-width: 1px;"/><path class="ytick ticks crisp" d="M25,0h-5" transform="translate(0,332.57)" style="stroke: rgb(51, 51, 51); stroke-opacity: 1; stroke-width: 1px;"/><path class="ytick ticks crisp" d="M25,0h-5" transform="translate(0,258.5)" style="stroke: rgb(51, 51, 51); stroke-opacity: 1; stroke-width: 1px;"/><path class="ytick ticks crisp" d="M25,0h-5" transform="translate(0,184.43)" style="stroke: rgb(51, 51, 51); stroke-opacity: 1; stroke-width: 1px;"/><path class="ytick ticks crisp" d="M25,0h-5" transform="translate(0,110.36)" style="stroke: rgb(51, 51, 51); stroke-opacity: 1; stroke-width: 1px;"/><g class="ytick"><text text-anchor="end" x="17.6" y="4.199999999999999" transform="translate(0,406.64)" style="font-family: 'Open Sans', verdana, arial, sans-serif; font-size: 12px; fill: rgb(51, 51, 51); fill-opacity: 1; white-space: pre; opacity: 1;">2</text></g><g class="ytick"><text text-anchor="end" x="17.6" y="4.199999999999999" style="font-family: 'Open Sans', verdana, arial, sans-serif; font-size: 12px; fill: rgb(51, 51, 51); fill-opacity: 1; white-space: pre; opacity: 1;" transform="translate(0,332.57)">1</text></g><g class="ytick"><text text-anchor="end" x="17.6" y="4.199999999999999" style="font-family: 'Open Sans', verdana, arial, sans-serif; font-size: 12px; fill: rgb(51, 51, 51); fill-opacity: 1; white-space: pre; opacity: 1;" transform="translate(0,258.5)">0</text></g><g class="ytick"><text text-anchor="end" x="17.6" y="4.199999999999999" style="font-family: 'Open Sans', verdana, arial, sans-serif; font-size: 12px; fill: rgb(51, 51, 51); fill-opacity: 1; white-space: pre; opacity: 1;" transform="translate(0,184.43)">1</text></g><g class="ytick"><text text-anchor="end" x="17.6" y="4.199999999999999" style="font-family: 'Open Sans', verdana, arial, sans-serif; font-size: 12px; fill: rgb(51, 51, 51); fill-opacity: 1; white-space: pre; opacity: 1;" transform="translate(0,110.36)">2</text></g></g><g class="overaxes-above"/></g></g><g class="polarlayer"/><g class="ternarylayer"/><g class="geolayer"/><g class="funnelarealayer"/><g class="pielayer"/><g class="iciclelayer"/><g class="treemaplayer"/><g class="sunburstlayer"/><g class="glimages"/><defs id="topdefs-00b6a8"><g class="clips"/></defs><g class="layer-above"><g class="imagelayer"/><g class="shapelayer"/></g><g class="infolayer"><g class="cba302c0 colorbar" transform="translate(26,40)"><rect class="cbbg" x="371" y="0" width="102.28125" height="437" style="fill: rgb(0, 0, 0); fill-opacity: 0; stroke: rgb(68, 68, 68); stroke-opacity: 1; stroke-width: 0;"/><g class="cbfills" transform="translate(0,10)"/><g class="cblines" transform="translate(0,10)"><path class="cbline" d="M381,417h30" style="fill: none; stroke: rgb(34, 30, 27); stroke-opacity: 1; stroke-width: 2px;"/><path class="cbline" d="M381,375h30" style="fill: none; stroke: rgb(59, 46, 38); stroke-opacity: 1; stroke-width: 2px;"/><path class="cbline" d="M381,334h30" style="fill: none; stroke: rgb(85, 62, 47); stroke-opacity: 1; stroke-width: 2px;"/><path class="cbline" d="M381,292h30" style="fill: none; stroke: rgb(112, 77, 54); stroke-opacity: 1; stroke-width: 2px;"/><path class="cbline" d="M381,250h30" style="fill: none; stroke: rgb(138, 93, 57); stroke-opacity: 1; stroke-width: 2px;"/><path class="cbline" d="M381,209h30" style="fill: none; stroke: rgb(161, 112, 59); stroke-opacity: 1; stroke-width: 2px;"/><path class="cbline" d="M381,167h30" style="fill: none; stroke: rgb(180, 134, 64); stroke-opacity: 1; stroke-width: 2px;"/><path class="cbline" d="M381,125h30" style="fill: none; stroke: rgb(195, 161, 78); stroke-opacity: 1; stroke-width: 2px;"/><path class="cbline" d="M381,83h30" style="fill: none; stroke: rgb(207, 188, 102); stroke-opacity: 1; stroke-width: 2px;"/><path class="cbline" d="M381,42h30" style="fill: none; stroke: rgb(219, 216, 134); stroke-opacity: 1; stroke-width: 2px;"/><path class="cbline" d="M381,0h30" style="fill: none; stroke: rgb(232, 245, 171); stroke-opacity: 1; stroke-width: 2px;"/></g><g class="cbaxis crisp" transform="translate(0,-40)"><path class="ycba302c0tick ticks crisp" d="M410.5,0h-6" transform="translate(0,383.6)" style="stroke: rgb(237, 237, 237); stroke-opacity: 1; stroke-width: 1px;"/><path class="ycba302c0tick ticks crisp" d="M410.5,0h-6" transform="translate(0,300.2)" style="stroke: rgb(237, 237, 237); stroke-opacity: 1; stroke-width: 1px;"/><path class="ycba302c0tick ticks crisp" d="M410.5,0h-6" transform="translate(0,216.8)" style="stroke: rgb(237, 237, 237); stroke-opacity: 1; stroke-width: 1px;"/><path class="ycba302c0tick ticks crisp" d="M410.5,0h-6" transform="translate(0,133.40000000000003)" style="stroke: rgb(237, 237, 237); stroke-opacity: 1; stroke-width: 1px;"/><g class="ycba302c0tick"><text text-anchor="start" x="413.9" y="4.199999999999999" transform="translate(0,467)" style="font-family: 'Open Sans', verdana, arial, sans-serif; font-size: 12px; fill: rgb(51, 51, 51); fill-opacity: 1; white-space: pre; opacity: 1;">0</text></g><g class="ycba302c0tick"><text text-anchor="start" x="413.9" y="4.199999999999999" style="font-family: 'Open Sans', verdana, arial, sans-serif; font-size: 12px; fill: rgb(51, 51, 51); fill-opacity: 1; white-space: pre; opacity: 1;" transform="translate(0,383.6)">0.0366</text></g><g class="ycba302c0tick"><text text-anchor="start" x="413.9" y="4.199999999999999" style="font-family: 'Open Sans', verdana, arial, sans-serif; font-size: 12px; fill: rgb(51, 51, 51); fill-opacity: 1; white-space: pre; opacity: 1;" transform="translate(0,300.2)">0.0732</text></g><g class="ycba302c0tick"><text text-anchor="start" x="413.9" y="4.199999999999999" style="font-family: 'Open Sans', verdana, arial, sans-serif; font-size: 12px; fill: rgb(51, 51, 51); fill-opacity: 1; white-space: pre; opacity: 1;" transform="translate(0,216.8)">0.1098</text></g><g class="ycba302c0tick"><text text-anchor="start" x="413.9" y="4.199999999999999" style="font-family: 'Open Sans', verdana, arial, sans-serif; font-size: 12px; fill: rgb(51, 51, 51); fill-opacity: 1; white-space: pre; opacity: 1;" transform="translate(0,133.40000000000003)">0.1463</text></g><g class="ycba302c0tick"><text text-anchor="start" x="413.9" y="4.199999999999999" style="font-family: 'Open Sans', verdana, arial, sans-serif; font-size: 12px; fill: rgb(51, 51, 51); fill-opacity: 1; white-space: pre; opacity: 1;" transform="translate(0,50.000000000000014)">0.1829</text></g></g><g class="cbtitleunshift" transform="translate(-26,-40)"><g class="cbtitle"/></g><rect class="cboutline" x="381" y="10" width="30" height="417" style="stroke: rgb(68, 68, 68); stroke-opacity: 1; fill: none; stroke-width: 0;"/></g><g class="g-gtitle"><text class="gtitle" x="250" y="20" text-anchor="middle" dy="0em" style="font-family: 'Open Sans', verdana, arial, sans-serif; font-size: 17px; fill: rgb(51, 51, 51); opacity: 1; font-weight: normal; white-space: pre;">Frank copula</text></g><g class="g-xtitle"/><g class="g-ytitle"/></g></svg>