<svg class="main-svg" xmlns="http://www.w3.org/2000/svg" xmlns:xlink="http://www.w3.org/1999/xlink" width="1500" height="1500" style="" viewBox="0 0 500 500"><rect x="0" y="0" width="500" height="500" style="fill: rgb(255, 255, 255); fill-opacity: 1;"/><defs id="defs-adac7a"><g class="clips"><clipPath id="clipadac7axyplot" class="plotclip"><rect width="370" height="437"/></clipPath><clipPath class="axesclip" id="clipadac7ax"><rect x="28" y="0" width="370" height="500"/></clipPath><clipPath class="axesclip" id="clipadac7ay"><rect x="0" y="40" width="500" height="437"/></clipPath><clipPath class="axesclip" id="clipadac7axy"><rect x="28" y="40" width="370" height="437"/></clipPath><clipPath class="contourclip" id="clip2f5390"><path d="M0,0L370,0L370,437L0,437Z"/></clipPath></g><g class="gradients"/><g class="patterns"/></defs><g class="bglayer"><rect class="bg" x="28" y="40" width="370" height="437" style="fill: rgb(237, 237, 237); fill-opacity: 1; stroke-width: 0;"/></g><g class="layer-below"><g class="imagelayer"/><g class="shapelayer"/></g><g class="cartesianlayer"><g class="subplot xy"><g class="layer-subplot"><g class="shapelayer"/><g class="imagelayer"/></g><g class="gridlayer"><g class="x"><path class="xgrid crisp" transform="translate(89.67,0)" d="M0,40v437" style="stroke: rgb(255, 255, 255); stroke-opacity: 1; stroke-width: 1px;"/><path class="xgrid crisp" transform="translate(171.89,0)" d="M0,40v437" style="stroke: rgb(255, 255, 255); stroke-opacity: 1; stroke-width: 1px;"/><path class="xgrid crisp" transform="translate(254.11,0)" d="M0,40v437" style="stroke: rgb(255, 255, 255); stroke-opacity: 1; stroke-width: 1px;"/><path class="xgrid crisp" transform="translate(336.33,0)" d="M0,40v437" style="stroke: rgb(255, 255, 255); stroke-opacity: 1; stroke-width: 1px;"/></g><g class="y"><path class="ygrid crisp" transform="translate(0,452.72)" d="M28,0h370" style="stroke: rgb(255, 255, 255); stroke-opacity: 1; stroke-width: 1px;"/><path class="ygrid crisp" transform="translate(0,404.17)" d="M28,0h370" style="stroke: rgb(255, 255, 255); stroke-opacity: 1; stroke-width: 1px;"/><path class="ygrid crisp" transform="translate(0,355.61)" d="M28,0h370" style="stroke: rgb(255, 255, 255); stroke-opacity: 1; stroke-width: 1px;"/><path class="ygrid crisp" transform="translate(0,307.06)" d="M28,0h370" style="stroke: rgb(255, 255, 255); stroke-opacity: 1; stroke-width: 1px;"/><path class="ygrid crisp" transform="translate(0,258.5)" d="M28,0h370" style="stroke: rgb(255, 255, 255); stroke-opacity: 1; stroke-width: 1px;"/><path class="ygrid crisp" transform="translate(0,209.94)" d="M28,0h370" style="stroke: rgb(255, 255, 255); stroke-opacity: 1; stroke-width: 1px;"/><path class="ygrid crisp" transform="translate(0,161.39)" d="M28,0h370" style="stroke: rgb(255, 255, 255); stroke-opacity: 1; stroke-width: 1px;"/><path class="ygrid crisp" transform="translate(0,112.83)" d="M28,0h370" style="stroke: rgb(255, 255, 255); stroke-opacity: 1; stroke-width: 1px;"/><path class="ygrid crisp" transform="translate(0,64.28)" d="M28,0h370" style="stroke: rgb(255, 255, 255); stroke-opacity: 1; stroke-width: 1px;"/></g></g><g class="zerolinelayer"/><path class="xlines-below"/><path class="ylines-below"/><g class="overlines-below"/><g class="xaxislayer-below"/><g class="yaxislayer-below"/><g class="overaxes-below"/><g class="plot" transform="translate(28,40)" clip-path="url(#clipadac7axyplot)"><g class="contourlayer mlayer"><g class="contour" clip-path="url(#clip2f5390)" style="opacity: 1;"><g class="heatmapcoloring"/><g class="contourbg"/><g class="contourfill"/><g class="contourlines"><g class="contourlevel"><path class="openline" d="M370,371.04Q367.57,373.87 366.34000000000003,375.29499999999996C365.09,376.75 363.83,378.22 362.58,379.68C361.33,381.14 360.07,382.6 358.82000000000005,384.065C357.57,385.53 356.32,386.99 355.065,388.46000000000004C353.81,389.93 352.56,391.39 351.31,392.86C350.06,394.33 348.82,395.79 347.57,397.26C346.32,398.73 345.07,400.2 343.825,401.675C342.58,403.15 341.33,404.61 340.09000000000003,406.08500000000004C338.84,407.56 337.6,409.04 336.355,410.51C335.11,411.98 333.87,413.46 332.63,414.93C331.39,416.4 330.14,417.88 328.9,419.355C327.66,420.83 326.42,422.31 325.17999999999995,423.79499999999996C323.94,425.27 322.7,426.75 321.46500000000003,428.235C320.23,429.72 318.98,431.21 317.755,432.67999999999995Q316.55,434.13 314.16,437" style="stroke-miterlimit: 1; vector-effect: non-scaling-stroke; fill: none; stroke: rgb(34, 30, 27); stroke-opacity: 1; stroke-width: 2px;"/><path class="openline" d="M0,65.96Q2.43,63.13 3.66,61.705C4.91,60.25 6.17,58.78 7.42,57.32C8.67,55.86 9.93,54.4 11.18,52.935C12.43,51.47 13.68,50.01 14.934999999999999,48.540000000000006C16.19,47.07 17.44,45.61 18.69,44.14C19.94,42.67 21.18,41.21 22.43,39.739999999999995C23.68,38.27 24.93,36.8 26.175,35.325C27.42,33.85 28.67,32.39 29.91,30.915C31.16,29.44 32.4,27.96 33.644999999999996,26.490000000000002C34.89,25.02 36.13,23.54 37.37,22.07C38.61,20.6 39.86,19.12 41.1,17.645C42.34,16.17 43.58,14.69 44.82,13.205C46.06,11.73 47.3,10.25 48.535,8.765C49.77,7.28 51.02,5.79 52.245000000000005,4.32Q53.45,2.87 55.84,0" style="stroke-miterlimit: 1; vector-effect: non-scaling-stroke; fill: none; stroke: rgb(34, 30, 27); stroke-opacity: 1; stroke-width: 2px;"/></g><g class="contourlevel"><path class="openline" d="M370,262.07Q368.1,264.11 367.41,264.85C366.95,265.35 366.73,265.58 366.26,266.09C365.51,266.9 364,268.53 363.33,269.26C362.98,269.64 362.89,269.75 362.53,270.14C361.81,270.93 359.87,273.02 359.27,273.68C359.04,273.93 359.03,273.95 358.79,274.21C358.14,274.92 356.38,276.84 355.145,278.195C353.87,279.59 352.55,281.04 351.265,282.46000000000004C349.98,283.88 348.67,285.34 347.40999999999997,286.735C346.2,288.08 344.52,289.95 343.84,290.7C343.57,291 343.54,291.03 343.27,291.33C342.64,292.03 340.8,294.1 340.1,294.88C339.76,295.27 339.67,295.37 339.33,295.75C338.66,296.5 337.08,298.27 336.36,299.08C335.95,299.54 335.8,299.71 335.4,300.16C334.72,300.93 333.35,302.47 332.63,303.29C332.17,303.81 331.95,304.06 331.49,304.58C330.8,305.36 329.61,306.71 328.89,307.52C328.38,308.09 328.1,308.42 327.6,308.99C326.91,309.77 325.86,310.98 325.15,311.78C324.61,312.39 324.25,312.79 323.72,313.4C323.04,314.17 322.1,315.26 321.41,316.05C320.84,316.7 320.43,317.18 319.87,317.82C319.2,318.59 318.36,319.56 317.68,320.34C317.09,321.02 316.61,321.56 316.03,322.23C315.37,322.98 314.6,323.87 313.94,324.64C313.33,325.34 312.8,325.96 312.2,326.65C311.56,327.4 310.85,328.22 310.2,328.97C309.58,329.68 309.01,330.35 308.4,331.06C307.77,331.8 307.1,332.57 306.46,333.31C305.84,334.04 305.23,334.75 304.61,335.47C303.99,336.2 303.36,336.94 302.73,337.68C302.1,338.42 301.47,339.16 300.84,339.89C300.22,340.62 299.61,341.33 298.99,342.06C298.36,342.8 297.71,343.56 297.08,344.3C296.46,345.03 295.87,345.73 295.25,346.46C294.62,347.2 293.97,347.98 293.34,348.72C292.73,349.45 292.13,350.14 291.52,350.87C290.89,351.61 290.24,352.38 289.61,353.13C288.99,353.86 288.39,354.58 287.78,355.31C287.16,356.05 286.52,356.8 285.9,357.55C285.28,358.29 284.66,359.03 284.04,359.77C283.43,360.5 282.83,361.22 282.21,361.96C281.58,362.71 280.92,363.49 280.3,364.24C279.7,364.96 279.13,365.64 278.53,366.37C277.89,367.14 277.2,367.98 276.57,368.74C275.98,369.45 275.46,370.08 274.87,370.79C274.22,371.57 273.47,372.48 272.83,373.25C272.26,373.94 271.79,374.5 271.22,375.2C270.56,376 269.74,377 269.09,377.79C268.55,378.45 268.14,378.95 267.59,379.62C266.92,380.44 266,381.54 265.35,382.34C264.84,382.97 264.5,383.39 263.98,384.03C263.3,384.87 262.28,386.11 261.62,386.92C261.14,387.51 260.86,387.85 260.38,388.44C259.69,389.29 258.54,390.69 257.88,391.51C257.44,392.05 257.23,392.31 256.79,392.86C256.1,393.71 254.79,395.32 254.14,396.13C253.75,396.61 253.61,396.79 253.22,397.27C252.54,398.12 251.03,399.98 250.4,400.77C250.08,401.17 250,401.28 249.67,401.69C249.01,402.52 247.27,404.69 246.67,405.43C246.42,405.74 246.39,405.78 246.13,406.1C245.49,406.9 243.91,408.89 242.77,410.32C241.59,411.81 240.35,413.35 239.15,414.875C237.94,416.4 236.72,417.95 235.54,419.45C234.4,420.91 232.77,422.99 232.17,423.76C231.95,424.04 231.94,424.06 231.72,424.33C231.16,425.04 229.38,427.32 228.72,428.17C228.39,428.59 228.3,428.7 227.98,429.12C227.36,429.91 225.99,431.7 225.3,432.59C224.87,433.15 224.66,433.4 224.24,433.94Q223.61,434.75 221.89,437" style="stroke-miterlimit: 1; vector-effect: non-scaling-stroke; fill: none; stroke: rgb(59, 46, 38); stroke-opacity: 1; stroke-width: 2px;"/><path class="openline" d="M0,174.93Q1.9,172.89 2.59,172.15C3.05,171.65 3.27,171.42 3.74,170.91C4.49,170.1 6,168.47 6.67,167.74C7.02,167.36 7.11,167.25 7.47,166.86C8.19,166.07 10.13,163.98 10.73,163.32C10.96,163.07 10.97,163.05 11.21,162.79C11.86,162.08 13.62,160.16 14.855,158.805C16.13,157.41 17.45,155.96 18.735,154.54000000000002C20.02,153.12 21.33,151.66 22.590000000000003,150.265C23.8,148.92 25.48,147.05 26.16,146.3C26.43,146 26.46,145.97 26.73,145.67C27.36,144.97 29.2,142.9 29.9,142.12C30.24,141.73 30.33,141.63 30.67,141.25C31.34,140.5 32.92,138.73 33.64,137.92C34.05,137.46 34.2,137.29 34.6,136.84C35.28,136.07 36.65,134.53 37.37,133.71C37.83,133.19 38.05,132.94 38.51,132.42C39.2,131.64 40.39,130.29 41.11,129.48C41.62,128.91 41.9,128.58 42.4,128.01C43.09,127.23 44.14,126.02 44.85,125.22C45.39,124.61 45.75,124.21 46.28,123.6C46.96,122.83 47.9,121.74 48.59,120.95C49.16,120.3 49.57,119.82 50.13,119.18C50.8,118.41 51.64,117.44 52.32,116.66C52.91,115.98 53.39,115.44 53.97,114.77C54.63,114.02 55.4,113.13 56.06,112.36C56.67,111.66 57.2,111.04 57.8,110.35C58.44,109.6 59.15,108.78 59.8,108.03C60.42,107.32 60.99,106.65 61.6,105.94C62.23,105.2 62.9,104.43 63.54,103.69C64.16,102.96 64.77,102.25 65.39,101.53C66.01,100.8 66.64,100.06 67.27,99.32C67.9,98.58 68.53,97.84 69.16,97.11C69.78,96.38 70.39,95.67 71.01,94.94C71.64,94.2 72.29,93.44 72.92,92.7C73.54,91.97 74.13,91.27 74.75,90.54C75.38,89.8 76.03,89.02 76.66,88.28C77.27,87.55 77.87,86.86 78.48,86.13C79.11,85.39 79.76,84.62 80.39,83.87C81.01,83.14 81.61,82.42 82.22,81.69C82.84,80.95 83.48,80.2 84.1,79.45C84.72,78.71 85.34,77.97 85.96,77.23C86.57,76.5 87.17,75.78 87.79,75.04C88.42,74.29 89.08,73.51 89.7,72.76C90.3,72.04 90.87,71.36 91.47,70.63C92.11,69.86 92.8,69.02 93.43,68.26C94.02,67.55 94.54,66.92 95.13,66.21C95.78,65.43 96.53,64.52 97.17,63.75C97.74,63.06 98.21,62.5 98.78,61.8C99.44,61 100.26,60 100.91,59.21C101.45,58.55 101.86,58.05 102.41,57.38C103.08,56.56 104,55.46 104.65,54.66C105.16,54.03 105.5,53.61 106.02,52.97C106.7,52.13 107.72,50.89 108.38,50.08C108.86,49.49 109.14,49.15 109.62,48.56C110.31,47.71 111.46,46.31 112.12,45.49C112.56,44.95 112.77,44.69 113.21,44.14C113.9,43.29 115.21,41.68 115.86,40.87C116.25,40.39 116.39,40.21 116.78,39.73C117.46,38.88 118.97,37.02 119.6,36.23C119.92,35.83 120,35.72 120.33,35.31C120.99,34.48 122.73,32.31 123.33,31.57C123.58,31.26 123.61,31.22 123.87,30.9C124.51,30.1 126.09,28.11 127.22999999999999,26.68C128.41,25.19 129.65,23.65 130.85,22.125C132.06,20.6 133.28,19.05 134.46,17.55C135.6,16.09 137.23,14.01 137.83,13.24C138.05,12.96 138.06,12.94 138.28,12.67C138.84,11.96 140.62,9.68 141.28,8.83C141.61,8.41 141.7,8.3 142.02,7.88C142.64,7.09 144.01,5.3 144.7,4.41C145.13,3.85 145.34,3.6 145.76,3.06Q146.39,2.25 148.11,0" style="stroke-miterlimit: 1; vector-effect: non-scaling-stroke; fill: none; stroke: rgb(59, 46, 38); stroke-opacity: 1; stroke-width: 2px;"/></g><g class="contourlevel"><path class="openline" d="M0,226.62Q0.97,225.67 1.53,225.12C2.2,224.46 3,223.66 3.74,222.93C4.48,222.19 5.31,221.38 5.98,220.71C6.53,220.16 6.89,219.79 7.47,219.21C8.28,218.4 9.72,216.97 10.39,216.29C10.75,215.93 10.84,215.84 11.21,215.46C11.99,214.67 13.61,213.04 14.855,211.78C16.17,210.45 17.59,209 18.884999999999998,207.66500000000002C20.1,206.41 21.61,204.85 22.42,204.02C22.84,203.59 22.97,203.46 23.37,203.05C24.06,202.34 25.38,200.95 26.16,200.14C26.72,199.56 27.08,199.2 27.62,198.64C28.3,197.94 29.17,197.01 29.9,196.24C30.57,195.54 31.2,194.88 31.83,194.22C32.44,193.58 33,193 33.64,192.32C34.38,191.54 35.34,190.53 36.02,189.81C36.53,189.26 36.84,188.93 37.37,188.36C38.13,187.54 39.49,186.12 40.17,185.39C40.57,184.97 40.7,184.82 41.11,184.38C41.86,183.58 43.66,181.65 44.29,180.98C44.55,180.7 44.58,180.67 44.85,180.38C45.53,179.64 47.25,177.79 48.485,176.45499999999998C49.76,175.07 51.1,173.61 52.379999999999995,172.215C53.63,170.85 55.45,168.85 56.06,168.18C56.26,167.96 56.27,167.96 56.47,167.74C57.05,167.11 59.11,164.82 59.8,164.06C60.11,163.72 60.17,163.66 60.47,163.32C61.12,162.6 62.82,160.72 63.54,159.92C63.93,159.49 64.06,159.34 64.44,158.91C65.12,158.15 66.54,156.55 67.27,155.74C67.73,155.23 67.94,155 68.39,154.49C69.08,153.72 70.29,152.35 71.01,151.54C71.52,150.97 71.81,150.64 72.31,150.08C73,149.31 74.04,148.12 74.75,147.32C75.3,146.7 75.67,146.28 76.21,145.67C76.88,144.9 77.79,143.86 78.48,143.07C79.06,142.41 79.51,141.9 80.08,141.25C80.74,140.49 81.55,139.57 82.22,138.8C82.82,138.11 83.34,137.52 83.93,136.84C84.58,136.09 85.3,135.25 85.96,134.49C86.58,133.78 87.14,133.12 87.75,132.42C88.39,131.69 89.06,130.91 89.7,130.17C90.33,129.44 90.93,128.73 91.55,128.01C92.17,127.28 92.8,126.54 93.43,125.81C94.06,125.07 94.7,124.33 95.33,123.6C95.95,122.87 96.55,122.16 97.17,121.43C97.8,120.69 98.45,119.92 99.08,119.18C99.7,118.45 100.29,117.75 100.91,117.02C101.54,116.28 102.18,115.51 102.81,114.77C103.43,114.04 104.04,113.32 104.65,112.59C105.27,111.85 105.9,111.09 106.52,110.35C107.14,109.61 107.76,108.87 108.38,108.13C108.99,107.4 109.59,106.68 110.21,105.94C110.84,105.18 111.5,104.39 112.12,103.64C112.72,102.92 113.27,102.26 113.87,101.53C114.51,100.75 115.23,99.89 115.86,99.12C116.44,98.42 116.94,97.82 117.52,97.11C118.17,96.32 118.96,95.36 119.6,94.58C120.15,93.91 120.58,93.38 121.14,92.7C121.81,91.88 122.68,90.81 123.33,90.01C123.85,89.37 124.2,88.93 124.73,88.28C125.41,87.44 126.41,86.21 127.07,85.4C127.55,84.81 127.83,84.47 128.31,83.87C129,83.02 130.16,81.59 130.81,80.77C131.24,80.24 131.43,79.99 131.86,79.45C132.55,78.59 133.91,76.92 134.55,76.11C134.91,75.66 135.03,75.5 135.4,75.04C136.08,74.19 137.67,72.19 138.28,71.42C138.57,71.06 138.62,70.99 138.91,70.63C139.55,69.82 141.48,67.37 142.02,66.69C142.21,66.45 142.21,66.45 142.4,66.21C142.97,65.49 144.66,63.34 145.815,61.87C147,60.36 148.23,58.77 149.4,57.260000000000005C150.53,55.8 152.1,53.78 152.72,52.97C152.96,52.65 152.99,52.62 153.23,52.31C153.8,51.57 155.43,49.44 156.11,48.56C156.48,48.08 156.61,47.91 156.97,47.44C157.59,46.63 158.79,45.04 159.48,44.14C159.96,43.51 160.25,43.15 160.71,42.54C161.32,41.74 162.17,40.6 162.83,39.73C163.4,38.97 163.9,38.32 164.44,37.6C165,36.85 165.56,36.1 166.16,35.31C166.81,34.45 167.58,33.42 168.18,32.62C168.66,31.98 168.96,31.57 169.46,30.9C170.15,29.98 171.32,28.41 171.92,27.6C172.27,27.13 172.38,26.97 172.74,26.48C173.44,25.53 174.77,23.74 175.82999999999998,22.305C176.96,20.77 178.18,19.09 179.31,17.545C180.38,16.08 181.76,14.16 182.43,13.24C182.75,12.8 182.83,12.69 183.13,12.27C183.7,11.47 184.91,9.79 185.6,8.83C186.09,8.14 186.41,7.71 186.87,7.06C187.44,6.27 188.12,5.29 188.75,4.41C189.37,3.54 190.05,2.6 190.61,1.81Q191.08,1.15 191.88,0" style="stroke-miterlimit: 1; vector-effect: non-scaling-stroke; fill: none; stroke: rgb(85, 62, 47); stroke-opacity: 1; stroke-width: 2px;"/><path class="openline" d="M370,210.38Q369.03,211.33 368.47,211.88C367.8,212.54 367,213.34 366.26,214.07C365.52,214.81 364.69,215.62 364.02,216.29C363.47,216.84 363.11,217.21 362.53,217.79C361.72,218.6 360.28,220.03 359.61,220.71C359.25,221.07 359.16,221.16 358.79,221.54C358.01,222.33 356.39,223.96 355.145,225.22C353.83,226.55 352.41,228 351.115,229.33499999999998C349.9,230.59 348.39,232.15 347.58,232.98C347.16,233.41 347.03,233.54 346.63,233.95C345.94,234.66 344.62,236.05 343.84,236.86C343.28,237.44 342.92,237.8 342.38,238.36C341.7,239.06 340.83,239.99 340.1,240.76C339.43,241.46 338.8,242.12 338.17,242.78C337.56,243.42 337,244 336.36,244.68C335.62,245.46 334.66,246.47 333.98,247.19C333.47,247.74 333.16,248.07 332.63,248.64C331.87,249.46 330.51,250.88 329.83,251.61C329.43,252.03 329.3,252.18 328.89,252.62C328.14,253.42 326.34,255.35 325.71,256.02C325.45,256.3 325.42,256.33 325.15,256.62C324.47,257.36 322.75,259.21 321.515,260.545C320.24,261.93 318.9,263.39 317.62,264.785C316.37,266.15 314.55,268.15 313.94,268.82C313.74,269.04 313.73,269.04 313.53,269.26C312.95,269.89 310.89,272.18 310.2,272.94C309.89,273.28 309.83,273.34 309.53,273.68C308.88,274.4 307.18,276.28 306.46,277.08C306.07,277.51 305.94,277.66 305.56,278.09C304.88,278.85 303.46,280.45 302.73,281.26C302.27,281.77 302.06,282 301.61,282.51C300.92,283.28 299.71,284.65 298.99,285.46C298.48,286.03 298.19,286.36 297.69,286.92C297,287.69 295.96,288.88 295.25,289.68C294.7,290.3 294.33,290.72 293.79,291.33C293.12,292.1 292.21,293.14 291.52,293.93C290.94,294.59 290.49,295.1 289.92,295.75C289.26,296.51 288.45,297.43 287.78,298.2C287.18,298.89 286.66,299.48 286.07,300.16C285.42,300.91 284.7,301.75 284.04,302.51C283.42,303.22 282.86,303.88 282.25,304.58C281.61,305.31 280.94,306.09 280.3,306.83C279.67,307.56 279.07,308.27 278.45,308.99C277.83,309.72 277.2,310.46 276.57,311.19C275.94,311.93 275.3,312.67 274.67,313.4C274.05,314.13 273.45,314.84 272.83,315.57C272.2,316.31 271.55,317.08 270.92,317.82C270.3,318.55 269.71,319.25 269.09,319.98C268.46,320.72 267.82,321.49 267.19,322.23C266.57,322.96 265.96,323.68 265.35,324.41C264.73,325.15 264.1,325.91 263.48,326.65C262.86,327.39 262.24,328.13 261.62,328.87C261.01,329.6 260.41,330.32 259.79,331.06C259.16,331.82 258.5,332.61 257.88,333.36C257.28,334.08 256.73,334.74 256.13,335.47C255.49,336.25 254.77,337.11 254.14,337.88C253.56,338.58 253.06,339.18 252.48,339.89C251.83,340.68 251.04,341.64 250.4,342.42C249.85,343.09 249.42,343.62 248.86,344.3C248.19,345.12 247.32,346.19 246.67,346.99C246.15,347.63 245.8,348.07 245.27,348.72C244.59,349.56 243.59,350.79 242.93,351.6C242.45,352.19 242.17,352.53 241.69,353.13C241,353.98 239.84,355.41 239.19,356.23C238.76,356.76 238.57,357.01 238.14,357.55C237.45,358.41 236.09,360.08 235.45,360.89C235.09,361.34 234.97,361.5 234.6,361.96C233.92,362.81 232.33,364.81 231.72,365.58C231.43,365.94 231.38,366.01 231.09,366.37C230.45,367.18 228.52,369.63 227.98,370.31C227.79,370.55 227.79,370.55 227.6,370.79C227.03,371.51 225.34,373.66 224.185,375.13C223,376.64 221.77,378.23 220.6,379.74C219.47,381.2 217.9,383.22 217.28,384.03C217.04,384.35 217.01,384.38 216.77,384.69C216.2,385.43 214.57,387.56 213.89,388.44C213.52,388.92 213.39,389.09 213.03,389.56C212.41,390.37 211.21,391.96 210.52,392.86C210.04,393.49 209.75,393.85 209.29,394.46C208.68,395.26 207.83,396.4 207.17,397.27C206.6,398.03 206.1,398.68 205.56,399.4C205,400.15 204.44,400.9 203.84,401.69C203.19,402.55 202.42,403.58 201.82,404.38C201.34,405.02 201.04,405.43 200.54,406.1C199.85,407.02 198.68,408.59 198.08,409.4C197.73,409.87 197.62,410.03 197.26,410.52C196.56,411.47 195.23,413.26 194.17000000000002,414.695C193.04,416.23 191.82,417.91 190.69,419.455C189.62,420.92 188.24,422.84 187.57,423.76C187.25,424.2 187.17,424.31 186.87,424.73C186.3,425.53 185.09,427.21 184.4,428.17C183.91,428.86 183.59,429.29 183.13,429.94C182.56,430.73 181.88,431.71 181.25,432.59C180.63,433.46 179.95,434.4 179.39,435.19Q178.92,435.85 178.12,437" style="stroke-miterlimit: 1; vector-effect: non-scaling-stroke; fill: none; stroke: rgb(85, 62, 47); stroke-opacity: 1; stroke-width: 2px;"/></g><g class="contourlevel"><path class="openline" d="M0,261.41Q0.66,260.83 1.11,260.43C1.8,259.81 2.89,258.83 3.74,258.07C4.53,257.36 5.36,256.63 6.03,256.02C6.57,255.54 6.88,255.24 7.47,254.71C8.4,253.87 9.84,252.57 11.055,251.46C12.33,250.3 14.16,248.6 14.95,247.87C15.29,247.55 15.36,247.49 15.69,247.19C16.35,246.57 17.83,245.2 18.69,244.39C19.34,243.78 19.82,243.34 20.41,242.78C21.06,242.17 21.7,241.55 22.42,240.87C23.25,240.09 24.4,239.01 25.09,238.36C25.53,237.94 25.7,237.77 26.16,237.33C27.01,236.51 28.57,235.03 29.799999999999997,233.855C31.06,232.64 32.91,230.85 33.64,230.14C33.93,229.85 33.98,229.82 34.26,229.54C34.9,228.91 36.54,227.3 37.37,226.48C37.92,225.94 38.24,225.63 38.76,225.12C39.44,224.45 40.35,223.54 41.11,222.79C41.83,222.08 42.56,221.36 43.22,220.71C43.8,220.13 44.23,219.69 44.85,219.07C45.65,218.26 46.93,216.98 47.62,216.29C48.03,215.88 48.17,215.75 48.59,215.32C49.41,214.5 50.93,212.95 52.155,211.70499999999998C53.46,210.38 54.88,208.93 56.18,207.585C57.42,206.31 59.04,204.64 59.8,203.85C60.15,203.49 60.23,203.4 60.57,203.05C61.24,202.35 62.76,200.76 63.54,199.95C64.05,199.42 64.3,199.15 64.79,198.64C65.48,197.92 66.52,196.81 67.27,196.02C67.89,195.36 68.39,194.85 68.98,194.22C69.63,193.53 70.33,192.79 71.01,192.06C71.71,191.32 72.46,190.51 73.12,189.81C73.7,189.19 74.15,188.7 74.75,188.06C75.49,187.26 76.54,186.13 77.23,185.39C77.72,184.86 77.98,184.58 78.48,184.04C79.23,183.23 80.62,181.73 81.3,180.98C81.69,180.55 81.82,180.41 82.22,179.97C82.95,179.17 84.7,177.28 85.34,176.57C85.63,176.25 85.67,176.2 85.96,175.88C86.66,175.11 88.31,173.29 89.515,171.95C90.77,170.55 92.08,169.09 93.36500000000001,167.66000000000003C94.65,166.23 95.93,164.79 97.2,163.355C98.48,161.92 99.75,160.47 101.015,159.03C102.28,157.58 103.57,156.12 104.815,154.685C106.02,153.3 107.77,151.27 108.38,150.57C108.59,150.33 108.6,150.32 108.81,150.08C109.4,149.41 111.51,146.94 112.12,146.23C112.36,145.96 112.38,145.94 112.61,145.67C113.22,144.97 115.25,142.59 115.86,141.86C116.1,141.57 116.13,141.54 116.37,141.25C116.98,140.52 118.99,138.16 119.6,137.44C119.84,137.15 119.87,137.13 120.11,136.84C120.72,136.12 122.73,133.72 123.33,133C123.56,132.72 123.58,132.7 123.81,132.42C124.41,131.69 126.5,129.2 127.07,128.51C127.28,128.26 127.28,128.26 127.49,128.01C128.09,127.29 129.8,125.22 130.97,123.79499999999999C132.18,122.32 133.43,120.8 134.65,119.305C135.87,117.81 137.09,116.31 138.31,114.8C139.53,113.29 140.74,111.78 141.95499999999998,110.27C143.17,108.76 144.41,107.21 145.58999999999997,105.725C146.72,104.3 148.26,102.36 148.91,101.53C149.18,101.18 149.22,101.13 149.49,100.79C150.09,100.03 151.7,97.98 152.38,97.11C152.75,96.64 152.87,96.48 153.23,96.02C153.86,95.21 155.13,93.59 155.82,92.7C156.28,92.11 156.52,91.8 156.97,91.22C157.6,90.41 158.56,89.15 159.23,88.28C159.77,87.57 160.19,87.05 160.71,86.37C161.31,85.59 161.98,84.69 162.61,83.87C163.23,83.06 163.86,82.24 164.44,81.47C164.97,80.77 165.41,80.19 165.97,79.45C166.64,78.57 167.57,77.34 168.18,76.53C168.61,75.95 168.84,75.64 169.29,75.04C169.98,74.12 171.33,72.32 171.92,71.53C172.22,71.13 172.28,71.04 172.59,70.63C173.26,69.73 174.68,67.82 175.76,66.35499999999999C176.9,64.81 178.12,63.14 179.245,61.599999999999994C180.3,60.15 181.61,58.34 182.31,57.38C182.67,56.88 182.79,56.73 183.13,56.25C183.71,55.44 184.8,53.92 185.48,52.97C186,52.24 186.38,51.72 186.87,51.04C187.42,50.27 188.03,49.41 188.63,48.56C189.27,47.66 190.04,46.59 190.61,45.78C191.05,45.16 191.3,44.8 191.76,44.14C192.45,43.16 193.81,41.22 194.34,40.46C194.58,40.12 194.61,40.08 194.85,39.73C195.45,38.86 196.97,36.69 198,35.195C199,33.75 200.26,31.91 200.95,30.9C201.33,30.35 201.47,30.15 201.82,29.63C202.37,28.82 203.28,27.45 203.94,26.48C204.51,25.63 205.05,24.87 205.56,24.11C206.04,23.41 206.4,22.84 206.92,22.07C207.6,21.05 208.77,19.31 209.29,18.53C209.55,18.14 209.6,18.06 209.87,17.66C210.49,16.73 211.92,14.56 212.905,13.055C213.85,11.62 214.94,9.92 215.65,8.83C216.1,8.14 216.36,7.76 216.77,7.13C217.29,6.33 217.9,5.34 218.5,4.41C219.14,3.41 219.99,2.13 220.51,1.31Q220.85,0.78 221.33,0" style="stroke-miterlimit: 1; vector-effect: non-scaling-stroke; fill: none; stroke: rgb(111, 77, 54); stroke-opacity: 1; stroke-width: 2px;"/><path class="openline" d="M370,175.59Q369.34,176.17 368.89,176.57C368.2,177.19 367.11,178.17 366.26,178.93C365.47,179.64 364.64,180.37 363.97,180.98C363.43,181.46 363.12,181.76 362.53,182.29C361.6,183.13 360.16,184.43 358.94500000000005,185.54C357.67,186.7 355.84,188.4 355.05,189.13C354.71,189.45 354.64,189.51 354.31,189.81C353.65,190.43 352.17,191.8 351.31,192.61C350.66,193.22 350.18,193.66 349.59,194.22C348.94,194.83 348.3,195.45 347.58,196.13C346.75,196.91 345.6,197.99 344.91,198.64C344.47,199.06 344.3,199.23 343.84,199.67C342.99,200.49 341.43,201.97 340.20000000000005,203.145C338.94,204.36 337.09,206.15 336.36,206.86C336.07,207.15 336.02,207.18 335.74,207.46C335.1,208.09 333.46,209.7 332.63,210.52C332.08,211.06 331.76,211.37 331.24,211.88C330.56,212.55 329.65,213.46 328.89,214.21C328.17,214.92 327.44,215.64 326.78,216.29C326.2,216.87 325.77,217.31 325.15,217.93C324.35,218.74 323.07,220.02 322.38,220.71C321.97,221.12 321.83,221.25 321.41,221.68C320.59,222.5 319.07,224.05 317.845,225.29500000000002C316.54,226.62 315.12,228.07 313.82,229.415C312.58,230.69 310.96,232.36 310.2,233.15C309.85,233.51 309.77,233.6 309.43,233.95C308.76,234.65 307.24,236.24 306.46,237.05C305.95,237.58 305.7,237.85 305.21,238.36C304.52,239.08 303.48,240.19 302.73,240.98C302.11,241.64 301.61,242.15 301.02,242.78C300.37,243.47 299.67,244.21 298.99,244.94C298.29,245.68 297.54,246.49 296.88,247.19C296.3,247.81 295.85,248.3 295.25,248.94C294.51,249.74 293.46,250.87 292.77,251.61C292.28,252.14 292.02,252.42 291.52,252.96C290.77,253.77 289.38,255.27 288.7,256.02C288.31,256.45 288.18,256.59 287.78,257.03C287.05,257.83 285.3,259.72 284.66,260.43C284.37,260.75 284.33,260.8 284.04,261.12C283.34,261.89 281.69,263.71 280.485,265.05C279.23,266.45 277.92,267.91 276.635,269.34000000000003C275.35,270.77 274.07,272.21 272.79999999999995,273.645C271.52,275.08 270.25,276.53 268.985,277.97C267.72,279.42 266.43,280.88 265.185,282.315C263.98,283.7 262.23,285.73 261.62,286.43C261.41,286.67 261.4,286.68 261.19,286.92C260.6,287.59 258.49,290.06 257.88,290.77C257.64,291.04 257.62,291.06 257.39,291.33C256.78,292.03 254.75,294.41 254.14,295.14C253.9,295.43 253.87,295.46 253.63,295.75C253.02,296.48 251.01,298.84 250.4,299.56C250.16,299.85 250.13,299.87 249.89,300.16C249.28,300.88 247.27,303.28 246.67,304C246.44,304.28 246.42,304.3 246.19,304.58C245.59,305.31 243.5,307.8 242.93,308.49C242.72,308.74 242.72,308.74 242.51,308.99C241.91,309.71 240.2,311.78 239.03,313.205C237.82,314.68 236.57,316.2 235.35,317.695C234.13,319.19 232.91,320.69 231.69,322.20000000000005C230.47,323.71 229.26,325.22 228.04500000000002,326.73C226.83,328.24 225.59,329.79 224.41000000000003,331.275C223.28,332.7 221.74,334.64 221.09,335.47C220.82,335.82 220.78,335.87 220.51,336.21C219.91,336.97 218.3,339.02 217.62,339.89C217.25,340.36 217.13,340.52 216.77,340.98C216.14,341.79 214.87,343.41 214.18,344.3C213.72,344.89 213.48,345.2 213.03,345.78C212.4,346.59 211.44,347.85 210.77,348.72C210.23,349.43 209.81,349.95 209.29,350.63C208.69,351.41 208.02,352.31 207.39,353.13C206.77,353.94 206.14,354.76 205.56,355.53C205.03,356.23 204.59,356.81 204.03,357.55C203.36,358.43 202.43,359.66 201.82,360.47C201.39,361.05 201.16,361.36 200.71,361.96C200.02,362.88 198.67,364.68 198.08,365.47C197.78,365.87 197.72,365.96 197.41,366.37C196.74,367.27 195.32,369.18 194.24,370.645C193.1,372.19 191.88,373.86 190.755,375.4C189.7,376.85 188.39,378.66 187.69,379.62C187.33,380.12 187.21,380.27 186.87,380.75C186.29,381.56 185.2,383.08 184.52,384.03C184,384.76 183.62,385.28 183.13,385.96C182.58,386.73 181.97,387.59 181.37,388.44C180.73,389.34 179.96,390.41 179.39,391.22C178.95,391.84 178.7,392.2 178.24,392.86C177.55,393.84 176.19,395.78 175.66,396.54C175.42,396.88 175.39,396.92 175.15,397.27C174.55,398.14 173.03,400.31 172,401.805C171,403.25 169.74,405.09 169.05,406.1C168.67,406.65 168.53,406.85 168.18,407.37C167.63,408.18 166.72,409.55 166.06,410.52C165.49,411.37 164.95,412.13 164.44,412.89C163.96,413.59 163.6,414.16 163.08,414.93C162.4,415.95 161.23,417.69 160.71,418.47C160.45,418.86 160.4,418.94 160.13,419.34C159.51,420.27 158.08,422.44 157.095,423.945C156.15,425.38 155.06,427.08 154.35,428.17C153.9,428.86 153.64,429.24 153.23,429.87C152.71,430.67 152.1,431.66 151.5,432.59C150.86,433.59 150.01,434.87 149.49,435.69Q149.15,436.22 148.67,437" style="stroke-miterlimit: 1; vector-effect: non-scaling-stroke; fill: none; stroke: rgb(111, 77, 54); stroke-opacity: 1; stroke-width: 2px;"/></g><g class="contourlevel"><path class="openline" d="M0,287.98Q0.84,287.33 1.36,286.92C2.04,286.38 2.89,285.7 3.74,285.03C4.73,284.25 6.31,283.01 6.93,282.51C7.19,282.3 7.21,282.27 7.47,282.06C8.16,281.5 10.31,279.76 11.21,279.04C11.71,278.63 11.92,278.47 12.39,278.09C13.08,277.53 14.08,276.7 14.95,275.98C15.86,275.23 17.07,274.25 17.75,273.68C18.15,273.35 18.27,273.24 18.69,272.89C19.52,272.19 21.71,270.36 22.42,269.76C22.71,269.52 22.74,269.49 23.02,269.26C23.66,268.72 25.23,267.38 26.16,266.58C26.91,265.94 27.55,265.4 28.2,264.85C28.79,264.34 29.23,263.96 29.9,263.38C30.87,262.54 32.26,261.35 33.47,260.28499999999997C34.74,259.17 36.51,257.6 37.37,256.85C37.79,256.48 37.92,256.37 38.32,256.02C39.01,255.41 40.24,254.3 41.11,253.52C41.87,252.84 42.59,252.2 43.25,251.61C43.82,251.09 44.22,250.73 44.85,250.16C45.75,249.35 47.52,247.74 48.12,247.19C48.35,246.98 48.36,246.97 48.59,246.76C49.24,246.16 51.61,243.96 52.32,243.31C52.6,243.05 52.64,243.03 52.91,242.78C53.55,242.2 55.19,240.64 56.06,239.83C56.67,239.26 57.07,238.89 57.63,238.36C58.3,237.73 59.05,237.01 59.8,236.3C60.6,235.54 61.59,234.61 62.28,233.95C62.77,233.48 63.01,233.25 63.54,232.74C64.42,231.89 65.85,230.52 67.07,229.33999999999997C68.39,228.06 69.88,226.61 71.2,225.31C72.43,224.1 73.9,222.65 74.75,221.81C75.22,221.34 75.41,221.16 75.86,220.71C76.55,220.02 77.69,218.87 78.48,218.08C79.13,217.43 79.65,216.9 80.26,216.29C80.9,215.65 81.53,215 82.22,214.31C82.98,213.54 83.93,212.58 84.61,211.88C85.12,211.36 85.42,211.05 85.96,210.5C86.75,209.68 88.24,208.15 88.91,207.46C89.26,207.1 89.34,207.01 89.7,206.64C90.46,205.85 92.07,204.18 93.29,202.9C94.58,201.55 95.96,200.1 97.25,198.725C98.5,197.4 100.22,195.55 100.91,194.82C101.18,194.53 101.21,194.5 101.47,194.22C102.1,193.55 103.91,191.59 104.65,190.79C105.05,190.36 105.17,190.23 105.56,189.81C106.24,189.07 107.64,187.54 108.38,186.72C108.87,186.18 109.11,185.91 109.59,185.39C110.28,184.63 111.39,183.4 112.12,182.6C112.68,181.99 113.05,181.58 113.59,180.98C114.27,180.23 115.16,179.22 115.86,178.44C116.46,177.77 116.94,177.23 117.53,176.57C118.18,175.83 118.93,174.99 119.6,174.23C120.23,173.52 120.82,172.85 121.43,172.15C122.06,171.43 122.69,170.7 123.33,169.97C123.98,169.23 124.64,168.47 125.28,167.74C125.89,167.04 126.46,166.38 127.07,165.67C127.72,164.91 128.44,164.07 129.09,163.32C129.69,162.63 130.21,162.02 130.81,161.32C131.46,160.55 132.21,159.68 132.86,158.91C133.45,158.22 133.96,157.62 134.55,156.92C135.2,156.15 135.94,155.26 136.59,154.49C137.18,153.79 137.69,153.17 138.28,152.47C138.92,151.71 139.63,150.85 140.27,150.08C140.87,149.36 141.43,148.69 142.02,147.97C142.64,147.22 143.28,146.43 143.91,145.67C144.53,144.92 145.15,144.16 145.76,143.42C146.36,142.69 146.92,141.99 147.52,141.25C148.16,140.46 148.87,139.58 149.49,138.81C150.05,138.12 150.51,137.55 151.08,136.84C151.74,136.01 152.59,134.95 153.23,134.15C153.74,133.51 154.09,133.08 154.61,132.42C155.29,131.56 156.33,130.25 156.97,129.44C157.41,128.88 157.64,128.59 158.09,128.01C158.78,127.13 160.08,125.48 160.71,124.67C161.06,124.22 161.18,124.07 161.54,123.6C162.21,122.73 163.87,120.58 164.44,119.84C164.68,119.53 164.71,119.5 164.95,119.18C165.57,118.37 167.14,116.33 168.255,114.865C169.42,113.34 170.65,111.7 171.79,110.18C172.88,108.73 174.28,106.84 174.96,105.94C175.28,105.52 175.36,105.42 175.66,105.01C176.25,104.22 177.53,102.47 178.22,101.53C178.69,100.9 178.95,100.55 179.39,99.94C179.98,99.13 180.8,98.01 181.45,97.11C182.04,96.3 182.59,95.55 183.13,94.8C183.65,94.08 184.09,93.47 184.64,92.7C185.31,91.77 186.29,90.42 186.87,89.6C187.25,89.07 187.4,88.84 187.8,88.28C188.51,87.28 189.74,85.55 190.765,84.095C191.86,82.53 193.09,80.78 194.175,79.215C195.18,77.77 196.34,76.08 197.06,75.04C197.49,74.42 197.68,74.14 198.08,73.56C198.63,72.75 199.43,71.57 200.07,70.63C200.67,69.75 201.29,68.85 201.82,68.06C202.27,67.39 202.57,66.93 203.06,66.21C203.75,65.18 205.07,63.24 205.56,62.49C205.77,62.17 205.79,62.13 206.01,61.8C206.56,60.97 208.42,58.15 208.93,57.38C209.11,57.11 209.12,57.1 209.29,56.83C209.75,56.13 211.11,54.03 211.8,52.97C212.28,52.23 212.59,51.76 213.03,51.09C213.53,50.31 214.07,49.46 214.65,48.56C215.31,47.53 216.26,46.07 216.77,45.26C217.07,44.79 217.16,44.64 217.47,44.14C218.11,43.12 219.44,41.03 220.38,39.53C221.28,38.09 222.29,36.46 223,35.31C223.49,34.52 223.81,34.01 224.24,33.31C224.71,32.54 225.17,31.79 225.71,30.9C226.38,29.8 227.53,27.94 227.98,27.19C228.18,26.86 228.2,26.82 228.4,26.48C228.9,25.64 230.46,23.05 231.05,22.07C231.35,21.58 231.44,21.44 231.72,20.97C232.2,20.16 233.03,18.74 233.66,17.66C234.27,16.63 234.97,15.45 235.45,14.63C235.77,14.08 235.92,13.83 236.26,13.24C236.87,12.18 238.34,9.65 238.81,8.83C238.99,8.52 239.01,8.49 239.19,8.18C239.61,7.44 240.67,5.57 241.33,4.41C241.9,3.41 242.48,2.42 242.93,1.61Q243.27,1 243.82,0" style="stroke-miterlimit: 1; vector-effect: non-scaling-stroke; fill: none; stroke: rgb(138, 93, 57); stroke-opacity: 1; stroke-width: 2px;"/><path class="openline" d="M370,149.02Q369.16,149.67 368.64,150.08C367.96,150.62 367.11,151.3 366.26,151.97C365.27,152.75 363.69,153.99 363.07,154.49C362.81,154.7 362.79,154.73 362.53,154.94C361.84,155.5 359.69,157.24 358.79,157.96C358.29,158.37 358.08,158.53 357.61,158.91C356.92,159.47 355.92,160.3 355.05,161.02C354.14,161.77 352.93,162.75 352.25,163.32C351.85,163.65 351.73,163.76 351.31,164.11C350.48,164.81 348.29,166.64 347.58,167.24C347.29,167.48 347.26,167.51 346.98,167.74C346.34,168.28 344.77,169.62 343.84,170.42C343.09,171.06 342.45,171.6 341.8,172.15C341.21,172.66 340.77,173.04 340.1,173.62C339.13,174.46 337.74,175.65 336.53,176.715C335.26,177.83 333.49,179.4 332.63,180.15C332.21,180.52 332.08,180.63 331.68,180.98C330.99,181.59 329.76,182.7 328.89,183.48C328.13,184.16 327.41,184.8 326.75,185.39C326.18,185.91 325.78,186.27 325.15,186.84C324.25,187.65 322.48,189.26 321.88,189.81C321.65,190.02 321.64,190.03 321.41,190.24C320.76,190.84 318.39,193.04 317.68,193.69C317.4,193.95 317.36,193.97 317.09,194.22C316.45,194.8 314.81,196.36 313.94,197.17C313.33,197.74 312.93,198.11 312.37,198.64C311.7,199.27 310.95,199.99 310.2,200.7C309.4,201.46 308.41,202.39 307.72,203.05C307.23,203.52 306.99,203.75 306.46,204.26C305.58,205.11 304.15,206.48 302.93,207.66000000000003C301.61,208.94 300.12,210.39 298.8,211.69C297.57,212.9 296.1,214.35 295.25,215.19C294.78,215.66 294.59,215.84 294.14,216.29C293.45,216.98 292.31,218.13 291.52,218.92C290.87,219.57 290.35,220.1 289.74,220.71C289.1,221.35 288.47,222 287.78,222.69C287.02,223.46 286.07,224.42 285.39,225.12C284.88,225.64 284.58,225.95 284.04,226.5C283.25,227.32 281.76,228.85 281.09,229.54C280.74,229.9 280.66,229.99 280.3,230.36C279.54,231.15 277.93,232.82 276.71000000000004,234.1C275.42,235.45 274.04,236.9 272.75,238.275C271.5,239.6 269.78,241.45 269.09,242.18C268.82,242.47 268.79,242.5 268.53,242.78C267.9,243.45 266.09,245.41 265.35,246.21C264.95,246.64 264.83,246.77 264.44,247.19C263.76,247.93 262.36,249.46 261.62,250.28C261.13,250.82 260.89,251.09 260.41,251.61C259.72,252.37 258.61,253.6 257.88,254.4C257.32,255.01 256.95,255.42 256.41,256.02C255.73,256.77 254.84,257.78 254.14,258.56C253.54,259.23 253.06,259.77 252.47,260.43C251.82,261.17 251.07,262.01 250.4,262.77C249.77,263.48 249.18,264.15 248.57,264.85C247.94,265.57 247.31,266.3 246.67,267.03C246.02,267.77 245.36,268.53 244.72,269.26C244.11,269.96 243.54,270.62 242.93,271.33C242.28,272.09 241.56,272.93 240.91,273.68C240.31,274.37 239.79,274.98 239.19,275.68C238.54,276.45 237.79,277.32 237.14,278.09C236.55,278.78 236.04,279.38 235.45,280.08C234.8,280.85 234.06,281.74 233.41,282.51C232.82,283.21 232.31,283.83 231.72,284.53C231.08,285.29 230.37,286.15 229.73,286.92C229.13,287.64 228.57,288.31 227.98,289.03C227.36,289.78 226.72,290.57 226.09,291.33C225.47,292.08 224.85,292.84 224.24,293.58C223.64,294.31 223.08,295.01 222.48,295.75C221.84,296.54 221.13,297.42 220.51,298.19C219.95,298.88 219.49,299.45 218.92,300.16C218.26,300.99 217.41,302.05 216.77,302.85C216.26,303.49 215.91,303.92 215.39,304.58C214.71,305.44 213.67,306.75 213.03,307.56C212.59,308.12 212.36,308.41 211.91,308.99C211.22,309.87 209.92,311.52 209.29,312.33C208.94,312.78 208.82,312.93 208.46,313.4C207.79,314.27 206.13,316.42 205.56,317.16C205.32,317.47 205.29,317.5 205.05,317.82C204.43,318.63 202.86,320.67 201.745,322.135C200.58,323.66 199.35,325.3 198.21,326.82C197.12,328.27 195.72,330.16 195.04,331.06C194.72,331.48 194.64,331.58 194.34,331.99C193.75,332.78 192.47,334.53 191.78,335.47C191.31,336.1 191.05,336.45 190.61,337.06C190.02,337.87 189.2,338.99 188.55,339.89C187.96,340.7 187.41,341.45 186.87,342.2C186.35,342.92 185.91,343.53 185.36,344.3C184.69,345.23 183.71,346.58 183.13,347.4C182.75,347.93 182.6,348.16 182.2,348.72C181.49,349.72 180.26,351.45 179.235,352.905C178.14,354.47 176.91,356.22 175.825,357.78499999999997C174.82,359.23 173.66,360.92 172.94,361.96C172.51,362.58 172.32,362.86 171.92,363.44C171.37,364.25 170.57,365.43 169.93,366.37C169.33,367.25 168.71,368.15 168.18,368.94C167.73,369.61 167.43,370.07 166.94,370.79C166.25,371.82 164.93,373.76 164.44,374.51C164.23,374.83 164.21,374.87 163.99,375.2C163.44,376.03 161.58,378.85 161.07,379.62C160.89,379.89 160.88,379.9 160.71,380.17C160.25,380.87 158.89,382.97 158.2,384.03C157.72,384.77 157.41,385.24 156.97,385.91C156.47,386.69 155.93,387.54 155.35,388.44C154.69,389.47 153.74,390.93 153.23,391.74C152.93,392.21 152.84,392.36 152.53,392.86C151.89,393.88 150.56,395.97 149.62,397.47C148.72,398.91 147.71,400.54 147,401.69C146.51,402.48 146.19,402.99 145.76,403.69C145.29,404.46 144.83,405.21 144.29,406.1C143.62,407.2 142.47,409.06 142.02,409.81C141.82,410.14 141.8,410.18 141.6,410.52C141.1,411.36 139.54,413.95 138.95,414.93C138.65,415.42 138.56,415.56 138.28,416.03C137.8,416.84 136.97,418.26 136.34,419.34C135.73,420.37 135.03,421.55 134.55,422.37C134.23,422.92 134.08,423.17 133.74,423.76C133.13,424.82 131.66,427.35 131.19,428.17C131.01,428.48 130.99,428.51 130.81,428.82C130.39,429.56 129.33,431.43 128.67,432.59C128.1,433.59 127.52,434.58 127.07,435.39Q126.73,436 126.18,437" style="stroke-miterlimit: 1; vector-effect: non-scaling-stroke; fill: none; stroke: rgb(138, 93, 57); stroke-opacity: 1; stroke-width: 2px;"/></g><g class="contourlevel"><path class="openline" d="M0,309.7Q0.64,309.28 1.08,308.99C1.77,308.53 2.78,307.83 3.74,307.17C4.89,306.39 6.27,305.46 7.515,304.605C8.76,303.75 10.08,302.82 11.21,302.03C12.18,301.36 13.21,300.65 13.9,300.16C14.33,299.86 14.49,299.74 14.95,299.41C15.81,298.79 17.74,297.42 18.69,296.75C19.28,296.34 19.58,296.13 20.11,295.75C20.79,295.26 21.56,294.69 22.42,294.06C23.52,293.26 24.92,292.25 26.17,291.34000000000003C27.42,290.43 28.81,289.38 29.9,288.58C30.74,287.96 31.47,287.42 32.14,286.92C32.69,286.51 33.03,286.24 33.64,285.78C34.6,285.05 36.66,283.5 37.37,282.96C37.66,282.75 37.69,282.72 37.97,282.51C38.61,282.02 40.11,280.85 41.11,280.08C42.01,279.38 43.01,278.63 43.7,278.09C44.16,277.73 44.36,277.57 44.85,277.18C45.74,276.48 47.83,274.84 48.59,274.24C48.92,273.98 48.98,273.93 49.3,273.68C49.96,273.16 51.36,272.02 52.32,271.25C53.19,270.55 54.11,269.82 54.8,269.26C55.29,268.86 55.52,268.67 56.06,268.23C57.01,267.45 58.72,266.06 59.995,265.01C61.21,264.01 62.53,262.9 63.54,262.06C64.29,261.44 64.86,260.97 65.49,260.43C66.1,259.92 66.57,259.5 67.27,258.91C68.25,258.07 69.63,256.92 70.84,255.875C72.12,254.78 73.87,253.25 74.75,252.49C75.2,252.1 75.35,251.98 75.77,251.61C76.46,251.01 77.61,249.98 78.48,249.22C79.28,248.52 80.1,247.79 80.78,247.19C81.32,246.71 81.63,246.42 82.22,245.89C83.15,245.05 84.6,243.76 85.82,242.65C87.09,241.5 88.89,239.85 89.7,239.11C90.07,238.77 90.16,238.69 90.51,238.36C91.18,237.74 92.57,236.44 93.43,235.64C94.11,235.01 94.64,234.53 95.25,233.95C95.88,233.36 96.47,232.79 97.17,232.13C98,231.34 99.21,230.2 99.9,229.54C100.32,229.14 100.47,228.99 100.91,228.56C101.75,227.75 103.33,226.22 104.555,225.025C105.82,223.79 107.67,221.95 108.38,221.26C108.65,220.99 108.68,220.97 108.94,220.71C109.57,220.09 111.31,218.34 112.12,217.53C112.63,217.02 112.88,216.78 113.36,216.29C114.05,215.59 115.09,214.53 115.86,213.75C116.52,213.08 117.07,212.51 117.68,211.88C118.31,211.23 118.93,210.6 119.6,209.9C120.34,209.13 121.26,208.17 121.94,207.46C122.46,206.91 122.79,206.56 123.33,205.99C124.1,205.18 125.42,203.78 126.11,203.05C126.51,202.62 126.66,202.46 127.07,202.02C127.82,201.22 129.57,199.33 130.21,198.64C130.49,198.34 130.53,198.3 130.81,197.99C131.51,197.23 133.19,195.4 134.4,194.055C135.66,192.66 136.97,191.2 138.245,189.765C139.52,188.33 140.8,186.89 142.065,185.44C143.33,183.99 144.59,182.54 145.85,181.08499999999998C147.11,179.63 148.36,178.16 149.60000000000002,176.695C150.85,175.22 152.09,173.74 153.32,172.26C154.56,170.78 155.78,169.29 157.01,167.79000000000002C158.24,166.29 159.46,164.79 160.675,163.28C161.89,161.77 163.12,160.23 164.3,158.735C165.44,157.3 166.99,155.31 167.63,154.49C167.89,154.16 167.93,154.12 168.18,153.79C168.76,153.04 170.37,150.96 171.05,150.08C171.42,149.59 171.56,149.43 171.92,148.95C172.54,148.14 173.72,146.58 174.41,145.67C174.9,145.03 175.19,144.64 175.66,144.02C176.26,143.22 177.07,142.13 177.72,141.25C178.31,140.46 178.84,139.74 179.39,139C179.93,138.27 180.4,137.62 180.97,136.84C181.63,135.93 182.54,134.69 183.13,133.88C183.54,133.31 183.75,133.02 184.18,132.42C184.87,131.46 186.34,129.41 186.87,128.67C187.09,128.36 187.11,128.33 187.34,128.01C187.93,127.18 189.49,124.98 190.53,123.485C191.55,122.03 192.84,120.17 193.52,119.18C193.88,118.66 194,118.48 194.34,117.99C194.9,117.18 195.87,115.75 196.54,114.77C197.1,113.95 197.58,113.25 198.08,112.5C198.57,111.77 198.98,111.15 199.51,110.35C200.19,109.33 201.29,107.7 201.82,106.9C202.1,106.48 202.16,106.38 202.45,105.94C203.08,104.98 204.48,102.86 205.45,101.36500000000001C206.39,99.92 207.48,98.21 208.19,97.11C208.64,96.42 208.88,96.04 209.29,95.41C209.8,94.61 210.41,93.64 211.01,92.7C211.66,91.68 212.52,90.32 213.03,89.5C213.34,89 213.45,88.82 213.78,88.28C214.43,87.24 215.72,85.17 216.645,83.67C217.53,82.23 218.51,80.61 219.22,79.45C219.72,78.63 220.08,78.07 220.51,77.35C220.96,76.6 221.35,75.92 221.88,75.04C222.59,73.85 223.53,72.29 224.375,70.86C225.27,69.35 226.44,67.33 227.1,66.21C227.47,65.58 227.64,65.3 227.98,64.72C228.45,63.91 229.07,62.82 229.66,61.8C230.31,60.67 231.28,59.01 231.72,58.23C231.93,57.85 231.97,57.77 232.19,57.38C232.69,56.48 234.09,54.02 234.68,52.97C235.01,52.39 235.15,52.15 235.45,51.61C235.91,50.8 236.55,49.63 237.14,48.56C237.79,47.38 238.78,45.6 239.19,44.85C239.37,44.52 239.39,44.48 239.57,44.14C240.02,43.3 241.35,40.87 241.97,39.73C242.36,39.01 242.58,38.61 242.93,37.96C243.35,37.17 243.8,36.3 244.33,35.31C245.01,34.03 245.9,32.39 246.675,30.915C247.45,29.44 248.3,27.78 248.98,26.48C249.51,25.46 249.99,24.55 250.4,23.75C250.72,23.12 250.91,22.76 251.26,22.07C251.83,20.95 252.99,18.68 253.51,17.66C253.78,17.12 253.88,16.93 254.14,16.42C254.55,15.61 255.15,14.38 255.72,13.24C256.39,11.9 257.18,10.34 257.905,8.875C258.63,7.4 259.41,5.77 260.07,4.41C260.63,3.27 261.23,2.09 261.62,1.27Q261.87,0.75 262.22,0" style="stroke-miterlimit: 1; vector-effect: non-scaling-stroke; fill: none; stroke: rgb(161, 112, 59); stroke-opacity: 1; stroke-width: 2px;"/><path class="openline" d="M370,127.3Q369.36,127.72 368.92,128.01C368.23,128.47 367.22,129.17 366.26,129.83C365.11,130.61 363.73,131.54 362.485,132.39499999999998C361.24,133.25 359.92,134.18 358.79,134.97C357.82,135.64 356.79,136.35 356.1,136.84C355.67,137.14 355.51,137.26 355.05,137.59C354.19,138.21 352.26,139.58 351.31,140.25C350.72,140.66 350.42,140.87 349.89,141.25C349.21,141.74 348.44,142.31 347.58,142.94C346.48,143.74 345.08,144.75 343.83,145.66C342.58,146.57 341.19,147.62 340.1,148.42C339.26,149.04 338.53,149.58 337.86,150.08C337.31,150.49 336.97,150.76 336.36,151.22C335.4,151.95 333.34,153.5 332.63,154.04C332.34,154.25 332.31,154.28 332.03,154.49C331.39,154.98 329.89,156.15 328.89,156.92C327.99,157.62 326.99,158.37 326.3,158.91C325.84,159.27 325.64,159.43 325.15,159.82C324.26,160.52 322.17,162.16 321.41,162.76C321.08,163.02 321.02,163.07 320.7,163.32C320.04,163.84 318.64,164.98 317.68,165.75C316.81,166.45 315.89,167.18 315.2,167.74C314.71,168.14 314.48,168.33 313.94,168.77C312.99,169.55 311.28,170.94 310.005,171.99C308.79,172.99 307.47,174.1 306.46,174.94C305.71,175.56 305.14,176.03 304.51,176.57C303.9,177.08 303.43,177.5 302.73,178.09C301.75,178.93 300.37,180.08 299.15999999999997,181.125C297.88,182.22 296.13,183.75 295.25,184.51C294.8,184.9 294.65,185.02 294.23,185.39C293.54,185.99 292.39,187.02 291.52,187.78C290.72,188.48 289.9,189.21 289.22,189.81C288.68,190.29 288.37,190.58 287.78,191.11C286.85,191.95 285.4,193.24 284.18,194.35C282.91,195.5 281.11,197.15 280.3,197.89C279.93,198.23 279.84,198.31 279.49,198.64C278.82,199.26 277.43,200.56 276.57,201.36C275.89,201.99 275.36,202.47 274.75,203.05C274.12,203.64 273.53,204.21 272.83,204.87C272,205.66 270.79,206.8 270.1,207.46C269.68,207.86 269.53,208.01 269.09,208.44C268.25,209.25 266.67,210.78 265.44500000000005,211.975C264.18,213.21 262.33,215.05 261.62,215.74C261.35,216.01 261.32,216.03 261.06,216.29C260.43,216.91 258.69,218.66 257.88,219.47C257.37,219.98 257.12,220.22 256.64,220.71C255.95,221.41 254.91,222.47 254.14,223.25C253.48,223.92 252.93,224.49 252.32,225.12C251.69,225.77 251.07,226.4 250.4,227.1C249.66,227.87 248.74,228.83 248.06,229.54C247.54,230.09 247.21,230.44 246.67,231.01C245.9,231.82 244.58,233.22 243.89,233.95C243.49,234.38 243.34,234.54 242.93,234.98C242.18,235.78 240.43,237.67 239.79,238.36C239.51,238.66 239.47,238.7 239.19,239.01C238.49,239.77 236.81,241.6 235.6,242.945C234.34,244.34 233.03,245.8 231.755,247.235C230.48,248.67 229.2,250.11 227.935,251.56C226.67,253.01 225.41,254.46 224.15,255.915C222.89,257.37 221.64,258.84 220.39999999999998,260.305C219.15,261.78 217.91,263.26 216.68,264.74C215.44,266.22 214.22,267.71 212.99,269.21000000000004C211.76,270.71 210.54,272.21 209.325,273.72C208.11,275.23 206.88,276.77 205.7,278.265C204.56,279.7 203.01,281.69 202.37,282.51C202.11,282.84 202.07,282.88 201.82,283.21C201.24,283.96 199.63,286.04 198.95,286.92C198.58,287.41 198.44,287.57 198.08,288.05C197.46,288.86 196.28,290.42 195.59,291.33C195.1,291.97 194.81,292.36 194.34,292.98C193.74,293.78 192.93,294.87 192.28,295.75C191.69,296.54 191.16,297.26 190.61,298C190.07,298.73 189.6,299.38 189.03,300.16C188.37,301.07 187.46,302.31 186.87,303.12C186.46,303.69 186.25,303.98 185.82,304.58C185.13,305.54 183.66,307.59 183.13,308.33C182.91,308.64 182.89,308.67 182.66,308.99C182.07,309.82 180.51,312.02 179.47,313.515C178.45,314.97 177.16,316.83 176.48,317.82C176.12,318.34 176,318.52 175.66,319.01C175.1,319.82 174.13,321.25 173.46,322.23C172.9,323.05 172.42,323.75 171.92,324.5C171.43,325.23 171.02,325.85 170.49,326.65C169.81,327.67 168.71,329.3 168.18,330.1C167.9,330.52 167.84,330.62 167.55,331.06C166.92,332.02 165.52,334.14 164.55,335.635C163.61,337.08 162.52,338.79 161.81,339.89C161.36,340.58 161.12,340.96 160.71,341.59C160.2,342.39 159.59,343.36 158.99,344.3C158.34,345.32 157.48,346.68 156.97,347.5C156.66,348 156.55,348.18 156.22,348.72C155.57,349.76 154.28,351.83 153.355,353.33C152.47,354.77 151.49,356.39 150.78,357.55C150.28,358.37 149.92,358.93 149.49,359.65C149.04,360.4 148.65,361.08 148.12,361.96C147.41,363.15 146.47,364.71 145.625,366.14C144.73,367.65 143.56,369.67 142.9,370.79C142.53,371.42 142.36,371.7 142.02,372.28C141.55,373.09 140.93,374.18 140.34,375.2C139.69,376.33 138.72,377.99 138.28,378.77C138.07,379.15 138.03,379.23 137.81,379.62C137.31,380.52 135.91,382.98 135.32,384.03C134.99,384.61 134.85,384.85 134.55,385.39C134.09,386.2 133.45,387.37 132.86,388.44C132.21,389.62 131.22,391.4 130.81,392.15C130.63,392.48 130.61,392.52 130.43,392.86C129.98,393.7 128.65,396.13 128.03,397.27C127.64,397.99 127.42,398.39 127.07,399.04C126.65,399.83 126.2,400.7 125.67,401.69C124.99,402.97 124.1,404.61 123.32499999999999,406.08500000000004C122.55,407.56 121.7,409.22 121.02,410.52C120.49,411.54 120.01,412.45 119.6,413.25C119.28,413.88 119.09,414.24 118.74,414.93C118.17,416.05 117.01,418.32 116.49,419.34C116.22,419.88 116.12,420.07 115.86,420.58C115.45,421.39 114.85,422.62 114.28,423.76C113.61,425.1 112.82,426.66 112.095,428.125C111.37,429.6 110.59,431.23 109.93,432.59C109.37,433.73 108.77,434.91 108.38,435.73Q108.13,436.25 107.78,437" style="stroke-miterlimit: 1; vector-effect: non-scaling-stroke; fill: none; stroke: rgb(161, 112, 59); stroke-opacity: 1; stroke-width: 2px;"/></g><g class="contourlevel"><path class="openline" d="M0,328.23Q2.22,327.03 2.9,326.65C3.27,326.45 3.36,326.39 3.74,326.17C4.54,325.72 6.24,324.77 7.47,324.08C8.66,323.41 9.79,322.79 10.995000000000001,322.105C12.28,321.38 13.66,320.58 14.95,319.84C16.19,319.13 17.37,318.47 18.595,317.765C19.86,317.04 21.16,316.27 22.42,315.53C23.66,314.8 24.88,314.1 26.115000000000002,313.375C27.37,312.64 28.65,311.87 29.9,311.13C31.13,310.4 32.34,309.69 33.575,308.95000000000005C34.83,308.2 36.12,307.41 37.37,306.66C38.58,305.93 39.74,305.23 40.965,304.485C42.24,303.71 43.62,302.85 44.85,302.1C45.96,301.42 47.37,300.55 48,300.16C48.28,299.99 48.31,299.97 48.59,299.79C49.3,299.35 51.17,298.17 52.32,297.45C53.3,296.84 54.36,296.19 55.05,295.75C55.47,295.48 55.62,295.38 56.06,295.1C56.91,294.55 58.72,293.41 59.8,292.72C60.63,292.19 61.32,291.76 61.99,291.33C62.55,290.97 62.91,290.74 63.54,290.33C64.51,289.7 66.3,288.54 67.27,287.91C67.89,287.51 68.25,287.28 68.81,286.92C69.48,286.48 70.18,286.01 71.01,285.46C72.09,284.74 73.98,283.49 74.75,282.99C75.09,282.77 75.17,282.73 75.5,282.51C76.17,282.07 77.44,281.21 78.48,280.51C79.64,279.73 80.91,278.87 82.145,278.03499999999997C83.4,277.18 84.81,276.23 85.96,275.45C86.91,274.8 87.87,274.16 88.56,273.68C89.02,273.36 89.21,273.22 89.7,272.88C90.58,272.26 92.47,270.95 93.43,270.28C94.03,269.86 94.37,269.64 94.91,269.26C95.59,268.79 96.32,268.27 97.17,267.66C98.28,266.87 99.75,265.82 101.00999999999999,264.92C102.24,264.04 103.54,263.12 104.65,262.32C105.59,261.64 106.55,260.94 107.24,260.43C107.7,260.09 107.89,259.94 108.38,259.58C109.27,258.92 111.25,257.46 112.12,256.82C112.59,256.47 112.77,256.35 113.21,256.02C113.9,255.51 114.94,254.72 115.86,254.02C116.87,253.26 118.39,252.1 119.02,251.61C119.29,251.4 119.32,251.38 119.6,251.16C120.3,250.61 122.39,249 123.33,248.27C123.91,247.82 124.2,247.6 124.72,247.19C125.4,246.66 126.23,246 127.07,245.33C128.05,244.55 129.6,243.3 130.23,242.78C130.5,242.56 130.53,242.53 130.81,242.3C131.51,241.72 133.69,239.94 134.55,239.23C135.01,238.85 135.17,238.72 135.6,238.36C136.29,237.78 137.4,236.85 138.28,236.1C139.13,235.38 140.1,234.55 140.79,233.95C141.27,233.53 141.5,233.32 142.02,232.86C142.93,232.05 144.5,230.64 145.745,229.52499999999998C146.99,228.4 148.62,226.93 149.49,226.13C149.96,225.7 150.14,225.53 150.58,225.12C151.27,224.47 152.41,223.39 153.23,222.61C153.94,221.93 154.56,221.33 155.2,220.71C155.81,220.11 156.32,219.6 156.97,218.95C157.76,218.16 158.9,216.99 159.59,216.29C160.04,215.83 160.25,215.62 160.71,215.14C161.48,214.33 163.15,212.57 163.79,211.88C164.09,211.56 164.14,211.5 164.44,211.17C165.15,210.39 166.79,208.59 167.985,207.24C169.23,205.83 170.52,204.35 171.76999999999998,202.875C173.02,201.4 174.28,199.88 175.47,198.41C176.61,197 178.13,195.06 178.79,194.22C179.07,193.86 179.12,193.8 179.39,193.45C179.98,192.69 181.46,190.72 182.15,189.81C182.56,189.26 182.74,189.02 183.13,188.49C183.73,187.68 184.71,186.32 185.38,185.39C185.93,184.63 186.37,184.02 186.87,183.3C187.4,182.55 187.91,181.81 188.48,180.98C189.14,180.02 190.06,178.67 190.61,177.85C190.96,177.33 191.1,177.13 191.46,176.57C192.14,175.54 193.38,173.61 194.32999999999998,172.135C195.28,170.67 196.48,168.81 197.16,167.74C197.55,167.12 197.72,166.85 198.08,166.28C198.59,165.47 199.29,164.32 199.9,163.32C200.53,162.28 201.33,160.98 201.82,160.16C202.12,159.65 202.23,159.45 202.55,158.91C203.15,157.89 204.66,155.32 205.15,154.49C205.34,154.16 205.37,154.13 205.56,153.81C206,153.07 207.06,151.23 207.72,150.08C208.29,149.09 208.84,148.11 209.29,147.31C209.64,146.69 209.83,146.35 210.21,145.67C210.83,144.56 212.19,142.08 212.65,141.25C212.83,140.92 212.85,140.89 213.03,140.57C213.44,139.83 214.43,138.03 215.08,136.84C215.67,135.75 216.34,134.52 216.77,133.7C217.05,133.18 217.15,132.97 217.44,132.42C217.98,131.39 219.22,129.06 219.78,128.01C220.09,127.43 220.22,127.2 220.51,126.66C220.94,125.85 221.53,124.71 222.1,123.6C222.78,122.29 223.56,120.75 224.3,119.30000000000001C225.06,117.81 225.95,116.08 226.62,114.77C227.13,113.76 227.58,112.9 227.98,112.1C228.3,111.46 228.49,111.07 228.84,110.35C229.4,109.21 230.52,106.99 231.04,105.94C231.33,105.36 231.45,105.13 231.72,104.59C232.12,103.78 232.67,102.65 233.22,101.53C233.88,100.17 234.68,98.51 235.405,97.02000000000001C236.11,95.56 236.84,94.07 237.5,92.7C238.1,91.46 238.82,89.96 239.19,89.17C239.38,88.78 239.42,88.69 239.61,88.28C240.04,87.37 241.1,85.15 241.7,83.87C242.16,82.89 242.56,82.06 242.93,81.27C243.24,80.61 243.42,80.19 243.76,79.45C244.29,78.3 245.27,76.19 245.81,75.04C246.16,74.3 246.36,73.88 246.67,73.22C247.03,72.43 247.4,71.61 247.84,70.63C248.42,69.35 249.4,67.22 249.86,66.21C250.1,65.69 250.18,65.51 250.4,65.02C250.77,64.21 251.33,62.96 251.85,61.8C252.46,60.44 253.44,58.21 253.82,57.38C253.97,57.05 253.99,57.01 254.14,56.69C254.48,55.94 255.2,54.27 255.78,52.97C256.42,51.52 257.14,49.88 257.8,48.385000000000005C258.43,46.94 259.02,45.57 259.64,44.14C260.28,42.67 260.95,41.14 261.58500000000004,39.655C262.21,38.2 262.81,36.77 263.43,35.31C264.06,33.83 264.71,32.33 265.33000000000004,30.845C265.95,29.38 266.54,27.95 267.15,26.48C267.77,24.99 268.43,23.45 269.04499999999996,21.96C269.64,20.51 270.2,19.12 270.8,17.66C271.42,16.13 272.11,14.5 272.72,12.985C273.3,11.56 273.83,10.24 274.39,8.83C274.97,7.38 275.77,5.35 276.16,4.41C276.34,3.96 276.4,3.86 276.57,3.43Q276.89,2.63 277.9,0" style="stroke-miterlimit: 1; vector-effect: non-scaling-stroke; fill: none; stroke: rgb(180, 134, 64); stroke-opacity: 1; stroke-width: 2px;"/><path class="openline" d="M370,108.77Q367.78,109.97 367.1,110.35C366.73,110.55 366.64,110.61 366.26,110.83C365.46,111.28 363.76,112.23 362.53,112.92C361.34,113.59 360.21,114.21 359.005,114.895C357.72,115.62 356.34,116.42 355.05,117.16C353.81,117.87 352.63,118.53 351.405,119.23500000000001C350.14,119.96 348.84,120.73 347.58,121.47C346.34,122.2 345.12,122.9 343.885,123.625C342.63,124.36 341.35,125.13 340.1,125.87C338.87,126.6 337.66,127.31 336.425,128.05C335.17,128.8 333.88,129.59 332.63,130.34C331.42,131.07 330.26,131.77 329.03499999999997,132.515C327.76,133.29 326.38,134.15 325.15,134.9C324.04,135.58 322.63,136.45 322,136.84C321.72,137.01 321.69,137.03 321.41,137.21C320.7,137.65 318.83,138.83 317.68,139.55C316.7,140.16 315.64,140.81 314.95,141.25C314.53,141.52 314.38,141.62 313.94,141.9C313.09,142.45 311.28,143.59 310.2,144.28C309.37,144.81 308.68,145.24 308.01,145.67C307.45,146.03 307.09,146.26 306.46,146.67C305.49,147.3 303.7,148.46 302.73,149.09C302.11,149.49 301.75,149.72 301.19,150.08C300.52,150.52 299.82,150.99 298.99,151.54C297.91,152.26 296.02,153.51 295.25,154.01C294.91,154.23 294.83,154.27 294.5,154.49C293.83,154.93 292.56,155.79 291.52,156.49C290.36,157.27 289.09,158.13 287.855,158.965C286.6,159.82 285.19,160.77 284.04,161.55C283.09,162.2 282.13,162.84 281.44,163.32C280.98,163.64 280.79,163.78 280.3,164.12C279.42,164.74 277.53,166.05 276.57,166.72C275.97,167.14 275.63,167.36 275.09,167.74C274.41,168.21 273.68,168.73 272.83,169.34C271.72,170.13 270.25,171.18 268.99,172.07999999999998C267.76,172.96 266.46,173.88 265.35,174.68C264.41,175.36 263.45,176.06 262.76,176.57C262.3,176.91 262.11,177.06 261.62,177.42C260.73,178.08 258.75,179.54 257.88,180.18C257.41,180.53 257.23,180.65 256.79,180.98C256.1,181.49 255.06,182.28 254.14,182.98C253.13,183.74 251.61,184.9 250.98,185.39C250.71,185.6 250.68,185.62 250.4,185.84C249.7,186.39 247.61,188 246.67,188.73C246.09,189.18 245.8,189.4 245.28,189.81C244.6,190.34 243.77,191 242.93,191.67C241.95,192.45 240.4,193.7 239.77,194.22C239.5,194.44 239.47,194.47 239.19,194.7C238.49,195.28 236.31,197.06 235.45,197.77C234.99,198.15 234.83,198.28 234.4,198.64C233.71,199.22 232.6,200.15 231.72,200.9C230.87,201.62 229.9,202.45 229.21,203.05C228.73,203.47 228.5,203.68 227.98,204.14C227.07,204.95 225.5,206.36 224.255,207.47500000000002C223.01,208.6 221.38,210.07 220.51,210.87C220.04,211.3 219.86,211.47 219.42,211.88C218.73,212.53 217.59,213.61 216.77,214.39C216.06,215.07 215.44,215.67 214.8,216.29C214.19,216.89 213.68,217.4 213.03,218.05C212.24,218.84 211.1,220.01 210.41,220.71C209.96,221.17 209.75,221.38 209.29,221.86C208.52,222.67 206.85,224.43 206.21,225.12C205.91,225.44 205.86,225.5 205.56,225.83C204.85,226.61 203.21,228.41 202.015,229.76C200.77,231.17 199.48,232.65 198.23000000000002,234.125C196.98,235.6 195.72,237.12 194.53,238.59C193.39,240 191.87,241.94 191.21,242.78C190.93,243.14 190.88,243.2 190.61,243.55C190.02,244.31 188.54,246.28 187.85,247.19C187.44,247.74 187.26,247.98 186.87,248.51C186.27,249.32 185.29,250.68 184.62,251.61C184.07,252.37 183.63,252.98 183.13,253.7C182.6,254.45 182.09,255.19 181.52,256.02C180.86,256.98 179.94,258.33 179.39,259.15C179.04,259.67 178.9,259.87 178.54,260.43C177.86,261.46 176.62,263.39 175.67000000000002,264.865C174.72,266.33 173.52,268.19 172.84,269.26C172.45,269.88 172.28,270.15 171.92,270.72C171.41,271.53 170.71,272.68 170.1,273.68C169.47,274.72 168.67,276.02 168.18,276.84C167.88,277.35 167.77,277.55 167.45,278.09C166.85,279.11 165.34,281.68 164.85,282.51C164.66,282.84 164.63,282.87 164.44,283.19C164,283.93 162.94,285.77 162.28,286.92C161.71,287.91 161.16,288.89 160.71,289.69C160.36,290.31 160.17,290.65 159.79,291.33C159.17,292.44 157.81,294.92 157.35,295.75C157.17,296.08 157.15,296.11 156.97,296.43C156.56,297.17 155.57,298.97 154.92,300.16C154.33,301.25 153.66,302.48 153.23,303.3C152.95,303.82 152.85,304.03 152.56,304.58C152.02,305.61 150.78,307.94 150.22,308.99C149.91,309.57 149.78,309.8 149.49,310.34C149.06,311.15 148.47,312.29 147.9,313.4C147.22,314.71 146.44,316.25 145.7,317.7C144.94,319.19 144.05,320.92 143.38,322.23C142.87,323.24 142.42,324.1 142.02,324.9C141.7,325.54 141.51,325.93 141.16,326.65C140.6,327.79 139.48,330.01 138.96,331.06C138.67,331.64 138.55,331.87 138.28,332.41C137.88,333.22 137.33,334.35 136.78,335.47C136.12,336.83 135.32,338.49 134.595,339.98C133.89,341.44 133.16,342.93 132.5,344.3C131.9,345.54 131.18,347.04 130.81,347.83C130.62,348.22 130.58,348.31 130.39,348.72C129.96,349.63 128.9,351.85 128.3,353.13C127.84,354.11 127.44,354.94 127.07,355.73C126.76,356.39 126.58,356.81 126.24,357.55C125.71,358.7 124.73,360.81 124.19,361.96C123.84,362.7 123.64,363.12 123.33,363.78C122.97,364.57 122.6,365.39 122.16,366.37C121.58,367.65 120.6,369.78 120.14,370.79C119.9,371.31 119.82,371.49 119.6,371.98C119.23,372.79 118.67,374.04 118.15,375.2C117.54,376.56 116.56,378.79 116.18,379.62C116.03,379.95 116.01,379.99 115.86,380.31C115.52,381.06 114.8,382.73 114.22,384.03C113.58,385.48 112.86,387.12 112.2,388.615C111.57,390.06 110.98,391.43 110.36,392.86C109.72,394.33 109.05,395.86 108.41499999999999,397.345C107.79,398.8 107.19,400.23 106.57,401.69C105.94,403.17 105.29,404.67 104.67,406.155C104.05,407.62 103.46,409.05 102.85,410.52C102.23,412.01 101.57,413.55 100.955,415.03999999999996C100.36,416.49 99.8,417.88 99.2,419.34C98.58,420.87 97.89,422.5 97.28,424.015C96.7,425.44 96.17,426.76 95.61,428.17C95.03,429.62 94.23,431.65 93.84,432.59C93.66,433.04 93.6,433.14 93.43,433.57Q93.11,434.37 92.1,437" style="stroke-miterlimit: 1; vector-effect: non-scaling-stroke; fill: none; stroke: rgb(180, 134, 64); stroke-opacity: 1; stroke-width: 2px;"/></g><g class="contourlevel"><path class="openline" d="M0,344.54Q0.31,344.41 0.58,344.3C1.21,344.04 2.64,343.42 3.74,342.96C4.93,342.46 6.23,341.91 7.47,341.39C8.7,340.88 9.92,340.38 11.155000000000001,339.865C12.41,339.34 13.69,338.79 14.95,338.27C16.2,337.75 17.5,337.22 18.69,336.73C19.77,336.29 21.12,335.74 21.77,335.47C22.07,335.35 22.11,335.33 22.42,335.2C23.15,334.9 24.91,334.18 26.16,333.67C27.41,333.16 28.74,332.62 29.9,332.16C30.9,331.76 32.03,331.33 32.71,331.06C33.1,330.9 33.23,330.85 33.64,330.68C34.47,330.35 36.13,329.7 37.37,329.22C38.62,328.74 39.92,328.23 41.11,327.78C42.18,327.38 43.52,326.9 44.17,326.65C44.48,326.53 44.53,326.5 44.85,326.38C45.59,326.1 47.34,325.47 48.59,325.03C49.83,324.59 51.07,324.15 52.32,323.72C53.56,323.29 55.28,322.71 56.06,322.46C56.41,322.35 56.48,322.33 56.82,322.23C57.49,322.02 58.75,321.61 59.8,321.29C60.97,320.93 62.29,320.55 63.54,320.2C64.78,319.85 66.02,319.51 67.27,319.2C68.51,318.89 69.87,318.56 71.01,318.32C71.97,318.12 72.97,317.95 73.66,317.82C74.1,317.73 74.28,317.68 74.75,317.6C75.62,317.45 77.23,317.23 78.48,317.1C79.72,316.98 80.97,316.87 82.22,316.85C83.47,316.83 84.72,316.84 85.96,316.96C87.21,317.08 88.92,317.37 89.7,317.56C90.07,317.65 90.15,317.69 90.5,317.82C91.17,318.07 92.43,318.45 93.43,319.04C94.68,319.78 96.21,320.87 97.275,322.11C98.37,323.39 99.25,325.21 99.87,326.65C100.39,327.85 100.7,329.31 100.91,330.11C101.02,330.52 101.05,330.62 101.13,331.06C101.29,331.99 101.54,334 101.64,335.47C101.74,336.94 101.75,338.42 101.73,339.89C101.71,341.36 101.63,342.83 101.52,344.3C101.41,345.77 101.21,347.69 101.09,348.72C101.02,349.28 100.98,349.48 100.91,350C100.8,350.81 100.65,352 100.48,353.13C100.27,354.48 100,356.08 99.74,357.55C99.47,359.02 99.18,360.49 98.89,361.96C98.59,363.43 98.27,364.98 97.97,366.37C97.7,367.61 97.35,369.1 97.17,369.89C97.08,370.29 97.07,370.38 96.97,370.79C96.76,371.71 96.27,373.73 95.91,375.2C95.55,376.67 95.18,378.15 94.8,379.62C94.43,381.09 93.9,383.15 93.66,384.03C93.56,384.4 93.53,384.47 93.43,384.83C93.22,385.6 92.81,387.18 92.47,388.44C92.09,389.84 91.67,391.39 91.26,392.86C90.85,394.33 90.3,396.29 90.02,397.27C89.88,397.76 89.83,397.9 89.7,398.37C89.47,399.18 89.1,400.51 88.76,401.69C88.37,403.06 87.92,404.63 87.49,406.1C87.06,407.57 86.45,409.66 86.19,410.52C86.08,410.88 86.06,410.93 85.96,411.28C85.73,412.04 85.27,413.66 84.9,414.93C84.49,416.33 84.03,417.86 83.59,419.34C83.14,420.83 82.68,422.34 82.24000000000001,423.825C81.8,425.28 81.38,426.72 80.95,428.17C80.51,429.64 80.05,431.18 79.62,432.59C79.23,433.89 78.7,435.58 78.48,436.32Q78.39,436.64 78.29,437" style="stroke-miterlimit: 1; vector-effect: non-scaling-stroke; fill: none; stroke: rgb(195, 161, 78); stroke-opacity: 1; stroke-width: 2px;"/><path class="openline" d="M370,92.46Q369.69,92.59 369.42,92.7C368.79,92.96 367.36,93.58 366.26,94.04C365.07,94.54 363.77,95.09 362.53,95.61C361.3,96.12 360.08,96.62 358.845,97.13499999999999C357.59,97.66 356.31,98.21 355.05,98.73C353.8,99.25 352.5,99.78 351.31,100.27C350.23,100.71 348.88,101.26 348.23,101.53C347.93,101.65 347.89,101.67 347.58,101.8C346.85,102.1 345.09,102.82 343.84,103.33C342.59,103.84 341.26,104.38 340.1,104.84C339.1,105.24 337.97,105.67 337.29,105.94C336.9,106.1 336.77,106.15 336.36,106.32C335.53,106.65 333.87,107.3 332.63,107.78C331.38,108.26 330.08,108.77 328.89,109.22C327.82,109.62 326.48,110.1 325.83,110.35C325.52,110.47 325.47,110.5 325.15,110.62C324.41,110.9 322.66,111.53 321.41,111.97C320.17,112.41 318.93,112.85 317.68,113.28C316.44,113.71 314.72,114.29 313.94,114.54C313.59,114.65 313.52,114.67 313.18,114.77C312.51,114.98 311.25,115.39 310.2,115.71C309.03,116.07 307.71,116.45 306.46,116.8C305.22,117.15 303.98,117.49 302.73,117.8C301.49,118.11 300.13,118.44 298.99,118.68C298.03,118.88 297.03,119.05 296.34,119.18C295.9,119.27 295.72,119.32 295.25,119.4C294.38,119.55 292.77,119.77 291.52,119.9C290.28,120.02 289.03,120.13 287.78,120.15C286.53,120.17 285.28,120.16 284.04,120.04C282.79,119.92 281.08,119.63 280.3,119.44C279.93,119.35 279.85,119.31 279.5,119.18C278.83,118.93 277.57,118.55 276.57,117.96C275.32,117.22 273.79,116.13 272.725,114.89C271.63,113.61 270.75,111.79 270.13,110.35C269.61,109.15 269.3,107.69 269.09,106.89C268.98,106.48 268.95,106.38 268.87,105.94C268.71,105.01 268.46,103 268.36,101.53C268.26,100.06 268.25,98.58 268.27,97.11C268.29,95.64 268.37,94.17 268.48,92.7C268.59,91.23 268.79,89.31 268.91,88.28C268.98,87.72 269.02,87.52 269.09,87C269.2,86.19 269.35,85 269.52,83.87C269.73,82.52 270,80.92 270.26,79.45C270.53,77.98 270.82,76.51 271.11,75.04C271.41,73.57 271.73,72.02 272.03,70.63C272.3,69.39 272.65,67.9 272.83,67.11C272.92,66.71 272.93,66.62 273.03,66.21C273.24,65.29 273.73,63.27 274.09,61.8C274.45,60.33 274.82,58.85 275.2,57.38C275.57,55.91 276.1,53.85 276.34,52.97C276.44,52.6 276.47,52.53 276.57,52.17C276.78,51.4 277.19,49.82 277.53,48.56C277.91,47.16 278.33,45.61 278.74,44.14C279.15,42.67 279.7,40.71 279.98,39.73C280.12,39.24 280.17,39.1 280.3,38.63C280.53,37.82 280.9,36.49 281.24,35.31C281.63,33.94 282.08,32.37 282.51,30.9C282.94,29.43 283.55,27.34 283.81,26.48C283.92,26.12 283.94,26.07 284.04,25.72C284.27,24.96 284.73,23.34 285.1,22.07C285.51,20.67 285.97,19.14 286.41,17.66C286.86,16.17 287.32,14.66 287.76,13.175C288.2,11.72 288.62,10.28 289.05,8.83C289.49,7.36 289.95,5.82 290.38,4.41C290.77,3.11 291.3,1.42 291.52,0.68Q291.61,0.36 291.71,0" style="stroke-miterlimit: 1; vector-effect: non-scaling-stroke; fill: none; stroke: rgb(195, 161, 78); stroke-opacity: 1; stroke-width: 2px;"/></g><g class="contourlevel"><path class="openline" d="M0,359.18Q2.63,358.45 3.74,358.16C4.62,357.93 5.45,357.73 6.13,357.55C6.64,357.41 6.91,357.33 7.47,357.18C8.4,356.93 9.96,356.54 11.21,356.23C12.46,355.93 13.7,355.63 14.95,355.35C16.2,355.07 17.44,354.79 18.69,354.53C19.93,354.27 21.18,354.02 22.42,353.78C23.65,353.55 24.86,353.33 26.095,353.12C27.35,352.91 28.64,352.71 29.9,352.54C31.15,352.37 32.39,352.21 33.64,352.08C34.88,351.95 36.12,351.85 37.37,351.77C38.61,351.7 39.86,351.64 41.11,351.63C42.36,351.62 43.6,351.63 44.85,351.7C46.1,351.77 47.35,351.86 48.59,352.03C49.84,352.2 51.35,352.49 52.32,352.71C52.94,352.85 53.29,352.96 53.84,353.13C54.51,353.33 55.24,353.52 56.06,353.85C57.16,354.29 58.69,355.02 59.8,355.68C60.78,356.26 61.76,357.01 62.44,357.55C62.9,357.91 63.11,358.07 63.54,358.51C64.3,359.29 65.81,361.07 66.46,361.96C66.84,362.48 66.97,362.72 67.27,363.25C67.73,364.06 68.36,365.22 68.85,366.37C69.42,367.7 70.02,369.5 70.4,370.79C70.68,371.77 70.84,372.62 71.01,373.41C71.15,374.06 71.25,374.47 71.37,375.2C71.56,376.34 71.8,378.15 71.94,379.62C72.08,381.09 72.16,382.56 72.22,384.03C72.28,385.5 72.29,386.97 72.28,388.44C72.27,389.91 72.22,391.39 72.16,392.86C72.1,394.33 72.01,395.8 71.9,397.27C71.79,398.74 71.66,400.21 71.51,401.69C71.36,403.18 71.2,404.7 71.02000000000001,406.18C70.85,407.64 70.66,409.07 70.46,410.52C70.26,411.98 70.05,413.46 69.83,414.93C69.61,416.4 69.37,417.87 69.13,419.34C68.89,420.81 68.64,422.29 68.38,423.76C68.12,425.23 67.79,427.07 67.58,428.17C67.46,428.83 67.38,429.15 67.27,429.76C67.12,430.57 66.95,431.54 66.75,432.59Q66.5,433.9 65.89,437" style="stroke-miterlimit: 1; vector-effect: non-scaling-stroke; fill: none; stroke: rgb(207, 188, 102); stroke-opacity: 1; stroke-width: 2px;"/><path class="openline" d="M370,77.82Q367.37,78.55 366.26,78.84C365.38,79.07 364.55,79.27 363.87,79.45C363.36,79.59 363.09,79.67 362.53,79.82C361.6,80.07 360.04,80.46 358.79,80.77C357.54,81.07 356.3,81.37 355.05,81.65C353.8,81.93 352.56,82.21 351.31,82.47C350.07,82.73 348.82,82.98 347.58,83.22C346.35,83.45 345.14,83.67 343.905,83.88C342.65,84.09 341.36,84.29 340.1,84.46C338.85,84.63 337.61,84.79 336.36,84.92C335.12,85.05 333.88,85.15 332.63,85.23C331.39,85.3 330.14,85.36 328.89,85.37C327.64,85.38 326.4,85.37 325.15,85.3C323.9,85.23 322.65,85.14 321.41,84.97C320.16,84.8 318.65,84.51 317.68,84.29C317.06,84.15 316.71,84.04 316.16,83.87C315.49,83.67 314.76,83.48 313.94,83.15C312.84,82.71 311.31,81.98 310.2,81.32C309.22,80.74 308.24,79.99 307.56,79.45C307.1,79.09 306.89,78.93 306.46,78.49C305.7,77.71 304.19,75.93 303.54,75.04C303.16,74.52 303.03,74.28 302.73,73.75C302.27,72.94 301.64,71.78 301.15,70.63C300.58,69.3 299.98,67.5 299.6,66.21C299.32,65.23 299.16,64.38 298.99,63.59C298.85,62.94 298.75,62.53 298.63,61.8C298.44,60.66 298.2,58.85 298.06,57.38C297.92,55.91 297.84,54.44 297.78,52.97C297.72,51.5 297.71,50.03 297.72,48.56C297.73,47.09 297.78,45.61 297.84,44.14C297.9,42.67 297.99,41.2 298.1,39.73C298.21,38.26 298.34,36.79 298.49,35.31C298.64,33.82 298.8,32.3 298.98,30.82C299.15,29.36 299.34,27.93 299.54,26.48C299.74,25.02 299.95,23.54 300.17,22.07C300.39,20.6 300.63,19.13 300.87,17.66C301.11,16.19 301.36,14.71 301.62,13.24C301.88,11.77 302.21,9.93 302.42,8.83C302.54,8.17 302.62,7.85 302.73,7.24C302.88,6.43 303.05,5.46 303.25,4.41Q303.5,3.1 304.11,0" style="stroke-miterlimit: 1; vector-effect: non-scaling-stroke; fill: none; stroke: rgb(207, 188, 102); stroke-opacity: 1; stroke-width: 2px;"/></g><g class="contourlevel"><path class="openline" d="M0,372.58Q2.49,372.28 3.74,372.16C4.98,372.04 6.23,371.93 7.47,371.84C8.72,371.75 9.96,371.68 11.21,371.63C12.46,371.58 13.7,371.54 14.95,371.54C16.2,371.54 17.44,371.55 18.69,371.61C19.93,371.67 21.18,371.75 22.42,371.87C23.67,372 24.92,372.15 26.16,372.36C27.41,372.57 28.66,372.82 29.9,373.13C31.15,373.45 32.55,373.86 33.64,374.25C34.52,374.56 35.29,374.91 35.97,375.2C36.5,375.43 36.8,375.55 37.37,375.85C38.33,376.36 40.09,377.41 41.11,378.12C41.87,378.65 42.39,379.09 43.01,379.62C43.64,380.16 44.22,380.69 44.85,381.35C45.59,382.13 46.47,383.17 47.12,384.03C47.69,384.78 48.13,385.47 48.59,386.21C49.04,386.94 49.41,387.56 49.85,388.44C50.45,389.65 51.34,391.73 51.77,392.86C52.03,393.54 52.12,393.9 52.32,394.52C52.57,395.32 52.87,396.24 53.13,397.27C53.46,398.56 53.81,400.21 54.08,401.69C54.35,403.16 54.55,404.63 54.73,406.1C54.91,407.57 55.03,409.05 55.14,410.52C55.24,411.99 55.31,413.46 55.36,414.93C55.41,416.4 55.42,417.87 55.42,419.34C55.42,420.81 55.39,422.29 55.35,423.76C55.31,425.23 55.24,426.7 55.17,428.17C55.09,429.64 55.01,431.12 54.9,432.59Q54.8,434.06 54.54,437" style="stroke-miterlimit: 1; vector-effect: non-scaling-stroke; fill: none; stroke: rgb(219, 216, 134); stroke-opacity: 1; stroke-width: 2px;"/><path class="openline" d="M370,64.42Q367.51,64.72 366.26,64.84C365.02,64.96 363.77,65.07 362.53,65.16C361.28,65.25 360.04,65.32 358.79,65.37C357.54,65.42 356.3,65.46 355.05,65.46C353.8,65.46 352.56,65.45 351.31,65.39C350.07,65.33 348.82,65.25 347.58,65.13C346.33,65 345.08,64.85 343.84,64.64C342.59,64.43 341.34,64.18 340.1,63.87C338.85,63.55 337.45,63.14 336.36,62.75C335.48,62.44 334.71,62.09 334.03,61.8C333.5,61.57 333.2,61.45 332.63,61.15C331.67,60.64 329.91,59.59 328.89,58.88C328.13,58.35 327.61,57.91 326.99,57.38C326.36,56.84 325.78,56.31 325.15,55.65C324.41,54.87 323.53,53.83 322.88,52.97C322.31,52.22 321.87,51.53 321.41,50.79C320.96,50.06 320.59,49.44 320.15,48.56C319.55,47.35 318.66,45.27 318.23,44.14C317.97,43.46 317.88,43.1 317.68,42.48C317.43,41.68 317.13,40.76 316.87,39.73C316.54,38.44 316.19,36.79 315.92,35.31C315.65,33.84 315.45,32.37 315.27,30.9C315.09,29.43 314.97,27.95 314.86,26.48C314.76,25.01 314.69,23.54 314.64,22.07C314.59,20.6 314.58,19.13 314.58,17.66C314.58,16.19 314.61,14.71 314.65,13.24C314.69,11.77 314.76,10.3 314.83,8.83C314.91,7.36 314.99,5.88 315.1,4.41Q315.2,2.94 315.46,0" style="stroke-miterlimit: 1; vector-effect: non-scaling-stroke; fill: none; stroke: rgb(219, 216, 134); stroke-opacity: 1; stroke-width: 2px;"/></g><g class="contourlevel"><path class="openline" d="M0,385.02Q2.5,385.16 3.74,385.27C4.99,385.38 6.23,385.52 7.47,385.7C8.72,385.88 9.97,386.08 11.21,386.34C12.46,386.6 13.71,386.89 14.95,387.24C16.2,387.59 17.44,387.98 18.67,388.45C19.93,388.93 21.19,389.47 22.42,390.09C23.69,390.73 25.36,391.75 26.16,392.26C26.55,392.51 26.65,392.59 27.01,392.86C27.69,393.37 29.03,394.4 29.9,395.18C30.67,395.87 31.35,396.57 31.99,397.27C32.59,397.92 33.1,398.51 33.64,399.21C34.23,399.97 34.82,400.78 35.4,401.69C36.06,402.72 36.93,404.29 37.37,405.09C37.6,405.52 37.67,405.64 37.88,406.1C38.32,407.05 39.18,409.03 39.72,410.52C40.25,411.98 40.7,413.47 41.105000000000004,414.95000000000005C41.5,416.41 41.83,417.87 42.13,419.34C42.43,420.81 42.67,422.28 42.89,423.76C43.11,425.23 43.29,426.7 43.44,428.17C43.59,429.64 43.7,431.12 43.8,432.59Q43.89,434.06 44.01,437" style="stroke-miterlimit: 1; vector-effect: non-scaling-stroke; fill: none; stroke: rgb(232, 245, 171); stroke-opacity: 1; stroke-width: 2px;"/><path class="openline" d="M370,51.98Q367.5,51.84 366.26,51.73C365.01,51.62 363.77,51.48 362.53,51.3C361.28,51.12 360.03,50.92 358.79,50.66C357.54,50.4 356.29,50.11 355.05,49.76C353.8,49.41 352.56,49.02 351.33000000000004,48.55C350.07,48.07 348.81,47.53 347.58,46.91C346.31,46.27 344.64,45.25 343.84,44.74C343.45,44.49 343.35,44.41 342.99,44.14C342.31,43.63 340.97,42.6 340.1,41.82C339.33,41.13 338.65,40.43 338.01,39.73C337.41,39.08 336.9,38.49 336.36,37.79C335.77,37.03 335.18,36.22 334.6,35.31C333.94,34.28 333.07,32.71 332.63,31.91C332.4,31.48 332.33,31.36 332.12,30.9C331.68,29.95 330.82,27.97 330.28,26.48C329.75,25.02 329.3,23.53 328.895,22.05C328.5,20.59 328.17,19.13 327.87,17.66C327.57,16.19 327.33,14.72 327.11,13.24C326.89,11.77 326.71,10.3 326.56,8.83C326.41,7.36 326.3,5.88 326.2,4.41Q326.11,2.94 325.99,0" style="stroke-miterlimit: 1; vector-effect: non-scaling-stroke; fill: none; stroke: rgb(232, 245, 171); stroke-opacity: 1; stroke-width: 2px;"/></g></g></g></g></g><g class="overplot"/><path class="xlines-above crisp" d="" style="fill: none; stroke-width: 1px; stroke: rgb(0, 0, 0); stroke-opacity: 0;"/><path class="ylines-above crisp" d="" style="fill: none; stroke-width: 1px; stroke: rgb(0, 0, 0); stroke-opacity: 0;"/><g class="overlines-above"/><g class="xaxislayer-above"><path class="xtick ticks crisp" d="M0,478v5" transform="translate(89.67,0)" style="stroke: rgb(51, 51, 51); stroke-opacity: 1; stroke-width: 1px;"/><path class="xtick ticks crisp" d="M0,478v5" transform="translate(171.89,0)" style="stroke: rgb(51, 51, 51); stroke-opacity: 1; stroke-width: 1px;"/><path class="xtick ticks crisp" d="M0,478v5" transform="translate(254.11,0)" style="stroke: rgb(51, 51, 51); stroke-opacity: 1; stroke-width: 1px;"/><path class="xtick ticks crisp" d="M0,478v5" transform="translate(336.33,0)" style="stroke: rgb(51, 51, 51); stroke-opacity: 1; stroke-width: 1px;"/><g class="xtick"><text text-anchor="middle" x="0" y="497.4" transform="translate(89.67,0)" style="font-family: 'Open Sans', verdana, arial, sans-serif; font-size: 12px; fill: rgb(51, 51, 51); fill-opacity: 1; white-space: pre; opacity: 1;">0.2</text></g><g class="xtick"><text text-anchor="middle" x="0" y="497.4" style="font-family: 'Open Sans', verdana, arial, sans-serif; font-size: 12px; fill: rgb(51, 51, 51); fill-opacity: 1; white-space: pre; opacity: 1;" transform="translate(171.89,0)">0.4</text></g><g class="xtick"><text text-anchor="middle" x="0" y="497.4" style="font-family: 'Open Sans', verdana, arial, sans-serif; font-size: 12px; fill: rgb(51, 51, 51); fill-opacity: 1; white-space: pre; opacity: 1;" transform="translate(254.11,0)">0.6</text></g><g class="xtick"><text text-anchor="middle" x="0" y="497.4" style="font-family: 'Open Sans', verdana, arial, sans-serif; font-size: 12px; fill: rgb(51, 51, 51); fill-opacity: 1; white-space: pre; opacity: 1;" transform="translate(336.33,0)">0.8</text></g></g><g class="yaxislayer-above"><path class="ytick ticks crisp" d="M27,0h-5" transform="translate(0,452.72)" style="stroke: rgb(51, 51, 51); stroke-opacity: 1; stroke-width: 1px;"/><path class="ytick ticks crisp" d="M27,0h-5" transform="translate(0,404.17)" style="stroke: rgb(51, 51, 51); stroke-opacity: 1; stroke-width: 1px;"/><path class="ytick ticks crisp" d="M27,0h-5" transform="translate(0,355.61)" style="stroke: rgb(51, 51, 51); stroke-opacity: 1; stroke-width: 1px;"/><path class="ytick ticks crisp" d="M27,0h-5" transform="translate(0,307.06)" style="stroke: rgb(51, 51, 51); stroke-opacity: 1; stroke-width: 1px;"/><path class="ytick ticks crisp" d="M27,0h-5" transform="translate(0,258.5)" style="stroke: rgb(51, 51, 51); stroke-opacity: 1; stroke-width: 1px;"/><path class="ytick ticks crisp" d="M27,0h-5" transform="translate(0,209.94)" style="stroke: rgb(51, 51, 51); stroke-opacity: 1; stroke-width: 1px;"/><path class="ytick ticks crisp" d="M27,0h-5" transform="translate(0,161.39)" style="stroke: rgb(51, 51, 51); stroke-opacity: 1; stroke-width: 1px;"/><path class="ytick ticks crisp" d="M27,0h-5" transform="translate(0,112.83)" style="stroke: rgb(51, 51, 51); stroke-opacity: 1; stroke-width: 1px;"/><path class="ytick ticks crisp" d="M27,0h-5" transform="translate(0,64.28)" style="stroke: rgb(51, 51, 51); stroke-opacity: 1; stroke-width: 1px;"/><g class="ytick"><text text-anchor="end" x="19.6" y="4.199999999999999" transform="translate(0,452.72)" style="font-family: 'Open Sans', verdana, arial, sans-serif; font-size: 12px; fill: rgb(51, 51, 51); fill-opacity: 1; white-space: pre; opacity: 1;">0.1</text></g><g class="ytick"><text text-anchor="end" x="19.6" y="4.199999999999999" style="font-family: 'Open Sans', verdana, arial, sans-serif; font-size: 12px; fill: rgb(51, 51, 51); fill-opacity: 1; white-space: pre; opacity: 1;" transform="translate(0,404.17)">0.2</text></g><g class="ytick"><text text-anchor="end" x="19.6" y="4.199999999999999" style="font-family: 'Open Sans', verdana, arial, sans-serif; font-size: 12px; fill: rgb(51, 51, 51); fill-opacity: 1; white-space: pre; opacity: 1;" transform="translate(0,355.61)">0.3</text></g><g class="ytick"><text text-anchor="end" x="19.6" y="4.199999999999999" style="font-family: 'Open Sans', verdana, arial, sans-serif; font-size: 12px; fill: rgb(51, 51, 51); fill-opacity: 1; white-space: pre; opacity: 1;" transform="translate(0,307.06)">0.4</text></g><g class="ytick"><text text-anchor="end" x="19.6" y="4.199999999999999" style="font-family: 'Open Sans', verdana, arial, sans-serif; font-size: 12px; fill: rgb(51, 51, 51); fill-opacity: 1; white-space: pre; opacity: 1;" transform="translate(0,258.5)">0.5</text></g><g class="ytick"><text text-anchor="end" x="19.6" y="4.199999999999999" style="font-family: 'Open Sans', verdana, arial, sans-serif; font-size: 12px; fill: rgb(51, 51, 51); fill-opacity: 1; white-space: pre; opacity: 1;" transform="translate(0,209.94)">0.6</text></g><g class="ytick"><text text-anchor="end" x="19.6" y="4.199999999999999" style="font-family: 'Open Sans', verdana, arial, sans-serif; font-size: 12px; fill: rgb(51, 51, 51); fill-opacity: 1; white-space: pre; opacity: 1;" transform="translate(0,161.39)">0.7</text></g><g class="ytick"><text text-anchor="end" x="19.6" y="4.199999999999999" style="font-family: 'Open Sans', verdana, arial, sans-serif; font-size: 12px; fill: rgb(51, 51, 51); fill-opacity: 1; white-space: pre; opacity: 1;" transform="translate(0,112.83)">0.8</text></g><g class="ytick"><text text-anchor="end" x="19.6" y="4.199999999999999" style="font-family: 'Open Sans', verdana, arial, sans-serif; font-size: 12px; fill: rgb(51, 51, 51); fill-opacity: 1; white-space: pre; opacity: 1;" transform="translate(0,64.28)">0.9</text></g></g><g class="overaxes-above"/></g></g><g class="polarlayer"/><g class="ternarylayer"/><g class="geolayer"/><g class="funnelarealayer"/><g class="pielayer"/><g class="iciclelayer"/><g class="treemaplayer"/><g class="sunburstlayer"/><g class="glimages"/><defs id="topdefs-adac7a"><g class="clips"/></defs><g class="layer-above"><g class="imagelayer"/><g class="shapelayer"/></g><g class="infolayer"><g class="cb2f5390 colorbar" transform="translate(28,40)"><rect class="cbbg" x="377" y="0" width="94.65625" height="437" style="fill: rgb(0, 0, 0); fill-opacity: 0; stroke: rgb(68, 68, 68); stroke-opacity: 1; stroke-width: 0;"/><g class="cbfills" transform="translate(0,10)"/><g class="cblines" transform="translate(0,10)"><path class="cbline" d="M387,417h30" style="fill: none; stroke: rgb(34, 30, 27); stroke-opacity: 1; stroke-width: 2px;"/><path class="cbline" d="M387,375h30" style="fill: none; stroke: rgb(59, 46, 38); stroke-opacity: 1; stroke-width: 2px;"/><path class="cbline" d="M387,334h30" style="fill: none; stroke: rgb(85, 62, 47); stroke-opacity: 1; stroke-width: 2px;"/><path class="cbline" d="M387,292h30" style="fill: none; stroke: rgb(112, 77, 54); stroke-opacity: 1; stroke-width: 2px;"/><path class="cbline" d="M387,250h30" style="fill: none; stroke: rgb(138, 93, 57); stroke-opacity: 1; stroke-width: 2px;"/><path class="cbline" d="M387,209h30" style="fill: none; stroke: rgb(161, 112, 59); stroke-opacity: 1; stroke-width: 2px;"/><path class="cbline" d="M387,167h30" style="fill: none; stroke: rgb(180, 134, 64); stroke-opacity: 1; stroke-width: 2px;"/><path class="cbline" d="M387,125h30" style="fill: none; stroke: rgb(195, 161, 78); stroke-opacity: 1; stroke-width: 2px;"/><path class="cbline" d="M387,83h30" style="fill: none; stroke: rgb(207, 188, 102); stroke-opacity: 1; stroke-width: 2px;"/><path class="cbline" d="M387,42h30" style="fill: none; stroke: rgb(219, 216, 134); stroke-opacity: 1; stroke-width: 2px;"/><path class="cbline" d="M387,0h30" style="fill: none; stroke: rgb(232, 245, 171); stroke-opacity: 1; stroke-width: 2px;"/></g><g class="cbaxis crisp" transform="translate(0,-40)"><path class="ycb2f5390tick ticks crisp" d="M416.5,0h-6" transform="translate(0,383.6)" style="stroke: rgb(237, 237, 237); stroke-opacity: 1; stroke-width: 1px;"/><path class="ycb2f5390tick ticks crisp" d="M416.5,0h-6" transform="translate(0,300.2)" style="stroke: rgb(237, 237, 237); stroke-opacity: 1; stroke-width: 1px;"/><path class="ycb2f5390tick ticks crisp" d="M416.5,0h-6" transform="translate(0,216.8)" style="stroke: rgb(237, 237, 237); stroke-opacity: 1; stroke-width: 1px;"/><path class="ycb2f5390tick ticks crisp" d="M416.5,0h-6" transform="translate(0,133.40000000000003)" style="stroke: rgb(237, 237, 237); stroke-opacity: 1; stroke-width: 1px;"/><g class="ycb2f5390tick"><text text-anchor="start" x="419.9" y="4.199999999999999" transform="translate(0,467)" style="font-family: 'Open Sans', verdana, arial, sans-serif; font-size: 12px; fill: rgb(51, 51, 51); fill-opacity: 1; white-space: pre; opacity: 1;">0.11</text></g><g class="ycb2f5390tick"><text text-anchor="start" x="419.9" y="4.199999999999999" style="font-family: 'Open Sans', verdana, arial, sans-serif; font-size: 12px; fill: rgb(51, 51, 51); fill-opacity: 1; white-space: pre; opacity: 1;" transform="translate(0,383.6)">0.551</text></g><g class="ycb2f5390tick"><text text-anchor="start" x="419.9" y="4.199999999999999" style="font-family: 'Open Sans', verdana, arial, sans-serif; font-size: 12px; fill: rgb(51, 51, 51); fill-opacity: 1; white-space: pre; opacity: 1;" transform="translate(0,300.2)">0.992</text></g><g class="ycb2f5390tick"><text text-anchor="start" x="419.9" y="4.199999999999999" style="font-family: 'Open Sans', verdana, arial, sans-serif; font-size: 12px; fill: rgb(51, 51, 51); fill-opacity: 1; white-space: pre; opacity: 1;" transform="translate(0,216.8)">1.433</text></g><g class="ycb2f5390tick"><text text-anchor="start" x="419.9" y="4.199999999999999" style="font-family: 'Open Sans', verdana, arial, sans-serif; font-size: 12px; fill: rgb(51, 51, 51); fill-opacity: 1; white-space: pre; opacity: 1;" transform="translate(0,133.40000000000003)">1.874</text></g><g class="ycb2f5390tick"><text text-anchor="start" x="419.9" y="4.199999999999999" style="font-family: 'Open Sans', verdana, arial, sans-serif; font-size: 12px; fill: rgb(51, 51, 51); fill-opacity: 1; white-space: pre; opacity: 1;" transform="translate(0,50.000000000000014)">2.315</text></g></g><g class="cbtitleunshift" transform="translate(-28,-40)"><g class="cbtitle"/></g><rect class="cboutline" x="387" y="10" width="30" height="417" style="stroke: rgb(68, 68, 68); stroke-opacity: 1; fill: none; stroke-width: 0;"/></g><g class="g-gtitle"><text class="gtitle" x="250" y="20" text-anchor="middle" dy="0em" style="font-family: 'Open Sans', verdana, arial, sans-serif; font-size: 17px; fill: rgb(51, 51, 51); opacity: 1; font-weight: normal; white-space: pre;">Frank copula</text></g><g class="g-xtitle"/><g class="g-ytitle"/></g></svg>