<?xml version="1.0" encoding="utf-8" standalone="no"?>
<!DOCTYPE svg PUBLIC "-//W3C//DTD SVG 1.1//EN"
  "http://www.w3.org/Graphics/SVG/1.1/DTD/svg11.dtd">
<svg xmlns:xlink="http://www.w3.org/1999/xlink" width="688.32pt" height="328.32pt" viewBox="0 0 688.32 328.32" xmlns="http://www.w3.org/2000/svg" version="1.1">
 <metadata>
  <rdf:RDF xmlns:dc="http://purl.org/dc/elements/1.1/" xmlns:cc="http://creativecommons.org/ns#" xmlns:rdf="http://www.w3.org/1999/02/22-rdf-syntax-ns#">
   <cc:Work>
    <dc:type rdf:resource="http://purl.org/dc/dcmitype/StillImage"/>
    <dc:date>2022-05-13T03:38:36.511468</dc:date>
    <dc:format>image/svg+xml</dc:format>
    <dc:creator>
     <cc:Agent>
      <dc:title>Matplotlib v3.5.1, https://matplotlib.org/</dc:title>
     </cc:Agent>
    </dc:creator>
   </cc:Work>
  </rdf:RDF>
 </metadata>
 <defs>
  <style type="text/css">*{stroke-linejoin: round; stroke-linecap: butt}</style>
 </defs>
 <g id="figure_1">
  <g id="patch_1">
   <path d="M 0 328.32 
L 688.32 328.32 
L 688.32 0 
L 0 0 
z
" style="fill: #ffffff"/>
  </g>
  <g id="axes_1">
   <g id="patch_2">
    <path d="M 49.452163 136.384084 
L 684.72 136.384084 
L 684.72 22.0533 
L 49.452163 22.0533 
z
" style="fill: #e5e5e5"/>
   </g>
   <g id="matplotlib.axis_1">
    <g id="xtick_1">
     <g id="line2d_1">
      <path d="M 60.395482 136.384084 
L 60.395482 22.0533 
" clip-path="url(#pc69e671561)" style="fill: none; stroke: #ffffff; stroke-width: 1.5; stroke-linecap: square"/>
     </g>
     <g id="line2d_2">
      <defs>
       <path id="mec9e748b7a" d="M 0 0 
L 0 9 
" style="stroke: #555555; stroke-width: 1.875"/>
      </defs>
      <g>
       <use xlink:href="#mec9e748b7a" x="60.395482" y="136.384084" style="fill: #555555; stroke: #555555; stroke-width: 1.875"/>
      </g>
     </g>
    </g>
    <g id="xtick_2">
     <g id="line2d_3">
      <path d="M 179.693993 136.384084 
L 179.693993 22.0533 
" clip-path="url(#pc69e671561)" style="fill: none; stroke: #ffffff; stroke-width: 1.5; stroke-linecap: square"/>
     </g>
     <g id="line2d_4">
      <g>
       <use xlink:href="#mec9e748b7a" x="179.693993" y="136.384084" style="fill: #555555; stroke: #555555; stroke-width: 1.875"/>
      </g>
     </g>
    </g>
    <g id="xtick_3">
     <g id="line2d_5">
      <path d="M 299.025171 136.384084 
L 299.025171 22.0533 
" clip-path="url(#pc69e671561)" style="fill: none; stroke: #ffffff; stroke-width: 1.5; stroke-linecap: square"/>
     </g>
     <g id="line2d_6">
      <g>
       <use xlink:href="#mec9e748b7a" x="299.025171" y="136.384084" style="fill: #555555; stroke: #555555; stroke-width: 1.875"/>
      </g>
     </g>
    </g>
    <g id="xtick_4">
     <g id="line2d_7">
      <path d="M 418.323681 136.384084 
L 418.323681 22.0533 
" clip-path="url(#pc69e671561)" style="fill: none; stroke: #ffffff; stroke-width: 1.5; stroke-linecap: square"/>
     </g>
     <g id="line2d_8">
      <g>
       <use xlink:href="#mec9e748b7a" x="418.323681" y="136.384084" style="fill: #555555; stroke: #555555; stroke-width: 1.875"/>
      </g>
     </g>
    </g>
    <g id="xtick_5">
     <g id="line2d_9">
      <path d="M 537.654859 136.384084 
L 537.654859 22.0533 
" clip-path="url(#pc69e671561)" style="fill: none; stroke: #ffffff; stroke-width: 1.5; stroke-linecap: square"/>
     </g>
     <g id="line2d_10">
      <g>
       <use xlink:href="#mec9e748b7a" x="537.654859" y="136.384084" style="fill: #555555; stroke: #555555; stroke-width: 1.875"/>
      </g>
     </g>
    </g>
    <g id="xtick_6">
     <g id="line2d_11">
      <path d="M 656.95337 136.384084 
L 656.95337 22.0533 
" clip-path="url(#pc69e671561)" style="fill: none; stroke: #ffffff; stroke-width: 1.5; stroke-linecap: square"/>
     </g>
     <g id="line2d_12">
      <g>
       <use xlink:href="#mec9e748b7a" x="656.95337" y="136.384084" style="fill: #555555; stroke: #555555; stroke-width: 1.875"/>
      </g>
     </g>
    </g>
    <g id="xtick_7">
     <g id="line2d_13">
      <defs>
       <path id="m3b5cb2931d" d="M 0 0 
L 0 6 
" style="stroke: #555555; stroke-width: 1.5"/>
      </defs>
      <g>
       <use xlink:href="#m3b5cb2931d" x="90.228277" y="136.384084" style="fill: #555555; stroke: #555555; stroke-width: 1.5"/>
      </g>
     </g>
    </g>
    <g id="xtick_8">
     <g id="line2d_14">
      <g>
       <use xlink:href="#m3b5cb2931d" x="120.061071" y="136.384084" style="fill: #555555; stroke: #555555; stroke-width: 1.5"/>
      </g>
     </g>
    </g>
    <g id="xtick_9">
     <g id="line2d_15">
      <g>
       <use xlink:href="#m3b5cb2931d" x="149.893865" y="136.384084" style="fill: #555555; stroke: #555555; stroke-width: 1.5"/>
      </g>
     </g>
    </g>
    <g id="xtick_10">
     <g id="line2d_16">
      <g>
       <use xlink:href="#m3b5cb2931d" x="179.72666" y="136.384084" style="fill: #555555; stroke: #555555; stroke-width: 1.5"/>
      </g>
     </g>
    </g>
    <g id="xtick_11">
     <g id="line2d_17">
      <g>
       <use xlink:href="#m3b5cb2931d" x="209.559454" y="136.384084" style="fill: #555555; stroke: #555555; stroke-width: 1.5"/>
      </g>
     </g>
    </g>
    <g id="xtick_12">
     <g id="line2d_18">
      <g>
       <use xlink:href="#m3b5cb2931d" x="239.392248" y="136.384084" style="fill: #555555; stroke: #555555; stroke-width: 1.5"/>
      </g>
     </g>
    </g>
    <g id="xtick_13">
     <g id="line2d_19">
      <g>
       <use xlink:href="#m3b5cb2931d" x="269.225043" y="136.384084" style="fill: #555555; stroke: #555555; stroke-width: 1.5"/>
      </g>
     </g>
    </g>
    <g id="xtick_14">
     <g id="line2d_20">
      <g>
       <use xlink:href="#m3b5cb2931d" x="299.057837" y="136.384084" style="fill: #555555; stroke: #555555; stroke-width: 1.5"/>
      </g>
     </g>
    </g>
    <g id="xtick_15">
     <g id="line2d_21">
      <g>
       <use xlink:href="#m3b5cb2931d" x="328.890632" y="136.384084" style="fill: #555555; stroke: #555555; stroke-width: 1.5"/>
      </g>
     </g>
    </g>
    <g id="xtick_16">
     <g id="line2d_22">
      <g>
       <use xlink:href="#m3b5cb2931d" x="358.723426" y="136.384084" style="fill: #555555; stroke: #555555; stroke-width: 1.5"/>
      </g>
     </g>
    </g>
    <g id="xtick_17">
     <g id="line2d_23">
      <g>
       <use xlink:href="#m3b5cb2931d" x="388.55622" y="136.384084" style="fill: #555555; stroke: #555555; stroke-width: 1.5"/>
      </g>
     </g>
    </g>
    <g id="xtick_18">
     <g id="line2d_24">
      <g>
       <use xlink:href="#m3b5cb2931d" x="418.389015" y="136.384084" style="fill: #555555; stroke: #555555; stroke-width: 1.5"/>
      </g>
     </g>
    </g>
    <g id="xtick_19">
     <g id="line2d_25">
      <g>
       <use xlink:href="#m3b5cb2931d" x="448.221809" y="136.384084" style="fill: #555555; stroke: #555555; stroke-width: 1.5"/>
      </g>
     </g>
    </g>
    <g id="xtick_20">
     <g id="line2d_26">
      <g>
       <use xlink:href="#m3b5cb2931d" x="478.054603" y="136.384084" style="fill: #555555; stroke: #555555; stroke-width: 1.5"/>
      </g>
     </g>
    </g>
    <g id="xtick_21">
     <g id="line2d_27">
      <g>
       <use xlink:href="#m3b5cb2931d" x="507.887398" y="136.384084" style="fill: #555555; stroke: #555555; stroke-width: 1.5"/>
      </g>
     </g>
    </g>
    <g id="xtick_22">
     <g id="line2d_28">
      <g>
       <use xlink:href="#m3b5cb2931d" x="537.720192" y="136.384084" style="fill: #555555; stroke: #555555; stroke-width: 1.5"/>
      </g>
     </g>
    </g>
    <g id="xtick_23">
     <g id="line2d_29">
      <g>
       <use xlink:href="#m3b5cb2931d" x="567.552986" y="136.384084" style="fill: #555555; stroke: #555555; stroke-width: 1.5"/>
      </g>
     </g>
    </g>
    <g id="xtick_24">
     <g id="line2d_30">
      <g>
       <use xlink:href="#m3b5cb2931d" x="597.385781" y="136.384084" style="fill: #555555; stroke: #555555; stroke-width: 1.5"/>
      </g>
     </g>
    </g>
    <g id="xtick_25">
     <g id="line2d_31">
      <g>
       <use xlink:href="#m3b5cb2931d" x="627.218575" y="136.384084" style="fill: #555555; stroke: #555555; stroke-width: 1.5"/>
      </g>
     </g>
    </g>
    <g id="xtick_26">
     <g id="line2d_32">
      <g>
       <use xlink:href="#m3b5cb2931d" x="657.051369" y="136.384084" style="fill: #555555; stroke: #555555; stroke-width: 1.5"/>
      </g>
     </g>
    </g>
   </g>
   <g id="matplotlib.axis_2">
    <g id="ytick_1">
     <g id="line2d_33">
      <path d="M 49.452163 126.048383 
L 684.72 126.048383 
" clip-path="url(#pc69e671561)" style="fill: none; stroke: #ffffff; stroke-width: 1.5; stroke-linecap: square"/>
     </g>
     <g id="line2d_34">
      <defs>
       <path id="md97f71917a" d="M 0 0 
L -9 0 
" style="stroke: #555555; stroke-width: 1.875"/>
      </defs>
      <g>
       <use xlink:href="#md97f71917a" x="49.452163" y="126.048383" style="fill: #555555; stroke: #555555; stroke-width: 1.875"/>
      </g>
     </g>
     <g id="text_1">
      <!-- $\mathdefault{−2.5}$ -->
      <g style="fill: #555555" transform="translate(3.6 131.756135)scale(0.165 -0.165)">
       <defs>
        <path id="CMSY10-0" d="M 4218 1472 
C 4326 1472 4442 1472 4442 1600 
C 4442 1728 4326 1728 4218 1728 
L 755 1728 
C 646 1728 531 1728 531 1600 
C 531 1472 646 1472 755 1472 
L 4218 1472 
z
" transform="scale(0.015625)"/>
        <path id="CMR17-32" d="M 2669 989 
L 2554 989 
C 2490 536 2438 459 2413 420 
C 2381 369 1920 369 1830 369 
L 602 369 
C 832 619 1280 1072 1824 1597 
C 2214 1967 2669 2402 2669 3035 
C 2669 3790 2067 4224 1395 4224 
C 691 4224 262 3604 262 3030 
C 262 2780 448 2748 525 2748 
C 589 2748 781 2787 781 3010 
C 781 3207 614 3264 525 3264 
C 486 3264 448 3258 422 3245 
C 544 3790 915 4058 1306 4058 
C 1862 4058 2227 3617 2227 3035 
C 2227 2479 1901 2000 1536 1584 
L 262 146 
L 262 0 
L 2515 0 
L 2669 989 
z
" transform="scale(0.015625)"/>
        <path id="CMMI12-3a" d="M 1178 307 
C 1178 492 1024 619 870 619 
C 685 619 557 466 557 313 
C 557 128 710 0 864 0 
C 1050 0 1178 153 1178 307 
z
" transform="scale(0.015625)"/>
        <path id="CMR17-35" d="M 730 3692 
C 794 3666 1056 3584 1325 3584 
C 1920 3584 2246 3911 2432 4100 
C 2432 4157 2432 4192 2394 4192 
C 2387 4192 2374 4192 2323 4163 
C 2099 4058 1837 3973 1517 3973 
C 1325 3973 1037 3999 723 4139 
C 653 4171 640 4171 634 4171 
C 602 4171 595 4164 595 4037 
L 595 2203 
C 595 2089 595 2057 659 2057 
C 691 2057 704 2070 736 2114 
C 941 2401 1222 2522 1542 2522 
C 1766 2522 2246 2382 2246 1289 
C 2246 1085 2246 715 2054 421 
C 1894 159 1645 25 1370 25 
C 947 25 518 320 403 814 
C 429 807 480 795 506 795 
C 589 795 749 840 749 1038 
C 749 1210 627 1280 506 1280 
C 358 1280 262 1190 262 1011 
C 262 454 704 -128 1382 -128 
C 2042 -128 2669 440 2669 1264 
C 2669 2030 2170 2624 1549 2624 
C 1222 2624 947 2503 730 2274 
L 730 3692 
z
" transform="scale(0.015625)"/>
       </defs>
       <use xlink:href="#CMSY10-0" transform="scale(0.996264)"/>
       <use xlink:href="#CMR17-32" transform="translate(77.487468 0)scale(0.996264)"/>
       <use xlink:href="#CMMI12-3a" transform="translate(123.177945 0)scale(0.996264)"/>
       <use xlink:href="#CMR17-35" transform="translate(150.275122 0)scale(0.996264)"/>
      </g>
     </g>
    </g>
    <g id="ytick_2">
     <g id="line2d_35">
      <path d="M 49.452163 87.361631 
L 684.72 87.361631 
" clip-path="url(#pc69e671561)" style="fill: none; stroke: #ffffff; stroke-width: 1.5; stroke-linecap: square"/>
     </g>
     <g id="line2d_36">
      <g>
       <use xlink:href="#md97f71917a" x="49.452163" y="87.361631" style="fill: #555555; stroke: #555555; stroke-width: 1.875"/>
      </g>
     </g>
     <g id="text_2">
      <!-- $\mathdefault{0.0}$ -->
      <g style="fill: #555555" transform="translate(16.385429 93.069383)scale(0.165 -0.165)">
       <defs>
        <path id="CMR17-30" d="M 2688 2025 
C 2688 2416 2682 3080 2413 3591 
C 2176 4039 1798 4198 1466 4198 
C 1158 4198 768 4058 525 3597 
C 269 3118 243 2524 243 2025 
C 243 1661 250 1106 448 619 
C 723 -39 1216 -128 1466 -128 
C 1760 -128 2208 -7 2470 600 
C 2662 1042 2688 1559 2688 2025 
z
M 1466 -26 
C 1056 -26 813 325 723 812 
C 653 1188 653 1738 653 2096 
C 653 2588 653 2997 736 3387 
C 858 3929 1216 4096 1466 4096 
C 1728 4096 2067 3923 2189 3400 
C 2272 3036 2278 2607 2278 2096 
C 2278 1680 2278 1169 2202 792 
C 2067 95 1690 -26 1466 -26 
z
" transform="scale(0.015625)"/>
       </defs>
       <use xlink:href="#CMR17-30" transform="scale(0.996264)"/>
       <use xlink:href="#CMMI12-3a" transform="translate(45.690477 0)scale(0.996264)"/>
       <use xlink:href="#CMR17-30" transform="translate(72.787654 0)scale(0.996264)"/>
      </g>
     </g>
    </g>
    <g id="ytick_3">
     <g id="line2d_37">
      <path d="M 49.452163 48.674878 
L 684.72 48.674878 
" clip-path="url(#pc69e671561)" style="fill: none; stroke: #ffffff; stroke-width: 1.5; stroke-linecap: square"/>
     </g>
     <g id="line2d_38">
      <g>
       <use xlink:href="#md97f71917a" x="49.452163" y="48.674878" style="fill: #555555; stroke: #555555; stroke-width: 1.875"/>
      </g>
     </g>
     <g id="text_3">
      <!-- $\mathdefault{2.5}$ -->
      <g style="fill: #555555" transform="translate(16.385429 54.382631)scale(0.165 -0.165)">
       <use xlink:href="#CMR17-32" transform="scale(0.996264)"/>
       <use xlink:href="#CMMI12-3a" transform="translate(45.690477 0)scale(0.996264)"/>
       <use xlink:href="#CMR17-35" transform="translate(72.787654 0)scale(0.996264)"/>
      </g>
     </g>
    </g>
    <g id="ytick_4">
     <g id="line2d_39">
      <defs>
       <path id="m81344445d5" d="M 0 0 
L -6 0 
" style="stroke: #555555; stroke-width: 1.5"/>
      </defs>
      <g>
       <use xlink:href="#m81344445d5" x="49.452163" y="133.785733" style="fill: #555555; stroke: #555555; stroke-width: 1.5"/>
      </g>
     </g>
    </g>
    <g id="ytick_5">
     <g id="line2d_40">
      <g>
       <use xlink:href="#m81344445d5" x="49.452163" y="118.311032" style="fill: #555555; stroke: #555555; stroke-width: 1.5"/>
      </g>
     </g>
    </g>
    <g id="ytick_6">
     <g id="line2d_41">
      <g>
       <use xlink:href="#m81344445d5" x="49.452163" y="110.573682" style="fill: #555555; stroke: #555555; stroke-width: 1.5"/>
      </g>
     </g>
    </g>
    <g id="ytick_7">
     <g id="line2d_42">
      <g>
       <use xlink:href="#m81344445d5" x="49.452163" y="102.836331" style="fill: #555555; stroke: #555555; stroke-width: 1.5"/>
      </g>
     </g>
    </g>
    <g id="ytick_8">
     <g id="line2d_43">
      <g>
       <use xlink:href="#m81344445d5" x="49.452163" y="95.098981" style="fill: #555555; stroke: #555555; stroke-width: 1.5"/>
      </g>
     </g>
    </g>
    <g id="ytick_9">
     <g id="line2d_44">
      <g>
       <use xlink:href="#m81344445d5" x="49.452163" y="79.62428" style="fill: #555555; stroke: #555555; stroke-width: 1.5"/>
      </g>
     </g>
    </g>
    <g id="ytick_10">
     <g id="line2d_45">
      <g>
       <use xlink:href="#m81344445d5" x="49.452163" y="71.88693" style="fill: #555555; stroke: #555555; stroke-width: 1.5"/>
      </g>
     </g>
    </g>
    <g id="ytick_11">
     <g id="line2d_46">
      <g>
       <use xlink:href="#m81344445d5" x="49.452163" y="64.149579" style="fill: #555555; stroke: #555555; stroke-width: 1.5"/>
      </g>
     </g>
    </g>
    <g id="ytick_12">
     <g id="line2d_47">
      <g>
       <use xlink:href="#m81344445d5" x="49.452163" y="56.412229" style="fill: #555555; stroke: #555555; stroke-width: 1.5"/>
      </g>
     </g>
    </g>
    <g id="ytick_13">
     <g id="line2d_48">
      <g>
       <use xlink:href="#m81344445d5" x="49.452163" y="40.937528" style="fill: #555555; stroke: #555555; stroke-width: 1.5"/>
      </g>
     </g>
    </g>
    <g id="ytick_14">
     <g id="line2d_49">
      <g>
       <use xlink:href="#m81344445d5" x="49.452163" y="33.200177" style="fill: #555555; stroke: #555555; stroke-width: 1.5"/>
      </g>
     </g>
    </g>
    <g id="ytick_15">
     <g id="line2d_50">
      <g>
       <use xlink:href="#m81344445d5" x="49.452163" y="25.462827" style="fill: #555555; stroke: #555555; stroke-width: 1.5"/>
      </g>
     </g>
    </g>
   </g>
   <g id="line2d_51">
    <path d="M 49.452163 83.978797 
L 50.366829 82.772468 
L 51.379494 96.550298 
L 52.359493 85.584076 
L 53.372158 108.664641 
L 54.352157 88.739079 
L 55.364822 84.090145 
L 56.377488 88.574377 
L 57.357486 73.994663 
L 58.370152 43.277749 
L 59.35015 106.792718 
L 60.362816 86.757673 
L 61.375481 73.114726 
L 62.290147 64.699451 
L 63.302812 91.764462 
L 64.282811 72.466446 
L 65.295476 92.11796 
L 66.275475 102.071007 
L 67.28814 70.436855 
L 68.300805 104.126087 
L 69.280804 68.697337 
L 70.293469 58.295876 
L 71.273468 102.146233 
L 72.286133 97.170102 
L 73.298799 78.867555 
L 74.213464 89.995251 
L 75.22613 92.806747 
L 76.206128 105.699645 
L 77.218794 72.112903 
L 78.198792 65.056528 
L 79.211458 72.087775 
L 80.224123 106.591947 
L 81.204122 97.982787 
L 82.216787 74.816388 
L 83.196786 101.715058 
L 84.209451 95.289151 
L 85.222117 93.91939 
L 87.182114 77.069815 
L 88.162113 98.920986 
L 89.174778 86.158989 
L 90.154777 114.942603 
L 91.167442 97.461155 
L 92.180107 83.111764 
L 93.160106 88.10245 
L 94.172772 87.139351 
L 95.15277 98.807341 
L 96.165436 85.996571 
L 97.178101 67.728311 
L 98.092766 27.250154 
L 99.105432 76.299853 
L 100.08543 75.04012 
L 101.098096 59.34133 
L 102.078095 94.907017 
L 103.09076 33.052203 
L 104.103425 112.277014 
L 105.083424 82.137284 
L 106.096089 102.818053 
L 107.076088 73.036912 
L 108.088753 85.497263 
L 109.101419 56.769382 
L 110.016084 85.534459 
L 111.028749 97.448109 
L 112.008748 83.464483 
L 113.021414 81.398869 
L 114.001412 82.319909 
L 115.014078 29.388341 
L 116.026743 107.389951 
L 117.006742 64.086065 
L 118.019407 103.029448 
L 118.999406 85.73841 
L 120.012071 95.464278 
L 121.024736 100.219718 
L 121.939402 113.181791 
L 122.952067 66.167374 
L 123.932066 108.624492 
L 124.944731 94.864161 
L 125.92473 89.963863 
L 126.937395 66.06078 
L 127.950061 103.673192 
L 128.930059 87.61951 
L 129.942725 106.965524 
L 132.948054 89.340114 
L 133.895386 75.328189 
L 134.908052 94.487952 
L 135.88805 87.200957 
L 136.900716 76.888232 
L 137.880714 63.188633 
L 138.89338 92.121375 
L 139.906045 61.501463 
L 140.886044 93.12309 
L 141.898709 74.215172 
L 142.878708 102.922242 
L 143.891373 87.314515 
L 144.904039 75.837058 
L 145.818704 75.89995 
L 146.831369 50.400667 
L 147.811368 79.588114 
L 148.824033 74.295835 
L 149.804032 120.541876 
L 150.816698 117.422634 
L 151.829363 102.786738 
L 152.809362 86.372278 
L 153.822027 92.6623 
L 154.802026 71.504912 
L 155.814691 84.039616 
L 156.827356 92.384688 
L 157.742022 73.196541 
L 158.754687 57.56073 
L 159.734686 84.649211 
L 160.747351 77.827476 
L 161.72735 109.164927 
L 162.740015 99.238176 
L 163.752681 74.931296 
L 164.732679 90.385107 
L 165.745345 77.097951 
L 166.725343 97.556178 
L 168.750674 83.789344 
L 169.66534 66.08586 
L 170.678005 87.103891 
L 171.658004 99.517762 
L 172.670669 90.08196 
L 173.650668 76.659487 
L 174.663333 90.481916 
L 175.675998 74.974202 
L 176.655997 100.91702 
L 177.668662 97.117103 
L 178.648661 83.367733 
L 179.661326 113.327014 
L 180.673992 87.274243 
L 181.621324 98.309069 
L 182.633989 115.805626 
L 183.613988 92.454305 
L 184.626653 74.618334 
L 185.606652 62.099288 
L 186.619317 60.876924 
L 187.631983 95.194582 
L 188.611981 93.814669 
L 189.624647 79.52747 
L 190.604646 72.232022 
L 191.617311 117.117394 
L 192.629976 103.46722 
L 193.544642 74.12878 
L 194.557307 84.367185 
L 195.537306 93.020268 
L 196.549971 97.574043 
L 197.52997 102.693621 
L 198.542635 76.9751 
L 199.555301 108.544661 
L 200.535299 87.207963 
L 201.547965 84.280259 
L 202.527963 101.688166 
L 203.540629 99.902235 
L 204.553294 74.333472 
L 205.467959 102.136223 
L 206.480625 89.192497 
L 207.460624 69.8452 
L 208.473289 97.284476 
L 209.453288 99.386296 
L 210.465953 93.551067 
L 211.478618 97.300038 
L 212.458617 95.085858 
L 213.471282 91.377836 
L 214.451281 86.795968 
L 215.463946 95.748853 
L 216.476612 69.36592 
L 217.391277 101.398231 
L 218.403943 59.7535 
L 219.383941 73.488064 
L 220.396607 101.127779 
L 221.376605 78.126521 
L 222.389271 46.796841 
L 223.401936 30.477439 
L 224.381935 91.374563 
L 225.3946 100.418597 
L 226.374599 92.443786 
L 227.387264 77.105768 
L 228.399929 97.860498 
L 229.347262 83.036206 
L 230.359927 79.145384 
L 231.339926 74.147965 
L 232.352591 65.722596 
L 233.33259 109.252165 
L 234.345255 118.06215 
L 235.35792 83.421487 
L 236.337919 98.230634 
L 237.350584 76.498868 
L 238.330583 90.437385 
L 239.343249 97.751056 
L 240.355914 71.881815 
L 241.270579 87.150872 
L 242.283245 66.928279 
L 243.263243 80.894077 
L 244.275909 98.14347 
L 245.255907 95.178979 
L 246.268573 119.688746 
L 247.281238 108.978426 
L 248.261237 94.515866 
L 249.273902 98.568345 
L 250.253901 95.118058 
L 251.266566 64.99392 
L 252.279232 103.684974 
L 253.193897 114.2537 
L 254.206562 68.726346 
L 255.186561 90.334219 
L 256.199227 100.35699 
L 257.179225 99.656114 
L 258.191891 91.47209 
L 259.204556 118.761094 
L 260.184555 75.569126 
L 261.19722 81.380147 
L 262.177219 83.813201 
L 263.189884 90.924674 
L 264.202549 70.475846 
L 265.117215 102.644337 
L 266.12988 87.267953 
L 267.109879 79.572124 
L 268.122544 84.844814 
L 269.102543 84.120264 
L 270.115208 92.850837 
L 271.127874 94.691585 
L 272.107872 71.161056 
L 273.120538 81.144383 
L 275.113202 56.453126 
L 276.125867 87.788183 
L 277.073199 83.175806 
L 278.085865 90.939836 
L 279.065863 65.391759 
L 280.078529 67.24857 
L 281.058527 42.406012 
L 282.071193 114.446039 
L 283.083858 82.833738 
L 284.063857 100.648485 
L 285.076522 93.738883 
L 286.056521 98.401799 
L 287.069186 78.241454 
L 288.081852 97.934616 
L 288.996517 74.503608 
L 290.009182 96.719027 
L 290.989181 80.934043 
L 292.001846 107.490792 
L 292.981845 92.899032 
L 293.99451 116.277753 
L 295.007176 82.622386 
L 295.987175 80.34266 
L 296.99984 89.945782 
L 297.979839 88.301504 
L 298.992504 88.120699 
L 300.005169 86.832042 
L 300.919835 57.99962 
L 301.9325 81.209087 
L 302.912499 72.545044 
L 303.925164 87.553223 
L 304.905163 76.2578 
L 305.917828 89.891169 
L 306.930494 93.621322 
L 307.910492 93.855396 
L 308.923158 109.341143 
L 309.903156 90.61814 
L 310.915822 94.529733 
L 311.928487 79.988354 
L 312.843153 84.403104 
L 313.855818 96.971345 
L 314.835817 96.289968 
L 315.848482 90.902797 
L 316.828481 115.221441 
L 317.841146 53.344151 
L 318.853811 98.967042 
L 319.83381 87.860005 
L 320.846475 96.361169 
L 321.826474 92.626028 
L 322.839139 90.953791 
L 323.851805 81.598109 
L 324.799137 77.959541 
L 325.811802 89.512538 
L 326.791801 92.161201 
L 327.804466 63.350914 
L 328.784465 94.67026 
L 329.79713 115.206032 
L 330.809796 91.83083 
L 331.789794 80.131237 
L 332.80246 81.874812 
L 333.782458 73.886443 
L 334.795124 85.832934 
L 335.807789 86.5201 
L 336.722455 83.985671 
L 337.73512 90.420212 
L 339.727784 82.428473 
L 340.707783 55.510108 
L 341.720448 92.574669 
L 342.733113 84.172773 
L 343.713112 87.805588 
L 344.725778 90.63894 
L 345.705776 56.336654 
L 346.718442 60.118175 
L 347.731107 92.239533 
L 348.645772 87.938426 
L 349.658438 88.917422 
L 350.638436 86.703639 
L 351.651102 92.806401 
L 352.631101 107.295659 
L 353.643766 110.505457 
L 354.656431 79.782663 
L 355.63643 94.144605 
L 356.649095 74.406621 
L 357.629094 67.893081 
L 358.641759 82.377409 
L 359.654425 104.029539 
L 360.56909 88.101942 
L 361.581755 97.535289 
L 362.561754 86.334215 
L 363.57442 88.330444 
L 364.554418 86.337136 
L 365.567084 79.959912 
L 366.579749 92.389836 
L 367.559748 80.707373 
L 368.572413 91.140295 
L 369.552412 106.860477 
L 370.565077 85.203648 
L 371.577742 98.119101 
L 372.525075 91.356023 
L 373.53774 73.434953 
L 374.517739 67.222865 
L 375.530404 95.860092 
L 376.510403 101.18863 
L 377.523068 95.23666 
L 378.535733 76.309484 
L 379.515732 102.710298 
L 380.528397 104.568599 
L 381.508396 81.436842 
L 382.521061 89.539767 
L 383.533727 79.82358 
L 384.448392 78.878942 
L 385.461058 95.277728 
L 386.441056 71.142175 
L 387.453722 105.390742 
L 388.43372 108.188684 
L 389.446386 81.702975 
L 390.459051 85.001266 
L 391.43905 76.602983 
L 392.451715 73.174012 
L 394.444379 93.739403 
L 395.457045 89.351956 
L 396.37171 65.272049 
L 397.384375 85.954806 
L 398.364374 76.983716 
L 399.377039 112.259448 
L 400.357038 92.840867 
L 401.369704 98.906054 
L 402.382369 94.525399 
L 403.362368 80.672883 
L 404.375033 83.182443 
L 405.355032 77.580286 
L 406.367697 118.388509 
L 407.380362 100.876191 
L 408.295028 131.18723 
L 409.307693 78.892197 
L 410.287692 83.64175 
L 411.300357 102.395996 
L 412.280356 101.927584 
L 413.293021 102.186763 
L 414.305687 65.356346 
L 415.285685 93.017052 
L 416.298351 91.598789 
L 417.278349 80.276804 
L 418.291015 100.13618 
L 419.30368 79.777496 
L 420.251012 99.17346 
L 421.263678 53.498037 
L 422.243676 91.147553 
L 423.256342 111.714728 
L 424.23634 86.751174 
L 425.249006 92.83279 
L 426.261671 83.608328 
L 427.24167 89.795601 
L 428.254335 105.129939 
L 429.234334 82.333912 
L 430.246999 90.938247 
L 431.259664 92.064808 
L 432.17433 66.139044 
L 433.186995 85.450046 
L 434.166994 99.512016 
L 435.179659 91.769275 
L 436.159658 83.172301 
L 437.172323 27.673861 
L 438.184989 105.907196 
L 439.164987 99.172844 
L 440.177653 87.782924 
L 441.157652 79.686016 
L 442.170317 97.353659 
L 443.182982 91.433902 
L 444.097648 83.692358 
L 445.110313 73.396995 
L 446.090312 90.448402 
L 447.102977 54.494697 
L 448.082976 91.394743 
L 449.095641 67.711777 
L 450.108307 83.819368 
L 451.088305 96.478736 
L 452.100971 66.469749 
L 453.080969 79.272076 
L 454.093635 102.085967 
L 455.1063 97.618379 
L 456.020965 82.050195 
L 457.033631 82.523392 
L 458.01363 81.460347 
L 459.026295 86.257934 
L 460.006294 89.426022 
L 461.018959 123.943469 
L 462.031624 72.355345 
L 463.011623 53.1005 
L 464.024288 78.838485 
L 465.004287 79.435791 
L 466.016952 84.696213 
L 467.029618 77.808416 
L 467.97695 55.920149 
L 468.989615 97.019266 
L 469.969614 81.193652 
L 470.982279 121.784499 
L 471.962278 91.231608 
L 472.974943 126.057906 
L 473.987609 67.834725 
L 474.967607 112.439374 
L 475.980273 83.596903 
L 476.960271 92.210431 
L 477.972937 87.194339 
L 478.985602 97.942044 
L 479.900268 58.382973 
L 480.912933 90.051358 
L 481.892932 89.302416 
L 482.905597 84.105461 
L 483.885596 82.936677 
L 484.898261 83.163762 
L 485.910926 104.679197 
L 486.890925 75.199266 
L 487.90359 97.238748 
L 488.883589 104.033327 
L 489.896255 82.440114 
L 490.90892 81.929176 
L 491.823585 71.716086 
L 492.836251 98.961952 
L 493.816249 59.366677 
L 494.828915 91.848751 
L 495.808913 77.563434 
L 496.821579 83.7258 
L 497.834244 102.327524 
L 498.814243 98.740688 
L 499.826908 62.841951 
L 500.806907 67.880013 
L 501.819572 87.245122 
L 502.832238 89.773562 
L 503.746903 77.696515 
L 504.759568 74.13788 
L 505.739567 79.178636 
L 506.752233 73.524897 
L 507.732231 80.226254 
L 508.744897 80.240403 
L 509.757562 96.627299 
L 510.737561 65.917353 
L 511.750226 73.82385 
L 512.730225 67.914567 
L 513.74289 71.744091 
L 514.755555 69.876061 
L 515.702887 36.265617 
L 516.715553 124.294048 
L 517.695552 75.83057 
L 518.708217 82.24392 
L 519.688216 78.695834 
L 520.700881 103.318888 
L 521.713546 98.610533 
L 522.693545 113.239034 
L 523.70621 120.958698 
L 524.686209 89.732816 
L 525.698874 85.321998 
L 527.626205 94.774311 
L 528.638871 75.888722 
L 529.618869 75.004148 
L 530.631535 76.423837 
L 531.611533 105.73965 
L 532.624199 87.619981 
L 533.636864 88.015896 
L 534.616863 92.999617 
L 535.629528 74.61973 
L 536.609527 64.287501 
L 537.622192 86.85351 
L 538.634858 113.321393 
L 539.549523 70.684062 
L 540.562188 93.916686 
L 541.542187 84.960118 
L 542.554852 94.847092 
L 543.534851 95.140555 
L 544.547516 65.990585 
L 545.560182 89.505456 
L 546.540181 58.116198 
L 548.532845 81.666552 
L 549.54551 60.644725 
L 550.558175 88.806101 
L 551.472841 89.96217 
L 552.485506 82.185818 
L 553.465505 88.941049 
L 554.47817 87.869006 
L 555.458169 102.802874 
L 556.470834 85.253561 
L 557.4835 74.692621 
L 558.463498 128.456813 
L 559.476164 84.184038 
L 560.456162 94.453826 
L 561.468828 75.90327 
L 562.481493 93.973789 
L 563.428825 72.596805 
L 564.44149 84.918502 
L 565.421489 88.440149 
L 566.434155 116.337765 
L 567.414153 74.813625 
L 568.426819 86.27012 
L 569.439484 71.534664 
L 570.419483 104.47159 
L 571.432148 97.941202 
L 572.412147 90.028017 
L 573.424812 88.253738 
L 574.437477 71.61052 
L 575.352143 106.227884 
L 576.364808 82.976094 
L 577.344807 92.357645 
L 578.357472 92.223803 
L 579.337471 99.603239 
L 580.350136 112.472189 
L 581.362802 78.756088 
L 582.3428 104.039149 
L 583.355466 86.291906 
L 584.335464 93.384517 
L 585.34813 96.535445 
L 586.360795 97.657994 
L 587.275461 60.642692 
L 588.288126 94.945709 
L 589.268125 78.591956 
L 590.28079 109.229928 
L 591.260789 85.39943 
L 592.273454 105.255343 
L 593.286119 114.924975 
L 594.266118 85.829698 
L 595.278784 72.765411 
L 596.258782 103.3278 
L 597.271448 88.79682 
L 598.284113 102.790705 
L 599.198778 67.693261 
L 600.211444 104.051549 
L 601.191442 79.892066 
L 602.204108 76.659806 
L 603.184107 85.863019 
L 604.196772 114.144027 
L 605.209437 102.028919 
L 606.189436 92.994286 
L 607.202101 80.764294 
L 608.1821 78.648704 
L 609.194765 77.196376 
L 610.207431 86.533153 
L 611.154763 88.409081 
L 612.167428 59.49432 
L 613.147427 95.353187 
L 614.160092 97.035989 
L 615.140091 90.312307 
L 616.152756 96.580779 
L 617.165422 70.330204 
L 618.14542 81.652926 
L 619.158086 74.529851 
L 620.138084 75.241744 
L 621.15075 104.637211 
L 622.163415 93.25802 
L 623.078081 87.673249 
L 624.090746 105.101648 
L 625.070745 88.844077 
L 626.08341 90.621714 
L 627.063409 73.467741 
L 628.076074 73.882475 
L 629.088739 87.917434 
L 630.068738 104.470355 
L 631.081403 72.679711 
L 632.061402 94.66747 
L 633.074067 92.666675 
L 634.086733 89.163894 
L 635.001398 95.684211 
L 636.014064 90.732453 
L 636.994062 100.242936 
L 638.006728 82.876163 
L 638.986726 106.536058 
L 639.999392 91.139205 
L 641.012057 91.629312 
L 641.992056 83.471182 
L 643.004721 97.403438 
L 643.98472 88.08255 
L 644.997385 90.368096 
L 646.010051 62.793512 
L 646.924716 87.738169 
L 647.937381 105.032852 
L 648.91738 92.817179 
L 649.930045 90.137028 
L 650.910044 80.484313 
L 651.92271 92.917609 
L 652.935375 79.841634 
L 653.915374 83.708299 
L 654.928039 71.010525 
L 655.908038 89.786999 
L 656.920703 50.856882 
L 657.933368 119.036251 
L 658.8807 95.374549 
L 659.893366 98.177506 
L 660.873364 91.167292 
L 661.88603 81.284259 
L 662.866029 82.020376 
L 663.878694 68.230161 
L 664.891359 72.390538 
L 665.871358 85.180936 
L 666.884023 84.839148 
L 667.864022 60.077833 
L 668.876687 61.571168 
L 669.889353 79.292253 
L 670.804018 64.822121 
L 671.816684 78.463462 
L 672.796682 53.08671 
L 673.809348 82.734589 
L 674.789346 92.728813 
L 675.802012 85.177981 
L 676.814677 105.737459 
L 677.794676 88.612939 
L 678.807341 79.061801 
L 679.78734 110.394899 
L 681.81267 58.804027 
L 682.727336 67.841649 
L 683.740001 93.956944 
L 684.72 51.836711 
L 684.72 51.836711 
" clip-path="url(#pc69e671561)" style="fill: none; stroke: #4d3c2f; stroke-width: 2.25; stroke-linecap: square"/>
   </g>
   <g id="patch_3">
    <path d="M 49.452163 136.384084 
L 49.452163 22.0533 
" style="fill: none; stroke: #ffffff; stroke-width: 1.875; stroke-linejoin: miter; stroke-linecap: square"/>
   </g>
   <g id="patch_4">
    <path d="M 49.452163 136.384084 
L 684.72 136.384084 
" style="fill: none; stroke: #ffffff; stroke-width: 1.875; stroke-linejoin: miter; stroke-linecap: square"/>
   </g>
   <g id="text_4">
    <!-- Standardized Residuals -->
    <g transform="translate(283.436503 16.0533)scale(0.18 -0.18)">
     <defs>
      <path id="CMR17-53" d="M 2803 4290 
C 2803 4404 2797 4411 2758 4411 
C 2720 4411 2707 4385 2682 4328 
L 2490 3907 
C 2246 4257 1875 4416 1472 4416 
C 819 4416 294 3901 294 3253 
C 294 3056 339 2776 557 2510 
C 794 2218 1018 2167 1530 2033 
C 1722 1982 2042 1899 2106 1874 
C 2470 1722 2662 1341 2662 985 
C 2662 527 2336 38 1779 38 
C 1094 38 454 419 410 1311 
C 403 1413 397 1419 352 1419 
C 301 1419 294 1413 294 1285 
L 294 -1 
C 294 -115 301 -122 339 -122 
C 384 -122 397 -90 486 108 
C 493 127 493 140 614 381 
C 934 -39 1472 -128 1779 -128 
C 2477 -128 2970 451 2970 1124 
C 2970 1454 2848 1708 2778 1823 
C 2509 2230 2221 2306 1914 2382 
C 1869 2402 1856 2402 1498 2490 
C 1152 2579 1005 2624 845 2796 
C 666 2992 602 3196 602 3399 
C 602 3812 934 4263 1478 4263 
C 2157 4263 2579 3786 2675 2993 
C 2694 2878 2701 2872 2746 2872 
C 2803 2872 2803 2891 2803 2999 
L 2803 4290 
z
" transform="scale(0.015625)"/>
      <path id="CMR17-74" d="M 966 2560 
L 1862 2560 
L 1862 2725 
L 966 2725 
L 966 3904 
L 851 3904 
C 838 3245 614 2668 70 2668 
L 70 2560 
L 627 2560 
L 627 771 
C 627 650 627 -64 1370 -64 
C 1747 -64 1965 306 1965 777 
L 1965 1140 
L 1850 1140 
L 1850 783 
C 1850 344 1677 51 1408 51 
C 1222 51 966 178 966 758 
L 966 2560 
z
" transform="scale(0.015625)"/>
      <path id="CMR17-61" d="M 2304 1653 
C 2304 2072 2304 2294 2035 2543 
C 1798 2752 1523 2816 1306 2816 
C 800 2816 435 2407 435 1971 
C 435 1728 627 1728 666 1728 
C 749 1728 896 1778 896 1954 
C 896 2112 774 2181 666 2181 
C 640 2181 608 2174 589 2168 
C 723 2592 1069 2714 1293 2714 
C 1613 2714 1965 2429 1965 1885 
L 1965 1600 
C 1587 1600 1133 1549 774 1357 
C 371 1133 256 813 256 570 
C 256 77 832 -64 1171 -64 
C 1523 -64 1850 139 1990 511 
C 2003 233 2182 -18 2464 -18 
C 2598 -18 2938 70 2938 567 
L 2938 920 
L 2822 920 
L 2822 562 
C 2822 178 2650 128 2566 128 
C 2304 128 2304 458 2304 738 
L 2304 1653 
z
M 1965 870 
C 1965 317 1568 38 1216 38 
C 896 38 646 275 646 570 
C 646 761 730 1100 1101 1305 
C 1408 1478 1760 1504 1965 1504 
L 1965 870 
z
" transform="scale(0.015625)"/>
      <path id="CMR17-6e" d="M 2656 1933 
C 2656 2259 2592 2790 1837 2790 
C 1331 2790 1069 2400 973 2144 
L 966 2144 
L 966 2790 
L 211 2720 
L 211 2554 
C 589 2554 646 2515 646 2208 
L 646 428 
C 646 184 621 153 211 153 
L 211 -13 
C 365 0 646 0 813 0 
C 979 0 1267 0 1421 -13 
L 1421 153 
C 1011 153 986 178 986 428 
L 986 1658 
C 986 2247 1344 2688 1792 2688 
C 2266 2688 2317 2266 2317 1958 
L 2317 428 
C 2317 184 2291 153 1882 153 
L 1882 -13 
C 2035 0 2317 0 2483 0 
C 2650 0 2938 0 3091 -13 
L 3091 153 
C 2682 153 2656 178 2656 428 
L 2656 1933 
z
" transform="scale(0.015625)"/>
      <path id="CMR17-64" d="M 1869 4326 
L 1869 4160 
C 2246 4160 2304 4122 2304 3820 
L 2304 2345 
C 2278 2377 2016 2790 1498 2790 
C 845 2790 211 2208 211 1364 
C 211 525 806 -64 1434 -64 
C 1978 -64 2259 337 2291 380 
L 2291 -63 
L 3066 -63 
L 3066 128 
C 2688 128 2630 166 2630 473 
L 2630 4396 
L 1869 4326 
z
M 2291 755 
C 2291 563 2176 390 2029 262 
C 1811 70 1594 38 1472 38 
C 1286 38 621 134 621 1356 
C 621 2612 1363 2688 1530 2688 
C 1824 2688 2061 2522 2208 2291 
C 2291 2157 2291 2138 2291 2023 
L 2291 755 
z
" transform="scale(0.015625)"/>
      <path id="CMR17-72" d="M 960 1497 
C 960 2112 1222 2688 1702 2688 
C 1747 2688 1792 2682 1837 2662 
C 1837 2662 1696 2617 1696 2452 
C 1696 2298 1818 2234 1914 2234 
C 1990 2234 2131 2279 2131 2458 
C 2131 2663 1926 2790 1709 2790 
C 1222 2790 1011 2317 947 2093 
L 941 2093 
L 941 2790 
L 198 2720 
L 198 2554 
C 576 2554 634 2515 634 2208 
L 634 428 
C 634 184 608 153 198 153 
L 198 -13 
C 352 0 646 0 813 0 
C 998 0 1325 0 1498 -13 
L 1498 153 
C 1037 153 960 153 960 440 
L 960 1497 
z
" transform="scale(0.015625)"/>
      <path id="CMR17-69" d="M 992 3909 
C 992 4049 877 4170 730 4170 
C 589 4170 467 4056 467 3909 
C 467 3769 582 3648 730 3648 
C 870 3648 992 3763 992 3909 
z
M 243 2706 
L 243 2541 
C 602 2541 653 2502 653 2197 
L 653 427 
C 653 184 627 153 218 153 
L 218 -13 
C 371 0 646 0 806 0 
C 960 0 1222 0 1370 -13 
L 1370 153 
C 992 153 979 191 979 420 
L 979 2776 
L 243 2706 
z
" transform="scale(0.015625)"/>
      <path id="CMR17-7a" d="M 2310 2605 
C 2362 2670 2362 2682 2362 2695 
C 2362 2752 2336 2752 2221 2752 
L 275 2752 
L 211 1760 
L 326 1760 
C 371 2381 442 2650 1178 2650 
L 1958 2650 
L 128 96 
C 128 0 134 0 269 0 
L 2291 0 
L 2381 1152 
L 2266 1152 
C 2214 442 2131 115 1350 115 
L 531 115 
L 2310 2605 
z
" transform="scale(0.015625)"/>
      <path id="CMR17-65" d="M 2438 1472 
C 2464 1498 2464 1511 2464 1576 
C 2464 2238 2118 2816 1389 2816 
C 710 2816 173 2169 173 1383 
C 173 551 781 -64 1459 -64 
C 2176 -64 2458 607 2458 740 
C 2458 784 2419 784 2406 784 
C 2362 784 2355 771 2330 696 
C 2189 265 1837 51 1504 51 
C 1229 51 954 203 781 480 
C 582 803 582 1176 582 1472 
L 2438 1472 
z
M 589 1568 
C 634 2505 1126 2714 1382 2714 
C 1818 2714 2112 2297 2118 1568 
L 589 1568 
z
" transform="scale(0.015625)"/>
      <path id="CMR17-52" d="M 2509 2146 
C 3117 2268 3629 2676 3629 3186 
C 3629 3785 2950 4326 2054 4326 
L 333 4326 
L 333 4160 
C 774 4160 845 4160 845 3873 
L 845 415 
C 845 128 774 128 333 128 
L 333 -26 
C 518 -26 851 -26 1050 -26 
C 1248 -26 1581 -26 1766 -26 
L 1766 128 
C 1325 128 1254 128 1254 417 
L 1254 2112 
L 2003 2112 
C 2368 2112 2573 1964 2662 1881 
C 2918 1632 2918 1459 2918 1024 
C 2918 595 2918 377 3110 160 
C 3354 -102 3680 -128 3821 -128 
C 4294 -128 4365 396 4365 503 
C 4365 540 4365 585 4307 585 
C 4256 585 4250 547 4250 522 
C 4218 112 4032 -26 3834 -26 
C 3482 -26 3443 375 3405 764 
C 3386 898 3373 993 3360 1133 
C 3322 1452 3270 1917 2509 2146 
z
M 1984 2214 
L 1254 2214 
L 1254 3913 
C 1254 4129 1267 4160 1523 4160 
L 1990 4160 
C 2522 4160 3142 3977 3142 3190 
C 3142 2372 2464 2214 1984 2214 
z
" transform="scale(0.015625)"/>
      <path id="CMR17-73" d="M 1978 2697 
C 1978 2813 1971 2819 1933 2819 
C 1907 2819 1901 2813 1824 2717 
C 1805 2691 1747 2626 1728 2601 
C 1523 2819 1235 2819 1126 2819 
C 416 2819 160 2447 160 2076 
C 160 1498 813 1365 998 1325 
C 1402 1243 1542 1217 1677 1101 
C 1760 1025 1901 884 1901 654 
C 1901 384 1747 38 1158 38 
C 602 38 403 460 288 1021 
C 269 1110 269 1117 218 1117 
C 166 1117 160 1110 160 983 
L 160 63 
C 160 -51 166 -58 205 -58 
C 237 -58 243 -51 275 0 
C 314 57 410 211 448 276 
C 576 103 800 -64 1158 -64 
C 1792 -64 2131 283 2131 784 
C 2131 1112 1958 1285 1875 1362 
C 1683 1561 1459 1606 1190 1657 
C 838 1735 390 1825 390 2217 
C 390 2383 480 2737 1126 2737 
C 1811 2737 1850 2094 1862 1888 
C 1869 1856 1901 1849 1920 1849 
C 1978 1849 1978 1869 1978 1978 
L 1978 2697 
z
" transform="scale(0.015625)"/>
      <path id="CMR17-75" d="M 1882 2693 
L 1882 2528 
C 2259 2528 2317 2489 2317 2186 
L 2317 1032 
C 2317 500 2029 38 1555 38 
C 1030 38 986 348 986 678 
L 986 2763 
L 211 2693 
L 211 2528 
C 467 2528 640 2528 646 2274 
L 646 1058 
C 646 633 646 361 813 183 
C 896 101 1056 -64 1517 -64 
C 2061 -64 2272 377 2323 506 
L 2330 506 
L 2330 -63 
L 3091 -63 
L 3091 128 
C 2714 128 2656 166 2656 473 
L 2656 2763 
L 1882 2693 
z
" transform="scale(0.015625)"/>
      <path id="CMR17-6c" d="M 979 4396 
L 218 4326 
L 218 4160 
C 595 4160 653 4122 653 3817 
L 653 426 
C 653 184 627 153 218 153 
L 218 -13 
C 371 0 653 0 813 0 
C 979 0 1261 0 1414 -13 
L 1414 153 
C 1005 153 979 178 979 426 
L 979 4396 
z
" transform="scale(0.015625)"/>
     </defs>
     <use xlink:href="#CMR17-53" transform="scale(0.996264)"/>
     <use xlink:href="#CMR17-74" transform="translate(50.89537 0)scale(0.996264)"/>
     <use xlink:href="#CMR17-61" transform="translate(86.176138 0)scale(0.996264)"/>
     <use xlink:href="#CMR17-6e" transform="translate(131.866615 0)scale(0.996264)"/>
     <use xlink:href="#CMR17-64" transform="translate(182.761984 0)scale(0.996264)"/>
     <use xlink:href="#CMR17-61" transform="translate(233.657354 0)scale(0.996264)"/>
     <use xlink:href="#CMR17-72" transform="translate(279.347831 0)scale(0.996264)"/>
     <use xlink:href="#CMR17-64" transform="translate(314.628599 0)scale(0.996264)"/>
     <use xlink:href="#CMR17-69" transform="translate(365.523969 0)scale(0.996264)"/>
     <use xlink:href="#CMR17-7a" transform="translate(390.395027 0)scale(0.996264)"/>
     <use xlink:href="#CMR17-65" transform="translate(430.880688 0)scale(0.996264)"/>
     <use xlink:href="#CMR17-64" transform="translate(471.366348 0)scale(0.996264)"/>
     <use xlink:href="#CMR17-52" transform="translate(552.337684 0)scale(0.996264)"/>
     <use xlink:href="#CMR17-65" transform="translate(620.128786 0)scale(0.996264)"/>
     <use xlink:href="#CMR17-73" transform="translate(660.614447 0)scale(0.996264)"/>
     <use xlink:href="#CMR17-69" transform="translate(696.415785 0)scale(0.996264)"/>
     <use xlink:href="#CMR17-64" transform="translate(721.286843 0)scale(0.996264)"/>
     <use xlink:href="#CMR17-75" transform="translate(772.182213 0)scale(0.996264)"/>
     <use xlink:href="#CMR17-61" transform="translate(823.077583 0)scale(0.996264)"/>
     <use xlink:href="#CMR17-6c" transform="translate(868.76806 0)scale(0.996264)"/>
     <use xlink:href="#CMR17-73" transform="translate(893.639118 0)scale(0.996264)"/>
    </g>
   </g>
  </g>
  <g id="axes_2">
   <g id="patch_5">
    <path d="M 49.452163 297.608168 
L 684.72 297.608168 
L 684.72 183.277384 
L 49.452163 183.277384 
z
" style="fill: #e5e5e5"/>
   </g>
   <g id="matplotlib.axis_3">
    <g id="xtick_27">
     <g id="line2d_52">
      <path d="M 60.395482 297.608168 
L 60.395482 183.277384 
" clip-path="url(#p847432181c)" style="fill: none; stroke: #ffffff; stroke-width: 1.5; stroke-linecap: square"/>
     </g>
     <g id="line2d_53">
      <g>
       <use xlink:href="#mec9e748b7a" x="60.395482" y="297.608168" style="fill: #555555; stroke: #555555; stroke-width: 1.875"/>
      </g>
     </g>
     <g id="text_5">
      <!-- $\mathdefault{1970}$ -->
      <g style="fill: #555555" transform="translate(44.299774 321.523673)scale(0.165 -0.165)">
       <defs>
        <path id="CMR17-31" d="M 1702 4058 
C 1702 4192 1696 4192 1606 4192 
C 1357 3916 979 3827 621 3827 
C 602 3827 570 3827 563 3808 
C 557 3795 557 3782 557 3648 
C 755 3648 1088 3686 1344 3839 
L 1344 461 
C 1344 236 1331 160 781 160 
L 589 160 
L 589 0 
C 896 0 1216 0 1523 0 
C 1830 0 2150 0 2458 0 
L 2458 160 
L 2266 160 
C 1715 160 1702 230 1702 458 
L 1702 4058 
z
" transform="scale(0.015625)"/>
        <path id="CMR17-39" d="M 2253 1864 
C 2253 464 1670 31 1190 31 
C 1043 31 685 31 538 294 
C 704 268 826 357 826 518 
C 826 692 685 749 595 749 
C 538 749 365 723 365 506 
C 365 71 742 -128 1203 -128 
C 1939 -128 2688 674 2688 2073 
C 2688 3817 1971 4179 1485 4179 
C 851 4179 243 3628 243 2778 
C 243 1991 762 1408 1414 1408 
C 1952 1408 2189 1903 2253 2112 
L 2253 1864 
z
M 1427 1510 
C 1254 1510 1011 1542 813 1922 
C 678 2169 678 2461 678 2771 
C 678 3146 678 3405 858 3684 
C 947 3817 1114 4032 1485 4032 
C 2240 4032 2240 2885 2240 2632 
C 2240 2182 2035 1510 1427 1510 
z
" transform="scale(0.015625)"/>
        <path id="CMR17-37" d="M 2886 3941 
L 2886 4081 
L 1382 4081 
C 634 4081 621 4165 595 4288 
L 480 4288 
L 294 3094 
L 410 3094 
C 429 3215 474 3540 550 3661 
C 589 3712 1062 3712 1171 3712 
L 2579 3712 
L 1869 2661 
C 1395 1954 1069 999 1069 165 
C 1069 89 1069 -128 1299 -128 
C 1530 -128 1530 89 1530 171 
L 1530 465 
C 1530 1508 1709 2196 2003 2636 
L 2886 3941 
z
" transform="scale(0.015625)"/>
       </defs>
       <use xlink:href="#CMR17-31" transform="scale(0.996264)"/>
       <use xlink:href="#CMR17-39" transform="translate(45.690477 0)scale(0.996264)"/>
       <use xlink:href="#CMR17-37" transform="translate(91.380954 0)scale(0.996264)"/>
       <use xlink:href="#CMR17-30" transform="translate(137.071431 0)scale(0.996264)"/>
      </g>
     </g>
    </g>
    <g id="xtick_28">
     <g id="line2d_54">
      <path d="M 179.693993 297.608168 
L 179.693993 183.277384 
" clip-path="url(#p847432181c)" style="fill: none; stroke: #ffffff; stroke-width: 1.5; stroke-linecap: square"/>
     </g>
     <g id="line2d_55">
      <g>
       <use xlink:href="#mec9e748b7a" x="179.693993" y="297.608168" style="fill: #555555; stroke: #555555; stroke-width: 1.875"/>
      </g>
     </g>
     <g id="text_6">
      <!-- $\mathdefault{1980}$ -->
      <g style="fill: #555555" transform="translate(163.598285 321.523673)scale(0.165 -0.165)">
       <defs>
        <path id="CMR17-38" d="M 1741 2264 
C 2144 2467 2554 2773 2554 3263 
C 2554 3841 1990 4179 1472 4179 
C 890 4179 378 3759 378 3180 
C 378 3021 416 2747 666 2505 
C 730 2442 998 2251 1171 2130 
C 883 1983 211 1634 211 934 
C 211 279 838 -128 1459 -128 
C 2144 -128 2720 362 2720 1010 
C 2720 1590 2330 1857 2074 2029 
L 1741 2264 
z
M 902 2822 
C 851 2854 595 3051 595 3351 
C 595 3739 998 4032 1459 4032 
C 1965 4032 2336 3676 2336 3262 
C 2336 2669 1670 2331 1638 2331 
C 1632 2331 1626 2331 1574 2370 
L 902 2822 
z
M 2080 1519 
C 2176 1449 2483 1240 2483 851 
C 2483 381 2010 25 1472 25 
C 890 25 448 438 448 940 
C 448 1443 838 1862 1280 2060 
L 2080 1519 
z
" transform="scale(0.015625)"/>
       </defs>
       <use xlink:href="#CMR17-31" transform="scale(0.996264)"/>
       <use xlink:href="#CMR17-39" transform="translate(45.690477 0)scale(0.996264)"/>
       <use xlink:href="#CMR17-38" transform="translate(91.380954 0)scale(0.996264)"/>
       <use xlink:href="#CMR17-30" transform="translate(137.071431 0)scale(0.996264)"/>
      </g>
     </g>
    </g>
    <g id="xtick_29">
     <g id="line2d_56">
      <path d="M 299.025171 297.608168 
L 299.025171 183.277384 
" clip-path="url(#p847432181c)" style="fill: none; stroke: #ffffff; stroke-width: 1.5; stroke-linecap: square"/>
     </g>
     <g id="line2d_57">
      <g>
       <use xlink:href="#mec9e748b7a" x="299.025171" y="297.608168" style="fill: #555555; stroke: #555555; stroke-width: 1.875"/>
      </g>
     </g>
     <g id="text_7">
      <!-- $\mathdefault{1990}$ -->
      <g style="fill: #555555" transform="translate(282.929463 321.523673)scale(0.165 -0.165)">
       <use xlink:href="#CMR17-31" transform="scale(0.996264)"/>
       <use xlink:href="#CMR17-39" transform="translate(45.690477 0)scale(0.996264)"/>
       <use xlink:href="#CMR17-39" transform="translate(91.380954 0)scale(0.996264)"/>
       <use xlink:href="#CMR17-30" transform="translate(137.071431 0)scale(0.996264)"/>
      </g>
     </g>
    </g>
    <g id="xtick_30">
     <g id="line2d_58">
      <path d="M 418.323681 297.608168 
L 418.323681 183.277384 
" clip-path="url(#p847432181c)" style="fill: none; stroke: #ffffff; stroke-width: 1.5; stroke-linecap: square"/>
     </g>
     <g id="line2d_59">
      <g>
       <use xlink:href="#mec9e748b7a" x="418.323681" y="297.608168" style="fill: #555555; stroke: #555555; stroke-width: 1.875"/>
      </g>
     </g>
     <g id="text_8">
      <!-- $\mathdefault{2000}$ -->
      <g style="fill: #555555" transform="translate(402.227973 321.523673)scale(0.165 -0.165)">
       <use xlink:href="#CMR17-32" transform="scale(0.996264)"/>
       <use xlink:href="#CMR17-30" transform="translate(45.690477 0)scale(0.996264)"/>
       <use xlink:href="#CMR17-30" transform="translate(91.380954 0)scale(0.996264)"/>
       <use xlink:href="#CMR17-30" transform="translate(137.071431 0)scale(0.996264)"/>
      </g>
     </g>
    </g>
    <g id="xtick_31">
     <g id="line2d_60">
      <path d="M 537.654859 297.608168 
L 537.654859 183.277384 
" clip-path="url(#p847432181c)" style="fill: none; stroke: #ffffff; stroke-width: 1.5; stroke-linecap: square"/>
     </g>
     <g id="line2d_61">
      <g>
       <use xlink:href="#mec9e748b7a" x="537.654859" y="297.608168" style="fill: #555555; stroke: #555555; stroke-width: 1.875"/>
      </g>
     </g>
     <g id="text_9">
      <!-- $\mathdefault{2010}$ -->
      <g style="fill: #555555" transform="translate(521.559151 321.523673)scale(0.165 -0.165)">
       <use xlink:href="#CMR17-32" transform="scale(0.996264)"/>
       <use xlink:href="#CMR17-30" transform="translate(45.690477 0)scale(0.996264)"/>
       <use xlink:href="#CMR17-31" transform="translate(91.380954 0)scale(0.996264)"/>
       <use xlink:href="#CMR17-30" transform="translate(137.071431 0)scale(0.996264)"/>
      </g>
     </g>
    </g>
    <g id="xtick_32">
     <g id="line2d_62">
      <path d="M 656.95337 297.608168 
L 656.95337 183.277384 
" clip-path="url(#p847432181c)" style="fill: none; stroke: #ffffff; stroke-width: 1.5; stroke-linecap: square"/>
     </g>
     <g id="line2d_63">
      <g>
       <use xlink:href="#mec9e748b7a" x="656.95337" y="297.608168" style="fill: #555555; stroke: #555555; stroke-width: 1.875"/>
      </g>
     </g>
     <g id="text_10">
      <!-- $\mathdefault{2020}$ -->
      <g style="fill: #555555" transform="translate(640.857662 321.523673)scale(0.165 -0.165)">
       <use xlink:href="#CMR17-32" transform="scale(0.996264)"/>
       <use xlink:href="#CMR17-30" transform="translate(45.690477 0)scale(0.996264)"/>
       <use xlink:href="#CMR17-32" transform="translate(91.380954 0)scale(0.996264)"/>
       <use xlink:href="#CMR17-30" transform="translate(137.071431 0)scale(0.996264)"/>
      </g>
     </g>
    </g>
    <g id="xtick_33">
     <g id="line2d_64">
      <g>
       <use xlink:href="#m3b5cb2931d" x="90.228277" y="297.608168" style="fill: #555555; stroke: #555555; stroke-width: 1.5"/>
      </g>
     </g>
    </g>
    <g id="xtick_34">
     <g id="line2d_65">
      <g>
       <use xlink:href="#m3b5cb2931d" x="120.061071" y="297.608168" style="fill: #555555; stroke: #555555; stroke-width: 1.5"/>
      </g>
     </g>
    </g>
    <g id="xtick_35">
     <g id="line2d_66">
      <g>
       <use xlink:href="#m3b5cb2931d" x="149.893865" y="297.608168" style="fill: #555555; stroke: #555555; stroke-width: 1.5"/>
      </g>
     </g>
    </g>
    <g id="xtick_36">
     <g id="line2d_67">
      <g>
       <use xlink:href="#m3b5cb2931d" x="179.72666" y="297.608168" style="fill: #555555; stroke: #555555; stroke-width: 1.5"/>
      </g>
     </g>
    </g>
    <g id="xtick_37">
     <g id="line2d_68">
      <g>
       <use xlink:href="#m3b5cb2931d" x="209.559454" y="297.608168" style="fill: #555555; stroke: #555555; stroke-width: 1.5"/>
      </g>
     </g>
    </g>
    <g id="xtick_38">
     <g id="line2d_69">
      <g>
       <use xlink:href="#m3b5cb2931d" x="239.392248" y="297.608168" style="fill: #555555; stroke: #555555; stroke-width: 1.5"/>
      </g>
     </g>
    </g>
    <g id="xtick_39">
     <g id="line2d_70">
      <g>
       <use xlink:href="#m3b5cb2931d" x="269.225043" y="297.608168" style="fill: #555555; stroke: #555555; stroke-width: 1.5"/>
      </g>
     </g>
    </g>
    <g id="xtick_40">
     <g id="line2d_71">
      <g>
       <use xlink:href="#m3b5cb2931d" x="299.057837" y="297.608168" style="fill: #555555; stroke: #555555; stroke-width: 1.5"/>
      </g>
     </g>
    </g>
    <g id="xtick_41">
     <g id="line2d_72">
      <g>
       <use xlink:href="#m3b5cb2931d" x="328.890632" y="297.608168" style="fill: #555555; stroke: #555555; stroke-width: 1.5"/>
      </g>
     </g>
    </g>
    <g id="xtick_42">
     <g id="line2d_73">
      <g>
       <use xlink:href="#m3b5cb2931d" x="358.723426" y="297.608168" style="fill: #555555; stroke: #555555; stroke-width: 1.5"/>
      </g>
     </g>
    </g>
    <g id="xtick_43">
     <g id="line2d_74">
      <g>
       <use xlink:href="#m3b5cb2931d" x="388.55622" y="297.608168" style="fill: #555555; stroke: #555555; stroke-width: 1.5"/>
      </g>
     </g>
    </g>
    <g id="xtick_44">
     <g id="line2d_75">
      <g>
       <use xlink:href="#m3b5cb2931d" x="418.389015" y="297.608168" style="fill: #555555; stroke: #555555; stroke-width: 1.5"/>
      </g>
     </g>
    </g>
    <g id="xtick_45">
     <g id="line2d_76">
      <g>
       <use xlink:href="#m3b5cb2931d" x="448.221809" y="297.608168" style="fill: #555555; stroke: #555555; stroke-width: 1.5"/>
      </g>
     </g>
    </g>
    <g id="xtick_46">
     <g id="line2d_77">
      <g>
       <use xlink:href="#m3b5cb2931d" x="478.054603" y="297.608168" style="fill: #555555; stroke: #555555; stroke-width: 1.5"/>
      </g>
     </g>
    </g>
    <g id="xtick_47">
     <g id="line2d_78">
      <g>
       <use xlink:href="#m3b5cb2931d" x="507.887398" y="297.608168" style="fill: #555555; stroke: #555555; stroke-width: 1.5"/>
      </g>
     </g>
    </g>
    <g id="xtick_48">
     <g id="line2d_79">
      <g>
       <use xlink:href="#m3b5cb2931d" x="537.720192" y="297.608168" style="fill: #555555; stroke: #555555; stroke-width: 1.5"/>
      </g>
     </g>
    </g>
    <g id="xtick_49">
     <g id="line2d_80">
      <g>
       <use xlink:href="#m3b5cb2931d" x="567.552986" y="297.608168" style="fill: #555555; stroke: #555555; stroke-width: 1.5"/>
      </g>
     </g>
    </g>
    <g id="xtick_50">
     <g id="line2d_81">
      <g>
       <use xlink:href="#m3b5cb2931d" x="597.385781" y="297.608168" style="fill: #555555; stroke: #555555; stroke-width: 1.5"/>
      </g>
     </g>
    </g>
    <g id="xtick_51">
     <g id="line2d_82">
      <g>
       <use xlink:href="#m3b5cb2931d" x="627.218575" y="297.608168" style="fill: #555555; stroke: #555555; stroke-width: 1.5"/>
      </g>
     </g>
    </g>
    <g id="xtick_52">
     <g id="line2d_83">
      <g>
       <use xlink:href="#m3b5cb2931d" x="657.051369" y="297.608168" style="fill: #555555; stroke: #555555; stroke-width: 1.5"/>
      </g>
     </g>
    </g>
   </g>
   <g id="matplotlib.axis_4">
    <g id="ytick_16">
     <g id="line2d_84">
      <path d="M 49.452163 259.760975 
L 684.72 259.760975 
" clip-path="url(#p847432181c)" style="fill: none; stroke: #ffffff; stroke-width: 1.5; stroke-linecap: square"/>
     </g>
     <g id="line2d_85">
      <g>
       <use xlink:href="#md97f71917a" x="49.452163" y="259.760975" style="fill: #555555; stroke: #555555; stroke-width: 1.875"/>
      </g>
     </g>
     <g id="text_11">
      <!-- $\mathdefault{1}$ -->
      <g style="fill: #555555" transform="translate(28.904309 265.468728)scale(0.165 -0.165)">
       <use xlink:href="#CMR17-31" transform="scale(0.996264)"/>
      </g>
     </g>
    </g>
    <g id="ytick_17">
     <g id="line2d_86">
      <path d="M 49.452163 193.897062 
L 684.72 193.897062 
" clip-path="url(#p847432181c)" style="fill: none; stroke: #ffffff; stroke-width: 1.5; stroke-linecap: square"/>
     </g>
     <g id="line2d_87">
      <g>
       <use xlink:href="#md97f71917a" x="49.452163" y="193.897062" style="fill: #555555; stroke: #555555; stroke-width: 1.875"/>
      </g>
     </g>
     <g id="text_12">
      <!-- $\mathdefault{2}$ -->
      <g style="fill: #555555" transform="translate(28.904309 199.604814)scale(0.165 -0.165)">
       <use xlink:href="#CMR17-32" transform="scale(0.996264)"/>
      </g>
     </g>
    </g>
    <g id="ytick_18">
     <g id="line2d_88">
      <g>
       <use xlink:href="#m81344445d5" x="49.452163" y="286.106541" style="fill: #555555; stroke: #555555; stroke-width: 1.5"/>
      </g>
     </g>
    </g>
    <g id="ytick_19">
     <g id="line2d_89">
      <g>
       <use xlink:href="#m81344445d5" x="49.452163" y="272.933758" style="fill: #555555; stroke: #555555; stroke-width: 1.5"/>
      </g>
     </g>
    </g>
    <g id="ytick_20">
     <g id="line2d_90">
      <g>
       <use xlink:href="#m81344445d5" x="49.452163" y="246.588193" style="fill: #555555; stroke: #555555; stroke-width: 1.5"/>
      </g>
     </g>
    </g>
    <g id="ytick_21">
     <g id="line2d_91">
      <g>
       <use xlink:href="#m81344445d5" x="49.452163" y="233.41541" style="fill: #555555; stroke: #555555; stroke-width: 1.5"/>
      </g>
     </g>
    </g>
    <g id="ytick_22">
     <g id="line2d_92">
      <g>
       <use xlink:href="#m81344445d5" x="49.452163" y="220.242627" style="fill: #555555; stroke: #555555; stroke-width: 1.5"/>
      </g>
     </g>
    </g>
    <g id="ytick_23">
     <g id="line2d_93">
      <g>
       <use xlink:href="#m81344445d5" x="49.452163" y="207.069845" style="fill: #555555; stroke: #555555; stroke-width: 1.5"/>
      </g>
     </g>
    </g>
   </g>
   <g id="line2d_94">
    <path d="M 49.452163 274.527141 
L 50.366829 278.481348 
L 51.379494 281.568192 
L 52.359493 283.057782 
L 53.372158 285.608989 
L 54.352157 281.377491 
L 55.364822 284.271581 
L 57.357486 288.367142 
L 58.370152 287.489956 
L 59.35015 267.755803 
L 60.362816 265.098178 
L 61.375481 270.874058 
L 62.290147 271.507171 
L 63.302812 266.316897 
L 64.282811 271.448427 
L 65.295476 271.661726 
L 66.275475 275.867278 
L 67.28814 275.802934 
L 69.280804 273.398304 
L 70.293469 271.135375 
L 71.273468 260.306884 
L 72.286133 261.440208 
L 74.213464 269.457331 
L 75.22613 274.362351 
L 76.206128 277.984254 
L 77.218794 275.733228 
L 78.198792 275.39375 
L 79.211458 270.553286 
L 80.224123 270.613492 
L 81.204122 268.042683 
L 82.216787 270.839548 
L 83.196786 272.387383 
L 84.209451 272.826715 
L 87.182114 282.440869 
L 88.162113 283.452803 
L 89.174778 283.888897 
L 90.154777 286.305456 
L 91.167442 278.321829 
L 92.180107 279.993949 
L 94.172772 285.496661 
L 95.15277 287.614559 
L 96.165436 287.479714 
L 97.178101 289.164762 
L 98.092766 285.637555 
L 99.105432 250.993108 
L 100.08543 255.444203 
L 101.098096 258.651145 
L 102.078095 247.281768 
L 103.09076 254.092672 
L 104.103425 203.587884 
L 105.083424 191.091054 
L 106.096089 206.201911 
L 107.076088 209.670575 
L 108.088753 214.429057 
L 109.101419 227.623157 
L 110.016084 207.649798 
L 111.028749 221.792474 
L 112.008748 229.909059 
L 113.021414 240.465755 
L 114.001412 248.854433 
L 115.014078 256.4176 
L 116.026743 201.669483 
L 117.006742 198.144892 
L 118.019407 188.474238 
L 118.999406 192.397853 
L 120.012071 208.674531 
L 121.024736 219.755129 
L 121.939402 225.4974 
L 122.952067 213.430665 
L 124.944731 202.706361 
L 126.937395 227.893955 
L 127.950061 222.922774 
L 128.930059 224.589406 
L 129.942725 236.494929 
L 130.922724 233.882605 
L 131.935389 237.419589 
L 132.948054 245.332328 
L 133.895386 254.080042 
L 134.908052 257.603367 
L 136.900716 269.319493 
L 137.880714 272.027186 
L 138.89338 265.625322 
L 139.906045 270.788555 
L 140.886044 262.86163 
L 141.898709 268.190769 
L 142.878708 269.688895 
L 143.891373 269.637466 
L 144.904039 274.664839 
L 145.818704 276.256049 
L 146.831369 277.677831 
L 147.811368 260.723477 
L 148.824033 265.678582 
L 149.804032 267.463428 
L 151.829363 236.916345 
L 152.809362 238.934201 
L 153.822027 248.726025 
L 154.802026 256.225657 
L 155.814691 256.817598 
L 157.742022 269.036728 
L 158.754687 269.877823 
L 159.734686 258.162023 
L 160.747351 264.865639 
L 161.72735 268.545092 
L 162.740015 263.993671 
L 163.752681 266.616384 
L 164.732679 268.664853 
L 165.745345 273.652039 
L 166.725343 275.896664 
L 167.738009 277.868871 
L 169.66534 284.001393 
L 170.678005 279.81866 
L 171.658004 283.037958 
L 172.670669 283.314172 
L 173.650668 285.747514 
L 174.663333 286.129735 
L 175.675998 287.975293 
L 176.655997 287.485306 
L 177.668662 286.659411 
L 178.648661 287.172408 
L 179.661326 288.718688 
L 180.673992 281.874245 
L 181.621324 284.70537 
L 182.633989 285.167813 
L 183.613988 276.510779 
L 184.626653 279.846729 
L 185.606652 280.291875 
L 186.619317 273.478184 
L 187.631983 265.229063 
L 189.624647 273.679031 
L 190.604646 276.781464 
L 191.617311 276.415725 
L 192.629976 265.692383 
L 193.544642 265.548415 
L 194.557307 267.248378 
L 195.537306 272.471262 
L 196.549971 276.351503 
L 197.52997 278.255222 
L 198.542635 277.655755 
L 199.555301 279.316577 
L 200.535299 275.256664 
L 201.547965 279.308281 
L 202.527963 282.454771 
L 203.540629 281.922186 
L 204.553294 282.195337 
L 205.467959 282.239635 
L 206.480625 281.530725 
L 207.460624 284.371173 
L 208.473289 282.1789 
L 209.453288 283.348581 
L 210.465953 283.631798 
L 211.478618 285.514802 
L 212.458617 286.162026 
L 213.471282 287.268982 
L 215.463946 290.223401 
L 216.476612 290.440389 
L 217.391277 287.544396 
L 218.403943 286.53413 
L 219.383941 278.551474 
L 221.376605 278.767717 
L 222.389271 280.667912 
L 223.401936 261.323165 
L 224.381935 211.936661 
L 225.3946 224.896675 
L 226.374599 230.05102 
L 227.387264 240.180201 
L 229.347262 251.580223 
L 230.359927 258.953151 
L 231.339926 263.962846 
L 232.352591 265.820859 
L 234.345255 256.600946 
L 235.35792 241.711319 
L 236.337919 250.603167 
L 238.330583 259.342466 
L 239.343249 265.807424 
L 240.355914 268.981221 
L 241.270579 269.031105 
L 242.283245 274.160113 
L 243.263243 270.663288 
L 244.275909 274.622 
L 245.255907 276.531458 
L 246.268573 279.205901 
L 247.281238 266.741116 
L 248.261237 262.319323 
L 249.273902 267.284874 
L 250.253901 269.892951 
L 251.266566 273.576441 
L 252.279232 268.660328 
L 253.193897 268.188453 
L 254.206562 259.081419 
L 255.186561 257.252524 
L 256.199227 264.056505 
L 258.191891 268.217981 
L 259.204556 273.104172 
L 260.184555 260.368998 
L 261.19722 263.415545 
L 263.189884 273.520583 
L 264.202549 277.621611 
L 265.117215 276.234528 
L 266.12988 275.834546 
L 267.109879 279.783303 
L 268.122544 281.953132 
L 269.102543 284.663602 
L 270.115208 286.786746 
L 271.127874 288.20508 
L 272.107872 289.021679 
L 273.120538 287.000271 
L 274.100536 288.255383 
L 275.113202 285.496909 
L 276.125867 275.173766 
L 277.073199 279.237024 
L 278.085865 282.25377 
L 279.065863 284.800453 
L 280.078529 280.20607 
L 281.058527 276.799901 
L 282.071193 251.622153 
L 283.083858 240.529518 
L 284.063857 249.419661 
L 285.076522 252.47711 
L 286.056521 259.084436 
L 287.069186 262.693167 
L 288.081852 266.830223 
L 288.996517 269.795214 
L 290.009182 271.290034 
L 290.989181 274.204454 
L 292.001846 277.621814 
L 292.981845 274.270138 
L 293.99451 277.887107 
L 295.007176 268.062742 
L 295.987175 272.848727 
L 298.992504 283.21427 
L 300.919835 287.834564 
L 301.9325 278.849838 
L 302.912499 281.572658 
L 303.925164 280.91236 
L 304.905163 283.926358 
L 305.917828 284.451691 
L 306.930494 286.679978 
L 307.910492 287.988186 
L 308.923158 289.00507 
L 309.903156 284.33691 
L 310.915822 286.522026 
L 313.855818 289.946422 
L 314.835817 289.933735 
L 315.848482 290.084902 
L 316.828481 291.075903 
L 317.841146 283.285358 
L 318.853811 270.246956 
L 319.83381 272.322662 
L 320.846475 276.884718 
L 321.826474 279.139647 
L 323.851805 284.58658 
L 324.799137 286.374556 
L 325.811802 287.030986 
L 326.791801 288.768957 
L 327.804466 289.893962 
L 328.784465 284.161843 
L 329.79713 285.715597 
L 330.809796 277.510678 
L 331.789794 280.786545 
L 333.782458 285.074388 
L 334.795124 284.587104 
L 336.722455 288.683509 
L 337.73512 289.98494 
L 339.727784 291.96931 
L 340.707783 292.406498 
L 341.720448 282.467316 
L 343.713112 286.852702 
L 344.725778 288.691605 
L 345.705776 290.000341 
L 346.718442 280.228531 
L 347.731107 271.962831 
L 348.645772 276.094967 
L 349.658438 279.990817 
L 350.638436 283.136606 
L 351.651102 285.716649 
L 352.631101 287.34696 
L 353.643766 283.772534 
L 354.656431 278.47803 
L 356.649095 283.146326 
L 357.629094 283.102514 
L 358.641759 279.967229 
L 359.654425 282.725859 
L 360.56909 281.078134 
L 361.581755 284.051959 
L 362.561754 284.8581 
L 363.57442 287.088813 
L 364.554418 288.868183 
L 365.567084 290.272303 
L 366.579749 290.678557 
L 367.559748 291.379279 
L 368.572413 291.695909 
L 369.552412 292.316236 
L 370.565077 288.638749 
L 371.577742 290.042066 
L 372.525075 289.716224 
L 373.53774 290.74036 
L 374.517739 289.344392 
L 375.530404 285.569452 
L 376.510403 286.596413 
L 377.523068 285.784208 
L 378.535733 286.923806 
L 379.515732 287.016787 
L 380.528397 285.556297 
L 381.508396 283.420559 
L 383.533727 287.459927 
L 384.448392 288.37228 
L 386.441056 289.473855 
L 387.453722 287.396766 
L 388.43372 284.734239 
L 389.446386 280.788308 
L 391.43905 285.748592 
L 392.451715 286.113186 
L 393.431714 285.22139 
L 394.444379 287.085016 
L 395.457045 288.295212 
L 396.37171 289.78041 
L 397.384375 285.038335 
L 398.364374 287.218856 
L 399.377039 287.465318 
L 400.357038 281.194625 
L 401.369704 283.647551 
L 402.382369 284.061632 
L 403.362368 285.665317 
L 405.355032 288.623865 
L 406.367697 288.799274 
L 407.380362 278.86333 
L 408.295028 279.083241 
L 409.307693 256.044193 
L 411.300357 267.362686 
L 412.280356 267.8122 
L 413.293021 268.517319 
L 414.305687 269.007775 
L 415.285685 264.297525 
L 417.278349 274.107598 
L 418.291015 277.365285 
L 419.30368 278.086428 
L 420.251012 280.583044 
L 421.263678 281.312735 
L 422.243676 267.98151 
L 423.256342 272.963453 
L 424.23634 266.459893 
L 425.249006 272.011144 
L 427.24167 279.655194 
L 428.254335 282.801489 
L 429.234334 280.592216 
L 431.259664 285.594921 
L 432.17433 287.360888 
L 433.186995 283.127085 
L 434.166994 285.65688 
L 435.179659 285.577975 
L 436.159658 287.387584 
L 437.172323 288.867863 
L 438.184989 257.122649 
L 439.164987 255.416268 
L 440.177653 258.950735 
L 441.157652 265.72225 
L 442.170317 270.026872 
L 443.182982 272.852919 
L 444.097648 276.987193 
L 445.110313 280.475513 
L 446.090312 280.317096 
L 447.102977 283.278543 
L 448.082976 271.137262 
L 449.095641 275.562615 
L 450.108307 272.574911 
L 451.088305 276.838765 
L 452.100971 279.061471 
L 453.080969 275.192061 
L 454.093635 277.988849 
L 455.1063 277.721115 
L 456.020965 279.420549 
L 458.01363 284.595222 
L 461.018959 289.766302 
L 462.031624 276.323711 
L 463.011623 276.062858 
L 464.024288 261.226088 
L 465.004287 265.809546 
L 466.016952 270.012009 
L 467.029618 274.820882 
L 467.97695 277.178628 
L 468.989615 265.113526 
L 469.969614 268.707108 
L 470.982279 273.046388 
L 471.962278 257.354724 
L 472.974943 263.976712 
L 473.987609 240.938383 
L 474.967607 238.418064 
L 475.980273 228.682426 
L 476.960271 239.448016 
L 478.985602 256.797586 
L 479.900268 260.912446 
L 480.912933 248.755202 
L 481.892932 256.889347 
L 482.905597 263.887683 
L 483.885596 269.61168 
L 484.898261 274.214222 
L 485.910926 278.099048 
L 486.890925 276.436532 
L 487.90359 277.536877 
L 488.883589 279.398335 
L 489.896255 278.004284 
L 491.823585 283.592077 
L 492.836251 282.353394 
L 493.816249 282.926537 
L 494.828915 274.361884 
L 495.808913 278.171988 
L 496.821579 279.970846 
L 497.834244 282.931346 
L 498.814243 282.065622 
L 499.826908 282.75835 
L 500.806907 276.564604 
L 501.819572 273.659002 
L 503.746903 281.444245 
L 504.759568 282.80631 
L 505.739567 282.697212 
L 506.752233 284.287729 
L 507.732231 283.753275 
L 508.744897 285.417306 
L 509.757562 286.789312 
L 510.737561 287.412157 
L 511.750226 283.060609 
L 512.730225 282.793243 
L 513.74289 279.68323 
L 514.755555 278.814064 
L 515.702887 277.012104 
L 516.715553 245.449591 
L 517.695552 219.044375 
L 518.708217 226.153896 
L 519.688216 236.788189 
L 520.700881 244.280474 
L 521.713546 245.409051 
L 522.693545 250.300027 
L 523.70621 240.568571 
L 524.686209 218.20766 
L 525.698874 230.779678 
L 527.626205 250.712605 
L 528.638871 257.14105 
L 529.618869 260.707101 
L 530.631535 263.387479 
L 531.611533 266.574185 
L 532.624199 264.74879 
L 533.636864 270.589117 
L 534.616863 275.445341 
L 535.629528 278.847656 
L 536.609527 279.41163 
L 537.622192 274.09461 
L 538.634858 278.347196 
L 539.549523 270.900405 
L 540.562188 270.062474 
L 542.554852 278.231647 
L 543.534851 280.731788 
L 544.547516 282.750679 
L 545.560182 278.532821 
L 546.540181 281.908415 
L 547.552846 272.318229 
L 548.532845 271.189499 
L 549.54551 275.264777 
L 550.558175 266.975642 
L 551.472841 272.401715 
L 552.485506 276.814645 
L 554.47817 283.21042 
L 555.458169 285.778902 
L 556.470834 284.41194 
L 557.4835 286.6785 
L 558.463498 286.276831 
L 559.476164 268.453407 
L 560.456162 273.453909 
L 561.468828 276.810342 
L 562.481493 278.163968 
L 563.428825 280.896158 
L 564.44149 280.327538 
L 565.421489 283.348815 
L 566.434155 285.875684 
L 567.414153 276.932421 
L 568.426819 277.804434 
L 569.439484 281.375108 
L 570.419483 280.254091 
L 571.432148 278.564395 
L 572.412147 280.029495 
L 573.424812 283.086019 
L 574.437477 285.67004 
L 575.352143 284.181012 
L 576.364808 281.3164 
L 577.344807 283.929058 
L 578.357472 285.967241 
L 579.337471 287.638718 
L 580.350136 287.245763 
L 581.362802 280.84303 
L 582.3428 282.617241 
L 583.355466 280.973514 
L 584.335464 283.956959 
L 585.34813 285.813023 
L 586.360795 286.624292 
L 587.275461 286.990032 
L 588.288126 279.600874 
L 589.268125 281.854677 
L 590.28079 283.421732 
L 591.260789 278.899607 
L 592.273454 282.221643 
L 593.286119 279.984392 
L 594.266118 271.455276 
L 595.278784 276.122479 
L 596.258782 276.093639 
L 597.271448 275.331456 
L 598.284113 279.329942 
L 599.198778 278.586622 
L 600.211444 275.501166 
L 601.191442 274.367595 
L 602.204108 277.475563 
L 603.184107 279.042524 
L 604.196772 282.367122 
L 605.209437 274.612327 
L 606.189436 274.682858 
L 607.202101 278.211472 
L 608.1821 280.939357 
L 609.194765 282.667424 
L 610.207431 283.686409 
L 611.154763 286.154826 
L 612.167428 288.123533 
L 613.147427 280.105981 
L 614.160092 282.169324 
L 615.140091 283.418317 
L 616.152756 285.810695 
L 617.165422 286.610232 
L 618.14542 284.466618 
L 619.158086 286.286434 
L 620.138084 285.880836 
L 621.15075 285.780952 
L 622.163415 283.594903 
L 624.090746 287.648691 
L 625.070745 285.098357 
L 626.08341 287.263539 
L 627.063409 288.867683 
L 628.076074 287.737965 
L 629.088739 286.906066 
L 630.068738 288.732327 
L 631.081403 286.364408 
L 632.061402 285.247028 
L 634.086733 288.091062 
L 635.001398 289.629008 
L 636.014064 289.971538 
L 636.994062 291.002143 
L 638.006728 289.904292 
L 638.986726 290.834149 
L 639.999392 287.403767 
L 641.012057 288.927483 
L 641.992056 290.085522 
L 643.004721 291.042461 
L 643.98472 290.72751 
L 644.997385 291.734778 
L 646.010051 292.411315 
L 646.924716 286.410345 
L 647.937381 288.34101 
L 648.91738 285.764367 
L 650.910044 289.005303 
L 652.935375 290.575538 
L 653.915374 290.899914 
L 654.928039 291.705451 
L 655.908038 289.330362 
L 656.920703 290.570441 
L 658.8807 265.141788 
L 659.893366 269.404297 
L 660.873364 271.947709 
L 661.88603 276.276389 
L 662.866029 279.443975 
L 663.878694 282.229851 
L 664.891359 279.320493 
L 665.871358 278.805538 
L 666.884023 282.128487 
L 667.864022 284.805254 
L 669.889353 269.479499 
L 670.804018 273.11617 
L 671.816684 268.059427 
L 672.796682 271.587075 
L 673.809348 255.702889 
L 674.789346 262.395235 
L 676.814677 273.113371 
L 677.794676 271.053617 
L 678.807341 275.806097 
L 679.78734 278.445451 
L 680.800005 273.137301 
L 681.81267 277.223306 
L 682.727336 267.613865 
L 683.740001 264.890262 
L 684.72 269.673572 
L 684.72 269.673572 
" clip-path="url(#p847432181c)" style="fill: none; stroke: #4d3c2f; stroke-width: 2.25; stroke-linecap: square"/>
   </g>
   <g id="patch_6">
    <path d="M 49.452163 297.608168 
L 49.452163 183.277384 
" style="fill: none; stroke: #ffffff; stroke-width: 1.875; stroke-linejoin: miter; stroke-linecap: square"/>
   </g>
   <g id="patch_7">
    <path d="M 49.452163 297.608168 
L 684.72 297.608168 
" style="fill: none; stroke: #ffffff; stroke-width: 1.875; stroke-linejoin: miter; stroke-linecap: square"/>
   </g>
   <g id="text_13">
    <!-- Conditional Volatility -->
    <g transform="translate(289.270362 177.277384)scale(0.18 -0.18)">
     <defs>
      <path id="CMR17-43" d="M 3974 4289 
C 3974 4403 3968 4410 3930 4410 
C 3904 4410 3898 4403 3853 4327 
L 3571 3792 
C 3258 4187 2874 4416 2381 4416 
C 1286 4416 294 3456 294 2148 
C 294 826 1286 -128 2387 -128 
C 3366 -128 3974 730 3974 1461 
C 3974 1524 3974 1550 3917 1550 
C 3866 1550 3866 1531 3859 1474 
C 3808 585 3168 38 2477 38 
C 1824 38 781 495 781 2147 
C 781 3805 1843 4250 2464 4250 
C 3187 4250 3712 3628 3834 2745 
C 3846 2668 3846 2655 3904 2655 
C 3974 2655 3974 2668 3974 2783 
L 3974 4289 
z
" transform="scale(0.015625)"/>
      <path id="CMR17-6f" d="M 2758 1356 
C 2758 2176 2163 2816 1466 2816 
C 768 2816 173 2176 173 1356 
C 173 551 768 -64 1466 -64 
C 2163 -64 2758 551 2758 1356 
z
M 1466 51 
C 1165 51 909 230 762 480 
C 602 767 582 1126 582 1408 
C 582 1677 595 2010 762 2298 
C 890 2509 1139 2714 1466 2714 
C 1754 2714 1997 2554 2150 2330 
C 2349 2029 2349 1607 2349 1408 
C 2349 1158 2336 775 2163 467 
C 1984 173 1709 51 1466 51 
z
" transform="scale(0.015625)"/>
      <path id="CMR17-56" d="M 3776 3745 
C 3834 3886 3936 4160 4365 4160 
L 4365 4332 
C 4218 4319 4051 4319 3891 4319 
C 3738 4319 3475 4319 3328 4332 
L 3328 4160 
C 3648 4160 3661 3936 3661 3898 
C 3661 3827 3642 3783 3622 3732 
L 2362 446 
L 1043 3886 
C 1024 3931 1011 3963 1011 3994 
C 1011 4160 1267 4160 1402 4160 
L 1402 4319 
C 1197 4319 896 4319 685 4319 
C 518 4319 218 4319 64 4332 
L 64 4160 
C 435 4160 506 4135 582 3931 
L 2106 -26 
C 2138 -115 2144 -128 2214 -128 
C 2285 -128 2291 -115 2323 -26 
L 3776 3745 
z
" transform="scale(0.015625)"/>
      <path id="CMR17-79" d="M 2496 2197 
C 2656 2586 2944 2586 3034 2586 
L 3034 2752 
C 2912 2752 2752 2752 2630 2752 
C 2496 2752 2285 2752 2157 2758 
L 2157 2592 
C 2400 2573 2406 2394 2406 2343 
C 2406 2280 2394 2248 2362 2171 
L 1664 449 
L 902 2306 
C 870 2382 870 2426 870 2433 
C 870 2573 1018 2586 1171 2586 
L 1171 2758 
C 1018 2752 742 2752 582 2752 
C 410 2752 205 2752 64 2758 
L 64 2586 
C 410 2586 448 2554 531 2350 
L 1485 15 
C 1197 -738 1030 -1178 627 -1178 
C 557 -1178 397 -1159 282 -1044 
C 429 -1031 493 -942 493 -833 
C 493 -725 416 -629 288 -629 
C 147 -629 77 -725 77 -840 
C 77 -1095 339 -1280 627 -1280 
C 998 -1280 1229 -922 1357 -604 
L 2496 2197 
z
" transform="scale(0.015625)"/>
     </defs>
     <use xlink:href="#CMR17-43" transform="scale(0.996264)"/>
     <use xlink:href="#CMR17-6f" transform="translate(66.509881 0)scale(0.996264)"/>
     <use xlink:href="#CMR17-6e" transform="translate(112.200358 0)scale(0.996264)"/>
     <use xlink:href="#CMR17-64" transform="translate(163.095727 0)scale(0.996264)"/>
     <use xlink:href="#CMR17-69" transform="translate(213.991097 0)scale(0.996264)"/>
     <use xlink:href="#CMR17-74" transform="translate(238.862156 0)scale(0.996264)"/>
     <use xlink:href="#CMR17-69" transform="translate(274.142924 0)scale(0.996264)"/>
     <use xlink:href="#CMR17-6f" transform="translate(299.013982 0)scale(0.996264)"/>
     <use xlink:href="#CMR17-6e" transform="translate(344.704459 0)scale(0.996264)"/>
     <use xlink:href="#CMR17-61" transform="translate(395.599829 0)scale(0.996264)"/>
     <use xlink:href="#CMR17-6c" transform="translate(441.290306 0)scale(0.996264)"/>
     <use xlink:href="#CMR17-56" transform="translate(496.237331 0)scale(0.996264)"/>
     <use xlink:href="#CMR17-6f" transform="translate(557.502505 0)scale(0.996264)"/>
     <use xlink:href="#CMR17-6c" transform="translate(603.192982 0)scale(0.996264)"/>
     <use xlink:href="#CMR17-61" transform="translate(628.064041 0)scale(0.996264)"/>
     <use xlink:href="#CMR17-74" transform="translate(673.754518 0)scale(0.996264)"/>
     <use xlink:href="#CMR17-69" transform="translate(709.035286 0)scale(0.996264)"/>
     <use xlink:href="#CMR17-6c" transform="translate(733.906344 0)scale(0.996264)"/>
     <use xlink:href="#CMR17-69" transform="translate(758.777403 0)scale(0.996264)"/>
     <use xlink:href="#CMR17-74" transform="translate(783.648461 0)scale(0.996264)"/>
     <use xlink:href="#CMR17-79" transform="translate(816.326775 0)scale(0.996264)"/>
    </g>
   </g>
  </g>
 </g>
 <defs>
  <clipPath id="pc69e671561">
   <rect x="49.452163" y="22.0533" width="635.267837" height="114.330784"/>
  </clipPath>
  <clipPath id="p847432181c">
   <rect x="49.452163" y="183.277384" width="635.267837" height="114.330784"/>
  </clipPath>
 </defs>
</svg>
