<?xml version="1.0" encoding="utf-8" standalone="no"?>
<!DOCTYPE svg PUBLIC "-//W3C//DTD SVG 1.1//EN"
  "http://www.w3.org/Graphics/SVG/1.1/DTD/svg11.dtd">
<svg xmlns:xlink="http://www.w3.org/1999/xlink" width="688.32pt" height="328.32pt" viewBox="0 0 688.32 328.32" xmlns="http://www.w3.org/2000/svg" version="1.1">
 <metadata>
  <rdf:RDF xmlns:dc="http://purl.org/dc/elements/1.1/" xmlns:cc="http://creativecommons.org/ns#" xmlns:rdf="http://www.w3.org/1999/02/22-rdf-syntax-ns#">
   <cc:Work>
    <dc:type rdf:resource="http://purl.org/dc/dcmitype/StillImage"/>
    <dc:date>2022-05-13T03:15:21.579734</dc:date>
    <dc:format>image/svg+xml</dc:format>
    <dc:creator>
     <cc:Agent>
      <dc:title>Matplotlib v3.5.1, https://matplotlib.org/</dc:title>
     </cc:Agent>
    </dc:creator>
   </cc:Work>
  </rdf:RDF>
 </metadata>
 <defs>
  <style type="text/css">*{stroke-linejoin: round; stroke-linecap: butt}</style>
 </defs>
 <g id="figure_1">
  <g id="patch_1">
   <path d="M 0 328.32 
L 688.32 328.32 
L 688.32 0 
L 0 0 
z
" style="fill: #ffffff"/>
  </g>
  <g id="axes_1">
   <g id="patch_2">
    <path d="M 24.147854 136.384084 
L 684.72 136.384084 
L 684.72 22.0533 
L 24.147854 22.0533 
z
" style="fill: #e5e5e5"/>
   </g>
   <g id="matplotlib.axis_1">
    <g id="xtick_1">
     <g id="line2d_1">
      <path d="M 35.527073 136.384084 
L 35.527073 22.0533 
" clip-path="url(#p1b791d898a)" style="fill: none; stroke: #ffffff; stroke-width: 1.5; stroke-linecap: square"/>
     </g>
     <g id="line2d_2">
      <defs>
       <path id="m8a39816a54" d="M 0 0 
L 0 9 
" style="stroke: #555555; stroke-width: 1.875"/>
      </defs>
      <g>
       <use xlink:href="#m8a39816a54" x="35.527073" y="136.384084" style="fill: #555555; stroke: #555555; stroke-width: 1.875"/>
      </g>
     </g>
    </g>
    <g id="xtick_2">
     <g id="line2d_3">
      <path d="M 159.577542 136.384084 
L 159.577542 22.0533 
" clip-path="url(#p1b791d898a)" style="fill: none; stroke: #ffffff; stroke-width: 1.5; stroke-linecap: square"/>
     </g>
     <g id="line2d_4">
      <g>
       <use xlink:href="#m8a39816a54" x="159.577542" y="136.384084" style="fill: #555555; stroke: #555555; stroke-width: 1.875"/>
      </g>
     </g>
    </g>
    <g id="xtick_3">
     <g id="line2d_5">
      <path d="M 283.661979 136.384084 
L 283.661979 22.0533 
" clip-path="url(#p1b791d898a)" style="fill: none; stroke: #ffffff; stroke-width: 1.5; stroke-linecap: square"/>
     </g>
     <g id="line2d_6">
      <g>
       <use xlink:href="#m8a39816a54" x="283.661979" y="136.384084" style="fill: #555555; stroke: #555555; stroke-width: 1.875"/>
      </g>
     </g>
    </g>
    <g id="xtick_4">
     <g id="line2d_7">
      <path d="M 407.712449 136.384084 
L 407.712449 22.0533 
" clip-path="url(#p1b791d898a)" style="fill: none; stroke: #ffffff; stroke-width: 1.5; stroke-linecap: square"/>
     </g>
     <g id="line2d_8">
      <g>
       <use xlink:href="#m8a39816a54" x="407.712449" y="136.384084" style="fill: #555555; stroke: #555555; stroke-width: 1.875"/>
      </g>
     </g>
    </g>
    <g id="xtick_5">
     <g id="line2d_9">
      <path d="M 531.796886 136.384084 
L 531.796886 22.0533 
" clip-path="url(#p1b791d898a)" style="fill: none; stroke: #ffffff; stroke-width: 1.5; stroke-linecap: square"/>
     </g>
     <g id="line2d_10">
      <g>
       <use xlink:href="#m8a39816a54" x="531.796886" y="136.384084" style="fill: #555555; stroke: #555555; stroke-width: 1.875"/>
      </g>
     </g>
    </g>
    <g id="xtick_6">
     <g id="line2d_11">
      <path d="M 655.847355 136.384084 
L 655.847355 22.0533 
" clip-path="url(#p1b791d898a)" style="fill: none; stroke: #ffffff; stroke-width: 1.5; stroke-linecap: square"/>
     </g>
     <g id="line2d_12">
      <g>
       <use xlink:href="#m8a39816a54" x="655.847355" y="136.384084" style="fill: #555555; stroke: #555555; stroke-width: 1.875"/>
      </g>
     </g>
    </g>
    <g id="xtick_7">
     <g id="line2d_13">
      <defs>
       <path id="m6be49f3e39" d="M 0 0 
L 0 6 
" style="stroke: #555555; stroke-width: 1.5"/>
      </defs>
      <g>
       <use xlink:href="#m6be49f3e39" x="66.548182" y="136.384084" style="fill: #555555; stroke: #555555; stroke-width: 1.5"/>
      </g>
     </g>
    </g>
    <g id="xtick_8">
     <g id="line2d_14">
      <g>
       <use xlink:href="#m6be49f3e39" x="97.569291" y="136.384084" style="fill: #555555; stroke: #555555; stroke-width: 1.5"/>
      </g>
     </g>
    </g>
    <g id="xtick_9">
     <g id="line2d_15">
      <g>
       <use xlink:href="#m6be49f3e39" x="128.590401" y="136.384084" style="fill: #555555; stroke: #555555; stroke-width: 1.5"/>
      </g>
     </g>
    </g>
    <g id="xtick_10">
     <g id="line2d_16">
      <g>
       <use xlink:href="#m6be49f3e39" x="159.61151" y="136.384084" style="fill: #555555; stroke: #555555; stroke-width: 1.5"/>
      </g>
     </g>
    </g>
    <g id="xtick_11">
     <g id="line2d_17">
      <g>
       <use xlink:href="#m6be49f3e39" x="190.632619" y="136.384084" style="fill: #555555; stroke: #555555; stroke-width: 1.5"/>
      </g>
     </g>
    </g>
    <g id="xtick_12">
     <g id="line2d_18">
      <g>
       <use xlink:href="#m6be49f3e39" x="221.653729" y="136.384084" style="fill: #555555; stroke: #555555; stroke-width: 1.5"/>
      </g>
     </g>
    </g>
    <g id="xtick_13">
     <g id="line2d_19">
      <g>
       <use xlink:href="#m6be49f3e39" x="252.674838" y="136.384084" style="fill: #555555; stroke: #555555; stroke-width: 1.5"/>
      </g>
     </g>
    </g>
    <g id="xtick_14">
     <g id="line2d_20">
      <g>
       <use xlink:href="#m6be49f3e39" x="283.695947" y="136.384084" style="fill: #555555; stroke: #555555; stroke-width: 1.5"/>
      </g>
     </g>
    </g>
    <g id="xtick_15">
     <g id="line2d_21">
      <g>
       <use xlink:href="#m6be49f3e39" x="314.717056" y="136.384084" style="fill: #555555; stroke: #555555; stroke-width: 1.5"/>
      </g>
     </g>
    </g>
    <g id="xtick_16">
     <g id="line2d_22">
      <g>
       <use xlink:href="#m6be49f3e39" x="345.738166" y="136.384084" style="fill: #555555; stroke: #555555; stroke-width: 1.5"/>
      </g>
     </g>
    </g>
    <g id="xtick_17">
     <g id="line2d_23">
      <g>
       <use xlink:href="#m6be49f3e39" x="376.759275" y="136.384084" style="fill: #555555; stroke: #555555; stroke-width: 1.5"/>
      </g>
     </g>
    </g>
    <g id="xtick_18">
     <g id="line2d_24">
      <g>
       <use xlink:href="#m6be49f3e39" x="407.780384" y="136.384084" style="fill: #555555; stroke: #555555; stroke-width: 1.5"/>
      </g>
     </g>
    </g>
    <g id="xtick_19">
     <g id="line2d_25">
      <g>
       <use xlink:href="#m6be49f3e39" x="438.801494" y="136.384084" style="fill: #555555; stroke: #555555; stroke-width: 1.5"/>
      </g>
     </g>
    </g>
    <g id="xtick_20">
     <g id="line2d_26">
      <g>
       <use xlink:href="#m6be49f3e39" x="469.822603" y="136.384084" style="fill: #555555; stroke: #555555; stroke-width: 1.5"/>
      </g>
     </g>
    </g>
    <g id="xtick_21">
     <g id="line2d_27">
      <g>
       <use xlink:href="#m6be49f3e39" x="500.843712" y="136.384084" style="fill: #555555; stroke: #555555; stroke-width: 1.5"/>
      </g>
     </g>
    </g>
    <g id="xtick_22">
     <g id="line2d_28">
      <g>
       <use xlink:href="#m6be49f3e39" x="531.864821" y="136.384084" style="fill: #555555; stroke: #555555; stroke-width: 1.5"/>
      </g>
     </g>
    </g>
    <g id="xtick_23">
     <g id="line2d_29">
      <g>
       <use xlink:href="#m6be49f3e39" x="562.885931" y="136.384084" style="fill: #555555; stroke: #555555; stroke-width: 1.5"/>
      </g>
     </g>
    </g>
    <g id="xtick_24">
     <g id="line2d_30">
      <g>
       <use xlink:href="#m6be49f3e39" x="593.90704" y="136.384084" style="fill: #555555; stroke: #555555; stroke-width: 1.5"/>
      </g>
     </g>
    </g>
    <g id="xtick_25">
     <g id="line2d_31">
      <g>
       <use xlink:href="#m6be49f3e39" x="624.928149" y="136.384084" style="fill: #555555; stroke: #555555; stroke-width: 1.5"/>
      </g>
     </g>
    </g>
    <g id="xtick_26">
     <g id="line2d_32">
      <g>
       <use xlink:href="#m6be49f3e39" x="655.949259" y="136.384084" style="fill: #555555; stroke: #555555; stroke-width: 1.5"/>
      </g>
     </g>
    </g>
   </g>
   <g id="matplotlib.axis_2">
    <g id="ytick_1">
     <g id="line2d_33">
      <path d="M 24.147854 84.977707 
L 684.72 84.977707 
" clip-path="url(#p1b791d898a)" style="fill: none; stroke: #ffffff; stroke-width: 1.5; stroke-linecap: square"/>
     </g>
     <g id="line2d_34">
      <defs>
       <path id="m782c1f8d8e" d="M 0 0 
L -9 0 
" style="stroke: #555555; stroke-width: 1.875"/>
      </defs>
      <g>
       <use xlink:href="#m782c1f8d8e" x="24.147854" y="84.977707" style="fill: #555555; stroke: #555555; stroke-width: 1.875"/>
      </g>
     </g>
     <g id="text_1">
      <!-- $\mathdefault{0}$ -->
      <g style="fill: #555555" transform="translate(3.6 90.685459)scale(0.165 -0.165)">
       <defs>
        <path id="CMR17-30" d="M 2688 2025 
C 2688 2416 2682 3080 2413 3591 
C 2176 4039 1798 4198 1466 4198 
C 1158 4198 768 4058 525 3597 
C 269 3118 243 2524 243 2025 
C 243 1661 250 1106 448 619 
C 723 -39 1216 -128 1466 -128 
C 1760 -128 2208 -7 2470 600 
C 2662 1042 2688 1559 2688 2025 
z
M 1466 -26 
C 1056 -26 813 325 723 812 
C 653 1188 653 1738 653 2096 
C 653 2588 653 2997 736 3387 
C 858 3929 1216 4096 1466 4096 
C 1728 4096 2067 3923 2189 3400 
C 2272 3036 2278 2607 2278 2096 
C 2278 1680 2278 1169 2202 792 
C 2067 95 1690 -26 1466 -26 
z
" transform="scale(0.015625)"/>
       </defs>
       <use xlink:href="#CMR17-30" transform="scale(0.996264)"/>
      </g>
     </g>
    </g>
    <g id="ytick_2">
     <g id="line2d_35">
      <path d="M 24.147854 22.994029 
L 684.72 22.994029 
" clip-path="url(#p1b791d898a)" style="fill: none; stroke: #ffffff; stroke-width: 1.5; stroke-linecap: square"/>
     </g>
     <g id="line2d_36">
      <g>
       <use xlink:href="#m782c1f8d8e" x="24.147854" y="22.994029" style="fill: #555555; stroke: #555555; stroke-width: 1.875"/>
      </g>
     </g>
     <g id="text_2">
      <!-- $\mathdefault{5}$ -->
      <g style="fill: #555555" transform="translate(3.6 28.701781)scale(0.165 -0.165)">
       <defs>
        <path id="CMR17-35" d="M 730 3692 
C 794 3666 1056 3584 1325 3584 
C 1920 3584 2246 3911 2432 4100 
C 2432 4157 2432 4192 2394 4192 
C 2387 4192 2374 4192 2323 4163 
C 2099 4058 1837 3973 1517 3973 
C 1325 3973 1037 3999 723 4139 
C 653 4171 640 4171 634 4171 
C 602 4171 595 4164 595 4037 
L 595 2203 
C 595 2089 595 2057 659 2057 
C 691 2057 704 2070 736 2114 
C 941 2401 1222 2522 1542 2522 
C 1766 2522 2246 2382 2246 1289 
C 2246 1085 2246 715 2054 421 
C 1894 159 1645 25 1370 25 
C 947 25 518 320 403 814 
C 429 807 480 795 506 795 
C 589 795 749 840 749 1038 
C 749 1210 627 1280 506 1280 
C 358 1280 262 1190 262 1011 
C 262 454 704 -128 1382 -128 
C 2042 -128 2669 440 2669 1264 
C 2669 2030 2170 2624 1549 2624 
C 1222 2624 947 2503 730 2274 
L 730 3692 
z
" transform="scale(0.015625)"/>
       </defs>
       <use xlink:href="#CMR17-35" transform="scale(0.996264)"/>
      </g>
     </g>
    </g>
    <g id="ytick_3">
     <g id="line2d_37">
      <defs>
       <path id="mf35284d2d6" d="M 0 0 
L -6 0 
" style="stroke: #555555; stroke-width: 1.5"/>
      </defs>
      <g>
       <use xlink:href="#mf35284d2d6" x="24.147854" y="134.564649" style="fill: #555555; stroke: #555555; stroke-width: 1.5"/>
      </g>
     </g>
    </g>
    <g id="ytick_4">
     <g id="line2d_38">
      <g>
       <use xlink:href="#mf35284d2d6" x="24.147854" y="122.167913" style="fill: #555555; stroke: #555555; stroke-width: 1.5"/>
      </g>
     </g>
    </g>
    <g id="ytick_5">
     <g id="line2d_39">
      <g>
       <use xlink:href="#mf35284d2d6" x="24.147854" y="109.771178" style="fill: #555555; stroke: #555555; stroke-width: 1.5"/>
      </g>
     </g>
    </g>
    <g id="ytick_6">
     <g id="line2d_40">
      <g>
       <use xlink:href="#mf35284d2d6" x="24.147854" y="97.374442" style="fill: #555555; stroke: #555555; stroke-width: 1.5"/>
      </g>
     </g>
    </g>
    <g id="ytick_7">
     <g id="line2d_41">
      <g>
       <use xlink:href="#mf35284d2d6" x="24.147854" y="72.580971" style="fill: #555555; stroke: #555555; stroke-width: 1.5"/>
      </g>
     </g>
    </g>
    <g id="ytick_8">
     <g id="line2d_42">
      <g>
       <use xlink:href="#mf35284d2d6" x="24.147854" y="60.184235" style="fill: #555555; stroke: #555555; stroke-width: 1.5"/>
      </g>
     </g>
    </g>
    <g id="ytick_9">
     <g id="line2d_43">
      <g>
       <use xlink:href="#mf35284d2d6" x="24.147854" y="47.7875" style="fill: #555555; stroke: #555555; stroke-width: 1.5"/>
      </g>
     </g>
    </g>
    <g id="ytick_10">
     <g id="line2d_44">
      <g>
       <use xlink:href="#mf35284d2d6" x="24.147854" y="35.390764" style="fill: #555555; stroke: #555555; stroke-width: 1.5"/>
      </g>
     </g>
    </g>
   </g>
   <g id="line2d_45">
    <path d="M 24.147854 86.498463 
L 25.098953 87.688369 
L 26.151955 90.491845 
L 27.17099 85.639795 
L 28.223992 86.927231 
L 29.243027 83.736911 
L 30.296029 85.863516 
L 31.349031 83.862604 
L 32.368066 85.211205 
L 33.421068 75.09018 
L 34.440103 93.265467 
L 35.493105 76.833375 
L 36.546107 81.535059 
L 37.497206 78.441524 
L 38.550209 86.597037 
L 39.569243 75.28134 
L 40.622245 81.839217 
L 41.64128 62.21019 
L 42.694282 92.988355 
L 43.747285 89.744267 
L 44.766319 78.694614 
L 45.819322 65.773164 
L 46.838356 92.02445 
L 47.891358 87.313792 
L 48.944361 76.50849 
L 49.89546 85.940351 
L 50.948462 91.455993 
L 51.967496 90.707961 
L 53.020499 70.567652 
L 55.092536 80.089591 
L 56.145538 98.559158 
L 57.164573 89.809272 
L 58.217575 74.836109 
L 59.236609 95.550266 
L 60.289612 81.131796 
L 61.342614 86.85831 
L 62.327681 68.298069 
L 63.380683 78.578805 
L 64.399718 81.192149 
L 65.45272 85.052013 
L 66.471755 87.223618 
L 67.524757 94.230209 
L 69.596794 77.218635 
L 70.649796 79.545357 
L 71.668831 65.060119 
L 72.721833 55.436593 
L 73.774835 59.285639 
L 74.725934 51.941032 
L 75.778937 98.708891 
L 76.797971 60.031885 
L 77.850973 50.741347 
L 78.870008 87.996578 
L 79.92301 89.484284 
L 80.976013 104.218904 
L 81.995047 90.514848 
L 83.048049 96.78447 
L 84.067084 77.880058 
L 85.120086 87.335993 
L 86.173089 77.318069 
L 87.124188 87.728548 
L 88.17719 86.606313 
L 89.196224 97.886641 
L 90.249227 85.268205 
L 91.268261 80.398656 
L 92.321264 27.250154 
L 93.374266 96.976144 
L 94.3933 74.213205 
L 95.446303 89.418148 
L 96.465337 88.3344 
L 97.51834 92.427974 
L 98.571342 98.715729 
L 99.522441 99.496339 
L 100.575443 70.218468 
L 101.594478 95.192938 
L 103.666515 85.011451 
L 104.719517 71.176426 
L 105.772519 87.560356 
L 106.791554 85.022857 
L 107.844556 100.113558 
L 108.863591 88.804924 
L 109.916593 92.758603 
L 110.969595 82.281161 
L 111.954662 80.0892 
L 113.007664 90.223508 
L 114.026699 79.874929 
L 115.079701 53.745525 
L 116.098736 66.427686 
L 117.151738 96.671486 
L 118.204741 73.647159 
L 119.223775 92.413107 
L 120.276777 75.477496 
L 121.295812 86.855804 
L 122.348814 77.792586 
L 123.401817 82.489076 
L 124.352915 72.4713 
L 125.405918 62.963539 
L 126.424952 71.796121 
L 127.477955 88.64018 
L 128.496989 120.915277 
L 129.549992 113.494382 
L 130.602994 92.569468 
L 131.622028 82.56499 
L 133.694065 80.307088 
L 134.747068 82.283947 
L 135.80007 92.826972 
L 136.751169 80.062085 
L 137.804171 63.627193 
L 138.823206 82.395022 
L 139.876208 79.776361 
L 140.895243 97.171507 
L 141.948245 96.49702 
L 143.001247 81.228863 
L 144.020282 83.538415 
L 145.073284 69.305005 
L 146.092319 94.004735 
L 147.145321 83.003868 
L 148.198323 80.65505 
L 149.149422 70.488515 
L 151.221459 96.048389 
L 152.274461 83.364127 
L 153.293496 83.348475 
L 154.346498 95.23877 
L 155.399501 83.318661 
L 156.418535 88.981523 
L 157.471537 103.965756 
L 158.490572 79.28761 
L 159.543574 93.127093 
L 160.596577 80.854245 
L 161.581643 93.307018 
L 162.634646 114.4167 
L 163.65368 76.604032 
L 164.706683 81.536627 
L 165.725717 68.279835 
L 166.778719 58.337072 
L 167.831722 79.628879 
L 168.850756 85.639176 
L 169.903759 64.005924 
L 170.922793 82.838392 
L 171.975796 107.872691 
L 173.028798 100.64543 
L 173.979897 79.93063 
L 175.032899 80.341547 
L 176.051934 82.792165 
L 178.123971 101.909326 
L 179.176973 75.729593 
L 180.229975 101.50188 
L 182.302012 80.421852 
L 183.321047 91.112466 
L 184.374049 92.414254 
L 185.427051 74.987517 
L 186.37815 93.902654 
L 187.431152 82.097905 
L 188.450187 77.691408 
L 189.503189 95.085025 
L 190.522224 93.091122 
L 191.575226 90.703752 
L 192.628229 103.801603 
L 193.647263 94.945994 
L 194.700265 81.451162 
L 195.7193 73.430609 
L 196.772302 86.286432 
L 197.825305 71.935698 
L 198.776404 98.319081 
L 199.829406 61.501335 
L 201.901443 99.748069 
L 202.920477 83.97157 
L 203.97348 56.661781 
L 205.026482 47.415864 
L 206.045516 89.850654 
L 207.098519 90.067681 
L 208.117553 89.497424 
L 209.170556 80.265236 
L 210.223558 102.388531 
L 211.208625 80.028034 
L 212.261627 80.560969 
L 213.280662 86.967136 
L 214.333664 72.080167 
L 215.352698 104.334226 
L 216.405701 114.323306 
L 217.458703 81.245113 
L 218.477738 93.520775 
L 219.53074 77.927052 
L 220.549775 89.377172 
L 221.602777 91.536846 
L 222.655779 80.585933 
L 223.606878 93.896597 
L 224.65988 75.302252 
L 225.678915 88.93869 
L 226.731917 93.697444 
L 227.750952 88.213867 
L 228.803954 99.785614 
L 229.856956 89.07379 
L 230.875991 85.33262 
L 231.928993 80.09242 
L 232.948028 97.663091 
L 234.00103 67.158274 
L 235.054033 88.305735 
L 236.005131 87.054578 
L 237.058134 80.107213 
L 238.077168 81.876198 
L 239.130171 97.338613 
L 240.149205 95.953823 
L 241.202208 85.855458 
L 242.25521 97.797968 
L 243.274244 82.266554 
L 244.327247 78.56575 
L 245.346281 83.522135 
L 246.399284 91.023794 
L 247.452286 81.986301 
L 248.403385 96.151897 
L 249.456387 77.674743 
L 250.475422 63.281998 
L 251.528424 80.146564 
L 252.547459 89.251825 
L 254.653463 96.384003 
L 255.672498 72.125659 
L 256.7255 81.948941 
L 257.744535 55.84061 
L 258.797537 82.937304 
L 259.850539 86.681412 
L 260.835606 74.320102 
L 261.888608 81.301363 
L 262.907643 70.568387 
L 263.960645 55.549295 
L 264.97968 50.797932 
L 266.032682 111.360632 
L 267.085684 76.098821 
L 268.104719 90.779274 
L 269.157721 88.431925 
L 270.176756 88.42746 
L 271.229758 77.32594 
L 272.28276 92.204243 
L 273.233859 85.537061 
L 274.286862 91.812957 
L 275.305896 87.52136 
L 276.358899 88.732055 
L 277.377933 85.451967 
L 278.430935 121.998042 
L 279.483938 86.948772 
L 280.502972 90.111192 
L 281.555975 84.922108 
L 282.575009 81.498422 
L 284.681014 91.787516 
L 285.632113 79.314466 
L 286.685115 79.119459 
L 287.70415 66.956047 
L 288.757152 97.84941 
L 289.776186 78.521339 
L 290.829189 95.81839 
L 291.882191 80.991646 
L 292.901226 83.200759 
L 293.954228 90.067161 
L 294.973263 92.327229 
L 296.026265 93.338451 
L 297.079267 87.824138 
L 298.030366 76.779731 
L 299.083368 90.654815 
L 300.102403 79.77505 
L 301.155405 88.154076 
L 302.17444 113.799873 
L 303.227442 62.485244 
L 304.280445 85.490203 
L 305.299479 85.832605 
L 306.352481 93.402708 
L 307.371516 88.623014 
L 308.424518 85.685424 
L 309.477521 78.828183 
L 310.462587 78.796876 
L 311.51559 85.216533 
L 312.534624 89.941461 
L 313.587627 69.011067 
L 314.606661 89.464308 
L 315.659663 108.106556 
L 316.712666 90.617896 
L 317.7317 86.399025 
L 318.784703 80.507607 
L 319.803737 80.220356 
L 320.856739 81.200786 
L 321.909742 85.196258 
L 322.860841 82.908437 
L 323.913843 81.152227 
L 324.932878 84.375392 
L 325.98588 76.35769 
L 327.004914 63.113171 
L 328.057917 73.548355 
L 329.110919 94.194716 
L 330.129954 98.223538 
L 331.182956 86.349609 
L 332.20199 68.466102 
L 333.254993 72.43349 
L 334.307995 93.171996 
L 335.259094 86.933154 
L 336.312096 85.781078 
L 337.331131 87.503144 
L 338.384133 76.012928 
L 339.403168 103.749175 
L 340.45617 115.194872 
L 341.509172 86.170718 
L 342.528207 98.42499 
L 343.581209 80.221014 
L 344.600244 81.330402 
L 345.653246 86.970731 
L 346.706249 90.2238 
L 347.657347 79.108485 
L 348.71035 80.724048 
L 349.729384 84.052791 
L 350.782387 84.034207 
L 351.801421 85.254886 
L 352.854423 73.983587 
L 353.907426 78.189644 
L 355.979463 70.17333 
L 356.998497 84.205874 
L 358.0515 64.010442 
L 359.104502 86.762933 
L 360.089569 84.134484 
L 361.142571 82.799105 
L 362.161605 70.671392 
L 363.214608 87.220071 
L 364.233642 90.969594 
L 365.286645 93.424648 
L 366.339647 68.671738 
L 367.358682 98.478028 
L 368.411684 115.160834 
L 369.430718 74.525831 
L 370.483721 91.409046 
L 371.536723 72.550216 
L 372.487822 72.489175 
L 373.540824 71.739944 
L 375.612861 86.868683 
L 376.631896 123.404705 
L 377.684898 90.032657 
L 378.7379 99.156494 
L 379.756935 87.830643 
L 380.809937 69.061139 
L 381.828972 80.810362 
L 382.881974 94.551693 
L 383.934976 85.865268 
L 384.886075 89.307356 
L 385.939078 88.797037 
L 386.958112 87.234585 
L 388.011115 92.343602 
L 389.030149 80.198827 
L 390.083151 110.667743 
L 391.136154 104.11247 
L 392.155188 82.676764 
L 393.208191 70.747922 
L 394.227225 77.475006 
L 395.280227 101.892239 
L 396.33323 95.874698 
L 397.284329 102.65519 
L 398.337331 76.526458 
L 400.409368 93.677921 
L 401.428402 89.963071 
L 402.481405 93.409515 
L 403.534407 63.552829 
L 404.553442 82.197703 
L 405.606444 89.508754 
L 406.625479 87.078762 
L 407.678481 89.074049 
L 408.731483 67.173556 
L 409.71655 85.019884 
L 410.769552 70.451762 
L 411.788587 88.793838 
L 412.841589 93.477277 
L 413.860624 101.602728 
L 414.913626 101.84049 
L 415.966628 62.238724 
L 416.985663 89.261272 
L 418.038665 93.264713 
L 419.0577 71.64417 
L 420.110702 84.79153 
L 421.163704 104.148484 
L 422.114803 86.883979 
L 423.167806 96.383442 
L 424.18684 81.722118 
L 425.239842 79.36173 
L 426.258877 74.309932 
L 427.311879 70.10919 
L 428.364882 96.329042 
L 429.383916 99.444916 
L 430.436919 92.224854 
L 431.455953 81.232349 
L 432.508955 96.363715 
L 433.561958 81.414913 
L 434.513057 80.826992 
L 435.566059 66.525047 
L 436.585094 90.054565 
L 437.638096 66.049824 
L 438.65713 77.349909 
L 439.710133 75.595854 
L 440.763135 88.852853 
L 441.78217 86.22416 
L 442.835172 76.821794 
L 443.854206 80.270366 
L 444.907209 91.209508 
L 445.960211 86.443182 
L 446.91131 80.127986 
L 447.964312 86.060661 
L 448.983347 60.187972 
L 450.036349 86.232849 
L 451.055384 89.024407 
L 452.108386 127.957112 
L 453.161388 67.18787 
L 454.180423 66.736768 
L 455.233425 65.280326 
L 456.25246 90.9505 
L 457.305462 79.655337 
L 458.358464 81.067743 
L 459.343531 66.375491 
L 460.396534 77.896145 
L 461.415568 82.315902 
L 462.46857 118.170682 
L 463.487605 86.390203 
L 464.540607 122.226155 
L 465.59361 79.402795 
L 466.612644 98.934751 
L 467.665646 84.375026 
L 468.684681 84.776408 
L 469.737683 82.946433 
L 470.790686 91.796575 
L 471.741785 63.717152 
L 472.794787 84.120731 
L 473.813821 85.695506 
L 474.866824 74.875396 
L 475.885858 90.011457 
L 476.938861 81.008434 
L 477.991863 104.006354 
L 479.010898 90.555229 
L 480.0639 85.179679 
L 481.082934 89.742791 
L 482.135937 69.833295 
L 483.188939 89.907908 
L 484.140038 86.257065 
L 485.19304 91.855021 
L 486.212075 76.315548 
L 487.265077 91.973578 
L 488.284112 78.256047 
L 489.337114 91.161691 
L 490.390116 98.314379 
L 491.409151 87.741198 
L 492.462153 47.83068 
L 493.481188 75.28078 
L 494.53419 83.298379 
L 495.587192 79.337128 
L 496.538291 69.620338 
L 497.591294 90.574399 
L 498.610328 90.565407 
L 499.663331 68.716396 
L 500.682365 74.840545 
L 501.735367 88.617189 
L 502.78837 76.246391 
L 503.807404 61.066191 
L 504.860407 80.204085 
L 505.879441 75.668568 
L 506.932443 64.418092 
L 507.985446 77.274743 
L 508.970512 54.536721 
L 510.023515 115.09293 
L 511.042549 77.132596 
L 512.095552 81.535301 
L 513.114586 68.656826 
L 514.167589 98.637937 
L 515.220591 90.105677 
L 516.239625 110.328191 
L 517.292628 94.908319 
L 518.311662 89.891527 
L 519.364665 75.289404 
L 520.417667 85.047348 
L 521.368766 98.223817 
L 522.421768 75.564446 
L 523.440803 73.022015 
L 524.493805 72.098524 
L 525.51284 89.581612 
L 526.565842 94.328519 
L 527.618844 92.751224 
L 528.637879 96.398898 
L 529.690881 77.895114 
L 530.709916 72.952402 
L 531.762918 87.285363 
L 532.81592 107.671434 
L 533.767019 78.682272 
L 534.820022 88.104551 
L 535.839056 76.03828 
L 536.892058 95.591915 
L 537.911093 85.951154 
L 538.964095 69.212263 
L 540.017098 87.164457 
L 541.036132 68.119641 
L 542.089135 66.514815 
L 543.108169 84.199699 
L 544.161171 64.931899 
L 545.214174 84.059641 
L 546.165273 91.220854 
L 547.218275 79.464719 
L 548.237309 87.590354 
L 549.290312 88.009503 
L 550.309346 97.56868 
L 551.362349 77.716897 
L 552.415351 68.937815 
L 553.434386 128.06952 
L 554.487388 81.706186 
L 555.506422 94.448646 
L 556.559425 76.76918 
L 557.612427 86.101983 
L 558.597494 70.653133 
L 559.650496 76.077141 
L 560.669531 74.431734 
L 561.722533 103.727549 
L 562.741568 70.411861 
L 563.79457 69.475301 
L 564.847572 78.521621 
L 565.866607 98.415438 
L 566.919609 89.893594 
L 567.938644 96.272634 
L 568.991646 88.221461 
L 570.044648 78.830416 
L 570.995747 86.793378 
L 572.04875 92.30676 
L 573.067784 84.300818 
L 574.120786 71.176258 
L 576.192823 114.09826 
L 577.245826 73.910682 
L 578.26486 95.892345 
L 579.317862 87.074955 
L 580.336897 76.277178 
L 581.389899 90.924947 
L 582.442902 87.477089 
L 583.394001 65.162382 
L 584.447003 79.09236 
L 585.466037 78.648181 
L 586.51904 88.556662 
L 587.538074 108.348061 
L 588.591077 116.940547 
L 589.644079 95.337606 
L 590.663113 101.600624 
L 591.716116 68.645274 
L 592.73515 88.819295 
L 593.788153 84.49319 
L 594.841155 93.757708 
L 595.792254 75.189364 
L 596.845256 93.882203 
L 597.864291 84.81447 
L 598.917293 92.875189 
L 599.936328 64.540267 
L 600.98933 99.404167 
L 602.042332 96.423812 
L 603.061367 84.898079 
L 604.114369 86.57933 
L 605.133404 86.266647 
L 606.186406 88.837843 
L 607.239408 81.495798 
L 608.224475 91.316946 
L 609.277477 72.049515 
L 610.296512 58.377763 
L 611.349514 77.114433 
L 612.368549 70.044063 
L 613.421551 109.111729 
L 615.493588 84.167196 
L 616.54659 76.476554 
L 617.565625 81.781319 
L 618.618627 90.53883 
L 619.67163 81.322493 
L 620.622728 83.650301 
L 621.675731 104.753657 
L 622.694765 83.803645 
L 623.747768 93.788525 
L 624.766802 78.669519 
L 625.819805 73.591386 
L 626.872807 97.836258 
L 627.891841 79.967532 
L 628.944844 82.206138 
L 629.963878 84.744991 
L 631.016881 92.322296 
L 632.069883 76.040671 
L 633.020982 70.955258 
L 634.073984 87.549112 
L 635.093019 85.169758 
L 636.146021 92.936745 
L 637.165056 131.18723 
L 638.218058 77.690123 
L 639.27106 97.325957 
L 640.290095 84.571297 
L 641.343097 84.617825 
L 642.362132 75.609616 
L 643.415134 85.898431 
L 644.468136 80.218246 
L 645.419235 87.304824 
L 646.472238 91.67025 
L 647.491272 94.73268 
L 648.544274 78.120067 
L 649.563309 78.279415 
L 650.616311 95.919724 
L 651.669314 85.962302 
L 652.688348 73.699575 
L 653.74135 79.001088 
L 654.760385 101.150274 
L 655.813387 65.208689 
L 656.86639 104.036502 
L 657.851456 81.523433 
L 658.904459 86.535029 
L 659.923493 93.330856 
L 660.976496 89.004438 
L 661.99553 74.85758 
L 663.048532 82.375232 
L 664.101535 69.007062 
L 665.120569 69.228152 
L 666.173572 78.787754 
L 667.192606 63.100463 
L 668.245609 63.91027 
L 669.298611 78.438241 
L 670.24971 81.160778 
L 671.302712 81.238226 
L 672.321747 71.576875 
L 673.374749 86.788949 
L 674.393783 98.864246 
L 675.446786 94.842425 
L 676.499788 96.552465 
L 677.518823 91.342231 
L 678.571825 87.00611 
L 679.59086 90.879218 
L 680.643862 63.408837 
L 681.696864 63.986663 
L 682.647963 69.389419 
L 683.700965 87.301387 
L 684.72 77.881814 
L 684.72 77.881814 
" clip-path="url(#p1b791d898a)" style="fill: none; stroke: #4d3c2f; stroke-width: 2.25; stroke-linecap: square"/>
   </g>
   <g id="patch_3">
    <path d="M 24.147854 136.384084 
L 24.147854 22.0533 
" style="fill: none; stroke: #ffffff; stroke-width: 1.875; stroke-linejoin: miter; stroke-linecap: square"/>
   </g>
   <g id="patch_4">
    <path d="M 24.147854 136.384084 
L 684.72 136.384084 
" style="fill: none; stroke: #ffffff; stroke-width: 1.875; stroke-linejoin: miter; stroke-linecap: square"/>
   </g>
   <g id="text_3">
    <!-- Standardized Residuals -->
    <g transform="translate(270.784348 16.0533)scale(0.18 -0.18)">
     <defs>
      <path id="CMR17-53" d="M 2803 4290 
C 2803 4404 2797 4411 2758 4411 
C 2720 4411 2707 4385 2682 4328 
L 2490 3907 
C 2246 4257 1875 4416 1472 4416 
C 819 4416 294 3901 294 3253 
C 294 3056 339 2776 557 2510 
C 794 2218 1018 2167 1530 2033 
C 1722 1982 2042 1899 2106 1874 
C 2470 1722 2662 1341 2662 985 
C 2662 527 2336 38 1779 38 
C 1094 38 454 419 410 1311 
C 403 1413 397 1419 352 1419 
C 301 1419 294 1413 294 1285 
L 294 -1 
C 294 -115 301 -122 339 -122 
C 384 -122 397 -90 486 108 
C 493 127 493 140 614 381 
C 934 -39 1472 -128 1779 -128 
C 2477 -128 2970 451 2970 1124 
C 2970 1454 2848 1708 2778 1823 
C 2509 2230 2221 2306 1914 2382 
C 1869 2402 1856 2402 1498 2490 
C 1152 2579 1005 2624 845 2796 
C 666 2992 602 3196 602 3399 
C 602 3812 934 4263 1478 4263 
C 2157 4263 2579 3786 2675 2993 
C 2694 2878 2701 2872 2746 2872 
C 2803 2872 2803 2891 2803 2999 
L 2803 4290 
z
" transform="scale(0.015625)"/>
      <path id="CMR17-74" d="M 966 2560 
L 1862 2560 
L 1862 2725 
L 966 2725 
L 966 3904 
L 851 3904 
C 838 3245 614 2668 70 2668 
L 70 2560 
L 627 2560 
L 627 771 
C 627 650 627 -64 1370 -64 
C 1747 -64 1965 306 1965 777 
L 1965 1140 
L 1850 1140 
L 1850 783 
C 1850 344 1677 51 1408 51 
C 1222 51 966 178 966 758 
L 966 2560 
z
" transform="scale(0.015625)"/>
      <path id="CMR17-61" d="M 2304 1653 
C 2304 2072 2304 2294 2035 2543 
C 1798 2752 1523 2816 1306 2816 
C 800 2816 435 2407 435 1971 
C 435 1728 627 1728 666 1728 
C 749 1728 896 1778 896 1954 
C 896 2112 774 2181 666 2181 
C 640 2181 608 2174 589 2168 
C 723 2592 1069 2714 1293 2714 
C 1613 2714 1965 2429 1965 1885 
L 1965 1600 
C 1587 1600 1133 1549 774 1357 
C 371 1133 256 813 256 570 
C 256 77 832 -64 1171 -64 
C 1523 -64 1850 139 1990 511 
C 2003 233 2182 -18 2464 -18 
C 2598 -18 2938 70 2938 567 
L 2938 920 
L 2822 920 
L 2822 562 
C 2822 178 2650 128 2566 128 
C 2304 128 2304 458 2304 738 
L 2304 1653 
z
M 1965 870 
C 1965 317 1568 38 1216 38 
C 896 38 646 275 646 570 
C 646 761 730 1100 1101 1305 
C 1408 1478 1760 1504 1965 1504 
L 1965 870 
z
" transform="scale(0.015625)"/>
      <path id="CMR17-6e" d="M 2656 1933 
C 2656 2259 2592 2790 1837 2790 
C 1331 2790 1069 2400 973 2144 
L 966 2144 
L 966 2790 
L 211 2720 
L 211 2554 
C 589 2554 646 2515 646 2208 
L 646 428 
C 646 184 621 153 211 153 
L 211 -13 
C 365 0 646 0 813 0 
C 979 0 1267 0 1421 -13 
L 1421 153 
C 1011 153 986 178 986 428 
L 986 1658 
C 986 2247 1344 2688 1792 2688 
C 2266 2688 2317 2266 2317 1958 
L 2317 428 
C 2317 184 2291 153 1882 153 
L 1882 -13 
C 2035 0 2317 0 2483 0 
C 2650 0 2938 0 3091 -13 
L 3091 153 
C 2682 153 2656 178 2656 428 
L 2656 1933 
z
" transform="scale(0.015625)"/>
      <path id="CMR17-64" d="M 1869 4326 
L 1869 4160 
C 2246 4160 2304 4122 2304 3820 
L 2304 2345 
C 2278 2377 2016 2790 1498 2790 
C 845 2790 211 2208 211 1364 
C 211 525 806 -64 1434 -64 
C 1978 -64 2259 337 2291 380 
L 2291 -63 
L 3066 -63 
L 3066 128 
C 2688 128 2630 166 2630 473 
L 2630 4396 
L 1869 4326 
z
M 2291 755 
C 2291 563 2176 390 2029 262 
C 1811 70 1594 38 1472 38 
C 1286 38 621 134 621 1356 
C 621 2612 1363 2688 1530 2688 
C 1824 2688 2061 2522 2208 2291 
C 2291 2157 2291 2138 2291 2023 
L 2291 755 
z
" transform="scale(0.015625)"/>
      <path id="CMR17-72" d="M 960 1497 
C 960 2112 1222 2688 1702 2688 
C 1747 2688 1792 2682 1837 2662 
C 1837 2662 1696 2617 1696 2452 
C 1696 2298 1818 2234 1914 2234 
C 1990 2234 2131 2279 2131 2458 
C 2131 2663 1926 2790 1709 2790 
C 1222 2790 1011 2317 947 2093 
L 941 2093 
L 941 2790 
L 198 2720 
L 198 2554 
C 576 2554 634 2515 634 2208 
L 634 428 
C 634 184 608 153 198 153 
L 198 -13 
C 352 0 646 0 813 0 
C 998 0 1325 0 1498 -13 
L 1498 153 
C 1037 153 960 153 960 440 
L 960 1497 
z
" transform="scale(0.015625)"/>
      <path id="CMR17-69" d="M 992 3909 
C 992 4049 877 4170 730 4170 
C 589 4170 467 4056 467 3909 
C 467 3769 582 3648 730 3648 
C 870 3648 992 3763 992 3909 
z
M 243 2706 
L 243 2541 
C 602 2541 653 2502 653 2197 
L 653 427 
C 653 184 627 153 218 153 
L 218 -13 
C 371 0 646 0 806 0 
C 960 0 1222 0 1370 -13 
L 1370 153 
C 992 153 979 191 979 420 
L 979 2776 
L 243 2706 
z
" transform="scale(0.015625)"/>
      <path id="CMR17-7a" d="M 2310 2605 
C 2362 2670 2362 2682 2362 2695 
C 2362 2752 2336 2752 2221 2752 
L 275 2752 
L 211 1760 
L 326 1760 
C 371 2381 442 2650 1178 2650 
L 1958 2650 
L 128 96 
C 128 0 134 0 269 0 
L 2291 0 
L 2381 1152 
L 2266 1152 
C 2214 442 2131 115 1350 115 
L 531 115 
L 2310 2605 
z
" transform="scale(0.015625)"/>
      <path id="CMR17-65" d="M 2438 1472 
C 2464 1498 2464 1511 2464 1576 
C 2464 2238 2118 2816 1389 2816 
C 710 2816 173 2169 173 1383 
C 173 551 781 -64 1459 -64 
C 2176 -64 2458 607 2458 740 
C 2458 784 2419 784 2406 784 
C 2362 784 2355 771 2330 696 
C 2189 265 1837 51 1504 51 
C 1229 51 954 203 781 480 
C 582 803 582 1176 582 1472 
L 2438 1472 
z
M 589 1568 
C 634 2505 1126 2714 1382 2714 
C 1818 2714 2112 2297 2118 1568 
L 589 1568 
z
" transform="scale(0.015625)"/>
      <path id="CMR17-52" d="M 2509 2146 
C 3117 2268 3629 2676 3629 3186 
C 3629 3785 2950 4326 2054 4326 
L 333 4326 
L 333 4160 
C 774 4160 845 4160 845 3873 
L 845 415 
C 845 128 774 128 333 128 
L 333 -26 
C 518 -26 851 -26 1050 -26 
C 1248 -26 1581 -26 1766 -26 
L 1766 128 
C 1325 128 1254 128 1254 417 
L 1254 2112 
L 2003 2112 
C 2368 2112 2573 1964 2662 1881 
C 2918 1632 2918 1459 2918 1024 
C 2918 595 2918 377 3110 160 
C 3354 -102 3680 -128 3821 -128 
C 4294 -128 4365 396 4365 503 
C 4365 540 4365 585 4307 585 
C 4256 585 4250 547 4250 522 
C 4218 112 4032 -26 3834 -26 
C 3482 -26 3443 375 3405 764 
C 3386 898 3373 993 3360 1133 
C 3322 1452 3270 1917 2509 2146 
z
M 1984 2214 
L 1254 2214 
L 1254 3913 
C 1254 4129 1267 4160 1523 4160 
L 1990 4160 
C 2522 4160 3142 3977 3142 3190 
C 3142 2372 2464 2214 1984 2214 
z
" transform="scale(0.015625)"/>
      <path id="CMR17-73" d="M 1978 2697 
C 1978 2813 1971 2819 1933 2819 
C 1907 2819 1901 2813 1824 2717 
C 1805 2691 1747 2626 1728 2601 
C 1523 2819 1235 2819 1126 2819 
C 416 2819 160 2447 160 2076 
C 160 1498 813 1365 998 1325 
C 1402 1243 1542 1217 1677 1101 
C 1760 1025 1901 884 1901 654 
C 1901 384 1747 38 1158 38 
C 602 38 403 460 288 1021 
C 269 1110 269 1117 218 1117 
C 166 1117 160 1110 160 983 
L 160 63 
C 160 -51 166 -58 205 -58 
C 237 -58 243 -51 275 0 
C 314 57 410 211 448 276 
C 576 103 800 -64 1158 -64 
C 1792 -64 2131 283 2131 784 
C 2131 1112 1958 1285 1875 1362 
C 1683 1561 1459 1606 1190 1657 
C 838 1735 390 1825 390 2217 
C 390 2383 480 2737 1126 2737 
C 1811 2737 1850 2094 1862 1888 
C 1869 1856 1901 1849 1920 1849 
C 1978 1849 1978 1869 1978 1978 
L 1978 2697 
z
" transform="scale(0.015625)"/>
      <path id="CMR17-75" d="M 1882 2693 
L 1882 2528 
C 2259 2528 2317 2489 2317 2186 
L 2317 1032 
C 2317 500 2029 38 1555 38 
C 1030 38 986 348 986 678 
L 986 2763 
L 211 2693 
L 211 2528 
C 467 2528 640 2528 646 2274 
L 646 1058 
C 646 633 646 361 813 183 
C 896 101 1056 -64 1517 -64 
C 2061 -64 2272 377 2323 506 
L 2330 506 
L 2330 -63 
L 3091 -63 
L 3091 128 
C 2714 128 2656 166 2656 473 
L 2656 2763 
L 1882 2693 
z
" transform="scale(0.015625)"/>
      <path id="CMR17-6c" d="M 979 4396 
L 218 4326 
L 218 4160 
C 595 4160 653 4122 653 3817 
L 653 426 
C 653 184 627 153 218 153 
L 218 -13 
C 371 0 653 0 813 0 
C 979 0 1261 0 1414 -13 
L 1414 153 
C 1005 153 979 178 979 426 
L 979 4396 
z
" transform="scale(0.015625)"/>
     </defs>
     <use xlink:href="#CMR17-53" transform="scale(0.996264)"/>
     <use xlink:href="#CMR17-74" transform="translate(50.89537 0)scale(0.996264)"/>
     <use xlink:href="#CMR17-61" transform="translate(86.176138 0)scale(0.996264)"/>
     <use xlink:href="#CMR17-6e" transform="translate(131.866615 0)scale(0.996264)"/>
     <use xlink:href="#CMR17-64" transform="translate(182.761984 0)scale(0.996264)"/>
     <use xlink:href="#CMR17-61" transform="translate(233.657354 0)scale(0.996264)"/>
     <use xlink:href="#CMR17-72" transform="translate(279.347831 0)scale(0.996264)"/>
     <use xlink:href="#CMR17-64" transform="translate(314.628599 0)scale(0.996264)"/>
     <use xlink:href="#CMR17-69" transform="translate(365.523969 0)scale(0.996264)"/>
     <use xlink:href="#CMR17-7a" transform="translate(390.395027 0)scale(0.996264)"/>
     <use xlink:href="#CMR17-65" transform="translate(430.880688 0)scale(0.996264)"/>
     <use xlink:href="#CMR17-64" transform="translate(471.366348 0)scale(0.996264)"/>
     <use xlink:href="#CMR17-52" transform="translate(552.337684 0)scale(0.996264)"/>
     <use xlink:href="#CMR17-65" transform="translate(620.128786 0)scale(0.996264)"/>
     <use xlink:href="#CMR17-73" transform="translate(660.614447 0)scale(0.996264)"/>
     <use xlink:href="#CMR17-69" transform="translate(696.415785 0)scale(0.996264)"/>
     <use xlink:href="#CMR17-64" transform="translate(721.286843 0)scale(0.996264)"/>
     <use xlink:href="#CMR17-75" transform="translate(772.182213 0)scale(0.996264)"/>
     <use xlink:href="#CMR17-61" transform="translate(823.077583 0)scale(0.996264)"/>
     <use xlink:href="#CMR17-6c" transform="translate(868.76806 0)scale(0.996264)"/>
     <use xlink:href="#CMR17-73" transform="translate(893.639118 0)scale(0.996264)"/>
    </g>
   </g>
  </g>
  <g id="axes_2">
   <g id="patch_5">
    <path d="M 24.147854 297.608168 
L 684.72 297.608168 
L 684.72 183.277384 
L 24.147854 183.277384 
z
" style="fill: #e5e5e5"/>
   </g>
   <g id="matplotlib.axis_3">
    <g id="xtick_27">
     <g id="line2d_46">
      <path d="M 35.527073 297.608168 
L 35.527073 183.277384 
" clip-path="url(#pdecc3789c0)" style="fill: none; stroke: #ffffff; stroke-width: 1.5; stroke-linecap: square"/>
     </g>
     <g id="line2d_47">
      <g>
       <use xlink:href="#m8a39816a54" x="35.527073" y="297.608168" style="fill: #555555; stroke: #555555; stroke-width: 1.875"/>
      </g>
     </g>
     <g id="text_4">
      <!-- $\mathdefault{1970}$ -->
      <g style="fill: #555555" transform="translate(19.431365 321.523673)scale(0.165 -0.165)">
       <defs>
        <path id="CMR17-31" d="M 1702 4058 
C 1702 4192 1696 4192 1606 4192 
C 1357 3916 979 3827 621 3827 
C 602 3827 570 3827 563 3808 
C 557 3795 557 3782 557 3648 
C 755 3648 1088 3686 1344 3839 
L 1344 461 
C 1344 236 1331 160 781 160 
L 589 160 
L 589 0 
C 896 0 1216 0 1523 0 
C 1830 0 2150 0 2458 0 
L 2458 160 
L 2266 160 
C 1715 160 1702 230 1702 458 
L 1702 4058 
z
" transform="scale(0.015625)"/>
        <path id="CMR17-39" d="M 2253 1864 
C 2253 464 1670 31 1190 31 
C 1043 31 685 31 538 294 
C 704 268 826 357 826 518 
C 826 692 685 749 595 749 
C 538 749 365 723 365 506 
C 365 71 742 -128 1203 -128 
C 1939 -128 2688 674 2688 2073 
C 2688 3817 1971 4179 1485 4179 
C 851 4179 243 3628 243 2778 
C 243 1991 762 1408 1414 1408 
C 1952 1408 2189 1903 2253 2112 
L 2253 1864 
z
M 1427 1510 
C 1254 1510 1011 1542 813 1922 
C 678 2169 678 2461 678 2771 
C 678 3146 678 3405 858 3684 
C 947 3817 1114 4032 1485 4032 
C 2240 4032 2240 2885 2240 2632 
C 2240 2182 2035 1510 1427 1510 
z
" transform="scale(0.015625)"/>
        <path id="CMR17-37" d="M 2886 3941 
L 2886 4081 
L 1382 4081 
C 634 4081 621 4165 595 4288 
L 480 4288 
L 294 3094 
L 410 3094 
C 429 3215 474 3540 550 3661 
C 589 3712 1062 3712 1171 3712 
L 2579 3712 
L 1869 2661 
C 1395 1954 1069 999 1069 165 
C 1069 89 1069 -128 1299 -128 
C 1530 -128 1530 89 1530 171 
L 1530 465 
C 1530 1508 1709 2196 2003 2636 
L 2886 3941 
z
" transform="scale(0.015625)"/>
       </defs>
       <use xlink:href="#CMR17-31" transform="scale(0.996264)"/>
       <use xlink:href="#CMR17-39" transform="translate(45.690477 0)scale(0.996264)"/>
       <use xlink:href="#CMR17-37" transform="translate(91.380954 0)scale(0.996264)"/>
       <use xlink:href="#CMR17-30" transform="translate(137.071431 0)scale(0.996264)"/>
      </g>
     </g>
    </g>
    <g id="xtick_28">
     <g id="line2d_48">
      <path d="M 159.577542 297.608168 
L 159.577542 183.277384 
" clip-path="url(#pdecc3789c0)" style="fill: none; stroke: #ffffff; stroke-width: 1.5; stroke-linecap: square"/>
     </g>
     <g id="line2d_49">
      <g>
       <use xlink:href="#m8a39816a54" x="159.577542" y="297.608168" style="fill: #555555; stroke: #555555; stroke-width: 1.875"/>
      </g>
     </g>
     <g id="text_5">
      <!-- $\mathdefault{1980}$ -->
      <g style="fill: #555555" transform="translate(143.481834 321.523673)scale(0.165 -0.165)">
       <defs>
        <path id="CMR17-38" d="M 1741 2264 
C 2144 2467 2554 2773 2554 3263 
C 2554 3841 1990 4179 1472 4179 
C 890 4179 378 3759 378 3180 
C 378 3021 416 2747 666 2505 
C 730 2442 998 2251 1171 2130 
C 883 1983 211 1634 211 934 
C 211 279 838 -128 1459 -128 
C 2144 -128 2720 362 2720 1010 
C 2720 1590 2330 1857 2074 2029 
L 1741 2264 
z
M 902 2822 
C 851 2854 595 3051 595 3351 
C 595 3739 998 4032 1459 4032 
C 1965 4032 2336 3676 2336 3262 
C 2336 2669 1670 2331 1638 2331 
C 1632 2331 1626 2331 1574 2370 
L 902 2822 
z
M 2080 1519 
C 2176 1449 2483 1240 2483 851 
C 2483 381 2010 25 1472 25 
C 890 25 448 438 448 940 
C 448 1443 838 1862 1280 2060 
L 2080 1519 
z
" transform="scale(0.015625)"/>
       </defs>
       <use xlink:href="#CMR17-31" transform="scale(0.996264)"/>
       <use xlink:href="#CMR17-39" transform="translate(45.690477 0)scale(0.996264)"/>
       <use xlink:href="#CMR17-38" transform="translate(91.380954 0)scale(0.996264)"/>
       <use xlink:href="#CMR17-30" transform="translate(137.071431 0)scale(0.996264)"/>
      </g>
     </g>
    </g>
    <g id="xtick_29">
     <g id="line2d_50">
      <path d="M 283.661979 297.608168 
L 283.661979 183.277384 
" clip-path="url(#pdecc3789c0)" style="fill: none; stroke: #ffffff; stroke-width: 1.5; stroke-linecap: square"/>
     </g>
     <g id="line2d_51">
      <g>
       <use xlink:href="#m8a39816a54" x="283.661979" y="297.608168" style="fill: #555555; stroke: #555555; stroke-width: 1.875"/>
      </g>
     </g>
     <g id="text_6">
      <!-- $\mathdefault{1990}$ -->
      <g style="fill: #555555" transform="translate(267.566271 321.523673)scale(0.165 -0.165)">
       <use xlink:href="#CMR17-31" transform="scale(0.996264)"/>
       <use xlink:href="#CMR17-39" transform="translate(45.690477 0)scale(0.996264)"/>
       <use xlink:href="#CMR17-39" transform="translate(91.380954 0)scale(0.996264)"/>
       <use xlink:href="#CMR17-30" transform="translate(137.071431 0)scale(0.996264)"/>
      </g>
     </g>
    </g>
    <g id="xtick_30">
     <g id="line2d_52">
      <path d="M 407.712449 297.608168 
L 407.712449 183.277384 
" clip-path="url(#pdecc3789c0)" style="fill: none; stroke: #ffffff; stroke-width: 1.5; stroke-linecap: square"/>
     </g>
     <g id="line2d_53">
      <g>
       <use xlink:href="#m8a39816a54" x="407.712449" y="297.608168" style="fill: #555555; stroke: #555555; stroke-width: 1.875"/>
      </g>
     </g>
     <g id="text_7">
      <!-- $\mathdefault{2000}$ -->
      <g style="fill: #555555" transform="translate(391.616741 321.523673)scale(0.165 -0.165)">
       <defs>
        <path id="CMR17-32" d="M 2669 989 
L 2554 989 
C 2490 536 2438 459 2413 420 
C 2381 369 1920 369 1830 369 
L 602 369 
C 832 619 1280 1072 1824 1597 
C 2214 1967 2669 2402 2669 3035 
C 2669 3790 2067 4224 1395 4224 
C 691 4224 262 3604 262 3030 
C 262 2780 448 2748 525 2748 
C 589 2748 781 2787 781 3010 
C 781 3207 614 3264 525 3264 
C 486 3264 448 3258 422 3245 
C 544 3790 915 4058 1306 4058 
C 1862 4058 2227 3617 2227 3035 
C 2227 2479 1901 2000 1536 1584 
L 262 146 
L 262 0 
L 2515 0 
L 2669 989 
z
" transform="scale(0.015625)"/>
       </defs>
       <use xlink:href="#CMR17-32" transform="scale(0.996264)"/>
       <use xlink:href="#CMR17-30" transform="translate(45.690477 0)scale(0.996264)"/>
       <use xlink:href="#CMR17-30" transform="translate(91.380954 0)scale(0.996264)"/>
       <use xlink:href="#CMR17-30" transform="translate(137.071431 0)scale(0.996264)"/>
      </g>
     </g>
    </g>
    <g id="xtick_31">
     <g id="line2d_54">
      <path d="M 531.796886 297.608168 
L 531.796886 183.277384 
" clip-path="url(#pdecc3789c0)" style="fill: none; stroke: #ffffff; stroke-width: 1.5; stroke-linecap: square"/>
     </g>
     <g id="line2d_55">
      <g>
       <use xlink:href="#m8a39816a54" x="531.796886" y="297.608168" style="fill: #555555; stroke: #555555; stroke-width: 1.875"/>
      </g>
     </g>
     <g id="text_8">
      <!-- $\mathdefault{2010}$ -->
      <g style="fill: #555555" transform="translate(515.701178 321.523673)scale(0.165 -0.165)">
       <use xlink:href="#CMR17-32" transform="scale(0.996264)"/>
       <use xlink:href="#CMR17-30" transform="translate(45.690477 0)scale(0.996264)"/>
       <use xlink:href="#CMR17-31" transform="translate(91.380954 0)scale(0.996264)"/>
       <use xlink:href="#CMR17-30" transform="translate(137.071431 0)scale(0.996264)"/>
      </g>
     </g>
    </g>
    <g id="xtick_32">
     <g id="line2d_56">
      <path d="M 655.847355 297.608168 
L 655.847355 183.277384 
" clip-path="url(#pdecc3789c0)" style="fill: none; stroke: #ffffff; stroke-width: 1.5; stroke-linecap: square"/>
     </g>
     <g id="line2d_57">
      <g>
       <use xlink:href="#m8a39816a54" x="655.847355" y="297.608168" style="fill: #555555; stroke: #555555; stroke-width: 1.875"/>
      </g>
     </g>
     <g id="text_9">
      <!-- $\mathdefault{2020}$ -->
      <g style="fill: #555555" transform="translate(639.751647 321.523673)scale(0.165 -0.165)">
       <use xlink:href="#CMR17-32" transform="scale(0.996264)"/>
       <use xlink:href="#CMR17-30" transform="translate(45.690477 0)scale(0.996264)"/>
       <use xlink:href="#CMR17-32" transform="translate(91.380954 0)scale(0.996264)"/>
       <use xlink:href="#CMR17-30" transform="translate(137.071431 0)scale(0.996264)"/>
      </g>
     </g>
    </g>
    <g id="xtick_33">
     <g id="line2d_58">
      <g>
       <use xlink:href="#m6be49f3e39" x="66.548182" y="297.608168" style="fill: #555555; stroke: #555555; stroke-width: 1.5"/>
      </g>
     </g>
    </g>
    <g id="xtick_34">
     <g id="line2d_59">
      <g>
       <use xlink:href="#m6be49f3e39" x="97.569291" y="297.608168" style="fill: #555555; stroke: #555555; stroke-width: 1.5"/>
      </g>
     </g>
    </g>
    <g id="xtick_35">
     <g id="line2d_60">
      <g>
       <use xlink:href="#m6be49f3e39" x="128.590401" y="297.608168" style="fill: #555555; stroke: #555555; stroke-width: 1.5"/>
      </g>
     </g>
    </g>
    <g id="xtick_36">
     <g id="line2d_61">
      <g>
       <use xlink:href="#m6be49f3e39" x="159.61151" y="297.608168" style="fill: #555555; stroke: #555555; stroke-width: 1.5"/>
      </g>
     </g>
    </g>
    <g id="xtick_37">
     <g id="line2d_62">
      <g>
       <use xlink:href="#m6be49f3e39" x="190.632619" y="297.608168" style="fill: #555555; stroke: #555555; stroke-width: 1.5"/>
      </g>
     </g>
    </g>
    <g id="xtick_38">
     <g id="line2d_63">
      <g>
       <use xlink:href="#m6be49f3e39" x="221.653729" y="297.608168" style="fill: #555555; stroke: #555555; stroke-width: 1.5"/>
      </g>
     </g>
    </g>
    <g id="xtick_39">
     <g id="line2d_64">
      <g>
       <use xlink:href="#m6be49f3e39" x="252.674838" y="297.608168" style="fill: #555555; stroke: #555555; stroke-width: 1.5"/>
      </g>
     </g>
    </g>
    <g id="xtick_40">
     <g id="line2d_65">
      <g>
       <use xlink:href="#m6be49f3e39" x="283.695947" y="297.608168" style="fill: #555555; stroke: #555555; stroke-width: 1.5"/>
      </g>
     </g>
    </g>
    <g id="xtick_41">
     <g id="line2d_66">
      <g>
       <use xlink:href="#m6be49f3e39" x="314.717056" y="297.608168" style="fill: #555555; stroke: #555555; stroke-width: 1.5"/>
      </g>
     </g>
    </g>
    <g id="xtick_42">
     <g id="line2d_67">
      <g>
       <use xlink:href="#m6be49f3e39" x="345.738166" y="297.608168" style="fill: #555555; stroke: #555555; stroke-width: 1.5"/>
      </g>
     </g>
    </g>
    <g id="xtick_43">
     <g id="line2d_68">
      <g>
       <use xlink:href="#m6be49f3e39" x="376.759275" y="297.608168" style="fill: #555555; stroke: #555555; stroke-width: 1.5"/>
      </g>
     </g>
    </g>
    <g id="xtick_44">
     <g id="line2d_69">
      <g>
       <use xlink:href="#m6be49f3e39" x="407.780384" y="297.608168" style="fill: #555555; stroke: #555555; stroke-width: 1.5"/>
      </g>
     </g>
    </g>
    <g id="xtick_45">
     <g id="line2d_70">
      <g>
       <use xlink:href="#m6be49f3e39" x="438.801494" y="297.608168" style="fill: #555555; stroke: #555555; stroke-width: 1.5"/>
      </g>
     </g>
    </g>
    <g id="xtick_46">
     <g id="line2d_71">
      <g>
       <use xlink:href="#m6be49f3e39" x="469.822603" y="297.608168" style="fill: #555555; stroke: #555555; stroke-width: 1.5"/>
      </g>
     </g>
    </g>
    <g id="xtick_47">
     <g id="line2d_72">
      <g>
       <use xlink:href="#m6be49f3e39" x="500.843712" y="297.608168" style="fill: #555555; stroke: #555555; stroke-width: 1.5"/>
      </g>
     </g>
    </g>
    <g id="xtick_48">
     <g id="line2d_73">
      <g>
       <use xlink:href="#m6be49f3e39" x="531.864821" y="297.608168" style="fill: #555555; stroke: #555555; stroke-width: 1.5"/>
      </g>
     </g>
    </g>
    <g id="xtick_49">
     <g id="line2d_74">
      <g>
       <use xlink:href="#m6be49f3e39" x="562.885931" y="297.608168" style="fill: #555555; stroke: #555555; stroke-width: 1.5"/>
      </g>
     </g>
    </g>
    <g id="xtick_50">
     <g id="line2d_75">
      <g>
       <use xlink:href="#m6be49f3e39" x="593.90704" y="297.608168" style="fill: #555555; stroke: #555555; stroke-width: 1.5"/>
      </g>
     </g>
    </g>
    <g id="xtick_51">
     <g id="line2d_76">
      <g>
       <use xlink:href="#m6be49f3e39" x="624.928149" y="297.608168" style="fill: #555555; stroke: #555555; stroke-width: 1.5"/>
      </g>
     </g>
    </g>
    <g id="xtick_52">
     <g id="line2d_77">
      <g>
       <use xlink:href="#m6be49f3e39" x="655.949259" y="297.608168" style="fill: #555555; stroke: #555555; stroke-width: 1.5"/>
      </g>
     </g>
    </g>
   </g>
   <g id="matplotlib.axis_4">
    <g id="ytick_11">
     <g id="line2d_78">
      <path d="M 24.147854 257.368521 
L 684.72 257.368521 
" clip-path="url(#pdecc3789c0)" style="fill: none; stroke: #ffffff; stroke-width: 1.5; stroke-linecap: square"/>
     </g>
     <g id="line2d_79">
      <g>
       <use xlink:href="#m782c1f8d8e" x="24.147854" y="257.368521" style="fill: #555555; stroke: #555555; stroke-width: 1.875"/>
      </g>
     </g>
     <g id="text_10">
      <!-- $\mathdefault{1}$ -->
      <g style="fill: #555555" transform="translate(3.6 263.076273)scale(0.165 -0.165)">
       <use xlink:href="#CMR17-31" transform="scale(0.996264)"/>
      </g>
     </g>
    </g>
    <g id="ytick_12">
     <g id="line2d_80">
      <path d="M 24.147854 202.017249 
L 684.72 202.017249 
" clip-path="url(#pdecc3789c0)" style="fill: none; stroke: #ffffff; stroke-width: 1.5; stroke-linecap: square"/>
     </g>
     <g id="line2d_81">
      <g>
       <use xlink:href="#m782c1f8d8e" x="24.147854" y="202.017249" style="fill: #555555; stroke: #555555; stroke-width: 1.875"/>
      </g>
     </g>
     <g id="text_11">
      <!-- $\mathdefault{2}$ -->
      <g style="fill: #555555" transform="translate(3.6 207.725001)scale(0.165 -0.165)">
       <use xlink:href="#CMR17-32" transform="scale(0.996264)"/>
      </g>
     </g>
    </g>
    <g id="ytick_13">
     <g id="line2d_82">
      <g>
       <use xlink:href="#mf35284d2d6" x="24.147854" y="290.579284" style="fill: #555555; stroke: #555555; stroke-width: 1.5"/>
      </g>
     </g>
    </g>
    <g id="ytick_14">
     <g id="line2d_83">
      <g>
       <use xlink:href="#mf35284d2d6" x="24.147854" y="279.50903" style="fill: #555555; stroke: #555555; stroke-width: 1.5"/>
      </g>
     </g>
    </g>
    <g id="ytick_15">
     <g id="line2d_84">
      <g>
       <use xlink:href="#mf35284d2d6" x="24.147854" y="268.438775" style="fill: #555555; stroke: #555555; stroke-width: 1.5"/>
      </g>
     </g>
    </g>
    <g id="ytick_16">
     <g id="line2d_85">
      <g>
       <use xlink:href="#mf35284d2d6" x="24.147854" y="246.298267" style="fill: #555555; stroke: #555555; stroke-width: 1.5"/>
      </g>
     </g>
    </g>
    <g id="ytick_17">
     <g id="line2d_86">
      <g>
       <use xlink:href="#mf35284d2d6" x="24.147854" y="235.228012" style="fill: #555555; stroke: #555555; stroke-width: 1.5"/>
      </g>
     </g>
    </g>
    <g id="ytick_18">
     <g id="line2d_87">
      <g>
       <use xlink:href="#mf35284d2d6" x="24.147854" y="224.157758" style="fill: #555555; stroke: #555555; stroke-width: 1.5"/>
      </g>
     </g>
    </g>
    <g id="ytick_19">
     <g id="line2d_88">
      <g>
       <use xlink:href="#mf35284d2d6" x="24.147854" y="213.087503" style="fill: #555555; stroke: #555555; stroke-width: 1.5"/>
      </g>
     </g>
    </g>
    <g id="ytick_20">
     <g id="line2d_89">
      <g>
       <use xlink:href="#mf35284d2d6" x="24.147854" y="190.946994" style="fill: #555555; stroke: #555555; stroke-width: 1.5"/>
      </g>
     </g>
    </g>
   </g>
   <g id="line2d_90">
    <path d="M 24.147854 286.329593 
L 25.098953 287.626635 
L 26.151955 288.635931 
L 27.17099 289.149122 
L 28.223992 290.003397 
L 30.296029 291.232062 
L 32.368066 292.08835 
L 33.421068 292.411315 
L 34.440103 291.542924 
L 36.546107 290.803875 
L 37.497206 291.215031 
L 38.550209 291.167581 
L 39.569243 291.631622 
L 40.622245 290.905666 
L 41.64128 291.324633 
L 42.694282 286.036578 
L 43.747285 286.395913 
L 44.766319 287.358224 
L 45.819322 287.924858 
L 46.838356 284.001534 
L 47.891358 284.842189 
L 48.944361 286.320691 
L 49.89546 286.52981 
L 50.948462 287.816655 
L 53.020499 288.813609 
L 54.039533 286.92271 
L 55.092536 286.702109 
L 56.145538 287.600925 
L 57.164573 286.071398 
L 58.217575 287.071281 
L 60.289612 286.297711 
L 62.327681 288.50451 
L 63.380683 285.725785 
L 64.399718 286.491805 
L 67.524757 289.567007 
L 68.577759 289.199057 
L 69.596794 290.043425 
L 70.649796 289.946792 
L 71.668831 290.269314 
L 72.721833 286.15504 
L 74.725934 266.122004 
L 75.778937 245.353737 
L 76.797971 244.367669 
L 77.850973 228.173013 
L 78.870008 188.474238 
L 79.92301 200.846023 
L 80.976013 211.117 
L 81.995047 200.027255 
L 83.048049 209.639623 
L 84.067084 211.543147 
L 85.120086 218.84597 
L 86.173089 228.219959 
L 87.124188 233.742601 
L 89.196224 248.390848 
L 90.249227 248.205796 
L 91.268261 254.539403 
L 92.321264 259.349588 
L 93.374266 197.381883 
L 94.3933 199.284506 
L 95.446303 203.031535 
L 97.51834 222.761347 
L 98.571342 228.875461 
L 99.522441 227.877743 
L 100.575443 225.816875 
L 101.594478 223.381779 
L 102.64748 226.786604 
L 104.719517 242.098327 
L 105.772519 241.038026 
L 107.844556 254.279364 
L 108.863591 251.939781 
L 109.916593 257.268027 
L 110.969595 260.424682 
L 111.954662 265.052382 
L 114.026699 271.708416 
L 115.079701 274.479716 
L 116.098736 259.012381 
L 117.151738 253.434961 
L 118.204741 254.198829 
L 119.223775 255.223457 
L 120.276777 258.733232 
L 121.295812 260.796466 
L 122.348814 265.503517 
L 123.401817 268.221249 
L 124.352915 271.938907 
L 125.405918 271.523162 
L 126.424952 263.998222 
L 127.477955 263.339181 
L 128.496989 267.428826 
L 130.602994 221.395122 
L 131.622028 227.494997 
L 132.675031 235.906612 
L 133.694065 243.045753 
L 135.80007 254.965927 
L 136.751169 258.273276 
L 137.804171 262.573818 
L 138.823206 254.4273 
L 139.876208 259.776722 
L 140.895243 263.821521 
L 141.948245 263.868931 
L 143.001247 264.368574 
L 145.073284 272.140135 
L 146.092319 269.697969 
L 147.145321 271.243208 
L 148.198323 274.641093 
L 149.149422 277.244292 
L 150.202425 275.570597 
L 151.221459 278.427783 
L 152.274461 278.431495 
L 153.293496 280.899041 
L 154.346498 283.015105 
L 155.399501 283.004396 
L 156.418535 284.808944 
L 157.471537 286.113161 
L 158.490572 282.195662 
L 159.543574 283.56841 
L 160.596577 284.171898 
L 161.581643 285.551721 
L 162.634646 285.885295 
L 163.65368 275.741336 
L 164.706683 277.050912 
L 165.725717 279.504569 
L 166.778719 276.571682 
L 167.831722 265.982839 
L 169.903759 273.058127 
L 170.922793 266.630925 
L 171.975796 270.592116 
L 173.028798 262.123266 
L 173.979897 259.465571 
L 176.051934 267.406396 
L 177.104936 271.265496 
L 178.123971 273.447917 
L 179.176973 270.160444 
L 180.229975 271.567016 
L 181.24901 268.503828 
L 183.321047 274.421644 
L 184.374049 276.604591 
L 185.427051 278.156127 
L 186.37815 278.634379 
L 187.431152 279.480103 
L 188.450187 281.683019 
L 189.503189 282.73427 
L 190.522224 282.801143 
L 191.575226 283.498122 
L 192.628229 284.694835 
L 193.647263 280.782429 
L 194.700265 281.061618 
L 195.7193 282.963264 
L 196.772302 282.478863 
L 197.825305 284.381098 
L 199.829406 281.976993 
L 200.84844 274.940949 
L 201.901443 277.505928 
L 202.920477 275.670515 
L 203.97348 278.55396 
L 205.026482 267.076122 
L 206.045516 241.124027 
L 208.117553 252.584583 
L 209.170556 257.62258 
L 210.223558 262.05965 
L 211.208625 257.821011 
L 214.333664 270.224116 
L 215.352698 269.623653 
L 216.405701 264.192235 
L 217.458703 247.226785 
L 218.477738 253.097496 
L 219.53074 256.140864 
L 220.549775 259.766868 
L 221.602777 264.068268 
L 222.655779 267.175812 
L 223.606878 270.648378 
L 224.65988 272.168627 
L 225.678915 273.227258 
L 226.731917 276.076632 
L 227.750952 277.226022 
L 228.803954 279.68682 
L 229.856956 277.817789 
L 231.928993 282.351184 
L 232.948028 283.860654 
L 234.00103 282.868416 
L 235.054033 279.41125 
L 236.005131 281.566374 
L 237.058134 283.553538 
L 239.130171 286.301363 
L 240.149205 285.294296 
L 241.202208 284.848919 
L 242.25521 286.406168 
L 243.274244 285.223668 
L 244.327247 286.611762 
L 245.346281 287.256289 
L 246.399284 288.405823 
L 247.452286 288.865543 
L 248.403385 289.647466 
L 249.456387 288.7608 
L 250.475422 288.933351 
L 251.528424 283.884423 
L 253.600461 286.404998 
L 254.653463 286.782178 
L 255.672498 286.072813 
L 256.7255 284.897121 
L 257.744535 286.304232 
L 258.797537 276.483363 
L 260.835606 281.540004 
L 261.888608 281.499907 
L 262.907643 283.319997 
L 263.960645 281.596735 
L 264.97968 270.137879 
L 266.032682 249.769328 
L 267.085684 232.645907 
L 268.104719 236.838558 
L 271.229758 255.033103 
L 273.233859 261.779929 
L 274.286862 266.471973 
L 275.305896 269.238717 
L 276.358899 272.821942 
L 278.430935 278.650145 
L 279.483938 259.479923 
L 280.502972 264.333382 
L 281.555975 267.915378 
L 282.575009 271.846186 
L 284.681014 277.909783 
L 286.685115 281.228016 
L 287.70415 282.686371 
L 288.757152 279.109081 
L 289.776186 278.243691 
L 290.829189 279.909386 
L 291.882191 279.913323 
L 293.954228 283.862972 
L 294.973263 285.131421 
L 296.026265 285.761737 
L 297.079267 286.063133 
L 298.030366 287.309177 
L 299.083368 287.46978 
L 302.17444 289.549031 
L 303.227442 280.844951 
L 304.280445 274.305272 
L 305.299479 277.391335 
L 306.352481 280.044429 
L 307.371516 280.929244 
L 309.477521 284.704221 
L 310.462587 285.656358 
L 311.51559 286.475754 
L 312.534624 287.785236 
L 313.587627 288.510907 
L 314.606661 286.025702 
L 315.659663 287.083777 
L 316.712666 281.055153 
L 317.7317 282.583106 
L 318.784703 284.464085 
L 319.803737 285.750873 
L 323.913843 289.763484 
L 325.98588 290.964687 
L 327.004914 290.563276 
L 328.057917 285.60207 
L 329.110919 284.975939 
L 330.129954 285.12231 
L 331.182956 283.840892 
L 332.20199 285.534633 
L 333.254993 282.813331 
L 334.307995 281.933073 
L 335.259094 282.698565 
L 337.331131 286.138313 
L 338.384133 287.400413 
L 339.403168 287.357094 
L 340.45617 283.611325 
L 341.509172 272.206033 
L 342.528207 275.542525 
L 343.581209 274.484667 
L 345.653246 279.439958 
L 346.706249 281.737483 
L 347.657347 283.259814 
L 349.729384 285.778159 
L 351.801421 288.367005 
L 352.854423 289.361259 
L 353.907426 288.553601 
L 354.92646 288.856704 
L 355.979463 288.197005 
L 356.998497 286.179143 
L 358.0515 287.528018 
L 359.104502 282.705275 
L 360.089569 284.546464 
L 361.142571 286.151934 
L 362.161605 287.438185 
L 363.214608 285.639694 
L 364.233642 287.001924 
L 365.286645 287.672538 
L 366.339647 287.728626 
L 367.358682 285.107794 
L 368.411684 283.723507 
L 369.430718 272.379873 
L 370.483721 273.05127 
L 371.536723 275.293666 
L 373.540824 274.293212 
L 374.559859 273.384698 
L 375.612861 275.732922 
L 376.631896 278.54855 
L 377.684898 258.001396 
L 378.7379 262.283099 
L 379.756935 260.873675 
L 380.809937 265.4198 
L 381.828972 262.638717 
L 382.881974 266.684791 
L 383.934976 268.178562 
L 384.886075 272.053529 
L 386.958112 277.627976 
L 388.011115 280.152716 
L 389.030149 281.351769 
L 390.083151 283.013529 
L 391.136154 274.66135 
L 392.155188 269.841866 
L 393.208191 273.381273 
L 394.227225 271.894345 
L 395.280227 273.887091 
L 396.33323 270.628844 
L 397.284329 271.173875 
L 398.337331 267.224698 
L 399.356366 269.234162 
L 400.409368 272.995068 
L 401.428402 274.417689 
L 402.481405 276.90213 
L 403.534407 278.083741 
L 404.553442 271.926311 
L 405.606444 275.137927 
L 407.678481 280.175267 
L 408.731483 282.111817 
L 409.71655 278.631187 
L 410.769552 281.126032 
L 411.788587 279.387049 
L 412.841589 281.47377 
L 413.860624 282.192845 
L 415.966628 276.329856 
L 416.985663 268.924741 
L 418.038665 272.220961 
L 419.0577 273.879316 
L 420.110702 272.925375 
L 421.163704 276.201829 
L 422.114803 271.480562 
L 423.167806 274.854677 
L 424.18684 274.907847 
L 425.239842 277.668153 
L 426.258877 279.615662 
L 427.311879 279.71092 
L 428.364882 277.809276 
L 429.383916 277.724771 
L 430.436919 276.058935 
L 431.455953 277.727587 
L 432.508955 280.044799 
L 433.561958 279.811536 
L 434.513057 281.879303 
L 435.566059 283.576528 
L 436.585094 279.804151 
L 437.638096 281.608725 
L 438.65713 277.445949 
L 439.710133 278.849855 
L 440.763135 279.508878 
L 442.835172 283.609747 
L 443.854206 284.206884 
L 444.907209 285.492629 
L 445.960211 286.32369 
L 446.91131 287.624327 
L 447.964312 288.391026 
L 448.983347 289.365136 
L 450.036349 282.806108 
L 451.055384 284.661962 
L 452.108386 285.981752 
L 453.161388 266.160078 
L 454.180423 261.821805 
L 455.233425 256.772504 
L 456.25246 249.740995 
L 459.343531 263.544558 
L 460.396534 258.27823 
L 461.415568 261.698934 
L 462.46857 266.181697 
L 463.487605 245.246469 
L 464.540607 251.844975 
L 465.59361 218.062809 
L 466.612644 225.986317 
L 467.665646 224.683866 
L 468.684681 233.712727 
L 469.737683 241.73076 
L 470.790686 248.637882 
L 471.741785 253.046645 
L 472.794787 243.688207 
L 473.813821 250.522554 
L 474.866824 256.565181 
L 475.885858 258.370383 
L 477.991863 266.719466 
L 479.010898 261.31974 
L 480.0639 265.072004 
L 481.082934 269.36246 
L 482.135937 272.489683 
L 483.188939 270.411855 
L 485.19304 276.553041 
L 486.212075 278.284989 
L 487.265077 279.256478 
L 489.337114 281.977747 
L 490.390116 283.269432 
L 491.409151 282.029211 
L 492.462153 283.886228 
L 493.481188 267.330894 
L 494.53419 268.716179 
L 495.587192 272.465841 
L 496.538291 275.006355 
L 497.591294 272.81197 
L 498.610328 275.325868 
L 499.663331 277.555425 
L 500.682365 274.837383 
L 501.735367 275.495003 
L 502.78837 278.118232 
L 503.807404 279.080351 
L 504.860407 271.231826 
L 505.879441 274.141311 
L 506.932443 275.214337 
L 507.985446 269.366638 
L 508.970512 271.516891 
L 510.023515 255.78808 
L 511.042549 234.956081 
L 512.095552 239.822883 
L 513.114586 246.586802 
L 514.167589 242.731566 
L 515.220591 241.825884 
L 516.239625 247.724521 
L 517.292628 231.666312 
L 518.311662 234.95094 
L 519.364665 241.632522 
L 520.417667 244.591832 
L 521.368766 251.352938 
L 522.421768 250.811896 
L 523.440803 253.434798 
L 524.493805 253.984233 
L 525.51284 253.73705 
L 526.565842 258.624041 
L 527.618844 260.785884 
L 528.637879 263.653431 
L 529.690881 264.226492 
L 530.709916 267.105555 
L 531.762918 267.152246 
L 532.81592 271.027168 
L 533.767019 262.814848 
L 534.820022 266.14827 
L 535.839056 270.016395 
L 536.892058 271.577244 
L 537.911093 272.216063 
L 538.964095 275.563364 
L 540.017098 273.117356 
L 541.036132 276.250143 
L 542.089135 273.117114 
L 543.108169 268.687189 
L 544.161171 272.502144 
L 545.214174 266.772898 
L 546.165273 270.824996 
L 550.309346 280.873066 
L 551.362349 280.065777 
L 552.415351 281.304419 
L 553.434386 278.776609 
L 554.487388 253.887157 
L 555.506422 259.148333 
L 556.559425 261.202592 
L 557.612427 263.816632 
L 558.597494 268.226446 
L 559.650496 266.70113 
L 560.669531 268.536815 
L 561.722533 269.390634 
L 562.741568 264.454598 
L 563.79457 262.74283 
L 564.847572 260.242047 
L 565.866607 263.760507 
L 566.919609 262.915654 
L 567.938644 266.718255 
L 568.991646 267.234374 
L 570.044648 270.950206 
L 572.04875 276.623769 
L 573.067784 278.207934 
L 574.120786 280.752778 
L 575.139821 279.380589 
L 576.192823 280.555529 
L 577.245826 269.016125 
L 579.317862 270.147459 
L 580.336897 273.672228 
L 581.389899 275.037348 
L 582.442902 277.20436 
L 583.394001 279.761286 
L 584.447003 274.897674 
L 585.466037 277.097389 
L 586.51904 278.927297 
L 587.538074 281.111752 
L 588.591077 274.005906 
L 589.644079 257.633519 
L 590.663113 259.205414 
L 592.73515 252.075059 
L 594.841155 262.616368 
L 595.792254 264.821931 
L 596.845256 266.323284 
L 597.864291 268.185752 
L 598.917293 272.081246 
L 599.936328 273.906468 
L 600.98933 268.010622 
L 602.042332 266.412589 
L 603.061367 266.849978 
L 604.114369 270.916628 
L 605.133404 274.391498 
L 606.186406 277.432295 
L 608.224475 281.854101 
L 609.277477 283.124878 
L 610.296512 282.066873 
L 611.349514 272.85645 
L 612.368549 274.623227 
L 613.421551 272.693113 
L 614.474554 263.464992 
L 615.493588 264.260356 
L 616.54659 268.633709 
L 617.565625 270.505061 
L 618.618627 273.83 
L 619.67163 276.23829 
L 620.622728 278.763539 
L 621.675731 281.202399 
L 622.694765 276.48894 
L 623.747768 279.252165 
L 624.766802 280.082056 
L 625.819805 281.573166 
L 626.872807 281.243376 
L 627.891841 280.298645 
L 631.016881 285.622286 
L 632.069883 286.193431 
L 633.020982 286.291614 
L 634.073984 284.648067 
L 636.146021 287.501287 
L 637.165056 287.695094 
L 638.218058 266.715252 
L 639.27106 269.278384 
L 640.290095 269.046962 
L 642.362132 276.114893 
L 643.415134 277.005912 
L 644.468136 279.709865 
L 646.472238 283.552104 
L 647.491272 284.531757 
L 648.544274 284.55621 
L 650.616311 286.121889 
L 651.669314 285.620173 
L 652.688348 287.05243 
L 653.74135 286.363392 
L 654.760385 287.125907 
L 655.813387 284.563806 
L 657.851456 275.781295 
L 659.923493 280.87406 
L 660.976496 281.699497 
L 661.99553 283.440581 
L 663.048532 283.442739 
L 664.101535 285.109219 
L 666.173572 280.273348 
L 667.192606 281.770806 
L 669.298611 269.596296 
L 672.321747 277.817723 
L 673.374749 276.727177 
L 674.393783 279.414929 
L 675.446786 278.032697 
L 676.499788 278.57103 
L 677.518823 278.341376 
L 678.571825 280.020537 
L 679.59086 282.233195 
L 680.643862 283.556002 
L 681.696864 277.972482 
L 682.647963 272.115846 
L 683.700965 269.731652 
L 684.72 273.282128 
L 684.72 273.282128 
" clip-path="url(#pdecc3789c0)" style="fill: none; stroke: #4d3c2f; stroke-width: 2.25; stroke-linecap: square"/>
   </g>
   <g id="patch_6">
    <path d="M 24.147854 297.608168 
L 24.147854 183.277384 
" style="fill: none; stroke: #ffffff; stroke-width: 1.875; stroke-linejoin: miter; stroke-linecap: square"/>
   </g>
   <g id="patch_7">
    <path d="M 24.147854 297.608168 
L 684.72 297.608168 
" style="fill: none; stroke: #ffffff; stroke-width: 1.875; stroke-linejoin: miter; stroke-linecap: square"/>
   </g>
   <g id="text_12">
    <!-- Conditional Volatility -->
    <g transform="translate(276.618207 177.277384)scale(0.18 -0.18)">
     <defs>
      <path id="CMR17-43" d="M 3974 4289 
C 3974 4403 3968 4410 3930 4410 
C 3904 4410 3898 4403 3853 4327 
L 3571 3792 
C 3258 4187 2874 4416 2381 4416 
C 1286 4416 294 3456 294 2148 
C 294 826 1286 -128 2387 -128 
C 3366 -128 3974 730 3974 1461 
C 3974 1524 3974 1550 3917 1550 
C 3866 1550 3866 1531 3859 1474 
C 3808 585 3168 38 2477 38 
C 1824 38 781 495 781 2147 
C 781 3805 1843 4250 2464 4250 
C 3187 4250 3712 3628 3834 2745 
C 3846 2668 3846 2655 3904 2655 
C 3974 2655 3974 2668 3974 2783 
L 3974 4289 
z
" transform="scale(0.015625)"/>
      <path id="CMR17-6f" d="M 2758 1356 
C 2758 2176 2163 2816 1466 2816 
C 768 2816 173 2176 173 1356 
C 173 551 768 -64 1466 -64 
C 2163 -64 2758 551 2758 1356 
z
M 1466 51 
C 1165 51 909 230 762 480 
C 602 767 582 1126 582 1408 
C 582 1677 595 2010 762 2298 
C 890 2509 1139 2714 1466 2714 
C 1754 2714 1997 2554 2150 2330 
C 2349 2029 2349 1607 2349 1408 
C 2349 1158 2336 775 2163 467 
C 1984 173 1709 51 1466 51 
z
" transform="scale(0.015625)"/>
      <path id="CMR17-56" d="M 3776 3745 
C 3834 3886 3936 4160 4365 4160 
L 4365 4332 
C 4218 4319 4051 4319 3891 4319 
C 3738 4319 3475 4319 3328 4332 
L 3328 4160 
C 3648 4160 3661 3936 3661 3898 
C 3661 3827 3642 3783 3622 3732 
L 2362 446 
L 1043 3886 
C 1024 3931 1011 3963 1011 3994 
C 1011 4160 1267 4160 1402 4160 
L 1402 4319 
C 1197 4319 896 4319 685 4319 
C 518 4319 218 4319 64 4332 
L 64 4160 
C 435 4160 506 4135 582 3931 
L 2106 -26 
C 2138 -115 2144 -128 2214 -128 
C 2285 -128 2291 -115 2323 -26 
L 3776 3745 
z
" transform="scale(0.015625)"/>
      <path id="CMR17-79" d="M 2496 2197 
C 2656 2586 2944 2586 3034 2586 
L 3034 2752 
C 2912 2752 2752 2752 2630 2752 
C 2496 2752 2285 2752 2157 2758 
L 2157 2592 
C 2400 2573 2406 2394 2406 2343 
C 2406 2280 2394 2248 2362 2171 
L 1664 449 
L 902 2306 
C 870 2382 870 2426 870 2433 
C 870 2573 1018 2586 1171 2586 
L 1171 2758 
C 1018 2752 742 2752 582 2752 
C 410 2752 205 2752 64 2758 
L 64 2586 
C 410 2586 448 2554 531 2350 
L 1485 15 
C 1197 -738 1030 -1178 627 -1178 
C 557 -1178 397 -1159 282 -1044 
C 429 -1031 493 -942 493 -833 
C 493 -725 416 -629 288 -629 
C 147 -629 77 -725 77 -840 
C 77 -1095 339 -1280 627 -1280 
C 998 -1280 1229 -922 1357 -604 
L 2496 2197 
z
" transform="scale(0.015625)"/>
     </defs>
     <use xlink:href="#CMR17-43" transform="scale(0.996264)"/>
     <use xlink:href="#CMR17-6f" transform="translate(66.509881 0)scale(0.996264)"/>
     <use xlink:href="#CMR17-6e" transform="translate(112.200358 0)scale(0.996264)"/>
     <use xlink:href="#CMR17-64" transform="translate(163.095727 0)scale(0.996264)"/>
     <use xlink:href="#CMR17-69" transform="translate(213.991097 0)scale(0.996264)"/>
     <use xlink:href="#CMR17-74" transform="translate(238.862156 0)scale(0.996264)"/>
     <use xlink:href="#CMR17-69" transform="translate(274.142924 0)scale(0.996264)"/>
     <use xlink:href="#CMR17-6f" transform="translate(299.013982 0)scale(0.996264)"/>
     <use xlink:href="#CMR17-6e" transform="translate(344.704459 0)scale(0.996264)"/>
     <use xlink:href="#CMR17-61" transform="translate(395.599829 0)scale(0.996264)"/>
     <use xlink:href="#CMR17-6c" transform="translate(441.290306 0)scale(0.996264)"/>
     <use xlink:href="#CMR17-56" transform="translate(496.237331 0)scale(0.996264)"/>
     <use xlink:href="#CMR17-6f" transform="translate(557.502505 0)scale(0.996264)"/>
     <use xlink:href="#CMR17-6c" transform="translate(603.192982 0)scale(0.996264)"/>
     <use xlink:href="#CMR17-61" transform="translate(628.064041 0)scale(0.996264)"/>
     <use xlink:href="#CMR17-74" transform="translate(673.754518 0)scale(0.996264)"/>
     <use xlink:href="#CMR17-69" transform="translate(709.035286 0)scale(0.996264)"/>
     <use xlink:href="#CMR17-6c" transform="translate(733.906344 0)scale(0.996264)"/>
     <use xlink:href="#CMR17-69" transform="translate(758.777403 0)scale(0.996264)"/>
     <use xlink:href="#CMR17-74" transform="translate(783.648461 0)scale(0.996264)"/>
     <use xlink:href="#CMR17-79" transform="translate(816.326775 0)scale(0.996264)"/>
    </g>
   </g>
  </g>
 </g>
 <defs>
  <clipPath id="p1b791d898a">
   <rect x="24.147854" y="22.0533" width="660.572146" height="114.330784"/>
  </clipPath>
  <clipPath id="pdecc3789c0">
   <rect x="24.147854" y="183.277384" width="660.572146" height="114.330784"/>
  </clipPath>
 </defs>
</svg>
