<?xml version="1.0" encoding="utf-8" standalone="no"?>
<!DOCTYPE svg PUBLIC "-//W3C//DTD SVG 1.1//EN"
  "http://www.w3.org/Graphics/SVG/1.1/DTD/svg11.dtd">
<svg xmlns:xlink="http://www.w3.org/1999/xlink" width="1048.32pt" height="328.32pt" viewBox="0 0 1048.32 328.32" xmlns="http://www.w3.org/2000/svg" version="1.1">
 <metadata>
  <rdf:RDF xmlns:dc="http://purl.org/dc/elements/1.1/" xmlns:cc="http://creativecommons.org/ns#" xmlns:rdf="http://www.w3.org/1999/02/22-rdf-syntax-ns#">
   <cc:Work>
    <dc:type rdf:resource="http://purl.org/dc/dcmitype/StillImage"/>
    <dc:date>2022-05-07T14:03:06.962079</dc:date>
    <dc:format>image/svg+xml</dc:format>
    <dc:creator>
     <cc:Agent>
      <dc:title>Matplotlib v3.5.1, https://matplotlib.org/</dc:title>
     </cc:Agent>
    </dc:creator>
   </cc:Work>
  </rdf:RDF>
 </metadata>
 <defs>
  <style type="text/css">*{stroke-linejoin: round; stroke-linecap: butt}</style>
 </defs>
 <g id="figure_1">
  <g id="patch_1">
   <path d="M 0 328.32 
L 1048.32 328.32 
L 1048.32 0 
L 0 0 
z
" style="fill: #ffffff"/>
  </g>
  <g id="axes_1">
   <g id="patch_2">
    <path d="M 24.147854 136.384084 
L 1044.72 136.384084 
L 1044.72 22.0533 
L 24.147854 22.0533 
z
" style="fill: #e5e5e5"/>
   </g>
   <g id="matplotlib.axis_1">
    <g id="xtick_1">
     <g id="line2d_1">
      <path d="M 41.728544 136.384084 
L 41.728544 22.0533 
" clip-path="url(#p577f8e5dd1)" style="fill: none; stroke: #ffffff; stroke-width: 1.5; stroke-linecap: square"/>
     </g>
     <g id="line2d_2">
      <defs>
       <path id="m9ff1d08120" d="M 0 0 
L 0 9 
" style="stroke: #555555; stroke-width: 1.875"/>
      </defs>
      <g>
       <use xlink:href="#m9ff1d08120" x="41.728544" y="136.384084" style="fill: #555555; stroke: #555555; stroke-width: 1.875"/>
      </g>
     </g>
    </g>
    <g id="xtick_2">
     <g id="line2d_3">
      <path d="M 233.384299 136.384084 
L 233.384299 22.0533 
" clip-path="url(#p577f8e5dd1)" style="fill: none; stroke: #ffffff; stroke-width: 1.5; stroke-linecap: square"/>
     </g>
     <g id="line2d_4">
      <g>
       <use xlink:href="#m9ff1d08120" x="233.384299" y="136.384084" style="fill: #555555; stroke: #555555; stroke-width: 1.875"/>
      </g>
     </g>
    </g>
    <g id="xtick_3">
     <g id="line2d_5">
      <path d="M 425.092534 136.384084 
L 425.092534 22.0533 
" clip-path="url(#p577f8e5dd1)" style="fill: none; stroke: #ffffff; stroke-width: 1.5; stroke-linecap: square"/>
     </g>
     <g id="line2d_6">
      <g>
       <use xlink:href="#m9ff1d08120" x="425.092534" y="136.384084" style="fill: #555555; stroke: #555555; stroke-width: 1.875"/>
      </g>
     </g>
    </g>
    <g id="xtick_4">
     <g id="line2d_7">
      <path d="M 616.74829 136.384084 
L 616.74829 22.0533 
" clip-path="url(#p577f8e5dd1)" style="fill: none; stroke: #ffffff; stroke-width: 1.5; stroke-linecap: square"/>
     </g>
     <g id="line2d_8">
      <g>
       <use xlink:href="#m9ff1d08120" x="616.74829" y="136.384084" style="fill: #555555; stroke: #555555; stroke-width: 1.875"/>
      </g>
     </g>
    </g>
    <g id="xtick_5">
     <g id="line2d_9">
      <path d="M 808.456525 136.384084 
L 808.456525 22.0533 
" clip-path="url(#p577f8e5dd1)" style="fill: none; stroke: #ffffff; stroke-width: 1.5; stroke-linecap: square"/>
     </g>
     <g id="line2d_10">
      <g>
       <use xlink:href="#m9ff1d08120" x="808.456525" y="136.384084" style="fill: #555555; stroke: #555555; stroke-width: 1.875"/>
      </g>
     </g>
    </g>
    <g id="xtick_6">
     <g id="line2d_11">
      <path d="M 1000.11228 136.384084 
L 1000.11228 22.0533 
" clip-path="url(#p577f8e5dd1)" style="fill: none; stroke: #ffffff; stroke-width: 1.5; stroke-linecap: square"/>
     </g>
     <g id="line2d_12">
      <g>
       <use xlink:href="#m9ff1d08120" x="1000.11228" y="136.384084" style="fill: #555555; stroke: #555555; stroke-width: 1.875"/>
      </g>
     </g>
    </g>
    <g id="xtick_7">
     <g id="line2d_13">
      <defs>
       <path id="mcabb2d8c8a" d="M 0 0 
L 0 6 
" style="stroke: #555555; stroke-width: 1.5"/>
      </defs>
      <g>
       <use xlink:href="#mcabb2d8c8a" x="89.655602" y="136.384084" style="fill: #555555; stroke: #555555; stroke-width: 1.5"/>
      </g>
     </g>
    </g>
    <g id="xtick_8">
     <g id="line2d_14">
      <g>
       <use xlink:href="#mcabb2d8c8a" x="137.582661" y="136.384084" style="fill: #555555; stroke: #555555; stroke-width: 1.5"/>
      </g>
     </g>
    </g>
    <g id="xtick_9">
     <g id="line2d_15">
      <g>
       <use xlink:href="#mcabb2d8c8a" x="185.50972" y="136.384084" style="fill: #555555; stroke: #555555; stroke-width: 1.5"/>
      </g>
     </g>
    </g>
    <g id="xtick_10">
     <g id="line2d_16">
      <g>
       <use xlink:href="#mcabb2d8c8a" x="233.436779" y="136.384084" style="fill: #555555; stroke: #555555; stroke-width: 1.5"/>
      </g>
     </g>
    </g>
    <g id="xtick_11">
     <g id="line2d_17">
      <g>
       <use xlink:href="#mcabb2d8c8a" x="281.363837" y="136.384084" style="fill: #555555; stroke: #555555; stroke-width: 1.5"/>
      </g>
     </g>
    </g>
    <g id="xtick_12">
     <g id="line2d_18">
      <g>
       <use xlink:href="#mcabb2d8c8a" x="329.290896" y="136.384084" style="fill: #555555; stroke: #555555; stroke-width: 1.5"/>
      </g>
     </g>
    </g>
    <g id="xtick_13">
     <g id="line2d_19">
      <g>
       <use xlink:href="#mcabb2d8c8a" x="377.217955" y="136.384084" style="fill: #555555; stroke: #555555; stroke-width: 1.5"/>
      </g>
     </g>
    </g>
    <g id="xtick_14">
     <g id="line2d_20">
      <g>
       <use xlink:href="#mcabb2d8c8a" x="425.145014" y="136.384084" style="fill: #555555; stroke: #555555; stroke-width: 1.5"/>
      </g>
     </g>
    </g>
    <g id="xtick_15">
     <g id="line2d_21">
      <g>
       <use xlink:href="#mcabb2d8c8a" x="473.072073" y="136.384084" style="fill: #555555; stroke: #555555; stroke-width: 1.5"/>
      </g>
     </g>
    </g>
    <g id="xtick_16">
     <g id="line2d_22">
      <g>
       <use xlink:href="#mcabb2d8c8a" x="520.999131" y="136.384084" style="fill: #555555; stroke: #555555; stroke-width: 1.5"/>
      </g>
     </g>
    </g>
    <g id="xtick_17">
     <g id="line2d_23">
      <g>
       <use xlink:href="#mcabb2d8c8a" x="568.92619" y="136.384084" style="fill: #555555; stroke: #555555; stroke-width: 1.5"/>
      </g>
     </g>
    </g>
    <g id="xtick_18">
     <g id="line2d_24">
      <g>
       <use xlink:href="#mcabb2d8c8a" x="616.853249" y="136.384084" style="fill: #555555; stroke: #555555; stroke-width: 1.5"/>
      </g>
     </g>
    </g>
    <g id="xtick_19">
     <g id="line2d_25">
      <g>
       <use xlink:href="#mcabb2d8c8a" x="664.780308" y="136.384084" style="fill: #555555; stroke: #555555; stroke-width: 1.5"/>
      </g>
     </g>
    </g>
    <g id="xtick_20">
     <g id="line2d_26">
      <g>
       <use xlink:href="#mcabb2d8c8a" x="712.707367" y="136.384084" style="fill: #555555; stroke: #555555; stroke-width: 1.5"/>
      </g>
     </g>
    </g>
    <g id="xtick_21">
     <g id="line2d_27">
      <g>
       <use xlink:href="#mcabb2d8c8a" x="760.634425" y="136.384084" style="fill: #555555; stroke: #555555; stroke-width: 1.5"/>
      </g>
     </g>
    </g>
    <g id="xtick_22">
     <g id="line2d_28">
      <g>
       <use xlink:href="#mcabb2d8c8a" x="808.561484" y="136.384084" style="fill: #555555; stroke: #555555; stroke-width: 1.5"/>
      </g>
     </g>
    </g>
    <g id="xtick_23">
     <g id="line2d_29">
      <g>
       <use xlink:href="#mcabb2d8c8a" x="856.488543" y="136.384084" style="fill: #555555; stroke: #555555; stroke-width: 1.5"/>
      </g>
     </g>
    </g>
    <g id="xtick_24">
     <g id="line2d_30">
      <g>
       <use xlink:href="#mcabb2d8c8a" x="904.415602" y="136.384084" style="fill: #555555; stroke: #555555; stroke-width: 1.5"/>
      </g>
     </g>
    </g>
    <g id="xtick_25">
     <g id="line2d_31">
      <g>
       <use xlink:href="#mcabb2d8c8a" x="952.342661" y="136.384084" style="fill: #555555; stroke: #555555; stroke-width: 1.5"/>
      </g>
     </g>
    </g>
    <g id="xtick_26">
     <g id="line2d_32">
      <g>
       <use xlink:href="#mcabb2d8c8a" x="1000.269719" y="136.384084" style="fill: #555555; stroke: #555555; stroke-width: 1.5"/>
      </g>
     </g>
    </g>
   </g>
   <g id="matplotlib.axis_2">
    <g id="ytick_1">
     <g id="line2d_33">
      <path d="M 24.147854 84.977707 
L 1044.72 84.977707 
" clip-path="url(#p577f8e5dd1)" style="fill: none; stroke: #ffffff; stroke-width: 1.5; stroke-linecap: square"/>
     </g>
     <g id="line2d_34">
      <defs>
       <path id="m79dc9937bf" d="M 0 0 
L -9 0 
" style="stroke: #555555; stroke-width: 1.875"/>
      </defs>
      <g>
       <use xlink:href="#m79dc9937bf" x="24.147854" y="84.977707" style="fill: #555555; stroke: #555555; stroke-width: 1.875"/>
      </g>
     </g>
     <g id="text_1">
      <!-- $\mathdefault{0}$ -->
      <g style="fill: #555555" transform="translate(3.6 90.685459)scale(0.165 -0.165)">
       <defs>
        <path id="CMR17-30" d="M 2688 2025 
C 2688 2416 2682 3080 2413 3591 
C 2176 4039 1798 4198 1466 4198 
C 1158 4198 768 4058 525 3597 
C 269 3118 243 2524 243 2025 
C 243 1661 250 1106 448 619 
C 723 -39 1216 -128 1466 -128 
C 1760 -128 2208 -7 2470 600 
C 2662 1042 2688 1559 2688 2025 
z
M 1466 -26 
C 1056 -26 813 325 723 812 
C 653 1188 653 1738 653 2096 
C 653 2588 653 2997 736 3387 
C 858 3929 1216 4096 1466 4096 
C 1728 4096 2067 3923 2189 3400 
C 2272 3036 2278 2607 2278 2096 
C 2278 1680 2278 1169 2202 792 
C 2067 95 1690 -26 1466 -26 
z
" transform="scale(0.015625)"/>
       </defs>
       <use xlink:href="#CMR17-30" transform="scale(0.996264)"/>
      </g>
     </g>
    </g>
    <g id="ytick_2">
     <g id="line2d_35">
      <path d="M 24.147854 22.994029 
L 1044.72 22.994029 
" clip-path="url(#p577f8e5dd1)" style="fill: none; stroke: #ffffff; stroke-width: 1.5; stroke-linecap: square"/>
     </g>
     <g id="line2d_36">
      <g>
       <use xlink:href="#m79dc9937bf" x="24.147854" y="22.994029" style="fill: #555555; stroke: #555555; stroke-width: 1.875"/>
      </g>
     </g>
     <g id="text_2">
      <!-- $\mathdefault{5}$ -->
      <g style="fill: #555555" transform="translate(3.6 28.701781)scale(0.165 -0.165)">
       <defs>
        <path id="CMR17-35" d="M 730 3692 
C 794 3666 1056 3584 1325 3584 
C 1920 3584 2246 3911 2432 4100 
C 2432 4157 2432 4192 2394 4192 
C 2387 4192 2374 4192 2323 4163 
C 2099 4058 1837 3973 1517 3973 
C 1325 3973 1037 3999 723 4139 
C 653 4171 640 4171 634 4171 
C 602 4171 595 4164 595 4037 
L 595 2203 
C 595 2089 595 2057 659 2057 
C 691 2057 704 2070 736 2114 
C 941 2401 1222 2522 1542 2522 
C 1766 2522 2246 2382 2246 1289 
C 2246 1085 2246 715 2054 421 
C 1894 159 1645 25 1370 25 
C 947 25 518 320 403 814 
C 429 807 480 795 506 795 
C 589 795 749 840 749 1038 
C 749 1210 627 1280 506 1280 
C 358 1280 262 1190 262 1011 
C 262 454 704 -128 1382 -128 
C 2042 -128 2669 440 2669 1264 
C 2669 2030 2170 2624 1549 2624 
C 1222 2624 947 2503 730 2274 
L 730 3692 
z
" transform="scale(0.015625)"/>
       </defs>
       <use xlink:href="#CMR17-35" transform="scale(0.996264)"/>
      </g>
     </g>
    </g>
    <g id="ytick_3">
     <g id="line2d_37">
      <defs>
       <path id="m9e030007ce" d="M 0 0 
L -6 0 
" style="stroke: #555555; stroke-width: 1.5"/>
      </defs>
      <g>
       <use xlink:href="#m9e030007ce" x="24.147854" y="134.564649" style="fill: #555555; stroke: #555555; stroke-width: 1.5"/>
      </g>
     </g>
    </g>
    <g id="ytick_4">
     <g id="line2d_38">
      <g>
       <use xlink:href="#m9e030007ce" x="24.147854" y="122.167913" style="fill: #555555; stroke: #555555; stroke-width: 1.5"/>
      </g>
     </g>
    </g>
    <g id="ytick_5">
     <g id="line2d_39">
      <g>
       <use xlink:href="#m9e030007ce" x="24.147854" y="109.771178" style="fill: #555555; stroke: #555555; stroke-width: 1.5"/>
      </g>
     </g>
    </g>
    <g id="ytick_6">
     <g id="line2d_40">
      <g>
       <use xlink:href="#m9e030007ce" x="24.147854" y="97.374442" style="fill: #555555; stroke: #555555; stroke-width: 1.5"/>
      </g>
     </g>
    </g>
    <g id="ytick_7">
     <g id="line2d_41">
      <g>
       <use xlink:href="#m9e030007ce" x="24.147854" y="72.580971" style="fill: #555555; stroke: #555555; stroke-width: 1.5"/>
      </g>
     </g>
    </g>
    <g id="ytick_8">
     <g id="line2d_42">
      <g>
       <use xlink:href="#m9e030007ce" x="24.147854" y="60.184235" style="fill: #555555; stroke: #555555; stroke-width: 1.5"/>
      </g>
     </g>
    </g>
    <g id="ytick_9">
     <g id="line2d_43">
      <g>
       <use xlink:href="#m9e030007ce" x="24.147854" y="47.7875" style="fill: #555555; stroke: #555555; stroke-width: 1.5"/>
      </g>
     </g>
    </g>
    <g id="ytick_10">
     <g id="line2d_44">
      <g>
       <use xlink:href="#m9e030007ce" x="24.147854" y="35.390764" style="fill: #555555; stroke: #555555; stroke-width: 1.5"/>
      </g>
     </g>
    </g>
   </g>
   <g id="line2d_45">
    <path d="M 24.147854 86.498463 
L 25.617285 87.688369 
L 27.244155 90.491845 
L 28.818545 85.639795 
L 30.445414 86.927231 
L 32.019805 83.736911 
L 33.646674 85.863516 
L 35.273544 83.862604 
L 36.847934 85.211205 
L 38.474804 75.09018 
L 40.049194 93.265467 
L 41.676064 76.833375 
L 43.302934 81.535059 
L 44.772364 78.441524 
L 46.399234 86.597037 
L 47.973624 75.28134 
L 49.600494 81.839217 
L 51.174884 62.21019 
L 52.801754 92.988355 
L 54.428624 89.744267 
L 56.003014 78.694614 
L 57.629884 65.773164 
L 59.204274 92.02445 
L 60.831143 87.313792 
L 62.458013 76.50849 
L 63.927444 85.940351 
L 65.554314 91.455993 
L 67.128704 90.707961 
L 68.755574 70.567652 
L 71.956834 80.089591 
L 73.583703 98.559158 
L 75.158093 89.809272 
L 76.784963 74.836109 
L 78.359353 95.550266 
L 79.986223 81.131796 
L 81.613093 86.85831 
L 83.135003 68.298069 
L 84.761873 78.578805 
L 86.336263 81.192149 
L 87.963133 85.052013 
L 89.537523 87.223618 
L 91.164393 94.230209 
L 94.365653 77.218635 
L 95.992522 79.545357 
L 97.566913 65.060119 
L 99.193782 55.436593 
L 100.820652 59.285639 
L 102.290083 51.941032 
L 103.916953 98.708891 
L 105.491343 60.031885 
L 107.118213 50.741347 
L 108.692603 87.996578 
L 110.319472 89.484284 
L 111.946342 104.218904 
L 113.520732 90.514848 
L 115.147602 96.78447 
L 116.721992 77.880058 
L 118.348862 87.335993 
L 119.975732 77.318069 
L 121.445163 87.728548 
L 123.072032 86.606313 
L 124.646422 97.886641 
L 126.273292 85.268205 
L 127.847682 80.398656 
L 129.474552 27.250154 
L 131.101422 96.976144 
L 132.675812 74.213205 
L 134.302682 89.418148 
L 135.877072 88.3344 
L 137.503942 92.427974 
L 139.130811 98.715729 
L 140.600242 99.496339 
L 142.227112 70.218468 
L 143.801502 95.192938 
L 147.002762 85.011451 
L 148.629632 71.176426 
L 150.256501 87.560356 
L 151.830892 85.022857 
L 153.457761 100.113558 
L 155.032151 88.804924 
L 156.659021 92.758603 
L 158.285891 82.281161 
L 159.807801 80.0892 
L 161.434671 90.223508 
L 163.009061 79.874929 
L 164.635931 53.745525 
L 166.210321 66.427686 
L 167.837191 96.671486 
L 169.464061 73.647159 
L 171.038451 92.413107 
L 172.665321 75.477496 
L 174.239711 86.855804 
L 175.86658 77.792586 
L 177.49345 82.489076 
L 178.962881 72.4713 
L 180.589751 62.963539 
L 182.164141 71.796121 
L 183.791011 88.64018 
L 185.365401 120.915277 
L 186.992271 113.494382 
L 188.61914 92.569468 
L 190.19353 82.56499 
L 193.39479 80.307088 
L 195.02166 82.283947 
L 196.64853 92.826972 
L 198.117961 80.062085 
L 199.74483 63.627193 
L 201.319221 82.395022 
L 202.94609 79.776361 
L 204.52048 97.171507 
L 206.14735 96.49702 
L 207.77422 81.228863 
L 209.34861 83.538415 
L 210.97548 69.305005 
L 212.54987 94.004735 
L 214.17674 83.003868 
L 215.803609 80.65505 
L 217.27304 70.488515 
L 220.4743 96.048389 
L 222.10117 83.364127 
L 223.67556 83.348475 
L 225.30243 95.23877 
L 226.9293 83.318661 
L 228.50369 88.981523 
L 230.130559 103.965756 
L 231.70495 79.28761 
L 233.331819 93.127093 
L 234.958689 80.854245 
L 236.4806 93.307018 
L 238.107469 114.4167 
L 239.681859 76.604032 
L 241.308729 81.536627 
L 242.883119 68.279835 
L 244.509989 58.337072 
L 246.136859 79.628879 
L 247.711249 85.639176 
L 249.338119 64.005924 
L 250.912509 82.838392 
L 252.539379 107.872691 
L 254.166248 100.64543 
L 255.635679 79.93063 
L 257.262549 80.341547 
L 258.836939 82.792165 
L 260.463809 92.129002 
L 262.038199 101.909326 
L 263.665069 75.729593 
L 265.291938 101.50188 
L 266.866329 90.581361 
L 268.493198 80.421852 
L 270.067588 91.112466 
L 271.694458 92.414254 
L 273.321328 74.987517 
L 274.790759 93.902654 
L 276.417629 82.097905 
L 277.992019 77.691408 
L 279.618888 95.085025 
L 281.193279 93.091122 
L 282.820148 90.703752 
L 284.447018 103.801603 
L 286.021408 94.945994 
L 287.648278 81.451162 
L 289.222668 73.430609 
L 290.849538 86.286432 
L 292.476408 71.935698 
L 293.945838 98.319081 
L 295.572708 61.501335 
L 298.773968 99.748069 
L 300.348358 83.97157 
L 301.975228 56.661781 
L 303.602098 47.415864 
L 305.176488 89.850654 
L 306.803358 90.067681 
L 308.377748 89.497424 
L 310.004617 80.265236 
L 311.631487 102.388531 
L 313.153398 80.028034 
L 314.780267 80.560969 
L 316.354658 86.967136 
L 317.981527 72.080167 
L 319.555917 104.334226 
L 321.182787 114.323306 
L 322.809657 81.245113 
L 324.384047 93.520775 
L 326.010917 77.927052 
L 327.585307 89.377172 
L 329.212177 91.536846 
L 330.839047 80.585933 
L 332.308477 93.896597 
L 333.935347 75.302252 
L 335.509737 88.93869 
L 337.136607 93.697444 
L 338.710997 88.213867 
L 340.337867 99.785614 
L 341.964737 89.07379 
L 343.539127 85.33262 
L 345.165996 80.09242 
L 346.740387 97.663091 
L 348.367256 67.158274 
L 349.994126 88.305735 
L 351.463557 87.054578 
L 353.090427 80.107213 
L 354.664817 81.876198 
L 356.291687 97.338613 
L 357.866077 95.953823 
L 359.492946 85.855458 
L 361.119816 97.797968 
L 362.694206 82.266554 
L 364.321076 78.56575 
L 365.895466 83.522135 
L 367.522336 91.023794 
L 369.149206 81.986301 
L 370.618637 96.151897 
L 372.245506 77.674743 
L 373.819896 63.281998 
L 375.446766 80.146564 
L 377.021156 89.251825 
L 380.274896 96.384003 
L 381.849286 72.125659 
L 383.476156 81.948941 
L 385.050546 55.84061 
L 386.677416 82.937304 
L 388.304285 86.681412 
L 389.826196 74.320102 
L 391.453066 81.301363 
L 393.027456 70.568387 
L 394.654325 55.549295 
L 396.228716 50.797932 
L 397.855585 111.360632 
L 399.482455 76.098821 
L 401.056845 90.779274 
L 402.683715 88.431925 
L 404.258105 88.42746 
L 405.884975 77.32594 
L 407.511845 92.204243 
L 408.981275 85.537061 
L 410.608145 91.812957 
L 412.182535 87.52136 
L 413.809405 88.732055 
L 415.383795 85.451967 
L 417.010665 121.998042 
L 418.637535 86.948772 
L 420.211925 90.111192 
L 421.838795 84.922108 
L 423.413185 81.498422 
L 425.040055 86.438501 
L 426.666924 91.787516 
L 428.136355 79.314466 
L 429.763225 79.119459 
L 431.337615 66.956047 
L 432.964485 97.84941 
L 434.538875 78.521339 
L 436.165745 95.81839 
L 437.792614 80.991646 
L 439.367004 83.200759 
L 440.993874 90.067161 
L 442.568264 92.327229 
L 444.195134 93.338451 
L 445.822004 87.824138 
L 447.291435 76.779731 
L 448.918304 90.654815 
L 450.492695 79.77505 
L 452.119564 88.154076 
L 453.693954 113.799873 
L 455.320824 62.485244 
L 456.947694 85.490203 
L 458.522084 85.832605 
L 460.148954 93.402708 
L 461.723344 88.623014 
L 463.350214 85.685424 
L 464.977084 78.828183 
L 466.498994 78.796876 
L 468.125864 85.216533 
L 469.700254 89.941461 
L 471.327124 69.011067 
L 472.901514 89.464308 
L 474.528383 108.106556 
L 476.155253 90.617896 
L 477.729643 86.399025 
L 479.356513 80.507607 
L 480.930903 80.220356 
L 482.557773 81.200786 
L 484.184643 85.196258 
L 485.654074 82.908437 
L 487.280943 81.152227 
L 488.855333 84.375392 
L 490.482203 76.35769 
L 492.056593 63.113171 
L 493.683463 73.548355 
L 495.310333 94.194716 
L 496.884723 98.223538 
L 498.511593 86.349609 
L 500.085983 68.466102 
L 501.712853 72.43349 
L 503.339722 93.171996 
L 504.809153 86.933154 
L 506.436023 85.781078 
L 508.010413 87.503144 
L 509.637283 76.012928 
L 511.211673 103.749175 
L 512.838543 115.194872 
L 514.465412 86.170718 
L 516.039803 98.42499 
L 517.666672 80.221014 
L 519.241062 81.330402 
L 520.867932 86.970731 
L 522.494802 90.2238 
L 523.964233 79.108485 
L 525.591103 80.724048 
L 527.165493 84.052791 
L 528.792362 84.034207 
L 530.366753 85.254886 
L 531.993622 73.983587 
L 533.620492 78.189644 
L 536.821752 70.17333 
L 538.396142 84.205874 
L 540.023012 64.010442 
L 541.649882 86.762933 
L 543.171792 84.134484 
L 544.798662 82.799105 
L 546.373052 70.671392 
L 547.999922 87.220071 
L 549.574312 90.969594 
L 551.201182 93.424648 
L 552.828051 68.671738 
L 554.402442 98.478028 
L 556.029311 115.160834 
L 557.603701 74.525831 
L 559.230571 91.409046 
L 560.857441 72.550216 
L 562.326872 72.489175 
L 563.953741 71.739944 
L 567.155001 86.868683 
L 568.729391 123.404705 
L 570.356261 90.032657 
L 571.983131 99.156494 
L 573.557521 87.830643 
L 575.184391 69.061139 
L 576.758781 80.810362 
L 578.385651 94.551693 
L 580.012521 85.865268 
L 581.481951 89.307356 
L 583.108821 88.797037 
L 584.683211 87.234585 
L 586.310081 92.343602 
L 587.884471 80.198827 
L 589.511341 110.667743 
L 591.138211 104.11247 
L 592.712601 82.676764 
L 594.339471 70.747922 
L 595.913861 77.475006 
L 597.54073 101.892239 
L 599.1676 95.874698 
L 600.637031 102.65519 
L 602.263901 76.526458 
L 605.465161 93.677921 
L 607.039551 89.963071 
L 608.66642 93.409515 
L 610.29329 63.552829 
L 611.86768 82.197703 
L 613.49455 89.508754 
L 615.06894 87.078762 
L 616.69581 89.074049 
L 618.32268 67.173556 
L 619.84459 85.019884 
L 621.47146 70.451762 
L 623.04585 88.793838 
L 624.67272 93.477277 
L 626.24711 101.602728 
L 627.87398 101.84049 
L 629.50085 62.238724 
L 631.07524 89.261272 
L 632.702109 93.264713 
L 634.2765 71.64417 
L 635.903369 84.79153 
L 637.530239 104.148484 
L 638.99967 86.883979 
L 640.62654 96.383442 
L 642.20093 81.722118 
L 643.827799 79.36173 
L 645.40219 74.309932 
L 647.029059 70.10919 
L 648.655929 96.329042 
L 650.230319 99.444916 
L 651.857189 92.224854 
L 653.431579 81.232349 
L 655.058449 96.363715 
L 656.685319 81.414913 
L 658.154749 80.826992 
L 659.781619 66.525047 
L 661.356009 90.054565 
L 662.982879 66.049824 
L 664.557269 77.349909 
L 666.184139 75.595854 
L 667.811009 88.852853 
L 669.385399 86.22416 
L 671.012269 76.821794 
L 672.586659 80.270366 
L 674.213529 91.209508 
L 675.840398 86.443182 
L 677.309829 80.127986 
L 678.936699 86.060661 
L 680.511089 60.187972 
L 682.137959 86.232849 
L 683.712349 89.024407 
L 685.339219 127.957112 
L 686.966088 67.18787 
L 688.540478 66.736768 
L 690.167348 65.280326 
L 691.741738 90.9505 
L 693.368608 79.655337 
L 694.995478 81.067743 
L 696.517388 66.375491 
L 698.144258 77.896145 
L 699.718648 82.315902 
L 701.345518 118.170682 
L 702.919908 86.390203 
L 704.546778 122.226155 
L 706.173648 79.402795 
L 707.748038 98.934751 
L 709.374908 84.375026 
L 710.949298 84.776408 
L 712.576167 82.946433 
L 714.203037 91.796575 
L 715.672468 63.717152 
L 717.299338 84.120731 
L 718.873728 85.695506 
L 720.500598 74.875396 
L 722.074988 90.011457 
L 723.701858 81.008434 
L 725.328727 104.006354 
L 726.903117 90.555229 
L 728.529987 85.179679 
L 730.104377 89.742791 
L 731.731247 69.833295 
L 733.358117 89.907908 
L 734.827548 86.257065 
L 736.454417 91.855021 
L 738.028807 76.315548 
L 739.655677 91.973578 
L 741.230067 78.256047 
L 742.856937 91.161691 
L 744.483807 98.314379 
L 746.058197 87.741198 
L 747.685067 47.83068 
L 749.259457 75.28078 
L 750.886327 83.298379 
L 752.513196 79.337128 
L 753.982627 69.620338 
L 755.609497 90.574399 
L 757.183887 90.565407 
L 758.810757 68.716396 
L 760.385147 74.840545 
L 762.012017 88.617189 
L 763.638887 76.246391 
L 765.213277 61.066191 
L 766.840146 80.204085 
L 768.414536 75.668568 
L 770.041406 64.418092 
L 771.668276 77.274743 
L 773.190186 54.536721 
L 774.817056 115.09293 
L 776.391446 77.132596 
L 778.018316 81.535301 
L 779.592706 68.656826 
L 781.219576 98.637937 
L 782.846446 90.105677 
L 784.420836 110.328191 
L 786.047706 94.908319 
L 787.622096 89.891527 
L 789.248966 75.289404 
L 790.875835 85.047348 
L 792.345266 98.223817 
L 793.972136 75.564446 
L 795.546526 73.022015 
L 797.173396 72.098524 
L 798.747786 89.581612 
L 800.374656 94.328519 
L 802.001525 92.751224 
L 803.575916 96.398898 
L 805.202785 77.895114 
L 806.777175 72.952402 
L 808.404045 87.285363 
L 810.030915 107.671434 
L 811.500346 78.682272 
L 813.127215 88.104551 
L 814.701606 76.03828 
L 816.328475 95.591915 
L 817.902865 85.951154 
L 819.529735 69.212263 
L 821.156605 87.164457 
L 822.730995 68.119641 
L 824.357865 66.514815 
L 825.932255 84.199699 
L 827.559125 64.931899 
L 829.185995 84.059641 
L 830.655425 91.220854 
L 832.282295 79.464719 
L 833.856685 87.590354 
L 835.483555 88.009503 
L 837.057945 97.56868 
L 838.684815 77.716897 
L 840.311685 68.937815 
L 841.886075 128.06952 
L 843.512945 81.706186 
L 845.087335 94.448646 
L 846.714204 76.76918 
L 848.341074 86.101983 
L 849.862985 70.653133 
L 851.489854 76.077141 
L 853.064244 74.431734 
L 854.691114 103.727549 
L 856.265504 70.411861 
L 857.892374 69.475301 
L 859.519244 78.521621 
L 861.093634 98.415438 
L 862.720504 89.893594 
L 864.294894 96.272634 
L 865.921764 88.221461 
L 867.548633 78.830416 
L 869.018064 86.793378 
L 870.644934 92.30676 
L 872.219324 84.300818 
L 873.846194 71.176258 
L 877.047454 114.09826 
L 878.674324 73.910682 
L 880.248714 95.892345 
L 881.875583 87.074955 
L 883.449974 76.277178 
L 885.076843 90.924947 
L 886.703713 87.477089 
L 888.173144 65.162382 
L 889.800014 79.09236 
L 891.374404 78.648181 
L 893.001274 88.556662 
L 894.575664 108.348061 
L 896.202533 116.940547 
L 897.829403 95.337606 
L 899.403793 101.600624 
L 901.030663 68.645274 
L 902.605053 88.819295 
L 904.231923 84.49319 
L 905.858793 93.757708 
L 907.328223 75.189364 
L 908.955093 93.882203 
L 910.529483 84.81447 
L 912.156353 92.875189 
L 913.730743 64.540267 
L 915.357613 99.404167 
L 916.984483 96.423812 
L 918.558873 84.898079 
L 920.185743 86.57933 
L 921.760133 86.266647 
L 923.387003 88.837843 
L 925.013872 81.495798 
L 926.535783 91.316946 
L 928.162653 72.049515 
L 929.737043 58.377763 
L 931.363912 77.114433 
L 932.938303 70.044063 
L 934.565172 109.111729 
L 937.766432 84.167196 
L 939.393302 76.476554 
L 940.967692 81.781319 
L 942.594562 90.53883 
L 944.221432 81.322493 
L 945.690862 83.650301 
L 947.317732 104.753657 
L 948.892122 83.803645 
L 950.518992 93.788525 
L 952.093382 78.669519 
L 953.720252 73.591386 
L 955.347122 97.836258 
L 956.921512 79.967532 
L 958.548382 82.206138 
L 960.122772 84.744991 
L 961.749641 92.322296 
L 963.376511 76.040671 
L 964.845942 70.955258 
L 966.472812 87.549112 
L 968.047202 85.169758 
L 969.674072 92.936745 
L 971.248462 131.18723 
L 972.875332 77.690123 
L 974.502201 97.325957 
L 976.076591 84.571297 
L 977.703461 84.617825 
L 979.277851 75.609616 
L 980.904721 85.898431 
L 982.531591 80.218246 
L 984.001022 87.304824 
L 985.627891 91.67025 
L 987.202281 94.73268 
L 988.829151 78.120067 
L 990.403541 78.279415 
L 992.030411 95.919724 
L 993.657281 85.962302 
L 995.231671 73.699575 
L 996.858541 79.001088 
L 998.432931 101.150274 
L 1000.059801 65.208689 
L 1001.68667 104.036502 
L 1003.208581 81.523433 
L 1004.835451 86.535029 
L 1006.409841 93.330856 
L 1008.036711 89.004438 
L 1009.611101 74.85758 
L 1011.23797 82.375232 
L 1012.86484 69.007062 
L 1014.43923 69.228152 
L 1016.0661 78.787754 
L 1017.64049 63.100463 
L 1019.26736 63.91027 
L 1020.89423 78.438241 
L 1022.363661 81.160778 
L 1023.99053 81.238226 
L 1025.56492 71.576875 
L 1027.19179 86.788949 
L 1028.76618 98.864246 
L 1030.39305 94.842425 
L 1032.01992 96.552465 
L 1033.59431 91.342231 
L 1035.22118 87.00611 
L 1036.79557 90.879218 
L 1038.42244 63.408837 
L 1040.049309 63.986663 
L 1041.51874 69.389419 
L 1043.14561 87.301387 
L 1044.72 77.881814 
L 1044.72 77.881814 
" clip-path="url(#p577f8e5dd1)" style="fill: none; stroke: #4d3c2f; stroke-width: 2.25; stroke-linecap: square"/>
   </g>
   <g id="patch_3">
    <path d="M 24.147854 136.384084 
L 24.147854 22.0533 
" style="fill: none; stroke: #ffffff; stroke-width: 1.875; stroke-linejoin: miter; stroke-linecap: square"/>
   </g>
   <g id="patch_4">
    <path d="M 24.147854 136.384084 
L 1044.72 136.384084 
" style="fill: none; stroke: #ffffff; stroke-width: 1.875; stroke-linejoin: miter; stroke-linecap: square"/>
   </g>
   <g id="text_3">
    <!-- Standardized Residuals -->
    <g transform="translate(450.784348 16.0533)scale(0.18 -0.18)">
     <defs>
      <path id="CMR17-53" d="M 2803 4290 
C 2803 4404 2797 4411 2758 4411 
C 2720 4411 2707 4385 2682 4328 
L 2490 3907 
C 2246 4257 1875 4416 1472 4416 
C 819 4416 294 3901 294 3253 
C 294 3056 339 2776 557 2510 
C 794 2218 1018 2167 1530 2033 
C 1722 1982 2042 1899 2106 1874 
C 2470 1722 2662 1341 2662 985 
C 2662 527 2336 38 1779 38 
C 1094 38 454 419 410 1311 
C 403 1413 397 1419 352 1419 
C 301 1419 294 1413 294 1285 
L 294 -1 
C 294 -115 301 -122 339 -122 
C 384 -122 397 -90 486 108 
C 493 127 493 140 614 381 
C 934 -39 1472 -128 1779 -128 
C 2477 -128 2970 451 2970 1124 
C 2970 1454 2848 1708 2778 1823 
C 2509 2230 2221 2306 1914 2382 
C 1869 2402 1856 2402 1498 2490 
C 1152 2579 1005 2624 845 2796 
C 666 2992 602 3196 602 3399 
C 602 3812 934 4263 1478 4263 
C 2157 4263 2579 3786 2675 2993 
C 2694 2878 2701 2872 2746 2872 
C 2803 2872 2803 2891 2803 2999 
L 2803 4290 
z
" transform="scale(0.015625)"/>
      <path id="CMR17-74" d="M 966 2560 
L 1862 2560 
L 1862 2725 
L 966 2725 
L 966 3904 
L 851 3904 
C 838 3245 614 2668 70 2668 
L 70 2560 
L 627 2560 
L 627 771 
C 627 650 627 -64 1370 -64 
C 1747 -64 1965 306 1965 777 
L 1965 1140 
L 1850 1140 
L 1850 783 
C 1850 344 1677 51 1408 51 
C 1222 51 966 178 966 758 
L 966 2560 
z
" transform="scale(0.015625)"/>
      <path id="CMR17-61" d="M 2304 1653 
C 2304 2072 2304 2294 2035 2543 
C 1798 2752 1523 2816 1306 2816 
C 800 2816 435 2407 435 1971 
C 435 1728 627 1728 666 1728 
C 749 1728 896 1778 896 1954 
C 896 2112 774 2181 666 2181 
C 640 2181 608 2174 589 2168 
C 723 2592 1069 2714 1293 2714 
C 1613 2714 1965 2429 1965 1885 
L 1965 1600 
C 1587 1600 1133 1549 774 1357 
C 371 1133 256 813 256 570 
C 256 77 832 -64 1171 -64 
C 1523 -64 1850 139 1990 511 
C 2003 233 2182 -18 2464 -18 
C 2598 -18 2938 70 2938 567 
L 2938 920 
L 2822 920 
L 2822 562 
C 2822 178 2650 128 2566 128 
C 2304 128 2304 458 2304 738 
L 2304 1653 
z
M 1965 870 
C 1965 317 1568 38 1216 38 
C 896 38 646 275 646 570 
C 646 761 730 1100 1101 1305 
C 1408 1478 1760 1504 1965 1504 
L 1965 870 
z
" transform="scale(0.015625)"/>
      <path id="CMR17-6e" d="M 2656 1933 
C 2656 2259 2592 2790 1837 2790 
C 1331 2790 1069 2400 973 2144 
L 966 2144 
L 966 2790 
L 211 2720 
L 211 2554 
C 589 2554 646 2515 646 2208 
L 646 428 
C 646 184 621 153 211 153 
L 211 -13 
C 365 0 646 0 813 0 
C 979 0 1267 0 1421 -13 
L 1421 153 
C 1011 153 986 178 986 428 
L 986 1658 
C 986 2247 1344 2688 1792 2688 
C 2266 2688 2317 2266 2317 1958 
L 2317 428 
C 2317 184 2291 153 1882 153 
L 1882 -13 
C 2035 0 2317 0 2483 0 
C 2650 0 2938 0 3091 -13 
L 3091 153 
C 2682 153 2656 178 2656 428 
L 2656 1933 
z
" transform="scale(0.015625)"/>
      <path id="CMR17-64" d="M 1869 4326 
L 1869 4160 
C 2246 4160 2304 4122 2304 3820 
L 2304 2345 
C 2278 2377 2016 2790 1498 2790 
C 845 2790 211 2208 211 1364 
C 211 525 806 -64 1434 -64 
C 1978 -64 2259 337 2291 380 
L 2291 -63 
L 3066 -63 
L 3066 128 
C 2688 128 2630 166 2630 473 
L 2630 4396 
L 1869 4326 
z
M 2291 755 
C 2291 563 2176 390 2029 262 
C 1811 70 1594 38 1472 38 
C 1286 38 621 134 621 1356 
C 621 2612 1363 2688 1530 2688 
C 1824 2688 2061 2522 2208 2291 
C 2291 2157 2291 2138 2291 2023 
L 2291 755 
z
" transform="scale(0.015625)"/>
      <path id="CMR17-72" d="M 960 1497 
C 960 2112 1222 2688 1702 2688 
C 1747 2688 1792 2682 1837 2662 
C 1837 2662 1696 2617 1696 2452 
C 1696 2298 1818 2234 1914 2234 
C 1990 2234 2131 2279 2131 2458 
C 2131 2663 1926 2790 1709 2790 
C 1222 2790 1011 2317 947 2093 
L 941 2093 
L 941 2790 
L 198 2720 
L 198 2554 
C 576 2554 634 2515 634 2208 
L 634 428 
C 634 184 608 153 198 153 
L 198 -13 
C 352 0 646 0 813 0 
C 998 0 1325 0 1498 -13 
L 1498 153 
C 1037 153 960 153 960 440 
L 960 1497 
z
" transform="scale(0.015625)"/>
      <path id="CMR17-69" d="M 992 3909 
C 992 4049 877 4170 730 4170 
C 589 4170 467 4056 467 3909 
C 467 3769 582 3648 730 3648 
C 870 3648 992 3763 992 3909 
z
M 243 2706 
L 243 2541 
C 602 2541 653 2502 653 2197 
L 653 427 
C 653 184 627 153 218 153 
L 218 -13 
C 371 0 646 0 806 0 
C 960 0 1222 0 1370 -13 
L 1370 153 
C 992 153 979 191 979 420 
L 979 2776 
L 243 2706 
z
" transform="scale(0.015625)"/>
      <path id="CMR17-7a" d="M 2310 2605 
C 2362 2670 2362 2682 2362 2695 
C 2362 2752 2336 2752 2221 2752 
L 275 2752 
L 211 1760 
L 326 1760 
C 371 2381 442 2650 1178 2650 
L 1958 2650 
L 128 96 
C 128 0 134 0 269 0 
L 2291 0 
L 2381 1152 
L 2266 1152 
C 2214 442 2131 115 1350 115 
L 531 115 
L 2310 2605 
z
" transform="scale(0.015625)"/>
      <path id="CMR17-65" d="M 2438 1472 
C 2464 1498 2464 1511 2464 1576 
C 2464 2238 2118 2816 1389 2816 
C 710 2816 173 2169 173 1383 
C 173 551 781 -64 1459 -64 
C 2176 -64 2458 607 2458 740 
C 2458 784 2419 784 2406 784 
C 2362 784 2355 771 2330 696 
C 2189 265 1837 51 1504 51 
C 1229 51 954 203 781 480 
C 582 803 582 1176 582 1472 
L 2438 1472 
z
M 589 1568 
C 634 2505 1126 2714 1382 2714 
C 1818 2714 2112 2297 2118 1568 
L 589 1568 
z
" transform="scale(0.015625)"/>
      <path id="CMR17-52" d="M 2509 2146 
C 3117 2268 3629 2676 3629 3186 
C 3629 3785 2950 4326 2054 4326 
L 333 4326 
L 333 4160 
C 774 4160 845 4160 845 3873 
L 845 415 
C 845 128 774 128 333 128 
L 333 -26 
C 518 -26 851 -26 1050 -26 
C 1248 -26 1581 -26 1766 -26 
L 1766 128 
C 1325 128 1254 128 1254 417 
L 1254 2112 
L 2003 2112 
C 2368 2112 2573 1964 2662 1881 
C 2918 1632 2918 1459 2918 1024 
C 2918 595 2918 377 3110 160 
C 3354 -102 3680 -128 3821 -128 
C 4294 -128 4365 396 4365 503 
C 4365 540 4365 585 4307 585 
C 4256 585 4250 547 4250 522 
C 4218 112 4032 -26 3834 -26 
C 3482 -26 3443 375 3405 764 
C 3386 898 3373 993 3360 1133 
C 3322 1452 3270 1917 2509 2146 
z
M 1984 2214 
L 1254 2214 
L 1254 3913 
C 1254 4129 1267 4160 1523 4160 
L 1990 4160 
C 2522 4160 3142 3977 3142 3190 
C 3142 2372 2464 2214 1984 2214 
z
" transform="scale(0.015625)"/>
      <path id="CMR17-73" d="M 1978 2697 
C 1978 2813 1971 2819 1933 2819 
C 1907 2819 1901 2813 1824 2717 
C 1805 2691 1747 2626 1728 2601 
C 1523 2819 1235 2819 1126 2819 
C 416 2819 160 2447 160 2076 
C 160 1498 813 1365 998 1325 
C 1402 1243 1542 1217 1677 1101 
C 1760 1025 1901 884 1901 654 
C 1901 384 1747 38 1158 38 
C 602 38 403 460 288 1021 
C 269 1110 269 1117 218 1117 
C 166 1117 160 1110 160 983 
L 160 63 
C 160 -51 166 -58 205 -58 
C 237 -58 243 -51 275 0 
C 314 57 410 211 448 276 
C 576 103 800 -64 1158 -64 
C 1792 -64 2131 283 2131 784 
C 2131 1112 1958 1285 1875 1362 
C 1683 1561 1459 1606 1190 1657 
C 838 1735 390 1825 390 2217 
C 390 2383 480 2737 1126 2737 
C 1811 2737 1850 2094 1862 1888 
C 1869 1856 1901 1849 1920 1849 
C 1978 1849 1978 1869 1978 1978 
L 1978 2697 
z
" transform="scale(0.015625)"/>
      <path id="CMR17-75" d="M 1882 2693 
L 1882 2528 
C 2259 2528 2317 2489 2317 2186 
L 2317 1032 
C 2317 500 2029 38 1555 38 
C 1030 38 986 348 986 678 
L 986 2763 
L 211 2693 
L 211 2528 
C 467 2528 640 2528 646 2274 
L 646 1058 
C 646 633 646 361 813 183 
C 896 101 1056 -64 1517 -64 
C 2061 -64 2272 377 2323 506 
L 2330 506 
L 2330 -63 
L 3091 -63 
L 3091 128 
C 2714 128 2656 166 2656 473 
L 2656 2763 
L 1882 2693 
z
" transform="scale(0.015625)"/>
      <path id="CMR17-6c" d="M 979 4396 
L 218 4326 
L 218 4160 
C 595 4160 653 4122 653 3817 
L 653 426 
C 653 184 627 153 218 153 
L 218 -13 
C 371 0 653 0 813 0 
C 979 0 1261 0 1414 -13 
L 1414 153 
C 1005 153 979 178 979 426 
L 979 4396 
z
" transform="scale(0.015625)"/>
     </defs>
     <use xlink:href="#CMR17-53" transform="scale(0.996264)"/>
     <use xlink:href="#CMR17-74" transform="translate(50.89537 0)scale(0.996264)"/>
     <use xlink:href="#CMR17-61" transform="translate(86.176138 0)scale(0.996264)"/>
     <use xlink:href="#CMR17-6e" transform="translate(131.866615 0)scale(0.996264)"/>
     <use xlink:href="#CMR17-64" transform="translate(182.761984 0)scale(0.996264)"/>
     <use xlink:href="#CMR17-61" transform="translate(233.657354 0)scale(0.996264)"/>
     <use xlink:href="#CMR17-72" transform="translate(279.347831 0)scale(0.996264)"/>
     <use xlink:href="#CMR17-64" transform="translate(314.628599 0)scale(0.996264)"/>
     <use xlink:href="#CMR17-69" transform="translate(365.523969 0)scale(0.996264)"/>
     <use xlink:href="#CMR17-7a" transform="translate(390.395027 0)scale(0.996264)"/>
     <use xlink:href="#CMR17-65" transform="translate(430.880688 0)scale(0.996264)"/>
     <use xlink:href="#CMR17-64" transform="translate(471.366348 0)scale(0.996264)"/>
     <use xlink:href="#CMR17-52" transform="translate(552.337684 0)scale(0.996264)"/>
     <use xlink:href="#CMR17-65" transform="translate(620.128786 0)scale(0.996264)"/>
     <use xlink:href="#CMR17-73" transform="translate(660.614447 0)scale(0.996264)"/>
     <use xlink:href="#CMR17-69" transform="translate(696.415785 0)scale(0.996264)"/>
     <use xlink:href="#CMR17-64" transform="translate(721.286843 0)scale(0.996264)"/>
     <use xlink:href="#CMR17-75" transform="translate(772.182213 0)scale(0.996264)"/>
     <use xlink:href="#CMR17-61" transform="translate(823.077583 0)scale(0.996264)"/>
     <use xlink:href="#CMR17-6c" transform="translate(868.76806 0)scale(0.996264)"/>
     <use xlink:href="#CMR17-73" transform="translate(893.639118 0)scale(0.996264)"/>
    </g>
   </g>
  </g>
  <g id="axes_2">
   <g id="patch_5">
    <path d="M 24.147854 297.608168 
L 1044.72 297.608168 
L 1044.72 183.277384 
L 24.147854 183.277384 
z
" style="fill: #e5e5e5"/>
   </g>
   <g id="matplotlib.axis_3">
    <g id="xtick_27">
     <g id="line2d_46">
      <path d="M 41.728544 297.608168 
L 41.728544 183.277384 
" clip-path="url(#pd33c40004b)" style="fill: none; stroke: #ffffff; stroke-width: 1.5; stroke-linecap: square"/>
     </g>
     <g id="line2d_47">
      <g>
       <use xlink:href="#m9ff1d08120" x="41.728544" y="297.608168" style="fill: #555555; stroke: #555555; stroke-width: 1.875"/>
      </g>
     </g>
     <g id="text_4">
      <!-- $\mathdefault{1970}$ -->
      <g style="fill: #555555" transform="translate(25.632836 321.523673)scale(0.165 -0.165)">
       <defs>
        <path id="CMR17-31" d="M 1702 4058 
C 1702 4192 1696 4192 1606 4192 
C 1357 3916 979 3827 621 3827 
C 602 3827 570 3827 563 3808 
C 557 3795 557 3782 557 3648 
C 755 3648 1088 3686 1344 3839 
L 1344 461 
C 1344 236 1331 160 781 160 
L 589 160 
L 589 0 
C 896 0 1216 0 1523 0 
C 1830 0 2150 0 2458 0 
L 2458 160 
L 2266 160 
C 1715 160 1702 230 1702 458 
L 1702 4058 
z
" transform="scale(0.015625)"/>
        <path id="CMR17-39" d="M 2253 1864 
C 2253 464 1670 31 1190 31 
C 1043 31 685 31 538 294 
C 704 268 826 357 826 518 
C 826 692 685 749 595 749 
C 538 749 365 723 365 506 
C 365 71 742 -128 1203 -128 
C 1939 -128 2688 674 2688 2073 
C 2688 3817 1971 4179 1485 4179 
C 851 4179 243 3628 243 2778 
C 243 1991 762 1408 1414 1408 
C 1952 1408 2189 1903 2253 2112 
L 2253 1864 
z
M 1427 1510 
C 1254 1510 1011 1542 813 1922 
C 678 2169 678 2461 678 2771 
C 678 3146 678 3405 858 3684 
C 947 3817 1114 4032 1485 4032 
C 2240 4032 2240 2885 2240 2632 
C 2240 2182 2035 1510 1427 1510 
z
" transform="scale(0.015625)"/>
        <path id="CMR17-37" d="M 2886 3941 
L 2886 4081 
L 1382 4081 
C 634 4081 621 4165 595 4288 
L 480 4288 
L 294 3094 
L 410 3094 
C 429 3215 474 3540 550 3661 
C 589 3712 1062 3712 1171 3712 
L 2579 3712 
L 1869 2661 
C 1395 1954 1069 999 1069 165 
C 1069 89 1069 -128 1299 -128 
C 1530 -128 1530 89 1530 171 
L 1530 465 
C 1530 1508 1709 2196 2003 2636 
L 2886 3941 
z
" transform="scale(0.015625)"/>
       </defs>
       <use xlink:href="#CMR17-31" transform="scale(0.996264)"/>
       <use xlink:href="#CMR17-39" transform="translate(45.690477 0)scale(0.996264)"/>
       <use xlink:href="#CMR17-37" transform="translate(91.380954 0)scale(0.996264)"/>
       <use xlink:href="#CMR17-30" transform="translate(137.071431 0)scale(0.996264)"/>
      </g>
     </g>
    </g>
    <g id="xtick_28">
     <g id="line2d_48">
      <path d="M 233.384299 297.608168 
L 233.384299 183.277384 
" clip-path="url(#pd33c40004b)" style="fill: none; stroke: #ffffff; stroke-width: 1.5; stroke-linecap: square"/>
     </g>
     <g id="line2d_49">
      <g>
       <use xlink:href="#m9ff1d08120" x="233.384299" y="297.608168" style="fill: #555555; stroke: #555555; stroke-width: 1.875"/>
      </g>
     </g>
     <g id="text_5">
      <!-- $\mathdefault{1980}$ -->
      <g style="fill: #555555" transform="translate(217.288591 321.523673)scale(0.165 -0.165)">
       <defs>
        <path id="CMR17-38" d="M 1741 2264 
C 2144 2467 2554 2773 2554 3263 
C 2554 3841 1990 4179 1472 4179 
C 890 4179 378 3759 378 3180 
C 378 3021 416 2747 666 2505 
C 730 2442 998 2251 1171 2130 
C 883 1983 211 1634 211 934 
C 211 279 838 -128 1459 -128 
C 2144 -128 2720 362 2720 1010 
C 2720 1590 2330 1857 2074 2029 
L 1741 2264 
z
M 902 2822 
C 851 2854 595 3051 595 3351 
C 595 3739 998 4032 1459 4032 
C 1965 4032 2336 3676 2336 3262 
C 2336 2669 1670 2331 1638 2331 
C 1632 2331 1626 2331 1574 2370 
L 902 2822 
z
M 2080 1519 
C 2176 1449 2483 1240 2483 851 
C 2483 381 2010 25 1472 25 
C 890 25 448 438 448 940 
C 448 1443 838 1862 1280 2060 
L 2080 1519 
z
" transform="scale(0.015625)"/>
       </defs>
       <use xlink:href="#CMR17-31" transform="scale(0.996264)"/>
       <use xlink:href="#CMR17-39" transform="translate(45.690477 0)scale(0.996264)"/>
       <use xlink:href="#CMR17-38" transform="translate(91.380954 0)scale(0.996264)"/>
       <use xlink:href="#CMR17-30" transform="translate(137.071431 0)scale(0.996264)"/>
      </g>
     </g>
    </g>
    <g id="xtick_29">
     <g id="line2d_50">
      <path d="M 425.092534 297.608168 
L 425.092534 183.277384 
" clip-path="url(#pd33c40004b)" style="fill: none; stroke: #ffffff; stroke-width: 1.5; stroke-linecap: square"/>
     </g>
     <g id="line2d_51">
      <g>
       <use xlink:href="#m9ff1d08120" x="425.092534" y="297.608168" style="fill: #555555; stroke: #555555; stroke-width: 1.875"/>
      </g>
     </g>
     <g id="text_6">
      <!-- $\mathdefault{1990}$ -->
      <g style="fill: #555555" transform="translate(408.996826 321.523673)scale(0.165 -0.165)">
       <use xlink:href="#CMR17-31" transform="scale(0.996264)"/>
       <use xlink:href="#CMR17-39" transform="translate(45.690477 0)scale(0.996264)"/>
       <use xlink:href="#CMR17-39" transform="translate(91.380954 0)scale(0.996264)"/>
       <use xlink:href="#CMR17-30" transform="translate(137.071431 0)scale(0.996264)"/>
      </g>
     </g>
    </g>
    <g id="xtick_30">
     <g id="line2d_52">
      <path d="M 616.74829 297.608168 
L 616.74829 183.277384 
" clip-path="url(#pd33c40004b)" style="fill: none; stroke: #ffffff; stroke-width: 1.5; stroke-linecap: square"/>
     </g>
     <g id="line2d_53">
      <g>
       <use xlink:href="#m9ff1d08120" x="616.74829" y="297.608168" style="fill: #555555; stroke: #555555; stroke-width: 1.875"/>
      </g>
     </g>
     <g id="text_7">
      <!-- $\mathdefault{2000}$ -->
      <g style="fill: #555555" transform="translate(600.652582 321.523673)scale(0.165 -0.165)">
       <defs>
        <path id="CMR17-32" d="M 2669 989 
L 2554 989 
C 2490 536 2438 459 2413 420 
C 2381 369 1920 369 1830 369 
L 602 369 
C 832 619 1280 1072 1824 1597 
C 2214 1967 2669 2402 2669 3035 
C 2669 3790 2067 4224 1395 4224 
C 691 4224 262 3604 262 3030 
C 262 2780 448 2748 525 2748 
C 589 2748 781 2787 781 3010 
C 781 3207 614 3264 525 3264 
C 486 3264 448 3258 422 3245 
C 544 3790 915 4058 1306 4058 
C 1862 4058 2227 3617 2227 3035 
C 2227 2479 1901 2000 1536 1584 
L 262 146 
L 262 0 
L 2515 0 
L 2669 989 
z
" transform="scale(0.015625)"/>
       </defs>
       <use xlink:href="#CMR17-32" transform="scale(0.996264)"/>
       <use xlink:href="#CMR17-30" transform="translate(45.690477 0)scale(0.996264)"/>
       <use xlink:href="#CMR17-30" transform="translate(91.380954 0)scale(0.996264)"/>
       <use xlink:href="#CMR17-30" transform="translate(137.071431 0)scale(0.996264)"/>
      </g>
     </g>
    </g>
    <g id="xtick_31">
     <g id="line2d_54">
      <path d="M 808.456525 297.608168 
L 808.456525 183.277384 
" clip-path="url(#pd33c40004b)" style="fill: none; stroke: #ffffff; stroke-width: 1.5; stroke-linecap: square"/>
     </g>
     <g id="line2d_55">
      <g>
       <use xlink:href="#m9ff1d08120" x="808.456525" y="297.608168" style="fill: #555555; stroke: #555555; stroke-width: 1.875"/>
      </g>
     </g>
     <g id="text_8">
      <!-- $\mathdefault{2010}$ -->
      <g style="fill: #555555" transform="translate(792.360817 321.523673)scale(0.165 -0.165)">
       <use xlink:href="#CMR17-32" transform="scale(0.996264)"/>
       <use xlink:href="#CMR17-30" transform="translate(45.690477 0)scale(0.996264)"/>
       <use xlink:href="#CMR17-31" transform="translate(91.380954 0)scale(0.996264)"/>
       <use xlink:href="#CMR17-30" transform="translate(137.071431 0)scale(0.996264)"/>
      </g>
     </g>
    </g>
    <g id="xtick_32">
     <g id="line2d_56">
      <path d="M 1000.11228 297.608168 
L 1000.11228 183.277384 
" clip-path="url(#pd33c40004b)" style="fill: none; stroke: #ffffff; stroke-width: 1.5; stroke-linecap: square"/>
     </g>
     <g id="line2d_57">
      <g>
       <use xlink:href="#m9ff1d08120" x="1000.11228" y="297.608168" style="fill: #555555; stroke: #555555; stroke-width: 1.875"/>
      </g>
     </g>
     <g id="text_9">
      <!-- $\mathdefault{2020}$ -->
      <g style="fill: #555555" transform="translate(984.016572 321.523673)scale(0.165 -0.165)">
       <use xlink:href="#CMR17-32" transform="scale(0.996264)"/>
       <use xlink:href="#CMR17-30" transform="translate(45.690477 0)scale(0.996264)"/>
       <use xlink:href="#CMR17-32" transform="translate(91.380954 0)scale(0.996264)"/>
       <use xlink:href="#CMR17-30" transform="translate(137.071431 0)scale(0.996264)"/>
      </g>
     </g>
    </g>
    <g id="xtick_33">
     <g id="line2d_58">
      <g>
       <use xlink:href="#mcabb2d8c8a" x="89.655602" y="297.608168" style="fill: #555555; stroke: #555555; stroke-width: 1.5"/>
      </g>
     </g>
    </g>
    <g id="xtick_34">
     <g id="line2d_59">
      <g>
       <use xlink:href="#mcabb2d8c8a" x="137.582661" y="297.608168" style="fill: #555555; stroke: #555555; stroke-width: 1.5"/>
      </g>
     </g>
    </g>
    <g id="xtick_35">
     <g id="line2d_60">
      <g>
       <use xlink:href="#mcabb2d8c8a" x="185.50972" y="297.608168" style="fill: #555555; stroke: #555555; stroke-width: 1.5"/>
      </g>
     </g>
    </g>
    <g id="xtick_36">
     <g id="line2d_61">
      <g>
       <use xlink:href="#mcabb2d8c8a" x="233.436779" y="297.608168" style="fill: #555555; stroke: #555555; stroke-width: 1.5"/>
      </g>
     </g>
    </g>
    <g id="xtick_37">
     <g id="line2d_62">
      <g>
       <use xlink:href="#mcabb2d8c8a" x="281.363837" y="297.608168" style="fill: #555555; stroke: #555555; stroke-width: 1.5"/>
      </g>
     </g>
    </g>
    <g id="xtick_38">
     <g id="line2d_63">
      <g>
       <use xlink:href="#mcabb2d8c8a" x="329.290896" y="297.608168" style="fill: #555555; stroke: #555555; stroke-width: 1.5"/>
      </g>
     </g>
    </g>
    <g id="xtick_39">
     <g id="line2d_64">
      <g>
       <use xlink:href="#mcabb2d8c8a" x="377.217955" y="297.608168" style="fill: #555555; stroke: #555555; stroke-width: 1.5"/>
      </g>
     </g>
    </g>
    <g id="xtick_40">
     <g id="line2d_65">
      <g>
       <use xlink:href="#mcabb2d8c8a" x="425.145014" y="297.608168" style="fill: #555555; stroke: #555555; stroke-width: 1.5"/>
      </g>
     </g>
    </g>
    <g id="xtick_41">
     <g id="line2d_66">
      <g>
       <use xlink:href="#mcabb2d8c8a" x="473.072073" y="297.608168" style="fill: #555555; stroke: #555555; stroke-width: 1.5"/>
      </g>
     </g>
    </g>
    <g id="xtick_42">
     <g id="line2d_67">
      <g>
       <use xlink:href="#mcabb2d8c8a" x="520.999131" y="297.608168" style="fill: #555555; stroke: #555555; stroke-width: 1.5"/>
      </g>
     </g>
    </g>
    <g id="xtick_43">
     <g id="line2d_68">
      <g>
       <use xlink:href="#mcabb2d8c8a" x="568.92619" y="297.608168" style="fill: #555555; stroke: #555555; stroke-width: 1.5"/>
      </g>
     </g>
    </g>
    <g id="xtick_44">
     <g id="line2d_69">
      <g>
       <use xlink:href="#mcabb2d8c8a" x="616.853249" y="297.608168" style="fill: #555555; stroke: #555555; stroke-width: 1.5"/>
      </g>
     </g>
    </g>
    <g id="xtick_45">
     <g id="line2d_70">
      <g>
       <use xlink:href="#mcabb2d8c8a" x="664.780308" y="297.608168" style="fill: #555555; stroke: #555555; stroke-width: 1.5"/>
      </g>
     </g>
    </g>
    <g id="xtick_46">
     <g id="line2d_71">
      <g>
       <use xlink:href="#mcabb2d8c8a" x="712.707367" y="297.608168" style="fill: #555555; stroke: #555555; stroke-width: 1.5"/>
      </g>
     </g>
    </g>
    <g id="xtick_47">
     <g id="line2d_72">
      <g>
       <use xlink:href="#mcabb2d8c8a" x="760.634425" y="297.608168" style="fill: #555555; stroke: #555555; stroke-width: 1.5"/>
      </g>
     </g>
    </g>
    <g id="xtick_48">
     <g id="line2d_73">
      <g>
       <use xlink:href="#mcabb2d8c8a" x="808.561484" y="297.608168" style="fill: #555555; stroke: #555555; stroke-width: 1.5"/>
      </g>
     </g>
    </g>
    <g id="xtick_49">
     <g id="line2d_74">
      <g>
       <use xlink:href="#mcabb2d8c8a" x="856.488543" y="297.608168" style="fill: #555555; stroke: #555555; stroke-width: 1.5"/>
      </g>
     </g>
    </g>
    <g id="xtick_50">
     <g id="line2d_75">
      <g>
       <use xlink:href="#mcabb2d8c8a" x="904.415602" y="297.608168" style="fill: #555555; stroke: #555555; stroke-width: 1.5"/>
      </g>
     </g>
    </g>
    <g id="xtick_51">
     <g id="line2d_76">
      <g>
       <use xlink:href="#mcabb2d8c8a" x="952.342661" y="297.608168" style="fill: #555555; stroke: #555555; stroke-width: 1.5"/>
      </g>
     </g>
    </g>
    <g id="xtick_52">
     <g id="line2d_77">
      <g>
       <use xlink:href="#mcabb2d8c8a" x="1000.269719" y="297.608168" style="fill: #555555; stroke: #555555; stroke-width: 1.5"/>
      </g>
     </g>
    </g>
   </g>
   <g id="matplotlib.axis_4">
    <g id="ytick_11">
     <g id="line2d_78">
      <path d="M 24.147854 257.368521 
L 1044.72 257.368521 
" clip-path="url(#pd33c40004b)" style="fill: none; stroke: #ffffff; stroke-width: 1.5; stroke-linecap: square"/>
     </g>
     <g id="line2d_79">
      <g>
       <use xlink:href="#m79dc9937bf" x="24.147854" y="257.368521" style="fill: #555555; stroke: #555555; stroke-width: 1.875"/>
      </g>
     </g>
     <g id="text_10">
      <!-- $\mathdefault{1}$ -->
      <g style="fill: #555555" transform="translate(3.6 263.076273)scale(0.165 -0.165)">
       <use xlink:href="#CMR17-31" transform="scale(0.996264)"/>
      </g>
     </g>
    </g>
    <g id="ytick_12">
     <g id="line2d_80">
      <path d="M 24.147854 202.017249 
L 1044.72 202.017249 
" clip-path="url(#pd33c40004b)" style="fill: none; stroke: #ffffff; stroke-width: 1.5; stroke-linecap: square"/>
     </g>
     <g id="line2d_81">
      <g>
       <use xlink:href="#m79dc9937bf" x="24.147854" y="202.017249" style="fill: #555555; stroke: #555555; stroke-width: 1.875"/>
      </g>
     </g>
     <g id="text_11">
      <!-- $\mathdefault{2}$ -->
      <g style="fill: #555555" transform="translate(3.6 207.725001)scale(0.165 -0.165)">
       <use xlink:href="#CMR17-32" transform="scale(0.996264)"/>
      </g>
     </g>
    </g>
    <g id="ytick_13">
     <g id="line2d_82">
      <g>
       <use xlink:href="#m9e030007ce" x="24.147854" y="290.579284" style="fill: #555555; stroke: #555555; stroke-width: 1.5"/>
      </g>
     </g>
    </g>
    <g id="ytick_14">
     <g id="line2d_83">
      <g>
       <use xlink:href="#m9e030007ce" x="24.147854" y="279.50903" style="fill: #555555; stroke: #555555; stroke-width: 1.5"/>
      </g>
     </g>
    </g>
    <g id="ytick_15">
     <g id="line2d_84">
      <g>
       <use xlink:href="#m9e030007ce" x="24.147854" y="268.438775" style="fill: #555555; stroke: #555555; stroke-width: 1.5"/>
      </g>
     </g>
    </g>
    <g id="ytick_16">
     <g id="line2d_85">
      <g>
       <use xlink:href="#m9e030007ce" x="24.147854" y="246.298267" style="fill: #555555; stroke: #555555; stroke-width: 1.5"/>
      </g>
     </g>
    </g>
    <g id="ytick_17">
     <g id="line2d_86">
      <g>
       <use xlink:href="#m9e030007ce" x="24.147854" y="235.228012" style="fill: #555555; stroke: #555555; stroke-width: 1.5"/>
      </g>
     </g>
    </g>
    <g id="ytick_18">
     <g id="line2d_87">
      <g>
       <use xlink:href="#m9e030007ce" x="24.147854" y="224.157758" style="fill: #555555; stroke: #555555; stroke-width: 1.5"/>
      </g>
     </g>
    </g>
    <g id="ytick_19">
     <g id="line2d_88">
      <g>
       <use xlink:href="#m9e030007ce" x="24.147854" y="213.087503" style="fill: #555555; stroke: #555555; stroke-width: 1.5"/>
      </g>
     </g>
    </g>
    <g id="ytick_20">
     <g id="line2d_89">
      <g>
       <use xlink:href="#m9e030007ce" x="24.147854" y="190.946994" style="fill: #555555; stroke: #555555; stroke-width: 1.5"/>
      </g>
     </g>
    </g>
   </g>
   <g id="line2d_90">
    <path d="M 24.147854 286.329593 
L 25.617285 287.626635 
L 27.244155 288.635931 
L 28.818545 289.149122 
L 30.445414 290.003397 
L 33.646674 291.232062 
L 36.847934 292.08835 
L 38.474804 292.411315 
L 40.049194 291.542924 
L 43.302934 290.803875 
L 44.772364 291.215031 
L 46.399234 291.167581 
L 47.973624 291.631622 
L 49.600494 290.905666 
L 51.174884 291.324633 
L 52.801754 286.036578 
L 54.428624 286.395913 
L 56.003014 287.358224 
L 57.629884 287.924858 
L 59.204274 284.001534 
L 60.831143 284.842189 
L 62.458013 286.320691 
L 63.927444 286.52981 
L 65.554314 287.816655 
L 68.755574 288.813609 
L 70.329964 286.92271 
L 71.956834 286.702109 
L 73.583703 287.600925 
L 75.158093 286.071398 
L 76.784963 287.071281 
L 79.986223 286.297711 
L 83.135003 288.50451 
L 84.761873 285.725785 
L 86.336263 286.491805 
L 91.164393 289.567007 
L 92.791263 289.199057 
L 94.365653 290.043425 
L 95.992522 289.946792 
L 97.566913 290.269314 
L 99.193782 286.15504 
L 100.820652 276.025934 
L 102.290083 266.122004 
L 103.916953 245.353737 
L 105.491343 244.367669 
L 107.118213 228.173013 
L 108.692603 188.474238 
L 110.319472 200.846023 
L 111.946342 211.117 
L 113.520732 200.027255 
L 115.147602 209.639623 
L 116.721992 211.543147 
L 118.348862 218.84597 
L 119.975732 228.219959 
L 121.445163 233.742601 
L 124.646422 248.390848 
L 126.273292 248.205796 
L 127.847682 254.539403 
L 129.474552 259.349588 
L 131.101422 197.381883 
L 132.675812 199.284506 
L 134.302682 203.031535 
L 135.877072 213.128804 
L 137.503942 222.761347 
L 139.130811 228.875461 
L 140.600242 227.877743 
L 142.227112 225.816875 
L 143.801502 223.381779 
L 145.428372 226.786604 
L 148.629632 242.098327 
L 150.256501 241.038026 
L 151.830892 247.907161 
L 153.457761 254.279364 
L 155.032151 251.939781 
L 156.659021 257.268027 
L 158.285891 260.424682 
L 159.807801 265.052382 
L 161.434671 268.6295 
L 163.009061 271.708416 
L 164.635931 274.479716 
L 166.210321 259.012381 
L 167.837191 253.434961 
L 169.464061 254.198829 
L 171.038451 255.223457 
L 172.665321 258.733232 
L 174.239711 260.796466 
L 175.86658 265.503517 
L 177.49345 268.221249 
L 178.962881 271.938907 
L 180.589751 271.523162 
L 182.164141 263.998222 
L 183.791011 263.339181 
L 185.365401 267.428826 
L 188.61914 221.395122 
L 190.19353 227.494997 
L 191.8204 235.906612 
L 193.39479 243.045753 
L 196.64853 254.965927 
L 198.117961 258.273276 
L 199.74483 262.573818 
L 201.319221 254.4273 
L 202.94609 259.776722 
L 204.52048 263.821521 
L 206.14735 263.868931 
L 207.77422 264.368574 
L 210.97548 272.140135 
L 212.54987 269.697969 
L 214.17674 271.243208 
L 215.803609 274.641093 
L 217.27304 277.244292 
L 218.89991 275.570597 
L 220.4743 278.427783 
L 222.10117 278.431495 
L 223.67556 280.899041 
L 225.30243 283.015105 
L 226.9293 283.004396 
L 228.50369 284.808944 
L 230.130559 286.113161 
L 231.70495 282.195662 
L 233.331819 283.56841 
L 234.958689 284.171898 
L 236.4806 285.551721 
L 238.107469 285.885295 
L 239.681859 275.741336 
L 241.308729 277.050912 
L 242.883119 279.504569 
L 244.509989 276.571682 
L 246.136859 265.982839 
L 247.711249 269.319953 
L 249.338119 273.058127 
L 250.912509 266.630925 
L 252.539379 270.592116 
L 254.166248 262.123266 
L 255.635679 259.465571 
L 258.836939 267.406396 
L 260.463809 271.265496 
L 262.038199 273.447917 
L 263.665069 270.160444 
L 265.291938 271.567016 
L 266.866329 268.503828 
L 270.067588 274.421644 
L 271.694458 276.604591 
L 273.321328 278.156127 
L 274.790759 278.634379 
L 276.417629 279.480103 
L 277.992019 281.683019 
L 279.618888 282.73427 
L 281.193279 282.801143 
L 282.820148 283.498122 
L 284.447018 284.694835 
L 286.021408 280.782429 
L 287.648278 281.061618 
L 289.222668 282.963264 
L 290.849538 282.478863 
L 292.476408 284.381098 
L 295.572708 281.976993 
L 297.147098 274.940949 
L 298.773968 277.505928 
L 300.348358 275.670515 
L 301.975228 278.55396 
L 303.602098 267.076122 
L 305.176488 241.124027 
L 306.803358 247.207393 
L 308.377748 252.584583 
L 310.004617 257.62258 
L 311.631487 262.05965 
L 313.153398 257.821011 
L 316.354658 266.190158 
L 317.981527 270.224116 
L 319.555917 269.623653 
L 321.182787 264.192235 
L 322.809657 247.226785 
L 324.384047 253.097496 
L 326.010917 256.140864 
L 327.585307 259.766868 
L 329.212177 264.068268 
L 330.839047 267.175812 
L 332.308477 270.648378 
L 333.935347 272.168627 
L 335.509737 273.227258 
L 337.136607 276.076632 
L 338.710997 277.226022 
L 340.337867 279.68682 
L 341.964737 277.817789 
L 345.165996 282.351184 
L 346.740387 283.860654 
L 348.367256 282.868416 
L 349.994126 279.41125 
L 351.463557 281.566374 
L 353.090427 283.553538 
L 356.291687 286.301363 
L 357.866077 285.294296 
L 359.492946 284.848919 
L 361.119816 286.406168 
L 362.694206 285.223668 
L 364.321076 286.611762 
L 365.895466 287.256289 
L 367.522336 288.405823 
L 369.149206 288.865543 
L 370.618637 289.647466 
L 372.245506 288.7608 
L 373.819896 288.933351 
L 375.446766 283.884423 
L 378.648026 286.404998 
L 380.274896 286.782178 
L 381.849286 286.072813 
L 383.476156 284.897121 
L 385.050546 286.304232 
L 386.677416 276.483363 
L 389.826196 281.540004 
L 391.453066 281.499907 
L 393.027456 283.319997 
L 394.654325 281.596735 
L 396.228716 270.137879 
L 397.855585 249.769328 
L 399.482455 232.645907 
L 401.056845 236.838558 
L 402.683715 242.878078 
L 404.258105 249.307109 
L 405.884975 255.033103 
L 408.981275 261.779929 
L 410.608145 266.471973 
L 412.182535 269.238717 
L 413.809405 272.821942 
L 417.010665 278.650145 
L 418.637535 259.479923 
L 420.211925 264.333382 
L 421.838795 267.915378 
L 423.413185 271.846186 
L 426.666924 277.909783 
L 429.763225 281.228016 
L 431.337615 282.686371 
L 432.964485 279.109081 
L 434.538875 278.243691 
L 436.165745 279.909386 
L 437.792614 279.913323 
L 440.993874 283.862972 
L 442.568264 285.131421 
L 444.195134 285.761737 
L 445.822004 286.063133 
L 447.291435 287.309177 
L 448.918304 287.46978 
L 453.693954 289.549031 
L 455.320824 280.844951 
L 456.947694 274.305272 
L 458.522084 277.391335 
L 460.148954 280.044429 
L 461.723344 280.929244 
L 464.977084 284.704221 
L 466.498994 285.656358 
L 468.125864 286.475754 
L 469.700254 287.785236 
L 471.327124 288.510907 
L 472.901514 286.025702 
L 474.528383 287.083777 
L 476.155253 281.055153 
L 477.729643 282.583106 
L 479.356513 284.464085 
L 480.930903 285.750873 
L 487.280943 289.763484 
L 490.482203 290.964687 
L 492.056593 290.563276 
L 493.683463 285.60207 
L 495.310333 284.975939 
L 496.884723 285.12231 
L 498.511593 283.840892 
L 500.085983 285.534633 
L 501.712853 282.813331 
L 503.339722 281.933073 
L 504.809153 282.698565 
L 508.010413 286.138313 
L 509.637283 287.400413 
L 511.211673 287.357094 
L 512.838543 283.611325 
L 514.465412 272.206033 
L 516.039803 275.542525 
L 517.666672 274.484667 
L 520.867932 279.439958 
L 522.494802 281.737483 
L 523.964233 283.259814 
L 525.591103 284.458231 
L 530.366753 288.367005 
L 531.993622 289.361259 
L 533.620492 288.553601 
L 535.194882 288.856704 
L 536.821752 288.197005 
L 538.396142 286.179143 
L 540.023012 287.528018 
L 541.649882 282.705275 
L 543.171792 284.546464 
L 544.798662 286.151934 
L 546.373052 287.438185 
L 547.999922 285.639694 
L 549.574312 287.001924 
L 551.201182 287.672538 
L 552.828051 287.728626 
L 554.402442 285.107794 
L 556.029311 283.723507 
L 557.603701 272.379873 
L 559.230571 273.05127 
L 560.857441 275.293666 
L 563.953741 274.293212 
L 565.528132 273.384698 
L 567.155001 275.732922 
L 568.729391 278.54855 
L 570.356261 258.001396 
L 571.983131 262.283099 
L 573.557521 260.873675 
L 575.184391 265.4198 
L 576.758781 262.638717 
L 578.385651 266.684791 
L 580.012521 268.178562 
L 581.481951 272.053529 
L 584.683211 277.627976 
L 586.310081 280.152716 
L 587.884471 281.351769 
L 589.511341 283.013529 
L 591.138211 274.66135 
L 592.712601 269.841866 
L 594.339471 273.381273 
L 595.913861 271.894345 
L 597.54073 273.887091 
L 599.1676 270.628844 
L 600.637031 271.173875 
L 602.263901 267.224698 
L 603.838291 269.234162 
L 605.465161 272.995068 
L 607.039551 274.417689 
L 608.66642 276.90213 
L 610.29329 278.083741 
L 611.86768 271.926311 
L 613.49455 275.137927 
L 616.69581 280.175267 
L 618.32268 282.111817 
L 619.84459 278.631187 
L 621.47146 281.126032 
L 623.04585 279.387049 
L 624.67272 281.47377 
L 626.24711 282.192845 
L 629.50085 276.329856 
L 631.07524 268.924741 
L 632.702109 272.220961 
L 634.2765 273.879316 
L 635.903369 272.925375 
L 637.530239 276.201829 
L 638.99967 271.480562 
L 640.62654 274.854677 
L 642.20093 274.907847 
L 643.827799 277.668153 
L 645.40219 279.615662 
L 647.029059 279.71092 
L 648.655929 277.809276 
L 650.230319 277.724771 
L 651.857189 276.058935 
L 653.431579 277.727587 
L 655.058449 280.044799 
L 656.685319 279.811536 
L 658.154749 281.879303 
L 659.781619 283.576528 
L 661.356009 279.804151 
L 662.982879 281.608725 
L 664.557269 277.445949 
L 666.184139 278.849855 
L 667.811009 279.508878 
L 671.012269 283.609747 
L 672.586659 284.206884 
L 674.213529 285.492629 
L 675.840398 286.32369 
L 677.309829 287.624327 
L 678.936699 288.391026 
L 680.511089 289.365136 
L 682.137959 282.806108 
L 683.712349 284.661962 
L 685.339219 285.981752 
L 686.966088 266.160078 
L 688.540478 261.821805 
L 690.167348 256.772504 
L 691.741738 249.740995 
L 696.517388 263.544558 
L 698.144258 258.27823 
L 699.718648 261.698934 
L 701.345518 266.181697 
L 702.919908 245.246469 
L 704.546778 251.844975 
L 706.173648 218.062809 
L 707.748038 225.986317 
L 709.374908 224.683866 
L 710.949298 233.712727 
L 712.576167 241.73076 
L 714.203037 248.637882 
L 715.672468 253.046645 
L 717.299338 243.688207 
L 718.873728 250.522554 
L 720.500598 256.565181 
L 722.074988 258.370383 
L 725.328727 266.719466 
L 726.903117 261.31974 
L 728.529987 265.072004 
L 730.104377 269.36246 
L 731.731247 272.489683 
L 733.358117 270.411855 
L 736.454417 276.553041 
L 738.028807 278.284989 
L 739.655677 279.256478 
L 742.856937 281.977747 
L 744.483807 283.269432 
L 746.058197 282.029211 
L 747.685067 283.886228 
L 749.259457 267.330894 
L 750.886327 268.716179 
L 752.513196 272.465841 
L 753.982627 275.006355 
L 755.609497 272.81197 
L 757.183887 275.325868 
L 758.810757 277.555425 
L 760.385147 274.837383 
L 762.012017 275.495003 
L 763.638887 278.118232 
L 765.213277 279.080351 
L 766.840146 271.231826 
L 768.414536 274.141311 
L 770.041406 275.214337 
L 771.668276 269.366638 
L 773.190186 271.516891 
L 774.817056 255.78808 
L 776.391446 234.956081 
L 778.018316 239.822883 
L 779.592706 246.586802 
L 781.219576 242.731566 
L 782.846446 241.825884 
L 784.420836 247.724521 
L 786.047706 231.666312 
L 787.622096 234.95094 
L 789.248966 241.632522 
L 790.875835 244.591832 
L 792.345266 251.352938 
L 793.972136 250.811896 
L 795.546526 253.434798 
L 797.173396 253.984233 
L 798.747786 253.73705 
L 800.374656 258.624041 
L 802.001525 260.785884 
L 803.575916 263.653431 
L 805.202785 264.226492 
L 806.777175 267.105555 
L 808.404045 267.152246 
L 810.030915 271.027168 
L 811.500346 262.814848 
L 813.127215 266.14827 
L 814.701606 270.016395 
L 816.328475 271.577244 
L 817.902865 272.216063 
L 819.529735 275.563364 
L 821.156605 273.117356 
L 822.730995 276.250143 
L 824.357865 273.117114 
L 825.932255 268.687189 
L 827.559125 272.502144 
L 829.185995 266.772898 
L 830.655425 270.824996 
L 833.856685 275.836869 
L 835.483555 278.56367 
L 837.057945 280.873066 
L 838.684815 280.065777 
L 840.311685 281.304419 
L 841.886075 278.776609 
L 843.512945 253.887157 
L 845.087335 259.148333 
L 846.714204 261.202592 
L 848.341074 263.816632 
L 849.862985 268.226446 
L 851.489854 266.70113 
L 853.064244 268.536815 
L 854.691114 269.390634 
L 856.265504 264.454598 
L 857.892374 262.74283 
L 859.519244 260.242047 
L 861.093634 263.760507 
L 862.720504 262.915654 
L 864.294894 266.718255 
L 865.921764 267.234374 
L 867.548633 270.950206 
L 869.018064 273.505034 
L 870.644934 276.623769 
L 872.219324 278.207934 
L 873.846194 280.752778 
L 875.420584 279.380589 
L 877.047454 280.555529 
L 878.674324 269.016125 
L 881.875583 270.147459 
L 883.449974 273.672228 
L 885.076843 275.037348 
L 886.703713 277.20436 
L 888.173144 279.761286 
L 889.800014 274.897674 
L 891.374404 277.097389 
L 893.001274 278.927297 
L 894.575664 281.111752 
L 896.202533 274.005906 
L 897.829403 257.633519 
L 899.403793 259.205414 
L 902.605053 252.075059 
L 905.858793 262.616368 
L 907.328223 264.821931 
L 908.955093 266.323284 
L 910.529483 268.185752 
L 912.156353 272.081246 
L 913.730743 273.906468 
L 915.357613 268.010622 
L 916.984483 266.412589 
L 918.558873 266.849978 
L 920.185743 270.916628 
L 921.760133 274.391498 
L 923.387003 277.432295 
L 926.535783 281.854101 
L 928.162653 283.124878 
L 929.737043 282.066873 
L 931.363912 272.85645 
L 932.938303 274.623227 
L 934.565172 272.693113 
L 936.192042 263.464992 
L 937.766432 264.260356 
L 939.393302 268.633709 
L 940.967692 270.505061 
L 942.594562 273.83 
L 944.221432 276.23829 
L 945.690862 278.763539 
L 947.317732 281.202399 
L 948.892122 276.48894 
L 950.518992 279.252165 
L 952.093382 280.082056 
L 953.720252 281.573166 
L 955.347122 281.243376 
L 956.921512 280.298645 
L 961.749641 285.622286 
L 963.376511 286.193431 
L 964.845942 286.291614 
L 966.472812 284.648067 
L 968.047202 286.136498 
L 969.674072 287.501287 
L 971.248462 287.695094 
L 972.875332 266.715252 
L 974.502201 269.278384 
L 976.076591 269.046962 
L 977.703461 272.827842 
L 979.277851 276.114893 
L 980.904721 277.005912 
L 982.531591 279.709865 
L 985.627891 283.552104 
L 987.202281 284.531757 
L 988.829151 284.55621 
L 992.030411 286.121889 
L 993.657281 285.620173 
L 995.231671 287.05243 
L 996.858541 286.363392 
L 998.432931 287.125907 
L 1000.059801 284.563806 
L 1003.208581 275.781295 
L 1006.409841 280.87406 
L 1008.036711 281.699497 
L 1009.611101 283.440581 
L 1011.23797 283.442739 
L 1012.86484 285.109219 
L 1016.0661 280.273348 
L 1017.64049 281.770806 
L 1020.89423 269.596296 
L 1025.56492 277.817723 
L 1027.19179 276.727177 
L 1028.76618 279.414929 
L 1030.39305 278.032697 
L 1032.01992 278.57103 
L 1033.59431 278.341376 
L 1035.22118 280.020537 
L 1036.79557 282.233195 
L 1038.42244 283.556002 
L 1040.049309 277.972482 
L 1041.51874 272.115846 
L 1043.14561 269.731652 
L 1044.72 273.282128 
L 1044.72 273.282128 
" clip-path="url(#pd33c40004b)" style="fill: none; stroke: #4d3c2f; stroke-width: 2.25; stroke-linecap: square"/>
   </g>
   <g id="patch_6">
    <path d="M 24.147854 297.608168 
L 24.147854 183.277384 
" style="fill: none; stroke: #ffffff; stroke-width: 1.875; stroke-linejoin: miter; stroke-linecap: square"/>
   </g>
   <g id="patch_7">
    <path d="M 24.147854 297.608168 
L 1044.72 297.608168 
" style="fill: none; stroke: #ffffff; stroke-width: 1.875; stroke-linejoin: miter; stroke-linecap: square"/>
   </g>
   <g id="text_12">
    <!-- Conditional Volatility -->
    <g transform="translate(456.618207 177.277384)scale(0.18 -0.18)">
     <defs>
      <path id="CMR17-43" d="M 3974 4289 
C 3974 4403 3968 4410 3930 4410 
C 3904 4410 3898 4403 3853 4327 
L 3571 3792 
C 3258 4187 2874 4416 2381 4416 
C 1286 4416 294 3456 294 2148 
C 294 826 1286 -128 2387 -128 
C 3366 -128 3974 730 3974 1461 
C 3974 1524 3974 1550 3917 1550 
C 3866 1550 3866 1531 3859 1474 
C 3808 585 3168 38 2477 38 
C 1824 38 781 495 781 2147 
C 781 3805 1843 4250 2464 4250 
C 3187 4250 3712 3628 3834 2745 
C 3846 2668 3846 2655 3904 2655 
C 3974 2655 3974 2668 3974 2783 
L 3974 4289 
z
" transform="scale(0.015625)"/>
      <path id="CMR17-6f" d="M 2758 1356 
C 2758 2176 2163 2816 1466 2816 
C 768 2816 173 2176 173 1356 
C 173 551 768 -64 1466 -64 
C 2163 -64 2758 551 2758 1356 
z
M 1466 51 
C 1165 51 909 230 762 480 
C 602 767 582 1126 582 1408 
C 582 1677 595 2010 762 2298 
C 890 2509 1139 2714 1466 2714 
C 1754 2714 1997 2554 2150 2330 
C 2349 2029 2349 1607 2349 1408 
C 2349 1158 2336 775 2163 467 
C 1984 173 1709 51 1466 51 
z
" transform="scale(0.015625)"/>
      <path id="CMR17-56" d="M 3776 3745 
C 3834 3886 3936 4160 4365 4160 
L 4365 4332 
C 4218 4319 4051 4319 3891 4319 
C 3738 4319 3475 4319 3328 4332 
L 3328 4160 
C 3648 4160 3661 3936 3661 3898 
C 3661 3827 3642 3783 3622 3732 
L 2362 446 
L 1043 3886 
C 1024 3931 1011 3963 1011 3994 
C 1011 4160 1267 4160 1402 4160 
L 1402 4319 
C 1197 4319 896 4319 685 4319 
C 518 4319 218 4319 64 4332 
L 64 4160 
C 435 4160 506 4135 582 3931 
L 2106 -26 
C 2138 -115 2144 -128 2214 -128 
C 2285 -128 2291 -115 2323 -26 
L 3776 3745 
z
" transform="scale(0.015625)"/>
      <path id="CMR17-79" d="M 2496 2197 
C 2656 2586 2944 2586 3034 2586 
L 3034 2752 
C 2912 2752 2752 2752 2630 2752 
C 2496 2752 2285 2752 2157 2758 
L 2157 2592 
C 2400 2573 2406 2394 2406 2343 
C 2406 2280 2394 2248 2362 2171 
L 1664 449 
L 902 2306 
C 870 2382 870 2426 870 2433 
C 870 2573 1018 2586 1171 2586 
L 1171 2758 
C 1018 2752 742 2752 582 2752 
C 410 2752 205 2752 64 2758 
L 64 2586 
C 410 2586 448 2554 531 2350 
L 1485 15 
C 1197 -738 1030 -1178 627 -1178 
C 557 -1178 397 -1159 282 -1044 
C 429 -1031 493 -942 493 -833 
C 493 -725 416 -629 288 -629 
C 147 -629 77 -725 77 -840 
C 77 -1095 339 -1280 627 -1280 
C 998 -1280 1229 -922 1357 -604 
L 2496 2197 
z
" transform="scale(0.015625)"/>
     </defs>
     <use xlink:href="#CMR17-43" transform="scale(0.996264)"/>
     <use xlink:href="#CMR17-6f" transform="translate(66.509881 0)scale(0.996264)"/>
     <use xlink:href="#CMR17-6e" transform="translate(112.200358 0)scale(0.996264)"/>
     <use xlink:href="#CMR17-64" transform="translate(163.095727 0)scale(0.996264)"/>
     <use xlink:href="#CMR17-69" transform="translate(213.991097 0)scale(0.996264)"/>
     <use xlink:href="#CMR17-74" transform="translate(238.862156 0)scale(0.996264)"/>
     <use xlink:href="#CMR17-69" transform="translate(274.142924 0)scale(0.996264)"/>
     <use xlink:href="#CMR17-6f" transform="translate(299.013982 0)scale(0.996264)"/>
     <use xlink:href="#CMR17-6e" transform="translate(344.704459 0)scale(0.996264)"/>
     <use xlink:href="#CMR17-61" transform="translate(395.599829 0)scale(0.996264)"/>
     <use xlink:href="#CMR17-6c" transform="translate(441.290306 0)scale(0.996264)"/>
     <use xlink:href="#CMR17-56" transform="translate(496.237331 0)scale(0.996264)"/>
     <use xlink:href="#CMR17-6f" transform="translate(557.502505 0)scale(0.996264)"/>
     <use xlink:href="#CMR17-6c" transform="translate(603.192982 0)scale(0.996264)"/>
     <use xlink:href="#CMR17-61" transform="translate(628.064041 0)scale(0.996264)"/>
     <use xlink:href="#CMR17-74" transform="translate(673.754518 0)scale(0.996264)"/>
     <use xlink:href="#CMR17-69" transform="translate(709.035286 0)scale(0.996264)"/>
     <use xlink:href="#CMR17-6c" transform="translate(733.906344 0)scale(0.996264)"/>
     <use xlink:href="#CMR17-69" transform="translate(758.777403 0)scale(0.996264)"/>
     <use xlink:href="#CMR17-74" transform="translate(783.648461 0)scale(0.996264)"/>
     <use xlink:href="#CMR17-79" transform="translate(816.326775 0)scale(0.996264)"/>
    </g>
   </g>
  </g>
 </g>
 <defs>
  <clipPath id="p577f8e5dd1">
   <rect x="24.147854" y="22.0533" width="1020.572146" height="114.330784"/>
  </clipPath>
  <clipPath id="pd33c40004b">
   <rect x="24.147854" y="183.277384" width="1020.572146" height="114.330784"/>
  </clipPath>
 </defs>
</svg>
