<?xml version="1.0" encoding="utf-8" standalone="no"?>
<!DOCTYPE svg PUBLIC "-//W3C//DTD SVG 1.1//EN"
  "http://www.w3.org/Graphics/SVG/1.1/DTD/svg11.dtd">
<svg xmlns:xlink="http://www.w3.org/1999/xlink" width="688.32pt" height="328.32pt" viewBox="0 0 688.32 328.32" xmlns="http://www.w3.org/2000/svg" version="1.1">
 <metadata>
  <rdf:RDF xmlns:dc="http://purl.org/dc/elements/1.1/" xmlns:cc="http://creativecommons.org/ns#" xmlns:rdf="http://www.w3.org/1999/02/22-rdf-syntax-ns#">
   <cc:Work>
    <dc:type rdf:resource="http://purl.org/dc/dcmitype/StillImage"/>
    <dc:date>2022-05-29T03:29:41.301630</dc:date>
    <dc:format>image/svg+xml</dc:format>
    <dc:creator>
     <cc:Agent>
      <dc:title>Matplotlib v3.5.1, https://matplotlib.org/</dc:title>
     </cc:Agent>
    </dc:creator>
   </cc:Work>
  </rdf:RDF>
 </metadata>
 <defs>
  <style type="text/css">*{stroke-linejoin: round; stroke-linecap: butt}</style>
 </defs>
 <g id="figure_1">
  <g id="patch_1">
   <path d="M 0 328.32 
L 688.32 328.32 
L 688.32 0 
L 0 0 
z
" style="fill: #ffffff"/>
  </g>
  <g id="axes_1">
   <g id="patch_2">
    <path d="M 49.452163 136.384084 
L 684.72 136.384084 
L 684.72 22.0533 
L 49.452163 22.0533 
z
" style="fill: #e5e5e5"/>
   </g>
   <g id="matplotlib.axis_1">
    <g id="xtick_1">
     <g id="line2d_1">
      <path d="M 159.462725 136.384084 
L 159.462725 22.0533 
" clip-path="url(#paa9ad83c32)" style="fill: none; stroke: #ffffff; stroke-width: 1.5; stroke-linecap: square"/>
     </g>
     <g id="line2d_2">
      <defs>
       <path id="mb9672f3448" d="M 0 0 
L 0 9 
" style="stroke: #555555; stroke-width: 1.875"/>
      </defs>
      <g>
       <use xlink:href="#mb9672f3448" x="159.462725" y="136.384084" style="fill: #555555; stroke: #555555; stroke-width: 1.875"/>
      </g>
     </g>
    </g>
    <g id="xtick_2">
     <g id="line2d_3">
      <path d="M 274.102832 136.384084 
L 274.102832 22.0533 
" clip-path="url(#paa9ad83c32)" style="fill: none; stroke: #ffffff; stroke-width: 1.5; stroke-linecap: square"/>
     </g>
     <g id="line2d_4">
      <g>
       <use xlink:href="#mb9672f3448" x="274.102832" y="136.384084" style="fill: #555555; stroke: #555555; stroke-width: 1.875"/>
      </g>
     </g>
    </g>
    <g id="xtick_3">
     <g id="line2d_5">
      <path d="M 388.74294 136.384084 
L 388.74294 22.0533 
" clip-path="url(#paa9ad83c32)" style="fill: none; stroke: #ffffff; stroke-width: 1.5; stroke-linecap: square"/>
     </g>
     <g id="line2d_6">
      <g>
       <use xlink:href="#mb9672f3448" x="388.74294" y="136.384084" style="fill: #555555; stroke: #555555; stroke-width: 1.875"/>
      </g>
     </g>
    </g>
    <g id="xtick_4">
     <g id="line2d_7">
      <path d="M 503.383047 136.384084 
L 503.383047 22.0533 
" clip-path="url(#paa9ad83c32)" style="fill: none; stroke: #ffffff; stroke-width: 1.5; stroke-linecap: square"/>
     </g>
     <g id="line2d_8">
      <g>
       <use xlink:href="#mb9672f3448" x="503.383047" y="136.384084" style="fill: #555555; stroke: #555555; stroke-width: 1.875"/>
      </g>
     </g>
    </g>
    <g id="xtick_5">
     <g id="line2d_9">
      <path d="M 618.023154 136.384084 
L 618.023154 22.0533 
" clip-path="url(#paa9ad83c32)" style="fill: none; stroke: #ffffff; stroke-width: 1.5; stroke-linecap: square"/>
     </g>
     <g id="line2d_10">
      <g>
       <use xlink:href="#mb9672f3448" x="618.023154" y="136.384084" style="fill: #555555; stroke: #555555; stroke-width: 1.875"/>
      </g>
     </g>
    </g>
    <g id="xtick_6">
     <g id="line2d_11">
      <defs>
       <path id="m936c13e07b" d="M 0 0 
L 0 6 
" style="stroke: #555555; stroke-width: 1.5"/>
      </defs>
      <g>
       <use xlink:href="#m936c13e07b" x="73.482644" y="136.384084" style="fill: #555555; stroke: #555555; stroke-width: 1.5"/>
      </g>
     </g>
    </g>
    <g id="xtick_7">
     <g id="line2d_12">
      <g>
       <use xlink:href="#m936c13e07b" x="102.142671" y="136.384084" style="fill: #555555; stroke: #555555; stroke-width: 1.5"/>
      </g>
     </g>
    </g>
    <g id="xtick_8">
     <g id="line2d_13">
      <g>
       <use xlink:href="#m936c13e07b" x="130.802698" y="136.384084" style="fill: #555555; stroke: #555555; stroke-width: 1.5"/>
      </g>
     </g>
    </g>
    <g id="xtick_9">
     <g id="line2d_14">
      <g>
       <use xlink:href="#m936c13e07b" x="188.122752" y="136.384084" style="fill: #555555; stroke: #555555; stroke-width: 1.5"/>
      </g>
     </g>
    </g>
    <g id="xtick_10">
     <g id="line2d_15">
      <g>
       <use xlink:href="#m936c13e07b" x="216.782779" y="136.384084" style="fill: #555555; stroke: #555555; stroke-width: 1.5"/>
      </g>
     </g>
    </g>
    <g id="xtick_11">
     <g id="line2d_16">
      <g>
       <use xlink:href="#m936c13e07b" x="245.442805" y="136.384084" style="fill: #555555; stroke: #555555; stroke-width: 1.5"/>
      </g>
     </g>
    </g>
    <g id="xtick_12">
     <g id="line2d_17">
      <g>
       <use xlink:href="#m936c13e07b" x="302.762859" y="136.384084" style="fill: #555555; stroke: #555555; stroke-width: 1.5"/>
      </g>
     </g>
    </g>
    <g id="xtick_13">
     <g id="line2d_18">
      <g>
       <use xlink:href="#m936c13e07b" x="331.422886" y="136.384084" style="fill: #555555; stroke: #555555; stroke-width: 1.5"/>
      </g>
     </g>
    </g>
    <g id="xtick_14">
     <g id="line2d_19">
      <g>
       <use xlink:href="#m936c13e07b" x="360.082913" y="136.384084" style="fill: #555555; stroke: #555555; stroke-width: 1.5"/>
      </g>
     </g>
    </g>
    <g id="xtick_15">
     <g id="line2d_20">
      <g>
       <use xlink:href="#m936c13e07b" x="417.402967" y="136.384084" style="fill: #555555; stroke: #555555; stroke-width: 1.5"/>
      </g>
     </g>
    </g>
    <g id="xtick_16">
     <g id="line2d_21">
      <g>
       <use xlink:href="#m936c13e07b" x="446.062993" y="136.384084" style="fill: #555555; stroke: #555555; stroke-width: 1.5"/>
      </g>
     </g>
    </g>
    <g id="xtick_17">
     <g id="line2d_22">
      <g>
       <use xlink:href="#m936c13e07b" x="474.72302" y="136.384084" style="fill: #555555; stroke: #555555; stroke-width: 1.5"/>
      </g>
     </g>
    </g>
    <g id="xtick_18">
     <g id="line2d_23">
      <g>
       <use xlink:href="#m936c13e07b" x="532.043074" y="136.384084" style="fill: #555555; stroke: #555555; stroke-width: 1.5"/>
      </g>
     </g>
    </g>
    <g id="xtick_19">
     <g id="line2d_24">
      <g>
       <use xlink:href="#m936c13e07b" x="560.703101" y="136.384084" style="fill: #555555; stroke: #555555; stroke-width: 1.5"/>
      </g>
     </g>
    </g>
    <g id="xtick_20">
     <g id="line2d_25">
      <g>
       <use xlink:href="#m936c13e07b" x="589.363128" y="136.384084" style="fill: #555555; stroke: #555555; stroke-width: 1.5"/>
      </g>
     </g>
    </g>
    <g id="xtick_21">
     <g id="line2d_26">
      <g>
       <use xlink:href="#m936c13e07b" x="646.683181" y="136.384084" style="fill: #555555; stroke: #555555; stroke-width: 1.5"/>
      </g>
     </g>
    </g>
    <g id="xtick_22">
     <g id="line2d_27">
      <g>
       <use xlink:href="#m936c13e07b" x="675.343208" y="136.384084" style="fill: #555555; stroke: #555555; stroke-width: 1.5"/>
      </g>
     </g>
    </g>
   </g>
   <g id="matplotlib.axis_2">
    <g id="ytick_1">
     <g id="line2d_28">
      <path d="M 49.452163 116.620295 
L 684.72 116.620295 
" clip-path="url(#paa9ad83c32)" style="fill: none; stroke: #ffffff; stroke-width: 1.5; stroke-linecap: square"/>
     </g>
     <g id="line2d_29">
      <defs>
       <path id="m964f76e715" d="M 0 0 
L -9 0 
" style="stroke: #555555; stroke-width: 1.875"/>
      </defs>
      <g>
       <use xlink:href="#m964f76e715" x="49.452163" y="116.620295" style="fill: #555555; stroke: #555555; stroke-width: 1.875"/>
      </g>
     </g>
     <g id="text_1">
      <!-- $\mathdefault{−2.5}$ -->
      <g style="fill: #555555" transform="translate(3.6 122.328048)scale(0.165 -0.165)">
       <defs>
        <path id="CMSY10-0" d="M 4218 1472 
C 4326 1472 4442 1472 4442 1600 
C 4442 1728 4326 1728 4218 1728 
L 755 1728 
C 646 1728 531 1728 531 1600 
C 531 1472 646 1472 755 1472 
L 4218 1472 
z
" transform="scale(0.015625)"/>
        <path id="CMR17-32" d="M 2669 989 
L 2554 989 
C 2490 536 2438 459 2413 420 
C 2381 369 1920 369 1830 369 
L 602 369 
C 832 619 1280 1072 1824 1597 
C 2214 1967 2669 2402 2669 3035 
C 2669 3790 2067 4224 1395 4224 
C 691 4224 262 3604 262 3030 
C 262 2780 448 2748 525 2748 
C 589 2748 781 2787 781 3010 
C 781 3207 614 3264 525 3264 
C 486 3264 448 3258 422 3245 
C 544 3790 915 4058 1306 4058 
C 1862 4058 2227 3617 2227 3035 
C 2227 2479 1901 2000 1536 1584 
L 262 146 
L 262 0 
L 2515 0 
L 2669 989 
z
" transform="scale(0.015625)"/>
        <path id="CMMI12-3a" d="M 1178 307 
C 1178 492 1024 619 870 619 
C 685 619 557 466 557 313 
C 557 128 710 0 864 0 
C 1050 0 1178 153 1178 307 
z
" transform="scale(0.015625)"/>
        <path id="CMR17-35" d="M 730 3692 
C 794 3666 1056 3584 1325 3584 
C 1920 3584 2246 3911 2432 4100 
C 2432 4157 2432 4192 2394 4192 
C 2387 4192 2374 4192 2323 4163 
C 2099 4058 1837 3973 1517 3973 
C 1325 3973 1037 3999 723 4139 
C 653 4171 640 4171 634 4171 
C 602 4171 595 4164 595 4037 
L 595 2203 
C 595 2089 595 2057 659 2057 
C 691 2057 704 2070 736 2114 
C 941 2401 1222 2522 1542 2522 
C 1766 2522 2246 2382 2246 1289 
C 2246 1085 2246 715 2054 421 
C 1894 159 1645 25 1370 25 
C 947 25 518 320 403 814 
C 429 807 480 795 506 795 
C 589 795 749 840 749 1038 
C 749 1210 627 1280 506 1280 
C 358 1280 262 1190 262 1011 
C 262 454 704 -128 1382 -128 
C 2042 -128 2669 440 2669 1264 
C 2669 2030 2170 2624 1549 2624 
C 1222 2624 947 2503 730 2274 
L 730 3692 
z
" transform="scale(0.015625)"/>
       </defs>
       <use xlink:href="#CMSY10-0" transform="scale(0.996264)"/>
       <use xlink:href="#CMR17-32" transform="translate(77.487468 0)scale(0.996264)"/>
       <use xlink:href="#CMMI12-3a" transform="translate(123.177945 0)scale(0.996264)"/>
       <use xlink:href="#CMR17-35" transform="translate(150.275122 0)scale(0.996264)"/>
      </g>
     </g>
    </g>
    <g id="ytick_2">
     <g id="line2d_30">
      <path d="M 49.452163 72.865479 
L 684.72 72.865479 
" clip-path="url(#paa9ad83c32)" style="fill: none; stroke: #ffffff; stroke-width: 1.5; stroke-linecap: square"/>
     </g>
     <g id="line2d_31">
      <g>
       <use xlink:href="#m964f76e715" x="49.452163" y="72.865479" style="fill: #555555; stroke: #555555; stroke-width: 1.875"/>
      </g>
     </g>
     <g id="text_2">
      <!-- $\mathdefault{0.0}$ -->
      <g style="fill: #555555" transform="translate(16.385429 78.573231)scale(0.165 -0.165)">
       <defs>
        <path id="CMR17-30" d="M 2688 2025 
C 2688 2416 2682 3080 2413 3591 
C 2176 4039 1798 4198 1466 4198 
C 1158 4198 768 4058 525 3597 
C 269 3118 243 2524 243 2025 
C 243 1661 250 1106 448 619 
C 723 -39 1216 -128 1466 -128 
C 1760 -128 2208 -7 2470 600 
C 2662 1042 2688 1559 2688 2025 
z
M 1466 -26 
C 1056 -26 813 325 723 812 
C 653 1188 653 1738 653 2096 
C 653 2588 653 2997 736 3387 
C 858 3929 1216 4096 1466 4096 
C 1728 4096 2067 3923 2189 3400 
C 2272 3036 2278 2607 2278 2096 
C 2278 1680 2278 1169 2202 792 
C 2067 95 1690 -26 1466 -26 
z
" transform="scale(0.015625)"/>
       </defs>
       <use xlink:href="#CMR17-30" transform="scale(0.996264)"/>
       <use xlink:href="#CMMI12-3a" transform="translate(45.690477 0)scale(0.996264)"/>
       <use xlink:href="#CMR17-30" transform="translate(72.787654 0)scale(0.996264)"/>
      </g>
     </g>
    </g>
    <g id="ytick_3">
     <g id="line2d_32">
      <path d="M 49.452163 29.110663 
L 684.72 29.110663 
" clip-path="url(#paa9ad83c32)" style="fill: none; stroke: #ffffff; stroke-width: 1.5; stroke-linecap: square"/>
     </g>
     <g id="line2d_33">
      <g>
       <use xlink:href="#m964f76e715" x="49.452163" y="29.110663" style="fill: #555555; stroke: #555555; stroke-width: 1.875"/>
      </g>
     </g>
     <g id="text_3">
      <!-- $\mathdefault{2.5}$ -->
      <g style="fill: #555555" transform="translate(16.385429 34.818415)scale(0.165 -0.165)">
       <use xlink:href="#CMR17-32" transform="scale(0.996264)"/>
       <use xlink:href="#CMMI12-3a" transform="translate(45.690477 0)scale(0.996264)"/>
       <use xlink:href="#CMR17-35" transform="translate(72.787654 0)scale(0.996264)"/>
      </g>
     </g>
    </g>
    <g id="ytick_4">
     <g id="line2d_34">
      <defs>
       <path id="mdde80e03a5" d="M 0 0 
L -6 0 
" style="stroke: #555555; stroke-width: 1.5"/>
      </defs>
      <g>
       <use xlink:href="#mdde80e03a5" x="49.452163" y="134.122222" style="fill: #555555; stroke: #555555; stroke-width: 1.5"/>
      </g>
     </g>
    </g>
    <g id="ytick_5">
     <g id="line2d_35">
      <g>
       <use xlink:href="#mdde80e03a5" x="49.452163" y="125.371259" style="fill: #555555; stroke: #555555; stroke-width: 1.5"/>
      </g>
     </g>
    </g>
    <g id="ytick_6">
     <g id="line2d_36">
      <g>
       <use xlink:href="#mdde80e03a5" x="49.452163" y="107.869332" style="fill: #555555; stroke: #555555; stroke-width: 1.5"/>
      </g>
     </g>
    </g>
    <g id="ytick_7">
     <g id="line2d_37">
      <g>
       <use xlink:href="#mdde80e03a5" x="49.452163" y="99.118369" style="fill: #555555; stroke: #555555; stroke-width: 1.5"/>
      </g>
     </g>
    </g>
    <g id="ytick_8">
     <g id="line2d_38">
      <g>
       <use xlink:href="#mdde80e03a5" x="49.452163" y="90.367406" style="fill: #555555; stroke: #555555; stroke-width: 1.5"/>
      </g>
     </g>
    </g>
    <g id="ytick_9">
     <g id="line2d_39">
      <g>
       <use xlink:href="#mdde80e03a5" x="49.452163" y="81.616442" style="fill: #555555; stroke: #555555; stroke-width: 1.5"/>
      </g>
     </g>
    </g>
    <g id="ytick_10">
     <g id="line2d_40">
      <g>
       <use xlink:href="#mdde80e03a5" x="49.452163" y="64.114516" style="fill: #555555; stroke: #555555; stroke-width: 1.5"/>
      </g>
     </g>
    </g>
    <g id="ytick_11">
     <g id="line2d_41">
      <g>
       <use xlink:href="#mdde80e03a5" x="49.452163" y="55.363552" style="fill: #555555; stroke: #555555; stroke-width: 1.5"/>
      </g>
     </g>
    </g>
    <g id="ytick_12">
     <g id="line2d_42">
      <g>
       <use xlink:href="#mdde80e03a5" x="49.452163" y="46.612589" style="fill: #555555; stroke: #555555; stroke-width: 1.5"/>
      </g>
     </g>
    </g>
    <g id="ytick_13">
     <g id="line2d_43">
      <g>
       <use xlink:href="#mdde80e03a5" x="49.452163" y="37.861626" style="fill: #555555; stroke: #555555; stroke-width: 1.5"/>
      </g>
     </g>
    </g>
   </g>
   <g id="line2d_44">
    <path d="M 49.452163 73.314156 
L 51.884636 54.347944 
L 54.238643 78.2749 
L 56.671116 84.242873 
L 59.025122 94.400676 
L 61.457595 94.94839 
L 63.890069 43.391901 
L 66.244075 79.06954 
L 68.676548 84.692839 
L 71.030554 54.745452 
L 73.463028 72.959329 
L 75.895501 99.857899 
L 78.092573 75.862436 
L 80.525047 89.095927 
L 82.879053 68.731081 
L 85.311526 65.568865 
L 87.665532 58.896506 
L 90.098006 53.414296 
L 92.530479 88.49798 
L 94.884485 92.5815 
L 97.316958 82.959448 
L 99.670965 68.252825 
L 102.103438 88.27278 
L 104.535911 68.609206 
L 106.732984 67.952371 
L 109.165457 50.103849 
L 111.519463 79.815514 
L 113.951936 49.191573 
L 116.305943 63.22315 
L 118.738416 60.941889 
L 121.170889 78.342554 
L 123.524895 74.886132 
L 125.957368 63.065095 
L 128.311375 67.478515 
L 130.743848 80.84808 
L 133.176321 75.047557 
L 135.373394 67.761665 
L 137.805867 74.547399 
L 140.159873 46.249534 
L 142.592346 74.781308 
L 144.946353 78.088194 
L 147.378826 123.353446 
L 149.811299 49.282296 
L 152.165305 47.554507 
L 154.597779 44.53821 
L 156.951785 82.003006 
L 159.384258 64.977522 
L 161.816731 67.043746 
L 164.092271 43.783476 
L 166.524744 62.167479 
L 168.87875 68.999375 
L 171.311223 125.539083 
L 173.66523 75.218049 
L 176.097703 131.18723 
L 178.530176 64.594544 
L 180.884182 95.222783 
L 183.316656 72.077792 
L 185.670662 72.741068 
L 188.103135 69.560309 
L 190.535608 85.362351 
L 192.732681 35.286893 
L 195.165154 71.689333 
L 197.51916 74.36221 
L 199.951633 55.732169 
L 202.30564 81.719111 
L 204.738113 66.515745 
L 207.170586 104.947598 
L 209.524592 81.933421 
L 211.957066 73.515578 
L 214.311072 80.688587 
L 216.743545 50.004044 
L 219.176018 80.61733 
L 221.373091 75.137428 
L 223.805564 83.237686 
L 226.15957 61.07556 
L 228.592044 82.929928 
L 230.94605 64.262841 
L 233.378523 81.415308 
L 235.810996 90.332191 
L 238.165003 76.78882 
L 240.597476 27.250154 
L 242.951482 59.88955 
L 245.383955 70.835821 
L 247.816428 65.276509 
L 250.013501 51.682136 
L 252.445974 81.111911 
L 254.799981 81.059543 
L 257.232454 50.849989 
L 259.58646 59.193151 
L 262.018933 78.280456 
L 264.451406 61.344591 
L 266.805413 40.990306 
L 269.237886 66.576128 
L 271.591892 60.269767 
L 274.024365 44.638757 
L 276.456839 62.297688 
L 278.732378 29.844388 
L 281.164851 117.029493 
L 283.518858 61.427628 
L 285.951331 67.757773 
L 288.305337 46.930132 
L 290.73781 94.978937 
L 293.170283 81.341925 
L 295.52429 114.992198 
L 297.956763 88.700359 
L 300.310769 81.021112 
L 302.743242 56.922292 
L 305.175716 73.233032 
L 307.372788 96.079742 
L 309.805261 57.320481 
L 312.159268 53.045382 
L 314.591741 51.737597 
L 316.945747 80.713179 
L 319.37822 88.682192 
L 321.810694 85.90169 
L 324.1647 91.688697 
L 326.597173 61.981248 
L 328.951179 54.275605 
L 331.383653 76.784851 
L 333.816126 108.102102 
L 336.013198 63.788283 
L 338.445672 77.90016 
L 340.799678 59.772718 
L 343.232151 89.054239 
L 345.586157 74.657275 
L 348.018631 50.47214 
L 350.451104 76.365037 
L 352.80511 49.404859 
L 355.237583 47.106463 
L 357.59159 72.079968 
L 360.024063 44.488507 
L 362.456536 71.855175 
L 364.653608 82.292025 
L 367.086082 65.284127 
L 369.440088 76.980041 
L 371.872561 77.502771 
L 374.226567 90.333533 
L 376.659041 63.625475 
L 379.091514 52.294447 
L 381.44552 130.253702 
L 383.877993 68.478912 
L 386.232 86.976941 
L 388.664473 60.960809 
L 391.096946 74.870635 
L 393.372485 51.499757 
L 395.804959 59.798931 
L 398.158965 57.339793 
L 400.591438 101.290421 
L 402.945444 51.64963 
L 405.377918 50.037677 
L 407.810391 63.436465 
L 410.164397 93.689249 
L 412.59687 80.629039 
L 414.950877 90.410306 
L 417.38335 78.091828 
L 419.815823 63.997069 
L 422.012896 75.940262 
L 424.445369 83.9089 
L 426.799375 72.322908 
L 429.231848 54.417269 
L 431.585855 83.723686 
L 434.018328 111.864544 
L 436.450801 57.971148 
L 438.804807 88.487837 
L 441.23728 76.159891 
L 443.591287 60.954434 
L 446.02376 81.601657 
L 448.456233 76.720415 
L 450.653306 46.42785 
L 453.085779 65.148693 
L 455.439785 64.605183 
L 457.872258 78.100829 
L 460.226265 104.12199 
L 462.658738 116.331776 
L 465.091211 87.75966 
L 467.445217 97.25553 
L 469.877691 49.014755 
L 472.231697 78.910636 
L 474.66417 72.397951 
L 477.096643 86.973896 
L 479.293716 57.916139 
L 481.726189 87.022513 
L 484.080195 72.962243 
L 486.512669 85.242314 
L 488.866675 42.921365 
L 491.299148 94.374096 
L 493.731621 89.953967 
L 496.085628 73.071234 
L 498.518101 75.577763 
L 500.872107 75.125658 
L 503.30458 78.776454 
L 505.737053 68.468928 
L 508.012593 81.808419 
L 510.445066 56.529667 
L 512.799072 38.969026 
L 515.231546 62.5407 
L 517.585552 52.819482 
L 520.018025 106.674245 
L 524.804505 71.997343 
L 527.236978 60.803749 
L 529.590984 68.541888 
L 532.023457 81.32134 
L 534.45593 68.046068 
L 536.653003 71.4274 
L 539.085476 100.075336 
L 541.439482 71.653852 
L 543.871956 85.029959 
L 546.225962 64.971702 
L 548.658435 58.525848 
L 551.090908 89.893027 
L 553.444915 66.808575 
L 555.877388 69.758844 
L 558.231394 73.011162 
L 560.663867 82.189366 
L 563.096341 62.740121 
L 565.293413 56.845064 
L 567.725886 76.372209 
L 570.079893 73.5341 
L 572.512366 82.40203 
L 574.866372 125.400241 
L 577.298845 63.434444 
L 579.731318 90.06665 
L 582.085325 72.621381 
L 584.517798 72.715631 
L 586.871804 60.237715 
L 589.304277 74.524753 
L 591.736751 66.844511 
L 593.933823 76.366985 
L 596.366296 81.8728 
L 598.720303 85.449455 
L 601.152776 64.909147 
L 603.506782 65.241123 
L 605.939255 86.279047 
L 608.371729 74.46545 
L 610.725735 60.339477 
L 613.158208 66.380316 
L 615.512214 91.815551 
L 617.944688 50.024861 
L 620.377161 96.986178 
L 622.6527 68.74932 
L 625.085173 75.262249 
L 627.43918 83.956267 
L 629.871653 78.374692 
L 632.225659 60.732112 
L 634.658132 70.070951 
L 637.090606 53.989598 
L 639.444612 53.773269 
L 641.877085 65.398954 
L 644.231091 45.686537 
L 646.663565 45.396417 
L 649.096038 64.194539 
L 651.29311 67.90344 
L 653.725584 68.044801 
L 656.07959 54.861927 
L 658.512063 75.733582 
L 660.866069 91.983646 
L 663.298543 86.456252 
L 665.731016 88.6245 
L 668.085022 81.670578 
L 670.517495 75.917999 
L 672.871502 80.837102 
L 675.303975 46.317651 
L 677.736448 45.856786 
L 679.93352 52.039958 
L 682.365994 76.425028 
L 684.72 63.316425 
L 684.72 63.316425 
" clip-path="url(#paa9ad83c32)" style="fill: none; stroke: #4d3c2f; stroke-width: 2.25; stroke-linecap: square"/>
   </g>
   <g id="patch_3">
    <path d="M 49.452163 136.384084 
L 49.452163 22.0533 
" style="fill: none; stroke: #ffffff; stroke-width: 1.875; stroke-linejoin: miter; stroke-linecap: square"/>
   </g>
   <g id="patch_4">
    <path d="M 49.452163 136.384084 
L 684.72 136.384084 
" style="fill: none; stroke: #ffffff; stroke-width: 1.875; stroke-linejoin: miter; stroke-linecap: square"/>
   </g>
   <g id="text_4">
    <!-- Standardized Residuals -->
    <g transform="translate(283.436503 16.0533)scale(0.18 -0.18)">
     <defs>
      <path id="CMR17-53" d="M 2803 4290 
C 2803 4404 2797 4411 2758 4411 
C 2720 4411 2707 4385 2682 4328 
L 2490 3907 
C 2246 4257 1875 4416 1472 4416 
C 819 4416 294 3901 294 3253 
C 294 3056 339 2776 557 2510 
C 794 2218 1018 2167 1530 2033 
C 1722 1982 2042 1899 2106 1874 
C 2470 1722 2662 1341 2662 985 
C 2662 527 2336 38 1779 38 
C 1094 38 454 419 410 1311 
C 403 1413 397 1419 352 1419 
C 301 1419 294 1413 294 1285 
L 294 -1 
C 294 -115 301 -122 339 -122 
C 384 -122 397 -90 486 108 
C 493 127 493 140 614 381 
C 934 -39 1472 -128 1779 -128 
C 2477 -128 2970 451 2970 1124 
C 2970 1454 2848 1708 2778 1823 
C 2509 2230 2221 2306 1914 2382 
C 1869 2402 1856 2402 1498 2490 
C 1152 2579 1005 2624 845 2796 
C 666 2992 602 3196 602 3399 
C 602 3812 934 4263 1478 4263 
C 2157 4263 2579 3786 2675 2993 
C 2694 2878 2701 2872 2746 2872 
C 2803 2872 2803 2891 2803 2999 
L 2803 4290 
z
" transform="scale(0.015625)"/>
      <path id="CMR17-74" d="M 966 2560 
L 1862 2560 
L 1862 2725 
L 966 2725 
L 966 3904 
L 851 3904 
C 838 3245 614 2668 70 2668 
L 70 2560 
L 627 2560 
L 627 771 
C 627 650 627 -64 1370 -64 
C 1747 -64 1965 306 1965 777 
L 1965 1140 
L 1850 1140 
L 1850 783 
C 1850 344 1677 51 1408 51 
C 1222 51 966 178 966 758 
L 966 2560 
z
" transform="scale(0.015625)"/>
      <path id="CMR17-61" d="M 2304 1653 
C 2304 2072 2304 2294 2035 2543 
C 1798 2752 1523 2816 1306 2816 
C 800 2816 435 2407 435 1971 
C 435 1728 627 1728 666 1728 
C 749 1728 896 1778 896 1954 
C 896 2112 774 2181 666 2181 
C 640 2181 608 2174 589 2168 
C 723 2592 1069 2714 1293 2714 
C 1613 2714 1965 2429 1965 1885 
L 1965 1600 
C 1587 1600 1133 1549 774 1357 
C 371 1133 256 813 256 570 
C 256 77 832 -64 1171 -64 
C 1523 -64 1850 139 1990 511 
C 2003 233 2182 -18 2464 -18 
C 2598 -18 2938 70 2938 567 
L 2938 920 
L 2822 920 
L 2822 562 
C 2822 178 2650 128 2566 128 
C 2304 128 2304 458 2304 738 
L 2304 1653 
z
M 1965 870 
C 1965 317 1568 38 1216 38 
C 896 38 646 275 646 570 
C 646 761 730 1100 1101 1305 
C 1408 1478 1760 1504 1965 1504 
L 1965 870 
z
" transform="scale(0.015625)"/>
      <path id="CMR17-6e" d="M 2656 1933 
C 2656 2259 2592 2790 1837 2790 
C 1331 2790 1069 2400 973 2144 
L 966 2144 
L 966 2790 
L 211 2720 
L 211 2554 
C 589 2554 646 2515 646 2208 
L 646 428 
C 646 184 621 153 211 153 
L 211 -13 
C 365 0 646 0 813 0 
C 979 0 1267 0 1421 -13 
L 1421 153 
C 1011 153 986 178 986 428 
L 986 1658 
C 986 2247 1344 2688 1792 2688 
C 2266 2688 2317 2266 2317 1958 
L 2317 428 
C 2317 184 2291 153 1882 153 
L 1882 -13 
C 2035 0 2317 0 2483 0 
C 2650 0 2938 0 3091 -13 
L 3091 153 
C 2682 153 2656 178 2656 428 
L 2656 1933 
z
" transform="scale(0.015625)"/>
      <path id="CMR17-64" d="M 1869 4326 
L 1869 4160 
C 2246 4160 2304 4122 2304 3820 
L 2304 2345 
C 2278 2377 2016 2790 1498 2790 
C 845 2790 211 2208 211 1364 
C 211 525 806 -64 1434 -64 
C 1978 -64 2259 337 2291 380 
L 2291 -63 
L 3066 -63 
L 3066 128 
C 2688 128 2630 166 2630 473 
L 2630 4396 
L 1869 4326 
z
M 2291 755 
C 2291 563 2176 390 2029 262 
C 1811 70 1594 38 1472 38 
C 1286 38 621 134 621 1356 
C 621 2612 1363 2688 1530 2688 
C 1824 2688 2061 2522 2208 2291 
C 2291 2157 2291 2138 2291 2023 
L 2291 755 
z
" transform="scale(0.015625)"/>
      <path id="CMR17-72" d="M 960 1497 
C 960 2112 1222 2688 1702 2688 
C 1747 2688 1792 2682 1837 2662 
C 1837 2662 1696 2617 1696 2452 
C 1696 2298 1818 2234 1914 2234 
C 1990 2234 2131 2279 2131 2458 
C 2131 2663 1926 2790 1709 2790 
C 1222 2790 1011 2317 947 2093 
L 941 2093 
L 941 2790 
L 198 2720 
L 198 2554 
C 576 2554 634 2515 634 2208 
L 634 428 
C 634 184 608 153 198 153 
L 198 -13 
C 352 0 646 0 813 0 
C 998 0 1325 0 1498 -13 
L 1498 153 
C 1037 153 960 153 960 440 
L 960 1497 
z
" transform="scale(0.015625)"/>
      <path id="CMR17-69" d="M 992 3909 
C 992 4049 877 4170 730 4170 
C 589 4170 467 4056 467 3909 
C 467 3769 582 3648 730 3648 
C 870 3648 992 3763 992 3909 
z
M 243 2706 
L 243 2541 
C 602 2541 653 2502 653 2197 
L 653 427 
C 653 184 627 153 218 153 
L 218 -13 
C 371 0 646 0 806 0 
C 960 0 1222 0 1370 -13 
L 1370 153 
C 992 153 979 191 979 420 
L 979 2776 
L 243 2706 
z
" transform="scale(0.015625)"/>
      <path id="CMR17-7a" d="M 2310 2605 
C 2362 2670 2362 2682 2362 2695 
C 2362 2752 2336 2752 2221 2752 
L 275 2752 
L 211 1760 
L 326 1760 
C 371 2381 442 2650 1178 2650 
L 1958 2650 
L 128 96 
C 128 0 134 0 269 0 
L 2291 0 
L 2381 1152 
L 2266 1152 
C 2214 442 2131 115 1350 115 
L 531 115 
L 2310 2605 
z
" transform="scale(0.015625)"/>
      <path id="CMR17-65" d="M 2438 1472 
C 2464 1498 2464 1511 2464 1576 
C 2464 2238 2118 2816 1389 2816 
C 710 2816 173 2169 173 1383 
C 173 551 781 -64 1459 -64 
C 2176 -64 2458 607 2458 740 
C 2458 784 2419 784 2406 784 
C 2362 784 2355 771 2330 696 
C 2189 265 1837 51 1504 51 
C 1229 51 954 203 781 480 
C 582 803 582 1176 582 1472 
L 2438 1472 
z
M 589 1568 
C 634 2505 1126 2714 1382 2714 
C 1818 2714 2112 2297 2118 1568 
L 589 1568 
z
" transform="scale(0.015625)"/>
      <path id="CMR17-52" d="M 2509 2146 
C 3117 2268 3629 2676 3629 3186 
C 3629 3785 2950 4326 2054 4326 
L 333 4326 
L 333 4160 
C 774 4160 845 4160 845 3873 
L 845 415 
C 845 128 774 128 333 128 
L 333 -26 
C 518 -26 851 -26 1050 -26 
C 1248 -26 1581 -26 1766 -26 
L 1766 128 
C 1325 128 1254 128 1254 417 
L 1254 2112 
L 2003 2112 
C 2368 2112 2573 1964 2662 1881 
C 2918 1632 2918 1459 2918 1024 
C 2918 595 2918 377 3110 160 
C 3354 -102 3680 -128 3821 -128 
C 4294 -128 4365 396 4365 503 
C 4365 540 4365 585 4307 585 
C 4256 585 4250 547 4250 522 
C 4218 112 4032 -26 3834 -26 
C 3482 -26 3443 375 3405 764 
C 3386 898 3373 993 3360 1133 
C 3322 1452 3270 1917 2509 2146 
z
M 1984 2214 
L 1254 2214 
L 1254 3913 
C 1254 4129 1267 4160 1523 4160 
L 1990 4160 
C 2522 4160 3142 3977 3142 3190 
C 3142 2372 2464 2214 1984 2214 
z
" transform="scale(0.015625)"/>
      <path id="CMR17-73" d="M 1978 2697 
C 1978 2813 1971 2819 1933 2819 
C 1907 2819 1901 2813 1824 2717 
C 1805 2691 1747 2626 1728 2601 
C 1523 2819 1235 2819 1126 2819 
C 416 2819 160 2447 160 2076 
C 160 1498 813 1365 998 1325 
C 1402 1243 1542 1217 1677 1101 
C 1760 1025 1901 884 1901 654 
C 1901 384 1747 38 1158 38 
C 602 38 403 460 288 1021 
C 269 1110 269 1117 218 1117 
C 166 1117 160 1110 160 983 
L 160 63 
C 160 -51 166 -58 205 -58 
C 237 -58 243 -51 275 0 
C 314 57 410 211 448 276 
C 576 103 800 -64 1158 -64 
C 1792 -64 2131 283 2131 784 
C 2131 1112 1958 1285 1875 1362 
C 1683 1561 1459 1606 1190 1657 
C 838 1735 390 1825 390 2217 
C 390 2383 480 2737 1126 2737 
C 1811 2737 1850 2094 1862 1888 
C 1869 1856 1901 1849 1920 1849 
C 1978 1849 1978 1869 1978 1978 
L 1978 2697 
z
" transform="scale(0.015625)"/>
      <path id="CMR17-75" d="M 1882 2693 
L 1882 2528 
C 2259 2528 2317 2489 2317 2186 
L 2317 1032 
C 2317 500 2029 38 1555 38 
C 1030 38 986 348 986 678 
L 986 2763 
L 211 2693 
L 211 2528 
C 467 2528 640 2528 646 2274 
L 646 1058 
C 646 633 646 361 813 183 
C 896 101 1056 -64 1517 -64 
C 2061 -64 2272 377 2323 506 
L 2330 506 
L 2330 -63 
L 3091 -63 
L 3091 128 
C 2714 128 2656 166 2656 473 
L 2656 2763 
L 1882 2693 
z
" transform="scale(0.015625)"/>
      <path id="CMR17-6c" d="M 979 4396 
L 218 4326 
L 218 4160 
C 595 4160 653 4122 653 3817 
L 653 426 
C 653 184 627 153 218 153 
L 218 -13 
C 371 0 653 0 813 0 
C 979 0 1261 0 1414 -13 
L 1414 153 
C 1005 153 979 178 979 426 
L 979 4396 
z
" transform="scale(0.015625)"/>
     </defs>
     <use xlink:href="#CMR17-53" transform="scale(0.996264)"/>
     <use xlink:href="#CMR17-74" transform="translate(50.89537 0)scale(0.996264)"/>
     <use xlink:href="#CMR17-61" transform="translate(86.176138 0)scale(0.996264)"/>
     <use xlink:href="#CMR17-6e" transform="translate(131.866615 0)scale(0.996264)"/>
     <use xlink:href="#CMR17-64" transform="translate(182.761984 0)scale(0.996264)"/>
     <use xlink:href="#CMR17-61" transform="translate(233.657354 0)scale(0.996264)"/>
     <use xlink:href="#CMR17-72" transform="translate(279.347831 0)scale(0.996264)"/>
     <use xlink:href="#CMR17-64" transform="translate(314.628599 0)scale(0.996264)"/>
     <use xlink:href="#CMR17-69" transform="translate(365.523969 0)scale(0.996264)"/>
     <use xlink:href="#CMR17-7a" transform="translate(390.395027 0)scale(0.996264)"/>
     <use xlink:href="#CMR17-65" transform="translate(430.880688 0)scale(0.996264)"/>
     <use xlink:href="#CMR17-64" transform="translate(471.366348 0)scale(0.996264)"/>
     <use xlink:href="#CMR17-52" transform="translate(552.337684 0)scale(0.996264)"/>
     <use xlink:href="#CMR17-65" transform="translate(620.128786 0)scale(0.996264)"/>
     <use xlink:href="#CMR17-73" transform="translate(660.614447 0)scale(0.996264)"/>
     <use xlink:href="#CMR17-69" transform="translate(696.415785 0)scale(0.996264)"/>
     <use xlink:href="#CMR17-64" transform="translate(721.286843 0)scale(0.996264)"/>
     <use xlink:href="#CMR17-75" transform="translate(772.182213 0)scale(0.996264)"/>
     <use xlink:href="#CMR17-61" transform="translate(823.077583 0)scale(0.996264)"/>
     <use xlink:href="#CMR17-6c" transform="translate(868.76806 0)scale(0.996264)"/>
     <use xlink:href="#CMR17-73" transform="translate(893.639118 0)scale(0.996264)"/>
    </g>
   </g>
  </g>
  <g id="axes_2">
   <g id="patch_5">
    <path d="M 49.452163 297.608168 
L 684.72 297.608168 
L 684.72 183.277384 
L 49.452163 183.277384 
z
" style="fill: #e5e5e5"/>
   </g>
   <g id="matplotlib.axis_3">
    <g id="xtick_23">
     <g id="line2d_45">
      <path d="M 159.462725 297.608168 
L 159.462725 183.277384 
" clip-path="url(#p7be019811c)" style="fill: none; stroke: #ffffff; stroke-width: 1.5; stroke-linecap: square"/>
     </g>
     <g id="line2d_46">
      <g>
       <use xlink:href="#mb9672f3448" x="159.462725" y="297.608168" style="fill: #555555; stroke: #555555; stroke-width: 1.875"/>
      </g>
     </g>
     <g id="text_5">
      <!-- $\mathdefault{2004}$ -->
      <g style="fill: #555555" transform="translate(143.367017 321.523673)scale(0.165 -0.165)">
       <defs>
        <path id="CMR17-34" d="M 2150 4122 
C 2150 4256 2144 4256 2029 4256 
L 128 1254 
L 128 1088 
L 1779 1088 
L 1779 457 
C 1779 224 1766 160 1318 160 
L 1197 160 
L 1197 0 
C 1402 0 1747 0 1965 0 
C 2182 0 2528 0 2733 0 
L 2733 160 
L 2611 160 
C 2163 160 2150 224 2150 457 
L 2150 1088 
L 2803 1088 
L 2803 1254 
L 2150 1254 
L 2150 4122 
z
M 1798 3703 
L 1798 1254 
L 256 1254 
L 1798 3703 
z
" transform="scale(0.015625)"/>
       </defs>
       <use xlink:href="#CMR17-32" transform="scale(0.996264)"/>
       <use xlink:href="#CMR17-30" transform="translate(45.690477 0)scale(0.996264)"/>
       <use xlink:href="#CMR17-30" transform="translate(91.380954 0)scale(0.996264)"/>
       <use xlink:href="#CMR17-34" transform="translate(137.071431 0)scale(0.996264)"/>
      </g>
     </g>
    </g>
    <g id="xtick_24">
     <g id="line2d_47">
      <path d="M 274.102832 297.608168 
L 274.102832 183.277384 
" clip-path="url(#p7be019811c)" style="fill: none; stroke: #ffffff; stroke-width: 1.5; stroke-linecap: square"/>
     </g>
     <g id="line2d_48">
      <g>
       <use xlink:href="#mb9672f3448" x="274.102832" y="297.608168" style="fill: #555555; stroke: #555555; stroke-width: 1.875"/>
      </g>
     </g>
     <g id="text_6">
      <!-- $\mathdefault{2008}$ -->
      <g style="fill: #555555" transform="translate(258.007124 321.523673)scale(0.165 -0.165)">
       <defs>
        <path id="CMR17-38" d="M 1741 2264 
C 2144 2467 2554 2773 2554 3263 
C 2554 3841 1990 4179 1472 4179 
C 890 4179 378 3759 378 3180 
C 378 3021 416 2747 666 2505 
C 730 2442 998 2251 1171 2130 
C 883 1983 211 1634 211 934 
C 211 279 838 -128 1459 -128 
C 2144 -128 2720 362 2720 1010 
C 2720 1590 2330 1857 2074 2029 
L 1741 2264 
z
M 902 2822 
C 851 2854 595 3051 595 3351 
C 595 3739 998 4032 1459 4032 
C 1965 4032 2336 3676 2336 3262 
C 2336 2669 1670 2331 1638 2331 
C 1632 2331 1626 2331 1574 2370 
L 902 2822 
z
M 2080 1519 
C 2176 1449 2483 1240 2483 851 
C 2483 381 2010 25 1472 25 
C 890 25 448 438 448 940 
C 448 1443 838 1862 1280 2060 
L 2080 1519 
z
" transform="scale(0.015625)"/>
       </defs>
       <use xlink:href="#CMR17-32" transform="scale(0.996264)"/>
       <use xlink:href="#CMR17-30" transform="translate(45.690477 0)scale(0.996264)"/>
       <use xlink:href="#CMR17-30" transform="translate(91.380954 0)scale(0.996264)"/>
       <use xlink:href="#CMR17-38" transform="translate(137.071431 0)scale(0.996264)"/>
      </g>
     </g>
    </g>
    <g id="xtick_25">
     <g id="line2d_49">
      <path d="M 388.74294 297.608168 
L 388.74294 183.277384 
" clip-path="url(#p7be019811c)" style="fill: none; stroke: #ffffff; stroke-width: 1.5; stroke-linecap: square"/>
     </g>
     <g id="line2d_50">
      <g>
       <use xlink:href="#mb9672f3448" x="388.74294" y="297.608168" style="fill: #555555; stroke: #555555; stroke-width: 1.875"/>
      </g>
     </g>
     <g id="text_7">
      <!-- $\mathdefault{2012}$ -->
      <g style="fill: #555555" transform="translate(372.647232 321.523673)scale(0.165 -0.165)">
       <defs>
        <path id="CMR17-31" d="M 1702 4058 
C 1702 4192 1696 4192 1606 4192 
C 1357 3916 979 3827 621 3827 
C 602 3827 570 3827 563 3808 
C 557 3795 557 3782 557 3648 
C 755 3648 1088 3686 1344 3839 
L 1344 461 
C 1344 236 1331 160 781 160 
L 589 160 
L 589 0 
C 896 0 1216 0 1523 0 
C 1830 0 2150 0 2458 0 
L 2458 160 
L 2266 160 
C 1715 160 1702 230 1702 458 
L 1702 4058 
z
" transform="scale(0.015625)"/>
       </defs>
       <use xlink:href="#CMR17-32" transform="scale(0.996264)"/>
       <use xlink:href="#CMR17-30" transform="translate(45.690477 0)scale(0.996264)"/>
       <use xlink:href="#CMR17-31" transform="translate(91.380954 0)scale(0.996264)"/>
       <use xlink:href="#CMR17-32" transform="translate(137.071431 0)scale(0.996264)"/>
      </g>
     </g>
    </g>
    <g id="xtick_26">
     <g id="line2d_51">
      <path d="M 503.383047 297.608168 
L 503.383047 183.277384 
" clip-path="url(#p7be019811c)" style="fill: none; stroke: #ffffff; stroke-width: 1.5; stroke-linecap: square"/>
     </g>
     <g id="line2d_52">
      <g>
       <use xlink:href="#mb9672f3448" x="503.383047" y="297.608168" style="fill: #555555; stroke: #555555; stroke-width: 1.875"/>
      </g>
     </g>
     <g id="text_8">
      <!-- $\mathdefault{2016}$ -->
      <g style="fill: #555555" transform="translate(487.287339 321.523673)scale(0.165 -0.165)">
       <defs>
        <path id="CMR17-36" d="M 678 2176 
C 678 3690 1395 4032 1811 4032 
C 1946 4032 2272 4009 2400 3776 
C 2298 3776 2106 3776 2106 3553 
C 2106 3381 2246 3323 2336 3323 
C 2394 3323 2566 3348 2566 3560 
C 2566 3954 2246 4179 1805 4179 
C 1043 4179 243 3390 243 1984 
C 243 253 966 -128 1478 -128 
C 2099 -128 2688 427 2688 1283 
C 2688 2081 2170 2662 1517 2662 
C 1126 2662 838 2407 678 1960 
L 678 2176 
z
M 1478 25 
C 691 25 691 1200 691 1436 
C 691 1896 909 2560 1504 2560 
C 1613 2560 1926 2560 2138 2120 
C 2253 1870 2253 1609 2253 1289 
C 2253 944 2253 690 2118 434 
C 1978 171 1773 25 1478 25 
z
" transform="scale(0.015625)"/>
       </defs>
       <use xlink:href="#CMR17-32" transform="scale(0.996264)"/>
       <use xlink:href="#CMR17-30" transform="translate(45.690477 0)scale(0.996264)"/>
       <use xlink:href="#CMR17-31" transform="translate(91.380954 0)scale(0.996264)"/>
       <use xlink:href="#CMR17-36" transform="translate(137.071431 0)scale(0.996264)"/>
      </g>
     </g>
    </g>
    <g id="xtick_27">
     <g id="line2d_53">
      <path d="M 618.023154 297.608168 
L 618.023154 183.277384 
" clip-path="url(#p7be019811c)" style="fill: none; stroke: #ffffff; stroke-width: 1.5; stroke-linecap: square"/>
     </g>
     <g id="line2d_54">
      <g>
       <use xlink:href="#mb9672f3448" x="618.023154" y="297.608168" style="fill: #555555; stroke: #555555; stroke-width: 1.875"/>
      </g>
     </g>
     <g id="text_9">
      <!-- $\mathdefault{2020}$ -->
      <g style="fill: #555555" transform="translate(601.927447 321.523673)scale(0.165 -0.165)">
       <use xlink:href="#CMR17-32" transform="scale(0.996264)"/>
       <use xlink:href="#CMR17-30" transform="translate(45.690477 0)scale(0.996264)"/>
       <use xlink:href="#CMR17-32" transform="translate(91.380954 0)scale(0.996264)"/>
       <use xlink:href="#CMR17-30" transform="translate(137.071431 0)scale(0.996264)"/>
      </g>
     </g>
    </g>
    <g id="xtick_28">
     <g id="line2d_55">
      <g>
       <use xlink:href="#m936c13e07b" x="73.482644" y="297.608168" style="fill: #555555; stroke: #555555; stroke-width: 1.5"/>
      </g>
     </g>
    </g>
    <g id="xtick_29">
     <g id="line2d_56">
      <g>
       <use xlink:href="#m936c13e07b" x="102.142671" y="297.608168" style="fill: #555555; stroke: #555555; stroke-width: 1.5"/>
      </g>
     </g>
    </g>
    <g id="xtick_30">
     <g id="line2d_57">
      <g>
       <use xlink:href="#m936c13e07b" x="130.802698" y="297.608168" style="fill: #555555; stroke: #555555; stroke-width: 1.5"/>
      </g>
     </g>
    </g>
    <g id="xtick_31">
     <g id="line2d_58">
      <g>
       <use xlink:href="#m936c13e07b" x="188.122752" y="297.608168" style="fill: #555555; stroke: #555555; stroke-width: 1.5"/>
      </g>
     </g>
    </g>
    <g id="xtick_32">
     <g id="line2d_59">
      <g>
       <use xlink:href="#m936c13e07b" x="216.782779" y="297.608168" style="fill: #555555; stroke: #555555; stroke-width: 1.5"/>
      </g>
     </g>
    </g>
    <g id="xtick_33">
     <g id="line2d_60">
      <g>
       <use xlink:href="#m936c13e07b" x="245.442805" y="297.608168" style="fill: #555555; stroke: #555555; stroke-width: 1.5"/>
      </g>
     </g>
    </g>
    <g id="xtick_34">
     <g id="line2d_61">
      <g>
       <use xlink:href="#m936c13e07b" x="302.762859" y="297.608168" style="fill: #555555; stroke: #555555; stroke-width: 1.5"/>
      </g>
     </g>
    </g>
    <g id="xtick_35">
     <g id="line2d_62">
      <g>
       <use xlink:href="#m936c13e07b" x="331.422886" y="297.608168" style="fill: #555555; stroke: #555555; stroke-width: 1.5"/>
      </g>
     </g>
    </g>
    <g id="xtick_36">
     <g id="line2d_63">
      <g>
       <use xlink:href="#m936c13e07b" x="360.082913" y="297.608168" style="fill: #555555; stroke: #555555; stroke-width: 1.5"/>
      </g>
     </g>
    </g>
    <g id="xtick_37">
     <g id="line2d_64">
      <g>
       <use xlink:href="#m936c13e07b" x="417.402967" y="297.608168" style="fill: #555555; stroke: #555555; stroke-width: 1.5"/>
      </g>
     </g>
    </g>
    <g id="xtick_38">
     <g id="line2d_65">
      <g>
       <use xlink:href="#m936c13e07b" x="446.062993" y="297.608168" style="fill: #555555; stroke: #555555; stroke-width: 1.5"/>
      </g>
     </g>
    </g>
    <g id="xtick_39">
     <g id="line2d_66">
      <g>
       <use xlink:href="#m936c13e07b" x="474.72302" y="297.608168" style="fill: #555555; stroke: #555555; stroke-width: 1.5"/>
      </g>
     </g>
    </g>
    <g id="xtick_40">
     <g id="line2d_67">
      <g>
       <use xlink:href="#m936c13e07b" x="532.043074" y="297.608168" style="fill: #555555; stroke: #555555; stroke-width: 1.5"/>
      </g>
     </g>
    </g>
    <g id="xtick_41">
     <g id="line2d_68">
      <g>
       <use xlink:href="#m936c13e07b" x="560.703101" y="297.608168" style="fill: #555555; stroke: #555555; stroke-width: 1.5"/>
      </g>
     </g>
    </g>
    <g id="xtick_42">
     <g id="line2d_69">
      <g>
       <use xlink:href="#m936c13e07b" x="589.363128" y="297.608168" style="fill: #555555; stroke: #555555; stroke-width: 1.5"/>
      </g>
     </g>
    </g>
    <g id="xtick_43">
     <g id="line2d_70">
      <g>
       <use xlink:href="#m936c13e07b" x="646.683181" y="297.608168" style="fill: #555555; stroke: #555555; stroke-width: 1.5"/>
      </g>
     </g>
    </g>
    <g id="xtick_44">
     <g id="line2d_71">
      <g>
       <use xlink:href="#m936c13e07b" x="675.343208" y="297.608168" style="fill: #555555; stroke: #555555; stroke-width: 1.5"/>
      </g>
     </g>
    </g>
   </g>
   <g id="matplotlib.axis_4">
    <g id="ytick_14">
     <g id="line2d_72">
      <path d="M 49.452163 296.877067 
L 684.72 296.877067 
" clip-path="url(#p7be019811c)" style="fill: none; stroke: #ffffff; stroke-width: 1.5; stroke-linecap: square"/>
     </g>
     <g id="line2d_73">
      <g>
       <use xlink:href="#m964f76e715" x="49.452163" y="296.877067" style="fill: #555555; stroke: #555555; stroke-width: 1.875"/>
      </g>
     </g>
     <g id="text_10">
      <!-- $\mathdefault{0.5}$ -->
      <g style="fill: #555555" transform="translate(16.385429 302.58482)scale(0.165 -0.165)">
       <use xlink:href="#CMR17-30" transform="scale(0.996264)"/>
       <use xlink:href="#CMMI12-3a" transform="translate(45.690477 0)scale(0.996264)"/>
       <use xlink:href="#CMR17-35" transform="translate(72.787654 0)scale(0.996264)"/>
      </g>
     </g>
    </g>
    <g id="ytick_15">
     <g id="line2d_74">
      <path d="M 49.452163 247.436068 
L 684.72 247.436068 
" clip-path="url(#p7be019811c)" style="fill: none; stroke: #ffffff; stroke-width: 1.5; stroke-linecap: square"/>
     </g>
     <g id="line2d_75">
      <g>
       <use xlink:href="#m964f76e715" x="49.452163" y="247.436068" style="fill: #555555; stroke: #555555; stroke-width: 1.875"/>
      </g>
     </g>
     <g id="text_11">
      <!-- $\mathdefault{1.0}$ -->
      <g style="fill: #555555" transform="translate(16.385429 253.143821)scale(0.165 -0.165)">
       <use xlink:href="#CMR17-31" transform="scale(0.996264)"/>
       <use xlink:href="#CMMI12-3a" transform="translate(45.690477 0)scale(0.996264)"/>
       <use xlink:href="#CMR17-30" transform="translate(72.787654 0)scale(0.996264)"/>
      </g>
     </g>
    </g>
    <g id="ytick_16">
     <g id="line2d_76">
      <path d="M 49.452163 197.995069 
L 684.72 197.995069 
" clip-path="url(#p7be019811c)" style="fill: none; stroke: #ffffff; stroke-width: 1.5; stroke-linecap: square"/>
     </g>
     <g id="line2d_77">
      <g>
       <use xlink:href="#m964f76e715" x="49.452163" y="197.995069" style="fill: #555555; stroke: #555555; stroke-width: 1.875"/>
      </g>
     </g>
     <g id="text_12">
      <!-- $\mathdefault{1.5}$ -->
      <g style="fill: #555555" transform="translate(16.385429 203.702822)scale(0.165 -0.165)">
       <use xlink:href="#CMR17-31" transform="scale(0.996264)"/>
       <use xlink:href="#CMMI12-3a" transform="translate(45.690477 0)scale(0.996264)"/>
       <use xlink:href="#CMR17-35" transform="translate(72.787654 0)scale(0.996264)"/>
      </g>
     </g>
    </g>
    <g id="ytick_17">
     <g id="line2d_78">
      <g>
       <use xlink:href="#mdde80e03a5" x="49.452163" y="286.988867" style="fill: #555555; stroke: #555555; stroke-width: 1.5"/>
      </g>
     </g>
    </g>
    <g id="ytick_18">
     <g id="line2d_79">
      <g>
       <use xlink:href="#mdde80e03a5" x="49.452163" y="277.100668" style="fill: #555555; stroke: #555555; stroke-width: 1.5"/>
      </g>
     </g>
    </g>
    <g id="ytick_19">
     <g id="line2d_80">
      <g>
       <use xlink:href="#mdde80e03a5" x="49.452163" y="267.212468" style="fill: #555555; stroke: #555555; stroke-width: 1.5"/>
      </g>
     </g>
    </g>
    <g id="ytick_20">
     <g id="line2d_81">
      <g>
       <use xlink:href="#mdde80e03a5" x="49.452163" y="257.324268" style="fill: #555555; stroke: #555555; stroke-width: 1.5"/>
      </g>
     </g>
    </g>
    <g id="ytick_21">
     <g id="line2d_82">
      <g>
       <use xlink:href="#mdde80e03a5" x="49.452163" y="237.547868" style="fill: #555555; stroke: #555555; stroke-width: 1.5"/>
      </g>
     </g>
    </g>
    <g id="ytick_22">
     <g id="line2d_83">
      <g>
       <use xlink:href="#mdde80e03a5" x="49.452163" y="227.659669" style="fill: #555555; stroke: #555555; stroke-width: 1.5"/>
      </g>
     </g>
    </g>
    <g id="ytick_23">
     <g id="line2d_84">
      <g>
       <use xlink:href="#mdde80e03a5" x="49.452163" y="217.771469" style="fill: #555555; stroke: #555555; stroke-width: 1.5"/>
      </g>
     </g>
    </g>
    <g id="ytick_24">
     <g id="line2d_85">
      <g>
       <use xlink:href="#mdde80e03a5" x="49.452163" y="207.883269" style="fill: #555555; stroke: #555555; stroke-width: 1.5"/>
      </g>
     </g>
    </g>
    <g id="ytick_25">
     <g id="line2d_86">
      <g>
       <use xlink:href="#mdde80e03a5" x="49.452163" y="188.106869" style="fill: #555555; stroke: #555555; stroke-width: 1.5"/>
      </g>
     </g>
    </g>
   </g>
   <g id="line2d_87">
    <path d="M 49.452163 281.569896 
L 51.884636 285.183788 
L 54.238643 282.31017 
L 56.671116 285.210269 
L 59.025122 285.699354 
L 63.890069 276.371836 
L 66.244075 265.955451 
L 68.676548 272.60014 
L 71.030554 275.637141 
L 73.463028 274.513709 
L 75.895501 279.961858 
L 78.092573 271.676413 
L 80.525047 277.639569 
L 82.879053 277.372059 
L 85.311526 281.760007 
L 87.665532 284.376485 
L 90.098006 283.986598 
L 92.530479 280.756032 
L 94.884485 280.263586 
L 97.316958 277.413346 
L 99.670965 280.169193 
L 102.103438 283.766303 
L 104.535911 282.815658 
L 106.732984 285.779246 
L 109.165457 287.846637 
L 111.519463 282.017129 
L 113.951936 284.656263 
L 116.305943 278.576663 
L 118.738416 281.2357 
L 121.170889 282.412372 
L 123.524895 285.272948 
L 125.957368 287.812428 
L 128.311375 288.197034 
L 130.743848 289.523787 
L 133.176321 289.955206 
L 135.373394 291.156571 
L 137.805867 291.69281 
L 140.159873 292.411315 
L 142.592346 283.618981 
L 144.946353 286.618833 
L 147.378826 288.406771 
L 149.811299 258.813642 
L 152.165305 254.808636 
L 154.597779 249.097089 
L 156.951785 239.708369 
L 159.384258 250.422792 
L 161.816731 259.730104 
L 164.092271 267.859114 
L 166.524744 257.802763 
L 168.87875 264.297497 
L 171.311223 271.869758 
L 173.66523 233.335721 
L 176.097703 247.824032 
L 178.530176 188.474238 
L 180.884182 208.619157 
L 183.316656 208.708363 
L 185.670662 228.263713 
L 188.103135 243.974693 
L 190.535608 256.094536 
L 192.732681 261.845312 
L 195.165154 241.075582 
L 197.51916 254.099844 
L 199.951633 264.293058 
L 202.30564 265.511268 
L 204.738113 271.335363 
L 207.170586 276.712028 
L 209.524592 263.776432 
L 211.957066 269.873342 
L 214.311072 276.460787 
L 216.743545 280.214869 
L 219.176018 275.172698 
L 221.373091 279.250214 
L 223.805564 283.384931 
L 226.15957 284.665683 
L 228.592044 285.125536 
L 230.94605 286.093399 
L 233.378523 287.263846 
L 235.810996 288.147823 
L 238.165003 285.315215 
L 240.597476 287.65389 
L 242.951482 262.728745 
L 245.383955 267.017973 
L 247.816428 274.208181 
L 250.013501 278.559991 
L 252.445974 274.923788 
L 254.799981 278.901615 
L 257.232454 281.964351 
L 259.58646 277.337465 
L 262.018933 278.520748 
L 264.451406 282.385922 
L 266.805413 283.46965 
L 269.237886 270.940121 
L 271.591892 276.424812 
L 274.024365 278.319136 
L 276.456839 269.023178 
L 278.732378 273.377581 
L 281.164851 247.829468 
L 283.518858 214.016933 
L 285.951331 227.383775 
L 288.305337 242.334994 
L 290.73781 236.126149 
L 293.170283 235.148105 
L 295.52429 247.068747 
L 297.956763 216.5086 
L 300.310769 225.02294 
L 302.743242 238.961445 
L 305.175716 244.588253 
L 307.372788 256.907637 
L 309.805261 253.403184 
L 312.159268 257.405971 
L 314.591741 257.218566 
L 316.945747 255.805853 
L 319.37822 264.049449 
L 321.810694 266.26157 
L 324.1647 269.879527 
L 326.597173 269.066586 
L 328.951179 273.265989 
L 331.383653 272.16385 
L 333.816126 277.873092 
L 336.013198 261.824747 
L 340.799678 274.722441 
L 343.232151 276.712393 
L 345.586157 276.629277 
L 348.018631 281.476915 
L 350.451104 276.63978 
L 352.80511 281.306885 
L 355.237583 275.713312 
L 357.59159 268.690047 
L 360.024063 275.559721 
L 362.456536 266.179359 
L 364.653608 273.640064 
L 369.440088 281.071048 
L 371.872561 284.514126 
L 374.226567 286.966671 
L 376.659041 284.352779 
L 379.091514 285.772905 
L 381.44552 281.59254 
L 383.877993 241.448863 
L 386.232 253.834016 
L 388.664473 258.861967 
L 391.096946 264.482339 
L 393.372485 272.271759 
L 395.804959 269.203488 
L 398.158965 272.262098 
L 400.591438 273.338355 
L 402.945444 263.941239 
L 405.377918 261.831985 
L 407.810391 258.389862 
L 410.164397 265.413354 
L 412.59687 263.505192 
L 414.950877 270.176802 
L 417.38335 270.251697 
L 419.815823 276.160841 
L 424.445369 283.59705 
L 426.799375 284.586025 
L 429.231848 287.37911 
L 431.585855 284.169044 
L 434.018328 285.092001 
L 436.450801 266.122816 
L 438.804807 268.626995 
L 441.23728 270.245942 
L 443.591287 276.514698 
L 446.02376 278.708229 
L 448.456233 281.646122 
L 450.653306 284.97598 
L 453.085779 276.860024 
L 455.439785 280.551882 
L 460.226265 285.898566 
L 462.658738 273.932604 
L 465.091211 247.972476 
L 467.445217 253.287218 
L 469.877691 248.68511 
L 472.231697 244.912661 
L 474.66417 256.064358 
L 477.096643 265.874451 
L 479.293716 268.919723 
L 481.726189 270.919997 
L 484.080195 273.047339 
L 486.512669 278.862693 
L 488.866675 280.353675 
L 491.299148 269.502864 
L 493.731621 266.600689 
L 496.085628 267.521584 
L 498.518101 274.685034 
L 500.872107 279.940344 
L 503.30458 283.895845 
L 505.737053 286.283778 
L 508.012593 288.29261 
L 510.445066 288.802366 
L 512.799072 286.399192 
L 515.231546 272.209535 
L 517.585552 276.006323 
L 520.018025 273.502089 
L 522.450498 258.60032 
L 524.804505 261.496426 
L 527.236978 270.058111 
L 529.590984 273.485451 
L 532.023457 278.80405 
L 534.45593 281.808952 
L 536.653003 284.946492 
L 539.085476 287.610055 
L 541.439482 278.756156 
L 543.871956 283.089338 
L 546.225962 283.756805 
L 548.658435 285.714093 
L 551.090908 284.874331 
L 553.444915 282.876479 
L 558.231394 287.883564 
L 560.663867 289.755813 
L 563.096341 289.777843 
L 565.293413 289.562534 
L 567.725886 287.151269 
L 570.079893 289.034119 
L 572.512366 290.568871 
L 574.866372 290.31765 
L 577.298845 259.355105 
L 579.731318 266.186227 
L 582.085325 267.084657 
L 584.517798 274.352189 
L 586.871804 279.840713 
L 589.304277 281.012846 
L 591.736751 284.728913 
L 593.933823 286.875569 
L 596.366296 288.835873 
L 598.720303 289.186292 
L 601.152776 288.290163 
L 603.506782 289.058025 
L 605.939255 289.699767 
L 608.371729 288.36654 
L 610.725735 290.060511 
L 613.158208 288.976844 
L 615.512214 289.886429 
L 617.944688 285.967867 
L 620.377161 280.312483 
L 622.6527 274.311974 
L 625.085173 279.464342 
L 627.43918 283.532347 
L 629.871653 284.518745 
L 632.225659 286.820402 
L 634.658132 286.65018 
L 637.090606 288.745547 
L 639.444612 285.066458 
L 641.877085 281.880396 
L 644.231091 284.42243 
L 649.096038 267.222995 
L 651.29311 272.756292 
L 653.725584 278.12804 
L 656.07959 282.207411 
L 658.512063 280.12584 
L 660.866069 283.975016 
L 663.298543 280.946903 
L 665.731016 281.445207 
L 668.085022 280.756796 
L 670.517495 283.186281 
L 672.871502 286.204882 
L 675.303975 287.515774 
L 677.736448 279.148023 
L 679.93352 270.88419 
L 682.365994 268.397391 
L 684.72 275.066728 
L 684.72 275.066728 
" clip-path="url(#p7be019811c)" style="fill: none; stroke: #4d3c2f; stroke-width: 2.25; stroke-linecap: square"/>
   </g>
   <g id="patch_6">
    <path d="M 49.452163 297.608168 
L 49.452163 183.277384 
" style="fill: none; stroke: #ffffff; stroke-width: 1.875; stroke-linejoin: miter; stroke-linecap: square"/>
   </g>
   <g id="patch_7">
    <path d="M 49.452163 297.608168 
L 684.72 297.608168 
" style="fill: none; stroke: #ffffff; stroke-width: 1.875; stroke-linejoin: miter; stroke-linecap: square"/>
   </g>
   <g id="text_13">
    <!-- Conditional Volatility -->
    <g transform="translate(289.270362 177.277384)scale(0.18 -0.18)">
     <defs>
      <path id="CMR17-43" d="M 3974 4289 
C 3974 4403 3968 4410 3930 4410 
C 3904 4410 3898 4403 3853 4327 
L 3571 3792 
C 3258 4187 2874 4416 2381 4416 
C 1286 4416 294 3456 294 2148 
C 294 826 1286 -128 2387 -128 
C 3366 -128 3974 730 3974 1461 
C 3974 1524 3974 1550 3917 1550 
C 3866 1550 3866 1531 3859 1474 
C 3808 585 3168 38 2477 38 
C 1824 38 781 495 781 2147 
C 781 3805 1843 4250 2464 4250 
C 3187 4250 3712 3628 3834 2745 
C 3846 2668 3846 2655 3904 2655 
C 3974 2655 3974 2668 3974 2783 
L 3974 4289 
z
" transform="scale(0.015625)"/>
      <path id="CMR17-6f" d="M 2758 1356 
C 2758 2176 2163 2816 1466 2816 
C 768 2816 173 2176 173 1356 
C 173 551 768 -64 1466 -64 
C 2163 -64 2758 551 2758 1356 
z
M 1466 51 
C 1165 51 909 230 762 480 
C 602 767 582 1126 582 1408 
C 582 1677 595 2010 762 2298 
C 890 2509 1139 2714 1466 2714 
C 1754 2714 1997 2554 2150 2330 
C 2349 2029 2349 1607 2349 1408 
C 2349 1158 2336 775 2163 467 
C 1984 173 1709 51 1466 51 
z
" transform="scale(0.015625)"/>
      <path id="CMR17-56" d="M 3776 3745 
C 3834 3886 3936 4160 4365 4160 
L 4365 4332 
C 4218 4319 4051 4319 3891 4319 
C 3738 4319 3475 4319 3328 4332 
L 3328 4160 
C 3648 4160 3661 3936 3661 3898 
C 3661 3827 3642 3783 3622 3732 
L 2362 446 
L 1043 3886 
C 1024 3931 1011 3963 1011 3994 
C 1011 4160 1267 4160 1402 4160 
L 1402 4319 
C 1197 4319 896 4319 685 4319 
C 518 4319 218 4319 64 4332 
L 64 4160 
C 435 4160 506 4135 582 3931 
L 2106 -26 
C 2138 -115 2144 -128 2214 -128 
C 2285 -128 2291 -115 2323 -26 
L 3776 3745 
z
" transform="scale(0.015625)"/>
      <path id="CMR17-79" d="M 2496 2197 
C 2656 2586 2944 2586 3034 2586 
L 3034 2752 
C 2912 2752 2752 2752 2630 2752 
C 2496 2752 2285 2752 2157 2758 
L 2157 2592 
C 2400 2573 2406 2394 2406 2343 
C 2406 2280 2394 2248 2362 2171 
L 1664 449 
L 902 2306 
C 870 2382 870 2426 870 2433 
C 870 2573 1018 2586 1171 2586 
L 1171 2758 
C 1018 2752 742 2752 582 2752 
C 410 2752 205 2752 64 2758 
L 64 2586 
C 410 2586 448 2554 531 2350 
L 1485 15 
C 1197 -738 1030 -1178 627 -1178 
C 557 -1178 397 -1159 282 -1044 
C 429 -1031 493 -942 493 -833 
C 493 -725 416 -629 288 -629 
C 147 -629 77 -725 77 -840 
C 77 -1095 339 -1280 627 -1280 
C 998 -1280 1229 -922 1357 -604 
L 2496 2197 
z
" transform="scale(0.015625)"/>
     </defs>
     <use xlink:href="#CMR17-43" transform="scale(0.996264)"/>
     <use xlink:href="#CMR17-6f" transform="translate(66.509881 0)scale(0.996264)"/>
     <use xlink:href="#CMR17-6e" transform="translate(112.200358 0)scale(0.996264)"/>
     <use xlink:href="#CMR17-64" transform="translate(163.095727 0)scale(0.996264)"/>
     <use xlink:href="#CMR17-69" transform="translate(213.991097 0)scale(0.996264)"/>
     <use xlink:href="#CMR17-74" transform="translate(238.862156 0)scale(0.996264)"/>
     <use xlink:href="#CMR17-69" transform="translate(274.142924 0)scale(0.996264)"/>
     <use xlink:href="#CMR17-6f" transform="translate(299.013982 0)scale(0.996264)"/>
     <use xlink:href="#CMR17-6e" transform="translate(344.704459 0)scale(0.996264)"/>
     <use xlink:href="#CMR17-61" transform="translate(395.599829 0)scale(0.996264)"/>
     <use xlink:href="#CMR17-6c" transform="translate(441.290306 0)scale(0.996264)"/>
     <use xlink:href="#CMR17-56" transform="translate(496.237331 0)scale(0.996264)"/>
     <use xlink:href="#CMR17-6f" transform="translate(557.502505 0)scale(0.996264)"/>
     <use xlink:href="#CMR17-6c" transform="translate(603.192982 0)scale(0.996264)"/>
     <use xlink:href="#CMR17-61" transform="translate(628.064041 0)scale(0.996264)"/>
     <use xlink:href="#CMR17-74" transform="translate(673.754518 0)scale(0.996264)"/>
     <use xlink:href="#CMR17-69" transform="translate(709.035286 0)scale(0.996264)"/>
     <use xlink:href="#CMR17-6c" transform="translate(733.906344 0)scale(0.996264)"/>
     <use xlink:href="#CMR17-69" transform="translate(758.777403 0)scale(0.996264)"/>
     <use xlink:href="#CMR17-74" transform="translate(783.648461 0)scale(0.996264)"/>
     <use xlink:href="#CMR17-79" transform="translate(816.326775 0)scale(0.996264)"/>
    </g>
   </g>
  </g>
 </g>
 <defs>
  <clipPath id="paa9ad83c32">
   <rect x="49.452163" y="22.0533" width="635.267837" height="114.330784"/>
  </clipPath>
  <clipPath id="p7be019811c">
   <rect x="49.452163" y="183.277384" width="635.267837" height="114.330784"/>
  </clipPath>
 </defs>
</svg>
