<svg class="main-svg" xmlns="http://www.w3.org/2000/svg" xmlns:xlink="http://www.w3.org/1999/xlink" width="1500" height="1500" style="" viewBox="0 0 500 500"><rect x="0" y="0" width="500" height="500" style="fill: rgb(255, 255, 255); fill-opacity: 1;"/><defs id="defs-b9465a"><g class="clips"><clipPath id="clipb9465axyplot" class="plotclip"><rect width="364" height="437"/></clipPath><clipPath class="axesclip" id="clipb9465ax"><rect x="26" y="0" width="364" height="500"/></clipPath><clipPath class="axesclip" id="clipb9465ay"><rect x="0" y="40" width="500" height="437"/></clipPath><clipPath class="axesclip" id="clipb9465axy"><rect x="26" y="40" width="364" height="437"/></clipPath><clipPath class="contourclip" id="clip0e273b"><path d="M0,0L364,0L364,437L0,437Z"/></clipPath></g><g class="gradients"/><g class="patterns"/></defs><g class="bglayer"><rect class="bg" x="26" y="40" width="364" height="437" style="fill: rgb(237, 237, 237); fill-opacity: 1; stroke-width: 0;"/></g><g class="layer-below"><g class="imagelayer"/><g class="shapelayer"/></g><g class="cartesianlayer"><g class="subplot xy"><g class="layer-subplot"><g class="shapelayer"/><g class="imagelayer"/></g><g class="gridlayer"><g class="x"><path class="xgrid crisp" transform="translate(84.61,0)" d="M0,40v437" style="stroke: rgb(255, 255, 255); stroke-opacity: 1; stroke-width: 1px;"/><path class="xgrid crisp" transform="translate(331.39,0)" d="M0,40v437" style="stroke: rgb(255, 255, 255); stroke-opacity: 1; stroke-width: 1px;"/></g><g class="y"><path class="ygrid crisp" transform="translate(0,406.64)" d="M26,0h364" style="stroke: rgb(255, 255, 255); stroke-opacity: 1; stroke-width: 1px;"/><path class="ygrid crisp" transform="translate(0,332.57)" d="M26,0h364" style="stroke: rgb(255, 255, 255); stroke-opacity: 1; stroke-width: 1px;"/><path class="ygrid crisp" transform="translate(0,184.43)" d="M26,0h364" style="stroke: rgb(255, 255, 255); stroke-opacity: 1; stroke-width: 1px;"/><path class="ygrid crisp" transform="translate(0,110.36)" d="M26,0h364" style="stroke: rgb(255, 255, 255); stroke-opacity: 1; stroke-width: 1px;"/></g></g><g class="zerolinelayer"><path class="xzl zl crisp" transform="translate(208,0)" d="M0,40v437" style="stroke: rgb(255, 255, 255); stroke-opacity: 1; stroke-width: 1px;"/><path class="yzl zl crisp" transform="translate(0,258.5)" d="M26,0h364" style="stroke: rgb(255, 255, 255); stroke-opacity: 1; stroke-width: 1px;"/></g><path class="xlines-below"/><path class="ylines-below"/><g class="overlines-below"/><g class="xaxislayer-below"/><g class="yaxislayer-below"/><g class="overaxes-below"/><g class="plot" transform="translate(26,40)" clip-path="url(#clipb9465axyplot)"><g class="contourlayer mlayer"><g class="contour" clip-path="url(#clip0e273b)" style="opacity: 1;"><g class="heatmapcoloring"/><g class="contourbg"/><g class="contourfill"/><g class="contourlines"><g class="contourlevel"><path class="openline" d="M364,370.39Q361.49,373.56 360.25,375.11C359.04,376.63 357.85,378.11 356.65,379.62C355.45,381.13 354.26,382.64 353.06500000000005,384.15C351.87,385.65 350.64,387.18 349.46000000000004,388.65C348.31,390.08 346.67,392.12 346.07,392.86C345.85,393.13 345.84,393.14 345.62,393.41C345.04,394.12 343.08,396.53 342.47,397.27C342.22,397.57 342.19,397.61 341.94,397.91C341.33,398.64 339.45,400.94 338.83,401.69C338.56,402.01 338.53,402.05 338.26,402.37C337.64,403.11 335.77,405.36 335.15,406.1C334.89,406.42 334.85,406.46 334.59,406.78C333.97,407.53 332.05,409.79 331.44,410.52C331.19,410.82 331.16,410.85 330.91,411.15C330.29,411.88 328.28,414.24 327.69,414.93C327.47,415.19 327.46,415.21 327.23,415.47C326.61,416.2 324.92,418.17 323.73,419.54499999999996C322.5,420.97 321.23,422.44 319.975,423.875C318.72,425.31 317.45,426.73 316.2,428.17C314.95,429.61 313.72,431.05 312.45,432.505Q311.16,433.99 308.51,437" style="stroke-miterlimit: 1; vector-effect: non-scaling-stroke; fill: none; stroke: rgb(34, 30, 27); stroke-opacity: 1; stroke-width: 2px;"/><path class="openline" d="M0,66.61Q2.51,63.44 3.75,61.89C4.96,60.37 6.15,58.89 7.35,57.38C8.55,55.87 9.74,54.36 10.934999999999999,52.849999999999994C12.13,51.35 13.36,49.82 14.54,48.35C15.69,46.92 17.33,44.88 17.93,44.14C18.15,43.87 18.16,43.86 18.38,43.59C18.96,42.88 20.92,40.47 21.53,39.73C21.78,39.43 21.81,39.39 22.06,39.09C22.67,38.36 24.55,36.06 25.17,35.31C25.44,34.99 25.47,34.95 25.74,34.63C26.36,33.89 28.23,31.64 28.85,30.9C29.11,30.58 29.15,30.54 29.41,30.22C30.03,29.47 31.95,27.21 32.56,26.48C32.81,26.18 32.84,26.15 33.09,25.85C33.71,25.12 35.72,22.76 36.31,22.07C36.53,21.81 36.54,21.79 36.77,21.53C37.39,20.8 39.08,18.83 40.269999999999996,17.455C41.5,16.03 42.77,14.56 44.025,13.125C45.28,11.69 46.55,10.27 47.8,8.83C49.05,7.39 50.28,5.95 51.55,4.495Q52.84,3.01 55.49,0" style="stroke-miterlimit: 1; vector-effect: non-scaling-stroke; fill: none; stroke: rgb(34, 30, 27); stroke-opacity: 1; stroke-width: 2px;"/></g><g class="contourlevel"><path class="closedline" d="M84.57,384.11C83.9,384.1 83.49,384.06 82.91,384.03C82.27,384 81.66,383.99 80.89,383.93C79.84,383.84 78.43,383.69 77.21,383.5C75.98,383.3 74.76,383.07 73.54,382.76C72.31,382.45 71.07,382.09 69.86,381.65C68.62,381.2 66.98,380.47 66.18,380.09C65.78,379.9 65.67,379.83 65.29,379.62C64.62,379.25 63.48,378.67 62.51,378.03C61.34,377.26 59.99,376.28 58.79,375.235C57.53,374.14 55.87,372.36 55.15,371.58C54.83,371.23 54.78,371.17 54.49,370.79C53.83,369.93 52.35,367.91 51.445,366.42C50.57,364.97 49.76,363.35 49.12,361.96C48.58,360.78 48.11,359.43 47.8,358.62C47.63,358.17 47.56,358.03 47.4,357.55C47.08,356.58 46.48,354.61 46.11,353.13C45.74,351.67 45.44,350.2 45.18,348.72C44.92,347.25 44.72,345.77 44.56,344.3C44.4,342.83 44.27,341.14 44.2,339.89C44.15,338.96 44.15,338.23 44.12,337.46C44.1,336.76 44.06,336.27 44.05,335.47C44.04,334.26 44.06,332.4 44.11,330.905C44.16,329.46 44.22,328.08 44.32,326.65C44.42,325.19 44.55,323.7 44.7,322.23C44.85,320.76 45.02,319.29 45.22,317.82C45.42,316.35 45.64,314.87 45.88,313.4C46.12,311.93 46.39,310.46 46.68,308.99C46.97,307.52 47.45,305.39 47.64,304.58C47.71,304.27 47.73,304.24 47.8,303.93C47.97,303.19 48.33,301.46 48.64,300.16C48.98,298.75 49.36,297.22 49.76,295.75C50.16,294.27 50.71,292.39 51.03,291.33C51.21,290.73 51.3,290.49 51.47,289.94C51.72,289.13 52.01,288.02 52.35,286.92C52.76,285.59 53.27,283.95 53.76,282.51C54.24,281.1 54.74,279.78 55.239999999999995,278.355C55.77,276.84 56.3,275.23 56.88,273.68C57.46,272.12 58.13,270.52 58.72,269.005C59.28,267.58 59.76,266.25 60.33,264.85C60.92,263.39 61.88,261.23 62.23,260.43C62.36,260.13 62.38,260.11 62.51,259.82C62.83,259.1 63.52,257.33 64.1,256.02C64.73,254.59 65.49,253.07 66.17500000000001,251.59500000000003C66.85,250.13 67.53,248.55 68.18,247.19C68.75,245.99 69.47,244.65 69.86,243.84C70.08,243.39 70.13,243.25 70.36,242.78C70.83,241.81 71.97,239.51 72.56,238.36C72.94,237.62 73.2,237.2 73.54,236.54C73.95,235.76 74.33,234.92 74.84,233.95C75.51,232.68 76.44,231.05 77.235,229.58999999999997C78.04,228.11 78.96,226.34 79.64,225.12C80.12,224.27 80.48,223.7 80.89,222.97C81.31,222.23 81.64,221.58 82.14,220.71C82.83,219.51 83.81,217.91 84.66999999999999,216.46499999999997C85.56,214.97 86.72,212.96 87.38,211.88C87.74,211.28 87.9,211.04 88.24,210.49C88.74,209.68 89.45,208.45 90.07,207.46C90.68,206.48 91.41,205.39 91.92,204.58C92.29,203.99 92.46,203.69 92.87,203.05C93.55,201.98 94.73,200.22 95.68,198.76999999999998C96.66,197.28 98.05,195.14 98.67,194.22C98.94,193.81 99,193.73 99.27,193.34C99.8,192.56 100.96,190.8 101.64,189.81C102.14,189.09 102.48,188.62 102.95,187.95C103.5,187.17 104.11,186.25 104.71,185.39C105.33,184.51 106.06,183.53 106.63,182.73C107.09,182.09 107.38,181.65 107.86,180.98C108.53,180.05 109.71,178.47 110.3,177.66C110.64,177.2 110.75,177.04 111.1,176.57C111.76,175.68 113.44,173.46 113.98,172.74C114.19,172.46 114.2,172.44 114.42,172.15C115.01,171.37 116.61,169.29 117.735,167.84C118.9,166.34 120.11,164.8 121.305,163.29C122.5,161.78 123.7,160.28 124.91499999999999,158.79C126.12,157.3 127.34,155.82 128.565,154.345C129.79,152.88 131.02,151.42 132.265,149.965C133.51,148.51 134.76,147.07 136.015,145.635C137.27,144.2 138.56,142.75 139.805,141.345C141.01,139.99 142.74,138.06 143.39,137.36C143.63,137.1 143.65,137.09 143.88,136.84C144.48,136.2 146.33,134.17 147.07,133.38C147.46,132.96 147.59,132.83 147.98,132.42C148.65,131.71 149.97,130.3 150.75,129.49C151.31,128.91 151.67,128.56 152.2,128.01C152.86,127.33 153.68,126.46 154.42,125.71C155.13,124.99 155.9,124.25 156.55,123.6C157.11,123.04 157.5,122.63 158.1,122.03C158.92,121.22 160.39,119.82 161.04,119.18C161.37,118.86 161.44,118.79 161.78,118.46C162.55,117.72 164.32,116.05 165.565,114.87C166.77,113.73 168.23,112.31 169.13,111.49C169.66,111 169.92,110.8 170.41,110.35C171.09,109.73 171.99,108.86 172.81,108.13C173.63,107.39 174.66,106.54 175.33,105.94C175.79,105.53 175.98,105.34 176.48,104.9C177.38,104.11 179.06,102.72 180.305,101.65C181.51,100.62 182.84,99.45 183.84,98.62C184.56,98.02 185.11,97.62 185.73,97.11C186.34,96.61 186.81,96.18 187.52,95.61C188.53,94.8 190.01,93.69 191.235,92.73C192.46,91.77 193.81,90.66 194.87,89.85C195.68,89.24 196.38,88.77 197.03,88.28C197.58,87.87 197.93,87.57 198.55,87.11C199.5,86.4 201.41,85.03 202.22,84.47C202.61,84.2 202.73,84.13 203.11,83.87C203.78,83.4 204.9,82.54 205.9,81.85C207.03,81.07 208.34,80.26 209.565,79.445C210.79,78.63 212.06,77.72 213.25,76.96C214.34,76.26 215.82,75.42 216.42,75.04C216.66,74.89 216.68,74.87 216.93,74.71C217.59,74.29 219.39,73.15 220.61,72.43C221.77,71.75 222.88,71.17 224.07,70.5C225.33,69.79 226.65,68.99 227.96,68.29C229.25,67.6 230.6,66.96 231.86,66.315C233.05,65.71 234.13,65.11 235.31,64.54C236.51,63.96 237.88,63.34 238.99,62.85C239.91,62.45 240.83,62.1 241.51,61.8C241.97,61.6 242.17,61.49 242.67,61.27C243.55,60.89 245.11,60.22 246.34,59.74C247.56,59.26 248.84,58.8 250.02,58.39C251.1,58.02 252.55,57.59 253.16,57.38C253.42,57.29 253.44,57.28 253.7,57.19C254.38,56.97 256.14,56.4 257.37,56.05C258.59,55.7 259.82,55.38 261.05,55.08C262.27,54.79 263.5,54.52 264.73,54.28C265.95,54.04 267.17,53.84 268.4,53.66C269.62,53.48 270.86,53.33 272.08,53.21C273.27,53.1 274.43,53.01 275.63,52.96C276.87,52.9 278.42,52.88 279.43,52.89C280.1,52.9 280.51,52.94 281.09,52.97C281.73,53 282.34,53.01 283.11,53.07C284.16,53.16 285.57,53.31 286.79,53.5C288.02,53.7 289.24,53.93 290.46,54.24C291.69,54.55 292.93,54.91 294.14,55.35C295.38,55.8 297.02,56.53 297.82,56.91C298.22,57.1 298.33,57.17 298.71,57.38C299.38,57.75 300.52,58.33 301.49,58.97C302.66,59.74 304.01,60.72 305.21000000000004,61.765C306.47,62.86 308.13,64.64 308.85,65.42C309.17,65.77 309.22,65.83 309.51,66.21C310.17,67.07 311.65,69.09 312.55499999999995,70.58C313.43,72.03 314.24,73.65 314.88,75.04C315.42,76.22 315.89,77.57 316.2,78.38C316.37,78.83 316.44,78.97 316.6,79.45C316.92,80.42 317.52,82.39 317.89,83.87C318.26,85.33 318.56,86.8 318.82,88.28C319.08,89.75 319.28,91.23 319.44,92.7C319.6,94.17 319.73,95.86 319.8,97.11C319.85,98.04 319.85,98.77 319.88,99.54C319.9,100.24 319.94,100.73 319.95,101.53C319.96,102.74 319.94,104.6 319.89,106.095C319.84,107.54 319.78,108.92 319.68,110.35C319.58,111.81 319.45,113.3 319.3,114.77C319.15,116.24 318.98,117.71 318.78,119.18C318.58,120.65 318.36,122.13 318.12,123.6C317.88,125.07 317.61,126.54 317.32,128.01C317.03,129.48 316.55,131.61 316.36,132.42C316.29,132.73 316.27,132.76 316.2,133.07C316.03,133.81 315.67,135.54 315.36,136.84C315.02,138.25 314.64,139.78 314.24,141.25C313.84,142.73 313.29,144.61 312.97,145.67C312.79,146.27 312.7,146.51 312.53,147.06C312.28,147.87 311.99,148.98 311.65,150.08C311.24,151.41 310.73,153.05 310.24,154.49C309.76,155.9 309.26,157.22 308.76,158.64499999999998C308.23,160.16 307.7,161.77 307.12,163.32C306.54,164.88 305.87,166.48 305.28,167.995C304.72,169.42 304.24,170.75 303.67,172.15C303.08,173.61 302.12,175.77 301.77,176.57C301.64,176.87 301.62,176.89 301.49,177.18C301.17,177.9 300.48,179.67 299.9,180.98C299.27,182.41 298.51,183.93 297.825,185.40499999999997C297.15,186.87 296.47,188.45 295.82,189.81C295.25,191.01 294.53,192.35 294.14,193.16C293.92,193.61 293.87,193.75 293.64,194.22C293.17,195.19 292.03,197.49 291.44,198.64C291.06,199.38 290.8,199.8 290.46,200.46C290.05,201.24 289.67,202.08 289.16,203.05C288.49,204.32 287.56,205.95 286.765,207.41000000000003C285.96,208.89 285.04,210.66 284.36,211.88C283.88,212.73 283.52,213.3 283.11,214.03C282.69,214.77 282.36,215.42 281.86,216.29C281.17,217.49 280.19,219.09 279.33000000000004,220.53500000000003C278.44,222.03 277.28,224.04 276.62,225.12C276.26,225.72 276.1,225.96 275.76,226.51C275.26,227.32 274.55,228.55 273.93,229.54C273.32,230.52 272.59,231.61 272.08,232.42C271.71,233.01 271.54,233.31 271.13,233.95C270.45,235.02 269.27,236.78 268.32,238.23000000000002C267.34,239.72 265.95,241.86 265.33,242.78C265.06,243.19 265,243.27 264.73,243.66C264.2,244.44 263.04,246.2 262.36,247.19C261.86,247.91 261.52,248.38 261.05,249.05C260.5,249.83 259.89,250.75 259.29,251.61C258.67,252.49 257.94,253.47 257.37,254.27C256.91,254.91 256.62,255.35 256.14,256.02C255.47,256.95 254.29,258.53 253.7,259.34C253.36,259.8 253.25,259.96 252.9,260.43C252.24,261.32 250.56,263.54 250.02,264.26C249.81,264.54 249.8,264.56 249.58,264.85C248.99,265.63 247.39,267.71 246.265,269.15999999999997C245.1,270.66 243.89,272.2 242.695,273.71000000000004C241.5,275.22 240.3,276.72 239.085,278.21C237.88,279.7 236.66,281.18 235.435,282.655C234.21,284.12 232.98,285.58 231.735,287.03499999999997C230.49,288.49 229.24,289.93 227.985,291.365C226.73,292.8 225.44,294.25 224.195,295.655C222.99,297.01 221.26,298.94 220.61,299.64C220.37,299.9 220.35,299.91 220.12,300.16C219.52,300.8 217.67,302.83 216.93,303.62C216.54,304.04 216.41,304.17 216.02,304.58C215.35,305.29 214.03,306.7 213.25,307.51C212.69,308.09 212.33,308.44 211.8,308.99C211.14,309.67 210.32,310.54 209.58,311.29C208.87,312.01 208.1,312.75 207.45,313.4C206.89,313.96 206.5,314.37 205.9,314.97C205.08,315.78 203.61,317.18 202.96,317.82C202.63,318.14 202.56,318.21 202.22,318.54C201.45,319.28 199.68,320.95 198.435,322.13C197.23,323.27 195.77,324.69 194.87,325.51C194.34,326 194.08,326.2 193.59,326.65C192.91,327.27 192.01,328.14 191.19,328.87C190.37,329.61 189.34,330.46 188.67,331.06C188.21,331.47 188.02,331.66 187.52,332.1C186.62,332.89 184.94,334.28 183.695,335.35C182.49,336.38 181.16,337.55 180.16,338.38C179.44,338.98 178.89,339.38 178.27,339.89C177.66,340.39 177.19,340.82 176.48,341.39C175.47,342.2 173.99,343.31 172.765,344.27C171.54,345.23 170.19,346.34 169.13,347.15C168.32,347.76 167.62,348.23 166.97,348.72C166.42,349.13 166.07,349.43 165.45,349.89C164.5,350.6 162.59,351.97 161.78,352.53C161.39,352.8 161.27,352.87 160.89,353.13C160.22,353.6 159.1,354.46 158.1,355.15C156.97,355.93 155.66,356.74 154.435,357.555C153.21,358.37 151.94,359.28 150.75,360.04C149.66,360.74 148.18,361.58 147.58,361.96C147.34,362.11 147.32,362.13 147.07,362.29C146.41,362.71 144.61,363.85 143.39,364.57C142.23,365.25 141.12,365.83 139.93,366.5C138.67,367.21 137.35,368.01 136.04,368.71C134.75,369.4 133.4,370.04 132.14,370.685C130.95,371.29 129.87,371.89 128.69,372.46C127.49,373.04 126.12,373.66 125.01,374.15C124.09,374.55 123.17,374.9 122.49,375.2C122.03,375.4 121.83,375.51 121.33,375.73C120.45,376.11 118.89,376.78 117.66,377.26C116.44,377.74 115.16,378.2 113.98,378.61C112.9,378.98 111.45,379.41 110.84,379.62C110.58,379.71 110.56,379.72 110.3,379.81C109.62,380.03 107.86,380.6 106.63,380.95C105.41,381.3 104.18,381.62 102.95,381.92C101.73,382.21 100.5,382.48 99.27,382.72C98.05,382.96 96.83,383.16 95.6,383.34C94.38,383.52 93.14,383.67 91.92,383.79C90.73,383.9 89.57,383.99 88.37,384.03999999999996C87.13,384.1 85.58,384.12 84.57,384.11Z" style="stroke-miterlimit: 1; vector-effect: non-scaling-stroke; fill: none; stroke: rgb(59, 46, 38); stroke-opacity: 1; stroke-width: 2px;"/></g><g class="contourlevel"><path class="closedline" d="M88.025,357.62C86.83,357.25 85.72,356.85 84.57,356.34C83.35,355.79 81.89,355.02 80.89,354.41C80.15,353.96 79.65,353.58 79.04,353.13C78.42,352.68 77.87,352.29 77.21,351.7C76.32,350.91 74.88,349.42 74.24,348.72C73.91,348.36 73.83,348.26 73.54,347.87C72.95,347.1 71.71,345.36 71.05,344.3C70.55,343.5 70.24,342.85 69.86,342.11C69.48,341.38 69.16,340.77 68.79,339.89C68.28,338.68 67.63,336.93 67.18,335.47C66.75,334.08 66.43,332.75 66.12,331.32C65.8,329.82 65.51,328.19 65.3,326.65C65.1,325.16 64.97,323.7 64.87,322.23C64.77,320.76 64.73,319.29 64.71,317.82C64.69,316.35 64.71,314.87 64.77,313.4C64.83,311.93 64.93,310.46 65.05,308.99C65.18,307.52 65.33,306.05 65.52,304.58C65.71,303.09 65.93,301.58 66.17,300.1C66.4,298.64 66.65,297.2 66.92,295.75C67.2,294.28 67.49,292.8 67.82,291.33C68.15,289.86 68.52,288.31 68.88,286.92C69.2,285.66 69.66,284.13 69.86,283.35C69.96,282.97 69.97,282.9 70.07,282.51C70.31,281.61 70.88,279.56 71.33,278.09C71.78,276.62 72.34,274.9 72.75,273.68C73.04,272.81 73.29,272.19 73.54,271.45C73.79,270.72 73.96,270.11 74.25,269.26C74.67,268.04 75.33,266.22 75.85,264.85C76.31,263.63 76.9,262.23 77.21,261.43C77.38,261 77.41,260.88 77.58,260.43C77.95,259.48 78.77,257.4 79.35,256.02C79.87,254.79 80.55,253.33 80.89,252.54C81.06,252.13 81.09,252.03 81.27,251.61C81.67,250.68 82.63,248.49 83.23,247.19C83.71,246.15 84.19,245.23 84.57,244.42C84.86,243.8 84.99,243.46 85.31,242.78C85.84,241.66 86.93,239.44 87.47,238.36C87.79,237.73 87.95,237.46 88.24,236.88C88.65,236.07 89.15,235.01 89.7,233.95C90.37,232.66 91.21,231.13 91.99000000000001,229.68C92.79,228.18 93.77,226.33 94.44,225.12C94.89,224.31 95.2,223.8 95.6,223.1C96.03,222.34 96.4,221.61 96.92,220.71C97.61,219.5 98.55,217.95 99.4,216.515C100.3,215.01 101.53,212.93 102.17,211.88C102.51,211.33 102.63,211.14 102.95,210.63C103.45,209.82 104.25,208.47 104.89,207.46C105.48,206.53 106.12,205.58 106.63,204.78C107.04,204.14 107.27,203.74 107.72,203.05C108.39,202.01 109.84,199.87 110.3,199.17C110.47,198.91 110.47,198.9 110.65,198.64C111.17,197.86 112.78,195.49 113.81,193.98000000000002C114.79,192.55 115.99,190.81 116.7,189.81C117.1,189.24 117.28,189.01 117.66,188.47C118.24,187.65 119.19,186.3 119.85,185.39C120.39,184.65 120.82,184.09 121.33,183.39C121.89,182.62 122.5,181.79 123.1,180.98C123.72,180.15 124.42,179.25 125.01,178.47C125.52,177.79 125.91,177.27 126.45,176.57C127.11,175.71 128.06,174.51 128.69,173.7C129.15,173.1 129.42,172.75 129.9,172.15C130.57,171.3 131.71,169.88 132.36,169.07C132.79,168.53 133,168.28 133.44,167.74C134.12,166.91 135.37,165.38 136.04,164.57C136.46,164.06 136.65,163.83 137.08,163.32C137.76,162.51 139.03,161.01 139.72,160.2C140.17,159.68 140.38,159.43 140.83,158.91C141.51,158.12 142.68,156.76 143.39,155.95C143.89,155.38 144.18,155.05 144.68,154.49C145.35,153.73 146.35,152.6 147.07,151.81C147.65,151.17 148.09,150.7 148.66,150.08C149.31,149.37 150.06,148.54 150.75,147.79C151.42,147.07 152.11,146.35 152.75,145.67C153.33,145.05 153.8,144.54 154.42,143.89C155.18,143.09 156.31,141.95 156.99,141.25C157.44,140.79 157.62,140.58 158.1,140.1C158.93,139.25 160.39,137.81 161.57999999999998,136.635C162.83,135.4 164.79,133.47 165.45,132.84C165.67,132.63 165.68,132.63 165.9,132.42C166.49,131.87 168.26,130.13 169.13,129.32C169.7,128.79 170.04,128.5 170.57,128.01C171.24,127.4 172.03,126.63 172.81,125.92C173.65,125.16 174.78,124.2 175.45,123.6C175.87,123.22 176.02,123.06 176.48,122.66C177.35,121.89 179.09,120.41 180.35,119.33500000000001C181.54,118.31 182.83,117.19 183.84,116.36C184.59,115.74 185.2,115.29 185.83,114.77C186.42,114.29 186.84,113.92 187.52,113.37C188.53,112.56 190.07,111.4 191.31,110.44C192.52,109.51 193.79,108.48 194.87,107.68C195.75,107.02 196.64,106.43 197.31,105.94C197.8,105.59 198.02,105.39 198.55,105.01C199.45,104.36 201.29,103.05 202.22,102.42C202.78,102.04 203.08,101.88 203.59,101.53C204.26,101.08 205.03,100.5 205.9,99.92C206.98,99.2 208.81,98.05 209.58,97.57C209.93,97.35 210.01,97.32 210.35,97.11C211.01,96.7 212.22,95.9 213.25,95.27C214.4,94.57 216.14,93.58 216.93,93.14C217.3,92.93 217.4,92.9 217.75,92.7C218.42,92.33 219.59,91.62 220.61,91.06C221.75,90.44 223.27,89.66 224.28,89.15C224.99,88.8 225.49,88.58 226.1,88.28C226.72,87.97 227.23,87.68 227.96,87.33C228.98,86.84 230.41,86.18 231.64,85.64C232.86,85.11 234.56,84.42 235.31,84.13C235.64,84 235.7,83.99 236.02,83.87C236.67,83.62 237.94,83.08 238.99,82.69C240.15,82.26 241.44,81.81 242.67,81.42C243.89,81.03 245.12,80.67 246.34,80.34C247.55,80.01 248.75,79.72 249.97,79.44C251.2,79.16 252.46,78.87 253.7,78.65C254.92,78.43 256.14,78.25 257.37,78.1C258.59,77.95 259.82,77.83 261.05,77.76C262.28,77.69 263.5,77.66 264.73,77.68C265.95,77.7 267.18,77.76 268.4,77.88C269.63,78 270.84,78.16 272.08,78.4C273.37,78.65 274.73,78.99 275.975,79.38C277.17,79.75 278.28,80.15 279.43,80.66C280.65,81.21 282.11,81.98 283.11,82.59C283.85,83.04 284.35,83.42 284.96,83.87C285.58,84.32 286.13,84.71 286.79,85.3C287.68,86.09 289.12,87.58 289.76,88.28C290.09,88.64 290.17,88.74 290.46,89.13C291.05,89.9 292.29,91.64 292.95,92.7C293.45,93.5 293.76,94.15 294.14,94.89C294.52,95.62 294.84,96.23 295.21,97.11C295.72,98.32 296.37,100.07 296.82,101.53C297.25,102.92 297.57,104.25 297.88,105.68C298.2,107.18 298.49,108.81 298.7,110.35C298.9,111.84 299.03,113.3 299.13,114.77C299.23,116.24 299.27,117.71 299.29,119.18C299.31,120.65 299.29,122.13 299.23,123.6C299.17,125.07 299.07,126.54 298.95,128.01C298.82,129.48 298.67,130.95 298.48,132.42C298.29,133.91 298.07,135.42 297.83,136.9C297.6,138.36 297.35,139.8 297.08,141.25C296.8,142.72 296.51,144.2 296.18,145.67C295.85,147.14 295.48,148.69 295.12,150.08C294.8,151.34 294.34,152.87 294.14,153.65C294.04,154.03 294.03,154.1 293.93,154.49C293.69,155.39 293.12,157.44 292.67,158.91C292.22,160.38 291.66,162.1 291.25,163.32C290.96,164.19 290.71,164.81 290.46,165.55C290.21,166.28 290.04,166.89 289.75,167.74C289.33,168.96 288.67,170.78 288.15,172.15C287.69,173.37 287.1,174.77 286.79,175.57C286.62,176 286.59,176.12 286.42,176.57C286.05,177.52 285.23,179.6 284.65,180.98C284.13,182.21 283.45,183.67 283.11,184.46C282.94,184.87 282.91,184.97 282.73,185.39C282.33,186.32 281.37,188.51 280.77,189.81C280.29,190.85 279.81,191.77 279.43,192.58C279.14,193.2 279.01,193.54 278.69,194.22C278.16,195.34 277.07,197.56 276.53,198.64C276.21,199.27 276.05,199.54 275.76,200.12C275.35,200.93 274.85,201.99 274.3,203.05C273.63,204.34 272.79,205.87 272.01,207.32C271.21,208.82 270.23,210.67 269.56,211.88C269.11,212.69 268.8,213.2 268.4,213.9C267.97,214.66 267.6,215.39 267.08,216.29C266.39,217.5 265.45,219.05 264.6,220.485C263.7,221.99 262.47,224.07 261.83,225.12C261.49,225.67 261.37,225.86 261.05,226.37C260.55,227.18 259.75,228.53 259.11,229.54C258.52,230.47 257.88,231.42 257.37,232.22C256.96,232.86 256.73,233.26 256.28,233.95C255.61,234.99 254.16,237.13 253.7,237.83C253.53,238.09 253.53,238.1 253.35,238.36C252.83,239.14 251.22,241.51 250.19,243.01999999999998C249.21,244.45 248.01,246.19 247.3,247.19C246.9,247.76 246.72,247.99 246.34,248.53C245.76,249.35 244.81,250.7 244.15,251.61C243.61,252.35 243.18,252.91 242.67,253.61C242.11,254.38 241.5,255.21 240.9,256.02C240.28,256.85 239.58,257.75 238.99,258.53C238.48,259.21 238.09,259.73 237.55,260.43C236.89,261.29 235.94,262.49 235.31,263.3C234.85,263.9 234.58,264.25 234.1,264.85C233.43,265.7 232.29,267.12 231.64,267.93C231.21,268.47 231,268.72 230.56,269.26C229.88,270.09 228.63,271.62 227.96,272.43C227.54,272.94 227.35,273.17 226.92,273.68C226.24,274.49 224.97,275.99 224.28,276.8C223.83,277.32 223.62,277.57 223.17,278.09C222.49,278.88 221.32,280.24 220.61,281.05C220.11,281.62 219.82,281.95 219.32,282.51C218.65,283.27 217.65,284.4 216.93,285.19C216.35,285.83 215.91,286.3 215.34,286.92C214.69,287.63 213.94,288.46 213.25,289.21C212.58,289.93 211.89,290.65 211.25,291.33C210.67,291.95 210.2,292.46 209.58,293.11C208.82,293.91 207.69,295.05 207.01,295.75C206.56,296.21 206.38,296.42 205.9,296.9C205.07,297.75 203.61,299.19 202.42000000000002,300.365C201.17,301.6 199.21,303.53 198.55,304.16C198.33,304.37 198.32,304.37 198.1,304.58C197.51,305.13 195.74,306.87 194.87,307.68C194.3,308.21 193.96,308.5 193.43,308.99C192.76,309.6 191.97,310.37 191.19,311.08C190.35,311.84 189.22,312.8 188.55,313.4C188.13,313.78 187.98,313.94 187.52,314.34C186.65,315.11 184.91,316.59 183.65,317.66499999999996C182.46,318.69 181.17,319.81 180.16,320.64C179.41,321.26 178.8,321.71 178.17,322.23C177.58,322.71 177.16,323.08 176.48,323.63C175.47,324.44 173.93,325.6 172.69,326.56C171.48,327.49 170.21,328.52 169.13,329.32C168.25,329.98 167.36,330.57 166.69,331.06C166.2,331.41 165.98,331.61 165.45,331.99C164.55,332.64 162.71,333.95 161.78,334.58C161.22,334.96 160.92,335.12 160.41,335.47C159.74,335.92 158.97,336.5 158.1,337.08C157.02,337.8 155.19,338.95 154.42,339.43C154.07,339.65 153.99,339.68 153.65,339.89C152.99,340.3 151.78,341.1 150.75,341.73C149.6,342.43 147.86,343.42 147.07,343.86C146.7,344.07 146.6,344.1 146.25,344.3C145.58,344.67 144.41,345.38 143.39,345.94C142.25,346.56 140.73,347.34 139.72,347.85C139.01,348.2 138.51,348.42 137.9,348.72C137.28,349.03 136.77,349.32 136.04,349.67C135.02,350.16 133.59,350.82 132.36,351.36C131.14,351.89 129.44,352.58 128.69,352.87C128.36,353 128.3,353.01 127.98,353.13C127.33,353.38 126.06,353.92 125.01,354.31C123.85,354.74 122.56,355.19 121.33,355.58C120.11,355.97 118.88,356.33 117.66,356.66C116.45,356.99 115.25,357.28 114.03,357.56C112.8,357.84 111.54,358.13 110.3,358.35C109.08,358.57 107.86,358.75 106.63,358.9C105.41,359.05 104.18,359.17 102.95,359.24C101.72,359.31 100.5,359.34 99.27,359.32C98.05,359.3 96.82,359.24 95.6,359.12C94.37,359 93.16,358.84 91.92,358.6C90.63,358.35 89.27,358.01 88.025,357.62Z" style="stroke-miterlimit: 1; vector-effect: non-scaling-stroke; fill: none; stroke: rgb(85, 62, 47); stroke-opacity: 1; stroke-width: 2px;"/></g><g class="contourlevel"><path class="closedline" d="M99.27,341.04C98.2,340.71 96.87,340.14 96.24,339.89C95.95,339.77 95.89,339.77 95.6,339.62C94.87,339.26 93.01,338.24 91.92,337.5C90.97,336.85 90.04,336.05 89.37,335.47C88.91,335.07 88.68,334.88 88.24,334.41C87.5,333.62 86.11,331.94 85.46,331.06C85.06,330.52 84.9,330.25 84.57,329.7C84.08,328.89 83.42,327.78 82.88,326.65C82.25,325.33 81.41,323.1 81.11,322.23C80.99,321.87 80.99,321.81 80.89,321.46C80.68,320.7 80.21,319.1 79.93,317.82C79.63,316.42 79.38,314.88 79.19,313.4C79,311.93 78.88,310.46 78.8,308.99C78.72,307.52 78.7,306.05 78.71,304.58C78.72,303.11 78.78,301.63 78.87,300.16C78.96,298.69 79.08,297.22 79.24,295.75C79.4,294.28 79.6,292.8 79.82,291.33C80.05,289.86 80.38,287.98 80.59,286.92C80.71,286.32 80.78,286.08 80.89,285.52C81.06,284.71 81.25,283.61 81.49,282.51C81.78,281.18 82.16,279.56 82.54,278.09C82.92,276.62 83.37,274.96 83.75,273.68C84.04,272.69 84.33,271.86 84.57,271.07C84.77,270.41 84.87,269.99 85.09,269.26C85.44,268.11 86.02,266.33 86.53,264.85C87.05,263.34 87.63,261.79 88.185,260.295C88.72,258.85 89.23,257.45 89.79,256.02C90.37,254.56 91.25,252.45 91.61,251.61C91.75,251.27 91.78,251.23 91.92,250.9C92.24,250.15 92.91,248.48 93.48,247.19C94.11,245.76 94.87,244.17 95.555,242.69C96.23,241.23 96.92,239.71 97.57,238.36C98.15,237.17 98.87,235.81 99.27,235.01C99.5,234.56 99.55,234.42 99.79,233.95C100.28,232.98 101.48,230.64 102.07,229.54C102.43,228.87 102.62,228.55 102.95,227.94C103.39,227.13 103.9,226.13 104.45,225.12C105.1,223.94 106.23,222.02 106.63,221.3C106.79,221.02 106.79,221 106.95,220.71C107.39,219.92 108.9,217.32 109.51,216.29C109.84,215.73 109.98,215.52 110.3,215C110.79,214.19 111.55,212.89 112.17,211.88C112.77,210.9 113.47,209.82 113.98,209.01C114.35,208.42 114.53,208.1 114.94,207.46C115.62,206.38 116.79,204.62 117.74,203.175C118.72,201.68 120.15,199.55 120.76,198.64C121.02,198.25 121.07,198.18 121.33,197.8C121.86,197.02 123.11,195.19 123.79,194.22C124.26,193.55 124.56,193.15 125.01,192.52C125.58,191.72 126.31,190.68 126.94,189.81C127.53,188.99 128.13,188.19 128.69,187.43C129.21,186.72 129.64,186.13 130.19,185.39C130.84,184.51 131.74,183.34 132.36,182.53C132.81,181.93 133.08,181.59 133.55,180.98C134.23,180.11 135.4,178.6 136.04,177.79C136.44,177.29 136.6,177.08 137.01,176.57C137.68,175.73 139.07,174.03 139.72,173.22C140.09,172.76 140.22,172.6 140.59,172.15C141.26,171.34 142.71,169.58 143.39,168.78C143.77,168.33 143.9,168.18 144.28,167.74C144.95,166.96 146.37,165.3 147.07,164.49C147.49,164 147.67,163.8 148.09,163.32C148.77,162.55 150.02,161.14 150.75,160.33C151.26,159.77 151.54,159.45 152.04,158.91C152.71,158.17 153.69,157.09 154.42,156.3C155.03,155.64 155.53,155.12 156.12,154.49C156.75,153.82 157.41,153.1 158.1,152.39C158.83,151.64 159.69,150.76 160.36,150.08C160.89,149.54 161.22,149.19 161.78,148.62C162.59,147.8 164.12,146.32 164.76,145.67C165.07,145.36 165.12,145.29 165.45,144.97C166.2,144.23 167.99,142.53 169.235,141.35C170.44,140.21 171.91,138.81 172.81,137.99C173.34,137.5 173.61,137.29 174.1,136.84C174.77,136.23 175.66,135.39 176.48,134.66C177.32,133.91 178.41,133.01 179.09,132.42C179.53,132.04 179.69,131.88 180.16,131.48C181.02,130.75 183.18,128.94 183.84,128.4C184.08,128.21 184.1,128.2 184.33,128.01C184.93,127.52 186.53,126.17 187.52,125.39C188.35,124.73 189.19,124.12 189.86,123.6C190.37,123.2 190.63,122.97 191.19,122.54C192.11,121.83 194.06,120.39 194.87,119.8C195.26,119.52 195.38,119.45 195.75,119.18C196.42,118.7 197.55,117.84 198.55,117.14C199.67,116.36 200.94,115.53 202.15,114.72C203.39,113.89 204.7,112.98 205.9,112.22C206.97,111.54 208.35,110.73 208.98,110.35C209.26,110.18 209.29,110.15 209.58,109.98C210.28,109.55 212.03,108.48 213.25,107.79C214.44,107.12 215.61,106.52 216.815,105.875C218.06,105.21 219.35,104.51 220.61,103.88C221.84,103.27 223.32,102.58 224.28,102.16C224.89,101.89 225.24,101.77 225.79,101.53C226.45,101.24 227.14,100.9 227.96,100.55C229.02,100.1 230.41,99.55 231.64,99.1C232.86,98.65 234.2,98.19 235.31,97.84C236.22,97.55 237.14,97.31 237.82,97.11C238.28,96.97 238.49,96.89 238.99,96.75C239.87,96.5 241.44,96.1 242.67,95.83C243.89,95.56 245.11,95.33 246.34,95.14C247.56,94.95 248.79,94.79 250.02,94.68C251.24,94.57 252.47,94.5 253.7,94.49C254.92,94.48 256.15,94.51 257.37,94.61C258.6,94.71 259.83,94.85 261.05,95.07C262.28,95.3 263.57,95.6 264.73,95.96C265.8,96.29 267.13,96.86 267.76,97.11C268.05,97.23 268.11,97.23 268.4,97.38C269.13,97.74 270.99,98.76 272.08,99.5C273.03,100.15 273.96,100.95 274.63,101.53C275.09,101.93 275.32,102.12 275.76,102.59C276.5,103.38 277.89,105.06 278.54,105.94C278.94,106.48 279.1,106.75 279.43,107.3C279.92,108.11 280.58,109.22 281.12,110.35C281.75,111.67 282.59,113.9 282.89,114.77C283.01,115.13 283.01,115.19 283.11,115.54C283.32,116.3 283.79,117.9 284.07,119.18C284.37,120.58 284.62,122.12 284.81,123.6C285,125.07 285.12,126.54 285.2,128.01C285.28,129.48 285.3,130.95 285.29,132.42C285.28,133.89 285.22,135.37 285.13,136.84C285.04,138.31 284.92,139.78 284.76,141.25C284.6,142.72 284.4,144.2 284.18,145.67C283.95,147.14 283.62,149.02 283.41,150.08C283.29,150.68 283.22,150.92 283.11,151.48C282.94,152.29 282.75,153.39 282.51,154.49C282.22,155.82 281.84,157.44 281.46,158.91C281.08,160.38 280.63,162.04 280.25,163.32C279.96,164.31 279.67,165.14 279.43,165.93C279.23,166.59 279.13,167.01 278.91,167.74C278.56,168.89 277.98,170.67 277.47,172.15C276.95,173.66 276.37,175.21 275.815,176.70499999999998C275.28,178.15 274.77,179.55 274.21,180.98C273.63,182.44 272.75,184.55 272.39,185.39C272.25,185.73 272.22,185.77 272.08,186.1C271.76,186.85 271.09,188.52 270.52,189.81C269.89,191.24 269.13,192.83 268.445,194.31C267.77,195.77 267.08,197.29 266.43,198.64C265.85,199.83 265.13,201.19 264.73,201.99C264.5,202.44 264.45,202.58 264.21,203.05C263.72,204.02 262.52,206.36 261.93,207.46C261.57,208.13 261.38,208.45 261.05,209.06C260.61,209.87 260.1,210.87 259.55,211.88C258.9,213.06 257.77,214.98 257.37,215.7C257.21,215.98 257.21,216 257.05,216.29C256.61,217.08 255.1,219.68 254.49,220.71C254.16,221.27 254.02,221.48 253.7,222C253.21,222.81 252.45,224.11 251.83,225.12C251.23,226.1 250.53,227.18 250.02,227.99C249.65,228.58 249.47,228.9 249.06,229.54C248.38,230.62 247.21,232.38 246.26,233.825C245.28,235.32 243.85,237.45 243.24,238.36C242.98,238.75 242.93,238.82 242.67,239.2C242.14,239.98 240.89,241.81 240.21,242.78C239.74,243.45 239.44,243.85 238.99,244.48C238.42,245.28 237.69,246.32 237.06,247.19C236.47,248.01 235.87,248.81 235.31,249.57C234.79,250.28 234.36,250.87 233.81,251.61C233.16,252.49 232.26,253.66 231.64,254.47C231.19,255.07 230.92,255.41 230.45,256.02C229.77,256.89 228.6,258.4 227.96,259.21C227.56,259.71 227.4,259.92 226.99,260.43C226.32,261.27 224.93,262.97 224.28,263.78C223.91,264.24 223.78,264.4 223.41,264.85C222.74,265.66 221.29,267.42 220.61,268.22C220.23,268.67 220.1,268.82 219.72,269.26C219.05,270.04 217.63,271.7 216.93,272.51C216.51,273 216.33,273.2 215.91,273.68C215.23,274.45 213.98,275.86 213.25,276.67C212.74,277.23 212.46,277.55 211.96,278.09C211.29,278.83 210.31,279.91 209.58,280.7C208.97,281.36 208.47,281.88 207.88,282.51C207.25,283.18 206.59,283.9 205.9,284.61C205.17,285.36 204.31,286.24 203.64,286.92C203.11,287.46 202.78,287.81 202.22,288.38C201.41,289.2 199.88,290.68 199.24,291.33C198.93,291.64 198.88,291.71 198.55,292.03C197.8,292.77 196.01,294.47 194.765,295.65C193.56,296.79 192.09,298.19 191.19,299.01C190.66,299.5 190.39,299.71 189.9,300.16C189.23,300.77 188.34,301.61 187.52,302.34C186.68,303.09 185.59,303.99 184.91,304.58C184.47,304.96 184.31,305.12 183.84,305.52C182.98,306.25 180.82,308.06 180.16,308.6C179.92,308.79 179.9,308.8 179.67,308.99C179.07,309.48 177.47,310.83 176.48,311.61C175.65,312.27 174.81,312.88 174.14,313.4C173.63,313.8 173.37,314.03 172.81,314.46C171.89,315.17 169.94,316.61 169.13,317.2C168.74,317.48 168.62,317.55 168.25,317.82C167.58,318.3 166.45,319.16 165.45,319.86C164.33,320.64 163.06,321.47 161.85,322.28C160.61,323.11 159.3,324.02 158.1,324.78C157.03,325.46 155.65,326.27 155.02,326.65C154.74,326.82 154.71,326.85 154.42,327.02C153.72,327.45 151.97,328.52 150.75,329.21C149.56,329.88 148.39,330.48 147.185,331.125C145.94,331.79 144.65,332.49 143.39,333.12C142.16,333.73 140.68,334.42 139.72,334.84C139.11,335.11 138.76,335.23 138.21,335.47C137.55,335.76 136.86,336.1 136.04,336.45C134.98,336.9 133.59,337.45 132.36,337.9C131.14,338.35 129.8,338.81 128.69,339.16C127.78,339.45 126.86,339.69 126.18,339.89C125.72,340.03 125.51,340.11 125.01,340.25C124.13,340.5 122.56,340.9 121.33,341.17C120.11,341.44 118.89,341.67 117.66,341.86C116.44,342.05 115.21,342.21 113.98,342.32C112.76,342.43 111.53,342.5 110.3,342.51C109.08,342.52 107.85,342.49 106.63,342.39C105.4,342.29 104.17,342.15 102.95,341.93C101.72,341.7 100.43,341.4 99.27,341.04Z" style="stroke-miterlimit: 1; vector-effect: non-scaling-stroke; fill: none; stroke: rgb(112, 77, 54); stroke-opacity: 1; stroke-width: 2px;"/></g><g class="contourlevel"><path class="closedline" d="M106.63,327.17C106.12,326.98 105.91,326.87 105.45,326.65C104.77,326.33 103.84,325.93 102.95,325.38C101.81,324.68 99.89,323.19 99.27,322.66C99.04,322.47 99.04,322.45 98.83,322.23C98.24,321.59 96.13,319.06 95.6,318.35C95.41,318.1 95.4,318.09 95.24,317.82C94.79,317.07 93.55,314.75 92.97,313.4C92.51,312.32 92.19,311.23 91.92,310.41C91.74,309.85 91.64,309.6 91.48,308.99C91.21,307.93 90.81,306.06 90.57,304.58C90.34,303.11 90.18,301.63 90.07,300.16C89.96,298.69 89.93,297.22 89.93,295.75C89.93,294.28 89.98,292.8 90.07,291.33C90.16,289.86 90.29,288.39 90.45,286.92C90.62,285.45 90.82,283.99 91.06,282.51C91.3,281.01 91.6,279.48 91.9,277.995C92.19,276.54 92.5,275.12 92.84,273.68C93.19,272.21 93.56,270.73 93.97,269.26C94.38,267.79 94.99,265.78 95.28,264.85C95.42,264.41 95.46,264.31 95.6,263.89C95.86,263.09 96.28,261.65 96.69,260.43C97.15,259.05 97.78,257.29 98.25,256.02C98.62,255.03 98.97,254.2 99.27,253.41C99.52,252.76 99.66,252.34 99.95,251.61C100.4,250.46 101.2,248.48 101.75,247.19C102.18,246.18 102.6,245.29 102.95,244.49C103.23,243.86 103.37,243.48 103.68,242.78C104.18,241.65 105.16,239.51 105.71,238.36C106.07,237.61 106.3,237.19 106.63,236.52C107.01,235.74 107.37,234.92 107.86,233.95C108.51,232.64 109.44,230.88 110.22,229.385C110.98,227.94 111.8,226.37 112.48,225.12C113.02,224.13 113.54,223.25 113.98,222.46C114.34,221.82 114.54,221.43 114.95,220.71C115.61,219.55 116.72,217.68 117.6,216.2C118.47,214.74 119.51,213 120.2,211.88C120.65,211.15 120.92,210.74 121.33,210.09C121.83,209.3 122.4,208.37 122.98,207.46C123.62,206.47 124.48,205.19 125.01,204.38C125.36,203.85 125.5,203.62 125.88,203.05C126.56,202.03 127.78,200.25 128.79,198.79C129.87,197.23 131.08,195.51 132.18,193.97C133.21,192.53 134.51,190.75 135.21,189.81C135.57,189.32 135.69,189.18 136.04,188.71C136.65,187.9 137.87,186.28 138.55,185.39C139.01,184.79 139.27,184.47 139.72,183.89C140.35,183.08 141.33,181.82 142,180.98C142.52,180.33 142.87,179.89 143.39,179.25C144.04,178.45 144.93,177.37 145.59,176.57C146.13,175.92 146.52,175.44 147.07,174.79C147.74,173.99 148.64,172.93 149.31,172.15C149.84,171.53 150.21,171.1 150.75,170.48C151.45,169.68 152.5,168.5 153.17,167.74C153.65,167.19 153.92,166.89 154.42,166.33C155.16,165.51 156.51,164.05 157.18,163.32C157.57,162.9 157.69,162.76 158.1,162.33C158.88,161.5 160.37,159.93 161.57,158.69C162.85,157.37 164.28,155.91 165.57999999999998,154.615C166.79,153.4 168.28,151.95 169.13,151.13C169.6,150.68 169.79,150.5 170.24,150.08C170.92,149.44 171.98,148.4 172.81,147.64C173.56,146.94 174.34,146.27 175,145.67C175.54,145.18 175.87,144.85 176.48,144.31C177.41,143.48 178.87,142.23 180.08499999999998,141.185C181.32,140.13 182.87,138.79 183.84,138C184.43,137.51 184.76,137.27 185.3,136.84C185.96,136.31 186.69,135.69 187.52,135.03C188.56,134.21 189.86,133.23 191.065,132.325C192.31,131.39 193.78,130.27 194.87,129.49C195.68,128.91 196.36,128.47 197.01,128.01C197.57,127.62 197.92,127.35 198.55,126.92C199.51,126.26 201.27,125.07 202.22,124.47C202.8,124.1 203.12,123.93 203.65,123.6C204.32,123.18 205.05,122.67 205.9,122.15C206.97,121.49 208.62,120.53 209.58,119.99C210.19,119.65 210.54,119.48 211.08,119.18C211.74,118.82 212.43,118.4 213.25,117.96C214.31,117.39 215.77,116.64 216.93,116.08C217.94,115.59 219.15,115.08 219.81,114.77C220.16,114.6 220.24,114.55 220.61,114.38C221.39,114.03 223.05,113.31 224.28,112.82C225.5,112.34 226.73,111.88 227.96,111.46C229.16,111.05 230.34,110.68 231.56,110.32499999999999C232.79,109.97 234.06,109.62 235.31,109.33C236.54,109.04 237.76,108.79 238.99,108.59C240.21,108.39 241.44,108.24 242.67,108.13C243.89,108.03 245.12,107.96 246.34,107.96C247.57,107.96 248.8,108.01 250.02,108.14C251.25,108.27 252.48,108.45 253.7,108.73C254.93,109.01 256.49,109.51 257.37,109.83C257.88,110.02 258.09,110.13 258.55,110.35C259.23,110.67 260.16,111.07 261.05,111.62C262.19,112.32 264.11,113.81 264.73,114.34C264.96,114.53 264.96,114.55 265.17,114.77C265.76,115.41 267.87,117.94 268.4,118.65C268.59,118.9 268.6,118.91 268.76,119.18C269.21,119.93 270.45,122.25 271.03,123.6C271.49,124.68 271.81,125.77 272.08,126.59C272.26,127.15 272.36,127.4 272.52,128.01C272.79,129.07 273.19,130.94 273.43,132.42C273.66,133.89 273.82,135.37 273.93,136.84C274.04,138.31 274.07,139.78 274.07,141.25C274.07,142.72 274.02,144.2 273.93,145.67C273.84,147.14 273.71,148.61 273.55,150.08C273.38,151.55 273.18,153.01 272.94,154.49C272.7,155.99 272.4,157.52 272.1,159.005C271.81,160.46 271.5,161.88 271.16,163.32C270.81,164.79 270.44,166.27 270.03,167.74C269.62,169.21 269.01,171.22 268.72,172.15C268.58,172.59 268.54,172.69 268.4,173.11C268.14,173.91 267.72,175.35 267.31,176.57C266.85,177.95 266.22,179.71 265.75,180.98C265.38,181.97 265.03,182.8 264.73,183.59C264.48,184.24 264.34,184.66 264.05,185.39C263.6,186.54 262.8,188.52 262.25,189.81C261.82,190.82 261.4,191.71 261.05,192.51C260.77,193.14 260.63,193.52 260.32,194.22C259.82,195.35 258.84,197.49 258.29,198.64C257.93,199.39 257.7,199.81 257.37,200.48C256.99,201.26 256.63,202.08 256.14,203.05C255.49,204.36 254.56,206.12 253.78,207.615C253.02,209.06 252.2,210.63 251.52,211.88C250.98,212.87 250.46,213.75 250.02,214.54C249.66,215.18 249.46,215.57 249.05,216.29C248.39,217.45 247.28,219.32 246.4,220.8C245.53,222.26 244.49,224 243.8,225.12C243.35,225.85 243.08,226.26 242.67,226.91C242.17,227.7 241.6,228.63 241.02,229.54C240.38,230.53 239.52,231.81 238.99,232.62C238.64,233.15 238.5,233.38 238.12,233.95C237.44,234.97 236.22,236.75 235.21,238.21C234.13,239.77 232.92,241.49 231.82,243.03C230.79,244.47 229.49,246.25 228.79,247.19C228.43,247.68 228.31,247.82 227.96,248.29C227.35,249.1 226.13,250.72 225.45,251.61C224.99,252.21 224.73,252.53 224.28,253.11C223.65,253.92 222.67,255.18 222,256.02C221.48,256.67 221.13,257.11 220.61,257.75C219.96,258.55 219.07,259.63 218.41,260.43C217.87,261.08 217.48,261.56 216.93,262.21C216.26,263.01 215.36,264.07 214.69,264.85C214.16,265.47 213.79,265.9 213.25,266.52C212.55,267.32 211.5,268.5 210.83,269.26C210.35,269.81 210.08,270.11 209.58,270.67C208.84,271.49 207.49,272.95 206.82,273.68C206.43,274.1 206.31,274.24 205.9,274.67C205.12,275.5 203.63,277.07 202.43,278.30999999999995C201.15,279.63 199.72,281.09 198.42000000000002,282.385C197.21,283.6 195.72,285.05 194.87,285.87C194.4,286.32 194.21,286.5 193.76,286.92C193.08,287.56 192.02,288.6 191.19,289.36C190.44,290.06 189.66,290.73 189,291.33C188.46,291.82 188.13,292.15 187.52,292.69C186.59,293.52 185.13,294.77 183.91500000000002,295.815C182.68,296.87 181.13,298.21 180.16,299C179.57,299.49 179.24,299.73 178.7,300.16C178.04,300.69 177.31,301.31 176.48,301.97C175.44,302.79 174.14,303.77 172.935,304.67499999999995C171.69,305.61 170.22,306.73 169.13,307.51C168.32,308.09 167.64,308.53 166.99,308.99C166.43,309.38 166.08,309.65 165.45,310.08C164.49,310.74 162.73,311.93 161.78,312.53C161.2,312.9 160.88,313.07 160.35,313.4C159.68,313.82 158.95,314.33 158.1,314.85C157.03,315.51 155.38,316.47 154.42,317.01C153.81,317.35 153.46,317.52 152.92,317.82C152.26,318.18 151.57,318.6 150.75,319.04C149.69,319.61 148.23,320.36 147.07,320.92C146.06,321.41 144.85,321.92 144.19,322.23C143.84,322.4 143.76,322.45 143.39,322.62C142.61,322.97 140.95,323.69 139.72,324.18C138.5,324.66 137.27,325.12 136.04,325.54C134.84,325.95 133.66,326.32 132.44,326.67499999999995C131.21,327.03 129.94,327.38 128.69,327.67C127.46,327.96 126.24,328.21 125.01,328.41C123.79,328.61 122.56,328.76 121.33,328.87C120.11,328.97 118.88,329.04 117.66,329.04C116.43,329.04 115.2,328.99 113.98,328.86C112.75,328.73 111.52,328.55 110.3,328.27C109.07,327.99 107.51,327.49 106.63,327.17Z" style="stroke-miterlimit: 1; vector-effect: non-scaling-stroke; fill: none; stroke: rgb(138, 93, 57); stroke-opacity: 1; stroke-width: 2px;"/></g><g class="contourlevel"><path class="closedline" d="M110.27,313.42499999999995C109,312.54 107.45,311.03 106.63,310.19C106.17,309.71 106.01,309.53 105.62,308.99C104.91,308 103.66,306.12 102.93,304.615C102.23,303.17 101.72,301.66 101.28,300.16C100.85,298.7 100.54,297.23 100.29,295.75C100.04,294.28 99.89,292.8 99.79,291.33C99.69,289.86 99.67,288.39 99.68,286.92C99.69,285.45 99.77,283.98 99.88,282.51C99.99,281.04 100.15,279.56 100.34,278.09C100.53,276.62 100.77,275.15 101.04,273.68C101.31,272.2 101.61,270.71 101.94,269.26C102.26,267.83 102.61,266.48 102.995,265.045C103.39,263.54 103.83,261.95 104.29,260.43C104.74,258.94 105.29,257.28 105.72,256.02C106.05,255.06 106.35,254.29 106.63,253.51C106.87,252.83 107.01,252.37 107.29,251.61C107.72,250.44 108.45,248.53 108.99,247.19C109.45,246.06 109.96,244.9 110.3,244.09C110.52,243.56 110.6,243.34 110.84,242.78C111.29,241.74 112.22,239.61 112.8,238.36C113.23,237.42 113.61,236.69 113.98,235.92C114.31,235.23 114.52,234.73 114.9,233.95C115.47,232.77 116.64,230.48 117.13,229.54C117.36,229.09 117.43,228.98 117.66,228.55C118.08,227.75 118.84,226.25 119.45,225.12C120.06,223.99 120.88,222.57 121.33,221.77C121.58,221.32 121.65,221.18 121.92,220.71C122.47,219.74 123.95,217.18 124.49,216.29C124.73,215.9 124.78,215.83 125.01,215.45C125.49,214.67 126.52,212.95 127.18,211.88C127.72,211.01 128.21,210.27 128.69,209.51C129.14,208.8 129.49,208.23 129.99,207.46C130.66,206.43 131.84,204.68 132.36,203.9C132.61,203.52 132.65,203.44 132.92,203.05C133.53,202.15 134.97,200.07 136.01,198.6C137.05,197.13 138.52,195.08 139.15,194.22C139.41,193.86 139.46,193.81 139.72,193.46C140.29,192.7 141.77,190.7 142.45,189.81C142.84,189.29 143,189.09 143.39,188.59C144.02,187.77 145.21,186.25 145.89,185.39C146.35,184.8 146.61,184.49 147.07,183.92C147.73,183.11 148.79,181.8 149.47,180.98C149.96,180.38 150.25,180.03 150.75,179.44C151.43,178.63 152.52,177.36 153.2,176.57C153.68,176.01 153.93,175.71 154.42,175.15C155.13,174.33 156.4,172.91 157.08,172.15C157.5,171.68 157.67,171.49 158.1,171.02C158.84,170.21 160.5,168.42 161.14,167.74C161.43,167.43 161.48,167.38 161.78,167.06C162.5,166.31 164.2,164.54 165.42,163.29C166.65,162.04 168.37,160.31 169.13,159.58C169.46,159.26 169.52,159.21 169.84,158.91C170.49,158.29 171.95,156.87 172.81,156.06C173.45,155.46 173.92,155.03 174.51,154.49C175.14,153.91 175.75,153.33 176.48,152.68C177.37,151.89 178.81,150.65 179.46,150.08C179.78,149.8 179.83,149.74 180.16,149.46C180.9,148.82 183.03,147.03 183.84,146.37C184.23,146.05 184.35,145.97 184.73,145.67C185.4,145.13 186.58,144.15 187.52,143.41C188.46,142.67 189.71,141.76 190.37,141.25C190.73,140.98 190.82,140.9 191.19,140.62C191.97,140.03 193.88,138.64 194.87,137.95C195.52,137.49 195.93,137.23 196.51,136.84C197.15,136.4 197.77,135.95 198.55,135.43C199.59,134.74 201.35,133.61 202.22,133.07C202.69,132.78 202.88,132.69 203.32,132.42C204,132.01 204.96,131.4 205.9,130.85C207.01,130.2 208.6,129.32 209.58,128.8C210.21,128.47 210.6,128.3 211.16,128.01C211.81,127.68 212.45,127.31 213.25,126.92C214.3,126.4 215.68,125.75 216.93,125.21C218.19,124.66 219.52,124.14 220.775,123.655C221.97,123.2 223.09,122.78 224.28,122.39C225.49,121.99 226.73,121.62 227.96,121.3C229.18,120.98 230.41,120.7 231.64,120.47C232.86,120.24 234.08,120.04 235.31,119.91C236.53,119.78 237.76,119.69 238.99,119.67C240.22,119.65 241.45,119.68 242.67,119.8C243.9,119.92 245.13,120.1 246.34,120.4C247.58,120.7 248.81,121.09 250.02,121.6C251.28,122.14 252.55,122.75 253.73,123.57499999999999C255,124.46 256.55,125.97 257.37,126.81C257.83,127.29 257.99,127.47 258.38,128.01C259.09,129 260.34,130.88 261.07,132.385C261.77,133.83 262.28,135.34 262.72,136.84C263.15,138.3 263.46,139.77 263.71,141.25C263.96,142.72 264.11,144.2 264.21,145.67C264.31,147.14 264.33,148.61 264.32,150.08C264.31,151.55 264.23,153.02 264.12,154.49C264.01,155.96 263.85,157.44 263.66,158.91C263.47,160.38 263.23,161.85 262.96,163.32C262.69,164.8 262.39,166.29 262.06,167.74C261.74,169.17 261.39,170.52 261.005,171.95499999999998C260.61,173.46 260.17,175.05 259.71,176.57C259.26,178.06 258.71,179.72 258.28,180.98C257.95,181.94 257.65,182.71 257.37,183.49C257.13,184.17 256.99,184.63 256.71,185.39C256.28,186.56 255.55,188.47 255.01,189.81C254.55,190.94 254.04,192.1 253.7,192.91C253.48,193.44 253.4,193.66 253.16,194.22C252.71,195.26 251.78,197.39 251.2,198.64C250.77,199.58 250.39,200.31 250.02,201.08C249.69,201.77 249.48,202.27 249.1,203.05C248.53,204.23 247.36,206.52 246.87,207.46C246.64,207.91 246.57,208.02 246.34,208.45C245.92,209.25 245.16,210.75 244.55,211.88C243.94,213.01 243.12,214.43 242.67,215.23C242.42,215.68 242.35,215.82 242.08,216.29C241.53,217.26 240.05,219.82 239.51,220.71C239.27,221.1 239.22,221.17 238.99,221.55C238.51,222.33 237.48,224.05 236.82,225.12C236.28,225.99 235.79,226.73 235.31,227.49C234.86,228.2 234.51,228.77 234.01,229.54C233.34,230.57 232.16,232.32 231.64,233.1C231.39,233.48 231.35,233.56 231.08,233.95C230.47,234.85 229.03,236.93 227.99,238.4C226.95,239.87 225.48,241.92 224.85,242.78C224.59,243.14 224.54,243.19 224.28,243.54C223.71,244.3 222.23,246.3 221.55,247.19C221.16,247.71 221,247.91 220.61,248.41C219.98,249.23 218.79,250.75 218.11,251.61C217.65,252.2 217.39,252.51 216.93,253.08C216.27,253.89 215.21,255.2 214.53,256.02C214.04,256.62 213.75,256.97 213.25,257.56C212.57,258.37 211.48,259.64 210.8,260.43C210.32,260.99 210.07,261.29 209.58,261.85C208.87,262.67 207.6,264.09 206.92,264.85C206.5,265.32 206.33,265.51 205.9,265.98C205.16,266.79 203.5,268.58 202.86,269.26C202.57,269.57 202.52,269.62 202.22,269.94C201.5,270.69 199.8,272.46 198.58,273.71000000000004C197.35,274.96 195.63,276.69 194.87,277.42C194.54,277.74 194.48,277.79 194.16,278.09C193.51,278.71 192.05,280.13 191.19,280.94C190.55,281.54 190.08,281.97 189.49,282.51C188.86,283.09 188.25,283.67 187.52,284.32C186.63,285.11 185.19,286.35 184.54,286.92C184.22,287.2 184.17,287.26 183.84,287.54C183.1,288.18 180.97,289.97 180.16,290.63C179.77,290.95 179.65,291.03 179.27,291.33C178.6,291.87 177.42,292.85 176.48,293.59C175.54,294.33 174.29,295.24 173.63,295.75C173.27,296.02 173.18,296.1 172.81,296.38C172.03,296.97 170.12,298.36 169.13,299.05C168.48,299.51 168.07,299.77 167.49,300.16C166.85,300.6 166.23,301.05 165.45,301.57C164.41,302.26 162.65,303.39 161.78,303.93C161.31,304.22 161.12,304.31 160.68,304.58C160,304.99 159.04,305.6 158.1,306.15C156.99,306.8 155.4,307.68 154.42,308.2C153.79,308.53 153.4,308.7 152.84,308.99C152.19,309.32 151.55,309.69 150.75,310.08C149.7,310.6 148.32,311.25 147.07,311.79C145.81,312.34 144.48,312.86 143.225,313.345C142.03,313.8 140.91,314.22 139.72,314.61C138.51,315.01 137.27,315.38 136.04,315.7C134.82,316.02 133.59,316.3 132.36,316.53C131.14,316.76 129.92,316.96 128.69,317.09C127.47,317.22 126.24,317.31 125.01,317.33C123.78,317.35 122.55,317.32 121.33,317.2C120.1,317.08 118.87,316.9 117.66,316.6C116.42,316.3 115.19,315.91 113.98,315.4C112.72,314.86 111.45,314.25 110.27,313.42499999999995Z" style="stroke-miterlimit: 1; vector-effect: non-scaling-stroke; fill: none; stroke: rgb(161, 112, 59); stroke-opacity: 1; stroke-width: 2px;"/></g><g class="contourlevel"><path class="closedline" d="M121.33,304.93C120.99,304.8 120.93,304.75 120.61,304.58C119.95,304.23 118.61,303.54 117.66,302.84C116.63,302.09 115.34,300.82 114.7,300.16C114.36,299.81 114.27,299.7 113.98,299.3C113.42,298.53 112.37,296.96 111.75,295.75C111.16,294.59 110.59,292.99 110.3,292.2C110.16,291.82 110.12,291.74 110.01,291.33C109.76,290.43 109.3,288.4 109.07,286.92C108.85,285.46 108.72,283.98 108.65,282.51C108.58,281.04 108.58,279.56 108.63,278.09C108.68,276.62 108.8,275.15 108.95,273.68C109.1,272.21 109.31,270.71 109.54,269.26C109.77,267.84 110.04,266.49 110.34,265.055C110.66,263.55 111.04,261.95 111.43,260.43C111.82,258.94 112.23,257.47 112.67,256.02C113.1,254.59 113.55,253.24 114.03999999999999,251.805C114.55,250.3 115.11,248.73 115.69,247.19C116.28,245.64 116.93,244.04 117.55,242.53C118.14,241.1 118.7,239.76 119.32,238.36C119.96,236.92 120.65,235.45 121.35,233.99C122.06,232.51 122.86,230.85 123.53,229.54C124.06,228.49 124.59,227.54 125.01,226.73C125.33,226.12 125.49,225.79 125.85,225.12C126.45,224.01 127.82,221.54 128.29,220.71C128.48,220.38 128.5,220.35 128.69,220.03C129.13,219.29 130.2,217.4 130.86,216.29C131.4,215.38 131.89,214.61 132.36,213.84C132.78,213.15 133.09,212.64 133.57,211.88C134.24,210.81 135.58,208.76 136.04,208.04C136.22,207.76 136.22,207.74 136.41,207.46C136.94,206.65 138.51,204.31 139.55,202.81C140.54,201.38 141.79,199.62 142.49,198.64C142.87,198.1 143.02,197.91 143.39,197.4C143.99,196.58 145.06,195.12 145.74,194.22C146.24,193.55 146.58,193.12 147.07,192.48C147.68,191.68 148.49,190.63 149.14,189.81C149.71,189.09 150.19,188.5 150.75,187.8C151.37,187.03 152.07,186.16 152.7,185.39C153.29,184.67 153.82,184.04 154.42,183.33C155.06,182.57 155.79,181.72 156.43,180.98C157.01,180.31 157.5,179.74 158.1,179.06C158.79,178.28 159.67,177.31 160.33,176.57C160.86,175.98 161.22,175.58 161.78,174.97C162.53,174.16 163.75,172.87 164.43,172.15C164.85,171.7 165.01,171.53 165.45,171.07C166.26,170.23 167.73,168.73 168.93,167.54000000000002C170.18,166.3 172.14,164.41 172.81,163.77C173.05,163.55 173.06,163.54 173.29,163.32C173.88,162.76 175.59,161.16 176.48,160.35C177.11,159.78 177.54,159.42 178.12,158.91C178.76,158.34 179.4,157.75 180.16,157.1C181.08,156.3 182.66,155.01 183.28,154.49C183.54,154.27 183.57,154.24 183.84,154.02C184.53,153.46 186.59,151.81 187.52,151.09C188.07,150.66 188.35,150.46 188.86,150.08C189.53,149.57 190.32,148.95 191.19,148.31C192.28,147.51 193.67,146.54 194.905,145.69C196.12,144.85 197.34,144.02 198.55,143.25C199.71,142.5 200.82,141.83 202.015,141.12C203.27,140.38 204.6,139.6 205.9,138.89C207.18,138.2 208.48,137.53 209.74,136.91500000000002C210.93,136.33 212.06,135.79 213.25,135.27C214.46,134.74 215.68,134.25 216.93,133.78C218.19,133.31 219.52,132.85 220.78,132.46499999999997C221.97,132.1 223.09,131.79 224.28,131.51C225.49,131.23 226.73,130.97 227.96,130.79C229.18,130.61 230.41,130.48 231.64,130.42C232.86,130.36 234.09,130.35 235.31,130.44C236.54,130.53 237.77,130.68 238.99,130.95C240.23,131.22 241.92,131.78 242.67,132.07C243.01,132.2 243.07,132.25 243.39,132.42C244.05,132.77 245.39,133.46 246.34,134.16C247.37,134.91 248.66,136.18 249.3,136.84C249.64,137.19 249.73,137.3 250.02,137.7C250.58,138.47 251.63,140.04 252.25,141.25C252.84,142.41 253.41,144.01 253.7,144.8C253.84,145.18 253.88,145.26 253.99,145.67C254.24,146.57 254.7,148.6 254.93,150.08C255.15,151.54 255.28,153.02 255.35,154.49C255.42,155.96 255.42,157.44 255.37,158.91C255.32,160.38 255.2,161.85 255.05,163.32C254.9,164.79 254.69,166.29 254.46,167.74C254.23,169.16 253.96,170.51 253.66,171.945C253.34,173.45 252.96,175.05 252.57,176.57C252.18,178.06 251.77,179.53 251.33,180.98C250.9,182.41 250.45,183.76 249.96,185.195C249.45,186.7 248.89,188.27 248.31,189.81C247.72,191.36 247.07,192.96 246.45,194.47C245.86,195.9 245.3,197.24 244.68,198.64C244.04,200.08 243.35,201.55 242.64999999999998,203.01C241.94,204.49 241.14,206.15 240.47,207.46C239.94,208.51 239.41,209.46 238.99,210.27C238.67,210.88 238.51,211.21 238.15,211.88C237.55,212.99 236.18,215.46 235.71,216.29C235.52,216.62 235.5,216.65 235.31,216.97C234.87,217.71 233.8,219.6 233.14,220.71C232.6,221.62 232.11,222.39 231.64,223.16C231.22,223.85 230.91,224.36 230.43,225.12C229.76,226.19 228.42,228.24 227.96,228.96C227.78,229.24 227.78,229.26 227.59,229.54C227.06,230.35 225.49,232.69 224.45,234.19C223.46,235.62 222.21,237.38 221.51,238.36C221.13,238.9 220.98,239.09 220.61,239.6C220.01,240.42 218.94,241.88 218.26,242.78C217.76,243.45 217.42,243.88 216.93,244.52C216.32,245.32 215.51,246.37 214.86,247.19C214.29,247.91 213.81,248.5 213.25,249.2C212.63,249.97 211.93,250.84 211.3,251.61C210.71,252.33 210.18,252.96 209.58,253.67C208.94,254.43 208.21,255.28 207.57,256.02C206.99,256.69 206.5,257.26 205.9,257.94C205.21,258.72 204.33,259.69 203.67,260.43C203.14,261.02 202.78,261.42 202.22,262.03C201.47,262.84 200.25,264.13 199.57,264.85C199.15,265.3 198.99,265.47 198.55,265.93C197.74,266.77 196.27,268.27 195.07,269.46000000000004C193.82,270.7 191.86,272.59 191.19,273.23C190.95,273.45 190.94,273.46 190.71,273.68C190.12,274.24 188.41,275.84 187.52,276.65C186.89,277.22 186.46,277.58 185.88,278.09C185.24,278.66 184.6,279.25 183.84,279.9C182.92,280.7 181.34,281.99 180.72,282.51C180.46,282.73 180.43,282.76 180.16,282.98C179.47,283.54 177.41,285.19 176.48,285.91C175.93,286.34 175.65,286.54 175.14,286.92C174.47,287.43 173.68,288.05 172.81,288.69C171.72,289.49 170.33,290.46 169.095,291.31C167.88,292.15 166.66,292.98 165.45,293.75C164.29,294.5 163.18,295.17 161.985,295.88C160.73,296.62 159.4,297.4 158.1,298.11C156.82,298.8 155.52,299.47 154.26,300.08500000000004C153.07,300.67 151.94,301.21 150.75,301.73C149.54,302.26 148.32,302.75 147.07,303.22C145.81,303.69 144.48,304.15 143.22,304.53499999999997C142.03,304.9 140.91,305.21 139.72,305.49C138.51,305.77 137.27,306.03 136.04,306.21C134.82,306.39 133.59,306.52 132.36,306.58C131.14,306.64 129.91,306.65 128.69,306.56C127.46,306.47 126.23,306.32 125.01,306.05C123.77,305.78 122.08,305.22 121.33,304.93Z" style="stroke-miterlimit: 1; vector-effect: non-scaling-stroke; fill: none; stroke: rgb(180, 134, 64); stroke-opacity: 1; stroke-width: 2px;"/></g><g class="contourlevel"><path class="closedline" d="M132.36,296.1C131.78,296 131.48,295.89 130.96,295.75C130.29,295.57 129.52,295.41 128.69,295.06C127.59,294.59 126.01,293.72 125.01,293.02C124.23,292.47 123.68,291.95 123.08,291.33C122.46,290.69 121.86,289.97 121.33,289.23C120.81,288.5 120.38,287.84 119.93,286.92C119.33,285.71 118.62,283.82 118.23,282.51C117.93,281.5 117.81,280.58 117.66,279.78C117.54,279.15 117.44,278.79 117.36,278.09C117.23,276.97 117.11,275.15 117.08,273.68C117.05,272.21 117.11,270.72 117.21,269.26C117.31,267.82 117.47,266.44 117.675,264.995C117.89,263.5 118.16,261.93 118.46,260.43C118.76,258.94 119.11,257.49 119.48,256.02C119.86,254.55 120.36,252.77 120.71,251.61C120.94,250.85 121.11,250.4 121.33,249.73C121.59,248.95 121.82,248.15 122.15,247.19C122.59,245.92 123.26,244.11 123.78,242.78C124.21,241.68 124.68,240.59 125.01,239.77C125.23,239.21 125.32,238.96 125.57,238.36C126.02,237.29 126.95,235.19 127.53,233.95C127.96,233.03 128.32,232.33 128.69,231.57C129.03,230.87 129.26,230.34 129.66,229.54C130.25,228.35 131.47,225.99 131.93,225.12C132.13,224.75 132.16,224.7 132.36,224.34C132.78,223.57 133.71,221.85 134.35,220.71C134.93,219.69 135.57,218.63 136.04,217.82C136.38,217.23 136.55,216.93 136.93,216.29C137.59,215.19 138.75,213.3 139.685,211.82999999999998C140.62,210.36 141.84,208.48 142.52,207.46C142.89,206.91 143.03,206.71 143.39,206.19C143.95,205.38 144.89,203.99 145.55,203.05C146.1,202.27 146.55,201.65 147.07,200.93C147.61,200.18 148.15,199.43 148.74,198.64C149.38,197.78 150.15,196.77 150.75,195.97C151.24,195.32 151.58,194.88 152.09,194.22C152.76,193.36 153.77,192.08 154.42,191.27C154.88,190.7 155.14,190.38 155.61,189.81C156.29,188.99 157.41,187.63 158.1,186.82C158.58,186.25 158.84,185.94 159.32,185.39C160,184.61 161.07,183.39 161.78,182.59C162.32,181.98 162.69,181.57 163.23,180.98C163.89,180.26 164.73,179.33 165.45,178.57C166.11,177.87 166.74,177.22 167.37,176.57C167.97,175.95 168.48,175.4 169.13,174.74C169.91,173.95 171.07,172.82 171.75,172.15C172.18,171.73 172.35,171.55 172.81,171.11C173.66,170.3 175.21,168.82 176.44,167.7C177.66,166.58 179.24,165.19 180.16,164.39C180.69,163.93 180.94,163.73 181.43,163.32C182.11,162.75 182.99,162 183.84,161.3C184.78,160.53 186.22,159.42 186.86,158.91C187.16,158.67 187.21,158.63 187.52,158.39C188.25,157.83 190.2,156.37 191.19,155.66C191.86,155.18 192.29,154.9 192.88,154.49C193.52,154.05 194.1,153.62 194.87,153.11C195.9,152.42 197.66,151.3 198.55,150.76C199.04,150.46 199.25,150.35 199.71,150.08C200.39,149.68 201.3,149.12 202.22,148.6C203.32,147.98 204.84,147.18 205.9,146.65C206.69,146.26 207.36,145.98 208.01,145.67C208.57,145.4 208.94,145.2 209.58,144.92C210.54,144.5 212.02,143.89 213.25,143.44C214.47,142.99 215.69,142.58 216.93,142.22C218.18,141.86 219.48,141.52 220.73000000000002,141.26999999999998C221.93,141.03 223.08,140.84 224.28,140.72C225.49,140.6 226.73,140.53 227.96,140.56C229.19,140.59 230.71,140.74 231.64,140.9C232.22,141 232.52,141.11 233.04,141.25C233.71,141.43 234.48,141.59 235.31,141.94C236.41,142.41 237.99,143.28 238.99,143.98C239.77,144.53 240.32,145.05 240.92,145.67C241.54,146.31 242.14,147.03 242.67,147.77C243.19,148.5 243.62,149.16 244.07,150.08C244.67,151.29 245.38,153.18 245.77,154.49C246.07,155.5 246.19,156.42 246.34,157.22C246.46,157.85 246.56,158.21 246.64,158.91C246.77,160.03 246.89,161.85 246.92,163.32C246.95,164.79 246.89,166.28 246.79,167.74C246.69,169.18 246.53,170.56 246.325,172.005C246.11,173.5 245.84,175.07 245.54,176.57C245.24,178.06 244.89,179.51 244.52,180.98C244.14,182.45 243.64,184.23 243.29,185.39C243.06,186.15 242.89,186.6 242.67,187.27C242.41,188.05 242.18,188.85 241.85,189.81C241.41,191.08 240.74,192.89 240.22,194.22C239.79,195.32 239.32,196.41 238.99,197.23C238.77,197.79 238.68,198.04 238.43,198.64C237.98,199.71 237.05,201.81 236.47,203.05C236.04,203.97 235.68,204.67 235.31,205.43C234.97,206.13 234.74,206.66 234.34,207.46C233.75,208.65 232.53,211.01 232.07,211.88C231.87,212.25 231.84,212.3 231.64,212.66C231.22,213.43 230.29,215.15 229.65,216.29C229.07,217.31 228.43,218.37 227.96,219.18C227.62,219.77 227.45,220.07 227.07,220.71C226.41,221.81 225.25,223.7 224.315,225.17000000000002C223.38,226.64 222.16,228.52 221.48,229.54C221.11,230.09 220.97,230.29 220.61,230.81C220.05,231.62 219.11,233.01 218.45,233.95C217.9,234.73 217.45,235.35 216.93,236.07C216.39,236.82 215.85,237.57 215.26,238.36C214.62,239.22 213.85,240.23 213.25,241.03C212.76,241.68 212.42,242.12 211.91,242.78C211.24,243.64 210.23,244.92 209.58,245.73C209.12,246.3 208.86,246.62 208.39,247.19C207.71,248.01 206.59,249.37 205.9,250.18C205.42,250.75 205.16,251.06 204.68,251.61C204,252.39 202.93,253.61 202.22,254.41C201.68,255.02 201.31,255.43 200.77,256.02C200.11,256.74 199.27,257.67 198.55,258.43C197.89,259.13 197.26,259.78 196.63,260.43C196.03,261.05 195.52,261.6 194.87,262.26C194.09,263.05 192.93,264.18 192.25,264.85C191.82,265.27 191.65,265.45 191.19,265.89C190.34,266.7 188.79,268.18 187.56,269.29999999999995C186.34,270.42 184.76,271.81 183.84,272.61C183.31,273.07 183.06,273.27 182.57,273.68C181.89,274.25 181.01,275 180.16,275.7C179.22,276.47 177.78,277.58 177.14,278.09C176.84,278.33 176.79,278.37 176.48,278.61C175.75,279.17 173.8,280.63 172.81,281.34C172.14,281.82 171.71,282.1 171.12,282.51C170.48,282.95 169.9,283.38 169.13,283.89C168.1,284.58 166.34,285.7 165.45,286.24C164.96,286.54 164.75,286.65 164.29,286.92C163.61,287.32 162.7,287.88 161.78,288.4C160.68,289.02 159.16,289.82 158.1,290.35C157.31,290.74 156.64,291.02 155.99,291.33C155.43,291.6 155.06,291.8 154.42,292.08C153.46,292.5 151.98,293.11 150.75,293.56C149.53,294.01 148.31,294.42 147.07,294.78C145.82,295.14 144.52,295.48 143.26999999999998,295.73C142.07,295.97 140.92,296.16 139.72,296.28C138.51,296.4 137.27,296.47 136.04,296.44C134.81,296.41 133.29,296.26 132.36,296.1Z" style="stroke-miterlimit: 1; vector-effect: non-scaling-stroke; fill: none; stroke: rgb(195, 161, 78); stroke-opacity: 1; stroke-width: 2px;"/></g><g class="contourlevel"><path class="closedline" d="M132.36,283.43C131.86,283.1 131.68,282.93 131.26,282.51C130.56,281.8 129.27,280.25 128.69,279.41C128.33,278.9 128.19,278.67 127.92,278.09C127.44,277.07 126.71,275.17 126.32,273.68C125.94,272.22 125.72,270.74 125.58,269.26C125.44,267.79 125.43,266.32 125.46,264.85C125.49,263.38 125.62,261.9 125.79,260.43C125.96,258.96 126.2,257.49 126.47,256.02C126.75,254.55 127.08,253.08 127.44,251.61C127.81,250.12 128.22,248.61 128.67000000000002,247.14C129.12,245.67 129.61,244.23 130.13,242.78C130.65,241.31 131.37,239.4 131.79,238.36C132.02,237.78 132.13,237.56 132.36,237.02C132.71,236.21 133.17,235.06 133.66,233.95C134.25,232.61 135.3,230.36 135.7,229.54C135.86,229.22 135.88,229.18 136.04,228.87C136.42,228.13 137.31,226.32 137.94,225.12C138.53,223.99 139.28,222.66 139.72,221.85C139.98,221.37 140.06,221.21 140.34,220.71C140.9,219.71 142.39,217.16 142.91,216.29C143.13,215.92 143.17,215.86 143.39,215.51C143.87,214.74 144.99,212.93 145.66,211.88C146.18,211.07 146.59,210.46 147.07,209.73C147.56,208.98 148.03,208.27 148.58,207.46C149.23,206.5 150.18,205.17 150.75,204.36C151.12,203.83 151.28,203.59 151.67,203.05C152.34,202.12 153.86,200.09 154.42,199.34C154.66,199.01 154.7,198.97 154.95,198.64C155.58,197.82 157.12,195.84 158.265,194.425C159.45,192.96 160.73,191.43 161.95,190.005C163.12,188.64 164.77,186.79 165.45,186.03C165.73,185.72 165.77,185.69 166.04,185.39C166.67,184.72 168.36,182.89 169.13,182.09C169.58,181.62 169.78,181.43 170.22,180.98C170.9,180.29 172.01,179.16 172.81,178.38C173.49,177.72 174.08,177.16 174.7,176.57C175.3,175.99 175.8,175.5 176.48,174.87C177.35,174.06 178.87,172.72 179.51,172.15C179.81,171.89 179.85,171.84 180.16,171.57C180.88,170.94 183.01,169.15 183.84,168.48C184.26,168.14 184.39,168.05 184.79,167.74C185.47,167.21 186.57,166.32 187.52,165.6C188.52,164.84 190.02,163.77 190.64,163.32C190.9,163.13 190.92,163.11 191.19,162.92C191.87,162.45 193.75,161.19 194.87,160.47C195.79,159.88 196.74,159.33 197.42,158.91C197.87,158.63 198.06,158.5 198.55,158.22C199.42,157.72 200.99,156.85 202.22,156.22C203.43,155.6 204.63,155.01 205.86,154.47C207.08,153.93 208.34,153.43 209.58,152.99C210.8,152.56 212.02,152.16 213.25,151.83C214.47,151.5 215.7,151.21 216.93,151.01C218.15,150.81 219.38,150.66 220.61,150.62C221.83,150.58 223.06,150.6 224.28,150.77C225.51,150.94 226.76,151.2 227.96,151.65C229.22,152.12 230.79,153 231.64,153.57C232.14,153.9 232.32,154.07 232.74,154.49C233.44,155.2 234.73,156.75 235.31,157.59C235.67,158.1 235.81,158.33 236.08,158.91C236.56,159.93 237.29,161.83 237.68,163.32C238.06,164.78 238.28,166.26 238.42,167.74C238.56,169.21 238.57,170.68 238.54,172.15C238.51,173.62 238.38,175.1 238.21,176.57C238.04,178.04 237.8,179.51 237.53,180.98C237.25,182.45 236.92,183.92 236.56,185.39C236.19,186.88 235.78,188.39 235.32999999999998,189.86C234.88,191.33 234.39,192.77 233.87,194.22C233.35,195.69 232.63,197.6 232.21,198.64C231.98,199.22 231.87,199.44 231.64,199.98C231.29,200.79 230.83,201.94 230.34,203.05C229.75,204.39 228.7,206.64 228.3,207.46C228.14,207.78 228.12,207.82 227.96,208.13C227.58,208.87 226.69,210.68 226.06,211.88C225.47,213.01 224.72,214.34 224.28,215.15C224.02,215.63 223.94,215.79 223.66,216.29C223.1,217.29 221.61,219.84 221.09,220.71C220.87,221.08 220.83,221.14 220.61,221.49C220.13,222.26 219.01,224.07 218.34,225.12C217.82,225.93 217.41,226.54 216.93,227.27C216.44,228.02 215.97,228.73 215.42,229.54C214.77,230.5 213.82,231.83 213.25,232.64C212.88,233.17 212.72,233.41 212.33,233.95C211.66,234.88 210.14,236.91 209.58,237.66C209.34,237.99 209.3,238.03 209.05,238.36C208.42,239.18 206.88,241.16 205.735,242.575C204.55,244.04 203.27,245.57 202.05,246.995C200.88,248.36 199.23,250.21 198.55,250.97C198.27,251.28 198.23,251.31 197.96,251.61C197.33,252.28 195.64,254.11 194.87,254.91C194.42,255.38 194.22,255.57 193.78,256.02C193.1,256.71 191.99,257.84 191.19,258.62C190.51,259.28 189.92,259.84 189.3,260.43C188.7,261.01 188.2,261.5 187.52,262.13C186.65,262.94 185.13,264.28 184.49,264.85C184.19,265.11 184.15,265.16 183.84,265.43C183.12,266.06 180.99,267.85 180.16,268.52C179.74,268.86 179.61,268.95 179.21,269.26C178.53,269.79 177.43,270.68 176.48,271.4C175.48,272.16 173.98,273.23 173.36,273.68C173.1,273.87 173.08,273.89 172.81,274.08C172.13,274.55 170.25,275.81 169.13,276.53C168.21,277.12 167.26,277.67 166.58,278.09C166.13,278.37 165.94,278.5 165.45,278.78C164.58,279.28 163.01,280.15 161.78,280.78C160.57,281.4 159.37,281.99 158.14,282.53C156.92,283.07 155.66,283.57 154.42,284.01C153.2,284.44 151.98,284.84 150.75,285.17C149.53,285.5 148.3,285.79 147.07,285.99C145.85,286.19 144.62,286.34 143.39,286.38C142.17,286.42 140.94,286.4 139.72,286.23C138.49,286.06 137.24,285.8 136.04,285.35C134.78,284.88 133.21,284 132.36,283.43Z" style="stroke-miterlimit: 1; vector-effect: non-scaling-stroke; fill: none; stroke: rgb(207, 188, 102); stroke-opacity: 1; stroke-width: 2px;"/></g><g class="contourlevel"><path class="closedline" d="M143.39,275.32C142.17,274.91 140.96,274.46 139.85500000000002,273.58500000000004C138.51,272.52 137,270.65 136.12,269.095C135.35,267.73 135.01,266.3 134.67,264.85C134.33,263.41 134.18,261.91 134.09,260.43C134,258.96 134.05,257.49 134.15,256.02C134.25,254.55 134.45,253.08 134.68,251.61C134.92,250.13 135.29,248.32 135.56,247.19C135.73,246.47 135.86,246.09 136.04,245.45C136.26,244.65 136.47,243.78 136.78,242.78C137.18,241.49 137.76,239.77 138.27,238.36C138.74,237.06 139.43,235.36 139.72,234.62C139.84,234.31 139.85,234.27 139.98,233.95C140.32,233.12 141.32,230.86 141.94,229.54C142.45,228.44 142.99,227.37 143.39,226.56C143.67,225.99 143.79,225.73 144.1,225.12C144.65,224.05 145.94,221.67 146.47,220.71C146.73,220.24 146.81,220.12 147.07,219.67C147.54,218.87 148.41,217.35 149.05,216.29C149.63,215.33 150.25,214.38 150.75,213.58C151.15,212.95 151.39,212.56 151.83,211.88C152.5,210.85 153.94,208.72 154.42,208.01C154.6,207.74 154.61,207.73 154.8,207.46C155.35,206.68 156.93,204.47 158.04500000000002,202.97500000000002C159.19,201.45 160.39,199.91 161.595,198.415C162.8,196.92 164.02,195.45 165.265,194.005C166.51,192.56 167.79,191.12 169.07,189.74C170.31,188.4 172.17,186.51 172.81,185.85C173.03,185.62 173.04,185.61 173.26,185.39C173.84,184.81 175.62,183.09 176.48,182.28C177.04,181.75 177.37,181.46 177.9,180.98C178.56,180.38 179.36,179.65 180.16,178.95C181.04,178.18 182.31,177.13 182.98,176.57C183.35,176.26 183.45,176.16 183.84,175.85C184.64,175.21 186.62,173.66 187.52,173C188.02,172.63 188.25,172.48 188.72,172.15C189.4,171.67 190.28,171.02 191.19,170.41C192.29,169.67 194.18,168.46 194.87,168.05C195.13,167.89 195.17,167.89 195.43,167.74C196.05,167.39 197.46,166.56 198.55,165.99C199.72,165.38 201.14,164.69 202.22,164.21C203.05,163.84 203.79,163.59 204.45,163.32C204.99,163.11 205.3,162.95 205.9,162.74C206.84,162.42 208.35,161.96 209.58,161.68C210.8,161.4 212.02,161.18 213.25,161.06C214.47,160.94 215.71,160.88 216.93,160.98C218.16,161.08 219.42,161.28 220.61,161.68C221.83,162.09 223.04,162.54 224.14499999999998,163.415C225.49,164.48 227,166.35 227.88,167.905C228.65,169.27 228.99,170.7 229.33,172.15C229.67,173.59 229.82,175.09 229.91,176.57C230,178.04 229.95,179.51 229.85,180.98C229.75,182.45 229.55,183.92 229.32,185.39C229.08,186.87 228.71,188.68 228.44,189.81C228.27,190.53 228.14,190.91 227.96,191.55C227.74,192.35 227.53,193.22 227.22,194.22C226.82,195.51 226.24,197.23 225.73,198.64C225.26,199.94 224.57,201.64 224.28,202.38C224.16,202.69 224.15,202.73 224.02,203.05C223.68,203.88 222.68,206.14 222.06,207.46C221.55,208.56 221.01,209.63 220.61,210.44C220.33,211.01 220.21,211.27 219.9,211.88C219.35,212.95 218.06,215.33 217.53,216.29C217.27,216.76 217.19,216.88 216.93,217.33C216.46,218.13 215.59,219.65 214.95,220.71C214.37,221.67 213.75,222.62 213.25,223.42C212.85,224.05 212.61,224.44 212.17,225.12C211.5,226.15 210.06,228.28 209.58,228.99C209.4,229.26 209.39,229.27 209.2,229.54C208.65,230.32 207.07,232.53 205.95499999999998,234.02499999999998C204.81,235.55 203.61,237.09 202.405,238.585C201.2,240.08 199.98,241.55 198.735,242.995C197.49,244.44 196.21,245.88 194.93,247.26C193.69,248.6 191.83,250.49 191.19,251.15C190.97,251.38 190.96,251.39 190.74,251.61C190.16,252.19 188.38,253.91 187.52,254.72C186.96,255.25 186.63,255.54 186.1,256.02C185.44,256.62 184.64,257.35 183.84,258.05C182.96,258.82 181.69,259.87 181.02,260.43C180.65,260.74 180.55,260.84 180.16,261.15C179.36,261.79 177.38,263.34 176.48,264C175.98,264.37 175.75,264.52 175.28,264.85C174.6,265.33 173.72,265.98 172.81,266.59C171.71,267.33 169.82,268.54 169.13,268.95C168.87,269.11 168.83,269.11 168.57,269.26C167.95,269.61 166.54,270.44 165.45,271.01C164.28,271.62 162.86,272.31 161.78,272.79C160.95,273.16 160.21,273.41 159.55,273.68C159.01,273.89 158.7,274.05 158.1,274.26C157.16,274.58 155.65,275.04 154.42,275.32C153.2,275.6 151.98,275.82 150.75,275.94C149.53,276.06 148.29,276.12 147.07,276.02C145.84,275.92 144.58,275.72 143.39,275.32Z" style="stroke-miterlimit: 1; vector-effect: non-scaling-stroke; fill: none; stroke: rgb(219, 216, 134); stroke-opacity: 1; stroke-width: 2px;"/></g><g class="contourlevel"><path class="closedline" d="M154.42,265.01C153.98,265 153.74,264.93 153.29,264.85C152.61,264.74 151.64,264.71 150.75,264.36C149.6,263.91 147.96,262.86 147.07,262.09C146.44,261.54 146.13,261.16 145.69,260.43C145.03,259.35 144.17,257.38 143.8,256.02C143.5,254.93 143.48,253.78 143.39,252.97C143.33,252.43 143.27,252.13 143.26,251.61C143.24,250.9 143.35,249.86 143.39,249.08C143.43,248.4 143.4,247.95 143.49,247.19C143.62,246.02 143.96,244.24 144.28,242.78C144.61,241.3 145,239.84 145.44,238.36C145.9,236.83 146.43,235.23 146.985,233.735C147.52,232.29 148.1,230.95 148.72,229.54C149.36,228.08 150.03,226.58 150.75,225.12C151.48,223.64 152.42,221.94 153.1,220.71C153.59,219.82 153.98,219.17 154.42,218.42C154.84,217.7 155.18,217.1 155.68,216.29C156.35,215.2 157.64,213.19 158.1,212.47C158.28,212.19 158.29,212.17 158.48,211.88C159.02,211.07 160.59,208.8 161.67000000000002,207.315C162.73,205.86 164.29,203.85 164.92,203.05C165.17,202.73 165.2,202.7 165.45,202.39C166.06,201.65 167.96,199.37 168.58,198.64C168.84,198.34 168.86,198.3 169.13,198C169.8,197.25 171.47,195.37 172.685,194.09C173.92,192.8 175.81,190.92 176.48,190.27C176.72,190.04 176.73,190.03 176.97,189.81C177.57,189.26 179.25,187.71 180.16,186.9C180.83,186.31 181.33,185.9 181.93,185.39C182.55,184.87 183.09,184.41 183.84,183.81C184.86,183 186.28,181.87 187.52,180.98C188.73,180.12 189.97,179.32 191.19,178.55C192.36,177.81 193.48,177.11 194.69,176.465C195.93,175.8 197.27,175.16 198.55,174.61C199.78,174.08 200.98,173.6 202.22,173.21C203.43,172.82 204.93,172.43 205.9,172.27C206.53,172.17 206.91,172.19 207.47,172.15C208.12,172.1 208.99,171.97 209.58,171.99C210.02,172 210.26,172.07 210.71,172.15C211.39,172.26 212.36,172.29 213.25,172.64C214.4,173.09 216.04,174.14 216.93,174.91C217.56,175.46 217.87,175.84 218.31,176.57C218.97,177.65 219.83,179.62 220.2,180.98C220.5,182.07 220.52,183.22 220.61,184.03C220.67,184.57 220.73,184.87 220.74,185.39C220.76,186.1 220.65,187.14 220.61,187.92C220.57,188.6 220.6,189.05 220.51,189.81C220.38,190.98 220.04,192.76 219.72,194.22C219.39,195.7 219,197.16 218.56,198.64C218.1,200.17 217.57,201.77 217.015,203.265C216.48,204.71 215.9,206.05 215.28,207.46C214.64,208.92 213.97,210.42 213.25,211.88C212.52,213.36 211.58,215.06 210.9,216.29C210.41,217.18 210.02,217.83 209.58,218.58C209.16,219.3 208.82,219.9 208.32,220.71C207.65,221.8 206.36,223.81 205.9,224.53C205.72,224.81 205.71,224.83 205.52,225.12C204.98,225.93 203.41,228.2 202.32999999999998,229.685C201.27,231.14 199.71,233.15 199.08,233.95C198.83,234.27 198.8,234.3 198.55,234.61C197.94,235.35 196.04,237.63 195.42,238.36C195.16,238.66 195.14,238.7 194.87,239C194.2,239.75 192.53,241.63 191.315,242.91C190.08,244.2 188.19,246.08 187.52,246.73C187.28,246.96 187.27,246.97 187.03,247.19C186.43,247.74 184.75,249.29 183.84,250.1C183.17,250.69 182.67,251.1 182.07,251.61C181.45,252.13 180.91,252.59 180.16,253.19C179.14,254 177.72,255.13 176.48,256.02C175.27,256.88 174.03,257.68 172.81,258.45C171.64,259.19 170.52,259.89 169.31,260.53499999999997C168.07,261.2 166.73,261.84 165.45,262.39C164.22,262.92 163.02,263.4 161.78,263.79C160.57,264.18 159.07,264.57 158.1,264.73C157.47,264.83 157.09,264.81 156.53,264.85C155.88,264.9 155.01,265.03 154.42,265.01Z" style="stroke-miterlimit: 1; vector-effect: non-scaling-stroke; fill: none; stroke: rgb(232, 245, 171); stroke-opacity: 1; stroke-width: 2px;"/></g></g></g></g></g><g class="overplot"/><path class="xlines-above crisp" d="" style="fill: none; stroke-width: 1px; stroke: rgb(0, 0, 0); stroke-opacity: 0;"/><path class="ylines-above crisp" d="" style="fill: none; stroke-width: 1px; stroke: rgb(0, 0, 0); stroke-opacity: 0;"/><g class="overlines-above"/><g class="xaxislayer-above"><path class="xtick ticks crisp" d="M0,478v5" transform="translate(84.61,0)" style="stroke: rgb(51, 51, 51); stroke-opacity: 1; stroke-width: 1px;"/><path class="xtick ticks crisp" d="M0,478v5" transform="translate(208,0)" style="stroke: rgb(51, 51, 51); stroke-opacity: 1; stroke-width: 1px;"/><path class="xtick ticks crisp" d="M0,478v5" transform="translate(331.39,0)" style="stroke: rgb(51, 51, 51); stroke-opacity: 1; stroke-width: 1px;"/><g class="xtick"><text text-anchor="middle" x="0" y="497.4" transform="translate(84.61,0)" style="font-family: 'Open Sans', verdana, arial, sans-serif; font-size: 12px; fill: rgb(51, 51, 51); fill-opacity: 1; white-space: pre; opacity: 1;">2</text></g><g class="xtick"><text text-anchor="middle" x="0" y="497.4" style="font-family: 'Open Sans', verdana, arial, sans-serif; font-size: 12px; fill: rgb(51, 51, 51); fill-opacity: 1; white-space: pre; opacity: 1;" transform="translate(208,0)">0</text></g><g class="xtick"><text text-anchor="middle" x="0" y="497.4" style="font-family: 'Open Sans', verdana, arial, sans-serif; font-size: 12px; fill: rgb(51, 51, 51); fill-opacity: 1; white-space: pre; opacity: 1;" transform="translate(331.39,0)">2</text></g></g><g class="yaxislayer-above"><path class="ytick ticks crisp" d="M25,0h-5" transform="translate(0,406.64)" style="stroke: rgb(51, 51, 51); stroke-opacity: 1; stroke-width: 1px;"/><path class="ytick ticks crisp" d="M25,0h-5" transform="translate(0,332.57)" style="stroke: rgb(51, 51, 51); stroke-opacity: 1; stroke-width: 1px;"/><path class="ytick ticks crisp" d="M25,0h-5" transform="translate(0,258.5)" style="stroke: rgb(51, 51, 51); stroke-opacity: 1; stroke-width: 1px;"/><path class="ytick ticks crisp" d="M25,0h-5" transform="translate(0,184.43)" style="stroke: rgb(51, 51, 51); stroke-opacity: 1; stroke-width: 1px;"/><path class="ytick ticks crisp" d="M25,0h-5" transform="translate(0,110.36)" style="stroke: rgb(51, 51, 51); stroke-opacity: 1; stroke-width: 1px;"/><g class="ytick"><text text-anchor="end" x="17.6" y="4.199999999999999" transform="translate(0,406.64)" style="font-family: 'Open Sans', verdana, arial, sans-serif; font-size: 12px; fill: rgb(51, 51, 51); fill-opacity: 1; white-space: pre; opacity: 1;">2</text></g><g class="ytick"><text text-anchor="end" x="17.6" y="4.199999999999999" style="font-family: 'Open Sans', verdana, arial, sans-serif; font-size: 12px; fill: rgb(51, 51, 51); fill-opacity: 1; white-space: pre; opacity: 1;" transform="translate(0,332.57)">1</text></g><g class="ytick"><text text-anchor="end" x="17.6" y="4.199999999999999" style="font-family: 'Open Sans', verdana, arial, sans-serif; font-size: 12px; fill: rgb(51, 51, 51); fill-opacity: 1; white-space: pre; opacity: 1;" transform="translate(0,258.5)">0</text></g><g class="ytick"><text text-anchor="end" x="17.6" y="4.199999999999999" style="font-family: 'Open Sans', verdana, arial, sans-serif; font-size: 12px; fill: rgb(51, 51, 51); fill-opacity: 1; white-space: pre; opacity: 1;" transform="translate(0,184.43)">1</text></g><g class="ytick"><text text-anchor="end" x="17.6" y="4.199999999999999" style="font-family: 'Open Sans', verdana, arial, sans-serif; font-size: 12px; fill: rgb(51, 51, 51); fill-opacity: 1; white-space: pre; opacity: 1;" transform="translate(0,110.36)">2</text></g></g><g class="overaxes-above"/></g></g><g class="polarlayer"/><g class="ternarylayer"/><g class="geolayer"/><g class="funnelarealayer"/><g class="pielayer"/><g class="iciclelayer"/><g class="treemaplayer"/><g class="sunburstlayer"/><g class="glimages"/><defs id="topdefs-b9465a"><g class="clips"/></defs><g class="layer-above"><g class="imagelayer"/><g class="shapelayer"/></g><g class="infolayer"><g class="cb0e273b colorbar" transform="translate(26,40)"><rect class="cbbg" x="371" y="0" width="102.28125" height="437" style="fill: rgb(0, 0, 0); fill-opacity: 0; stroke: rgb(68, 68, 68); stroke-opacity: 1; stroke-width: 0;"/><g class="cbfills" transform="translate(0,10)"/><g class="cblines" transform="translate(0,10)"><path class="cbline" d="M381,417h30" style="fill: none; stroke: rgb(34, 30, 27); stroke-opacity: 1; stroke-width: 2px;"/><path class="cbline" d="M381,375h30" style="fill: none; stroke: rgb(59, 46, 38); stroke-opacity: 1; stroke-width: 2px;"/><path class="cbline" d="M381,334h30" style="fill: none; stroke: rgb(85, 62, 47); stroke-opacity: 1; stroke-width: 2px;"/><path class="cbline" d="M381,292h30" style="fill: none; stroke: rgb(112, 77, 54); stroke-opacity: 1; stroke-width: 2px;"/><path class="cbline" d="M381,250h30" style="fill: none; stroke: rgb(138, 93, 57); stroke-opacity: 1; stroke-width: 2px;"/><path class="cbline" d="M381,209h30" style="fill: none; stroke: rgb(161, 112, 59); stroke-opacity: 1; stroke-width: 2px;"/><path class="cbline" d="M381,167h30" style="fill: none; stroke: rgb(180, 134, 64); stroke-opacity: 1; stroke-width: 2px;"/><path class="cbline" d="M381,125h30" style="fill: none; stroke: rgb(195, 160, 78); stroke-opacity: 1; stroke-width: 2px;"/><path class="cbline" d="M381,83h30" style="fill: none; stroke: rgb(207, 188, 102); stroke-opacity: 1; stroke-width: 2px;"/><path class="cbline" d="M381,42h30" style="fill: none; stroke: rgb(219, 216, 134); stroke-opacity: 1; stroke-width: 2px;"/><path class="cbline" d="M381,0h30" style="fill: none; stroke: rgb(232, 245, 171); stroke-opacity: 1; stroke-width: 2px;"/></g><g class="cbaxis crisp" transform="translate(0,-40)"><path class="ycb0e273btick ticks crisp" d="M410.5,0h-6" transform="translate(0,383.6)" style="stroke: rgb(237, 237, 237); stroke-opacity: 1; stroke-width: 1px;"/><path class="ycb0e273btick ticks crisp" d="M410.5,0h-6" transform="translate(0,300.2)" style="stroke: rgb(237, 237, 237); stroke-opacity: 1; stroke-width: 1px;"/><path class="ycb0e273btick ticks crisp" d="M410.5,0h-6" transform="translate(0,216.8)" style="stroke: rgb(237, 237, 237); stroke-opacity: 1; stroke-width: 1px;"/><path class="ycb0e273btick ticks crisp" d="M410.5,0h-6" transform="translate(0,133.40000000000003)" style="stroke: rgb(237, 237, 237); stroke-opacity: 1; stroke-width: 1px;"/><g class="ycb0e273btick"><text text-anchor="start" x="413.9" y="4.199999999999999" transform="translate(0,467)" style="font-family: 'Open Sans', verdana, arial, sans-serif; font-size: 12px; fill: rgb(51, 51, 51); fill-opacity: 1; white-space: pre; opacity: 1;">0</text></g><g class="ycb0e273btick"><text text-anchor="start" x="413.9" y="4.199999999999999" style="font-family: 'Open Sans', verdana, arial, sans-serif; font-size: 12px; fill: rgb(51, 51, 51); fill-opacity: 1; white-space: pre; opacity: 1;" transform="translate(0,383.6)">0.0366</text></g><g class="ycb0e273btick"><text text-anchor="start" x="413.9" y="4.199999999999999" style="font-family: 'Open Sans', verdana, arial, sans-serif; font-size: 12px; fill: rgb(51, 51, 51); fill-opacity: 1; white-space: pre; opacity: 1;" transform="translate(0,300.2)">0.0732</text></g><g class="ycb0e273btick"><text text-anchor="start" x="413.9" y="4.199999999999999" style="font-family: 'Open Sans', verdana, arial, sans-serif; font-size: 12px; fill: rgb(51, 51, 51); fill-opacity: 1; white-space: pre; opacity: 1;" transform="translate(0,216.8)">0.1098</text></g><g class="ycb0e273btick"><text text-anchor="start" x="413.9" y="4.199999999999999" style="font-family: 'Open Sans', verdana, arial, sans-serif; font-size: 12px; fill: rgb(51, 51, 51); fill-opacity: 1; white-space: pre; opacity: 1;" transform="translate(0,133.40000000000003)">0.1464</text></g><g class="ycb0e273btick"><text text-anchor="start" x="413.9" y="4.199999999999999" style="font-family: 'Open Sans', verdana, arial, sans-serif; font-size: 12px; fill: rgb(51, 51, 51); fill-opacity: 1; white-space: pre; opacity: 1;" transform="translate(0,50.000000000000014)">0.183</text></g></g><g class="cbtitleunshift" transform="translate(-26,-40)"><g class="cbtitle"/></g><rect class="cboutline" x="381" y="10" width="30" height="417" style="stroke: rgb(68, 68, 68); stroke-opacity: 1; fill: none; stroke-width: 0;"/></g><g class="g-gtitle"><text class="gtitle" x="250" y="20" text-anchor="middle" dy="0em" style="font-family: 'Open Sans', verdana, arial, sans-serif; font-size: 17px; fill: rgb(51, 51, 51); opacity: 1; font-weight: normal; white-space: pre;">Gaussian copula</text></g><g class="g-xtitle"/><g class="g-ytitle"/></g></svg>