<svg class="main-svg" xmlns="http://www.w3.org/2000/svg" xmlns:xlink="http://www.w3.org/1999/xlink" width="1500" height="1500" style="" viewBox="0 0 500 500"><rect x="0" y="0" width="500" height="500" style="fill: rgb(255, 255, 255); fill-opacity: 1;"/><defs id="defs-d79909"><g class="clips"><clipPath id="clipd79909xyplot" class="plotclip"><rect width="370" height="437"/></clipPath><clipPath class="axesclip" id="clipd79909x"><rect x="28" y="0" width="370" height="500"/></clipPath><clipPath class="axesclip" id="clipd79909y"><rect x="0" y="40" width="500" height="437"/></clipPath><clipPath class="axesclip" id="clipd79909xy"><rect x="28" y="40" width="370" height="437"/></clipPath><clipPath class="contourclip" id="clip330f33"><path d="M0,33.5L370,33.5L370,403.5L0,403.5Z"/></clipPath></g><g class="gradients"/><g class="patterns"/></defs><g class="bglayer"><rect class="bg" x="28" y="40" width="370" height="437" style="fill: rgb(237, 237, 237); fill-opacity: 1; stroke-width: 0;"/></g><g class="layer-below"><g class="imagelayer"/><g class="shapelayer"/></g><g class="cartesianlayer"><g class="subplot xy"><g class="layer-subplot"><g class="shapelayer"/><g class="imagelayer"/></g><g class="gridlayer"><g class="x"><path class="xgrid crisp" transform="translate(89.67,0)" d="M0,40v437" style="stroke: rgb(255, 255, 255); stroke-opacity: 1; stroke-width: 1px;"/><path class="xgrid crisp" transform="translate(171.89,0)" d="M0,40v437" style="stroke: rgb(255, 255, 255); stroke-opacity: 1; stroke-width: 1px;"/><path class="xgrid crisp" transform="translate(254.11,0)" d="M0,40v437" style="stroke: rgb(255, 255, 255); stroke-opacity: 1; stroke-width: 1px;"/><path class="xgrid crisp" transform="translate(336.33,0)" d="M0,40v437" style="stroke: rgb(255, 255, 255); stroke-opacity: 1; stroke-width: 1px;"/></g><g class="y"><path class="ygrid crisp" transform="translate(0,381.83)" d="M28,0h370" style="stroke: rgb(255, 255, 255); stroke-opacity: 1; stroke-width: 1px;"/><path class="ygrid crisp" transform="translate(0,299.61)" d="M28,0h370" style="stroke: rgb(255, 255, 255); stroke-opacity: 1; stroke-width: 1px;"/><path class="ygrid crisp" transform="translate(0,217.39)" d="M28,0h370" style="stroke: rgb(255, 255, 255); stroke-opacity: 1; stroke-width: 1px;"/><path class="ygrid crisp" transform="translate(0,135.17000000000002)" d="M28,0h370" style="stroke: rgb(255, 255, 255); stroke-opacity: 1; stroke-width: 1px;"/><path class="ygrid crisp" transform="translate(0,52.94)" d="M28,0h370" style="stroke: rgb(255, 255, 255); stroke-opacity: 1; stroke-width: 1px;"/></g></g><g class="zerolinelayer"><path class="yzl zl crisp" transform="translate(0,464.06)" d="M28,0h370" style="stroke: rgb(255, 255, 255); stroke-opacity: 1; stroke-width: 1px;"/></g><path class="xlines-below"/><path class="ylines-below"/><g class="overlines-below"/><g class="xaxislayer-below"/><g class="yaxislayer-below"/><g class="overaxes-below"/><g class="plot" transform="translate(28,40)" clip-path="url(#clipd79909xyplot)"><g class="contourlayer mlayer"><g class="contour" clip-path="url(#clip330f33)" style="opacity: 1;"><g class="heatmapcoloring"/><g class="contourbg"/><g class="contourfill"/><g class="contourlines"><g class="contourlevel"/><g class="contourlevel"><path class="openline" d="M0,349.43Q0.77,348.21 1.26,347.44C1.94,346.38 2.9,344.93 3.725,343.68C4.54,342.44 5.49,340.99 6.18,339.96C6.68,339.22 7.04,338.69 7.47,338.07C7.9,337.45 8.27,336.94 8.78,336.23C9.49,335.24 10.46,333.88 11.34,332.66499999999996C12.27,331.39 13.57,329.63 14.21,328.75C14.54,328.3 14.64,328.16 14.95,327.74C15.46,327.05 16.37,325.88 17.02,325.02C17.61,324.25 18.17,323.5 18.69,322.83C19.13,322.27 19.43,321.89 19.91,321.28C20.6,320.41 21.92,318.71 22.42,318.09C22.63,317.83 22.65,317.81 22.87,317.54C23.45,316.83 24.99,314.9 26.025,313.63C27.01,312.41 28.23,310.93 28.94,310.07C29.35,309.57 29.52,309.36 29.9,308.9C30.47,308.21 31.39,307.12 32.05,306.33C32.62,305.65 33.11,305.07 33.64,304.44C34.17,303.82 34.65,303.25 35.22,302.59C35.88,301.82 36.78,300.77 37.37,300.08C37.79,299.6 38,299.35 38.44,298.85C39.13,298.06 40.54,296.44 41.11,295.79C41.38,295.48 41.43,295.43 41.71,295.12C42.36,294.39 43.84,292.72 44.94,291.48C46.09,290.19 47.32,288.81 48.480000000000004,287.52C49.59,286.29 51.09,284.61 51.74,283.9C52.01,283.6 52.05,283.55 52.32,283.26C52.91,282.62 54.47,280.92 55.15,280.17C55.54,279.75 55.68,279.58 56.06,279.17C56.69,278.48 57.91,277.18 58.6,276.43C59.07,275.92 59.34,275.63 59.8,275.13C60.44,274.44 61.4,273.41 62.08,272.69C62.62,272.11 63.01,271.69 63.54,271.13C64.17,270.46 64.94,269.64 65.59,268.95C66.18,268.33 66.69,267.78 67.27,267.17C67.87,266.53 68.51,265.87 69.13,265.22C69.76,264.56 70.4,263.88 71.01,263.24C71.59,262.64 72.11,262.09 72.7,261.48C73.35,260.8 74.11,260.01 74.75,259.35C75.3,258.78 75.74,258.32 76.3,257.74C76.96,257.05 77.83,256.15 78.48,255.48C79.01,254.94 79.38,254.56 79.92,254.01C80.6,253.31 81.55,252.32 82.22,251.64C82.73,251.12 83.06,250.79 83.57,250.27C84.25,249.57 85.29,248.52 85.96,247.83C86.45,247.33 86.74,247.03 87.24,246.53C87.93,245.83 89.02,244.73 89.7,244.04C90.18,243.55 90.45,243.28 90.93,242.79C91.62,242.1 92.74,240.96 93.43,240.27C93.91,239.79 94.17,239.54 94.65,239.06C95.34,238.37 96.48,237.22 97.17,236.53C97.65,236.05 97.91,235.8 98.39,235.32C99.08,234.63 100.22,233.5 100.91,232.81C101.39,232.33 101.66,232.06 102.14,231.58C102.83,230.9 103.95,229.79 104.65,229.1C105.15,228.61 105.43,228.33 105.92,227.84C106.61,227.16 107.68,226.1 108.38,225.42C108.89,224.92 109.21,224.61 109.72,224.11C110.4,223.44 111.42,222.43 112.12,221.75C112.65,221.23 113.01,220.89 113.54,220.37C114.22,219.71 115.17,218.78 115.86,218.11C116.42,217.57 116.82,217.17 117.37,216.63C118.04,215.98 118.92,215.14 119.6,214.48C120.19,213.91 120.65,213.45 121.23,212.89C121.89,212.25 122.66,211.51 123.33,210.86C123.95,210.27 124.5,209.74 125.11,209.16C125.75,208.55 126.42,207.9 127.07,207.27C127.72,206.65 128.37,206.03 129,205.42C129.61,204.83 130.18,204.29 130.81,203.69C131.49,203.04 132.26,202.31 132.92,201.68C133.5,201.13 133.96,200.69 134.55,200.13C135.25,199.46 136.17,198.58 136.85,197.94C137.38,197.44 137.74,197.1 138.28,196.59C139,195.91 140.12,194.86 140.81,194.21C141.29,193.76 141.53,193.53 142.02,193.07C142.75,192.38 144.09,191.11 144.78,190.47C145.19,190.09 145.34,189.95 145.76,189.56C146.49,188.88 148.12,187.34 148.78,186.73C149.1,186.43 149.17,186.37 149.49,186.07C150.19,185.42 152.21,183.53 152.8,182.99C153.01,182.8 153.02,182.79 153.23,182.6C153.86,182.03 155.67,180.35 156.91,179.2C158.19,178.02 159.53,176.79 160.805,175.61C162.04,174.47 163.78,172.87 164.44,172.26C164.69,172.03 164.71,172.01 164.96,171.78C165.57,171.22 167.45,169.51 168.18,168.84C168.56,168.49 168.68,168.39 169.05,168.05C169.73,167.43 171.16,166.12 171.92,165.43C172.42,164.98 172.67,164.75 173.16,164.31C173.85,163.69 174.92,162.72 175.66,162.05C176.26,161.51 176.71,161.09 177.29,160.57C177.94,159.98 178.69,159.32 179.39,158.69C180.08,158.07 180.81,157.42 181.46,156.83C182.05,156.31 182.52,155.89 183.13,155.34C183.88,154.67 184.96,153.71 185.65,153.1C186.13,152.67 186.37,152.46 186.87,152.02C187.65,151.33 189.22,149.94 189.88,149.36C190.21,149.07 190.27,149.01 190.61,148.72C191.36,148.06 193,146.62 194.24,145.53C195.54,144.39 196.94,143.16 198.24,142.02499999999998C199.47,140.95 201.03,139.58 201.82,138.9C202.2,138.56 202.31,138.47 202.68,138.15C203.36,137.56 204.77,136.34 205.56,135.65C206.12,135.16 206.46,134.87 206.99,134.41C207.67,133.83 208.55,133.07 209.29,132.43C209.99,131.83 210.69,131.23 211.34,130.67C211.93,130.17 212.4,129.77 213.03,129.24C213.83,128.56 215.05,127.51 215.74,126.93C216.16,126.57 216.32,126.44 216.77,126.07C217.6,125.37 219.12,124.1 220.35,123.065C221.67,121.96 223.13,120.73 224.44,119.625C225.66,118.6 227.13,117.37 227.98,116.66C228.46,116.26 228.65,116.1 229.1,115.72C229.79,115.14 230.92,114.21 231.72,113.55C232.4,112.98 232.99,112.5 233.62,111.98C234.24,111.47 234.78,111.03 235.45,110.48C236.27,109.81 237.51,108.81 238.2,108.25C238.61,107.92 238.75,107.8 239.19,107.45C240.03,106.77 241.66,105.48 242.895,104.48C244.15,103.47 245.88,102.06 246.67,101.42C247.04,101.12 247.12,101.05 247.47,100.77C248.14,100.23 249.55,99.11 250.4,98.43C251.06,97.91 251.55,97.52 252.15,97.04C252.79,96.53 253.42,96.03 254.14,95.47C254.99,94.8 256.23,93.83 256.92,93.3C257.32,92.99 257.45,92.89 257.88,92.56C258.73,91.91 260.44,90.59 261.695,89.62C262.93,88.66 264.45,87.46 265.35,86.77C265.87,86.37 266.1,86.19 266.58,85.82C267.27,85.29 268.26,84.53 269.09,83.9C269.9,83.29 270.82,82.6 271.5,82.09C272.01,81.71 272.27,81.5 272.83,81.09C273.76,80.4 275.32,79.28 276.56,78.35C277.81,77.42 279.39,76.2 280.3,75.52C280.82,75.13 281.05,74.97 281.53,74.61C282.22,74.1 283.19,73.38 284.04,72.76C284.9,72.13 285.98,71.37 286.67,70.87C287.12,70.55 287.3,70.42 287.78,70.07C288.69,69.42 290.45,68.2 291.72,67.285C292.93,66.42 294.25,65.43 295.25,64.72C295.98,64.2 296.52,63.84 297.15,63.4C297.77,62.97 298.27,62.6 298.99,62.1C300.01,61.4 301.45,60.48 302.685,59.629999999999995C303.94,58.77 305.47,57.65 306.46,56.97C307.09,56.54 307.46,56.3 308.02,55.92C308.69,55.47 309.38,54.97 310.2,54.43C311.25,53.74 312.61,52.92 313.83500000000004,52.12C315.1,51.29 316.66,50.18 317.68,49.51C318.35,49.07 318.77,48.83 319.36,48.45C320.01,48.03 320.61,47.59 321.41,47.09C322.48,46.41 324,45.57 325.25,44.775000000000006C326.49,43.99 327.8,43.05 328.89,42.37C329.76,41.83 330.6,41.38 331.28,40.97C331.8,40.66 332.07,40.47 332.63,40.13C333.56,39.56 335.47,38.41 336.36,37.89C336.85,37.6 337.05,37.51 337.51,37.24C338.2,36.83 339.13,36.17 340.1,35.61Q341.28,34.93 344.09,33.5" style="stroke-miterlimit: 1; vector-effect: non-scaling-stroke; fill: none; stroke: rgb(47, 38, 33); stroke-opacity: 1; stroke-width: 2px;"/><path class="openline" d="M370,59.41Q368.57,62.22 367.89,63.4C367.33,64.37 366.67,65.3 366.26,65.99C365.99,66.45 365.9,66.65 365.61,67.14C365.09,68.03 363.94,69.94 363.37,70.87C363.03,71.43 362.84,71.7 362.53,72.22C362.12,72.9 361.67,73.74 361.13,74.61C360.45,75.7 359.51,77.01 358.725,78.25C357.93,79.5 357.09,81.02 356.41,82.09C355.91,82.89 355.47,83.49 355.05,84.14C354.67,84.73 354.43,85.15 353.99,85.82C353.32,86.84 352.21,88.4 351.38,89.66499999999999C350.58,90.89 349.76,92.25 349.07,93.3C348.53,94.12 348.03,94.81 347.58,95.48C347.2,96.04 346.96,96.41 346.53,97.04C345.85,98.03 344.73,99.56 343.87,100.815C343.02,102.05 342.1,103.49 341.4,104.51C340.9,105.23 340.53,105.73 340.1,106.35C339.66,106.98 339.3,107.52 338.78,108.25C338.07,109.25 337.08,110.57 336.21500000000003,111.78C335.3,113.05 334.08,114.81 333.43,115.72C333.08,116.2 332.95,116.38 332.63,116.83C332.13,117.52 331.37,118.6 330.74,119.46C330.12,120.31 329.4,121.28 328.89,121.97C328.53,122.45 328.37,122.68 327.98,123.2C327.3,124.11 326.09,125.69 325.155,126.935C324.23,128.18 323.1,129.74 322.41,130.67C322,131.23 321.79,131.49 321.41,132C320.9,132.68 320.21,133.6 319.6,134.41C318.97,135.24 318.21,136.23 317.68,136.92C317.31,137.4 317.13,137.63 316.73,138.15C316.04,139.05 314.84,140.57 313.88,141.805C312.91,143.06 311.59,144.77 310.94,145.62C310.61,146.05 310.51,146.18 310.2,146.58C309.67,147.27 308.7,148.51 308.03,149.36C307.47,150.08 306.97,150.71 306.46,151.35C305.98,151.95 305.59,152.44 305.07,153.1C304.39,153.95 303.27,155.36 302.73,156.03C302.45,156.38 302.38,156.46 302.08,156.83C301.44,157.62 300.03,159.35 299.02,160.605C298.02,161.84 296.73,163.47 296.05,164.31C295.7,164.75 295.58,164.89 295.25,165.3C294.69,165.99 293.69,167.23 293.02,168.05C292.47,168.72 292.03,169.26 291.52,169.88C291,170.51 290.52,171.1 289.95,171.78C289.29,172.58 288.36,173.71 287.78,174.4C287.4,174.85 287.24,175.04 286.84,175.52C286.13,176.37 284.9,177.84 283.875,179.06C282.77,180.37 281.54,181.83 280.435,183.15C279.4,184.38 278.13,185.9 277.43,186.73C277.06,187.18 276.93,187.34 276.57,187.76C275.99,188.45 274.94,189.67 274.26,190.47C273.73,191.1 273.33,191.57 272.83,192.16C272.27,192.81 271.67,193.51 271.07,194.21C270.43,194.95 269.67,195.83 269.09,196.51C268.63,197.04 268.34,197.38 267.85,197.94C267.16,198.73 265.94,200.14 265.35,200.82C265.03,201.19 264.94,201.3 264.6,201.68C263.92,202.47 262.55,204.03 261.475,205.26C260.34,206.56 259.11,207.96 257.97,209.26C256.88,210.5 255.44,212.14 254.78,212.89C254.49,213.23 254.43,213.29 254.14,213.62C253.56,214.28 252.17,215.85 251.48,216.63C251.04,217.13 250.83,217.37 250.4,217.85C249.79,218.54 248.83,219.62 248.16,220.37C247.61,220.98 247.19,221.45 246.67,222.04C246.08,222.69 245.43,223.42 244.81,224.11C244.18,224.81 243.52,225.56 242.93,226.21C242.41,226.79 241.99,227.24 241.45,227.84C240.78,228.58 239.81,229.65 239.19,230.34C238.75,230.83 238.52,231.08 238.07,231.58C237.38,232.34 236.07,233.77 235.45,234.45C235.11,234.82 235.01,234.94 234.66,235.32C233.99,236.05 232.28,237.93 231.72,238.54C231.49,238.79 231.47,238.81 231.24,239.06C230.63,239.72 229.03,241.46 227.89,242.695C226.71,243.97 225.48,245.31 224.3,246.59C223.15,247.83 221.47,249.64 220.9,250.27C220.71,250.48 220.7,250.49 220.51,250.7C219.97,251.29 218.08,253.31 217.43,254.01C217.13,254.33 217.07,254.4 216.77,254.72C216.16,255.38 214.62,257.01 213.94,257.74C213.55,258.16 213.41,258.31 213.03,258.72C212.39,259.41 211.12,260.75 210.43,261.48C209.97,261.97 209.74,262.21 209.29,262.69C208.64,263.38 207.59,264.5 206.91,265.22C206.4,265.76 206.06,266.12 205.56,266.65C204.92,267.33 204.04,268.25 203.37,268.95C202.81,269.54 202.37,270 201.82,270.58C201.19,271.24 200.46,272.01 199.81,272.69C199.21,273.32 198.67,273.89 198.08,274.5C197.47,275.13 196.85,275.78 196.23,276.43C195.6,277.08 194.95,277.75 194.34,278.39C193.76,279 193.23,279.55 192.64,280.17C191.99,280.84 191.25,281.61 190.61,282.27C190.05,282.85 189.59,283.31 189.02,283.9C188.36,284.58 187.52,285.46 186.87,286.13C186.33,286.68 185.93,287.08 185.39,287.64C184.72,288.33 183.79,289.28 183.13,289.96C182.61,290.49 182.27,290.85 181.75,291.38C181.07,292.08 180.06,293.1 179.39,293.78C178.89,294.29 178.58,294.61 178.08,295.12C177.4,295.82 176.34,296.89 175.66,297.58C175.17,298.07 174.89,298.35 174.4,298.85C173.71,299.55 172.6,300.67 171.92,301.36C171.44,301.84 171.17,302.11 170.69,302.59C170,303.28 168.87,304.42 168.18,305.11C167.7,305.59 167.45,305.85 166.97,306.33C166.28,307.02 165.13,308.16 164.44,308.85C163.96,309.33 163.71,309.59 163.23,310.07C162.54,310.76 161.4,311.88 160.71,312.57C160.22,313.05 159.95,313.32 159.46,313.8C158.77,314.48 157.67,315.57 156.97,316.26C156.47,316.76 156.17,317.05 155.67,317.54C154.98,318.21 153.93,319.25 153.23,319.93C152.71,320.44 152.38,320.77 151.86,321.28C151.18,321.95 150.19,322.9 149.49,323.58C148.94,324.12 148.56,324.49 148.02,325.02C147.35,325.67 146.45,326.54 145.76,327.2C145.18,327.76 144.72,328.2 144.15,328.75C143.49,329.39 142.7,330.15 142.02,330.8C141.41,331.39 140.86,331.91 140.26,332.49C139.62,333.1 138.94,333.74 138.28,334.37C137.63,334.99 136.97,335.63 136.33,336.23C135.72,336.81 135.17,337.32 134.55,337.91C133.86,338.56 133.04,339.33 132.37,339.96C131.81,340.49 131.39,340.88 130.81,341.42C130.09,342.1 129.06,343.06 128.37,343.7C127.87,344.16 127.58,344.43 127.07,344.9C126.32,345.59 125.02,346.81 124.33,347.44C123.92,347.82 123.75,347.96 123.33,348.35C122.58,349.03 120.88,350.59 120.24,351.18C119.95,351.45 119.9,351.49 119.6,351.76C118.89,352.41 117.21,353.91 115.97999999999999,355.02C114.69,356.18 113.31,357.41 112.02000000000001,358.56C110.78,359.66 109.11,361.14 108.38,361.79C108.07,362.07 108.02,362.12 107.71,362.39C107.06,362.96 105.44,364.37 104.65,365.06C104.15,365.5 103.9,365.71 103.42,366.13C102.73,366.72 101.68,367.62 100.91,368.28C100.25,368.85 99.68,369.33 99.06,369.86C98.43,370.39 97.85,370.88 97.17,371.45C96.38,372.11 95.29,373.03 94.6,373.6C94.14,373.98 93.93,374.15 93.43,374.56C92.57,375.27 91.09,376.49 89.87,377.475C88.6,378.51 86.67,380.05 85.96,380.63C85.69,380.85 85.67,380.87 85.41,381.08C84.79,381.58 83.09,382.9 82.22,383.59C81.61,384.07 81.23,384.37 80.67,384.81C80,385.33 79.25,385.89 78.48,386.48C77.62,387.13 76.45,388.04 75.76,388.55C75.34,388.86 75.2,388.96 74.75,389.29C73.87,389.93 72.11,391.23 70.83500000000001,392.15999999999997C69.62,393.04 68.26,394.01 67.27,394.72C66.56,395.23 66.05,395.6 65.43,396.03C64.81,396.46 64.28,396.82 63.54,397.32C62.51,398.01 61.06,398.96 59.82,399.775C58.57,400.6 57.12,401.56 56.06,402.24Q55.29,402.73 54.07,403.5" style="stroke-miterlimit: 1; vector-effect: non-scaling-stroke; fill: none; stroke: rgb(47, 38, 33); stroke-opacity: 1; stroke-width: 2px;"/></g><g class="contourlevel"><path class="openline" d="M0,366.5Q2.62,363.18 3.23,362.39C3.48,362.07 3.5,362.01 3.74,361.71C4.26,361.05 5.59,359.49 6.27,358.65C6.75,358.06 7.02,357.69 7.47,357.14C8.03,356.46 8.78,355.65 9.41,354.91C10.02,354.19 10.64,353.43 11.21,352.78C11.71,352.2 12.12,351.78 12.66,351.18C13.34,350.42 14.33,349.25 14.95,348.56C15.36,348.1 15.57,347.91 16,347.44C16.69,346.69 18.08,345.12 18.69,344.46C19,344.12 19.09,344.04 19.41,343.7C20.07,342.99 21.84,341.05 22.42,340.45C22.65,340.21 22.67,340.2 22.9,339.96C23.52,339.32 25.15,337.58 26.305,336.37C27.5,335.12 28.75,333.83 29.975,332.565C31.2,331.3 32.43,330.04 33.67,328.78499999999997C34.9,327.53 36.14,326.28 37.385,325.03C38.63,323.78 39.87,322.53 41.120000000000005,321.28499999999997C42.37,320.04 43.62,318.8 44.870000000000005,317.56C46.12,316.32 47.38,315.08 48.635000000000005,313.845C49.89,312.61 51.15,311.38 52.405,310.15C53.66,308.92 54.93,307.69 56.19,306.455C57.45,305.22 58.74,303.97 59.98,302.765C61.18,301.59 62.9,299.93 63.54,299.31C63.77,299.08 63.79,299.07 64.02,298.85C64.62,298.27 66.61,296.32 67.27,295.69C67.55,295.42 67.6,295.39 67.88,295.12C68.52,294.51 70.33,292.72 71.01,292.07C71.34,291.76 71.42,291.69 71.74,291.38C72.4,290.74 74.05,289.13 74.75,288.46C75.12,288.1 75.24,288 75.61,287.64C76.29,286.99 77.77,285.53 78.48,284.85C78.89,284.45 79.06,284.3 79.47,283.9C80.16,283.24 81.5,281.92 82.22,281.23C82.67,280.79 82.89,280.6 83.34,280.17C84.03,279.51 85.25,278.31 85.96,277.62C86.45,277.15 86.72,276.9 87.2,276.43C87.89,275.76 88.99,274.69 89.7,274C90.22,273.5 90.54,273.19 91.05,272.69C91.73,272.03 92.73,271.05 93.43,270.37C93.98,269.84 94.36,269.48 94.9,268.95C95.58,268.3 96.48,267.41 97.17,266.74C97.74,266.19 98.18,265.77 98.74,265.22C99.41,264.57 100.23,263.75 100.91,263.09C101.5,262.51 101.99,262.05 102.57,261.48C103.22,260.84 103.99,260.1 104.65,259.45C105.26,258.86 105.79,258.33 106.39,257.74C107.03,257.11 107.73,256.43 108.38,255.79C109,255.18 109.59,254.61 110.2,254.01C110.83,253.39 111.48,252.75 112.12,252.12C112.75,251.5 113.38,250.89 114.01,250.27C114.63,249.66 115.24,249.06 115.86,248.44C116.5,247.81 117.17,247.15 117.8,246.53C118.41,245.93 118.99,245.37 119.6,244.76C120.25,244.12 120.94,243.42 121.58,242.79C122.18,242.19 122.72,241.66 123.33,241.06C123.98,240.42 124.71,239.7 125.36,239.06C125.96,238.47 126.47,237.95 127.07,237.36C127.72,236.71 128.47,235.97 129.12,235.32C129.71,234.73 130.22,234.23 130.81,233.64C131.47,232.99 132.23,232.23 132.88,231.58C133.47,231 133.96,230.51 134.55,229.92C135.2,229.27 135.97,228.49 136.62,227.84C137.2,227.26 137.7,226.77 138.28,226.19C138.93,225.54 139.71,224.76 140.36,224.11C140.94,223.53 141.44,223.03 142.02,222.45C142.67,221.8 143.44,221.02 144.09,220.37C144.68,219.78 145.18,219.29 145.76,218.7C146.41,218.05 147.16,217.28 147.81,216.63C148.4,216.04 148.9,215.54 149.49,214.95C150.14,214.3 150.88,213.54 151.53,212.89C152.12,212.3 152.64,211.78 153.23,211.19C153.87,210.54 154.59,209.81 155.24,209.16C155.84,208.56 156.38,208.03 156.97,207.43C157.61,206.79 158.31,206.07 158.95,205.42C159.55,204.81 160.11,204.27 160.71,203.66C161.34,203.02 162.01,202.32 162.65,201.68C163.26,201.07 163.84,200.5 164.44,199.89C165.07,199.26 165.72,198.58 166.35,197.94C166.96,197.32 167.57,196.73 168.18,196.11C168.8,195.48 169.43,194.84 170.05,194.21C170.67,193.58 171.3,192.97 171.92,192.34C172.53,191.72 173.13,191.09 173.75,190.47C174.38,189.84 175.04,189.19 175.66,188.56C176.27,187.95 176.84,187.35 177.45,186.73C178.08,186.09 178.76,185.43 179.39,184.79C179.99,184.18 180.54,183.6 181.15,182.99C181.79,182.35 182.49,181.66 183.13,181.02C183.73,180.42 184.26,179.86 184.86,179.26C185.5,178.61 186.23,177.9 186.87,177.25C187.46,176.65 187.98,176.12 188.57,175.52C189.22,174.87 189.97,174.14 190.61,173.49C191.2,172.9 191.69,172.37 192.28,171.78C192.93,171.13 193.69,170.38 194.34,169.73C194.92,169.14 195.41,168.64 196,168.05C196.65,167.39 197.43,166.63 198.08,165.98C198.66,165.39 199.15,164.89 199.73,164.31C200.38,163.66 201.17,162.9 201.82,162.24C202.4,161.66 202.88,161.15 203.46,160.57C204.11,159.91 204.9,159.16 205.56,158.5C206.15,157.92 206.63,157.41 207.21,156.83C207.86,156.18 208.63,155.43 209.29,154.78C209.88,154.19 210.38,153.69 210.97,153.1C211.62,152.45 212.38,151.72 213.03,151.07C213.63,150.48 214.14,149.95 214.74,149.36C215.39,148.72 216.12,148.01 216.77,147.37C217.38,146.77 217.92,146.22 218.52,145.62C219.16,144.99 219.86,144.33 220.51,143.69C221.13,143.08 221.71,142.48 222.32,141.88C222.95,141.26 223.6,140.64 224.24,140.02C224.88,139.4 225.51,138.76 226.14,138.15C226.76,137.55 227.36,136.98 227.98,136.37C228.63,135.73 229.33,135.03 229.97,134.41C230.57,133.83 231.11,133.33 231.72,132.74C232.39,132.09 233.17,131.31 233.83,130.67C234.4,130.12 234.87,129.69 235.45,129.13C236.14,128.46 237.03,127.58 237.71,126.93C238.25,126.41 238.64,126.06 239.19,125.53C239.9,124.85 240.92,123.85 241.61,123.2C242.11,122.72 242.42,122.45 242.93,121.96C243.65,121.27 244.85,120.11 245.54,119.46C245.99,119.03 246.21,118.84 246.67,118.41C247.4,117.72 248.82,116.36 249.5,115.72C249.88,115.36 250.01,115.25 250.4,114.89C251.12,114.22 252.84,112.58 253.49,111.98C253.79,111.71 253.84,111.67 254.14,111.39C254.85,110.74 256.48,109.21 257.695,108.08500000000001C258.96,106.91 260.29,105.69 261.595,104.49000000000001C262.9,103.29 264.22,102.07 265.5,100.91C266.72,99.8 268.37,98.31 269.09,97.65C269.4,97.37 269.45,97.32 269.75,97.04C270.4,96.45 272.07,94.97 272.83,94.28C273.28,93.87 273.46,93.69 273.9,93.3C274.59,92.68 275.81,91.62 276.57,90.94C277.15,90.42 277.53,90.05 278.09,89.56C278.76,88.97 279.58,88.27 280.3,87.64C281,87.03 281.69,86.39 282.34,85.82C282.93,85.31 283.41,84.91 284.04,84.37C284.82,83.7 285.96,82.68 286.65,82.09C287.1,81.7 287.31,81.54 287.78,81.14C288.59,80.46 290.44,78.85 291.04,78.35C291.27,78.16 291.28,78.15 291.52,77.96C292.19,77.4 294.1,75.78 295.365,74.71000000000001C296.59,73.68 298.18,72.35 298.99,71.66C299.4,71.31 299.52,71.2 299.91,70.87C300.59,70.3 301.91,69.24 302.73,68.56C303.37,68.03 303.84,67.63 304.43,67.14C305.07,66.61 305.74,66.08 306.46,65.5C307.28,64.84 308.38,63.95 309.07,63.4C309.52,63.04 309.71,62.89 310.2,62.51C311.08,61.82 312.66,60.6 313.895,59.629999999999995C315.15,58.64 316.86,57.3 317.68,56.64C318.08,56.32 318.19,56.22 318.57,55.92C319.25,55.39 320.54,54.39 321.41,53.73C322.14,53.17 322.78,52.68 323.43,52.19C324.03,51.74 324.47,51.4 325.15,50.9C326.12,50.18 327.5,49.21 328.71,48.32C329.99,47.38 331.77,46.06 332.63,45.42C333.05,45.1 333.18,45.01 333.58,44.71C334.26,44.21 335.46,43.32 336.36,42.68C337.21,42.08 338.15,41.45 338.84,40.97C339.33,40.63 339.57,40.45 340.1,40.09C341.01,39.47 343.18,38.05 343.84,37.59C344.08,37.42 344.09,37.41 344.33,37.24C344.94,36.81 346.58,35.62 347.58,34.95Q348.4,34.4 349.87,33.5" style="stroke-miterlimit: 1; vector-effect: non-scaling-stroke; fill: none; stroke: rgb(59, 46, 38); stroke-opacity: 1; stroke-width: 2px;"/><path class="openline" d="M370,53.63Q369.1,55.1 368.55,55.92C367.88,56.92 366.69,58.56 366.26,59.17C366.09,59.41 366.08,59.42 365.91,59.66C365.45,60.32 364.03,62.49 363.41,63.4C363.05,63.93 362.87,64.17 362.53,64.66C362.05,65.35 361.42,66.29 360.82,67.14C360.18,68.04 359.29,69.24 358.79,69.92C358.49,70.32 358.4,70.45 358.08,70.87C357.44,71.73 356.12,73.51 355.18,74.78999999999999C354.29,76 353.32,77.38 352.6,78.35C352.1,79.03 351.76,79.47 351.31,80.07C350.82,80.72 350.33,81.36 349.77,82.09C349.11,82.96 348.11,84.25 347.58,84.93C347.28,85.31 347.18,85.42 346.86,85.82C346.2,86.64 344.86,88.35 343.87,89.605C342.9,90.84 341.68,92.42 340.99,93.3C340.61,93.79 340.46,93.98 340.1,94.43C339.55,95.12 338.66,96.22 338,97.04C337.42,97.76 336.89,98.43 336.36,99.07C335.87,99.66 335.47,100.13 334.94,100.77C334.26,101.59 333.2,102.91 332.63,103.59C332.3,103.98 332.19,104.1 331.84,104.51C331.15,105.32 329.82,106.91 328.78999999999996,108.13499999999999C327.72,109.4 326.1,111.31 325.54,111.98C325.35,112.22 325.34,112.23 325.15,112.46C324.65,113.06 323.04,114.91 322.36,115.72C321.96,116.19 321.8,116.4 321.41,116.85C320.82,117.54 319.8,118.68 319.13,119.46C318.59,120.09 318.19,120.57 317.68,121.16C317.11,121.81 316.47,122.5 315.86,123.2C315.23,123.92 314.53,124.74 313.94,125.41C313.45,125.97 313.08,126.35 312.56,126.93C311.88,127.69 310.82,128.91 310.2,129.6C309.81,130.04 309.63,130.22 309.22,130.67C308.53,131.43 307.05,133.1 306.46,133.75C306.18,134.05 306.13,134.1 305.85,134.41C305.19,135.13 303.7,136.78 302.59000000000003,138C301.43,139.28 300.21,140.6 299.01,141.905C297.81,143.21 296.59,144.54 295.41499999999996,145.805C294.29,147.02 292.76,148.65 292.11,149.36C291.83,149.66 291.79,149.71 291.52,150.01C290.92,150.66 289.28,152.38 288.61,153.1C288.25,153.49 288.14,153.62 287.78,154C287.14,154.68 285.78,156.1 285.09,156.83C284.66,157.29 284.47,157.51 284.04,157.96C283.39,158.65 282.23,159.85 281.54,160.57C281.05,161.08 280.78,161.39 280.3,161.89C279.65,162.58 278.65,163.6 277.97,164.31C277.44,164.86 277.09,165.25 276.57,165.79C275.92,166.47 275.04,167.36 274.37,168.05C273.81,168.63 273.38,169.1 272.83,169.67C272.19,170.33 271.41,171.11 270.76,171.78C270.17,172.39 269.67,172.93 269.09,173.53C268.47,174.17 267.77,174.87 267.13,175.52C266.52,176.14 265.95,176.74 265.35,177.36C264.74,177.99 264.1,178.62 263.48,179.26C262.86,179.9 262.24,180.55 261.62,181.18C261.02,181.79 260.42,182.37 259.81,182.99C259.17,183.64 258.51,184.34 257.88,184.98C257.28,185.58 256.73,186.12 256.13,186.73C255.49,187.38 254.78,188.11 254.14,188.76C253.55,189.36 253.02,189.87 252.43,190.47C251.78,191.12 251.05,191.88 250.4,192.53C249.81,193.12 249.31,193.62 248.72,194.21C248.07,194.87 247.32,195.64 246.67,196.29C246.09,196.87 245.58,197.35 245,197.94C244.34,198.6 243.59,199.39 242.93,200.04C242.35,200.62 241.84,201.1 241.26,201.68C240.6,202.33 239.84,203.12 239.19,203.77C238.61,204.35 238.11,204.84 237.52,205.42C236.87,206.07 236.11,206.85 235.45,207.5C234.86,208.09 234.36,208.58 233.77,209.16C233.12,209.81 232.37,210.57 231.72,211.22C231.13,211.81 230.6,212.3 230.01,212.89C229.36,213.53 228.63,214.28 227.98,214.93C227.38,215.52 226.85,216.04 226.25,216.63C225.6,217.27 224.89,218 224.24,218.64C223.64,219.24 223.08,219.77 222.48,220.37C221.84,221.01 221.15,221.71 220.51,222.35C219.9,222.96 219.32,223.51 218.71,224.11C218.07,224.74 217.41,225.42 216.77,226.05C216.15,226.66 215.55,227.23 214.94,227.84C214.31,228.46 213.66,229.12 213.03,229.75C212.41,230.37 211.78,230.97 211.16,231.58C210.53,232.2 209.92,232.83 209.29,233.45C208.66,234.07 208.02,234.7 207.39,235.32C206.77,235.93 206.18,236.54 205.56,237.15C204.92,237.78 204.24,238.43 203.61,239.06C203,239.66 202.43,240.24 201.82,240.85C201.18,241.49 200.48,242.16 199.84,242.79C199.23,243.39 198.69,243.95 198.08,244.55C197.43,245.19 196.71,245.89 196.07,246.53C195.47,247.12 194.94,247.66 194.34,248.26C193.69,248.91 192.96,249.63 192.31,250.27C191.72,250.86 191.2,251.38 190.61,251.97C189.96,252.62 189.2,253.36 188.55,254.01C187.96,254.6 187.46,255.1 186.87,255.69C186.22,256.34 185.45,257.09 184.8,257.74C184.21,258.32 183.72,258.82 183.13,259.41C182.48,260.06 181.7,260.83 181.05,261.48C180.47,262.06 179.97,262.56 179.39,263.14C178.74,263.79 177.96,264.57 177.31,265.22C176.73,265.8 176.24,266.3 175.66,266.88C175.01,267.53 174.23,268.3 173.58,268.95C172.99,269.54 172.5,270.03 171.92,270.62C171.27,271.27 170.51,272.03 169.86,272.69C169.27,273.28 168.77,273.79 168.18,274.38C167.53,275.03 166.79,275.78 166.14,276.43C165.55,277.03 165.03,277.54 164.44,278.14C163.8,278.79 163.08,279.52 162.44,280.17C161.84,280.78 161.31,281.32 160.71,281.92C160.08,282.56 159.38,283.25 158.74,283.9C158.13,284.51 157.57,285.09 156.97,285.7C156.35,286.33 155.69,287 155.06,287.64C154.44,288.26 153.84,288.87 153.23,289.49C152.61,290.12 152,290.75 151.38,291.38C150.75,292.02 150.11,292.67 149.49,293.3C148.89,293.91 148.32,294.5 147.71,295.12C147.07,295.77 146.39,296.47 145.76,297.11C145.17,297.71 144.64,298.24 144.05,298.85C143.4,299.51 142.66,300.28 142.02,300.93C141.45,301.51 140.99,302 140.41,302.59C139.75,303.27 138.93,304.09 138.28,304.76C137.73,305.32 137.31,305.76 136.76,306.33C136.09,307.02 135.2,307.92 134.55,308.6C134.02,309.14 133.66,309.52 133.13,310.07C132.45,310.77 131.47,311.77 130.81,312.45C130.31,312.96 130,313.28 129.5,313.8C128.81,314.51 127.74,315.61 127.07,316.3C126.6,316.78 126.35,317.05 125.88,317.54C125.19,318.25 123.99,319.47 123.33,320.16C122.9,320.61 122.71,320.83 122.27,321.28C121.58,322 120.26,323.34 119.6,324.03C119.2,324.44 119.05,324.61 118.65,325.02C117.97,325.73 116.51,327.21 115.86,327.89C115.5,328.26 115.4,328.38 115.04,328.75C114.37,329.45 112.76,331.1 112.12,331.76C111.81,332.08 111.74,332.16 111.43,332.49C110.78,333.17 108.99,334.98 108.38,335.62C108.11,335.9 108.08,335.95 107.81,336.23C107.18,336.89 105.23,338.88 104.65,339.48C104.43,339.71 104.42,339.73 104.19,339.96C103.57,340.6 101.91,342.32 100.735,343.52C99.53,344.76 98.28,346.05 97.045,347.31C95.81,348.57 94.58,349.84 93.35,351.095C92.12,352.35 90.89,353.61 89.655,354.865C88.42,356.12 87.18,357.38 85.94,358.63C84.7,359.88 83.46,361.13 82.215,362.38C80.97,363.63 79.72,364.87 78.47,366.115C77.22,367.36 75.97,368.6 74.715,369.83000000000004C73.46,371.07 72.2,372.3 70.935,373.525C69.67,374.75 68.38,376 67.13,377.195C65.92,378.35 64.18,379.98 63.54,380.6C63.3,380.83 63.29,380.85 63.05,381.08C62.45,381.66 60.51,383.43 59.8,384.09C59.46,384.41 59.38,384.5 59.04,384.81C58.38,385.42 56.81,386.81 56.06,387.5C55.59,387.93 55.4,388.14 54.94,388.55C54.25,389.17 53.08,390.16 52.32,390.84C51.72,391.38 51.3,391.79 50.72,392.29C50.07,392.86 49.31,393.48 48.59,394.09C47.85,394.72 47.04,395.47 46.36,396.03C45.81,396.48 45.44,396.75 44.85,397.23C44.01,397.91 42.45,399.24 41.79,399.76C41.49,400 41.43,400.02 41.11,400.27Q40.32,400.88 37,403.5" style="stroke-miterlimit: 1; vector-effect: non-scaling-stroke; fill: none; stroke: rgb(59, 46, 38); stroke-opacity: 1; stroke-width: 2px;"/></g><g class="contourlevel"><path class="openline" d="M0,376.2Q1.84,374.33 2.52,373.6C3.01,373.08 3.25,372.75 3.74,372.24C4.4,371.55 5.5,370.55 6.18,369.86C6.68,369.35 6.96,369.01 7.47,368.5C8.17,367.81 9.34,366.79 10.02,366.13C10.5,365.67 10.72,365.39 11.21,364.92C11.94,364.22 13.33,363.03 14.01,362.39C14.41,362.02 14.54,361.86 14.95,361.48C15.69,360.79 17.53,359.22 18.15,358.65C18.41,358.41 18.43,358.38 18.69,358.14C19.37,357.52 21.16,355.97 22.41,354.9C23.65,353.83 25.41,352.32 26.16,351.71C26.47,351.45 26.54,351.43 26.84,351.18C27.5,350.65 29.06,349.28 29.9,348.6C30.48,348.13 30.84,347.88 31.38,347.44C32.06,346.89 32.87,346.17 33.64,345.55C34.41,344.92 35.31,344.25 35.99,343.7C36.51,343.28 36.81,343.01 37.37,342.55C38.23,341.85 40.08,340.43 40.67,339.96C40.89,339.79 40.89,339.78 41.11,339.6C41.75,339.09 44.12,337.25 44.85,336.7C45.15,336.47 45.2,336.45 45.49,336.23C46.14,335.74 47.69,334.52 48.59,333.84C49.28,333.32 49.81,332.95 50.42,332.49C51.05,332.01 51.61,331.55 52.32,331.01C53.21,330.33 54.7,329.25 55.36,328.75C55.68,328.51 55.73,328.45 56.06,328.2C56.81,327.63 59.08,325.95 59.8,325.44C60.09,325.24 60.13,325.22 60.41,325.02C61.05,324.56 62.6,323.4 63.54,322.73C64.29,322.19 64.94,321.75 65.59,321.28C66.18,320.85 66.6,320.53 67.27,320.04C68.24,319.33 69.65,318.31 70.875,317.44C72.14,316.55 73.77,315.42 74.75,314.75C75.34,314.35 75.64,314.16 76.17,313.8C76.85,313.34 77.65,312.76 78.48,312.19C79.44,311.53 80.95,310.52 81.59,310.07C81.88,309.86 81.92,309.82 82.22,309.61C82.94,309.11 85.01,307.78 85.96,307.18C86.53,306.82 86.83,306.66 87.35,306.33C88.03,305.9 88.83,305.38 89.7,304.83C90.78,304.14 92.07,303.23 93.315,302.51C94.56,301.79 95.94,301.13 97.17,300.5C98.29,299.92 99.78,299.17 100.39,298.85C100.64,298.72 100.65,298.66 100.91,298.57C101.58,298.35 103.9,297.83 104.65,298.08C105.05,298.22 105.28,298.45 105.42,298.85C105.67,299.6 105.15,301.92 104.93,302.59C104.84,302.85 104.78,302.86 104.65,303.11C104.33,303.72 103.58,305.21 103,306.33C102.37,307.56 101.71,308.94 100.99,310.185C100.27,311.43 99.36,312.72 98.67,313.8C98.12,314.67 97.6,315.47 97.17,316.15C96.84,316.67 96.68,316.97 96.32,317.54C95.72,318.49 94.39,320.56 93.89,321.28C93.68,321.58 93.64,321.62 93.43,321.91C92.98,322.55 91.97,324.06 91.31,325.02C90.74,325.85 90.16,326.65 89.7,327.33C89.34,327.86 89.15,328.16 88.75,328.75C88.08,329.73 86.95,331.36 86.06,332.625C85.19,333.85 84.17,335.26 83.46,336.23C82.97,336.9 82.65,337.32 82.22,337.91C81.75,338.56 81.31,339.21 80.77,339.96C80.1,340.9 78.94,342.45 78.48,343.09C78.28,343.37 78.26,343.41 78.06,343.7C77.55,344.42 75.87,346.69 75.3,347.44C75.05,347.77 74.99,347.82 74.75,348.14C74.25,348.8 73.17,350.29 72.49,351.18C71.95,351.89 71.49,352.45 71.01,353.08C70.55,353.69 70.18,354.22 69.66,354.91C68.98,355.81 67.76,357.36 67.27,358.01C67.05,358.3 67.03,358.35 66.8,358.65C66.25,359.38 64.41,361.75 63.9,362.39C63.72,362.61 63.71,362.61 63.54,362.83C63.07,363.42 61.65,365.27 60.95,366.13C60.49,366.69 60.22,366.99 59.8,367.51C59.25,368.19 58.58,369.09 57.95,369.86C57.33,370.63 56.61,371.44 56.06,372.12C55.62,372.66 55.37,373.02 54.9,373.6C54.22,374.44 52.85,376 52.32,376.66C52.07,376.96 52.05,377.03 51.79,377.34C51.18,378.09 49.67,379.85 48.6,381.09000000000003C47.53,382.34 45.98,384.13 45.36,384.81C45.12,385.07 45.09,385.09 44.85,385.35C44.28,385.97 42.71,387.81 42.02,388.55C41.64,388.96 41.48,389.09 41.11,389.49C40.47,390.17 39.28,391.56 38.58,392.29C38.11,392.78 37.83,393 37.37,393.48C36.71,394.16 35.69,395.33 35,396.03C34.49,396.54 34.15,396.82 33.64,397.32C32.95,398 31.95,399.1 31.26,399.76C30.75,400.25 30.42,400.49 29.9,400.98Q29.17,401.66 27.3,403.5" style="stroke-miterlimit: 1; vector-effect: non-scaling-stroke; fill: none; stroke: rgb(72, 54, 43); stroke-opacity: 1; stroke-width: 2px;"/><path class="openline" d="M370,50.44Q369.23,51.52 368.73,52.19C368.05,53.12 366.72,54.88 366.26,55.47C366.09,55.69 366.07,55.69 365.9,55.92C365.41,56.56 363.7,58.87 363.12,59.66C362.85,60.03 362.79,60.12 362.53,60.47C362.03,61.15 360.96,62.52 360.29,63.4C359.74,64.12 359.29,64.72 358.79,65.35C358.3,65.96 357.87,66.47 357.33,67.14C356.65,67.98 355.61,69.3 355.05,69.98C354.73,70.36 354.62,70.47 354.28,70.87C353.6,71.67 352.27,73.3 351.245,74.535C350.2,75.79 348.67,77.62 348.07,78.35C347.83,78.64 347.81,78.68 347.58,78.96C347.05,79.6 345.58,81.28 344.89,82.09C344.46,82.6 344.26,82.86 343.84,83.34C343.24,84.03 342.3,85.06 341.63,85.82C341.07,86.46 340.63,87 340.1,87.61C339.53,88.25 338.92,88.89 338.32,89.56C337.68,90.28 336.97,91.12 336.36,91.79C335.85,92.35 335.47,92.73 334.94,93.3C334.26,94.04 333.27,95.19 332.63,95.88C332.19,96.35 331.96,96.56 331.51,97.04C330.82,97.78 329.53,99.23 328.89,99.9C328.53,100.28 328.4,100.39 328.03,100.77C327.35,101.48 325.77,103.22 325.15,103.86C324.86,104.16 324.79,104.21 324.5,104.51C323.85,105.18 322,107.16 321.41,107.76C321.18,108 321.15,108.01 320.92,108.25C320.31,108.87 318.24,111.04 317.68,111.6C317.49,111.79 317.48,111.79 317.28,111.98C316.69,112.56 314.96,114.36 313.77,115.56C312.55,116.8 311.28,118.06 310.03,119.3C308.78,120.54 307.51,121.8 306.27,123.02000000000001C305.07,124.2 303.37,125.89 302.73,126.49C302.5,126.71 302.47,126.71 302.24,126.93C301.63,127.5 299.66,129.46 298.99,130.09C298.7,130.36 298.64,130.4 298.35,130.67C297.7,131.28 295.96,132.99 295.25,133.65C294.89,133.99 294.78,134.08 294.42,134.41C293.74,135.04 292.26,136.49 291.52,137.17C291.07,137.58 290.87,137.74 290.43,138.15C289.74,138.79 288.52,139.97 287.78,140.65C287.25,141.14 286.92,141.41 286.4,141.88C285.71,142.51 284.77,143.43 284.04,144.1C283.43,144.66 282.91,145.08 282.32,145.62C281.67,146.21 280.98,146.88 280.3,147.5C279.61,148.13 278.85,148.77 278.2,149.36C277.62,149.89 277.18,150.32 276.57,150.87C275.82,151.55 274.73,152.48 274.04,153.1C273.56,153.53 273.33,153.77 272.83,154.21C272.06,154.9 270.49,156.24 269.83,156.83C269.5,157.13 269.43,157.2 269.09,157.51C268.34,158.18 266.71,159.6 265.47,160.68C264.17,161.82 262.75,163.04 261.445,164.16500000000002C260.22,165.22 258.71,166.54 257.88,167.23C257.45,167.59 257.29,167.7 256.88,168.05C256.19,168.63 254.95,169.72 254.14,170.4C253.51,170.92 253.05,171.29 252.46,171.78C251.81,172.33 251.12,172.95 250.4,173.55C249.64,174.19 248.69,174.95 248.01,175.52C247.5,175.95 247.21,176.21 246.67,176.67C245.85,177.36 244.17,178.73 243.53,179.26C243.25,179.49 243.22,179.53 242.93,179.77C242.21,180.37 240.36,181.89 239.095,182.91500000000002C237.87,183.91 236.32,185.16 235.45,185.85C234.97,186.23 234.77,186.37 234.32,186.73C233.63,187.28 232.54,188.19 231.72,188.84C230.99,189.42 230.28,189.95 229.63,190.47C229.05,190.94 228.62,191.3 227.98,191.81C227.12,192.5 225.6,193.69 224.94,194.21C224.62,194.46 224.57,194.51 224.24,194.77C223.47,195.38 221.61,196.84 220.33499999999998,197.82C219.12,198.75 217.72,199.81 216.77,200.52C216.14,200.99 215.76,201.26 215.19,201.68C214.52,202.18 213.8,202.75 213.03,203.33C212.16,203.99 210.92,204.9 210.24,205.42C209.84,205.72 209.72,205.83 209.29,206.15C208.43,206.8 206.66,208.12 205.385,209.04C204.18,209.91 202.84,210.81 201.82,211.51C201.05,212.04 200.44,212.44 199.8,212.89C199.2,213.31 198.76,213.63 198.08,214.11C197.09,214.81 195.66,215.87 194.405,216.675C193.17,217.47 191.76,218.24 190.61,218.9C189.67,219.44 188.72,219.97 188.03,220.37C187.57,220.64 187.38,220.82 186.87,221.06C185.99,221.46 184.12,222.55 183.13,222.32C182.3,222.13 181.37,221.2 181.18,220.37C180.95,219.38 182.04,217.51 182.44,216.63C182.68,216.12 182.86,215.93 183.13,215.47C183.53,214.78 184.06,213.83 184.6,212.89C185.26,211.74 186.03,210.33 186.825,209.095C187.63,207.84 188.69,206.41 189.39,205.42C189.87,204.74 190.19,204.3 190.61,203.7C191.06,203.06 191.46,202.45 191.99,201.68C192.69,200.66 193.59,199.32 194.46,198.115C195.38,196.84 196.7,195.07 197.35,194.21C197.67,193.78 197.78,193.66 198.08,193.26C198.6,192.58 199.51,191.34 200.17,190.47C200.75,189.7 201.32,188.98 201.82,188.31C202.24,187.74 202.51,187.36 202.98,186.73C203.69,185.78 204.75,184.38 205.68,183.16500000000002C206.66,181.89 208.12,180.03 208.73,179.26C208.99,178.93 209.04,178.88 209.29,178.56C209.81,177.9 211,176.38 211.69,175.52C212.2,174.88 212.56,174.45 213.03,173.87C213.55,173.22 214.08,172.51 214.66,171.78C215.31,170.96 216.22,169.87 216.77,169.18C217.13,168.73 217.27,168.53 217.65,168.05C218.34,167.18 219.59,165.63 220.58499999999998,164.405C221.61,163.14 223.13,161.29 223.73,160.57C223.97,160.28 224.01,160.25 224.24,159.97C224.77,159.33 226.14,157.65 226.83,156.83C227.29,156.29 227.55,156 227.98,155.49C228.55,154.81 229.31,153.86 229.95,153.1C230.55,152.38 231.17,151.69 231.72,151.04C232.21,150.45 232.58,149.99 233.1,149.36C233.78,148.55 234.87,147.31 235.45,146.62C235.8,146.21 235.91,146.05 236.27,145.62C236.96,144.79 238.28,143.28 239.33499999999998,142.055C240.46,140.75 241.68,139.33 242.82,138.03C243.9,136.79 245.32,135.16 245.99,134.41C246.3,134.07 246.37,134 246.67,133.67C247.26,133.01 248.6,131.44 249.29,130.67C249.73,130.17 249.97,129.94 250.4,129.46C251.02,128.77 251.95,127.68 252.63,126.93C253.18,126.32 253.61,125.88 254.14,125.3C254.73,124.65 255.37,123.89 256,123.2C256.62,122.52 257.29,121.83 257.88,121.18C258.42,120.59 258.84,120.07 259.4,119.46C260.07,118.73 260.99,117.79 261.62,117.1C262.09,116.58 262.36,116.25 262.85,115.72C263.53,114.98 264.71,113.76 265.35,113.07C265.76,112.63 265.92,112.43 266.33,111.98C267.01,111.24 268.46,109.76 269.09,109.08C269.42,108.72 269.51,108.61 269.85,108.25C270.51,107.54 272.22,105.8 272.83,105.15C273.1,104.86 273.14,104.8 273.41,104.51C274.04,103.84 276,101.87 276.57,101.26C276.79,101.03 276.79,101 277.01,100.77C277.61,100.13 279.3,98.43 280.48,97.23C281.7,95.99 282.96,94.72 284.20000000000005,93.47C285.44,92.22 286.7,90.95 287.94,89.73C289.14,88.54 290.94,86.81 291.52,86.22C291.71,86.02 291.71,86.01 291.9,85.82C292.46,85.26 294.63,83.19 295.25,82.58C295.49,82.35 295.5,82.32 295.74,82.09C296.34,81.5 298.32,79.65 298.99,79C299.29,78.71 299.34,78.64 299.64,78.35C300.28,77.73 302.02,76.15 302.73,75.47C303.11,75.1 303.22,74.97 303.6,74.61C304.27,73.97 305.72,72.68 306.46,71.99C306.94,71.54 307.15,71.31 307.62,70.87C308.31,70.23 309.46,69.24 310.2,68.56C310.77,68.03 311.15,67.65 311.71,67.14C312.38,66.53 313.22,65.82 313.94,65.18C314.61,64.58 315.25,63.97 315.89,63.4C316.5,62.87 317.04,62.43 317.68,61.87C318.44,61.2 319.47,60.26 320.16,59.66C320.64,59.24 320.9,59.04 321.41,58.61C322.22,57.92 323.9,56.45 324.54,55.92C324.82,55.69 324.86,55.67 325.15,55.43C325.88,54.83 327.71,53.3 328.96500000000003,52.254999999999995C330.2,51.23 331.83,49.9 332.63,49.22C333.03,48.88 333.14,48.77 333.52,48.45C334.2,47.89 335.52,46.85 336.36,46.17C337.03,45.63 337.54,45.2 338.15,44.71C338.78,44.21 339.38,43.76 340.1,43.21C340.98,42.54 342.35,41.47 343.03,40.97C343.38,40.71 343.47,40.65 343.84,40.38C344.63,39.8 346.94,38.09 347.58,37.6C347.81,37.43 347.81,37.41 348.03,37.24C348.62,36.78 350.38,35.45 351.31,34.77Q351.98,34.27 353.06,33.5" style="stroke-miterlimit: 1; vector-effect: non-scaling-stroke; fill: none; stroke: rgb(72, 54, 43); stroke-opacity: 1; stroke-width: 2px;"/></g><g class="contourlevel"><path class="openline" d="M0,383.2Q1.94,381.67 2.62,381.08C3.08,380.68 3.25,380.46 3.74,380.04C4.59,379.32 6.12,378.17 7.355,377.235C8.61,376.28 10.26,375.03 11.21,374.39C11.74,374.03 11.99,373.92 12.48,373.6C13.17,373.14 14.06,372.45 14.95,371.86C15.95,371.2 17.57,370.26 18.18,369.86C18.43,369.7 18.44,369.67 18.69,369.51C19.36,369.09 21.28,368 22.42,367.4C23.35,366.91 24.32,366.49 25.01,366.13C25.47,365.89 25.66,365.73 26.16,365.49C27.04,365.07 28.64,364.41 29.9,363.95C31.14,363.5 32.38,363.03 33.64,362.77C34.87,362.52 36.22,362 37.37,362.41C38.74,362.9 40.6,364.76 41.09,366.13C41.5,367.28 40.98,368.63 40.73,369.86C40.47,371.12 40,372.36 39.55,373.6C39.09,374.86 38.43,376.46 38.01,377.34C37.77,377.84 37.61,378.03 37.37,378.49C37.01,379.18 36.59,380.15 36.1,381.08C35.5,382.22 34.41,384.14 33.99,384.81C33.83,385.06 33.8,385.07 33.64,385.32C33.24,385.93 32.3,387.55 31.64,388.55C31.05,389.44 30.36,390.33 29.9,391.02C29.58,391.51 29.47,391.76 29.11,392.29C28.47,393.24 27.22,394.89 26.265,396.145C25.33,397.38 24.18,398.91 23.46,399.76C23.04,400.25 22.82,400.42 22.42,400.88Q21.83,401.56 20.3,403.5" style="stroke-miterlimit: 1; vector-effect: non-scaling-stroke; fill: none; stroke: rgb(85, 62, 47); stroke-opacity: 1; stroke-width: 2px;"/><path class="openline" d="M370,48.09Q367.47,51.36 366.84,52.19C366.57,52.55 366.52,52.62 366.26,52.96C365.74,53.63 364.57,55.06 363.89,55.92C363.37,56.57 363.02,57.07 362.53,57.66C362,58.31 361.39,58.95 360.8,59.66C360.15,60.43 359.38,61.44 358.79,62.12C358.36,62.62 358.08,62.88 357.62,63.4C356.92,64.19 355.64,65.75 355.05,66.41C354.75,66.74 354.67,66.8 354.36,67.14C353.68,67.88 352.26,69.51 351.16499999999996,70.725C350.01,72 348.8,73.34 347.6,74.63499999999999C346.4,75.93 345.18,77.26 343.99,78.52C342.84,79.74 341.18,81.44 340.57,82.09C340.34,82.34 340.33,82.36 340.1,82.6C339.51,83.21 337.53,85.17 336.91,85.82C336.65,86.1 336.62,86.15 336.36,86.42C335.74,87.06 333.79,88.93 333.17,89.56C332.91,89.83 332.89,89.87 332.63,90.14C332,90.78 329.94,92.71 329.35,93.3C329.12,93.52 329.12,93.54 328.89,93.77C328.26,94.39 326.52,96.03 325.29499999999996,97.18C324.03,98.37 322.72,99.59 321.425,100.785C320.12,101.98 318.77,103.21 317.495,104.36C316.28,105.45 314.73,106.87 313.94,107.54C313.56,107.87 313.44,107.94 313.07,108.25C312.39,108.83 311.01,110.11 310.2,110.79C309.63,111.27 309.26,111.53 308.72,111.98C308.04,112.55 307.22,113.32 306.46,113.95C305.73,114.56 304.91,115.17 304.25,115.72C303.69,116.19 303.33,116.54 302.73,117.04C301.89,117.73 300.33,118.92 299.68,119.46C299.37,119.72 299.32,119.78 298.99,120.05C298.22,120.67 296.36,122.11 295.08000000000004,123.08C293.87,124 292.5,125.04 291.52,125.74C290.85,126.22 290.38,126.5 289.79,126.93C289.14,127.4 288.54,127.89 287.78,128.43C286.83,129.11 285.12,130.24 284.52,130.67C284.29,130.84 284.28,130.86 284.04,131.03C283.39,131.48 281.33,132.77 280.3,133.38C279.59,133.8 279.08,134.05 278.47,134.41C277.84,134.78 277.32,135.15 276.57,135.56C275.54,136.13 273.9,136.99 272.83,137.44C272.06,137.77 271.45,137.92 270.8,138.15C270.2,138.37 269.78,138.68 269.09,138.79C268.1,138.95 265.98,138.89 265.35,138.61C265.09,138.49 265.01,138.41 264.89,138.15C264.61,137.52 264.55,135.4 264.71,134.41C264.82,133.72 265.13,133.3 265.35,132.7C265.58,132.05 265.73,131.44 266.06,130.67C266.51,129.6 267.37,127.96 267.94,126.93C268.35,126.18 268.72,125.66 269.09,125.03C269.45,124.42 269.7,123.91 270.12,123.2C270.73,122.17 272.02,120.11 272.47,119.46C272.64,119.22 272.66,119.21 272.83,118.98C273.26,118.38 274.39,116.67 275.07,115.72C275.61,114.96 276.1,114.36 276.57,113.71C277,113.12 277.28,112.65 277.76,111.98C278.46,111 279.5,109.63 280.42,108.42C281.39,107.14 282.83,105.28 283.45,104.51C283.72,104.18 283.78,104.13 284.04,103.82C284.58,103.17 285.77,101.61 286.46,100.77C286.96,100.17 287.31,99.81 287.78,99.25C288.33,98.59 288.94,97.77 289.55,97.04C290.18,96.28 290.95,95.46 291.52,94.78C291.97,94.24 292.23,93.87 292.71,93.3C293.39,92.49 294.67,91.11 295.25,90.43C295.56,90.06 295.63,89.94 295.96,89.56C296.63,88.77 298.05,87.22 299.14,86.005C300.29,84.73 301.52,83.38 302.71500000000003,82.075C303.91,80.78 305.13,79.47 306.32,78.205C307.47,76.98 309.11,75.24 309.73,74.61C309.96,74.38 309.98,74.38 310.2,74.15C310.79,73.56 312.72,71.5 313.36,70.87C313.63,70.61 313.67,70.59 313.94,70.33C314.57,69.71 316.44,67.76 317.08,67.14C317.35,66.88 317.4,66.85 317.68,66.59C318.33,65.97 320.29,63.99 320.9,63.4C321.14,63.17 321.16,63.16 321.41,62.93C322.06,62.32 323.76,60.66 324.98,59.51C326.24,58.32 327.57,57.1 328.865,55.900000000000006C330.16,54.7 331.5,53.49 332.775,52.334999999999994C333.99,51.24 335.62,49.82 336.36,49.14C336.7,48.83 336.76,48.75 337.09,48.45C337.75,47.86 339.31,46.58 340.1,45.88C340.62,45.42 340.88,45.14 341.38,44.71C342.06,44.12 343.07,43.35 343.84,42.7C344.55,42.11 345.19,41.5 345.84,40.97C346.43,40.48 346.93,40.13 347.58,39.61C348.44,38.93 349.87,37.76 350.54,37.24C350.88,36.98 350.95,36.93 351.31,36.66Q352.14,36.03 355.41,33.5" style="stroke-miterlimit: 1; vector-effect: non-scaling-stroke; fill: none; stroke: rgb(85, 62, 47); stroke-opacity: 1; stroke-width: 2px;"/></g><g class="contourlevel"><path class="openline" d="M0,388.93Q0.41,388.74 0.73,388.55C1.4,388.16 2.67,387.23 3.74,386.62C4.88,385.96 6.13,385.32 7.375,384.755C8.62,384.19 9.92,383.63 11.21,383.24C12.45,382.86 13.7,382.48 14.95,382.42C16.19,382.36 17.71,382.4 18.69,382.88C19.53,383.29 20.21,383.97 20.62,384.81C21.1,385.79 21.14,387.31 21.08,388.55C21.02,389.8 20.64,391.05 20.26,392.29C19.87,393.58 19.31,394.88 18.745,396.125C18.18,397.37 17.54,398.62 16.88,399.76C16.27,400.83 15.34,402.1 14.95,402.77Q14.76,403.09 14.57,403.5" style="stroke-miterlimit: 1; vector-effect: non-scaling-stroke; fill: none; stroke: rgb(98, 69, 51); stroke-opacity: 1; stroke-width: 2px;"/><path class="openline" d="M370,46.56Q368.95,47.77 368.38,48.45C367.72,49.25 366.85,50.38 366.26,51.06C365.86,51.52 365.64,51.71 365.22,52.19C364.53,52.97 363.1,54.74 362.53,55.36C362.28,55.63 362.23,55.65 361.97,55.92C361.33,56.6 359.82,58.34 358.70500000000004,59.58C357.54,60.86 356.32,62.19 355.12,63.480000000000004C353.91,64.77 352.68,66.08 351.475,67.325C350.3,68.54 348.55,70.25 347.97,70.87C347.77,71.08 347.78,71.1 347.58,71.31C346.99,71.92 345.22,73.62 344.01,74.795C342.76,76 341.47,77.23 340.185,78.435C338.9,79.64 337.57,80.86 336.28499999999997,82.03C335.05,83.15 333.37,84.69 332.63,85.3C332.32,85.56 332.26,85.57 331.96,85.82C331.3,86.36 329.72,87.84 328.89,88.52C328.36,88.96 328.05,89.15 327.54,89.56C326.85,90.12 325.94,90.96 325.15,91.6C324.4,92.2 323.59,92.77 322.92,93.3C322.36,93.74 322.02,94.08 321.41,94.56C320.53,95.26 318.68,96.58 318.1,97.04C317.89,97.21 317.89,97.23 317.68,97.39C317.06,97.87 314.86,99.41 313.94,100.01C313.42,100.35 313.17,100.46 312.68,100.77C311.99,101.21 311.11,101.85 310.2,102.43C309.12,103.12 307.83,103.94 306.585,104.59C305.34,105.24 304.02,105.86 302.73,106.31C301.49,106.74 300.07,107.56 298.99,107.26C297.91,106.96 296.54,105.59 296.24,104.51C295.94,103.43 296.76,102.01 297.19,100.77C297.64,99.48 298.26,98.16 298.90999999999997,96.915C299.56,95.67 300.38,94.38 301.07,93.3C301.65,92.39 302.29,91.51 302.73,90.82C303.04,90.33 303.15,90.08 303.49,89.56C304.09,88.64 305.63,86.44 306.11,85.82C306.27,85.61 306.29,85.61 306.46,85.4C306.92,84.82 308.24,82.97 308.94,82.09C309.42,81.48 309.76,81.14 310.2,80.58C310.73,79.91 311.3,79.1 311.9,78.35C312.54,77.56 313.38,76.65 313.94,75.96C314.35,75.45 314.54,75.14 314.98,74.61C315.66,73.78 317.14,72.2 317.68,71.54C317.93,71.24 317.94,71.18 318.2,70.87C318.81,70.13 320.35,68.45 321.47,67.215C322.64,65.93 323.86,64.6 325.065,63.315C326.27,62.03 327.5,60.74 328.705,59.489999999999995C329.88,58.28 331.58,56.51 332.19,55.92C332.4,55.72 332.42,55.73 332.63,55.53C333.25,54.95 334.96,53.2 336.175,52.025C337.42,50.82 338.73,49.59 340.02,48.38C341.31,47.18 342.64,45.96 343.91999999999996,44.795C345.16,43.68 346.9,42.17 347.58,41.53C347.85,41.27 347.87,41.22 348.14,40.97C348.76,40.4 350.53,38.97 351.31,38.28C351.79,37.86 351.98,37.64 352.44,37.24C353.12,36.65 354.25,35.78 355.05,35.12Q355.73,34.55 356.94,33.5" style="stroke-miterlimit: 1; vector-effect: non-scaling-stroke; fill: none; stroke: rgb(98, 69, 51); stroke-opacity: 1; stroke-width: 2px;"/></g><g class="contourlevel"><path class="openline" d="M0,394.03Q2.48,393.11 3.74,392.93C4.97,392.75 6.37,392.48 7.47,392.94C8.66,393.44 10.06,394.84 10.56,396.03C11.02,397.13 10.75,398.53 10.57,399.76Q10.39,401.02 9.47,403.5" style="stroke-miterlimit: 1; vector-effect: non-scaling-stroke; fill: none; stroke: rgb(111, 77, 54); stroke-opacity: 1; stroke-width: 2px;"/><path class="openline" d="M370,45.03Q367.74,47.65 367.07,48.45C366.71,48.88 366.61,49.04 366.26,49.45C365.66,50.15 364.4,51.42 363.72,52.19C363.24,52.73 363,53.07 362.53,53.59C361.9,54.28 360.88,55.21 360.21,55.92C359.67,56.5 359.33,56.97 358.79,57.53C358.14,58.2 357.23,58.99 356.57,59.66C356.01,60.24 355.62,60.74 355.05,61.31C354.38,61.98 353.45,62.75 352.78,63.4C352.23,63.94 351.88,64.39 351.31,64.93C350.6,65.61 349.51,66.5 348.83,67.14C348.33,67.61 348.09,67.92 347.58,68.4C346.83,69.1 345.38,70.25 344.71,70.87C344.33,71.22 344.24,71.37 343.84,71.73C343.06,72.44 341.48,73.74 340.25,74.755C338.98,75.8 337.12,77.35 336.36,77.91C336.06,78.13 336,78.14 335.71,78.35C335.06,78.82 333.57,80.05 332.63,80.72C331.88,81.25 331.21,81.63 330.56,82.09C329.97,82.51 329.57,82.87 328.89,83.34C327.88,84.03 326.33,85.06 325.04499999999996,85.775C323.83,86.45 322.65,87.05 321.41,87.55C320.19,88.04 318.78,89.01 317.68,88.74C316.55,88.47 315.03,86.95 314.76,85.82C314.49,84.72 315.46,83.31 315.95,82.09C316.45,80.85 317.05,79.67 317.725,78.455C318.44,77.17 319.47,75.62 320.16,74.61C320.63,73.93 320.99,73.53 321.41,72.94C321.87,72.29 322.25,71.62 322.78,70.87C323.45,69.93 324.68,68.44 325.15,67.79C325.36,67.5 325.37,67.44 325.59,67.14C326.15,66.38 327.7,64.52 328.745,63.25C329.76,62.02 331.06,60.44 331.77,59.66C332.13,59.26 332.28,59.17 332.63,58.79C333.25,58.12 334.4,56.67 335.1,55.92C335.58,55.41 335.89,55.17 336.36,54.67C337,53.99 337.89,52.9 338.57,52.19C339.11,51.62 339.56,51.27 340.1,50.72C340.75,50.05 341.52,49.12 342.19,48.45C342.76,47.88 343.26,47.49 343.84,46.93C344.51,46.27 345.3,45.36 345.97,44.71C346.53,44.17 347,43.83 347.58,43.29C348.29,42.62 349.22,41.6 349.91,40.97C350.43,40.5 350.77,40.26 351.31,39.78C352.08,39.1 353.35,37.84 354.05,37.24C354.46,36.89 354.62,36.79 355.05,36.43Q355.85,35.76 358.47,33.5" style="stroke-miterlimit: 1; vector-effect: non-scaling-stroke; fill: none; stroke: rgb(111, 77, 54); stroke-opacity: 1; stroke-width: 2px;"/></g><g class="contourlevel"><path class="openline" d="M0,399.15Q1.34,399.4 1.93,399.76C2.6,400.17 3.33,400.9 3.74,401.57Q4.1,402.16 4.35,403.5" style="stroke-miterlimit: 1; vector-effect: non-scaling-stroke; fill: none; stroke: rgb(125, 85, 56); stroke-opacity: 1; stroke-width: 2px;"/><path class="openline" d="M370,43.97Q369.55,44.37 369.22,44.71C368.54,45.41 366.84,47.46 366.26,48.03C366.04,48.25 366.01,48.23 365.78,48.45C365.15,49.05 363.54,50.85 362.365,52.05C361.15,53.29 359.85,54.57 358.605,55.775000000000006C357.41,56.94 355.76,58.56 355.05,59.17C354.76,59.42 354.7,59.42 354.42,59.66C353.77,60.21 352.11,61.86 351.31,62.53C350.84,62.92 350.6,63.03 350.15,63.4C349.45,63.97 348.4,65.02 347.58,65.68C346.88,66.24 346.21,66.64 345.57,67.14C344.96,67.62 344.52,68.08 343.84,68.61C342.95,69.3 341.27,70.39 340.65,70.87C340.39,71.07 340.38,71.13 340.1,71.33C339.42,71.82 337.43,73.08 336.36,73.66C335.6,74.07 335,74.28 334.36,74.61C333.76,74.92 333.34,75.31 332.63,75.57C331.64,75.93 329.84,76.61 328.89,76.32C328.13,76.09 327.41,75.37 327.18,74.61C326.89,73.66 327.57,71.86 327.93,70.87C328.19,70.16 328.58,69.74 328.89,69.14C329.22,68.5 329.43,67.9 329.84,67.14C330.42,66.07 331.68,64.08 332.17,63.4C332.37,63.12 332.43,63.11 332.63,62.85C333.11,62.23 334.2,60.55 334.89,59.66C335.42,58.98 335.88,58.54 336.36,57.93C336.86,57.29 337.26,56.62 337.82,55.92C338.48,55.1 339.53,54.05 340.1,53.35C340.47,52.9 340.58,52.66 340.97,52.19C341.64,51.39 343.29,49.73 343.84,49.08C344.08,48.8 344.08,48.74 344.33,48.45C344.94,47.74 346.56,46.09 347.725,44.894999999999996C348.93,43.65 350.21,42.35 351.45,41.135C352.65,39.96 354.45,38.35 355.05,37.72C355.27,37.49 355.25,37.46 355.47,37.24C356.04,36.66 358.09,34.96 358.79,34.28Q359.13,33.95 359.53,33.5" style="stroke-miterlimit: 1; vector-effect: non-scaling-stroke; fill: none; stroke: rgb(125, 85, 56); stroke-opacity: 1; stroke-width: 2px;"/></g><g class="contourlevel"><path class="openline" d="M370,43.03Q368.82,44.1 368.23,44.71C367.58,45.38 366.91,46.27 366.26,46.92C365.68,47.5 365.12,47.88 364.54,48.45C363.88,49.09 363.21,49.95 362.53,50.59C361.9,51.18 361.25,51.62 360.63,52.19C360,52.77 359.46,53.44 358.79,54.04C358.08,54.68 357.13,55.33 356.46,55.92C355.92,56.4 355.63,56.78 355.05,57.28C354.24,57.98 352.64,59.11 351.99,59.66C351.67,59.93 351.64,60.01 351.31,60.28C350.58,60.88 348.36,62.51 347.58,63C347.24,63.21 347.16,63.21 346.83,63.4C346.16,63.79 344.9,64.71 343.84,65.32C342.7,65.98 341.48,66.88 340.20000000000005,67.2C338.94,67.52 336.87,67.93 336.22,67.28C335.57,66.63 335.98,64.56 336.3,63.3C336.62,62.02 337.52,60.8 338.18,59.66C338.79,58.6 339.71,57.34 340.1,56.67C340.29,56.34 340.29,56.26 340.5,55.92C340.99,55.14 342.62,52.92 343.22,52.19C343.49,51.86 343.57,51.83 343.84,51.51C344.39,50.86 345.52,49.26 346.22,48.45C346.72,47.87 347.1,47.58 347.58,47.04C348.17,46.37 348.82,45.42 349.46,44.71C350.06,44.04 350.73,43.5 351.31,42.87C351.88,42.25 352.32,41.6 352.91,40.97C353.55,40.29 354.41,39.62 355.05,38.96C355.62,38.38 356,37.82 356.58,37.24C357.23,36.59 358.12,35.92 358.79,35.27Q359.4,34.68 360.47,33.5" style="stroke-miterlimit: 1; vector-effect: non-scaling-stroke; fill: none; stroke: rgb(138, 93, 57); stroke-opacity: 1; stroke-width: 2px;"/></g><g class="contourlevel"><path class="openline" d="M370,42.09Q367.92,44.01 367.24,44.71C366.82,45.14 366.69,45.38 366.26,45.81C365.55,46.52 363.95,47.81 363.29,48.45C362.94,48.79 362.89,48.92 362.53,49.26C361.78,49.97 360.15,51.32 358.92,52.325C357.66,53.36 355.92,54.79 355.05,55.38C354.64,55.65 354.5,55.67 354.11,55.92C353.42,56.37 352.29,57.31 351.31,57.93C350.32,58.56 348.85,59.27 348.21,59.66C347.91,59.84 347.9,59.96 347.58,60.09C346.87,60.39 344.69,61.07 343.84,60.81C343.29,60.64 342.86,60.21 342.69,59.66C342.43,58.81 343.11,56.63 343.41,55.92C343.54,55.6 343.66,55.59 343.84,55.29C344.23,54.65 344.94,53.18 345.57,52.19C346.19,51.21 347.13,50.08 347.58,49.39C347.83,49 347.85,48.86 348.12,48.45C348.71,47.58 350.14,45.84 351.175,44.58C352.18,43.35 353.53,41.72 354.24,40.97C354.58,40.61 354.71,40.56 355.05,40.21C355.69,39.55 356.98,37.95 357.69,37.24C358.12,36.81 358.36,36.68 358.79,36.26Q359.49,35.58 361.41,33.5" style="stroke-miterlimit: 1; vector-effect: non-scaling-stroke; fill: none; stroke: rgb(150, 102, 58); stroke-opacity: 1; stroke-width: 2px;"/></g><g class="contourlevel"><path class="openline" d="M370,41.16Q367.52,43.55 366.26,44.7C365.03,45.83 363.31,47.39 362.53,47.98C362.2,48.23 362.11,48.22 361.79,48.45C361.12,48.94 359.72,50.25 358.79,50.91C358.05,51.44 357.34,51.75 356.69,52.19C356.1,52.59 355.73,53.01 355.05,53.44C354.08,54.05 352.44,55.49 351.31,55.31C350.15,55.12 348.38,53.35 348.19,52.19C348.01,51.06 349.45,49.42 350.06,48.45C350.49,47.77 350.91,47.4 351.31,46.81C351.75,46.16 352.06,45.45 352.59,44.71C353.25,43.78 354.56,42.38 355.05,41.71C355.28,41.39 355.27,41.3 355.52,40.97C356.1,40.19 357.67,38.48 358.79,37.25Q359.94,35.99 362.34,33.5" style="stroke-miterlimit: 1; vector-effect: non-scaling-stroke; fill: none; stroke: rgb(161, 112, 59); stroke-opacity: 1; stroke-width: 2px;"/></g><g class="contourlevel"><path class="openline" d="M370,40.43Q369.56,40.7 369.23,40.97C368.55,41.53 367.08,43.13 366.26,43.79C365.74,44.21 365.39,44.32 364.89,44.71C364.19,45.25 363.36,46.16 362.53,46.79C361.7,47.41 360.6,47.96 359.92,48.45C359.45,48.79 359.3,49.06 358.79,49.38C357.93,49.92 356.13,51.3 355.05,51.11C354.01,50.93 352.57,49.49 352.39,48.45C352.2,47.37 353.58,45.57 354.12,44.71C354.44,44.2 354.71,44.05 355.05,43.58C355.54,42.9 356.09,41.8 356.71,40.97C357.34,40.14 358.25,39.31 358.79,38.61C359.18,38.11 359.29,37.76 359.71,37.24C360.37,36.42 361.97,34.95 362.53,34.27Q362.8,33.94 363.07,33.5" style="stroke-miterlimit: 1; vector-effect: non-scaling-stroke; fill: none; stroke: rgb(171, 122, 60); stroke-opacity: 1; stroke-width: 2px;"/></g><g class="contourlevel"><path class="openline" d="M370,39.75Q368.85,40.49 368.27,40.97C367.61,41.52 367.01,42.28 366.26,42.88C365.44,43.53 364.2,44.19 363.53,44.71C363.1,45.04 363,45.27 362.53,45.59C361.7,46.15 359.89,47.68 358.79,47.51C357.72,47.34 356.16,45.78 355.99,44.71C355.82,43.61 357.35,41.8 357.91,40.97C358.23,40.5 358.46,40.4 358.79,39.97C359.31,39.3 359.97,38.06 360.62,37.24C361.22,36.49 361.98,35.89 362.53,35.23Q363.01,34.65 363.75,33.5" style="stroke-miterlimit: 1; vector-effect: non-scaling-stroke; fill: none; stroke: rgb(180, 134, 64); stroke-opacity: 1; stroke-width: 2px;"/></g><g class="contourlevel"><path class="openline" d="M370,39.07Q367.98,40.42 367.31,40.97C366.86,41.34 366.74,41.6 366.26,41.97C365.42,42.62 363.64,43.81 362.53,44.25C361.73,44.57 361,44.55 360.33,44.71C359.77,44.85 359.13,45.24 358.79,45.15C358.58,45.09 358.41,44.92 358.35,44.71C358.26,44.37 358.65,43.73 358.79,43.17C358.95,42.5 358.93,41.77 359.25,40.97C359.69,39.86 360.88,38.08 361.53,37.24C361.9,36.76 362.16,36.64 362.53,36.19Q363.08,35.52 364.43,33.5" style="stroke-miterlimit: 1; vector-effect: non-scaling-stroke; fill: none; stroke: rgb(188, 147, 69); stroke-opacity: 1; stroke-width: 2px;"/></g><g class="contourlevel"><path class="openline" d="M370,38.39Q367.59,40.32 366.305,41.015C365.09,41.67 363.46,42.68 362.53,42.48C361.85,42.34 361.16,41.65 361.02,40.97C360.82,40.04 361.83,38.41 362.485,37.195Q363.18,35.91 365.11,33.5" style="stroke-miterlimit: 1; vector-effect: non-scaling-stroke; fill: none; stroke: rgb(195, 161, 78); stroke-opacity: 1; stroke-width: 2px;"/></g><g class="contourlevel"><path class="openline" d="M370,37.71Q367.34,39.97 366.26,39.82C365.26,39.68 363.82,38.24 363.68,37.24Q363.53,36.16 365.79,33.5" style="stroke-miterlimit: 1; vector-effect: non-scaling-stroke; fill: none; stroke: rgb(202, 174, 89); stroke-opacity: 1; stroke-width: 2px;"/></g><g class="contourlevel"><path class="openline" d="M370,36.97Q369.51,37.1 369.15,37.24C368.47,37.5 367,38.68 366.26,38.54C365.7,38.44 365.06,37.8 364.96,37.24C364.82,36.5 366,35.03 366.26,34.35Q366.4,33.99 366.53,33.5" style="stroke-miterlimit: 1; vector-effect: non-scaling-stroke; fill: none; stroke: rgb(207, 188, 102); stroke-opacity: 1; stroke-width: 2px;"/></g><g class="contourlevel"><path class="openline" d="M370,36.1Q366.68,37.69 366.245,37.255Q365.81,36.82 367.4,33.5" style="stroke-miterlimit: 1; vector-effect: non-scaling-stroke; fill: none; stroke: rgb(213, 202, 118); stroke-opacity: 1; stroke-width: 2px;"/></g><g class="contourlevel"><path class="openline" d="M370,35.24L368.26,33.5" style="stroke-miterlimit: 1; vector-effect: non-scaling-stroke; fill: none; stroke: rgb(219, 216, 134); stroke-opacity: 1; stroke-width: 2px;"/></g><g class="contourlevel"><path class="openline" d="M370,34.37L369.13,33.5" style="stroke-miterlimit: 1; vector-effect: non-scaling-stroke; fill: none; stroke: rgb(225, 231, 152); stroke-opacity: 1; stroke-width: 2px;"/></g><g class="contourlevel"/></g></g></g></g><g class="overplot"/><path class="xlines-above crisp" d="" style="fill: none; stroke-width: 1px; stroke: rgb(0, 0, 0); stroke-opacity: 0;"/><path class="ylines-above crisp" d="" style="fill: none; stroke-width: 1px; stroke: rgb(0, 0, 0); stroke-opacity: 0;"/><g class="overlines-above"/><g class="xaxislayer-above"><path class="xtick ticks crisp" d="M0,478v5" transform="translate(89.67,0)" style="stroke: rgb(51, 51, 51); stroke-opacity: 1; stroke-width: 1px;"/><path class="xtick ticks crisp" d="M0,478v5" transform="translate(171.89,0)" style="stroke: rgb(51, 51, 51); stroke-opacity: 1; stroke-width: 1px;"/><path class="xtick ticks crisp" d="M0,478v5" transform="translate(254.11,0)" style="stroke: rgb(51, 51, 51); stroke-opacity: 1; stroke-width: 1px;"/><path class="xtick ticks crisp" d="M0,478v5" transform="translate(336.33,0)" style="stroke: rgb(51, 51, 51); stroke-opacity: 1; stroke-width: 1px;"/><g class="xtick"><text text-anchor="middle" x="0" y="497.4" transform="translate(89.67,0)" style="font-family: 'Open Sans', verdana, arial, sans-serif; font-size: 12px; fill: rgb(51, 51, 51); fill-opacity: 1; white-space: pre; opacity: 1;">0.2</text></g><g class="xtick"><text text-anchor="middle" x="0" y="497.4" style="font-family: 'Open Sans', verdana, arial, sans-serif; font-size: 12px; fill: rgb(51, 51, 51); fill-opacity: 1; white-space: pre; opacity: 1;" transform="translate(171.89,0)">0.4</text></g><g class="xtick"><text text-anchor="middle" x="0" y="497.4" style="font-family: 'Open Sans', verdana, arial, sans-serif; font-size: 12px; fill: rgb(51, 51, 51); fill-opacity: 1; white-space: pre; opacity: 1;" transform="translate(254.11,0)">0.6</text></g><g class="xtick"><text text-anchor="middle" x="0" y="497.4" style="font-family: 'Open Sans', verdana, arial, sans-serif; font-size: 12px; fill: rgb(51, 51, 51); fill-opacity: 1; white-space: pre; opacity: 1;" transform="translate(336.33,0)">0.8</text></g></g><g class="yaxislayer-above"><path class="ytick ticks crisp" d="M27,0h-5" transform="translate(0,464.06)" style="stroke: rgb(51, 51, 51); stroke-opacity: 1; stroke-width: 1px;"/><path class="ytick ticks crisp" d="M27,0h-5" transform="translate(0,381.83)" style="stroke: rgb(51, 51, 51); stroke-opacity: 1; stroke-width: 1px;"/><path class="ytick ticks crisp" d="M27,0h-5" transform="translate(0,299.61)" style="stroke: rgb(51, 51, 51); stroke-opacity: 1; stroke-width: 1px;"/><path class="ytick ticks crisp" d="M27,0h-5" transform="translate(0,217.39)" style="stroke: rgb(51, 51, 51); stroke-opacity: 1; stroke-width: 1px;"/><path class="ytick ticks crisp" d="M27,0h-5" transform="translate(0,135.17000000000002)" style="stroke: rgb(51, 51, 51); stroke-opacity: 1; stroke-width: 1px;"/><path class="ytick ticks crisp" d="M27,0h-5" transform="translate(0,52.94)" style="stroke: rgb(51, 51, 51); stroke-opacity: 1; stroke-width: 1px;"/><g class="ytick"><text text-anchor="end" x="19.6" y="4.199999999999999" transform="translate(0,464.06)" style="font-family: 'Open Sans', verdana, arial, sans-serif; font-size: 12px; fill: rgb(51, 51, 51); fill-opacity: 1; white-space: pre; opacity: 1;">0</text></g><g class="ytick"><text text-anchor="end" x="19.6" y="4.199999999999999" style="font-family: 'Open Sans', verdana, arial, sans-serif; font-size: 12px; fill: rgb(51, 51, 51); fill-opacity: 1; white-space: pre; opacity: 1;" transform="translate(0,381.83)">0.2</text></g><g class="ytick"><text text-anchor="end" x="19.6" y="4.199999999999999" style="font-family: 'Open Sans', verdana, arial, sans-serif; font-size: 12px; fill: rgb(51, 51, 51); fill-opacity: 1; white-space: pre; opacity: 1;" transform="translate(0,299.61)">0.4</text></g><g class="ytick"><text text-anchor="end" x="19.6" y="4.199999999999999" style="font-family: 'Open Sans', verdana, arial, sans-serif; font-size: 12px; fill: rgb(51, 51, 51); fill-opacity: 1; white-space: pre; opacity: 1;" transform="translate(0,217.39)">0.6</text></g><g class="ytick"><text text-anchor="end" x="19.6" y="4.199999999999999" style="font-family: 'Open Sans', verdana, arial, sans-serif; font-size: 12px; fill: rgb(51, 51, 51); fill-opacity: 1; white-space: pre; opacity: 1;" transform="translate(0,135.17000000000002)">0.8</text></g><g class="ytick"><text text-anchor="end" x="19.6" y="4.199999999999999" style="font-family: 'Open Sans', verdana, arial, sans-serif; font-size: 12px; fill: rgb(51, 51, 51); fill-opacity: 1; white-space: pre; opacity: 1;" transform="translate(0,52.94)">1</text></g></g><g class="overaxes-above"/></g></g><g class="polarlayer"/><g class="ternarylayer"/><g class="geolayer"/><g class="funnelarealayer"/><g class="pielayer"/><g class="iciclelayer"/><g class="treemaplayer"/><g class="sunburstlayer"/><g class="glimages"/><defs id="topdefs-d79909"><g class="clips"/></defs><g class="layer-above"><g class="imagelayer"/><g class="shapelayer"/></g><g class="infolayer"><g class="cb330f33 colorbar" transform="translate(28,40)"><rect class="cbbg" x="377" y="0" width="94.65625" height="437" style="fill: rgb(0, 0, 0); fill-opacity: 0; stroke: rgb(68, 68, 68); stroke-opacity: 1; stroke-width: 0;"/><g class="cbfills" transform="translate(0,10)"/><g class="cblines" transform="translate(0,10)"><path class="cbline" d="M387,417h30" style="fill: none; stroke: rgb(34, 30, 27); stroke-opacity: 1; stroke-width: 2px;"/><path class="cbline" d="M387,396h30" style="fill: none; stroke: rgb(47, 38, 33); stroke-opacity: 1; stroke-width: 2px;"/><path class="cbline" d="M387,375h30" style="fill: none; stroke: rgb(59, 46, 38); stroke-opacity: 1; stroke-width: 2px;"/><path class="cbline" d="M387,354h30" style="fill: none; stroke: rgb(72, 54, 43); stroke-opacity: 1; stroke-width: 2px;"/><path class="cbline" d="M387,334h30" style="fill: none; stroke: rgb(85, 62, 47); stroke-opacity: 1; stroke-width: 2px;"/><path class="cbline" d="M387,313h30" style="fill: none; stroke: rgb(98, 69, 51); stroke-opacity: 1; stroke-width: 2px;"/><path class="cbline" d="M387,292h30" style="fill: none; stroke: rgb(111, 77, 54); stroke-opacity: 1; stroke-width: 2px;"/><path class="cbline" d="M387,271h30" style="fill: none; stroke: rgb(125, 85, 56); stroke-opacity: 1; stroke-width: 2px;"/><path class="cbline" d="M387,250h30" style="fill: none; stroke: rgb(138, 93, 57); stroke-opacity: 1; stroke-width: 2px;"/><path class="cbline" d="M387,229h30" style="fill: none; stroke: rgb(150, 102, 58); stroke-opacity: 1; stroke-width: 2px;"/><path class="cbline" d="M387,209h30" style="fill: none; stroke: rgb(161, 112, 59); stroke-opacity: 1; stroke-width: 2px;"/><path class="cbline" d="M387,188h30" style="fill: none; stroke: rgb(171, 122, 60); stroke-opacity: 1; stroke-width: 2px;"/><path class="cbline" d="M387,167h30" style="fill: none; stroke: rgb(180, 134, 64); stroke-opacity: 1; stroke-width: 2px;"/><path class="cbline" d="M387,146h30" style="fill: none; stroke: rgb(188, 147, 69); stroke-opacity: 1; stroke-width: 2px;"/><path class="cbline" d="M387,125h30" style="fill: none; stroke: rgb(195, 160, 78); stroke-opacity: 1; stroke-width: 2px;"/><path class="cbline" d="M387,104h30" style="fill: none; stroke: rgb(202, 174, 89); stroke-opacity: 1; stroke-width: 2px;"/><path class="cbline" d="M387,83h30" style="fill: none; stroke: rgb(207, 188, 102); stroke-opacity: 1; stroke-width: 2px;"/><path class="cbline" d="M387,63h30" style="fill: none; stroke: rgb(213, 202, 118); stroke-opacity: 1; stroke-width: 2px;"/><path class="cbline" d="M387,42h30" style="fill: none; stroke: rgb(219, 216, 134); stroke-opacity: 1; stroke-width: 2px;"/><path class="cbline" d="M387,21h30" style="fill: none; stroke: rgb(225, 231, 152); stroke-opacity: 1; stroke-width: 2px;"/><path class="cbline" d="M387,0h30" style="fill: none; stroke: rgb(232, 245, 171); stroke-opacity: 1; stroke-width: 2px;"/></g><g class="cbaxis crisp" transform="translate(0,-40)"><path class="ycb330f33tick ticks crisp" d="M416.5,0h-6" transform="translate(0,362.75)" style="stroke: rgb(237, 237, 237); stroke-opacity: 1; stroke-width: 1px;"/><path class="ycb330f33tick ticks crisp" d="M416.5,0h-6" transform="translate(0,258.5)" style="stroke: rgb(237, 237, 237); stroke-opacity: 1; stroke-width: 1px;"/><path class="ycb330f33tick ticks crisp" d="M416.5,0h-6" transform="translate(0,154.25)" style="stroke: rgb(237, 237, 237); stroke-opacity: 1; stroke-width: 1px;"/><g class="ycb330f33tick"><text text-anchor="start" x="419.9" y="4.199999999999999" transform="translate(0,467)" style="font-family: 'Open Sans', verdana, arial, sans-serif; font-size: 12px; fill: rgb(51, 51, 51); fill-opacity: 1; white-space: pre; opacity: 1;">0</text></g><g class="ycb330f33tick"><text text-anchor="start" x="419.9" y="4.199999999999999" style="font-family: 'Open Sans', verdana, arial, sans-serif; font-size: 12px; fill: rgb(51, 51, 51); fill-opacity: 1; white-space: pre; opacity: 1;" transform="translate(0,362.75)">5.93</text></g><g class="ycb330f33tick"><text text-anchor="start" x="419.9" y="4.199999999999999" style="font-family: 'Open Sans', verdana, arial, sans-serif; font-size: 12px; fill: rgb(51, 51, 51); fill-opacity: 1; white-space: pre; opacity: 1;" transform="translate(0,258.5)">11.87</text></g><g class="ycb330f33tick"><text text-anchor="start" x="419.9" y="4.199999999999999" style="font-family: 'Open Sans', verdana, arial, sans-serif; font-size: 12px; fill: rgb(51, 51, 51); fill-opacity: 1; white-space: pre; opacity: 1;" transform="translate(0,154.25)">17.8</text></g><g class="ycb330f33tick"><text text-anchor="start" x="419.9" y="4.199999999999999" style="font-family: 'Open Sans', verdana, arial, sans-serif; font-size: 12px; fill: rgb(51, 51, 51); fill-opacity: 1; white-space: pre; opacity: 1;" transform="translate(0,50.000000000000014)">23.74</text></g></g><g class="cbtitleunshift" transform="translate(-28,-40)"><g class="cbtitle"/></g><rect class="cboutline" x="387" y="10" width="30" height="417" style="stroke: rgb(68, 68, 68); stroke-opacity: 1; fill: none; stroke-width: 0;"/></g><g class="g-gtitle"><text class="gtitle" x="250" y="20" text-anchor="middle" dy="0em" style="font-family: 'Open Sans', verdana, arial, sans-serif; font-size: 17px; fill: rgb(51, 51, 51); opacity: 1; font-weight: normal; white-space: pre;">Gumbel copula</text></g><g class="g-xtitle"/><g class="g-ytitle"/></g></svg>