<svg class="main-svg" xmlns="http://www.w3.org/2000/svg" xmlns:xlink="http://www.w3.org/1999/xlink" width="1500" height="1500" style="" viewBox="0 0 500 500"><rect x="0" y="0" width="500" height="500" style="fill: rgb(255, 255, 255); fill-opacity: 1;"/><defs id="defs-6abf00"><g class="clips"><clipPath id="clip6abf00xyplot" class="plotclip"><rect width="364" height="437"/></clipPath><clipPath class="axesclip" id="clip6abf00x"><rect x="26" y="0" width="364" height="500"/></clipPath><clipPath class="axesclip" id="clip6abf00y"><rect x="0" y="40" width="500" height="437"/></clipPath><clipPath class="axesclip" id="clip6abf00xy"><rect x="26" y="40" width="364" height="437"/></clipPath><clipPath class="contourclip" id="clipc65985"><path d="M0,0L364,0L364,437L0,437Z"/></clipPath></g><g class="gradients"/><g class="patterns"/></defs><g class="bglayer"><rect class="bg" x="26" y="40" width="364" height="437" style="fill: rgb(237, 237, 237); fill-opacity: 1; stroke-width: 0;"/></g><g class="layer-below"><g class="imagelayer"/><g class="shapelayer"/></g><g class="cartesianlayer"><g class="subplot xy"><g class="layer-subplot"><g class="shapelayer"/><g class="imagelayer"/></g><g class="gridlayer"><g class="x"><path class="xgrid crisp" transform="translate(84.61,0)" d="M0,40v437" style="stroke: rgb(255, 255, 255); stroke-opacity: 1; stroke-width: 1px;"/><path class="xgrid crisp" transform="translate(331.39,0)" d="M0,40v437" style="stroke: rgb(255, 255, 255); stroke-opacity: 1; stroke-width: 1px;"/></g><g class="y"><path class="ygrid crisp" transform="translate(0,406.64)" d="M26,0h364" style="stroke: rgb(255, 255, 255); stroke-opacity: 1; stroke-width: 1px;"/><path class="ygrid crisp" transform="translate(0,332.57)" d="M26,0h364" style="stroke: rgb(255, 255, 255); stroke-opacity: 1; stroke-width: 1px;"/><path class="ygrid crisp" transform="translate(0,184.43)" d="M26,0h364" style="stroke: rgb(255, 255, 255); stroke-opacity: 1; stroke-width: 1px;"/><path class="ygrid crisp" transform="translate(0,110.36)" d="M26,0h364" style="stroke: rgb(255, 255, 255); stroke-opacity: 1; stroke-width: 1px;"/></g></g><g class="zerolinelayer"><path class="xzl zl crisp" transform="translate(208,0)" d="M0,40v437" style="stroke: rgb(255, 255, 255); stroke-opacity: 1; stroke-width: 1px;"/><path class="yzl zl crisp" transform="translate(0,258.5)" d="M26,0h364" style="stroke: rgb(255, 255, 255); stroke-opacity: 1; stroke-width: 1px;"/></g><path class="xlines-below"/><path class="ylines-below"/><g class="overlines-below"/><g class="xaxislayer-below"/><g class="yaxislayer-below"/><g class="overaxes-below"/><g class="plot" transform="translate(26,40)" clip-path="url(#clip6abf00xyplot)"><g class="contourlayer mlayer"><g class="contour" clip-path="url(#clipc65985)" style="opacity: 1;"><g class="heatmapcoloring"/><g class="contourbg"/><g class="contourfill"/><g class="contourlines"><g class="contourlevel"><path class="openline" d="M364,344.38Q363.14,347.27 362.65,348.72C362.15,350.19 361.47,351.99 361.03,353.13C360.75,353.85 360.56,354.25 360.32,354.9C360.03,355.69 359.8,356.56 359.45,357.55C359,358.84 358.33,360.66 357.82,361.96C357.41,363.01 356.96,363.98 356.65,364.79C356.42,365.39 356.33,365.71 356.09,366.37C355.69,367.47 354.98,369.43 354.43,370.79C353.94,371.99 353.29,373.33 352.97,374.14C352.79,374.59 352.76,374.73 352.58,375.2C352.21,376.17 351.42,378.25 350.84,379.62C350.32,380.84 349.63,382.23 349.29,383.03C349.11,383.46 349.08,383.58 348.9,384.03C348.52,384.98 347.66,387.11 347.07,388.44C346.57,389.56 345.99,390.68 345.62,391.5C345.38,392.04 345.3,392.28 345.05,392.86C344.59,393.91 343.66,396.04 343.08,397.27C342.66,398.16 342.29,398.81 341.94,399.56C341.6,400.28 341.4,400.86 341.01,401.69C340.45,402.9 339.34,405.12 338.84,406.1C338.59,406.59 338.49,406.74 338.26,407.21C337.86,408.02 337.31,409.36 336.73,410.52C336.07,411.85 335.23,413.28 334.485,414.72C333.71,416.22 332.83,418.08 332.16,419.34C331.69,420.23 331.31,420.83 330.91,421.58C330.52,422.31 330.25,422.91 329.79,423.76C329.12,424.98 328.07,426.69 327.24,428.17C326.42,429.64 325.53,431.39 324.84,432.59C324.36,433.43 323.98,433.99 323.56,434.71Q323.12,435.46 322.26,437" style="stroke-miterlimit: 1; vector-effect: non-scaling-stroke; fill: none; stroke: rgb(34, 30, 27); stroke-opacity: 1; stroke-width: 2px;"/><path class="openline" d="M0,50.11Q1.29,49.08 1.91,48.56C2.52,48.05 2.97,47.59 3.68,47.01C4.67,46.19 6.12,45.12 7.34,44.14C8.57,43.14 10.01,41.87 11.03,41.07C11.73,40.52 12.24,40.2 12.84,39.73C13.46,39.25 13.97,38.79 14.71,38.22C15.76,37.42 17.31,36.37 18.56,35.435C19.76,34.54 20.95,33.54 22.06,32.74C23.02,32.05 24.14,31.38 24.81,30.9C25.21,30.62 25.32,30.5 25.74,30.2C26.56,29.61 28.4,28.29 29.41,27.61C30.1,27.15 30.59,26.88 31.19,26.48C31.82,26.06 32.35,25.63 33.09,25.12C34.11,24.43 35.89,23.3 36.77,22.75C37.25,22.45 37.45,22.36 37.9,22.07C38.58,21.63 39.5,20.93 40.44,20.33C41.54,19.62 43.32,18.59 44.12,18.13C44.5,17.91 44.6,17.88 44.96,17.66C45.63,17.25 46.78,16.41 47.8,15.79C48.93,15.1 50.66,14.15 51.47,13.71C51.87,13.49 51.99,13.46 52.36,13.24C53.04,12.85 54.15,12.08 55.15,11.49C56.28,10.83 57.91,9.97 58.83,9.49C59.38,9.2 59.65,9.1 60.15,8.83C60.83,8.46 61.63,7.92 62.51,7.42C63.59,6.81 65.11,6 66.18,5.46C67,5.04 67.72,4.75 68.38,4.41C68.93,4.12 69.25,3.9 69.86,3.57C70.81,3.05 72.31,2.22 73.54,1.62Q74.74,1.03 77.15,0" style="stroke-miterlimit: 1; vector-effect: non-scaling-stroke; fill: none; stroke: rgb(34, 30, 27); stroke-opacity: 1; stroke-width: 2px;"/></g><g class="contourlevel"><path class="closedline" d="M84.57,375.52C84.18,375.39 84.08,375.34 83.71,375.2C83.04,374.95 81.88,374.58 80.89,374.17C79.74,373.69 78.35,373.05 77.21,372.46C76.18,371.92 75,371.18 74.34,370.79C73.99,370.58 73.9,370.54 73.54,370.3C72.75,369.78 70.81,368.4 69.86,367.66C69.23,367.17 68.89,366.85 68.35,366.37C67.69,365.78 66.9,365.08 66.18,364.37C65.42,363.62 64.58,362.7 63.93,361.96C63.39,361.35 63.02,360.89 62.51,360.25C61.89,359.46 61.12,358.45 60.5,357.55C59.9,356.68 59.32,355.73 58.83,354.94C58.43,354.29 58.17,353.87 57.76,353.13C57.14,351.99 55.99,349.66 55.56,348.72C55.36,348.28 55.32,348.17 55.15,347.75C54.82,346.95 54.21,345.53 53.76,344.3C53.26,342.93 52.73,341.27 52.33,339.89C51.98,338.69 51.67,337.31 51.47,336.51C51.36,336.06 51.32,335.94 51.21,335.47C50.99,334.51 50.58,332.53 50.32,331.06C50.06,329.59 49.84,328.12 49.66,326.65C49.48,325.18 49.34,323.7 49.22,322.23C49.11,320.76 49.03,319.29 48.97,317.82C48.91,316.35 48.89,314.87 48.89,313.4C48.89,311.93 48.91,310.46 48.96,308.99C49.01,307.52 49.08,306.05 49.18,304.58C49.28,303.11 49.4,301.63 49.54,300.16C49.68,298.69 49.85,297.22 50.04,295.75C50.23,294.28 50.44,292.8 50.68,291.33C50.92,289.85 51.2,288.35 51.465,286.875C51.73,285.41 51.99,283.97 52.28,282.51C52.58,281.04 52.9,279.56 53.24,278.09C53.58,276.62 53.99,274.99 54.34,273.68C54.62,272.62 54.93,271.62 55.15,270.81C55.31,270.22 55.37,269.91 55.55,269.26C55.85,268.16 56.37,266.32 56.82,264.85C57.27,263.37 57.88,261.53 58.26,260.43C58.49,259.76 58.62,259.44 58.83,258.83C59.11,258.03 59.4,257.06 59.76,256.02C60.22,254.71 60.87,252.91 61.37,251.61C61.77,250.57 62.19,249.62 62.51,248.81C62.75,248.2 62.86,247.86 63.12,247.19C63.56,246.08 64.37,244.07 64.93,242.78C65.38,241.75 65.83,240.83 66.18,240.02C66.45,239.4 66.59,239.04 66.89,238.36C67.39,237.24 68.37,235.1 68.93,233.95C69.29,233.2 69.53,232.78 69.86,232.11C70.25,231.33 70.6,230.51 71.09,229.54C71.74,228.24 72.69,226.5 73.475,225.005C74.24,223.55 75.08,221.95 75.76,220.71C76.29,219.75 76.76,218.97 77.21,218.19C77.6,217.51 77.84,217.05 78.28,216.29C78.96,215.13 80.03,213.4 80.925,211.94C81.83,210.46 83.02,208.51 83.69,207.46C84.06,206.89 84.22,206.67 84.57,206.14C85.1,205.33 85.93,204.01 86.57,203.05C87.14,202.19 87.71,201.41 88.24,200.64C88.72,199.94 89.09,199.38 89.61,198.64C90.27,197.7 91.33,196.27 91.92,195.45C92.28,194.94 92.42,194.74 92.8,194.22C93.47,193.32 95.03,191.28 95.6,190.53C95.85,190.2 95.88,190.15 96.14,189.81C96.77,188.99 98.31,187.03 99.455,185.62C100.64,184.16 101.9,182.62 103.12,181.18C104.3,179.79 106,177.83 106.63,177.11C106.86,176.85 106.87,176.83 107.1,176.57C107.69,175.9 109.59,173.78 110.3,173C110.65,172.62 110.74,172.52 111.09,172.15C111.75,171.44 113.21,169.88 113.98,169.07C114.49,168.53 114.77,168.25 115.27,167.74C115.94,167.05 116.9,166.06 117.66,165.29C118.35,164.59 119.01,163.95 119.65,163.32C120.23,162.74 120.69,162.28 121.33,161.66C122.17,160.85 123.59,159.53 124.25,158.91C124.59,158.59 124.66,158.52 125.01,158.19C125.8,157.46 127.62,155.8 128.88,154.66500000000002C130.07,153.59 131.4,152.37 132.36,151.53C133.03,150.95 133.48,150.58 134.07,150.08C134.7,149.54 135.28,149.01 136.04,148.38C137.04,147.54 138.35,146.5 139.54000000000002,145.51999999999998C140.79,144.5 142.41,143.15 143.39,142.37C143.98,141.9 144.31,141.67 144.84,141.25C145.51,140.73 146.23,140.12 147.07,139.47C148.12,138.66 149.47,137.7 150.685,136.79000000000002C151.92,135.86 153.34,134.73 154.42,133.94C155.23,133.35 155.93,132.89 156.58,132.42C157.13,132.02 157.48,131.75 158.1,131.3C159.06,130.61 160.93,129.31 161.78,128.72C162.23,128.41 162.4,128.31 162.82,128.01C163.5,127.54 164.49,126.8 165.45,126.14C166.59,125.36 168,124.5 169.235,123.66499999999999C170.45,122.85 171.62,121.99 172.81,121.21C173.96,120.45 175.08,119.8 176.26,119.035C177.52,118.22 178.96,117.23 180.16,116.47C181.17,115.83 182.3,115.19 182.97,114.77C183.35,114.53 183.45,114.45 183.84,114.2C184.64,113.68 186.4,112.56 187.52,111.87C188.45,111.3 189.41,110.76 190.09,110.35C190.54,110.08 190.72,109.96 191.19,109.66C192.06,109.12 193.75,108.05 194.87,107.39C195.79,106.84 196.72,106.34 197.4,105.94C197.86,105.67 198.06,105.53 198.55,105.23C199.43,104.69 201.09,103.66 202.22,103C203.16,102.45 204.17,101.93 204.85,101.53C205.28,101.28 205.44,101.16 205.9,100.88C206.75,100.36 208.43,99.34 209.58,98.68C210.58,98.1 211.75,97.49 212.41,97.11C212.78,96.9 212.87,96.83 213.25,96.6C214.04,96.12 215.75,95.09 216.93,94.41C218.01,93.79 219.43,93.06 220.05,92.7C220.31,92.55 220.34,92.52 220.61,92.36C221.3,91.95 223.06,90.87 224.28,90.17C225.47,89.49 226.65,88.9 227.85000000000002,88.215C229.1,87.5 230.37,86.67 231.64,85.95C232.88,85.24 234.15,84.61 235.375,83.905C236.6,83.2 237.75,82.44 238.99,81.73C240.26,81 241.65,80.3 242.89999999999998,79.58C244.09,78.89 245.17,78.19 246.34,77.51C247.54,76.82 249.25,75.9 250.02,75.47C250.38,75.27 250.46,75.24 250.8,75.04C251.46,74.66 252.67,73.88 253.7,73.28C254.85,72.61 256.51,71.7 257.37,71.22C257.84,70.96 258.02,70.88 258.45,70.63C259.13,70.24 260.1,69.61 261.05,69.05C262.17,68.39 263.8,67.48 264.73,66.96C265.29,66.65 265.58,66.51 266.09,66.21C266.76,65.82 267.54,65.31 268.4,64.8C269.48,64.16 271.1,63.25 272.08,62.7C272.73,62.33 273.15,62.13 273.72,61.8C274.37,61.43 274.98,61.02 275.76,60.56C276.8,59.94 278.4,59.03 279.43,58.45C280.18,58.03 280.75,57.74 281.38,57.38C281.98,57.03 282.42,56.74 283.11,56.33C284.1,55.74 285.7,54.83 286.79,54.22C287.64,53.74 288.43,53.35 289.09,52.97C289.61,52.67 289.89,52.48 290.46,52.15C291.39,51.61 292.99,50.67 294.14,50.04C295.13,49.49 296.27,48.93 296.94,48.56C297.32,48.35 297.42,48.27 297.82,48.04C298.62,47.58 300.26,46.63 301.49,45.97C302.69,45.32 303.9,44.74 305.11,44.105000000000004C306.35,43.45 307.6,42.74 308.85,42.1C310.08,41.47 311.61,40.74 312.53,40.31C313.08,40.06 313.35,39.96 313.85,39.73C314.52,39.42 315.32,38.98 316.2,38.58C317.28,38.09 318.65,37.52 319.88,37.05C321.1,36.59 322.51,36.08 323.56,35.78C324.33,35.56 324.96,35.46 325.6,35.31C326.17,35.17 326.57,34.99 327.23,34.91C328.2,34.79 330.1,34.74 330.91,34.91C331.34,35 331.49,35.04 331.85,35.31C332.58,35.85 334.14,37.75 334.59,38.6C334.83,39.04 334.85,39.22 334.92,39.73C335.06,40.71 335.03,42.97 334.93,44.14C334.86,44.93 334.7,45.41 334.59,46.1C334.46,46.87 334.39,47.63 334.2,48.56C333.95,49.82 333.53,51.5 333.14,52.97C332.75,54.44 332.27,56.08 331.86,57.38C331.53,58.43 331.17,59.4 330.91,60.21C330.72,60.81 330.63,61.14 330.42,61.8C330.06,62.9 329.45,64.74 328.93,66.21C328.4,67.7 327.8,69.21 327.26,70.69999999999999C326.73,72.16 326.25,73.59 325.71,75.04C325.16,76.51 324.37,78.48 323.99,79.45C323.8,79.93 323.74,80.06 323.56,80.51C323.25,81.31 322.78,82.68 322.32,83.87C321.79,85.24 321.01,87.17 320.56,88.28C320.28,88.96 320.13,89.31 319.88,89.93C319.56,90.73 319.24,91.67 318.84,92.7C318.34,94 317.57,95.92 317.08,97.11C316.74,97.93 316.49,98.47 316.2,99.19C315.9,99.94 315.67,100.63 315.32,101.53C314.84,102.77 314.07,104.69 313.56,105.94C313.18,106.87 312.84,107.61 312.53,108.38C312.25,109.07 312.08,109.56 311.77,110.35C311.31,111.53 310.55,113.47 310.02,114.77C309.6,115.81 309.18,116.74 308.85,117.55C308.6,118.16 308.48,118.5 308.22,119.18C307.79,120.29 307.04,122.26 306.49,123.6C306.03,124.73 305.5,125.9 305.17,126.72C304.96,127.24 304.89,127.45 304.68,128.01C304.28,129.04 303.52,131.04 302.96,132.42C302.46,133.65 301.81,135.12 301.49,135.91C301.33,136.32 301.3,136.42 301.14,136.84C300.79,137.77 300.02,139.81 299.44,141.25C298.88,142.66 298.29,143.97 297.71500000000003,145.39499999999998C297.11,146.9 296.53,148.55 295.92,150.08C295.33,151.56 294.69,152.95 294.11,154.41500000000002C293.52,155.89 293.01,157.41 292.41,158.91C291.81,160.42 291.11,161.95 290.515,163.45C289.94,164.9 289.46,166.3 288.89,167.74C288.31,169.2 287.41,171.33 287.07,172.15C286.94,172.47 286.92,172.5 286.79,172.82C286.49,173.56 285.87,175.27 285.36,176.57C284.8,177.98 283.94,180.03 283.54,180.98C283.35,181.44 283.29,181.55 283.11,181.99C282.79,182.79 282.28,184.19 281.8,185.39C281.25,186.77 280.4,188.79 279.97,189.81C279.74,190.36 279.64,190.55 279.43,191.07C279.1,191.88 278.66,193.08 278.2,194.22C277.65,195.57 276.8,197.59 276.35,198.64C276.1,199.23 275.99,199.46 275.76,200.01C275.42,200.82 275.01,201.95 274.55,203.05C274,204.39 273.11,206.42 272.66,207.46C272.41,208.03 272.31,208.25 272.08,208.78C271.74,209.59 271.29,210.76 270.82,211.88C270.25,213.22 269.31,215.33 268.88,216.29C268.67,216.76 268.6,216.89 268.4,217.34C268.05,218.14 267.52,219.5 266.99,220.71C266.36,222.15 265.53,223.87 264.85,225.385C264.21,226.81 263.67,228.15 263.04,229.54C262.39,230.96 261.67,232.37 260.995,233.825C260.3,235.31 259.58,236.99 258.93,238.36C258.38,239.51 257.76,240.7 257.37,241.52C257.13,242.03 257.05,242.23 256.79,242.78C256.3,243.81 255.22,246.04 254.64,247.19C254.27,247.93 254.03,248.36 253.7,249.02C253.31,249.81 252.93,250.63 252.43,251.61C251.77,252.91 250.83,254.61 250.06,256.095C249.3,257.55 248.51,259.16 247.83,260.43C247.29,261.44 246.77,262.32 246.34,263.12C245.99,263.76 245.81,264.14 245.42,264.85C244.77,266.02 243.64,267.97 242.79,269.475C241.98,270.91 241.11,272.48 240.41,273.68C239.88,274.58 239.44,275.28 238.99,276.04C238.57,276.75 238.27,277.29 237.78,278.09C237.08,279.24 236.07,280.85 235.17000000000002,282.275C234.22,283.78 232.84,285.97 232.23,286.92C231.96,287.34 231.9,287.43 231.64,287.83C231.13,288.62 230.01,290.32 229.34,291.33C228.82,292.1 228.44,292.66 227.96,293.36C227.44,294.12 226.9,294.92 226.32,295.75C225.68,296.67 224.86,297.81 224.28,298.62C223.86,299.21 223.63,299.55 223.18,300.16C222.51,301.09 221.2,302.84 220.61,303.63C220.3,304.05 220.22,304.16 219.9,304.58C219.25,305.43 217.49,307.71 216.93,308.42C216.72,308.7 216.7,308.71 216.48,308.99C215.88,309.75 214.25,311.79 213.08499999999998,313.2C211.89,314.66 210.61,316.18 209.385,317.6C208.21,318.96 206.58,320.81 205.9,321.57C205.62,321.88 205.58,321.93 205.3,322.23C204.67,322.92 202.97,324.79 202.22,325.59C201.79,326.05 201.62,326.21 201.2,326.65C200.52,327.36 199.34,328.62 198.55,329.42C197.93,330.04 197.46,330.48 196.88,331.06C196.24,331.69 195.59,332.38 194.87,333.07C194.07,333.84 192.98,334.83 192.3,335.47C191.85,335.89 191.67,336.08 191.19,336.53C190.32,337.33 188.71,338.76 187.47,339.85C186.26,340.92 184.81,342.21 183.84,343.02C183.21,343.55 182.82,343.84 182.26,344.3C181.61,344.84 180.96,345.41 180.16,346.05C179.13,346.87 177.79,347.87 176.575,348.795C175.34,349.74 173.9,350.86 172.81,351.65C172,352.23 171.32,352.67 170.67,353.13C170.11,353.52 169.76,353.8 169.13,354.24C168.17,354.91 166.38,356.1 165.45,356.7C164.89,357.06 164.59,357.22 164.08,357.55C163.41,357.98 162.64,358.51 161.78,359.05C160.7,359.72 159.03,360.69 158.1,361.22C157.54,361.54 157.26,361.67 156.75,361.96C156.08,362.34 155.29,362.84 154.42,363.32C153.34,363.92 151.84,364.71 150.75,365.26C149.89,365.69 149.08,366.04 148.41,366.37C147.9,366.62 147.63,366.78 147.07,367.06C146.15,367.51 144.62,368.24 143.39,368.78C142.17,369.32 140.63,369.95 139.72,370.31C139.18,370.52 138.92,370.6 138.43,370.79C137.75,371.05 136.93,371.42 136.04,371.76C134.95,372.18 133.59,372.67 132.36,373.08C131.14,373.49 129.91,373.87 128.69,374.23C127.48,374.58 126.27,374.89 125.05000000000001,375.21500000000003C123.82,375.54 122.57,375.87 121.33,376.16C120.11,376.44 118.89,376.69 117.66,376.92C116.44,377.15 115.21,377.35 113.98,377.52C112.76,377.69 111.53,377.83 110.3,377.95C109.08,378.07 107.85,378.16 106.63,378.22C105.4,378.28 104.18,378.31 102.95,378.31C101.72,378.31 100.49,378.28 99.27,378.21C98.04,378.14 96.82,378.05 95.6,377.91C94.37,377.77 93.14,377.6 91.92,377.38C90.69,377.16 89.46,376.9 88.24,376.59C87.01,376.28 85.36,375.78 84.57,375.52Z" style="stroke-miterlimit: 1; vector-effect: non-scaling-stroke; fill: none; stroke: rgb(59, 46, 38); stroke-opacity: 1; stroke-width: 2px;"/></g><g class="contourlevel"><path class="closedline" d="M106.41499999999999,353.16499999999996C105.22,353.02 104.12,352.86 102.95,352.62C101.74,352.38 100.49,352.07 99.27,351.71C98.04,351.34 96.81,350.92 95.6,350.42C94.37,349.92 93.16,349.35 91.96000000000001,348.70000000000005C90.71,348.02 89.36,347.2 88.24,346.42C87.24,345.73 86.2,344.85 85.53,344.3C85.12,343.97 84.98,343.86 84.57,343.47C83.75,342.69 82.11,341.07 81.00999999999999,339.745C79.89,338.4 78.56,336.45 77.91,335.47C77.58,334.97 77.49,334.81 77.21,334.32C76.75,333.51 76.02,332.25 75.45,331.06C74.8,329.7 74.12,328.09 73.555,326.6C73.01,325.15 72.54,323.7 72.12,322.23C71.7,320.77 71.35,319.3 71.04,317.82C70.74,316.35 70.49,314.85 70.29,313.4C70.09,312 69.95,310.67 69.83,309.245C69.7,307.74 69.6,306.11 69.54,304.58C69.49,303.09 69.47,301.63 69.49,300.16C69.51,298.69 69.57,297.05 69.64,295.75C69.7,294.72 69.8,293.79 69.86,292.99C69.91,292.37 69.92,292.02 69.98,291.33C70.08,290.21 70.28,288.39 70.46,286.92C70.65,285.45 70.85,283.98 71.09,282.51C71.33,281.04 71.6,279.56 71.89,278.09C72.18,276.62 72.54,274.97 72.85,273.68C73.09,272.67 73.34,271.8 73.54,271C73.7,270.36 73.77,269.97 73.95,269.26C74.24,268.12 74.72,266.32 75.14,264.85C75.57,263.37 76.11,261.62 76.5,260.43C76.77,259.62 76.97,259.1 77.21,258.39C77.47,257.63 77.67,256.93 77.98,256.02C78.41,254.77 79.05,252.97 79.57,251.61C80.02,250.43 80.57,249.15 80.89,248.34C81.08,247.86 81.13,247.7 81.33,247.19C81.73,246.19 82.58,244.11 83.16,242.78C83.65,241.66 84.2,240.55 84.57,239.73C84.82,239.18 84.9,238.94 85.17,238.36C85.65,237.31 86.7,235.11 87.27,233.95C87.65,233.19 87.9,232.75 88.24,232.08C88.64,231.3 89.01,230.5 89.51,229.54C90.18,228.27 91.11,226.6 91.92500000000001,225.13C92.74,223.66 93.71,221.89 94.4,220.71C94.86,219.91 95.18,219.43 95.6,218.73C96.06,217.96 96.5,217.17 97.04,216.29C97.69,215.23 98.77,213.59 99.27,212.8C99.53,212.4 99.58,212.3 99.85,211.88C100.46,210.94 101.86,208.84 102.875,207.36C103.87,205.9 105.2,203.99 105.87,203.05C106.2,202.58 106.3,202.46 106.63,202.01C107.22,201.21 108.42,199.55 109.1,198.64C109.57,198.02 109.84,197.67 110.3,197.07C110.92,196.26 111.84,195.06 112.5,194.22C113.04,193.54 113.44,193.04 113.98,192.38C114.62,191.59 115.42,190.6 116.07,189.81C116.63,189.13 117.09,188.6 117.66,187.92C118.32,187.14 119.15,186.15 119.81,185.39C120.36,184.76 120.76,184.3 121.33,183.66C122.04,182.86 123.06,181.73 123.74,180.98C124.23,180.44 124.5,180.14 125.01,179.59C125.77,178.77 127.19,177.27 127.86,176.57C128.22,176.19 128.31,176.09 128.69,175.7C129.46,174.9 131.06,173.28 132.275,172.065C133.51,170.83 135.31,169.06 136.04,168.35C136.34,168.06 136.39,168.02 136.68,167.74C137.32,167.13 138.86,165.66 139.72,164.85C140.35,164.26 140.8,163.85 141.38,163.32C142.02,162.73 142.65,162.14 143.39,161.48C144.27,160.69 145.68,159.48 146.33,158.91C146.66,158.62 146.73,158.56 147.07,158.26C147.83,157.6 149.99,155.75 150.75,155.11C151.09,154.82 151.16,154.77 151.49,154.49C152.14,153.94 153.48,152.79 154.42,152.02C155.27,151.33 156.18,150.62 156.86,150.08C157.34,149.69 157.57,149.49 158.1,149.07C159,148.35 161.04,146.76 161.78,146.19C162.1,145.94 162.16,145.91 162.47,145.67C163.12,145.17 164.46,144.08 165.45,143.33C166.4,142.61 167.64,141.74 168.3,141.25C168.66,140.98 168.75,140.9 169.13,140.62C169.92,140.03 171.85,138.6 172.81,137.91C173.42,137.47 173.78,137.23 174.33,136.84C174.99,136.37 175.65,135.85 176.48,135.26C177.58,134.48 179.13,133.45 180.39,132.575C181.58,131.75 182.68,130.93 183.84,130.14C184.99,129.36 186.12,128.65 187.3,127.85999999999999C188.56,127.01 190.03,125.97 191.19,125.2C192.11,124.59 193.02,124.04 193.7,123.6C194.17,123.29 194.37,123.14 194.87,122.81C195.75,122.22 197.51,121.06 198.55,120.4C199.3,119.92 199.87,119.58 200.5,119.18C201.09,118.8 201.54,118.49 202.22,118.05C203.21,117.41 204.93,116.32 205.9,115.72C206.53,115.33 206.9,115.12 207.46,114.77C208.12,114.36 208.77,113.9 209.58,113.39C210.63,112.72 212.34,111.67 213.25,111.12C213.79,110.79 214.04,110.65 214.53,110.35C215.21,109.93 216.04,109.36 216.93,108.81C218.02,108.13 219.74,107.11 220.61,106.59C221.08,106.31 221.26,106.21 221.7,105.94C222.38,105.52 223.34,104.88 224.28,104.3C225.39,103.61 227.12,102.59 227.96,102.1C228.39,101.85 228.53,101.78 228.94,101.53C229.62,101.12 230.67,100.42 231.64,99.83C232.77,99.14 234.49,98.14 235.31,97.66C235.73,97.42 235.86,97.35 236.25,97.11C236.93,96.7 238.01,96 238.99,95.4C240.12,94.71 241.85,93.72 242.67,93.24C243.09,93 243.22,92.93 243.61,92.7C244.29,92.3 245.36,91.59 246.34,91C247.47,90.32 249.18,89.34 250.02,88.85C250.46,88.6 250.61,88.52 251.02,88.28C251.7,87.88 252.73,87.21 253.7,86.63C254.82,85.96 256.5,85 257.37,84.5C257.85,84.23 258.04,84.13 258.49,83.87C259.17,83.47 260.12,82.86 261.05,82.31C262.16,81.65 263.81,80.72 264.73,80.2C265.28,79.89 265.56,79.74 266.06,79.45C266.73,79.06 267.53,78.56 268.4,78.05C269.48,77.42 271.08,76.52 272.08,75.97C272.76,75.6 273.2,75.37 273.79,75.04C274.43,74.68 275,74.32 275.76,73.89C276.79,73.3 278.33,72.45 279.43,71.86C280.31,71.39 281.14,70.99 281.81,70.63C282.31,70.36 282.56,70.19 283.11,69.89C284.02,69.39 285.56,68.59 286.79,67.97C288,67.36 289.2,66.78 290.41999999999996,66.19C291.65,65.6 292.9,64.99 294.14,64.44C295.36,63.9 296.61,63.38 297.82,62.92C298.98,62.48 300.05,62.06 301.24,61.705C302.5,61.33 303.87,60.92 305.17,60.75C306.41,60.59 307.76,60.47 308.85,60.69C309.79,60.88 310.72,61.32 311.36,61.8C311.88,62.19 312.21,62.6 312.53,63.19C312.95,63.97 313.29,65.09 313.45,66.21C313.64,67.53 313.52,69.14 313.39,70.63C313.25,72.18 312.92,73.83 312.61,75.345C312.32,76.77 311.96,78.06 311.59,79.45C311.2,80.9 310.77,82.4 310.32,83.87C309.86,85.36 309.36,86.85 308.87,88.33C308.38,89.8 307.9,91.24 307.39,92.7C306.87,94.17 306.19,96.02 305.78,97.11C305.53,97.76 305.4,98.07 305.17,98.67C304.87,99.48 304.53,100.48 304.14,101.53C303.65,102.84 302.94,104.7 302.45,105.94C302.09,106.85 301.79,107.54 301.49,108.3C301.21,109.01 301.03,109.54 300.72,110.35C300.26,111.55 299.52,113.47 298.99,114.77C298.57,115.81 298.14,116.77 297.82,117.58C297.58,118.19 297.46,118.51 297.2,119.18C296.76,120.29 295.99,122.26 295.44,123.6C294.98,124.72 294.47,125.85 294.14,126.67C293.92,127.21 293.84,127.43 293.61,128.01C293.19,129.06 292.4,131.07 291.84,132.42C291.36,133.58 290.79,134.82 290.46,135.64C290.26,136.13 290.2,136.32 289.99,136.84C289.59,137.85 288.77,139.89 288.2,141.25C287.71,142.43 287.13,143.73 286.79,144.54C286.59,145.01 286.54,145.17 286.34,145.67C285.94,146.66 285.11,148.72 284.54,150.08C284.04,151.26 283.45,152.56 283.11,153.37C282.91,153.84 282.86,153.99 282.66,154.49C282.26,155.48 281.41,157.55 280.84,158.91C280.35,160.07 279.77,161.33 279.43,162.14C279.22,162.63 279.16,162.8 278.95,163.32C278.54,164.32 277.69,166.4 277.12,167.74C276.64,168.87 276.11,170.02 275.76,170.84C275.54,171.37 275.46,171.59 275.22,172.15C274.79,173.19 273.93,175.26 273.36,176.57C272.9,177.63 272.43,178.64 272.08,179.45C271.83,180.04 271.71,180.34 271.44,180.98C270.98,182.07 270.11,184.12 269.55,185.39C269.12,186.36 268.74,187.15 268.4,187.94C268.11,188.61 267.93,189.06 267.61,189.81C267.11,190.97 266.2,193.03 265.67,194.22C265.3,195.04 265.05,195.57 264.73,196.28C264.39,197.04 264.11,197.73 263.71,198.64C263.16,199.88 262.2,201.99 261.71,203.05C261.43,203.65 261.31,203.89 261.05,204.45C260.68,205.26 260.22,206.35 259.71,207.46C259.07,208.85 258.2,210.63 257.5,212.14499999999998C256.84,213.57 256.25,214.91 255.6,216.29C254.94,217.68 254.26,219.01 253.57,220.435C252.84,221.95 251.98,223.79 251.33,225.12C250.84,226.11 250.41,226.91 250.02,227.7C249.69,228.36 249.5,228.8 249.13,229.54C248.55,230.7 247.36,233 246.87,233.95C246.63,234.4 246.56,234.52 246.34,234.95C245.93,235.75 245.21,237.21 244.61,238.36C243.99,239.55 243.09,241.17 242.67,241.95C242.47,242.32 242.44,242.39 242.23,242.78C241.75,243.67 240.43,246.11 239.83,247.19C239.48,247.82 239.31,248.11 238.99,248.69C238.54,249.5 237.96,250.6 237.38,251.61C236.74,252.73 235.77,254.34 235.31,255.13C235.08,255.52 235.04,255.61 234.8,256.02C234.27,256.93 232.73,259.52 232.18,260.43C231.93,260.84 231.88,260.93 231.64,261.32C231.16,262.11 230.15,263.79 229.49,264.85C228.94,265.73 228.45,266.49 227.96,267.26C227.52,267.96 227.18,268.5 226.69,269.26C226.02,270.3 224.79,272.14 224.28,272.91C224.05,273.26 224.01,273.32 223.77,273.68C223.18,274.56 221.71,276.71 220.68,278.195C219.67,279.65 218.31,281.58 217.65,282.51C217.33,282.96 217.24,283.07 216.93,283.5C216.35,284.3 215.09,286.01 214.41,286.92C213.95,287.53 213.7,287.86 213.25,288.45C212.63,289.26 211.68,290.48 211.02,291.33C210.49,292.01 210.11,292.5 209.58,293.16C208.95,293.95 208.12,294.95 207.47,295.75C206.91,296.44 206.47,296.98 205.9,297.66C205.25,298.44 204.42,299.4 203.76,300.16C203.21,300.8 202.79,301.29 202.22,301.94C201.52,302.74 200.52,303.83 199.85,304.58C199.35,305.13 199.07,305.46 198.55,306.02C197.79,306.84 196.4,308.28 195.73,308.99C195.36,309.38 195.26,309.5 194.87,309.9C194.09,310.71 192.49,312.29 191.275,313.49C190.04,314.7 188.3,316.39 187.52,317.12C187.17,317.45 187.09,317.51 186.75,317.82C186.09,318.42 184.73,319.71 183.84,320.5C183.11,321.15 182.45,321.68 181.81,322.23C181.23,322.73 180.83,323.11 180.16,323.67C179.18,324.49 177.71,325.66 176.48,326.64C175.26,327.62 173.87,328.74 172.81,329.54C172.01,330.14 171.34,330.58 170.69,331.06C170.13,331.47 169.77,331.77 169.13,332.23C168.17,332.92 166.33,334.17 165.45,334.75C164.97,335.07 164.76,335.18 164.31,335.47C163.63,335.91 162.71,336.57 161.78,337.16C160.68,337.86 158.93,338.88 158.1,339.36C157.68,339.6 157.54,339.66 157.14,339.89C156.46,340.27 155.4,340.93 154.42,341.47C153.29,342.09 151.79,342.87 150.75,343.38C150,343.75 149.41,344 148.78,344.3C148.19,344.59 147.75,344.83 147.07,345.15C146.08,345.62 144.62,346.28 143.39,346.79C142.17,347.3 140.67,347.87 139.72,348.22C139.13,348.44 138.8,348.53 138.27,348.72C137.61,348.96 136.88,349.25 136.04,349.54C134.97,349.9 133.59,350.34 132.36,350.69C131.14,351.04 129.92,351.36 128.69,351.65C127.47,351.94 126.24,352.19 125.01,352.41C123.79,352.63 122.26,352.87 121.33,352.99C120.76,353.06 120.47,353.07 119.95,353.13C119.28,353.2 118.51,353.32 117.66,353.39C116.58,353.48 115.21,353.55 113.98,353.57C112.75,353.59 111.54,353.59 110.3,353.52C109.02,353.45 107.67,353.32 106.41499999999999,353.16499999999996Z" style="stroke-miterlimit: 1; vector-effect: non-scaling-stroke; fill: none; stroke: rgb(85, 62, 47); stroke-opacity: 1; stroke-width: 2px;"/></g><g class="contourlevel"><path class="closedline" d="M110.3,335.79C109.84,335.68 109.67,335.6 109.24,335.47C108.56,335.27 107.56,335.02 106.63,334.68C105.5,334.27 104.15,333.7 102.95,333.09C101.74,332.47 100.58,331.79 99.405,330.97C98.13,330.07 96.5,328.68 95.6,327.86C95.07,327.38 94.86,327.16 94.4,326.65C93.71,325.89 92.55,324.49 91.92,323.66C91.5,323.11 91.31,322.85 90.91,322.23C90.22,321.15 89.06,319.18 88.315,317.655C87.62,316.23 87.06,314.84 86.55,313.4C86.04,311.96 85.57,310.34 85.23,308.99C84.94,307.86 84.74,306.67 84.57,305.86C84.46,305.34 84.4,305.14 84.31,304.58C84.14,303.55 83.87,301.63 83.72,300.16C83.57,298.69 83.48,297.22 83.42,295.75C83.36,294.28 83.35,292.8 83.38,291.33C83.41,289.86 83.47,288.39 83.57,286.92C83.67,285.45 83.8,283.98 83.97,282.51C84.14,281.04 84.35,279.59 84.57,278.125C84.8,276.65 85.04,275.16 85.32,273.68C85.6,272.2 85.91,270.73 86.25,269.26C86.59,267.79 87,266.18 87.36,264.85C87.66,263.74 88.01,262.64 88.24,261.82C88.4,261.27 88.45,261.02 88.62,260.43C88.93,259.37 89.52,257.49 90.01,256.02C90.51,254.55 91.26,252.51 91.59,251.61C91.74,251.21 91.77,251.14 91.92,250.76C92.22,249.98 92.76,248.44 93.26,247.19C93.82,245.79 94.7,243.74 95.12,242.78C95.33,242.31 95.4,242.19 95.6,241.75C95.96,240.95 96.53,239.56 97.09,238.36C97.73,236.98 98.53,235.41 99.265,233.935C100,232.47 100.81,230.81 101.49,229.54C102.02,228.55 102.52,227.71 102.95,226.92C103.31,226.27 103.51,225.85 103.92,225.12C104.58,223.95 105.69,222.1 106.57499999999999,220.62C107.45,219.16 108.52,217.39 109.21,216.29C109.65,215.6 109.89,215.25 110.3,214.62C110.82,213.82 111.47,212.79 112.08,211.88C112.7,210.96 113.43,209.92 113.98,209.12C114.41,208.5 114.65,208.11 115.11,207.46C115.78,206.51 117.09,204.76 117.66,203.97C117.95,203.57 118.01,203.46 118.32,203.05C118.98,202.16 120.41,200.29 121.50999999999999,198.875C122.67,197.39 123.9,195.85 125.12,194.36C126.34,192.88 127.59,191.39 128.82,189.96C130.01,188.58 131.72,186.63 132.36,185.92C132.59,185.66 132.61,185.64 132.84,185.39C133.43,184.74 135.3,182.7 136.04,181.91C136.42,181.5 136.54,181.38 136.92,180.98C137.59,180.28 138.93,178.87 139.72,178.06C140.29,177.48 140.65,177.11 141.19,176.57C141.85,175.91 142.65,175.1 143.39,174.37C144.14,173.63 145.01,172.79 145.68,172.15C146.2,171.65 146.5,171.36 147.07,170.82C147.97,169.97 149.38,168.68 150.575,167.57999999999998C151.82,166.44 153.59,164.83 154.42,164.09C154.81,163.74 154.92,163.65 155.29,163.32C155.96,162.73 157.21,161.62 158.1,160.85C158.9,160.16 159.74,159.47 160.41,158.91C160.93,158.47 161.21,158.23 161.78,157.75C162.73,156.96 164.36,155.64 165.61,154.62C166.81,153.64 168.09,152.58 169.13,151.76C169.94,151.12 170.64,150.59 171.3,150.08C171.85,149.65 172.19,149.37 172.81,148.89C173.76,148.15 175.77,146.64 176.48,146.11C176.76,145.9 176.8,145.88 177.08,145.67C177.71,145.2 179.15,144.07 180.16,143.32C181.13,142.6 182.38,141.73 183.04,141.25C183.39,140.99 183.48,140.93 183.84,140.66C184.62,140.09 186.53,138.71 187.52,138.01C188.19,137.54 188.62,137.25 189.2,136.84C189.84,136.39 190.42,135.95 191.19,135.41C192.23,134.68 194.13,133.4 194.87,132.89C195.19,132.67 195.25,132.63 195.56,132.42C196.21,131.97 197.5,131.05 198.55,130.34C199.69,129.57 200.95,128.78 202.16,127.97C203.4,127.14 204.73,126.19 205.9,125.42C206.91,124.75 208.09,124.04 208.75,123.6C209.11,123.36 209.2,123.29 209.58,123.04C210.37,122.51 212.17,121.32 213.25,120.62C214.1,120.07 214.88,119.61 215.55,119.18C216.07,118.85 216.36,118.65 216.93,118.28C217.86,117.68 219.58,116.56 220.61,115.92C221.34,115.46 221.87,115.16 222.49,114.77C223.1,114.39 223.57,114.05 224.28,113.6C225.29,112.96 226.99,111.91 227.96,111.31C228.59,110.92 228.97,110.7 229.53,110.35C230.18,109.94 230.84,109.51 231.64,109.01C232.69,108.35 234.38,107.32 235.31,106.76C235.88,106.42 236.17,106.26 236.69,105.94C237.36,105.53 238.13,105.02 238.99,104.49C240.07,103.83 241.76,102.82 242.67,102.28C243.21,101.96 243.47,101.83 243.96,101.53C244.64,101.12 245.46,100.58 246.34,100.05C247.43,99.39 249.09,98.42 250.02,97.88C250.58,97.56 250.86,97.41 251.37,97.11C252.04,96.71 252.83,96.21 253.7,95.7C254.78,95.06 256.39,94.14 257.37,93.59C258.01,93.23 258.41,93.02 258.98,92.7C259.63,92.33 260.26,91.93 261.05,91.48C262.1,90.88 263.66,90.02 264.73,89.44C265.55,88.99 266.26,88.64 266.92,88.28C267.46,87.98 267.79,87.78 268.4,87.45C269.35,86.94 270.86,86.14 272.08,85.52C273.26,84.92 274.4,84.37 275.605,83.78999999999999C276.85,83.19 278.16,82.56 279.43,82C280.66,81.46 281.94,80.92 283.11,80.48C284.14,80.09 285.42,79.68 286.07,79.45C286.39,79.34 286.45,79.29 286.79,79.19C287.54,78.97 289.23,78.51 290.46,78.37C291.68,78.23 293.06,78.12 294.14,78.35C295.06,78.55 295.95,78.97 296.59,79.45C297.13,79.86 297.48,80.3 297.82,80.92C298.25,81.7 298.58,82.77 298.74,83.87C298.94,85.18 298.84,86.81 298.72,88.28C298.6,89.76 298.22,91.8 298.04,92.7C297.96,93.1 297.92,93.18 297.82,93.56C297.63,94.34 297.29,95.87 296.96,97.11C296.59,98.51 296.15,100.05 295.7,101.53C295.24,103.05 294.71,104.63 294.21,106.125C293.73,107.56 293.26,108.93 292.76,110.35C292.25,111.81 291.59,113.63 291.16,114.77C290.89,115.5 290.71,115.9 290.46,116.55C290.16,117.34 289.87,118.19 289.5,119.18C289.02,120.46 288.3,122.34 287.8,123.6C287.42,124.55 287.1,125.3 286.79,126.08C286.52,126.76 286.35,127.24 286.05,128.01C285.59,129.18 284.81,131.12 284.28,132.42C283.85,133.46 283.44,134.4 283.11,135.21C282.86,135.82 282.74,136.17 282.47,136.84C282.02,137.95 281.21,139.94 280.66,141.25C280.22,142.31 279.77,143.3 279.43,144.11C279.18,144.71 279.07,145.02 278.8,145.67C278.35,146.77 277.51,148.78 276.96,150.08C276.52,151.11 276.1,152.04 275.76,152.84C275.5,153.46 275.37,153.81 275.08,154.49C274.61,155.61 273.75,157.64 273.2,158.91C272.78,159.87 272.42,160.65 272.08,161.43C271.79,162.1 271.61,162.56 271.29,163.32C270.79,164.49 269.92,166.53 269.38,167.74C269,168.59 268.72,169.16 268.4,169.89C268.07,170.63 267.82,171.27 267.44,172.15C266.91,173.38 265.98,175.45 265.48,176.57C265.17,177.25 265.01,177.6 264.73,178.22C264.37,179.02 263.99,179.96 263.53,180.98C262.95,182.28 261.95,184.45 261.51,185.39C261.3,185.84 261.25,185.95 261.05,186.38C260.69,187.18 260.09,188.59 259.53,189.81C258.89,191.21 258.09,192.81 257.405,194.29500000000002C256.73,195.75 256.07,197.27 255.43,198.64C254.84,199.89 254.07,201.44 253.7,202.22C253.52,202.59 253.49,202.66 253.31,203.05C252.89,203.94 251.82,206.21 251.21,207.46C250.76,208.38 250.39,209.09 250.02,209.86C249.68,210.56 249.44,211.08 249.05,211.88C248.47,213.07 247.3,215.36 246.83,216.29C246.61,216.73 246.55,216.83 246.34,217.25C245.94,218.05 245.22,219.54 244.62,220.71C244,221.93 243.06,223.66 242.67,224.41C242.5,224.74 242.48,224.78 242.3,225.12C241.86,225.96 240.6,228.39 239.98,229.54C239.58,230.28 239.35,230.69 238.99,231.35C238.56,232.14 238.12,232.98 237.59,233.95C236.91,235.19 236.02,236.74 235.20499999999998,238.175C234.36,239.68 233.27,241.64 232.61,242.78C232.21,243.47 232,243.8 231.64,244.42C231.17,245.22 230.6,246.22 230.02,247.19C229.38,248.26 228.45,249.76 227.96,250.56C227.69,251.01 227.61,251.14 227.32,251.61C226.7,252.61 225.37,254.73 224.41500000000002,256.23C223.5,257.67 222.41,259.35 221.71,260.43C221.26,261.11 221.03,261.48 220.61,262.1C220.07,262.9 219.38,263.94 218.76,264.85C218.15,265.74 217.48,266.7 216.93,267.49C216.48,268.14 216.17,268.58 215.68,269.26C215.01,270.2 213.83,271.81 213.25,272.62C212.92,273.07 212.82,273.22 212.48,273.68C211.83,274.56 210.13,276.81 209.58,277.52C209.37,277.8 209.35,277.81 209.13,278.09C208.53,278.85 206.92,280.92 205.76999999999998,282.35C204.58,283.82 203.34,285.32 202.10500000000002,286.78499999999997C200.87,288.24 199.59,289.72 198.35000000000002,291.115C197.18,292.44 195.61,294.15 194.87,294.95C194.53,295.32 194.45,295.4 194.11,295.75C193.45,296.44 191.99,297.99 191.19,298.8C190.65,299.35 190.33,299.65 189.81,300.16C189.14,300.82 188.29,301.71 187.52,302.45C186.76,303.18 185.9,303.95 185.23,304.58C184.71,305.07 184.42,305.36 183.84,305.89C182.92,306.72 181.45,308 180.235,309.055C179,310.12 177.45,311.45 176.48,312.24C175.88,312.73 175.53,312.97 174.99,313.4C174.33,313.92 173.64,314.51 172.81,315.15C171.75,315.96 170.37,316.95 169.14499999999998,317.83C167.92,318.71 166.61,319.66 165.45,320.44C164.46,321.11 163.29,321.8 162.63,322.23C162.26,322.47 162.17,322.55 161.78,322.8C160.99,323.31 159.27,324.36 158.1,325.03C157.06,325.63 155.78,326.29 155.13,326.65C154.81,326.83 154.75,326.87 154.42,327.05C153.67,327.45 151.98,328.35 150.75,328.94C149.53,329.53 147.95,330.22 147.07,330.6C146.58,330.81 146.38,330.87 145.92,331.06C145.24,331.34 144.32,331.76 143.39,332.12C142.28,332.55 140.95,333.04 139.72,333.45C138.5,333.86 137.27,334.23 136.04,334.57C134.81,334.9 133.57,335.19 132.335,335.46500000000003C131.12,335.73 129.91,335.99 128.69,336.19C127.47,336.39 126.24,336.55 125.01,336.67C123.79,336.79 122.56,336.87 121.33,336.9C120.11,336.93 118.88,336.92 117.66,336.85C116.43,336.78 115.2,336.68 113.98,336.5C112.75,336.32 111.15,336 110.3,335.79Z" style="stroke-miterlimit: 1; vector-effect: non-scaling-stroke; fill: none; stroke: rgb(112, 77, 54); stroke-opacity: 1; stroke-width: 2px;"/></g><g class="contourlevel"><path class="closedline" d="M117.66,322.62C117.11,322.49 116.84,322.38 116.34,322.23C115.67,322.02 114.84,321.82 113.98,321.48C112.88,321.05 111.44,320.39 110.3,319.75C109.24,319.16 108.02,318.28 107.37,317.82C107.04,317.58 106.96,317.54 106.63,317.25C105.84,316.56 103.99,314.89 102.85,313.525C101.69,312.14 100.31,309.93 99.74,308.99C99.5,308.58 99.47,308.49 99.27,308.09C98.89,307.31 98.15,305.83 97.66,304.58C97.12,303.21 96.58,301.48 96.22,300.16C95.94,299.12 95.77,298.14 95.6,297.33C95.47,296.73 95.38,296.41 95.27,295.75C95.09,294.65 94.84,292.8 94.71,291.33C94.58,289.86 94.51,288.39 94.48,286.92C94.45,285.45 94.48,283.98 94.54,282.51C94.6,281.04 94.71,279.56 94.85,278.09C94.99,276.62 95.25,274.66 95.4,273.68C95.48,273.19 95.52,273.04 95.6,272.57C95.74,271.76 95.92,270.44 96.14,269.26C96.4,267.89 96.74,266.32 97.08,264.85C97.43,263.37 97.82,261.81 98.21,260.43C98.56,259.19 99.04,257.71 99.27,256.92C99.39,256.52 99.4,256.43 99.53,256.02C99.81,255.1 100.46,253.08 100.98,251.61C101.5,250.13 102.3,248.04 102.64,247.19C102.78,246.84 102.81,246.8 102.95,246.46C103.26,245.7 103.88,244.07 104.43,242.78C105.05,241.32 105.82,239.64 106.52,238.14C107.18,236.7 107.85,235.27 108.51,233.95C109.11,232.74 109.89,231.31 110.3,230.51C110.52,230.09 110.57,229.98 110.8,229.54C111.3,228.6 112.65,226.14 113.23,225.12C113.55,224.57 113.68,224.38 113.98,223.86C114.46,223.05 115.2,221.73 115.82,220.71C116.43,219.71 117.15,218.6 117.66,217.79C118.02,217.21 118.19,216.91 118.59,216.29C119.27,215.23 120.45,213.47 121.435,212.03C122.46,210.53 124.08,208.23 124.63,207.46C124.82,207.2 124.82,207.19 125.01,206.94C125.52,206.25 127.21,203.93 127.88,203.05C128.23,202.59 128.34,202.46 128.69,202.02C129.32,201.22 130.65,199.49 131.33,198.64C131.75,198.11 131.94,197.89 132.36,197.37C133.03,196.55 134.28,195.03 134.96,194.22C135.39,193.7 135.6,193.47 136.04,192.96C136.74,192.15 138.09,190.58 138.77,189.81C139.17,189.36 139.31,189.21 139.72,188.76C140.45,187.95 142.16,186.07 142.79,185.39C143.07,185.09 143.1,185.05 143.39,184.75C144.09,184.01 145.81,182.21 147.04,180.95C148.27,179.69 150.02,177.94 150.75,177.21C151.05,176.91 151.1,176.86 151.4,176.57C152.04,175.95 153.57,174.45 154.42,173.64C155.03,173.06 155.44,172.68 156.01,172.15C156.66,171.54 157.35,170.88 158.1,170.2C158.95,169.42 160.17,168.35 160.84,167.74C161.24,167.38 161.36,167.26 161.78,166.89C162.63,166.13 164.41,164.59 165.67,163.505C166.86,162.48 168.13,161.38 169.13,160.54C169.88,159.91 170.48,159.43 171.12,158.91C171.71,158.43 172.13,158.06 172.81,157.51C173.81,156.7 175.31,155.52 176.54,154.54000000000002C177.76,153.57 179.12,152.47 180.16,151.66C180.94,151.05 181.59,150.57 182.24,150.08C182.81,149.65 183.19,149.34 183.84,148.85C184.81,148.11 186.81,146.63 187.52,146.11C187.81,145.9 187.85,145.88 188.13,145.67C188.76,145.21 190.17,144.12 191.19,143.38C192.19,142.65 193.55,141.71 194.19,141.25C194.5,141.03 194.55,140.99 194.87,140.76C195.61,140.23 197.52,138.85 198.55,138.13C199.28,137.62 199.81,137.27 200.43,136.84C201.04,136.42 201.51,136.06 202.22,135.57C203.23,134.87 205.07,133.62 205.9,133.06C206.32,132.78 206.46,132.69 206.86,132.42C207.54,131.96 208.6,131.21 209.58,130.55C210.73,129.78 212.12,128.9 213.35500000000002,128.075C214.56,127.27 215.74,126.46 216.93,125.68C218.09,124.92 219.22,124.23 220.405,123.465C221.66,122.65 223.09,121.69 224.28,120.93C225.29,120.29 226.43,119.6 227.1,119.18C227.47,118.94 227.57,118.87 227.96,118.62C228.76,118.11 230.53,116.99 231.64,116.3C232.56,115.73 233.48,115.19 234.16,114.77C234.62,114.48 234.82,114.35 235.31,114.04C236.19,113.49 237.89,112.45 238.99,111.79C239.88,111.25 240.75,110.76 241.43,110.35C241.91,110.06 242.15,109.91 242.67,109.59C243.57,109.05 245.22,108.06 246.34,107.41C247.28,106.87 248.26,106.33 248.94,105.94C249.38,105.69 249.55,105.57 250.02,105.3C250.88,104.8 252.52,103.87 253.7,103.22C254.79,102.62 256.24,101.87 256.85,101.53C257.1,101.39 257.12,101.37 257.37,101.23C258.04,100.86 259.82,99.93 261.05,99.3C262.27,98.68 263.92,97.86 264.73,97.49C265.12,97.31 265.23,97.28 265.6,97.11C266.27,96.81 267.4,96.25 268.4,95.82C269.54,95.33 270.85,94.81 272.08,94.36C273.3,93.92 274.66,93.43 275.76,93.15C276.62,92.93 277.44,92.83 278.11,92.7C278.61,92.6 278.88,92.47 279.43,92.43C280.35,92.37 282.03,92.1 283.155,92.67500000000001C284.55,93.38 286.19,95.48 286.805,97.055C287.35,98.45 287.06,100.42 287.01,101.53C286.98,102.2 286.87,102.51 286.79,103.12C286.68,103.93 286.6,104.9 286.41,105.94C286.17,107.25 285.77,108.88 285.4,110.35C285.03,111.83 284.6,113.4 284.19,114.77C283.83,115.97 283.36,117.34 283.11,118.14C282.97,118.59 282.94,118.71 282.79,119.18C282.48,120.14 281.8,122.13 281.28,123.6C280.76,125.07 279.99,127.21 279.68,128.01C279.56,128.31 279.54,128.33 279.43,128.63C279.15,129.36 278.52,131.11 278.02,132.42C277.48,133.84 276.7,135.81 276.29,136.84C276.07,137.4 275.97,137.61 275.76,138.13C275.43,138.94 274.98,140.12 274.53,141.25C273.99,142.6 273.17,144.59 272.72,145.67C272.46,146.3 272.32,146.58 272.08,147.16C271.74,147.97 271.34,149.01 270.89,150.08C270.34,151.4 269.47,153.43 269.01,154.49C268.75,155.08 268.64,155.33 268.4,155.88C268.05,156.69 267.6,157.81 267.13,158.91C266.56,160.24 265.61,162.36 265.19,163.32C264.98,163.79 264.93,163.91 264.73,164.36C264.38,165.16 263.81,166.53 263.27,167.74C262.64,169.17 261.84,170.88 261.15999999999997,172.39499999999998C260.52,173.82 259.95,175.17 259.32,176.57C258.67,177.99 257.98,179.4 257.315,180.855C256.63,182.34 255.9,184 255.26,185.39C254.71,186.57 254.08,187.85 253.7,188.66C253.47,189.14 253.4,189.3 253.16,189.81C252.69,190.8 251.66,193.01 251.08,194.22C250.67,195.07 250.37,195.65 250.02,196.38C249.66,197.12 249.37,197.76 248.94,198.64C248.34,199.87 247.21,202.17 246.76,203.05C246.57,203.43 246.53,203.5 246.34,203.87C245.95,204.64 245.18,206.26 244.57,207.46C243.95,208.68 243.06,210.38 242.67,211.14C242.49,211.48 242.47,211.53 242.29,211.88C241.85,212.73 240.63,215.12 240.02,216.29C239.61,217.06 239.35,217.53 238.99,218.21C238.58,218.99 238.18,219.77 237.67,220.71C236.99,221.96 236.08,223.59 235.275,225.05C234.46,226.53 233.47,228.34 232.8,229.54C232.34,230.35 232.04,230.87 231.64,231.57C231.2,232.33 230.81,233.05 230.28,233.95C229.58,235.15 228.66,236.68 227.805,238.10500000000002C226.9,239.62 225.61,241.75 224.98,242.78C224.67,243.29 224.58,243.44 224.28,243.91C223.78,244.72 222.88,246.17 222.23,247.19C221.66,248.09 221.12,248.93 220.61,249.71C220.17,250.39 219.86,250.88 219.37,251.61C218.7,252.63 217.45,254.46 216.93,255.23C216.69,255.59 216.65,255.65 216.39,256.02C215.78,256.9 214.32,258.99 213.275,260.46500000000003C212.23,261.94 210.72,264.01 210.11,264.85C209.86,265.19 209.83,265.24 209.58,265.57C209.01,266.33 207.44,268.38 206.77,269.26C206.4,269.75 206.27,269.92 205.9,270.39C205.26,271.2 203.96,272.83 203.28,273.68C202.85,274.21 202.65,274.46 202.22,274.98C201.54,275.8 200.28,277.29 199.6,278.09C199.17,278.6 198.99,278.83 198.55,279.34C197.84,280.16 196.4,281.76 195.73,282.51C195.36,282.92 195.25,283.05 194.87,283.47C194.14,284.27 192.21,286.31 191.63,286.92C191.42,287.15 191.41,287.15 191.19,287.38C190.55,288.04 188.64,289.98 187.39,291.21C186.19,292.39 184.73,293.81 183.84,294.63C183.32,295.11 183.07,295.31 182.59,295.75C181.91,296.36 180.99,297.22 180.16,297.95C179.31,298.69 178.21,299.58 177.53,300.16C177.1,300.52 176.94,300.68 176.48,301.06C175.63,301.76 173.6,303.38 172.81,303.98C172.44,304.26 172.34,304.32 171.99,304.58C171.32,305.07 170.14,306.01 169.13,306.73C168.03,307.52 166.83,308.32 165.635,309.12C164.39,309.95 163,310.88 161.78,311.63C160.71,312.29 159.34,313.03 158.71,313.4C158.43,313.57 158.39,313.6 158.1,313.77C157.39,314.18 155.65,315.13 154.42,315.76C153.2,316.38 151.51,317.17 150.75,317.51C150.41,317.66 150.33,317.68 150,317.82C149.34,318.1 148.11,318.68 147.07,319.1C145.92,319.56 144.62,320.04 143.39,320.45C142.17,320.86 140.86,321.26 139.72,321.57C138.74,321.84 137.63,322.06 136.96,322.23C136.57,322.33 136.45,322.38 136.04,322.47C135.22,322.65 133.59,322.95 132.36,323.12C131.14,323.29 129.92,323.43 128.69,323.5C127.47,323.57 126.24,323.6 125.01,323.57C123.78,323.54 122.55,323.45 121.33,323.29C120.1,323.13 118.57,322.84 117.66,322.62Z" style="stroke-miterlimit: 1; vector-effect: non-scaling-stroke; fill: none; stroke: rgb(138, 93, 57); stroke-opacity: 1; stroke-width: 2px;"/></g><g class="contourlevel"><path class="closedline" d="M121.33,310.35C120.26,309.96 118.93,309.3 118.3,308.99C118.01,308.85 117.95,308.84 117.66,308.66C116.93,308.21 114.92,306.81 113.98,306.03C113.34,305.5 113,305.15 112.47,304.58C111.79,303.85 110.9,302.78 110.3,301.97C109.82,301.33 109.53,300.91 109.1,300.16C108.45,299.03 107.27,296.63 106.9,295.75C106.75,295.39 106.75,295.33 106.63,294.97C106.38,294.2 105.82,292.61 105.49,291.33C105.14,289.94 104.84,288.4 104.62,286.92C104.4,285.46 104.27,283.98 104.19,282.51C104.11,281.04 104.09,279.56 104.11,278.09C104.13,276.62 104.21,275.15 104.33,273.68C104.45,272.21 104.62,270.73 104.83,269.26C105.04,267.79 105.28,266.33 105.57,264.85C105.86,263.34 106.22,261.77 106.58500000000001,260.28C106.94,258.83 107.29,257.45 107.7,256.02C108.12,254.56 108.6,252.99 109.06,251.61C109.47,250.38 110.02,248.95 110.3,248.15C110.45,247.73 110.47,247.62 110.63,247.19C110.97,246.25 111.77,244.18 112.35,242.78C112.89,241.49 113.66,239.84 113.98,239.08C114.12,238.75 114.13,238.7 114.28,238.36C114.66,237.51 115.74,235.21 116.36,233.95C116.83,232.99 117.26,232.23 117.66,231.45C118.01,230.77 118.21,230.31 118.62,229.54C119.26,228.33 120.34,226.41 121.19999999999999,224.905C122.02,223.47 122.95,221.87 123.66,220.71C124.17,219.88 124.55,219.31 125.01,218.59C125.48,217.84 125.91,217.12 126.45,216.29C127.11,215.28 128.15,213.78 128.69,212.97C129,212.51 129.09,212.36 129.42,211.88C130.08,210.92 131.4,209.05 132.465,207.60500000000002C133.58,206.08 134.78,204.49 135.96499999999997,202.955C137.14,201.43 138.34,199.93 139.56,198.445C140.77,196.96 142,195.5 143.245,194.05C144.49,192.61 145.76,191.18 147.035,189.76999999999998C148.31,188.36 149.65,186.91 150.92000000000002,185.57C152.11,184.31 153.62,182.76 154.42,181.94C154.83,181.52 154.97,181.38 155.37,180.98C156.04,180.31 157.29,179.08 158.1,178.28C158.75,177.64 159.27,177.15 159.87,176.57C160.49,175.97 161.08,175.41 161.78,174.75C162.62,173.96 163.92,172.76 164.59,172.15C164.96,171.81 165.06,171.72 165.45,171.37C166.28,170.63 168.07,169.03 169.32999999999998,167.91500000000002C170.52,166.87 171.83,165.72 172.81,164.88C173.52,164.27 174.05,163.84 174.66,163.32C175.27,162.81 175.77,162.37 176.48,161.78C177.48,160.96 178.88,159.84 180.095,158.85500000000002C181.33,157.86 182.83,156.64 183.84,155.84C184.53,155.3 184.98,154.95 185.58,154.49C186.21,154 186.76,153.56 187.52,152.98C188.57,152.18 190.04,151.08 191.28,150.145C192.49,149.23 193.78,148.24 194.87,147.44C195.76,146.78 196.64,146.16 197.32,145.67C197.8,145.32 198.03,145.15 198.55,144.77C199.45,144.12 201.31,142.78 202.22,142.14C202.75,141.76 203.01,141.6 203.5,141.25C204.18,140.77 205,140.16 205.9,139.54C207.02,138.76 208.48,137.79 209.72500000000002,136.94C210.93,136.12 212.1,135.28 213.25,134.51C214.33,133.78 215.83,132.82 216.43,132.42C216.67,132.26 216.69,132.25 216.93,132.09C217.59,131.65 219.49,130.38 220.61,129.65C221.54,129.04 222.51,128.45 223.19,128.01C223.63,127.72 223.81,127.6 224.28,127.29C225.14,126.73 226.89,125.63 227.96,124.96C228.79,124.44 229.52,124.01 230.18,123.6C230.72,123.27 231.04,123.05 231.64,122.68C232.58,122.09 234.25,121.08 235.31,120.44C236.12,119.96 236.8,119.57 237.45,119.18C238.01,118.85 238.36,118.62 238.99,118.25C239.95,117.68 241.57,116.75 242.67,116.13C243.57,115.62 244.45,115.15 245.12,114.77C245.6,114.5 245.82,114.36 246.34,114.07C247.23,113.57 248.8,112.74 250.02,112.1C251.21,111.48 252.37,110.88 253.57999999999998,110.28999999999999C254.82,109.69 256.11,109.08 257.37,108.52C258.6,107.98 259.88,107.44 261.05,106.99C262.1,106.59 263.42,106.17 264.06,105.94C264.36,105.83 264.41,105.79 264.73,105.7C265.46,105.49 267.17,105.04 268.4,104.92C269.62,104.8 271.04,104.72 272.08,104.95C272.92,105.14 273.64,105.47 274.25,105.94C274.86,106.41 275.38,107.05 275.76,107.75C276.17,108.5 276.42,109.36 276.58,110.35C276.78,111.62 276.71,113.3 276.61,114.77C276.51,116.24 276.13,118.3 275.96,119.18C275.89,119.56 275.85,119.62 275.76,119.99C275.57,120.76 275.21,122.34 274.88,123.6C274.51,125 274.06,126.53 273.61,128.01C273.15,129.52 272.64,131.07 272.13,132.565C271.64,134.02 271.14,135.41 270.62,136.84C270.09,138.3 269.4,140.18 268.99,141.25C268.75,141.87 268.63,142.14 268.4,142.72C268.08,143.53 267.69,144.59 267.27,145.67C266.75,146.99 265.97,148.93 265.5,150.08C265.19,150.83 265.01,151.26 264.73,151.93C264.41,152.71 264.08,153.52 263.68,154.49C263.15,155.76 262.31,157.77 261.82,158.91C261.51,159.63 261.33,160.01 261.05,160.66C260.71,161.45 260.35,162.32 259.92,163.32C259.36,164.61 258.44,166.7 257.97,167.74C257.72,168.31 257.61,168.52 257.37,169.05C257.01,169.86 256.51,171.03 256.01,172.15C255.41,173.5 254.35,175.78 253.98,176.57C253.84,176.86 253.83,176.88 253.7,177.17C253.37,177.89 252.57,179.68 251.96,180.98C251.32,182.36 250.62,183.77 249.935,185.21499999999997C249.22,186.71 248.42,188.46 247.77,189.81C247.25,190.88 246.74,191.88 246.34,192.69C246.05,193.28 245.91,193.58 245.6,194.22C245.07,195.31 243.95,197.57 243.41,198.64C243.1,199.26 242.96,199.53 242.67,200.1C242.26,200.91 241.74,201.98 241.19,203.05C240.52,204.35 239.69,205.91 238.935,207.36C238.16,208.85 237.25,210.62 236.58,211.88C236.1,212.79 235.72,213.45 235.31,214.21C234.92,214.92 234.64,215.47 234.19,216.29C233.52,217.51 232.51,219.3 231.68,220.78500000000003C230.86,222.24 229.93,223.92 229.24,225.12C228.75,225.98 228.39,226.59 227.96,227.32C227.53,228.06 227.17,228.69 226.66,229.54C225.96,230.71 225.01,232.28 224.135,233.70999999999998C223.21,235.22 221.88,237.37 221.26,238.36C220.97,238.83 220.89,238.96 220.61,239.4C220.1,240.21 219.1,241.76 218.44,242.78C217.89,243.62 217.43,244.32 216.93,245.07C216.45,245.79 216.03,246.41 215.5,247.19C214.84,248.17 213.81,249.66 213.25,250.47C212.92,250.95 212.8,251.11 212.45,251.61C211.77,252.57 210.48,254.38 209.43,255.815C208.31,257.33 207.11,258.94 205.93,260.475C204.75,262.01 203.57,263.53 202.36,265.025C201.16,266.52 199.95,268 198.71,269.455C197.48,270.91 196.22,272.35 194.945,273.765C193.67,275.18 192.34,276.62 191.07,277.97C189.87,279.24 188.32,280.83 187.52,281.63C187.12,282.03 187,282.14 186.61,282.51C185.94,283.16 184.68,284.4 183.84,285.19C183.15,285.84 182.55,286.35 181.93,286.92C181.33,287.47 180.86,287.92 180.16,288.53C179.2,289.37 177.86,290.49 176.665,291.485C175.42,292.51 173.82,293.81 172.81,294.59C172.17,295.08 171.78,295.33 171.21,295.75C170.56,296.23 169.93,296.74 169.13,297.31C168.08,298.05 166.15,299.35 165.45,299.8C165.17,299.98 165.13,299.99 164.86,300.16C164.23,300.55 162.86,301.46 161.78,302.11C160.62,302.8 158.88,303.76 158.1,304.18C157.74,304.37 157.66,304.4 157.31,304.58C156.65,304.92 155.45,305.57 154.42,306.06C153.28,306.61 151.97,307.2 150.75,307.7C149.56,308.19 148.41,308.62 147.2,309.03999999999996C145.96,309.47 144.65,309.9 143.39,310.26C142.16,310.61 140.95,310.9 139.72,311.15C138.5,311.4 137.27,311.6 136.04,311.74C134.82,311.88 133.59,311.98 132.36,312.01C131.14,312.04 129.91,312.02 128.69,311.92C127.46,311.82 126.23,311.65 125.01,311.39C123.77,311.13 122.48,310.77 121.33,310.35Z" style="stroke-miterlimit: 1; vector-effect: non-scaling-stroke; fill: none; stroke: rgb(161, 112, 59); stroke-opacity: 1; stroke-width: 2px;"/></g><g class="contourlevel"><path class="closedline" d="M128.69,300.38C128.41,300.3 128.38,300.27 128.11,300.16C127.48,299.91 126.06,299.39 125.01,298.81C123.8,298.14 122.01,296.83 121.33,296.28C121.05,296.05 121.02,296.02 120.77,295.75C120.14,295.08 118.22,292.77 117.66,292.01C117.43,291.7 117.41,291.66 117.22,291.33C116.76,290.51 115.65,288.35 115.1,286.92C114.61,285.64 114.19,283.94 113.98,283.19C113.89,282.87 113.87,282.84 113.8,282.51C113.63,281.68 113.26,279.57 113.11,278.09C112.96,276.62 112.9,275.15 112.88,273.68C112.86,272.21 112.91,270.73 113.01,269.26C113.11,267.79 113.28,266.18 113.46,264.85C113.61,263.73 113.84,262.61 113.98,261.79C114.07,261.25 114.09,261.01 114.2,260.43C114.4,259.38 114.81,257.49 115.18,256.02C115.55,254.55 115.96,253.05 116.4,251.61C116.82,250.21 117.26,248.91 117.755,247.49C118.28,245.97 118.88,244.32 119.48,242.78C120.07,241.28 120.69,239.84 121.33500000000001,238.37C121.98,236.89 122.71,235.3 123.36,233.95C123.93,232.78 124.6,231.53 125.01,230.72C125.26,230.23 125.33,230.06 125.6,229.54C126.13,228.53 127.45,226.11 128.01,225.12C128.3,224.62 128.41,224.47 128.69,223.99C129.17,223.18 129.98,221.75 130.61,220.71C131.2,219.74 131.85,218.75 132.36,217.95C132.75,217.33 132.97,216.95 133.4,216.29C134.07,215.26 135.57,213.09 136.04,212.4C136.21,212.15 136.21,212.14 136.39,211.88C136.92,211.11 138.54,208.84 139.64,207.36C140.72,205.9 142.32,203.82 142.92,203.05C143.14,202.76 143.16,202.74 143.39,202.46C143.97,201.74 145.85,199.41 146.48,198.64C146.75,198.31 146.79,198.26 147.07,197.93C147.71,197.18 149.63,194.91 150.24,194.22C150.48,193.95 150.5,193.93 150.75,193.65C151.4,192.92 153.09,191.02 154.31,189.69C155.58,188.31 156.95,186.86 158.235,185.52999999999997C159.44,184.28 160.97,182.74 161.78,181.93C162.2,181.51 162.34,181.37 162.74,180.98C163.41,180.32 164.63,179.13 165.45,178.34C166.13,177.69 166.7,177.15 167.32,176.57C167.93,176 168.45,175.51 169.13,174.88C170,174.08 171.5,172.73 172.14,172.15C172.44,171.88 172.5,171.83 172.81,171.55C173.54,170.9 175.74,168.97 176.48,168.33C176.8,168.05 176.86,168.01 177.17,167.74C177.82,167.19 179.23,165.96 180.16,165.18C180.96,164.51 181.74,163.87 182.41,163.32C182.94,162.88 183.25,162.62 183.84,162.14C184.81,161.35 186.44,160.05 187.7,159.055C188.89,158.11 190.14,157.12 191.19,156.3C192.05,155.63 192.88,155 193.55,154.49C194.05,154.11 194.32,153.9 194.87,153.49C195.79,152.8 197.73,151.35 198.55,150.75C198.95,150.45 199.07,150.36 199.46,150.08C200.13,149.59 201.24,148.76 202.22,148.05C203.32,147.26 204.54,146.4 205.745,145.555C207,144.67 208.45,143.64 209.58,142.86C210.46,142.25 211.27,141.71 211.94,141.25C212.44,140.91 212.7,140.72 213.25,140.35C214.17,139.73 215.95,138.54 216.93,137.89C217.58,137.46 217.98,137.21 218.55,136.84C219.2,136.42 219.82,135.99 220.61,135.48C221.66,134.8 223.4,133.69 224.28,133.14C224.77,132.83 224.98,132.71 225.44,132.42C226.12,132 227.04,131.41 227.96,130.84C229.07,130.16 230.78,129.13 231.64,128.62C232.1,128.35 232.27,128.26 232.7,128.01C233.38,127.61 234.36,127.01 235.31,126.47C236.43,125.83 238.02,124.93 238.99,124.41C239.61,124.07 239.98,123.9 240.54,123.6C241.19,123.25 241.86,122.87 242.67,122.45C243.72,121.91 245.13,121.21 246.34,120.64C247.5,120.09 248.58,119.56 249.775,119.065C251.03,118.54 252.4,118 253.7,117.57C254.93,117.16 256.14,116.79 257.37,116.54C258.59,116.3 259.83,116 261.05,116.1C262.29,116.2 263.8,116.54 264.73,117.14C265.5,117.64 266.01,118.3 266.43,119.18C266.97,120.32 267.21,122.12 267.29,123.6C267.37,125.07 267.13,126.55 266.93,128.01C266.73,129.49 266.41,130.93 266.07,132.42C265.71,133.97 265.26,135.62 264.82500000000005,137.135C264.41,138.56 263.98,139.86 263.52,141.25C263.04,142.7 262.45,144.4 262,145.67C261.65,146.64 261.34,147.44 261.05,148.22C260.8,148.89 260.65,149.33 260.37,150.08C259.93,151.24 259.2,153.15 258.66,154.49C258.21,155.63 257.7,156.81 257.37,157.63C257.16,158.15 257.09,158.36 256.86,158.91C256.44,159.94 255.59,161.99 255.02,163.32C254.55,164.43 254.05,165.53 253.7,166.35C253.46,166.9 253.36,167.15 253.1,167.74C252.64,168.8 251.72,170.89 251.15,172.15C250.73,173.09 250.37,173.84 250.02,174.62C249.71,175.31 249.5,175.79 249.15,176.57C248.61,177.75 247.62,179.88 247.1,180.98C246.79,181.64 246.63,181.95 246.34,182.55C245.96,183.36 245.52,184.33 245.01,185.39C244.36,186.74 243.5,188.49 242.76,189.995C242.05,191.43 241.34,192.9 240.68,194.22C240.09,195.4 239.4,196.73 238.99,197.54C238.75,198.01 238.68,198.15 238.43,198.64C237.93,199.62 236.73,201.95 236.15,203.05C235.8,203.71 235.63,204.03 235.31,204.63C234.88,205.44 234.37,206.43 233.81,207.46C233.13,208.72 232.31,210.23 231.51999999999998,211.66C230.69,213.17 229.6,215.12 228.94,216.29C228.54,217 228.32,217.37 227.96,218.01C227.5,218.81 226.97,219.75 226.41,220.71C225.76,221.82 224.74,223.53 224.28,224.3C224.06,224.67 224.02,224.74 223.79,225.12C223.25,226.01 221.64,228.66 221.1,229.54C220.87,229.91 220.83,229.98 220.61,230.34C220.13,231.11 219,232.9 218.33,233.95C217.81,234.77 217.41,235.39 216.93,236.12C216.45,236.86 215.99,237.54 215.45,238.36C214.79,239.35 213.8,240.82 213.25,241.63C212.92,242.11 212.81,242.28 212.46,242.78C211.78,243.75 210.5,245.58 209.46,247.03C208.35,248.56 207.15,250.21 206,251.74C204.9,253.21 203.31,255.23 202.7,256.02C202.47,256.32 202.45,256.35 202.22,256.64C201.64,257.37 199.75,259.66 199.13,260.43C198.86,260.76 198.82,260.82 198.55,261.15C197.92,261.91 195.96,264.15 195.36,264.85C195.13,265.12 195.11,265.15 194.87,265.42C194.23,266.15 192.49,268.05 191.275,269.355C190.05,270.67 188.16,272.62 187.52,273.26C187.3,273.47 187.29,273.47 187.08,273.68C186.5,274.24 184.7,276.03 183.84,276.84C183.29,277.36 182.98,277.62 182.46,278.09C181.79,278.7 180.97,279.49 180.16,280.2C179.3,280.96 178.11,281.94 177.43,282.51C177.03,282.85 176.9,282.96 176.48,283.31C175.66,283.98 173.65,285.58 172.81,286.21C172.38,286.53 172.23,286.62 171.82,286.92C171.14,287.41 170.11,288.22 169.13,288.9C168.01,289.68 166.68,290.54 165.45,291.32C164.23,292.09 163.04,292.85 161.78,293.56C160.5,294.29 159.12,295 157.85,295.635C156.67,296.22 155.59,296.75 154.42,297.26C153.23,297.78 151.98,298.28 150.75,298.72C149.53,299.16 147.95,299.66 147.07,299.9C146.59,300.03 146.39,300.05 145.94,300.16C145.26,300.32 144.32,300.6 143.39,300.78C142.28,301 140.95,301.21 139.72,301.33C138.5,301.45 137.27,301.51 136.04,301.49C134.81,301.47 133.58,301.38 132.36,301.2C131.13,301.01 129.38,300.59 128.69,300.38Z" style="stroke-miterlimit: 1; vector-effect: non-scaling-stroke; fill: none; stroke: rgb(180, 134, 64); stroke-opacity: 1; stroke-width: 2px;"/></g><g class="contourlevel"><path class="closedline" d="M139.72,291.46C139.3,291.43 139.16,291.39 138.76,291.33C138.08,291.23 137,291.15 136.04,290.91C134.89,290.62 133.57,290.2 132.36,289.6C131.05,288.95 129.69,288.15 128.49,287.095C127.17,285.92 125.83,284.29 124.86500000000001,282.745C123.95,281.28 123.32,279.64 122.78,278.09C122.27,276.62 121.92,275.05 121.68,273.68C121.47,272.52 121.41,271.22 121.33,270.41C121.28,269.93 121.25,269.77 121.23,269.26C121.19,268.27 121.2,265.79 121.24,264.85C121.26,264.41 121.29,264.3 121.33,263.88C121.4,263.08 121.49,261.65 121.65,260.43C121.83,259.05 122.08,257.49 122.37,256.02C122.66,254.55 123,253.08 123.38,251.61C123.76,250.13 124.36,248.14 124.66,247.19C124.81,246.74 124.86,246.62 125.01,246.19C125.29,245.39 125.73,243.98 126.17,242.78C126.68,241.4 127.44,239.48 127.92,238.36C128.22,237.66 128.41,237.29 128.69,236.66C129.05,235.86 129.41,234.96 129.88,233.95C130.49,232.65 131.66,230.32 132.06,229.54C132.2,229.26 132.21,229.24 132.36,228.97C132.74,228.26 133.77,226.29 134.43,225.12C134.99,224.12 135.57,223.18 136.04,222.38C136.4,221.76 136.6,221.39 137.01,220.71C137.69,219.6 138.81,217.81 139.76,216.36C140.73,214.87 142.15,212.78 142.78,211.88C143.06,211.48 143.12,211.41 143.39,211.03C143.95,210.25 145.29,208.38 145.97,207.46C146.41,206.87 146.64,206.59 147.07,206.02C147.69,205.21 148.69,203.9 149.36,203.05C149.88,202.4 150.23,201.97 150.75,201.34C151.4,200.54 152.29,199.44 152.95,198.64C153.49,198 153.87,197.56 154.42,196.92C155.11,196.12 156.08,194.98 156.76,194.22C157.27,193.65 157.58,193.32 158.1,192.74C158.84,191.93 160.11,190.54 160.79,189.81C161.2,189.37 161.35,189.22 161.78,188.77C162.55,187.97 164.46,185.98 165.03,185.39C165.23,185.18 165.24,185.18 165.45,184.97C166.09,184.34 168.05,182.38 169.31,181.155C170.5,180 171.91,178.67 172.81,177.83C173.37,177.31 173.66,177.04 174.17,176.57C174.84,175.95 175.68,175.17 176.48,174.45C177.32,173.7 178.4,172.75 179.08,172.15C179.52,171.76 179.69,171.61 180.16,171.2C181.05,170.43 182.77,168.96 184.03,167.9C185.22,166.9 186.51,165.83 187.52,165C188.3,164.36 188.94,163.84 189.59,163.32C190.16,162.86 190.54,162.55 191.19,162.03C192.19,161.24 193.78,160 195.035,159.035C196.23,158.11 197.47,157.17 198.55,156.36C199.46,155.68 200.38,154.99 201.06,154.49C201.52,154.15 201.72,153.99 202.22,153.63C203.1,152.99 204.99,151.63 205.9,150.98C206.44,150.6 206.69,150.43 207.18,150.08C207.86,149.61 208.68,149.02 209.58,148.4C210.71,147.62 212.17,146.62 213.42000000000002,145.77999999999997C214.61,144.98 215.75,144.22 216.93,143.45C218.11,142.68 219.27,141.93 220.47500000000002,141.16500000000002C221.72,140.38 223.04,139.56 224.28,138.8C225.46,138.08 226.56,137.41 227.76,136.715C229.01,135.98 230.35,135.23 231.64,134.52C232.9,133.82 234.17,133.11 235.41500000000002,132.47C236.62,131.85 237.78,131.3 238.99,130.74C240.2,130.18 241.5,129.6 242.67,129.13C243.72,128.71 245.04,128.25 245.68,128.01C245.98,127.9 246.03,127.85 246.34,127.76C247.07,127.54 248.79,127.07 250.02,126.93C251.24,126.79 252.62,126.68 253.7,126.91C254.62,127.11 255.51,127.53 256.15,128.01C256.69,128.42 257.04,128.87 257.37,129.48C257.79,130.26 258.13,131.33 258.29,132.42C258.49,133.73 258.39,135.37 258.27,136.84C258.15,138.32 257.76,140.37 257.58,141.25C257.5,141.63 257.46,141.69 257.37,142.05C257.17,142.82 256.79,144.41 256.44,145.67C256.05,147.07 255.57,148.62 255.1,150.08C254.64,151.52 254.17,152.92 253.655,154.37C253.12,155.87 252.53,157.39 251.95,158.91C251.36,160.45 250.73,162.06 250.12,163.565C249.54,165 248.99,166.32 248.39,167.74C247.76,169.23 247.07,170.82 246.41500000000002,172.31C245.78,173.76 245.16,175.16 244.52,176.57C243.88,177.98 243.25,179.35 242.575,180.78C241.87,182.28 241.04,184.04 240.39,185.39C239.87,186.46 239.38,187.45 238.99,188.26C238.7,188.86 238.56,189.16 238.24,189.81C237.7,190.91 236.57,193.16 236.03,194.22C235.73,194.82 235.6,195.06 235.31,195.62C234.89,196.44 234.33,197.55 233.76,198.64C233.09,199.93 232.3,201.42 231.52999999999997,202.85000000000002C230.72,204.35 229.69,206.25 229.03,207.46C228.6,208.24 228.34,208.71 227.96,209.39C227.53,210.17 227.09,210.94 226.56,211.88C225.87,213.1 224.98,214.64 224.15,216.065C223.27,217.58 222.04,219.64 221.4,220.71C221.06,221.28 220.93,221.48 220.61,222.01C220.11,222.82 219.32,224.11 218.69,225.12C218.09,226.07 217.44,227.1 216.93,227.9C216.54,228.52 216.32,228.87 215.88,229.54C215.18,230.62 214.07,232.31 213.10500000000002,233.735C212.09,235.24 210.46,237.59 209.93,238.36C209.75,238.62 209.75,238.62 209.58,238.87C209.09,239.56 207.44,241.85 206.77,242.78C206.4,243.29 206.27,243.48 205.9,243.97C205.29,244.78 204.13,246.3 203.45,247.19C202.97,247.82 202.7,248.19 202.22,248.8C201.59,249.61 200.63,250.78 199.97,251.61C199.44,252.27 199.08,252.73 198.55,253.37C197.89,254.17 196.96,255.24 196.29,256.02C195.76,256.64 195.41,257.07 194.87,257.69C194.16,258.5 193.07,259.68 192.39,260.43C191.92,260.95 191.68,261.23 191.19,261.76C190.43,262.58 188.87,264.18 188.22,264.85C187.91,265.18 187.85,265.25 187.52,265.58C186.77,266.33 185.03,268.04 183.78,269.21000000000004C182.57,270.35 181.09,271.7 180.16,272.51C179.59,273.01 179.29,273.24 178.77,273.68C178.1,274.24 177.31,274.94 176.48,275.61C175.51,276.39 173.87,277.63 173.28,278.09C173.05,278.27 173.04,278.29 172.81,278.46C172.17,278.94 170.21,280.34 169.13,281.07C168.3,281.63 167.55,282.08 166.88,282.51C166.35,282.85 166.04,283.07 165.45,283.43C164.52,284 162.93,284.91 161.78,285.52C160.78,286.05 159.61,286.59 158.94,286.92C158.58,287.1 158.48,287.16 158.1,287.34C157.31,287.7 155.65,288.41 154.42,288.87C153.2,289.32 151.98,289.74 150.75,290.09C149.53,290.44 148.23,290.75 147.07,290.96C146.06,291.14 144.86,291.24 144.2,291.33C143.85,291.38 143.76,291.41 143.39,291.44C142.61,291.49 140.55,291.51 139.72,291.46Z" style="stroke-miterlimit: 1; vector-effect: non-scaling-stroke; fill: none; stroke: rgb(195, 160, 78); stroke-opacity: 1; stroke-width: 2px;"/></g><g class="contourlevel"><path class="closedline" d="M135.825,278.275C134.49,277.15 133.13,275.49 132.21,273.935C131.34,272.47 130.8,270.82 130.35,269.26C129.93,267.79 129.7,266.33 129.53,264.85C129.36,263.38 129.33,261.9 129.35,260.43C129.37,258.96 129.49,257.49 129.66,256.02C129.83,254.55 130.07,253.08 130.36,251.61C130.65,250.13 131.03,248.54 131.39,247.19C131.7,246.03 132.12,244.79 132.36,243.98C132.51,243.48 132.55,243.3 132.72,242.78C133.05,241.77 133.75,239.81 134.32,238.36C134.88,236.92 135.47,235.54 136.105,234.105C136.77,232.6 137.59,230.87 138.25,229.54C138.77,228.49 139.3,227.58 139.72,226.77C140.04,226.15 140.2,225.8 140.57,225.12C141.2,223.96 142.35,221.99 143.255,220.49C144.12,219.05 145.17,217.39 145.88,216.29C146.35,215.57 146.63,215.18 147.07,214.53C147.6,213.74 148.24,212.75 148.85,211.88C149.46,211 150.18,210.06 150.75,209.27C151.23,208.61 151.55,208.14 152.05,207.46C152.72,206.57 153.79,205.21 154.42,204.4C154.84,203.86 155.04,203.59 155.47,203.05C156.14,202.21 157.43,200.66 158.1,199.85C158.51,199.35 158.69,199.13 159.11,198.64C159.78,197.85 161.07,196.39 161.78,195.57C162.25,195.03 162.49,194.74 162.96,194.22C163.63,193.47 164.71,192.32 165.45,191.52C166.04,190.88 166.48,190.41 167.05,189.81C167.7,189.13 168.42,188.38 169.13,187.66C169.86,186.91 170.7,186.05 171.37,185.39C171.9,184.86 172.24,184.54 172.81,183.98C173.65,183.17 175.3,181.57 175.92,180.98C176.18,180.73 176.21,180.7 176.48,180.45C177.17,179.81 179.47,177.68 180.16,177.06C180.42,176.82 180.45,176.8 180.71,176.57C181.33,176.02 182.92,174.6 183.84,173.8C184.55,173.18 185.12,172.68 185.75,172.15C186.35,171.64 186.83,171.24 187.52,170.66C188.51,169.83 189.9,168.66 191.115,167.675C192.35,166.67 193.85,165.48 194.87,164.68C195.56,164.14 196.02,163.78 196.62,163.32C197.25,162.84 197.8,162.41 198.55,161.84C199.6,161.04 201.1,159.92 202.345,159C203.55,158.12 204.79,157.22 205.9,156.43C206.88,155.73 207.99,154.96 208.66,154.49C209.05,154.22 209.17,154.14 209.58,153.86C210.4,153.31 212.21,152.08 213.25,151.39C214.02,150.88 214.63,150.49 215.27,150.08C215.85,149.7 216.27,149.43 216.93,149.01C217.91,148.39 219.59,147.35 220.61,146.74C221.33,146.31 221.84,146.03 222.45,145.67C223.06,145.31 223.56,145 224.28,144.59C225.29,144.02 226.83,143.19 227.96,142.6C228.92,142.1 229.95,141.59 230.63,141.25C231.05,141.04 231.19,140.95 231.64,140.75C232.48,140.37 234.08,139.67 235.31,139.2C236.53,138.74 237.75,138.29 238.99,137.95C240.21,137.62 241.44,137.23 242.67,137.19C243.89,137.15 245.28,137.09 246.34,137.68C247.53,138.34 248.76,139.9 249.32,141.25C249.87,142.57 249.76,144.2 249.72,145.67C249.68,147.14 249.38,148.62 249.1,150.08C248.82,151.56 248.44,153.02 248.05,154.49C247.66,155.97 247.1,157.9 246.77,158.91C246.6,159.44 246.52,159.61 246.34,160.11C246.05,160.92 245.64,162.17 245.22,163.32C244.73,164.68 244.03,166.52 243.56,167.74C243.22,168.6 242.97,169.21 242.67,169.94C242.37,170.68 242.13,171.29 241.77,172.15C241.26,173.37 240.4,175.39 239.88,176.57C239.53,177.37 239.3,177.86 238.99,178.56C238.65,179.33 238.32,180.05 237.9,180.98C237.33,182.23 236.32,184.41 235.85,185.39C235.62,185.88 235.54,186.02 235.31,186.49C234.92,187.3 234.28,188.64 233.7,189.81C233.04,191.14 232.3,192.63 231.565,194.075C230.8,195.57 229.87,197.38 229.2,198.64C228.72,199.54 228.36,200.2 227.96,200.95C227.57,201.67 227.28,202.22 226.83,203.05C226.16,204.27 225.17,206.07 224.32999999999998,207.55C223.51,209.01 222.54,210.69 221.85,211.88C221.37,212.71 221.04,213.28 220.61,214C220.16,214.75 219.75,215.43 219.23,216.29C218.56,217.39 217.39,219.31 216.93,220.05C216.74,220.36 216.71,220.39 216.51,220.71C215.99,221.53 214.24,224.29 213.7,225.12C213.49,225.45 213.46,225.48 213.25,225.8C212.75,226.55 211.43,228.53 210.75,229.54C210.29,230.23 210.02,230.63 209.58,231.27C209.03,232.07 208.31,233.07 207.69,233.95C207.09,234.8 206.47,235.68 205.9,236.45C205.4,237.13 205,237.65 204.47,238.36C203.81,239.25 202.84,240.54 202.22,241.35C201.79,241.92 201.55,242.21 201.1,242.78C200.42,243.64 199.21,245.18 198.55,245.99C198.14,246.49 197.95,246.69 197.53,247.19C196.85,247.99 195.57,249.54 194.87,250.35C194.42,250.87 194.2,251.11 193.75,251.61C193.07,252.37 191.94,253.65 191.19,254.45C190.63,255.06 190.24,255.45 189.69,256.02C189.03,256.71 188.25,257.55 187.52,258.29C186.79,259.02 185.97,259.79 185.31,260.43C184.77,260.96 184.44,261.3 183.84,261.87C182.93,262.72 181.55,263.97 180.345,265.015C179.1,266.09 177.45,267.46 176.48,268.23C175.91,268.68 175.62,268.87 175.11,269.26C174.44,269.77 173.68,270.39 172.81,271.02C171.71,271.81 170.26,272.8 169.005,273.605C167.81,274.37 166.65,275.06 165.45,275.74C164.25,276.42 162.63,277.27 161.78,277.67C161.35,277.87 161.19,277.91 160.78,278.09C160.1,278.38 159.07,278.89 158.1,279.26C156.98,279.69 155.65,280.14 154.42,280.49C153.2,280.83 151.98,281.13 150.75,281.33C149.53,281.53 148.3,281.67 147.07,281.7C145.84,281.73 144.61,281.68 143.39,281.49C142.16,281.29 140.93,281.01 139.72,280.51C138.41,279.97 137.02,279.28 135.825,278.275Z" style="stroke-miterlimit: 1; vector-effect: non-scaling-stroke; fill: none; stroke: rgb(207, 188, 102); stroke-opacity: 1; stroke-width: 2px;"/></g><g class="contourlevel"><path class="closedline" d="M143.35,269.29499999999996C142,268.24 140.56,266.46 139.69,264.9C138.9,263.49 138.54,261.93 138.2,260.43C137.87,258.97 137.74,257.49 137.67,256.02C137.6,254.55 137.68,253.08 137.8,251.61C137.92,250.13 138.15,248.66 138.42,247.19C138.69,245.71 139.18,243.7 139.43,242.78C139.54,242.36 139.59,242.27 139.72,241.87C139.97,241.08 140.39,239.59 140.82,238.36C141.3,236.97 142,235.13 142.49,233.95C142.82,233.14 143.08,232.63 143.39,231.93C143.73,231.17 144.02,230.45 144.45,229.54C145.04,228.29 146.22,225.96 146.67,225.12C146.85,224.78 146.88,224.74 147.07,224.41C147.49,223.66 148.49,221.83 149.15,220.71C149.71,219.76 150.26,218.91 150.75,218.12C151.16,217.46 151.41,217 151.87,216.29C152.54,215.25 153.93,213.21 154.42,212.49C154.62,212.2 154.62,212.17 154.83,211.88C155.39,211.07 156.95,208.9 158.065,207.41500000000002C159.21,205.89 160.41,204.36 161.62,202.86C162.82,201.37 164.05,199.91 165.295,198.45999999999998C166.54,197.01 167.82,195.57 169.095,194.18C170.33,192.83 172.19,190.91 172.81,190.25C173.02,190.03 173.02,190.02 173.23,189.81C173.8,189.22 175.67,187.35 176.48,186.54C176.97,186.06 177.18,185.84 177.65,185.39C178.33,184.74 179.35,183.77 180.16,183.01C180.91,182.31 181.67,181.59 182.33,180.98C182.88,180.48 183.23,180.16 183.84,179.61C184.77,178.77 186.18,177.51 187.395,176.465C188.63,175.39 190.24,174.05 191.19,173.26C191.75,172.79 192.03,172.57 192.54,172.15C193.21,171.61 194.02,170.96 194.87,170.28C195.91,169.46 197.13,168.48 198.325,167.565C199.58,166.61 201.16,165.44 202.22,164.66C202.95,164.12 203.45,163.76 204.07,163.32C204.68,162.88 205.18,162.52 205.9,162.02C206.91,161.31 208.77,160.05 209.58,159.5C209.98,159.23 210.1,159.16 210.48,158.91C211.15,158.48 212.26,157.75 213.25,157.13C214.39,156.42 216.19,155.3 216.93,154.87C217.24,154.69 217.3,154.66 217.6,154.49C218.24,154.13 219.55,153.4 220.61,152.84C221.77,152.23 223.23,151.47 224.28,150.97C225.06,150.6 225.69,150.36 226.33,150.08C226.9,149.83 227.3,149.62 227.96,149.38C228.93,149.02 230.4,148.52 231.64,148.26C232.85,148 234.1,147.7 235.31,147.82C236.55,147.94 238.22,148.5 238.99,149.02C239.45,149.33 239.62,149.56 239.87,150.08C240.33,151.02 240.77,153.01 240.87,154.49C240.97,155.95 240.71,157.44 240.5,158.91C240.28,160.39 239.88,162.15 239.58,163.32C239.38,164.11 239.2,164.6 238.99,165.29C238.76,166.06 238.55,166.81 238.25,167.74C237.84,169 237.21,170.76 236.7,172.15C236.23,173.42 235.61,174.99 235.31,175.76C235.17,176.13 235.15,176.19 235,176.57C234.64,177.45 233.71,179.62 233.12,180.98C232.6,182.17 232,183.5 231.64,184.31C231.43,184.77 231.37,184.91 231.15,185.39C230.7,186.37 229.64,188.59 229.05,189.81C228.63,190.67 228.33,191.28 227.96,192.01C227.59,192.75 227.29,193.35 226.85,194.22C226.2,195.49 225.23,197.4 224.425,198.91C223.67,200.34 222.86,201.81 222.17,203.05C221.6,204.08 221.07,205.05 220.61,205.85C220.26,206.46 220.07,206.79 219.68,207.46C219.02,208.59 217.91,210.53 217.015,212.02499999999998C216.15,213.48 215.09,215.17 214.39,216.29C213.93,217.02 213.67,217.44 213.25,218.1C212.74,218.89 212.15,219.81 211.56,220.71C210.93,221.68 210.13,222.91 209.58,223.72C209.21,224.28 209.02,224.54 208.62,225.12C207.95,226.1 206.39,228.34 205.9,229.03C205.72,229.28 205.72,229.29 205.53,229.54C204.98,230.29 203.38,232.51 202.255,233.995C201.1,235.51 199.9,237.05 198.695,238.55C197.49,240.04 196.27,241.52 195.025,242.965C193.78,244.41 192.5,245.86 191.23000000000002,247.235C190,248.57 188.19,250.44 187.52,251.12C187.28,251.36 187.25,251.38 187.01,251.61C186.4,252.19 184.71,253.86 183.84,254.67C183.25,255.22 182.86,255.53 182.31,256.02C181.65,256.6 180.95,257.27 180.16,257.94C179.23,258.73 177.71,259.92 177.08,260.43C176.8,260.66 176.77,260.7 176.48,260.92C175.78,261.46 173.86,262.87 172.81,263.58C172.05,264.09 171.45,264.44 170.81,264.85C170.23,265.22 169.81,265.53 169.13,265.93C168.15,266.51 166.62,267.36 165.45,267.94C164.43,268.45 163.18,268.96 162.53,269.26C162.2,269.41 162.13,269.47 161.78,269.61C161.02,269.91 159.34,270.49 158.1,270.82C156.88,271.14 155.65,271.42 154.42,271.57C153.2,271.72 151.97,271.8 150.75,271.72C149.52,271.64 148.27,271.47 147.07,271.09C145.8,270.69 144.5,270.19 143.35,269.29499999999996Z" style="stroke-miterlimit: 1; vector-effect: non-scaling-stroke; fill: none; stroke: rgb(219, 216, 134); stroke-opacity: 1; stroke-width: 2px;"/></g><g class="contourlevel"><path class="closedline" d="M154.42,260.88C153.9,260.76 153.68,260.64 153.22,260.43C152.53,260.11 151.52,259.7 150.75,259.06C149.84,258.3 148.84,257.08 148.22,256.02C147.66,255.07 147.33,253.87 147.07,253.05C146.89,252.49 146.8,252.23 146.7,251.61C146.53,250.55 146.41,248.66 146.43,247.19C146.45,245.72 146.7,243.72 146.85,242.78C146.92,242.33 146.97,242.22 147.07,241.79C147.25,240.99 147.51,239.57 147.83,238.36C148.2,236.97 148.71,235.39 149.22,233.95C149.72,232.53 150.24,231.2 150.845,229.785C151.5,228.26 152.37,226.44 153.03,225.12C153.53,224.12 154,223.31 154.42,222.52C154.77,221.86 154.98,221.44 155.39,220.71C156.05,219.54 157.14,217.71 158.065,216.235C159,214.76 160.29,212.86 160.97,211.88C161.32,211.38 161.44,211.22 161.78,210.75C162.36,209.94 163.48,208.36 164.16,207.46C164.65,206.81 164.96,206.43 165.45,205.81C166.08,205.01 166.97,203.87 167.63,203.05C168.17,202.38 168.58,201.91 169.13,201.26C169.8,200.47 170.69,199.41 171.36,198.64C171.89,198.03 172.26,197.63 172.81,197.02C173.54,196.21 174.68,194.95 175.36,194.22C175.81,193.74 176.01,193.54 176.48,193.05C177.26,192.24 179.03,190.43 179.64,189.81C179.89,189.56 179.9,189.54 180.16,189.29C180.85,188.61 182.76,186.75 184.03,185.57C185.21,184.47 186.57,183.28 187.52,182.43C188.16,181.85 188.57,181.48 189.15,180.98C189.79,180.42 190.43,179.88 191.19,179.24C192.14,178.44 193.81,177.06 194.4,176.57C194.63,176.38 194.64,176.37 194.87,176.19C195.51,175.68 197.57,174.08 198.55,173.34C199.19,172.85 199.57,172.57 200.14,172.15C200.79,171.67 201.43,171.21 202.22,170.64C203.27,169.89 205.24,168.49 205.9,168.05C206.14,167.89 206.16,167.89 206.39,167.74C206.99,167.36 208.46,166.43 209.58,165.74C210.8,164.99 212.17,164.11 213.44,163.415C214.62,162.77 215.74,162.23 216.93,161.68C218.13,161.13 219.37,160.57 220.61,160.12C221.82,159.68 223.04,159.19 224.28,158.99C225.49,158.79 226.84,158.4 227.96,158.91C229.35,159.55 231.07,161.74 231.63,163.32C232.12,164.71 231.73,166.28 231.57,167.74C231.4,169.22 231,170.69 230.63,172.15C230.26,173.63 229.79,175.12 229.33,176.57C228.88,177.99 228.42,179.33 227.88,180.755C227.3,182.27 226.58,183.92 225.95,185.39C225.38,186.73 224.6,188.5 224.28,189.22C224.16,189.5 224.15,189.52 224.02,189.81C223.65,190.6 222.5,192.96 221.87,194.22C221.4,195.17 221.01,195.94 220.61,196.72C220.26,197.4 220.02,197.87 219.61,198.64C218.99,199.81 217.68,202.28 217.25,203.05C217.1,203.33 217.09,203.34 216.93,203.61C216.52,204.32 215.37,206.32 214.7,207.46C214.17,208.37 213.71,209.14 213.25,209.91C212.83,210.6 212.53,211.1 212.05,211.88C211.35,213.02 210.35,214.64 209.43,216.06C208.45,217.58 206.89,219.88 206.33,220.71C206.12,221.02 206.11,221.04 205.9,221.34C205.39,222.07 203.88,224.18 203.2,225.12C202.79,225.68 202.62,225.93 202.22,226.47C201.61,227.29 200.56,228.66 199.89,229.54C199.38,230.2 199.06,230.64 198.55,231.28C197.91,232.08 197.02,233.15 196.36,233.95C195.82,234.61 195.43,235.11 194.87,235.76C194.19,236.55 193.24,237.61 192.57,238.36C192.05,238.94 191.73,239.32 191.19,239.91C190.44,240.73 189.12,242.08 188.45,242.78C188.06,243.19 187.94,243.33 187.52,243.75C186.71,244.56 185.12,246.11 183.885,247.235C182.67,248.34 181.13,249.64 180.16,250.44C179.55,250.94 179.2,251.19 178.65,251.61C177.99,252.12 177.32,252.67 176.48,253.28C175.38,254.07 173.87,255.12 172.6,255.90499999999997C171.43,256.63 170.32,257.25 169.13,257.85C167.93,258.46 166.61,259.07 165.45,259.52C164.45,259.9 163.26,260.22 162.6,260.43C162.24,260.55 162.16,260.61 161.78,260.7C161,260.88 159.33,261.17 158.1,261.2C156.87,261.23 155.3,261.08 154.42,260.88Z" style="stroke-miterlimit: 1; vector-effect: non-scaling-stroke; fill: none; stroke: rgb(232, 245, 171); stroke-opacity: 1; stroke-width: 2px;"/></g></g></g></g></g><g class="overplot"/><path class="xlines-above crisp" d="" style="fill: none; stroke-width: 1px; stroke: rgb(0, 0, 0); stroke-opacity: 0;"/><path class="ylines-above crisp" d="" style="fill: none; stroke-width: 1px; stroke: rgb(0, 0, 0); stroke-opacity: 0;"/><g class="overlines-above"/><g class="xaxislayer-above"><path class="xtick ticks crisp" d="M0,478v5" transform="translate(84.61,0)" style="stroke: rgb(51, 51, 51); stroke-opacity: 1; stroke-width: 1px;"/><path class="xtick ticks crisp" d="M0,478v5" transform="translate(208,0)" style="stroke: rgb(51, 51, 51); stroke-opacity: 1; stroke-width: 1px;"/><path class="xtick ticks crisp" d="M0,478v5" transform="translate(331.39,0)" style="stroke: rgb(51, 51, 51); stroke-opacity: 1; stroke-width: 1px;"/><g class="xtick"><text text-anchor="middle" x="0" y="497.4" transform="translate(84.61,0)" style="font-family: 'Open Sans', verdana, arial, sans-serif; font-size: 12px; fill: rgb(51, 51, 51); fill-opacity: 1; white-space: pre; opacity: 1;">2</text></g><g class="xtick"><text text-anchor="middle" x="0" y="497.4" style="font-family: 'Open Sans', verdana, arial, sans-serif; font-size: 12px; fill: rgb(51, 51, 51); fill-opacity: 1; white-space: pre; opacity: 1;" transform="translate(208,0)">0</text></g><g class="xtick"><text text-anchor="middle" x="0" y="497.4" style="font-family: 'Open Sans', verdana, arial, sans-serif; font-size: 12px; fill: rgb(51, 51, 51); fill-opacity: 1; white-space: pre; opacity: 1;" transform="translate(331.39,0)">2</text></g></g><g class="yaxislayer-above"><path class="ytick ticks crisp" d="M25,0h-5" transform="translate(0,406.64)" style="stroke: rgb(51, 51, 51); stroke-opacity: 1; stroke-width: 1px;"/><path class="ytick ticks crisp" d="M25,0h-5" transform="translate(0,332.57)" style="stroke: rgb(51, 51, 51); stroke-opacity: 1; stroke-width: 1px;"/><path class="ytick ticks crisp" d="M25,0h-5" transform="translate(0,258.5)" style="stroke: rgb(51, 51, 51); stroke-opacity: 1; stroke-width: 1px;"/><path class="ytick ticks crisp" d="M25,0h-5" transform="translate(0,184.43)" style="stroke: rgb(51, 51, 51); stroke-opacity: 1; stroke-width: 1px;"/><path class="ytick ticks crisp" d="M25,0h-5" transform="translate(0,110.36)" style="stroke: rgb(51, 51, 51); stroke-opacity: 1; stroke-width: 1px;"/><g class="ytick"><text text-anchor="end" x="17.6" y="4.199999999999999" transform="translate(0,406.64)" style="font-family: 'Open Sans', verdana, arial, sans-serif; font-size: 12px; fill: rgb(51, 51, 51); fill-opacity: 1; white-space: pre; opacity: 1;">2</text></g><g class="ytick"><text text-anchor="end" x="17.6" y="4.199999999999999" style="font-family: 'Open Sans', verdana, arial, sans-serif; font-size: 12px; fill: rgb(51, 51, 51); fill-opacity: 1; white-space: pre; opacity: 1;" transform="translate(0,332.57)">1</text></g><g class="ytick"><text text-anchor="end" x="17.6" y="4.199999999999999" style="font-family: 'Open Sans', verdana, arial, sans-serif; font-size: 12px; fill: rgb(51, 51, 51); fill-opacity: 1; white-space: pre; opacity: 1;" transform="translate(0,258.5)">0</text></g><g class="ytick"><text text-anchor="end" x="17.6" y="4.199999999999999" style="font-family: 'Open Sans', verdana, arial, sans-serif; font-size: 12px; fill: rgb(51, 51, 51); fill-opacity: 1; white-space: pre; opacity: 1;" transform="translate(0,184.43)">1</text></g><g class="ytick"><text text-anchor="end" x="17.6" y="4.199999999999999" style="font-family: 'Open Sans', verdana, arial, sans-serif; font-size: 12px; fill: rgb(51, 51, 51); fill-opacity: 1; white-space: pre; opacity: 1;" transform="translate(0,110.36)">2</text></g></g><g class="overaxes-above"/></g></g><g class="polarlayer"/><g class="ternarylayer"/><g class="geolayer"/><g class="funnelarealayer"/><g class="pielayer"/><g class="iciclelayer"/><g class="treemaplayer"/><g class="sunburstlayer"/><g class="glimages"/><defs id="topdefs-6abf00"><g class="clips"/></defs><g class="layer-above"><g class="imagelayer"/><g class="shapelayer"/></g><g class="infolayer"><g class="cbc65985 colorbar" transform="translate(26,40)"><rect class="cbbg" x="371" y="0" width="102.28125" height="437" style="fill: rgb(0, 0, 0); fill-opacity: 0; stroke: rgb(68, 68, 68); stroke-opacity: 1; stroke-width: 0;"/><g class="cbfills" transform="translate(0,10)"/><g class="cblines" transform="translate(0,10)"><path class="cbline" d="M381,417h30" style="fill: none; stroke: rgb(34, 30, 27); stroke-opacity: 1; stroke-width: 2px;"/><path class="cbline" d="M381,375h30" style="fill: none; stroke: rgb(59, 46, 38); stroke-opacity: 1; stroke-width: 2px;"/><path class="cbline" d="M381,334h30" style="fill: none; stroke: rgb(85, 62, 47); stroke-opacity: 1; stroke-width: 2px;"/><path class="cbline" d="M381,292h30" style="fill: none; stroke: rgb(112, 77, 54); stroke-opacity: 1; stroke-width: 2px;"/><path class="cbline" d="M381,250h30" style="fill: none; stroke: rgb(138, 93, 57); stroke-opacity: 1; stroke-width: 2px;"/><path class="cbline" d="M381,209h30" style="fill: none; stroke: rgb(161, 112, 59); stroke-opacity: 1; stroke-width: 2px;"/><path class="cbline" d="M381,167h30" style="fill: none; stroke: rgb(180, 134, 64); stroke-opacity: 1; stroke-width: 2px;"/><path class="cbline" d="M381,125h30" style="fill: none; stroke: rgb(195, 161, 78); stroke-opacity: 1; stroke-width: 2px;"/><path class="cbline" d="M381,83h30" style="fill: none; stroke: rgb(207, 188, 102); stroke-opacity: 1; stroke-width: 2px;"/><path class="cbline" d="M381,42h30" style="fill: none; stroke: rgb(219, 216, 134); stroke-opacity: 1; stroke-width: 2px;"/><path class="cbline" d="M381,0h30" style="fill: none; stroke: rgb(232, 245, 171); stroke-opacity: 1; stroke-width: 2px;"/></g><g class="cbaxis crisp" transform="translate(0,-40)"><path class="ycbc65985tick ticks crisp" d="M410.5,0h-6" transform="translate(0,383.6)" style="stroke: rgb(237, 237, 237); stroke-opacity: 1; stroke-width: 1px;"/><path class="ycbc65985tick ticks crisp" d="M410.5,0h-6" transform="translate(0,300.2)" style="stroke: rgb(237, 237, 237); stroke-opacity: 1; stroke-width: 1px;"/><path class="ycbc65985tick ticks crisp" d="M410.5,0h-6" transform="translate(0,216.8)" style="stroke: rgb(237, 237, 237); stroke-opacity: 1; stroke-width: 1px;"/><path class="ycbc65985tick ticks crisp" d="M410.5,0h-6" transform="translate(0,133.40000000000003)" style="stroke: rgb(237, 237, 237); stroke-opacity: 1; stroke-width: 1px;"/><g class="ycbc65985tick"><text text-anchor="start" x="413.9" y="4.199999999999999" transform="translate(0,467)" style="font-family: 'Open Sans', verdana, arial, sans-serif; font-size: 12px; fill: rgb(51, 51, 51); fill-opacity: 1; white-space: pre; opacity: 1;">0</text></g><g class="ycbc65985tick"><text text-anchor="start" x="413.9" y="4.199999999999999" style="font-family: 'Open Sans', verdana, arial, sans-serif; font-size: 12px; fill: rgb(51, 51, 51); fill-opacity: 1; white-space: pre; opacity: 1;" transform="translate(0,383.6)">0.0387</text></g><g class="ycbc65985tick"><text text-anchor="start" x="413.9" y="4.199999999999999" style="font-family: 'Open Sans', verdana, arial, sans-serif; font-size: 12px; fill: rgb(51, 51, 51); fill-opacity: 1; white-space: pre; opacity: 1;" transform="translate(0,300.2)">0.0774</text></g><g class="ycbc65985tick"><text text-anchor="start" x="413.9" y="4.199999999999999" style="font-family: 'Open Sans', verdana, arial, sans-serif; font-size: 12px; fill: rgb(51, 51, 51); fill-opacity: 1; white-space: pre; opacity: 1;" transform="translate(0,216.8)">0.116</text></g><g class="ycbc65985tick"><text text-anchor="start" x="413.9" y="4.199999999999999" style="font-family: 'Open Sans', verdana, arial, sans-serif; font-size: 12px; fill: rgb(51, 51, 51); fill-opacity: 1; white-space: pre; opacity: 1;" transform="translate(0,133.40000000000003)">0.1547</text></g><g class="ycbc65985tick"><text text-anchor="start" x="413.9" y="4.199999999999999" style="font-family: 'Open Sans', verdana, arial, sans-serif; font-size: 12px; fill: rgb(51, 51, 51); fill-opacity: 1; white-space: pre; opacity: 1;" transform="translate(0,50.000000000000014)">0.1934</text></g></g><g class="cbtitleunshift" transform="translate(-26,-40)"><g class="cbtitle"/></g><rect class="cboutline" x="381" y="10" width="30" height="417" style="stroke: rgb(68, 68, 68); stroke-opacity: 1; fill: none; stroke-width: 0;"/></g><g class="g-gtitle"><text class="gtitle" x="250" y="20" text-anchor="middle" dy="0em" style="font-family: 'Open Sans', verdana, arial, sans-serif; font-size: 17px; fill: rgb(51, 51, 51); opacity: 1; font-weight: normal; white-space: pre;">Gumbel copula</text></g><g class="g-xtitle"/><g class="g-ytitle"/></g></svg>