<svg class="main-svg" xmlns="http://www.w3.org/2000/svg" xmlns:xlink="http://www.w3.org/1999/xlink" width="1500" height="1500" style="" viewBox="0 0 500 500"><rect x="0" y="0" width="500" height="500" style="fill: rgb(255, 255, 255); fill-opacity: 1;"/><defs id="defs-579caf"><g class="clips"><clipPath id="clip579cafxyplot" class="plotclip"><rect width="370" height="437"/></clipPath><clipPath class="axesclip" id="clip579cafx"><rect x="28" y="0" width="370" height="500"/></clipPath><clipPath class="axesclip" id="clip579cafy"><rect x="0" y="40" width="500" height="437"/></clipPath><clipPath class="axesclip" id="clip579cafxy"><rect x="28" y="40" width="370" height="437"/></clipPath><clipPath class="contourclip" id="clip2445a5"><path d="M0,0L370,0L370,437L0,437Z"/></clipPath></g><g class="gradients"/><g class="patterns"/></defs><g class="bglayer"><rect class="bg" x="28" y="40" width="370" height="437" style="fill: rgb(237, 237, 237); fill-opacity: 1; stroke-width: 0;"/></g><g class="layer-below"><g class="imagelayer"/><g class="shapelayer"/></g><g class="cartesianlayer"><g class="subplot xy"><g class="layer-subplot"><g class="shapelayer"/><g class="imagelayer"/></g><g class="gridlayer"><g class="x"><path class="xgrid crisp" transform="translate(89.67,0)" d="M0,40v437" style="stroke: rgb(255, 255, 255); stroke-opacity: 1; stroke-width: 1px;"/><path class="xgrid crisp" transform="translate(171.89,0)" d="M0,40v437" style="stroke: rgb(255, 255, 255); stroke-opacity: 1; stroke-width: 1px;"/><path class="xgrid crisp" transform="translate(254.11,0)" d="M0,40v437" style="stroke: rgb(255, 255, 255); stroke-opacity: 1; stroke-width: 1px;"/><path class="xgrid crisp" transform="translate(336.33,0)" d="M0,40v437" style="stroke: rgb(255, 255, 255); stroke-opacity: 1; stroke-width: 1px;"/></g><g class="y"><path class="ygrid crisp" transform="translate(0,452.72)" d="M28,0h370" style="stroke: rgb(255, 255, 255); stroke-opacity: 1; stroke-width: 1px;"/><path class="ygrid crisp" transform="translate(0,404.17)" d="M28,0h370" style="stroke: rgb(255, 255, 255); stroke-opacity: 1; stroke-width: 1px;"/><path class="ygrid crisp" transform="translate(0,355.61)" d="M28,0h370" style="stroke: rgb(255, 255, 255); stroke-opacity: 1; stroke-width: 1px;"/><path class="ygrid crisp" transform="translate(0,307.06)" d="M28,0h370" style="stroke: rgb(255, 255, 255); stroke-opacity: 1; stroke-width: 1px;"/><path class="ygrid crisp" transform="translate(0,258.5)" d="M28,0h370" style="stroke: rgb(255, 255, 255); stroke-opacity: 1; stroke-width: 1px;"/><path class="ygrid crisp" transform="translate(0,209.94)" d="M28,0h370" style="stroke: rgb(255, 255, 255); stroke-opacity: 1; stroke-width: 1px;"/><path class="ygrid crisp" transform="translate(0,161.39)" d="M28,0h370" style="stroke: rgb(255, 255, 255); stroke-opacity: 1; stroke-width: 1px;"/><path class="ygrid crisp" transform="translate(0,112.83)" d="M28,0h370" style="stroke: rgb(255, 255, 255); stroke-opacity: 1; stroke-width: 1px;"/><path class="ygrid crisp" transform="translate(0,64.28)" d="M28,0h370" style="stroke: rgb(255, 255, 255); stroke-opacity: 1; stroke-width: 1px;"/></g></g><g class="zerolinelayer"/><path class="xlines-below"/><path class="ylines-below"/><g class="overlines-below"/><g class="xaxislayer-below"/><g class="yaxislayer-below"/><g class="overaxes-below"/><g class="plot" transform="translate(28,40)" clip-path="url(#clip579cafxyplot)"><g class="contourlayer mlayer"><g class="contour" clip-path="url(#clip2445a5)" style="opacity: 1;"><g class="heatmapcoloring"/><g class="contourbg"/><g class="contourfill"/><g class="contourlines"><g class="contourlevel"><path class="openline" d="M370,316.41Q369.88,317.22 369.78,317.82C369.61,318.88 369.3,320.76 369.06,322.23C368.82,323.7 368.57,325.18 368.32,326.65C368.07,328.12 367.82,329.59 367.56,331.06C367.3,332.53 367,334.19 366.76,335.47C366.58,336.47 366.41,337.33 366.26,338.12C366.14,338.77 366.07,339.17 365.93,339.89C365.71,341.03 365.37,342.83 365.08,344.3C364.79,345.77 364.49,347.25 364.19,348.72C363.89,350.19 363.56,351.75 363.27,353.13C363.01,354.34 362.71,355.74 362.53,356.54C362.43,356.98 362.4,357.09 362.3,357.55C362.08,358.5 361.65,360.49 361.31,361.96C360.97,363.43 360.63,364.9 360.27,366.37C359.91,367.84 359.44,369.71 359.17,370.79C359.01,371.42 358.94,371.69 358.79,372.27C358.58,373.08 358.32,374.12 358.03,375.2C357.68,376.52 357.24,378.15 356.83,379.62C356.42,381.09 355.89,382.9 355.56,384.03C355.35,384.73 355.24,385.11 355.05,385.74C354.81,386.54 354.54,387.43 354.23,388.44C353.83,389.73 353.31,391.39 352.83,392.86C352.34,394.34 351.83,395.81 351.315,397.28C350.8,398.75 350.29,400.22 349.74,401.69C349.19,403.16 348.42,405.11 348.03,406.1C347.83,406.6 347.77,406.76 347.58,407.23C347.25,408.04 346.72,409.35 346.21,410.52C345.62,411.89 344.64,414.05 344.23,414.93C344.05,415.31 344.02,415.38 343.84,415.75C343.47,416.52 342.7,418.14 342.09,419.34C341.46,420.57 340.5,422.31 340.1,423.06C339.92,423.39 339.91,423.43 339.72,423.76C339.24,424.6 337.71,427.18 337.1,428.17C336.78,428.68 336.67,428.83 336.36,429.31C335.82,430.12 334.84,431.63 334.16,432.59C333.61,433.36 333.17,433.93 332.63,434.63Q332.05,435.39 330.78,437" style="stroke-miterlimit: 1; vector-effect: non-scaling-stroke; fill: none; stroke: rgb(34, 30, 27); stroke-opacity: 1; stroke-width: 2px;"/><path class="openline" d="M0,46.32Q1.35,44.83 2,44.14C2.6,43.51 3.08,42.99 3.74,42.34C4.55,41.54 5.83,40.37 6.52,39.73C6.92,39.36 7.04,39.23 7.47,38.86C8.3,38.14 10.5,36.34 11.21,35.77C11.49,35.55 11.52,35.52 11.8,35.31C12.43,34.83 13.9,33.72 14.95,32.97C15.96,32.25 17.33,31.34 17.99,30.9C18.3,30.69 18.36,30.65 18.69,30.44C19.44,29.96 21.26,28.79 22.42,28.09C23.41,27.49 24.51,26.87 25.2,26.48C25.6,26.25 25.73,26.17 26.16,25.94C27,25.48 28.65,24.58 29.9,23.93C31.14,23.29 32.38,22.67 33.629999999999995,22.064999999999998C34.87,21.46 36.12,20.86 37.37,20.28C38.61,19.71 40.01,19.09 41.11,18.62C41.96,18.25 42.72,17.94 43.4,17.66C43.94,17.43 44.25,17.29 44.85,17.05C45.81,16.66 47.34,16.05 48.59,15.56C49.83,15.08 51.2,14.56 52.32,14.14C53.23,13.8 54.12,13.49 54.81,13.24C55.3,13.07 55.53,12.98 56.06,12.8C56.97,12.48 58.55,11.92 59.8,11.5C61.05,11.08 62.29,10.66 63.54,10.26C64.78,9.86 66.46,9.34 67.27,9.09C67.66,8.97 67.76,8.94 68.13,8.83C68.81,8.62 69.99,8.26 71.01,7.95C72.17,7.6 73.5,7.22 74.75,6.86C75.99,6.5 77.23,6.15 78.48,5.81C79.72,5.47 81.25,5.07 82.22,4.81C82.83,4.65 83.17,4.55 83.72,4.41C84.39,4.23 85.12,4.04 85.96,3.83C87.05,3.55 88.45,3.2 89.7,2.89C90.94,2.58 92.19,2.28 93.43,1.98C94.68,1.68 95.92,1.39 97.17,1.1C98.42,0.81 100.01,0.46 100.91,0.26Q101.42,0.15 102.1,0" style="stroke-miterlimit: 1; vector-effect: non-scaling-stroke; fill: none; stroke: rgb(34, 30, 27); stroke-opacity: 1; stroke-width: 2px;"/></g><g class="contourlevel"><path class="openline" d="M370,164.46Q369.54,166.57 369.27,167.74C368.96,169.1 368.6,170.68 368.26,172.15C367.92,173.62 367.57,175.11 367.23,176.57C366.89,178 366.57,179.37 366.22,180.805C365.86,182.3 365.47,183.88 365.1,185.39C364.73,186.88 364.37,188.34 364,189.81C363.63,191.28 363.14,193.18 362.87,194.22C362.72,194.8 362.67,195.02 362.53,195.56C362.32,196.38 362.01,197.52 361.71,198.64C361.35,199.98 360.94,201.58 360.54,203.05C360.14,204.52 359.65,206.28 359.33,207.46C359.11,208.25 358.98,208.74 358.79,209.43C358.58,210.2 358.37,210.94 358.1,211.88C357.74,213.14 357.26,214.82 356.84,216.29C356.41,217.76 355.88,219.58 355.55,220.71C355.34,221.42 355.24,221.79 355.05,222.43C354.81,223.23 354.54,224.11 354.24,225.12C353.85,226.41 353.36,228.07 352.91,229.54C352.46,231.01 351.81,233.1 351.54,233.95C351.43,234.29 351.42,234.34 351.31,234.67C351.07,235.42 350.56,237.08 350.15,238.36C349.7,239.77 349.17,241.39 348.72,242.78C348.32,244.01 347.84,245.48 347.58,246.27C347.45,246.68 347.41,246.77 347.27,247.19C346.96,248.11 346.29,250.14 345.79,251.61C345.29,253.08 344.63,254.99 344.28,256.02C344.09,256.57 344.02,256.78 343.84,257.3C343.56,258.11 343.14,259.3 342.74,260.43C342.26,261.78 341.65,263.53 341.17,264.85C340.78,265.93 340.4,266.99 340.1,267.8C339.89,268.37 339.79,268.64 339.56,269.26C339.16,270.34 338.48,272.22 337.93,273.68C337.39,275.12 336.86,276.51 336.31,277.955C335.74,279.45 335.15,280.98 334.56,282.51C333.96,284.06 333.32,285.66 332.725,287.17C332.16,288.6 331.63,289.92 331.06,291.33C330.47,292.78 329.62,294.85 329.25,295.75C329.09,296.15 329.05,296.23 328.89,296.61C328.56,297.39 327.94,298.91 327.41,300.16C326.82,301.55 325.91,303.68 325.52,304.58C325.35,304.97 325.32,305.05 325.15,305.43C324.81,306.21 324.16,307.73 323.6,308.99C322.96,310.44 322.2,312.14 321.52,313.645C320.88,315.08 320.27,316.42 319.63,317.82C318.98,319.24 318.31,320.67 317.625,322.12C316.92,323.61 316.14,325.27 315.48,326.65C314.93,327.8 314.34,329.02 313.94,329.83C313.69,330.34 313.6,330.52 313.33,331.06C312.83,332.08 311.72,334.31 311.14,335.47C310.76,336.22 310.54,336.66 310.2,337.33C309.8,338.12 309.4,338.92 308.9,339.89C308.23,341.19 307.31,342.93 306.525,344.41499999999996C305.76,345.87 304.92,347.45 304.23,348.72C303.68,349.74 303.17,350.67 302.73,351.47C302.39,352.09 302.19,352.44 301.81,353.13C301.18,354.25 299.76,356.77 299.32,357.55C299.16,357.83 299.15,357.85 298.99,358.12C298.58,358.83 297.44,360.81 296.77,361.96C296.22,362.9 295.72,363.74 295.25,364.52C294.85,365.19 294.59,365.62 294.14,366.37C293.45,367.52 292.38,369.26 291.475,370.72C290.55,372.21 289.31,374.14 288.64,375.2C288.27,375.78 288.13,376 287.78,376.54C287.25,377.36 286.41,378.64 285.76,379.62C285.17,380.51 284.57,381.39 284.04,382.17C283.59,382.84 283.27,383.31 282.78,384.03C282.1,385.02 280.85,386.79 280.3,387.57C280.03,387.96 279.97,388.04 279.68,388.44C279.03,389.34 277.61,391.32 276.52,392.79C275.38,394.32 274.15,395.95 272.98,397.46C271.86,398.91 270.29,400.89 269.64,401.69C269.38,402.01 269.35,402.04 269.09,402.35C268.48,403.09 266.63,405.34 265.98,406.1C265.69,406.44 265.64,406.49 265.35,406.83C264.69,407.59 262.76,409.83 262.14,410.52C261.9,410.79 261.87,410.82 261.62,411.09C260.95,411.81 259.23,413.71 257.975,415.03C256.68,416.4 255.26,417.85 253.95,419.15C252.74,420.35 251.28,421.73 250.4,422.57C249.88,423.07 249.64,423.31 249.15,423.76C248.47,424.39 247.5,425.24 246.67,425.98C245.84,426.71 244.86,427.58 244.17,428.17C243.69,428.58 243.46,428.76 242.93,429.2C241.98,429.98 240.26,431.4 238.965,432.405C237.77,433.34 236.55,434.22 235.45,435.03Q234.49,435.74 232.74,437" style="stroke-miterlimit: 1; vector-effect: non-scaling-stroke; fill: none; stroke: rgb(59, 46, 38); stroke-opacity: 1; stroke-width: 2px;"/><path class="openline" d="M0,162.12Q1.07,160.05 1.67,158.91C2.35,157.61 3.1,156.18 3.89,154.76C4.74,153.24 5.94,151.2 6.6,150.08C6.97,149.45 7.12,149.18 7.47,148.61C7.97,147.8 8.71,146.65 9.33,145.67C9.95,144.69 10.68,143.54 11.21,142.73C11.59,142.15 11.79,141.87 12.21,141.25C12.92,140.21 14.09,138.5 15.114999999999998,137.065C16.22,135.52 17.44,133.85 18.605,132.31C19.72,130.83 21.33,128.79 21.94,128.01C22.17,127.71 22.19,127.69 22.42,127.4C23,126.67 24.9,124.38 25.54,123.6C25.83,123.25 25.87,123.19 26.16,122.85C26.81,122.09 28.7,119.9 29.33,119.18C29.6,118.88 29.63,118.84 29.9,118.54C30.58,117.78 32.25,115.92 33.475,114.595C34.75,113.21 36.13,111.76 37.43,110.41C38.67,109.12 40.35,107.43 41.11,106.67C41.45,106.33 41.52,106.26 41.85,105.94C42.51,105.29 44.01,103.83 44.85,103.02C45.46,102.44 45.85,102.06 46.42,101.53C47.08,100.9 47.83,100.19 48.59,99.49C49.42,98.72 50.5,97.74 51.19,97.11C51.64,96.7 51.83,96.53 52.32,96.09C53.21,95.3 54.86,93.84 56.120000000000005,92.75C57.35,91.68 58.83,90.41 59.8,89.59C60.43,89.06 60.8,88.75 61.37,88.28C62.03,87.73 62.74,87.14 63.54,86.49C64.51,85.7 66.17,84.36 66.78,83.87C67.01,83.68 67.03,83.67 67.27,83.48C67.93,82.96 70.06,81.28 71.01,80.54C71.59,80.09 71.88,79.86 72.41,79.45C73.09,78.93 73.88,78.32 74.75,77.67C75.83,76.86 77.16,75.88 78.385,74.97C79.64,74.04 81.12,72.96 82.22,72.17C83.04,71.58 83.72,71.1 84.39,70.63C84.96,70.23 85.32,69.97 85.96,69.52C86.94,68.83 88.84,67.53 89.7,66.93C90.15,66.62 90.31,66.5 90.74,66.21C91.43,65.74 92.45,65.04 93.43,64.39C94.59,63.61 96,62.69 97.265,61.86C98.49,61.06 99.7,60.26 100.91,59.49C102.09,58.73 103.23,58.02 104.445,57.255C105.72,56.45 107.15,55.55 108.38,54.8C109.45,54.14 110.74,53.37 111.4,52.97C111.72,52.78 111.79,52.74 112.12,52.54C112.88,52.09 114.68,51.01 115.86,50.31C116.91,49.69 118.2,48.95 118.86,48.56C119.19,48.37 119.26,48.33 119.6,48.13C120.37,47.69 122.1,46.68 123.33,45.99C124.52,45.32 125.65,44.7 126.86,44.025C128.14,43.32 129.5,42.56 130.81,41.85C132.1,41.15 133.4,40.46 134.66500000000002,39.79C135.89,39.14 137.06,38.51 138.28,37.87C139.51,37.23 141.11,36.42 142.02,35.95C142.54,35.68 142.77,35.56 143.26,35.31C143.95,34.96 144.84,34.51 145.76,34.05C146.88,33.49 148.35,32.76 149.49,32.2C150.45,31.73 151.46,31.23 152.15,30.9C152.59,30.69 152.76,30.6 153.23,30.38C154.1,29.96 155.72,29.18 156.97,28.59C158.22,28 159.93,27.22 160.71,26.85C161.06,26.68 161.14,26.64 161.48,26.48C162.15,26.17 163.39,25.6 164.44,25.13C165.61,24.6 166.99,23.98 168.18,23.45C169.27,22.97 170.67,22.35 171.31,22.07C171.59,21.95 171.63,21.93 171.92,21.81C172.64,21.5 174.41,20.72 175.66,20.19C176.9,19.66 178.3,19.07 179.39,18.61C180.24,18.25 180.99,17.94 181.67,17.66C182.21,17.44 182.53,17.3 183.13,17.06C184.09,16.67 185.62,16.04 186.87,15.54C188.12,15.04 189.55,14.48 190.61,14.06C191.4,13.75 192.03,13.5 192.68,13.24C193.26,13.01 193.68,12.85 194.34,12.6C195.34,12.22 196.83,11.65 198.08,11.18C199.33,10.71 200.68,10.21 201.82,9.79C202.77,9.44 203.74,9.08 204.43,8.83C204.88,8.67 205.07,8.6 205.56,8.43C206.44,8.12 208.04,7.53 209.29,7.09C210.53,6.65 211.77,6.22 213.03,5.79C214.31,5.35 215.64,4.89 216.91500000000002,4.465C218.14,4.05 219.3,3.67 220.51,3.27C221.74,2.86 222.99,2.45 224.24,2.05C225.48,1.65 226.83,1.23 227.98,0.87Q228.97,0.56 230.75,0" style="stroke-miterlimit: 1; vector-effect: non-scaling-stroke; fill: none; stroke: rgb(59, 46, 38); stroke-opacity: 1; stroke-width: 2px;"/></g><g class="contourlevel"><path class="openline" d="M0,225.98Q0.24,225.52 0.45,225.12C0.92,224.22 2.14,221.87 2.75,220.71C3.15,219.95 3.37,219.49 3.74,218.82C4.17,218.03 4.63,217.24 5.17,216.29C5.87,215.06 6.74,213.5 7.59,212.07C8.48,210.56 9.73,208.53 10.39,207.46C10.74,206.88 10.87,206.66 11.21,206.13C11.73,205.31 12.56,204.04 13.2,203.05C13.8,202.12 14.42,201.16 14.95,200.37C15.38,199.73 15.66,199.33 16.13,198.64C16.82,197.63 18.17,195.66 18.69,194.91C18.92,194.59 18.94,194.55 19.18,194.22C19.78,193.38 21.31,191.23 22.385,189.755C23.46,188.29 25.02,186.22 25.64,185.39C25.89,185.06 25.91,185.01 26.16,184.69C26.73,183.94 28.36,181.85 29.04,180.98C29.41,180.5 29.53,180.34 29.9,179.87C30.54,179.06 31.86,177.43 32.55,176.57C32.99,176.02 33.2,175.76 33.64,175.22C34.31,174.4 35.48,172.98 36.17,172.15C36.64,171.58 36.89,171.27 37.37,170.71C38.06,169.9 39.21,168.55 39.9,167.74C40.38,167.18 40.63,166.88 41.11,166.32C41.81,165.5 43.04,164.11 43.73,163.32C44.18,162.81 44.39,162.57 44.85,162.05C45.57,161.24 46.97,159.67 47.66,158.91C48.05,158.48 48.19,158.33 48.59,157.89C49.32,157.09 51.06,155.19 51.7,154.49C51.99,154.18 52.03,154.13 52.32,153.82C53.03,153.06 54.7,151.26 55.945,149.955C57.24,148.59 58.63,147.14 59.925,145.8C61.16,144.53 62.76,142.9 63.54,142.1C63.91,141.72 64.01,141.62 64.37,141.25C65.04,140.57 66.46,139.14 67.27,138.33C67.85,137.75 68.23,137.38 68.78,136.84C69.45,136.18 70.26,135.37 71.01,134.64C71.76,133.9 72.6,133.07 73.28,132.42C73.82,131.9 74.17,131.57 74.75,131.01C75.6,130.2 77.24,128.62 77.88,128.01C78.16,127.74 78.19,127.71 78.48,127.43C79.21,126.73 81.11,124.95 82.39,123.75999999999999C83.61,122.62 85.05,121.28 85.96,120.44C86.52,119.92 86.81,119.65 87.33,119.18C88.01,118.56 88.9,117.76 89.7,117.03C90.52,116.29 91.51,115.39 92.2,114.77C92.68,114.33 92.91,114.13 93.43,113.66C94.34,112.85 95.92,111.45 97.16499999999999,110.345C98.41,109.25 99.99,107.87 100.91,107.06C101.45,106.59 101.7,106.37 102.2,105.94C102.89,105.35 103.81,104.55 104.65,103.83C105.52,103.08 106.64,102.12 107.33,101.53C107.76,101.16 107.92,101.03 108.38,100.64C109.24,99.91 111.48,98.03 112.12,97.49C112.34,97.3 112.35,97.29 112.57,97.11C113.16,96.61 114.89,95.18 115.86,94.38C116.62,93.75 117.24,93.23 117.89,92.7C118.48,92.21 118.92,91.86 119.6,91.31C120.6,90.49 122.09,89.29 123.33500000000001,88.285C124.58,87.28 126.05,86.1 127.07,85.29C127.77,84.73 128.25,84.35 128.86,83.87C129.5,83.37 130.06,82.93 130.81,82.34C131.85,81.53 133.29,80.4 134.53,79.44C135.78,78.47 137.23,77.36 138.28,76.55C139.04,75.97 139.61,75.53 140.25,75.04C140.85,74.58 141.31,74.24 142.02,73.71C143.07,72.92 144.67,71.72 145.945,70.77C147.16,69.87 148.4,68.95 149.49,68.14C150.43,67.45 151.43,66.71 152.12,66.21C152.57,65.88 152.75,65.75 153.23,65.41C154.11,64.78 156.05,63.38 156.97,62.72C157.51,62.33 157.75,62.15 158.25,61.8C158.94,61.31 159.8,60.7 160.71,60.06C161.83,59.27 163.23,58.29 164.485,57.415000000000006C165.72,56.55 167.04,55.65 168.18,54.86C169.17,54.18 170.25,53.43 170.94,52.97C171.35,52.69 171.49,52.61 171.92,52.32C172.76,51.76 174.63,50.5 175.66,49.81C176.39,49.32 176.91,48.97 177.53,48.56C178.15,48.15 178.66,47.82 179.39,47.34C180.42,46.67 182.24,45.49 183.13,44.91C183.63,44.58 183.83,44.44 184.3,44.14C184.99,43.69 185.93,43.1 186.87,42.51C188,41.8 189.87,40.63 190.61,40.16C190.92,39.96 190.97,39.92 191.28,39.73C191.93,39.32 193.25,38.51 194.34,37.84C195.57,37.09 197,36.21 198.28,35.435C199.49,34.7 200.61,34.04 201.82,33.32C203.09,32.56 204.46,31.75 205.735,31.005C206.95,30.3 208.09,29.64 209.29,28.95C210.52,28.25 212.32,27.24 213.03,26.83C213.31,26.67 213.34,26.64 213.62,26.48C214.25,26.12 215.67,25.34 216.77,24.74C217.96,24.09 219.63,23.19 220.51,22.7C221,22.43 221.18,22.32 221.64,22.07C222.33,21.7 223.29,21.2 224.24,20.7C225.37,20.1 226.92,19.29 227.98,18.73C228.76,18.32 229.38,17.99 230.03,17.66C230.62,17.36 231.05,17.15 231.72,16.81C232.72,16.31 234.22,15.54 235.45,14.93C236.65,14.33 237.81,13.76 239.03,13.165C240.3,12.55 241.64,11.9 242.93,11.29C244.19,10.69 245.7,9.99 246.67,9.54C247.28,9.25 247.62,9.08 248.17,8.83C248.84,8.52 249.56,8.2 250.4,7.82C251.49,7.33 252.88,6.71 254.14,6.16C255.42,5.6 256.74,5.01 258.005,4.465C259.23,3.94 260.4,3.45 261.62,2.94C262.85,2.43 264.13,1.9 265.35,1.4Q266.53,0.92 268.83,0" style="stroke-miterlimit: 1; vector-effect: non-scaling-stroke; fill: none; stroke: rgb(85, 62, 47); stroke-opacity: 1; stroke-width: 2px;"/><path class="openline" d="M370,119.49Q369.22,122.21 368.81,123.6C368.39,125.04 367.95,126.55 367.51,128.01C367.08,129.44 366.66,130.83 366.21500000000003,132.27499999999998C365.75,133.77 365.27,135.33 364.79,136.84C364.32,138.32 363.78,139.97 363.37,141.25C363.05,142.24 362.79,143.1 362.53,143.89C362.31,144.54 362.17,144.94 361.92,145.67C361.53,146.81 360.94,148.6 360.44,150.08C359.92,151.6 359.38,153.18 358.855,154.685C358.35,156.12 357.87,157.49 357.36,158.91C356.84,160.37 356.2,162.14 355.77,163.32C355.48,164.11 355.31,164.61 355.05,165.31C354.77,166.08 354.49,166.81 354.14,167.74C353.67,168.99 352.99,170.81 352.48,172.15C352.06,173.27 351.63,174.4 351.31,175.22C351.1,175.76 351.01,175.99 350.78,176.57C350.37,177.62 349.6,179.57 349.05,180.98C348.54,182.27 347.88,183.94 347.58,184.69C347.45,185.02 347.43,185.06 347.29,185.39C346.95,186.23 346.09,188.36 345.49,189.81C344.91,191.23 344.35,192.58 343.75,194.01C343.12,195.52 342.43,197.14 341.79,198.64C341.18,200.07 340.61,201.39 339.995,202.815C339.34,204.32 338.6,206.01 337.96,207.46C337.4,208.74 336.7,210.31 336.36,211.08C336.2,211.44 336.17,211.51 336,211.88C335.6,212.76 334.6,214.96 334,216.29C333.5,217.39 333,218.51 332.63,219.32C332.38,219.87 332.26,220.12 331.98,220.71C331.49,221.77 330.49,223.9 329.92,225.12C329.52,225.98 329.24,226.59 328.89,227.32C328.54,228.06 328.25,228.67 327.83,229.54C327.24,230.76 326.18,232.96 325.7,233.95C325.46,234.46 325.38,234.62 325.15,235.1C324.76,235.91 324.12,237.19 323.55,238.36C322.88,239.71 322.11,241.26 321.385,242.725C320.65,244.21 319.82,245.86 319.15,247.19C318.61,248.26 318.09,249.29 317.68,250.1C317.38,250.69 317.23,250.97 316.9,251.61C316.34,252.7 315.16,254.98 314.62,256.02C314.33,256.59 314.22,256.81 313.94,257.34C313.52,258.16 312.9,259.32 312.31,260.43C311.63,261.72 310.85,263.2 310.08,264.63C309.27,266.14 308.26,268.02 307.59,269.26C307.14,270.09 306.85,270.63 306.46,271.35C306.05,272.11 305.68,272.78 305.19,273.68C304.51,274.92 303.56,276.64 302.74,278.11C301.92,279.58 300.97,281.28 300.28,282.51C299.78,283.4 299.41,284.06 298.99,284.81C298.58,285.53 298.26,286.09 297.78,286.92C297.09,288.12 296.1,289.86 295.25,291.33C294.4,292.8 293.38,294.56 292.69,295.75C292.23,296.55 291.93,297.06 291.52,297.76C291.07,298.53 290.62,299.26 290.09,300.16C289.41,301.3 288.2,303.34 287.78,304.04C287.62,304.3 287.62,304.31 287.46,304.58C287,305.34 285.41,307.97 284.79,308.99C284.46,309.53 284.35,309.72 284.04,310.23C283.54,311.04 282.73,312.37 282.09,313.4C281.48,314.39 280.8,315.49 280.3,316.3C279.93,316.89 279.75,317.18 279.35,317.82C278.67,318.91 277.5,320.77 276.57,322.24C275.64,323.71 274.46,325.58 273.77,326.65C273.37,327.27 273.2,327.54 272.83,328.11C272.31,328.92 271.55,330.09 270.92,331.06C270.3,332 269.62,333.05 269.09,333.85C268.69,334.46 268.46,334.8 268.02,335.47C267.31,336.55 266.18,338.25 265.21500000000003,339.685C264.21,341.19 262.68,343.43 262.1,344.3C261.87,344.64 261.84,344.69 261.62,345.02C261.11,345.78 259.77,347.72 259.08,348.72C258.61,349.41 258.33,349.81 257.88,350.45C257.32,351.25 256.63,352.24 256,353.13C255.38,354.01 254.7,354.98 254.14,355.77C253.68,356.42 253.37,356.86 252.88,357.55C252.19,358.51 250.98,360.17 250.4,360.97C250.09,361.4 250.01,361.52 249.69,361.96C249.02,362.89 247.63,364.77 246.555,366.22C245.42,367.75 244.19,369.4 243.035,370.925C241.93,372.39 240.42,374.36 239.77,375.2C239.5,375.55 239.46,375.6 239.19,375.94C238.6,376.7 237,378.76 236.32,379.62C235.95,380.09 235.82,380.24 235.45,380.7C234.8,381.51 233.48,383.17 232.79,384.03C232.35,384.57 232.15,384.82 231.72,385.35C231.05,386.17 229.87,387.61 229.18,388.44C228.71,389.01 228.45,389.31 227.98,389.87C227.3,390.68 226.16,392.05 225.47,392.86C224.99,393.42 224.73,393.72 224.24,394.28C223.54,395.09 222.34,396.48 221.65,397.27C221.2,397.79 220.97,398.03 220.51,398.55C219.78,399.37 218.39,400.93 217.7,401.69C217.31,402.12 217.17,402.26 216.77,402.7C216.03,403.5 214.26,405.42 213.62,406.1C213.35,406.39 213.31,406.43 213.03,406.72C212.33,407.45 210.58,409.29 209.33499999999998,410.565C208.09,411.84 206.27,413.64 205.56,414.35C205.28,414.63 205.25,414.66 204.97,414.93C204.34,415.54 202.67,417.14 201.82,417.95C201.24,418.5 200.9,418.83 200.35,419.34C199.68,419.96 198.86,420.7 198.08,421.41C197.24,422.17 196.16,423.15 195.47,423.76C195.02,424.15 194.83,424.3 194.34,424.72C193.43,425.49 191.72,426.98 190.445,428.03499999999997C189.24,429.03 187.91,430.06 186.87,430.89C186.07,431.53 185.4,432.08 184.73,432.59C184.16,433.02 183.77,433.28 183.13,433.75C182.14,434.47 180.15,435.91 179.39,436.47Q179.06,436.71 178.67,437" style="stroke-miterlimit: 1; vector-effect: non-scaling-stroke; fill: none; stroke: rgb(85, 62, 47); stroke-opacity: 1; stroke-width: 2px;"/></g><g class="contourlevel"><path class="openline" d="M0,269.2Q1.82,266.05 2.51,264.85C2.99,264.01 3.31,263.42 3.74,262.7C4.19,261.95 4.62,261.28 5.15,260.43C5.83,259.34 6.99,257.43 7.47,256.69C7.67,256.37 7.71,256.34 7.92,256.02C8.47,255.2 10.33,252.39 10.84,251.61C11.02,251.33 11.03,251.31 11.21,251.03C11.69,250.31 13.19,248.18 13.88,247.19C14.32,246.56 14.53,246.24 14.95,245.65C15.53,244.84 16.39,243.68 17.04,242.78C17.62,241.98 18.14,241.25 18.69,240.5C19.23,239.77 19.74,239.12 20.31,238.36C20.97,237.49 21.8,236.35 22.42,235.55C22.89,234.94 23.19,234.58 23.68,233.95C24.37,233.07 25.52,231.56 26.16,230.75C26.56,230.25 26.73,230.05 27.14,229.54C27.83,228.69 29.25,226.89 29.9,226.09C30.24,225.67 30.35,225.55 30.7,225.12C31.37,224.3 32.99,222.33 33.64,221.55C33.96,221.17 34.03,221.09 34.35,220.71C35.01,219.93 36.71,217.87 37.37,217.1C37.68,216.73 37.76,216.66 38.07,216.29C38.73,215.53 40.43,213.52 41.11,212.74C41.45,212.35 41.53,212.26 41.87,211.88C42.54,211.12 44.15,209.26 44.85,208.46C45.23,208.03 45.35,207.89 45.73,207.46C46.41,206.69 47.87,205.05 48.59,204.24C49.03,203.75 49.22,203.54 49.66,203.05C50.35,202.28 51.58,200.9 52.32,200.09C52.84,199.52 53.14,199.2 53.65,198.64C54.34,197.89 55.33,196.77 56.06,195.98C56.65,195.33 57.11,194.85 57.69,194.22C58.35,193.51 59.11,192.68 59.8,191.93C60.47,191.21 61.13,190.5 61.77,189.81C62.38,189.16 62.91,188.59 63.54,187.91C64.27,187.13 65.23,186.11 65.91,185.39C66.43,184.84 66.73,184.51 67.27,183.94C68.04,183.13 69.4,181.7 70.08,180.98C70.47,180.57 70.6,180.43 71.01,180C71.77,179.2 73.71,177.19 74.3,176.57C74.52,176.34 74.53,176.33 74.75,176.1C75.39,175.43 77.26,173.48 78.515,172.185C79.75,170.9 81.5,169.1 82.22,168.37C82.51,168.07 82.55,168.03 82.84,167.74C83.48,167.08 85.17,165.35 85.96,164.54C86.45,164.04 86.68,163.8 87.15,163.32C87.84,162.62 88.92,161.53 89.7,160.74C90.35,160.08 90.89,159.53 91.5,158.91C92.13,158.27 92.75,157.65 93.43,156.96C94.2,156.19 95.19,155.18 95.88,154.49C96.38,153.99 96.65,153.72 97.17,153.2C97.98,152.39 99.65,150.72 100.29,150.08C100.58,149.79 100.62,149.75 100.91,149.46C101.64,148.74 103.44,146.95 104.69,145.70999999999998C105.93,144.48 107.6,142.83 108.38,142.05C108.74,141.69 108.83,141.6 109.18,141.25C109.85,140.59 111.3,139.18 112.12,138.37C112.72,137.78 113.11,137.39 113.67,136.84C114.34,136.19 115.12,135.42 115.86,134.7C116.62,133.95 117.51,133.08 118.19,132.42C118.72,131.91 119.04,131.6 119.6,131.06C120.44,130.25 122.11,128.62 122.74,128.01C123.01,127.74 123.05,127.71 123.33,127.44C124.05,126.74 125.92,124.93 127.19,123.715C128.41,122.54 129.95,121.08 130.81,120.25C131.28,119.79 131.46,119.61 131.91,119.18C132.6,118.52 133.73,117.46 134.55,116.68C135.26,116 135.91,115.38 136.55,114.77C137.15,114.2 137.63,113.76 138.28,113.14C139.13,112.33 140.55,110.98 141.22,110.35C141.57,110.02 141.65,109.95 142.02,109.61C142.82,108.86 144.59,107.2 145.85,106.025C147.08,104.88 148.61,103.45 149.49,102.63C149.99,102.16 150.2,101.96 150.67,101.53C151.36,100.89 152.41,99.94 153.23,99.18C154,98.47 154.79,97.73 155.46,97.11C156.01,96.6 156.36,96.29 156.97,95.74C157.9,94.89 159.29,93.62 160.505,92.52000000000001C161.78,91.36 163.64,89.68 164.44,88.96C164.79,88.64 164.86,88.58 165.19,88.28C165.85,87.68 167.29,86.41 168.18,85.61C168.9,84.97 169.48,84.43 170.12,83.87C170.73,83.33 171.24,82.89 171.92,82.29C172.84,81.48 174.5,79.99 175.12,79.45C175.37,79.23 175.4,79.22 175.66,79C176.35,78.41 178.61,76.43 179.39,75.74C179.75,75.42 179.83,75.34 180.18,75.04C180.85,74.46 182.22,73.3 183.13,72.52C183.91,71.85 184.64,71.2 185.31,70.63C185.87,70.15 186.24,69.85 186.87,69.32C187.84,68.5 189.33,67.23 190.575,66.185C191.82,65.14 193.37,63.86 194.34,63.05C194.95,62.54 195.28,62.25 195.83,61.8C196.5,61.25 197.27,60.63 198.08,59.97C199.04,59.18 200.59,57.89 201.23,57.38C201.5,57.16 201.54,57.14 201.82,56.92C202.53,56.36 204.67,54.64 205.56,53.92C206.06,53.52 206.26,53.34 206.73,52.97C207.42,52.42 208.4,51.66 209.29,50.96C210.26,50.2 211.7,49.07 212.35,48.56C212.66,48.32 212.71,48.28 213.03,48.04C213.78,47.47 215.84,45.9 216.77,45.18C217.33,44.75 217.59,44.53 218.1,44.14C218.78,43.62 219.63,43.01 220.51,42.35C221.59,41.54 222.9,40.56 224.13,39.65C225.39,38.72 226.89,37.64 227.98,36.84C228.78,36.25 229.41,35.78 230.07,35.31C230.65,34.9 231.06,34.62 231.72,34.16C232.71,33.46 234.64,32.11 235.45,31.53C235.85,31.25 235.95,31.16 236.33,30.9C237.01,30.43 238.18,29.65 239.19,28.96C240.34,28.18 241.64,27.28 242.88,26.450000000000003C244.13,25.61 245.49,24.73 246.67,23.96C247.69,23.29 248.86,22.5 249.54,22.07C249.91,21.84 250.01,21.78 250.4,21.54C251.21,21.04 253.03,19.88 254.14,19.18C255.03,18.62 255.86,18.08 256.55,17.66C257.06,17.35 257.32,17.2 257.88,16.87C258.81,16.31 260.52,15.29 261.62,14.63C262.48,14.11 263.24,13.64 263.92,13.24C264.45,12.93 264.76,12.76 265.35,12.43C266.3,11.89 267.96,10.95 269.09,10.31C270.04,9.77 271.01,9.21 271.7,8.83C272.15,8.58 272.34,8.49 272.83,8.23C273.71,7.76 275.34,6.89 276.57,6.23C277.78,5.59 278.93,4.97 280.15,4.34C281.42,3.69 282.75,3.03 284.04,2.39C285.3,1.77 286.9,1 287.78,0.56Q288.26,0.32 288.89,0" style="stroke-miterlimit: 1; vector-effect: non-scaling-stroke; fill: none; stroke: rgb(111, 77, 54); stroke-opacity: 1; stroke-width: 2px;"/><path class="openline" d="M370,95.79Q369.73,96.54 369.53,97.11C369.16,98.15 368.51,100.04 367.98,101.53C367.44,103.05 366.88,104.62 366.325,106.11500000000001C365.79,107.56 365.27,108.92 364.73,110.35C364.17,111.81 363.43,113.73 363.03,114.77C362.81,115.34 362.74,115.57 362.53,116.1C362.21,116.92 361.73,118.06 361.27,119.18C360.72,120.52 359.93,122.47 359.47,123.6C359.19,124.3 359.05,124.66 358.79,125.29C358.46,126.09 358.06,126.99 357.62,128.01C357.06,129.3 356.19,131.32 355.72,132.42C355.44,133.08 355.31,133.39 355.05,133.99C354.69,134.8 354.24,135.79 353.76,136.84C353.17,138.15 352.2,140.3 351.77,141.25C351.56,141.71 351.51,141.83 351.31,142.27C350.94,143.07 350.28,144.46 349.71,145.67C349.06,147.06 348.31,148.66 347.605,150.14C346.9,151.6 346.14,153.13 345.48,154.49C344.9,155.69 344.24,157.07 343.84,157.87C343.62,158.32 343.55,158.44 343.31,158.91C342.82,159.87 341.67,162.15 341.08,163.32C340.69,164.1 340.45,164.58 340.1,165.27C339.7,166.05 339.31,166.79 338.81,167.74C338.14,169.03 337.22,170.79 336.43,172.285C335.66,173.74 334.82,175.29 334.14,176.57C333.58,177.61 333.07,178.6 332.63,179.41C332.3,180.01 332.11,180.32 331.75,180.98C331.14,182.08 329.8,184.51 329.32,185.39C329.12,185.77 329.09,185.84 328.89,186.2C328.47,186.98 327.5,188.66 326.85,189.81C326.26,190.86 325.61,192.03 325.15,192.84C324.84,193.39 324.69,193.63 324.35,194.22C323.74,195.28 322.29,197.81 321.81,198.64C321.62,198.97 321.6,199.01 321.41,199.33C320.97,200.08 319.89,201.91 319.23,203.05C318.67,204.01 318.15,204.92 317.68,205.71C317.3,206.36 317.05,206.74 316.62,207.46C315.93,208.6 314.85,210.44 313.96000000000004,211.915C313.08,213.38 312,215.14 311.31,216.29C310.86,217.03 310.61,217.47 310.2,218.13C309.72,218.92 309.17,219.79 308.6,220.71C307.94,221.78 306.95,223.4 306.46,224.19C306.2,224.6 306.14,224.69 305.87,225.12C305.29,226.05 303.61,228.74 303.11,229.54C302.92,229.84 302.91,229.87 302.73,230.16C302.28,230.89 301.01,232.87 300.33,233.95C299.82,234.76 299.45,235.36 298.99,236.08C298.51,236.83 298.05,237.52 297.51,238.36C296.83,239.41 295.75,241.12 295.25,241.9C295,242.29 294.94,242.37 294.68,242.78C294.07,243.72 292.65,245.92 291.66999999999996,247.43C290.74,248.86 289.66,250.51 288.94,251.61C288.47,252.33 288.21,252.74 287.78,253.39C287.26,254.18 286.63,255.11 286.03,256.02C285.39,256.99 284.58,258.23 284.04,259.04C283.67,259.59 283.5,259.84 283.1,260.43C282.4,261.47 281.2,263.29 280.23,264.745C279.23,266.23 277.82,268.31 277.19,269.26C276.9,269.69 276.85,269.8 276.57,270.21C276.04,271.01 274.89,272.67 274.21,273.68C273.69,274.45 273.31,275.02 272.83,275.73C272.31,276.49 271.79,277.25 271.21,278.09C270.55,279.05 269.65,280.38 269.09,281.2C268.73,281.73 268.58,281.95 268.19,282.51C267.49,283.52 266.25,285.33 265.25,286.775C264.22,288.27 262.69,290.47 262.1,291.33C261.87,291.67 261.85,291.71 261.62,292.04C261.1,292.79 259.72,294.76 259.03,295.75C258.57,296.41 258.31,296.79 257.88,297.41C257.32,298.21 256.58,299.26 255.95,300.16C255.34,301.04 254.69,301.96 254.14,302.75C253.67,303.41 253.35,303.87 252.85,304.58C252.16,305.55 250.96,307.26 250.4,308.05C250.11,308.46 250.03,308.56 249.73,308.99C249.07,309.91 247.68,311.89 246.635,313.355C245.58,314.84 244.06,316.96 243.45,317.82C243.2,318.17 243.17,318.21 242.93,318.55C242.39,319.31 240.98,321.27 240.29,322.23C239.84,322.85 239.61,323.17 239.19,323.76C238.61,324.57 237.77,325.74 237.11,326.65C236.53,327.46 235.99,328.18 235.45,328.93C234.93,329.65 234.47,330.29 233.91,331.06C233.25,331.98 232.31,333.25 231.72,334.06C231.31,334.62 231.12,334.89 230.69,335.47C230,336.41 228.53,338.4 227.98,339.16C227.73,339.5 227.7,339.55 227.45,339.89C226.83,340.74 225.3,342.8 224.21,344.26C223.11,345.74 221.46,347.96 220.9,348.72C220.71,348.98 220.7,348.99 220.51,349.25C219.99,349.95 218.26,352.23 217.59,353.13C217.23,353.61 217.12,353.77 216.77,354.23C216.16,355.04 214.95,356.64 214.26,357.55C213.78,358.18 213.5,358.55 213.03,359.16C212.42,359.96 211.56,361.1 210.9,361.96C210.33,362.71 209.84,363.33 209.29,364.04C208.71,364.79 208.11,365.58 207.5,366.37C206.87,367.19 206.17,368.09 205.56,368.87C205.03,369.55 204.61,370.09 204.06,370.79C203.39,371.65 202.46,372.83 201.82,373.64C201.35,374.24 201.07,374.59 200.59,375.2C199.9,376.07 198.73,377.53 198.08,378.35C197.67,378.87 197.49,379.1 197.07,379.62C196.38,380.48 194.99,382.19 194.34,382.99C193.98,383.44 193.87,383.58 193.5,384.03C192.83,384.86 191.26,386.77 190.61,387.55C190.28,387.95 190.2,388.04 189.87,388.44C189.21,389.24 187.52,391.25 186.87,392.03C186.56,392.4 186.49,392.49 186.18,392.86C185.53,393.64 183.79,395.65 183.13,396.43C182.81,396.81 182.74,396.9 182.42,397.27C181.76,398.03 180.08,399.94 179.39,400.74C179.03,401.16 178.93,401.28 178.57,401.69C177.9,402.45 176.38,404.13 175.66,404.94C175.23,405.42 175.06,405.63 174.63,406.1C173.94,406.86 172.67,408.23 171.92,409.04C171.39,409.62 171.09,409.97 170.57,410.52C169.89,411.25 168.92,412.23 168.18,413.01C167.53,413.69 166.99,414.29 166.37,414.93C165.74,415.58 165.12,416.18 164.44,416.87C163.68,417.64 162.7,418.66 162.01,419.34C161.51,419.83 161.24,420.08 160.71,420.6C159.87,421.42 158.07,423.19 157.46,423.76C157.23,423.98 157.21,423.98 156.97,424.2C156.31,424.8 153.92,426.99 153.23,427.64C152.96,427.89 152.94,427.93 152.67,428.17C152.05,428.73 150.41,430.11 149.49,430.91C148.77,431.54 148.22,432.06 147.58,432.59C146.97,433.1 146.47,433.47 145.76,434.04Q144.74,434.85 142.07,437" style="stroke-miterlimit: 1; vector-effect: non-scaling-stroke; fill: none; stroke: rgb(111, 77, 54); stroke-opacity: 1; stroke-width: 2px;"/></g><g class="contourlevel"><path class="openline" d="M0,301.31Q0.44,300.67 0.79,300.16C1.46,299.17 2.72,297.22 3.74,295.76C4.77,294.28 6.31,292.2 6.93,291.33C7.19,290.97 7.22,290.91 7.47,290.57C8.04,289.8 9.59,287.82 10.27,286.92C10.67,286.39 10.81,286.17 11.21,285.66C11.84,284.84 13.06,283.37 13.75,282.51C14.23,281.91 14.48,281.57 14.95,280.98C15.61,280.16 16.69,278.91 17.37,278.09C17.88,277.48 18.18,277.09 18.69,276.48C19.37,275.67 20.43,274.48 21.11,273.68C21.62,273.09 21.91,272.71 22.42,272.12C23.12,271.31 24.27,270.04 24.96,269.26C25.44,268.72 25.67,268.43 26.16,267.88C26.89,267.06 28.22,265.62 28.91,264.85C29.32,264.39 29.48,264.2 29.9,263.73C30.63,262.92 32.28,261.14 32.94,260.43C33.26,260.09 33.32,260.02 33.64,259.67C34.37,258.88 35.99,257.14 37.209999999999994,255.83999999999997C38.49,254.47 39.86,253.02 41.16,251.66000000000003C42.41,250.35 44.15,248.53 44.85,247.8C45.13,247.51 45.17,247.47 45.44,247.19C46.07,246.53 47.8,244.73 48.59,243.92C49.06,243.44 49.26,243.24 49.71,242.78C50.4,242.07 51.54,240.88 52.32,240.08C52.94,239.44 53.42,238.96 54.01,238.36C54.66,237.69 55.36,236.97 56.06,236.25C56.8,235.5 57.66,234.64 58.33,233.95C58.87,233.39 59.23,233.02 59.8,232.44C60.6,231.63 61.98,230.23 62.66,229.54C63.04,229.16 63.15,229.04 63.54,228.64C64.33,227.83 65.9,226.24 67.14,224.985C68.45,223.66 69.88,222.21 71.185,220.885C72.41,219.64 73.94,218.1 74.75,217.27C75.17,216.84 75.31,216.7 75.71,216.29C76.39,215.59 77.68,214.28 78.48,213.47C79.08,212.86 79.49,212.45 80.06,211.88C80.73,211.21 81.5,210.41 82.22,209.67C82.94,208.93 83.73,208.14 84.39,207.46C84.96,206.88 85.36,206.47 85.96,205.86C86.75,205.05 88.02,203.75 88.71,203.05C89.12,202.63 89.27,202.48 89.7,202.04C90.48,201.24 92.43,199.24 93.01,198.64C93.22,198.43 93.22,198.42 93.43,198.2C94.06,197.54 95.98,195.58 97.235,194.285C98.47,193.01 100.18,191.24 100.91,190.49C101.22,190.17 101.27,190.12 101.57,189.81C102.22,189.14 103.87,187.43 104.65,186.61C105.13,186.11 105.35,185.87 105.81,185.39C106.5,184.67 107.62,183.52 108.38,182.72C108.99,182.08 109.46,181.59 110.04,180.98C110.69,180.29 111.42,179.53 112.12,178.8C112.82,178.06 113.58,177.26 114.24,176.57C114.82,175.96 115.26,175.5 115.86,174.87C116.62,174.07 117.74,172.88 118.43,172.15C118.9,171.66 119.12,171.43 119.6,170.92C120.37,170.11 121.93,168.45 122.59,167.74C122.92,167.39 122.99,167.31 123.33,166.95C124.08,166.16 125.69,164.45 126.905,163.14499999999998C128.18,161.78 129.54,160.32 130.835,158.94C132.09,157.6 133.93,155.64 134.55,154.96C134.76,154.73 134.76,154.72 134.97,154.49C135.55,153.86 137.56,151.71 138.28,150.93C138.63,150.55 138.72,150.45 139.06,150.08C139.73,149.36 141.27,147.7 142.02,146.89C142.48,146.39 142.69,146.16 143.14,145.67C143.83,144.92 145.02,143.65 145.76,142.84C146.32,142.24 146.67,141.84 147.21,141.25C147.88,140.52 148.78,139.56 149.49,138.79C150.12,138.1 150.66,137.5 151.27,136.84C151.91,136.15 152.57,135.44 153.23,134.72C153.92,133.97 154.66,133.13 155.32,132.42C155.9,131.79 156.37,131.3 156.97,130.65C157.7,129.86 158.69,128.75 159.38,128.01C159.89,127.46 160.19,127.14 160.71,126.58C161.46,125.77 162.74,124.35 163.43,123.6C163.85,123.14 164.01,122.97 164.44,122.5C165.18,121.69 166.82,119.89 167.48,119.18C167.79,118.84 167.86,118.78 168.18,118.43C168.91,117.64 170.52,115.89 171.73,114.57C173,113.19 174.34,111.74 175.64,110.33C176.94,108.92 178.27,107.48 179.545,106.11C180.76,104.8 182.41,103.04 183.13,102.26C183.44,101.92 183.49,101.86 183.8,101.53C184.45,100.83 186.12,99.06 186.87,98.25C187.31,97.77 187.49,97.57 187.92,97.11C188.61,96.37 189.85,95.08 190.61,94.27C191.17,93.67 191.52,93.27 192.06,92.7C192.73,91.99 193.62,91.08 194.34,90.32C195.01,89.62 195.62,88.94 196.25,88.28C196.86,87.64 197.43,87.07 198.08,86.39C198.82,85.61 199.77,84.58 200.46,83.87C200.97,83.34 201.28,83.04 201.82,82.49C202.61,81.68 204.05,80.14 204.73,79.45C205.09,79.09 205.19,79 205.56,78.63C206.34,77.84 207.93,76.18 209.17000000000002,74.92C210.48,73.59 211.91,72.14 213.22,70.82499999999999C214.44,69.6 215.94,68.13 216.77,67.29C217.23,66.83 217.39,66.64 217.83,66.21C218.52,65.53 219.71,64.4 220.51,63.61C221.18,62.95 221.71,62.4 222.33,61.8C222.96,61.19 223.55,60.64 224.24,59.98C225.06,59.19 226.22,58.04 226.91,57.38C227.34,56.97 227.52,56.83 227.98,56.4C228.84,55.6 230.42,54.07 231.66,52.915C232.91,51.74 234.62,50.18 235.45,49.41C235.86,49.03 235.97,48.92 236.36,48.56C237.04,47.94 238.32,46.81 239.19,46.02C239.93,45.35 240.59,44.72 241.24,44.14C241.83,43.62 242.27,43.26 242.93,42.68C243.9,41.84 245.26,40.62 246.47,39.565C247.74,38.46 249.52,36.98 250.4,36.21C250.85,35.82 250.99,35.67 251.42,35.31C252.1,34.73 253.24,33.83 254.14,33.09C255.02,32.36 256.07,31.46 256.76,30.9C257.21,30.54 257.4,30.4 257.88,30.02C258.76,29.32 260.88,27.64 261.62,27.04C261.94,26.78 261.98,26.73 262.29,26.48C262.94,25.96 264.37,24.91 265.35,24.15C266.27,23.44 267.34,22.59 268.03,22.07C268.46,21.75 268.63,21.64 269.09,21.31C269.96,20.68 271.93,19.24 272.83,18.57C273.35,18.19 273.56,18.01 274.04,17.66C274.73,17.17 275.64,16.55 276.57,15.91C277.7,15.12 279.08,14.13 280.34000000000003,13.27C281.57,12.43 282.87,11.59 284.04,10.82C285.09,10.12 286.38,9.25 287.05,8.83C287.37,8.63 287.44,8.6 287.78,8.39C288.54,7.92 290.38,6.78 291.52,6.07C292.48,5.47 293.48,4.82 294.17,4.41C294.61,4.15 294.78,4.07 295.25,3.8C296.12,3.3 297.82,2.32 298.99,1.65Q300.01,1.06 301.87,0" style="stroke-miterlimit: 1; vector-effect: non-scaling-stroke; fill: none; stroke: rgb(138, 93, 57); stroke-opacity: 1; stroke-width: 2px;"/><path class="openline" d="M370,80.47Q369.1,82.66 368.6,83.87C368.03,85.24 367.2,87.25 366.78,88.28C366.55,88.83 366.48,89.04 366.26,89.56C365.91,90.38 365.37,91.56 364.86,92.7C364.26,94.05 363.29,96.21 362.9,97.11C362.73,97.51 362.7,97.59 362.53,97.97C362.18,98.75 361.43,100.28 360.84,101.53C360.18,102.91 359.48,104.43 358.765,105.89C358.04,107.37 357.2,109.01 356.53,110.35C355.98,111.45 355.47,112.53 355.05,113.34C354.76,113.91 354.6,114.16 354.28,114.77C353.71,115.84 352.49,118.16 351.96,119.18C351.68,119.72 351.58,119.92 351.31,120.43C350.87,121.25 350.15,122.51 349.55,123.6C348.91,124.76 348.02,126.44 347.58,127.21C347.37,127.57 347.33,127.64 347.11,128.01C346.6,128.89 345.17,131.38 344.58,132.42C344.26,132.99 344.15,133.22 343.84,133.75C343.37,134.57 342.61,135.8 341.99,136.84C341.36,137.9 340.59,139.24 340.1,140.05C339.79,140.55 339.67,140.72 339.34,141.25C338.69,142.29 337.43,144.39 336.5,145.89999999999998C335.61,147.33 334.57,148.94 333.86,150.08C333.37,150.87 333.07,151.39 332.63,152.08C332.14,152.85 331.61,153.62 331.04,154.49C330.37,155.51 329.42,157.04 328.89,157.84C328.59,158.3 328.49,158.43 328.17,158.91C327.51,159.89 326.19,161.91 325.195,163.39499999999998C324.21,164.86 322.93,166.73 322.25,167.74C321.88,168.29 321.76,168.49 321.41,169C320.85,169.82 319.88,171.19 319.22,172.15C318.66,172.96 318.2,173.67 317.68,174.41C317.17,175.14 316.7,175.78 316.14,176.57C315.47,177.52 314.52,178.91 313.94,179.72C313.57,180.24 313.41,180.44 313.02,180.98C312.31,181.97 311.07,183.72 310.03499999999997,185.165C308.92,186.71 307.69,188.41 306.565,189.95499999999998C305.5,191.42 304.1,193.3 303.43,194.22C303.11,194.66 303.04,194.78 302.73,195.2C302.15,196 300.85,197.71 300.16,198.64C299.69,199.27 299.44,199.63 298.99,200.23C298.39,201.04 297.52,202.17 296.86,203.05C296.28,203.82 295.8,204.49 295.25,205.22C294.69,205.96 294.12,206.68 293.53,207.46C292.88,208.32 292.13,209.36 291.52,210.16C291.03,210.8 290.69,211.22 290.18,211.88C289.49,212.77 288.4,214.24 287.78,215.05C287.39,215.56 287.21,215.77 286.81,216.29C286.12,217.18 284.63,219.15 284.04,219.92C283.76,220.28 283.71,220.34 283.42,220.71C282.76,221.56 281.27,223.5 280.15999999999997,224.94C279,226.45 277.78,228.02 276.58500000000004,229.56C275.39,231.1 274.17,232.67 273,234.17C271.88,235.6 270.38,237.5 269.72,238.36C269.43,238.74 269.38,238.82 269.09,239.19C268.49,239.97 266.96,241.9 266.28,242.78C265.89,243.29 265.74,243.48 265.35,243.98C264.72,244.79 263.52,246.31 262.83,247.19C262.35,247.8 262.09,248.16 261.62,248.76C260.99,249.57 260.05,250.75 259.38,251.61C258.83,252.32 258.41,252.87 257.88,253.55C257.28,254.32 256.57,255.21 255.94,256.02C255.33,256.8 254.73,257.59 254.14,258.34C253.58,259.06 253.07,259.69 252.49,260.43C251.83,261.27 251.02,262.33 250.4,263.13C249.9,263.77 249.57,264.19 249.06,264.85C248.38,265.73 247.3,267.13 246.67,267.94C246.25,268.47 246.06,268.71 245.63,269.26C244.94,270.15 243.54,271.97 242.93,272.76C242.61,273.17 242.53,273.27 242.21,273.68C241.55,274.53 239.72,276.9 239.19,277.59C239,277.84 238.99,277.84 238.8,278.09C238.23,278.83 236.57,280.99 235.43,282.475C234.26,284 233.03,285.61 231.87,287.12C230.77,288.56 229.31,290.45 228.64,291.33C228.34,291.73 228.28,291.82 227.98,292.21C227.39,293 225.97,294.84 225.28,295.75C224.85,296.32 224.66,296.58 224.24,297.13C223.62,297.94 222.61,299.27 221.94,300.16C221.41,300.87 221.02,301.39 220.51,302.07C219.92,302.85 219.24,303.75 218.61,304.58C217.99,305.4 217.35,306.26 216.77,307.03C216.25,307.72 215.84,308.26 215.3,308.99C214.62,309.89 213.64,311.22 213.03,312.03C212.62,312.58 212.42,312.83 212,313.4C211.31,314.32 209.86,316.27 209.29,317.04C209.03,317.39 208.99,317.46 208.72,317.82C208.09,318.68 206.58,320.7 205.5,322.155C204.4,323.64 202.74,325.9 202.19,326.65C202.01,326.9 202,326.9 201.82,327.15C201.31,327.84 199.62,330.14 198.94,331.06C198.57,331.56 198.44,331.74 198.08,332.23C197.48,333.04 196.38,334.54 195.7,335.47C195.18,336.18 194.83,336.66 194.34,337.33C193.77,338.11 193.1,339.04 192.48,339.89C191.86,340.74 191.18,341.67 190.61,342.45C190.12,343.12 189.77,343.6 189.26,344.3C188.58,345.24 187.46,346.77 186.87,347.58C186.52,348.06 186.4,348.22 186.04,348.72C185.34,349.68 184.03,351.48 182.98000000000002,352.925C181.86,354.47 180.63,356.16 179.505,357.70500000000004C178.44,359.16 177.09,361.02 176.41,361.96C176.08,362.42 175.98,362.55 175.66,362.99C175.08,363.79 173.89,365.43 173.2,366.37C172.71,367.05 172.39,367.47 171.92,368.11C171.34,368.91 170.61,369.92 169.97,370.79C169.36,371.62 168.74,372.44 168.18,373.21C167.67,373.9 167.27,374.47 166.73,375.2C166.06,376.12 165.04,377.47 164.44,378.29C164.05,378.82 163.88,379.07 163.47,379.62C162.79,380.55 161.27,382.58 160.71,383.33C160.47,383.66 160.44,383.7 160.19,384.03C159.57,384.86 158.04,386.91 156.925,388.38C155.77,389.91 154.54,391.54 153.38,393.055C152.28,394.5 150.82,396.41 150.15,397.27C149.85,397.65 149.78,397.72 149.49,398.09C148.88,398.86 147.39,400.82 146.7,401.69C146.31,402.19 146.15,402.37 145.76,402.86C145.11,403.67 143.88,405.24 143.19,406.1C142.73,406.67 142.48,406.96 142.02,407.52C141.36,408.33 140.29,409.69 139.6,410.52C139.1,411.13 138.78,411.47 138.28,412.07C137.6,412.88 136.6,414.12 135.91,414.93C135.4,415.53 135.07,415.89 134.55,416.49C133.85,417.3 132.79,418.56 132.1,419.34C131.61,419.9 131.32,420.2 130.81,420.76C130.08,421.57 128.84,423.01 128.14,423.76C127.71,424.23 127.52,424.4 127.07,424.87C126.3,425.68 124.63,427.5 123.98,428.17C123.69,428.47 123.63,428.51 123.33,428.81C122.6,429.54 120.85,431.36 119.59,432.58C118.36,433.78 116.7,435.28 115.86,436.07Q115.43,436.48 114.89,437" style="stroke-miterlimit: 1; vector-effect: non-scaling-stroke; fill: none; stroke: rgb(138, 93, 57); stroke-opacity: 1; stroke-width: 2px;"/></g><g class="contourlevel"><path class="openline" d="M0,326.57Q2.41,323.59 3.6550000000000002,322.125C4.9,320.66 6.17,319.23 7.46,317.805C8.75,316.38 10.12,314.94 11.41,313.595C12.62,312.34 14.12,310.8 14.95,309.98C15.39,309.54 15.56,309.4 15.99,308.99C16.68,308.32 17.87,307.11 18.69,306.32C19.37,305.67 19.95,305.17 20.57,304.58C21.19,303.99 21.73,303.43 22.42,302.78C23.27,301.98 24.62,300.79 25.3,300.16C25.67,299.81 25.77,299.7 26.16,299.34C26.98,298.58 28.77,297 30.035,295.865C31.26,294.78 32.68,293.5 33.64,292.67C34.26,292.12 34.64,291.82 35.2,291.33C35.87,290.75 36.59,290.09 37.37,289.41C38.27,288.63 39.62,287.51 40.29,286.92C40.65,286.61 40.74,286.52 41.11,286.19C41.9,285.5 44.14,283.6 44.85,283C45.13,282.76 45.17,282.74 45.45,282.51C46.09,281.98 47.65,280.62 48.59,279.83C49.36,279.19 50.03,278.64 50.68,278.09C51.26,277.6 51.66,277.24 52.32,276.68C53.3,275.85 54.74,274.64 55.975,273.605C57.24,272.54 58.85,271.18 59.8,270.38C60.36,269.91 60.63,269.69 61.14,269.26C61.82,268.68 62.71,267.93 63.54,267.23C64.44,266.47 65.68,265.43 66.36,264.85C66.75,264.52 66.86,264.41 67.27,264.06C68.09,263.35 70.33,261.46 71.01,260.88C71.27,260.66 71.29,260.64 71.54,260.43C72.16,259.9 73.81,258.48 74.75,257.68C75.48,257.06 76.06,256.57 76.69,256.02C77.3,255.49 77.79,255.05 78.48,254.45C79.41,253.64 81.15,252.14 81.75,251.61C81.98,251.41 81.99,251.4 82.22,251.19C82.87,250.61 85.17,248.58 85.96,247.89C86.32,247.57 86.41,247.5 86.76,247.19C87.43,246.59 88.82,245.35 89.7,244.56C90.43,243.91 91.04,243.36 91.68,242.78C92.28,242.23 92.76,241.79 93.43,241.18C94.31,240.37 95.86,238.96 96.51,238.36C96.81,238.08 96.86,238.04 97.17,237.75C97.93,237.05 99.8,235.3 101.07499999999999,234.105C102.3,232.96 103.77,231.56 104.65,230.72C105.17,230.23 105.41,230 105.89,229.54C106.58,228.88 107.59,227.89 108.38,227.12C109.1,226.42 109.78,225.76 110.43,225.12C111.02,224.54 111.49,224.08 112.12,223.46C112.93,222.66 114.18,221.4 114.87,220.71C115.28,220.29 115.43,220.15 115.86,219.71C116.68,218.88 118.19,217.34 119.405,216.08999999999997C120.7,214.76 122.09,213.3 123.39,211.94C124.64,210.62 126.39,208.76 127.07,208.04C127.33,207.76 127.36,207.73 127.61,207.46C128.23,206.79 130.08,204.79 130.81,204C131.19,203.59 131.3,203.46 131.67,203.05C132.35,202.3 133.82,200.68 134.55,199.87C135,199.37 135.2,199.14 135.64,198.64C136.33,197.86 137.56,196.48 138.28,195.66C138.78,195.1 139.04,194.78 139.53,194.22C140.22,193.43 141.32,192.17 142.02,191.36C142.53,190.77 142.83,190.4 143.34,189.81C144.03,189.01 145.08,187.79 145.76,186.98C146.27,186.38 146.57,186 147.08,185.39C147.76,184.57 148.82,183.32 149.49,182.51C149.98,181.92 150.26,181.58 150.75,180.98C151.44,180.14 152.57,178.78 153.23,177.96C153.68,177.41 153.9,177.13 154.35,176.57C155.04,175.71 156.32,174.14 156.97,173.33C157.36,172.84 157.51,172.65 157.9,172.15C158.58,171.29 160.09,169.42 160.71,168.63C161.02,168.24 161.09,168.14 161.4,167.74C162.05,166.9 163.9,164.56 164.44,163.86C164.64,163.6 164.65,163.59 164.85,163.32C165.43,162.56 167.08,160.44 168.22,158.95999999999998C169.39,157.44 170.63,155.82 171.77999999999997,154.31C172.88,152.87 174.31,150.96 174.98,150.08C175.29,149.68 175.36,149.59 175.66,149.2C176.25,148.42 177.61,146.59 178.3,145.67C178.74,145.08 178.96,144.8 179.39,144.23C180,143.42 180.93,142.15 181.6,141.25C182.16,140.51 182.61,139.93 183.13,139.22C183.7,138.46 184.28,137.65 184.88,136.84C185.52,135.98 186.28,134.98 186.87,134.18C187.35,133.53 187.65,133.1 188.15,132.42C188.83,131.49 190.02,129.93 190.61,129.12C190.95,128.65 191.05,128.5 191.41,128.01C192.1,127.06 193.44,125.26 194.505,123.82499999999999C195.64,122.29 196.86,120.63 198.005,119.08500000000001C199.09,117.61 200.55,115.64 201.2,114.77C201.48,114.39 201.54,114.33 201.82,113.96C202.4,113.19 203.79,111.27 204.48,110.35C204.92,109.77 205.14,109.5 205.56,108.94C206.17,108.13 207.1,106.83 207.77,105.94C208.32,105.21 208.77,104.66 209.29,103.96C209.87,103.19 210.48,102.35 211.09,101.53C211.72,100.69 212.44,99.78 213.03,99C213.54,98.33 213.9,97.81 214.43,97.11C215.11,96.22 216.15,94.91 216.77,94.09C217.19,93.54 217.37,93.26 217.8,92.7C218.48,91.8 219.9,90.03 220.51,89.23C220.82,88.82 220.89,88.7 221.21,88.28C221.86,87.42 223.69,85.14 224.24,84.43C224.45,84.16 224.45,84.14 224.66,83.87C225.25,83.11 226.91,81.02 228.07,79.57C229.26,78.08 230.49,76.54 231.715,75.035C232.93,73.53 234.16,72.04 235.385,70.55C236.61,69.06 237.85,67.57 239.09,66.095C240.33,64.62 241.58,63.15 242.82999999999998,61.69C244.08,60.23 245.35,58.77 246.615,57.325C247.88,55.88 249.16,54.44 250.44,53.015C251.72,51.59 253.05,50.13 254.32,48.760000000000005C255.53,47.46 257.14,45.78 257.88,44.97C258.23,44.6 258.29,44.5 258.63,44.14C259.29,43.44 260.84,41.9 261.62,41.08C262.13,40.54 262.38,40.24 262.88,39.73C263.56,39.03 264.58,38.06 265.35,37.29C266.04,36.6 266.64,35.94 267.28,35.31C267.89,34.71 268.43,34.25 269.09,33.61C269.92,32.82 271.17,31.55 271.86,30.9C272.26,30.52 272.4,30.42 272.83,30.03C273.68,29.25 275.34,27.66 276.6,26.515C277.83,25.39 279.39,24.05 280.3,23.23C280.84,22.75 281.07,22.51 281.57,22.07C282.25,21.47 283.2,20.72 284.04,20.01C284.93,19.26 286.09,18.22 286.78,17.66C287.19,17.33 287.34,17.23 287.78,16.89C288.63,16.22 290.74,14.53 291.52,13.89C291.88,13.6 291.94,13.51 292.29,13.24C292.95,12.71 294.27,11.76 295.25,11.02C296.22,10.29 297.45,9.32 298.13,8.83C298.5,8.57 298.6,8.51 298.99,8.24C299.8,7.68 301.74,6.31 302.73,5.6C303.39,5.13 303.78,4.81 304.37,4.41C305.02,3.97 305.66,3.58 306.46,3.07C307.53,2.38 309.36,1.2 310.2,0.65Q310.63,0.37 311.16,0" style="stroke-miterlimit: 1; vector-effect: non-scaling-stroke; fill: none; stroke: rgb(161, 112, 59); stroke-opacity: 1; stroke-width: 2px;"/><path class="openline" d="M370,69.5Q369.69,70.13 369.45,70.63C368.98,71.62 367.98,73.78 367.4,75.04C366.96,75.98 366.64,76.75 366.26,77.52C365.92,78.21 365.66,78.67 365.26,79.45C364.66,80.62 363.49,82.91 363.02,83.87C362.79,84.33 362.75,84.45 362.53,84.89C362.12,85.69 361.29,87.14 360.67,88.28C360.04,89.44 359.24,91 358.79,91.79C358.56,92.2 358.49,92.28 358.24,92.7C357.7,93.62 356.27,96.11 355.7,97.11C355.41,97.62 355.33,97.8 355.05,98.28C354.57,99.1 353.69,100.47 353.05,101.53C352.45,102.52 351.81,103.63 351.31,104.44C350.94,105.03 350.74,105.31 350.33,105.94C349.64,107.01 348.5,108.85 347.54999999999995,110.31C346.58,111.79 345.24,113.77 344.58,114.77C344.25,115.27 344.16,115.44 343.84,115.91C343.29,116.72 342.21,118.2 341.54,119.18C341,119.97 340.61,120.6 340.1,121.32C339.57,122.07 339.01,122.79 338.43,123.6C337.77,124.51 336.95,125.71 336.36,126.52C335.93,127.1 335.67,127.41 335.22,128.01C334.53,128.93 333.23,130.76 332.63,131.54C332.33,131.94 332.25,132.02 331.93,132.42C331.25,133.3 329.82,135.2 328.71500000000003,136.63C327.55,138.13 326.32,139.69 325.11,141.20499999999998C323.9,142.72 322.68,144.23 321.46000000000004,145.73C320.24,147.23 319.01,148.71 317.77,150.195C316.53,151.68 315.29,153.15 314.03999999999996,154.615C312.79,156.08 311.53,157.54 310.27,158.99C309.01,160.44 307.74,161.88 306.46500000000003,163.325C305.19,164.76 303.89,166.22 302.63,167.63C301.4,169 299.63,170.95 298.99,171.65C298.76,171.9 298.75,171.91 298.52,172.15C297.92,172.8 295.97,174.95 295.25,175.73C294.9,176.11 294.8,176.2 294.45,176.57C293.78,177.29 292.28,178.95 291.52,179.76C291.04,180.27 290.81,180.49 290.34,180.98C289.65,181.71 288.54,182.94 287.78,183.74C287.19,184.36 286.75,184.79 286.18,185.39C285.52,186.09 284.75,186.94 284.04,187.69C283.35,188.41 282.63,189.13 281.98,189.81C281.39,190.43 280.92,190.95 280.3,191.6C279.54,192.39 278.45,193.5 277.76,194.22C277.29,194.72 277.06,194.97 276.57,195.49C275.79,196.31 274.16,197.96 273.51,198.64C273.2,198.97 273.15,199.03 272.83,199.37C272.1,200.14 270.42,201.85 269.16999999999996,203.135C267.86,204.48 266.45,205.93 265.16,207.27C263.94,208.53 262.43,210.11 261.62,210.93C261.21,211.35 261.07,211.47 260.67,211.88C259.98,212.58 258.67,213.97 257.88,214.78C257.31,215.37 256.94,215.73 256.39,216.29C255.71,216.98 254.87,217.88 254.14,218.64C253.45,219.35 252.76,220.04 252.12,220.71C251.52,221.33 251.03,221.86 250.4,222.52C249.64,223.31 248.57,224.4 247.88,225.12C247.4,225.62 247.17,225.89 246.67,226.41C245.89,227.23 244.33,228.84 243.67,229.54C243.34,229.89 243.27,229.97 242.93,230.33C242.18,231.12 240.57,232.82 239.345,234.115C238.06,235.48 236.7,236.93 235.41,238.315C234.16,239.66 232.36,241.62 231.72,242.3C231.5,242.54 231.49,242.54 231.27,242.78C230.68,243.42 228.69,245.6 227.98,246.37C227.64,246.74 227.55,246.82 227.22,247.19C226.55,247.92 224.97,249.69 224.24,250.5C223.82,250.97 223.65,251.15 223.24,251.61C222.55,252.38 221.24,253.89 220.51,254.7C220.03,255.23 219.79,255.49 219.32,256.02C218.63,256.8 217.48,258.15 216.77,258.96C216.27,259.54 215.97,259.86 215.47,260.43C214.78,261.22 213.72,262.48 213.03,263.29C212.52,263.89 212.2,264.25 211.69,264.85C211,265.66 209.97,266.89 209.29,267.7C208.79,268.3 208.48,268.66 207.98,269.26C207.29,270.08 206.23,271.39 205.56,272.2C205.08,272.78 204.82,273.09 204.34,273.68C203.65,274.53 202.48,275.99 201.82,276.8C201.4,277.32 201.2,277.56 200.77,278.09C200.08,278.95 198.71,280.69 198.08,281.49C197.73,281.93 197.63,282.06 197.28,282.51C196.61,283.37 194.91,285.56 194.34,286.29C194.11,286.59 194.08,286.61 193.85,286.92C193.24,287.72 191.67,289.78 190.555,291.26C189.4,292.8 188.17,294.45 187.04000000000002,295.975C185.98,297.41 184.67,299.19 183.97,300.16C183.6,300.67 183.48,300.84 183.13,301.33C182.55,302.14 181.48,303.63 180.8,304.58C180.27,305.32 179.88,305.87 179.39,306.57C178.85,307.34 178.29,308.14 177.7,308.99C177.05,309.92 176.22,311.12 175.66,311.93C175.26,312.5 175.07,312.78 174.65,313.4C173.94,314.44 172.76,316.18 171.79,317.625C170.78,319.13 169.31,321.33 168.71,322.23C168.46,322.6 168.42,322.66 168.18,323.02C167.67,323.79 166.48,325.61 165.8,326.65C165.28,327.44 164.9,328.01 164.44,328.72C163.95,329.48 163.48,330.2 162.93,331.06C162.26,332.1 161.22,333.74 160.71,334.53C160.45,334.94 160.38,335.04 160.11,335.47C159.52,336.4 157.81,339.12 157.32,339.89C157.15,340.17 157.14,340.18 156.97,340.45C156.53,341.16 155.24,343.21 154.56,344.3C154.05,345.11 153.68,345.71 153.23,346.43C152.77,347.18 152.36,347.86 151.83,348.72C151.15,349.83 149.93,351.78 149.49,352.51C149.31,352.8 149.3,352.83 149.12,353.13C148.63,353.93 147.02,356.58 146.42,357.55C146.13,358.03 146.04,358.16 145.76,358.62C145.27,359.42 144.39,360.89 143.74,361.96C143.14,362.94 142.51,363.97 142.02,364.78C141.66,365.38 141.47,365.71 141.07,366.37C140.4,367.49 139.24,369.4 138.345,370.89C137.47,372.34 136.44,374.05 135.74,375.2C135.27,375.98 134.97,376.46 134.55,377.15C134.08,377.92 133.62,378.72 133.07,379.62C132.4,380.73 131.26,382.57 130.81,383.32C130.61,383.65 130.59,383.69 130.39,384.03C129.88,384.87 128.28,387.5 127.69,388.44C127.41,388.89 127.34,388.99 127.07,389.42C126.57,390.22 125.62,391.8 124.96,392.86C124.39,393.78 123.82,394.64 123.33,395.43C122.92,396.09 122.66,396.53 122.2,397.27C121.5,398.4 120.42,400.09 119.5,401.53C118.54,403.03 117.19,405.12 116.55,406.1C116.24,406.56 116.15,406.68 115.86,407.12C115.33,407.92 114.32,409.52 113.64,410.52C113.09,411.33 112.62,411.98 112.12,412.71C111.62,413.45 111.19,414.13 110.64,414.93C109.97,415.9 108.95,417.3 108.38,418.11C108.03,418.61 107.91,418.81 107.54,419.34C106.84,420.32 105.55,422.1 104.485,423.525C103.35,425.04 102.13,426.65 100.92,428.185C99.72,429.71 98.5,431.22 97.25999999999999,432.69Q96.03,434.15 93.5,437" style="stroke-miterlimit: 1; vector-effect: non-scaling-stroke; fill: none; stroke: rgb(161, 112, 59); stroke-opacity: 1; stroke-width: 2px;"/></g><g class="contourlevel"><path class="openline" d="M0,347.11Q2.4,344.92 3.05,344.3C3.36,344 3.41,343.93 3.74,343.63C4.48,342.95 6.71,341.03 7.47,340.42C7.79,340.16 7.86,340.13 8.17,339.89C8.83,339.37 10.22,338.19 11.21,337.43C12.12,336.73 13.17,335.99 13.86,335.47C14.3,335.13 14.47,334.98 14.95,334.63C15.82,333.99 17.74,332.62 18.69,331.97C19.26,331.58 19.55,331.41 20.07,331.06C20.75,330.6 21.54,330.02 22.42,329.43C23.52,328.69 25.44,327.46 26.16,327.01C26.45,326.83 26.49,326.82 26.77,326.65C27.41,326.26 28.79,325.35 29.9,324.67C31.13,323.92 32.54,323.08 33.815,322.33000000000004C35.03,321.61 36.17,320.94 37.37,320.25C38.6,319.54 40.39,318.53 41.11,318.14C41.4,317.98 41.44,317.97 41.72,317.82C42.36,317.48 43.76,316.68 44.85,316.09C46.04,315.45 47.64,314.6 48.59,314.11C49.16,313.81 49.46,313.67 49.98,313.4C50.66,313.05 51.45,312.62 52.32,312.17C53.42,311.61 54.91,310.85 56.06,310.29C57.03,309.81 58.07,309.33 58.76,308.99C59.19,308.78 59.34,308.68 59.8,308.46C60.66,308.04 62.29,307.27 63.54,306.69C64.78,306.11 66.45,305.34 67.27,304.97C67.67,304.79 67.79,304.75 68.18,304.58C68.86,304.28 70,303.75 71.01,303.3C72.17,302.79 73.51,302.23 74.75,301.7C75.99,301.18 77.21,300.65 78.45500000000001,300.15C79.7,299.65 80.97,299.16 82.22,298.68C83.47,298.2 84.71,297.73 85.96,297.28C87.2,296.83 88.95,296.21 89.7,295.96C90.02,295.85 90.08,295.85 90.39,295.75C91.04,295.55 92.36,295.1 93.43,294.78C94.61,294.43 95.92,294.05 97.17,293.73C98.41,293.41 99.66,293.1 100.91,292.84C102.15,292.58 103.4,292.33 104.65,292.16C105.89,291.99 107.13,291.84 108.38,291.8C109.62,291.76 110.88,291.75 112.12,291.92C113.38,292.1 114.65,292.32 115.86,292.87C117.2,293.48 118.72,294.4 119.745,295.575C120.81,296.8 121.52,298.61 122.04,300.16C122.52,301.61 122.69,303.1 122.84,304.58C122.99,306.05 122.97,307.52 122.94,308.99C122.91,310.46 122.78,311.93 122.63,313.4C122.48,314.87 122.28,316.35 122.06,317.82C121.84,319.29 121.57,320.76 121.3,322.23C121.03,323.7 120.72,325.26 120.42,326.65C120.15,327.91 119.77,329.47 119.6,330.24C119.52,330.61 119.51,330.68 119.42,331.06C119.21,331.95 118.68,334 118.3,335.47C117.91,336.94 117.51,338.42 117.11,339.89C116.7,341.37 116.3,342.86 115.87,344.33500000000004C115.45,345.8 115,347.26 114.56,348.72C114.11,350.19 113.63,351.76 113.2,353.13C112.82,354.32 112.37,355.67 112.12,356.48C111.98,356.94 111.94,357.07 111.79,357.55C111.48,358.52 110.82,360.49 110.33,361.96C109.84,363.43 109.19,365.36 108.83,366.37C108.64,366.91 108.56,367.09 108.38,367.6C108.09,368.41 107.68,369.64 107.28,370.79C106.8,372.14 106.17,373.9 105.69,375.2C105.31,376.23 104.95,377.16 104.65,377.97C104.42,378.59 104.3,378.94 104.05,379.62C103.63,380.74 102.91,382.63 102.37,384.03C101.87,385.32 101.2,386.97 100.91,387.72C100.78,388.05 100.77,388.1 100.64,388.44C100.31,389.29 99.45,391.41 98.85,392.86C98.26,394.28 97.7,395.63 97.09,397.065C96.45,398.57 95.74,400.24 95.1,401.69C94.53,402.99 93.76,404.63 93.43,405.38C93.28,405.71 93.27,405.76 93.12,406.1C92.74,406.95 91.7,409.22 91.08,410.52C90.58,411.55 90.09,412.48 89.7,413.29C89.4,413.91 89.26,414.25 88.93,414.93C88.38,416.05 87.23,418.31 86.68,419.34C86.38,419.9 86.25,420.1 85.96,420.63C85.52,421.44 84.9,422.69 84.31,423.76C83.67,424.92 82.66,426.57 82.22,427.35C82.01,427.72 81.99,427.79 81.77,428.17C81.25,429.06 79.64,431.71 79.06,432.59C78.8,432.97 78.73,433.03 78.48,433.4Q77.95,434.17 76.11,437" style="stroke-miterlimit: 1; vector-effect: non-scaling-stroke; fill: none; stroke: rgb(180, 134, 64); stroke-opacity: 1; stroke-width: 2px;"/><path class="openline" d="M370,61.09Q369.79,61.46 369.61,61.8C369.16,62.64 367.92,65.02 367.3,66.21C366.88,67.02 366.64,67.56 366.26,68.26C365.84,69.03 365.4,69.72 364.88,70.63C364.18,71.85 363.29,73.47 362.44,74.91C361.55,76.41 360.3,78.35 359.64,79.45C359.27,80.07 359.14,80.34 358.79,80.91C358.28,81.73 357.44,82.9 356.8,83.87C356.19,84.8 355.59,85.82 355.05,86.61C354.62,87.24 354.31,87.61 353.84,88.28C353.15,89.26 351.86,91.2 351.31,91.96C351.06,92.31 351,92.35 350.74,92.7C350.1,93.55 348.65,95.6 347.53999999999996,97.065C346.39,98.59 345.15,100.19 343.96,101.695C342.81,103.15 341.11,105.19 340.52,105.94C340.31,106.2 340.31,106.22 340.1,106.48C339.53,107.19 337.39,109.65 336.8,110.35C336.58,110.61 336.58,110.63 336.36,110.89C335.74,111.62 334,113.58 332.775,114.945C331.51,116.35 330.18,117.8 328.89,119.18C327.64,120.52 325.82,122.44 325.15,123.12C324.91,123.36 324.89,123.37 324.66,123.6C324.05,124.21 322.22,126.12 321.41,126.92C320.93,127.39 320.72,127.57 320.26,128.01C319.57,128.68 318.49,129.81 317.68,130.59C316.98,131.26 316.33,131.82 315.69,132.42C315.08,133 314.61,133.5 313.94,134.13C313.08,134.94 311.61,136.22 310.95,136.84C310.61,137.15 310.55,137.23 310.2,137.56C309.4,138.29 307.53,139.94 306.245,141.07C305.04,142.13 303.73,143.29 302.73,144.13C302.01,144.74 301.47,145.15 300.85,145.67C300.22,146.2 299.72,146.67 298.99,147.28C297.99,148.12 296.62,149.22 295.395,150.205C294.13,151.22 292.53,152.52 291.52,153.3C290.88,153.8 290.5,154.05 289.93,154.49C289.26,155 288.6,155.56 287.78,156.19C286.72,157.01 285.34,158.04 284.1,158.95999999999998C282.85,159.89 281.41,160.95 280.3,161.74C279.45,162.35 278.71,162.84 278.04,163.32C277.49,163.71 277.18,163.97 276.57,164.4C275.61,165.08 273.72,166.39 272.83,166.99C272.34,167.32 272.14,167.43 271.68,167.74C270.99,168.2 270.04,168.86 269.09,169.5C267.92,170.28 266.46,171.23 265.185,172.05C263.97,172.83 262.82,173.56 261.62,174.31C260.4,175.07 259.16,175.84 257.90999999999997,176.59C256.66,177.34 255.4,178.07 254.14,178.8C252.88,179.53 251.62,180.26 250.365,180.95999999999998C249.13,181.65 247.91,182.29 246.67,182.95C245.43,183.61 243.8,184.47 242.93,184.9C242.47,185.12 242.3,185.18 241.87,185.39C241.18,185.72 240.16,186.25 239.19,186.71C238.05,187.25 236.68,187.86 235.45,188.4C234.26,188.92 233.13,189.42 231.91,189.89499999999998C230.64,190.39 229.28,190.88 227.98,191.31C226.72,191.73 225.49,192.11 224.24,192.44C223,192.76 221.76,193.06 220.51,193.27C219.27,193.47 218.02,193.67 216.77,193.67C215.52,193.67 214.24,193.64 213.03,193.28C211.75,192.9 210.17,192.04 209.29,191.34C208.68,190.86 208.39,190.5 207.99,189.81C207.37,188.76 206.67,186.89 206.35,185.39C206.04,183.94 206.03,182.45 206.03,180.98C206.03,179.51 206.19,178.04 206.36,176.57C206.53,175.09 206.79,173.62 207.07,172.15C207.35,170.68 207.67,169.23 208.02,167.74C208.38,166.21 208.8,164.6 209.22,163.095C209.62,161.66 210.04,160.32 210.48,158.91C210.94,157.45 211.46,155.84 211.92,154.49C212.31,153.35 212.75,152.14 213.03,151.33C213.21,150.82 213.26,150.62 213.45,150.08C213.81,149.06 214.54,147.14 215.1,145.67C215.66,144.21 216.2,142.76 216.78500000000003,141.29500000000002C217.37,139.81 217.99,138.32 218.61,136.84C219.23,135.35 219.85,133.86 220.49,132.385C221.12,130.92 221.78,129.45 222.42,128.01C223.05,126.59 223.67,125.23 224.325,123.79499999999999C225.02,122.29 225.82,120.56 226.48,119.18C227.02,118.05 227.59,116.94 227.98,116.12C228.24,115.58 228.33,115.35 228.61,114.77C229.12,113.72 230.22,111.48 230.8,110.35C231.17,109.63 231.39,109.25 231.72,108.61C232.13,107.82 232.55,106.94 233.06,105.94C233.73,104.64 234.62,102.94 235.41,101.455C236.19,99.99 237.06,98.36 237.75,97.11C238.28,96.15 238.76,95.35 239.19,94.57C239.56,93.9 239.78,93.46 240.2,92.7C240.86,91.5 241.96,89.61 242.825,88.11C243.66,86.67 244.59,85.05 245.3,83.87C245.82,83.01 246.22,82.41 246.67,81.67C247.11,80.93 247.46,80.3 247.97,79.45C248.68,78.28 249.66,76.72 250.555,75.30000000000001C251.51,73.79 252.91,71.57 253.53,70.63C253.81,70.21 253.88,70.14 254.14,69.74C254.66,68.96 255.74,67.22 256.43,66.21C256.96,65.43 257.39,64.86 257.88,64.15C258.4,63.4 258.87,62.63 259.44,61.8C260.1,60.84 261.05,59.57 261.62,58.75C262,58.21 262.14,57.95 262.54,57.38C263.21,56.42 264.83,54.27 265.35,53.55C265.55,53.27 265.55,53.25 265.76,52.97C266.33,52.18 267.95,50.04 269.09,48.555C270.26,47.03 271.49,45.46 272.67999999999995,43.965C273.83,42.52 275.49,40.45 276.11,39.73C276.33,39.47 276.35,39.47 276.57,39.22C277.17,38.53 279.25,35.99 279.85,35.31C280.06,35.07 280.08,35.06 280.3,34.82C280.93,34.12 282.67,32.12 283.9,30.755C285.17,29.35 286.52,27.89 287.82,26.525C289.06,25.22 290.81,23.5 291.52,22.75C291.82,22.44 291.85,22.37 292.14,22.07C292.77,21.42 294.42,19.91 295.25,19.09C295.82,18.53 296.13,18.17 296.67,17.66C297.34,17.02 298.21,16.31 298.99,15.59C299.81,14.84 300.8,13.85 301.5,13.24C301.97,12.82 302.21,12.67 302.73,12.23C303.66,11.45 305.3,9.98 306.575,8.93C307.79,7.93 309.17,6.88 310.2,6.05C310.97,5.43 311.55,4.91 312.2,4.41C312.79,3.96 313.25,3.68 313.94,3.19C314.95,2.46 316.97,0.99 317.68,0.46Q317.97,0.24 318.28,0" style="stroke-miterlimit: 1; vector-effect: non-scaling-stroke; fill: none; stroke: rgb(180, 134, 64); stroke-opacity: 1; stroke-width: 2px;"/></g><g class="contourlevel"><path class="openline" d="M0,364.3Q2.44,362.68 3.685,361.91999999999996C4.93,361.16 6.2,360.41 7.47,359.72C8.71,359.04 10.47,358.16 11.21,357.82C11.51,357.68 11.56,357.68 11.86,357.55C12.51,357.26 13.86,356.59 14.95,356.12C16.13,355.61 17.42,355.09 18.69,354.61C19.99,354.12 21.39,353.63 22.68,353.205C23.88,352.81 24.98,352.46 26.16,352.12C27.38,351.77 28.65,351.43 29.9,351.13C31.14,350.83 32.39,350.57 33.64,350.33C34.88,350.1 36.12,349.89 37.37,349.72C38.61,349.55 39.86,349.41 41.11,349.31C42.36,349.22 43.6,349.16 44.85,349.15C46.1,349.14 47.35,349.17 48.59,349.27C49.84,349.37 51.08,349.51 52.32,349.73C53.57,349.95 54.83,350.23 56.06,350.61C57.32,351 58.77,351.58 59.8,352.06C60.57,352.42 61.11,352.75 61.74,353.13C62.36,353.5 62.86,353.78 63.54,354.32C64.56,355.13 66.07,356.45 67.14,357.70500000000004C68.23,358.99 69.32,360.76 70,361.96C70.46,362.77 70.69,363.35 71.01,364.08C71.33,364.82 71.62,365.47 71.92,366.37C72.33,367.59 72.81,369.31 73.14,370.79C73.47,372.25 73.7,373.73 73.89,375.2C74.08,376.67 74.2,378.15 74.28,379.62C74.36,381.09 74.39,382.56 74.38,384.03C74.37,385.5 74.32,386.97 74.24,388.44C74.16,389.91 74.04,391.39 73.9,392.86C73.76,394.33 73.58,395.8 73.38,397.27C73.18,398.74 72.95,400.22 72.7,401.69C72.45,403.16 72.17,404.66 71.87,406.1C71.58,407.5 71.28,408.79 70.945,410.21C70.58,411.73 70.18,413.39 69.76,414.93C69.35,416.43 68.91,417.94 68.48,419.34C68.08,420.62 67.51,422.22 67.27,422.99C67.16,423.34 67.16,423.4 67.04,423.76C66.75,424.63 66,426.7 65.43,428.17C64.85,429.66 64.22,431.18 63.57,432.655Q62.93,434.12 61.56,437" style="stroke-miterlimit: 1; vector-effect: non-scaling-stroke; fill: none; stroke: rgb(195, 161, 78); stroke-opacity: 1; stroke-width: 2px;"/><path class="openline" d="M370,54.4Q368.82,56.35 368.22,57.38C367.58,58.48 366.75,60.03 366.26,60.82C365.99,61.25 365.89,61.35 365.6,61.8C364.97,62.77 363.66,64.94 362.66499999999996,66.44C361.71,67.88 360.46,69.59 359.76,70.63C359.35,71.24 359.19,71.53 358.79,72.1C358.21,72.92 357.22,74.14 356.55,75.04C355.99,75.79 355.59,76.42 355.05,77.13C354.46,77.89 353.75,78.67 353.13,79.45C352.51,80.23 351.93,81.06 351.31,81.81C350.72,82.53 350.11,83.16 349.5,83.87C348.86,84.62 348.23,85.46 347.58,86.2C346.94,86.92 346.26,87.58 345.63,88.28C345.01,88.96 344.49,89.63 343.84,90.33C343.12,91.1 342.18,91.99 341.51,92.7C340.98,93.26 340.67,93.65 340.1,94.23C339.3,95.05 337.78,96.45 337.12,97.11C336.78,97.45 336.72,97.55 336.36,97.9C335.58,98.67 333.8,100.3 332.53499999999997,101.45C331.31,102.56 329.86,103.86 328.89,104.68C328.27,105.21 327.88,105.47 327.32,105.94C326.65,106.49 325.97,107.13 325.15,107.8C324.13,108.64 322.85,109.61 321.64,110.53999999999999C320.36,111.52 318.76,112.75 317.68,113.52C316.96,114.04 316.45,114.34 315.83,114.77C315.2,115.21 314.68,115.63 313.94,116.14C312.91,116.85 311.06,118.06 310.2,118.59C309.76,118.86 309.6,118.93 309.18,119.18C308.49,119.6 307.44,120.29 306.46,120.88C305.32,121.56 303.64,122.52 302.73,123C302.22,123.27 301.99,123.36 301.52,123.6C300.83,123.95 299.92,124.48 298.99,124.94C297.87,125.5 296.45,126.16 295.25,126.69C294.15,127.17 292.68,127.74 292.06,128.01C291.8,128.12 291.78,128.14 291.52,128.25C290.84,128.52 289.03,129.17 287.78,129.57C286.54,129.97 285.29,130.33 284.04,130.64C282.8,130.95 281.55,131.22 280.3,131.42C279.06,131.62 277.82,131.77 276.57,131.83C275.33,131.89 274.07,131.89 272.83,131.76C271.58,131.62 270.31,131.41 269.09,131.01C267.82,130.59 266.3,129.85 265.35,129.26C264.68,128.85 264.32,128.53 263.78,128.01C263.08,127.33 262.19,126.26 261.62,125.45C261.17,124.8 260.91,124.37 260.56,123.6C260.05,122.46 259.42,120.67 259.07,119.18C258.72,117.72 258.55,116.24 258.44,114.77C258.33,113.3 258.33,111.82 258.38,110.35C258.43,108.88 258.56,107.41 258.73,105.94C258.9,104.47 259.13,103 259.39,101.53C259.65,100.05 259.95,98.58 260.29,97.11C260.63,95.64 261.18,93.51 261.41,92.7C261.5,92.38 261.53,92.36 261.62,92.05C261.85,91.31 262.32,89.58 262.73,88.28C263.18,86.86 263.75,85.19 264.22,83.87C264.61,82.77 265.05,81.7 265.35,80.88C265.56,80.32 265.63,80.05 265.86,79.45C266.27,78.38 267.07,76.39 267.65,75.04C268.15,73.88 268.73,72.64 269.09,71.83C269.31,71.33 269.37,71.15 269.6,70.63C270.05,69.62 271.07,67.43 271.67,66.21C272.1,65.34 272.46,64.72 272.83,63.98C273.19,63.25 273.44,62.66 273.88,61.8C274.53,60.53 275.57,58.63 276.405,57.115C277.19,55.69 278.02,54.18 278.73,52.97C279.29,52.01 279.83,51.2 280.3,50.41C280.7,49.75 280.92,49.3 281.37,48.56C282.06,47.42 283.16,45.7 284.105,44.25C285.08,42.76 286.46,40.65 287.11,39.73C287.41,39.31 287.49,39.23 287.78,38.83C288.34,38.05 289.52,36.26 290.22,35.31C290.71,34.65 291.05,34.28 291.52,33.65C292.12,32.85 292.87,31.75 293.52,30.9C294.11,30.14 294.68,29.51 295.25,28.79C295.84,28.04 296.39,27.24 297.01,26.48C297.64,25.71 298.36,24.97 298.99,24.22C299.6,23.5 300.12,22.78 300.73,22.07C301.36,21.34 302.07,20.65 302.73,19.92C303.4,19.18 304.05,18.36 304.7,17.66C305.29,17.02 305.83,16.54 306.46,15.89C307.22,15.1 308.25,13.93 308.95,13.24C309.43,12.77 309.68,12.58 310.2,12.09C311.08,11.26 312.52,9.8 313.75,8.67C315.01,7.5 316.86,5.95 317.68,5.2C318.06,4.85 318.13,4.73 318.5,4.41C319.16,3.83 320.48,2.86 321.41,2.1Q322.29,1.39 323.94,0" style="stroke-miterlimit: 1; vector-effect: non-scaling-stroke; fill: none; stroke: rgb(195, 161, 78); stroke-opacity: 1; stroke-width: 2px;"/></g><g class="contourlevel"><path class="openline" d="M0,378.95Q2.49,377.96 3.74,377.55C4.98,377.15 6.22,376.8 7.47,376.5C8.71,376.2 9.96,375.95 11.21,375.75C12.45,375.55 13.96,375.37 14.95,375.28C15.6,375.22 15.99,375.23 16.56,375.2C17.22,375.17 17.89,375.1 18.69,375.09C19.74,375.08 21.08,375.11 22.3,375.205C23.57,375.3 24.89,375.45 26.16,375.67C27.42,375.89 28.66,376.17 29.9,376.53C31.16,376.9 32.43,377.34 33.64,377.87C34.86,378.4 36.01,378.98 37.195,379.725C38.5,380.55 40.15,381.83 41.11,382.65C41.73,383.17 42.02,383.48 42.54,384.03C43.24,384.77 44.22,385.95 44.85,386.76C45.32,387.38 45.58,387.72 46.02,388.44C46.72,389.59 47.81,391.54 48.5,393.07C49.14,394.48 49.61,395.84 50.06,397.27C50.51,398.71 50.89,400.21 51.2,401.69C51.51,403.15 51.74,404.61 51.93,406.1C52.12,407.6 52.24,409.17 52.32,410.66499999999996C52.4,412.11 52.43,413.69 52.42,414.93C52.41,415.88 52.35,416.67 52.32,417.45C52.3,418.13 52.31,418.58 52.26,419.34C52.19,420.51 52.03,422.29 51.86,423.76C51.69,425.23 51.47,426.7 51.22,428.17C50.96,429.65 50.67,431.12 50.33,432.59Q49.98,434.07 49.15,437" style="stroke-miterlimit: 1; vector-effect: non-scaling-stroke; fill: none; stroke: rgb(207, 188, 102); stroke-opacity: 1; stroke-width: 2px;"/><path class="openline" d="M370,48.8Q367.99,51.88 367.31,52.97C366.87,53.66 366.68,54.05 366.26,54.68C365.72,55.49 364.91,56.49 364.28,57.38C363.67,58.24 363.11,59.17 362.53,59.95C362.02,60.63 361.57,61.11 361.02,61.8C360.34,62.66 359.45,63.95 358.79,64.75C358.31,65.33 357.98,65.63 357.48,66.21C356.79,67.02 355.77,68.36 355.05,69.16C354.53,69.75 354.15,70.06 353.63,70.63C352.94,71.37 352.06,72.46 351.31,73.24C350.67,73.91 350.06,74.42 349.44,75.04C348.81,75.67 348.27,76.32 347.58,77C346.77,77.79 345.55,78.8 344.87,79.45C344.44,79.86 344.3,80.04 343.84,80.47C342.97,81.27 341.25,82.72 339.97,83.775C338.75,84.78 337.44,85.87 336.36,86.68C335.53,87.31 334.76,87.79 334.09,88.28C333.54,88.68 333.24,88.97 332.63,89.41C331.68,90.09 329.84,91.32 328.89,91.91C328.33,92.26 328.04,92.39 327.52,92.7C326.83,93.11 326.04,93.66 325.15,94.18C324.05,94.82 322.47,95.68 321.41,96.21C320.66,96.59 320.08,96.81 319.44,97.11C318.83,97.4 318.38,97.67 317.68,97.99C316.67,98.45 315.19,99.05 313.94,99.51C312.7,99.96 311.44,100.38 310.2,100.73C309.01,101.07 307.88,101.35 306.66999999999996,101.58C305.4,101.82 304.03,102.04 302.73,102.14C301.47,102.23 300.24,102.26 298.99,102.17C297.72,102.07 296.41,101.91 295.16999999999996,101.555C293.92,101.19 292.69,100.72 291.52,100.01C290.25,99.24 288.9,98.2 287.875,97C286.82,95.77 285.98,94.18 285.33,92.7C284.71,91.3 284.32,89.85 284.015,88.375C283.71,86.9 283.58,85.37 283.5,83.87C283.42,82.39 283.44,80.94 283.52,79.45C283.6,77.92 283.79,76.3 283.995,74.795C284.19,73.36 284.42,72.03 284.71,70.63C285.01,69.17 285.36,67.68 285.75,66.21C286.14,64.73 286.64,62.99 287.03,61.8C287.3,60.97 287.53,60.43 287.78,59.71C288.04,58.96 288.22,58.27 288.54,57.38C288.98,56.14 289.72,54.27 290.26,52.97C290.7,51.92 291.17,50.98 291.52,50.17C291.78,49.56 291.88,49.22 292.18,48.56C292.68,47.45 293.72,45.27 294.3,44.14C294.67,43.42 294.91,43.05 295.25,42.41C295.67,41.62 296.07,40.72 296.61,39.73C297.3,38.46 298.21,36.91 299.07,35.465C299.96,33.96 301.18,31.93 301.86,30.9C302.22,30.36 302.39,30.19 302.73,29.68C303.28,28.87 304.13,27.44 304.8,26.48C305.37,25.67 305.93,25.02 306.46,24.28C306.99,23.55 307.42,22.84 307.99,22.07C308.65,21.19 309.58,20.14 310.2,19.33C310.68,18.71 310.94,18.28 311.44,17.66C312.12,16.82 313.26,15.61 313.94,14.79C314.43,14.2 314.68,13.81 315.18,13.24C315.86,12.47 316.95,11.41 317.68,10.61C318.27,9.97 318.66,9.43 319.24,8.83C319.89,8.15 320.68,7.48 321.41,6.76C322.17,6.01 323.01,5.05 323.7,4.41C324.23,3.92 324.57,3.69 325.15,3.18Q326.07,2.37 328.68,0" style="stroke-miterlimit: 1; vector-effect: non-scaling-stroke; fill: none; stroke: rgb(207, 188, 102); stroke-opacity: 1; stroke-width: 2px;"/></g><g class="contourlevel"><path class="openline" d="M0,391.58Q2.49,391.29 3.74,391.25C4.98,391.21 6.23,391.22 7.47,391.31C8.72,391.4 9.95,391.55 11.21,391.78C12.53,392.03 13.93,392.38 15.21,392.77C16.42,393.14 17.53,393.54 18.69,394.06C19.93,394.62 21.41,395.43 22.42,396.04C23.14,396.48 23.62,396.83 24.22,397.27C24.86,397.74 25.47,398.19 26.16,398.8C27.05,399.59 28.4,400.97 29.07,401.69C29.44,402.09 29.56,402.23 29.9,402.66C30.51,403.45 31.68,405.05 32.34,406.1C32.87,406.93 33.24,407.64 33.64,408.4C34.02,409.12 34.31,409.68 34.68,410.52C35.2,411.71 35.89,413.47 36.36,414.93C36.8,416.31 37.14,417.61 37.45,419.03C37.78,420.54 38.08,422.21 38.29,423.76C38.49,425.25 38.61,426.7 38.68,428.17C38.75,429.64 38.78,431.12 38.74,432.59Q38.7,434.06 38.45,437" style="stroke-miterlimit: 1; vector-effect: non-scaling-stroke; fill: none; stroke: rgb(219, 216, 134); stroke-opacity: 1; stroke-width: 2px;"/><path class="openline" d="M370,44.09Q367.47,47.65 366.84,48.56C366.57,48.96 366.54,49.05 366.26,49.43C365.68,50.22 364.08,52.1 363.41,52.97C363.03,53.47 362.92,53.69 362.53,54.17C361.86,54.99 360.32,56.59 359.65,57.38C359.27,57.82 359.18,58 358.79,58.44C358.06,59.26 356.07,61.18 355.49,61.8C355.27,62.03 355.28,62.06 355.05,62.29C354.42,62.93 352,65.2 351.31,65.79C351.06,66.01 351.02,66 350.77,66.21C350.15,66.72 348.57,68.19 347.58,68.98C346.78,69.62 346,70.12 345.33,70.63C344.78,71.06 344.46,71.37 343.84,71.83C342.89,72.54 341,73.82 340.1,74.38C339.61,74.69 339.39,74.77 338.93,75.04C338.24,75.45 337.31,76.1 336.36,76.64C335.24,77.28 333.7,78.09 332.63,78.59C331.85,78.96 331.2,79.16 330.55,79.45C329.96,79.71 329.56,79.95 328.89,80.22C327.9,80.62 326.41,81.14 325.15,81.51C323.91,81.87 322.66,82.19 321.41,82.42C320.17,82.65 318.93,82.83 317.68,82.89C316.44,82.95 315.18,82.95 313.94,82.8C312.69,82.65 311.42,82.42 310.2,81.98C308.92,81.52 307.22,80.57 306.46,80.07C306.1,79.83 306.02,79.76 305.71,79.45C305.02,78.77 303.3,76.73 302.73,75.93C302.46,75.55 302.41,75.46 302.21,75.04C301.79,74.14 300.98,72.12 300.59,70.63C300.21,69.18 300.02,67.69 299.89,66.21C299.76,64.74 299.77,63.27 299.82,61.8C299.87,60.33 300.02,58.85 300.21,57.38C300.4,55.91 300.67,54.43 300.98,52.97C301.29,51.49 301.74,49.73 302.08,48.56C302.31,47.77 302.51,47.29 302.73,46.6C302.97,45.83 303.15,45.07 303.46,44.14C303.88,42.88 304.57,41.06 305.11,39.73C305.57,38.62 306.11,37.52 306.46,36.7C306.7,36.15 306.77,35.9 307.03,35.31C307.51,34.25 308.58,32.03 309.18,30.9C309.57,30.17 309.84,29.79 310.2,29.14C310.64,28.35 311.05,27.43 311.59,26.48C312.25,25.32 313.5,23.45 313.94,22.71C314.12,22.41 314.11,22.37 314.3,22.07C314.8,21.25 316.71,18.41 317.26,17.66C317.45,17.4 317.48,17.4 317.68,17.14C318.21,16.45 319.83,14.11 320.52,13.24C320.89,12.78 321.04,12.67 321.41,12.23C322.08,11.44 323.43,9.63 324.13,8.83C324.54,8.37 324.73,8.24 325.15,7.78C325.89,6.98 327.47,5.09 328.15,4.41C328.47,4.09 328.55,4.06 328.89,3.74Q329.67,3 332.67,0" style="stroke-miterlimit: 1; vector-effect: non-scaling-stroke; fill: none; stroke: rgb(219, 216, 134); stroke-opacity: 1; stroke-width: 2px;"/></g><g class="contourlevel"><path class="openline" d="M0,402.63Q2.5,403.01 3.74,403.33C4.99,403.65 6.26,404.07 7.47,404.55C8.67,405.03 9.79,405.56 10.97,406.225C12.28,406.96 13.87,408.02 14.95,408.83C15.75,409.43 16.3,409.94 16.93,410.52C17.54,411.08 18.08,411.58 18.69,412.23C19.42,413.01 20.31,414.08 20.97,414.93C21.53,415.65 21.95,416.28 22.42,417C22.91,417.75 23.35,418.41 23.85,419.34C24.54,420.62 25.43,422.51 26.055,424.04499999999996C26.62,425.45 27.06,426.76 27.47,428.17C27.88,429.61 28.24,431.11 28.51,432.59Q28.78,434.05 29.1,437" style="stroke-miterlimit: 1; vector-effect: non-scaling-stroke; fill: none; stroke: rgb(232, 245, 171); stroke-opacity: 1; stroke-width: 2px;"/><path class="openline" d="M370,40.06Q367.42,43.32 366.8,44.14C366.54,44.49 366.53,44.56 366.26,44.89C365.64,45.66 363.58,47.86 362.99,48.56C362.76,48.83 362.77,48.87 362.53,49.13C361.89,49.85 360.01,51.72 358.74,52.93C357.52,54.1 356.02,55.47 355.05,56.27C354.45,56.76 354.09,56.95 353.55,57.38C352.87,57.91 352.17,58.59 351.31,59.24C350.24,60.05 348.84,60.98 347.58,61.79C346.35,62.58 345.1,63.36 343.84,64.05C342.61,64.72 340.93,65.54 340.1,65.89C339.7,66.06 339.58,66.06 339.2,66.21C338.52,66.47 337.38,67.02 336.36,67.37C335.21,67.76 333.88,68.15 332.63,68.42C331.39,68.69 330.14,68.89 328.89,68.98C327.65,69.07 326.39,69.1 325.15,68.96C323.9,68.82 322.63,68.59 321.41,68.15C320.13,67.69 318.84,67.14 317.68,66.21C316.32,65.12 314.85,63.35 313.94,61.8C313.12,60.4 312.69,58.87 312.3,57.38C311.92,55.93 311.73,54.44 311.61,52.97C311.49,51.5 311.51,50.03 311.59,48.56C311.67,47.09 311.84,45.61 312.07,44.14C312.3,42.66 312.62,41.09 312.96,39.73C313.26,38.53 313.72,37.18 313.94,36.37C314.06,35.92 314.07,35.78 314.21,35.31C314.5,34.34 315.2,32.36 315.77,30.9C316.35,29.42 317.01,27.95 317.68,26.490000000000002C318.36,25.01 319.15,23.34 319.84,22.07C320.38,21.06 320.96,20.23 321.41,19.43C321.77,18.79 321.93,18.37 322.35,17.66C323.02,16.52 324.19,14.75 325.185,13.3C326.21,11.81 327.79,9.6 328.4,8.83C328.62,8.55 328.66,8.55 328.89,8.28C329.48,7.58 331.33,5.14 331.99,4.41C332.27,4.1 332.34,4.08 332.63,3.78Q333.33,3.05 336.09,0" style="stroke-miterlimit: 1; vector-effect: non-scaling-stroke; fill: none; stroke: rgb(232, 245, 171); stroke-opacity: 1; stroke-width: 2px;"/></g></g></g></g></g><g class="overplot"/><path class="xlines-above crisp" d="" style="fill: none; stroke-width: 1px; stroke: rgb(0, 0, 0); stroke-opacity: 0;"/><path class="ylines-above crisp" d="" style="fill: none; stroke-width: 1px; stroke: rgb(0, 0, 0); stroke-opacity: 0;"/><g class="overlines-above"/><g class="xaxislayer-above"><path class="xtick ticks crisp" d="M0,478v5" transform="translate(89.67,0)" style="stroke: rgb(51, 51, 51); stroke-opacity: 1; stroke-width: 1px;"/><path class="xtick ticks crisp" d="M0,478v5" transform="translate(171.89,0)" style="stroke: rgb(51, 51, 51); stroke-opacity: 1; stroke-width: 1px;"/><path class="xtick ticks crisp" d="M0,478v5" transform="translate(254.11,0)" style="stroke: rgb(51, 51, 51); stroke-opacity: 1; stroke-width: 1px;"/><path class="xtick ticks crisp" d="M0,478v5" transform="translate(336.33,0)" style="stroke: rgb(51, 51, 51); stroke-opacity: 1; stroke-width: 1px;"/><g class="xtick"><text text-anchor="middle" x="0" y="497.4" transform="translate(89.67,0)" style="font-family: 'Open Sans', verdana, arial, sans-serif; font-size: 12px; fill: rgb(51, 51, 51); fill-opacity: 1; white-space: pre; opacity: 1;">0.2</text></g><g class="xtick"><text text-anchor="middle" x="0" y="497.4" style="font-family: 'Open Sans', verdana, arial, sans-serif; font-size: 12px; fill: rgb(51, 51, 51); fill-opacity: 1; white-space: pre; opacity: 1;" transform="translate(171.89,0)">0.4</text></g><g class="xtick"><text text-anchor="middle" x="0" y="497.4" style="font-family: 'Open Sans', verdana, arial, sans-serif; font-size: 12px; fill: rgb(51, 51, 51); fill-opacity: 1; white-space: pre; opacity: 1;" transform="translate(254.11,0)">0.6</text></g><g class="xtick"><text text-anchor="middle" x="0" y="497.4" style="font-family: 'Open Sans', verdana, arial, sans-serif; font-size: 12px; fill: rgb(51, 51, 51); fill-opacity: 1; white-space: pre; opacity: 1;" transform="translate(336.33,0)">0.8</text></g></g><g class="yaxislayer-above"><path class="ytick ticks crisp" d="M27,0h-5" transform="translate(0,452.72)" style="stroke: rgb(51, 51, 51); stroke-opacity: 1; stroke-width: 1px;"/><path class="ytick ticks crisp" d="M27,0h-5" transform="translate(0,404.17)" style="stroke: rgb(51, 51, 51); stroke-opacity: 1; stroke-width: 1px;"/><path class="ytick ticks crisp" d="M27,0h-5" transform="translate(0,355.61)" style="stroke: rgb(51, 51, 51); stroke-opacity: 1; stroke-width: 1px;"/><path class="ytick ticks crisp" d="M27,0h-5" transform="translate(0,307.06)" style="stroke: rgb(51, 51, 51); stroke-opacity: 1; stroke-width: 1px;"/><path class="ytick ticks crisp" d="M27,0h-5" transform="translate(0,258.5)" style="stroke: rgb(51, 51, 51); stroke-opacity: 1; stroke-width: 1px;"/><path class="ytick ticks crisp" d="M27,0h-5" transform="translate(0,209.94)" style="stroke: rgb(51, 51, 51); stroke-opacity: 1; stroke-width: 1px;"/><path class="ytick ticks crisp" d="M27,0h-5" transform="translate(0,161.39)" style="stroke: rgb(51, 51, 51); stroke-opacity: 1; stroke-width: 1px;"/><path class="ytick ticks crisp" d="M27,0h-5" transform="translate(0,112.83)" style="stroke: rgb(51, 51, 51); stroke-opacity: 1; stroke-width: 1px;"/><path class="ytick ticks crisp" d="M27,0h-5" transform="translate(0,64.28)" style="stroke: rgb(51, 51, 51); stroke-opacity: 1; stroke-width: 1px;"/><g class="ytick"><text text-anchor="end" x="19.6" y="4.199999999999999" transform="translate(0,452.72)" style="font-family: 'Open Sans', verdana, arial, sans-serif; font-size: 12px; fill: rgb(51, 51, 51); fill-opacity: 1; white-space: pre; opacity: 1;">0.1</text></g><g class="ytick"><text text-anchor="end" x="19.6" y="4.199999999999999" style="font-family: 'Open Sans', verdana, arial, sans-serif; font-size: 12px; fill: rgb(51, 51, 51); fill-opacity: 1; white-space: pre; opacity: 1;" transform="translate(0,404.17)">0.2</text></g><g class="ytick"><text text-anchor="end" x="19.6" y="4.199999999999999" style="font-family: 'Open Sans', verdana, arial, sans-serif; font-size: 12px; fill: rgb(51, 51, 51); fill-opacity: 1; white-space: pre; opacity: 1;" transform="translate(0,355.61)">0.3</text></g><g class="ytick"><text text-anchor="end" x="19.6" y="4.199999999999999" style="font-family: 'Open Sans', verdana, arial, sans-serif; font-size: 12px; fill: rgb(51, 51, 51); fill-opacity: 1; white-space: pre; opacity: 1;" transform="translate(0,307.06)">0.4</text></g><g class="ytick"><text text-anchor="end" x="19.6" y="4.199999999999999" style="font-family: 'Open Sans', verdana, arial, sans-serif; font-size: 12px; fill: rgb(51, 51, 51); fill-opacity: 1; white-space: pre; opacity: 1;" transform="translate(0,258.5)">0.5</text></g><g class="ytick"><text text-anchor="end" x="19.6" y="4.199999999999999" style="font-family: 'Open Sans', verdana, arial, sans-serif; font-size: 12px; fill: rgb(51, 51, 51); fill-opacity: 1; white-space: pre; opacity: 1;" transform="translate(0,209.94)">0.6</text></g><g class="ytick"><text text-anchor="end" x="19.6" y="4.199999999999999" style="font-family: 'Open Sans', verdana, arial, sans-serif; font-size: 12px; fill: rgb(51, 51, 51); fill-opacity: 1; white-space: pre; opacity: 1;" transform="translate(0,161.39)">0.7</text></g><g class="ytick"><text text-anchor="end" x="19.6" y="4.199999999999999" style="font-family: 'Open Sans', verdana, arial, sans-serif; font-size: 12px; fill: rgb(51, 51, 51); fill-opacity: 1; white-space: pre; opacity: 1;" transform="translate(0,112.83)">0.8</text></g><g class="ytick"><text text-anchor="end" x="19.6" y="4.199999999999999" style="font-family: 'Open Sans', verdana, arial, sans-serif; font-size: 12px; fill: rgb(51, 51, 51); fill-opacity: 1; white-space: pre; opacity: 1;" transform="translate(0,64.28)">0.9</text></g></g><g class="overaxes-above"/></g></g><g class="polarlayer"/><g class="ternarylayer"/><g class="geolayer"/><g class="funnelarealayer"/><g class="pielayer"/><g class="iciclelayer"/><g class="treemaplayer"/><g class="sunburstlayer"/><g class="glimages"/><defs id="topdefs-579caf"><g class="clips"/></defs><g class="layer-above"><g class="imagelayer"/><g class="shapelayer"/></g><g class="infolayer"><g class="cb2445a5 colorbar" transform="translate(28,40)"><rect class="cbbg" x="377" y="0" width="94.65625" height="437" style="fill: rgb(0, 0, 0); fill-opacity: 0; stroke: rgb(68, 68, 68); stroke-opacity: 1; stroke-width: 0;"/><g class="cbfills" transform="translate(0,10)"/><g class="cblines" transform="translate(0,10)"><path class="cbline" d="M387,417h30" style="fill: none; stroke: rgb(34, 30, 27); stroke-opacity: 1; stroke-width: 2px;"/><path class="cbline" d="M387,375h30" style="fill: none; stroke: rgb(59, 46, 38); stroke-opacity: 1; stroke-width: 2px;"/><path class="cbline" d="M387,334h30" style="fill: none; stroke: rgb(85, 62, 47); stroke-opacity: 1; stroke-width: 2px;"/><path class="cbline" d="M387,292h30" style="fill: none; stroke: rgb(111, 77, 54); stroke-opacity: 1; stroke-width: 2px;"/><path class="cbline" d="M387,250h30" style="fill: none; stroke: rgb(138, 93, 57); stroke-opacity: 1; stroke-width: 2px;"/><path class="cbline" d="M387,209h30" style="fill: none; stroke: rgb(161, 112, 59); stroke-opacity: 1; stroke-width: 2px;"/><path class="cbline" d="M387,167h30" style="fill: none; stroke: rgb(180, 134, 64); stroke-opacity: 1; stroke-width: 2px;"/><path class="cbline" d="M387,125h30" style="fill: none; stroke: rgb(195, 160, 78); stroke-opacity: 1; stroke-width: 2px;"/><path class="cbline" d="M387,83h30" style="fill: none; stroke: rgb(207, 188, 102); stroke-opacity: 1; stroke-width: 2px;"/><path class="cbline" d="M387,42h30" style="fill: none; stroke: rgb(219, 216, 134); stroke-opacity: 1; stroke-width: 2px;"/><path class="cbline" d="M387,0h30" style="fill: none; stroke: rgb(232, 245, 171); stroke-opacity: 1; stroke-width: 2px;"/></g><g class="cbaxis crisp" transform="translate(0,-40)"><path class="ycb2445a5tick ticks crisp" d="M416.5,0h-6" transform="translate(0,383.6)" style="stroke: rgb(237, 237, 237); stroke-opacity: 1; stroke-width: 1px;"/><path class="ycb2445a5tick ticks crisp" d="M416.5,0h-6" transform="translate(0,300.2)" style="stroke: rgb(237, 237, 237); stroke-opacity: 1; stroke-width: 1px;"/><path class="ycb2445a5tick ticks crisp" d="M416.5,0h-6" transform="translate(0,216.8)" style="stroke: rgb(237, 237, 237); stroke-opacity: 1; stroke-width: 1px;"/><path class="ycb2445a5tick ticks crisp" d="M416.5,0h-6" transform="translate(0,133.40000000000003)" style="stroke: rgb(237, 237, 237); stroke-opacity: 1; stroke-width: 1px;"/><g class="ycb2445a5tick"><text text-anchor="start" x="419.9" y="4.199999999999999" transform="translate(0,467)" style="font-family: 'Open Sans', verdana, arial, sans-serif; font-size: 12px; fill: rgb(51, 51, 51); fill-opacity: 1; white-space: pre; opacity: 1;">0.081</text></g><g class="ycb2445a5tick"><text text-anchor="start" x="419.9" y="4.199999999999999" style="font-family: 'Open Sans', verdana, arial, sans-serif; font-size: 12px; fill: rgb(51, 51, 51); fill-opacity: 1; white-space: pre; opacity: 1;" transform="translate(0,383.6)">0.573</text></g><g class="ycb2445a5tick"><text text-anchor="start" x="419.9" y="4.199999999999999" style="font-family: 'Open Sans', verdana, arial, sans-serif; font-size: 12px; fill: rgb(51, 51, 51); fill-opacity: 1; white-space: pre; opacity: 1;" transform="translate(0,300.2)">1.064</text></g><g class="ycb2445a5tick"><text text-anchor="start" x="419.9" y="4.199999999999999" style="font-family: 'Open Sans', verdana, arial, sans-serif; font-size: 12px; fill: rgb(51, 51, 51); fill-opacity: 1; white-space: pre; opacity: 1;" transform="translate(0,216.8)">1.556</text></g><g class="ycb2445a5tick"><text text-anchor="start" x="419.9" y="4.199999999999999" style="font-family: 'Open Sans', verdana, arial, sans-serif; font-size: 12px; fill: rgb(51, 51, 51); fill-opacity: 1; white-space: pre; opacity: 1;" transform="translate(0,133.40000000000003)">2.047</text></g><g class="ycb2445a5tick"><text text-anchor="start" x="419.9" y="4.199999999999999" style="font-family: 'Open Sans', verdana, arial, sans-serif; font-size: 12px; fill: rgb(51, 51, 51); fill-opacity: 1; white-space: pre; opacity: 1;" transform="translate(0,50.000000000000014)">2.539</text></g></g><g class="cbtitleunshift" transform="translate(-28,-40)"><g class="cbtitle"/></g><rect class="cboutline" x="387" y="10" width="30" height="417" style="stroke: rgb(68, 68, 68); stroke-opacity: 1; fill: none; stroke-width: 0;"/></g><g class="g-gtitle"><text class="gtitle" x="250" y="20" text-anchor="middle" dy="0em" style="font-family: 'Open Sans', verdana, arial, sans-serif; font-size: 17px; fill: rgb(51, 51, 51); opacity: 1; font-weight: normal; white-space: pre;">Gumbel copula</text></g><g class="g-xtitle"/><g class="g-ytitle"/></g></svg>