<?xml version="1.0" encoding="utf-8" standalone="no"?>
<!DOCTYPE svg PUBLIC "-//W3C//DTD SVG 1.1//EN"
  "http://www.w3.org/Graphics/SVG/1.1/DTD/svg11.dtd">
<svg xmlns:xlink="http://www.w3.org/1999/xlink" width="544.32pt" height="544.32pt" viewBox="0 0 544.32 544.32" xmlns="http://www.w3.org/2000/svg" version="1.1">
 <metadata>
  <rdf:RDF xmlns:dc="http://purl.org/dc/elements/1.1/" xmlns:cc="http://creativecommons.org/ns#" xmlns:rdf="http://www.w3.org/1999/02/22-rdf-syntax-ns#">
   <cc:Work>
    <dc:type rdf:resource="http://purl.org/dc/dcmitype/StillImage"/>
    <dc:date>2022-05-29T03:23:15.302178</dc:date>
    <dc:format>image/svg+xml</dc:format>
    <dc:creator>
     <cc:Agent>
      <dc:title>Matplotlib v3.5.1, https://matplotlib.org/</dc:title>
     </cc:Agent>
    </dc:creator>
   </cc:Work>
  </rdf:RDF>
 </metadata>
 <defs>
  <style type="text/css">*{stroke-linejoin: round; stroke-linecap: butt}</style>
 </defs>
 <g id="figure_1">
  <g id="patch_1">
   <path d="M 0 544.32 
L 544.32 544.32 
L 544.32 0 
L 0 0 
z
" style="fill: #ffffff"/>
  </g>
  <g id="axes_1">
   <g id="patch_2">
    <path d="M 69.393528 235.328168 
L 262.44 235.328168 
L 262.44 22.0533 
L 69.393528 22.0533 
z
" style="fill: #e5e5e5"/>
   </g>
   <g id="matplotlib.axis_1">
    <g id="xtick_1">
     <g id="line2d_1">
      <path d="M 156.075417 235.328168 
L 156.075417 22.0533 
" clip-path="url(#p9156c22d00)" style="fill: none; stroke: #ffffff; stroke-width: 1.5; stroke-linecap: square"/>
     </g>
     <g id="line2d_2">
      <defs>
       <path id="mb8ab503ac0" d="M 0 0 
L 0 9 
" style="stroke: #555555; stroke-width: 1.875"/>
      </defs>
      <g>
       <use xlink:href="#mb8ab503ac0" x="156.075417" y="235.328168" style="fill: #555555; stroke: #555555; stroke-width: 1.875"/>
      </g>
     </g>
     <g id="text_1">
      <!-- $\mathdefault{2010}$ -->
      <g style="fill: #555555" transform="translate(139.979709 259.243673)scale(0.165 -0.165)">
       <defs>
        <path id="CMR17-32" d="M 2669 989 
L 2554 989 
C 2490 536 2438 459 2413 420 
C 2381 369 1920 369 1830 369 
L 602 369 
C 832 619 1280 1072 1824 1597 
C 2214 1967 2669 2402 2669 3035 
C 2669 3790 2067 4224 1395 4224 
C 691 4224 262 3604 262 3030 
C 262 2780 448 2748 525 2748 
C 589 2748 781 2787 781 3010 
C 781 3207 614 3264 525 3264 
C 486 3264 448 3258 422 3245 
C 544 3790 915 4058 1306 4058 
C 1862 4058 2227 3617 2227 3035 
C 2227 2479 1901 2000 1536 1584 
L 262 146 
L 262 0 
L 2515 0 
L 2669 989 
z
" transform="scale(0.015625)"/>
        <path id="CMR17-30" d="M 2688 2025 
C 2688 2416 2682 3080 2413 3591 
C 2176 4039 1798 4198 1466 4198 
C 1158 4198 768 4058 525 3597 
C 269 3118 243 2524 243 2025 
C 243 1661 250 1106 448 619 
C 723 -39 1216 -128 1466 -128 
C 1760 -128 2208 -7 2470 600 
C 2662 1042 2688 1559 2688 2025 
z
M 1466 -26 
C 1056 -26 813 325 723 812 
C 653 1188 653 1738 653 2096 
C 653 2588 653 2997 736 3387 
C 858 3929 1216 4096 1466 4096 
C 1728 4096 2067 3923 2189 3400 
C 2272 3036 2278 2607 2278 2096 
C 2278 1680 2278 1169 2202 792 
C 2067 95 1690 -26 1466 -26 
z
" transform="scale(0.015625)"/>
        <path id="CMR17-31" d="M 1702 4058 
C 1702 4192 1696 4192 1606 4192 
C 1357 3916 979 3827 621 3827 
C 602 3827 570 3827 563 3808 
C 557 3795 557 3782 557 3648 
C 755 3648 1088 3686 1344 3839 
L 1344 461 
C 1344 236 1331 160 781 160 
L 589 160 
L 589 0 
C 896 0 1216 0 1523 0 
C 1830 0 2150 0 2458 0 
L 2458 160 
L 2266 160 
C 1715 160 1702 230 1702 458 
L 1702 4058 
z
" transform="scale(0.015625)"/>
       </defs>
       <use xlink:href="#CMR17-32" transform="scale(0.996264)"/>
       <use xlink:href="#CMR17-30" transform="translate(45.690477 0)scale(0.996264)"/>
       <use xlink:href="#CMR17-31" transform="translate(91.380954 0)scale(0.996264)"/>
       <use xlink:href="#CMR17-30" transform="translate(137.071431 0)scale(0.996264)"/>
      </g>
     </g>
    </g>
    <g id="xtick_2">
     <g id="line2d_3">
      <defs>
       <path id="ma9c5bf98f5" d="M 0 0 
L 0 6 
" style="stroke: #555555; stroke-width: 1.5"/>
      </defs>
      <g>
       <use xlink:href="#ma9c5bf98f5" x="96.691343" y="235.328168" style="fill: #555555; stroke: #555555; stroke-width: 1.5"/>
      </g>
     </g>
    </g>
    <g id="xtick_3">
     <g id="line2d_4">
      <g>
       <use xlink:href="#ma9c5bf98f5" x="126.38338" y="235.328168" style="fill: #555555; stroke: #555555; stroke-width: 1.5"/>
      </g>
     </g>
    </g>
    <g id="xtick_4">
     <g id="line2d_5">
      <g>
       <use xlink:href="#ma9c5bf98f5" x="185.767454" y="235.328168" style="fill: #555555; stroke: #555555; stroke-width: 1.5"/>
      </g>
     </g>
    </g>
    <g id="xtick_5">
     <g id="line2d_6">
      <g>
       <use xlink:href="#ma9c5bf98f5" x="215.459491" y="235.328168" style="fill: #555555; stroke: #555555; stroke-width: 1.5"/>
      </g>
     </g>
    </g>
    <g id="xtick_6">
     <g id="line2d_7">
      <g>
       <use xlink:href="#ma9c5bf98f5" x="245.151528" y="235.328168" style="fill: #555555; stroke: #555555; stroke-width: 1.5"/>
      </g>
     </g>
    </g>
   </g>
   <g id="matplotlib.axis_2">
    <g id="ytick_1">
     <g id="line2d_8">
      <path d="M 69.393528 215.031979 
L 262.44 215.031979 
" clip-path="url(#p9156c22d00)" style="fill: none; stroke: #ffffff; stroke-width: 1.5; stroke-linecap: square"/>
     </g>
     <g id="line2d_9">
      <defs>
       <path id="m22de67c5ee" d="M 0 0 
L -9 0 
" style="stroke: #555555; stroke-width: 1.875"/>
      </defs>
      <g>
       <use xlink:href="#m22de67c5ee" x="69.393528" y="215.031979" style="fill: #555555; stroke: #555555; stroke-width: 1.875"/>
      </g>
     </g>
     <g id="text_2">
      <!-- $\mathdefault{−0.3}$ -->
      <g style="fill: #555555" transform="translate(23.541364 220.739732)scale(0.165 -0.165)">
       <defs>
        <path id="CMSY10-0" d="M 4218 1472 
C 4326 1472 4442 1472 4442 1600 
C 4442 1728 4326 1728 4218 1728 
L 755 1728 
C 646 1728 531 1728 531 1600 
C 531 1472 646 1472 755 1472 
L 4218 1472 
z
" transform="scale(0.015625)"/>
        <path id="CMMI12-3a" d="M 1178 307 
C 1178 492 1024 619 870 619 
C 685 619 557 466 557 313 
C 557 128 710 0 864 0 
C 1050 0 1178 153 1178 307 
z
" transform="scale(0.015625)"/>
        <path id="CMR17-33" d="M 1414 2157 
C 1984 2157 2234 1662 2234 1090 
C 2234 320 1824 25 1453 25 
C 1114 25 563 194 390 693 
C 422 680 454 680 486 680 
C 640 680 755 782 755 948 
C 755 1133 614 1216 486 1216 
C 378 1216 211 1165 211 926 
C 211 335 787 -128 1466 -128 
C 2176 -128 2720 430 2720 1085 
C 2720 1707 2208 2157 1600 2227 
C 2086 2328 2554 2756 2554 3329 
C 2554 3820 2048 4179 1472 4179 
C 890 4179 378 3829 378 3329 
C 378 3110 544 3072 627 3072 
C 762 3072 877 3155 877 3321 
C 877 3486 762 3569 627 3569 
C 602 3569 570 3569 544 3557 
C 730 3959 1235 4032 1459 4032 
C 1683 4032 2106 3925 2106 3320 
C 2106 3143 2080 2828 1862 2550 
C 1670 2304 1453 2304 1242 2284 
C 1210 2284 1062 2269 1037 2269 
C 992 2263 966 2257 966 2208 
C 966 2163 973 2157 1101 2157 
L 1414 2157 
z
" transform="scale(0.015625)"/>
       </defs>
       <use xlink:href="#CMSY10-0" transform="scale(0.996264)"/>
       <use xlink:href="#CMR17-30" transform="translate(77.487468 0)scale(0.996264)"/>
       <use xlink:href="#CMMI12-3a" transform="translate(123.177945 0)scale(0.996264)"/>
       <use xlink:href="#CMR17-33" transform="translate(150.275122 0)scale(0.996264)"/>
      </g>
     </g>
    </g>
    <g id="ytick_2">
     <g id="line2d_10">
      <path d="M 69.393528 177.409451 
L 262.44 177.409451 
" clip-path="url(#p9156c22d00)" style="fill: none; stroke: #ffffff; stroke-width: 1.5; stroke-linecap: square"/>
     </g>
     <g id="line2d_11">
      <g>
       <use xlink:href="#m22de67c5ee" x="69.393528" y="177.409451" style="fill: #555555; stroke: #555555; stroke-width: 1.875"/>
      </g>
     </g>
     <g id="text_3">
      <!-- $\mathdefault{−0.2}$ -->
      <g style="fill: #555555" transform="translate(23.541364 183.117203)scale(0.165 -0.165)">
       <use xlink:href="#CMSY10-0" transform="scale(0.996264)"/>
       <use xlink:href="#CMR17-30" transform="translate(77.487468 0)scale(0.996264)"/>
       <use xlink:href="#CMMI12-3a" transform="translate(123.177945 0)scale(0.996264)"/>
       <use xlink:href="#CMR17-32" transform="translate(150.275122 0)scale(0.996264)"/>
      </g>
     </g>
    </g>
    <g id="ytick_3">
     <g id="line2d_12">
      <path d="M 69.393528 139.786922 
L 262.44 139.786922 
" clip-path="url(#p9156c22d00)" style="fill: none; stroke: #ffffff; stroke-width: 1.5; stroke-linecap: square"/>
     </g>
     <g id="line2d_13">
      <g>
       <use xlink:href="#m22de67c5ee" x="69.393528" y="139.786922" style="fill: #555555; stroke: #555555; stroke-width: 1.875"/>
      </g>
     </g>
     <g id="text_4">
      <!-- $\mathdefault{−0.1}$ -->
      <g style="fill: #555555" transform="translate(23.541364 145.494674)scale(0.165 -0.165)">
       <use xlink:href="#CMSY10-0" transform="scale(0.996264)"/>
       <use xlink:href="#CMR17-30" transform="translate(77.487468 0)scale(0.996264)"/>
       <use xlink:href="#CMMI12-3a" transform="translate(123.177945 0)scale(0.996264)"/>
       <use xlink:href="#CMR17-31" transform="translate(150.275122 0)scale(0.996264)"/>
      </g>
     </g>
    </g>
    <g id="ytick_4">
     <g id="line2d_14">
      <path d="M 69.393528 102.164393 
L 262.44 102.164393 
" clip-path="url(#p9156c22d00)" style="fill: none; stroke: #ffffff; stroke-width: 1.5; stroke-linecap: square"/>
     </g>
     <g id="line2d_15">
      <g>
       <use xlink:href="#m22de67c5ee" x="69.393528" y="102.164393" style="fill: #555555; stroke: #555555; stroke-width: 1.875"/>
      </g>
     </g>
     <g id="text_5">
      <!-- $\mathdefault{0.0}$ -->
      <g style="fill: #555555" transform="translate(36.326793 107.872145)scale(0.165 -0.165)">
       <use xlink:href="#CMR17-30" transform="scale(0.996264)"/>
       <use xlink:href="#CMMI12-3a" transform="translate(45.690477 0)scale(0.996264)"/>
       <use xlink:href="#CMR17-30" transform="translate(72.787654 0)scale(0.996264)"/>
      </g>
     </g>
    </g>
    <g id="ytick_5">
     <g id="line2d_16">
      <path d="M 69.393528 64.541864 
L 262.44 64.541864 
" clip-path="url(#p9156c22d00)" style="fill: none; stroke: #ffffff; stroke-width: 1.5; stroke-linecap: square"/>
     </g>
     <g id="line2d_17">
      <g>
       <use xlink:href="#m22de67c5ee" x="69.393528" y="64.541864" style="fill: #555555; stroke: #555555; stroke-width: 1.875"/>
      </g>
     </g>
     <g id="text_6">
      <!-- $\mathdefault{0.1}$ -->
      <g style="fill: #555555" transform="translate(36.326793 70.249617)scale(0.165 -0.165)">
       <use xlink:href="#CMR17-30" transform="scale(0.996264)"/>
       <use xlink:href="#CMMI12-3a" transform="translate(45.690477 0)scale(0.996264)"/>
       <use xlink:href="#CMR17-31" transform="translate(72.787654 0)scale(0.996264)"/>
      </g>
     </g>
    </g>
    <g id="ytick_6">
     <g id="line2d_18">
      <path d="M 69.393528 26.919335 
L 262.44 26.919335 
" clip-path="url(#p9156c22d00)" style="fill: none; stroke: #ffffff; stroke-width: 1.5; stroke-linecap: square"/>
     </g>
     <g id="line2d_19">
      <g>
       <use xlink:href="#m22de67c5ee" x="69.393528" y="26.919335" style="fill: #555555; stroke: #555555; stroke-width: 1.875"/>
      </g>
     </g>
     <g id="text_7">
      <!-- $\mathdefault{0.2}$ -->
      <g style="fill: #555555" transform="translate(36.326793 32.627088)scale(0.165 -0.165)">
       <use xlink:href="#CMR17-30" transform="scale(0.996264)"/>
       <use xlink:href="#CMMI12-3a" transform="translate(45.690477 0)scale(0.996264)"/>
       <use xlink:href="#CMR17-32" transform="translate(72.787654 0)scale(0.996264)"/>
      </g>
     </g>
    </g>
    <g id="ytick_7">
     <g id="line2d_20">
      <defs>
       <path id="m08fbf860fb" d="M 0 0 
L -6 0 
" style="stroke: #555555; stroke-width: 1.5"/>
      </defs>
      <g>
       <use xlink:href="#m08fbf860fb" x="69.393528" y="230.080991" style="fill: #555555; stroke: #555555; stroke-width: 1.5"/>
      </g>
     </g>
    </g>
    <g id="ytick_8">
     <g id="line2d_21">
      <g>
       <use xlink:href="#m08fbf860fb" x="69.393528" y="222.556485" style="fill: #555555; stroke: #555555; stroke-width: 1.5"/>
      </g>
     </g>
    </g>
    <g id="ytick_9">
     <g id="line2d_22">
      <g>
       <use xlink:href="#m08fbf860fb" x="69.393528" y="207.507474" style="fill: #555555; stroke: #555555; stroke-width: 1.5"/>
      </g>
     </g>
    </g>
    <g id="ytick_10">
     <g id="line2d_23">
      <g>
       <use xlink:href="#m08fbf860fb" x="69.393528" y="199.982968" style="fill: #555555; stroke: #555555; stroke-width: 1.5"/>
      </g>
     </g>
    </g>
    <g id="ytick_11">
     <g id="line2d_24">
      <g>
       <use xlink:href="#m08fbf860fb" x="69.393528" y="192.458462" style="fill: #555555; stroke: #555555; stroke-width: 1.5"/>
      </g>
     </g>
    </g>
    <g id="ytick_12">
     <g id="line2d_25">
      <g>
       <use xlink:href="#m08fbf860fb" x="69.393528" y="184.933956" style="fill: #555555; stroke: #555555; stroke-width: 1.5"/>
      </g>
     </g>
    </g>
    <g id="ytick_13">
     <g id="line2d_26">
      <g>
       <use xlink:href="#m08fbf860fb" x="69.393528" y="169.884945" style="fill: #555555; stroke: #555555; stroke-width: 1.5"/>
      </g>
     </g>
    </g>
    <g id="ytick_14">
     <g id="line2d_27">
      <g>
       <use xlink:href="#m08fbf860fb" x="69.393528" y="162.360439" style="fill: #555555; stroke: #555555; stroke-width: 1.5"/>
      </g>
     </g>
    </g>
    <g id="ytick_15">
     <g id="line2d_28">
      <g>
       <use xlink:href="#m08fbf860fb" x="69.393528" y="154.835933" style="fill: #555555; stroke: #555555; stroke-width: 1.5"/>
      </g>
     </g>
    </g>
    <g id="ytick_16">
     <g id="line2d_29">
      <g>
       <use xlink:href="#m08fbf860fb" x="69.393528" y="147.311428" style="fill: #555555; stroke: #555555; stroke-width: 1.5"/>
      </g>
     </g>
    </g>
    <g id="ytick_17">
     <g id="line2d_30">
      <g>
       <use xlink:href="#m08fbf860fb" x="69.393528" y="132.262416" style="fill: #555555; stroke: #555555; stroke-width: 1.5"/>
      </g>
     </g>
    </g>
    <g id="ytick_18">
     <g id="line2d_31">
      <g>
       <use xlink:href="#m08fbf860fb" x="69.393528" y="124.73791" style="fill: #555555; stroke: #555555; stroke-width: 1.5"/>
      </g>
     </g>
    </g>
    <g id="ytick_19">
     <g id="line2d_32">
      <g>
       <use xlink:href="#m08fbf860fb" x="69.393528" y="117.213404" style="fill: #555555; stroke: #555555; stroke-width: 1.5"/>
      </g>
     </g>
    </g>
    <g id="ytick_20">
     <g id="line2d_33">
      <g>
       <use xlink:href="#m08fbf860fb" x="69.393528" y="109.688899" style="fill: #555555; stroke: #555555; stroke-width: 1.5"/>
      </g>
     </g>
    </g>
    <g id="ytick_21">
     <g id="line2d_34">
      <g>
       <use xlink:href="#m08fbf860fb" x="69.393528" y="94.639887" style="fill: #555555; stroke: #555555; stroke-width: 1.5"/>
      </g>
     </g>
    </g>
    <g id="ytick_22">
     <g id="line2d_35">
      <g>
       <use xlink:href="#m08fbf860fb" x="69.393528" y="87.115381" style="fill: #555555; stroke: #555555; stroke-width: 1.5"/>
      </g>
     </g>
    </g>
    <g id="ytick_23">
     <g id="line2d_36">
      <g>
       <use xlink:href="#m08fbf860fb" x="69.393528" y="79.590876" style="fill: #555555; stroke: #555555; stroke-width: 1.5"/>
      </g>
     </g>
    </g>
    <g id="ytick_24">
     <g id="line2d_37">
      <g>
       <use xlink:href="#m08fbf860fb" x="69.393528" y="72.06637" style="fill: #555555; stroke: #555555; stroke-width: 1.5"/>
      </g>
     </g>
    </g>
    <g id="ytick_25">
     <g id="line2d_38">
      <g>
       <use xlink:href="#m08fbf860fb" x="69.393528" y="57.017358" style="fill: #555555; stroke: #555555; stroke-width: 1.5"/>
      </g>
     </g>
    </g>
    <g id="ytick_26">
     <g id="line2d_39">
      <g>
       <use xlink:href="#m08fbf860fb" x="69.393528" y="49.492853" style="fill: #555555; stroke: #555555; stroke-width: 1.5"/>
      </g>
     </g>
    </g>
    <g id="ytick_27">
     <g id="line2d_40">
      <g>
       <use xlink:href="#m08fbf860fb" x="69.393528" y="41.968347" style="fill: #555555; stroke: #555555; stroke-width: 1.5"/>
      </g>
     </g>
    </g>
    <g id="ytick_28">
     <g id="line2d_41">
      <g>
       <use xlink:href="#m08fbf860fb" x="69.393528" y="34.443841" style="fill: #555555; stroke: #555555; stroke-width: 1.5"/>
      </g>
     </g>
    </g>
    <g id="text_8">
     <!-- logreturn -->
     <g style="fill: #555555" transform="translate(16.0533 161.484072)rotate(-90)scale(0.18 -0.18)">
      <defs>
       <path id="CMR17-6c" d="M 979 4396 
L 218 4326 
L 218 4160 
C 595 4160 653 4122 653 3817 
L 653 426 
C 653 184 627 153 218 153 
L 218 -13 
C 371 0 653 0 813 0 
C 979 0 1261 0 1414 -13 
L 1414 153 
C 1005 153 979 178 979 426 
L 979 4396 
z
" transform="scale(0.015625)"/>
       <path id="CMR17-6f" d="M 2758 1356 
C 2758 2176 2163 2816 1466 2816 
C 768 2816 173 2176 173 1356 
C 173 551 768 -64 1466 -64 
C 2163 -64 2758 551 2758 1356 
z
M 1466 51 
C 1165 51 909 230 762 480 
C 602 767 582 1126 582 1408 
C 582 1677 595 2010 762 2298 
C 890 2509 1139 2714 1466 2714 
C 1754 2714 1997 2554 2150 2330 
C 2349 2029 2349 1607 2349 1408 
C 2349 1158 2336 775 2163 467 
C 1984 173 1709 51 1466 51 
z
" transform="scale(0.015625)"/>
       <path id="CMR17-67" d="M 710 1164 
C 832 1068 1043 960 1299 960 
C 1805 960 2240 1357 2240 1888 
C 2240 2054 2189 2310 1997 2509 
C 2176 2692 2438 2752 2586 2752 
C 2611 2752 2650 2752 2682 2734 
C 2656 2728 2598 2703 2598 2605 
C 2598 2527 2656 2471 2739 2471 
C 2835 2471 2886 2533 2886 2614 
C 2886 2731 2790 2854 2586 2854 
C 2330 2854 2106 2738 1926 2580 
C 1734 2753 1504 2816 1299 2816 
C 794 2816 358 2419 358 1888 
C 358 1522 570 1292 634 1228 
C 442 1004 442 743 442 711 
C 442 545 506 302 723 168 
C 390 85 128 -169 128 -486 
C 128 -943 736 -1280 1466 -1280 
C 2170 -1280 2803 -956 2803 -479 
C 2803 384 1856 384 1363 384 
C 1216 384 954 384 922 391 
C 723 423 589 602 589 826 
C 589 883 589 1024 710 1164 
z
M 1299 1068 
C 736 1068 736 1760 736 1889 
C 736 2016 736 2708 1299 2708 
C 1862 2708 1862 2016 1862 1889 
C 1862 1760 1862 1068 1299 1068 
z
M 1466 -1171 
C 826 -1171 384 -835 384 -486 
C 384 -289 493 -105 634 -4 
C 794 104 858 104 1293 104 
C 1818 104 2547 104 2547 -486 
C 2547 -835 2106 -1171 1466 -1171 
z
" transform="scale(0.015625)"/>
       <path id="CMR17-72" d="M 960 1497 
C 960 2112 1222 2688 1702 2688 
C 1747 2688 1792 2682 1837 2662 
C 1837 2662 1696 2617 1696 2452 
C 1696 2298 1818 2234 1914 2234 
C 1990 2234 2131 2279 2131 2458 
C 2131 2663 1926 2790 1709 2790 
C 1222 2790 1011 2317 947 2093 
L 941 2093 
L 941 2790 
L 198 2720 
L 198 2554 
C 576 2554 634 2515 634 2208 
L 634 428 
C 634 184 608 153 198 153 
L 198 -13 
C 352 0 646 0 813 0 
C 998 0 1325 0 1498 -13 
L 1498 153 
C 1037 153 960 153 960 440 
L 960 1497 
z
" transform="scale(0.015625)"/>
       <path id="CMR17-65" d="M 2438 1472 
C 2464 1498 2464 1511 2464 1576 
C 2464 2238 2118 2816 1389 2816 
C 710 2816 173 2169 173 1383 
C 173 551 781 -64 1459 -64 
C 2176 -64 2458 607 2458 740 
C 2458 784 2419 784 2406 784 
C 2362 784 2355 771 2330 696 
C 2189 265 1837 51 1504 51 
C 1229 51 954 203 781 480 
C 582 803 582 1176 582 1472 
L 2438 1472 
z
M 589 1568 
C 634 2505 1126 2714 1382 2714 
C 1818 2714 2112 2297 2118 1568 
L 589 1568 
z
" transform="scale(0.015625)"/>
       <path id="CMR17-74" d="M 966 2560 
L 1862 2560 
L 1862 2725 
L 966 2725 
L 966 3904 
L 851 3904 
C 838 3245 614 2668 70 2668 
L 70 2560 
L 627 2560 
L 627 771 
C 627 650 627 -64 1370 -64 
C 1747 -64 1965 306 1965 777 
L 1965 1140 
L 1850 1140 
L 1850 783 
C 1850 344 1677 51 1408 51 
C 1222 51 966 178 966 758 
L 966 2560 
z
" transform="scale(0.015625)"/>
       <path id="CMR17-75" d="M 1882 2693 
L 1882 2528 
C 2259 2528 2317 2489 2317 2186 
L 2317 1032 
C 2317 500 2029 38 1555 38 
C 1030 38 986 348 986 678 
L 986 2763 
L 211 2693 
L 211 2528 
C 467 2528 640 2528 646 2274 
L 646 1058 
C 646 633 646 361 813 183 
C 896 101 1056 -64 1517 -64 
C 2061 -64 2272 377 2323 506 
L 2330 506 
L 2330 -63 
L 3091 -63 
L 3091 128 
C 2714 128 2656 166 2656 473 
L 2656 2763 
L 1882 2693 
z
" transform="scale(0.015625)"/>
       <path id="CMR17-6e" d="M 2656 1933 
C 2656 2259 2592 2790 1837 2790 
C 1331 2790 1069 2400 973 2144 
L 966 2144 
L 966 2790 
L 211 2720 
L 211 2554 
C 589 2554 646 2515 646 2208 
L 646 428 
C 646 184 621 153 211 153 
L 211 -13 
C 365 0 646 0 813 0 
C 979 0 1267 0 1421 -13 
L 1421 153 
C 1011 153 986 178 986 428 
L 986 1658 
C 986 2247 1344 2688 1792 2688 
C 2266 2688 2317 2266 2317 1958 
L 2317 428 
C 2317 184 2291 153 1882 153 
L 1882 -13 
C 2035 0 2317 0 2483 0 
C 2650 0 2938 0 3091 -13 
L 3091 153 
C 2682 153 2656 178 2656 428 
L 2656 1933 
z
" transform="scale(0.015625)"/>
      </defs>
      <use xlink:href="#CMR17-6c" transform="scale(0.996264)"/>
      <use xlink:href="#CMR17-6f" transform="translate(24.871058 0)scale(0.996264)"/>
      <use xlink:href="#CMR17-67" transform="translate(70.561536 0)scale(0.996264)"/>
      <use xlink:href="#CMR17-72" transform="translate(116.252013 0)scale(0.996264)"/>
      <use xlink:href="#CMR17-65" transform="translate(151.532781 0)scale(0.996264)"/>
      <use xlink:href="#CMR17-74" transform="translate(192.018441 0)scale(0.996264)"/>
      <use xlink:href="#CMR17-75" transform="translate(227.299209 0)scale(0.996264)"/>
      <use xlink:href="#CMR17-72" transform="translate(278.194579 0)scale(0.996264)"/>
      <use xlink:href="#CMR17-6e" transform="translate(313.475346 0)scale(0.996264)"/>
     </g>
    </g>
   </g>
   <g id="line2d_42">
    <path d="M 78.168367 101.387565 
L 78.840353 76.145946 
L 79.490663 108.283143 
L 80.162649 115.870188 
L 80.812958 129.135236 
L 81.484944 132.148333 
L 82.156931 55.93909 
L 82.80724 111.594661 
L 83.479226 119.710232 
L 84.129535 72.913662 
L 84.801522 100.902514 
L 85.473508 139.693535 
L 86.080463 105.619044 
L 86.752449 124.988403 
L 87.402759 94.559234 
L 88.074745 90.515621 
L 89.39704 74.398878 
L 90.069027 123.03656 
L 90.719336 129.067749 
L 91.391322 115.876157 
L 92.041632 94.122892 
L 92.713618 121.707318 
L 93.385604 94.88025 
L 93.992559 94.290025 
L 94.664546 71.823116 
L 95.314855 110.471159 
L 95.986841 69.021563 
L 96.63715 86.556255 
L 97.309137 83.88601 
L 97.981123 108.365113 
L 98.631432 103.437576 
L 99.303418 88.291205 
L 99.953728 93.949541 
L 100.625714 110.611863 
L 101.2977 103.429689 
L 101.904655 94.635674 
L 102.576642 102.753319 
L 103.226951 69.56497 
L 103.898937 103.367353 
L 104.549246 107.534147 
L 105.221233 164.317797 
L 105.893219 55.894151 
L 106.543528 50.403687 
L 107.215514 40.885973 
L 107.865824 121.933302 
L 108.53781 84.312047 
L 109.209796 89.797425 
L 109.838428 51.152586 
L 110.510415 80.170307 
L 111.160724 93.862494 
L 111.83271 186.005697 
L 112.483019 106.53429 
L 113.155006 225.633856 
L 113.826992 72.375054 
L 114.477301 167.682009 
L 115.149287 98.399623 
L 115.799597 100.436726 
L 116.471583 93.402443 
L 117.143569 125.267299 
L 117.750524 31.747612 
L 118.422511 98.065118 
L 119.07282 103.756597 
L 119.744806 70.204523 
L 120.395115 116.309019 
L 121.067102 90.405512 
L 121.739088 149.302173 
L 122.389397 117.027482 
L 123.061383 101.836385 
L 123.711693 112.636548 
L 124.383679 67.903334 
L 125.055665 112.745402 
L 125.66262 104.068532 
L 126.334607 114.946443 
L 126.984916 84.954252 
L 127.656902 114.144559 
L 128.307211 89.493098 
L 128.979198 111.732248 
L 129.651184 122.844043 
L 130.301493 105.958983 
L 130.973479 42.582054 
L 131.623789 77.17654 
L 132.295775 97.257037 
L 132.967761 88.859425 
L 133.574716 69.552721 
L 134.246703 113.554967 
L 134.897012 112.765107 
L 135.568998 69.956289 
L 136.219307 80.253162 
L 136.891294 108.736957 
L 137.56328 84.743849 
L 138.213589 57.205654 
L 138.885575 90.4499 
L 139.535885 81.617738 
L 140.207871 59.029952 
L 140.879857 82.998596 
L 141.508489 32.538648 
L 142.180476 195.314257 
L 142.830785 67.859274 
L 143.502771 87.549817 
L 144.15308 42.128756 
L 144.825067 153.728618 
L 145.497053 121.241496 
L 146.147362 191.648939 
L 146.819348 145.441457 
L 147.469658 122.261336 
L 148.141644 63.546942 
L 148.81363 101.568872 
L 149.420585 145.877978 
L 150.092572 69.356652 
L 150.742881 62.446072 
L 151.414867 59.8322 
L 152.065176 116.197694 
L 152.737163 129.043565 
L 153.409149 123.443841 
L 154.059458 132.034893 
L 154.731444 82.477142 
L 155.381754 71.233463 
L 156.05374 107.074272 
L 156.725726 153.186123 
L 157.332682 84.082816 
L 158.004668 109.293085 
L 158.654977 80.377967 
L 159.326963 125.252465 
L 159.977273 103.470558 
L 160.649259 69.190386 
L 161.321245 106.056989 
L 161.971554 67.599229 
L 162.64354 61.218616 
L 163.29385 99.430406 
L 163.965836 57.105577 
L 164.637822 98.995908 
L 165.244778 115.649642 
L 165.916764 89.412072 
L 166.567073 106.592202 
L 167.239059 106.986554 
L 167.889369 123.294275 
L 168.561355 88.308993 
L 169.233341 73.680272 
L 169.88365 181.506151 
L 170.555637 90.75561 
L 171.205946 129.127611 
L 171.877932 78.122483 
L 172.549918 104.323287 
L 173.178551 66.363349 
L 173.850537 78.851067 
L 174.500846 75.760866 
L 175.172832 145.852909 
L 175.823142 62.762424 
L 176.495128 58.82898 
L 177.167114 82.732506 
L 177.817423 137.381054 
L 178.48941 114.732686 
L 179.139719 129.797184 
L 180.483691 87.230214 
L 181.090647 105.212643 
L 181.762633 115.813819 
L 182.412942 100.027882 
L 183.084928 77.118515 
L 184.407224 152.664153 
L 185.07921 74.789448 
L 185.729519 127.14135 
L 187.051815 82.681315 
L 187.723801 113.596348 
L 188.395787 106.17575 
L 189.002743 65.500593 
L 189.674729 89.103925 
L 190.325038 88.946201 
L 190.997024 107.939895 
L 191.647334 141.810682 
L 192.31932 169.15488 
L 192.991306 132.599194 
L 193.641615 150.083003 
L 194.313602 50.133596 
L 194.963911 114.08244 
L 195.635897 99.838703 
L 196.307883 125.428608 
L 196.914839 75.602507 
L 197.586825 123.960792 
L 198.237134 100.910147 
L 198.90912 118.905783 
L 199.55943 57.815633 
L 200.231416 136.673389 
L 200.903402 130.370321 
L 201.553711 101.10847 
L 202.225698 104.979719 
L 202.876007 104.017461 
L 203.547993 108.777288 
L 204.219979 95.018072 
L 204.848612 112.036917 
L 205.520598 80.330548 
L 206.170907 56.602754 
L 206.842893 84.122126 
L 207.493203 70.115193 
L 208.165189 154.274142 
L 208.837175 131.261873 
L 209.487484 99.155208 
L 210.159471 80.759652 
L 210.80978 93.910356 
L 211.481766 113.166727 
L 212.153752 93.997366 
L 212.760708 98.837371 
L 213.432694 135.483117 
L 214.083003 98.976444 
L 214.754989 117.476655 
L 215.405299 90.020195 
L 216.077285 81.863754 
L 216.749271 123.500424 
L 217.39958 92.402495 
L 218.721876 100.941082 
L 219.393862 112.220872 
L 220.065848 88.310503 
L 220.672804 80.989649 
L 221.34479 105.266523 
L 221.995099 101.588657 
L 222.667085 112.313808 
L 223.317395 164.712256 
L 223.989381 82.926541 
L 224.661367 130.720584 
L 225.311676 100.335563 
L 225.983663 100.521582 
L 226.633972 82.506765 
L 227.305958 103.111667 
L 227.977944 92.694525 
L 228.5849 105.280789 
L 229.256886 112.011751 
L 229.907195 116.385351 
L 230.579182 90.71923 
L 231.229491 91.265284 
L 231.901477 117.265976 
L 232.573463 102.771698 
L 233.223773 85.436741 
L 233.895759 92.671897 
L 234.546068 124.003632 
L 235.218054 70.789832 
L 235.89004 135.367121 
L 236.518673 94.312747 
L 237.190659 104.239365 
L 237.840968 115.894005 
L 238.512955 108.157489 
L 239.163264 85.062287 
L 239.83525 97.131133 
L 240.507236 77.13126 
L 241.157546 75.333496 
L 241.829532 90.296701 
L 242.479841 64.184962 
L 243.151827 58.628551 
L 243.823813 85.846605 
L 244.430769 92.820828 
L 245.102755 93.609838 
L 245.753064 75.66413 
L 246.425051 104.883132 
L 247.07536 126.666718 
L 247.747346 120.070152 
L 248.419332 122.980781 
L 249.741628 104.945414 
L 250.391937 111.173465 
L 251.063923 66.819432 
L 251.73591 61.317181 
L 252.342865 66.604721 
L 253.014851 106.785674 
L 253.66516 85.964992 
L 253.66516 85.964992 
" clip-path="url(#p9156c22d00)" style="fill: none; stroke: #4d3c2f; stroke-width: 2.25; stroke-linecap: square"/>
   </g>
   <g id="patch_3">
    <path d="M 69.393528 235.328168 
L 69.393528 22.0533 
" style="fill: none; stroke: #ffffff; stroke-width: 1.875; stroke-linejoin: miter; stroke-linecap: square"/>
   </g>
   <g id="patch_4">
    <path d="M 69.393528 235.328168 
L 262.44 235.328168 
" style="fill: none; stroke: #ffffff; stroke-width: 1.875; stroke-linejoin: miter; stroke-linecap: square"/>
   </g>
   <g id="text_9">
    <!-- Soybean -->
    <g transform="translate(135.960686 16.0533)scale(0.18 -0.18)">
     <defs>
      <path id="CMR17-53" d="M 2803 4290 
C 2803 4404 2797 4411 2758 4411 
C 2720 4411 2707 4385 2682 4328 
L 2490 3907 
C 2246 4257 1875 4416 1472 4416 
C 819 4416 294 3901 294 3253 
C 294 3056 339 2776 557 2510 
C 794 2218 1018 2167 1530 2033 
C 1722 1982 2042 1899 2106 1874 
C 2470 1722 2662 1341 2662 985 
C 2662 527 2336 38 1779 38 
C 1094 38 454 419 410 1311 
C 403 1413 397 1419 352 1419 
C 301 1419 294 1413 294 1285 
L 294 -1 
C 294 -115 301 -122 339 -122 
C 384 -122 397 -90 486 108 
C 493 127 493 140 614 381 
C 934 -39 1472 -128 1779 -128 
C 2477 -128 2970 451 2970 1124 
C 2970 1454 2848 1708 2778 1823 
C 2509 2230 2221 2306 1914 2382 
C 1869 2402 1856 2402 1498 2490 
C 1152 2579 1005 2624 845 2796 
C 666 2992 602 3196 602 3399 
C 602 3812 934 4263 1478 4263 
C 2157 4263 2579 3786 2675 2993 
C 2694 2878 2701 2872 2746 2872 
C 2803 2872 2803 2891 2803 2999 
L 2803 4290 
z
" transform="scale(0.015625)"/>
      <path id="CMR17-79" d="M 2496 2197 
C 2656 2586 2944 2586 3034 2586 
L 3034 2752 
C 2912 2752 2752 2752 2630 2752 
C 2496 2752 2285 2752 2157 2758 
L 2157 2592 
C 2400 2573 2406 2394 2406 2343 
C 2406 2280 2394 2248 2362 2171 
L 1664 449 
L 902 2306 
C 870 2382 870 2426 870 2433 
C 870 2573 1018 2586 1171 2586 
L 1171 2758 
C 1018 2752 742 2752 582 2752 
C 410 2752 205 2752 64 2758 
L 64 2586 
C 410 2586 448 2554 531 2350 
L 1485 15 
C 1197 -738 1030 -1178 627 -1178 
C 557 -1178 397 -1159 282 -1044 
C 429 -1031 493 -942 493 -833 
C 493 -725 416 -629 288 -629 
C 147 -629 77 -725 77 -840 
C 77 -1095 339 -1280 627 -1280 
C 998 -1280 1229 -922 1357 -604 
L 2496 2197 
z
" transform="scale(0.015625)"/>
      <path id="CMR17-62" d="M 960 4396 
L 198 4326 
L 198 4160 
C 576 4160 634 4122 634 3817 
L 634 -13 
L 749 -13 
L 934 441 
C 1120 141 1395 -64 1766 -64 
C 2406 -64 3053 500 3053 1370 
C 3053 2188 2477 2790 1830 2790 
C 1434 2790 1152 2579 960 2330 
L 960 4396 
z
M 973 2004 
C 973 2118 973 2138 1062 2272 
C 1312 2657 1670 2688 1792 2688 
C 1984 2688 2643 2585 2643 1376 
C 2643 108 1888 38 1734 38 
C 1536 38 1248 114 1043 486 
C 973 608 973 621 973 735 
L 973 2004 
z
" transform="scale(0.015625)"/>
      <path id="CMR17-61" d="M 2304 1653 
C 2304 2072 2304 2294 2035 2543 
C 1798 2752 1523 2816 1306 2816 
C 800 2816 435 2407 435 1971 
C 435 1728 627 1728 666 1728 
C 749 1728 896 1778 896 1954 
C 896 2112 774 2181 666 2181 
C 640 2181 608 2174 589 2168 
C 723 2592 1069 2714 1293 2714 
C 1613 2714 1965 2429 1965 1885 
L 1965 1600 
C 1587 1600 1133 1549 774 1357 
C 371 1133 256 813 256 570 
C 256 77 832 -64 1171 -64 
C 1523 -64 1850 139 1990 511 
C 2003 233 2182 -18 2464 -18 
C 2598 -18 2938 70 2938 567 
L 2938 920 
L 2822 920 
L 2822 562 
C 2822 178 2650 128 2566 128 
C 2304 128 2304 458 2304 738 
L 2304 1653 
z
M 1965 870 
C 1965 317 1568 38 1216 38 
C 896 38 646 275 646 570 
C 646 761 730 1100 1101 1305 
C 1408 1478 1760 1504 1965 1504 
L 1965 870 
z
" transform="scale(0.015625)"/>
     </defs>
     <use xlink:href="#CMR17-53" transform="scale(0.996264)"/>
     <use xlink:href="#CMR17-6f" transform="translate(50.89537 0)scale(0.996264)"/>
     <use xlink:href="#CMR17-79" transform="translate(93.983393 0)scale(0.996264)"/>
     <use xlink:href="#CMR17-62" transform="translate(142.276309 0)scale(0.996264)"/>
     <use xlink:href="#CMR17-65" transform="translate(195.774117 0)scale(0.996264)"/>
     <use xlink:href="#CMR17-61" transform="translate(236.259778 0)scale(0.996264)"/>
     <use xlink:href="#CMR17-6e" transform="translate(281.950255 0)scale(0.996264)"/>
    </g>
   </g>
  </g>
  <g id="axes_2">
   <g id="patch_5">
    <path d="M 347.673528 235.328168 
L 540.72 235.328168 
L 540.72 22.0533 
L 347.673528 22.0533 
z
" style="fill: #e5e5e5"/>
   </g>
   <g id="matplotlib.axis_3">
    <g id="xtick_7">
     <g id="line2d_43">
      <path d="M 434.355417 235.328168 
L 434.355417 22.0533 
" clip-path="url(#pfbf07b1330)" style="fill: none; stroke: #ffffff; stroke-width: 1.5; stroke-linecap: square"/>
     </g>
     <g id="line2d_44">
      <g>
       <use xlink:href="#mb8ab503ac0" x="434.355417" y="235.328168" style="fill: #555555; stroke: #555555; stroke-width: 1.875"/>
      </g>
     </g>
     <g id="text_10">
      <!-- $\mathdefault{2010}$ -->
      <g style="fill: #555555" transform="translate(418.259709 259.243673)scale(0.165 -0.165)">
       <use xlink:href="#CMR17-32" transform="scale(0.996264)"/>
       <use xlink:href="#CMR17-30" transform="translate(45.690477 0)scale(0.996264)"/>
       <use xlink:href="#CMR17-31" transform="translate(91.380954 0)scale(0.996264)"/>
       <use xlink:href="#CMR17-30" transform="translate(137.071431 0)scale(0.996264)"/>
      </g>
     </g>
    </g>
    <g id="xtick_8">
     <g id="line2d_45">
      <g>
       <use xlink:href="#ma9c5bf98f5" x="374.971343" y="235.328168" style="fill: #555555; stroke: #555555; stroke-width: 1.5"/>
      </g>
     </g>
    </g>
    <g id="xtick_9">
     <g id="line2d_46">
      <g>
       <use xlink:href="#ma9c5bf98f5" x="404.66338" y="235.328168" style="fill: #555555; stroke: #555555; stroke-width: 1.5"/>
      </g>
     </g>
    </g>
    <g id="xtick_10">
     <g id="line2d_47">
      <g>
       <use xlink:href="#ma9c5bf98f5" x="464.047454" y="235.328168" style="fill: #555555; stroke: #555555; stroke-width: 1.5"/>
      </g>
     </g>
    </g>
    <g id="xtick_11">
     <g id="line2d_48">
      <g>
       <use xlink:href="#ma9c5bf98f5" x="493.739491" y="235.328168" style="fill: #555555; stroke: #555555; stroke-width: 1.5"/>
      </g>
     </g>
    </g>
    <g id="xtick_12">
     <g id="line2d_49">
      <g>
       <use xlink:href="#ma9c5bf98f5" x="523.431528" y="235.328168" style="fill: #555555; stroke: #555555; stroke-width: 1.5"/>
      </g>
     </g>
    </g>
   </g>
   <g id="matplotlib.axis_4">
    <g id="ytick_29">
     <g id="line2d_50">
      <path d="M 347.673528 229.840097 
L 540.72 229.840097 
" clip-path="url(#pfbf07b1330)" style="fill: none; stroke: #ffffff; stroke-width: 1.5; stroke-linecap: square"/>
     </g>
     <g id="line2d_51">
      <g>
       <use xlink:href="#m22de67c5ee" x="347.673528" y="229.840097" style="fill: #555555; stroke: #555555; stroke-width: 1.875"/>
      </g>
     </g>
     <g id="text_11">
      <!-- $\mathdefault{−0.3}$ -->
      <g style="fill: #555555" transform="translate(301.821364 235.54785)scale(0.165 -0.165)">
       <use xlink:href="#CMSY10-0" transform="scale(0.996264)"/>
       <use xlink:href="#CMR17-30" transform="translate(77.487468 0)scale(0.996264)"/>
       <use xlink:href="#CMMI12-3a" transform="translate(123.177945 0)scale(0.996264)"/>
       <use xlink:href="#CMR17-33" transform="translate(150.275122 0)scale(0.996264)"/>
      </g>
     </g>
    </g>
    <g id="ytick_30">
     <g id="line2d_52">
      <path d="M 347.673528 193.547342 
L 540.72 193.547342 
" clip-path="url(#pfbf07b1330)" style="fill: none; stroke: #ffffff; stroke-width: 1.5; stroke-linecap: square"/>
     </g>
     <g id="line2d_53">
      <g>
       <use xlink:href="#m22de67c5ee" x="347.673528" y="193.547342" style="fill: #555555; stroke: #555555; stroke-width: 1.875"/>
      </g>
     </g>
     <g id="text_12">
      <!-- $\mathdefault{−0.2}$ -->
      <g style="fill: #555555" transform="translate(301.821364 199.255094)scale(0.165 -0.165)">
       <use xlink:href="#CMSY10-0" transform="scale(0.996264)"/>
       <use xlink:href="#CMR17-30" transform="translate(77.487468 0)scale(0.996264)"/>
       <use xlink:href="#CMMI12-3a" transform="translate(123.177945 0)scale(0.996264)"/>
       <use xlink:href="#CMR17-32" transform="translate(150.275122 0)scale(0.996264)"/>
      </g>
     </g>
    </g>
    <g id="ytick_31">
     <g id="line2d_54">
      <path d="M 347.673528 157.254587 
L 540.72 157.254587 
" clip-path="url(#pfbf07b1330)" style="fill: none; stroke: #ffffff; stroke-width: 1.5; stroke-linecap: square"/>
     </g>
     <g id="line2d_55">
      <g>
       <use xlink:href="#m22de67c5ee" x="347.673528" y="157.254587" style="fill: #555555; stroke: #555555; stroke-width: 1.875"/>
      </g>
     </g>
     <g id="text_13">
      <!-- $\mathdefault{−0.1}$ -->
      <g style="fill: #555555" transform="translate(301.821364 162.962339)scale(0.165 -0.165)">
       <use xlink:href="#CMSY10-0" transform="scale(0.996264)"/>
       <use xlink:href="#CMR17-30" transform="translate(77.487468 0)scale(0.996264)"/>
       <use xlink:href="#CMMI12-3a" transform="translate(123.177945 0)scale(0.996264)"/>
       <use xlink:href="#CMR17-31" transform="translate(150.275122 0)scale(0.996264)"/>
      </g>
     </g>
    </g>
    <g id="ytick_32">
     <g id="line2d_56">
      <path d="M 347.673528 120.961831 
L 540.72 120.961831 
" clip-path="url(#pfbf07b1330)" style="fill: none; stroke: #ffffff; stroke-width: 1.5; stroke-linecap: square"/>
     </g>
     <g id="line2d_57">
      <g>
       <use xlink:href="#m22de67c5ee" x="347.673528" y="120.961831" style="fill: #555555; stroke: #555555; stroke-width: 1.875"/>
      </g>
     </g>
     <g id="text_14">
      <!-- $\mathdefault{0.0}$ -->
      <g style="fill: #555555" transform="translate(314.606793 126.669583)scale(0.165 -0.165)">
       <use xlink:href="#CMR17-30" transform="scale(0.996264)"/>
       <use xlink:href="#CMMI12-3a" transform="translate(45.690477 0)scale(0.996264)"/>
       <use xlink:href="#CMR17-30" transform="translate(72.787654 0)scale(0.996264)"/>
      </g>
     </g>
    </g>
    <g id="ytick_33">
     <g id="line2d_58">
      <path d="M 347.673528 84.669076 
L 540.72 84.669076 
" clip-path="url(#pfbf07b1330)" style="fill: none; stroke: #ffffff; stroke-width: 1.5; stroke-linecap: square"/>
     </g>
     <g id="line2d_59">
      <g>
       <use xlink:href="#m22de67c5ee" x="347.673528" y="84.669076" style="fill: #555555; stroke: #555555; stroke-width: 1.875"/>
      </g>
     </g>
     <g id="text_15">
      <!-- $\mathdefault{0.1}$ -->
      <g style="fill: #555555" transform="translate(314.606793 90.376828)scale(0.165 -0.165)">
       <use xlink:href="#CMR17-30" transform="scale(0.996264)"/>
       <use xlink:href="#CMMI12-3a" transform="translate(45.690477 0)scale(0.996264)"/>
       <use xlink:href="#CMR17-31" transform="translate(72.787654 0)scale(0.996264)"/>
      </g>
     </g>
    </g>
    <g id="ytick_34">
     <g id="line2d_60">
      <path d="M 347.673528 48.37632 
L 540.72 48.37632 
" clip-path="url(#pfbf07b1330)" style="fill: none; stroke: #ffffff; stroke-width: 1.5; stroke-linecap: square"/>
     </g>
     <g id="line2d_61">
      <g>
       <use xlink:href="#m22de67c5ee" x="347.673528" y="48.37632" style="fill: #555555; stroke: #555555; stroke-width: 1.875"/>
      </g>
     </g>
     <g id="text_16">
      <!-- $\mathdefault{0.2}$ -->
      <g style="fill: #555555" transform="translate(314.606793 54.084073)scale(0.165 -0.165)">
       <use xlink:href="#CMR17-30" transform="scale(0.996264)"/>
       <use xlink:href="#CMMI12-3a" transform="translate(45.690477 0)scale(0.996264)"/>
       <use xlink:href="#CMR17-32" transform="translate(72.787654 0)scale(0.996264)"/>
      </g>
     </g>
    </g>
    <g id="ytick_35">
     <g id="line2d_62">
      <g>
       <use xlink:href="#m08fbf860fb" x="347.673528" y="222.581546" style="fill: #555555; stroke: #555555; stroke-width: 1.5"/>
      </g>
     </g>
    </g>
    <g id="ytick_36">
     <g id="line2d_63">
      <g>
       <use xlink:href="#m08fbf860fb" x="347.673528" y="215.322995" style="fill: #555555; stroke: #555555; stroke-width: 1.5"/>
      </g>
     </g>
    </g>
    <g id="ytick_37">
     <g id="line2d_64">
      <g>
       <use xlink:href="#m08fbf860fb" x="347.673528" y="208.064444" style="fill: #555555; stroke: #555555; stroke-width: 1.5"/>
      </g>
     </g>
    </g>
    <g id="ytick_38">
     <g id="line2d_65">
      <g>
       <use xlink:href="#m08fbf860fb" x="347.673528" y="200.805893" style="fill: #555555; stroke: #555555; stroke-width: 1.5"/>
      </g>
     </g>
    </g>
    <g id="ytick_39">
     <g id="line2d_66">
      <g>
       <use xlink:href="#m08fbf860fb" x="347.673528" y="186.288791" style="fill: #555555; stroke: #555555; stroke-width: 1.5"/>
      </g>
     </g>
    </g>
    <g id="ytick_40">
     <g id="line2d_67">
      <g>
       <use xlink:href="#m08fbf860fb" x="347.673528" y="179.03024" style="fill: #555555; stroke: #555555; stroke-width: 1.5"/>
      </g>
     </g>
    </g>
    <g id="ytick_41">
     <g id="line2d_68">
      <g>
       <use xlink:href="#m08fbf860fb" x="347.673528" y="171.771689" style="fill: #555555; stroke: #555555; stroke-width: 1.5"/>
      </g>
     </g>
    </g>
    <g id="ytick_42">
     <g id="line2d_69">
      <g>
       <use xlink:href="#m08fbf860fb" x="347.673528" y="164.513138" style="fill: #555555; stroke: #555555; stroke-width: 1.5"/>
      </g>
     </g>
    </g>
    <g id="ytick_43">
     <g id="line2d_70">
      <g>
       <use xlink:href="#m08fbf860fb" x="347.673528" y="149.996035" style="fill: #555555; stroke: #555555; stroke-width: 1.5"/>
      </g>
     </g>
    </g>
    <g id="ytick_44">
     <g id="line2d_71">
      <g>
       <use xlink:href="#m08fbf860fb" x="347.673528" y="142.737484" style="fill: #555555; stroke: #555555; stroke-width: 1.5"/>
      </g>
     </g>
    </g>
    <g id="ytick_45">
     <g id="line2d_72">
      <g>
       <use xlink:href="#m08fbf860fb" x="347.673528" y="135.478933" style="fill: #555555; stroke: #555555; stroke-width: 1.5"/>
      </g>
     </g>
    </g>
    <g id="ytick_46">
     <g id="line2d_73">
      <g>
       <use xlink:href="#m08fbf860fb" x="347.673528" y="128.220382" style="fill: #555555; stroke: #555555; stroke-width: 1.5"/>
      </g>
     </g>
    </g>
    <g id="ytick_47">
     <g id="line2d_74">
      <g>
       <use xlink:href="#m08fbf860fb" x="347.673528" y="113.70328" style="fill: #555555; stroke: #555555; stroke-width: 1.5"/>
      </g>
     </g>
    </g>
    <g id="ytick_48">
     <g id="line2d_75">
      <g>
       <use xlink:href="#m08fbf860fb" x="347.673528" y="106.444729" style="fill: #555555; stroke: #555555; stroke-width: 1.5"/>
      </g>
     </g>
    </g>
    <g id="ytick_49">
     <g id="line2d_76">
      <g>
       <use xlink:href="#m08fbf860fb" x="347.673528" y="99.186178" style="fill: #555555; stroke: #555555; stroke-width: 1.5"/>
      </g>
     </g>
    </g>
    <g id="ytick_50">
     <g id="line2d_77">
      <g>
       <use xlink:href="#m08fbf860fb" x="347.673528" y="91.927627" style="fill: #555555; stroke: #555555; stroke-width: 1.5"/>
      </g>
     </g>
    </g>
    <g id="ytick_51">
     <g id="line2d_78">
      <g>
       <use xlink:href="#m08fbf860fb" x="347.673528" y="77.410525" style="fill: #555555; stroke: #555555; stroke-width: 1.5"/>
      </g>
     </g>
    </g>
    <g id="ytick_52">
     <g id="line2d_79">
      <g>
       <use xlink:href="#m08fbf860fb" x="347.673528" y="70.151973" style="fill: #555555; stroke: #555555; stroke-width: 1.5"/>
      </g>
     </g>
    </g>
    <g id="ytick_53">
     <g id="line2d_80">
      <g>
       <use xlink:href="#m08fbf860fb" x="347.673528" y="62.893422" style="fill: #555555; stroke: #555555; stroke-width: 1.5"/>
      </g>
     </g>
    </g>
    <g id="ytick_54">
     <g id="line2d_81">
      <g>
       <use xlink:href="#m08fbf860fb" x="347.673528" y="55.634871" style="fill: #555555; stroke: #555555; stroke-width: 1.5"/>
      </g>
     </g>
    </g>
    <g id="ytick_55">
     <g id="line2d_82">
      <g>
       <use xlink:href="#m08fbf860fb" x="347.673528" y="41.117769" style="fill: #555555; stroke: #555555; stroke-width: 1.5"/>
      </g>
     </g>
    </g>
    <g id="ytick_56">
     <g id="line2d_83">
      <g>
       <use xlink:href="#m08fbf860fb" x="347.673528" y="33.859218" style="fill: #555555; stroke: #555555; stroke-width: 1.5"/>
      </g>
     </g>
    </g>
    <g id="ytick_57">
     <g id="line2d_84">
      <g>
       <use xlink:href="#m08fbf860fb" x="347.673528" y="26.600667" style="fill: #555555; stroke: #555555; stroke-width: 1.5"/>
      </g>
     </g>
    </g>
    <g id="text_17">
     <!-- logreturn -->
     <g style="fill: #555555" transform="translate(294.3333 161.484072)rotate(-90)scale(0.18 -0.18)">
      <use xlink:href="#CMR17-6c" transform="scale(0.996264)"/>
      <use xlink:href="#CMR17-6f" transform="translate(24.871058 0)scale(0.996264)"/>
      <use xlink:href="#CMR17-67" transform="translate(70.561536 0)scale(0.996264)"/>
      <use xlink:href="#CMR17-72" transform="translate(116.252013 0)scale(0.996264)"/>
      <use xlink:href="#CMR17-65" transform="translate(151.532781 0)scale(0.996264)"/>
      <use xlink:href="#CMR17-74" transform="translate(192.018441 0)scale(0.996264)"/>
      <use xlink:href="#CMR17-75" transform="translate(227.299209 0)scale(0.996264)"/>
      <use xlink:href="#CMR17-72" transform="translate(278.194579 0)scale(0.996264)"/>
      <use xlink:href="#CMR17-6e" transform="translate(313.475346 0)scale(0.996264)"/>
     </g>
    </g>
   </g>
   <g id="line2d_85">
    <path d="M 356.448367 139.140055 
L 357.120353 66.762971 
L 357.770663 127.96644 
L 358.442649 165.861968 
L 359.092958 118.909455 
L 359.764944 130.640473 
L 360.436931 113.564325 
L 361.08724 124.179703 
L 361.759226 147.289805 
L 362.409535 112.133428 
L 363.081522 125.594493 
L 363.753508 126.899429 
L 364.360463 91.279498 
L 365.032449 117.302795 
L 365.682759 137.487839 
L 367.005054 114.491509 
L 367.67704 42.073088 
L 368.349027 165.432665 
L 368.999336 149.723612 
L 369.671322 121.195752 
L 370.321632 103.823257 
L 370.993618 139.977216 
L 371.665604 127.847807 
L 372.944546 97.744756 
L 373.594855 125.175519 
L 374.266841 70.636228 
L 374.91715 128.020612 
L 375.589137 85.167161 
L 376.261123 113.504153 
L 376.911432 136.033653 
L 377.583418 85.555965 
L 378.233728 105.668134 
L 378.905714 145.171462 
L 379.5777 137.691171 
L 380.184655 111.45688 
L 380.856642 112.717027 
L 381.506951 111.573805 
L 382.178937 118.652284 
L 382.829246 122.940541 
L 383.501233 166.905429 
L 384.173219 93.851605 
L 384.823528 59.730976 
L 385.495514 100.650892 
L 386.145824 103.314158 
L 386.81781 114.917279 
L 387.489796 102.913395 
L 388.118428 65.956322 
L 388.790415 141.004861 
L 389.440724 107.69465 
L 390.11271 184.642939 
L 390.763019 129.603372 
L 391.435006 205.140877 
L 392.106992 61.311473 
L 392.757301 198.06893 
L 393.429287 107.199896 
L 394.079597 135.07459 
L 394.751583 119.735427 
L 395.423569 146.126199 
L 396.030524 53.420186 
L 396.702511 127.55784 
L 397.35282 124.945708 
L 398.024806 113.037334 
L 398.675115 111.369837 
L 399.347102 112.510745 
L 400.019088 149.502233 
L 400.669397 98.893044 
L 401.341383 137.108406 
L 401.991693 147.6379 
L 402.663679 111.850201 
L 403.335665 111.585887 
L 403.94262 96.778647 
L 404.614607 138.069553 
L 405.264916 77.63168 
L 405.936902 128.386257 
L 406.587211 103.639401 
L 407.259198 114.28492 
L 407.931184 142.9473 
L 408.581493 137.845227 
L 409.253479 82.768684 
L 409.903789 86.162148 
L 410.575775 119.97995 
L 411.247761 124.286382 
L 411.854716 104.990442 
L 412.526703 100.033381 
L 413.177012 107.687196 
L 413.848998 99.828667 
L 414.499307 109.556885 
L 415.171294 109.999936 
L 415.84328 133.008712 
L 416.493589 91.01659 
L 417.165575 99.677168 
L 417.815885 90.535691 
L 418.487871 94.646803 
L 419.159857 91.049724 
L 419.788489 31.747612 
L 420.460476 225.633856 
L 421.110785 76.433534 
L 421.782771 102.068691 
L 422.43308 92.782889 
L 423.105067 166.416198 
L 423.777053 152.326258 
L 425.099348 221.951087 
L 425.749658 129.265172 
L 426.421644 113.307155 
L 427.09363 129.8342 
L 427.700585 139.968808 
L 428.372572 92.217856 
L 429.022881 91.629906 
L 429.694867 95.955608 
L 430.345176 158.838815 
L 431.017163 120.755564 
L 431.689149 121.47772 
L 432.339458 130.269517 
L 433.011444 98.971948 
L 433.661754 82.225412 
L 434.33374 119.263189 
L 435.005726 163.898125 
L 435.612682 87.696947 
L 436.284668 133.164574 
L 436.934977 115.788486 
L 437.606963 132.827919 
L 438.257273 132.630641 
L 438.929259 87.568922 
L 439.601245 123.790445 
L 440.251554 74.670187 
L 440.92354 87.921127 
L 441.57385 109.156502 
L 442.245836 72.285892 
L 442.917822 123.212164 
L 443.524778 125.124035 
L 444.196764 111.199743 
L 444.847073 122.75682 
L 445.519059 120.961831 
L 446.169369 142.104259 
L 446.841355 117.101907 
L 447.513341 102.626015 
L 448.16365 177.774571 
L 448.835637 113.726679 
L 449.485946 133.370819 
L 450.157932 100.278634 
L 450.829918 131.370077 
L 451.458551 96.679454 
L 452.130537 116.254877 
L 452.780846 121.819115 
L 453.452832 161.208304 
L 454.103142 98.439159 
L 454.775128 118.336915 
L 455.447114 95.257693 
L 456.097423 147.837927 
L 456.76941 137.92415 
L 457.419719 124.524606 
L 458.091705 121.546844 
L 458.763691 97.786109 
L 459.370647 148.037268 
L 460.042633 113.276278 
L 460.692942 127.613192 
L 461.364928 127.061597 
L 462.015238 136.753779 
L 462.687224 154.51193 
L 463.35921 106.473126 
L 464.009519 145.735915 
L 464.681506 118.494725 
L 465.331815 129.13182 
L 466.003801 133.200608 
L 466.675787 134.494526 
L 467.282743 83.437812 
L 467.954729 132.624577 
L 468.605038 106.52731 
L 469.277024 153.058755 
L 469.927334 116.930824 
L 470.59932 147.850485 
L 471.271306 164.990838 
L 471.921615 117.240621 
L 472.593602 94.466898 
L 473.243911 148.355378 
L 473.915897 122.765762 
L 474.587883 145.630063 
L 475.194839 87.252033 
L 475.866825 149.983975 
L 476.517134 106.562236 
L 477.18912 101.847141 
L 477.83943 117.70977 
L 478.511416 161.449313 
L 479.833711 130.41292 
L 480.505698 109.057211 
L 481.156007 106.331776 
L 481.827993 104.646375 
L 482.499979 118.958329 
L 483.128612 121.667687 
L 483.800598 82.982755 
L 484.450907 133.148629 
L 485.122893 135.1654 
L 485.773203 124.630113 
L 486.445189 133.265638 
L 487.117175 96.534765 
L 487.767484 111.82902 
L 488.439471 102.221143 
L 489.08978 103.043299 
L 489.761766 144.705637 
L 490.433752 129.02015 
L 491.040708 120.640324 
L 491.712694 144.184734 
L 492.363003 122.334825 
L 493.034989 124.648746 
L 493.685299 102.010407 
L 494.357285 102.011006 
L 495.029271 120.961831 
L 495.67958 142.670897 
L 496.351567 99.670283 
L 497.001876 130.699754 
L 497.673862 127.565617 
L 498.345848 122.604288 
L 498.952804 130.862998 
L 499.62479 124.474975 
L 500.275099 136.076309 
L 500.947085 114.490265 
L 501.597395 143.949511 
L 502.269381 125.336764 
L 502.941367 125.772242 
L 503.591676 115.272204 
L 504.263663 132.561206 
L 504.913972 121.091379 
L 505.585958 123.82364 
L 506.257944 91.139417 
L 506.8649 120.721322 
L 507.536886 143.656069 
L 508.187195 127.938937 
L 508.859182 123.974782 
L 509.509491 111.227807 
L 510.181477 127.291748 
L 510.853463 110.810248 
L 511.503773 115.678217 
L 512.175759 100.446503 
L 512.826068 123.330045 
L 513.498054 74.629358 
L 514.17004 174.614301 
L 514.798673 137.452922 
L 515.470659 141.847999 
L 516.120968 127.469485 
L 516.792955 109.516311 
L 517.443264 111.412276 
L 518.11525 90.633217 
L 518.787236 95.510952 
L 519.437546 116.559987 
L 520.109532 116.288646 
L 520.759841 80.538155 
L 521.431827 75.445771 
L 522.103813 104.062942 
L 522.710769 78.052484 
L 523.382755 101.956046 
L 524.033064 54.244085 
L 524.705051 108.675143 
L 525.35536 132.279724 
L 526.027346 115.707242 
L 526.699332 154.555421 
L 527.349642 122.627064 
L 528.021628 105.47199 
L 528.671937 158.890863 
L 530.01591 70.976688 
L 530.622865 79.873723 
L 531.294851 134.458903 
L 531.94516 49.41831 
L 531.94516 49.41831 
" clip-path="url(#pfbf07b1330)" style="fill: none; stroke: #c07156; stroke-width: 2.25; stroke-linecap: square"/>
   </g>
   <g id="patch_6">
    <path d="M 347.673528 235.328168 
L 347.673528 22.0533 
" style="fill: none; stroke: #ffffff; stroke-width: 1.875; stroke-linejoin: miter; stroke-linecap: square"/>
   </g>
   <g id="patch_7">
    <path d="M 347.673528 235.328168 
L 540.72 235.328168 
" style="fill: none; stroke: #ffffff; stroke-width: 1.875; stroke-linejoin: miter; stroke-linecap: square"/>
   </g>
   <g id="text_18">
    <!-- Soybean Oil -->
    <g transform="translate(400.602734 16.0533)scale(0.18 -0.18)">
     <defs>
      <path id="CMR17-4f" d="M 4307 2135 
C 4307 3437 3366 4416 2304 4416 
C 1216 4416 294 3424 294 2135 
C 294 845 1229 -128 2298 -128 
C 3392 -128 4307 864 4307 2135 
z
M 2304 -13 
C 1574 -13 781 711 781 2217 
C 781 3716 1651 4301 2298 4301 
C 2976 4301 3821 3698 3821 2217 
C 3821 686 3008 -13 2304 -13 
z
" transform="scale(0.015625)"/>
      <path id="CMR17-69" d="M 992 3909 
C 992 4049 877 4170 730 4170 
C 589 4170 467 4056 467 3909 
C 467 3769 582 3648 730 3648 
C 870 3648 992 3763 992 3909 
z
M 243 2706 
L 243 2541 
C 602 2541 653 2502 653 2197 
L 653 427 
C 653 184 627 153 218 153 
L 218 -13 
C 371 0 646 0 806 0 
C 960 0 1222 0 1370 -13 
L 1370 153 
C 992 153 979 191 979 420 
L 979 2776 
L 243 2706 
z
" transform="scale(0.015625)"/>
     </defs>
     <use xlink:href="#CMR17-53" transform="scale(0.996264)"/>
     <use xlink:href="#CMR17-6f" transform="translate(50.89537 0)scale(0.996264)"/>
     <use xlink:href="#CMR17-79" transform="translate(93.983393 0)scale(0.996264)"/>
     <use xlink:href="#CMR17-62" transform="translate(142.276309 0)scale(0.996264)"/>
     <use xlink:href="#CMR17-65" transform="translate(195.774117 0)scale(0.996264)"/>
     <use xlink:href="#CMR17-61" transform="translate(236.259778 0)scale(0.996264)"/>
     <use xlink:href="#CMR17-6e" transform="translate(281.950255 0)scale(0.996264)"/>
     <use xlink:href="#CMR17-4f" transform="translate(362.921591 0)scale(0.996264)"/>
     <use xlink:href="#CMR17-69" transform="translate(434.636379 0)scale(0.996264)"/>
     <use xlink:href="#CMR17-6c" transform="translate(459.507438 0)scale(0.996264)"/>
    </g>
   </g>
  </g>
  <g id="axes_3">
   <g id="patch_8">
    <path d="M 69.393528 513.608168 
L 262.44 513.608168 
L 262.44 300.3333 
L 69.393528 300.3333 
z
" style="fill: #e5e5e5"/>
   </g>
   <g id="matplotlib.axis_5">
    <g id="xtick_13">
     <g id="line2d_86">
      <path d="M 156.075417 513.608168 
L 156.075417 300.3333 
" clip-path="url(#p7dfde311d1)" style="fill: none; stroke: #ffffff; stroke-width: 1.5; stroke-linecap: square"/>
     </g>
     <g id="line2d_87">
      <g>
       <use xlink:href="#mb8ab503ac0" x="156.075417" y="513.608168" style="fill: #555555; stroke: #555555; stroke-width: 1.875"/>
      </g>
     </g>
     <g id="text_19">
      <!-- $\mathdefault{2010}$ -->
      <g style="fill: #555555" transform="translate(139.979709 537.523673)scale(0.165 -0.165)">
       <use xlink:href="#CMR17-32" transform="scale(0.996264)"/>
       <use xlink:href="#CMR17-30" transform="translate(45.690477 0)scale(0.996264)"/>
       <use xlink:href="#CMR17-31" transform="translate(91.380954 0)scale(0.996264)"/>
       <use xlink:href="#CMR17-30" transform="translate(137.071431 0)scale(0.996264)"/>
      </g>
     </g>
    </g>
    <g id="xtick_14">
     <g id="line2d_88">
      <g>
       <use xlink:href="#ma9c5bf98f5" x="96.691343" y="513.608168" style="fill: #555555; stroke: #555555; stroke-width: 1.5"/>
      </g>
     </g>
    </g>
    <g id="xtick_15">
     <g id="line2d_89">
      <g>
       <use xlink:href="#ma9c5bf98f5" x="126.38338" y="513.608168" style="fill: #555555; stroke: #555555; stroke-width: 1.5"/>
      </g>
     </g>
    </g>
    <g id="xtick_16">
     <g id="line2d_90">
      <g>
       <use xlink:href="#ma9c5bf98f5" x="185.767454" y="513.608168" style="fill: #555555; stroke: #555555; stroke-width: 1.5"/>
      </g>
     </g>
    </g>
    <g id="xtick_17">
     <g id="line2d_91">
      <g>
       <use xlink:href="#ma9c5bf98f5" x="215.459491" y="513.608168" style="fill: #555555; stroke: #555555; stroke-width: 1.5"/>
      </g>
     </g>
    </g>
    <g id="xtick_18">
     <g id="line2d_92">
      <g>
       <use xlink:href="#ma9c5bf98f5" x="245.151528" y="513.608168" style="fill: #555555; stroke: #555555; stroke-width: 1.5"/>
      </g>
     </g>
    </g>
   </g>
   <g id="matplotlib.axis_6">
    <g id="ytick_58">
     <g id="line2d_93">
      <path d="M 69.393528 509.665071 
L 262.44 509.665071 
" clip-path="url(#p7dfde311d1)" style="fill: none; stroke: #ffffff; stroke-width: 1.5; stroke-linecap: square"/>
     </g>
     <g id="line2d_94">
      <g>
       <use xlink:href="#m22de67c5ee" x="69.393528" y="509.665071" style="fill: #555555; stroke: #555555; stroke-width: 1.875"/>
      </g>
     </g>
     <g id="text_20">
      <!-- $\mathdefault{−0.4}$ -->
      <g style="fill: #555555" transform="translate(23.541364 515.372823)scale(0.165 -0.165)">
       <defs>
        <path id="CMR17-34" d="M 2150 4122 
C 2150 4256 2144 4256 2029 4256 
L 128 1254 
L 128 1088 
L 1779 1088 
L 1779 457 
C 1779 224 1766 160 1318 160 
L 1197 160 
L 1197 0 
C 1402 0 1747 0 1965 0 
C 2182 0 2528 0 2733 0 
L 2733 160 
L 2611 160 
C 2163 160 2150 224 2150 457 
L 2150 1088 
L 2803 1088 
L 2803 1254 
L 2150 1254 
L 2150 4122 
z
M 1798 3703 
L 1798 1254 
L 256 1254 
L 1798 3703 
z
" transform="scale(0.015625)"/>
       </defs>
       <use xlink:href="#CMSY10-0" transform="scale(0.996264)"/>
       <use xlink:href="#CMR17-30" transform="translate(77.487468 0)scale(0.996264)"/>
       <use xlink:href="#CMMI12-3a" transform="translate(123.177945 0)scale(0.996264)"/>
       <use xlink:href="#CMR17-34" transform="translate(150.275122 0)scale(0.996264)"/>
      </g>
     </g>
    </g>
    <g id="ytick_59">
     <g id="line2d_95">
      <path d="M 69.393528 449.138016 
L 262.44 449.138016 
" clip-path="url(#p7dfde311d1)" style="fill: none; stroke: #ffffff; stroke-width: 1.5; stroke-linecap: square"/>
     </g>
     <g id="line2d_96">
      <g>
       <use xlink:href="#m22de67c5ee" x="69.393528" y="449.138016" style="fill: #555555; stroke: #555555; stroke-width: 1.875"/>
      </g>
     </g>
     <g id="text_21">
      <!-- $\mathdefault{−0.2}$ -->
      <g style="fill: #555555" transform="translate(23.541364 454.845768)scale(0.165 -0.165)">
       <use xlink:href="#CMSY10-0" transform="scale(0.996264)"/>
       <use xlink:href="#CMR17-30" transform="translate(77.487468 0)scale(0.996264)"/>
       <use xlink:href="#CMMI12-3a" transform="translate(123.177945 0)scale(0.996264)"/>
       <use xlink:href="#CMR17-32" transform="translate(150.275122 0)scale(0.996264)"/>
      </g>
     </g>
    </g>
    <g id="ytick_60">
     <g id="line2d_97">
      <path d="M 69.393528 388.610961 
L 262.44 388.610961 
" clip-path="url(#p7dfde311d1)" style="fill: none; stroke: #ffffff; stroke-width: 1.5; stroke-linecap: square"/>
     </g>
     <g id="line2d_98">
      <g>
       <use xlink:href="#m22de67c5ee" x="69.393528" y="388.610961" style="fill: #555555; stroke: #555555; stroke-width: 1.875"/>
      </g>
     </g>
     <g id="text_22">
      <!-- $\mathdefault{0.0}$ -->
      <g style="fill: #555555" transform="translate(36.326793 394.318713)scale(0.165 -0.165)">
       <use xlink:href="#CMR17-30" transform="scale(0.996264)"/>
       <use xlink:href="#CMMI12-3a" transform="translate(45.690477 0)scale(0.996264)"/>
       <use xlink:href="#CMR17-30" transform="translate(72.787654 0)scale(0.996264)"/>
      </g>
     </g>
    </g>
    <g id="ytick_61">
     <g id="line2d_99">
      <path d="M 69.393528 328.083906 
L 262.44 328.083906 
" clip-path="url(#p7dfde311d1)" style="fill: none; stroke: #ffffff; stroke-width: 1.5; stroke-linecap: square"/>
     </g>
     <g id="line2d_100">
      <g>
       <use xlink:href="#m22de67c5ee" x="69.393528" y="328.083906" style="fill: #555555; stroke: #555555; stroke-width: 1.875"/>
      </g>
     </g>
     <g id="text_23">
      <!-- $\mathdefault{0.2}$ -->
      <g style="fill: #555555" transform="translate(36.326793 333.791658)scale(0.165 -0.165)">
       <use xlink:href="#CMR17-30" transform="scale(0.996264)"/>
       <use xlink:href="#CMMI12-3a" transform="translate(45.690477 0)scale(0.996264)"/>
       <use xlink:href="#CMR17-32" transform="translate(72.787654 0)scale(0.996264)"/>
      </g>
     </g>
    </g>
    <g id="ytick_62">
     <g id="line2d_101">
      <g>
       <use xlink:href="#m08fbf860fb" x="69.393528" y="494.533307" style="fill: #555555; stroke: #555555; stroke-width: 1.5"/>
      </g>
     </g>
    </g>
    <g id="ytick_63">
     <g id="line2d_102">
      <g>
       <use xlink:href="#m08fbf860fb" x="69.393528" y="479.401543" style="fill: #555555; stroke: #555555; stroke-width: 1.5"/>
      </g>
     </g>
    </g>
    <g id="ytick_64">
     <g id="line2d_103">
      <g>
       <use xlink:href="#m08fbf860fb" x="69.393528" y="464.269779" style="fill: #555555; stroke: #555555; stroke-width: 1.5"/>
      </g>
     </g>
    </g>
    <g id="ytick_65">
     <g id="line2d_104">
      <g>
       <use xlink:href="#m08fbf860fb" x="69.393528" y="434.006252" style="fill: #555555; stroke: #555555; stroke-width: 1.5"/>
      </g>
     </g>
    </g>
    <g id="ytick_66">
     <g id="line2d_105">
      <g>
       <use xlink:href="#m08fbf860fb" x="69.393528" y="418.874488" style="fill: #555555; stroke: #555555; stroke-width: 1.5"/>
      </g>
     </g>
    </g>
    <g id="ytick_67">
     <g id="line2d_106">
      <g>
       <use xlink:href="#m08fbf860fb" x="69.393528" y="403.742724" style="fill: #555555; stroke: #555555; stroke-width: 1.5"/>
      </g>
     </g>
    </g>
    <g id="ytick_68">
     <g id="line2d_107">
      <g>
       <use xlink:href="#m08fbf860fb" x="69.393528" y="373.479197" style="fill: #555555; stroke: #555555; stroke-width: 1.5"/>
      </g>
     </g>
    </g>
    <g id="ytick_69">
     <g id="line2d_108">
      <g>
       <use xlink:href="#m08fbf860fb" x="69.393528" y="358.347433" style="fill: #555555; stroke: #555555; stroke-width: 1.5"/>
      </g>
     </g>
    </g>
    <g id="ytick_70">
     <g id="line2d_109">
      <g>
       <use xlink:href="#m08fbf860fb" x="69.393528" y="343.215669" style="fill: #555555; stroke: #555555; stroke-width: 1.5"/>
      </g>
     </g>
    </g>
    <g id="ytick_71">
     <g id="line2d_110">
      <g>
       <use xlink:href="#m08fbf860fb" x="69.393528" y="312.952142" style="fill: #555555; stroke: #555555; stroke-width: 1.5"/>
      </g>
     </g>
    </g>
    <g id="text_24">
     <!-- logreturn -->
     <g style="fill: #555555" transform="translate(16.0533 439.764072)rotate(-90)scale(0.18 -0.18)">
      <use xlink:href="#CMR17-6c" transform="scale(0.996264)"/>
      <use xlink:href="#CMR17-6f" transform="translate(24.871058 0)scale(0.996264)"/>
      <use xlink:href="#CMR17-67" transform="translate(70.561536 0)scale(0.996264)"/>
      <use xlink:href="#CMR17-72" transform="translate(116.252013 0)scale(0.996264)"/>
      <use xlink:href="#CMR17-65" transform="translate(151.532781 0)scale(0.996264)"/>
      <use xlink:href="#CMR17-74" transform="translate(192.018441 0)scale(0.996264)"/>
      <use xlink:href="#CMR17-75" transform="translate(227.299209 0)scale(0.996264)"/>
      <use xlink:href="#CMR17-72" transform="translate(278.194579 0)scale(0.996264)"/>
      <use xlink:href="#CMR17-6e" transform="translate(313.475346 0)scale(0.996264)"/>
     </g>
    </g>
   </g>
   <g id="line2d_111">
    <path d="M 78.168367 381.294024 
L 78.840353 375.575 
L 79.490663 389.914286 
L 80.162649 379.500617 
L 80.812958 413.220312 
L 81.484944 418.952551 
L 82.156931 346.214076 
L 82.80724 388.289786 
L 83.479226 388.789349 
L 84.129535 351.889002 
L 85.473508 431.964701 
L 86.080463 407.964446 
L 86.752449 405.38375 
L 87.402759 374.228698 
L 88.074745 366.135503 
L 88.725054 379.1534 
L 89.39704 384.182587 
L 90.069027 397.74915 
L 90.719336 404.331016 
L 91.391322 386.723024 
L 92.041632 400.941611 
L 92.713618 408.710314 
L 93.385604 373.81142 
L 93.992559 389.010216 
L 94.664546 371.523739 
L 95.314855 390.428823 
L 95.986841 371.336023 
L 96.63715 373.870964 
L 97.309137 387.826002 
L 97.981123 393.386166 
L 98.631432 393.814788 
L 99.303418 392.368252 
L 99.953728 393.211134 
L 100.625714 388.176712 
L 101.2977 381.07549 
L 101.904655 380.02178 
L 102.576642 396.67152 
L 103.226951 352.727103 
L 103.898937 393.879253 
L 104.549246 391.360175 
L 105.221233 429.830768 
L 105.893219 347.423268 
L 106.543528 369.71832 
L 107.215514 319.454878 
L 107.865824 419.019815 
L 108.53781 368.507449 
L 109.209796 374.132916 
L 109.838428 359.831328 
L 110.510415 354.825525 
L 111.160724 386.576495 
L 111.83271 454.159195 
L 112.483019 363.394798 
L 113.155006 503.913856 
L 113.826992 403.427775 
L 114.477301 426.422558 
L 115.149287 398.477222 
L 116.471583 374.153535 
L 117.143569 406.044636 
L 117.750524 334.551126 
L 118.422511 383.519048 
L 119.07282 377.957608 
L 119.744806 357.460368 
L 120.395115 399.313404 
L 121.067102 383.226776 
L 121.739088 430.781639 
L 122.389397 412.197742 
L 123.061383 388.717943 
L 123.711693 384.46642 
L 124.383679 348.380012 
L 125.055665 406.861867 
L 125.66262 404.185784 
L 126.334607 390.546064 
L 126.984916 390.453865 
L 127.656902 390.605558 
L 128.307211 382.150235 
L 128.979198 409.96724 
L 129.651184 399.346762 
L 130.301493 379.613491 
L 130.973479 343.196693 
L 131.623789 379.368031 
L 132.295775 387.961429 
L 133.574716 358.04714 
L 134.246703 412.821517 
L 134.897012 409.613137 
L 135.568998 360.407885 
L 136.219307 369.812735 
L 136.891294 406.100461 
L 137.56328 358.234864 
L 138.213589 342.088803 
L 138.885575 389.971704 
L 139.535885 375.416289 
L 140.207871 346.502445 
L 140.879857 383.390824 
L 141.508489 355.566459 
L 142.180476 439.167419 
L 142.830785 371.471434 
L 143.502771 388.23853 
L 144.15308 318.872435 
L 144.825067 428.387503 
L 145.497053 402.438926 
L 146.147362 460.670786 
L 146.819348 400.437892 
L 147.469658 409.680735 
L 148.141644 339.059981 
L 148.81363 377.652399 
L 149.420585 430.275997 
L 150.092572 362.622771 
L 150.742881 352.340015 
L 151.414867 346.579004 
L 152.065176 389.086055 
L 152.737163 425.38761 
L 153.409149 402.022147 
L 154.059458 425.787147 
L 154.731444 377.337513 
L 155.381754 368.3923 
L 156.725726 423.897436 
L 157.332682 392.124068 
L 158.004668 394.072129 
L 158.654977 359.39434 
L 159.326963 409.185081 
L 159.977273 380.423754 
L 160.649259 368.306226 
L 161.321245 393.054547 
L 161.971554 378.737719 
L 162.64354 358.72 
L 163.29385 386.30764 
L 163.965836 360.680125 
L 165.244778 404.540661 
L 165.916764 380.418829 
L 166.567073 395.380499 
L 167.239059 394.682421 
L 167.889369 407.284089 
L 168.561355 372.006177 
L 169.233341 364.360827 
L 169.88365 454.204965 
L 170.555637 380.577984 
L 171.205946 412.777269 
L 171.877932 368.046693 
L 172.549918 381.960632 
L 173.178551 358.622916 
L 173.850537 359.077687 
L 174.500846 354.372102 
L 175.172832 418.367396 
L 175.823142 361.971549 
L 176.495128 330.787852 
L 177.817423 419.01515 
L 178.48941 391.558892 
L 179.139719 418.813874 
L 180.483691 383.774645 
L 181.090647 382.261932 
L 181.762633 410.84197 
L 182.412942 379.286585 
L 183.084928 367.639428 
L 184.407224 413.90537 
L 185.07921 369.915972 
L 185.729519 410.211792 
L 186.401506 390.628786 
L 187.051815 362.065868 
L 187.723801 402.281636 
L 188.395787 385.067483 
L 189.002743 365.614598 
L 189.674729 376.001482 
L 190.325038 378.404619 
L 190.997024 385.900431 
L 191.647334 430.030022 
L 192.31932 440.19341 
L 192.991306 380.07769 
L 193.641615 458.817255 
L 194.313602 310.027612 
L 194.963911 402.736982 
L 195.635897 405.593763 
L 196.307883 407.373332 
L 196.914839 375.364964 
L 197.586825 404.714202 
L 198.237134 398.14994 
L 198.90912 399.271111 
L 199.55943 344.712829 
L 200.231416 398.657651 
L 200.903402 413.335264 
L 201.553711 394.625836 
L 202.225698 393.012934 
L 202.876007 408.370683 
L 203.547993 410.503581 
L 204.219979 380.572636 
L 204.848612 400.553422 
L 205.520598 379.01063 
L 206.170907 324.335259 
L 206.842893 336.85758 
L 208.165189 433.373566 
L 208.837175 426.091012 
L 210.159471 372.042933 
L 210.80978 386.873483 
L 211.481766 390.578302 
L 212.153752 371.168059 
L 212.760708 387.671772 
L 213.432694 414.226469 
L 214.083003 382.221875 
L 214.754989 405.280155 
L 215.405299 380.853484 
L 216.077285 374.649329 
L 216.749271 412.408224 
L 217.39958 369.902045 
L 218.071567 391.643423 
L 218.721876 375.040151 
L 219.393862 398.170743 
L 220.672804 341.575813 
L 221.34479 396.851731 
L 221.995099 381.245769 
L 223.317395 426.295198 
L 223.989381 380.678679 
L 224.661367 422.205827 
L 225.311676 384.797715 
L 225.983663 390.462187 
L 226.633972 385.017351 
L 227.305958 389.490686 
L 227.977944 387.789804 
L 228.5849 393.274093 
L 229.256886 387.384113 
L 229.907195 395.82523 
L 230.579182 367.125165 
L 231.229491 394.738469 
L 231.901477 403.201702 
L 232.573463 397.64063 
L 233.223773 379.641816 
L 233.895759 384.184369 
L 234.546068 400.513939 
L 235.218054 377.364868 
L 235.89004 401.57852 
L 236.518673 375.18542 
L 237.190659 371.871549 
L 237.840968 415.671934 
L 239.163264 382.957624 
L 239.83525 386.22898 
L 240.507236 372.777852 
L 241.157546 355.225769 
L 241.829532 358.001423 
L 242.479841 378.842357 
L 243.151827 359.571199 
L 243.823813 388.189365 
L 244.430769 395.169569 
L 245.102755 387.579444 
L 245.753064 386.558415 
L 246.425051 411.150127 
L 247.07536 403.028621 
L 247.747346 409.834776 
L 248.419332 395.401084 
L 249.069642 402.629196 
L 249.741628 384.580649 
L 250.391937 379.116444 
L 251.063923 341.038814 
L 251.73591 375.862189 
L 252.342865 368.272161 
L 253.014851 375.730357 
L 253.66516 411.155192 
L 253.66516 411.155192 
" clip-path="url(#p7dfde311d1)" style="fill: none; stroke: #e8c767; stroke-width: 2.25; stroke-linecap: square"/>
   </g>
   <g id="patch_9">
    <path d="M 69.393528 513.608168 
L 69.393528 300.3333 
" style="fill: none; stroke: #ffffff; stroke-width: 1.875; stroke-linejoin: miter; stroke-linecap: square"/>
   </g>
   <g id="patch_10">
    <path d="M 69.393528 513.608168 
L 262.44 513.608168 
" style="fill: none; stroke: #ffffff; stroke-width: 1.875; stroke-linejoin: miter; stroke-linecap: square"/>
   </g>
   <g id="text_25">
    <!-- Soybean Meal -->
    <g transform="translate(115.637781 294.3333)scale(0.18 -0.18)">
     <defs>
      <path id="CMR17-4d" d="M 1338 4224 
C 1299 4320 1293 4320 1158 4320 
L 339 4320 
L 339 4160 
C 781 4160 851 4160 851 3875 
L 851 610 
C 851 451 851 153 339 153 
L 339 -13 
C 486 0 755 0 915 0 
C 1075 0 1344 0 1491 -13 
L 1491 153 
C 979 153 979 451 979 610 
L 979 4135 
L 986 4135 
L 2490 89 
C 2515 25 2528 -13 2579 -13 
C 2630 -13 2643 25 2669 89 
L 4186 4166 
L 4192 4166 
L 4192 438 
C 4192 153 4122 153 3680 153 
L 3680 -13 
C 3853 0 4198 0 4384 0 
C 4570 0 4922 0 5094 -13 
L 5094 153 
C 4653 153 4582 153 4582 438 
L 4582 3875 
C 4582 4160 4653 4160 5094 4160 
L 5094 4320 
L 4282 4320 
C 4147 4320 4141 4314 4102 4218 
L 2720 502 
L 1338 4224 
z
" transform="scale(0.015625)"/>
     </defs>
     <use xlink:href="#CMR17-53" transform="scale(0.996264)"/>
     <use xlink:href="#CMR17-6f" transform="translate(50.89537 0)scale(0.996264)"/>
     <use xlink:href="#CMR17-79" transform="translate(93.983393 0)scale(0.996264)"/>
     <use xlink:href="#CMR17-62" transform="translate(142.276309 0)scale(0.996264)"/>
     <use xlink:href="#CMR17-65" transform="translate(195.774117 0)scale(0.996264)"/>
     <use xlink:href="#CMR17-61" transform="translate(236.259778 0)scale(0.996264)"/>
     <use xlink:href="#CMR17-6e" transform="translate(281.950255 0)scale(0.996264)"/>
     <use xlink:href="#CMR17-4d" transform="translate(362.921591 0)scale(0.996264)"/>
     <use xlink:href="#CMR17-65" transform="translate(447.608532 0)scale(0.996264)"/>
     <use xlink:href="#CMR17-61" transform="translate(488.094192 0)scale(0.996264)"/>
     <use xlink:href="#CMR17-6c" transform="translate(533.784669 0)scale(0.996264)"/>
    </g>
   </g>
  </g>
  <g id="axes_4">
   <g id="patch_11">
    <path d="M 347.673528 513.608168 
L 540.72 513.608168 
L 540.72 300.3333 
L 347.673528 300.3333 
z
" style="fill: #e5e5e5"/>
   </g>
   <g id="matplotlib.axis_7">
    <g id="xtick_19">
     <g id="line2d_112">
      <path d="M 434.355417 513.608168 
L 434.355417 300.3333 
" clip-path="url(#pa6b4067257)" style="fill: none; stroke: #ffffff; stroke-width: 1.5; stroke-linecap: square"/>
     </g>
     <g id="line2d_113">
      <g>
       <use xlink:href="#mb8ab503ac0" x="434.355417" y="513.608168" style="fill: #555555; stroke: #555555; stroke-width: 1.875"/>
      </g>
     </g>
     <g id="text_26">
      <!-- $\mathdefault{2010}$ -->
      <g style="fill: #555555" transform="translate(418.259709 537.523673)scale(0.165 -0.165)">
       <use xlink:href="#CMR17-32" transform="scale(0.996264)"/>
       <use xlink:href="#CMR17-30" transform="translate(45.690477 0)scale(0.996264)"/>
       <use xlink:href="#CMR17-31" transform="translate(91.380954 0)scale(0.996264)"/>
       <use xlink:href="#CMR17-30" transform="translate(137.071431 0)scale(0.996264)"/>
      </g>
     </g>
    </g>
    <g id="xtick_20">
     <g id="line2d_114">
      <g>
       <use xlink:href="#ma9c5bf98f5" x="374.971343" y="513.608168" style="fill: #555555; stroke: #555555; stroke-width: 1.5"/>
      </g>
     </g>
    </g>
    <g id="xtick_21">
     <g id="line2d_115">
      <g>
       <use xlink:href="#ma9c5bf98f5" x="404.66338" y="513.608168" style="fill: #555555; stroke: #555555; stroke-width: 1.5"/>
      </g>
     </g>
    </g>
    <g id="xtick_22">
     <g id="line2d_116">
      <g>
       <use xlink:href="#ma9c5bf98f5" x="464.047454" y="513.608168" style="fill: #555555; stroke: #555555; stroke-width: 1.5"/>
      </g>
     </g>
    </g>
    <g id="xtick_23">
     <g id="line2d_117">
      <g>
       <use xlink:href="#ma9c5bf98f5" x="493.739491" y="513.608168" style="fill: #555555; stroke: #555555; stroke-width: 1.5"/>
      </g>
     </g>
    </g>
    <g id="xtick_24">
     <g id="line2d_118">
      <g>
       <use xlink:href="#ma9c5bf98f5" x="523.431528" y="513.608168" style="fill: #555555; stroke: #555555; stroke-width: 1.5"/>
      </g>
     </g>
    </g>
   </g>
   <g id="matplotlib.axis_8">
    <g id="ytick_72">
     <g id="line2d_119">
      <path d="M 347.673528 501.702947 
L 540.72 501.702947 
" clip-path="url(#pa6b4067257)" style="fill: none; stroke: #ffffff; stroke-width: 1.5; stroke-linecap: square"/>
     </g>
     <g id="line2d_120">
      <g>
       <use xlink:href="#m22de67c5ee" x="347.673528" y="501.702947" style="fill: #555555; stroke: #555555; stroke-width: 1.875"/>
      </g>
     </g>
     <g id="text_27">
      <!-- $\mathdefault{−2}$ -->
      <g style="fill: #555555" transform="translate(314.340245 507.410699)scale(0.165 -0.165)">
       <use xlink:href="#CMSY10-0" transform="scale(0.996264)"/>
       <use xlink:href="#CMR17-32" transform="translate(77.487468 0)scale(0.996264)"/>
      </g>
     </g>
    </g>
    <g id="ytick_73">
     <g id="line2d_121">
      <path d="M 347.673528 449.9085 
L 540.72 449.9085 
" clip-path="url(#pa6b4067257)" style="fill: none; stroke: #ffffff; stroke-width: 1.5; stroke-linecap: square"/>
     </g>
     <g id="line2d_122">
      <g>
       <use xlink:href="#m22de67c5ee" x="347.673528" y="449.9085" style="fill: #555555; stroke: #555555; stroke-width: 1.875"/>
      </g>
     </g>
     <g id="text_28">
      <!-- $\mathdefault{−1}$ -->
      <g style="fill: #555555" transform="translate(314.340245 455.616252)scale(0.165 -0.165)">
       <use xlink:href="#CMSY10-0" transform="scale(0.996264)"/>
       <use xlink:href="#CMR17-31" transform="translate(77.487468 0)scale(0.996264)"/>
      </g>
     </g>
    </g>
    <g id="ytick_74">
     <g id="line2d_123">
      <path d="M 347.673528 398.114053 
L 540.72 398.114053 
" clip-path="url(#pa6b4067257)" style="fill: none; stroke: #ffffff; stroke-width: 1.5; stroke-linecap: square"/>
     </g>
     <g id="line2d_124">
      <g>
       <use xlink:href="#m22de67c5ee" x="347.673528" y="398.114053" style="fill: #555555; stroke: #555555; stroke-width: 1.875"/>
      </g>
     </g>
     <g id="text_29">
      <!-- $\mathdefault{0}$ -->
      <g style="fill: #555555" transform="translate(327.125674 403.821806)scale(0.165 -0.165)">
       <use xlink:href="#CMR17-30" transform="scale(0.996264)"/>
      </g>
     </g>
    </g>
    <g id="ytick_75">
     <g id="line2d_125">
      <path d="M 347.673528 346.319606 
L 540.72 346.319606 
" clip-path="url(#pa6b4067257)" style="fill: none; stroke: #ffffff; stroke-width: 1.5; stroke-linecap: square"/>
     </g>
     <g id="line2d_126">
      <g>
       <use xlink:href="#m22de67c5ee" x="347.673528" y="346.319606" style="fill: #555555; stroke: #555555; stroke-width: 1.875"/>
      </g>
     </g>
     <g id="text_30">
      <!-- $\mathdefault{1}$ -->
      <g style="fill: #555555" transform="translate(327.125674 352.027359)scale(0.165 -0.165)">
       <use xlink:href="#CMR17-31" transform="scale(0.996264)"/>
      </g>
     </g>
    </g>
    <g id="ytick_76">
     <g id="line2d_127">
      <g>
       <use xlink:href="#m08fbf860fb" x="347.673528" y="512.061836" style="fill: #555555; stroke: #555555; stroke-width: 1.5"/>
      </g>
     </g>
    </g>
    <g id="ytick_77">
     <g id="line2d_128">
      <g>
       <use xlink:href="#m08fbf860fb" x="347.673528" y="491.344057" style="fill: #555555; stroke: #555555; stroke-width: 1.5"/>
      </g>
     </g>
    </g>
    <g id="ytick_78">
     <g id="line2d_129">
      <g>
       <use xlink:href="#m08fbf860fb" x="347.673528" y="480.985168" style="fill: #555555; stroke: #555555; stroke-width: 1.5"/>
      </g>
     </g>
    </g>
    <g id="ytick_79">
     <g id="line2d_130">
      <g>
       <use xlink:href="#m08fbf860fb" x="347.673528" y="470.626279" style="fill: #555555; stroke: #555555; stroke-width: 1.5"/>
      </g>
     </g>
    </g>
    <g id="ytick_80">
     <g id="line2d_131">
      <g>
       <use xlink:href="#m08fbf860fb" x="347.673528" y="460.267389" style="fill: #555555; stroke: #555555; stroke-width: 1.5"/>
      </g>
     </g>
    </g>
    <g id="ytick_81">
     <g id="line2d_132">
      <g>
       <use xlink:href="#m08fbf860fb" x="347.673528" y="439.549611" style="fill: #555555; stroke: #555555; stroke-width: 1.5"/>
      </g>
     </g>
    </g>
    <g id="ytick_82">
     <g id="line2d_133">
      <g>
       <use xlink:href="#m08fbf860fb" x="347.673528" y="429.190721" style="fill: #555555; stroke: #555555; stroke-width: 1.5"/>
      </g>
     </g>
    </g>
    <g id="ytick_83">
     <g id="line2d_134">
      <g>
       <use xlink:href="#m08fbf860fb" x="347.673528" y="418.831832" style="fill: #555555; stroke: #555555; stroke-width: 1.5"/>
      </g>
     </g>
    </g>
    <g id="ytick_84">
     <g id="line2d_135">
      <g>
       <use xlink:href="#m08fbf860fb" x="347.673528" y="408.472943" style="fill: #555555; stroke: #555555; stroke-width: 1.5"/>
      </g>
     </g>
    </g>
    <g id="ytick_85">
     <g id="line2d_136">
      <g>
       <use xlink:href="#m08fbf860fb" x="347.673528" y="387.755164" style="fill: #555555; stroke: #555555; stroke-width: 1.5"/>
      </g>
     </g>
    </g>
    <g id="ytick_86">
     <g id="line2d_137">
      <g>
       <use xlink:href="#m08fbf860fb" x="347.673528" y="377.396274" style="fill: #555555; stroke: #555555; stroke-width: 1.5"/>
      </g>
     </g>
    </g>
    <g id="ytick_87">
     <g id="line2d_138">
      <g>
       <use xlink:href="#m08fbf860fb" x="347.673528" y="367.037385" style="fill: #555555; stroke: #555555; stroke-width: 1.5"/>
      </g>
     </g>
    </g>
    <g id="ytick_88">
     <g id="line2d_139">
      <g>
       <use xlink:href="#m08fbf860fb" x="347.673528" y="356.678496" style="fill: #555555; stroke: #555555; stroke-width: 1.5"/>
      </g>
     </g>
    </g>
    <g id="ytick_89">
     <g id="line2d_140">
      <g>
       <use xlink:href="#m08fbf860fb" x="347.673528" y="335.960717" style="fill: #555555; stroke: #555555; stroke-width: 1.5"/>
      </g>
     </g>
    </g>
    <g id="ytick_90">
     <g id="line2d_141">
      <g>
       <use xlink:href="#m08fbf860fb" x="347.673528" y="325.601828" style="fill: #555555; stroke: #555555; stroke-width: 1.5"/>
      </g>
     </g>
    </g>
    <g id="ytick_91">
     <g id="line2d_142">
      <g>
       <use xlink:href="#m08fbf860fb" x="347.673528" y="315.242938" style="fill: #555555; stroke: #555555; stroke-width: 1.5"/>
      </g>
     </g>
    </g>
    <g id="ytick_92">
     <g id="line2d_143">
      <g>
       <use xlink:href="#m08fbf860fb" x="347.673528" y="304.884049" style="fill: #555555; stroke: #555555; stroke-width: 1.5"/>
      </g>
     </g>
    </g>
    <g id="text_31">
     <!-- logreturn -->
     <g style="fill: #555555" transform="translate(306.852181 439.764072)rotate(-90)scale(0.18 -0.18)">
      <use xlink:href="#CMR17-6c" transform="scale(0.996264)"/>
      <use xlink:href="#CMR17-6f" transform="translate(24.871058 0)scale(0.996264)"/>
      <use xlink:href="#CMR17-67" transform="translate(70.561536 0)scale(0.996264)"/>
      <use xlink:href="#CMR17-72" transform="translate(116.252013 0)scale(0.996264)"/>
      <use xlink:href="#CMR17-65" transform="translate(151.532781 0)scale(0.996264)"/>
      <use xlink:href="#CMR17-74" transform="translate(192.018441 0)scale(0.996264)"/>
      <use xlink:href="#CMR17-75" transform="translate(227.299209 0)scale(0.996264)"/>
      <use xlink:href="#CMR17-72" transform="translate(278.194579 0)scale(0.996264)"/>
      <use xlink:href="#CMR17-6e" transform="translate(313.475346 0)scale(0.996264)"/>
     </g>
    </g>
   </g>
   <g id="line2d_144">
    <path d="M 356.448367 400.510071 
L 357.120353 385.593651 
L 357.770663 393.385244 
L 358.442649 388.530874 
L 359.092958 391.311056 
L 359.764944 400.041191 
L 360.436931 404.546204 
L 361.08724 386.377337 
L 361.759226 389.546678 
L 362.409535 387.961892 
L 363.081522 401.71404 
L 363.753508 405.925293 
L 364.360463 402.040744 
L 365.032449 389.945507 
L 365.682759 398.751172 
L 366.354745 391.212355 
L 367.005054 405.428206 
L 367.67704 391.099745 
L 368.349027 403.550834 
L 368.999336 397.655556 
L 369.671322 386.275751 
L 370.321632 407.833512 
L 370.993618 404.397749 
L 371.665604 394.683574 
L 372.272559 402.947888 
L 372.944546 403.517942 
L 373.594855 392.809317 
L 374.266841 394.719887 
L 374.91715 403.730542 
L 375.589137 402.072634 
L 376.261123 391.574821 
L 376.911432 410.819372 
L 377.583418 401.126071 
L 378.233728 407.430948 
L 380.184655 391.113738 
L 380.856642 403.236172 
L 381.506951 395.803215 
L 382.178937 403.226016 
L 382.829246 393.081406 
L 383.501233 384.423507 
L 384.173219 397.182831 
L 384.823528 419.592051 
L 385.495514 386.25336 
L 386.145824 395.75109 
L 386.81781 395.134196 
L 387.489796 384.069452 
L 388.118428 406.995959 
L 388.790415 401.638043 
L 389.440724 402.717071 
L 390.11271 389.486522 
L 390.763019 364.255422 
L 391.435006 415.558069 
L 392.106992 418.846555 
L 392.757301 398.320818 
L 393.429287 406.706888 
L 394.079597 409.354808 
L 394.751583 391.236239 
L 395.423569 401.874682 
L 396.030524 393.011686 
L 396.702511 404.318623 
L 397.35282 380.35702 
L 398.024806 402.059971 
L 398.675115 383.273594 
L 399.347102 403.785334 
L 400.019088 399.058386 
L 400.669397 390.776273 
L 401.341383 409.10814 
L 401.991693 395.081692 
L 402.663679 392.195888 
L 403.335665 399.920615 
L 403.94262 398.536491 
L 404.614607 393.68746 
L 405.264916 395.944687 
L 405.936902 390.454377 
L 406.587211 396.867803 
L 407.259198 402.208979 
L 407.931184 397.202682 
L 408.581493 395.768285 
L 409.253479 402.560126 
L 409.903789 399.158948 
L 410.575775 403.785074 
L 411.247761 400.386888 
L 411.854716 400.012394 
L 412.526703 394.109714 
L 413.177012 395.491195 
L 414.499307 402.548416 
L 415.171294 399.261528 
L 415.84328 400.750377 
L 416.493589 388.451923 
L 417.165575 404.508377 
L 417.815885 389.32613 
L 418.487871 396.057744 
L 419.159857 400.870781 
L 419.788489 404.409001 
L 420.460476 384.439409 
L 421.782771 410.506452 
L 422.43308 388.113221 
L 423.105067 396.400669 
L 423.777053 414.668319 
L 424.427362 388.881486 
L 425.099348 427.025285 
L 425.749658 398.519297 
L 426.421644 384.13728 
L 427.09363 385.511796 
L 427.700585 397.210755 
L 428.372572 396.460733 
L 429.022881 392.414219 
L 429.694867 390.624358 
L 430.345176 398.436352 
L 431.017163 409.647707 
L 431.689149 381.819963 
L 432.339458 407.337345 
L 433.011444 399.682899 
L 433.661754 393.889283 
L 434.33374 401.875425 
L 435.005726 392.845974 
L 435.612682 407.159217 
L 436.284668 403.440001 
L 436.934977 391.261886 
L 437.606963 395.884526 
L 438.257273 393.85247 
L 438.929259 400.689355 
L 439.601245 399.784331 
L 440.251554 410.274538 
L 440.92354 407.506732 
L 441.57385 385.124099 
L 442.245836 402.511751 
L 442.917822 398.239225 
L 443.524778 398.467189 
L 444.196764 405.595068 
L 444.847073 403.06657 
L 445.519059 396.056866 
L 446.169369 407.376412 
L 446.841355 399.214122 
L 447.513341 412.251297 
L 448.16365 372.658124 
L 448.835637 405.900583 
L 449.485946 385.591538 
L 450.157932 395.897325 
L 450.829918 393.034499 
L 451.458551 404.963837 
L 452.130537 395.35802 
L 452.780846 399.009295 
L 453.452832 388.362877 
L 454.103142 432.377381 
L 454.775128 373.162215 
L 455.447114 406.673792 
L 456.097423 398.701617 
L 456.76941 383.464821 
L 458.091705 406.709249 
L 458.763691 404.149574 
L 459.370647 409.486783 
L 460.042633 403.994468 
L 460.692942 385.772895 
L 461.364928 503.913856 
L 462.015238 310.027612 
L 462.687224 344.739956 
L 463.35921 410.582801 
L 464.009519 405.770307 
L 464.681506 389.849621 
L 465.331815 395.483073 
L 466.003801 411.448237 
L 466.675787 390.901311 
L 467.282743 408.231351 
L 467.954729 422.816275 
L 468.605038 395.440959 
L 469.277024 407.711769 
L 469.927334 379.438483 
L 470.59932 365.734322 
L 471.271306 367.908293 
L 471.921615 416.819937 
L 472.593602 366.270705 
L 473.243911 408.384728 
L 473.915897 419.474312 
L 474.587883 402.477112 
L 475.194839 401.331182 
L 475.866825 403.67773 
L 476.517134 406.552963 
L 477.18912 375.506697 
L 477.83943 402.514403 
L 478.511416 385.07199 
L 479.183402 403.61627 
L 479.833711 410.672964 
L 480.505698 394.219079 
L 481.156007 414.185828 
L 481.827993 409.408535 
L 482.499979 397.213033 
L 483.128612 399.033664 
L 484.450907 389.4159 
L 485.122893 361.737491 
L 485.773203 439.614749 
L 486.445189 385.620107 
L 487.117175 392.314498 
L 487.767484 410.986695 
L 488.439471 397.634219 
L 489.08978 397.27434 
L 489.761766 398.482588 
L 490.433752 390.935143 
L 491.040708 402.275038 
L 491.712694 395.144802 
L 492.363003 394.987551 
L 493.034989 399.68617 
L 493.685299 394.874398 
L 494.357285 398.816149 
L 495.029271 397.094174 
L 495.67958 401.349088 
L 496.351567 397.767033 
L 497.001876 388.165376 
L 497.673862 399.642311 
L 498.345848 393.028318 
L 498.952804 376.517246 
L 499.62479 403.985569 
L 500.275099 396.451897 
L 500.947085 400.169717 
L 501.597395 386.293234 
L 502.269381 407.04346 
L 502.941367 403.809004 
L 503.591676 394.805024 
L 504.913972 415.312827 
L 505.585958 399.293532 
L 506.257944 395.265156 
L 506.8649 399.529171 
L 507.536886 394.948451 
L 508.187195 392.82102 
L 508.859182 389.823152 
L 509.509491 412.273907 
L 510.181477 399.384292 
L 510.853463 403.262331 
L 511.503773 408.015404 
L 512.175759 394.602557 
L 512.826068 384.153146 
L 513.498054 401.278744 
L 514.17004 398.112986 
L 514.798673 400.288709 
L 515.470659 385.630753 
L 516.120968 415.663191 
L 516.792955 398.675667 
L 517.443264 411.75124 
L 518.11525 383.986506 
L 518.787236 399.715807 
L 519.437546 390.697237 
L 520.109532 375.343262 
L 520.759841 415.297932 
L 521.431827 398.856208 
L 522.103813 419.109891 
L 522.710769 393.23212 
L 523.382755 397.727597 
L 524.033064 386.63053 
L 524.705051 419.354937 
L 525.35536 375.950637 
L 526.699332 401.045009 
L 527.349642 397.859667 
L 528.021628 379.915138 
L 528.671937 402.911305 
L 529.343923 390.539888 
L 530.01591 405.967821 
L 531.294851 387.347817 
L 531.94516 391.972737 
L 531.94516 391.972737 
" clip-path="url(#pa6b4067257)" style="fill: none; stroke: #a43725; stroke-width: 2.25; stroke-linecap: square"/>
   </g>
   <g id="patch_12">
    <path d="M 347.673528 513.608168 
L 347.673528 300.3333 
" style="fill: none; stroke: #ffffff; stroke-width: 1.875; stroke-linejoin: miter; stroke-linecap: square"/>
   </g>
   <g id="patch_13">
    <path d="M 347.673528 513.608168 
L 540.72 513.608168 
" style="fill: none; stroke: #ffffff; stroke-width: 1.875; stroke-linejoin: miter; stroke-linecap: square"/>
   </g>
   <g id="text_32">
    <!-- Crush Spread -->
    <g transform="translate(395.272655 294.3333)scale(0.18 -0.18)">
     <defs>
      <path id="CMR17-43" d="M 3974 4289 
C 3974 4403 3968 4410 3930 4410 
C 3904 4410 3898 4403 3853 4327 
L 3571 3792 
C 3258 4187 2874 4416 2381 4416 
C 1286 4416 294 3456 294 2148 
C 294 826 1286 -128 2387 -128 
C 3366 -128 3974 730 3974 1461 
C 3974 1524 3974 1550 3917 1550 
C 3866 1550 3866 1531 3859 1474 
C 3808 585 3168 38 2477 38 
C 1824 38 781 495 781 2147 
C 781 3805 1843 4250 2464 4250 
C 3187 4250 3712 3628 3834 2745 
C 3846 2668 3846 2655 3904 2655 
C 3974 2655 3974 2668 3974 2783 
L 3974 4289 
z
" transform="scale(0.015625)"/>
      <path id="CMR17-73" d="M 1978 2697 
C 1978 2813 1971 2819 1933 2819 
C 1907 2819 1901 2813 1824 2717 
C 1805 2691 1747 2626 1728 2601 
C 1523 2819 1235 2819 1126 2819 
C 416 2819 160 2447 160 2076 
C 160 1498 813 1365 998 1325 
C 1402 1243 1542 1217 1677 1101 
C 1760 1025 1901 884 1901 654 
C 1901 384 1747 38 1158 38 
C 602 38 403 460 288 1021 
C 269 1110 269 1117 218 1117 
C 166 1117 160 1110 160 983 
L 160 63 
C 160 -51 166 -58 205 -58 
C 237 -58 243 -51 275 0 
C 314 57 410 211 448 276 
C 576 103 800 -64 1158 -64 
C 1792 -64 2131 283 2131 784 
C 2131 1112 1958 1285 1875 1362 
C 1683 1561 1459 1606 1190 1657 
C 838 1735 390 1825 390 2217 
C 390 2383 480 2737 1126 2737 
C 1811 2737 1850 2094 1862 1888 
C 1869 1856 1901 1849 1920 1849 
C 1978 1849 1978 1869 1978 1978 
L 1978 2697 
z
" transform="scale(0.015625)"/>
      <path id="CMR17-68" d="M 2656 1933 
C 2656 2259 2592 2790 1837 2790 
C 1312 2790 1056 2368 979 2157 
L 973 2157 
L 973 4396 
L 211 4326 
L 211 4160 
C 589 4160 646 4122 646 3817 
L 646 426 
C 646 184 621 153 211 153 
L 211 -13 
C 365 0 646 0 813 0 
C 979 0 1267 0 1421 -13 
L 1421 153 
C 1011 153 986 178 986 428 
L 986 1658 
C 986 2247 1344 2688 1792 2688 
C 2266 2688 2317 2266 2317 1958 
L 2317 428 
C 2317 184 2291 153 1882 153 
L 1882 -13 
C 2035 0 2317 0 2483 0 
C 2650 0 2938 0 3091 -13 
L 3091 153 
C 2682 153 2656 178 2656 428 
L 2656 1933 
z
" transform="scale(0.015625)"/>
      <path id="CMR17-70" d="M 1408 -1063 
C 998 -1063 973 -1037 973 -789 
L 973 402 
C 1158 134 1427 -38 1766 -38 
C 2406 -38 3053 523 3053 1388 
C 3053 2191 2496 2802 1837 2802 
C 1453 2802 1139 2592 960 2338 
L 960 2802 
L 198 2732 
L 198 2567 
C 576 2567 634 2528 634 2223 
L 634 -789 
C 634 -1031 608 -1063 198 -1063 
L 198 -1228 
C 352 -1216 634 -1216 800 -1216 
C 966 -1216 1254 -1216 1408 -1228 
L 1408 -1063 
z
M 973 2012 
C 973 2102 973 2235 1222 2471 
C 1254 2497 1472 2688 1792 2688 
C 2259 2688 2643 2108 2643 1382 
C 2643 656 2234 64 1728 64 
C 1498 64 1248 172 1056 472 
C 973 612 973 650 973 752 
L 973 2012 
z
" transform="scale(0.015625)"/>
      <path id="CMR17-64" d="M 1869 4326 
L 1869 4160 
C 2246 4160 2304 4122 2304 3820 
L 2304 2345 
C 2278 2377 2016 2790 1498 2790 
C 845 2790 211 2208 211 1364 
C 211 525 806 -64 1434 -64 
C 1978 -64 2259 337 2291 380 
L 2291 -63 
L 3066 -63 
L 3066 128 
C 2688 128 2630 166 2630 473 
L 2630 4396 
L 1869 4326 
z
M 2291 755 
C 2291 563 2176 390 2029 262 
C 1811 70 1594 38 1472 38 
C 1286 38 621 134 621 1356 
C 621 2612 1363 2688 1530 2688 
C 1824 2688 2061 2522 2208 2291 
C 2291 2157 2291 2138 2291 2023 
L 2291 755 
z
" transform="scale(0.015625)"/>
     </defs>
     <use xlink:href="#CMR17-43" transform="scale(0.996264)"/>
     <use xlink:href="#CMR17-72" transform="translate(66.509881 0)scale(0.996264)"/>
     <use xlink:href="#CMR17-75" transform="translate(101.790648 0)scale(0.996264)"/>
     <use xlink:href="#CMR17-73" transform="translate(152.686018 0)scale(0.996264)"/>
     <use xlink:href="#CMR17-68" transform="translate(188.487356 0)scale(0.996264)"/>
     <use xlink:href="#CMR17-53" transform="translate(269.458692 0)scale(0.996264)"/>
     <use xlink:href="#CMR17-70" transform="translate(320.354062 0)scale(0.996264)"/>
     <use xlink:href="#CMR17-72" transform="translate(371.249431 0)scale(0.996264)"/>
     <use xlink:href="#CMR17-65" transform="translate(406.530199 0)scale(0.996264)"/>
     <use xlink:href="#CMR17-61" transform="translate(447.01586 0)scale(0.996264)"/>
     <use xlink:href="#CMR17-64" transform="translate(492.706337 0)scale(0.996264)"/>
    </g>
   </g>
  </g>
 </g>
 <defs>
  <clipPath id="p9156c22d00">
   <rect x="69.393528" y="22.0533" width="193.046472" height="213.274868"/>
  </clipPath>
  <clipPath id="pfbf07b1330">
   <rect x="347.673528" y="22.0533" width="193.046472" height="213.274868"/>
  </clipPath>
  <clipPath id="p7dfde311d1">
   <rect x="69.393528" y="300.3333" width="193.046472" height="213.274868"/>
  </clipPath>
  <clipPath id="pa6b4067257">
   <rect x="347.673528" y="300.3333" width="193.046472" height="213.274868"/>
  </clipPath>
 </defs>
</svg>
