<svg class="main-svg" xmlns="http://www.w3.org/2000/svg" xmlns:xlink="http://www.w3.org/1999/xlink" width="1500" height="1500" style="" viewBox="0 0 500 500"><rect x="0" y="0" width="500" height="500" style="fill: rgb(255, 255, 255); fill-opacity: 1;"/><defs id="defs-1426b7"><g class="clips"><clipPath id="clip1426b7xyplot" class="plotclip"><rect width="364" height="437"/></clipPath><clipPath class="axesclip" id="clip1426b7x"><rect x="26" y="0" width="364" height="500"/></clipPath><clipPath class="axesclip" id="clip1426b7y"><rect x="0" y="40" width="500" height="437"/></clipPath><clipPath class="axesclip" id="clip1426b7xy"><rect x="26" y="40" width="364" height="437"/></clipPath><clipPath class="contourclip" id="clip88d136"><path d="M0,0L364,0L364,437L0,437Z"/></clipPath></g><g class="gradients"/><g class="patterns"/></defs><g class="bglayer"><rect class="bg" x="26" y="40" width="364" height="437" style="fill: rgb(237, 237, 237); fill-opacity: 1; stroke-width: 0;"/></g><g class="layer-below"><g class="imagelayer"/><g class="shapelayer"/></g><g class="cartesianlayer"><g class="subplot xy"><g class="layer-subplot"><g class="shapelayer"/><g class="imagelayer"/></g><g class="gridlayer"><g class="x"><path class="xgrid crisp" transform="translate(84.61,0)" d="M0,40v437" style="stroke: rgb(255, 255, 255); stroke-opacity: 1; stroke-width: 1px;"/><path class="xgrid crisp" transform="translate(331.39,0)" d="M0,40v437" style="stroke: rgb(255, 255, 255); stroke-opacity: 1; stroke-width: 1px;"/></g><g class="y"><path class="ygrid crisp" transform="translate(0,406.64)" d="M26,0h364" style="stroke: rgb(255, 255, 255); stroke-opacity: 1; stroke-width: 1px;"/><path class="ygrid crisp" transform="translate(0,332.57)" d="M26,0h364" style="stroke: rgb(255, 255, 255); stroke-opacity: 1; stroke-width: 1px;"/><path class="ygrid crisp" transform="translate(0,184.43)" d="M26,0h364" style="stroke: rgb(255, 255, 255); stroke-opacity: 1; stroke-width: 1px;"/><path class="ygrid crisp" transform="translate(0,110.36)" d="M26,0h364" style="stroke: rgb(255, 255, 255); stroke-opacity: 1; stroke-width: 1px;"/></g></g><g class="zerolinelayer"><path class="xzl zl crisp" transform="translate(208,0)" d="M0,40v437" style="stroke: rgb(255, 255, 255); stroke-opacity: 1; stroke-width: 1px;"/><path class="yzl zl crisp" transform="translate(0,258.5)" d="M26,0h364" style="stroke: rgb(255, 255, 255); stroke-opacity: 1; stroke-width: 1px;"/></g><path class="xlines-below"/><path class="ylines-below"/><g class="overlines-below"/><g class="xaxislayer-below"/><g class="yaxislayer-below"/><g class="overaxes-below"/><g class="plot" transform="translate(26,40)" clip-path="url(#clip1426b7xyplot)"><g class="contourlayer mlayer"><g class="contour" clip-path="url(#clip88d136)" style="opacity: 1;"><g class="heatmapcoloring"/><g class="contourbg"/><g class="contourfill"/><g class="contourlines"><g class="contourlevel"><path class="openline" d="M38.68,437Q37.45,435.86 36.77,435.2C35.96,434.42 34.82,433.26 34.14,432.59C33.71,432.16 33.54,432 33.09,431.55C32.27,430.71 30.8,429.21 29.619999999999997,427.95500000000004C28.36,426.62 27.02,425.17 25.74,423.76C24.46,422.35 23.18,420.93 21.924999999999997,419.495C20.67,418.06 19.43,416.61 18.205,415.14C16.98,413.67 15.77,412.18 14.58,410.67999999999995C13.38,409.17 12.2,407.64 11.03,406.1C9.85,404.56 8.65,402.95 7.535,401.435C6.49,400.01 5.23,398.26 4.54,397.27C4.16,396.73 4.03,396.52 3.68,396.01C3.12,395.2 2.15,393.83 1.5,392.86Q0.95,392.04 0,390.56" style="stroke-miterlimit: 1; vector-effect: non-scaling-stroke; fill: none; stroke: rgb(34, 30, 27); stroke-opacity: 1; stroke-width: 2px;"/><path class="openline" d="M364,390.56Q363.05,392.04 362.5,392.86C361.85,393.83 360.88,395.2 360.32,396.01C359.97,396.52 359.84,396.73 359.46,397.27C358.77,398.26 357.51,400.01 356.465,401.435C355.35,402.95 354.15,404.56 352.97,406.1C351.8,407.64 350.62,409.17 349.42,410.67999999999995C348.23,412.18 347.02,413.67 345.795,415.14C344.57,416.61 343.33,418.06 342.075,419.495C340.82,420.93 339.54,422.35 338.26,423.76C336.98,425.17 335.64,426.62 334.38,427.95500000000004C333.2,429.21 331.73,430.71 330.91,431.55C330.46,432 330.29,432.16 329.86,432.59C329.18,433.26 328.04,434.42 327.23,435.2Q326.55,435.86 325.32,437" style="stroke-miterlimit: 1; vector-effect: non-scaling-stroke; fill: none; stroke: rgb(34, 30, 27); stroke-opacity: 1; stroke-width: 2px;"/><path class="openline" d="M0,46.44Q0.95,44.96 1.5,44.14C2.15,43.17 3.12,41.8 3.68,40.99C4.03,40.48 4.16,40.27 4.54,39.73C5.23,38.74 6.49,36.99 7.535,35.565C8.65,34.05 9.85,32.44 11.03,30.9C12.2,29.36 13.38,27.83 14.58,26.32C15.77,24.82 16.98,23.33 18.205,21.86C19.43,20.39 20.67,18.94 21.924999999999997,17.505000000000003C23.18,16.07 24.46,14.65 25.74,13.24C27.02,11.83 28.36,10.38 29.619999999999997,9.045C30.8,7.79 32.27,6.29 33.09,5.45C33.54,5 33.71,4.84 34.14,4.41C34.82,3.74 35.96,2.58 36.77,1.8Q37.45,1.14 38.68,0" style="stroke-miterlimit: 1; vector-effect: non-scaling-stroke; fill: none; stroke: rgb(34, 30, 27); stroke-opacity: 1; stroke-width: 2px;"/><path class="openline" d="M325.32,0Q326.55,1.14 327.23,1.8C328.04,2.58 329.18,3.74 329.86,4.41C330.29,4.84 330.46,5 330.91,5.45C331.73,6.29 333.2,7.79 334.38,9.045C335.64,10.38 336.98,11.83 338.26,13.24C339.54,14.65 340.82,16.07 342.075,17.505000000000003C343.33,18.94 344.57,20.39 345.795,21.86C347.02,23.33 348.23,24.82 349.42,26.32C350.62,27.83 351.8,29.36 352.97,30.9C354.15,32.44 355.35,34.05 356.465,35.565C357.51,36.99 358.77,38.74 359.46,39.73C359.84,40.27 359.97,40.48 360.32,40.99C360.88,41.8 361.85,43.17 362.5,44.14Q363.05,44.96 364,46.44" style="stroke-miterlimit: 1; vector-effect: non-scaling-stroke; fill: none; stroke: rgb(34, 30, 27); stroke-opacity: 1; stroke-width: 2px;"/></g><g class="contourlevel"><path class="closedline" d="M161.78,380.1C160.91,379.94 160.12,379.75 159.45,379.62C158.94,379.52 158.66,379.48 158.1,379.36C157.17,379.17 155.64,378.84 154.42,378.54C153.19,378.24 151.97,377.93 150.75,377.58C149.52,377.23 148.29,376.86 147.07,376.46C145.85,376.06 144.65,375.62 143.43,375.19C142.2,374.75 140.95,374.32 139.72,373.85C138.49,373.37 137.25,372.87 136.04,372.34C134.85,371.82 133.72,371.28 132.53,370.71500000000003C131.28,370.13 129.95,369.52 128.69,368.88C127.44,368.24 125.82,367.34 125.01,366.89C124.61,366.66 124.5,366.59 124.12,366.37C123.45,365.99 122.32,365.39 121.33,364.8C120.18,364.12 118.44,362.99 117.66,362.49C117.29,362.25 117.21,362.19 116.86,361.96C116.2,361.52 114.98,360.76 113.98,360.06C112.85,359.27 111.62,358.36 110.41499999999999,357.46500000000003C109.17,356.54 107.64,355.39 106.63,354.58C105.93,354.02 105.48,353.62 104.88,353.13C104.25,352.61 103.67,352.15 102.95,351.54C102.02,350.74 100.4,349.27 99.79,348.72C99.54,348.5 99.52,348.48 99.27,348.25C98.57,347.6 96.62,345.76 95.375,344.525C94.18,343.34 92.73,341.85 91.92,341C91.47,340.53 91.31,340.35 90.89,339.89C90.21,339.15 88.96,337.78 88.24,336.96C87.73,336.38 87.45,336.05 86.96,335.47C86.28,334.67 85.23,333.41 84.57,332.6C84.09,332.01 83.81,331.67 83.33,331.06C82.65,330.19 81.51,328.69 80.89,327.88C80.51,327.38 80.35,327.19 79.96,326.65C79.25,325.68 78.01,323.93 77.025,322.495C75.99,320.99 74.45,318.66 73.92,317.82C73.73,317.52 73.72,317.49 73.54,317.19C73.09,316.46 71.85,314.51 71.19,313.4C70.68,312.54 70.29,311.84 69.86,311.09C69.45,310.37 69.11,309.83 68.65,308.99C67.98,307.77 67.02,305.94 66.25,304.44C65.5,302.99 64.74,301.52 64.09,300.16C63.51,298.95 62.88,297.49 62.51,296.7C62.32,296.28 62.26,296.18 62.06,295.75C61.64,294.82 60.71,292.71 60.14,291.33C59.65,290.14 59.15,288.79 58.83,287.99C58.65,287.53 58.59,287.4 58.4,286.92C58.02,285.95 57.27,284 56.74,282.51C56.2,280.99 55.71,279.4 55.215,277.89C54.75,276.45 54.29,275.1 53.86,273.68C53.42,272.23 53,270.74 52.6,269.26C52.2,267.78 51.85,266.28 51.485,264.805C51.13,263.34 50.76,261.89 50.43,260.43C50.1,258.97 49.79,257.49 49.5,256.02C49.21,254.55 48.94,253.08 48.69,251.61C48.44,250.14 48.17,248.3 48.01,247.19C47.91,246.52 47.88,246.18 47.8,245.57C47.69,244.77 47.54,243.82 47.4,242.78C47.23,241.48 47.04,239.83 46.88,238.36C46.73,236.89 46.59,235.42 46.47,233.95C46.35,232.48 46.25,231.01 46.17,229.54C46.09,228.07 46.02,226.59 45.97,225.12C45.92,223.65 45.89,222.18 45.87,220.71C45.85,219.24 45.85,217.76 45.87,216.29C45.89,214.82 45.92,213.35 45.97,211.88C46.02,210.41 46.09,208.93 46.17,207.46C46.25,205.99 46.35,204.52 46.47,203.05C46.59,201.58 46.73,200.11 46.88,198.64C47.04,197.17 47.23,195.52 47.4,194.22C47.54,193.18 47.69,192.23 47.8,191.43C47.88,190.82 47.91,190.48 48.01,189.81C48.17,188.7 48.44,186.86 48.69,185.39C48.94,183.92 49.21,182.45 49.5,180.98C49.79,179.51 50.1,178.03 50.43,176.57C50.76,175.11 51.13,173.66 51.485,172.195C51.85,170.72 52.2,169.22 52.6,167.74C53,166.26 53.42,164.77 53.86,163.32C54.29,161.9 54.75,160.55 55.215,159.11C55.71,157.6 56.2,156.01 56.74,154.49C57.27,153 58.02,151.05 58.4,150.08C58.59,149.6 58.65,149.47 58.83,149.01C59.15,148.21 59.65,146.86 60.14,145.67C60.71,144.29 61.64,142.18 62.06,141.25C62.26,140.82 62.32,140.72 62.51,140.3C62.88,139.51 63.51,138.05 64.09,136.84C64.74,135.48 65.5,134.01 66.25,132.56C67.02,131.06 67.98,129.23 68.65,128.01C69.11,127.17 69.45,126.63 69.86,125.91C70.29,125.16 70.68,124.46 71.19,123.6C71.85,122.49 73.09,120.54 73.54,119.81C73.72,119.51 73.73,119.48 73.92,119.18C74.45,118.34 75.99,116.01 77.025,114.505C78.01,113.07 79.25,111.32 79.96,110.35C80.35,109.81 80.51,109.62 80.89,109.12C81.51,108.31 82.65,106.81 83.33,105.94C83.81,105.33 84.09,104.99 84.57,104.4C85.23,103.59 86.28,102.33 86.96,101.53C87.45,100.95 87.73,100.62 88.24,100.04C88.96,99.22 90.21,97.85 90.89,97.11C91.31,96.65 91.47,96.47 91.92,96C92.73,95.15 94.18,93.66 95.375,92.475C96.62,91.24 98.57,89.4 99.27,88.75C99.52,88.52 99.54,88.5 99.79,88.28C100.4,87.73 102.02,86.26 102.95,85.46C103.67,84.85 104.25,84.39 104.88,83.87C105.48,83.38 105.93,82.98 106.63,82.42C107.64,81.61 109.17,80.46 110.41499999999999,79.535C111.62,78.64 112.85,77.73 113.98,76.94C114.98,76.24 116.2,75.48 116.86,75.04C117.21,74.81 117.29,74.75 117.66,74.51C118.44,74.01 120.18,72.88 121.33,72.2C122.32,71.61 123.45,71.01 124.12,70.63C124.5,70.41 124.61,70.34 125.01,70.11C125.82,69.66 127.44,68.76 128.69,68.12C129.95,67.48 131.28,66.87 132.53,66.285C133.72,65.72 134.85,65.18 136.04,64.66C137.25,64.13 138.49,63.63 139.72,63.15C140.95,62.68 142.2,62.25 143.43,61.81C144.65,61.38 145.85,60.94 147.07,60.54C148.29,60.14 149.52,59.77 150.75,59.42C151.97,59.07 153.19,58.76 154.42,58.46C155.64,58.16 157.17,57.83 158.1,57.64C158.66,57.52 158.94,57.48 159.45,57.38C160.12,57.25 160.91,57.06 161.78,56.9C162.86,56.7 164.22,56.47 165.45,56.28C166.67,56.1 167.9,55.93 169.13,55.79C170.36,55.65 171.58,55.53 172.81,55.43C174.03,55.33 175.26,55.25 176.48,55.19C177.71,55.13 178.93,55.09 180.16,55.07C181.39,55.05 182.61,55.05 183.84,55.07C185.07,55.09 186.29,55.13 187.52,55.19C188.74,55.25 189.97,55.33 191.19,55.43C192.42,55.53 193.64,55.65 194.87,55.79C196.1,55.93 197.33,56.1 198.55,56.28C199.78,56.47 201.14,56.7 202.22,56.9C203.09,57.06 203.88,57.25 204.55,57.38C205.06,57.48 205.34,57.52 205.9,57.64C206.83,57.83 208.36,58.16 209.58,58.46C210.81,58.76 212.03,59.07 213.25,59.42C214.48,59.77 215.71,60.14 216.93,60.54C218.15,60.94 219.35,61.38 220.57,61.81C221.8,62.25 223.05,62.68 224.28,63.15C225.51,63.63 226.75,64.13 227.96,64.66C229.15,65.18 230.28,65.72 231.47,66.285C232.72,66.87 234.05,67.48 235.31,68.12C236.56,68.76 238.18,69.66 238.99,70.11C239.39,70.34 239.5,70.41 239.88,70.63C240.55,71.01 241.68,71.61 242.67,72.2C243.82,72.88 245.56,74.01 246.34,74.51C246.71,74.75 246.79,74.81 247.14,75.04C247.8,75.48 249.02,76.24 250.02,76.94C251.15,77.73 252.38,78.64 253.58499999999998,79.535C254.83,80.46 256.36,81.61 257.37,82.42C258.07,82.98 258.52,83.38 259.12,83.87C259.75,84.39 260.33,84.85 261.05,85.46C261.98,86.26 263.6,87.73 264.21,88.28C264.46,88.5 264.48,88.52 264.73,88.75C265.43,89.4 267.38,91.24 268.625,92.475C269.82,93.66 271.27,95.15 272.08,96C272.53,96.47 272.69,96.65 273.11,97.11C273.79,97.85 275.04,99.22 275.76,100.04C276.27,100.62 276.55,100.95 277.04,101.53C277.72,102.33 278.77,103.59 279.43,104.4C279.91,104.99 280.19,105.33 280.67,105.94C281.35,106.81 282.49,108.31 283.11,109.12C283.49,109.62 283.65,109.81 284.04,110.35C284.75,111.32 285.99,113.07 286.975,114.505C288.01,116.01 289.55,118.34 290.08,119.18C290.27,119.48 290.28,119.51 290.46,119.81C290.91,120.54 292.15,122.49 292.81,123.6C293.32,124.46 293.71,125.16 294.14,125.91C294.55,126.63 294.89,127.17 295.35,128.01C296.02,129.23 296.98,131.06 297.75,132.56C298.5,134.01 299.26,135.48 299.91,136.84C300.49,138.05 301.12,139.51 301.49,140.3C301.68,140.72 301.74,140.82 301.94,141.25C302.36,142.18 303.29,144.29 303.86,145.67C304.35,146.86 304.85,148.21 305.17,149.01C305.35,149.47 305.41,149.6 305.6,150.08C305.98,151.05 306.73,153 307.26,154.49C307.8,156.01 308.29,157.6 308.785,159.11C309.25,160.55 309.71,161.9 310.14,163.32C310.58,164.77 311,166.26 311.4,167.74C311.8,169.22 312.15,170.72 312.515,172.195C312.87,173.66 313.24,175.11 313.57,176.57C313.9,178.03 314.21,179.51 314.5,180.98C314.79,182.45 315.06,183.92 315.31,185.39C315.56,186.86 315.83,188.7 315.99,189.81C316.09,190.48 316.12,190.82 316.2,191.43C316.31,192.23 316.46,193.18 316.6,194.22C316.77,195.52 316.96,197.17 317.12,198.64C317.27,200.11 317.41,201.58 317.53,203.05C317.65,204.52 317.75,205.99 317.83,207.46C317.91,208.93 317.98,210.41 318.03,211.88C318.08,213.35 318.11,214.82 318.13,216.29C318.15,217.76 318.15,219.24 318.13,220.71C318.11,222.18 318.08,223.65 318.03,225.12C317.98,226.59 317.91,228.07 317.83,229.54C317.75,231.01 317.65,232.48 317.53,233.95C317.41,235.42 317.27,236.89 317.12,238.36C316.96,239.83 316.77,241.48 316.6,242.78C316.46,243.82 316.31,244.77 316.2,245.57C316.12,246.18 316.09,246.52 315.99,247.19C315.83,248.3 315.56,250.14 315.31,251.61C315.06,253.08 314.79,254.55 314.5,256.02C314.21,257.49 313.9,258.97 313.57,260.43C313.24,261.89 312.87,263.34 312.515,264.805C312.15,266.28 311.8,267.78 311.4,269.26C311,270.74 310.58,272.23 310.14,273.68C309.71,275.1 309.25,276.45 308.785,277.89C308.29,279.4 307.8,280.99 307.26,282.51C306.73,284 305.98,285.95 305.6,286.92C305.41,287.4 305.35,287.53 305.17,287.99C304.85,288.79 304.35,290.14 303.86,291.33C303.29,292.71 302.36,294.82 301.94,295.75C301.74,296.18 301.68,296.28 301.49,296.7C301.12,297.49 300.49,298.95 299.91,300.16C299.26,301.52 298.5,302.99 297.75,304.44C296.98,305.94 296.02,307.77 295.35,308.99C294.89,309.83 294.55,310.37 294.14,311.09C293.71,311.84 293.32,312.54 292.81,313.4C292.15,314.51 290.91,316.46 290.46,317.19C290.28,317.49 290.27,317.52 290.08,317.82C289.55,318.66 288.01,320.99 286.975,322.495C285.99,323.93 284.75,325.68 284.04,326.65C283.65,327.19 283.49,327.38 283.11,327.88C282.49,328.69 281.35,330.19 280.67,331.06C280.19,331.67 279.91,332.01 279.43,332.6C278.77,333.41 277.72,334.67 277.04,335.47C276.55,336.05 276.27,336.38 275.76,336.96C275.04,337.78 273.79,339.15 273.11,339.89C272.69,340.35 272.53,340.53 272.08,341C271.27,341.85 269.82,343.34 268.625,344.525C267.38,345.76 265.43,347.6 264.73,348.25C264.48,348.48 264.46,348.5 264.21,348.72C263.6,349.27 261.98,350.74 261.05,351.54C260.33,352.15 259.75,352.61 259.12,353.13C258.52,353.62 258.07,354.02 257.37,354.58C256.36,355.39 254.83,356.54 253.58499999999998,357.46500000000003C252.38,358.36 251.15,359.27 250.02,360.06C249.02,360.76 247.8,361.52 247.14,361.96C246.79,362.19 246.71,362.25 246.34,362.49C245.56,362.99 243.82,364.12 242.67,364.8C241.68,365.39 240.55,365.99 239.88,366.37C239.5,366.59 239.39,366.66 238.99,366.89C238.18,367.34 236.56,368.24 235.31,368.88C234.05,369.52 232.72,370.13 231.47,370.71500000000003C230.28,371.28 229.15,371.82 227.96,372.34C226.75,372.87 225.51,373.37 224.28,373.85C223.05,374.32 221.8,374.75 220.57,375.19C219.35,375.62 218.15,376.06 216.93,376.46C215.71,376.86 214.48,377.23 213.25,377.58C212.03,377.93 210.81,378.24 209.58,378.54C208.36,378.84 206.83,379.17 205.9,379.36C205.34,379.48 205.06,379.52 204.55,379.62C203.88,379.75 203.09,379.94 202.22,380.1C201.14,380.3 199.78,380.53 198.55,380.72C197.33,380.9 196.1,381.07 194.87,381.21C193.64,381.35 192.42,381.47 191.19,381.57C189.97,381.67 188.74,381.75 187.52,381.81C186.29,381.87 185.07,381.91 183.84,381.93C182.61,381.95 181.39,381.95 180.16,381.93C178.93,381.91 177.71,381.87 176.48,381.81C175.26,381.75 174.03,381.67 172.81,381.57C171.58,381.47 170.36,381.35 169.13,381.21C167.9,381.07 166.67,380.9 165.45,380.72C164.22,380.53 162.86,380.3 161.78,380.1Z" style="stroke-miterlimit: 1; vector-effect: non-scaling-stroke; fill: none; stroke: rgb(59, 46, 38); stroke-opacity: 1; stroke-width: 2px;"/></g><g class="contourlevel"><path class="closedline" d="M158.1,353.88C157.14,353.63 156.13,353.32 155.45,353.13C155.03,353.01 154.87,352.98 154.42,352.85C153.57,352.6 151.97,352.13 150.75,351.72C149.52,351.31 148.31,350.87 147.07,350.39C145.8,349.9 144.47,349.33 143.22,348.8C142.02,348.29 140.89,347.8 139.72,347.25C138.5,346.68 137.08,345.96 136.04,345.41C135.26,345 134.67,344.65 134.03,344.3C133.45,343.98 133.02,343.78 132.36,343.4C131.37,342.84 129.72,341.85 128.69,341.2C127.92,340.72 127.34,340.31 126.7,339.89C126.11,339.51 125.68,339.24 125.01,338.79C124.01,338.11 122.13,336.76 121.33,336.16C120.93,335.86 120.82,335.76 120.44,335.47C119.77,334.95 118.57,334.06 117.66,333.32C116.75,332.59 115.65,331.63 114.97,331.06C114.56,330.71 114.41,330.59 113.98,330.21C113.12,329.45 111.43,327.92 110.205,326.745C108.99,325.58 107.43,324 106.63,323.19C106.22,322.77 106.1,322.64 105.72,322.23C105.04,321.5 103.68,320.02 102.95,319.2C102.46,318.65 102.21,318.37 101.74,317.82C101.06,317.02 99.93,315.67 99.27,314.85C98.81,314.28 98.57,313.98 98.12,313.4C97.44,312.52 96.2,310.89 95.6,310.08C95.26,309.62 95.15,309.48 94.8,308.99C94.12,308.03 92.81,306.16 91.84,304.695C90.86,303.21 89.58,301.19 88.95,300.16C88.63,299.64 88.53,299.46 88.24,298.97C87.76,298.16 86.97,296.84 86.36,295.75C85.75,294.65 85,293.21 84.57,292.4C84.32,291.94 84.24,291.81 83.99,291.33C83.49,290.36 82.38,288.11 81.81,286.92C81.43,286.12 81.21,285.6 80.89,284.9C80.54,284.14 80.2,283.43 79.8,282.51C79.26,281.27 78.44,279.28 77.97,278.09C77.65,277.3 77.48,276.79 77.21,276.09C76.92,275.32 76.63,274.61 76.29,273.68C75.84,272.43 75.24,270.72 74.76,269.26C74.3,267.85 73.9,266.5 73.47,265.06C73.02,263.56 72.55,261.96 72.14,260.43C71.74,258.95 71.38,257.49 71.04,256.02C70.7,254.55 70.29,252.63 70.09,251.61C69.98,251.07 69.96,250.88 69.86,250.37C69.7,249.55 69.44,248.34 69.23,247.19C68.98,245.84 68.72,244.25 68.5,242.78C68.28,241.31 68.09,239.83 67.91,238.36C67.73,236.89 67.58,235.42 67.44,233.95C67.3,232.48 67.19,231.01 67.09,229.54C66.99,228.07 66.92,226.59 66.86,225.12C66.8,223.65 66.76,222.18 66.74,220.71C66.72,219.24 66.72,217.76 66.74,216.29C66.76,214.82 66.8,213.35 66.86,211.88C66.92,210.41 66.99,208.93 67.09,207.46C67.19,205.99 67.3,204.52 67.44,203.05C67.58,201.58 67.73,200.11 67.91,198.64C68.09,197.17 68.28,195.69 68.5,194.22C68.72,192.75 68.98,191.16 69.23,189.81C69.44,188.66 69.7,187.45 69.86,186.63C69.96,186.12 69.98,185.93 70.09,185.39C70.29,184.37 70.7,182.45 71.04,180.98C71.38,179.51 71.74,178.05 72.14,176.57C72.55,175.04 73.02,173.44 73.47,171.94C73.9,170.5 74.3,169.15 74.76,167.74C75.24,166.28 75.84,164.57 76.29,163.32C76.63,162.39 76.92,161.68 77.21,160.91C77.48,160.21 77.65,159.7 77.97,158.91C78.44,157.72 79.26,155.73 79.8,154.49C80.2,153.57 80.54,152.86 80.89,152.1C81.21,151.4 81.43,150.88 81.81,150.08C82.38,148.89 83.49,146.64 83.99,145.67C84.24,145.19 84.32,145.06 84.57,144.6C85,143.79 85.75,142.35 86.36,141.25C86.97,140.16 87.76,138.84 88.24,138.03C88.53,137.54 88.63,137.36 88.95,136.84C89.58,135.81 90.86,133.79 91.84,132.305C92.81,130.84 94.12,128.97 94.8,128.01C95.15,127.52 95.26,127.38 95.6,126.92C96.2,126.11 97.44,124.48 98.12,123.6C98.57,123.02 98.81,122.72 99.27,122.15C99.93,121.33 101.06,119.98 101.74,119.18C102.21,118.63 102.46,118.35 102.95,117.8C103.68,116.98 105.04,115.5 105.72,114.77C106.1,114.36 106.22,114.23 106.63,113.81C107.43,113 108.99,111.42 110.205,110.255C111.43,109.08 113.12,107.55 113.98,106.79C114.41,106.41 114.56,106.29 114.97,105.94C115.65,105.37 116.75,104.41 117.66,103.68C118.57,102.94 119.77,102.05 120.44,101.53C120.82,101.24 120.93,101.14 121.33,100.84C122.13,100.24 124.01,98.89 125.01,98.21C125.68,97.76 126.11,97.49 126.7,97.11C127.34,96.69 127.92,96.28 128.69,95.8C129.72,95.15 131.37,94.16 132.36,93.6C133.02,93.22 133.45,93.02 134.03,92.7C134.67,92.35 135.26,92 136.04,91.59C137.08,91.04 138.5,90.32 139.72,89.75C140.89,89.2 142.02,88.71 143.22,88.2C144.47,87.67 145.8,87.1 147.07,86.61C148.31,86.13 149.52,85.69 150.75,85.28C151.97,84.87 153.57,84.4 154.42,84.15C154.87,84.02 155.03,83.99 155.45,83.87C156.13,83.68 157.14,83.37 158.1,83.12C159.22,82.83 160.55,82.51 161.78,82.24C163,81.98 164.22,81.74 165.45,81.53C166.67,81.32 167.9,81.13 169.13,80.96C170.36,80.8 171.58,80.66 172.81,80.54C174.03,80.43 175.26,80.34 176.48,80.27C177.71,80.2 178.93,80.15 180.16,80.13C181.39,80.11 182.61,80.11 183.84,80.13C185.07,80.15 186.29,80.2 187.52,80.27C188.74,80.34 189.97,80.43 191.19,80.54C192.42,80.66 193.64,80.8 194.87,80.96C196.1,81.13 197.33,81.32 198.55,81.53C199.78,81.74 201,81.98 202.22,82.24C203.45,82.51 204.78,82.83 205.9,83.12C206.86,83.37 207.87,83.68 208.55,83.87C208.97,83.99 209.13,84.02 209.58,84.15C210.43,84.4 212.03,84.87 213.25,85.28C214.48,85.69 215.69,86.13 216.93,86.61C218.2,87.1 219.53,87.67 220.78,88.2C221.98,88.71 223.11,89.2 224.28,89.75C225.5,90.32 226.92,91.04 227.96,91.59C228.74,92 229.33,92.35 229.97,92.7C230.55,93.02 230.98,93.22 231.64,93.6C232.63,94.16 234.28,95.15 235.31,95.8C236.08,96.28 236.66,96.69 237.3,97.11C237.89,97.49 238.32,97.76 238.99,98.21C239.99,98.89 241.87,100.24 242.67,100.84C243.07,101.14 243.18,101.24 243.56,101.53C244.23,102.05 245.43,102.94 246.34,103.68C247.25,104.41 248.35,105.37 249.03,105.94C249.44,106.29 249.59,106.41 250.02,106.79C250.88,107.55 252.57,109.08 253.795,110.255C255.01,111.42 256.57,113 257.37,113.81C257.78,114.23 257.9,114.36 258.28,114.77C258.96,115.5 260.32,116.98 261.05,117.8C261.54,118.35 261.79,118.63 262.26,119.18C262.94,119.98 264.07,121.33 264.73,122.15C265.19,122.72 265.43,123.02 265.88,123.6C266.56,124.48 267.8,126.11 268.4,126.92C268.74,127.38 268.85,127.52 269.2,128.01C269.88,128.97 271.19,130.84 272.15999999999997,132.305C273.14,133.79 274.42,135.81 275.05,136.84C275.37,137.36 275.47,137.54 275.76,138.03C276.24,138.84 277.03,140.16 277.64,141.25C278.25,142.35 279,143.79 279.43,144.6C279.68,145.06 279.76,145.19 280.01,145.67C280.51,146.64 281.62,148.89 282.19,150.08C282.57,150.88 282.79,151.4 283.11,152.1C283.46,152.86 283.8,153.57 284.2,154.49C284.74,155.73 285.56,157.72 286.03,158.91C286.35,159.7 286.52,160.21 286.79,160.91C287.08,161.68 287.37,162.39 287.71,163.32C288.16,164.57 288.76,166.28 289.24,167.74C289.7,169.15 290.1,170.5 290.53,171.94C290.98,173.44 291.45,175.04 291.86,176.57C292.26,178.05 292.62,179.51 292.96,180.98C293.3,182.45 293.71,184.37 293.91,185.39C294.02,185.93 294.04,186.12 294.14,186.63C294.3,187.45 294.56,188.66 294.77,189.81C295.02,191.16 295.28,192.75 295.5,194.22C295.72,195.69 295.91,197.17 296.09,198.64C296.27,200.11 296.42,201.58 296.56,203.05C296.7,204.52 296.81,205.99 296.91,207.46C297.01,208.93 297.08,210.41 297.14,211.88C297.2,213.35 297.24,214.82 297.26,216.29C297.28,217.76 297.28,219.24 297.26,220.71C297.24,222.18 297.2,223.65 297.14,225.12C297.08,226.59 297.01,228.07 296.91,229.54C296.81,231.01 296.7,232.48 296.56,233.95C296.42,235.42 296.27,236.89 296.09,238.36C295.91,239.83 295.72,241.31 295.5,242.78C295.28,244.25 295.02,245.84 294.77,247.19C294.56,248.34 294.3,249.55 294.14,250.37C294.04,250.88 294.02,251.07 293.91,251.61C293.71,252.63 293.3,254.55 292.96,256.02C292.62,257.49 292.26,258.95 291.86,260.43C291.45,261.96 290.98,263.56 290.53,265.06C290.1,266.5 289.7,267.85 289.24,269.26C288.76,270.72 288.16,272.43 287.71,273.68C287.37,274.61 287.08,275.32 286.79,276.09C286.52,276.79 286.35,277.3 286.03,278.09C285.56,279.28 284.74,281.27 284.2,282.51C283.8,283.43 283.46,284.14 283.11,284.9C282.79,285.6 282.57,286.12 282.19,286.92C281.62,288.11 280.51,290.36 280.01,291.33C279.76,291.81 279.68,291.94 279.43,292.4C279,293.21 278.25,294.65 277.64,295.75C277.03,296.84 276.24,298.16 275.76,298.97C275.47,299.46 275.37,299.64 275.05,300.16C274.42,301.19 273.14,303.21 272.15999999999997,304.695C271.19,306.16 269.88,308.03 269.2,308.99C268.85,309.48 268.74,309.62 268.4,310.08C267.8,310.89 266.56,312.52 265.88,313.4C265.43,313.98 265.19,314.28 264.73,314.85C264.07,315.67 262.94,317.02 262.26,317.82C261.79,318.37 261.54,318.65 261.05,319.2C260.32,320.02 258.96,321.5 258.28,322.23C257.9,322.64 257.78,322.77 257.37,323.19C256.57,324 255.01,325.58 253.795,326.745C252.57,327.92 250.88,329.45 250.02,330.21C249.59,330.59 249.44,330.71 249.03,331.06C248.35,331.63 247.25,332.59 246.34,333.32C245.43,334.06 244.23,334.95 243.56,335.47C243.18,335.76 243.07,335.86 242.67,336.16C241.87,336.76 239.99,338.11 238.99,338.79C238.32,339.24 237.89,339.51 237.3,339.89C236.66,340.31 236.08,340.72 235.31,341.2C234.28,341.85 232.63,342.84 231.64,343.4C230.98,343.78 230.55,343.98 229.97,344.3C229.33,344.65 228.74,345 227.96,345.41C226.92,345.96 225.5,346.68 224.28,347.25C223.11,347.8 221.98,348.29 220.78,348.8C219.53,349.33 218.2,349.9 216.93,350.39C215.69,350.87 214.48,351.31 213.25,351.72C212.03,352.13 210.43,352.6 209.58,352.85C209.13,352.98 208.97,353.01 208.55,353.13C207.87,353.32 206.86,353.63 205.9,353.88C204.78,354.17 203.45,354.49 202.22,354.76C201,355.02 199.78,355.26 198.55,355.47C197.33,355.68 196.1,355.87 194.87,356.04C193.64,356.2 192.42,356.34 191.19,356.46C189.97,356.57 188.74,356.66 187.52,356.73C186.29,356.8 185.07,356.85 183.84,356.87C182.61,356.89 181.39,356.89 180.16,356.87C178.93,356.85 177.71,356.8 176.48,356.73C175.26,356.66 174.03,356.57 172.81,356.46C171.58,356.34 170.36,356.2 169.13,356.04C167.9,355.87 166.67,355.68 165.45,355.47C164.22,355.26 163,355.02 161.78,354.76C160.55,354.49 159.22,354.17 158.1,353.88Z" style="stroke-miterlimit: 1; vector-effect: non-scaling-stroke; fill: none; stroke: rgb(85, 62, 47); stroke-opacity: 1; stroke-width: 2px;"/></g><g class="contourlevel"><path class="closedline" d="M158.1,336.38C157.1,336.08 155.96,335.68 155.29,335.47C154.92,335.35 154.81,335.33 154.42,335.2C153.62,334.93 151.97,334.35 150.75,333.88C149.52,333.4 148.2,332.85 147.07,332.35C146.09,331.91 145.04,331.38 144.36,331.06C143.96,330.87 143.81,330.82 143.39,330.61C142.56,330.2 140.93,329.37 139.72,328.7C138.51,328.03 137.34,327.33 136.14,326.59C134.89,325.82 133.51,324.96 132.36,324.18C131.37,323.51 130.3,322.71 129.63,322.23C129.23,321.95 129.1,321.86 128.69,321.55C127.86,320.93 125.85,319.36 125.01,318.68C124.56,318.31 124.41,318.18 123.99,317.82C123.31,317.24 122.17,316.28 121.33,315.52C120.54,314.81 119.73,314.03 119.07,313.4C118.54,312.9 118.21,312.59 117.66,312.04C116.85,311.23 115.36,309.68 114.71,308.99C114.38,308.64 114.31,308.56 113.98,308.2C113.29,307.43 111.4,305.29 110.8,304.58C110.56,304.29 110.54,304.26 110.3,303.97C109.72,303.25 107.91,300.99 107.28,300.16C106.98,299.77 106.92,299.67 106.63,299.28C106.06,298.5 104.76,296.72 104.09,295.75C103.63,295.09 103.37,294.68 102.95,294.05C102.42,293.25 101.78,292.28 101.19,291.33C100.56,290.31 99.75,288.95 99.27,288.14C98.97,287.64 98.86,287.46 98.56,286.92C97.99,285.91 96.67,283.5 96.16,282.51C95.9,282.01 95.84,281.85 95.6,281.37C95.2,280.56 94.53,279.28 93.97,278.09C93.32,276.71 92.61,275.05 91.97,273.56C91.35,272.11 90.77,270.71 90.21,269.26C89.65,267.81 88.96,265.85 88.62,264.85C88.44,264.34 88.4,264.17 88.24,263.69C87.97,262.88 87.53,261.6 87.17,260.43C86.75,259.07 86.29,257.49 85.89,256.02C85.49,254.55 85.01,252.58 84.79,251.61C84.68,251.14 84.67,251.01 84.57,250.56C84.39,249.75 84.06,248.39 83.81,247.19C83.53,245.82 83.23,244.25 82.98,242.78C82.73,241.31 82.5,239.83 82.3,238.36C82.1,236.89 81.92,235.42 81.76,233.95C81.61,232.48 81.48,231.01 81.37,229.54C81.26,228.07 81.18,226.59 81.11,225.12C81.05,223.65 81,222.18 80.98,220.71C80.96,219.24 80.96,217.76 80.98,216.29C81,214.82 81.05,213.35 81.11,211.88C81.18,210.41 81.26,208.93 81.37,207.46C81.48,205.99 81.61,204.52 81.76,203.05C81.92,201.58 82.1,200.11 82.3,198.64C82.5,197.17 82.73,195.69 82.98,194.22C83.23,192.75 83.53,191.18 83.81,189.81C84.06,188.61 84.39,187.25 84.57,186.44C84.67,185.99 84.68,185.86 84.79,185.39C85.01,184.42 85.49,182.45 85.89,180.98C86.29,179.51 86.75,177.93 87.17,176.57C87.53,175.4 87.97,174.12 88.24,173.31C88.4,172.83 88.44,172.66 88.62,172.15C88.96,171.15 89.65,169.19 90.21,167.74C90.77,166.29 91.35,164.89 91.97,163.44C92.61,161.95 93.32,160.29 93.97,158.91C94.53,157.72 95.2,156.44 95.6,155.63C95.84,155.15 95.9,154.99 96.16,154.49C96.67,153.5 97.99,151.09 98.56,150.08C98.86,149.54 98.97,149.36 99.27,148.86C99.75,148.05 100.56,146.69 101.19,145.67C101.78,144.72 102.42,143.75 102.95,142.95C103.37,142.32 103.63,141.91 104.09,141.25C104.76,140.28 106.06,138.5 106.63,137.72C106.92,137.33 106.98,137.23 107.28,136.84C107.91,136.01 109.72,133.75 110.3,133.03C110.54,132.74 110.56,132.71 110.8,132.42C111.4,131.71 113.29,129.57 113.98,128.8C114.31,128.44 114.38,128.36 114.71,128.01C115.36,127.32 116.85,125.77 117.66,124.96C118.21,124.41 118.54,124.1 119.07,123.6C119.73,122.97 120.54,122.19 121.33,121.48C122.17,120.72 123.31,119.76 123.99,119.18C124.41,118.82 124.56,118.69 125.01,118.32C125.85,117.64 127.86,116.07 128.69,115.45C129.1,115.14 129.23,115.05 129.63,114.77C130.3,114.29 131.37,113.49 132.36,112.82C133.51,112.04 134.89,111.18 136.14,110.41C137.34,109.67 138.51,108.97 139.72,108.3C140.93,107.63 142.56,106.8 143.39,106.39C143.81,106.18 143.96,106.13 144.36,105.94C145.04,105.62 146.09,105.09 147.07,104.65C148.2,104.15 149.52,103.6 150.75,103.12C151.97,102.65 153.62,102.07 154.42,101.8C154.81,101.67 154.92,101.65 155.29,101.53C155.96,101.32 157.1,100.92 158.1,100.62C159.24,100.28 160.55,99.92 161.78,99.62C163,99.32 164.22,99.04 165.45,98.8C166.67,98.56 167.9,98.35 169.13,98.16C170.35,97.98 171.58,97.82 172.81,97.69C174.03,97.56 175.25,97.45 176.48,97.37C177.7,97.29 178.93,97.24 180.16,97.22C181.39,97.2 182.61,97.2 183.84,97.22C185.07,97.24 186.3,97.29 187.52,97.37C188.75,97.45 189.97,97.56 191.19,97.69C192.42,97.82 193.65,97.98 194.87,98.16C196.1,98.35 197.33,98.56 198.55,98.8C199.78,99.04 201,99.32 202.22,99.62C203.45,99.92 204.76,100.28 205.9,100.62C206.9,100.92 208.04,101.32 208.71,101.53C209.08,101.65 209.19,101.67 209.58,101.8C210.38,102.07 212.03,102.65 213.25,103.12C214.48,103.6 215.8,104.15 216.93,104.65C217.91,105.09 218.96,105.62 219.64,105.94C220.04,106.13 220.19,106.18 220.61,106.39C221.44,106.8 223.07,107.63 224.28,108.3C225.49,108.97 226.66,109.67 227.86,110.41C229.11,111.18 230.49,112.04 231.64,112.82C232.63,113.49 233.7,114.29 234.37,114.77C234.77,115.05 234.9,115.14 235.31,115.45C236.14,116.07 238.15,117.64 238.99,118.32C239.44,118.69 239.59,118.82 240.01,119.18C240.69,119.76 241.83,120.72 242.67,121.48C243.46,122.19 244.27,122.97 244.93,123.6C245.46,124.1 245.79,124.41 246.34,124.96C247.15,125.77 248.64,127.32 249.29,128.01C249.62,128.36 249.69,128.44 250.02,128.8C250.71,129.57 252.6,131.71 253.2,132.42C253.44,132.71 253.46,132.74 253.7,133.03C254.28,133.75 256.09,136.01 256.72,136.84C257.02,137.23 257.08,137.33 257.37,137.72C257.94,138.5 259.24,140.28 259.91,141.25C260.37,141.91 260.63,142.32 261.05,142.95C261.58,143.75 262.22,144.72 262.81,145.67C263.44,146.69 264.25,148.05 264.73,148.86C265.03,149.36 265.14,149.54 265.44,150.08C266.01,151.09 267.33,153.5 267.84,154.49C268.1,154.99 268.16,155.15 268.4,155.63C268.8,156.44 269.47,157.72 270.03,158.91C270.68,160.29 271.39,161.95 272.03,163.44C272.65,164.89 273.23,166.29 273.79,167.74C274.35,169.19 275.04,171.15 275.38,172.15C275.56,172.66 275.6,172.83 275.76,173.31C276.03,174.12 276.47,175.4 276.83,176.57C277.25,177.93 277.71,179.51 278.11,180.98C278.51,182.45 278.99,184.42 279.21,185.39C279.32,185.86 279.33,185.99 279.43,186.44C279.61,187.25 279.94,188.61 280.19,189.81C280.47,191.18 280.77,192.75 281.02,194.22C281.27,195.69 281.5,197.17 281.7,198.64C281.9,200.11 282.08,201.58 282.24,203.05C282.39,204.52 282.52,205.99 282.63,207.46C282.74,208.93 282.82,210.41 282.89,211.88C282.95,213.35 283,214.82 283.02,216.29C283.04,217.76 283.04,219.24 283.02,220.71C283,222.18 282.95,223.65 282.89,225.12C282.82,226.59 282.74,228.07 282.63,229.54C282.52,231.01 282.39,232.48 282.24,233.95C282.08,235.42 281.9,236.89 281.7,238.36C281.5,239.83 281.27,241.31 281.02,242.78C280.77,244.25 280.47,245.82 280.19,247.19C279.94,248.39 279.61,249.75 279.43,250.56C279.33,251.01 279.32,251.14 279.21,251.61C278.99,252.58 278.51,254.55 278.11,256.02C277.71,257.49 277.25,259.07 276.83,260.43C276.47,261.6 276.03,262.88 275.76,263.69C275.6,264.17 275.56,264.34 275.38,264.85C275.04,265.85 274.35,267.81 273.79,269.26C273.23,270.71 272.65,272.11 272.03,273.56C271.39,275.05 270.68,276.71 270.03,278.09C269.47,279.28 268.8,280.56 268.4,281.37C268.16,281.85 268.1,282.01 267.84,282.51C267.33,283.5 266.01,285.91 265.44,286.92C265.14,287.46 265.03,287.64 264.73,288.14C264.25,288.95 263.44,290.31 262.81,291.33C262.22,292.28 261.58,293.25 261.05,294.05C260.63,294.68 260.37,295.09 259.91,295.75C259.24,296.72 257.94,298.5 257.37,299.28C257.08,299.67 257.02,299.77 256.72,300.16C256.09,300.99 254.28,303.25 253.7,303.97C253.46,304.26 253.44,304.29 253.2,304.58C252.6,305.29 250.71,307.43 250.02,308.2C249.69,308.56 249.62,308.64 249.29,308.99C248.64,309.68 247.15,311.23 246.34,312.04C245.79,312.59 245.46,312.9 244.93,313.4C244.27,314.03 243.46,314.81 242.67,315.52C241.83,316.28 240.69,317.24 240.01,317.82C239.59,318.18 239.44,318.31 238.99,318.68C238.15,319.36 236.14,320.93 235.31,321.55C234.9,321.86 234.77,321.95 234.37,322.23C233.7,322.71 232.63,323.51 231.64,324.18C230.49,324.96 229.11,325.82 227.86,326.59C226.66,327.33 225.49,328.03 224.28,328.7C223.07,329.37 221.44,330.2 220.61,330.61C220.19,330.82 220.04,330.87 219.64,331.06C218.96,331.38 217.91,331.91 216.93,332.35C215.8,332.85 214.48,333.4 213.25,333.88C212.03,334.35 210.38,334.93 209.58,335.2C209.19,335.33 209.08,335.35 208.71,335.47C208.04,335.68 206.9,336.08 205.9,336.38C204.76,336.72 203.45,337.08 202.22,337.38C201,337.68 199.78,337.96 198.55,338.2C197.33,338.44 196.1,338.65 194.87,338.84C193.65,339.02 192.42,339.18 191.19,339.31C189.97,339.44 188.75,339.55 187.52,339.63C186.3,339.71 185.07,339.76 183.84,339.78C182.61,339.8 181.39,339.8 180.16,339.78C178.93,339.76 177.7,339.71 176.48,339.63C175.25,339.55 174.03,339.44 172.81,339.31C171.58,339.18 170.35,339.02 169.13,338.84C167.9,338.65 166.67,338.44 165.45,338.2C164.22,337.96 163,337.68 161.78,337.38C160.55,337.08 159.24,336.72 158.1,336.38Z" style="stroke-miterlimit: 1; vector-effect: non-scaling-stroke; fill: none; stroke: rgb(112, 77, 54); stroke-opacity: 1; stroke-width: 2px;"/></g><g class="contourlevel"><path class="closedline" d="M161.78,323.29C160.58,322.95 159.43,322.59 158.23000000000002,322.19C156.98,321.77 155.67,321.32 154.42,320.84C153.18,320.36 151.92,319.83 150.75,319.31C149.67,318.82 148.27,318.12 147.65,317.82C147.38,317.69 147.34,317.68 147.07,317.54C146.37,317.18 144.6,316.26 143.39,315.57C142.17,314.87 140.99,314.14 139.79000000000002,313.36C138.54,312.56 137.15,311.62 136.04,310.83C135.13,310.18 134.28,309.5 133.6,308.99C133.12,308.62 132.88,308.46 132.36,308.04C131.42,307.28 129.73,305.86 128.49,304.755C127.29,303.68 125.88,302.35 125.01,301.49C124.46,300.96 124.21,300.68 123.71,300.16C123.03,299.46 122.05,298.43 121.33,297.64C120.72,296.97 120.24,296.42 119.67,295.75C119.03,295 118.29,294.1 117.66,293.33C117.1,292.64 116.64,292.06 116.08,291.33C115.42,290.47 114.56,289.29 113.98,288.48C113.55,287.88 113.32,287.57 112.88,286.92C112.17,285.87 111.05,284.19 110.155,282.745C109.23,281.25 108.05,279.21 107.42,278.09C107.07,277.46 106.94,277.19 106.63,276.61C106.2,275.8 105.63,274.77 105.09,273.68C104.43,272.35 103.65,270.67 102.985,269.17499999999995C102.34,267.72 101.73,266.31 101.15,264.85C100.57,263.39 99.8,261.27 99.5,260.43C99.38,260.1 99.38,260.06 99.27,259.74C99.02,258.99 98.43,257.32 98.03,256.02C97.59,254.62 97.15,253.1 96.75,251.61C96.35,250.1 95.97,248.53 95.63,247.035C95.3,245.59 95,244.21 94.72,242.78C94.44,241.32 94.17,239.83 93.94,238.36C93.71,236.89 93.51,235.42 93.33,233.95C93.15,232.48 93,231.01 92.87,229.54C92.75,228.07 92.65,226.59 92.58,225.12C92.51,223.65 92.46,222.18 92.43,220.71C92.4,219.24 92.4,217.76 92.43,216.29C92.46,214.82 92.51,213.35 92.58,211.88C92.65,210.41 92.75,208.93 92.87,207.46C93,205.99 93.15,204.52 93.33,203.05C93.51,201.58 93.71,200.11 93.94,198.64C94.17,197.17 94.44,195.68 94.72,194.22C95,192.79 95.3,191.41 95.63,189.965C95.97,188.47 96.35,186.9 96.75,185.39C97.15,183.9 97.59,182.38 98.03,180.98C98.43,179.68 99.02,178.01 99.27,177.26C99.38,176.94 99.38,176.9 99.5,176.57C99.8,175.73 100.57,173.61 101.15,172.15C101.73,170.69 102.34,169.28 102.985,167.825C103.65,166.33 104.43,164.65 105.09,163.32C105.63,162.23 106.2,161.2 106.63,160.39C106.94,159.81 107.07,159.54 107.42,158.91C108.05,157.79 109.23,155.75 110.155,154.255C111.05,152.81 112.17,151.13 112.88,150.08C113.32,149.43 113.55,149.12 113.98,148.52C114.56,147.71 115.42,146.53 116.08,145.67C116.64,144.94 117.1,144.36 117.66,143.67C118.29,142.9 119.03,142 119.67,141.25C120.24,140.58 120.72,140.03 121.33,139.36C122.05,138.57 123.03,137.54 123.71,136.84C124.21,136.32 124.46,136.04 125.01,135.51C125.88,134.65 127.29,133.32 128.49,132.245C129.73,131.14 131.42,129.72 132.36,128.96C132.88,128.54 133.12,128.38 133.6,128.01C134.28,127.5 135.13,126.82 136.04,126.17C137.15,125.38 138.54,124.44 139.79000000000002,123.64C140.99,122.86 142.17,122.13 143.39,121.43C144.6,120.74 146.37,119.82 147.07,119.46C147.34,119.32 147.38,119.31 147.65,119.18C148.27,118.88 149.67,118.18 150.75,117.69C151.92,117.17 153.18,116.64 154.42,116.16C155.67,115.68 156.98,115.23 158.23000000000002,114.81C159.43,114.41 160.58,114.05 161.78,113.71C162.99,113.37 164.22,113.06 165.45,112.78C166.67,112.5 167.9,112.25 169.13,112.04C170.35,111.83 171.58,111.65 172.81,111.5C174.03,111.35 175.25,111.23 176.48,111.14C177.7,111.05 178.93,110.99 180.16,110.96C181.39,110.93 182.61,110.93 183.84,110.96C185.07,110.99 186.3,111.05 187.52,111.14C188.75,111.23 189.97,111.35 191.19,111.5C192.42,111.65 193.65,111.83 194.87,112.04C196.1,112.25 197.33,112.5 198.55,112.78C199.78,113.06 201.01,113.37 202.22,113.71C203.42,114.05 204.57,114.41 205.76999999999998,114.81C207.02,115.23 208.33,115.68 209.58,116.16C210.82,116.64 212.08,117.17 213.25,117.69C214.33,118.18 215.73,118.88 216.35,119.18C216.62,119.31 216.66,119.32 216.93,119.46C217.63,119.82 219.4,120.74 220.61,121.43C221.83,122.13 223.01,122.86 224.20999999999998,123.64C225.46,124.44 226.85,125.38 227.96,126.17C228.87,126.82 229.72,127.5 230.4,128.01C230.88,128.38 231.12,128.54 231.64,128.96C232.58,129.72 234.27,131.14 235.51,132.245C236.71,133.32 238.12,134.65 238.99,135.51C239.54,136.04 239.79,136.32 240.29,136.84C240.97,137.54 241.95,138.57 242.67,139.36C243.28,140.03 243.76,140.58 244.33,141.25C244.97,142 245.71,142.9 246.34,143.67C246.9,144.36 247.36,144.94 247.92,145.67C248.58,146.53 249.44,147.71 250.02,148.52C250.45,149.12 250.68,149.43 251.12,150.08C251.83,151.13 252.95,152.81 253.845,154.255C254.77,155.75 255.95,157.79 256.58,158.91C256.93,159.54 257.06,159.81 257.37,160.39C257.8,161.2 258.37,162.23 258.91,163.32C259.57,164.65 260.35,166.33 261.015,167.825C261.66,169.28 262.27,170.69 262.85,172.15C263.43,173.61 264.2,175.73 264.5,176.57C264.62,176.9 264.62,176.94 264.73,177.26C264.98,178.01 265.57,179.68 265.97,180.98C266.41,182.38 266.85,183.9 267.25,185.39C267.65,186.9 268.03,188.47 268.37,189.965C268.7,191.41 269,192.79 269.28,194.22C269.56,195.68 269.83,197.17 270.06,198.64C270.29,200.11 270.49,201.58 270.67,203.05C270.85,204.52 271,205.99 271.13,207.46C271.25,208.93 271.35,210.41 271.42,211.88C271.49,213.35 271.54,214.82 271.57,216.29C271.6,217.76 271.6,219.24 271.57,220.71C271.54,222.18 271.49,223.65 271.42,225.12C271.35,226.59 271.25,228.07 271.13,229.54C271,231.01 270.85,232.48 270.67,233.95C270.49,235.42 270.29,236.89 270.06,238.36C269.83,239.83 269.56,241.32 269.28,242.78C269,244.21 268.7,245.59 268.37,247.035C268.03,248.53 267.65,250.1 267.25,251.61C266.85,253.1 266.41,254.62 265.97,256.02C265.57,257.32 264.98,258.99 264.73,259.74C264.62,260.06 264.62,260.1 264.5,260.43C264.2,261.27 263.43,263.39 262.85,264.85C262.27,266.31 261.66,267.72 261.015,269.17499999999995C260.35,270.67 259.57,272.35 258.91,273.68C258.37,274.77 257.8,275.8 257.37,276.61C257.06,277.19 256.93,277.46 256.58,278.09C255.95,279.21 254.77,281.25 253.845,282.745C252.95,284.19 251.83,285.87 251.12,286.92C250.68,287.57 250.45,287.88 250.02,288.48C249.44,289.29 248.58,290.47 247.92,291.33C247.36,292.06 246.9,292.64 246.34,293.33C245.71,294.1 244.97,295 244.33,295.75C243.76,296.42 243.28,296.97 242.67,297.64C241.95,298.43 240.97,299.46 240.29,300.16C239.79,300.68 239.54,300.96 238.99,301.49C238.12,302.35 236.71,303.68 235.51,304.755C234.27,305.86 232.58,307.28 231.64,308.04C231.12,308.46 230.88,308.62 230.4,308.99C229.72,309.5 228.87,310.18 227.96,310.83C226.85,311.62 225.46,312.56 224.20999999999998,313.36C223.01,314.14 221.83,314.87 220.61,315.57C219.4,316.26 217.63,317.18 216.93,317.54C216.66,317.68 216.62,317.69 216.35,317.82C215.73,318.12 214.33,318.82 213.25,319.31C212.08,319.83 210.82,320.36 209.58,320.84C208.33,321.32 207.02,321.77 205.76999999999998,322.19C204.57,322.59 203.42,322.95 202.22,323.29C201.01,323.63 199.78,323.94 198.55,324.22C197.33,324.5 196.1,324.75 194.87,324.96C193.65,325.17 192.42,325.35 191.19,325.5C189.97,325.65 188.75,325.77 187.52,325.86C186.3,325.95 185.07,326.01 183.84,326.04C182.61,326.07 181.39,326.07 180.16,326.04C178.93,326.01 177.7,325.95 176.48,325.86C175.25,325.77 174.03,325.65 172.81,325.5C171.58,325.35 170.35,325.17 169.13,324.96C167.9,324.75 166.67,324.5 165.45,324.22C164.22,323.94 162.99,323.63 161.78,323.29Z" style="stroke-miterlimit: 1; vector-effect: non-scaling-stroke; fill: none; stroke: rgb(138, 93, 57); stroke-opacity: 1; stroke-width: 2px;"/></g><g class="contourlevel"><path class="closedline" d="M176.48,313.79C175.28,313.69 174.12,313.56 172.92000000000002,313.39C171.67,313.22 170.38,313.01 169.13,312.77C167.89,312.53 166.67,312.25 165.45,311.94C164.22,311.63 163,311.29 161.78,310.9C160.55,310.51 159.06,309.97 158.1,309.61C157.48,309.37 157.13,309.21 156.58,308.99C155.92,308.72 155.23,308.47 154.42,308.11C153.35,307.64 151.95,306.97 150.75,306.35C149.57,305.74 148.47,305.14 147.29500000000002,304.45C146.02,303.71 144.55,302.8 143.39,302.03C142.41,301.38 141.43,300.64 140.75,300.16C140.33,299.86 140.16,299.76 139.72,299.42C138.87,298.77 136.83,297.13 136.04,296.47C135.66,296.15 135.57,296.07 135.21,295.75C134.54,295.16 133.2,293.95 132.36,293.15C131.67,292.5 131.14,291.95 130.53,291.33C129.91,290.7 129.32,290.09 128.69,289.4C127.98,288.63 127.15,287.68 126.49,286.92C125.94,286.28 125.54,285.8 125.01,285.15C124.37,284.36 123.58,283.36 122.94,282.51C122.36,281.74 121.85,281.03 121.33,280.29C120.81,279.56 120.36,278.91 119.82,278.09C119.16,277.08 118.16,275.47 117.66,274.67C117.39,274.24 117.31,274.13 117.05,273.68C116.5,272.74 115.14,270.28 114.6,269.26C114.32,268.73 114.23,268.54 113.98,268.03C113.58,267.22 112.96,266.02 112.42,264.85C111.77,263.45 111.02,261.68 110.405,260.15999999999997C109.83,258.74 109.32,257.43 108.82,256.02C108.31,254.58 107.75,252.89 107.36,251.61C107.06,250.64 106.85,249.81 106.63,249.02C106.44,248.36 106.31,247.93 106.11,247.19C105.81,246.04 105.36,244.25 105.04,242.78C104.72,241.31 104.43,239.84 104.17,238.36C103.91,236.89 103.68,235.43 103.48,233.95C103.28,232.45 103.1,230.9 102.96000000000001,229.405C102.82,227.96 102.7,226.56 102.62,225.12C102.53,223.66 102.48,222.18 102.45,220.71C102.42,219.24 102.42,217.76 102.45,216.29C102.48,214.82 102.53,213.34 102.62,211.88C102.7,210.44 102.82,209.04 102.96000000000001,207.595C103.1,206.1 103.28,204.55 103.48,203.05C103.68,201.57 103.91,200.11 104.17,198.64C104.43,197.16 104.72,195.69 105.04,194.22C105.36,192.75 105.81,190.96 106.11,189.81C106.31,189.07 106.44,188.64 106.63,187.98C106.85,187.19 107.06,186.36 107.36,185.39C107.75,184.11 108.31,182.42 108.82,180.98C109.32,179.57 109.83,178.26 110.405,176.84C111.02,175.32 111.77,173.55 112.42,172.15C112.96,170.98 113.58,169.78 113.98,168.97C114.23,168.46 114.32,168.27 114.6,167.74C115.14,166.72 116.5,164.26 117.05,163.32C117.31,162.87 117.39,162.76 117.66,162.33C118.16,161.53 119.16,159.92 119.82,158.91C120.36,158.09 120.81,157.44 121.33,156.71C121.85,155.97 122.36,155.26 122.94,154.49C123.58,153.64 124.37,152.64 125.01,151.85C125.54,151.2 125.94,150.72 126.49,150.08C127.15,149.32 127.98,148.37 128.69,147.6C129.32,146.91 129.91,146.3 130.53,145.67C131.14,145.05 131.67,144.5 132.36,143.85C133.2,143.05 134.54,141.84 135.21,141.25C135.57,140.93 135.66,140.85 136.04,140.53C136.83,139.87 138.87,138.23 139.72,137.58C140.16,137.24 140.33,137.14 140.75,136.84C141.43,136.36 142.41,135.62 143.39,134.97C144.55,134.2 146.02,133.29 147.29500000000002,132.55C148.47,131.86 149.57,131.26 150.75,130.65C151.95,130.03 153.35,129.36 154.42,128.89C155.23,128.53 155.92,128.28 156.58,128.01C157.13,127.79 157.48,127.63 158.1,127.39C159.06,127.03 160.55,126.49 161.78,126.1C163,125.71 164.22,125.37 165.45,125.06C166.67,124.75 167.89,124.47 169.13,124.23C170.38,123.99 171.67,123.78 172.92000000000002,123.61C174.12,123.44 175.28,123.31 176.48,123.21C177.7,123.11 178.93,123.03 180.16,123C181.39,122.97 182.61,122.97 183.84,123C185.07,123.03 186.3,123.11 187.52,123.21C188.72,123.31 189.88,123.44 191.07999999999998,123.61C192.33,123.78 193.62,123.99 194.87,124.23C196.11,124.47 197.33,124.75 198.55,125.06C199.78,125.37 201,125.71 202.22,126.1C203.45,126.49 204.94,127.03 205.9,127.39C206.52,127.63 206.87,127.79 207.42,128.01C208.08,128.28 208.77,128.53 209.58,128.89C210.65,129.36 212.05,130.03 213.25,130.65C214.43,131.26 215.53,131.86 216.70499999999998,132.55C217.98,133.29 219.45,134.2 220.61,134.97C221.59,135.62 222.57,136.36 223.25,136.84C223.67,137.14 223.84,137.24 224.28,137.58C225.13,138.23 227.17,139.87 227.96,140.53C228.34,140.85 228.43,140.93 228.79,141.25C229.46,141.84 230.8,143.05 231.64,143.85C232.33,144.5 232.86,145.05 233.47,145.67C234.09,146.3 234.68,146.91 235.31,147.6C236.02,148.37 236.85,149.32 237.51,150.08C238.06,150.72 238.46,151.2 238.99,151.85C239.63,152.64 240.42,153.64 241.06,154.49C241.64,155.26 242.15,155.97 242.67,156.71C243.19,157.44 243.64,158.09 244.18,158.91C244.84,159.92 245.84,161.53 246.34,162.33C246.61,162.76 246.69,162.87 246.95,163.32C247.5,164.26 248.86,166.72 249.4,167.74C249.68,168.27 249.77,168.46 250.02,168.97C250.42,169.78 251.04,170.98 251.58,172.15C252.23,173.55 252.98,175.32 253.595,176.84C254.17,178.26 254.68,179.57 255.18,180.98C255.69,182.42 256.25,184.11 256.64,185.39C256.94,186.36 257.15,187.19 257.37,187.98C257.56,188.64 257.69,189.07 257.89,189.81C258.19,190.96 258.64,192.75 258.96,194.22C259.28,195.69 259.57,197.16 259.83,198.64C260.09,200.11 260.32,201.57 260.52,203.05C260.72,204.55 260.9,206.1 261.03999999999996,207.595C261.18,209.04 261.3,210.44 261.38,211.88C261.47,213.34 261.52,214.82 261.55,216.29C261.58,217.76 261.58,219.24 261.55,220.71C261.52,222.18 261.47,223.66 261.38,225.12C261.3,226.56 261.18,227.96 261.03999999999996,229.405C260.9,230.9 260.72,232.45 260.52,233.95C260.32,235.43 260.09,236.89 259.83,238.36C259.57,239.84 259.28,241.31 258.96,242.78C258.64,244.25 258.19,246.04 257.89,247.19C257.69,247.93 257.56,248.36 257.37,249.02C257.15,249.81 256.94,250.64 256.64,251.61C256.25,252.89 255.69,254.58 255.18,256.02C254.68,257.43 254.17,258.74 253.595,260.15999999999997C252.98,261.68 252.23,263.45 251.58,264.85C251.04,266.02 250.42,267.22 250.02,268.03C249.77,268.54 249.68,268.73 249.4,269.26C248.86,270.28 247.5,272.74 246.95,273.68C246.69,274.13 246.61,274.24 246.34,274.67C245.84,275.47 244.84,277.08 244.18,278.09C243.64,278.91 243.19,279.56 242.67,280.29C242.15,281.03 241.64,281.74 241.06,282.51C240.42,283.36 239.63,284.36 238.99,285.15C238.46,285.8 238.06,286.28 237.51,286.92C236.85,287.68 236.02,288.63 235.31,289.4C234.68,290.09 234.09,290.7 233.47,291.33C232.86,291.95 232.33,292.5 231.64,293.15C230.8,293.95 229.46,295.16 228.79,295.75C228.43,296.07 228.34,296.15 227.96,296.47C227.17,297.13 225.13,298.77 224.28,299.42C223.84,299.76 223.67,299.86 223.25,300.16C222.57,300.64 221.59,301.38 220.61,302.03C219.45,302.8 217.98,303.71 216.70499999999998,304.45C215.53,305.14 214.43,305.74 213.25,306.35C212.05,306.97 210.65,307.64 209.58,308.11C208.77,308.47 208.08,308.72 207.42,308.99C206.87,309.21 206.52,309.37 205.9,309.61C204.94,309.97 203.45,310.51 202.22,310.9C201,311.29 199.78,311.63 198.55,311.94C197.33,312.25 196.11,312.53 194.87,312.77C193.62,313.01 192.33,313.22 191.07999999999998,313.39C189.88,313.56 188.72,313.69 187.52,313.79C186.3,313.89 185.07,313.97 183.84,314C182.61,314.03 181.39,314.03 180.16,314C178.93,313.97 177.7,313.89 176.48,313.79Z" style="stroke-miterlimit: 1; vector-effect: non-scaling-stroke; fill: none; stroke: rgb(161, 112, 59); stroke-opacity: 1; stroke-width: 2px;"/></g><g class="contourlevel"><path class="closedline" d="M165.45,300.55C164.93,300.4 164.71,300.31 164.24,300.16C163.56,299.94 162.68,299.68 161.78,299.36C160.67,298.96 159.32,298.43 158.1,297.9C156.86,297.36 155.18,296.55 154.42,296.16C154.07,295.98 153.99,295.93 153.66,295.75C153,295.39 151.77,294.74 150.75,294.13C149.58,293.43 147.78,292.25 147.07,291.77C146.78,291.57 146.74,291.53 146.46,291.33C145.83,290.87 144.36,289.82 143.39,289.06C142.49,288.35 141.51,287.5 140.83,286.92C140.38,286.54 140.19,286.38 139.72,285.95C138.85,285.15 137.3,283.7 136.095,282.45C134.81,281.12 133.5,279.66 132.275,278.195C131.04,276.72 129.83,275.14 128.735,273.615C127.69,272.16 126.48,270.3 125.82,269.26C125.46,268.69 125.33,268.47 125.01,267.93C124.53,267.12 123.82,265.93 123.23,264.85C122.59,263.69 121.71,261.93 121.33,261.17C121.16,260.83 121.13,260.78 120.97,260.43C120.57,259.58 119.59,257.41 119.01,256.02C118.5,254.79 117.96,253.31 117.66,252.52C117.51,252.12 117.46,252.03 117.31,251.61C116.98,250.69 116.3,248.67 115.86,247.19C115.42,245.72 114.98,244.11 114.65,242.78C114.38,241.7 114.16,240.63 113.98,239.82C113.85,239.25 113.78,238.98 113.65,238.36C113.43,237.29 113.09,235.42 112.86,233.95C112.63,232.48 112.44,231.01 112.28,229.54C112.12,228.07 111.99,226.59 111.89,225.12C111.79,223.65 111.73,222.18 111.7,220.71C111.67,219.24 111.67,217.76 111.7,216.29C111.73,214.82 111.79,213.35 111.89,211.88C111.99,210.41 112.12,208.93 112.28,207.46C112.44,205.99 112.63,204.52 112.86,203.05C113.09,201.58 113.43,199.71 113.65,198.64C113.78,198.02 113.85,197.75 113.98,197.18C114.16,196.37 114.38,195.3 114.65,194.22C114.98,192.89 115.42,191.28 115.86,189.81C116.3,188.33 116.98,186.31 117.31,185.39C117.46,184.97 117.51,184.88 117.66,184.48C117.96,183.69 118.5,182.21 119.01,180.98C119.59,179.59 120.57,177.42 120.97,176.57C121.13,176.22 121.16,176.17 121.33,175.83C121.71,175.07 122.59,173.31 123.23,172.15C123.82,171.07 124.53,169.88 125.01,169.07C125.33,168.53 125.46,168.31 125.82,167.74C126.48,166.7 127.69,164.84 128.735,163.385C129.83,161.86 131.04,160.28 132.275,158.805C133.5,157.34 134.81,155.88 136.095,154.55C137.3,153.3 138.85,151.85 139.72,151.05C140.19,150.62 140.38,150.46 140.83,150.08C141.51,149.5 142.49,148.65 143.39,147.94C144.36,147.18 145.83,146.13 146.46,145.67C146.74,145.47 146.78,145.43 147.07,145.23C147.78,144.75 149.58,143.57 150.75,142.87C151.77,142.26 153,141.61 153.66,141.25C153.99,141.07 154.07,141.02 154.42,140.84C155.18,140.45 156.86,139.64 158.1,139.1C159.32,138.57 160.67,138.04 161.78,137.64C162.68,137.32 163.56,137.06 164.24,136.84C164.71,136.69 164.93,136.6 165.45,136.45C166.34,136.19 167.9,135.78 169.13,135.5C170.35,135.22 171.58,134.99 172.81,134.79C174.03,134.6 175.25,134.45 176.48,134.33C177.7,134.22 178.93,134.14 180.16,134.1C181.39,134.06 182.61,134.06 183.84,134.1C185.07,134.14 186.3,134.22 187.52,134.33C188.75,134.45 189.97,134.6 191.19,134.79C192.42,134.99 193.65,135.22 194.87,135.5C196.1,135.78 197.66,136.19 198.55,136.45C199.07,136.6 199.29,136.69 199.76,136.84C200.44,137.06 201.32,137.32 202.22,137.64C203.33,138.04 204.68,138.57 205.9,139.1C207.14,139.64 208.82,140.45 209.58,140.84C209.93,141.02 210.01,141.07 210.34,141.25C211,141.61 212.23,142.26 213.25,142.87C214.42,143.57 216.22,144.75 216.93,145.23C217.22,145.43 217.26,145.47 217.54,145.67C218.17,146.13 219.64,147.18 220.61,147.94C221.51,148.65 222.49,149.5 223.17,150.08C223.62,150.46 223.81,150.62 224.28,151.05C225.15,151.85 226.7,153.3 227.905,154.55C229.19,155.88 230.5,157.34 231.725,158.805C232.96,160.28 234.17,161.86 235.265,163.385C236.31,164.84 237.52,166.7 238.18,167.74C238.54,168.31 238.67,168.53 238.99,169.07C239.47,169.88 240.18,171.07 240.77,172.15C241.41,173.31 242.29,175.07 242.67,175.83C242.84,176.17 242.87,176.22 243.03,176.57C243.43,177.42 244.41,179.59 244.99,180.98C245.5,182.21 246.04,183.69 246.34,184.48C246.49,184.88 246.54,184.97 246.69,185.39C247.02,186.31 247.7,188.33 248.14,189.81C248.58,191.28 249.02,192.89 249.35,194.22C249.62,195.3 249.84,196.37 250.02,197.18C250.15,197.75 250.22,198.02 250.35,198.64C250.57,199.71 250.91,201.58 251.14,203.05C251.37,204.52 251.56,205.99 251.72,207.46C251.88,208.93 252.01,210.41 252.11,211.88C252.21,213.35 252.27,214.82 252.3,216.29C252.33,217.76 252.33,219.24 252.3,220.71C252.27,222.18 252.21,223.65 252.11,225.12C252.01,226.59 251.88,228.07 251.72,229.54C251.56,231.01 251.37,232.48 251.14,233.95C250.91,235.42 250.57,237.29 250.35,238.36C250.22,238.98 250.15,239.25 250.02,239.82C249.84,240.63 249.62,241.7 249.35,242.78C249.02,244.11 248.58,245.72 248.14,247.19C247.7,248.67 247.02,250.69 246.69,251.61C246.54,252.03 246.49,252.12 246.34,252.52C246.04,253.31 245.5,254.79 244.99,256.02C244.41,257.41 243.43,259.58 243.03,260.43C242.87,260.78 242.84,260.83 242.67,261.17C242.29,261.93 241.41,263.69 240.77,264.85C240.18,265.93 239.47,267.12 238.99,267.93C238.67,268.47 238.54,268.69 238.18,269.26C237.52,270.3 236.31,272.16 235.265,273.615C234.17,275.14 232.96,276.72 231.725,278.195C230.5,279.66 229.19,281.12 227.905,282.45C226.7,283.7 225.15,285.15 224.28,285.95C223.81,286.38 223.62,286.54 223.17,286.92C222.49,287.5 221.51,288.35 220.61,289.06C219.64,289.82 218.17,290.87 217.54,291.33C217.26,291.53 217.22,291.57 216.93,291.77C216.22,292.25 214.42,293.43 213.25,294.13C212.23,294.74 211,295.39 210.34,295.75C210.01,295.93 209.93,295.98 209.58,296.16C208.82,296.55 207.14,297.36 205.9,297.9C204.68,298.43 203.33,298.96 202.22,299.36C201.32,299.68 200.44,299.94 199.76,300.16C199.29,300.31 199.07,300.4 198.55,300.55C197.66,300.81 196.1,301.22 194.87,301.5C193.65,301.78 192.42,302.01 191.19,302.21C189.97,302.4 188.75,302.55 187.52,302.67C186.3,302.78 185.07,302.86 183.84,302.9C182.61,302.94 181.39,302.94 180.16,302.9C178.93,302.86 177.7,302.78 176.48,302.67C175.25,302.55 174.03,302.4 172.81,302.21C171.58,302.01 170.35,301.78 169.13,301.5C167.9,301.22 166.34,300.81 165.45,300.55Z" style="stroke-miterlimit: 1; vector-effect: non-scaling-stroke; fill: none; stroke: rgb(180, 134, 64); stroke-opacity: 1; stroke-width: 2px;"/></g><g class="contourlevel"><path class="closedline" d="M172.62,291.37C171.42,291.15 170.3,290.91 169.13,290.61C167.91,290.3 166.67,289.93 165.45,289.52C164.22,289.1 162.9,288.6 161.78,288.13C160.82,287.73 159.81,287.24 159.13,286.92C158.71,286.72 158.54,286.66 158.1,286.43C157.25,285.99 155.56,285.08 154.42,284.39C153.38,283.77 152.18,282.95 151.52,282.51C151.18,282.28 151.1,282.23 150.75,281.98C149.98,281.42 147.96,279.88 147.07,279.15C146.54,278.72 146.32,278.51 145.84,278.09C145.16,277.48 144.17,276.59 143.39,275.84C142.65,275.12 141.92,274.36 141.27,273.68C140.71,273.08 140.28,272.61 139.72,271.97C139.03,271.18 138.12,270.09 137.46,269.26C136.92,268.59 136.53,268.07 136.04,267.4C135.47,266.62 134.84,265.74 134.24,264.85C133.61,263.91 132.86,262.73 132.36,261.91C132.01,261.34 131.84,261.06 131.48,260.43C130.87,259.36 129.58,256.95 129.12,256.02C128.91,255.6 128.88,255.5 128.69,255.09C128.33,254.3 127.64,252.85 127.12,251.61C126.54,250.23 125.79,248.21 125.42,247.19C125.23,246.65 125.18,246.46 125.01,245.95C124.75,245.14 124.33,243.93 124,242.78C123.61,241.43 123.19,239.84 122.85,238.36C122.51,236.89 122.2,235.4 121.94,233.95C121.69,232.54 121.48,231.19 121.3,229.76C121.11,228.26 120.94,226.65 120.82,225.12C120.71,223.63 120.64,222.18 120.6,220.71C120.56,219.24 120.56,217.76 120.6,216.29C120.64,214.82 120.71,213.37 120.82,211.88C120.94,210.35 121.11,208.74 121.3,207.24C121.48,205.81 121.69,204.46 121.94,203.05C122.2,201.6 122.51,200.11 122.85,198.64C123.19,197.16 123.61,195.57 124,194.22C124.33,193.07 124.75,191.86 125.01,191.05C125.18,190.54 125.23,190.35 125.42,189.81C125.79,188.79 126.54,186.77 127.12,185.39C127.64,184.15 128.33,182.7 128.69,181.91C128.88,181.5 128.91,181.4 129.12,180.98C129.58,180.05 130.87,177.64 131.48,176.57C131.84,175.94 132.01,175.66 132.36,175.09C132.86,174.27 133.61,173.09 134.24,172.15C134.84,171.26 135.47,170.38 136.04,169.6C136.53,168.93 136.92,168.41 137.46,167.74C138.12,166.91 139.03,165.82 139.72,165.03C140.28,164.39 140.71,163.92 141.27,163.32C141.92,162.64 142.65,161.88 143.39,161.16C144.17,160.41 145.16,159.52 145.84,158.91C146.32,158.49 146.54,158.28 147.07,157.85C147.96,157.12 149.98,155.58 150.75,155.02C151.1,154.77 151.18,154.72 151.52,154.49C152.18,154.05 153.38,153.23 154.42,152.61C155.56,151.92 157.25,151.01 158.1,150.57C158.54,150.34 158.71,150.28 159.13,150.08C159.81,149.76 160.82,149.27 161.78,148.87C162.9,148.4 164.22,147.9 165.45,147.48C166.67,147.07 167.91,146.7 169.13,146.39C170.3,146.09 171.42,145.85 172.62,145.63C173.87,145.4 175.21,145.19 176.48,145.05C177.72,144.91 178.93,144.83 180.16,144.79C181.39,144.75 182.61,144.75 183.84,144.79C185.07,144.83 186.28,144.91 187.52,145.05C188.79,145.19 190.13,145.4 191.38,145.63C192.58,145.85 193.7,146.09 194.87,146.39C196.09,146.7 197.33,147.07 198.55,147.48C199.78,147.9 201.1,148.4 202.22,148.87C203.18,149.27 204.19,149.76 204.87,150.08C205.29,150.28 205.46,150.34 205.9,150.57C206.75,151.01 208.44,151.92 209.58,152.61C210.62,153.23 211.82,154.05 212.48,154.49C212.82,154.72 212.9,154.77 213.25,155.02C214.02,155.58 216.04,157.12 216.93,157.85C217.46,158.28 217.68,158.49 218.16,158.91C218.84,159.52 219.83,160.41 220.61,161.16C221.35,161.88 222.08,162.64 222.73,163.32C223.29,163.92 223.72,164.39 224.28,165.03C224.97,165.82 225.88,166.91 226.54,167.74C227.08,168.41 227.47,168.93 227.96,169.6C228.53,170.38 229.16,171.26 229.76,172.15C230.39,173.09 231.14,174.27 231.64,175.09C231.99,175.66 232.16,175.94 232.52,176.57C233.13,177.64 234.42,180.05 234.88,180.98C235.09,181.4 235.12,181.5 235.31,181.91C235.67,182.7 236.36,184.15 236.88,185.39C237.46,186.77 238.21,188.79 238.58,189.81C238.77,190.35 238.82,190.54 238.99,191.05C239.25,191.86 239.67,193.07 240,194.22C240.39,195.57 240.81,197.16 241.15,198.64C241.49,200.11 241.8,201.6 242.06,203.05C242.31,204.46 242.52,205.81 242.7,207.24C242.89,208.74 243.06,210.35 243.18,211.88C243.29,213.37 243.36,214.82 243.4,216.29C243.44,217.76 243.44,219.24 243.4,220.71C243.36,222.18 243.29,223.63 243.18,225.12C243.06,226.65 242.89,228.26 242.7,229.76C242.52,231.19 242.31,232.54 242.06,233.95C241.8,235.4 241.49,236.89 241.15,238.36C240.81,239.84 240.39,241.43 240,242.78C239.67,243.93 239.25,245.14 238.99,245.95C238.82,246.46 238.77,246.65 238.58,247.19C238.21,248.21 237.46,250.23 236.88,251.61C236.36,252.85 235.67,254.3 235.31,255.09C235.12,255.5 235.09,255.6 234.88,256.02C234.42,256.95 233.13,259.36 232.52,260.43C232.16,261.06 231.99,261.34 231.64,261.91C231.14,262.73 230.39,263.91 229.76,264.85C229.16,265.74 228.53,266.62 227.96,267.4C227.47,268.07 227.08,268.59 226.54,269.26C225.88,270.09 224.97,271.18 224.28,271.97C223.72,272.61 223.29,273.08 222.73,273.68C222.08,274.36 221.35,275.12 220.61,275.84C219.83,276.59 218.84,277.48 218.16,278.09C217.68,278.51 217.46,278.72 216.93,279.15C216.04,279.88 214.02,281.42 213.25,281.98C212.9,282.23 212.82,282.28 212.48,282.51C211.82,282.95 210.62,283.77 209.58,284.39C208.44,285.08 206.75,285.99 205.9,286.43C205.46,286.66 205.29,286.72 204.87,286.92C204.19,287.24 203.18,287.73 202.22,288.13C201.1,288.6 199.78,289.1 198.55,289.52C197.33,289.93 196.09,290.3 194.87,290.61C193.7,290.91 192.58,291.15 191.38,291.37C190.13,291.6 188.79,291.81 187.52,291.95C186.28,292.09 185.07,292.17 183.84,292.21C182.61,292.25 181.39,292.25 180.16,292.21C178.93,292.17 177.72,292.09 176.48,291.95C175.21,291.81 173.87,291.6 172.62,291.37Z" style="stroke-miterlimit: 1; vector-effect: non-scaling-stroke; fill: none; stroke: rgb(195, 161, 78); stroke-opacity: 1; stroke-width: 2px;"/></g><g class="contourlevel"><path class="closedline" d="M165.45,278.34C165.18,278.23 165.15,278.21 164.89,278.09C164.27,277.81 162.85,277.21 161.78,276.67C160.59,276.07 159.04,275.2 158.1,274.63C157.49,274.27 157.17,274.04 156.64,273.68C155.97,273.23 155.24,272.75 154.42,272.14C153.35,271.34 152,270.27 150.805,269.21500000000003C149.54,268.09 147.8,266.33 147.07,265.57C146.76,265.24 146.71,265.19 146.42,264.85C145.78,264.11 144,262 143.39,261.22C143.11,260.87 143.07,260.81 142.8,260.43C142.17,259.55 140.69,257.46 139.76,255.95499999999998C138.87,254.51 137.99,252.89 137.32,251.61C136.81,250.62 136.41,249.74 136.04,248.94C135.74,248.3 135.55,247.91 135.25,247.19C134.78,246.06 134.04,244.2 133.54,242.78C133.09,241.49 132.59,239.79 132.36,239.04C132.26,238.72 132.25,238.69 132.16,238.36C131.94,237.53 131.4,235.42 131.09,233.95C130.78,232.48 130.52,231.01 130.3,229.54C130.08,228.07 129.91,226.59 129.78,225.12C129.65,223.65 129.56,222.18 129.52,220.71C129.48,219.24 129.48,217.76 129.52,216.29C129.56,214.82 129.65,213.35 129.78,211.88C129.91,210.41 130.08,208.93 130.3,207.46C130.52,205.99 130.78,204.52 131.09,203.05C131.4,201.58 131.94,199.47 132.16,198.64C132.25,198.31 132.26,198.28 132.36,197.96C132.59,197.21 133.09,195.51 133.54,194.22C134.04,192.8 134.78,190.94 135.25,189.81C135.55,189.09 135.74,188.7 136.04,188.06C136.41,187.26 136.81,186.38 137.32,185.39C137.99,184.11 138.87,182.49 139.76,181.04500000000002C140.69,179.54 142.17,177.45 142.8,176.57C143.07,176.19 143.11,176.13 143.39,175.78C144,175 145.78,172.89 146.42,172.15C146.71,171.81 146.76,171.76 147.07,171.43C147.8,170.67 149.54,168.91 150.805,167.78500000000003C152,166.73 153.35,165.66 154.42,164.86C155.24,164.25 155.97,163.77 156.64,163.32C157.17,162.96 157.49,162.73 158.1,162.37C159.04,161.8 160.59,160.93 161.78,160.33C162.85,159.79 164.27,159.19 164.89,158.91C165.15,158.79 165.18,158.77 165.45,158.66C166.14,158.39 167.9,157.75 169.13,157.38C170.35,157.01 171.58,156.7 172.81,156.44C174.03,156.18 175.25,155.97 176.48,155.81C177.7,155.65 178.93,155.55 180.16,155.5C181.39,155.45 182.61,155.45 183.84,155.5C185.07,155.55 186.3,155.65 187.52,155.81C188.75,155.97 189.97,156.18 191.19,156.44C192.42,156.7 193.65,157.01 194.87,157.38C196.1,157.75 197.86,158.39 198.55,158.66C198.82,158.77 198.85,158.79 199.11,158.91C199.73,159.19 201.15,159.79 202.22,160.33C203.41,160.93 204.96,161.8 205.9,162.37C206.51,162.73 206.83,162.96 207.36,163.32C208.03,163.77 208.76,164.25 209.58,164.86C210.65,165.66 212,166.73 213.195,167.78500000000003C214.46,168.91 216.2,170.67 216.93,171.43C217.24,171.76 217.29,171.81 217.58,172.15C218.22,172.89 220,175 220.61,175.78C220.89,176.13 220.93,176.19 221.2,176.57C221.83,177.45 223.31,179.54 224.24,181.04500000000002C225.13,182.49 226.01,184.11 226.68,185.39C227.19,186.38 227.59,187.26 227.96,188.06C228.26,188.7 228.45,189.09 228.75,189.81C229.22,190.94 229.96,192.8 230.46,194.22C230.91,195.51 231.41,197.21 231.64,197.96C231.74,198.28 231.75,198.31 231.84,198.64C232.06,199.47 232.6,201.58 232.91,203.05C233.22,204.52 233.48,205.99 233.7,207.46C233.92,208.93 234.09,210.41 234.22,211.88C234.35,213.35 234.44,214.82 234.48,216.29C234.52,217.76 234.52,219.24 234.48,220.71C234.44,222.18 234.35,223.65 234.22,225.12C234.09,226.59 233.92,228.07 233.7,229.54C233.48,231.01 233.22,232.48 232.91,233.95C232.6,235.42 232.06,237.53 231.84,238.36C231.75,238.69 231.74,238.72 231.64,239.04C231.41,239.79 230.91,241.49 230.46,242.78C229.96,244.2 229.22,246.06 228.75,247.19C228.45,247.91 228.26,248.3 227.96,248.94C227.59,249.74 227.19,250.62 226.68,251.61C226.01,252.89 225.13,254.51 224.24,255.95499999999998C223.31,257.46 221.83,259.55 221.2,260.43C220.93,260.81 220.89,260.87 220.61,261.22C220,262 218.22,264.11 217.58,264.85C217.29,265.19 217.24,265.24 216.93,265.57C216.2,266.33 214.46,268.09 213.195,269.21500000000003C212,270.27 210.65,271.34 209.58,272.14C208.76,272.75 208.03,273.23 207.36,273.68C206.83,274.04 206.51,274.27 205.9,274.63C204.96,275.2 203.41,276.07 202.22,276.67C201.15,277.21 199.73,277.81 199.11,278.09C198.85,278.21 198.82,278.23 198.55,278.34C197.86,278.61 196.1,279.25 194.87,279.62C193.65,279.99 192.42,280.3 191.19,280.56C189.97,280.82 188.75,281.03 187.52,281.19C186.3,281.35 185.07,281.45 183.84,281.5C182.61,281.55 181.39,281.55 180.16,281.5C178.93,281.45 177.7,281.35 176.48,281.19C175.25,281.03 174.03,280.82 172.81,280.56C171.58,280.3 170.35,279.99 169.13,279.62C167.9,279.25 166.14,278.61 165.45,278.34Z" style="stroke-miterlimit: 1; vector-effect: non-scaling-stroke; fill: none; stroke: rgb(207, 188, 102); stroke-opacity: 1; stroke-width: 2px;"/></g><g class="contourlevel"><path class="closedline" d="M176.48,269.87C175.42,269.71 174.12,269.39 173.48,269.26C173.18,269.2 173.12,269.2 172.81,269.12C172.07,268.92 170.35,268.39 169.13,267.93C167.89,267.46 166.57,266.88 165.45,266.33C164.48,265.85 163.45,265.24 162.78,264.85C162.36,264.61 162.21,264.53 161.78,264.25C160.93,263.69 159.02,262.33 158.1,261.61C157.51,261.15 157.23,260.89 156.71,260.43C156.04,259.83 155.16,259.04 154.42,258.31C153.68,257.57 152.92,256.75 152.28,256.02C151.72,255.38 151.28,254.85 150.75,254.18C150.14,253.4 149.45,252.49 148.84,251.61C148.22,250.72 147.57,249.68 147.07,248.87C146.69,248.25 146.47,247.89 146.09,247.19C145.49,246.08 144.35,243.79 143.89,242.78C143.65,242.26 143.59,242.08 143.39,241.58C143.07,240.77 142.56,239.53 142.16,238.36C141.7,237.01 141.22,235.43 140.83,233.95C140.45,232.49 140,230.42 139.84,229.54C139.77,229.16 139.77,229.1 139.72,228.73C139.61,227.96 139.34,226.39 139.21,225.12C139.06,223.73 138.95,222.18 138.9,220.71C138.85,219.24 138.85,217.76 138.9,216.29C138.95,214.82 139.06,213.27 139.21,211.88C139.34,210.61 139.61,209.04 139.72,208.27C139.77,207.9 139.77,207.84 139.84,207.46C140,206.58 140.45,204.51 140.83,203.05C141.22,201.57 141.7,199.99 142.16,198.64C142.56,197.47 143.07,196.23 143.39,195.42C143.59,194.92 143.65,194.74 143.89,194.22C144.35,193.21 145.49,190.92 146.09,189.81C146.47,189.11 146.69,188.75 147.07,188.13C147.57,187.32 148.22,186.28 148.84,185.39C149.45,184.51 150.14,183.6 150.75,182.82C151.28,182.15 151.72,181.62 152.28,180.98C152.92,180.25 153.68,179.43 154.42,178.69C155.16,177.96 156.04,177.17 156.71,176.57C157.23,176.11 157.51,175.85 158.1,175.39C159.02,174.67 160.93,173.31 161.78,172.75C162.21,172.47 162.36,172.39 162.78,172.15C163.45,171.76 164.48,171.15 165.45,170.67C166.57,170.12 167.89,169.54 169.13,169.07C170.35,168.61 172.07,168.08 172.81,167.88C173.12,167.8 173.18,167.8 173.48,167.74C174.12,167.61 175.42,167.29 176.48,167.13C177.64,166.95 178.93,166.81 180.16,166.75C181.39,166.69 182.61,166.69 183.84,166.75C185.07,166.81 186.36,166.95 187.52,167.13C188.58,167.29 189.88,167.61 190.52,167.74C190.82,167.8 190.88,167.8 191.19,167.88C191.93,168.08 193.65,168.61 194.87,169.07C196.11,169.54 197.43,170.12 198.55,170.67C199.52,171.15 200.55,171.76 201.22,172.15C201.64,172.39 201.79,172.47 202.22,172.75C203.07,173.31 204.98,174.67 205.9,175.39C206.49,175.85 206.77,176.11 207.29,176.57C207.96,177.17 208.84,177.96 209.58,178.69C210.32,179.43 211.08,180.25 211.72,180.98C212.28,181.62 212.72,182.15 213.25,182.82C213.86,183.6 214.55,184.51 215.16,185.39C215.78,186.28 216.43,187.32 216.93,188.13C217.31,188.75 217.53,189.11 217.91,189.81C218.51,190.92 219.65,193.21 220.11,194.22C220.35,194.74 220.41,194.92 220.61,195.42C220.93,196.23 221.44,197.47 221.84,198.64C222.3,199.99 222.78,201.57 223.17,203.05C223.55,204.51 224,206.58 224.16,207.46C224.23,207.84 224.23,207.9 224.28,208.27C224.39,209.04 224.66,210.61 224.79,211.88C224.94,213.27 225.05,214.82 225.1,216.29C225.15,217.76 225.15,219.24 225.1,220.71C225.05,222.18 224.94,223.73 224.79,225.12C224.66,226.39 224.39,227.96 224.28,228.73C224.23,229.1 224.23,229.16 224.16,229.54C224,230.42 223.55,232.49 223.17,233.95C222.78,235.43 222.3,237.01 221.84,238.36C221.44,239.53 220.93,240.77 220.61,241.58C220.41,242.08 220.35,242.26 220.11,242.78C219.65,243.79 218.51,246.08 217.91,247.19C217.53,247.89 217.31,248.25 216.93,248.87C216.43,249.68 215.78,250.72 215.16,251.61C214.55,252.49 213.86,253.4 213.25,254.18C212.72,254.85 212.28,255.38 211.72,256.02C211.08,256.75 210.32,257.57 209.58,258.31C208.84,259.04 207.96,259.83 207.29,260.43C206.77,260.89 206.49,261.15 205.9,261.61C204.98,262.33 203.07,263.69 202.22,264.25C201.79,264.53 201.64,264.61 201.22,264.85C200.55,265.24 199.52,265.85 198.55,266.33C197.43,266.88 196.11,267.46 194.87,267.93C193.65,268.39 191.93,268.92 191.19,269.12C190.88,269.2 190.82,269.2 190.52,269.26C189.88,269.39 188.58,269.71 187.52,269.87C186.36,270.05 185.07,270.19 183.84,270.25C182.61,270.31 181.39,270.31 180.16,270.25C178.93,270.19 177.64,270.05 176.48,269.87Z" style="stroke-miterlimit: 1; vector-effect: non-scaling-stroke; fill: none; stroke: rgb(219, 216, 134); stroke-opacity: 1; stroke-width: 2px;"/></g><g class="contourlevel"><path class="closedline" d="M176.48,257.01C175.25,256.76 174.02,256.45 172.81,256.02C171.57,255.58 170.34,255.01 169.13,254.38C167.88,253.73 166.2,252.66 165.45,252.16C165.1,251.93 165.03,251.87 164.71,251.61C164.05,251.08 162.63,249.9 161.78,249.1C161.08,248.44 160.53,247.86 159.93,247.19C159.31,246.5 158.68,245.74 158.1,245C157.54,244.27 157.06,243.62 156.51,242.78C155.84,241.75 154.86,240.04 154.42,239.25C154.2,238.86 154.15,238.77 153.96,238.36C153.54,237.45 152.65,235.43 152.11,233.95C151.58,232.49 151.12,231.02 150.75,229.54C150.39,228.08 150.13,226.6 149.92,225.12C149.71,223.65 149.58,222.18 149.51,220.71C149.44,219.24 149.44,217.76 149.51,216.29C149.58,214.82 149.71,213.35 149.92,211.88C150.13,210.4 150.39,208.92 150.75,207.46C151.12,205.98 151.58,204.51 152.11,203.05C152.65,201.57 153.54,199.55 153.96,198.64C154.15,198.23 154.2,198.14 154.42,197.75C154.86,196.96 155.84,195.25 156.51,194.22C157.06,193.38 157.54,192.73 158.1,192C158.68,191.26 159.31,190.5 159.93,189.81C160.53,189.14 161.08,188.56 161.78,187.9C162.63,187.1 164.05,185.92 164.71,185.39C165.03,185.13 165.1,185.07 165.45,184.84C166.2,184.34 167.88,183.27 169.13,182.62C170.34,181.99 171.57,181.42 172.81,180.98C174.02,180.55 175.25,180.24 176.48,179.99C177.7,179.74 178.93,179.57 180.16,179.49C181.38,179.41 182.62,179.41 183.84,179.49C185.07,179.57 186.3,179.74 187.52,179.99C188.75,180.24 189.98,180.55 191.19,180.98C192.43,181.42 193.66,181.99 194.87,182.62C196.12,183.27 197.8,184.34 198.55,184.84C198.9,185.07 198.97,185.13 199.29,185.39C199.95,185.92 201.37,187.1 202.22,187.9C202.92,188.56 203.47,189.14 204.07,189.81C204.69,190.5 205.32,191.26 205.9,192C206.46,192.73 206.94,193.38 207.49,194.22C208.16,195.25 209.14,196.96 209.58,197.75C209.8,198.14 209.85,198.23 210.04,198.64C210.46,199.55 211.35,201.57 211.89,203.05C212.42,204.51 212.88,205.98 213.25,207.46C213.61,208.92 213.87,210.4 214.08,211.88C214.29,213.35 214.42,214.82 214.49,216.29C214.56,217.76 214.56,219.24 214.49,220.71C214.42,222.18 214.29,223.65 214.08,225.12C213.87,226.6 213.61,228.08 213.25,229.54C212.88,231.02 212.42,232.49 211.89,233.95C211.35,235.43 210.46,237.45 210.04,238.36C209.85,238.77 209.8,238.86 209.58,239.25C209.14,240.04 208.16,241.75 207.49,242.78C206.94,243.62 206.46,244.27 205.9,245C205.32,245.74 204.69,246.5 204.07,247.19C203.47,247.86 202.92,248.44 202.22,249.1C201.37,249.9 199.95,251.08 199.29,251.61C198.97,251.87 198.9,251.93 198.55,252.16C197.8,252.66 196.12,253.73 194.87,254.38C193.66,255.01 192.43,255.58 191.19,256.02C189.98,256.45 188.75,256.76 187.52,257.01C186.3,257.26 185.07,257.43 183.84,257.51C182.62,257.59 181.38,257.59 180.16,257.51C178.93,257.43 177.7,257.26 176.48,257.01Z" style="stroke-miterlimit: 1; vector-effect: non-scaling-stroke; fill: none; stroke: rgb(232, 245, 171); stroke-opacity: 1; stroke-width: 2px;"/></g></g></g></g></g><g class="overplot"/><path class="xlines-above crisp" d="" style="fill: none; stroke-width: 1px; stroke: rgb(0, 0, 0); stroke-opacity: 0;"/><path class="ylines-above crisp" d="" style="fill: none; stroke-width: 1px; stroke: rgb(0, 0, 0); stroke-opacity: 0;"/><g class="overlines-above"/><g class="xaxislayer-above"><path class="xtick ticks crisp" d="M0,478v5" transform="translate(84.61,0)" style="stroke: rgb(51, 51, 51); stroke-opacity: 1; stroke-width: 1px;"/><path class="xtick ticks crisp" d="M0,478v5" transform="translate(208,0)" style="stroke: rgb(51, 51, 51); stroke-opacity: 1; stroke-width: 1px;"/><path class="xtick ticks crisp" d="M0,478v5" transform="translate(331.39,0)" style="stroke: rgb(51, 51, 51); stroke-opacity: 1; stroke-width: 1px;"/><g class="xtick"><text text-anchor="middle" x="0" y="497.4" transform="translate(84.61,0)" style="font-family: 'Open Sans', verdana, arial, sans-serif; font-size: 12px; fill: rgb(51, 51, 51); fill-opacity: 1; white-space: pre; opacity: 1;">2</text></g><g class="xtick"><text text-anchor="middle" x="0" y="497.4" style="font-family: 'Open Sans', verdana, arial, sans-serif; font-size: 12px; fill: rgb(51, 51, 51); fill-opacity: 1; white-space: pre; opacity: 1;" transform="translate(208,0)">0</text></g><g class="xtick"><text text-anchor="middle" x="0" y="497.4" style="font-family: 'Open Sans', verdana, arial, sans-serif; font-size: 12px; fill: rgb(51, 51, 51); fill-opacity: 1; white-space: pre; opacity: 1;" transform="translate(331.39,0)">2</text></g></g><g class="yaxislayer-above"><path class="ytick ticks crisp" d="M25,0h-5" transform="translate(0,406.64)" style="stroke: rgb(51, 51, 51); stroke-opacity: 1; stroke-width: 1px;"/><path class="ytick ticks crisp" d="M25,0h-5" transform="translate(0,332.57)" style="stroke: rgb(51, 51, 51); stroke-opacity: 1; stroke-width: 1px;"/><path class="ytick ticks crisp" d="M25,0h-5" transform="translate(0,258.5)" style="stroke: rgb(51, 51, 51); stroke-opacity: 1; stroke-width: 1px;"/><path class="ytick ticks crisp" d="M25,0h-5" transform="translate(0,184.43)" style="stroke: rgb(51, 51, 51); stroke-opacity: 1; stroke-width: 1px;"/><path class="ytick ticks crisp" d="M25,0h-5" transform="translate(0,110.36)" style="stroke: rgb(51, 51, 51); stroke-opacity: 1; stroke-width: 1px;"/><g class="ytick"><text text-anchor="end" x="17.6" y="4.199999999999999" transform="translate(0,406.64)" style="font-family: 'Open Sans', verdana, arial, sans-serif; font-size: 12px; fill: rgb(51, 51, 51); fill-opacity: 1; white-space: pre; opacity: 1;">2</text></g><g class="ytick"><text text-anchor="end" x="17.6" y="4.199999999999999" style="font-family: 'Open Sans', verdana, arial, sans-serif; font-size: 12px; fill: rgb(51, 51, 51); fill-opacity: 1; white-space: pre; opacity: 1;" transform="translate(0,332.57)">1</text></g><g class="ytick"><text text-anchor="end" x="17.6" y="4.199999999999999" style="font-family: 'Open Sans', verdana, arial, sans-serif; font-size: 12px; fill: rgb(51, 51, 51); fill-opacity: 1; white-space: pre; opacity: 1;" transform="translate(0,258.5)">0</text></g><g class="ytick"><text text-anchor="end" x="17.6" y="4.199999999999999" style="font-family: 'Open Sans', verdana, arial, sans-serif; font-size: 12px; fill: rgb(51, 51, 51); fill-opacity: 1; white-space: pre; opacity: 1;" transform="translate(0,184.43)">1</text></g><g class="ytick"><text text-anchor="end" x="17.6" y="4.199999999999999" style="font-family: 'Open Sans', verdana, arial, sans-serif; font-size: 12px; fill: rgb(51, 51, 51); fill-opacity: 1; white-space: pre; opacity: 1;" transform="translate(0,110.36)">2</text></g></g><g class="overaxes-above"/></g></g><g class="polarlayer"/><g class="ternarylayer"/><g class="geolayer"/><g class="funnelarealayer"/><g class="pielayer"/><g class="iciclelayer"/><g class="treemaplayer"/><g class="sunburstlayer"/><g class="glimages"/><defs id="topdefs-1426b7"><g class="clips"/></defs><g class="layer-above"><g class="imagelayer"/><g class="shapelayer"/></g><g class="infolayer"><g class="cb88d136 colorbar" transform="translate(26,40)"><rect class="cbbg" x="371" y="0" width="102.28125" height="437" style="fill: rgb(0, 0, 0); fill-opacity: 0; stroke: rgb(68, 68, 68); stroke-opacity: 1; stroke-width: 0;"/><g class="cbfills" transform="translate(0,10)"/><g class="cblines" transform="translate(0,10)"><path class="cbline" d="M381,417h30" style="fill: none; stroke: rgb(34, 30, 27); stroke-opacity: 1; stroke-width: 2px;"/><path class="cbline" d="M381,375h30" style="fill: none; stroke: rgb(59, 46, 38); stroke-opacity: 1; stroke-width: 2px;"/><path class="cbline" d="M381,334h30" style="fill: none; stroke: rgb(85, 62, 47); stroke-opacity: 1; stroke-width: 2px;"/><path class="cbline" d="M381,292h30" style="fill: none; stroke: rgb(111, 77, 54); stroke-opacity: 1; stroke-width: 2px;"/><path class="cbline" d="M381,250h30" style="fill: none; stroke: rgb(138, 93, 57); stroke-opacity: 1; stroke-width: 2px;"/><path class="cbline" d="M381,209h30" style="fill: none; stroke: rgb(161, 112, 59); stroke-opacity: 1; stroke-width: 2px;"/><path class="cbline" d="M381,167h30" style="fill: none; stroke: rgb(180, 134, 64); stroke-opacity: 1; stroke-width: 2px;"/><path class="cbline" d="M381,125h30" style="fill: none; stroke: rgb(195, 160, 78); stroke-opacity: 1; stroke-width: 2px;"/><path class="cbline" d="M381,83h30" style="fill: none; stroke: rgb(207, 188, 102); stroke-opacity: 1; stroke-width: 2px;"/><path class="cbline" d="M381,42h30" style="fill: none; stroke: rgb(219, 216, 134); stroke-opacity: 1; stroke-width: 2px;"/><path class="cbline" d="M381,0h30" style="fill: none; stroke: rgb(232, 245, 171); stroke-opacity: 1; stroke-width: 2px;"/></g><g class="cbaxis crisp" transform="translate(0,-40)"><path class="ycb88d136tick ticks crisp" d="M410.5,0h-6" transform="translate(0,383.6)" style="stroke: rgb(237, 237, 237); stroke-opacity: 1; stroke-width: 1px;"/><path class="ycb88d136tick ticks crisp" d="M410.5,0h-6" transform="translate(0,300.2)" style="stroke: rgb(237, 237, 237); stroke-opacity: 1; stroke-width: 1px;"/><path class="ycb88d136tick ticks crisp" d="M410.5,0h-6" transform="translate(0,216.8)" style="stroke: rgb(237, 237, 237); stroke-opacity: 1; stroke-width: 1px;"/><path class="ycb88d136tick ticks crisp" d="M410.5,0h-6" transform="translate(0,133.40000000000003)" style="stroke: rgb(237, 237, 237); stroke-opacity: 1; stroke-width: 1px;"/><g class="ycb88d136tick"><text text-anchor="start" x="413.9" y="4.199999999999999" transform="translate(0,467)" style="font-family: 'Open Sans', verdana, arial, sans-serif; font-size: 12px; fill: rgb(51, 51, 51); fill-opacity: 1; white-space: pre; opacity: 1;">0.0001</text></g><g class="ycb88d136tick"><text text-anchor="start" x="413.9" y="4.199999999999999" style="font-family: 'Open Sans', verdana, arial, sans-serif; font-size: 12px; fill: rgb(51, 51, 51); fill-opacity: 1; white-space: pre; opacity: 1;" transform="translate(0,383.6)">0.0278</text></g><g class="ycb88d136tick"><text text-anchor="start" x="413.9" y="4.199999999999999" style="font-family: 'Open Sans', verdana, arial, sans-serif; font-size: 12px; fill: rgb(51, 51, 51); fill-opacity: 1; white-space: pre; opacity: 1;" transform="translate(0,300.2)">0.0555</text></g><g class="ycb88d136tick"><text text-anchor="start" x="413.9" y="4.199999999999999" style="font-family: 'Open Sans', verdana, arial, sans-serif; font-size: 12px; fill: rgb(51, 51, 51); fill-opacity: 1; white-space: pre; opacity: 1;" transform="translate(0,216.8)">0.0831</text></g><g class="ycb88d136tick"><text text-anchor="start" x="413.9" y="4.199999999999999" style="font-family: 'Open Sans', verdana, arial, sans-serif; font-size: 12px; fill: rgb(51, 51, 51); fill-opacity: 1; white-space: pre; opacity: 1;" transform="translate(0,133.40000000000003)">0.1108</text></g><g class="ycb88d136tick"><text text-anchor="start" x="413.9" y="4.199999999999999" style="font-family: 'Open Sans', verdana, arial, sans-serif; font-size: 12px; fill: rgb(51, 51, 51); fill-opacity: 1; white-space: pre; opacity: 1;" transform="translate(0,50.000000000000014)">0.1384</text></g></g><g class="cbtitleunshift" transform="translate(-26,-40)"><g class="cbtitle"/></g><rect class="cboutline" x="381" y="10" width="30" height="417" style="stroke: rgb(68, 68, 68); stroke-opacity: 1; fill: none; stroke-width: 0;"/></g><g class="g-gtitle"><text class="gtitle" x="250" y="20" text-anchor="middle" dy="0em" style="font-family: 'Open Sans', verdana, arial, sans-serif; font-size: 17px; fill: rgb(51, 51, 51); opacity: 1; font-weight: normal; white-space: pre;">Independence copula</text></g><g class="g-xtitle"/><g class="g-ytitle"/></g></svg>