<?xml version="1.0" encoding="utf-8" standalone="no"?>
<!DOCTYPE svg PUBLIC "-//W3C//DTD SVG 1.1//EN"
  "http://www.w3.org/Graphics/SVG/1.1/DTD/svg11.dtd">
<svg xmlns:xlink="http://www.w3.org/1999/xlink" width="544.32pt" height="544.32pt" viewBox="0 0 544.32 544.32" xmlns="http://www.w3.org/2000/svg" version="1.1">
 <metadata>
  <rdf:RDF xmlns:dc="http://purl.org/dc/elements/1.1/" xmlns:cc="http://creativecommons.org/ns#" xmlns:rdf="http://www.w3.org/1999/02/22-rdf-syntax-ns#">
   <cc:Work>
    <dc:type rdf:resource="http://purl.org/dc/dcmitype/StillImage"/>
    <dc:date>2022-05-07T17:32:42.675117</dc:date>
    <dc:format>image/svg+xml</dc:format>
    <dc:creator>
     <cc:Agent>
      <dc:title>Matplotlib v3.5.1, https://matplotlib.org/</dc:title>
     </cc:Agent>
    </dc:creator>
   </cc:Work>
  </rdf:RDF>
 </metadata>
 <defs>
  <style type="text/css">*{stroke-linejoin: round; stroke-linecap: butt}</style>
 </defs>
 <g id="figure_1">
  <g id="patch_1">
   <path d="M 0 544.32 
L 544.32 544.32 
L 544.32 0 
L 0 0 
z
" style="fill: #ffffff"/>
  </g>
  <g id="axes_1">
   <g id="patch_2">
    <path d="M 44.714589 198.491872 
L 540.72 198.491872 
L 540.72 3.6 
L 44.714589 3.6 
z
" style="fill: #e5e5e5"/>
   </g>
   <g id="matplotlib.axis_1">
    <g id="xtick_1">
     <g id="line2d_1">
      <path d="M 158.087254 198.491872 
L 158.087254 3.6 
" clip-path="url(#p458dcdc36a)" style="fill: none; stroke: #ffffff; stroke-width: 1.5; stroke-linecap: square"/>
     </g>
     <g id="line2d_2">
      <defs>
       <path id="m14f8f6d42c" d="M 0 0 
L 0 9 
" style="stroke: #555555; stroke-width: 1.875"/>
      </defs>
      <g>
       <use xlink:href="#m14f8f6d42c" x="158.087254" y="198.491872" style="fill: #555555; stroke: #555555; stroke-width: 1.875"/>
      </g>
     </g>
     <g id="text_1">
      <!-- Jan -->
      <g style="fill: #555555" transform="translate(145.458009 222.407376)scale(0.165 -0.165)">
       <defs>
        <path id="CMR17-4a" d="M 1888 910 
C 1888 324 1568 -26 1242 -26 
C 1075 -26 691 49 525 431 
C 550 425 582 418 608 418 
C 730 418 883 501 883 692 
C 883 845 774 960 614 960 
C 461 960 339 865 339 682 
C 339 258 730 -128 1254 -128 
C 1754 -128 2214 229 2291 764 
C 2298 809 2298 821 2298 1038 
L 2298 3715 
C 2298 3823 2298 4001 2310 4039 
C 2336 4160 2483 4160 2682 4160 
L 2682 4320 
C 2669 4320 2214 4320 2054 4320 
C 1786 4320 1491 4320 1222 4320 
L 1222 4160 
L 1376 4160 
C 1875 4160 1888 4090 1888 3861 
L 1888 910 
z
" transform="scale(0.015625)"/>
        <path id="CMR17-61" d="M 2304 1653 
C 2304 2072 2304 2294 2035 2543 
C 1798 2752 1523 2816 1306 2816 
C 800 2816 435 2407 435 1971 
C 435 1728 627 1728 666 1728 
C 749 1728 896 1778 896 1954 
C 896 2112 774 2181 666 2181 
C 640 2181 608 2174 589 2168 
C 723 2592 1069 2714 1293 2714 
C 1613 2714 1965 2429 1965 1885 
L 1965 1600 
C 1587 1600 1133 1549 774 1357 
C 371 1133 256 813 256 570 
C 256 77 832 -64 1171 -64 
C 1523 -64 1850 139 1990 511 
C 2003 233 2182 -18 2464 -18 
C 2598 -18 2938 70 2938 567 
L 2938 920 
L 2822 920 
L 2822 562 
C 2822 178 2650 128 2566 128 
C 2304 128 2304 458 2304 738 
L 2304 1653 
z
M 1965 870 
C 1965 317 1568 38 1216 38 
C 896 38 646 275 646 570 
C 646 761 730 1100 1101 1305 
C 1408 1478 1760 1504 1965 1504 
L 1965 870 
z
" transform="scale(0.015625)"/>
        <path id="CMR17-6e" d="M 2656 1933 
C 2656 2259 2592 2790 1837 2790 
C 1331 2790 1069 2400 973 2144 
L 966 2144 
L 966 2790 
L 211 2720 
L 211 2554 
C 589 2554 646 2515 646 2208 
L 646 428 
C 646 184 621 153 211 153 
L 211 -13 
C 365 0 646 0 813 0 
C 979 0 1267 0 1421 -13 
L 1421 153 
C 1011 153 986 178 986 428 
L 986 1658 
C 986 2247 1344 2688 1792 2688 
C 2266 2688 2317 2266 2317 1958 
L 2317 428 
C 2317 184 2291 153 1882 153 
L 1882 -13 
C 2035 0 2317 0 2483 0 
C 2650 0 2938 0 3091 -13 
L 3091 153 
C 2682 153 2656 178 2656 428 
L 2656 1933 
z
" transform="scale(0.015625)"/>
       </defs>
       <use xlink:href="#CMR17-4a" transform="scale(0.996264)"/>
       <use xlink:href="#CMR17-61" transform="translate(46.97179 0)scale(0.996264)"/>
       <use xlink:href="#CMR17-6e" transform="translate(92.662267 0)scale(0.996264)"/>
      </g>
      <!-- 2020 -->
      <g style="fill: #555555" transform="translate(141.991546 239.302309)scale(0.165 -0.165)">
       <defs>
        <path id="CMR17-32" d="M 2669 989 
L 2554 989 
C 2490 536 2438 459 2413 420 
C 2381 369 1920 369 1830 369 
L 602 369 
C 832 619 1280 1072 1824 1597 
C 2214 1967 2669 2402 2669 3035 
C 2669 3790 2067 4224 1395 4224 
C 691 4224 262 3604 262 3030 
C 262 2780 448 2748 525 2748 
C 589 2748 781 2787 781 3010 
C 781 3207 614 3264 525 3264 
C 486 3264 448 3258 422 3245 
C 544 3790 915 4058 1306 4058 
C 1862 4058 2227 3617 2227 3035 
C 2227 2479 1901 2000 1536 1584 
L 262 146 
L 262 0 
L 2515 0 
L 2669 989 
z
" transform="scale(0.015625)"/>
        <path id="CMR17-30" d="M 2688 2025 
C 2688 2416 2682 3080 2413 3591 
C 2176 4039 1798 4198 1466 4198 
C 1158 4198 768 4058 525 3597 
C 269 3118 243 2524 243 2025 
C 243 1661 250 1106 448 619 
C 723 -39 1216 -128 1466 -128 
C 1760 -128 2208 -7 2470 600 
C 2662 1042 2688 1559 2688 2025 
z
M 1466 -26 
C 1056 -26 813 325 723 812 
C 653 1188 653 1738 653 2096 
C 653 2588 653 2997 736 3387 
C 858 3929 1216 4096 1466 4096 
C 1728 4096 2067 3923 2189 3400 
C 2272 3036 2278 2607 2278 2096 
C 2278 1680 2278 1169 2202 792 
C 2067 95 1690 -26 1466 -26 
z
" transform="scale(0.015625)"/>
       </defs>
       <use xlink:href="#CMR17-32" transform="scale(0.996264)"/>
       <use xlink:href="#CMR17-30" transform="translate(45.690477 0)scale(0.996264)"/>
       <use xlink:href="#CMR17-32" transform="translate(91.380954 0)scale(0.996264)"/>
       <use xlink:href="#CMR17-30" transform="translate(137.071431 0)scale(0.996264)"/>
      </g>
     </g>
    </g>
    <g id="xtick_2">
     <g id="line2d_3">
      <path d="M 328.146252 198.491872 
L 328.146252 3.6 
" clip-path="url(#p458dcdc36a)" style="fill: none; stroke: #ffffff; stroke-width: 1.5; stroke-linecap: square"/>
     </g>
     <g id="line2d_4">
      <g>
       <use xlink:href="#m14f8f6d42c" x="328.146252" y="198.491872" style="fill: #555555; stroke: #555555; stroke-width: 1.875"/>
      </g>
     </g>
     <g id="text_2">
      <!-- Jan -->
      <g style="fill: #555555" transform="translate(315.517007 222.407376)scale(0.165 -0.165)">
       <use xlink:href="#CMR17-4a" transform="scale(0.996264)"/>
       <use xlink:href="#CMR17-61" transform="translate(46.97179 0)scale(0.996264)"/>
       <use xlink:href="#CMR17-6e" transform="translate(92.662267 0)scale(0.996264)"/>
      </g>
      <!-- 2021 -->
      <g style="fill: #555555" transform="translate(312.050544 239.302309)scale(0.165 -0.165)">
       <defs>
        <path id="CMR17-31" d="M 1702 4058 
C 1702 4192 1696 4192 1606 4192 
C 1357 3916 979 3827 621 3827 
C 602 3827 570 3827 563 3808 
C 557 3795 557 3782 557 3648 
C 755 3648 1088 3686 1344 3839 
L 1344 461 
C 1344 236 1331 160 781 160 
L 589 160 
L 589 0 
C 896 0 1216 0 1523 0 
C 1830 0 2150 0 2458 0 
L 2458 160 
L 2266 160 
C 1715 160 1702 230 1702 458 
L 1702 4058 
z
" transform="scale(0.015625)"/>
       </defs>
       <use xlink:href="#CMR17-32" transform="scale(0.996264)"/>
       <use xlink:href="#CMR17-30" transform="translate(45.690477 0)scale(0.996264)"/>
       <use xlink:href="#CMR17-32" transform="translate(91.380954 0)scale(0.996264)"/>
       <use xlink:href="#CMR17-31" transform="translate(137.071431 0)scale(0.996264)"/>
      </g>
     </g>
    </g>
    <g id="xtick_3">
     <g id="line2d_5">
      <path d="M 498.20525 198.491872 
L 498.20525 3.6 
" clip-path="url(#p458dcdc36a)" style="fill: none; stroke: #ffffff; stroke-width: 1.5; stroke-linecap: square"/>
     </g>
     <g id="line2d_6">
      <g>
       <use xlink:href="#m14f8f6d42c" x="498.20525" y="198.491872" style="fill: #555555; stroke: #555555; stroke-width: 1.875"/>
      </g>
     </g>
     <g id="text_3">
      <!-- Jan -->
      <g style="fill: #555555" transform="translate(485.576005 222.407376)scale(0.165 -0.165)">
       <use xlink:href="#CMR17-4a" transform="scale(0.996264)"/>
       <use xlink:href="#CMR17-61" transform="translate(46.97179 0)scale(0.996264)"/>
       <use xlink:href="#CMR17-6e" transform="translate(92.662267 0)scale(0.996264)"/>
      </g>
      <!-- 2022 -->
      <g style="fill: #555555" transform="translate(482.109542 239.302309)scale(0.165 -0.165)">
       <use xlink:href="#CMR17-32" transform="scale(0.996264)"/>
       <use xlink:href="#CMR17-30" transform="translate(45.690477 0)scale(0.996264)"/>
       <use xlink:href="#CMR17-32" transform="translate(91.380954 0)scale(0.996264)"/>
       <use xlink:href="#CMR17-32" transform="translate(137.071431 0)scale(0.996264)"/>
      </g>
     </g>
    </g>
    <g id="xtick_4">
     <g id="line2d_7">
      <defs>
       <path id="m188401abb4" d="M 0 0 
L 0 6 
" style="stroke: #555555; stroke-width: 1.5"/>
      </defs>
      <g>
       <use xlink:href="#m188401abb4" x="44.714589" y="198.491872" style="fill: #555555; stroke: #555555; stroke-width: 1.5"/>
      </g>
     </g>
    </g>
    <g id="xtick_5">
     <g id="line2d_8">
      <g>
       <use xlink:href="#m188401abb4" x="58.886172" y="198.491872" style="fill: #555555; stroke: #555555; stroke-width: 1.5"/>
      </g>
     </g>
    </g>
    <g id="xtick_6">
     <g id="line2d_9">
      <g>
       <use xlink:href="#m188401abb4" x="73.057755" y="198.491872" style="fill: #555555; stroke: #555555; stroke-width: 1.5"/>
      </g>
     </g>
     <g id="text_4">
      <!-- Jul -->
      <g style="fill: #555555" transform="translate(62.216923 219.307376)scale(0.165 -0.165)">
       <defs>
        <path id="CMR17-75" d="M 1882 2693 
L 1882 2528 
C 2259 2528 2317 2489 2317 2186 
L 2317 1032 
C 2317 500 2029 38 1555 38 
C 1030 38 986 348 986 678 
L 986 2763 
L 211 2693 
L 211 2528 
C 467 2528 640 2528 646 2274 
L 646 1058 
C 646 633 646 361 813 183 
C 896 101 1056 -64 1517 -64 
C 2061 -64 2272 377 2323 506 
L 2330 506 
L 2330 -63 
L 3091 -63 
L 3091 128 
C 2714 128 2656 166 2656 473 
L 2656 2763 
L 1882 2693 
z
" transform="scale(0.015625)"/>
        <path id="CMR17-6c" d="M 979 4396 
L 218 4326 
L 218 4160 
C 595 4160 653 4122 653 3817 
L 653 426 
C 653 184 627 153 218 153 
L 218 -13 
C 371 0 653 0 813 0 
C 979 0 1261 0 1414 -13 
L 1414 153 
C 1005 153 979 178 979 426 
L 979 4396 
z
" transform="scale(0.015625)"/>
       </defs>
       <use xlink:href="#CMR17-4a" transform="scale(0.996264)"/>
       <use xlink:href="#CMR17-75" transform="translate(46.97179 0)scale(0.996264)"/>
       <use xlink:href="#CMR17-6c" transform="translate(97.86716 0)scale(0.996264)"/>
      </g>
     </g>
    </g>
    <g id="xtick_7">
     <g id="line2d_10">
      <g>
       <use xlink:href="#m188401abb4" x="87.229338" y="198.491872" style="fill: #555555; stroke: #555555; stroke-width: 1.5"/>
      </g>
     </g>
    </g>
    <g id="xtick_8">
     <g id="line2d_11">
      <g>
       <use xlink:href="#m188401abb4" x="101.400921" y="198.491872" style="fill: #555555; stroke: #555555; stroke-width: 1.5"/>
      </g>
     </g>
    </g>
    <g id="xtick_9">
     <g id="line2d_12">
      <g>
       <use xlink:href="#m188401abb4" x="115.572505" y="198.491872" style="fill: #555555; stroke: #555555; stroke-width: 1.5"/>
      </g>
     </g>
    </g>
    <g id="xtick_10">
     <g id="line2d_13">
      <g>
       <use xlink:href="#m188401abb4" x="129.744088" y="198.491872" style="fill: #555555; stroke: #555555; stroke-width: 1.5"/>
      </g>
     </g>
    </g>
    <g id="xtick_11">
     <g id="line2d_14">
      <g>
       <use xlink:href="#m188401abb4" x="143.915671" y="198.491872" style="fill: #555555; stroke: #555555; stroke-width: 1.5"/>
      </g>
     </g>
    </g>
    <g id="xtick_12">
     <g id="line2d_15">
      <g>
       <use xlink:href="#m188401abb4" x="172.258837" y="198.491872" style="fill: #555555; stroke: #555555; stroke-width: 1.5"/>
      </g>
     </g>
    </g>
    <g id="xtick_13">
     <g id="line2d_16">
      <g>
       <use xlink:href="#m188401abb4" x="186.43042" y="198.491872" style="fill: #555555; stroke: #555555; stroke-width: 1.5"/>
      </g>
     </g>
    </g>
    <g id="xtick_14">
     <g id="line2d_17">
      <g>
       <use xlink:href="#m188401abb4" x="200.602004" y="198.491872" style="fill: #555555; stroke: #555555; stroke-width: 1.5"/>
      </g>
     </g>
    </g>
    <g id="xtick_15">
     <g id="line2d_18">
      <g>
       <use xlink:href="#m188401abb4" x="214.773587" y="198.491872" style="fill: #555555; stroke: #555555; stroke-width: 1.5"/>
      </g>
     </g>
    </g>
    <g id="xtick_16">
     <g id="line2d_19">
      <g>
       <use xlink:href="#m188401abb4" x="228.94517" y="198.491872" style="fill: #555555; stroke: #555555; stroke-width: 1.5"/>
      </g>
     </g>
    </g>
    <g id="xtick_17">
     <g id="line2d_20">
      <g>
       <use xlink:href="#m188401abb4" x="243.116753" y="198.491872" style="fill: #555555; stroke: #555555; stroke-width: 1.5"/>
      </g>
     </g>
     <g id="text_5">
      <!-- Jul -->
      <g style="fill: #555555" transform="translate(232.275921 219.307376)scale(0.165 -0.165)">
       <use xlink:href="#CMR17-4a" transform="scale(0.996264)"/>
       <use xlink:href="#CMR17-75" transform="translate(46.97179 0)scale(0.996264)"/>
       <use xlink:href="#CMR17-6c" transform="translate(97.86716 0)scale(0.996264)"/>
      </g>
     </g>
    </g>
    <g id="xtick_18">
     <g id="line2d_21">
      <g>
       <use xlink:href="#m188401abb4" x="257.288336" y="198.491872" style="fill: #555555; stroke: #555555; stroke-width: 1.5"/>
      </g>
     </g>
    </g>
    <g id="xtick_19">
     <g id="line2d_22">
      <g>
       <use xlink:href="#m188401abb4" x="271.45992" y="198.491872" style="fill: #555555; stroke: #555555; stroke-width: 1.5"/>
      </g>
     </g>
    </g>
    <g id="xtick_20">
     <g id="line2d_23">
      <g>
       <use xlink:href="#m188401abb4" x="285.631503" y="198.491872" style="fill: #555555; stroke: #555555; stroke-width: 1.5"/>
      </g>
     </g>
    </g>
    <g id="xtick_21">
     <g id="line2d_24">
      <g>
       <use xlink:href="#m188401abb4" x="299.803086" y="198.491872" style="fill: #555555; stroke: #555555; stroke-width: 1.5"/>
      </g>
     </g>
    </g>
    <g id="xtick_22">
     <g id="line2d_25">
      <g>
       <use xlink:href="#m188401abb4" x="313.974669" y="198.491872" style="fill: #555555; stroke: #555555; stroke-width: 1.5"/>
      </g>
     </g>
    </g>
    <g id="xtick_23">
     <g id="line2d_26">
      <g>
       <use xlink:href="#m188401abb4" x="342.317835" y="198.491872" style="fill: #555555; stroke: #555555; stroke-width: 1.5"/>
      </g>
     </g>
    </g>
    <g id="xtick_24">
     <g id="line2d_27">
      <g>
       <use xlink:href="#m188401abb4" x="356.489419" y="198.491872" style="fill: #555555; stroke: #555555; stroke-width: 1.5"/>
      </g>
     </g>
    </g>
    <g id="xtick_25">
     <g id="line2d_28">
      <g>
       <use xlink:href="#m188401abb4" x="370.661002" y="198.491872" style="fill: #555555; stroke: #555555; stroke-width: 1.5"/>
      </g>
     </g>
    </g>
    <g id="xtick_26">
     <g id="line2d_29">
      <g>
       <use xlink:href="#m188401abb4" x="384.832585" y="198.491872" style="fill: #555555; stroke: #555555; stroke-width: 1.5"/>
      </g>
     </g>
    </g>
    <g id="xtick_27">
     <g id="line2d_30">
      <g>
       <use xlink:href="#m188401abb4" x="399.004168" y="198.491872" style="fill: #555555; stroke: #555555; stroke-width: 1.5"/>
      </g>
     </g>
    </g>
    <g id="xtick_28">
     <g id="line2d_31">
      <g>
       <use xlink:href="#m188401abb4" x="413.175751" y="198.491872" style="fill: #555555; stroke: #555555; stroke-width: 1.5"/>
      </g>
     </g>
     <g id="text_6">
      <!-- Jul -->
      <g style="fill: #555555" transform="translate(402.334919 219.307376)scale(0.165 -0.165)">
       <use xlink:href="#CMR17-4a" transform="scale(0.996264)"/>
       <use xlink:href="#CMR17-75" transform="translate(46.97179 0)scale(0.996264)"/>
       <use xlink:href="#CMR17-6c" transform="translate(97.86716 0)scale(0.996264)"/>
      </g>
     </g>
    </g>
    <g id="xtick_29">
     <g id="line2d_32">
      <g>
       <use xlink:href="#m188401abb4" x="427.347335" y="198.491872" style="fill: #555555; stroke: #555555; stroke-width: 1.5"/>
      </g>
     </g>
    </g>
    <g id="xtick_30">
     <g id="line2d_33">
      <g>
       <use xlink:href="#m188401abb4" x="441.518918" y="198.491872" style="fill: #555555; stroke: #555555; stroke-width: 1.5"/>
      </g>
     </g>
    </g>
    <g id="xtick_31">
     <g id="line2d_34">
      <g>
       <use xlink:href="#m188401abb4" x="455.690501" y="198.491872" style="fill: #555555; stroke: #555555; stroke-width: 1.5"/>
      </g>
     </g>
    </g>
    <g id="xtick_32">
     <g id="line2d_35">
      <g>
       <use xlink:href="#m188401abb4" x="469.862084" y="198.491872" style="fill: #555555; stroke: #555555; stroke-width: 1.5"/>
      </g>
     </g>
    </g>
    <g id="xtick_33">
     <g id="line2d_36">
      <g>
       <use xlink:href="#m188401abb4" x="484.033667" y="198.491872" style="fill: #555555; stroke: #555555; stroke-width: 1.5"/>
      </g>
     </g>
    </g>
    <g id="xtick_34">
     <g id="line2d_37">
      <g>
       <use xlink:href="#m188401abb4" x="512.376834" y="198.491872" style="fill: #555555; stroke: #555555; stroke-width: 1.5"/>
      </g>
     </g>
    </g>
    <g id="xtick_35">
     <g id="line2d_38">
      <g>
       <use xlink:href="#m188401abb4" x="526.548417" y="198.491872" style="fill: #555555; stroke: #555555; stroke-width: 1.5"/>
      </g>
     </g>
    </g>
    <g id="xtick_36">
     <g id="line2d_39">
      <g>
       <use xlink:href="#m188401abb4" x="540.72" y="198.491872" style="fill: #555555; stroke: #555555; stroke-width: 1.5"/>
      </g>
     </g>
    </g>
    <g id="text_7">
     <!-- Date -->
     <g style="fill: #555555" transform="translate(275.45076 258.951936)scale(0.18 -0.18)">
      <defs>
       <path id="CMR17-44" d="M 333 4352 
L 333 4186 
C 774 4186 845 4186 845 3900 
L 845 452 
C 845 166 774 166 333 166 
L 333 0 
L 2368 0 
C 3398 0 4224 943 4224 2141 
C 4224 3346 3411 4352 2368 4352 
L 333 4352 
z
M 1523 166 
C 1267 166 1254 197 1254 414 
L 1254 3938 
C 1254 4155 1267 4186 1523 4186 
L 2240 4186 
C 2771 4186 3750 3874 3750 2141 
C 3750 1242 3488 879 3366 707 
C 3213 510 2848 166 2240 166 
L 1523 166 
z
" transform="scale(0.015625)"/>
       <path id="CMR17-74" d="M 966 2560 
L 1862 2560 
L 1862 2725 
L 966 2725 
L 966 3904 
L 851 3904 
C 838 3245 614 2668 70 2668 
L 70 2560 
L 627 2560 
L 627 771 
C 627 650 627 -64 1370 -64 
C 1747 -64 1965 306 1965 777 
L 1965 1140 
L 1850 1140 
L 1850 783 
C 1850 344 1677 51 1408 51 
C 1222 51 966 178 966 758 
L 966 2560 
z
" transform="scale(0.015625)"/>
       <path id="CMR17-65" d="M 2438 1472 
C 2464 1498 2464 1511 2464 1576 
C 2464 2238 2118 2816 1389 2816 
C 710 2816 173 2169 173 1383 
C 173 551 781 -64 1459 -64 
C 2176 -64 2458 607 2458 740 
C 2458 784 2419 784 2406 784 
C 2362 784 2355 771 2330 696 
C 2189 265 1837 51 1504 51 
C 1229 51 954 203 781 480 
C 582 803 582 1176 582 1472 
L 2438 1472 
z
M 589 1568 
C 634 2505 1126 2714 1382 2714 
C 1818 2714 2112 2297 2118 1568 
L 589 1568 
z
" transform="scale(0.015625)"/>
      </defs>
      <use xlink:href="#CMR17-44" transform="scale(0.996264)"/>
      <use xlink:href="#CMR17-61" transform="translate(70.393556 0)scale(0.996264)"/>
      <use xlink:href="#CMR17-74" transform="translate(116.084033 0)scale(0.996264)"/>
      <use xlink:href="#CMR17-65" transform="translate(151.364801 0)scale(0.996264)"/>
     </g>
    </g>
   </g>
   <g id="matplotlib.axis_2">
    <g id="ytick_1">
     <g id="line2d_40">
      <path d="M 44.714589 164.504717 
L 540.72 164.504717 
" clip-path="url(#p458dcdc36a)" style="fill: none; stroke: #ffffff; stroke-width: 1.5; stroke-linecap: square"/>
     </g>
     <g id="line2d_41">
      <defs>
       <path id="mb2752685fd" d="M 0 0 
L -9 0 
" style="stroke: #555555; stroke-width: 1.875"/>
      </defs>
      <g>
       <use xlink:href="#mb2752685fd" x="44.714589" y="164.504717" style="fill: #555555; stroke: #555555; stroke-width: 1.875"/>
      </g>
     </g>
     <g id="text_8">
      <!-- $\mathdefault{5.0}$ -->
      <g style="fill: #555555" transform="translate(11.647854 170.21247)scale(0.165 -0.165)">
       <defs>
        <path id="CMR17-35" d="M 730 3692 
C 794 3666 1056 3584 1325 3584 
C 1920 3584 2246 3911 2432 4100 
C 2432 4157 2432 4192 2394 4192 
C 2387 4192 2374 4192 2323 4163 
C 2099 4058 1837 3973 1517 3973 
C 1325 3973 1037 3999 723 4139 
C 653 4171 640 4171 634 4171 
C 602 4171 595 4164 595 4037 
L 595 2203 
C 595 2089 595 2057 659 2057 
C 691 2057 704 2070 736 2114 
C 941 2401 1222 2522 1542 2522 
C 1766 2522 2246 2382 2246 1289 
C 2246 1085 2246 715 2054 421 
C 1894 159 1645 25 1370 25 
C 947 25 518 320 403 814 
C 429 807 480 795 506 795 
C 589 795 749 840 749 1038 
C 749 1210 627 1280 506 1280 
C 358 1280 262 1190 262 1011 
C 262 454 704 -128 1382 -128 
C 2042 -128 2669 440 2669 1264 
C 2669 2030 2170 2624 1549 2624 
C 1222 2624 947 2503 730 2274 
L 730 3692 
z
" transform="scale(0.015625)"/>
        <path id="CMMI12-3a" d="M 1178 307 
C 1178 492 1024 619 870 619 
C 685 619 557 466 557 313 
C 557 128 710 0 864 0 
C 1050 0 1178 153 1178 307 
z
" transform="scale(0.015625)"/>
       </defs>
       <use xlink:href="#CMR17-35" transform="scale(0.996264)"/>
       <use xlink:href="#CMMI12-3a" transform="translate(45.690477 0)scale(0.996264)"/>
       <use xlink:href="#CMR17-30" transform="translate(72.787654 0)scale(0.996264)"/>
      </g>
     </g>
    </g>
    <g id="ytick_2">
     <g id="line2d_42">
      <path d="M 44.714589 123.448118 
L 540.72 123.448118 
" clip-path="url(#p458dcdc36a)" style="fill: none; stroke: #ffffff; stroke-width: 1.5; stroke-linecap: square"/>
     </g>
     <g id="line2d_43">
      <g>
       <use xlink:href="#mb2752685fd" x="44.714589" y="123.448118" style="fill: #555555; stroke: #555555; stroke-width: 1.875"/>
      </g>
     </g>
     <g id="text_9">
      <!-- $\mathdefault{7.5}$ -->
      <g style="fill: #555555" transform="translate(11.647854 129.155871)scale(0.165 -0.165)">
       <defs>
        <path id="CMR17-37" d="M 2886 3941 
L 2886 4081 
L 1382 4081 
C 634 4081 621 4165 595 4288 
L 480 4288 
L 294 3094 
L 410 3094 
C 429 3215 474 3540 550 3661 
C 589 3712 1062 3712 1171 3712 
L 2579 3712 
L 1869 2661 
C 1395 1954 1069 999 1069 165 
C 1069 89 1069 -128 1299 -128 
C 1530 -128 1530 89 1530 171 
L 1530 465 
C 1530 1508 1709 2196 2003 2636 
L 2886 3941 
z
" transform="scale(0.015625)"/>
       </defs>
       <use xlink:href="#CMR17-37" transform="scale(0.996264)"/>
       <use xlink:href="#CMMI12-3a" transform="translate(45.690477 0)scale(0.996264)"/>
       <use xlink:href="#CMR17-35" transform="translate(72.787654 0)scale(0.996264)"/>
      </g>
     </g>
    </g>
    <g id="ytick_3">
     <g id="line2d_44">
      <path d="M 44.714589 82.391519 
L 540.72 82.391519 
" clip-path="url(#p458dcdc36a)" style="fill: none; stroke: #ffffff; stroke-width: 1.5; stroke-linecap: square"/>
     </g>
     <g id="line2d_45">
      <g>
       <use xlink:href="#mb2752685fd" x="44.714589" y="82.391519" style="fill: #555555; stroke: #555555; stroke-width: 1.875"/>
      </g>
     </g>
     <g id="text_10">
      <!-- $\mathdefault{10.0}$ -->
      <g style="fill: #555555" transform="translate(3.6 88.099272)scale(0.165 -0.165)">
       <use xlink:href="#CMR17-31" transform="scale(0.996264)"/>
       <use xlink:href="#CMR17-30" transform="translate(45.690477 0)scale(0.996264)"/>
       <use xlink:href="#CMMI12-3a" transform="translate(91.380954 0)scale(0.996264)"/>
       <use xlink:href="#CMR17-30" transform="translate(118.478131 0)scale(0.996264)"/>
      </g>
     </g>
    </g>
    <g id="ytick_4">
     <g id="line2d_46">
      <path d="M 44.714589 41.33492 
L 540.72 41.33492 
" clip-path="url(#p458dcdc36a)" style="fill: none; stroke: #ffffff; stroke-width: 1.5; stroke-linecap: square"/>
     </g>
     <g id="line2d_47">
      <g>
       <use xlink:href="#mb2752685fd" x="44.714589" y="41.33492" style="fill: #555555; stroke: #555555; stroke-width: 1.875"/>
      </g>
     </g>
     <g id="text_11">
      <!-- $\mathdefault{12.5}$ -->
      <g style="fill: #555555" transform="translate(3.6 47.042673)scale(0.165 -0.165)">
       <use xlink:href="#CMR17-31" transform="scale(0.996264)"/>
       <use xlink:href="#CMR17-32" transform="translate(45.690477 0)scale(0.996264)"/>
       <use xlink:href="#CMMI12-3a" transform="translate(91.380954 0)scale(0.996264)"/>
       <use xlink:href="#CMR17-35" transform="translate(118.478131 0)scale(0.996264)"/>
      </g>
     </g>
    </g>
    <g id="ytick_5">
     <g id="line2d_48">
      <defs>
       <path id="mb6c8c448eb" d="M 0 0 
L -6 0 
" style="stroke: #555555; stroke-width: 1.5"/>
      </defs>
      <g>
       <use xlink:href="#mb6c8c448eb" x="44.714589" y="197.349997" style="fill: #555555; stroke: #555555; stroke-width: 1.5"/>
      </g>
     </g>
    </g>
    <g id="ytick_6">
     <g id="line2d_49">
      <g>
       <use xlink:href="#mb6c8c448eb" x="44.714589" y="189.138677" style="fill: #555555; stroke: #555555; stroke-width: 1.5"/>
      </g>
     </g>
    </g>
    <g id="ytick_7">
     <g id="line2d_50">
      <g>
       <use xlink:href="#mb6c8c448eb" x="44.714589" y="180.927357" style="fill: #555555; stroke: #555555; stroke-width: 1.5"/>
      </g>
     </g>
    </g>
    <g id="ytick_8">
     <g id="line2d_51">
      <g>
       <use xlink:href="#mb6c8c448eb" x="44.714589" y="172.716037" style="fill: #555555; stroke: #555555; stroke-width: 1.5"/>
      </g>
     </g>
    </g>
    <g id="ytick_9">
     <g id="line2d_52">
      <g>
       <use xlink:href="#mb6c8c448eb" x="44.714589" y="156.293398" style="fill: #555555; stroke: #555555; stroke-width: 1.5"/>
      </g>
     </g>
    </g>
    <g id="ytick_10">
     <g id="line2d_53">
      <g>
       <use xlink:href="#mb6c8c448eb" x="44.714589" y="148.082078" style="fill: #555555; stroke: #555555; stroke-width: 1.5"/>
      </g>
     </g>
    </g>
    <g id="ytick_11">
     <g id="line2d_54">
      <g>
       <use xlink:href="#mb6c8c448eb" x="44.714589" y="139.870758" style="fill: #555555; stroke: #555555; stroke-width: 1.5"/>
      </g>
     </g>
    </g>
    <g id="ytick_12">
     <g id="line2d_55">
      <g>
       <use xlink:href="#mb6c8c448eb" x="44.714589" y="131.659438" style="fill: #555555; stroke: #555555; stroke-width: 1.5"/>
      </g>
     </g>
    </g>
    <g id="ytick_13">
     <g id="line2d_56">
      <g>
       <use xlink:href="#mb6c8c448eb" x="44.714589" y="115.236799" style="fill: #555555; stroke: #555555; stroke-width: 1.5"/>
      </g>
     </g>
    </g>
    <g id="ytick_14">
     <g id="line2d_57">
      <g>
       <use xlink:href="#mb6c8c448eb" x="44.714589" y="107.025479" style="fill: #555555; stroke: #555555; stroke-width: 1.5"/>
      </g>
     </g>
    </g>
    <g id="ytick_15">
     <g id="line2d_58">
      <g>
       <use xlink:href="#mb6c8c448eb" x="44.714589" y="98.814159" style="fill: #555555; stroke: #555555; stroke-width: 1.5"/>
      </g>
     </g>
    </g>
    <g id="ytick_16">
     <g id="line2d_59">
      <g>
       <use xlink:href="#mb6c8c448eb" x="44.714589" y="90.602839" style="fill: #555555; stroke: #555555; stroke-width: 1.5"/>
      </g>
     </g>
    </g>
    <g id="ytick_17">
     <g id="line2d_60">
      <g>
       <use xlink:href="#mb6c8c448eb" x="44.714589" y="74.1802" style="fill: #555555; stroke: #555555; stroke-width: 1.5"/>
      </g>
     </g>
    </g>
    <g id="ytick_18">
     <g id="line2d_61">
      <g>
       <use xlink:href="#mb6c8c448eb" x="44.714589" y="65.96888" style="fill: #555555; stroke: #555555; stroke-width: 1.5"/>
      </g>
     </g>
    </g>
    <g id="ytick_19">
     <g id="line2d_62">
      <g>
       <use xlink:href="#mb6c8c448eb" x="44.714589" y="57.75756" style="fill: #555555; stroke: #555555; stroke-width: 1.5"/>
      </g>
     </g>
    </g>
    <g id="ytick_20">
     <g id="line2d_63">
      <g>
       <use xlink:href="#mb6c8c448eb" x="44.714589" y="49.54624" style="fill: #555555; stroke: #555555; stroke-width: 1.5"/>
      </g>
     </g>
    </g>
    <g id="ytick_21">
     <g id="line2d_64">
      <g>
       <use xlink:href="#mb6c8c448eb" x="44.714589" y="33.1236" style="fill: #555555; stroke: #555555; stroke-width: 1.5"/>
      </g>
     </g>
    </g>
    <g id="ytick_22">
     <g id="line2d_65">
      <g>
       <use xlink:href="#mb6c8c448eb" x="44.714589" y="24.912281" style="fill: #555555; stroke: #555555; stroke-width: 1.5"/>
      </g>
     </g>
    </g>
    <g id="ytick_23">
     <g id="line2d_66">
      <g>
       <use xlink:href="#mb6c8c448eb" x="44.714589" y="16.700961" style="fill: #555555; stroke: #555555; stroke-width: 1.5"/>
      </g>
     </g>
    </g>
    <g id="ytick_24">
     <g id="line2d_67">
      <g>
       <use xlink:href="#mb6c8c448eb" x="44.714589" y="8.489641" style="fill: #555555; stroke: #555555; stroke-width: 1.5"/>
      </g>
     </g>
    </g>
   </g>
   <g id="line2d_68">
    <path d="M 44.714589 98.371006 
L 58.886172 95.890535 
L 73.057755 96.02111 
L 87.229338 93.738452 
L 101.400921 97.963756 
L 115.572505 105.263332 
L 129.744088 96.650215 
L 143.915671 101.468914 
L 158.087254 101.595287 
L 172.258837 105.87846 
L 186.43042 101.036782 
L 200.602004 103.472573 
L 214.773587 97.888703 
L 228.94517 95.280874 
L 243.116753 92.447455 
L 257.288336 81.463923 
L 271.45992 84.472001 
L 285.631503 64.94071 
L 299.803086 60.620967 
L 313.974669 60.506233 
L 328.146252 54.641428 
L 342.317835 45.328121 
L 356.489419 49.930996 
L 370.661002 50.388936 
L 384.832585 31.022056 
L 399.004168 35.051856 
L 413.175751 13.050449 
L 427.347335 20.027297 
L 441.518918 21.058189 
L 455.690501 27.118854 
L 469.862084 12.458721 
L 484.033667 14.62551 
L 498.20525 16.29208 
L 512.376834 20.310719 
L 526.548417 25.243118 
L 540.72 22.694237 
" clip-path="url(#p458dcdc36a)" style="fill: none; stroke: #4d3c2f; stroke-width: 2.25; stroke-linecap: square"/>
   </g>
   <g id="line2d_69">
    <path d="M 44.714589 189.63315 
L 58.886172 183.985135 
L 73.057755 188.024173 
L 87.229338 180.211608 
L 101.400921 166.55972 
L 115.572505 173.822387 
L 129.744088 169.507781 
L 143.915671 177.432695 
L 158.087254 176.448001 
L 172.258837 176.402623 
L 186.43042 173.858537 
L 200.602004 172.377975 
L 214.773587 170.560083 
L 228.94517 171.529452 
L 243.116753 168.308006 
L 257.288336 167.249074 
L 271.45992 170.355591 
L 285.631503 161.475211 
L 299.803086 162.77959 
L 313.974669 165.557759 
L 328.146252 160.922511 
L 342.317835 158.599295 
L 356.489419 161.248096 
L 370.661002 161.193753 
L 384.832585 150.831555 
L 399.004168 156.666986 
L 413.175751 152.113408 
L 427.347335 154.9096 
L 441.518918 146.178704 
L 455.690501 144.996681 
L 469.862084 148.351645 
L 484.033667 153.08419 
L 498.20525 147.188662 
L 512.376834 150.175554 
L 526.548417 155.83262 
L 540.72 153.947936 
" clip-path="url(#p458dcdc36a)" style="fill: none; stroke: #c07156; stroke-width: 2.25; stroke-linecap: square"/>
   </g>
   <g id="line2d_70">
    <path d="M 44.714589 132.351265 
L 58.886172 133.753158 
L 73.057755 129.894629 
L 87.229338 133.758211 
L 101.400921 139.815954 
L 115.572505 148.132473 
L 129.744088 140.209878 
L 143.915671 137.035547 
L 158.087254 138.970217 
L 172.258837 142.920596 
L 186.43042 141.240759 
L 200.602004 144.577761 
L 214.773587 140.934873 
L 228.94517 140.366371 
L 243.116753 139.806956 
L 257.288336 124.488585 
L 271.45992 127.482114 
L 285.631503 110.366434 
L 299.803086 104.291579 
L 313.974669 93.449503 
L 328.146252 93.289145 
L 342.317835 83.500868 
L 356.489419 84.987283 
L 370.661002 81.595594 
L 384.832585 81.451118 
L 399.004168 78.362414 
L 413.175751 60.543707 
L 427.347335 64.940402 
L 441.518918 73.335404 
L 455.690501 82.812732 
L 469.862084 70.628588 
L 484.033667 48.519665 
L 498.20525 55.676058 
L 512.376834 51.480085 
L 526.548417 55.794383 
L 540.72 57.974149 
" clip-path="url(#p458dcdc36a)" style="fill: none; stroke: #e8c767; stroke-width: 2.25; stroke-linecap: square"/>
   </g>
   <g id="patch_3">
    <path d="M 44.714589 198.491872 
L 44.714589 3.6 
" style="fill: none; stroke: #ffffff; stroke-width: 1.875; stroke-linejoin: miter; stroke-linecap: square"/>
   </g>
   <g id="patch_4">
    <path d="M 44.714589 198.491872 
L 540.72 198.491872 
" style="fill: none; stroke: #ffffff; stroke-width: 1.875; stroke-linejoin: miter; stroke-linecap: square"/>
   </g>
   <g id="legend_1">
    <g id="line2d_71">
     <path d="M 59.564589 24.225 
L 76.064589 24.225 
L 92.564589 24.225 
" style="fill: none; stroke: #4d3c2f; stroke-width: 2.25; stroke-linecap: square"/>
    </g>
    <g id="text_12">
     <!-- Soybean -->
     <g transform="translate(105.764589 30)scale(0.165 -0.165)">
      <defs>
       <path id="CMR17-53" d="M 2803 4290 
C 2803 4404 2797 4411 2758 4411 
C 2720 4411 2707 4385 2682 4328 
L 2490 3907 
C 2246 4257 1875 4416 1472 4416 
C 819 4416 294 3901 294 3253 
C 294 3056 339 2776 557 2510 
C 794 2218 1018 2167 1530 2033 
C 1722 1982 2042 1899 2106 1874 
C 2470 1722 2662 1341 2662 985 
C 2662 527 2336 38 1779 38 
C 1094 38 454 419 410 1311 
C 403 1413 397 1419 352 1419 
C 301 1419 294 1413 294 1285 
L 294 -1 
C 294 -115 301 -122 339 -122 
C 384 -122 397 -90 486 108 
C 493 127 493 140 614 381 
C 934 -39 1472 -128 1779 -128 
C 2477 -128 2970 451 2970 1124 
C 2970 1454 2848 1708 2778 1823 
C 2509 2230 2221 2306 1914 2382 
C 1869 2402 1856 2402 1498 2490 
C 1152 2579 1005 2624 845 2796 
C 666 2992 602 3196 602 3399 
C 602 3812 934 4263 1478 4263 
C 2157 4263 2579 3786 2675 2993 
C 2694 2878 2701 2872 2746 2872 
C 2803 2872 2803 2891 2803 2999 
L 2803 4290 
z
" transform="scale(0.015625)"/>
       <path id="CMR17-6f" d="M 2758 1356 
C 2758 2176 2163 2816 1466 2816 
C 768 2816 173 2176 173 1356 
C 173 551 768 -64 1466 -64 
C 2163 -64 2758 551 2758 1356 
z
M 1466 51 
C 1165 51 909 230 762 480 
C 602 767 582 1126 582 1408 
C 582 1677 595 2010 762 2298 
C 890 2509 1139 2714 1466 2714 
C 1754 2714 1997 2554 2150 2330 
C 2349 2029 2349 1607 2349 1408 
C 2349 1158 2336 775 2163 467 
C 1984 173 1709 51 1466 51 
z
" transform="scale(0.015625)"/>
       <path id="CMR17-79" d="M 2496 2197 
C 2656 2586 2944 2586 3034 2586 
L 3034 2752 
C 2912 2752 2752 2752 2630 2752 
C 2496 2752 2285 2752 2157 2758 
L 2157 2592 
C 2400 2573 2406 2394 2406 2343 
C 2406 2280 2394 2248 2362 2171 
L 1664 449 
L 902 2306 
C 870 2382 870 2426 870 2433 
C 870 2573 1018 2586 1171 2586 
L 1171 2758 
C 1018 2752 742 2752 582 2752 
C 410 2752 205 2752 64 2758 
L 64 2586 
C 410 2586 448 2554 531 2350 
L 1485 15 
C 1197 -738 1030 -1178 627 -1178 
C 557 -1178 397 -1159 282 -1044 
C 429 -1031 493 -942 493 -833 
C 493 -725 416 -629 288 -629 
C 147 -629 77 -725 77 -840 
C 77 -1095 339 -1280 627 -1280 
C 998 -1280 1229 -922 1357 -604 
L 2496 2197 
z
" transform="scale(0.015625)"/>
       <path id="CMR17-62" d="M 960 4396 
L 198 4326 
L 198 4160 
C 576 4160 634 4122 634 3817 
L 634 -13 
L 749 -13 
L 934 441 
C 1120 141 1395 -64 1766 -64 
C 2406 -64 3053 500 3053 1370 
C 3053 2188 2477 2790 1830 2790 
C 1434 2790 1152 2579 960 2330 
L 960 4396 
z
M 973 2004 
C 973 2118 973 2138 1062 2272 
C 1312 2657 1670 2688 1792 2688 
C 1984 2688 2643 2585 2643 1376 
C 2643 108 1888 38 1734 38 
C 1536 38 1248 114 1043 486 
C 973 608 973 621 973 735 
L 973 2004 
z
" transform="scale(0.015625)"/>
      </defs>
      <use xlink:href="#CMR17-53" transform="scale(0.996264)"/>
      <use xlink:href="#CMR17-6f" transform="translate(50.89537 0)scale(0.996264)"/>
      <use xlink:href="#CMR17-79" transform="translate(93.983393 0)scale(0.996264)"/>
      <use xlink:href="#CMR17-62" transform="translate(142.276309 0)scale(0.996264)"/>
      <use xlink:href="#CMR17-65" transform="translate(195.774117 0)scale(0.996264)"/>
      <use xlink:href="#CMR17-61" transform="translate(236.259778 0)scale(0.996264)"/>
      <use xlink:href="#CMR17-6e" transform="translate(281.950255 0)scale(0.996264)"/>
     </g>
    </g>
    <g id="line2d_72">
     <path d="M 59.564589 47.221327 
L 76.064589 47.221327 
L 92.564589 47.221327 
" style="fill: none; stroke: #c07156; stroke-width: 2.25; stroke-linecap: square"/>
    </g>
    <g id="text_13">
     <!-- Soybean Oil -->
     <g transform="translate(105.764589 52.996327)scale(0.165 -0.165)">
      <defs>
       <path id="CMR17-4f" d="M 4307 2135 
C 4307 3437 3366 4416 2304 4416 
C 1216 4416 294 3424 294 2135 
C 294 845 1229 -128 2298 -128 
C 3392 -128 4307 864 4307 2135 
z
M 2304 -13 
C 1574 -13 781 711 781 2217 
C 781 3716 1651 4301 2298 4301 
C 2976 4301 3821 3698 3821 2217 
C 3821 686 3008 -13 2304 -13 
z
" transform="scale(0.015625)"/>
       <path id="CMR17-69" d="M 992 3909 
C 992 4049 877 4170 730 4170 
C 589 4170 467 4056 467 3909 
C 467 3769 582 3648 730 3648 
C 870 3648 992 3763 992 3909 
z
M 243 2706 
L 243 2541 
C 602 2541 653 2502 653 2197 
L 653 427 
C 653 184 627 153 218 153 
L 218 -13 
C 371 0 646 0 806 0 
C 960 0 1222 0 1370 -13 
L 1370 153 
C 992 153 979 191 979 420 
L 979 2776 
L 243 2706 
z
" transform="scale(0.015625)"/>
      </defs>
      <use xlink:href="#CMR17-53" transform="scale(0.996264)"/>
      <use xlink:href="#CMR17-6f" transform="translate(50.89537 0)scale(0.996264)"/>
      <use xlink:href="#CMR17-79" transform="translate(93.983393 0)scale(0.996264)"/>
      <use xlink:href="#CMR17-62" transform="translate(142.276309 0)scale(0.996264)"/>
      <use xlink:href="#CMR17-65" transform="translate(195.774117 0)scale(0.996264)"/>
      <use xlink:href="#CMR17-61" transform="translate(236.259778 0)scale(0.996264)"/>
      <use xlink:href="#CMR17-6e" transform="translate(281.950255 0)scale(0.996264)"/>
      <use xlink:href="#CMR17-4f" transform="translate(362.921591 0)scale(0.996264)"/>
      <use xlink:href="#CMR17-69" transform="translate(434.636379 0)scale(0.996264)"/>
      <use xlink:href="#CMR17-6c" transform="translate(459.507438 0)scale(0.996264)"/>
     </g>
    </g>
    <g id="line2d_73">
     <path d="M 59.564589 70.217654 
L 76.064589 70.217654 
L 92.564589 70.217654 
" style="fill: none; stroke: #e8c767; stroke-width: 2.25; stroke-linecap: square"/>
    </g>
    <g id="text_14">
     <!-- Soybean Meal -->
     <g transform="translate(105.764589 75.992654)scale(0.165 -0.165)">
      <defs>
       <path id="CMR17-4d" d="M 1338 4224 
C 1299 4320 1293 4320 1158 4320 
L 339 4320 
L 339 4160 
C 781 4160 851 4160 851 3875 
L 851 610 
C 851 451 851 153 339 153 
L 339 -13 
C 486 0 755 0 915 0 
C 1075 0 1344 0 1491 -13 
L 1491 153 
C 979 153 979 451 979 610 
L 979 4135 
L 986 4135 
L 2490 89 
C 2515 25 2528 -13 2579 -13 
C 2630 -13 2643 25 2669 89 
L 4186 4166 
L 4192 4166 
L 4192 438 
C 4192 153 4122 153 3680 153 
L 3680 -13 
C 3853 0 4198 0 4384 0 
C 4570 0 4922 0 5094 -13 
L 5094 153 
C 4653 153 4582 153 4582 438 
L 4582 3875 
C 4582 4160 4653 4160 5094 4160 
L 5094 4320 
L 4282 4320 
C 4147 4320 4141 4314 4102 4218 
L 2720 502 
L 1338 4224 
z
" transform="scale(0.015625)"/>
      </defs>
      <use xlink:href="#CMR17-53" transform="scale(0.996264)"/>
      <use xlink:href="#CMR17-6f" transform="translate(50.89537 0)scale(0.996264)"/>
      <use xlink:href="#CMR17-79" transform="translate(93.983393 0)scale(0.996264)"/>
      <use xlink:href="#CMR17-62" transform="translate(142.276309 0)scale(0.996264)"/>
      <use xlink:href="#CMR17-65" transform="translate(195.774117 0)scale(0.996264)"/>
      <use xlink:href="#CMR17-61" transform="translate(236.259778 0)scale(0.996264)"/>
      <use xlink:href="#CMR17-6e" transform="translate(281.950255 0)scale(0.996264)"/>
      <use xlink:href="#CMR17-4d" transform="translate(362.921591 0)scale(0.996264)"/>
      <use xlink:href="#CMR17-65" transform="translate(447.608532 0)scale(0.996264)"/>
      <use xlink:href="#CMR17-61" transform="translate(488.094192 0)scale(0.996264)"/>
      <use xlink:href="#CMR17-6c" transform="translate(533.784669 0)scale(0.996264)"/>
     </g>
    </g>
   </g>
  </g>
  <g id="axes_2">
   <g id="patch_5">
    <path d="M 44.714589 476.771872 
L 540.72 476.771872 
L 540.72 281.88 
L 44.714589 281.88 
z
" style="fill: #e5e5e5"/>
   </g>
   <g id="matplotlib.axis_3">
    <g id="xtick_37">
     <g id="line2d_74">
      <path d="M 158.087254 476.771872 
L 158.087254 281.88 
" clip-path="url(#pd5c436b955)" style="fill: none; stroke: #ffffff; stroke-width: 1.5; stroke-linecap: square"/>
     </g>
     <g id="line2d_75">
      <g>
       <use xlink:href="#m14f8f6d42c" x="158.087254" y="476.771872" style="fill: #555555; stroke: #555555; stroke-width: 1.875"/>
      </g>
     </g>
     <g id="text_15">
      <!-- Jan -->
      <g style="fill: #555555" transform="translate(145.458009 500.687376)scale(0.165 -0.165)">
       <use xlink:href="#CMR17-4a" transform="scale(0.996264)"/>
       <use xlink:href="#CMR17-61" transform="translate(46.97179 0)scale(0.996264)"/>
       <use xlink:href="#CMR17-6e" transform="translate(92.662267 0)scale(0.996264)"/>
      </g>
      <!-- 2020 -->
      <g style="fill: #555555" transform="translate(141.991546 517.582309)scale(0.165 -0.165)">
       <use xlink:href="#CMR17-32" transform="scale(0.996264)"/>
       <use xlink:href="#CMR17-30" transform="translate(45.690477 0)scale(0.996264)"/>
       <use xlink:href="#CMR17-32" transform="translate(91.380954 0)scale(0.996264)"/>
       <use xlink:href="#CMR17-30" transform="translate(137.071431 0)scale(0.996264)"/>
      </g>
     </g>
    </g>
    <g id="xtick_38">
     <g id="line2d_76">
      <path d="M 328.146252 476.771872 
L 328.146252 281.88 
" clip-path="url(#pd5c436b955)" style="fill: none; stroke: #ffffff; stroke-width: 1.5; stroke-linecap: square"/>
     </g>
     <g id="line2d_77">
      <g>
       <use xlink:href="#m14f8f6d42c" x="328.146252" y="476.771872" style="fill: #555555; stroke: #555555; stroke-width: 1.875"/>
      </g>
     </g>
     <g id="text_16">
      <!-- Jan -->
      <g style="fill: #555555" transform="translate(315.517007 500.687376)scale(0.165 -0.165)">
       <use xlink:href="#CMR17-4a" transform="scale(0.996264)"/>
       <use xlink:href="#CMR17-61" transform="translate(46.97179 0)scale(0.996264)"/>
       <use xlink:href="#CMR17-6e" transform="translate(92.662267 0)scale(0.996264)"/>
      </g>
      <!-- 2021 -->
      <g style="fill: #555555" transform="translate(312.050544 517.582309)scale(0.165 -0.165)">
       <use xlink:href="#CMR17-32" transform="scale(0.996264)"/>
       <use xlink:href="#CMR17-30" transform="translate(45.690477 0)scale(0.996264)"/>
       <use xlink:href="#CMR17-32" transform="translate(91.380954 0)scale(0.996264)"/>
       <use xlink:href="#CMR17-31" transform="translate(137.071431 0)scale(0.996264)"/>
      </g>
     </g>
    </g>
    <g id="xtick_39">
     <g id="line2d_78">
      <path d="M 498.20525 476.771872 
L 498.20525 281.88 
" clip-path="url(#pd5c436b955)" style="fill: none; stroke: #ffffff; stroke-width: 1.5; stroke-linecap: square"/>
     </g>
     <g id="line2d_79">
      <g>
       <use xlink:href="#m14f8f6d42c" x="498.20525" y="476.771872" style="fill: #555555; stroke: #555555; stroke-width: 1.875"/>
      </g>
     </g>
     <g id="text_17">
      <!-- Jan -->
      <g style="fill: #555555" transform="translate(485.576005 500.687376)scale(0.165 -0.165)">
       <use xlink:href="#CMR17-4a" transform="scale(0.996264)"/>
       <use xlink:href="#CMR17-61" transform="translate(46.97179 0)scale(0.996264)"/>
       <use xlink:href="#CMR17-6e" transform="translate(92.662267 0)scale(0.996264)"/>
      </g>
      <!-- 2022 -->
      <g style="fill: #555555" transform="translate(482.109542 517.582309)scale(0.165 -0.165)">
       <use xlink:href="#CMR17-32" transform="scale(0.996264)"/>
       <use xlink:href="#CMR17-30" transform="translate(45.690477 0)scale(0.996264)"/>
       <use xlink:href="#CMR17-32" transform="translate(91.380954 0)scale(0.996264)"/>
       <use xlink:href="#CMR17-32" transform="translate(137.071431 0)scale(0.996264)"/>
      </g>
     </g>
    </g>
    <g id="xtick_40">
     <g id="line2d_80">
      <g>
       <use xlink:href="#m188401abb4" x="44.714589" y="476.771872" style="fill: #555555; stroke: #555555; stroke-width: 1.5"/>
      </g>
     </g>
    </g>
    <g id="xtick_41">
     <g id="line2d_81">
      <g>
       <use xlink:href="#m188401abb4" x="58.886172" y="476.771872" style="fill: #555555; stroke: #555555; stroke-width: 1.5"/>
      </g>
     </g>
    </g>
    <g id="xtick_42">
     <g id="line2d_82">
      <g>
       <use xlink:href="#m188401abb4" x="73.057755" y="476.771872" style="fill: #555555; stroke: #555555; stroke-width: 1.5"/>
      </g>
     </g>
     <g id="text_18">
      <!-- Jul -->
      <g style="fill: #555555" transform="translate(62.216923 497.587376)scale(0.165 -0.165)">
       <use xlink:href="#CMR17-4a" transform="scale(0.996264)"/>
       <use xlink:href="#CMR17-75" transform="translate(46.97179 0)scale(0.996264)"/>
       <use xlink:href="#CMR17-6c" transform="translate(97.86716 0)scale(0.996264)"/>
      </g>
     </g>
    </g>
    <g id="xtick_43">
     <g id="line2d_83">
      <g>
       <use xlink:href="#m188401abb4" x="87.229338" y="476.771872" style="fill: #555555; stroke: #555555; stroke-width: 1.5"/>
      </g>
     </g>
    </g>
    <g id="xtick_44">
     <g id="line2d_84">
      <g>
       <use xlink:href="#m188401abb4" x="101.400921" y="476.771872" style="fill: #555555; stroke: #555555; stroke-width: 1.5"/>
      </g>
     </g>
    </g>
    <g id="xtick_45">
     <g id="line2d_85">
      <g>
       <use xlink:href="#m188401abb4" x="115.572505" y="476.771872" style="fill: #555555; stroke: #555555; stroke-width: 1.5"/>
      </g>
     </g>
    </g>
    <g id="xtick_46">
     <g id="line2d_86">
      <g>
       <use xlink:href="#m188401abb4" x="129.744088" y="476.771872" style="fill: #555555; stroke: #555555; stroke-width: 1.5"/>
      </g>
     </g>
    </g>
    <g id="xtick_47">
     <g id="line2d_87">
      <g>
       <use xlink:href="#m188401abb4" x="143.915671" y="476.771872" style="fill: #555555; stroke: #555555; stroke-width: 1.5"/>
      </g>
     </g>
    </g>
    <g id="xtick_48">
     <g id="line2d_88">
      <g>
       <use xlink:href="#m188401abb4" x="172.258837" y="476.771872" style="fill: #555555; stroke: #555555; stroke-width: 1.5"/>
      </g>
     </g>
    </g>
    <g id="xtick_49">
     <g id="line2d_89">
      <g>
       <use xlink:href="#m188401abb4" x="186.43042" y="476.771872" style="fill: #555555; stroke: #555555; stroke-width: 1.5"/>
      </g>
     </g>
    </g>
    <g id="xtick_50">
     <g id="line2d_90">
      <g>
       <use xlink:href="#m188401abb4" x="200.602004" y="476.771872" style="fill: #555555; stroke: #555555; stroke-width: 1.5"/>
      </g>
     </g>
    </g>
    <g id="xtick_51">
     <g id="line2d_91">
      <g>
       <use xlink:href="#m188401abb4" x="214.773587" y="476.771872" style="fill: #555555; stroke: #555555; stroke-width: 1.5"/>
      </g>
     </g>
    </g>
    <g id="xtick_52">
     <g id="line2d_92">
      <g>
       <use xlink:href="#m188401abb4" x="228.94517" y="476.771872" style="fill: #555555; stroke: #555555; stroke-width: 1.5"/>
      </g>
     </g>
    </g>
    <g id="xtick_53">
     <g id="line2d_93">
      <g>
       <use xlink:href="#m188401abb4" x="243.116753" y="476.771872" style="fill: #555555; stroke: #555555; stroke-width: 1.5"/>
      </g>
     </g>
     <g id="text_19">
      <!-- Jul -->
      <g style="fill: #555555" transform="translate(232.275921 497.587376)scale(0.165 -0.165)">
       <use xlink:href="#CMR17-4a" transform="scale(0.996264)"/>
       <use xlink:href="#CMR17-75" transform="translate(46.97179 0)scale(0.996264)"/>
       <use xlink:href="#CMR17-6c" transform="translate(97.86716 0)scale(0.996264)"/>
      </g>
     </g>
    </g>
    <g id="xtick_54">
     <g id="line2d_94">
      <g>
       <use xlink:href="#m188401abb4" x="257.288336" y="476.771872" style="fill: #555555; stroke: #555555; stroke-width: 1.5"/>
      </g>
     </g>
    </g>
    <g id="xtick_55">
     <g id="line2d_95">
      <g>
       <use xlink:href="#m188401abb4" x="271.45992" y="476.771872" style="fill: #555555; stroke: #555555; stroke-width: 1.5"/>
      </g>
     </g>
    </g>
    <g id="xtick_56">
     <g id="line2d_96">
      <g>
       <use xlink:href="#m188401abb4" x="285.631503" y="476.771872" style="fill: #555555; stroke: #555555; stroke-width: 1.5"/>
      </g>
     </g>
    </g>
    <g id="xtick_57">
     <g id="line2d_97">
      <g>
       <use xlink:href="#m188401abb4" x="299.803086" y="476.771872" style="fill: #555555; stroke: #555555; stroke-width: 1.5"/>
      </g>
     </g>
    </g>
    <g id="xtick_58">
     <g id="line2d_98">
      <g>
       <use xlink:href="#m188401abb4" x="313.974669" y="476.771872" style="fill: #555555; stroke: #555555; stroke-width: 1.5"/>
      </g>
     </g>
    </g>
    <g id="xtick_59">
     <g id="line2d_99">
      <g>
       <use xlink:href="#m188401abb4" x="342.317835" y="476.771872" style="fill: #555555; stroke: #555555; stroke-width: 1.5"/>
      </g>
     </g>
    </g>
    <g id="xtick_60">
     <g id="line2d_100">
      <g>
       <use xlink:href="#m188401abb4" x="356.489419" y="476.771872" style="fill: #555555; stroke: #555555; stroke-width: 1.5"/>
      </g>
     </g>
    </g>
    <g id="xtick_61">
     <g id="line2d_101">
      <g>
       <use xlink:href="#m188401abb4" x="370.661002" y="476.771872" style="fill: #555555; stroke: #555555; stroke-width: 1.5"/>
      </g>
     </g>
    </g>
    <g id="xtick_62">
     <g id="line2d_102">
      <g>
       <use xlink:href="#m188401abb4" x="384.832585" y="476.771872" style="fill: #555555; stroke: #555555; stroke-width: 1.5"/>
      </g>
     </g>
    </g>
    <g id="xtick_63">
     <g id="line2d_103">
      <g>
       <use xlink:href="#m188401abb4" x="399.004168" y="476.771872" style="fill: #555555; stroke: #555555; stroke-width: 1.5"/>
      </g>
     </g>
    </g>
    <g id="xtick_64">
     <g id="line2d_104">
      <g>
       <use xlink:href="#m188401abb4" x="413.175751" y="476.771872" style="fill: #555555; stroke: #555555; stroke-width: 1.5"/>
      </g>
     </g>
     <g id="text_20">
      <!-- Jul -->
      <g style="fill: #555555" transform="translate(402.334919 497.587376)scale(0.165 -0.165)">
       <use xlink:href="#CMR17-4a" transform="scale(0.996264)"/>
       <use xlink:href="#CMR17-75" transform="translate(46.97179 0)scale(0.996264)"/>
       <use xlink:href="#CMR17-6c" transform="translate(97.86716 0)scale(0.996264)"/>
      </g>
     </g>
    </g>
    <g id="xtick_65">
     <g id="line2d_105">
      <g>
       <use xlink:href="#m188401abb4" x="427.347335" y="476.771872" style="fill: #555555; stroke: #555555; stroke-width: 1.5"/>
      </g>
     </g>
    </g>
    <g id="xtick_66">
     <g id="line2d_106">
      <g>
       <use xlink:href="#m188401abb4" x="441.518918" y="476.771872" style="fill: #555555; stroke: #555555; stroke-width: 1.5"/>
      </g>
     </g>
    </g>
    <g id="xtick_67">
     <g id="line2d_107">
      <g>
       <use xlink:href="#m188401abb4" x="455.690501" y="476.771872" style="fill: #555555; stroke: #555555; stroke-width: 1.5"/>
      </g>
     </g>
    </g>
    <g id="xtick_68">
     <g id="line2d_108">
      <g>
       <use xlink:href="#m188401abb4" x="469.862084" y="476.771872" style="fill: #555555; stroke: #555555; stroke-width: 1.5"/>
      </g>
     </g>
    </g>
    <g id="xtick_69">
     <g id="line2d_109">
      <g>
       <use xlink:href="#m188401abb4" x="484.033667" y="476.771872" style="fill: #555555; stroke: #555555; stroke-width: 1.5"/>
      </g>
     </g>
    </g>
    <g id="xtick_70">
     <g id="line2d_110">
      <g>
       <use xlink:href="#m188401abb4" x="512.376834" y="476.771872" style="fill: #555555; stroke: #555555; stroke-width: 1.5"/>
      </g>
     </g>
    </g>
    <g id="xtick_71">
     <g id="line2d_111">
      <g>
       <use xlink:href="#m188401abb4" x="526.548417" y="476.771872" style="fill: #555555; stroke: #555555; stroke-width: 1.5"/>
      </g>
     </g>
    </g>
    <g id="xtick_72">
     <g id="line2d_112">
      <g>
       <use xlink:href="#m188401abb4" x="540.72" y="476.771872" style="fill: #555555; stroke: #555555; stroke-width: 1.5"/>
      </g>
     </g>
    </g>
    <g id="text_21">
     <!-- Date -->
     <g style="fill: #555555" transform="translate(275.45076 537.231936)scale(0.18 -0.18)">
      <use xlink:href="#CMR17-44" transform="scale(0.996264)"/>
      <use xlink:href="#CMR17-61" transform="translate(70.393556 0)scale(0.996264)"/>
      <use xlink:href="#CMR17-74" transform="translate(116.084033 0)scale(0.996264)"/>
      <use xlink:href="#CMR17-65" transform="translate(151.364801 0)scale(0.996264)"/>
     </g>
    </g>
   </g>
   <g id="matplotlib.axis_4">
    <g id="ytick_25">
     <g id="line2d_113">
      <path d="M 44.714589 426.664142 
L 540.72 426.664142 
" clip-path="url(#pd5c436b955)" style="fill: none; stroke: #ffffff; stroke-width: 1.5; stroke-linecap: square"/>
     </g>
     <g id="line2d_114">
      <g>
       <use xlink:href="#mb2752685fd" x="44.714589" y="426.664142" style="fill: #555555; stroke: #555555; stroke-width: 1.875"/>
      </g>
     </g>
     <g id="text_22">
      <!-- $\mathdefault{2}$ -->
      <g style="fill: #555555" transform="translate(24.166735 432.371895)scale(0.165 -0.165)">
       <use xlink:href="#CMR17-32" transform="scale(0.996264)"/>
      </g>
     </g>
    </g>
    <g id="ytick_26">
     <g id="line2d_115">
      <path d="M 44.714589 357.826292 
L 540.72 357.826292 
" clip-path="url(#pd5c436b955)" style="fill: none; stroke: #ffffff; stroke-width: 1.5; stroke-linecap: square"/>
     </g>
     <g id="line2d_116">
      <g>
       <use xlink:href="#mb2752685fd" x="44.714589" y="357.826292" style="fill: #555555; stroke: #555555; stroke-width: 1.875"/>
      </g>
     </g>
     <g id="text_23">
      <!-- $\mathdefault{3}$ -->
      <g style="fill: #555555" transform="translate(24.166735 363.534045)scale(0.165 -0.165)">
       <defs>
        <path id="CMR17-33" d="M 1414 2157 
C 1984 2157 2234 1662 2234 1090 
C 2234 320 1824 25 1453 25 
C 1114 25 563 194 390 693 
C 422 680 454 680 486 680 
C 640 680 755 782 755 948 
C 755 1133 614 1216 486 1216 
C 378 1216 211 1165 211 926 
C 211 335 787 -128 1466 -128 
C 2176 -128 2720 430 2720 1085 
C 2720 1707 2208 2157 1600 2227 
C 2086 2328 2554 2756 2554 3329 
C 2554 3820 2048 4179 1472 4179 
C 890 4179 378 3829 378 3329 
C 378 3110 544 3072 627 3072 
C 762 3072 877 3155 877 3321 
C 877 3486 762 3569 627 3569 
C 602 3569 570 3569 544 3557 
C 730 3959 1235 4032 1459 4032 
C 1683 4032 2106 3925 2106 3320 
C 2106 3143 2080 2828 1862 2550 
C 1670 2304 1453 2304 1242 2284 
C 1210 2284 1062 2269 1037 2269 
C 992 2263 966 2257 966 2208 
C 966 2163 973 2157 1101 2157 
L 1414 2157 
z
" transform="scale(0.015625)"/>
       </defs>
       <use xlink:href="#CMR17-33" transform="scale(0.996264)"/>
      </g>
     </g>
    </g>
    <g id="ytick_27">
     <g id="line2d_117">
      <path d="M 44.714589 288.988442 
L 540.72 288.988442 
" clip-path="url(#pd5c436b955)" style="fill: none; stroke: #ffffff; stroke-width: 1.5; stroke-linecap: square"/>
     </g>
     <g id="line2d_118">
      <g>
       <use xlink:href="#mb2752685fd" x="44.714589" y="288.988442" style="fill: #555555; stroke: #555555; stroke-width: 1.875"/>
      </g>
     </g>
     <g id="text_24">
      <!-- $\mathdefault{4}$ -->
      <g style="fill: #555555" transform="translate(24.166735 294.696194)scale(0.165 -0.165)">
       <defs>
        <path id="CMR17-34" d="M 2150 4122 
C 2150 4256 2144 4256 2029 4256 
L 128 1254 
L 128 1088 
L 1779 1088 
L 1779 457 
C 1779 224 1766 160 1318 160 
L 1197 160 
L 1197 0 
C 1402 0 1747 0 1965 0 
C 2182 0 2528 0 2733 0 
L 2733 160 
L 2611 160 
C 2163 160 2150 224 2150 457 
L 2150 1088 
L 2803 1088 
L 2803 1254 
L 2150 1254 
L 2150 4122 
z
M 1798 3703 
L 1798 1254 
L 256 1254 
L 1798 3703 
z
" transform="scale(0.015625)"/>
       </defs>
       <use xlink:href="#CMR17-34" transform="scale(0.996264)"/>
      </g>
     </g>
    </g>
    <g id="ytick_28">
     <g id="line2d_119">
      <g>
       <use xlink:href="#mb6c8c448eb" x="44.714589" y="467.966852" style="fill: #555555; stroke: #555555; stroke-width: 1.5"/>
      </g>
     </g>
    </g>
    <g id="ytick_29">
     <g id="line2d_120">
      <g>
       <use xlink:href="#mb6c8c448eb" x="44.714589" y="454.199282" style="fill: #555555; stroke: #555555; stroke-width: 1.5"/>
      </g>
     </g>
    </g>
    <g id="ytick_30">
     <g id="line2d_121">
      <g>
       <use xlink:href="#mb6c8c448eb" x="44.714589" y="440.431712" style="fill: #555555; stroke: #555555; stroke-width: 1.5"/>
      </g>
     </g>
    </g>
    <g id="ytick_31">
     <g id="line2d_122">
      <g>
       <use xlink:href="#mb6c8c448eb" x="44.714589" y="412.896572" style="fill: #555555; stroke: #555555; stroke-width: 1.5"/>
      </g>
     </g>
    </g>
    <g id="ytick_32">
     <g id="line2d_123">
      <g>
       <use xlink:href="#mb6c8c448eb" x="44.714589" y="399.129002" style="fill: #555555; stroke: #555555; stroke-width: 1.5"/>
      </g>
     </g>
    </g>
    <g id="ytick_33">
     <g id="line2d_124">
      <g>
       <use xlink:href="#mb6c8c448eb" x="44.714589" y="385.361432" style="fill: #555555; stroke: #555555; stroke-width: 1.5"/>
      </g>
     </g>
    </g>
    <g id="ytick_34">
     <g id="line2d_125">
      <g>
       <use xlink:href="#mb6c8c448eb" x="44.714589" y="371.593862" style="fill: #555555; stroke: #555555; stroke-width: 1.5"/>
      </g>
     </g>
    </g>
    <g id="ytick_35">
     <g id="line2d_126">
      <g>
       <use xlink:href="#mb6c8c448eb" x="44.714589" y="344.058722" style="fill: #555555; stroke: #555555; stroke-width: 1.5"/>
      </g>
     </g>
    </g>
    <g id="ytick_36">
     <g id="line2d_127">
      <g>
       <use xlink:href="#mb6c8c448eb" x="44.714589" y="330.291152" style="fill: #555555; stroke: #555555; stroke-width: 1.5"/>
      </g>
     </g>
    </g>
    <g id="ytick_37">
     <g id="line2d_128">
      <g>
       <use xlink:href="#mb6c8c448eb" x="44.714589" y="316.523582" style="fill: #555555; stroke: #555555; stroke-width: 1.5"/>
      </g>
     </g>
    </g>
    <g id="ytick_38">
     <g id="line2d_129">
      <g>
       <use xlink:href="#mb6c8c448eb" x="44.714589" y="302.756012" style="fill: #555555; stroke: #555555; stroke-width: 1.5"/>
      </g>
     </g>
    </g>
   </g>
   <g id="line2d_130">
    <path d="M 44.714589 467.91315 
L 58.886172 460.51217 
L 73.057755 460.721475 
L 87.229338 453.736837 
L 101.400921 404.193926 
L 115.572505 438.8991 
L 129.744088 423.708228 
L 143.915671 423.422709 
L 158.087254 426.87496 
L 172.258837 425.289796 
L 186.43042 427.879207 
L 200.602004 425.450775 
L 214.773587 425.966719 
L 228.94517 438.578101 
L 243.116753 434.606764 
L 257.288336 411.998 
L 271.45992 424.958429 
L 285.631503 397.860424 
L 299.803086 395.971108 
L 313.974669 362.65101 
L 328.146252 367.132708 
L 342.317835 355.403713 
L 356.489419 353.443452 
L 370.661002 337.079394 
L 384.832585 374.218218 
L 399.004168 368.840033 
L 413.175751 367.285444 
L 427.347335 368.191004 
L 441.518918 362.461927 
L 455.690501 371.828742 
L 469.862084 396.27001 
L 484.033667 314.352031 
L 498.20525 312.651459 
L 512.376834 290.738721 
L 526.548417 311.860262 
L 540.72 323.78114 
" clip-path="url(#pd5c436b955)" style="fill: none; stroke: #4d3c2f; stroke-width: 2.25; stroke-linecap: square"/>
   </g>
   <g id="patch_6">
    <path d="M 44.714589 476.771872 
L 44.714589 281.88 
" style="fill: none; stroke: #ffffff; stroke-width: 1.875; stroke-linejoin: miter; stroke-linecap: square"/>
   </g>
   <g id="patch_7">
    <path d="M 44.714589 476.771872 
L 540.72 476.771872 
" style="fill: none; stroke: #ffffff; stroke-width: 1.875; stroke-linejoin: miter; stroke-linecap: square"/>
   </g>
   <g id="legend_2">
    <g id="line2d_131">
     <path d="M 59.564589 302.505 
L 76.064589 302.505 
L 92.564589 302.505 
" style="fill: none; stroke: #4d3c2f; stroke-width: 2.25; stroke-linecap: square"/>
    </g>
    <g id="text_25">
     <!-- Crush Spread -->
     <g transform="translate(105.764589 308.28)scale(0.165 -0.165)">
      <defs>
       <path id="CMR17-43" d="M 3974 4289 
C 3974 4403 3968 4410 3930 4410 
C 3904 4410 3898 4403 3853 4327 
L 3571 3792 
C 3258 4187 2874 4416 2381 4416 
C 1286 4416 294 3456 294 2148 
C 294 826 1286 -128 2387 -128 
C 3366 -128 3974 730 3974 1461 
C 3974 1524 3974 1550 3917 1550 
C 3866 1550 3866 1531 3859 1474 
C 3808 585 3168 38 2477 38 
C 1824 38 781 495 781 2147 
C 781 3805 1843 4250 2464 4250 
C 3187 4250 3712 3628 3834 2745 
C 3846 2668 3846 2655 3904 2655 
C 3974 2655 3974 2668 3974 2783 
L 3974 4289 
z
" transform="scale(0.015625)"/>
       <path id="CMR17-72" d="M 960 1497 
C 960 2112 1222 2688 1702 2688 
C 1747 2688 1792 2682 1837 2662 
C 1837 2662 1696 2617 1696 2452 
C 1696 2298 1818 2234 1914 2234 
C 1990 2234 2131 2279 2131 2458 
C 2131 2663 1926 2790 1709 2790 
C 1222 2790 1011 2317 947 2093 
L 941 2093 
L 941 2790 
L 198 2720 
L 198 2554 
C 576 2554 634 2515 634 2208 
L 634 428 
C 634 184 608 153 198 153 
L 198 -13 
C 352 0 646 0 813 0 
C 998 0 1325 0 1498 -13 
L 1498 153 
C 1037 153 960 153 960 440 
L 960 1497 
z
" transform="scale(0.015625)"/>
       <path id="CMR17-73" d="M 1978 2697 
C 1978 2813 1971 2819 1933 2819 
C 1907 2819 1901 2813 1824 2717 
C 1805 2691 1747 2626 1728 2601 
C 1523 2819 1235 2819 1126 2819 
C 416 2819 160 2447 160 2076 
C 160 1498 813 1365 998 1325 
C 1402 1243 1542 1217 1677 1101 
C 1760 1025 1901 884 1901 654 
C 1901 384 1747 38 1158 38 
C 602 38 403 460 288 1021 
C 269 1110 269 1117 218 1117 
C 166 1117 160 1110 160 983 
L 160 63 
C 160 -51 166 -58 205 -58 
C 237 -58 243 -51 275 0 
C 314 57 410 211 448 276 
C 576 103 800 -64 1158 -64 
C 1792 -64 2131 283 2131 784 
C 2131 1112 1958 1285 1875 1362 
C 1683 1561 1459 1606 1190 1657 
C 838 1735 390 1825 390 2217 
C 390 2383 480 2737 1126 2737 
C 1811 2737 1850 2094 1862 1888 
C 1869 1856 1901 1849 1920 1849 
C 1978 1849 1978 1869 1978 1978 
L 1978 2697 
z
" transform="scale(0.015625)"/>
       <path id="CMR17-68" d="M 2656 1933 
C 2656 2259 2592 2790 1837 2790 
C 1312 2790 1056 2368 979 2157 
L 973 2157 
L 973 4396 
L 211 4326 
L 211 4160 
C 589 4160 646 4122 646 3817 
L 646 426 
C 646 184 621 153 211 153 
L 211 -13 
C 365 0 646 0 813 0 
C 979 0 1267 0 1421 -13 
L 1421 153 
C 1011 153 986 178 986 428 
L 986 1658 
C 986 2247 1344 2688 1792 2688 
C 2266 2688 2317 2266 2317 1958 
L 2317 428 
C 2317 184 2291 153 1882 153 
L 1882 -13 
C 2035 0 2317 0 2483 0 
C 2650 0 2938 0 3091 -13 
L 3091 153 
C 2682 153 2656 178 2656 428 
L 2656 1933 
z
" transform="scale(0.015625)"/>
       <path id="CMR17-70" d="M 1408 -1063 
C 998 -1063 973 -1037 973 -789 
L 973 402 
C 1158 134 1427 -38 1766 -38 
C 2406 -38 3053 523 3053 1388 
C 3053 2191 2496 2802 1837 2802 
C 1453 2802 1139 2592 960 2338 
L 960 2802 
L 198 2732 
L 198 2567 
C 576 2567 634 2528 634 2223 
L 634 -789 
C 634 -1031 608 -1063 198 -1063 
L 198 -1228 
C 352 -1216 634 -1216 800 -1216 
C 966 -1216 1254 -1216 1408 -1228 
L 1408 -1063 
z
M 973 2012 
C 973 2102 973 2235 1222 2471 
C 1254 2497 1472 2688 1792 2688 
C 2259 2688 2643 2108 2643 1382 
C 2643 656 2234 64 1728 64 
C 1498 64 1248 172 1056 472 
C 973 612 973 650 973 752 
L 973 2012 
z
" transform="scale(0.015625)"/>
       <path id="CMR17-64" d="M 1869 4326 
L 1869 4160 
C 2246 4160 2304 4122 2304 3820 
L 2304 2345 
C 2278 2377 2016 2790 1498 2790 
C 845 2790 211 2208 211 1364 
C 211 525 806 -64 1434 -64 
C 1978 -64 2259 337 2291 380 
L 2291 -63 
L 3066 -63 
L 3066 128 
C 2688 128 2630 166 2630 473 
L 2630 4396 
L 1869 4326 
z
M 2291 755 
C 2291 563 2176 390 2029 262 
C 1811 70 1594 38 1472 38 
C 1286 38 621 134 621 1356 
C 621 2612 1363 2688 1530 2688 
C 1824 2688 2061 2522 2208 2291 
C 2291 2157 2291 2138 2291 2023 
L 2291 755 
z
" transform="scale(0.015625)"/>
      </defs>
      <use xlink:href="#CMR17-43" transform="scale(0.996264)"/>
      <use xlink:href="#CMR17-72" transform="translate(66.509881 0)scale(0.996264)"/>
      <use xlink:href="#CMR17-75" transform="translate(101.790648 0)scale(0.996264)"/>
      <use xlink:href="#CMR17-73" transform="translate(152.686018 0)scale(0.996264)"/>
      <use xlink:href="#CMR17-68" transform="translate(188.487356 0)scale(0.996264)"/>
      <use xlink:href="#CMR17-53" transform="translate(269.458692 0)scale(0.996264)"/>
      <use xlink:href="#CMR17-70" transform="translate(320.354062 0)scale(0.996264)"/>
      <use xlink:href="#CMR17-72" transform="translate(371.249431 0)scale(0.996264)"/>
      <use xlink:href="#CMR17-65" transform="translate(406.530199 0)scale(0.996264)"/>
      <use xlink:href="#CMR17-61" transform="translate(447.01586 0)scale(0.996264)"/>
      <use xlink:href="#CMR17-64" transform="translate(492.706337 0)scale(0.996264)"/>
     </g>
    </g>
   </g>
  </g>
 </g>
 <defs>
  <clipPath id="p458dcdc36a">
   <rect x="44.714589" y="3.6" width="496.005411" height="194.891872"/>
  </clipPath>
  <clipPath id="pd5c436b955">
   <rect x="44.714589" y="281.88" width="496.005411" height="194.891872"/>
  </clipPath>
 </defs>
</svg>
