<svg class="main-svg" xmlns="http://www.w3.org/2000/svg" xmlns:xlink="http://www.w3.org/1999/xlink" width="1500" height="1500" style="" viewBox="0 0 500 500"><rect x="0" y="0" width="500" height="500" style="fill: rgb(255, 255, 255); fill-opacity: 1;"/><defs id="defs-7a1604"><g class="clips"><clipPath id="clip7a1604xyplot" class="plotclip"><rect width="364" height="437"/></clipPath><clipPath class="axesclip" id="clip7a1604x"><rect x="26" y="0" width="364" height="500"/></clipPath><clipPath class="axesclip" id="clip7a1604y"><rect x="0" y="40" width="500" height="437"/></clipPath><clipPath class="axesclip" id="clip7a1604xy"><rect x="26" y="40" width="364" height="437"/></clipPath><clipPath class="contourclip" id="clipbc30e0"><path d="M0,0L364,0L364,437L0,437Z"/></clipPath></g><g class="gradients"/><g class="patterns"/></defs><g class="bglayer"><rect class="bg" x="26" y="40" width="364" height="437" style="fill: rgb(237, 237, 237); fill-opacity: 1; stroke-width: 0;"/></g><g class="layer-below"><g class="imagelayer"/><g class="shapelayer"/></g><g class="cartesianlayer"><g class="subplot xy"><g class="layer-subplot"><g class="shapelayer"/><g class="imagelayer"/></g><g class="gridlayer"><g class="x"><path class="xgrid crisp" transform="translate(84.61,0)" d="M0,40v437" style="stroke: rgb(255, 255, 255); stroke-opacity: 1; stroke-width: 1px;"/><path class="xgrid crisp" transform="translate(331.39,0)" d="M0,40v437" style="stroke: rgb(255, 255, 255); stroke-opacity: 1; stroke-width: 1px;"/></g><g class="y"><path class="ygrid crisp" transform="translate(0,406.64)" d="M26,0h364" style="stroke: rgb(255, 255, 255); stroke-opacity: 1; stroke-width: 1px;"/><path class="ygrid crisp" transform="translate(0,332.57)" d="M26,0h364" style="stroke: rgb(255, 255, 255); stroke-opacity: 1; stroke-width: 1px;"/><path class="ygrid crisp" transform="translate(0,184.43)" d="M26,0h364" style="stroke: rgb(255, 255, 255); stroke-opacity: 1; stroke-width: 1px;"/><path class="ygrid crisp" transform="translate(0,110.36)" d="M26,0h364" style="stroke: rgb(255, 255, 255); stroke-opacity: 1; stroke-width: 1px;"/></g></g><g class="zerolinelayer"><path class="xzl zl crisp" transform="translate(208,0)" d="M0,40v437" style="stroke: rgb(255, 255, 255); stroke-opacity: 1; stroke-width: 1px;"/><path class="yzl zl crisp" transform="translate(0,258.5)" d="M26,0h364" style="stroke: rgb(255, 255, 255); stroke-opacity: 1; stroke-width: 1px;"/></g><path class="xlines-below"/><path class="ylines-below"/><g class="overlines-below"/><g class="xaxislayer-below"/><g class="yaxislayer-below"/><g class="overaxes-below"/><g class="plot" transform="translate(26,40)" clip-path="url(#clip7a1604xyplot)"><g class="contourlayer mlayer"><g class="contour" clip-path="url(#clipbc30e0)" style="opacity: 1;"><g class="heatmapcoloring"/><g class="contourbg"/><g class="contourfill"/><g class="contourlines"><g class="contourlevel"><path class="openline" d="M269.57,437Q268.9,436.87 268.4,436.78C267.52,436.61 265.95,436.31 264.73,436.08C263.5,435.85 262.28,435.62 261.05,435.39C259.82,435.16 258.6,434.93 257.37,434.7C256.15,434.47 254.92,434.24 253.7,434.02C252.47,433.79 251.27,433.58 250.02,433.35C248.72,433.12 247.3,432.84 246.025,432.64C244.86,432.45 243.81,432.32 242.67,432.16C241.47,431.99 240.22,431.83 238.99,431.67C237.76,431.51 236.54,431.36 235.31,431.21C234.09,431.06 232.86,430.92 231.64,430.78C230.41,430.64 229.19,430.51 227.96,430.38C226.73,430.25 225.51,430.13 224.28,430.02C223.06,429.91 221.83,429.8 220.61,429.7C219.38,429.6 218.16,429.51 216.93,429.42C215.7,429.34 214.48,429.26 213.25,429.19C212.03,429.12 210.8,429.06 209.58,429.01C208.35,428.96 207.13,428.92 205.9,428.88C204.67,428.85 203.45,428.82 202.22,428.8C201,428.78 199.77,428.78 198.55,428.78C197.32,428.78 196.1,428.8 194.87,428.82C193.64,428.84 192.42,428.87 191.19,428.91C189.97,428.95 188.74,429 187.52,429.06C186.29,429.12 185.07,429.19 183.84,429.26C182.61,429.34 181.39,429.42 180.16,429.51C178.93,429.6 177.71,429.71 176.48,429.82C175.26,429.93 174.03,430.05 172.81,430.17C171.58,430.29 170.36,430.42 169.13,430.56C167.9,430.7 166.68,430.85 165.45,431C164.23,431.15 163,431.31 161.78,431.47C160.55,431.63 159.35,431.79 158.1,431.97C156.8,432.15 155.41,432.33 154.14499999999998,432.54499999999996C152.97,432.74 151.9,432.96 150.75,433.19C149.55,433.43 148.3,433.68 147.07,433.93C145.84,434.18 144.62,434.43 143.39,434.69C142.17,434.94 140.94,435.2 139.72,435.46C138.49,435.72 137.27,435.97 136.04,436.23Q134.81,436.49 132.36,437" style="stroke-miterlimit: 1; vector-effect: non-scaling-stroke; fill: none; stroke: rgb(34, 30, 27); stroke-opacity: 1; stroke-width: 2px;"/><path class="openline" d="M0,278.09Q0.43,275.15 0.64,273.68C0.85,272.21 1.07,270.73 1.28,269.26C1.49,267.79 1.71,266.32 1.92,264.85C2.13,263.38 2.35,261.9 2.56,260.43C2.77,258.96 2.97,257.46 3.17,256.02C3.36,254.63 3.55,253.35 3.715,251.94C3.89,250.42 4.04,248.74 4.19,247.19C4.34,245.69 4.48,244.25 4.61,242.78C4.75,241.31 4.87,239.83 5,238.36C5.12,236.89 5.24,235.42 5.36,233.95C5.47,232.48 5.59,231.01 5.69,229.54C5.79,228.07 5.89,226.59 5.98,225.12C6.07,223.65 6.16,222.18 6.24,220.71C6.32,219.24 6.39,217.76 6.45,216.29C6.51,214.82 6.57,213.35 6.62,211.88C6.67,210.41 6.71,208.93 6.74,207.46C6.77,205.99 6.8,204.52 6.82,203.05C6.84,201.58 6.85,200.11 6.85,198.64C6.85,197.17 6.84,195.69 6.83,194.22C6.82,192.75 6.8,191.28 6.77,189.81C6.74,188.34 6.7,186.86 6.66,185.39C6.62,183.92 6.57,182.45 6.51,180.98C6.45,179.51 6.39,178.04 6.32,176.57C6.25,175.1 6.16,173.62 6.08,172.15C6,170.68 5.91,169.21 5.82,167.74C5.73,166.27 5.63,164.79 5.52,163.32C5.41,161.85 5.3,160.38 5.18,158.91C5.06,157.44 4.94,155.96 4.82,154.49C4.7,153.02 4.57,151.55 4.44,150.08C4.31,148.61 4.17,147.11 4.03,145.67C3.9,144.29 3.79,143.04 3.635,141.635C3.47,140.1 3.24,138.41 3.04,136.84C2.85,135.34 2.67,133.89 2.48,132.42C2.29,130.95 2.11,129.48 1.92,128.01C1.73,126.54 1.53,125.07 1.34,123.6C1.15,122.13 0.95,120.65 0.76,119.18C0.57,117.71 0.33,115.83 0.19,114.77Q0.11,114.17 0,113.36" style="stroke-miterlimit: 1; vector-effect: non-scaling-stroke; fill: none; stroke: rgb(34, 30, 27); stroke-opacity: 1; stroke-width: 2px;"/><path class="openline" d="M364,158.91Q363.57,161.85 363.36,163.32C363.15,164.79 362.93,166.27 362.72,167.74C362.51,169.21 362.29,170.68 362.08,172.15C361.87,173.62 361.65,175.1 361.44,176.57C361.23,178.04 361.03,179.54 360.83,180.98C360.64,182.37 360.45,183.65 360.28499999999997,185.06C360.11,186.58 359.96,188.26 359.81,189.81C359.66,191.31 359.52,192.75 359.39,194.22C359.25,195.69 359.13,197.17 359,198.64C358.88,200.11 358.76,201.58 358.64,203.05C358.53,204.52 358.41,205.99 358.31,207.46C358.21,208.93 358.11,210.41 358.02,211.88C357.93,213.35 357.84,214.82 357.76,216.29C357.68,217.76 357.61,219.24 357.55,220.71C357.49,222.18 357.43,223.65 357.38,225.12C357.33,226.59 357.29,228.07 357.26,229.54C357.23,231.01 357.2,232.48 357.18,233.95C357.16,235.42 357.15,236.89 357.15,238.36C357.15,239.83 357.16,241.31 357.17,242.78C357.18,244.25 357.2,245.72 357.23,247.19C357.26,248.66 357.3,250.14 357.34,251.61C357.38,253.08 357.43,254.55 357.49,256.02C357.55,257.49 357.61,258.96 357.68,260.43C357.75,261.9 357.84,263.38 357.92,264.85C358,266.32 358.09,267.79 358.18,269.26C358.27,270.73 358.37,272.21 358.48,273.68C358.59,275.15 358.7,276.62 358.82,278.09C358.94,279.56 359.06,281.04 359.18,282.51C359.3,283.98 359.43,285.45 359.56,286.92C359.69,288.39 359.83,289.89 359.97,291.33C360.1,292.71 360.21,293.96 360.365,295.365C360.53,296.9 360.76,298.59 360.96,300.16C361.15,301.66 361.33,303.11 361.52,304.58C361.71,306.05 361.89,307.52 362.08,308.99C362.27,310.46 362.47,311.93 362.66,313.4C362.85,314.87 363.05,316.35 363.24,317.82C363.43,319.29 363.67,321.17 363.81,322.23Q363.89,322.83 364,323.64" style="stroke-miterlimit: 1; vector-effect: non-scaling-stroke; fill: none; stroke: rgb(34, 30, 27); stroke-opacity: 1; stroke-width: 2px;"/><path class="openline" d="M94.43,0Q95.1,0.13 95.6,0.22C96.48,0.39 98.05,0.69 99.27,0.92C100.5,1.15 101.72,1.38 102.95,1.61C104.18,1.84 105.4,2.07 106.63,2.3C107.85,2.53 109.08,2.76 110.3,2.98C111.53,3.21 112.73,3.42 113.98,3.65C115.28,3.88 116.7,4.16 117.975,4.359999999999999C119.14,4.55 120.19,4.68 121.33,4.84C122.53,5.01 123.78,5.17 125.01,5.33C126.24,5.49 127.46,5.64 128.69,5.79C129.91,5.94 131.14,6.08 132.36,6.22C133.59,6.36 134.81,6.49 136.04,6.62C137.27,6.75 138.49,6.87 139.72,6.98C140.94,7.09 142.17,7.2 143.39,7.3C144.62,7.4 145.84,7.49 147.07,7.58C148.3,7.66 149.52,7.74 150.75,7.81C151.97,7.88 153.2,7.94 154.42,7.99C155.65,8.04 156.87,8.08 158.1,8.12C159.33,8.15 160.55,8.18 161.78,8.2C163,8.22 164.23,8.22 165.45,8.22C166.68,8.22 167.9,8.2 169.13,8.18C170.36,8.16 171.58,8.13 172.81,8.09C174.03,8.05 175.26,8 176.48,7.94C177.71,7.88 178.93,7.81 180.16,7.74C181.39,7.66 182.61,7.58 183.84,7.49C185.07,7.4 186.29,7.29 187.52,7.18C188.74,7.07 189.97,6.95 191.19,6.83C192.42,6.71 193.64,6.58 194.87,6.44C196.1,6.3 197.32,6.15 198.55,6C199.77,5.85 201,5.69 202.22,5.53C203.45,5.37 204.65,5.21 205.9,5.03C207.2,4.85 208.59,4.67 209.85500000000002,4.455C211.03,4.26 212.1,4.04 213.25,3.81C214.45,3.57 215.7,3.32 216.93,3.07C218.16,2.82 219.38,2.57 220.61,2.31C221.83,2.06 223.06,1.8 224.28,1.54C225.51,1.28 226.73,1.03 227.96,0.77Q229.19,0.51 231.64,0" style="stroke-miterlimit: 1; vector-effect: non-scaling-stroke; fill: none; stroke: rgb(34, 30, 27); stroke-opacity: 1; stroke-width: 2px;"/></g><g class="contourlevel"><path class="closedline" d="M33.09,400.86C31.89,400.41 30.51,398.62 30.1,397.27C29.7,395.95 30.3,394.32 30.57,392.86C30.84,391.38 31.28,389.88 31.72,388.44C32.15,387.02 32.65,385.69 33.165000000000006,384.265C33.71,382.75 34.31,381.14 34.92,379.62C35.52,378.13 36.16,376.68 36.775000000000006,375.21000000000004C37.39,373.74 37.98,372.24 38.61,370.79C39.23,369.36 39.89,368.01 40.525,366.575C41.19,365.07 41.88,363.37 42.52,361.96C43.07,360.75 43.75,359.43 44.12,358.62C44.33,358.17 44.37,358.03 44.58,357.55C45.01,356.58 45.97,354.4 46.56,353.13C47.01,352.16 47.44,351.37 47.8,350.58C48.11,349.91 48.28,349.47 48.62,348.72C49.14,347.56 50.13,345.42 50.66,344.3C50.99,343.61 51.18,343.26 51.47,342.63C51.84,341.83 52.21,340.91 52.68,339.89C53.28,338.59 54.36,336.33 54.78,335.47C54.95,335.11 54.99,335.07 55.15,334.72C55.5,333.96 56.17,332.33 56.75,331.06C57.39,329.67 58.18,328.19 58.86,326.72C59.54,325.24 60.18,323.63 60.82,322.23C61.39,320.99 62.15,319.53 62.51,318.74C62.69,318.34 62.73,318.24 62.91,317.82C63.31,316.9 64.26,314.7 64.86,313.4C65.33,312.37 65.81,311.45 66.18,310.65C66.46,310.03 66.6,309.67 66.9,308.99C67.4,307.87 68.34,305.77 68.89,304.58C69.27,303.76 69.54,303.23 69.86,302.52C70.2,301.76 70.47,301.07 70.87,300.16C71.42,298.92 72.39,296.81 72.88,295.75C73.16,295.15 73.29,294.89 73.54,294.33C73.9,293.52 74.33,292.42 74.81,291.33C75.4,290 76.42,287.81 76.83,286.92C77.01,286.53 77.05,286.47 77.21,286.09C77.55,285.32 78.16,283.77 78.72,282.51C79.35,281.07 80.16,279.44 80.82,277.94C81.45,276.5 81.98,275.1 82.6,273.68C83.24,272.23 83.96,270.8 84.6,269.33500000000004C85.25,267.86 85.82,266.31 86.46,264.85C87.08,263.43 87.72,262.13 88.35,260.695C89.01,259.19 89.69,257.46 90.32,256.02C90.87,254.76 91.57,253.3 91.92,252.51C92.09,252.11 92.12,252.02 92.3,251.61C92.69,250.69 93.59,248.53 94.18,247.19C94.68,246.06 95.24,244.91 95.6,244.09C95.83,243.56 95.91,243.34 96.15,242.78C96.59,241.74 97.5,239.64 98.07,238.36C98.51,237.38 98.92,236.55 99.27,235.76C99.56,235.1 99.73,234.68 100.05,233.95C100.56,232.8 101.49,230.72 102.03,229.54C102.39,228.75 102.63,228.26 102.95,227.57C103.3,226.8 103.61,226.05 104.03,225.12C104.6,223.86 105.63,221.69 106.1,220.71C106.33,220.22 106.41,220.08 106.63,219.62C107.01,218.81 107.58,217.47 108.14,216.29C108.79,214.93 109.6,213.39 110.32,211.92000000000002C111.04,210.44 111.8,208.79 112.46,207.46C113,206.38 113.56,205.35 113.98,204.54C114.28,203.96 114.41,203.68 114.73,203.05C115.29,201.97 116.56,199.6 117.08,198.64C117.34,198.17 117.41,198.04 117.66,197.59C118.1,196.79 118.86,195.32 119.48,194.22C120.09,193.14 120.86,191.85 121.33,191.04C121.63,190.53 121.73,190.35 122.05,189.81C122.68,188.76 123.94,186.69 124.88,185.185C125.78,183.75 126.84,182.06 127.55,180.98C128,180.29 128.26,179.92 128.69,179.29C129.23,178.49 129.93,177.45 130.55,176.57C131.15,175.71 131.79,174.84 132.36,174.06C132.86,173.38 133.24,172.85 133.77,172.15C134.43,171.28 135.4,170.04 136.04,169.23C136.5,168.65 136.77,168.32 137.24,167.74C137.92,166.91 139.03,165.57 139.72,164.76C140.2,164.19 140.47,163.87 140.96,163.32C141.63,162.55 142.66,161.4 143.39,160.6C143.97,159.97 144.41,159.51 144.98,158.91C145.63,158.23 146.35,157.46 147.07,156.73C147.81,155.98 148.67,155.14 149.34,154.49C149.86,153.98 150.17,153.67 150.75,153.13C151.65,152.28 153.05,151 154.25,149.925C155.5,148.8 157.22,147.27 158.1,146.52C158.55,146.14 158.71,146.02 159.13,145.67C159.81,145.1 160.88,144.17 161.78,143.44C162.69,142.7 163.91,141.78 164.58,141.25C164.95,140.96 165.06,140.87 165.45,140.56C166.25,139.94 168.23,138.41 169.13,137.74C169.65,137.35 169.89,137.19 170.37,136.84C171.05,136.34 171.91,135.66 172.81,135.01C173.91,134.22 175.29,133.31 176.515,132.445C177.74,131.58 179.02,130.61 180.16,129.83C181.14,129.16 182.26,128.46 182.93,128.01C183.32,127.75 183.43,127.66 183.84,127.38C184.65,126.82 186.47,125.59 187.52,124.9C188.3,124.39 188.92,124.02 189.56,123.6C190.14,123.22 190.54,122.93 191.19,122.5C192.17,121.85 193.91,120.73 194.87,120.12C195.48,119.73 195.83,119.53 196.37,119.18C197.03,118.75 197.73,118.27 198.55,117.74C199.61,117.06 201.36,115.98 202.22,115.44C202.69,115.15 202.87,115.05 203.31,114.77C203.99,114.34 204.96,113.67 205.9,113.07C207.01,112.36 208.82,111.28 209.58,110.81C209.92,110.6 209.99,110.56 210.32,110.35C210.98,109.93 212.2,109.09 213.25,108.43C214.45,107.67 215.89,106.86 217.145,106.07C218.34,105.32 219.43,104.54 220.61,103.8C221.82,103.04 223.11,102.34 224.34,101.565C225.56,100.79 226.75,99.92 227.96,99.16C229.14,98.41 230.32,97.78 231.51,97.025C232.76,96.23 234.11,95.26 235.31,94.5C236.36,93.84 237.66,93.11 238.3,92.7C238.61,92.5 238.67,92.45 238.99,92.24C239.73,91.75 241.56,90.52 242.67,89.81C243.58,89.23 244.5,88.71 245.17,88.28C245.64,87.98 245.84,87.82 246.34,87.49C247.22,86.9 248.98,85.74 250.02,85.08C250.77,84.6 251.35,84.28 251.98,83.87C252.58,83.48 253.02,83.15 253.7,82.7C254.69,82.04 256.44,80.92 257.37,80.32C257.94,79.96 258.24,79.79 258.76,79.45C259.43,79.01 260.19,78.44 261.05,77.87C262.13,77.16 263.96,76.01 264.73,75.52C265.08,75.3 265.16,75.26 265.49,75.04C266.15,74.6 267.36,73.7 268.4,73.01C269.56,72.24 270.91,71.48 272.14,70.66499999999999C273.37,69.85 274.6,68.9 275.76,68.13C276.81,67.43 278.17,66.63 278.8,66.21C279.09,66.02 279.13,65.98 279.43,65.77C280.15,65.27 282.02,63.96 283.11,63.24C283.95,62.68 284.73,62.24 285.39,61.8C285.92,61.45 286.21,61.22 286.79,60.82C287.72,60.18 289.49,59 290.46,58.37C291.09,57.96 291.46,57.75 292.02,57.38C292.68,56.94 293.33,56.44 294.14,55.9C295.19,55.19 297.01,54.03 297.82,53.52C298.22,53.27 298.34,53.22 298.71,52.97C299.38,52.53 300.48,51.71 301.49,51.05C302.66,50.28 304.09,49.46 305.34000000000003,48.66C306.54,47.89 307.66,47.1 308.85,46.35C310.06,45.59 311.31,44.88 312.53499999999997,44.144999999999996C313.76,43.41 314.95,42.64 316.2,41.92C317.46,41.19 318.81,40.48 320.075,39.81999999999999C321.26,39.2 322.37,38.61 323.56,38.09C324.75,37.57 325.99,37.03 327.23,36.7C328.44,36.38 329.84,35.73 330.91,36.14C332.11,36.59 333.49,38.38 333.9,39.73C334.3,41.05 333.7,42.68 333.43,44.14C333.16,45.62 332.72,47.12 332.28,48.56C331.85,49.98 331.35,51.31 330.83500000000004,52.735C330.29,54.25 329.69,55.86 329.08,57.38C328.48,58.87 327.84,60.32 327.225,61.79C326.61,63.26 326.02,64.76 325.39,66.21C324.77,67.64 324.11,68.99 323.475,70.425C322.81,71.93 322.12,73.63 321.48,75.04C320.93,76.25 320.25,77.57 319.88,78.38C319.67,78.83 319.63,78.97 319.42,79.45C318.99,80.42 318.03,82.6 317.44,83.87C316.99,84.84 316.56,85.63 316.2,86.42C315.89,87.09 315.72,87.53 315.38,88.28C314.86,89.44 313.87,91.58 313.34,92.7C313.01,93.39 312.82,93.74 312.53,94.37C312.16,95.17 311.79,96.09 311.32,97.11C310.72,98.41 309.64,100.67 309.22,101.53C309.05,101.89 309.01,101.93 308.85,102.28C308.5,103.04 307.83,104.67 307.25,105.94C306.61,107.33 305.82,108.81 305.14,110.28C304.46,111.76 303.82,113.37 303.18,114.77C302.61,116.01 301.85,117.47 301.49,118.26C301.31,118.66 301.27,118.76 301.09,119.18C300.69,120.1 299.74,122.3 299.14,123.6C298.67,124.63 298.19,125.55 297.82,126.35C297.54,126.97 297.4,127.33 297.1,128.01C296.6,129.13 295.66,131.23 295.11,132.42C294.73,133.24 294.46,133.77 294.14,134.48C293.8,135.24 293.53,135.93 293.13,136.84C292.58,138.08 291.61,140.19 291.12,141.25C290.84,141.85 290.71,142.11 290.46,142.67C290.1,143.48 289.67,144.58 289.19,145.67C288.6,147 287.58,149.19 287.17,150.08C286.99,150.47 286.95,150.53 286.79,150.91C286.45,151.68 285.84,153.23 285.28,154.49C284.65,155.93 283.84,157.56 283.18,159.06C282.55,160.5 282.02,161.9 281.4,163.32C280.76,164.77 280.04,166.2 279.4,167.66500000000002C278.75,169.14 278.18,170.69 277.54,172.15C276.92,173.57 276.28,174.87 275.65,176.305C274.99,177.81 274.31,179.54 273.68,180.98C273.13,182.24 272.43,183.7 272.08,184.49C271.91,184.89 271.88,184.98 271.7,185.39C271.31,186.31 270.41,188.47 269.82,189.81C269.32,190.94 268.76,192.09 268.4,192.91C268.17,193.44 268.09,193.66 267.85,194.22C267.41,195.26 266.5,197.36 265.93,198.64C265.49,199.62 265.08,200.45 264.73,201.24C264.44,201.9 264.27,202.32 263.95,203.05C263.44,204.2 262.51,206.28 261.97,207.46C261.61,208.25 261.37,208.74 261.05,209.43C260.7,210.2 260.39,210.95 259.97,211.88C259.4,213.14 258.37,215.31 257.9,216.29C257.67,216.78 257.59,216.92 257.37,217.38C256.99,218.19 256.42,219.53 255.86,220.71C255.21,222.07 254.4,223.61 253.68,225.07999999999998C252.96,226.56 252.2,228.21 251.54,229.54C251,230.62 250.44,231.65 250.02,232.46C249.72,233.04 249.59,233.32 249.27,233.95C248.71,235.03 247.44,237.4 246.92,238.36C246.66,238.83 246.59,238.96 246.34,239.41C245.9,240.21 245.14,241.68 244.52,242.78C243.91,243.86 243.14,245.15 242.67,245.96C242.37,246.47 242.27,246.65 241.95,247.19C241.32,248.24 240.06,250.31 239.12,251.815C238.22,253.25 237.16,254.94 236.45,256.02C236,256.71 235.74,257.08 235.31,257.71C234.77,258.51 234.07,259.55 233.45,260.43C232.85,261.29 232.21,262.16 231.64,262.94C231.14,263.62 230.76,264.15 230.23,264.85C229.57,265.72 228.6,266.96 227.96,267.77C227.5,268.35 227.23,268.68 226.76,269.26C226.08,270.09 224.97,271.43 224.28,272.24C223.8,272.81 223.53,273.13 223.04,273.68C222.37,274.45 221.34,275.6 220.61,276.4C220.03,277.03 219.59,277.49 219.02,278.09C218.37,278.77 217.65,279.54 216.93,280.27C216.19,281.02 215.33,281.86 214.66,282.51C214.14,283.02 213.83,283.33 213.25,283.87C212.35,284.72 210.95,286 209.75,287.07500000000005C208.5,288.2 206.78,289.73 205.9,290.48C205.45,290.86 205.29,290.98 204.87,291.33C204.19,291.9 203.12,292.83 202.22,293.56C201.31,294.3 200.09,295.22 199.42,295.75C199.05,296.04 198.94,296.13 198.55,296.44C197.75,297.06 195.77,298.59 194.87,299.26C194.35,299.65 194.11,299.81 193.63,300.16C192.95,300.66 192.09,301.34 191.19,301.99C190.09,302.78 188.71,303.69 187.485,304.55499999999995C186.26,305.42 184.98,306.39 183.84,307.17C182.86,307.84 181.74,308.54 181.07,308.99C180.68,309.25 180.57,309.34 180.16,309.62C179.35,310.18 177.53,311.41 176.48,312.1C175.7,312.61 175.08,312.98 174.44,313.4C173.86,313.78 173.46,314.07 172.81,314.5C171.83,315.15 170.09,316.27 169.13,316.88C168.52,317.27 168.17,317.47 167.63,317.82C166.97,318.25 166.27,318.73 165.45,319.26C164.39,319.94 162.64,321.02 161.78,321.56C161.31,321.85 161.13,321.95 160.69,322.23C160.01,322.66 159.04,323.33 158.1,323.93C156.99,324.64 155.18,325.72 154.42,326.19C154.08,326.4 154.01,326.44 153.68,326.65C153.02,327.07 151.8,327.91 150.75,328.57C149.55,329.33 148.11,330.14 146.855,330.93C145.66,331.68 144.57,332.46 143.39,333.2C142.18,333.96 140.89,334.66 139.66,335.435C138.44,336.21 137.25,337.08 136.04,337.84C134.86,338.59 133.68,339.22 132.49,339.975C131.24,340.77 129.89,341.74 128.69,342.5C127.64,343.16 126.34,343.89 125.7,344.3C125.39,344.5 125.33,344.55 125.01,344.76C124.27,345.25 122.44,346.48 121.33,347.19C120.42,347.77 119.5,348.29 118.83,348.72C118.36,349.02 118.16,349.18 117.66,349.51C116.78,350.1 115.02,351.26 113.98,351.92C113.23,352.4 112.65,352.72 112.02,353.13C111.42,353.52 110.98,353.85 110.3,354.3C109.31,354.96 107.56,356.08 106.63,356.68C106.06,357.04 105.76,357.21 105.24,357.55C104.57,357.99 103.81,358.56 102.95,359.13C101.87,359.84 100.04,360.99 99.27,361.48C98.92,361.7 98.84,361.74 98.51,361.96C97.85,362.4 96.64,363.3 95.6,363.99C94.44,364.76 93.09,365.52 91.86,366.33500000000004C90.63,367.15 89.4,368.1 88.24,368.87C87.19,369.57 85.83,370.37 85.2,370.79C84.91,370.98 84.87,371.02 84.57,371.23C83.85,371.73 81.98,373.04 80.89,373.76C80.05,374.32 79.27,374.76 78.61,375.2C78.08,375.55 77.79,375.78 77.21,376.18C76.28,376.82 74.51,378 73.54,378.63C72.91,379.04 72.54,379.25 71.98,379.62C71.32,380.06 70.67,380.56 69.86,381.1C68.81,381.81 66.99,382.97 66.18,383.48C65.78,383.73 65.66,383.78 65.29,384.03C64.62,384.47 63.52,385.29 62.51,385.95C61.34,386.72 59.91,387.54 58.66,388.34000000000003C57.46,389.11 56.34,389.9 55.15,390.65C53.95,391.41 52.69,392.11 51.47,392.85C50.24,393.59 49.05,394.36 47.8,395.08C46.53,395.81 45.19,396.52 43.925,397.17999999999995C42.74,397.8 41.63,398.39 40.44,398.91C39.25,399.43 38.01,399.97 36.77,400.3C35.56,400.62 34.16,401.27 33.09,400.86Z" style="stroke-miterlimit: 1; vector-effect: non-scaling-stroke; fill: none; stroke: rgb(59, 46, 38); stroke-opacity: 1; stroke-width: 2px;"/></g><g class="contourlevel"><path class="closedline" d="M54.96,375.245C53.59,374.75 51.89,372.46 51.4525,370.89750000000004C51.06,369.48 51.77,367.86 52.08,366.37C52.39,364.88 52.86,363.42 53.31,361.96C53.77,360.48 54.49,358.43 54.82,357.55C54.96,357.17 55,357.11 55.15,356.74C55.45,355.97 56.03,354.39 56.53,353.13C57.09,351.73 57.94,349.68 58.36,348.72C58.56,348.25 58.64,348.13 58.83,347.68C59.18,346.88 59.72,345.5 60.24,344.3C60.84,342.92 61.88,340.67 62.24,339.89C62.37,339.61 62.38,339.6 62.51,339.32C62.83,338.61 63.6,336.78 64.2,335.47C64.84,334.07 65.56,332.63 66.23500000000001,331.18C66.92,329.69 67.63,328.03 68.28,326.65C68.83,325.48 69.48,324.23 69.86,323.41C70.09,322.92 70.15,322.75 70.39,322.23C70.85,321.23 71.86,319.04 72.44,317.82C72.86,316.95 73.19,316.35 73.54,315.61C73.89,314.88 74.14,314.26 74.54,313.4C75.11,312.18 76.19,309.97 76.67,308.99C76.91,308.5 76.99,308.36 77.21,307.89C77.59,307.08 78.17,305.76 78.73,304.58C79.38,303.22 80.2,301.67 80.905,300.19500000000005C81.61,298.72 82.3,297.11 82.95,295.75C83.51,294.58 84.18,293.32 84.57,292.5C84.8,292.02 84.86,291.84 85.1,291.33C85.56,290.33 86.61,288.12 87.19,286.92C87.59,286.09 87.89,285.53 88.24,284.81C88.6,284.06 88.89,283.4 89.31,282.51C89.9,281.27 91.02,279.01 91.47,278.09C91.67,277.68 91.73,277.59 91.92,277.19C92.3,276.41 92.96,274.9 93.55,273.68C94.2,272.33 94.97,270.88 95.675,269.43C96.4,267.94 97.18,266.2 97.83,264.85C98.35,263.78 98.87,262.79 99.27,261.98C99.56,261.39 99.69,261.08 100,260.43C100.53,259.33 101.63,257.11 102.17,256.02C102.49,255.37 102.66,255.07 102.95,254.48C103.35,253.67 103.8,252.67 104.32,251.61C104.98,250.29 105.87,248.65 106.615,247.165C107.35,245.7 108.08,244.1 108.74,242.78C109.29,241.69 109.88,240.62 110.3,239.8C110.59,239.24 110.71,238.97 111.02,238.36C111.57,237.29 112.77,234.97 113.31,233.95C113.6,233.4 113.71,233.21 113.98,232.7C114.41,231.89 115.02,230.63 115.6,229.54C116.24,228.34 117.26,226.56 117.66,225.81C117.83,225.49 117.84,225.45 118.02,225.12C118.46,224.29 119.81,221.82 120.42,220.71C120.79,220.04 120.99,219.71 121.33,219.1C121.78,218.29 122.32,217.28 122.89,216.29C123.54,215.16 124.56,213.49 125.01,212.71C125.23,212.34 125.26,212.26 125.49,211.88C126.02,210.99 127.58,208.37 128.14,207.46C128.39,207.05 128.45,206.97 128.69,206.58C129.17,205.8 130.19,204.1 130.85,203.05C131.39,202.19 131.87,201.47 132.36,200.72C132.82,200.01 133.19,199.42 133.71,198.64C134.38,197.64 135.5,196.02 136.04,195.22C136.33,194.79 136.41,194.67 136.72,194.22C137.37,193.28 138.74,191.38 139.8,189.92000000000002C140.92,188.39 142.12,186.76 143.27499999999998,185.24C144.39,183.78 146.02,181.73 146.62,180.98C146.84,180.71 146.85,180.69 147.07,180.42C147.65,179.71 149.69,177.27 150.28,176.57C150.51,176.3 150.52,176.29 150.75,176.02C151.38,175.3 153.08,173.35 154.295,172.01C155.55,170.62 156.91,169.18 158.19,167.835C159.4,166.56 161,164.93 161.78,164.14C162.15,163.77 162.24,163.67 162.6,163.32C163.26,162.66 164.61,161.33 165.45,160.53C166.1,159.91 166.59,159.47 167.19,158.91C167.82,158.32 168.41,157.74 169.13,157.09C170,156.29 171.41,155.07 172.07,154.49C172.4,154.2 172.47,154.14 172.81,153.84C173.57,153.18 175.73,151.29 176.48,150.66C176.8,150.39 176.87,150.34 177.18,150.08C177.83,149.53 179.22,148.32 180.16,147.54C180.98,146.86 181.83,146.21 182.5,145.67C183.01,145.26 183.28,145.02 183.84,144.57C184.76,143.83 186.83,142.23 187.52,141.69C187.79,141.48 187.83,141.46 188.09,141.25C188.71,140.76 190.19,139.55 191.19,138.79C192.1,138.09 193.14,137.35 193.82,136.84C194.25,136.51 194.41,136.38 194.87,136.03C195.72,135.38 197.66,133.95 198.55,133.29C199.05,132.92 199.27,132.77 199.74,132.42C200.42,131.92 201.31,131.21 202.22,130.55C203.32,129.76 204.66,128.87 205.88,127.995C207.12,127.1 208.47,126.03 209.58,125.24C210.46,124.61 211.3,124.08 211.97,123.6C212.47,123.25 212.71,123.05 213.25,122.66C214.16,122.01 216.02,120.7 216.93,120.06C217.47,119.69 217.72,119.53 218.21,119.18C218.89,118.7 219.71,118.07 220.61,117.44C221.73,116.66 223.18,115.73 224.42000000000002,114.865C225.63,114.02 226.83,113.1 227.96,112.31C228.97,111.6 230.22,110.8 230.88,110.35C231.22,110.12 231.29,110.06 231.64,109.82C232.41,109.28 234.28,107.93 235.31,107.22C236.05,106.71 236.61,106.37 237.23,105.94C237.83,105.52 238.29,105.17 238.99,104.68C239.99,103.98 241.84,102.73 242.67,102.17C243.1,101.88 243.24,101.81 243.64,101.53C244.32,101.06 245.36,100.26 246.34,99.58C247.47,98.8 248.83,97.97 250.05,97.13C251.28,96.28 252.56,95.3 253.7,94.52C254.68,93.85 255.79,93.16 256.46,92.7C256.85,92.43 256.96,92.33 257.37,92.04C258.18,91.46 260.03,90.18 261.05,89.49C261.77,89.01 262.28,88.7 262.89,88.28C263.51,87.86 264.01,87.47 264.73,86.97C265.74,86.27 267.57,85.06 268.4,84.51C268.83,84.23 268.98,84.14 269.38,83.87C270.06,83.41 271.1,82.63 272.08,81.97C273.23,81.19 274.62,80.34 275.86,79.515C277.07,78.71 278.26,77.84 279.43,77.07C280.52,76.35 282.05,75.43 282.64,75.04C282.87,74.89 282.88,74.87 283.11,74.72C283.75,74.29 285.64,73.05 286.79,72.33C287.78,71.71 288.94,71.05 289.6,70.63C289.97,70.39 290.07,70.31 290.46,70.06C291.26,69.56 292.97,68.54 294.14,67.87C295.19,67.27 296.51,66.58 297.15,66.21C297.46,66.03 297.5,65.98 297.82,65.81C298.55,65.42 300.26,64.56 301.49,64.01C302.71,63.47 303.94,62.9 305.17,62.53C306.36,62.17 307.64,61.41 308.75,61.777499999999996C310.14,62.24 312.08,64.53 312.5475,66.10249999999999C312.97,67.51 312.23,69.14 311.92,70.63C311.61,72.12 311.14,73.58 310.69,75.04C310.23,76.52 309.51,78.57 309.18,79.45C309.04,79.83 309,79.89 308.85,80.26C308.55,81.03 307.97,82.61 307.47,83.87C306.91,85.27 306.06,87.32 305.64,88.28C305.44,88.75 305.36,88.87 305.17,89.32C304.82,90.12 304.28,91.5 303.76,92.7C303.16,94.08 302.12,96.33 301.76,97.11C301.63,97.39 301.62,97.4 301.49,97.68C301.17,98.39 300.4,100.22 299.8,101.53C299.16,102.93 298.44,104.37 297.765,105.82C297.08,107.31 296.37,108.97 295.72,110.35C295.17,111.52 294.52,112.77 294.14,113.59C293.91,114.08 293.85,114.25 293.61,114.77C293.15,115.77 292.14,117.96 291.56,119.18C291.14,120.05 290.81,120.65 290.46,121.39C290.11,122.12 289.86,122.74 289.46,123.6C288.89,124.82 287.81,127.03 287.33,128.01C287.09,128.5 287.01,128.64 286.79,129.11C286.41,129.92 285.83,131.24 285.27,132.42C284.62,133.78 283.8,135.33 283.095,136.805C282.39,138.28 281.7,139.89 281.05,141.25C280.49,142.42 279.82,143.68 279.43,144.5C279.2,144.98 279.14,145.16 278.9,145.67C278.44,146.67 277.39,148.88 276.81,150.08C276.41,150.91 276.11,151.47 275.76,152.19C275.4,152.94 275.11,153.6 274.69,154.49C274.1,155.73 272.98,157.99 272.53,158.91C272.33,159.32 272.27,159.41 272.08,159.81C271.7,160.59 271.04,162.1 270.45,163.32C269.8,164.67 269.03,166.12 268.325,167.57C267.6,169.06 266.82,170.8 266.17,172.15C265.65,173.22 265.13,174.21 264.73,175.02C264.44,175.61 264.31,175.92 264,176.57C263.47,177.67 262.37,179.89 261.83,180.98C261.51,181.63 261.34,181.93 261.05,182.52C260.65,183.33 260.2,184.33 259.68,185.39C259.02,186.71 258.13,188.35 257.385,189.835C256.65,191.3 255.92,192.9 255.26,194.22C254.71,195.31 254.12,196.38 253.7,197.2C253.41,197.76 253.29,198.03 252.98,198.64C252.43,199.71 251.23,202.03 250.69,203.05C250.4,203.6 250.29,203.79 250.02,204.3C249.59,205.11 248.98,206.37 248.4,207.46C247.76,208.66 246.74,210.44 246.34,211.19C246.17,211.51 246.16,211.55 245.98,211.88C245.54,212.71 244.19,215.18 243.58,216.29C243.21,216.96 243.01,217.29 242.67,217.9C242.22,218.71 241.68,219.72 241.11,220.71C240.46,221.84 239.44,223.51 238.99,224.29C238.77,224.66 238.74,224.74 238.51,225.12C237.98,226.01 236.42,228.63 235.86,229.54C235.61,229.95 235.55,230.03 235.31,230.42C234.83,231.2 233.81,232.9 233.15,233.95C232.61,234.81 232.13,235.53 231.64,236.28C231.18,236.99 230.81,237.58 230.29,238.36C229.62,239.36 228.5,240.98 227.96,241.78C227.67,242.21 227.59,242.33 227.28,242.78C226.63,243.72 225.26,245.62 224.2,247.07999999999998C223.08,248.61 221.88,250.24 220.72500000000002,251.76C219.61,253.22 217.98,255.27 217.38,256.02C217.16,256.29 217.15,256.31 216.93,256.58C216.35,257.29 214.31,259.73 213.72,260.43C213.49,260.7 213.48,260.71 213.25,260.98C212.62,261.7 210.92,263.65 209.705,264.99C208.45,266.38 207.09,267.82 205.81,269.16499999999996C204.6,270.44 203,272.07 202.22,272.86C201.85,273.23 201.76,273.33 201.4,273.68C200.74,274.34 199.39,275.67 198.55,276.47C197.9,277.09 197.41,277.53 196.81,278.09C196.18,278.68 195.59,279.26 194.87,279.91C194,280.71 192.59,281.93 191.93,282.51C191.6,282.8 191.53,282.86 191.19,283.16C190.43,283.82 188.27,285.71 187.52,286.34C187.2,286.61 187.13,286.66 186.82,286.92C186.17,287.47 184.78,288.68 183.84,289.46C183.02,290.14 182.17,290.79 181.5,291.33C180.99,291.74 180.72,291.98 180.16,292.43C179.24,293.17 177.17,294.77 176.48,295.31C176.21,295.52 176.17,295.54 175.91,295.75C175.29,296.24 173.81,297.45 172.81,298.21C171.9,298.91 170.86,299.65 170.18,300.16C169.75,300.49 169.59,300.62 169.13,300.97C168.28,301.62 166.34,303.05 165.45,303.71C164.95,304.08 164.73,304.23 164.26,304.58C163.58,305.08 162.69,305.79 161.78,306.45C160.68,307.24 159.34,308.13 158.12,309.005C156.88,309.9 155.53,310.97 154.42,311.76C153.54,312.39 152.7,312.92 152.03,313.4C151.53,313.75 151.29,313.95 150.75,314.34C149.84,314.99 147.98,316.3 147.07,316.94C146.53,317.31 146.28,317.47 145.79,317.82C145.11,318.3 144.29,318.93 143.39,319.56C142.27,320.34 140.82,321.27 139.57999999999998,322.135C138.37,322.98 137.17,323.9 136.04,324.69C135.03,325.4 133.78,326.2 133.12,326.65C132.78,326.88 132.71,326.94 132.36,327.18C131.59,327.72 129.72,329.07 128.69,329.78C127.95,330.29 127.39,330.63 126.77,331.06C126.17,331.48 125.71,331.83 125.01,332.32C124.01,333.02 122.16,334.27 121.33,334.83C120.9,335.12 120.76,335.19 120.36,335.47C119.68,335.94 118.64,336.74 117.66,337.42C116.53,338.2 115.17,339.03 113.95,339.87C112.72,340.72 111.44,341.7 110.3,342.48C109.32,343.15 108.21,343.84 107.54,344.3C107.15,344.57 107.04,344.67 106.63,344.96C105.82,345.54 103.97,346.82 102.95,347.51C102.23,347.99 101.72,348.3 101.11,348.72C100.49,349.14 99.99,349.53 99.27,350.03C98.26,350.73 96.43,351.94 95.6,352.49C95.17,352.77 95.02,352.86 94.62,353.13C93.94,353.59 92.9,354.37 91.92,355.03C90.77,355.81 89.38,356.66 88.14,357.485C86.93,358.29 85.74,359.16 84.57,359.93C83.48,360.65 81.95,361.57 81.36,361.96C81.13,362.11 81.12,362.13 80.89,362.28C80.25,362.71 78.36,363.95 77.21,364.67C76.22,365.29 75.06,365.95 74.4,366.37C74.03,366.61 73.93,366.69 73.54,366.94C72.74,367.44 71.03,368.46 69.86,369.13C68.81,369.73 67.49,370.42 66.85,370.79C66.54,370.97 66.5,371.02 66.18,371.19C65.45,371.58 63.74,372.44 62.51,372.99C61.29,373.53 60.09,374.09 58.83,374.47C57.57,374.85 56.11,375.66 54.96,375.245Z" style="stroke-miterlimit: 1; vector-effect: non-scaling-stroke; fill: none; stroke: rgb(85, 62, 47); stroke-opacity: 1; stroke-width: 2px;"/></g><g class="contourlevel"><path class="closedline" d="M69.86,357.76C69.57,357.76 69.34,357.75 69.02,357.55C68.29,357.09 66.57,354.98 66.18,354.14C65.99,353.74 66.01,353.48 66.01,353.13C66.01,352.76 66.11,352.47 66.18,352C66.3,351.19 66.41,349.89 66.66,348.72C66.95,347.35 67.46,345.77 67.91,344.3C68.37,342.82 69.03,340.87 69.4,339.89C69.59,339.39 69.67,339.25 69.86,338.78C70.18,337.97 70.66,336.65 71.13,335.47C71.67,334.1 72.5,332.09 72.95,331.06C73.19,330.5 73.31,330.3 73.54,329.77C73.9,328.96 74.38,327.78 74.87,326.65C75.46,325.3 76.47,323.08 76.86,322.23C77.02,321.88 77.05,321.83 77.21,321.49C77.56,320.73 78.27,319.09 78.86,317.82C79.5,316.43 80.24,314.95 80.93,313.49C81.63,312.01 82.36,310.35 83.01,308.99C83.56,307.84 84.18,306.65 84.57,305.83C84.81,305.32 84.89,305.12 85.15,304.58C85.63,303.56 86.68,301.33 87.26,300.16C87.64,299.38 87.9,298.9 88.24,298.21C88.62,297.44 88.95,296.69 89.41,295.75C90.02,294.49 91.21,292.13 91.61,291.33C91.76,291.03 91.78,291.01 91.92,290.72C92.28,290 93.12,288.17 93.74,286.92C94.35,285.69 95.22,284.06 95.6,283.29C95.77,282.94 95.79,282.88 95.97,282.51C96.39,281.64 97.53,279.3 98.14,278.09C98.57,277.23 98.9,276.63 99.27,275.9C99.64,275.16 99.93,274.54 100.36,273.68C100.97,272.46 102.22,270.06 102.63,269.26C102.78,268.96 102.8,268.94 102.95,268.65C103.32,267.93 104.2,266.08 104.83,264.85C105.43,263.68 106.22,262.25 106.63,261.45C106.86,261.01 106.91,260.89 107.14,260.43C107.62,259.47 108.82,257.14 109.41,256.02C109.77,255.33 109.97,254.98 110.3,254.35C110.72,253.55 111.17,252.62 111.71,251.61C112.39,250.34 113.27,248.77 114.05000000000001,247.32C114.85,245.83 115.77,244.02 116.44,242.78C116.91,241.92 117.26,241.33 117.66,240.59C118.06,239.85 118.37,239.22 118.85,238.36C119.52,237.14 120.53,235.46 121.35499999999999,233.99C122.19,232.52 123.15,230.73 123.83,229.54C124.29,228.74 124.6,228.23 125.01,227.53C125.45,226.76 125.86,226.01 126.39,225.12C127.05,224 128.25,222.08 128.69,221.35C128.87,221.05 128.88,221.02 129.07,220.71C129.56,219.9 131.21,217.22 131.78,216.29C132.04,215.86 132.1,215.77 132.36,215.36C132.86,214.57 133.89,212.91 134.55,211.88C135.09,211.04 135.55,210.36 136.04,209.61C136.51,208.88 136.91,208.25 137.44,207.46C138.1,206.47 139.17,204.96 139.72,204.15C140.04,203.69 140.13,203.53 140.47,203.05C141.14,202.09 142.46,200.25 143.51,198.8C144.62,197.27 145.83,195.63 146.98,194.10500000000002C148.09,192.64 149.69,190.57 150.29,189.81C150.51,189.53 150.53,189.51 150.75,189.24C151.33,188.53 153.24,186.14 153.86,185.39C154.12,185.07 154.16,185.03 154.42,184.72C155.05,183.98 157.02,181.67 157.62,180.98C157.85,180.71 157.86,180.7 158.1,180.43C158.74,179.71 160.45,177.79 161.68,176.45999999999998C162.95,175.08 164.31,173.63 165.58499999999998,172.29000000000002C166.79,171.03 168.33,169.44 169.13,168.64C169.53,168.24 169.65,168.12 170.04,167.74C170.71,167.08 171.99,165.81 172.81,165.01C173.47,164.38 173.99,163.89 174.59,163.32C175.21,162.73 175.78,162.18 176.48,161.53C177.34,160.73 178.73,159.51 179.39,158.91C179.73,158.6 179.81,158.52 180.16,158.2C180.93,157.51 183.16,155.56 183.84,154.96C184.1,154.73 184.13,154.71 184.38,154.49C184.99,153.95 186.59,152.54 187.52,151.74C188.26,151.11 188.88,150.61 189.52,150.08C190.1,149.59 190.52,149.21 191.19,148.66C192.18,147.85 193.67,146.69 194.9,145.695C196.13,144.7 197.53,143.5 198.55,142.69C199.27,142.12 199.79,141.73 200.4,141.25C201.01,140.77 201.5,140.35 202.22,139.79C203.25,138.99 204.77,137.88 206.005,136.92000000000002C207.22,135.98 208.52,134.92 209.58,134.11C210.42,133.47 211.2,132.92 211.86,132.42C212.38,132.03 212.67,131.79 213.25,131.35C214.18,130.65 216.13,129.2 216.93,128.62C217.31,128.34 217.42,128.28 217.78,128.01C218.45,127.51 219.63,126.57 220.61,125.85C221.63,125.1 223.18,124.04 223.78,123.6C224.02,123.42 224.04,123.4 224.28,123.22C224.94,122.72 226.94,121.23 227.96,120.49C228.68,119.97 229.2,119.62 229.81,119.18C230.42,118.73 230.92,118.34 231.64,117.82C232.65,117.09 234.58,115.73 235.31,115.22C235.61,115.01 235.67,114.98 235.96,114.77C236.6,114.31 237.96,113.26 238.99,112.53C240.03,111.79 241.56,110.78 242.16,110.35C242.4,110.18 242.42,110.16 242.67,109.98C243.33,109.5 245.29,108.08 246.34,107.34C247.12,106.79 247.75,106.39 248.39,105.94C248.97,105.53 249.36,105.22 250.02,104.76C251,104.07 252.85,102.8 253.7,102.22C254.15,101.91 254.32,101.82 254.74,101.53C255.42,101.06 256.41,100.31 257.37,99.65C258.5,98.87 259.89,98 261.125,97.16C262.34,96.34 263.57,95.44 264.73,94.67C265.79,93.97 267.16,93.12 267.79,92.7C268.07,92.51 268.11,92.47 268.4,92.27C269.11,91.79 270.95,90.59 272.08,89.88C273.02,89.29 274.01,88.71 274.69,88.28C275.13,88 275.29,87.87 275.76,87.58C276.61,87.05 278.29,86.04 279.43,85.39C280.41,84.83 281.52,84.26 282.19,83.87C282.58,83.65 282.69,83.54 283.11,83.32C283.92,82.88 285.56,82.08 286.79,81.53C288.01,80.99 289.31,80.38 290.46,80.03C291.43,79.73 292.53,79.6 293.2,79.45C293.6,79.36 293.84,79.24 294.14,79.24C294.43,79.24 294.66,79.25 294.98,79.45C295.71,79.91 297.43,82.02 297.82,82.86C298.01,83.26 297.99,83.52 297.99,83.87C297.99,84.24 297.89,84.53 297.82,85C297.7,85.81 297.59,87.11 297.34,88.28C297.05,89.65 296.54,91.23 296.09,92.7C295.63,94.18 294.97,96.13 294.6,97.11C294.41,97.61 294.33,97.75 294.14,98.22C293.82,99.03 293.34,100.35 292.87,101.53C292.33,102.9 291.5,104.91 291.05,105.94C290.81,106.5 290.69,106.7 290.46,107.23C290.1,108.04 289.62,109.22 289.13,110.35C288.54,111.7 287.53,113.92 287.14,114.77C286.98,115.12 286.95,115.17 286.79,115.51C286.44,116.27 285.73,117.91 285.14,119.18C284.5,120.57 283.76,122.05 283.07,123.50999999999999C282.37,124.99 281.64,126.65 280.99,128.01C280.44,129.16 279.82,130.35 279.43,131.17C279.19,131.68 279.11,131.88 278.85,132.42C278.37,133.44 277.32,135.67 276.74,136.84C276.36,137.62 276.1,138.1 275.76,138.79C275.38,139.56 275.05,140.31 274.59,141.25C273.98,142.51 272.79,144.87 272.39,145.67C272.24,145.97 272.22,145.99 272.08,146.28C271.72,147 270.88,148.83 270.26,150.08C269.65,151.31 268.78,152.94 268.4,153.71C268.23,154.06 268.21,154.12 268.03,154.49C267.61,155.36 266.47,157.7 265.86,158.91C265.43,159.77 265.1,160.37 264.73,161.1C264.36,161.84 264.07,162.46 263.64,163.32C263.03,164.54 261.78,166.94 261.37,167.74C261.22,168.04 261.2,168.06 261.05,168.35C260.68,169.07 259.8,170.92 259.17,172.15C258.57,173.32 257.78,174.75 257.37,175.55C257.14,175.99 257.09,176.11 256.86,176.57C256.38,177.53 255.18,179.86 254.59,180.98C254.23,181.67 254.03,182.02 253.7,182.65C253.28,183.45 252.83,184.38 252.29,185.39C251.61,186.66 250.73,188.23 249.95,189.68C249.15,191.17 248.23,192.98 247.56,194.22C247.09,195.08 246.74,195.67 246.34,196.41C245.94,197.15 245.63,197.78 245.15,198.64C244.48,199.86 243.47,201.54 242.64499999999998,203.01C241.81,204.48 240.85,206.27 240.17,207.46C239.71,208.26 239.4,208.77 238.99,209.47C238.55,210.24 238.14,210.99 237.61,211.88C236.95,213 235.75,214.92 235.31,215.65C235.13,215.95 235.12,215.98 234.93,216.29C234.44,217.1 232.79,219.78 232.22,220.71C231.96,221.14 231.9,221.23 231.64,221.64C231.14,222.43 230.11,224.09 229.45,225.12C228.91,225.96 228.45,226.64 227.96,227.39C227.49,228.12 227.09,228.75 226.56,229.54C225.9,230.53 224.83,232.04 224.28,232.85C223.96,233.31 223.87,233.47 223.53,233.95C222.86,234.91 221.54,236.75 220.49,238.2C219.38,239.73 218.17,241.37 217.02,242.89499999999998C215.91,244.36 214.31,246.43 213.71,247.19C213.49,247.47 213.47,247.49 213.25,247.76C212.67,248.47 210.76,250.86 210.14,251.61C209.88,251.93 209.84,251.97 209.58,252.28C208.95,253.02 206.98,255.33 206.38,256.02C206.15,256.29 206.14,256.3 205.9,256.57C205.26,257.29 203.55,259.21 202.32,260.53999999999996C201.05,261.92 199.69,263.37 198.41500000000002,264.71000000000004C197.21,265.97 195.67,267.56 194.87,268.36C194.47,268.76 194.35,268.88 193.96,269.26C193.29,269.92 192.01,271.19 191.19,271.99C190.53,272.62 190.01,273.11 189.41,273.68C188.79,274.27 188.22,274.82 187.52,275.47C186.66,276.27 185.27,277.49 184.61,278.09C184.27,278.4 184.19,278.48 183.84,278.8C183.07,279.49 180.84,281.44 180.16,282.04C179.9,282.27 179.87,282.29 179.62,282.51C179.01,283.05 177.41,284.46 176.48,285.26C175.74,285.89 175.12,286.39 174.48,286.92C173.9,287.41 173.48,287.79 172.81,288.34C171.82,289.15 170.33,290.31 169.1,291.30499999999995C167.87,292.3 166.47,293.5 165.45,294.31C164.73,294.88 164.21,295.27 163.6,295.75C162.99,296.23 162.5,296.65 161.78,297.21C160.75,298.01 159.23,299.12 157.995,300.08000000000004C156.78,301.02 155.48,302.08 154.42,302.89C153.58,303.53 152.8,304.08 152.14,304.58C151.62,304.97 151.33,305.21 150.75,305.65C149.82,306.35 147.87,307.8 147.07,308.38C146.69,308.66 146.58,308.72 146.22,308.99C145.55,309.49 144.37,310.43 143.39,311.15C142.37,311.9 140.82,312.96 140.22,313.4C139.98,313.58 139.96,313.6 139.72,313.78C139.06,314.28 137.06,315.77 136.04,316.51C135.32,317.03 134.8,317.38 134.19,317.82C133.58,318.27 133.08,318.66 132.36,319.18C131.35,319.91 129.42,321.27 128.69,321.78C128.39,321.99 128.33,322.02 128.04,322.23C127.4,322.69 126.04,323.74 125.01,324.47C123.97,325.21 122.44,326.22 121.84,326.65C121.6,326.82 121.58,326.84 121.33,327.02C120.67,327.5 118.71,328.92 117.66,329.66C116.88,330.21 116.25,330.61 115.61,331.06C115.03,331.47 114.64,331.78 113.98,332.24C113,332.93 111.15,334.2 110.3,334.78C109.85,335.09 109.68,335.18 109.26,335.47C108.58,335.94 107.59,336.69 106.63,337.35C105.5,338.13 104.11,339 102.875,339.84000000000003C101.66,340.66 100.43,341.56 99.27,342.33C98.21,343.03 96.84,343.88 96.21,344.3C95.93,344.49 95.89,344.53 95.6,344.73C94.89,345.21 93.05,346.41 91.92,347.12C90.98,347.71 89.99,348.29 89.31,348.72C88.87,349 88.71,349.13 88.24,349.42C87.39,349.95 85.71,350.96 84.57,351.61C83.59,352.17 82.48,352.74 81.81,353.13C81.42,353.35 81.31,353.46 80.89,353.68C80.08,354.12 78.44,354.92 77.21,355.47C75.99,356.01 74.69,356.62 73.54,356.97C72.57,357.27 71.47,357.4 70.8,357.55C70.4,357.64 70.16,357.76 69.86,357.76Z" style="stroke-miterlimit: 1; vector-effect: non-scaling-stroke; fill: none; stroke: rgb(112, 77, 54); stroke-opacity: 1; stroke-width: 2px;"/></g><g class="contourlevel"><path class="closedline" d="M80.89,343.64C79.65,343.16 78.2,341.29 77.77,339.89C77.36,338.55 77.93,336.93 78.19,335.47C78.45,333.99 78.89,332.54 79.32,331.06C79.76,329.54 80.29,327.98 80.825,326.49C81.35,325.04 81.91,323.66 82.48,322.23C83.06,320.77 83.94,318.61 84.29,317.82C84.42,317.53 84.44,317.51 84.57,317.22C84.89,316.5 85.63,314.72 86.21,313.4C86.84,311.98 87.56,310.45 88.235,308.975C88.91,307.51 89.6,305.95 90.25,304.58C90.83,303.35 91.55,301.92 91.92,301.12C92.12,300.7 92.16,300.6 92.36,300.16C92.8,299.22 93.87,296.97 94.47,295.75C94.9,294.87 95.24,294.25 95.6,293.5C95.96,292.77 96.22,292.18 96.63,291.33C97.22,290.12 98.39,287.82 98.84,286.92C99.04,286.53 99.08,286.45 99.27,286.07C99.66,285.29 100.42,283.71 101.02,282.51C101.64,281.28 102.57,279.53 102.95,278.78C103.11,278.46 103.13,278.42 103.29,278.09C103.71,277.26 104.9,274.88 105.52,273.68C105.95,272.85 106.26,272.31 106.63,271.59C107.02,270.84 107.33,270.16 107.8,269.26C108.46,267.99 109.44,266.21 110.22999999999999,264.72C110.99,263.27 111.76,261.7 112.44,260.43C112.99,259.39 113.55,258.44 113.98,257.63C114.31,257.02 114.47,256.69 114.83,256.02C115.43,254.91 116.78,252.46 117.25,251.61C117.44,251.26 117.47,251.22 117.66,250.88C118.08,250.12 119.01,248.35 119.65,247.19C120.23,246.15 120.87,245.05 121.33,244.24C121.65,243.67 121.8,243.4 122.15,242.78C122.76,241.7 124.26,239.12 124.7,238.36C124.85,238.1 124.86,238.09 125.01,237.83C125.41,237.13 126.56,235.09 127.23,233.95C127.76,233.05 128.23,232.31 128.69,231.54C129.11,230.84 129.39,230.33 129.87,229.54C130.57,228.39 131.6,226.76 132.49,225.325C133.43,223.82 134.74,221.7 135.37,220.71C135.67,220.24 135.75,220.12 136.04,219.67C136.56,218.87 137.55,217.3 138.21,216.29C138.75,215.46 139.22,214.79 139.72,214.05C140.21,213.32 140.62,212.67 141.16,211.88C141.82,210.91 142.82,209.49 143.39,208.68C143.74,208.18 143.87,207.98 144.24,207.46C144.9,206.52 146.57,204.24 147.07,203.55C147.25,203.3 147.25,203.3 147.43,203.05C147.98,202.31 149.62,200.12 150.755,198.64499999999998C151.91,197.13 153.1,195.58 154.3,194.07C155.49,192.57 156.71,191.08 157.935,189.61C159.16,188.14 160.4,186.69 161.655,185.25C162.91,183.81 164.2,182.38 165.45999999999998,180.985C166.69,179.63 168.51,177.65 169.13,177C169.34,176.78 169.34,176.78 169.55,176.57C170.12,175.98 172.03,173.97 172.81,173.17C173.24,172.73 173.4,172.57 173.82,172.15C174.5,171.47 175.67,170.26 176.48,169.47C177.14,168.83 177.68,168.32 178.29,167.74C178.91,167.14 179.47,166.58 180.16,165.93C181,165.14 182.31,163.94 182.98,163.32C183.35,162.98 183.45,162.88 183.84,162.52C184.66,161.77 186.44,160.19 187.69,159.06C188.88,157.99 190.23,156.76 191.19,155.92C191.84,155.35 192.28,154.99 192.86,154.49C193.5,153.94 194.12,153.39 194.87,152.75C195.82,151.95 197.51,150.56 198.1,150.08C198.32,149.9 198.33,149.89 198.55,149.71C199.19,149.18 201.32,147.37 202.22,146.64C202.73,146.22 202.96,146.05 203.44,145.67C204.12,145.12 205.03,144.34 205.9,143.64C206.86,142.87 208.34,141.74 208.97,141.25C209.25,141.03 209.29,141 209.58,140.77C210.29,140.21 212.32,138.58 213.25,137.86C213.81,137.43 214.09,137.23 214.6,136.84C215.27,136.32 216.07,135.66 216.93,135C217.99,134.19 219.3,133.25 220.5,132.33499999999998C221.75,131.39 223.22,130.21 224.28,129.42C225.03,128.86 225.59,128.48 226.22,128.01C226.82,127.56 227.27,127.19 227.96,126.68C228.96,125.94 230.95,124.51 231.64,124.01C231.91,123.81 231.95,123.79 232.21,123.6C232.83,123.14 234.28,122.03 235.31,121.28C236.31,120.56 237.63,119.65 238.28,119.18C238.6,118.95 238.66,118.9 238.99,118.66C239.74,118.12 241.66,116.72 242.67,116.01C243.37,115.51 243.87,115.2 244.47,114.77C245.09,114.33 245.61,113.93 246.34,113.41C247.36,112.69 249.24,111.41 250.02,110.88C250.38,110.64 250.47,110.59 250.82,110.35C251.48,109.9 252.68,109.03 253.7,108.34C254.84,107.57 256.14,106.74 257.36,105.93C258.59,105.12 259.86,104.26 261.05,103.5C262.14,102.8 263.63,101.91 264.23,101.53C264.47,101.38 264.48,101.35 264.73,101.2C265.39,100.79 267.18,99.72 268.4,99.02C269.59,98.33 270.74,97.66 271.95,97.035C273.19,96.4 274.49,95.75 275.76,95.22C276.98,94.71 278.19,94.18 279.43,93.87C280.64,93.57 282.03,92.94 283.11,93.36C284.35,93.84 285.8,95.71 286.23,97.11C286.64,98.45 286.07,100.07 285.81,101.53C285.55,103.01 285.11,104.46 284.68,105.94C284.24,107.46 283.71,109.02 283.175,110.50999999999999C282.65,111.96 282.09,113.34 281.52,114.77C280.94,116.23 280.06,118.39 279.71,119.18C279.58,119.47 279.56,119.49 279.43,119.78C279.11,120.5 278.37,122.28 277.79,123.6C277.16,125.02 276.44,126.55 275.765,128.02499999999998C275.09,129.49 274.4,131.05 273.75,132.42C273.17,133.65 272.45,135.08 272.08,135.88C271.88,136.3 271.84,136.4 271.64,136.84C271.2,137.78 270.13,140.03 269.53,141.25C269.1,142.13 268.76,142.75 268.4,143.5C268.04,144.23 267.78,144.82 267.37,145.67C266.78,146.88 265.61,149.18 265.16,150.08C264.96,150.47 264.92,150.55 264.73,150.93C264.34,151.71 263.58,153.29 262.98,154.49C262.36,155.72 261.43,157.47 261.05,158.22C260.89,158.54 260.87,158.58 260.71,158.91C260.29,159.74 259.1,162.12 258.48,163.32C258.05,164.15 257.74,164.69 257.37,165.41C256.98,166.16 256.67,166.84 256.2,167.74C255.54,169.01 254.56,170.79 253.76999999999998,172.28C253.01,173.73 252.24,175.3 251.56,176.57C251.01,177.61 250.45,178.56 250.02,179.37C249.69,179.98 249.53,180.31 249.17,180.98C248.57,182.09 247.22,184.54 246.75,185.39C246.56,185.74 246.53,185.78 246.34,186.12C245.92,186.88 244.99,188.65 244.35,189.81C243.77,190.85 243.13,191.95 242.67,192.76C242.35,193.33 242.2,193.6 241.85,194.22C241.24,195.3 239.74,197.88 239.3,198.64C239.15,198.9 239.14,198.91 238.99,199.17C238.59,199.87 237.44,201.91 236.77,203.05C236.24,203.95 235.77,204.69 235.31,205.46C234.89,206.16 234.61,206.67 234.13,207.46C233.43,208.61 232.4,210.24 231.51,211.675C230.57,213.18 229.26,215.3 228.63,216.29C228.33,216.76 228.25,216.88 227.96,217.33C227.44,218.13 226.45,219.7 225.79,220.71C225.25,221.54 224.78,222.21 224.28,222.95C223.79,223.68 223.38,224.33 222.84,225.12C222.18,226.09 221.18,227.51 220.61,228.32C220.26,228.82 220.13,229.02 219.76,229.54C219.1,230.48 217.43,232.76 216.93,233.45C216.75,233.7 216.75,233.7 216.57,233.95C216.02,234.69 214.38,236.88 213.245,238.35500000000002C212.09,239.87 210.9,241.42 209.7,242.93C208.51,244.43 207.29,245.92 206.065,247.39C204.84,248.86 203.6,250.31 202.345,251.75C201.09,253.19 199.8,254.62 198.54000000000002,256.015C197.31,257.37 195.49,259.35 194.87,260C194.66,260.22 194.66,260.22 194.45,260.43C193.88,261.02 191.97,263.03 191.19,263.83C190.76,264.27 190.6,264.43 190.18,264.85C189.5,265.53 188.33,266.74 187.52,267.53C186.86,268.17 186.32,268.68 185.71,269.26C185.09,269.86 184.53,270.42 183.84,271.07C183,271.86 181.69,273.06 181.02,273.68C180.65,274.02 180.55,274.12 180.16,274.48C179.34,275.23 177.56,276.81 176.31,277.94C175.12,279.01 173.77,280.24 172.81,281.08C172.16,281.65 171.72,282.01 171.14,282.51C170.5,283.06 169.88,283.61 169.13,284.25C168.18,285.05 166.49,286.44 165.9,286.92C165.68,287.1 165.67,287.11 165.45,287.29C164.81,287.82 162.68,289.63 161.78,290.36C161.27,290.78 161.04,290.95 160.56,291.33C159.88,291.88 158.97,292.66 158.1,293.36C157.14,294.13 155.66,295.26 155.03,295.75C154.75,295.97 154.71,296 154.42,296.23C153.71,296.79 151.68,298.42 150.75,299.14C150.19,299.57 149.91,299.77 149.4,300.16C148.73,300.68 147.93,301.34 147.07,302C146.01,302.81 144.7,303.75 143.5,304.66499999999996C142.25,305.61 140.78,306.79 139.72,307.58C138.97,308.14 138.41,308.52 137.78,308.99C137.18,309.44 136.73,309.81 136.04,310.32C135.04,311.06 133.05,312.49 132.36,312.99C132.09,313.19 132.05,313.21 131.79,313.4C131.17,313.86 129.72,314.97 128.69,315.72C127.69,316.44 126.37,317.35 125.72,317.82C125.4,318.05 125.34,318.1 125.01,318.34C124.26,318.88 122.34,320.28 121.33,320.99C120.63,321.49 120.13,321.8 119.53,322.23C118.91,322.67 118.39,323.07 117.66,323.59C116.64,324.31 114.76,325.59 113.98,326.12C113.62,326.36 113.53,326.41 113.18,326.65C112.52,327.1 111.32,327.97 110.3,328.66C109.16,329.43 107.86,330.26 106.64,331.07C105.41,331.88 104.14,332.74 102.95,333.5C101.86,334.2 100.37,335.09 99.77,335.47C99.53,335.62 99.52,335.65 99.27,335.8C98.61,336.21 96.82,337.28 95.6,337.98C94.41,338.67 93.26,339.34 92.05000000000001,339.96500000000003C90.81,340.6 89.51,341.25 88.24,341.78C87.02,342.29 85.81,342.82 84.57,343.13C83.36,343.43 81.97,344.06 80.89,343.64Z" style="stroke-miterlimit: 1; vector-effect: non-scaling-stroke; fill: none; stroke: rgb(138, 93, 57); stroke-opacity: 1; stroke-width: 2px;"/></g><g class="contourlevel"><path class="closedline" d="M91.92,331.64C91.13,331.62 90.28,331.45 89.66,331.06C89.06,330.68 88.56,330.04 88.24,329.36C87.89,328.6 87.77,327.6 87.76,326.65C87.75,325.62 88.12,324.21 88.24,323.4C88.31,322.91 88.3,322.74 88.41,322.23C88.63,321.22 89.27,319.29 89.74,317.82C90.22,316.34 90.85,314.5 91.27,313.4C91.52,312.73 91.68,312.42 91.92,311.81C92.24,311 92.6,310.03 93.03,308.99C93.57,307.68 94.42,305.67 94.9,304.58C95.18,303.94 95.33,303.64 95.6,303.05C95.96,302.24 96.39,301.22 96.87,300.16C97.47,298.84 98.52,296.6 98.92,295.75C99.08,295.41 99.11,295.36 99.27,295.03C99.63,294.28 100.4,292.6 101.01,291.33C101.66,289.98 102.36,288.59 103.065,287.165C103.81,285.66 104.69,283.82 105.35,282.51C105.83,281.55 106.24,280.81 106.63,280.03C106.98,279.35 107.2,278.87 107.59,278.09C108.18,276.92 109.41,274.56 109.87,273.68C110.07,273.3 110.11,273.24 110.3,272.87C110.7,272.1 111.53,270.44 112.15,269.26C112.76,268.11 113.56,266.67 113.98,265.87C114.21,265.43 114.27,265.31 114.51,264.85C115.02,263.89 116.3,261.49 116.88,260.43C117.21,259.83 117.36,259.59 117.66,259.03C118.1,258.22 118.69,257.07 119.27,256.02C119.91,254.86 120.9,253.14 121.33,252.38C121.53,252.03 121.56,251.97 121.76,251.61C122.25,250.74 123.64,248.23 124.24,247.19C124.57,246.62 124.7,246.41 125.01,245.88C125.48,245.07 126.16,243.82 126.77,242.78C127.39,241.72 128.21,240.39 128.69,239.57C128.98,239.07 129.07,238.89 129.39,238.36C130.01,237.31 131.3,235.22 132.215,233.70999999999998C133.08,232.28 134.05,230.68 134.76,229.54C135.26,228.74 135.6,228.22 136.04,227.52C136.52,226.75 137,225.98 137.55,225.12C138.2,224.11 139.19,222.64 139.72,221.83C140.03,221.36 140.12,221.2 140.45,220.71C141.1,219.73 142.42,217.8 143.42,216.33499999999998C144.43,214.85 145.87,212.77 146.49,211.88C146.76,211.5 146.81,211.44 147.07,211.07C147.62,210.3 148.97,208.39 149.65,207.46C150.09,206.86 150.32,206.56 150.75,205.99C151.36,205.18 152.28,203.93 152.94,203.05C153.48,202.34 153.89,201.8 154.42,201.12C155.02,200.34 155.73,199.44 156.36,198.64C156.95,197.89 157.51,197.2 158.1,196.47C158.7,195.73 159.32,194.96 159.93,194.22C160.54,193.48 161.16,192.74 161.78,192.01C162.4,191.27 163.03,190.53 163.65,189.81C164.25,189.1 164.83,188.43 165.45,187.72C166.12,186.96 166.88,186.11 167.53,185.39C168.1,184.76 168.54,184.26 169.13,183.61C169.86,182.82 170.9,181.71 171.58,180.98C172.06,180.46 172.31,180.19 172.81,179.66C173.59,178.84 175.17,177.24 175.81,176.57C176.11,176.25 176.16,176.19 176.48,175.87C177.22,175.12 178.96,173.4 180.195,172.185C181.41,170.98 183.02,169.41 183.84,168.62C184.25,168.23 184.38,168.11 184.77,167.74C185.44,167.1 186.67,165.93 187.52,165.14C188.24,164.48 188.88,163.9 189.52,163.32C190.1,162.79 190.53,162.37 191.19,161.78C192.13,160.93 193.48,159.78 194.67000000000002,158.735C195.93,157.63 197.68,156.09 198.55,155.34C198.99,154.96 199.14,154.84 199.55,154.49C200.23,153.91 201.33,152.93 202.22,152.19C203.08,151.47 204.12,150.64 204.8,150.08C205.24,149.71 205.42,149.55 205.9,149.16C206.77,148.45 208.86,146.76 209.58,146.18C209.88,145.94 209.93,145.9 210.22,145.67C210.86,145.16 212.28,143.97 213.25,143.2C214.12,142.51 215.08,141.78 215.76,141.25C216.22,140.88 216.43,140.71 216.93,140.32C217.81,139.63 219.81,138.09 220.61,137.48C220.99,137.19 221.1,137.12 221.46,136.84C222.13,136.33 223.32,135.37 224.28,134.64C225.26,133.89 226.65,132.9 227.29,132.42C227.59,132.19 227.65,132.15 227.96,131.91C228.69,131.36 230.66,129.89 231.64,129.17C232.29,128.7 232.69,128.43 233.26,128.01C233.91,127.54 234.51,127.06 235.31,126.48C236.4,125.69 237.94,124.63 239.195,123.74C240.39,122.9 241.54,122.05 242.67,121.27C243.72,120.54 245.11,119.61 245.74,119.18C246.02,118.99 246.05,118.96 246.34,118.76C247.04,118.28 248.92,117.02 250.02,116.3C250.9,115.72 251.76,115.21 252.43,114.77C252.92,114.45 253.16,114.27 253.7,113.93C254.6,113.36 256.28,112.33 257.37,111.69C258.24,111.18 259.06,110.74 259.73,110.35C260.23,110.06 260.49,109.87 261.05,109.57C261.96,109.07 263.5,108.31 264.73,107.73C265.95,107.16 267.56,106.41 268.4,106.14C268.82,106.01 268.97,106.03 269.38,105.94C270.06,105.8 271.22,105.34 272.08,105.36C272.87,105.38 273.72,105.55 274.34,105.94C274.94,106.32 275.44,106.96 275.76,107.64C276.11,108.4 276.23,109.4 276.24,110.35C276.25,111.38 275.88,112.79 275.76,113.6C275.69,114.09 275.7,114.26 275.59,114.77C275.37,115.78 274.73,117.71 274.26,119.18C273.78,120.66 273.15,122.5 272.73,123.6C272.48,124.27 272.32,124.58 272.08,125.19C271.76,126 271.4,126.97 270.97,128.01C270.43,129.32 269.58,131.33 269.1,132.42C268.82,133.06 268.67,133.36 268.4,133.95C268.04,134.76 267.61,135.78 267.13,136.84C266.53,138.16 265.48,140.4 265.08,141.25C264.92,141.59 264.89,141.64 264.73,141.97C264.37,142.72 263.6,144.4 262.99,145.67C262.34,147.02 261.64,148.41 260.935,149.835C260.19,151.34 259.31,153.18 258.65,154.49C258.17,155.45 257.76,156.19 257.37,156.97C257.02,157.65 256.8,158.13 256.41,158.91C255.82,160.08 254.59,162.44 254.13,163.32C253.93,163.7 253.89,163.76 253.7,164.13C253.3,164.9 252.47,166.56 251.85,167.74C251.24,168.89 250.44,170.33 250.02,171.13C249.79,171.57 249.73,171.69 249.49,172.15C248.98,173.11 247.7,175.51 247.12,176.57C246.79,177.17 246.64,177.41 246.34,177.97C245.9,178.78 245.31,179.93 244.73,180.98C244.09,182.14 243.1,183.86 242.67,184.62C242.47,184.97 242.44,185.03 242.24,185.39C241.75,186.26 240.36,188.77 239.76,189.81C239.43,190.38 239.3,190.59 238.99,191.12C238.52,191.93 237.84,193.18 237.23,194.22C236.61,195.28 235.79,196.61 235.31,197.43C235.02,197.93 234.93,198.11 234.61,198.64C233.99,199.69 232.7,201.78 231.785,203.29000000000002C230.92,204.72 229.95,206.32 229.24,207.46C228.74,208.26 228.4,208.78 227.96,209.48C227.48,210.25 227,211.02 226.45,211.88C225.8,212.89 224.81,214.36 224.28,215.17C223.97,215.64 223.88,215.8 223.55,216.29C222.9,217.27 221.58,219.2 220.58,220.66500000000002C219.57,222.15 218.13,224.23 217.51,225.12C217.24,225.5 217.19,225.56 216.93,225.93C216.38,226.7 215.03,228.61 214.35,229.54C213.91,230.14 213.68,230.44 213.25,231.01C212.64,231.82 211.72,233.07 211.06,233.95C210.52,234.66 210.11,235.2 209.58,235.88C208.98,236.66 208.27,237.56 207.64,238.36C207.05,239.11 206.49,239.8 205.9,240.53C205.3,241.27 204.68,242.04 204.07,242.78C203.46,243.52 202.84,244.26 202.22,244.99C201.6,245.73 200.97,246.47 200.35,247.19C199.75,247.9 199.17,248.57 198.55,249.28C197.88,250.04 197.12,250.89 196.47,251.61C195.9,252.24 195.46,252.74 194.87,253.39C194.14,254.18 193.1,255.29 192.42,256.02C191.94,256.54 191.69,256.81 191.19,257.34C190.41,258.16 188.83,259.76 188.19,260.43C187.89,260.75 187.84,260.81 187.52,261.13C186.78,261.88 185.04,263.6 183.805,264.815C182.59,266.02 180.98,267.59 180.16,268.38C179.75,268.77 179.62,268.89 179.23,269.26C178.56,269.9 177.33,271.07 176.48,271.86C175.76,272.52 175.12,273.1 174.48,273.68C173.9,274.21 173.47,274.63 172.81,275.22C171.87,276.07 170.52,277.22 169.32999999999998,278.265C168.07,279.37 166.32,280.91 165.45,281.66C165.01,282.04 164.86,282.16 164.45,282.51C163.77,283.09 162.67,284.07 161.78,284.81C160.92,285.53 159.88,286.36 159.2,286.92C158.76,287.29 158.58,287.45 158.1,287.84C157.23,288.55 155.14,290.24 154.42,290.82C154.12,291.06 154.07,291.1 153.78,291.33C153.14,291.84 151.72,293.03 150.75,293.8C149.88,294.49 148.92,295.22 148.24,295.75C147.78,296.12 147.57,296.29 147.07,296.68C146.19,297.37 144.19,298.91 143.39,299.52C143.01,299.81 142.9,299.88 142.54,300.16C141.87,300.67 140.68,301.63 139.72,302.36C138.74,303.11 137.35,304.1 136.71,304.58C136.41,304.81 136.35,304.85 136.04,305.09C135.31,305.64 133.34,307.11 132.36,307.83C131.71,308.3 131.31,308.57 130.74,308.99C130.09,309.46 129.49,309.94 128.69,310.52C127.6,311.31 126.06,312.37 124.805,313.26C123.61,314.1 122.46,314.95 121.33,315.73C120.28,316.46 118.89,317.39 118.26,317.82C117.98,318.01 117.95,318.04 117.66,318.24C116.96,318.72 115.08,319.98 113.98,320.7C113.1,321.28 112.24,321.79 111.57,322.23C111.08,322.55 110.84,322.73 110.3,323.07C109.4,323.64 107.72,324.67 106.63,325.31C105.76,325.82 104.94,326.26 104.27,326.65C103.77,326.94 103.51,327.13 102.95,327.43C102.04,327.93 100.5,328.69 99.27,329.27C98.05,329.84 96.44,330.59 95.6,330.86C95.18,330.99 95.03,330.97 94.62,331.06C93.94,331.2 92.78,331.66 91.92,331.64Z" style="stroke-miterlimit: 1; vector-effect: non-scaling-stroke; fill: none; stroke: rgb(161, 112, 59); stroke-opacity: 1; stroke-width: 2px;"/></g><g class="contourlevel"><path class="closedline" d="M99.27,320.46C98.31,320.03 97.45,318.9 97.07,317.82C96.64,316.6 96.96,314.86 97.14,313.4C97.32,311.92 97.78,310.36 98.16,308.99C98.5,307.78 99.01,306.39 99.27,305.59C99.41,305.15 99.43,305.03 99.59,304.58C99.93,303.62 100.73,301.61 101.31,300.16C101.88,298.75 102.44,297.42 103.05000000000001,296C103.7,294.48 104.49,292.73 105.13,291.33C105.66,290.17 106.25,288.96 106.63,288.15C106.86,287.65 106.94,287.46 107.19,286.92C107.67,285.9 108.72,283.69 109.3,282.51C109.69,281.72 109.95,281.23 110.3,280.53C110.68,279.76 111.03,279.03 111.5,278.09C112.15,276.79 113.09,274.97 113.86500000000001,273.46000000000004C114.6,272.03 115.34,270.54 116.02,269.26C116.6,268.16 117.23,267.04 117.66,266.22C117.95,265.67 118.06,265.43 118.37,264.85C118.93,263.79 120.23,261.39 120.76,260.43C121.01,259.97 121.09,259.85 121.33,259.41C121.77,258.61 122.56,257.13 123.18,256.02C123.79,254.93 124.55,253.62 125.01,252.81C125.29,252.31 125.38,252.13 125.68,251.61C126.25,250.6 127.71,248.06 128.22,247.19C128.44,246.82 128.48,246.76 128.69,246.4C129.14,245.63 130.14,243.88 130.79,242.78C131.35,241.84 131.88,240.97 132.36,240.18C132.76,239.52 133,239.09 133.45,238.36C134.14,237.23 135.22,235.52 136.12,234.075C137.05,232.58 138.31,230.55 138.96,229.54C139.29,229.02 139.4,228.87 139.72,228.38C140.25,227.57 141.17,226.12 141.82,225.12C142.38,224.27 142.88,223.53 143.39,222.77C143.86,222.06 144.25,221.48 144.77,220.71C145.44,219.73 146.51,218.21 147.07,217.4C147.4,216.93 147.5,216.78 147.84,216.29C148.52,215.33 149.83,213.51 150.88,212.065C151.99,210.54 153.21,208.9 154.355,207.37C155.46,205.9 157.07,203.81 157.66,203.05C157.87,202.77 157.89,202.76 158.1,202.49C158.66,201.78 160.55,199.42 161.18,198.64C161.46,198.3 161.5,198.25 161.78,197.91C162.41,197.15 164.22,194.97 164.85,194.22C165.13,193.89 165.17,193.84 165.45,193.51C166.1,192.76 168.08,190.49 168.67,189.81C168.89,189.55 168.9,189.54 169.13,189.28C169.76,188.57 171.5,186.65 172.735,185.31C174,183.93 175.36,182.48 176.635,181.14C177.83,179.88 179.36,178.3 180.16,177.49C180.56,177.08 180.69,176.96 181.08,176.57C181.75,175.9 183.03,174.61 183.84,173.81C184.48,173.18 184.97,172.72 185.56,172.15C186.19,171.54 186.81,170.93 187.52,170.26C188.35,169.48 189.56,168.37 190.23,167.74C190.63,167.36 190.76,167.23 191.19,166.83C192.03,166.05 193.73,164.53 194.97500000000002,163.415C196.18,162.33 197.61,161.04 198.55,160.21C199.16,159.68 199.51,159.38 200.06,158.91C200.72,158.34 201.44,157.69 202.22,157.02C203.14,156.23 204.6,155.03 205.24,154.49C205.54,154.24 205.59,154.2 205.9,153.94C206.63,153.33 208.74,151.58 209.58,150.89C210.02,150.53 210.17,150.42 210.58,150.08C211.26,149.53 212.34,148.61 213.25,147.88C214.17,147.14 215.41,146.2 216.08,145.67C216.45,145.38 216.55,145.29 216.93,144.98C217.72,144.35 219.73,142.78 220.61,142.11C221.1,141.74 221.3,141.6 221.75,141.25C222.43,140.73 223.36,139.98 224.28,139.29C225.35,138.48 226.58,137.58 227.78,136.7C229.03,135.77 230.56,134.64 231.64,133.86C232.42,133.3 233.03,132.88 233.67,132.42C234.25,132.01 234.65,131.7 235.31,131.23C236.29,130.54 238.14,129.25 238.99,128.68C239.43,128.38 239.59,128.29 240.01,128.01C240.69,127.56 241.7,126.85 242.67,126.21C243.84,125.44 245.29,124.51 246.55,123.72C247.73,122.98 248.84,122.31 250.02,121.63C251.22,120.93 252.9,119.98 253.7,119.57C254.07,119.38 254.18,119.35 254.54,119.18C255.21,118.87 256.35,118.25 257.37,117.84C258.5,117.39 259.81,116.83 261.05,116.62C262.26,116.41 263.74,116.09 264.73,116.54C265.69,116.97 266.55,118.1 266.93,119.18C267.36,120.4 267.04,122.14 266.86,123.6C266.68,125.08 266.22,126.64 265.84,128.01C265.5,129.22 264.99,130.61 264.73,131.41C264.59,131.85 264.57,131.97 264.41,132.42C264.07,133.38 263.27,135.39 262.69,136.84C262.12,138.25 261.56,139.58 260.95000000000005,141C260.3,142.52 259.51,144.27 258.87,145.67C258.34,146.83 257.75,148.04 257.37,148.85C257.14,149.35 257.06,149.54 256.81,150.08C256.33,151.1 255.28,153.31 254.7,154.49C254.31,155.28 254.05,155.77 253.7,156.47C253.32,157.24 252.97,157.97 252.5,158.91C251.85,160.21 250.91,162.03 250.135,163.54C249.4,164.97 248.66,166.46 247.98,167.74C247.4,168.84 246.77,169.96 246.34,170.78C246.05,171.33 245.94,171.57 245.63,172.15C245.07,173.21 243.77,175.61 243.24,176.57C242.99,177.03 242.91,177.15 242.67,177.59C242.23,178.39 241.44,179.87 240.82,180.98C240.21,182.07 239.45,183.38 238.99,184.19C238.71,184.69 238.62,184.87 238.32,185.39C237.75,186.4 236.29,188.94 235.78,189.81C235.56,190.18 235.52,190.24 235.31,190.6C234.86,191.37 233.86,193.12 233.21,194.22C232.65,195.16 232.12,196.03 231.64,196.82C231.24,197.48 231,197.91 230.55,198.64C229.86,199.77 228.78,201.48 227.88,202.925C226.95,204.42 225.69,206.45 225.04,207.46C224.71,207.98 224.6,208.13 224.28,208.62C223.75,209.43 222.83,210.88 222.18,211.88C221.62,212.73 221.12,213.47 220.61,214.23C220.14,214.94 219.75,215.52 219.23,216.29C218.56,217.27 217.49,218.79 216.93,219.6C216.6,220.07 216.5,220.22 216.16,220.71C215.48,221.67 214.17,223.49 213.12,224.935C212.01,226.46 210.79,228.1 209.645,229.63C208.54,231.1 206.93,233.19 206.34,233.95C206.13,234.23 206.11,234.24 205.9,234.51C205.34,235.22 203.45,237.58 202.82,238.36C202.54,238.7 202.5,238.75 202.22,239.09C201.59,239.85 199.78,242.03 199.15,242.78C198.87,243.11 198.83,243.16 198.55,243.49C197.9,244.24 195.92,246.51 195.33,247.19C195.11,247.45 195.1,247.46 194.87,247.72C194.24,248.43 192.5,250.35 191.265,251.69C190,253.07 188.64,254.52 187.365,255.85999999999999C186.17,257.12 184.64,258.7 183.84,259.51C183.44,259.92 183.31,260.04 182.92,260.43C182.25,261.1 180.97,262.39 180.16,263.19C179.52,263.82 179.03,264.28 178.44,264.85C177.81,265.46 177.19,266.07 176.48,266.74C175.65,267.52 174.44,268.63 173.77,269.26C173.37,269.64 173.24,269.77 172.81,270.17C171.97,270.95 170.27,272.47 169.02499999999998,273.58500000000004C167.82,274.67 166.39,275.96 165.45,276.79C164.84,277.32 164.49,277.62 163.94,278.09C163.28,278.66 162.56,279.31 161.78,279.98C160.86,280.77 159.4,281.97 158.76,282.51C158.46,282.76 158.41,282.8 158.1,283.06C157.37,283.67 155.26,285.42 154.42,286.11C153.98,286.47 153.83,286.58 153.42,286.92C152.74,287.47 151.66,288.39 150.75,289.12C149.83,289.86 148.59,290.8 147.92,291.33C147.55,291.62 147.45,291.71 147.07,292.02C146.28,292.65 144.27,294.22 143.39,294.89C142.9,295.26 142.7,295.4 142.25,295.75C141.57,296.27 140.64,297.02 139.72,297.71C138.65,298.52 137.42,299.42 136.22,300.3C134.97,301.23 133.44,302.36 132.36,303.14C131.58,303.7 130.97,304.12 130.33,304.58C129.75,304.99 129.35,305.3 128.69,305.77C127.71,306.46 125.86,307.75 125.01,308.32C124.57,308.62 124.41,308.71 123.99,308.99C123.31,309.44 122.3,310.15 121.33,310.79C120.16,311.56 118.71,312.49 117.44999999999999,313.28C116.27,314.02 115.16,314.69 113.98,315.37C112.78,316.07 111.1,317.02 110.3,317.43C109.93,317.62 109.82,317.65 109.46,317.82C108.79,318.13 107.65,318.75 106.63,319.16C105.5,319.61 104.19,320.17 102.95,320.38C101.74,320.59 100.26,320.91 99.27,320.46Z" style="stroke-miterlimit: 1; vector-effect: non-scaling-stroke; fill: none; stroke: rgb(180, 134, 64); stroke-opacity: 1; stroke-width: 2px;"/></g><g class="contourlevel"><path class="closedline" d="M106.63,309.97C106.19,309.73 106.02,309.48 105.81,308.99C105.43,308.08 105.31,306.05 105.37,304.58C105.43,303.1 105.93,301.18 106.2,300.16C106.35,299.6 106.46,299.4 106.63,298.88C106.9,298.07 107.25,296.88 107.64,295.75C108.11,294.4 108.8,292.57 109.3,291.33C109.66,290.42 109.98,289.75 110.3,288.99C110.6,288.28 110.81,287.74 111.16,286.92C111.68,285.72 112.61,283.64 113.14,282.51C113.47,281.79 113.67,281.41 113.98,280.76C114.36,279.96 114.75,279.1 115.24,278.09C115.89,276.75 116.78,274.94 117.53,273.435C118.24,272 118.97,270.56 119.64,269.26C120.23,268.12 120.9,266.88 121.33,266.07C121.59,265.57 121.68,265.38 121.96,264.85C122.49,263.83 123.78,261.44 124.33,260.43C124.62,259.9 124.73,259.72 125.01,259.22C125.46,258.41 126.16,257.1 126.76,256.02C127.38,254.9 128.24,253.43 128.69,252.63C128.94,252.19 129,252.07 129.26,251.61C129.8,250.65 131.27,248.11 131.81,247.19C132.06,246.77 132.12,246.68 132.36,246.27C132.83,245.48 133.77,243.86 134.42,242.78C134.99,241.83 135.56,240.93 136.04,240.13C136.43,239.48 136.67,239.08 137.11,238.36C137.8,237.24 138.89,235.53 139.805,234.08999999999997C140.75,232.6 142.08,230.52 142.71,229.54C143.01,229.07 143.1,228.95 143.39,228.51C143.92,227.71 144.96,226.11 145.63,225.12C146.16,224.33 146.58,223.73 147.07,223.01C147.58,222.26 148.07,221.52 148.64,220.71C149.29,219.78 150.18,218.55 150.75,217.73C151.15,217.16 151.34,216.88 151.76,216.29C152.43,215.35 153.85,213.43 154.42,212.66C154.68,212.3 154.73,212.24 155,211.88C155.64,211.03 157.11,209.06 158.225,207.625C159.38,206.13 160.6,204.59 161.805,203.085C163.01,201.59 164.22,200.1 165.445,198.63C166.67,197.16 167.91,195.7 169.16,194.255C170.41,192.81 171.7,191.35 172.945,189.96C174.14,188.63 175.77,186.86 176.48,186.09C176.79,185.76 176.84,185.71 177.14,185.39C177.78,184.71 179.38,183.01 180.16,182.2C180.65,181.69 180.89,181.46 181.36,180.98C182.04,180.29 183.06,179.23 183.84,178.45C184.51,177.77 185.13,177.18 185.75,176.57C186.35,175.98 186.86,175.47 187.52,174.83C188.35,174.03 189.67,172.78 190.34,172.15C190.71,171.8 190.8,171.7 191.19,171.34C192,170.58 193.74,168.99 194.985,167.845C196.19,166.74 197.62,165.44 198.55,164.61C199.14,164.08 199.48,163.79 200.02,163.32C200.68,162.74 201.43,162.05 202.22,161.37C203.12,160.59 204.47,159.47 205.13,158.91C205.47,158.62 205.55,158.55 205.9,158.25C206.67,157.6 208.78,155.84 209.58,155.18C209.96,154.87 210.06,154.79 210.43,154.49C211.1,153.95 212.32,152.93 213.25,152.18C214.15,151.46 215.23,150.62 215.91,150.08C216.33,149.74 216.48,149.61 216.93,149.26C217.77,148.6 219.76,147.06 220.61,146.42C221.05,146.09 221.2,145.98 221.62,145.67C222.3,145.16 223.33,144.35 224.28,143.64C225.36,142.84 226.56,141.96 227.755,141.1C229.01,140.2 230.52,139.13 231.64,138.35C232.48,137.77 233.2,137.29 233.86,136.84C234.4,136.47 234.71,136.23 235.31,135.83C236.25,135.2 237.99,134.08 238.99,133.46C239.67,133.04 240.13,132.78 240.72,132.42C241.35,132.04 241.91,131.66 242.67,131.22C243.69,130.63 245.21,129.8 246.34,129.23C247.28,128.76 248.27,128.33 248.95,128.01C249.39,127.8 249.55,127.68 250.02,127.5C250.87,127.18 252.47,126.58 253.7,126.5C254.92,126.43 256.62,126.61 257.37,127.03C257.81,127.27 257.98,127.52 258.19,128.01C258.57,128.92 258.69,130.95 258.63,132.42C258.57,133.9 258.07,135.82 257.8,136.84C257.65,137.4 257.54,137.6 257.37,138.12C257.1,138.93 256.75,140.12 256.36,141.25C255.89,142.6 255.2,144.43 254.7,145.67C254.34,146.58 254.02,147.25 253.7,148.01C253.4,148.72 253.19,149.26 252.84,150.08C252.32,151.28 251.39,153.36 250.86,154.49C250.53,155.21 250.33,155.59 250.02,156.24C249.64,157.04 249.25,157.9 248.76,158.91C248.11,160.25 247.22,162.06 246.47,163.565C245.76,165 245.03,166.44 244.36,167.74C243.77,168.88 243.1,170.12 242.67,170.93C242.41,171.43 242.32,171.62 242.04,172.15C241.51,173.17 240.22,175.56 239.67,176.57C239.38,177.1 239.27,177.28 238.99,177.78C238.54,178.59 237.84,179.9 237.24,180.98C236.62,182.1 235.76,183.57 235.31,184.37C235.06,184.81 235,184.93 234.74,185.39C234.2,186.35 232.73,188.89 232.19,189.81C231.94,190.23 231.88,190.32 231.64,190.73C231.17,191.52 230.23,193.14 229.58,194.22C229.01,195.17 228.44,196.07 227.96,196.87C227.57,197.52 227.33,197.92 226.89,198.64C226.2,199.76 225.11,201.47 224.195,202.91000000000003C223.25,204.4 221.92,206.48 221.29,207.46C220.99,207.93 220.9,208.05 220.61,208.49C220.08,209.29 219.04,210.89 218.37,211.88C217.84,212.67 217.42,213.27 216.93,213.99C216.42,214.74 215.93,215.48 215.36,216.29C214.71,217.22 213.82,218.45 213.25,219.27C212.85,219.84 212.66,220.12 212.24,220.71C211.57,221.65 210.15,223.57 209.58,224.34C209.32,224.7 209.27,224.76 209,225.12C208.36,225.97 206.89,227.94 205.775,229.375C204.62,230.87 203.4,232.41 202.195,233.915C200.99,235.41 199.78,236.9 198.555,238.37C197.33,239.84 196.09,241.3 194.84,242.745C193.59,244.19 192.3,245.65 191.055,247.04C189.86,248.37 188.23,250.14 187.52,250.91C187.21,251.24 187.16,251.29 186.86,251.61C186.22,252.29 184.62,253.99 183.84,254.8C183.35,255.31 183.11,255.54 182.64,256.02C181.96,256.71 180.94,257.77 180.16,258.55C179.49,259.23 178.87,259.82 178.25,260.43C177.65,261.02 177.14,261.53 176.48,262.17C175.65,262.97 174.33,264.22 173.66,264.85C173.29,265.2 173.2,265.3 172.81,265.66C172,266.42 170.26,268.01 169.015,269.155C167.81,270.26 166.38,271.56 165.45,272.39C164.86,272.92 164.52,273.21 163.98,273.68C163.32,274.26 162.57,274.95 161.78,275.63C160.88,276.41 159.53,277.53 158.87,278.09C158.53,278.38 158.45,278.45 158.1,278.75C157.33,279.4 155.22,281.16 154.42,281.82C154.04,282.13 153.94,282.21 153.57,282.51C152.9,283.05 151.68,284.07 150.75,284.82C149.85,285.54 148.77,286.38 148.09,286.92C147.67,287.26 147.52,287.39 147.07,287.74C146.23,288.4 144.24,289.94 143.39,290.58C142.95,290.91 142.8,291.02 142.38,291.33C141.7,291.84 140.67,292.65 139.72,293.36C138.64,294.16 137.44,295.04 136.245,295.9C134.99,296.8 133.48,297.87 132.36,298.65C131.52,299.23 130.8,299.71 130.14,300.16C129.6,300.53 129.29,300.77 128.69,301.17C127.75,301.8 126.01,302.92 125.01,303.54C124.33,303.96 123.87,304.22 123.28,304.58C122.65,304.96 122.09,305.34 121.33,305.78C120.31,306.37 118.79,307.2 117.66,307.77C116.72,308.24 115.73,308.67 115.05,308.99C114.61,309.2 114.45,309.32 113.98,309.5C113.13,309.82 111.53,310.42 110.3,310.5C109.08,310.57 107.38,310.39 106.63,309.97Z" style="stroke-miterlimit: 1; vector-effect: non-scaling-stroke; fill: none; stroke: rgb(195, 160, 78); stroke-opacity: 1; stroke-width: 2px;"/></g><g class="contourlevel"><path class="closedline" d="M117.66,301.01C116.46,301 114.78,300.89 114.03999999999999,300.09000000000003C113.23,299.22 113.28,297.2 113.27,295.75C113.26,294.31 113.64,292.87 113.995,291.42999999999995C114.37,289.93 114.97,288.41 115.49,286.92C116.01,285.44 116.72,283.51 117.13,282.51C117.35,281.98 117.44,281.81 117.66,281.31C118.01,280.5 118.53,279.24 119.04,278.09C119.64,276.73 120.67,274.47 121.04,273.68C121.18,273.39 121.19,273.37 121.33,273.09C121.68,272.37 122.58,270.51 123.2,269.26C123.8,268.05 124.62,266.49 125.01,265.71C125.2,265.33 125.24,265.25 125.44,264.85C125.9,263.95 127.16,261.55 127.76,260.43C128.13,259.73 128.35,259.38 128.69,258.75C129.13,257.95 129.61,257.02 130.16,256.02C130.85,254.78 131.69,253.29 132.505,251.865C133.37,250.35 134.54,248.3 135.19,247.19C135.55,246.58 135.71,246.33 136.04,245.77C136.53,244.96 137.21,243.78 137.82,242.78C138.44,241.76 139.22,240.51 139.72,239.69C140.05,239.16 140.18,238.93 140.53,238.36C141.18,237.31 142.41,235.37 143.355,233.89499999999998C144.29,232.43 145.5,230.57 146.18,229.54C146.56,228.97 146.71,228.75 147.07,228.21C147.62,227.39 148.49,226.07 149.14,225.12C149.71,224.29 150.23,223.56 150.75,222.81C151.25,222.09 151.67,221.48 152.21,220.71C152.87,219.78 153.83,218.44 154.42,217.62C154.81,217.08 154.98,216.84 155.38,216.29C156.05,215.37 157.53,213.4 158.1,212.64C158.36,212.29 158.41,212.24 158.68,211.88C159.32,211.04 160.82,209.08 161.935,207.66000000000003C163.1,206.18 164.32,204.65 165.54,203.16000000000003C166.75,201.68 167.98,200.2 169.22,198.745C170.46,197.29 171.74,195.81 172.975,194.41C174.16,193.07 175.78,191.27 176.48,190.5C176.78,190.17 176.83,190.12 177.12,189.81C177.76,189.12 179.39,187.36 180.16,186.55C180.62,186.06 180.82,185.86 181.27,185.39C181.95,184.68 183.06,183.52 183.84,182.73C184.48,182.08 184.99,181.58 185.59,180.98C186.22,180.35 186.83,179.73 187.52,179.05C188.31,178.27 189.41,177.23 190.09,176.57C190.53,176.14 190.71,175.95 191.19,175.5C192.05,174.68 193.6,173.24 194.825,172.11C196.06,170.97 197.67,169.5 198.55,168.71C199.02,168.29 199.21,168.13 199.65,167.74C200.33,167.14 201.37,166.19 202.22,165.45C203.06,164.72 204.04,163.9 204.72,163.32C205.19,162.92 205.39,162.73 205.9,162.3C206.82,161.52 208.53,160.11 209.79000000000002,159.07999999999998C210.97,158.11 212.21,157.1 213.25,156.27C214.08,155.61 214.85,155.01 215.52,154.49C216.05,154.08 216.35,153.83 216.93,153.38C217.87,152.66 219.86,151.16 220.61,150.6C220.94,150.36 221,150.31 221.32,150.08C221.97,149.6 223.27,148.63 224.28,147.91C225.32,147.16 226.87,146.09 227.47,145.67C227.71,145.5 227.72,145.49 227.96,145.32C228.61,144.87 230.51,143.63 231.64,142.91C232.6,142.3 233.63,141.67 234.31,141.25C234.72,140.99 234.87,140.88 235.31,140.62C236.14,140.13 237.75,139.28 238.99,138.65C240.23,138.02 241.49,137.31 242.75,136.86C243.94,136.44 245.14,135.98 246.34,135.99C247.54,136 249.22,136.11 249.96,136.91C250.77,137.78 250.72,139.8 250.73,141.25C250.74,142.69 250.36,144.13 250.005,145.57C249.63,147.07 249.03,148.59 248.51,150.08C247.99,151.56 247.28,153.49 246.87,154.49C246.65,155.02 246.56,155.19 246.34,155.69C245.99,156.5 245.47,157.76 244.96,158.91C244.36,160.27 243.33,162.53 242.96,163.32C242.82,163.61 242.81,163.63 242.67,163.91C242.32,164.63 241.42,166.49 240.8,167.74C240.2,168.95 239.38,170.51 238.99,171.29C238.8,171.67 238.76,171.75 238.56,172.15C238.1,173.05 236.84,175.45 236.24,176.57C235.87,177.27 235.65,177.62 235.31,178.25C234.87,179.05 234.39,179.98 233.84,180.98C233.15,182.22 232.31,183.71 231.495,185.135C230.63,186.65 229.46,188.7 228.81,189.81C228.45,190.42 228.29,190.67 227.96,191.23C227.47,192.04 226.79,193.22 226.18,194.22C225.56,195.24 224.78,196.49 224.28,197.31C223.95,197.84 223.82,198.07 223.47,198.64C222.82,199.69 221.59,201.63 220.645,203.10500000000002C219.71,204.57 218.5,206.43 217.82,207.46C217.44,208.03 217.29,208.25 216.93,208.79C216.38,209.61 215.51,210.93 214.86,211.88C214.29,212.71 213.77,213.44 213.25,214.19C212.75,214.91 212.33,215.52 211.79,216.29C211.13,217.22 210.17,218.56 209.58,219.38C209.19,219.92 209.02,220.16 208.62,220.71C207.95,221.63 206.47,223.6 205.9,224.36C205.64,224.71 205.59,224.76 205.32,225.12C204.68,225.96 203.18,227.92 202.065,229.33999999999997C200.9,230.82 199.68,232.35 198.46,233.83999999999997C197.25,235.32 196.02,236.8 194.78,238.255C193.54,239.71 192.26,241.19 191.025,242.59C189.84,243.93 188.22,245.73 187.52,246.5C187.22,246.83 187.17,246.88 186.88,247.19C186.24,247.88 184.61,249.64 183.84,250.45C183.38,250.94 183.18,251.14 182.73,251.61C182.05,252.32 180.94,253.48 180.16,254.27C179.52,254.92 179.01,255.42 178.41,256.02C177.78,256.65 177.17,257.27 176.48,257.95C175.69,258.73 174.59,259.77 173.91,260.43C173.47,260.86 173.29,261.05 172.81,261.5C171.95,262.32 170.4,263.76 169.175,264.89C167.94,266.03 166.33,267.5 165.45,268.29C164.98,268.71 164.79,268.87 164.35,269.26C163.67,269.86 162.63,270.81 161.78,271.55C160.94,272.28 159.96,273.1 159.28,273.68C158.81,274.08 158.61,274.27 158.1,274.7C157.18,275.48 155.47,276.89 154.20999999999998,277.91999999999996C153.03,278.89 151.79,279.9 150.75,280.73C149.92,281.39 149.15,281.99 148.48,282.51C147.95,282.92 147.65,283.17 147.07,283.62C146.13,284.34 144.14,285.84 143.39,286.4C143.06,286.64 143,286.69 142.68,286.92C142.03,287.4 140.73,288.37 139.72,289.09C138.68,289.84 137.13,290.91 136.53,291.33C136.29,291.5 136.28,291.51 136.04,291.68C135.39,292.13 133.49,293.37 132.36,294.09C131.4,294.7 130.37,295.33 129.69,295.75C129.28,296.01 129.13,296.12 128.69,296.38C127.86,296.87 126.25,297.72 125.01,298.35C123.77,298.98 122.51,299.69 121.25,300.14C120.06,300.56 118.86,301.02 117.66,301.01Z" style="stroke-miterlimit: 1; vector-effect: non-scaling-stroke; fill: none; stroke: rgb(207, 188, 102); stroke-opacity: 1; stroke-width: 2px;"/></g><g class="contourlevel"><path class="closedline" d="M125.01,291.71C124.47,291.72 123.85,291.66 123.32,291.33C122.6,290.89 121.7,289.76 121.33,288.94C121.03,288.28 121.01,287.57 121.02,286.92C121.03,286.32 121.21,285.84 121.33,285.2C121.47,284.4 121.57,283.51 121.82,282.51C122.15,281.21 122.74,279.57 123.26,278.09C123.79,276.59 124.35,275.05 124.96000000000001,273.57C125.56,272.11 126.26,270.65 126.9,269.26C127.5,267.95 128.35,266.19 128.69,265.46C128.82,265.17 128.83,265.14 128.97,264.85C129.36,264.05 130.58,261.64 131.21,260.43C131.65,259.58 131.97,258.99 132.36,258.26C132.75,257.52 133.07,256.89 133.54,256.02C134.21,254.78 135.17,253.02 136,251.54000000000002C136.82,250.08 137.8,248.37 138.49,247.19C138.97,246.37 139.3,245.84 139.72,245.13C140.17,244.37 140.59,243.65 141.11,242.78C141.77,241.68 142.93,239.8 143.39,239.05C143.59,238.73 143.61,238.69 143.81,238.36C144.33,237.53 146.07,234.79 146.61,233.95C146.83,233.61 146.86,233.57 147.07,233.24C147.56,232.49 148.82,230.56 149.5,229.54C149.98,228.82 150.3,228.36 150.75,227.69C151.28,226.9 151.89,225.99 152.49,225.12C153.11,224.22 153.85,223.17 154.42,222.37C154.86,221.75 155.13,221.36 155.6,220.71C156.28,219.77 157.52,218.07 158.1,217.27C158.41,216.84 158.5,216.72 158.82,216.29C159.47,215.42 161.26,213.07 161.78,212.38C161.97,212.13 161.97,212.13 162.16,211.88C162.72,211.15 164.38,209.01 165.54,207.57C166.72,206.09 167.96,204.59 169.185,203.115C170.41,201.65 171.67,200.17 172.9,198.745C174.1,197.36 175.87,195.36 176.48,194.68C176.69,194.45 176.69,194.45 176.9,194.22C177.47,193.59 179.43,191.45 180.16,190.67C180.52,190.28 180.62,190.18 180.98,189.81C181.64,189.11 183.06,187.62 183.84,186.81C184.38,186.25 184.7,185.92 185.22,185.39C185.89,184.71 186.77,183.83 187.52,183.08C188.24,182.36 189.01,181.62 189.66,180.98C190.21,180.44 190.59,180.06 191.19,179.48C192.04,178.67 193.65,177.16 194.28,176.57C194.55,176.31 194.59,176.27 194.87,176.01C195.57,175.36 197.86,173.29 198.55,172.66C198.82,172.41 198.85,172.39 199.12,172.15C199.74,171.6 201.3,170.21 202.22,169.41C202.94,168.78 203.55,168.28 204.18,167.74C204.77,167.23 205.22,166.83 205.9,166.26C206.88,165.43 208.3,164.26 209.52,163.27499999999998C210.75,162.28 212.22,161.12 213.25,160.32C213.98,159.76 214.5,159.38 215.12,158.91C215.73,158.45 216.22,158.05 216.93,157.52C217.94,156.76 219.95,155.3 220.61,154.83C220.85,154.66 220.87,154.65 221.11,154.49C221.71,154.08 223.19,153.07 224.28,152.35C225.44,151.58 226.64,150.75 227.87,150.02C229.1,149.29 230.38,148.61 231.64,147.98C232.86,147.36 234.22,146.65 235.31,146.26C236.14,145.96 236.89,145.85 237.56,145.67C238.09,145.53 238.49,145.3 238.99,145.29C239.53,145.28 240.15,145.34 240.68,145.67C241.4,146.11 242.3,147.24 242.67,148.06C242.97,148.72 242.99,149.43 242.98,150.08C242.97,150.68 242.79,151.16 242.67,151.8C242.53,152.6 242.43,153.49 242.18,154.49C241.85,155.79 241.26,157.43 240.74,158.91C240.21,160.41 239.65,161.95 239.04000000000002,163.43C238.44,164.89 237.74,166.35 237.1,167.74C236.5,169.05 235.65,170.81 235.31,171.54C235.18,171.83 235.17,171.86 235.03,172.15C234.64,172.95 233.42,175.36 232.79,176.57C232.35,177.42 232.03,178.01 231.64,178.74C231.25,179.48 230.93,180.11 230.46,180.98C229.79,182.22 228.83,183.98 228,185.45999999999998C227.18,186.92 226.2,188.63 225.51,189.81C225.03,190.63 224.7,191.16 224.28,191.87C223.83,192.63 223.41,193.35 222.89,194.22C222.23,195.32 221.07,197.2 220.61,197.95C220.41,198.27 220.39,198.31 220.19,198.64C219.67,199.47 217.93,202.21 217.39,203.05C217.17,203.39 217.14,203.43 216.93,203.76C216.44,204.51 215.18,206.44 214.5,207.46C214.02,208.18 213.7,208.64 213.25,209.31C212.72,210.1 212.11,211.01 211.51,211.88C210.89,212.78 210.15,213.83 209.58,214.63C209.14,215.25 208.87,215.64 208.4,216.29C207.72,217.23 206.48,218.93 205.9,219.73C205.59,220.16 205.5,220.28 205.18,220.71C204.53,221.58 202.74,223.93 202.22,224.62C202.03,224.87 202.03,224.87 201.84,225.12C201.28,225.85 199.62,227.99 198.46,229.43C197.28,230.91 196.04,232.41 194.815,233.885C193.59,235.35 192.33,236.83 191.1,238.255C189.9,239.64 188.13,241.64 187.52,242.32C187.31,242.55 187.31,242.55 187.1,242.78C186.53,243.41 184.57,245.55 183.84,246.33C183.48,246.72 183.38,246.82 183.02,247.19C182.36,247.89 180.94,249.38 180.16,250.19C179.62,250.75 179.3,251.08 178.78,251.61C178.11,252.29 177.23,253.17 176.48,253.92C175.76,254.64 174.99,255.38 174.34,256.02C173.79,256.56 173.41,256.94 172.81,257.52C171.96,258.33 170.35,259.84 169.72,260.43C169.45,260.69 169.41,260.73 169.13,260.99C168.43,261.64 166.14,263.71 165.45,264.34C165.18,264.59 165.15,264.61 164.88,264.85C164.26,265.4 162.7,266.79 161.78,267.59C161.06,268.22 160.45,268.72 159.82,269.26C159.23,269.77 158.78,270.17 158.1,270.74C157.12,271.57 155.7,272.74 154.48,273.725C153.25,274.72 151.78,275.88 150.75,276.68C150.02,277.24 149.5,277.62 148.88,278.09C148.27,278.55 147.78,278.95 147.07,279.48C146.06,280.24 144.05,281.7 143.39,282.17C143.15,282.34 143.13,282.35 142.89,282.51C142.29,282.92 140.81,283.93 139.72,284.65C138.56,285.42 137.36,286.25 136.13,286.98C134.9,287.71 133.62,288.39 132.36,289.02C131.14,289.64 129.78,290.35 128.69,290.74C127.86,291.04 127.11,291.15 126.44,291.33C125.91,291.47 125.51,291.7 125.01,291.71Z" style="stroke-miterlimit: 1; vector-effect: non-scaling-stroke; fill: none; stroke: rgb(219, 216, 134); stroke-opacity: 1; stroke-width: 2px;"/></g><g class="contourlevel"><path class="closedline" d="M132.36,282.35C131.02,281.93 129.21,279.62 128.82,278.09C128.47,276.71 129.31,275.14 129.68,273.68C130.06,272.2 130.61,270.61 131.09,269.26C131.51,268.09 132.04,266.84 132.36,266.03C132.55,265.54 132.61,265.36 132.83,264.85C133.26,263.84 134.28,261.67 134.87,260.43C135.31,259.52 135.66,258.83 136.04,258.07C136.39,257.36 136.64,256.83 137.05,256.02C137.66,254.83 138.92,252.42 139.36,251.61C139.53,251.3 139.55,251.27 139.72,250.97C140.13,250.24 141.18,248.34 141.84,247.19C142.39,246.22 142.93,245.31 143.39,244.52C143.76,243.88 143.99,243.49 144.41,242.78C145.09,241.64 146.16,239.84 147.07,238.37C147.98,236.89 149.2,234.99 149.87,233.95C150.24,233.38 150.4,233.16 150.75,232.62C151.29,231.81 152.14,230.5 152.78,229.54C153.35,228.68 153.9,227.89 154.42,227.12C154.9,226.42 155.27,225.87 155.79,225.12C156.46,224.16 157.52,222.67 158.1,221.86C158.44,221.38 158.56,221.2 158.92,220.71C159.58,219.8 161.26,217.53 161.78,216.83C161.97,216.57 161.98,216.56 162.18,216.29C162.75,215.53 164.37,213.4 165.505,211.945C166.67,210.45 167.89,208.92 169.11,207.435C170.32,205.95 171.55,204.48 172.785,203.025C174.02,201.57 175.29,200.11 176.54,198.7C177.75,197.33 179.53,195.38 180.16,194.7C180.38,194.46 180.39,194.45 180.61,194.22C181.2,193.6 183.08,191.58 183.84,190.79C184.25,190.36 184.4,190.22 184.8,189.81C185.48,189.12 186.72,187.84 187.52,187.04C188.14,186.42 188.6,185.96 189.18,185.39C189.82,184.76 190.48,184.11 191.19,183.42C191.99,182.65 193.08,181.62 193.76,180.98C194.21,180.56 194.39,180.38 194.87,179.93C195.74,179.12 197.32,177.67 198.55,176.57C199.77,175.48 201.27,174.18 202.22,173.37C202.81,172.86 203.14,172.6 203.68,172.15C204.34,171.6 205.09,170.96 205.9,170.29C206.86,169.5 208.44,168.23 209.05,167.74C209.3,167.54 209.32,167.51 209.58,167.31C210.25,166.78 212.25,165.27 213.25,164.54C213.92,164.05 214.37,163.74 214.96,163.32C215.59,162.87 216.17,162.44 216.93,161.91C217.96,161.2 219.77,159.99 220.61,159.47C221.04,159.21 221.18,159.14 221.59,158.91C222.26,158.53 223.3,157.88 224.28,157.38C225.4,156.8 226.71,156.14 227.96,155.68C229.17,155.23 230.53,154.3 231.64,154.65C232.98,155.07 234.79,157.38 235.18,158.91C235.53,160.29 234.69,161.86 234.32,163.32C233.94,164.8 233.39,166.39 232.91,167.74C232.49,168.91 231.96,170.16 231.64,170.97C231.45,171.46 231.39,171.64 231.17,172.15C230.74,173.16 229.72,175.33 229.13,176.57C228.69,177.48 228.34,178.17 227.96,178.93C227.61,179.64 227.36,180.17 226.95,180.98C226.34,182.17 225.08,184.58 224.64,185.39C224.47,185.7 224.45,185.73 224.28,186.03C223.87,186.76 222.82,188.66 222.16,189.81C221.61,190.78 221.07,191.69 220.61,192.48C220.24,193.12 220.01,193.51 219.59,194.22C218.91,195.36 217.84,197.16 216.93,198.63C216.02,200.11 214.8,202.01 214.13,203.05C213.76,203.62 213.6,203.84 213.25,204.38C212.71,205.19 211.86,206.5 211.22,207.46C210.65,208.32 210.1,209.11 209.58,209.88C209.1,210.58 208.73,211.13 208.21,211.88C207.54,212.84 206.48,214.33 205.9,215.14C205.56,215.62 205.44,215.8 205.08,216.29C204.42,217.2 202.74,219.47 202.22,220.17C202.03,220.43 202.02,220.44 201.82,220.71C201.25,221.47 199.63,223.6 198.495,225.055C197.33,226.55 196.11,228.08 194.89,229.565C193.68,231.05 192.45,232.52 191.215,233.975C189.98,235.43 188.71,236.89 187.46,238.3C186.25,239.67 184.47,241.62 183.84,242.3C183.62,242.54 183.61,242.55 183.39,242.78C182.8,243.4 180.92,245.42 180.16,246.21C179.75,246.64 179.6,246.78 179.2,247.19C178.52,247.88 177.28,249.16 176.48,249.96C175.86,250.58 175.4,251.04 174.82,251.61C174.18,252.24 173.52,252.89 172.81,253.58C172.01,254.35 170.92,255.38 170.24,256.02C169.79,256.44 169.61,256.62 169.13,257.07C168.26,257.88 166.68,259.33 165.45,260.43C164.23,261.52 162.73,262.82 161.78,263.63C161.19,264.14 160.86,264.4 160.32,264.85C159.66,265.4 158.91,266.04 158.1,266.71C157.14,267.5 155.56,268.77 154.95,269.26C154.7,269.46 154.68,269.49 154.42,269.69C153.75,270.22 151.75,271.73 150.75,272.46C150.08,272.95 149.63,273.26 149.04,273.68C148.41,274.13 147.83,274.56 147.07,275.09C146.04,275.8 144.23,277.01 143.39,277.53C142.96,277.79 142.82,277.86 142.41,278.09C141.74,278.47 140.7,279.12 139.72,279.62C138.6,280.2 137.29,280.86 136.04,281.32C134.83,281.77 133.47,282.7 132.36,282.35Z" style="stroke-miterlimit: 1; vector-effect: non-scaling-stroke; fill: none; stroke: rgb(232, 245, 171); stroke-opacity: 1; stroke-width: 2px;"/></g></g></g></g></g><g class="overplot"/><path class="xlines-above crisp" d="" style="fill: none; stroke-width: 1px; stroke: rgb(0, 0, 0); stroke-opacity: 0;"/><path class="ylines-above crisp" d="" style="fill: none; stroke-width: 1px; stroke: rgb(0, 0, 0); stroke-opacity: 0;"/><g class="overlines-above"/><g class="xaxislayer-above"><path class="xtick ticks crisp" d="M0,478v5" transform="translate(84.61,0)" style="stroke: rgb(51, 51, 51); stroke-opacity: 1; stroke-width: 1px;"/><path class="xtick ticks crisp" d="M0,478v5" transform="translate(208,0)" style="stroke: rgb(51, 51, 51); stroke-opacity: 1; stroke-width: 1px;"/><path class="xtick ticks crisp" d="M0,478v5" transform="translate(331.39,0)" style="stroke: rgb(51, 51, 51); stroke-opacity: 1; stroke-width: 1px;"/><g class="xtick"><text text-anchor="middle" x="0" y="497.4" transform="translate(84.61,0)" style="font-family: 'Open Sans', verdana, arial, sans-serif; font-size: 12px; fill: rgb(51, 51, 51); fill-opacity: 1; white-space: pre; opacity: 1;">2</text></g><g class="xtick"><text text-anchor="middle" x="0" y="497.4" style="font-family: 'Open Sans', verdana, arial, sans-serif; font-size: 12px; fill: rgb(51, 51, 51); fill-opacity: 1; white-space: pre; opacity: 1;" transform="translate(208,0)">0</text></g><g class="xtick"><text text-anchor="middle" x="0" y="497.4" style="font-family: 'Open Sans', verdana, arial, sans-serif; font-size: 12px; fill: rgb(51, 51, 51); fill-opacity: 1; white-space: pre; opacity: 1;" transform="translate(331.39,0)">2</text></g></g><g class="yaxislayer-above"><path class="ytick ticks crisp" d="M25,0h-5" transform="translate(0,406.64)" style="stroke: rgb(51, 51, 51); stroke-opacity: 1; stroke-width: 1px;"/><path class="ytick ticks crisp" d="M25,0h-5" transform="translate(0,332.57)" style="stroke: rgb(51, 51, 51); stroke-opacity: 1; stroke-width: 1px;"/><path class="ytick ticks crisp" d="M25,0h-5" transform="translate(0,258.5)" style="stroke: rgb(51, 51, 51); stroke-opacity: 1; stroke-width: 1px;"/><path class="ytick ticks crisp" d="M25,0h-5" transform="translate(0,184.43)" style="stroke: rgb(51, 51, 51); stroke-opacity: 1; stroke-width: 1px;"/><path class="ytick ticks crisp" d="M25,0h-5" transform="translate(0,110.36)" style="stroke: rgb(51, 51, 51); stroke-opacity: 1; stroke-width: 1px;"/><g class="ytick"><text text-anchor="end" x="17.6" y="4.199999999999999" transform="translate(0,406.64)" style="font-family: 'Open Sans', verdana, arial, sans-serif; font-size: 12px; fill: rgb(51, 51, 51); fill-opacity: 1; white-space: pre; opacity: 1;">2</text></g><g class="ytick"><text text-anchor="end" x="17.6" y="4.199999999999999" style="font-family: 'Open Sans', verdana, arial, sans-serif; font-size: 12px; fill: rgb(51, 51, 51); fill-opacity: 1; white-space: pre; opacity: 1;" transform="translate(0,332.57)">1</text></g><g class="ytick"><text text-anchor="end" x="17.6" y="4.199999999999999" style="font-family: 'Open Sans', verdana, arial, sans-serif; font-size: 12px; fill: rgb(51, 51, 51); fill-opacity: 1; white-space: pre; opacity: 1;" transform="translate(0,258.5)">0</text></g><g class="ytick"><text text-anchor="end" x="17.6" y="4.199999999999999" style="font-family: 'Open Sans', verdana, arial, sans-serif; font-size: 12px; fill: rgb(51, 51, 51); fill-opacity: 1; white-space: pre; opacity: 1;" transform="translate(0,184.43)">1</text></g><g class="ytick"><text text-anchor="end" x="17.6" y="4.199999999999999" style="font-family: 'Open Sans', verdana, arial, sans-serif; font-size: 12px; fill: rgb(51, 51, 51); fill-opacity: 1; white-space: pre; opacity: 1;" transform="translate(0,110.36)">2</text></g></g><g class="overaxes-above"/></g></g><g class="polarlayer"/><g class="ternarylayer"/><g class="geolayer"/><g class="funnelarealayer"/><g class="pielayer"/><g class="iciclelayer"/><g class="treemaplayer"/><g class="sunburstlayer"/><g class="glimages"/><defs id="topdefs-7a1604"><g class="clips"/></defs><g class="layer-above"><g class="imagelayer"/><g class="shapelayer"/></g><g class="infolayer"><g class="cbbc30e0 colorbar" transform="translate(26,40)"><rect class="cbbg" x="371" y="0" width="102.28125" height="437" style="fill: rgb(0, 0, 0); fill-opacity: 0; stroke: rgb(68, 68, 68); stroke-opacity: 1; stroke-width: 0;"/><g class="cbfills" transform="translate(0,10)"/><g class="cblines" transform="translate(0,10)"><path class="cbline" d="M381,417h30" style="fill: none; stroke: rgb(34, 30, 27); stroke-opacity: 1; stroke-width: 2px;"/><path class="cbline" d="M381,375h30" style="fill: none; stroke: rgb(59, 46, 38); stroke-opacity: 1; stroke-width: 2px;"/><path class="cbline" d="M381,334h30" style="fill: none; stroke: rgb(85, 62, 47); stroke-opacity: 1; stroke-width: 2px;"/><path class="cbline" d="M381,292h30" style="fill: none; stroke: rgb(112, 77, 54); stroke-opacity: 1; stroke-width: 2px;"/><path class="cbline" d="M381,250h30" style="fill: none; stroke: rgb(138, 93, 57); stroke-opacity: 1; stroke-width: 2px;"/><path class="cbline" d="M381,209h30" style="fill: none; stroke: rgb(161, 112, 59); stroke-opacity: 1; stroke-width: 2px;"/><path class="cbline" d="M381,167h30" style="fill: none; stroke: rgb(180, 134, 64); stroke-opacity: 1; stroke-width: 2px;"/><path class="cbline" d="M381,125h30" style="fill: none; stroke: rgb(195, 160, 78); stroke-opacity: 1; stroke-width: 2px;"/><path class="cbline" d="M381,83h30" style="fill: none; stroke: rgb(207, 188, 102); stroke-opacity: 1; stroke-width: 2px;"/><path class="cbline" d="M381,42h30" style="fill: none; stroke: rgb(219, 216, 134); stroke-opacity: 1; stroke-width: 2px;"/><path class="cbline" d="M381,0h30" style="fill: none; stroke: rgb(232, 245, 171); stroke-opacity: 1; stroke-width: 2px;"/></g><g class="cbaxis crisp" transform="translate(0,-40)"><path class="ycbbc30e0tick ticks crisp" d="M410.5,0h-6" transform="translate(0,383.6)" style="stroke: rgb(237, 237, 237); stroke-opacity: 1; stroke-width: 1px;"/><path class="ycbbc30e0tick ticks crisp" d="M410.5,0h-6" transform="translate(0,300.2)" style="stroke: rgb(237, 237, 237); stroke-opacity: 1; stroke-width: 1px;"/><path class="ycbbc30e0tick ticks crisp" d="M410.5,0h-6" transform="translate(0,216.8)" style="stroke: rgb(237, 237, 237); stroke-opacity: 1; stroke-width: 1px;"/><path class="ycbbc30e0tick ticks crisp" d="M410.5,0h-6" transform="translate(0,133.40000000000003)" style="stroke: rgb(237, 237, 237); stroke-opacity: 1; stroke-width: 1px;"/><g class="ycbbc30e0tick"><text text-anchor="start" x="413.9" y="4.199999999999999" transform="translate(0,467)" style="font-family: 'Open Sans', verdana, arial, sans-serif; font-size: 12px; fill: rgb(51, 51, 51); fill-opacity: 1; white-space: pre; opacity: 1;">0.0001</text></g><g class="ycbbc30e0tick"><text text-anchor="start" x="413.9" y="4.199999999999999" style="font-family: 'Open Sans', verdana, arial, sans-serif; font-size: 12px; fill: rgb(51, 51, 51); fill-opacity: 1; white-space: pre; opacity: 1;" transform="translate(0,383.6)">0.0478</text></g><g class="ycbbc30e0tick"><text text-anchor="start" x="413.9" y="4.199999999999999" style="font-family: 'Open Sans', verdana, arial, sans-serif; font-size: 12px; fill: rgb(51, 51, 51); fill-opacity: 1; white-space: pre; opacity: 1;" transform="translate(0,300.2)">0.0956</text></g><g class="ycbbc30e0tick"><text text-anchor="start" x="413.9" y="4.199999999999999" style="font-family: 'Open Sans', verdana, arial, sans-serif; font-size: 12px; fill: rgb(51, 51, 51); fill-opacity: 1; white-space: pre; opacity: 1;" transform="translate(0,216.8)">0.1433</text></g><g class="ycbbc30e0tick"><text text-anchor="start" x="413.9" y="4.199999999999999" style="font-family: 'Open Sans', verdana, arial, sans-serif; font-size: 12px; fill: rgb(51, 51, 51); fill-opacity: 1; white-space: pre; opacity: 1;" transform="translate(0,133.40000000000003)">0.1911</text></g><g class="ycbbc30e0tick"><text text-anchor="start" x="413.9" y="4.199999999999999" style="font-family: 'Open Sans', verdana, arial, sans-serif; font-size: 12px; fill: rgb(51, 51, 51); fill-opacity: 1; white-space: pre; opacity: 1;" transform="translate(0,50.000000000000014)">0.2388</text></g></g><g class="cbtitleunshift" transform="translate(-26,-40)"><g class="cbtitle"/></g><rect class="cboutline" x="381" y="10" width="30" height="417" style="stroke: rgb(68, 68, 68); stroke-opacity: 1; fill: none; stroke-width: 0;"/></g><g class="g-gtitle"><text class="gtitle" x="250" y="20" text-anchor="middle" dy="0em" style="font-family: 'Open Sans', verdana, arial, sans-serif; font-size: 17px; fill: rgb(51, 51, 51); opacity: 1; font-weight: normal; white-space: pre;">Student copula</text></g><g class="g-xtitle"/><g class="g-ytitle"/></g></svg>