<svg class="main-svg" xmlns="http://www.w3.org/2000/svg" xmlns:xlink="http://www.w3.org/1999/xlink" width="1500" height="1500" style="" viewBox="0 0 500 500"><rect x="0" y="0" width="500" height="500" style="fill: rgb(255, 255, 255); fill-opacity: 1;"/><defs id="defs-1c8012"><g class="clips"><clipPath id="clip1c8012xyplot" class="plotclip"><rect width="370" height="437"/></clipPath><clipPath class="axesclip" id="clip1c8012x"><rect x="28" y="0" width="370" height="500"/></clipPath><clipPath class="axesclip" id="clip1c8012y"><rect x="0" y="40" width="500" height="437"/></clipPath><clipPath class="axesclip" id="clip1c8012xy"><rect x="28" y="40" width="370" height="437"/></clipPath><clipPath class="contourclip" id="clipd22b95"><path d="M0,0L370,0L370,437L0,437Z"/></clipPath></g><g class="gradients"/><g class="patterns"/></defs><g class="bglayer"><rect class="bg" x="28" y="40" width="370" height="437" style="fill: rgb(237, 237, 237); fill-opacity: 1; stroke-width: 0;"/></g><g class="layer-below"><g class="imagelayer"/><g class="shapelayer"/></g><g class="cartesianlayer"><g class="subplot xy"><g class="layer-subplot"><g class="shapelayer"/><g class="imagelayer"/></g><g class="gridlayer"><g class="x"><path class="xgrid crisp" transform="translate(89.67,0)" d="M0,40v437" style="stroke: rgb(255, 255, 255); stroke-opacity: 1; stroke-width: 1px;"/><path class="xgrid crisp" transform="translate(171.89,0)" d="M0,40v437" style="stroke: rgb(255, 255, 255); stroke-opacity: 1; stroke-width: 1px;"/><path class="xgrid crisp" transform="translate(254.11,0)" d="M0,40v437" style="stroke: rgb(255, 255, 255); stroke-opacity: 1; stroke-width: 1px;"/><path class="xgrid crisp" transform="translate(336.33,0)" d="M0,40v437" style="stroke: rgb(255, 255, 255); stroke-opacity: 1; stroke-width: 1px;"/></g><g class="y"><path class="ygrid crisp" transform="translate(0,452.72)" d="M28,0h370" style="stroke: rgb(255, 255, 255); stroke-opacity: 1; stroke-width: 1px;"/><path class="ygrid crisp" transform="translate(0,404.17)" d="M28,0h370" style="stroke: rgb(255, 255, 255); stroke-opacity: 1; stroke-width: 1px;"/><path class="ygrid crisp" transform="translate(0,355.61)" d="M28,0h370" style="stroke: rgb(255, 255, 255); stroke-opacity: 1; stroke-width: 1px;"/><path class="ygrid crisp" transform="translate(0,307.06)" d="M28,0h370" style="stroke: rgb(255, 255, 255); stroke-opacity: 1; stroke-width: 1px;"/><path class="ygrid crisp" transform="translate(0,258.5)" d="M28,0h370" style="stroke: rgb(255, 255, 255); stroke-opacity: 1; stroke-width: 1px;"/><path class="ygrid crisp" transform="translate(0,209.94)" d="M28,0h370" style="stroke: rgb(255, 255, 255); stroke-opacity: 1; stroke-width: 1px;"/><path class="ygrid crisp" transform="translate(0,161.39)" d="M28,0h370" style="stroke: rgb(255, 255, 255); stroke-opacity: 1; stroke-width: 1px;"/><path class="ygrid crisp" transform="translate(0,112.83)" d="M28,0h370" style="stroke: rgb(255, 255, 255); stroke-opacity: 1; stroke-width: 1px;"/><path class="ygrid crisp" transform="translate(0,64.28)" d="M28,0h370" style="stroke: rgb(255, 255, 255); stroke-opacity: 1; stroke-width: 1px;"/></g></g><g class="zerolinelayer"/><path class="xlines-below"/><path class="ylines-below"/><g class="overlines-below"/><g class="xaxislayer-below"/><g class="yaxislayer-below"/><g class="overaxes-below"/><g class="plot" transform="translate(28,40)" clip-path="url(#clip1c8012xyplot)"><g class="contourlayer mlayer"><g class="contour" clip-path="url(#clipd22b95)" style="opacity: 1;"><g class="heatmapcoloring"/><g class="contourbg"/><g class="contourfill"/><g class="contourlines"><g class="contourlevel"><path class="openline" d="M370,360.76Q369.77,361.43 369.58,361.96C369.22,362.97 368.55,364.91 367.99,366.37C367.43,367.83 366.84,369.28 366.24,370.74C365.63,372.22 365.01,373.74 364.37,375.2C363.74,376.62 363.11,377.96 362.41999999999996,379.39C361.69,380.9 360.78,382.73 360.11,384.03C359.62,384.98 359.21,385.72 358.79,386.49C358.41,387.18 358.15,387.66 357.7,388.44C357.02,389.62 355.96,391.4 355.05,392.86C354.13,394.34 352.89,396.24 352.2,397.27C351.82,397.83 351.68,398.04 351.31,398.56C350.73,399.38 349.73,400.78 349.05,401.69C348.51,402.41 348.11,402.94 347.58,403.62C346.97,404.4 346.23,405.32 345.58,406.1C344.98,406.82 344.45,407.45 343.84,408.16C343.18,408.92 342.4,409.8 341.74,410.52C341.16,411.15 340.72,411.62 340.1,412.26C339.33,413.06 338.14,414.25 337.45,414.93C337.01,415.36 336.84,415.54 336.36,415.98C335.49,416.79 333.88,418.25 332.63,419.345C331.39,420.42 329.89,421.67 328.89,422.48C328.23,423.01 327.82,423.31 327.23,423.76C326.58,424.26 325.96,424.74 325.15,425.32C324.05,426.11 322.5,427.18 321.22,428.04C320.01,428.85 318.89,429.6 317.68,430.35C316.45,431.11 315.16,431.85 313.9,432.565C312.66,433.27 311.44,433.97 310.2,434.63C308.96,435.29 307.31,436.09 306.46,436.51Q306.02,436.73 305.45,437" style="stroke-miterlimit: 1; vector-effect: non-scaling-stroke; fill: none; stroke: rgb(34, 30, 27); stroke-opacity: 1; stroke-width: 2px;"/><path class="openline" d="M0,76.24Q0.23,75.57 0.42,75.04C0.78,74.03 1.45,72.09 2.01,70.63C2.57,69.17 3.16,67.72 3.76,66.25999999999999C4.37,64.78 4.99,63.26 5.63,61.8C6.26,60.38 6.89,59.04 7.58,57.61C8.31,56.1 9.22,54.27 9.89,52.97C10.38,52.02 10.79,51.28 11.21,50.51C11.59,49.82 11.85,49.34 12.3,48.56C12.98,47.38 14.04,45.6 14.95,44.14C15.87,42.66 17.11,40.76 17.8,39.73C18.18,39.17 18.32,38.96 18.69,38.44C19.27,37.62 20.27,36.22 20.95,35.31C21.49,34.59 21.89,34.06 22.42,33.38C23.03,32.6 23.77,31.68 24.42,30.9C25.02,30.18 25.55,29.55 26.16,28.84C26.82,28.08 27.6,27.2 28.26,26.48C28.84,25.85 29.28,25.38 29.9,24.74C30.67,23.94 31.86,22.75 32.55,22.07C32.99,21.64 33.16,21.46 33.64,21.02C34.51,20.21 36.12,18.75 37.37,17.655C38.61,16.58 40.11,15.33 41.11,14.52C41.77,13.99 42.18,13.69 42.77,13.24C43.42,12.74 44.04,12.26 44.85,11.68C45.95,10.89 47.5,9.82 48.78,8.96C49.99,8.15 51.11,7.4 52.32,6.65C53.55,5.89 54.84,5.15 56.1,4.4350000000000005C57.34,3.73 58.56,3.03 59.8,2.37C61.04,1.71 62.69,0.91 63.54,0.49Q63.98,0.27 64.55,0" style="stroke-miterlimit: 1; vector-effect: non-scaling-stroke; fill: none; stroke: rgb(34, 30, 27); stroke-opacity: 1; stroke-width: 2px;"/></g><g class="contourlevel"><path class="openline" d="M370,245.56Q369.7,246.51 369.49,247.19C369.14,248.3 368.58,250.14 368.12,251.61C367.65,253.08 367.04,254.98 366.7,256.02C366.51,256.6 366.44,256.82 366.26,257.36C365.99,258.18 365.59,259.31 365.2,260.43C364.73,261.77 364.13,263.51 363.65,264.85C363.25,265.98 362.83,267.14 362.53,267.95C362.33,268.48 362.25,268.69 362.03,269.26C361.63,270.3 360.9,272.23 360.33,273.68C359.78,275.09 359.26,276.42 358.685,277.84C358.07,279.35 357.38,281 356.74,282.51C356.13,283.94 355.57,285.26 354.945,286.685C354.28,288.19 353.51,289.91 352.86,291.33C352.31,292.54 351.69,293.87 351.31,294.68C351.1,295.14 351.03,295.27 350.8,295.75C350.33,296.72 349.26,298.94 348.67,300.16C348.25,301.02 347.95,301.63 347.58,302.37C347.21,303.11 346.9,303.72 346.45,304.58C345.82,305.8 344.55,308.21 344.14,308.99C343.99,309.27 343.99,309.29 343.84,309.56C343.46,310.27 342.41,312.2 341.75,313.4C341.17,314.45 340.56,315.55 340.1,316.36C339.78,316.93 339.62,317.2 339.26,317.82C338.64,318.89 337.14,321.46 336.69,322.23C336.53,322.5 336.52,322.51 336.36,322.78C335.93,323.49 334.69,325.54 334.01,326.65C333.49,327.5 333.09,328.14 332.63,328.88C332.17,329.61 331.77,330.24 331.24,331.06C330.56,332.11 329.4,333.9 328.89,334.67C328.65,335.03 328.6,335.09 328.35,335.47C327.74,336.37 326.29,338.55 325.255,340.04499999999996C324.26,341.49 322.96,343.32 322.26,344.3C321.89,344.82 321.77,344.99 321.41,345.48C320.82,346.29 319.72,347.8 319.04,348.72C318.53,349.41 318.18,349.87 317.68,350.53C317.08,351.32 316.33,352.3 315.69,353.13C315.09,353.91 314.52,354.63 313.94,355.37C313.36,356.1 312.81,356.8 312.21,357.55C311.57,358.35 310.84,359.24 310.2,360.01C309.63,360.7 309.16,361.27 308.58,361.96C307.92,362.74 307.12,363.68 306.46,364.46C305.88,365.14 305.39,365.7 304.81,366.37C304.16,367.12 303.4,367.98 302.73,368.74C302.1,369.45 301.51,370.11 300.89,370.79C300.26,371.48 299.65,372.14 298.99,372.85C298.28,373.61 297.46,374.49 296.79,375.2C296.23,375.79 295.84,376.2 295.25,376.81C294.47,377.62 293.2,378.92 292.51,379.62C292.1,380.04 291.96,380.19 291.52,380.62C290.7,381.44 289.14,382.97 287.90999999999997,384.155C286.65,385.37 284.8,387.1 284.04,387.81C283.72,388.11 283.67,388.16 283.36,388.44C282.71,389.04 281.19,390.42 280.3,391.22C279.61,391.84 279.08,392.32 278.46,392.86C277.84,393.41 277.29,393.88 276.57,394.5C275.63,395.31 273.89,396.77 273.29,397.27C273.07,397.46 273.06,397.46 272.83,397.65C272.18,398.18 270,399.96 269.09,400.7C268.57,401.12 268.34,401.31 267.86,401.69C267.17,402.23 266.24,402.95 265.35,403.63C264.34,404.41 262.7,405.65 262.1,406.1C261.87,406.27 261.86,406.29 261.62,406.46C260.96,406.95 258.91,408.43 257.88,409.18C257.15,409.71 256.64,410.08 256.01,410.52C255.39,410.95 254.87,411.3 254.14,411.8C253.11,412.5 251.22,413.78 250.4,414.33C250,414.6 249.88,414.68 249.5,414.93C248.82,415.38 247.69,416.11 246.67,416.76C245.47,417.52 244.01,418.44 242.73000000000002,419.22C241.52,419.96 240.4,420.62 239.19,421.34C237.91,422.09 236.52,422.91 235.24,423.635C234.04,424.32 232.91,424.93 231.72,425.58C230.49,426.25 228.86,427.11 227.98,427.58C227.5,427.84 227.32,427.94 226.87,428.17C226.18,428.53 225.19,429.02 224.24,429.5C223.11,430.06 221.64,430.78 220.51,431.33C219.56,431.79 218.59,432.27 217.9,432.59C217.45,432.8 217.26,432.88 216.77,433.1C215.89,433.5 214.28,434.23 213.03,434.78C211.79,435.33 210.23,435.99 209.29,436.4Q208.72,436.65 207.91,437" style="stroke-miterlimit: 1; vector-effect: non-scaling-stroke; fill: none; stroke: rgb(59, 46, 38); stroke-opacity: 1; stroke-width: 2px;"/><path class="openline" d="M0,191.44Q0.3,190.49 0.51,189.81C0.86,188.7 1.42,186.86 1.88,185.39C2.35,183.92 2.96,182.02 3.3,180.98C3.49,180.4 3.56,180.18 3.74,179.64C4.01,178.82 4.41,177.69 4.8,176.57C5.27,175.23 5.87,173.49 6.35,172.15C6.75,171.02 7.17,169.86 7.47,169.05C7.67,168.52 7.75,168.31 7.97,167.74C8.37,166.7 9.1,164.77 9.67,163.32C10.22,161.91 10.74,160.58 11.315000000000001,159.16C11.93,157.65 12.62,156 13.26,154.49C13.87,153.06 14.43,151.74 15.055,150.315C15.72,148.81 16.49,147.09 17.14,145.67C17.69,144.46 18.31,143.13 18.69,142.32C18.9,141.86 18.97,141.73 19.2,141.25C19.67,140.28 20.74,138.06 21.33,136.84C21.75,135.98 22.05,135.37 22.42,134.63C22.79,133.89 23.1,133.28 23.55,132.42C24.18,131.2 25.45,128.79 25.86,128.01C26.01,127.73 26.01,127.71 26.16,127.44C26.54,126.73 27.59,124.8 28.25,123.6C28.83,122.55 29.44,121.45 29.9,120.64C30.22,120.07 30.38,119.8 30.74,119.18C31.36,118.11 32.86,115.54 33.31,114.77C33.47,114.5 33.48,114.49 33.64,114.22C34.07,113.51 35.31,111.46 35.99,110.35C36.51,109.5 36.91,108.86 37.37,108.12C37.83,107.39 38.23,106.76 38.76,105.94C39.44,104.89 40.6,103.1 41.11,102.33C41.35,101.97 41.4,101.91 41.65,101.53C42.26,100.63 43.71,98.45 44.745000000000005,96.955C45.74,95.51 47.04,93.68 47.74,92.7C48.11,92.18 48.23,92.01 48.59,91.52C49.18,90.71 50.28,89.2 50.96,88.28C51.47,87.59 51.82,87.13 52.32,86.47C52.92,85.68 53.67,84.7 54.31,83.87C54.91,83.09 55.48,82.37 56.06,81.63C56.64,80.9 57.19,80.2 57.79,79.45C58.43,78.65 59.16,77.76 59.8,76.99C60.37,76.3 60.84,75.73 61.42,75.04C62.08,74.26 62.88,73.32 63.54,72.54C64.12,71.86 64.61,71.3 65.19,70.63C65.84,69.88 66.6,69.02 67.27,68.26C67.9,67.55 68.49,66.89 69.11,66.21C69.74,65.52 70.35,64.86 71.01,64.15C71.72,63.39 72.54,62.51 73.21,61.8C73.77,61.21 74.16,60.8 74.75,60.19C75.53,59.38 76.8,58.08 77.49,57.38C77.9,56.96 78.04,56.81 78.48,56.38C79.3,55.56 80.86,54.03 82.09,52.845C83.35,51.63 85.2,49.9 85.96,49.19C86.28,48.89 86.33,48.84 86.64,48.56C87.29,47.96 88.81,46.58 89.7,45.78C90.39,45.16 90.92,44.68 91.54,44.14C92.16,43.59 92.71,43.12 93.43,42.5C94.37,41.69 96.11,40.23 96.71,39.73C96.93,39.54 96.94,39.54 97.17,39.35C97.82,38.82 100,37.04 100.91,36.3C101.43,35.88 101.66,35.69 102.14,35.31C102.83,34.77 103.76,34.05 104.65,33.37C105.66,32.59 107.3,31.35 107.9,30.9C108.13,30.73 108.14,30.71 108.38,30.54C109.04,30.05 111.09,28.57 112.12,27.82C112.85,27.29 113.36,26.92 113.99,26.48C114.61,26.05 115.13,25.7 115.86,25.2C116.89,24.5 118.78,23.22 119.6,22.67C120,22.4 120.12,22.32 120.5,22.07C121.18,21.62 122.31,20.89 123.33,20.24C124.53,19.48 125.99,18.56 127.27,17.78C128.48,17.04 129.6,16.38 130.81,15.66C132.09,14.91 133.48,14.09 134.76,13.365C135.96,12.68 137.09,12.07 138.28,11.42C139.51,10.75 141.14,9.89 142.02,9.42C142.5,9.16 142.68,9.06 143.13,8.83C143.82,8.47 144.81,7.98 145.76,7.5C146.89,6.94 148.36,6.22 149.49,5.67C150.44,5.21 151.41,4.73 152.1,4.41C152.55,4.2 152.74,4.12 153.23,3.9C154.11,3.5 155.72,2.77 156.97,2.22C158.21,1.67 159.77,1.01 160.71,0.6Q161.28,0.35 162.09,0" style="stroke-miterlimit: 1; vector-effect: non-scaling-stroke; fill: none; stroke: rgb(59, 46, 38); stroke-opacity: 1; stroke-width: 2px;"/></g><g class="contourlevel"><path class="openline" d="M0,243.54Q0.14,243.14 0.27,242.78C0.57,241.92 1.3,239.83 1.82,238.36C2.34,236.89 3.05,234.9 3.39,233.95C3.55,233.5 3.58,233.39 3.74,232.96C4.04,232.16 4.59,230.75 5.06,229.54C5.59,228.16 6.34,226.27 6.78,225.12C7.06,224.39 7.21,223.97 7.47,223.32C7.79,222.53 8.16,221.69 8.57,220.71C9.11,219.43 9.93,217.46 10.42,216.29C10.74,215.53 10.92,215.07 11.21,214.4C11.55,213.62 11.91,212.84 12.34,211.88C12.91,210.61 13.85,208.52 14.33,207.46C14.6,206.87 14.7,206.63 14.95,206.08C15.33,205.26 15.86,204.16 16.39,203.05C17.05,201.67 17.86,199.94 18.595,198.445C19.3,197 20.03,195.55 20.7,194.22C21.3,193.02 22.01,191.61 22.42,190.81C22.64,190.38 22.71,190.26 22.95,189.81C23.45,188.86 24.69,186.51 25.28,185.39C25.64,184.7 25.82,184.34 26.16,183.72C26.59,182.92 27.11,181.99 27.67,180.98C28.36,179.73 29.2,178.2 30.009999999999998,176.765C30.86,175.26 31.98,173.31 32.65,172.15C33.06,171.44 33.27,171.07 33.64,170.44C34.11,169.64 34.68,168.7 35.25,167.74C35.91,166.64 36.9,164.96 37.37,164.18C37.6,163.79 37.65,163.72 37.9,163.32C38.46,162.42 40.09,159.78 40.63,158.91C40.86,158.54 40.89,158.48 41.11,158.13C41.59,157.36 42.74,155.55 43.42,154.49C43.95,153.66 44.37,153.01 44.85,152.27C45.33,151.54 45.75,150.89 46.29,150.08C46.97,149.05 48.06,147.38 48.59,146.59C48.86,146.18 48.92,146.09 49.21,145.67C49.84,144.74 51.25,142.65 52.265,141.17000000000002C53.27,139.71 54.6,137.81 55.28,136.84C55.62,136.35 55.73,136.19 56.06,135.72C56.63,134.91 57.74,133.37 58.42,132.42C58.94,131.69 59.31,131.18 59.8,130.5C60.36,129.72 61,128.85 61.62,128.01C62.25,127.15 62.95,126.21 63.54,125.42C64.03,124.76 64.38,124.29 64.9,123.6C65.58,122.69 66.65,121.27 67.27,120.46C67.67,119.94 67.84,119.71 68.25,119.18C68.94,118.29 70.4,116.4 71.01,115.62C71.31,115.24 71.38,115.16 71.68,114.77C72.33,113.95 74.19,111.59 74.75,110.89C74.96,110.63 74.97,110.61 75.18,110.35C75.78,109.61 77.45,107.53 78.62,106.10499999999999C79.83,104.63 81.08,103.13 82.32,101.64500000000001C83.56,100.17 84.81,98.69 86.06,97.225C87.31,95.76 88.59,94.29 89.84,92.86C91.05,91.48 92.8,89.5 93.43,88.79C93.65,88.54 93.67,88.53 93.89,88.28C94.49,87.62 96.47,85.43 97.17,84.66C97.5,84.3 97.57,84.22 97.89,83.87C98.55,83.15 100.16,81.42 100.91,80.61C101.36,80.13 101.55,79.92 101.99,79.45C102.68,78.72 103.88,77.45 104.65,76.65C105.23,76.04 105.63,75.62 106.19,75.04C106.85,74.35 107.66,73.52 108.38,72.78C109.09,72.05 109.83,71.3 110.49,70.63C111.07,70.05 111.5,69.61 112.12,68.99C112.92,68.18 114.22,66.89 114.91,66.21C115.31,65.82 115.44,65.7 115.86,65.29C116.69,64.49 118.29,62.92 119.53,61.73C120.78,60.53 122.54,58.87 123.33,58.12C123.69,57.78 123.77,57.7 124.12,57.38C124.79,56.76 126.2,55.47 127.07,54.67C127.76,54.04 128.3,53.53 128.92,52.97C129.54,52.41 130.1,51.92 130.81,51.29C131.71,50.49 133.23,49.13 133.88,48.56C134.18,48.29 134.24,48.25 134.55,47.98C135.29,47.34 137.52,45.41 138.28,44.76C138.62,44.47 138.68,44.42 139.01,44.14C139.67,43.58 141.08,42.41 142.02,41.63C142.83,40.95 143.63,40.28 144.31,39.73C144.85,39.29 145.16,39.05 145.76,38.57C146.74,37.78 148.38,36.45 149.655,35.445C150.87,34.49 152.17,33.5 153.23,32.68C154.09,32.02 154.87,31.41 155.55,30.9C156.08,30.5 156.38,30.29 156.97,29.86C157.92,29.16 159.91,27.7 160.71,27.11C161.09,26.83 161.18,26.75 161.55,26.48C162.22,25.99 163.42,25.16 164.44,24.45C165.57,23.66 166.79,22.79 168.015,21.96C169.28,21.1 170.76,20.13 171.92,19.36C172.86,18.73 173.79,18.11 174.48,17.66C174.95,17.36 175.16,17.24 175.66,16.92C176.56,16.36 178.32,15.25 179.39,14.58C180.2,14.07 180.87,13.64 181.53,13.24C182.1,12.9 182.49,12.69 183.13,12.31C184.12,11.73 185.79,10.75 186.87,10.12C187.7,9.63 188.41,9.21 189.08,8.83C189.63,8.52 189.99,8.34 190.61,8C191.58,7.47 193.17,6.61 194.34,5.98C195.37,5.42 196.57,4.76 197.25,4.41C197.61,4.22 197.7,4.19 198.08,4C198.88,3.61 200.57,2.76 201.82,2.15C203.07,1.54 204.83,0.68 205.56,0.32Q205.86,0.17 206.2,0" style="stroke-miterlimit: 1; vector-effect: non-scaling-stroke; fill: none; stroke: rgb(85, 62, 47); stroke-opacity: 1; stroke-width: 2px;"/><path class="openline" d="M370,193.46Q369.86,193.86 369.73,194.22C369.43,195.08 368.7,197.17 368.18,198.64C367.66,200.11 366.95,202.1 366.61,203.05C366.45,203.5 366.42,203.61 366.26,204.04C365.96,204.84 365.41,206.25 364.94,207.46C364.41,208.84 363.66,210.73 363.22,211.88C362.94,212.61 362.79,213.03 362.53,213.68C362.21,214.47 361.84,215.31 361.43,216.29C360.89,217.57 360.07,219.54 359.58,220.71C359.26,221.47 359.08,221.93 358.79,222.6C358.45,223.38 358.09,224.16 357.66,225.12C357.09,226.39 356.15,228.48 355.67,229.54C355.4,230.13 355.3,230.37 355.05,230.92C354.67,231.74 354.14,232.84 353.61,233.95C352.95,235.33 352.14,237.06 351.405,238.555C350.7,240 349.97,241.45 349.3,242.78C348.7,243.98 347.99,245.39 347.58,246.19C347.36,246.62 347.29,246.74 347.05,247.19C346.55,248.14 345.31,250.49 344.72,251.61C344.36,252.3 344.18,252.66 343.84,253.28C343.41,254.08 342.89,255.01 342.33,256.02C341.64,257.27 340.8,258.8 339.99,260.235C339.14,261.74 338.02,263.69 337.35,264.85C336.94,265.56 336.73,265.93 336.36,266.56C335.89,267.36 335.32,268.3 334.75,269.26C334.09,270.36 333.1,272.04 332.63,272.82C332.4,273.21 332.35,273.28 332.1,273.68C331.54,274.58 329.91,277.22 329.37,278.09C329.14,278.46 329.11,278.52 328.89,278.87C328.41,279.64 327.26,281.45 326.58,282.51C326.05,283.34 325.63,283.99 325.15,284.73C324.67,285.46 324.25,286.11 323.71,286.92C323.03,287.95 321.94,289.62 321.41,290.41C321.14,290.82 321.08,290.91 320.79,291.33C320.16,292.26 318.75,294.35 317.735,295.83000000000004C316.73,297.29 315.4,299.19 314.72,300.16C314.38,300.65 314.27,300.81 313.94,301.28C313.37,302.09 312.26,303.63 311.58,304.58C311.06,305.31 310.69,305.82 310.2,306.5C309.64,307.28 309,308.15 308.38,308.99C307.75,309.85 307.05,310.79 306.46,311.58C305.97,312.24 305.62,312.71 305.1,313.4C304.42,314.31 303.35,315.73 302.73,316.54C302.33,317.06 302.16,317.29 301.75,317.82C301.06,318.71 299.6,320.6 298.99,321.38C298.69,321.76 298.62,321.84 298.32,322.23C297.67,323.05 295.81,325.41 295.25,326.11C295.04,326.37 295.03,326.39 294.82,326.65C294.22,327.39 292.55,329.47 291.38,330.895C290.17,332.37 288.92,333.87 287.67999999999995,335.355C286.44,336.83 285.19,338.31 283.94,339.775C282.69,341.24 281.41,342.71 280.15999999999997,344.14C278.95,345.52 277.2,347.5 276.57,348.21C276.35,348.46 276.33,348.47 276.11,348.72C275.51,349.38 273.53,351.57 272.83,352.34C272.5,352.7 272.43,352.78 272.11,353.13C271.45,353.85 269.84,355.58 269.09,356.39C268.64,356.87 268.45,357.08 268.01,357.55C267.32,358.28 266.12,359.55 265.35,360.35C264.77,360.96 264.37,361.38 263.81,361.96C263.15,362.65 262.34,363.48 261.62,364.22C260.91,364.95 260.17,365.7 259.51,366.37C258.93,366.95 258.5,367.39 257.88,368.01C257.08,368.82 255.78,370.11 255.09,370.79C254.69,371.18 254.56,371.3 254.14,371.71C253.31,372.51 251.71,374.08 250.47,375.27C249.22,376.47 247.46,378.13 246.67,378.88C246.31,379.22 246.23,379.3 245.88,379.62C245.21,380.24 243.8,381.53 242.93,382.33C242.24,382.96 241.7,383.47 241.08,384.03C240.46,384.59 239.9,385.08 239.19,385.71C238.29,386.51 236.77,387.87 236.12,388.44C235.82,388.71 235.76,388.75 235.45,389.02C234.71,389.66 232.48,391.59 231.72,392.24C231.38,392.53 231.32,392.58 230.99,392.86C230.33,393.42 228.92,394.59 227.98,395.37C227.17,396.05 226.37,396.72 225.69,397.27C225.15,397.71 224.84,397.95 224.24,398.43C223.26,399.22 221.62,400.55 220.345,401.555C219.13,402.51 217.83,403.5 216.77,404.32C215.91,404.98 215.13,405.59 214.45,406.1C213.92,406.5 213.62,406.71 213.03,407.14C212.08,407.84 210.09,409.3 209.29,409.89C208.91,410.17 208.82,410.25 208.45,410.52C207.78,411.01 206.58,411.84 205.56,412.55C204.43,413.34 203.21,414.21 201.985,415.03999999999996C200.72,415.9 199.24,416.87 198.08,417.64C197.14,418.27 196.21,418.89 195.52,419.34C195.05,419.64 194.84,419.76 194.34,420.08C193.44,420.64 191.68,421.75 190.61,422.42C189.8,422.93 189.13,423.36 188.47,423.76C187.9,424.1 187.51,424.31 186.87,424.69C185.88,425.27 184.21,426.25 183.13,426.88C182.3,427.37 181.59,427.79 180.92,428.17C180.37,428.48 180.01,428.66 179.39,429C178.42,429.53 176.83,430.39 175.66,431.02C174.63,431.58 173.43,432.24 172.75,432.59C172.39,432.78 172.3,432.81 171.92,433C171.12,433.39 169.43,434.24 168.18,434.85C166.93,435.46 165.17,436.32 164.44,436.68Q164.14,436.83 163.8,437" style="stroke-miterlimit: 1; vector-effect: non-scaling-stroke; fill: none; stroke: rgb(85, 62, 47); stroke-opacity: 1; stroke-width: 2px;"/></g><g class="contourlevel"><path class="openline" d="M0,278.28Q1.28,275.2 1.9,273.68C2.51,272.18 3.09,270.69 3.72,269.22C4.35,267.75 5.03,266.29 5.68,264.85C6.32,263.43 6.9,262.06 7.5649999999999995,260.625C8.27,259.12 9.13,257.39 9.79,256.02C10.32,254.92 10.81,253.84 11.21,253.03C11.49,252.47 11.64,252.22 11.95,251.61C12.5,250.54 13.65,248.27 14.2,247.19C14.52,246.57 14.65,246.28 14.95,245.71C15.38,244.9 15.96,243.85 16.54,242.78C17.23,241.5 18.02,240 18.805,238.565C19.64,237.06 20.75,235.14 21.41,233.95C21.83,233.21 22.04,232.79 22.42,232.13C22.87,231.34 23.4,230.49 23.96,229.54C24.63,228.4 25.72,226.51 26.16,225.77C26.34,225.46 26.37,225.43 26.56,225.12C27.06,224.3 28.66,221.69 29.25,220.71C29.54,220.23 29.62,220.08 29.9,219.62C30.4,218.81 31.34,217.33 32,216.29C32.58,215.36 33.14,214.46 33.64,213.67C34.06,213.01 34.33,212.6 34.8,211.88C35.52,210.77 36.58,209.11 37.515,207.675C38.5,206.17 39.99,203.95 40.59,203.05C40.84,202.68 40.87,202.62 41.11,202.26C41.63,201.49 42.89,199.65 43.58,198.64C44.07,197.91 44.39,197.43 44.85,196.76C45.39,195.98 46.01,195.09 46.62,194.22C47.26,193.3 48.02,192.19 48.59,191.38C49.01,190.78 49.26,190.44 49.71,189.81C50.4,188.84 51.78,186.86 52.32,186.11C52.56,185.78 52.59,185.73 52.84,185.39C53.45,184.54 54.97,182.43 56.045,180.95499999999998C57.12,179.49 58.65,177.42 59.27,176.57C59.52,176.22 59.55,176.18 59.8,175.84C60.36,175.08 61.86,173.07 62.55,172.15C62.96,171.6 63.14,171.35 63.54,170.82C64.15,170 65.19,168.64 65.87,167.74C66.4,167.04 66.76,166.55 67.27,165.88C67.87,165.09 68.6,164.15 69.24,163.32C69.85,162.53 70.43,161.76 71.01,161.01C71.57,160.29 72.07,159.66 72.65,158.91C73.31,158.06 74.13,157 74.75,156.2C75.25,155.56 75.58,155.14 76.09,154.49C76.77,153.62 77.83,152.26 78.48,151.45C78.92,150.9 79.14,150.64 79.58,150.08C80.27,149.21 81.57,147.55 82.22,146.75C82.59,146.29 82.72,146.14 83.1,145.67C83.78,144.83 85.33,142.89 85.96,142.11C86.27,141.72 86.34,141.64 86.66,141.25C87.32,140.44 89.09,138.25 89.7,137.51C89.96,137.2 89.99,137.16 90.25,136.84C90.87,136.08 92.85,133.66 93.43,132.96C93.65,132.7 93.66,132.68 93.88,132.42C94.47,131.71 96.61,129.13 97.17,128.46C97.36,128.24 97.36,128.24 97.55,128.01C98.13,127.32 99.88,125.22 101.08,123.8C102.31,122.34 103.59,120.84 104.82,119.385C106.02,117.97 107.79,115.89 108.38,115.21C108.57,114.99 108.58,114.99 108.77,114.77C109.34,114.12 111.52,111.58 112.12,110.88C112.34,110.62 112.36,110.61 112.58,110.35C113.18,109.67 115.22,107.33 115.86,106.59C116.13,106.28 116.16,106.24 116.43,105.94C117.06,105.23 118.92,103.12 119.6,102.35C119.93,101.98 120,101.9 120.32,101.53C120.98,100.79 122.62,98.95 123.33,98.15C123.73,97.7 123.86,97.55 124.25,97.11C124.93,96.35 126.34,94.8 127.07,93.99C127.54,93.47 127.77,93.21 128.23,92.7C128.92,91.94 130.08,90.68 130.81,89.87C131.36,89.26 131.71,88.87 132.25,88.28C132.93,87.54 133.83,86.58 134.55,85.8C135.18,85.12 135.72,84.53 136.33,83.87C136.96,83.19 137.61,82.5 138.28,81.78C138.98,81.02 139.78,80.16 140.45,79.45C141.01,78.85 141.43,78.42 142.02,77.8C142.78,77 143.94,75.76 144.63,75.04C145.08,74.57 145.29,74.37 145.76,73.88C146.54,73.07 148.24,71.29 148.88,70.63C149.16,70.34 149.2,70.3 149.49,70C150.2,69.27 151.96,67.45 153.20999999999998,66.19C154.46,64.92 156.26,63.13 156.97,62.41C157.26,62.12 157.29,62.08 157.57,61.8C158.21,61.16 159.89,59.53 160.71,58.71C161.25,58.18 161.53,57.88 162.04,57.38C162.72,56.71 163.66,55.81 164.44,55.06C165.18,54.35 165.93,53.61 166.59,52.97C167.16,52.43 167.56,52.05 168.18,51.47C169.04,50.66 170.6,49.17 171.25,48.56C171.55,48.28 171.6,48.23 171.92,47.94C172.68,47.23 174.56,45.48 175.84,44.31C177.05,43.21 178.45,41.96 179.39,41.11C180,40.56 180.35,40.23 180.91,39.73C181.58,39.14 182.35,38.48 183.13,37.79C184.01,37.01 185.26,35.9 185.95,35.31C186.34,34.98 186.46,34.88 186.87,34.54C187.7,33.84 189.92,31.96 190.61,31.37C190.87,31.15 190.89,31.12 191.15,30.9C191.77,30.38 193.38,29.09 194.34,28.3C195.14,27.64 195.87,27.02 196.54,26.48C197.09,26.04 197.45,25.78 198.08,25.29C199.09,24.5 200.71,23.19 201.99,22.21C203.2,21.28 204.48,20.34 205.56,19.53C206.46,18.85 207.35,18.17 208.04,17.66C208.52,17.3 208.76,17.15 209.29,16.77C210.2,16.12 212.13,14.76 213.03,14.11C213.54,13.74 213.75,13.57 214.23,13.24C214.92,12.77 215.83,12.18 216.77,11.56C217.93,10.79 219.39,9.77 220.67000000000002,8.940000000000001C221.88,8.16 223.04,7.46 224.24,6.71C225.46,5.94 226.7,5.14 227.945,4.390000000000001C229.19,3.65 230.45,2.97 231.72,2.24Q233.01,1.5 235.62,0" style="stroke-miterlimit: 1; vector-effect: non-scaling-stroke; fill: none; stroke: rgb(112, 77, 54); stroke-opacity: 1; stroke-width: 2px;"/><path class="openline" d="M370,158.72Q368.72,161.8 368.1,163.32C367.49,164.82 366.91,166.31 366.28,167.78C365.65,169.25 364.97,170.71 364.32,172.15C363.68,173.57 363.1,174.94 362.43499999999995,176.375C361.73,177.88 360.87,179.61 360.21,180.98C359.68,182.08 359.19,183.16 358.79,183.97C358.51,184.53 358.36,184.78 358.05,185.39C357.5,186.46 356.35,188.73 355.8,189.81C355.48,190.43 355.35,190.72 355.05,191.29C354.62,192.1 354.04,193.15 353.46,194.22C352.77,195.5 351.98,197 351.195,198.435C350.36,199.94 349.25,201.86 348.59,203.05C348.17,203.79 347.96,204.21 347.58,204.87C347.13,205.66 346.6,206.51 346.04,207.46C345.37,208.6 344.28,210.49 343.84,211.23C343.66,211.54 343.63,211.57 343.44,211.88C342.94,212.7 341.34,215.31 340.75,216.29C340.46,216.77 340.38,216.92 340.1,217.38C339.6,218.19 338.66,219.67 338,220.71C337.42,221.64 336.86,222.54 336.36,223.33C335.94,223.99 335.67,224.4 335.2,225.12C334.48,226.23 333.42,227.89 332.485,229.325C331.5,230.83 330.01,233.05 329.41,233.95C329.16,234.32 329.13,234.38 328.89,234.74C328.37,235.51 327.11,237.35 326.42,238.36C325.93,239.09 325.61,239.57 325.15,240.24C324.61,241.02 323.99,241.91 323.38,242.78C322.74,243.7 321.98,244.81 321.41,245.62C320.99,246.22 320.74,246.56 320.29,247.19C319.6,248.16 318.22,250.14 317.68,250.89C317.44,251.22 317.41,251.27 317.16,251.61C316.55,252.46 315.03,254.57 313.95500000000004,256.04499999999996C312.88,257.51 311.35,259.58 310.73,260.43C310.48,260.78 310.45,260.82 310.2,261.16C309.64,261.92 308.14,263.93 307.45,264.85C307.04,265.4 306.86,265.65 306.46,266.18C305.85,267 304.81,268.36 304.13,269.26C303.6,269.96 303.24,270.45 302.73,271.12C302.13,271.91 301.4,272.85 300.76,273.68C300.15,274.47 299.57,275.24 298.99,275.99C298.43,276.71 297.93,277.34 297.35,278.09C296.69,278.94 295.87,280 295.25,280.8C294.75,281.44 294.42,281.86 293.91,282.51C293.23,283.38 292.17,284.74 291.52,285.55C291.08,286.1 290.86,286.36 290.42,286.92C289.73,287.79 288.43,289.45 287.78,290.25C287.41,290.71 287.28,290.86 286.9,291.33C286.22,292.17 284.67,294.11 284.04,294.89C283.73,295.28 283.66,295.36 283.34,295.75C282.68,296.56 280.91,298.75 280.3,299.49C280.04,299.8 280.01,299.84 279.75,300.16C279.13,300.92 277.15,303.34 276.57,304.04C276.35,304.3 276.34,304.32 276.12,304.58C275.53,305.29 273.39,307.87 272.83,308.54C272.64,308.76 272.64,308.76 272.45,308.99C271.87,309.68 270.12,311.78 268.91999999999996,313.2C267.69,314.66 266.41,316.16 265.18,317.615C263.98,319.03 262.21,321.11 261.62,321.79C261.43,322.01 261.42,322.01 261.23,322.23C260.66,322.88 258.48,325.42 257.88,326.12C257.66,326.38 257.64,326.39 257.42,326.65C256.82,327.33 254.78,329.67 254.14,330.41C253.87,330.72 253.84,330.76 253.57,331.06C252.94,331.77 251.08,333.88 250.4,334.65C250.07,335.02 250,335.1 249.68,335.47C249.02,336.21 247.38,338.05 246.67,338.85C246.27,339.3 246.14,339.45 245.75,339.89C245.07,340.65 243.66,342.2 242.93,343.01C242.46,343.53 242.23,343.79 241.77,344.3C241.08,345.06 239.92,346.32 239.19,347.13C238.64,347.74 238.29,348.13 237.75,348.72C237.07,349.46 236.17,350.42 235.45,351.2C234.82,351.88 234.28,352.47 233.67,353.13C233.04,353.81 232.39,354.5 231.72,355.22C231.02,355.98 230.22,356.84 229.55,357.55C228.99,358.15 228.57,358.58 227.98,359.2C227.22,360 226.06,361.24 225.37,361.96C224.92,362.43 224.71,362.63 224.24,363.12C223.46,363.93 221.76,365.71 221.12,366.37C220.84,366.66 220.8,366.7 220.51,367C219.8,367.73 218.04,369.55 216.79000000000002,370.81C215.54,372.08 213.74,373.87 213.03,374.59C212.74,374.88 212.71,374.92 212.43,375.2C211.79,375.84 210.11,377.47 209.29,378.29C208.75,378.82 208.47,379.12 207.96,379.62C207.28,380.29 206.34,381.19 205.56,381.94C204.82,382.65 204.07,383.39 203.41,384.03C202.84,384.57 202.44,384.95 201.82,385.53C200.96,386.34 199.4,387.83 198.75,388.44C198.45,388.72 198.4,388.77 198.08,389.06C197.32,389.77 195.44,391.52 194.16,392.69C192.95,393.79 191.55,395.04 190.61,395.89C190,396.44 189.65,396.77 189.09,397.27C188.42,397.86 187.65,398.52 186.87,399.21C185.99,399.99 184.74,401.1 184.05,401.69C183.66,402.02 183.54,402.12 183.13,402.46C182.3,403.16 180.08,405.04 179.39,405.63C179.13,405.85 179.11,405.88 178.85,406.1C178.23,406.62 176.62,407.91 175.66,408.7C174.86,409.36 174.13,409.98 173.46,410.52C172.91,410.96 172.55,411.22 171.92,411.71C170.91,412.5 169.29,413.81 168.01,414.78999999999996C166.8,415.72 165.52,416.66 164.44,417.47C163.54,418.15 162.65,418.83 161.96,419.34C161.48,419.7 161.24,419.85 160.71,420.23C159.8,420.88 157.87,422.24 156.97,422.89C156.46,423.26 156.25,423.43 155.77,423.76C155.08,424.23 154.17,424.82 153.23,425.44C152.07,426.21 150.61,427.23 149.32999999999998,428.06C148.12,428.84 146.96,429.54 145.76,430.29C144.54,431.06 143.3,431.86 142.055,432.61C140.81,433.35 139.55,434.03 138.28,434.76Q136.99,435.5 134.38,437" style="stroke-miterlimit: 1; vector-effect: non-scaling-stroke; fill: none; stroke: rgb(112, 77, 54); stroke-opacity: 1; stroke-width: 2px;"/></g><g class="contourlevel"><path class="openline" d="M0,304.25Q1.38,301.48 2.02,300.16C2.62,298.93 3.34,297.34 3.74,296.57C3.93,296.2 3.98,296.13 4.19,295.75C4.67,294.86 5.94,292.48 6.54,291.33C6.92,290.6 7.11,290.17 7.47,289.52C7.91,288.73 8.43,287.89 8.99,286.92C9.7,285.69 10.52,284.16 11.355,282.74C12.24,281.22 13.54,279.17 14.18,278.09C14.52,277.52 14.63,277.31 14.95,276.78C15.45,275.96 16.31,274.69 16.95,273.68C17.55,272.73 18.17,271.7 18.69,270.9C19.09,270.28 19.34,269.93 19.79,269.26C20.51,268.18 21.61,266.49 22.575000000000003,265.06C23.6,263.55 25.22,261.24 25.77,260.43C25.96,260.15 25.97,260.13 26.16,259.85C26.66,259.13 28.22,256.99 28.91,256.02C29.33,255.43 29.5,255.16 29.9,254.6C30.49,253.78 31.45,252.52 32.12,251.61C32.68,250.85 33.11,250.22 33.64,249.5C34.2,248.74 34.79,247.99 35.39,247.19C36.03,246.34 36.77,245.32 37.37,244.53C37.86,243.88 38.22,243.45 38.74,242.78C39.43,241.89 40.48,240.47 41.11,239.66C41.52,239.13 41.72,238.9 42.14,238.36C42.83,237.48 44.22,235.68 44.85,234.89C45.18,234.48 45.27,234.37 45.61,233.95C46.28,233.12 47.99,230.92 48.59,230.19C48.84,229.88 48.87,229.85 49.13,229.54C49.77,228.75 51.35,226.76 52.504999999999995,225.34C53.7,223.87 54.95,222.34 56.18,220.85000000000002C57.41,219.36 58.64,217.87 59.875,216.38C61.11,214.89 62.34,213.41 63.58,211.93C64.82,210.45 66.06,208.97 67.3,207.495C68.54,206.02 69.79,204.55 71.035,203.08C72.28,201.61 73.53,200.14 74.78,198.67C76.03,197.2 77.27,195.74 78.525,194.26999999999998C79.77,192.81 81.03,191.34 82.28,189.88C83.53,188.42 84.79,186.95 86.03999999999999,185.485C87.29,184.02 88.55,182.56 89.805,181.1C91.06,179.64 92.31,178.18 93.56,176.715C94.81,175.25 96.07,173.79 97.325,172.32999999999998C98.58,170.87 99.85,169.38 101.08500000000001,167.94C102.29,166.53 104.06,164.47 104.65,163.78C104.85,163.55 104.85,163.55 105.04,163.32C105.61,162.65 107.79,160.08 108.38,159.4C108.59,159.16 108.6,159.15 108.81,158.91C109.4,158.23 111.53,155.72 112.12,155.02C112.34,154.76 112.35,154.75 112.57,154.49C113.16,153.79 115.26,151.34 115.86,150.63C116.08,150.36 116.1,150.35 116.32,150.08C116.92,149.37 119,146.92 119.6,146.22C119.83,145.95 119.84,145.94 120.07,145.67C120.67,144.97 122.73,142.52 123.33,141.81C123.56,141.54 123.58,141.52 123.81,141.25C124.41,140.54 126.48,138.1 127.07,137.39C127.29,137.12 127.31,137.11 127.53,136.84C128.13,136.13 130.22,133.65 130.81,132.95C131.03,132.69 131.03,132.68 131.25,132.42C131.84,131.72 133.98,129.2 134.55,128.51C134.75,128.27 134.76,128.25 134.96,128.01C135.53,127.32 137.71,124.73 138.28,124.06C138.47,123.83 138.48,123.83 138.67,123.6C139.26,122.9 141,120.81 142.19,119.39C143.41,117.93 144.67,116.43 145.91,114.94999999999999C147.15,113.47 148.38,111.99 149.62,110.505C150.86,109.02 152.1,107.55 153.33499999999998,106.065C154.57,104.59 155.81,103.11 157.05,101.625C158.29,100.14 159.53,98.66 160.765,97.18C162,95.7 163.24,94.23 164.485,92.75C165.73,91.27 166.97,89.79 168.21,88.315C169.45,86.84 170.7,85.37 171.945,83.9C173.19,82.43 174.44,80.95 175.685,79.485C176.93,78.02 178.18,76.56 179.435,75.095C180.69,73.63 181.95,72.17 183.20499999999998,70.715C184.46,69.26 185.72,67.81 186.99,66.35499999999999C188.25,64.91 189.55,63.43 190.79500000000002,62.015C192,60.65 193.67,58.78 194.34,58.02C194.61,57.72 194.64,57.68 194.9,57.38C195.52,56.68 197.37,54.66 198.08,53.87C198.44,53.47 198.53,53.36 198.88,52.97C199.55,52.23 201.08,50.59 201.82,49.78C202.28,49.28 202.47,49.05 202.92,48.56C203.61,47.81 204.81,46.56 205.56,45.75C206.13,45.14 206.49,44.72 207.04,44.14C207.71,43.43 208.57,42.56 209.29,41.8C209.97,41.09 210.61,40.39 211.25,39.73C211.85,39.11 212.39,38.59 213.03,37.93C213.8,37.14 214.87,36 215.56,35.31C216.03,34.84 216.27,34.63 216.77,34.14C217.59,33.33 219.4,31.49 220.01,30.9C220.25,30.67 220.27,30.67 220.51,30.44C221.2,29.79 223.14,27.87 224.42000000000002,26.66C225.63,25.52 227.07,24.23 227.98,23.38C228.55,22.85 228.83,22.55 229.36,22.07C230.04,21.46 230.92,20.73 231.72,20.02C232.57,19.26 233.65,18.26 234.34,17.66C234.78,17.28 234.97,17.14 235.45,16.74C236.36,15.98 238.1,14.47 239.39,13.415C240.59,12.43 241.89,11.44 242.93,10.61C243.75,9.95 244.46,9.35 245.13,8.83C245.68,8.41 246.05,8.18 246.67,7.72C247.64,7.01 249.65,5.52 250.4,4.95C250.73,4.7 250.78,4.64 251.1,4.41C251.75,3.94 253.1,3.09 254.14,2.38Q255.26,1.62 257.6,0" style="stroke-miterlimit: 1; vector-effect: non-scaling-stroke; fill: none; stroke: rgb(138, 93, 57); stroke-opacity: 1; stroke-width: 2px;"/><path class="openline" d="M370,132.75Q368.62,135.52 367.98,136.84C367.38,138.07 366.66,139.66 366.26,140.43C366.07,140.8 366.02,140.87 365.81,141.25C365.33,142.14 364.06,144.52 363.46,145.67C363.08,146.4 362.89,146.83 362.53,147.48C362.09,148.27 361.57,149.11 361.01,150.08C360.3,151.31 359.48,152.84 358.645,154.26C357.76,155.78 356.46,157.83 355.82,158.91C355.48,159.48 355.37,159.69 355.05,160.22C354.55,161.04 353.69,162.31 353.05,163.32C352.45,164.27 351.83,165.3 351.31,166.1C350.91,166.72 350.66,167.07 350.21,167.74C349.49,168.82 348.39,170.51 347.42499999999995,171.94C346.4,173.45 344.78,175.76 344.23,176.57C344.04,176.85 344.03,176.87 343.84,177.15C343.34,177.87 341.78,180.01 341.09,180.98C340.67,181.57 340.5,181.84 340.1,182.4C339.51,183.22 338.55,184.48 337.88,185.39C337.32,186.15 336.89,186.78 336.36,187.5C335.8,188.26 335.21,189.01 334.61,189.81C333.97,190.66 333.23,191.68 332.63,192.47C332.14,193.12 331.78,193.55 331.26,194.22C330.57,195.11 329.52,196.53 328.89,197.34C328.48,197.87 328.28,198.1 327.86,198.64C327.17,199.52 325.78,201.32 325.15,202.11C324.82,202.52 324.73,202.63 324.39,203.05C323.72,203.88 322.01,206.08 321.41,206.81C321.16,207.12 321.13,207.15 320.87,207.46C320.23,208.25 318.65,210.24 317.495,211.66C316.3,213.13 315.05,214.66 313.82,216.14999999999998C312.59,217.64 311.36,219.13 310.125,220.62C308.89,222.11 307.66,223.59 306.41999999999996,225.07C305.18,226.55 303.94,228.03 302.70000000000005,229.505C301.46,230.98 300.21,232.45 298.96500000000003,233.92C297.72,235.39 296.47,236.86 295.22,238.33C293.97,239.8 292.73,241.26 291.475,242.73000000000002C290.23,244.19 288.97,245.66 287.72,247.12C286.47,248.58 285.21,250.05 283.96000000000004,251.515C282.71,252.98 281.45,254.44 280.195,255.89999999999998C278.94,257.36 277.69,258.82 276.44,260.28499999999997C275.19,261.75 273.93,263.21 272.67499999999995,264.67C271.42,266.13 270.15,267.62 268.91499999999996,269.06C267.71,270.47 265.94,272.53 265.35,273.22C265.15,273.45 265.15,273.45 264.96,273.68C264.39,274.35 262.21,276.92 261.62,277.6C261.41,277.84 261.4,277.85 261.19,278.09C260.6,278.77 258.47,281.28 257.88,281.98C257.66,282.24 257.65,282.25 257.43,282.51C256.84,283.21 254.74,285.66 254.14,286.37C253.92,286.64 253.9,286.65 253.68,286.92C253.08,287.63 251,290.08 250.4,290.78C250.17,291.05 250.16,291.06 249.93,291.33C249.33,292.03 247.27,294.48 246.67,295.19C246.44,295.46 246.42,295.48 246.19,295.75C245.59,296.46 243.52,298.9 242.93,299.61C242.71,299.88 242.69,299.89 242.47,300.16C241.87,300.87 239.78,303.35 239.19,304.05C238.97,304.31 238.97,304.32 238.75,304.58C238.16,305.28 236.02,307.8 235.45,308.49C235.25,308.73 235.24,308.75 235.04,308.99C234.47,309.68 232.29,312.27 231.72,312.94C231.53,313.17 231.52,313.17 231.33,313.4C230.74,314.1 229,316.19 227.81,317.61C226.59,319.07 225.33,320.57 224.09,322.05C222.85,323.53 221.62,325.01 220.38,326.495C219.14,327.98 217.9,329.46 216.66500000000002,330.935C215.43,332.42 214.19,333.89 212.95,335.375C211.71,336.86 210.47,338.34 209.235,339.82C208,341.3 206.76,342.77 205.515,344.25C204.27,345.73 203.03,347.21 201.79,348.685C200.55,350.16 199.3,351.63 198.055,353.1C196.81,354.57 195.56,356.05 194.315,357.515C193.07,358.98 191.82,360.44 190.565,361.905C189.31,363.37 188.05,364.83 186.79500000000002,366.28499999999997C185.54,367.74 184.28,369.19 183.01,370.645C181.75,372.09 180.45,373.57 179.20499999999998,374.985C178,376.35 176.33,378.22 175.66,378.98C175.39,379.28 175.36,379.32 175.1,379.62C174.48,380.32 172.63,382.34 171.92,383.13C171.56,383.53 171.47,383.64 171.12,384.03C170.45,384.77 168.92,386.41 168.18,387.22C167.72,387.72 167.53,387.95 167.08,388.44C166.39,389.19 165.19,390.44 164.44,391.25C163.87,391.86 163.51,392.28 162.96,392.86C162.29,393.57 161.43,394.44 160.71,395.2C160.03,395.91 159.39,396.61 158.75,397.27C158.15,397.89 157.61,398.41 156.97,399.07C156.2,399.86 155.13,401 154.44,401.69C153.97,402.16 153.73,402.37 153.23,402.86C152.41,403.67 150.6,405.51 149.99,406.1C149.75,406.33 149.73,406.33 149.49,406.56C148.8,407.21 146.86,409.13 145.57999999999998,410.34000000000003C144.37,411.48 142.93,412.77 142.02,413.62C141.45,414.15 141.17,414.45 140.64,414.93C139.96,415.54 139.08,416.27 138.28,416.98C137.43,417.74 136.35,418.74 135.66,419.34C135.22,419.72 135.03,419.86 134.55,420.26C133.64,421.02 131.9,422.53 130.61,423.58500000000004C129.41,424.57 128.11,425.56 127.07,426.39C126.25,427.05 125.54,427.65 124.87,428.17C124.32,428.59 123.95,428.82 123.33,429.28C122.36,429.99 120.35,431.48 119.6,432.05C119.27,432.3 119.22,432.36 118.9,432.59C118.25,433.06 116.9,433.91 115.86,434.62Q114.74,435.38 112.4,437" style="stroke-miterlimit: 1; vector-effect: non-scaling-stroke; fill: none; stroke: rgb(138, 93, 57); stroke-opacity: 1; stroke-width: 2px;"/></g><g class="contourlevel"><path class="openline" d="M0,324.83Q1.02,323.18 1.58,322.23C2.25,321.1 3.27,319.25 3.74,318.51C3.95,318.18 3.99,318.15 4.21,317.82C4.76,316.99 6.54,314.22 7.06,313.4C7.26,313.08 7.27,313.05 7.47,312.74C7.96,312 9.43,309.98 10.12,308.99C10.57,308.34 10.78,307.98 11.21,307.37C11.79,306.56 12.68,305.46 13.33,304.58C13.91,303.8 14.39,303.07 14.95,302.34C15.52,301.6 16.11,300.92 16.71,300.16C17.36,299.34 18.06,298.37 18.69,297.59C19.23,296.92 19.68,296.43 20.24,295.75C20.91,294.94 21.75,293.84 22.42,293.05C22.96,292.41 23.38,291.97 23.93,291.33C24.6,290.55 25.47,289.48 26.16,288.69C26.74,288.03 27.21,287.56 27.78,286.92C28.44,286.18 29.21,285.25 29.9,284.49C30.53,283.79 31.14,283.18 31.76,282.51C32.39,281.83 32.98,281.13 33.64,280.42C34.35,279.66 35.2,278.8 35.87,278.09C36.42,277.5 36.79,277.07 37.37,276.46C38.14,275.65 39.4,274.4 40.09,273.68C40.51,273.24 40.67,273.05 41.11,272.59C41.89,271.78 43.81,269.86 44.4,269.26C44.62,269.04 44.63,269.03 44.85,268.8C45.5,268.14 47.44,266.21 48.705,264.96000000000004C49.93,263.75 51.48,262.21 52.32,261.4C52.76,260.97 52.92,260.84 53.34,260.43C54.03,259.76 55.24,258.56 56.06,257.77C56.73,257.12 57.29,256.61 57.91,256.02C58.54,255.42 59.11,254.84 59.8,254.18C60.62,253.39 61.83,252.27 62.52,251.61C62.94,251.2 63.09,251.05 63.54,250.62C64.38,249.81 65.98,248.3 67.21000000000001,247.135C68.46,245.95 70.2,244.31 71.01,243.55C71.39,243.2 71.49,243.12 71.85,242.78C72.53,242.15 73.9,240.83 74.75,240.03C75.42,239.4 75.93,238.93 76.54,238.36C77.18,237.76 77.78,237.17 78.48,236.51C79.31,235.72 80.53,234.6 81.22,233.95C81.64,233.55 81.78,233.41 82.22,232.99C83.06,232.19 84.68,230.67 85.91499999999999,229.495C87.17,228.31 88.89,226.66 89.7,225.9C90.08,225.54 90.17,225.46 90.53,225.12C91.21,224.48 92.59,223.13 93.43,222.33C94.07,221.72 94.55,221.28 95.14,220.71C95.79,220.09 96.46,219.42 97.17,218.73C97.96,217.96 99,216.96 99.69,216.29C100.17,215.82 100.4,215.59 100.91,215.09C101.74,214.28 103.58,212.47 104.18,211.88C104.41,211.65 104.42,211.64 104.65,211.41C105.31,210.75 107.24,208.84 108.5,207.57999999999998C109.73,206.35 111.32,204.74 112.12,203.94C112.51,203.54 112.62,203.43 113,203.05C113.68,202.36 115.07,200.93 115.86,200.12C116.42,199.54 116.77,199.19 117.3,198.64C117.98,197.94 118.87,197.01 119.6,196.24C120.27,195.54 120.9,194.89 121.53,194.22C122.14,193.57 122.69,192.98 123.33,192.3C124.06,191.52 124.99,190.54 125.67,189.81C126.2,189.24 126.53,188.88 127.07,188.29C127.82,187.48 129.04,186.15 129.73,185.39C130.17,184.91 130.36,184.69 130.81,184.2C131.54,183.39 133.03,181.73 133.71,180.98C134.07,180.57 134.18,180.45 134.55,180.04C135.25,179.25 136.96,177.32 137.61,176.57C137.92,176.22 137.97,176.15 138.28,175.79C138.94,175.02 140.8,172.89 141.43,172.15C141.71,171.83 141.75,171.78 142.02,171.46C142.65,170.71 144.54,168.49 145.17,167.74C145.44,167.41 145.49,167.37 145.76,167.04C146.39,166.29 148.19,164.1 148.84,163.32C149.14,162.96 149.2,162.89 149.49,162.53C150.12,161.76 151.77,159.74 152.44,158.91C152.79,158.48 152.89,158.35 153.23,157.92C153.87,157.12 155.27,155.36 155.96,154.49C156.38,153.96 156.56,153.74 156.97,153.22C157.61,152.41 158.73,150.96 159.42,150.08C159.92,149.44 160.23,149.05 160.71,148.43C161.33,147.63 162.16,146.53 162.82,145.67C163.4,144.91 163.89,144.25 164.44,143.53C165.01,142.78 165.56,142.04 166.16,141.25C166.81,140.39 167.59,139.35 168.18,138.55C168.65,137.92 168.95,137.51 169.44,136.84C170.13,135.9 171.33,134.26 171.92,133.46C172.24,133.01 172.33,132.88 172.67,132.42C173.35,131.48 174.72,129.6 175.755,128.14999999999998C176.83,126.66 178.44,124.38 179,123.6C179.19,123.33 179.2,123.32 179.39,123.05C179.89,122.34 181.42,120.16 182.11,119.18C182.53,118.58 182.73,118.31 183.13,117.74C183.7,116.93 184.54,115.71 185.19,114.77C185.78,113.92 186.34,113.13 186.87,112.36C187.35,111.66 187.72,111.11 188.24,110.35C188.92,109.36 190.07,107.72 190.61,106.92C190.9,106.5 190.96,106.38 191.26,105.94C191.9,104.99 193.3,102.96 194.305,101.475C195.3,100.01 196.58,98.1 197.26,97.11C197.62,96.59 197.74,96.42 198.08,95.93C198.63,95.12 199.58,93.68 200.25,92.7C200.81,91.87 201.31,91.15 201.82,90.4C202.3,89.68 202.7,89.07 203.23,88.28C203.91,87.27 205.03,85.66 205.56,84.86C205.85,84.43 205.91,84.32 206.21,83.87C206.85,82.91 208.24,80.86 209.245,79.38C210.23,77.92 211.5,76.04 212.19,75.04C212.55,74.51 212.69,74.34 213.03,73.84C213.59,73.03 214.54,71.6 215.21,70.63C215.77,69.82 216.26,69.14 216.77,68.4C217.27,67.67 217.7,67.01 218.25,66.21C218.92,65.24 219.95,63.81 220.51,63C220.85,62.51 220.96,62.32 221.32,61.8C222,60.81 223.31,58.97 224.335,57.519999999999996C225.39,56.03 227.02,53.74 227.58,52.97C227.77,52.7 227.79,52.7 227.98,52.44C228.5,51.74 230.1,49.49 230.79,48.56C231.18,48.04 231.34,47.84 231.72,47.34C232.33,46.53 233.39,45.05 234.07,44.14C234.59,43.46 234.95,43.01 235.45,42.36C236.05,41.57 236.77,40.56 237.42,39.73C238.02,38.95 238.61,38.25 239.19,37.51C239.76,36.78 240.27,36.06 240.87,35.31C241.51,34.5 242.3,33.59 242.93,32.81C243.47,32.13 243.87,31.58 244.43,30.9C245.09,30.09 246.01,29.07 246.67,28.27C247.21,27.62 247.57,27.12 248.12,26.48C248.79,25.69 249.72,24.7 250.4,23.91C250.97,23.25 251.39,22.71 251.96,22.07C252.62,21.33 253.45,20.49 254.14,19.73C254.79,19.02 255.36,18.33 255.99,17.66C256.61,17 257.22,16.43 257.88,15.75C258.63,14.97 259.56,13.93 260.25,13.24C260.76,12.73 261.07,12.48 261.62,11.95C262.46,11.14 264.16,9.42 264.79,8.83C265.05,8.59 265.08,8.58 265.35,8.34C266.05,7.72 268.38,5.62 269.09,4.97C269.37,4.71 269.4,4.66 269.68,4.41C270.31,3.86 271.88,2.66 272.83,1.87Q273.63,1.2 275.03,0" style="stroke-miterlimit: 1; vector-effect: non-scaling-stroke; fill: none; stroke: rgb(161, 112, 59); stroke-opacity: 1; stroke-width: 2px;"/><path class="openline" d="M370,112.17Q368.98,113.82 368.42,114.77C367.75,115.9 366.73,117.75 366.26,118.49C366.05,118.82 366.01,118.85 365.79,119.18C365.24,120.01 363.46,122.78 362.94,123.6C362.74,123.92 362.73,123.95 362.53,124.26C362.04,125 360.57,127.02 359.88,128.01C359.43,128.66 359.22,129.02 358.79,129.63C358.21,130.44 357.32,131.54 356.67,132.42C356.09,133.2 355.61,133.93 355.05,134.66C354.48,135.4 353.89,136.08 353.29,136.84C352.64,137.66 351.94,138.63 351.31,139.41C350.77,140.08 350.32,140.57 349.76,141.25C349.09,142.06 348.25,143.16 347.58,143.95C347.04,144.59 346.62,145.03 346.07,145.67C345.4,146.45 344.53,147.52 343.84,148.31C343.26,148.97 342.79,149.44 342.22,150.08C341.56,150.82 340.79,151.75 340.1,152.51C339.47,153.21 338.86,153.82 338.24,154.49C337.61,155.17 337.02,155.87 336.36,156.58C335.65,157.34 334.8,158.2 334.13,158.91C333.58,159.5 333.21,159.93 332.63,160.54C331.86,161.35 330.6,162.6 329.91,163.32C329.49,163.76 329.33,163.95 328.89,164.41C328.11,165.22 326.19,167.14 325.6,167.74C325.38,167.96 325.37,167.97 325.15,168.2C324.5,168.86 322.56,170.79 321.295,172.04000000000002C320.07,173.25 318.52,174.79 317.68,175.6C317.24,176.03 317.08,176.16 316.66,176.57C315.97,177.24 314.76,178.44 313.94,179.23C313.27,179.88 312.71,180.39 312.09,180.98C311.46,181.58 310.89,182.16 310.2,182.82C309.38,183.61 308.17,184.73 307.48,185.39C307.06,185.8 306.91,185.95 306.46,186.38C305.62,187.19 304.02,188.7 302.79,189.865C301.54,191.05 299.8,192.69 298.99,193.45C298.61,193.8 298.51,193.88 298.15,194.22C297.47,194.85 296.1,196.17 295.25,196.97C294.58,197.6 294.07,198.07 293.46,198.64C292.82,199.24 292.22,199.83 291.52,200.49C290.69,201.28 289.47,202.4 288.78,203.05C288.36,203.45 288.22,203.59 287.78,204.01C286.94,204.81 285.32,206.33 284.08500000000004,207.505C282.83,208.69 281.11,210.34 280.3,211.1C279.92,211.46 279.83,211.54 279.47,211.88C278.79,212.52 277.41,213.87 276.57,214.67C275.93,215.28 275.45,215.72 274.86,216.29C274.21,216.91 273.54,217.58 272.83,218.27C272.04,219.04 271,220.04 270.31,220.71C269.83,221.18 269.6,221.41 269.09,221.91C268.26,222.72 266.42,224.53 265.82,225.12C265.59,225.35 265.58,225.36 265.35,225.59C264.69,226.25 262.76,228.16 261.5,229.42000000000002C260.27,230.65 258.68,232.26 257.88,233.06C257.49,233.46 257.38,233.57 257,233.95C256.32,234.64 254.93,236.07 254.14,236.88C253.58,237.46 253.23,237.81 252.7,238.36C252.02,239.06 251.13,239.99 250.4,240.76C249.73,241.46 249.1,242.11 248.47,242.78C247.86,243.43 247.31,244.02 246.67,244.7C245.94,245.48 245.01,246.46 244.33,247.19C243.8,247.76 243.47,248.12 242.93,248.71C242.18,249.52 240.96,250.85 240.27,251.61C239.83,252.09 239.64,252.31 239.19,252.8C238.46,253.61 236.97,255.27 236.29,256.02C235.93,256.43 235.82,256.55 235.45,256.96C234.75,257.75 233.04,259.68 232.39,260.43C232.08,260.78 232.03,260.85 231.72,261.21C231.06,261.98 229.2,264.11 228.57,264.85C228.29,265.17 228.25,265.22 227.98,265.54C227.35,266.29 225.46,268.51 224.83,269.26C224.56,269.59 224.51,269.63 224.24,269.96C223.61,270.71 221.81,272.9 221.16,273.68C220.86,274.04 220.8,274.11 220.51,274.47C219.88,275.24 218.23,277.26 217.56,278.09C217.21,278.52 217.11,278.65 216.77,279.08C216.13,279.88 214.73,281.64 214.04,282.51C213.62,283.04 213.44,283.26 213.03,283.78C212.39,284.59 211.27,286.04 210.58,286.92C210.08,287.56 209.77,287.95 209.29,288.57C208.67,289.37 207.84,290.47 207.18,291.33C206.6,292.09 206.11,292.75 205.56,293.47C204.99,294.22 204.44,294.96 203.84,295.75C203.19,296.61 202.41,297.65 201.82,298.45C201.35,299.08 201.05,299.49 200.56,300.16C199.87,301.1 198.67,302.74 198.08,303.54C197.76,303.99 197.67,304.12 197.33,304.58C196.65,305.52 195.28,307.4 194.245,308.85C193.17,310.34 191.56,312.62 191,313.4C190.81,313.67 190.8,313.68 190.61,313.95C190.11,314.66 188.58,316.84 187.89,317.82C187.47,318.42 187.27,318.69 186.87,319.26C186.3,320.07 185.46,321.29 184.81,322.23C184.22,323.08 183.66,323.87 183.13,324.64C182.65,325.34 182.28,325.89 181.76,326.65C181.08,327.64 179.93,329.28 179.39,330.08C179.1,330.5 179.04,330.62 178.74,331.06C178.1,332.01 176.7,334.04 175.695,335.525C174.7,336.99 173.42,338.9 172.74,339.89C172.38,340.41 172.26,340.58 171.92,341.07C171.37,341.88 170.42,343.32 169.75,344.3C169.19,345.13 168.69,345.85 168.18,346.6C167.7,347.32 167.3,347.93 166.77,348.72C166.09,349.73 164.97,351.34 164.44,352.14C164.15,352.57 164.09,352.68 163.79,353.13C163.15,354.09 161.76,356.14 160.755,357.62C159.77,359.08 158.5,360.96 157.81,361.96C157.45,362.49 157.31,362.66 156.97,363.16C156.41,363.97 155.46,365.4 154.79,366.37C154.23,367.18 153.74,367.86 153.23,368.6C152.73,369.33 152.3,369.99 151.75,370.79C151.08,371.76 150.05,373.19 149.49,374C149.15,374.49 149.04,374.68 148.68,375.2C148,376.19 146.69,378.03 145.665,379.48C144.61,380.97 142.98,383.26 142.42,384.03C142.23,384.3 142.21,384.3 142.02,384.56C141.5,385.26 139.9,387.51 139.21,388.44C138.82,388.96 138.66,389.16 138.28,389.66C137.67,390.47 136.61,391.95 135.93,392.86C135.41,393.54 135.05,393.99 134.55,394.64C133.95,395.43 133.23,396.44 132.58,397.27C131.98,398.05 131.39,398.75 130.81,399.49C130.24,400.22 129.73,400.94 129.13,401.69C128.49,402.5 127.7,403.41 127.07,404.19C126.53,404.87 126.13,405.42 125.57,406.1C124.91,406.91 123.99,407.93 123.33,408.73C122.79,409.38 122.43,409.88 121.88,410.52C121.21,411.31 120.28,412.3 119.6,413.09C119.03,413.75 118.61,414.29 118.04,414.93C117.38,415.67 116.55,416.51 115.86,417.27C115.21,417.98 114.64,418.67 114.01,419.34C113.39,420 112.78,420.57 112.12,421.25C111.37,422.03 110.44,423.07 109.75,423.76C109.24,424.27 108.93,424.52 108.38,425.05C107.54,425.86 105.84,427.58 105.21,428.17C104.95,428.41 104.92,428.42 104.65,428.66C103.95,429.28 101.62,431.38 100.91,432.03C100.63,432.29 100.6,432.34 100.32,432.59C99.69,433.14 98.12,434.34 97.17,435.13Q96.37,435.8 94.97,437" style="stroke-miterlimit: 1; vector-effect: non-scaling-stroke; fill: none; stroke: rgb(161, 112, 59); stroke-opacity: 1; stroke-width: 2px;"/></g><g class="contourlevel"><path class="openline" d="M0,341.76Q0.91,340.6 1.44,339.89C2.12,338.97 3.11,337.48 3.74,336.68C4.14,336.17 4.35,335.98 4.77,335.47C5.46,334.63 6.78,332.9 7.47,332.11C7.87,331.65 8.04,331.51 8.45,331.06C9.14,330.3 10.45,328.71 11.21,327.91C11.71,327.38 12,327.15 12.49,326.65C13.18,325.94 14.17,324.82 14.95,324.04C15.62,323.37 16.24,322.84 16.87,322.23C17.49,321.63 18,321.07 18.69,320.42C19.53,319.62 20.91,318.44 21.58,317.82C21.95,317.48 22.03,317.37 22.42,317.02C23.22,316.3 25.48,314.36 26.16,313.8C26.4,313.6 26.43,313.59 26.67,313.4C27.28,312.91 28.91,311.53 29.9,310.74C30.72,310.09 31.52,309.52 32.19,308.99C32.73,308.57 33.04,308.29 33.64,307.83C34.59,307.09 36.62,305.57 37.37,305.04C37.68,304.82 37.74,304.79 38.05,304.58C38.71,304.12 40.07,303.08 41.11,302.35C42.16,301.61 43.7,300.59 44.32,300.16C44.57,299.98 44.59,299.96 44.85,299.78C45.53,299.31 47.47,298.01 48.59,297.29C49.49,296.71 50.36,296.19 51.04,295.75C51.54,295.43 51.78,295.24 52.32,294.89C53.24,294.3 54.99,293.22 56.06,292.57C56.86,292.09 57.5,291.72 58.16,291.33C58.74,290.98 59.14,290.72 59.8,290.33C60.79,289.74 62.45,288.77 63.54,288.15C64.37,287.68 65.08,287.3 65.75,286.92C66.31,286.6 66.65,286.38 67.27,286.03C68.24,285.48 69.85,284.61 71.01,283.99C72.01,283.45 73.14,282.88 73.82,282.51C74.22,282.3 74.33,282.21 74.75,281.99C75.58,281.55 77.23,280.71 78.48,280.07C79.75,279.42 81.06,278.76 82.33,278.14C83.56,277.54 84.74,276.97 85.96,276.39C87.2,275.8 88.62,275.12 89.7,274.63C90.51,274.26 91.18,273.98 91.84,273.68C92.41,273.42 92.79,273.23 93.43,272.94C94.41,272.5 95.92,271.85 97.17,271.32C98.42,270.79 99.99,270.12 100.91,269.75C101.44,269.54 101.68,269.45 102.17,269.26C102.86,268.99 103.74,268.62 104.65,268.27C105.76,267.84 107.13,267.33 108.38,266.87C109.62,266.42 111.04,265.9 112.12,265.54C112.94,265.26 113.63,265.07 114.29,264.85C114.86,264.66 115.22,264.52 115.86,264.32C116.84,264.02 118.35,263.59 119.6,263.25C120.84,262.92 122.08,262.59 123.33,262.31C124.57,262.03 125.82,261.76 127.07,261.55C128.31,261.34 129.56,261.14 130.81,261.03C132.05,260.92 133.31,260.83 134.55,260.86C135.8,260.89 137.05,260.96 138.28,261.21C139.54,261.47 140.86,261.82 142.02,262.42C143.21,263.03 144.76,264.32 145.33,264.85C145.56,265.06 145.58,265.1 145.76,265.36C146.22,266.04 147.3,267.88 147.81,269.26C148.33,270.66 148.62,272.2 148.84,273.68C149.06,275.14 149.11,276.62 149.14,278.09C149.17,279.56 149.09,281.04 148.99,282.51C148.89,283.98 148.73,285.45 148.55,286.92C148.37,288.39 148.15,289.86 147.91,291.33C147.67,292.8 147.39,294.28 147.11,295.75C146.82,297.22 146.46,299 146.2,300.16C146.03,300.91 145.92,301.35 145.76,302.02C145.58,302.81 145.4,303.61 145.17,304.58C144.86,305.85 144.43,307.52 144.05,308.99C143.66,310.46 143.23,312.08 142.86,313.4C142.56,314.48 142.25,315.52 142.02,316.33C141.86,316.91 141.79,317.19 141.61,317.82C141.3,318.9 140.73,320.76 140.28,322.23C139.83,323.7 139.28,325.49 138.91,326.65C138.66,327.41 138.5,327.86 138.28,328.53C138.02,329.31 137.78,330.1 137.47,331.06C137.05,332.33 136.49,334.01 135.99,335.47C135.5,336.91 135.02,338.31 134.505,339.76C133.98,341.25 133.42,342.8 132.87,344.3C132.33,345.78 131.61,347.74 131.24,348.72C131.05,349.21 130.99,349.35 130.81,349.81C130.5,350.62 130.01,351.95 129.55,353.13C129.02,354.5 128.28,356.4 127.82,357.55C127.52,358.28 127.34,358.69 127.07,359.35C126.75,360.14 126.43,360.98 126.03,361.96C125.51,363.24 124.69,365.2 124.19,366.37C123.85,367.15 123.63,367.61 123.33,368.3C122.99,369.08 122.69,369.84 122.28,370.79C121.73,372.05 120.82,374.11 120.32,375.2C120.03,375.84 119.87,376.13 119.6,376.72C119.23,377.53 118.79,378.56 118.29,379.62C117.68,380.94 116.58,383.22 116.18,384.03C116.03,384.34 116.01,384.36 115.86,384.66C115.5,385.39 114.63,387.2 114,388.44C113.38,389.66 112.51,391.29 112.12,392.06C111.94,392.42 111.92,392.49 111.73,392.86C111.28,393.74 110,396.15 109.37,397.27C108.98,397.98 108.74,398.34 108.38,398.98C107.93,399.78 107.45,400.71 106.9,401.69C106.24,402.86 105.07,404.78 104.65,405.5C104.48,405.79 104.48,405.81 104.31,406.1C103.84,406.9 102.2,409.58 101.59,410.52C101.3,410.97 101.2,411.08 100.91,411.51C100.38,412.3 99.39,413.93 98.71,414.93C98.16,415.74 97.68,416.35 97.17,417.08C96.66,417.82 96.22,418.55 95.65,419.34C94.99,420.26 94.03,421.43 93.43,422.25C93,422.83 92.81,423.17 92.36,423.76C91.68,424.65 90.35,426.21 89.7,427.02C89.32,427.5 89.2,427.7 88.81,428.17C88.14,428.98 86.67,430.54 85.96,431.36C85.53,431.86 85.38,432.11 84.94,432.59C84.26,433.33 83,434.49 82.22,435.3Q81.62,435.93 80.64,437" style="stroke-miterlimit: 1; vector-effect: non-scaling-stroke; fill: none; stroke: rgb(180, 134, 64); stroke-opacity: 1; stroke-width: 2px;"/><path class="openline" d="M370,95.24Q369.09,96.4 368.56,97.11C367.88,98.03 366.89,99.52 366.26,100.32C365.86,100.83 365.65,101.02 365.23,101.53C364.54,102.37 363.22,104.1 362.53,104.89C362.13,105.35 361.96,105.49 361.55,105.94C360.86,106.7 359.55,108.29 358.79,109.09C358.29,109.62 358,109.85 357.51,110.35C356.82,111.06 355.83,112.18 355.05,112.96C354.38,113.63 353.76,114.16 353.13,114.77C352.51,115.37 352,115.93 351.31,116.58C350.47,117.38 349.09,118.56 348.42,119.18C348.05,119.52 347.97,119.63 347.58,119.98C346.78,120.7 344.52,122.64 343.84,123.2C343.6,123.4 343.57,123.41 343.33,123.6C342.72,124.09 341.09,125.47 340.1,126.26C339.28,126.91 338.48,127.48 337.81,128.01C337.27,128.43 336.96,128.71 336.36,129.17C335.41,129.91 333.38,131.43 332.63,131.96C332.32,132.18 332.26,132.21 331.95,132.42C331.29,132.88 329.93,133.92 328.89,134.65C327.84,135.39 326.3,136.41 325.68,136.84C325.43,137.02 325.41,137.04 325.15,137.22C324.47,137.69 322.53,138.99 321.41,139.71C320.51,140.29 319.64,140.81 318.96,141.25C318.46,141.57 318.22,141.76 317.68,142.11C316.76,142.7 315.01,143.78 313.94,144.43C313.14,144.91 312.5,145.28 311.84,145.67C311.26,146.02 310.86,146.28 310.2,146.67C309.21,147.26 307.55,148.23 306.46,148.85C305.63,149.32 304.92,149.7 304.25,150.08C303.69,150.4 303.35,150.62 302.73,150.97C301.76,151.52 300.15,152.39 298.99,153.01C297.99,153.55 296.86,154.12 296.18,154.49C295.78,154.7 295.67,154.79 295.25,155.01C294.42,155.45 292.77,156.29 291.52,156.93C290.25,157.58 288.94,158.24 287.66999999999996,158.86C286.44,159.46 285.26,160.03 284.04,160.61C282.8,161.2 281.38,161.88 280.3,162.37C279.49,162.74 278.82,163.02 278.16,163.32C277.59,163.58 277.21,163.77 276.57,164.06C275.59,164.5 274.08,165.15 272.83,165.68C271.58,166.21 270.01,166.88 269.09,167.25C268.56,167.46 268.32,167.55 267.83,167.74C267.14,168.01 266.26,168.38 265.35,168.73C264.24,169.16 262.87,169.67 261.62,170.13C260.38,170.58 258.96,171.1 257.88,171.46C257.06,171.74 256.37,171.93 255.71,172.15C255.14,172.34 254.78,172.48 254.14,172.68C253.16,172.98 251.65,173.41 250.4,173.75C249.16,174.08 247.92,174.41 246.67,174.69C245.43,174.97 244.18,175.24 242.93,175.45C241.69,175.66 240.44,175.86 239.19,175.97C237.95,176.08 236.69,176.17 235.45,176.14C234.2,176.11 232.95,176.04 231.72,175.79C230.46,175.53 229.14,175.18 227.98,174.58C226.79,173.97 225.24,172.68 224.67,172.15C224.44,171.94 224.42,171.9 224.24,171.64C223.78,170.96 222.7,169.12 222.19,167.74C221.67,166.34 221.38,164.8 221.16,163.32C220.94,161.86 220.89,160.38 220.86,158.91C220.83,157.44 220.91,155.96 221.01,154.49C221.11,153.02 221.27,151.55 221.45,150.08C221.63,148.61 221.85,147.14 222.09,145.67C222.33,144.2 222.61,142.72 222.89,141.25C223.18,139.78 223.54,138 223.8,136.84C223.97,136.09 224.08,135.65 224.24,134.98C224.42,134.19 224.6,133.39 224.83,132.42C225.14,131.15 225.57,129.48 225.95,128.01C226.34,126.54 226.77,124.92 227.14,123.6C227.44,122.52 227.75,121.48 227.98,120.67C228.14,120.09 228.21,119.81 228.39,119.18C228.7,118.1 229.27,116.24 229.72,114.77C230.17,113.3 230.72,111.51 231.09,110.35C231.34,109.59 231.5,109.14 231.72,108.47C231.98,107.69 232.22,106.9 232.53,105.94C232.95,104.67 233.51,102.99 234.01,101.53C234.5,100.09 234.98,98.69 235.495,97.24000000000001C236.02,95.75 236.58,94.2 237.13,92.7C237.67,91.22 238.39,89.26 238.76,88.28C238.95,87.79 239.01,87.65 239.19,87.19C239.5,86.38 239.99,85.05 240.45,83.87C240.98,82.5 241.72,80.6 242.18,79.45C242.48,78.72 242.66,78.31 242.93,77.65C243.25,76.86 243.57,76.02 243.97,75.04C244.49,73.76 245.31,71.8 245.81,70.63C246.15,69.85 246.37,69.39 246.67,68.7C247.01,67.92 247.31,67.16 247.72,66.21C248.27,64.95 249.18,62.89 249.68,61.8C249.97,61.16 250.13,60.87 250.4,60.28C250.77,59.47 251.21,58.44 251.71,57.38C252.32,56.06 253.42,53.78 253.82,52.97C253.97,52.66 253.99,52.64 254.14,52.34C254.5,51.61 255.37,49.8 256,48.56C256.62,47.34 257.49,45.71 257.88,44.94C258.06,44.58 258.08,44.51 258.27,44.14C258.72,43.26 260,40.85 260.63,39.73C261.02,39.02 261.26,38.66 261.62,38.02C262.07,37.22 262.55,36.29 263.1,35.31C263.76,34.14 264.93,32.22 265.35,31.5C265.52,31.21 265.52,31.19 265.69,30.9C266.16,30.1 267.8,27.42 268.41,26.48C268.7,26.03 268.8,25.92 269.09,25.49C269.62,24.7 270.61,23.07 271.29,22.07C271.84,21.26 272.32,20.65 272.83,19.92C273.34,19.18 273.78,18.45 274.35,17.66C275.01,16.74 275.97,15.57 276.57,14.75C277,14.17 277.19,13.83 277.64,13.24C278.32,12.35 279.65,10.79 280.3,9.98C280.68,9.5 280.8,9.3 281.19,8.83C281.86,8.02 283.33,6.46 284.04,5.64C284.47,5.14 284.62,4.89 285.06,4.41C285.74,3.67 287,2.51 287.78,1.7Q288.38,1.07 289.36,0" style="stroke-miterlimit: 1; vector-effect: non-scaling-stroke; fill: none; stroke: rgb(180, 134, 64); stroke-opacity: 1; stroke-width: 2px;"/></g><g class="contourlevel"><path class="openline" d="M0,356.03Q2.14,353.85 2.82,353.13C3.22,352.71 3.32,352.54 3.74,352.11C4.55,351.29 6.19,349.79 7.449999999999999,348.69500000000005C8.69,347.62 10.17,346.38 11.21,345.58C11.91,345.04 12.41,344.75 13.02,344.3C13.66,343.83 14.19,343.37 14.95,342.83C15.98,342.1 17.89,340.85 18.69,340.36C19.06,340.13 19.16,340.1 19.52,339.89C20.2,339.49 21.38,338.71 22.42,338.11C23.58,337.44 25.22,336.57 26.16,336.1C26.71,335.82 26.99,335.72 27.5,335.47C28.19,335.14 29.01,334.69 29.9,334.27C31,333.75 32.37,333.16 33.64,332.64C34.93,332.11 36.31,331.59 37.59,331.13C38.79,330.7 39.91,330.31 41.11,329.93C42.33,329.55 43.6,329.18 44.85,328.85C46.09,328.52 47.34,328.22 48.59,327.95C49.83,327.69 51.07,327.46 52.32,327.26C53.56,327.06 55.02,326.87 56.06,326.77C56.8,326.7 57.34,326.69 57.97,326.65C58.59,326.61 59.08,326.54 59.8,326.52C60.83,326.48 62.59,326.49 63.54,326.53C64.13,326.56 64.43,326.6 64.96,326.65C65.64,326.71 66.41,326.73 67.27,326.85C68.37,327 69.77,327.24 71.01,327.54C72.27,327.85 73.52,328.22 74.75,328.69C76.01,329.17 77.62,329.94 78.48,330.4C78.96,330.65 79.13,330.77 79.57,331.06C80.27,331.52 81.36,332.26 82.22,332.97C83.12,333.72 84.17,334.75 84.85,335.47C85.32,335.96 85.55,336.24 85.96,336.79C86.57,337.59 87.45,338.83 88.08,339.89C88.69,340.91 89.31,342.21 89.7,343.03C89.94,343.54 90.04,343.74 90.25,344.3C90.64,345.32 91.3,347.24 91.71,348.72C92.11,350.18 92.42,351.65 92.68,353.13C92.94,354.6 93.13,356.25 93.26,357.55C93.36,358.56 93.38,359.47 93.43,360.27C93.47,360.9 93.51,361.26 93.53,361.96C93.56,363.08 93.57,365.16 93.54,366.37C93.52,367.22 93.46,367.81 93.43,368.54C93.39,369.28 93.39,369.92 93.33,370.79C93.25,372.02 93.09,373.73 92.92,375.2C92.75,376.67 92.55,378.15 92.33,379.62C92.1,381.09 91.85,382.56 91.57,384.03C91.29,385.5 90.98,386.99 90.65,388.44C90.33,389.85 90.01,391.18 89.64,392.605C89.25,394.12 88.81,395.74 88.36,397.27C87.92,398.77 87.42,400.38 86.98,401.69C86.63,402.75 86.24,403.72 85.96,404.53C85.75,405.13 85.67,405.45 85.43,406.1C85.03,407.2 84.3,409.15 83.73,410.52C83.23,411.74 82.56,413.15 82.22,413.95C82.04,414.37 82.01,414.49 81.82,414.93C81.4,415.88 80.35,418.12 79.73,419.34C79.27,420.23 78.88,420.87 78.48,421.62C78.1,422.34 77.86,422.93 77.4,423.76C76.73,424.98 75.69,426.73 74.77000000000001,428.20000000000005C73.85,429.68 72.58,431.63 71.88,432.59C71.52,433.08 71.37,433.21 71.01,433.67Q70.39,434.47 68.56,437" style="stroke-miterlimit: 1; vector-effect: non-scaling-stroke; fill: none; stroke: rgb(195, 160, 78); stroke-opacity: 1; stroke-width: 2px;"/><path class="openline" d="M370,80.97Q367.86,83.15 367.18,83.87C366.78,84.29 366.68,84.46 366.26,84.89C365.45,85.71 363.81,87.21 362.54999999999995,88.305C361.31,89.38 359.83,90.62 358.79,91.42C358.09,91.96 357.59,92.25 356.98,92.7C356.34,93.17 355.81,93.63 355.05,94.17C354.02,94.9 352.11,96.15 351.31,96.64C350.94,96.87 350.84,96.9 350.48,97.11C349.8,97.51 348.62,98.29 347.58,98.89C346.42,99.56 344.78,100.43 343.84,100.9C343.29,101.18 343.01,101.28 342.5,101.53C341.81,101.86 340.99,102.31 340.1,102.73C339,103.25 337.63,103.84 336.36,104.36C335.07,104.89 333.69,105.41 332.40999999999997,105.87C331.21,106.3 330.09,106.69 328.89,107.07C327.67,107.45 326.4,107.82 325.15,108.15C323.91,108.48 322.66,108.78 321.41,109.05C320.17,109.31 318.93,109.54 317.68,109.74C316.44,109.94 314.98,110.13 313.94,110.23C313.2,110.3 312.66,110.31 312.03,110.35C311.41,110.39 310.92,110.46 310.2,110.48C309.17,110.52 307.41,110.51 306.46,110.47C305.87,110.44 305.57,110.4 305.04,110.35C304.36,110.29 303.59,110.27 302.73,110.15C301.63,110 300.23,109.76 298.99,109.46C297.73,109.15 296.48,108.78 295.25,108.31C293.99,107.83 292.38,107.06 291.52,106.6C291.04,106.35 290.87,106.23 290.43,105.94C289.73,105.48 288.64,104.74 287.78,104.03C286.88,103.28 285.83,102.25 285.15,101.53C284.68,101.04 284.45,100.76 284.04,100.21C283.43,99.41 282.55,98.17 281.92,97.11C281.31,96.09 280.69,94.79 280.3,93.97C280.06,93.46 279.96,93.26 279.75,92.7C279.36,91.68 278.7,89.76 278.29,88.28C277.89,86.82 277.58,85.35 277.32,83.87C277.06,82.4 276.87,80.75 276.74,79.45C276.64,78.44 276.62,77.53 276.57,76.73C276.53,76.1 276.49,75.74 276.47,75.04C276.44,73.92 276.43,71.84 276.46,70.63C276.48,69.78 276.54,69.19 276.57,68.46C276.61,67.72 276.61,67.08 276.67,66.21C276.75,64.98 276.91,63.27 277.08,61.8C277.25,60.33 277.45,58.85 277.67,57.38C277.9,55.91 278.15,54.44 278.43,52.97C278.71,51.5 279.02,50.01 279.35,48.56C279.67,47.15 279.99,45.82 280.36,44.394999999999996C280.75,42.88 281.19,41.26 281.64,39.73C282.08,38.23 282.58,36.62 283.02,35.31C283.37,34.25 283.76,33.28 284.04,32.47C284.25,31.87 284.33,31.55 284.57,30.9C284.97,29.8 285.7,27.85 286.27,26.48C286.77,25.26 287.44,23.85 287.78,23.05C287.96,22.63 287.99,22.51 288.18,22.07C288.6,21.12 289.65,18.88 290.27,17.66C290.73,16.77 291.12,16.13 291.52,15.38C291.9,14.66 292.14,14.07 292.6,13.24C293.27,12.02 294.31,10.27 295.23,8.8C296.15,7.32 297.42,5.37 298.12,4.41C298.48,3.92 298.63,3.79 298.99,3.33Q299.61,2.53 301.44,0" style="stroke-miterlimit: 1; vector-effect: non-scaling-stroke; fill: none; stroke: rgb(195, 160, 78); stroke-opacity: 1; stroke-width: 2px;"/></g><g class="contourlevel"><path class="openline" d="M0,368.27Q1.89,366.9 2.57,366.37C3.04,366 3.23,365.78 3.74,365.41C4.62,364.77 6.39,363.64 7.47,363.02C8.25,362.57 8.9,362.31 9.55,361.96C10.14,361.65 10.54,361.37 11.21,361.03C12.2,360.54 13.69,359.87 14.95,359.37C16.19,358.88 17.65,358.36 18.69,358.04C19.41,357.82 19.93,357.72 20.55,357.55C21.17,357.38 21.69,357.18 22.42,357C23.45,356.74 24.91,356.45 26.16,356.24C27.4,356.03 28.65,355.87 29.9,355.76C31.14,355.65 32.39,355.6 33.64,355.59C34.88,355.58 36.13,355.62 37.37,355.72C38.62,355.82 39.87,355.98 41.11,356.21C42.36,356.44 43.92,356.82 44.85,357.09C45.41,357.25 45.68,357.37 46.19,357.55C46.88,357.79 47.72,358.05 48.59,358.44C49.71,358.94 51.24,359.72 52.32,360.37C53.21,360.9 53.98,361.47 54.65,361.96C55.19,362.35 55.5,362.57 56.06,363.06C56.99,363.89 58.52,365.32 59.605,366.6C60.7,367.9 61.9,369.7 62.6,370.79C63.02,371.46 63.21,371.82 63.54,372.45C63.96,373.25 64.44,374.16 64.88,375.2C65.43,376.49 66.09,378.3 66.51,379.62C66.84,380.66 67.06,381.64 67.27,382.45C67.43,383.05 67.52,383.37 67.66,384.03C67.89,385.13 68.21,386.97 68.4,388.44C68.59,389.91 68.72,391.39 68.81,392.86C68.9,394.33 68.93,395.8 68.93,397.27C68.93,398.74 68.87,400.22 68.78,401.69C68.69,403.16 68.55,404.63 68.38,406.1C68.21,407.57 67.96,409.3 67.74,410.52C67.59,411.38 67.42,411.98 67.27,412.72C67.12,413.45 67.04,414.07 66.85,414.93C66.58,416.15 66.15,417.88 65.73,419.34C65.31,420.82 64.74,422.59 64.32,423.76C64.04,424.55 63.8,425.03 63.54,425.72C63.25,426.49 63.02,427.24 62.64,428.17C62.12,429.44 61.16,431.54 60.61,432.59C60.3,433.19 60.11,433.42 59.8,433.97Q59.35,434.78 58.19,437" style="stroke-miterlimit: 1; vector-effect: non-scaling-stroke; fill: none; stroke: rgb(207, 188, 102); stroke-opacity: 1; stroke-width: 2px;"/><path class="openline" d="M370,68.73Q368.11,70.1 367.43,70.63C366.96,71 366.77,71.22 366.26,71.59C365.38,72.23 363.61,73.36 362.53,73.98C361.75,74.43 361.1,74.69 360.45,75.04C359.86,75.35 359.46,75.63 358.79,75.97C357.8,76.46 356.31,77.13 355.05,77.63C353.81,78.12 352.35,78.64 351.31,78.96C350.59,79.18 350.07,79.28 349.45,79.45C348.83,79.62 348.31,79.82 347.58,80C346.55,80.26 345.09,80.55 343.84,80.76C342.6,80.97 341.35,81.13 340.1,81.24C338.86,81.35 337.61,81.4 336.36,81.41C335.12,81.42 333.87,81.38 332.63,81.28C331.38,81.18 330.13,81.02 328.89,80.79C327.64,80.56 326.08,80.18 325.15,79.91C324.59,79.75 324.32,79.63 323.81,79.45C323.12,79.21 322.28,78.95 321.41,78.56C320.29,78.06 318.76,77.28 317.68,76.63C316.79,76.1 316.02,75.53 315.35,75.04C314.81,74.65 314.5,74.43 313.94,73.94C313.01,73.11 311.48,71.68 310.395,70.4C309.3,69.1 308.1,67.3 307.4,66.21C306.98,65.54 306.79,65.18 306.46,64.55C306.04,63.75 305.56,62.84 305.12,61.8C304.57,60.51 303.91,58.7 303.49,57.38C303.16,56.34 302.94,55.36 302.73,54.55C302.57,53.95 302.48,53.63 302.34,52.97C302.11,51.87 301.79,50.03 301.6,48.56C301.41,47.09 301.28,45.61 301.19,44.14C301.1,42.67 301.07,41.2 301.07,39.73C301.07,38.26 301.13,36.78 301.22,35.31C301.31,33.84 301.45,32.37 301.62,30.9C301.79,29.43 302.04,27.7 302.26,26.48C302.41,25.62 302.58,25.02 302.73,24.28C302.88,23.55 302.96,22.93 303.15,22.07C303.42,20.85 303.85,19.12 304.27,17.66C304.69,16.18 305.26,14.41 305.68,13.24C305.96,12.45 306.2,11.97 306.46,11.28C306.75,10.51 306.98,9.76 307.36,8.83C307.88,7.56 308.84,5.46 309.39,4.41C309.7,3.81 309.89,3.58 310.2,3.03Q310.65,2.22 311.81,0" style="stroke-miterlimit: 1; vector-effect: non-scaling-stroke; fill: none; stroke: rgb(207, 188, 102); stroke-opacity: 1; stroke-width: 2px;"/></g><g class="contourlevel"><path class="openline" d="M0,378.94Q2.48,377.59 3.74,377.04C4.97,376.5 6.42,375.98 7.47,375.66C8.2,375.44 8.75,375.36 9.38,375.2C10,375.04 10.49,374.85 11.21,374.7C12.23,374.48 13.7,374.26 14.95,374.13C16.19,374 17.44,373.94 18.69,373.94C19.93,373.94 21.18,374.01 22.42,374.15C23.67,374.29 25.17,374.55 26.16,374.76C26.83,374.9 27.23,375.04 27.81,375.2C28.47,375.38 29.11,375.53 29.9,375.81C30.98,376.19 32.41,376.76 33.64,377.38C34.91,378.02 36.19,378.75 37.405,379.595C38.68,380.48 40.18,381.74 41.11,382.58C41.72,383.13 42.03,383.46 42.56,384.03C43.25,384.78 44.22,385.92 44.85,386.73C45.34,387.35 45.62,387.72 46.08,388.44C46.8,389.55 47.87,391.33 48.605000000000004,392.82C49.33,394.28 49.94,395.77 50.48,397.27C51.01,398.73 51.49,400.42 51.81,401.69C52.05,402.62 52.16,403.38 52.32,404.15C52.46,404.84 52.58,405.32 52.7,406.1C52.88,407.27 53.11,409.05 53.22,410.52C53.33,411.99 53.39,413.46 53.39,414.93C53.39,416.4 53.34,417.87 53.23,419.34C53.12,420.81 52.94,422.55 52.75,423.76C52.62,424.61 52.46,425.2 52.32,425.93C52.18,426.67 52.12,427.3 51.93,428.17C51.66,429.4 51.23,431.13 50.77,432.59Q50.31,434.07 49.16,437" style="stroke-miterlimit: 1; vector-effect: non-scaling-stroke; fill: none; stroke: rgb(219, 216, 134); stroke-opacity: 1; stroke-width: 2px;"/><path class="openline" d="M370,58.06Q367.52,59.41 366.26,59.96C365.03,60.5 363.58,61.02 362.53,61.34C361.8,61.56 361.25,61.64 360.62,61.8C360,61.96 359.51,62.15 358.79,62.3C357.77,62.52 356.3,62.74 355.05,62.87C353.81,63 352.56,63.06 351.31,63.06C350.07,63.06 348.82,62.99 347.58,62.85C346.33,62.71 344.83,62.45 343.84,62.24C343.17,62.1 342.77,61.96 342.19,61.8C341.53,61.62 340.89,61.47 340.1,61.19C339.02,60.81 337.59,60.24 336.36,59.62C335.09,58.98 333.81,58.25 332.595,57.405C331.32,56.52 329.82,55.26 328.89,54.42C328.28,53.87 327.97,53.54 327.44,52.97C326.75,52.22 325.78,51.08 325.15,50.27C324.66,49.65 324.38,49.28 323.92,48.56C323.2,47.45 322.13,45.67 321.395,44.18C320.67,42.72 320.06,41.23 319.52,39.73C318.99,38.27 318.51,36.58 318.19,35.31C317.95,34.38 317.84,33.62 317.68,32.85C317.54,32.16 317.42,31.68 317.3,30.9C317.12,29.73 316.89,27.95 316.78,26.48C316.67,25.01 316.61,23.54 316.61,22.07C316.61,20.6 316.66,19.13 316.77,17.66C316.88,16.19 317.06,14.45 317.25,13.24C317.38,12.39 317.54,11.8 317.68,11.07C317.82,10.33 317.88,9.7 318.07,8.83C318.34,7.6 318.77,5.87 319.23,4.41Q319.69,2.93 320.84,0" style="stroke-miterlimit: 1; vector-effect: non-scaling-stroke; fill: none; stroke: rgb(219, 216, 134); stroke-opacity: 1; stroke-width: 2px;"/></g><g class="contourlevel"><path class="openline" d="M0,388.32Q2.49,387.57 3.74,387.33C4.98,387.09 6.22,386.95 7.47,386.88C8.71,386.81 9.97,386.83 11.21,386.92C12.46,387.01 13.71,387.19 14.95,387.44C16.2,387.69 17.45,388.03 18.68,388.445C19.94,388.87 21.19,389.37 22.42,389.98C23.69,390.61 25.33,391.62 26.16,392.16C26.6,392.44 26.73,392.55 27.13,392.86C27.82,393.39 29.06,394.35 29.9,395.12C30.68,395.83 31.38,396.56 32.03,397.27C32.62,397.91 33.1,398.48 33.64,399.17C34.24,399.94 34.87,400.78 35.46,401.69C36.11,402.69 36.92,404.15 37.37,404.96C37.63,405.43 37.73,405.59 37.97,406.1C38.43,407.09 39.28,409.03 39.81,410.52C40.33,411.98 40.75,413.46 41.11,414.94C41.47,416.4 41.75,417.87 41.97,419.34C42.18,420.81 42.32,422.29 42.4,423.76C42.48,425.23 42.49,426.7 42.43,428.17C42.37,429.64 42.25,431.12 42.05,432.59Q41.85,434.07 41.22,437" style="stroke-miterlimit: 1; vector-effect: non-scaling-stroke; fill: none; stroke: rgb(232, 245, 171); stroke-opacity: 1; stroke-width: 2px;"/><path class="openline" d="M370,48.68Q367.51,49.43 366.26,49.67C365.02,49.91 363.78,50.05 362.53,50.12C361.29,50.19 360.03,50.17 358.79,50.08C357.54,49.99 356.29,49.81 355.05,49.56C353.8,49.31 352.55,48.97 351.32,48.555C350.06,48.13 348.81,47.63 347.58,47.02C346.31,46.39 344.67,45.38 343.84,44.84C343.4,44.56 343.27,44.45 342.87,44.14C342.18,43.61 340.94,42.65 340.1,41.88C339.32,41.17 338.62,40.44 337.97,39.73C337.38,39.09 336.9,38.52 336.36,37.83C335.76,37.06 335.13,36.22 334.54,35.31C333.89,34.31 333.08,32.85 332.63,32.04C332.37,31.57 332.27,31.41 332.03,30.9C331.57,29.91 330.72,27.97 330.19,26.48C329.67,25.02 329.25,23.54 328.89,22.060000000000002C328.53,20.6 328.25,19.13 328.03,17.66C327.82,16.19 327.68,14.71 327.6,13.24C327.52,11.77 327.51,10.3 327.57,8.83C327.63,7.36 327.75,5.88 327.95,4.41Q328.15,2.93 328.78,0" style="stroke-miterlimit: 1; vector-effect: non-scaling-stroke; fill: none; stroke: rgb(232, 245, 171); stroke-opacity: 1; stroke-width: 2px;"/></g></g></g></g></g><g class="overplot"/><path class="xlines-above crisp" d="" style="fill: none; stroke-width: 1px; stroke: rgb(0, 0, 0); stroke-opacity: 0;"/><path class="ylines-above crisp" d="" style="fill: none; stroke-width: 1px; stroke: rgb(0, 0, 0); stroke-opacity: 0;"/><g class="overlines-above"/><g class="xaxislayer-above"><path class="xtick ticks crisp" d="M0,478v5" transform="translate(89.67,0)" style="stroke: rgb(51, 51, 51); stroke-opacity: 1; stroke-width: 1px;"/><path class="xtick ticks crisp" d="M0,478v5" transform="translate(171.89,0)" style="stroke: rgb(51, 51, 51); stroke-opacity: 1; stroke-width: 1px;"/><path class="xtick ticks crisp" d="M0,478v5" transform="translate(254.11,0)" style="stroke: rgb(51, 51, 51); stroke-opacity: 1; stroke-width: 1px;"/><path class="xtick ticks crisp" d="M0,478v5" transform="translate(336.33,0)" style="stroke: rgb(51, 51, 51); stroke-opacity: 1; stroke-width: 1px;"/><g class="xtick"><text text-anchor="middle" x="0" y="497.4" transform="translate(89.67,0)" style="font-family: 'Open Sans', verdana, arial, sans-serif; font-size: 12px; fill: rgb(51, 51, 51); fill-opacity: 1; white-space: pre; opacity: 1;">0.2</text></g><g class="xtick"><text text-anchor="middle" x="0" y="497.4" style="font-family: 'Open Sans', verdana, arial, sans-serif; font-size: 12px; fill: rgb(51, 51, 51); fill-opacity: 1; white-space: pre; opacity: 1;" transform="translate(171.89,0)">0.4</text></g><g class="xtick"><text text-anchor="middle" x="0" y="497.4" style="font-family: 'Open Sans', verdana, arial, sans-serif; font-size: 12px; fill: rgb(51, 51, 51); fill-opacity: 1; white-space: pre; opacity: 1;" transform="translate(254.11,0)">0.6</text></g><g class="xtick"><text text-anchor="middle" x="0" y="497.4" style="font-family: 'Open Sans', verdana, arial, sans-serif; font-size: 12px; fill: rgb(51, 51, 51); fill-opacity: 1; white-space: pre; opacity: 1;" transform="translate(336.33,0)">0.8</text></g></g><g class="yaxislayer-above"><path class="ytick ticks crisp" d="M27,0h-5" transform="translate(0,452.72)" style="stroke: rgb(51, 51, 51); stroke-opacity: 1; stroke-width: 1px;"/><path class="ytick ticks crisp" d="M27,0h-5" transform="translate(0,404.17)" style="stroke: rgb(51, 51, 51); stroke-opacity: 1; stroke-width: 1px;"/><path class="ytick ticks crisp" d="M27,0h-5" transform="translate(0,355.61)" style="stroke: rgb(51, 51, 51); stroke-opacity: 1; stroke-width: 1px;"/><path class="ytick ticks crisp" d="M27,0h-5" transform="translate(0,307.06)" style="stroke: rgb(51, 51, 51); stroke-opacity: 1; stroke-width: 1px;"/><path class="ytick ticks crisp" d="M27,0h-5" transform="translate(0,258.5)" style="stroke: rgb(51, 51, 51); stroke-opacity: 1; stroke-width: 1px;"/><path class="ytick ticks crisp" d="M27,0h-5" transform="translate(0,209.94)" style="stroke: rgb(51, 51, 51); stroke-opacity: 1; stroke-width: 1px;"/><path class="ytick ticks crisp" d="M27,0h-5" transform="translate(0,161.39)" style="stroke: rgb(51, 51, 51); stroke-opacity: 1; stroke-width: 1px;"/><path class="ytick ticks crisp" d="M27,0h-5" transform="translate(0,112.83)" style="stroke: rgb(51, 51, 51); stroke-opacity: 1; stroke-width: 1px;"/><path class="ytick ticks crisp" d="M27,0h-5" transform="translate(0,64.28)" style="stroke: rgb(51, 51, 51); stroke-opacity: 1; stroke-width: 1px;"/><g class="ytick"><text text-anchor="end" x="19.6" y="4.199999999999999" transform="translate(0,452.72)" style="font-family: 'Open Sans', verdana, arial, sans-serif; font-size: 12px; fill: rgb(51, 51, 51); fill-opacity: 1; white-space: pre; opacity: 1;">0.1</text></g><g class="ytick"><text text-anchor="end" x="19.6" y="4.199999999999999" style="font-family: 'Open Sans', verdana, arial, sans-serif; font-size: 12px; fill: rgb(51, 51, 51); fill-opacity: 1; white-space: pre; opacity: 1;" transform="translate(0,404.17)">0.2</text></g><g class="ytick"><text text-anchor="end" x="19.6" y="4.199999999999999" style="font-family: 'Open Sans', verdana, arial, sans-serif; font-size: 12px; fill: rgb(51, 51, 51); fill-opacity: 1; white-space: pre; opacity: 1;" transform="translate(0,355.61)">0.3</text></g><g class="ytick"><text text-anchor="end" x="19.6" y="4.199999999999999" style="font-family: 'Open Sans', verdana, arial, sans-serif; font-size: 12px; fill: rgb(51, 51, 51); fill-opacity: 1; white-space: pre; opacity: 1;" transform="translate(0,307.06)">0.4</text></g><g class="ytick"><text text-anchor="end" x="19.6" y="4.199999999999999" style="font-family: 'Open Sans', verdana, arial, sans-serif; font-size: 12px; fill: rgb(51, 51, 51); fill-opacity: 1; white-space: pre; opacity: 1;" transform="translate(0,258.5)">0.5</text></g><g class="ytick"><text text-anchor="end" x="19.6" y="4.199999999999999" style="font-family: 'Open Sans', verdana, arial, sans-serif; font-size: 12px; fill: rgb(51, 51, 51); fill-opacity: 1; white-space: pre; opacity: 1;" transform="translate(0,209.94)">0.6</text></g><g class="ytick"><text text-anchor="end" x="19.6" y="4.199999999999999" style="font-family: 'Open Sans', verdana, arial, sans-serif; font-size: 12px; fill: rgb(51, 51, 51); fill-opacity: 1; white-space: pre; opacity: 1;" transform="translate(0,161.39)">0.7</text></g><g class="ytick"><text text-anchor="end" x="19.6" y="4.199999999999999" style="font-family: 'Open Sans', verdana, arial, sans-serif; font-size: 12px; fill: rgb(51, 51, 51); fill-opacity: 1; white-space: pre; opacity: 1;" transform="translate(0,112.83)">0.8</text></g><g class="ytick"><text text-anchor="end" x="19.6" y="4.199999999999999" style="font-family: 'Open Sans', verdana, arial, sans-serif; font-size: 12px; fill: rgb(51, 51, 51); fill-opacity: 1; white-space: pre; opacity: 1;" transform="translate(0,64.28)">0.9</text></g></g><g class="overaxes-above"/></g></g><g class="polarlayer"/><g class="ternarylayer"/><g class="geolayer"/><g class="funnelarealayer"/><g class="pielayer"/><g class="iciclelayer"/><g class="treemaplayer"/><g class="sunburstlayer"/><g class="glimages"/><defs id="topdefs-1c8012"><g class="clips"/></defs><g class="layer-above"><g class="imagelayer"/><g class="shapelayer"/></g><g class="infolayer"><g class="cbd22b95 colorbar" transform="translate(28,40)"><rect class="cbbg" x="377" y="0" width="94.65625" height="437" style="fill: rgb(0, 0, 0); fill-opacity: 0; stroke: rgb(68, 68, 68); stroke-opacity: 1; stroke-width: 0;"/><g class="cbfills" transform="translate(0,10)"/><g class="cblines" transform="translate(0,10)"><path class="cbline" d="M387,417h30" style="fill: none; stroke: rgb(34, 30, 27); stroke-opacity: 1; stroke-width: 2px;"/><path class="cbline" d="M387,375h30" style="fill: none; stroke: rgb(59, 46, 38); stroke-opacity: 1; stroke-width: 2px;"/><path class="cbline" d="M387,334h30" style="fill: none; stroke: rgb(85, 62, 47); stroke-opacity: 1; stroke-width: 2px;"/><path class="cbline" d="M387,292h30" style="fill: none; stroke: rgb(112, 77, 54); stroke-opacity: 1; stroke-width: 2px;"/><path class="cbline" d="M387,250h30" style="fill: none; stroke: rgb(138, 93, 57); stroke-opacity: 1; stroke-width: 2px;"/><path class="cbline" d="M387,209h30" style="fill: none; stroke: rgb(161, 112, 59); stroke-opacity: 1; stroke-width: 2px;"/><path class="cbline" d="M387,167h30" style="fill: none; stroke: rgb(180, 134, 64); stroke-opacity: 1; stroke-width: 2px;"/><path class="cbline" d="M387,125h30" style="fill: none; stroke: rgb(195, 160, 78); stroke-opacity: 1; stroke-width: 2px;"/><path class="cbline" d="M387,83h30" style="fill: none; stroke: rgb(207, 188, 102); stroke-opacity: 1; stroke-width: 2px;"/><path class="cbline" d="M387,42h30" style="fill: none; stroke: rgb(219, 216, 134); stroke-opacity: 1; stroke-width: 2px;"/><path class="cbline" d="M387,0h30" style="fill: none; stroke: rgb(232, 245, 171); stroke-opacity: 1; stroke-width: 2px;"/></g><g class="cbaxis crisp" transform="translate(0,-40)"><path class="ycbd22b95tick ticks crisp" d="M416.5,0h-6" transform="translate(0,383.6)" style="stroke: rgb(237, 237, 237); stroke-opacity: 1; stroke-width: 1px;"/><path class="ycbd22b95tick ticks crisp" d="M416.5,0h-6" transform="translate(0,300.2)" style="stroke: rgb(237, 237, 237); stroke-opacity: 1; stroke-width: 1px;"/><path class="ycbd22b95tick ticks crisp" d="M416.5,0h-6" transform="translate(0,216.8)" style="stroke: rgb(237, 237, 237); stroke-opacity: 1; stroke-width: 1px;"/><path class="ycbd22b95tick ticks crisp" d="M416.5,0h-6" transform="translate(0,133.40000000000003)" style="stroke: rgb(237, 237, 237); stroke-opacity: 1; stroke-width: 1px;"/><g class="ycbd22b95tick"><text text-anchor="start" x="419.9" y="4.199999999999999" transform="translate(0,467)" style="font-family: 'Open Sans', verdana, arial, sans-serif; font-size: 12px; fill: rgb(51, 51, 51); fill-opacity: 1; white-space: pre; opacity: 1;">0.044</text></g><g class="ycbd22b95tick"><text text-anchor="start" x="419.9" y="4.199999999999999" style="font-family: 'Open Sans', verdana, arial, sans-serif; font-size: 12px; fill: rgb(51, 51, 51); fill-opacity: 1; white-space: pre; opacity: 1;" transform="translate(0,383.6)">0.507</text></g><g class="ycbd22b95tick"><text text-anchor="start" x="419.9" y="4.199999999999999" style="font-family: 'Open Sans', verdana, arial, sans-serif; font-size: 12px; fill: rgb(51, 51, 51); fill-opacity: 1; white-space: pre; opacity: 1;" transform="translate(0,300.2)">0.971</text></g><g class="ycbd22b95tick"><text text-anchor="start" x="419.9" y="4.199999999999999" style="font-family: 'Open Sans', verdana, arial, sans-serif; font-size: 12px; fill: rgb(51, 51, 51); fill-opacity: 1; white-space: pre; opacity: 1;" transform="translate(0,216.8)">1.435</text></g><g class="ycbd22b95tick"><text text-anchor="start" x="419.9" y="4.199999999999999" style="font-family: 'Open Sans', verdana, arial, sans-serif; font-size: 12px; fill: rgb(51, 51, 51); fill-opacity: 1; white-space: pre; opacity: 1;" transform="translate(0,133.40000000000003)">1.898</text></g><g class="ycbd22b95tick"><text text-anchor="start" x="419.9" y="4.199999999999999" style="font-family: 'Open Sans', verdana, arial, sans-serif; font-size: 12px; fill: rgb(51, 51, 51); fill-opacity: 1; white-space: pre; opacity: 1;" transform="translate(0,50.000000000000014)">2.362</text></g></g><g class="cbtitleunshift" transform="translate(-28,-40)"><g class="cbtitle"/></g><rect class="cboutline" x="387" y="10" width="30" height="417" style="stroke: rgb(68, 68, 68); stroke-opacity: 1; fill: none; stroke-width: 0;"/></g><g class="g-gtitle"><text class="gtitle" x="250" y="20" text-anchor="middle" dy="0em" style="font-family: 'Open Sans', verdana, arial, sans-serif; font-size: 17px; fill: rgb(51, 51, 51); opacity: 1; font-weight: normal; white-space: pre;">Student copula</text></g><g class="g-xtitle"/><g class="g-ytitle"/></g></svg>