<svg class="main-svg" xmlns="http://www.w3.org/2000/svg" xmlns:xlink="http://www.w3.org/1999/xlink" width="1500" height="1500" style="" viewBox="0 0 500 500"><rect x="0" y="0" width="500" height="500" style="fill: rgb(255, 255, 255); fill-opacity: 1;"/><defs id="defs-6d0d7a"><g class="clips"><clipPath id="clip6d0d7axyplot" class="plotclip"><rect width="364" height="437"/></clipPath><clipPath class="axesclip" id="clip6d0d7ax"><rect x="26" y="0" width="364" height="500"/></clipPath><clipPath class="axesclip" id="clip6d0d7ay"><rect x="0" y="40" width="500" height="437"/></clipPath><clipPath class="axesclip" id="clip6d0d7axy"><rect x="26" y="40" width="364" height="437"/></clipPath><clipPath class="contourclip" id="clipc6f6c5"><path d="M0,0L364,0L364,437L0,437Z"/></clipPath></g><g class="gradients"/><g class="patterns"/></defs><g class="bglayer"><rect class="bg" x="26" y="40" width="364" height="437" style="fill: rgb(237, 237, 237); fill-opacity: 1; stroke-width: 0;"/></g><g class="layer-below"><g class="imagelayer"/><g class="shapelayer"/></g><g class="cartesianlayer"><g class="subplot xy"><g class="layer-subplot"><g class="shapelayer"/><g class="imagelayer"/></g><g class="gridlayer"><g class="x"><path class="xgrid crisp" transform="translate(84.61,0)" d="M0,40v437" style="stroke: rgb(255, 255, 255); stroke-opacity: 1; stroke-width: 1px;"/><path class="xgrid crisp" transform="translate(331.39,0)" d="M0,40v437" style="stroke: rgb(255, 255, 255); stroke-opacity: 1; stroke-width: 1px;"/></g><g class="y"><path class="ygrid crisp" transform="translate(0,406.64)" d="M26,0h364" style="stroke: rgb(255, 255, 255); stroke-opacity: 1; stroke-width: 1px;"/><path class="ygrid crisp" transform="translate(0,332.57)" d="M26,0h364" style="stroke: rgb(255, 255, 255); stroke-opacity: 1; stroke-width: 1px;"/><path class="ygrid crisp" transform="translate(0,184.43)" d="M26,0h364" style="stroke: rgb(255, 255, 255); stroke-opacity: 1; stroke-width: 1px;"/><path class="ygrid crisp" transform="translate(0,110.36)" d="M26,0h364" style="stroke: rgb(255, 255, 255); stroke-opacity: 1; stroke-width: 1px;"/></g></g><g class="zerolinelayer"><path class="xzl zl crisp" transform="translate(208,0)" d="M0,40v437" style="stroke: rgb(255, 255, 255); stroke-opacity: 1; stroke-width: 1px;"/><path class="yzl zl crisp" transform="translate(0,258.5)" d="M26,0h364" style="stroke: rgb(255, 255, 255); stroke-opacity: 1; stroke-width: 1px;"/></g><path class="xlines-below"/><path class="ylines-below"/><g class="overlines-below"/><g class="xaxislayer-below"/><g class="yaxislayer-below"/><g class="overaxes-below"/><g class="plot" transform="translate(26,40)" clip-path="url(#clip6d0d7axyplot)"><g class="contourlayer mlayer"><g class="contour" clip-path="url(#clipc6f6c5)" style="opacity: 1;"><g class="heatmapcoloring"/><g class="contourbg"/><g class="contourfill"/><g class="contourlines"><g class="contourlevel"><path class="openline" d="M231.64,437Q229.19,436.49 227.96,436.23C226.73,435.97 225.51,435.72 224.28,435.46C223.06,435.2 221.83,434.94 220.61,434.69C219.38,434.43 218.16,434.18 216.93,433.93C215.7,433.68 214.45,433.43 213.25,433.19C212.1,432.96 211.03,432.74 209.85500000000002,432.54499999999996C208.59,432.33 207.2,432.15 205.9,431.97C204.65,431.79 203.45,431.63 202.22,431.47C201,431.31 199.77,431.15 198.55,431C197.32,430.85 196.1,430.7 194.87,430.56C193.64,430.42 192.42,430.29 191.19,430.17C189.97,430.05 188.74,429.93 187.52,429.82C186.29,429.71 185.07,429.6 183.84,429.51C182.61,429.42 181.39,429.34 180.16,429.26C178.93,429.19 177.71,429.12 176.48,429.06C175.26,429 174.03,428.95 172.81,428.91C171.58,428.87 170.36,428.84 169.13,428.82C167.9,428.8 166.68,428.78 165.45,428.78C164.23,428.78 163,428.78 161.78,428.8C160.55,428.82 159.33,428.85 158.1,428.88C156.87,428.92 155.65,428.96 154.42,429.01C153.2,429.06 151.97,429.12 150.75,429.19C149.52,429.26 148.3,429.34 147.07,429.42C145.84,429.51 144.62,429.6 143.39,429.7C142.17,429.8 140.94,429.91 139.72,430.02C138.49,430.13 137.27,430.25 136.04,430.38C134.81,430.51 133.59,430.64 132.36,430.78C131.14,430.92 129.91,431.06 128.69,431.21C127.46,431.36 126.24,431.51 125.01,431.67C123.78,431.83 122.53,431.99 121.33,432.16C120.19,432.32 119.14,432.45 117.975,432.64C116.7,432.84 115.28,433.12 113.98,433.35C112.73,433.58 111.53,433.79 110.3,434.02C109.08,434.24 107.85,434.47 106.63,434.7C105.4,434.93 104.18,435.16 102.95,435.39C101.72,435.62 100.5,435.85 99.27,436.08C98.05,436.31 96.48,436.61 95.6,436.78Q95.1,436.87 94.43,437" style="stroke-miterlimit: 1; vector-effect: non-scaling-stroke; fill: none; stroke: rgb(34, 30, 27); stroke-opacity: 1; stroke-width: 2px;"/><path class="openline" d="M0,323.64Q0.11,322.83 0.19,322.23C0.33,321.17 0.57,319.29 0.76,317.82C0.95,316.35 1.15,314.87 1.34,313.4C1.53,311.93 1.73,310.46 1.92,308.99C2.11,307.52 2.29,306.05 2.48,304.58C2.67,303.11 2.85,301.66 3.04,300.16C3.24,298.59 3.47,296.9 3.635,295.365C3.79,293.96 3.9,292.71 4.03,291.33C4.17,289.89 4.31,288.39 4.44,286.92C4.57,285.45 4.7,283.98 4.82,282.51C4.94,281.04 5.06,279.56 5.18,278.09C5.3,276.62 5.41,275.15 5.52,273.68C5.63,272.21 5.73,270.73 5.82,269.26C5.91,267.79 6,266.32 6.08,264.85C6.16,263.38 6.25,261.9 6.32,260.43C6.39,258.96 6.45,257.49 6.51,256.02C6.57,254.55 6.62,253.08 6.66,251.61C6.7,250.14 6.74,248.66 6.77,247.19C6.8,245.72 6.82,244.25 6.83,242.78C6.84,241.31 6.85,239.83 6.85,238.36C6.85,236.89 6.84,235.42 6.82,233.95C6.8,232.48 6.77,231.01 6.74,229.54C6.71,228.07 6.67,226.59 6.62,225.12C6.57,223.65 6.51,222.18 6.45,220.71C6.39,219.24 6.32,217.76 6.24,216.29C6.16,214.82 6.07,213.35 5.98,211.88C5.89,210.41 5.79,208.93 5.69,207.46C5.59,205.99 5.47,204.52 5.36,203.05C5.24,201.58 5.12,200.11 5,198.64C4.87,197.17 4.75,195.69 4.61,194.22C4.48,192.75 4.34,191.31 4.19,189.81C4.04,188.26 3.89,186.58 3.715,185.06C3.55,183.65 3.36,182.37 3.17,180.98C2.97,179.54 2.77,178.04 2.56,176.57C2.35,175.1 2.13,173.62 1.92,172.15C1.71,170.68 1.49,169.21 1.28,167.74C1.07,166.27 0.85,164.79 0.64,163.32Q0.43,161.85 0,158.91" style="stroke-miterlimit: 1; vector-effect: non-scaling-stroke; fill: none; stroke: rgb(34, 30, 27); stroke-opacity: 1; stroke-width: 2px;"/><path class="openline" d="M364,113.36Q363.89,114.17 363.81,114.77C363.67,115.83 363.43,117.71 363.24,119.18C363.05,120.65 362.85,122.13 362.66,123.6C362.47,125.07 362.27,126.54 362.08,128.01C361.89,129.48 361.71,130.95 361.52,132.42C361.33,133.89 361.15,135.34 360.96,136.84C360.76,138.41 360.53,140.1 360.365,141.635C360.21,143.04 360.1,144.29 359.97,145.67C359.83,147.11 359.69,148.61 359.56,150.08C359.43,151.55 359.3,153.02 359.18,154.49C359.06,155.96 358.94,157.44 358.82,158.91C358.7,160.38 358.59,161.85 358.48,163.32C358.37,164.79 358.27,166.27 358.18,167.74C358.09,169.21 358,170.68 357.92,172.15C357.84,173.62 357.75,175.1 357.68,176.57C357.61,178.04 357.55,179.51 357.49,180.98C357.43,182.45 357.38,183.92 357.34,185.39C357.3,186.86 357.26,188.34 357.23,189.81C357.2,191.28 357.18,192.75 357.17,194.22C357.16,195.69 357.15,197.17 357.15,198.64C357.15,200.11 357.16,201.58 357.18,203.05C357.2,204.52 357.23,205.99 357.26,207.46C357.29,208.93 357.33,210.41 357.38,211.88C357.43,213.35 357.49,214.82 357.55,216.29C357.61,217.76 357.68,219.24 357.76,220.71C357.84,222.18 357.93,223.65 358.02,225.12C358.11,226.59 358.21,228.07 358.31,229.54C358.41,231.01 358.53,232.48 358.64,233.95C358.76,235.42 358.88,236.89 359,238.36C359.13,239.83 359.25,241.31 359.39,242.78C359.52,244.25 359.66,245.69 359.81,247.19C359.96,248.74 360.11,250.42 360.28499999999997,251.94C360.45,253.35 360.64,254.63 360.83,256.02C361.03,257.46 361.23,258.96 361.44,260.43C361.65,261.9 361.87,263.38 362.08,264.85C362.29,266.32 362.51,267.79 362.72,269.26C362.93,270.73 363.15,272.21 363.36,273.68Q363.57,275.15 364,278.09" style="stroke-miterlimit: 1; vector-effect: non-scaling-stroke; fill: none; stroke: rgb(34, 30, 27); stroke-opacity: 1; stroke-width: 2px;"/><path class="openline" d="M132.36,0Q134.81,0.51 136.04,0.77C137.27,1.03 138.49,1.28 139.72,1.54C140.94,1.8 142.17,2.06 143.39,2.31C144.62,2.57 145.84,2.82 147.07,3.07C148.3,3.32 149.55,3.57 150.75,3.81C151.9,4.04 152.97,4.26 154.14499999999998,4.455C155.41,4.67 156.8,4.85 158.1,5.03C159.35,5.21 160.55,5.37 161.78,5.53C163,5.69 164.23,5.85 165.45,6C166.68,6.15 167.9,6.3 169.13,6.44C170.36,6.58 171.58,6.71 172.81,6.83C174.03,6.95 175.26,7.07 176.48,7.18C177.71,7.29 178.93,7.4 180.16,7.49C181.39,7.58 182.61,7.66 183.84,7.74C185.07,7.81 186.29,7.88 187.52,7.94C188.74,8 189.97,8.05 191.19,8.09C192.42,8.13 193.64,8.16 194.87,8.18C196.1,8.2 197.32,8.22 198.55,8.22C199.77,8.22 201,8.22 202.22,8.2C203.45,8.18 204.67,8.15 205.9,8.12C207.13,8.08 208.35,8.04 209.58,7.99C210.8,7.94 212.03,7.88 213.25,7.81C214.48,7.74 215.7,7.66 216.93,7.58C218.16,7.49 219.38,7.4 220.61,7.3C221.83,7.2 223.06,7.09 224.28,6.98C225.51,6.87 226.73,6.75 227.96,6.62C229.19,6.49 230.41,6.36 231.64,6.22C232.86,6.08 234.09,5.94 235.31,5.79C236.54,5.64 237.76,5.49 238.99,5.33C240.22,5.17 241.47,5.01 242.67,4.84C243.81,4.68 244.86,4.55 246.025,4.359999999999999C247.3,4.16 248.72,3.88 250.02,3.65C251.27,3.42 252.47,3.21 253.7,2.98C254.92,2.76 256.15,2.53 257.37,2.3C258.6,2.07 259.82,1.84 261.05,1.61C262.28,1.38 263.5,1.15 264.73,0.92C265.95,0.69 267.52,0.39 268.4,0.22Q268.9,0.13 269.57,0" style="stroke-miterlimit: 1; vector-effect: non-scaling-stroke; fill: none; stroke: rgb(34, 30, 27); stroke-opacity: 1; stroke-width: 2px;"/></g><g class="contourlevel"><path class="closedline" d="M323.56,398.91C322.37,398.39 321.26,397.8 320.075,397.17999999999995C318.81,396.52 317.46,395.81 316.2,395.08C314.95,394.36 313.76,393.59 312.53499999999997,392.855C311.31,392.12 310.06,391.41 308.85,390.65C307.66,389.9 306.54,389.11 305.34000000000003,388.34000000000003C304.09,387.54 302.66,386.72 301.49,385.95C300.48,385.29 299.38,384.47 298.71,384.03C298.34,383.78 298.22,383.73 297.82,383.48C297.01,382.97 295.19,381.81 294.14,381.1C293.33,380.56 292.68,380.06 292.02,379.62C291.46,379.25 291.09,379.04 290.46,378.63C289.49,378 287.72,376.82 286.79,376.18C286.21,375.78 285.92,375.55 285.39,375.2C284.73,374.76 283.95,374.32 283.11,373.76C282.02,373.04 280.15,371.73 279.43,371.23C279.13,371.02 279.09,370.98 278.8,370.79C278.17,370.37 276.81,369.57 275.76,368.87C274.6,368.1 273.37,367.15 272.14,366.33500000000004C270.91,365.52 269.56,364.76 268.4,363.99C267.36,363.3 266.15,362.4 265.49,361.96C265.16,361.74 265.08,361.7 264.73,361.48C263.96,360.99 262.13,359.84 261.05,359.13C260.19,358.56 259.43,357.99 258.76,357.55C258.24,357.21 257.94,357.04 257.37,356.68C256.44,356.08 254.69,354.96 253.7,354.3C253.02,353.85 252.58,353.52 251.98,353.13C251.35,352.72 250.77,352.4 250.02,351.92C248.98,351.26 247.22,350.1 246.34,349.51C245.84,349.18 245.64,349.02 245.17,348.72C244.5,348.29 243.58,347.77 242.67,347.19C241.56,346.48 239.73,345.25 238.99,344.76C238.67,344.55 238.61,344.5 238.3,344.3C237.66,343.89 236.36,343.16 235.31,342.5C234.11,341.74 232.76,340.77 231.51,339.975C230.32,339.22 229.14,338.59 227.96,337.84C226.75,337.08 225.56,336.21 224.34,335.435C223.11,334.66 221.82,333.96 220.61,333.2C219.43,332.46 218.34,331.68 217.145,330.93C215.89,330.14 214.45,329.33 213.25,328.57C212.2,327.91 210.98,327.07 210.32,326.65C209.99,326.44 209.92,326.4 209.58,326.19C208.82,325.72 207.01,324.64 205.9,323.93C204.96,323.33 203.99,322.66 203.31,322.23C202.87,321.95 202.69,321.85 202.22,321.56C201.36,321.02 199.61,319.94 198.55,319.26C197.73,318.73 197.03,318.25 196.37,317.82C195.83,317.47 195.48,317.27 194.87,316.88C193.91,316.27 192.17,315.15 191.19,314.5C190.54,314.07 190.14,313.78 189.56,313.4C188.92,312.98 188.3,312.61 187.52,312.1C186.47,311.41 184.65,310.18 183.84,309.62C183.43,309.34 183.32,309.25 182.93,308.99C182.26,308.54 181.14,307.84 180.16,307.17C179.02,306.39 177.74,305.42 176.515,304.55499999999995C175.29,303.69 173.91,302.78 172.81,301.99C171.91,301.34 171.05,300.66 170.37,300.16C169.89,299.81 169.65,299.65 169.13,299.26C168.23,298.59 166.25,297.06 165.45,296.44C165.06,296.13 164.95,296.04 164.58,295.75C163.91,295.22 162.69,294.3 161.78,293.56C160.88,292.83 159.81,291.9 159.13,291.33C158.71,290.98 158.55,290.86 158.1,290.48C157.22,289.73 155.5,288.2 154.25,287.07500000000005C153.05,286 151.65,284.72 150.75,283.87C150.17,283.33 149.86,283.02 149.34,282.51C148.67,281.86 147.81,281.02 147.07,280.27C146.35,279.54 145.63,278.77 144.98,278.09C144.41,277.49 143.97,277.03 143.39,276.4C142.66,275.6 141.63,274.45 140.96,273.68C140.47,273.13 140.2,272.81 139.72,272.24C139.03,271.43 137.92,270.09 137.24,269.26C136.77,268.68 136.5,268.35 136.04,267.77C135.4,266.96 134.43,265.72 133.77,264.85C133.24,264.15 132.86,263.62 132.36,262.94C131.79,262.16 131.15,261.29 130.55,260.43C129.93,259.55 129.23,258.51 128.69,257.71C128.26,257.08 128,256.71 127.55,256.02C126.84,254.94 125.78,253.25 124.88,251.815C123.94,250.31 122.68,248.24 122.05,247.19C121.73,246.65 121.63,246.47 121.33,245.96C120.86,245.15 120.09,243.86 119.48,242.78C118.86,241.68 118.1,240.21 117.66,239.41C117.41,238.96 117.34,238.83 117.08,238.36C116.56,237.4 115.29,235.03 114.73,233.95C114.41,233.32 114.28,233.04 113.98,232.46C113.56,231.65 113,230.62 112.46,229.54C111.8,228.21 111.04,226.56 110.32,225.07999999999998C109.6,223.61 108.79,222.07 108.14,220.71C107.58,219.53 107.01,218.19 106.63,217.38C106.41,216.92 106.33,216.78 106.1,216.29C105.63,215.31 104.6,213.14 104.03,211.88C103.61,210.95 103.3,210.2 102.95,209.43C102.63,208.74 102.39,208.25 102.03,207.46C101.49,206.28 100.56,204.2 100.05,203.05C99.73,202.32 99.56,201.9 99.27,201.24C98.92,200.45 98.51,199.62 98.07,198.64C97.5,197.36 96.59,195.26 96.15,194.22C95.91,193.66 95.83,193.44 95.6,192.91C95.24,192.09 94.68,190.94 94.18,189.81C93.59,188.47 92.69,186.31 92.3,185.39C92.12,184.98 92.09,184.89 91.92,184.49C91.57,183.7 90.87,182.24 90.32,180.98C89.69,179.54 89.01,177.81 88.35,176.305C87.72,174.87 87.08,173.57 86.46,172.15C85.82,170.69 85.25,169.14 84.6,167.66500000000002C83.96,166.2 83.24,164.77 82.6,163.32C81.98,161.9 81.45,160.5 80.82,159.06C80.16,157.56 79.35,155.93 78.72,154.49C78.16,153.23 77.55,151.68 77.21,150.91C77.05,150.53 77.01,150.47 76.83,150.08C76.42,149.19 75.4,147 74.81,145.67C74.33,144.58 73.9,143.48 73.54,142.67C73.29,142.11 73.16,141.85 72.88,141.25C72.39,140.19 71.42,138.08 70.87,136.84C70.47,135.93 70.2,135.24 69.86,134.48C69.54,133.77 69.27,133.24 68.89,132.42C68.34,131.23 67.4,129.13 66.9,128.01C66.6,127.33 66.46,126.97 66.18,126.35C65.81,125.55 65.33,124.63 64.86,123.6C64.26,122.3 63.31,120.1 62.91,119.18C62.73,118.76 62.69,118.66 62.51,118.26C62.15,117.47 61.39,116.01 60.82,114.77C60.18,113.37 59.54,111.76 58.86,110.28C58.18,108.81 57.39,107.33 56.75,105.94C56.17,104.67 55.5,103.04 55.15,102.28C54.99,101.93 54.95,101.89 54.78,101.53C54.36,100.67 53.28,98.41 52.68,97.11C52.21,96.09 51.84,95.17 51.47,94.37C51.18,93.74 50.99,93.39 50.66,92.7C50.13,91.58 49.14,89.44 48.62,88.28C48.28,87.53 48.11,87.09 47.8,86.42C47.44,85.63 47.01,84.84 46.56,83.87C45.97,82.6 45.01,80.42 44.58,79.45C44.37,78.97 44.33,78.83 44.12,78.38C43.75,77.57 43.07,76.25 42.52,75.04C41.88,73.63 41.19,71.93 40.525,70.425C39.89,68.99 39.23,67.64 38.61,66.21C37.98,64.76 37.39,63.26 36.775000000000006,61.79C36.16,60.32 35.52,58.87 34.92,57.38C34.31,55.86 33.71,54.25 33.165000000000006,52.735C32.65,51.31 32.15,49.98 31.72,48.56C31.28,47.12 30.84,45.62 30.57,44.14C30.3,42.68 29.7,41.05 30.1,39.73C30.51,38.38 31.89,36.59 33.09,36.14C34.16,35.73 35.56,36.38 36.77,36.7C38.01,37.03 39.25,37.57 40.44,38.09C41.63,38.61 42.74,39.2 43.925,39.81999999999999C45.19,40.48 46.54,41.19 47.8,41.92C49.05,42.64 50.24,43.4 51.46,44.14C52.69,44.88 53.94,45.59 55.15,46.35C56.34,47.1 57.46,47.89 58.66,48.66C59.91,49.46 61.34,50.28 62.51,51.05C63.52,51.71 64.62,52.53 65.29,52.97C65.66,53.22 65.78,53.27 66.18,53.52C66.99,54.03 68.81,55.19 69.86,55.9C70.67,56.44 71.32,56.94 71.98,57.38C72.54,57.75 72.91,57.96 73.54,58.37C74.51,59 76.28,60.18 77.21,60.82C77.79,61.22 78.08,61.45 78.61,61.8C79.27,62.24 80.05,62.68 80.89,63.24C81.98,63.96 83.85,65.27 84.57,65.77C84.87,65.98 84.91,66.02 85.2,66.21C85.83,66.63 87.19,67.43 88.24,68.13C89.4,68.9 90.63,69.85 91.86,70.66499999999999C93.09,71.48 94.44,72.24 95.6,73.01C96.64,73.7 97.85,74.6 98.51,75.04C98.84,75.26 98.92,75.3 99.27,75.52C100.04,76.01 101.87,77.16 102.95,77.87C103.81,78.44 104.57,79.01 105.24,79.45C105.76,79.79 106.06,79.96 106.63,80.32C107.56,80.92 109.31,82.04 110.3,82.7C110.98,83.15 111.42,83.48 112.02,83.87C112.65,84.28 113.23,84.6 113.98,85.08C115.02,85.74 116.78,86.9 117.66,87.49C118.16,87.82 118.36,87.98 118.83,88.28C119.5,88.71 120.42,89.23 121.33,89.81C122.44,90.52 124.27,91.75 125.01,92.24C125.33,92.45 125.39,92.5 125.7,92.7C126.34,93.11 127.64,93.84 128.69,94.5C129.89,95.26 131.24,96.23 132.49,97.025C133.68,97.78 134.86,98.41 136.04,99.16C137.25,99.92 138.44,100.79 139.66,101.565C140.89,102.34 142.18,103.04 143.39,103.8C144.57,104.54 145.66,105.32 146.855,106.07C148.11,106.86 149.55,107.67 150.75,108.43C151.8,109.09 153.02,109.93 153.68,110.35C154.01,110.56 154.08,110.6 154.42,110.81C155.18,111.28 156.99,112.36 158.1,113.07C159.04,113.67 160.01,114.34 160.69,114.77C161.13,115.05 161.31,115.15 161.78,115.44C162.64,115.98 164.39,117.06 165.45,117.74C166.27,118.27 166.97,118.75 167.63,119.18C168.17,119.53 168.52,119.73 169.13,120.12C170.09,120.73 171.83,121.85 172.81,122.5C173.46,122.93 173.86,123.22 174.44,123.6C175.08,124.02 175.7,124.39 176.48,124.9C177.53,125.59 179.35,126.82 180.16,127.38C180.57,127.66 180.68,127.75 181.07,128.01C181.74,128.46 182.86,129.16 183.84,129.83C184.98,130.61 186.26,131.58 187.485,132.445C188.71,133.31 190.09,134.22 191.19,135.01C192.09,135.66 192.95,136.34 193.63,136.84C194.11,137.19 194.35,137.35 194.87,137.74C195.77,138.41 197.75,139.94 198.55,140.56C198.94,140.87 199.05,140.96 199.42,141.25C200.09,141.78 201.31,142.7 202.22,143.44C203.12,144.17 204.19,145.1 204.87,145.67C205.29,146.02 205.45,146.14 205.9,146.52C206.78,147.27 208.5,148.8 209.75,149.925C210.95,151 212.35,152.28 213.25,153.13C213.83,153.67 214.14,153.98 214.66,154.49C215.33,155.14 216.19,155.98 216.93,156.73C217.65,157.46 218.37,158.23 219.02,158.91C219.59,159.51 220.03,159.97 220.61,160.6C221.34,161.4 222.37,162.55 223.04,163.32C223.53,163.87 223.8,164.19 224.28,164.76C224.97,165.57 226.08,166.91 226.76,167.74C227.23,168.32 227.5,168.65 227.96,169.23C228.6,170.04 229.57,171.28 230.23,172.15C230.76,172.85 231.14,173.38 231.64,174.06C232.21,174.84 232.85,175.71 233.45,176.57C234.07,177.45 234.77,178.49 235.31,179.29C235.74,179.92 236,180.29 236.45,180.98C237.16,182.06 238.22,183.75 239.12,185.185C240.06,186.69 241.32,188.76 241.95,189.81C242.27,190.35 242.37,190.53 242.67,191.04C243.14,191.85 243.91,193.14 244.52,194.22C245.14,195.32 245.9,196.79 246.34,197.59C246.59,198.04 246.66,198.17 246.92,198.64C247.44,199.6 248.71,201.97 249.27,203.05C249.59,203.68 249.72,203.96 250.02,204.54C250.44,205.35 251,206.38 251.54,207.46C252.2,208.79 252.96,210.44 253.68,211.92000000000002C254.4,213.39 255.21,214.93 255.86,216.29C256.42,217.47 256.99,218.81 257.37,219.62C257.59,220.08 257.67,220.22 257.9,220.71C258.37,221.69 259.4,223.86 259.97,225.12C260.39,226.05 260.7,226.8 261.05,227.57C261.37,228.26 261.61,228.75 261.97,229.54C262.51,230.72 263.44,232.8 263.95,233.95C264.27,234.68 264.44,235.1 264.73,235.76C265.08,236.55 265.49,237.38 265.93,238.36C266.5,239.64 267.41,241.74 267.85,242.78C268.09,243.34 268.17,243.56 268.4,244.09C268.76,244.91 269.32,246.06 269.82,247.19C270.41,248.53 271.31,250.69 271.7,251.61C271.88,252.02 271.91,252.11 272.08,252.51C272.43,253.3 273.13,254.76 273.68,256.02C274.31,257.46 274.99,259.19 275.65,260.695C276.28,262.13 276.92,263.43 277.54,264.85C278.18,266.31 278.75,267.86 279.4,269.33500000000004C280.04,270.8 280.76,272.23 281.4,273.68C282.02,275.1 282.55,276.5 283.18,277.94C283.84,279.44 284.65,281.07 285.28,282.51C285.84,283.77 286.45,285.32 286.79,286.09C286.95,286.47 286.99,286.53 287.17,286.92C287.58,287.81 288.6,290 289.19,291.33C289.67,292.42 290.1,293.52 290.46,294.33C290.71,294.89 290.84,295.15 291.12,295.75C291.61,296.81 292.58,298.92 293.13,300.16C293.53,301.07 293.8,301.76 294.14,302.52C294.46,303.23 294.73,303.76 295.11,304.58C295.66,305.77 296.6,307.87 297.1,308.99C297.4,309.67 297.54,310.03 297.82,310.65C298.19,311.45 298.67,312.37 299.14,313.4C299.74,314.7 300.69,316.9 301.09,317.82C301.27,318.24 301.31,318.34 301.49,318.74C301.85,319.53 302.61,320.99 303.18,322.23C303.82,323.63 304.46,325.24 305.14,326.72C305.82,328.19 306.61,329.67 307.25,331.06C307.83,332.33 308.5,333.96 308.85,334.72C309.01,335.07 309.05,335.11 309.22,335.47C309.64,336.33 310.72,338.59 311.32,339.89C311.79,340.91 312.16,341.83 312.53,342.63C312.82,343.26 313.01,343.61 313.34,344.3C313.87,345.42 314.86,347.56 315.38,348.72C315.72,349.47 315.89,349.91 316.2,350.58C316.56,351.37 316.99,352.16 317.44,353.13C318.03,354.4 318.99,356.58 319.42,357.55C319.63,358.03 319.67,358.17 319.88,358.62C320.25,359.43 320.93,360.75 321.48,361.96C322.12,363.37 322.81,365.07 323.475,366.575C324.11,368.01 324.77,369.36 325.39,370.79C326.02,372.24 326.61,373.74 327.225,375.21000000000004C327.84,376.68 328.48,378.13 329.08,379.62C329.69,381.14 330.29,382.75 330.83500000000004,384.265C331.35,385.69 331.85,387.02 332.28,388.44C332.72,389.88 333.16,391.38 333.43,392.86C333.7,394.32 334.3,395.95 333.9,397.27C333.49,398.62 332.11,400.41 330.91,400.86C329.84,401.27 328.44,400.62 327.23,400.3C325.99,399.97 324.75,399.43 323.56,398.91Z" style="stroke-miterlimit: 1; vector-effect: non-scaling-stroke; fill: none; stroke: rgb(59, 46, 38); stroke-opacity: 1; stroke-width: 2px;"/></g><g class="contourlevel"><path class="closedline" d="M308.75,375.22249999999997C307.64,375.61 306.36,374.83 305.17,374.47C303.94,374.1 302.71,373.53 301.49,372.99C300.26,372.44 298.55,371.58 297.82,371.19C297.5,371.02 297.46,370.97 297.15,370.79C296.51,370.42 295.19,369.73 294.14,369.13C292.97,368.46 291.26,367.44 290.46,366.94C290.07,366.69 289.97,366.61 289.6,366.37C288.94,365.95 287.78,365.29 286.79,364.67C285.64,363.95 283.75,362.71 283.11,362.28C282.88,362.13 282.87,362.11 282.64,361.96C282.05,361.57 280.52,360.65 279.43,359.93C278.26,359.16 277.07,358.29 275.86,357.485C274.62,356.66 273.23,355.81 272.08,355.03C271.1,354.37 270.06,353.59 269.38,353.13C268.98,352.86 268.83,352.77 268.4,352.49C267.57,351.94 265.74,350.73 264.73,350.03C264.01,349.53 263.51,349.14 262.89,348.72C262.28,348.3 261.77,347.99 261.05,347.51C260.03,346.82 258.18,345.54 257.37,344.96C256.96,344.67 256.85,344.57 256.46,344.3C255.79,343.84 254.68,343.15 253.7,342.48C252.56,341.7 251.28,340.72 250.05,339.87C248.83,339.03 247.47,338.2 246.34,337.42C245.36,336.74 244.32,335.94 243.64,335.47C243.24,335.19 243.1,335.12 242.67,334.83C241.84,334.27 239.99,333.02 238.99,332.32C238.29,331.83 237.83,331.48 237.23,331.06C236.61,330.63 236.05,330.29 235.31,329.78C234.28,329.07 232.41,327.72 231.64,327.18C231.29,326.94 231.22,326.88 230.88,326.65C230.22,326.2 228.97,325.4 227.96,324.69C226.83,323.9 225.63,322.98 224.42000000000002,322.135C223.18,321.27 221.73,320.34 220.61,319.56C219.71,318.93 218.89,318.3 218.21,317.82C217.72,317.47 217.47,317.31 216.93,316.94C216.02,316.3 214.16,314.99 213.25,314.34C212.71,313.95 212.47,313.75 211.97,313.4C211.3,312.92 210.46,312.39 209.58,311.76C208.47,310.97 207.12,309.9 205.88,309.005C204.66,308.13 203.32,307.24 202.22,306.45C201.31,305.79 200.42,305.08 199.74,304.58C199.27,304.23 199.05,304.08 198.55,303.71C197.66,303.05 195.72,301.62 194.87,300.97C194.41,300.62 194.25,300.49 193.82,300.16C193.14,299.65 192.1,298.91 191.19,298.21C190.19,297.45 188.71,296.24 188.09,295.75C187.83,295.54 187.79,295.52 187.52,295.31C186.83,294.77 184.76,293.17 183.84,292.43C183.28,291.98 183.01,291.74 182.5,291.33C181.83,290.79 180.98,290.14 180.16,289.46C179.22,288.68 177.83,287.47 177.18,286.92C176.87,286.66 176.8,286.61 176.48,286.34C175.73,285.71 173.57,283.82 172.81,283.16C172.47,282.86 172.4,282.8 172.07,282.51C171.41,281.93 170,280.71 169.13,279.91C168.41,279.26 167.82,278.68 167.19,278.09C166.59,277.53 166.1,277.09 165.45,276.47C164.61,275.67 163.26,274.34 162.6,273.68C162.24,273.33 162.15,273.23 161.78,272.86C161,272.07 159.4,270.44 158.19,269.16499999999996C156.91,267.82 155.55,266.38 154.295,264.99C153.08,263.65 151.38,261.7 150.75,260.98C150.52,260.71 150.51,260.7 150.28,260.43C149.69,259.73 147.65,257.29 147.07,256.58C146.85,256.31 146.84,256.29 146.62,256.02C146.02,255.27 144.39,253.22 143.27499999999998,251.76C142.12,250.24 140.92,248.61 139.8,247.07999999999998C138.74,245.62 137.37,243.72 136.72,242.78C136.41,242.33 136.33,242.21 136.04,241.78C135.5,240.98 134.38,239.36 133.71,238.36C133.19,237.58 132.82,236.99 132.36,236.28C131.87,235.53 131.39,234.81 130.85,233.95C130.19,232.9 129.17,231.2 128.69,230.42C128.45,230.03 128.39,229.95 128.14,229.54C127.58,228.63 126.02,226.01 125.49,225.12C125.26,224.74 125.23,224.66 125.01,224.29C124.56,223.51 123.54,221.84 122.89,220.71C122.32,219.72 121.78,218.71 121.33,217.9C120.99,217.29 120.79,216.96 120.42,216.29C119.81,215.18 118.46,212.71 118.02,211.88C117.84,211.55 117.83,211.51 117.66,211.19C117.26,210.44 116.24,208.66 115.6,207.46C115.02,206.37 114.41,205.11 113.98,204.3C113.71,203.79 113.6,203.6 113.31,203.05C112.77,202.03 111.57,199.71 111.02,198.64C110.71,198.03 110.59,197.76 110.3,197.2C109.88,196.38 109.29,195.31 108.74,194.22C108.08,192.9 107.35,191.3 106.615,189.835C105.87,188.35 104.98,186.71 104.32,185.39C103.8,184.33 103.35,183.33 102.95,182.52C102.66,181.93 102.49,181.63 102.17,180.98C101.63,179.89 100.53,177.67 100,176.57C99.69,175.92 99.56,175.61 99.27,175.02C98.87,174.21 98.35,173.22 97.83,172.15C97.18,170.8 96.4,169.06 95.675,167.57C94.97,166.12 94.2,164.67 93.55,163.32C92.96,162.1 92.3,160.59 91.92,159.81C91.73,159.41 91.67,159.32 91.47,158.91C91.02,157.99 89.9,155.73 89.31,154.49C88.89,153.6 88.6,152.94 88.24,152.19C87.89,151.47 87.59,150.91 87.19,150.08C86.61,148.88 85.56,146.67 85.1,145.67C84.86,145.16 84.8,144.98 84.57,144.5C84.18,143.68 83.51,142.42 82.95,141.25C82.3,139.89 81.61,138.28 80.905,136.805C80.2,135.33 79.38,133.78 78.73,132.42C78.17,131.24 77.59,129.92 77.21,129.11C76.99,128.64 76.91,128.5 76.67,128.01C76.19,127.03 75.11,124.82 74.54,123.6C74.14,122.74 73.89,122.12 73.54,121.39C73.19,120.65 72.86,120.05 72.44,119.18C71.86,117.96 70.85,115.77 70.39,114.77C70.15,114.25 70.09,114.08 69.86,113.59C69.48,112.77 68.83,111.52 68.28,110.35C67.63,108.97 66.92,107.31 66.23500000000001,105.82C65.56,104.37 64.84,102.93 64.2,101.53C63.6,100.22 62.83,98.39 62.51,97.68C62.38,97.4 62.37,97.39 62.24,97.11C61.88,96.33 60.84,94.08 60.24,92.7C59.72,91.5 59.18,90.12 58.83,89.32C58.64,88.87 58.56,88.75 58.36,88.28C57.94,87.32 57.09,85.27 56.53,83.87C56.03,82.61 55.45,81.03 55.15,80.26C55,79.89 54.96,79.83 54.82,79.45C54.49,78.57 53.77,76.52 53.31,75.04C52.86,73.58 52.39,72.1 52.08,70.63C51.78,69.2 51.08,67.71 51.4525,66.33250000000001C51.88,64.74 53.67,62.29 55.057500000000005,61.777499999999996C56.19,61.36 57.6,62.16 58.83,62.53C60.08,62.9 61.29,63.47 62.51,64.01C63.74,64.56 65.45,65.42 66.18,65.81C66.5,65.98 66.54,66.03 66.85,66.21C67.49,66.58 68.81,67.27 69.86,67.87C71.03,68.54 72.74,69.56 73.54,70.06C73.93,70.31 74.03,70.39 74.4,70.63C75.06,71.05 76.22,71.71 77.21,72.33C78.36,73.05 80.25,74.29 80.89,74.72C81.12,74.87 81.13,74.89 81.36,75.04C81.95,75.43 83.48,76.35 84.57,77.07C85.74,77.84 86.93,78.71 88.14,79.515C89.38,80.34 90.77,81.19 91.92,81.97C92.9,82.63 93.94,83.41 94.62,83.87C95.02,84.14 95.17,84.23 95.6,84.51C96.43,85.06 98.26,86.27 99.27,86.97C99.99,87.47 100.49,87.86 101.11,88.28C101.72,88.7 102.23,89.01 102.95,89.49C103.97,90.18 105.82,91.46 106.63,92.04C107.04,92.33 107.15,92.43 107.54,92.7C108.21,93.16 109.32,93.85 110.3,94.52C111.44,95.3 112.72,96.28 113.95,97.13C115.17,97.97 116.53,98.8 117.66,99.58C118.64,100.26 119.68,101.06 120.36,101.53C120.76,101.81 120.9,101.88 121.33,102.17C122.16,102.73 124.01,103.98 125.01,104.68C125.71,105.17 126.17,105.52 126.77,105.94C127.39,106.37 127.95,106.71 128.69,107.22C129.72,107.93 131.59,109.28 132.36,109.82C132.71,110.06 132.78,110.12 133.12,110.35C133.78,110.8 135.03,111.6 136.04,112.31C137.17,113.1 138.37,114.02 139.57999999999998,114.865C140.82,115.73 142.27,116.66 143.39,117.44C144.29,118.07 145.11,118.7 145.79,119.18C146.28,119.53 146.53,119.69 147.07,120.06C147.98,120.7 149.84,122.01 150.75,122.66C151.29,123.05 151.53,123.25 152.03,123.6C152.7,124.08 153.54,124.61 154.42,125.24C155.53,126.03 156.88,127.1 158.12,127.995C159.34,128.87 160.68,129.76 161.78,130.55C162.69,131.21 163.58,131.92 164.26,132.42C164.73,132.77 164.95,132.92 165.45,133.29C166.34,133.95 168.28,135.38 169.13,136.03C169.59,136.38 169.75,136.51 170.18,136.84C170.86,137.35 171.9,138.09 172.81,138.79C173.81,139.55 175.29,140.76 175.91,141.25C176.17,141.46 176.21,141.48 176.48,141.69C177.17,142.23 179.24,143.83 180.16,144.57C180.72,145.02 180.99,145.26 181.5,145.67C182.17,146.21 183.02,146.86 183.84,147.54C184.78,148.32 186.17,149.53 186.82,150.08C187.13,150.34 187.2,150.39 187.52,150.66C188.27,151.29 190.43,153.18 191.19,153.84C191.53,154.14 191.6,154.2 191.93,154.49C192.59,155.07 194,156.29 194.87,157.09C195.59,157.74 196.18,158.32 196.81,158.91C197.41,159.47 197.9,159.91 198.55,160.53C199.39,161.33 200.74,162.66 201.4,163.32C201.76,163.67 201.85,163.77 202.22,164.14C203,164.93 204.6,166.56 205.81,167.835C207.09,169.18 208.45,170.62 209.705,172.01C210.92,173.35 212.62,175.3 213.25,176.02C213.48,176.29 213.49,176.3 213.72,176.57C214.31,177.27 216.35,179.71 216.93,180.42C217.15,180.69 217.16,180.71 217.38,180.98C217.98,181.73 219.61,183.78 220.72500000000002,185.24C221.88,186.76 223.08,188.39 224.2,189.92000000000002C225.26,191.38 226.63,193.28 227.28,194.22C227.59,194.67 227.67,194.79 227.96,195.22C228.5,196.02 229.62,197.64 230.29,198.64C230.81,199.42 231.18,200.01 231.64,200.72C232.13,201.47 232.61,202.19 233.15,203.05C233.81,204.1 234.83,205.8 235.31,206.58C235.55,206.97 235.61,207.05 235.86,207.46C236.42,208.37 237.98,210.99 238.51,211.88C238.74,212.26 238.77,212.34 238.99,212.71C239.44,213.49 240.46,215.16 241.11,216.29C241.68,217.28 242.22,218.29 242.67,219.1C243.01,219.71 243.21,220.04 243.58,220.71C244.19,221.82 245.54,224.29 245.98,225.12C246.16,225.45 246.17,225.49 246.34,225.81C246.74,226.56 247.76,228.34 248.4,229.54C248.98,230.63 249.59,231.89 250.02,232.7C250.29,233.21 250.4,233.4 250.69,233.95C251.23,234.97 252.43,237.29 252.98,238.36C253.29,238.97 253.41,239.24 253.7,239.8C254.12,240.62 254.71,241.69 255.26,242.78C255.92,244.1 256.65,245.7 257.385,247.165C258.13,248.65 259.02,250.29 259.68,251.61C260.2,252.67 260.65,253.67 261.05,254.48C261.34,255.07 261.51,255.37 261.83,256.02C262.37,257.11 263.47,259.33 264,260.43C264.31,261.08 264.44,261.39 264.73,261.98C265.13,262.79 265.65,263.78 266.17,264.85C266.82,266.2 267.6,267.94 268.325,269.43C269.03,270.88 269.8,272.33 270.45,273.68C271.04,274.9 271.7,276.41 272.08,277.19C272.27,277.59 272.33,277.68 272.53,278.09C272.98,279.01 274.1,281.27 274.69,282.51C275.11,283.4 275.4,284.06 275.76,284.81C276.11,285.53 276.41,286.09 276.81,286.92C277.39,288.12 278.44,290.33 278.9,291.33C279.14,291.84 279.2,292.02 279.43,292.5C279.82,293.32 280.49,294.58 281.05,295.75C281.7,297.11 282.39,298.72 283.095,300.19500000000005C283.8,301.67 284.62,303.22 285.27,304.58C285.83,305.76 286.41,307.08 286.79,307.89C287.01,308.36 287.09,308.5 287.33,308.99C287.81,309.97 288.89,312.18 289.46,313.4C289.86,314.26 290.11,314.88 290.46,315.61C290.81,316.35 291.14,316.95 291.56,317.82C292.14,319.04 293.15,321.23 293.61,322.23C293.85,322.75 293.91,322.92 294.14,323.41C294.52,324.23 295.17,325.48 295.72,326.65C296.37,328.03 297.08,329.69 297.765,331.18C298.44,332.63 299.16,334.07 299.8,335.47C300.4,336.78 301.17,338.61 301.49,339.32C301.62,339.6 301.63,339.61 301.76,339.89C302.12,340.67 303.16,342.92 303.76,344.3C304.28,345.5 304.82,346.88 305.17,347.68C305.36,348.13 305.44,348.25 305.64,348.72C306.06,349.68 306.91,351.73 307.47,353.13C307.97,354.39 308.55,355.97 308.85,356.74C309,357.11 309.04,357.17 309.18,357.55C309.51,358.43 310.23,360.48 310.69,361.96C311.14,363.42 311.61,364.9 311.92,366.37C312.22,367.8 312.93,369.3 312.5475,370.6675C312.1,372.27 310.16,374.73 308.75,375.22249999999997Z" style="stroke-miterlimit: 1; vector-effect: non-scaling-stroke; fill: none; stroke: rgb(85, 62, 47); stroke-opacity: 1; stroke-width: 2px;"/></g><g class="contourlevel"><path class="closedline" d="M294.14,357.76C293.84,357.76 293.6,357.64 293.2,357.55C292.53,357.4 291.43,357.27 290.46,356.97C289.31,356.62 288.01,356.01 286.79,355.47C285.56,354.92 283.92,354.12 283.11,353.68C282.69,353.46 282.58,353.35 282.19,353.13C281.52,352.74 280.41,352.17 279.43,351.61C278.29,350.96 276.61,349.95 275.76,349.42C275.29,349.13 275.13,349 274.69,348.72C274.01,348.29 273.02,347.71 272.08,347.12C270.95,346.41 269.11,345.21 268.4,344.73C268.11,344.53 268.07,344.49 267.79,344.3C267.16,343.88 265.79,343.03 264.73,342.33C263.57,341.56 262.34,340.66 261.125,339.84000000000003C259.89,339 258.5,338.13 257.37,337.35C256.41,336.69 255.42,335.94 254.74,335.47C254.32,335.18 254.15,335.09 253.7,334.78C252.85,334.2 251,332.93 250.02,332.24C249.36,331.78 248.97,331.47 248.39,331.06C247.75,330.61 247.12,330.21 246.34,329.66C245.29,328.92 243.33,327.5 242.67,327.02C242.42,326.84 242.4,326.82 242.16,326.65C241.56,326.22 240.03,325.21 238.99,324.47C237.96,323.74 236.6,322.69 235.96,322.23C235.67,322.02 235.61,321.99 235.31,321.78C234.58,321.27 232.65,319.91 231.64,319.18C230.92,318.66 230.42,318.27 229.81,317.82C229.2,317.38 228.68,317.03 227.96,316.51C226.94,315.77 224.94,314.28 224.28,313.78C224.04,313.6 224.02,313.58 223.78,313.4C223.18,312.96 221.63,311.9 220.61,311.15C219.63,310.43 218.45,309.49 217.78,308.99C217.42,308.72 217.31,308.66 216.93,308.38C216.13,307.8 214.18,306.35 213.25,305.65C212.67,305.21 212.38,304.97 211.86,304.58C211.2,304.08 210.42,303.53 209.58,302.89C208.52,302.08 207.22,301.02 206.005,300.08000000000004C204.77,299.12 203.25,298.01 202.22,297.21C201.5,296.65 201.01,296.23 200.4,295.75C199.79,295.27 199.27,294.88 198.55,294.31C197.53,293.5 196.13,292.3 194.9,291.30499999999995C193.67,290.31 192.18,289.15 191.19,288.34C190.52,287.79 190.1,287.41 189.52,286.92C188.88,286.39 188.26,285.89 187.52,285.26C186.59,284.46 184.99,283.05 184.38,282.51C184.13,282.29 184.1,282.27 183.84,282.04C183.16,281.44 180.93,279.49 180.16,278.8C179.81,278.48 179.73,278.4 179.39,278.09C178.73,277.49 177.34,276.27 176.48,275.47C175.78,274.82 175.21,274.27 174.59,273.68C173.99,273.11 173.47,272.62 172.81,271.99C171.99,271.19 170.71,269.92 170.04,269.26C169.65,268.88 169.53,268.76 169.13,268.36C168.33,267.56 166.79,265.97 165.58499999999998,264.71000000000004C164.31,263.37 162.95,261.92 161.68,260.53999999999996C160.45,259.21 158.74,257.29 158.1,256.57C157.86,256.3 157.85,256.29 157.62,256.02C157.02,255.33 155.05,253.02 154.42,252.28C154.16,251.97 154.12,251.93 153.86,251.61C153.24,250.86 151.33,248.47 150.75,247.76C150.53,247.49 150.51,247.47 150.29,247.19C149.69,246.43 148.09,244.36 146.98,242.89499999999998C145.83,241.37 144.62,239.73 143.51,238.2C142.46,236.75 141.14,234.91 140.47,233.95C140.13,233.47 140.04,233.31 139.72,232.85C139.17,232.04 138.1,230.53 137.44,229.54C136.91,228.75 136.51,228.12 136.04,227.39C135.55,226.64 135.09,225.96 134.55,225.12C133.89,224.09 132.86,222.43 132.36,221.64C132.1,221.23 132.04,221.14 131.78,220.71C131.21,219.78 129.56,217.1 129.07,216.29C128.88,215.98 128.87,215.95 128.69,215.65C128.25,214.92 127.05,213 126.39,211.88C125.86,210.99 125.45,210.24 125.01,209.47C124.6,208.77 124.29,208.26 123.83,207.46C123.15,206.27 122.19,204.48 121.35499999999999,203.01C120.53,201.54 119.52,199.86 118.85,198.64C118.37,197.78 118.06,197.15 117.66,196.41C117.26,195.67 116.91,195.08 116.44,194.22C115.77,192.98 114.85,191.17 114.05000000000001,189.68C113.27,188.23 112.39,186.66 111.71,185.39C111.17,184.38 110.72,183.45 110.3,182.65C109.97,182.02 109.77,181.67 109.41,180.98C108.82,179.86 107.62,177.53 107.14,176.57C106.91,176.11 106.86,175.99 106.63,175.55C106.22,174.75 105.43,173.32 104.83,172.15C104.2,170.92 103.32,169.07 102.95,168.35C102.8,168.06 102.78,168.04 102.63,167.74C102.22,166.94 100.97,164.54 100.36,163.32C99.93,162.46 99.64,161.84 99.27,161.1C98.9,160.37 98.57,159.77 98.14,158.91C97.53,157.7 96.39,155.36 95.97,154.49C95.79,154.12 95.77,154.06 95.6,153.71C95.22,152.94 94.35,151.31 93.74,150.08C93.12,148.83 92.28,147 91.92,146.28C91.78,145.99 91.76,145.97 91.61,145.67C91.21,144.87 90.02,142.51 89.41,141.25C88.95,140.31 88.62,139.56 88.24,138.79C87.9,138.1 87.64,137.62 87.26,136.84C86.68,135.67 85.63,133.44 85.15,132.42C84.89,131.88 84.81,131.68 84.57,131.17C84.18,130.35 83.56,129.16 83.01,128.01C82.36,126.65 81.63,124.99 80.93,123.50999999999999C80.24,122.05 79.5,120.57 78.86,119.18C78.27,117.91 77.56,116.27 77.21,115.51C77.05,115.17 77.02,115.12 76.86,114.77C76.47,113.92 75.46,111.7 74.87,110.35C74.38,109.22 73.9,108.04 73.54,107.23C73.31,106.7 73.19,106.5 72.95,105.94C72.5,104.91 71.67,102.9 71.13,101.53C70.66,100.35 70.18,99.03 69.86,98.22C69.67,97.75 69.59,97.61 69.4,97.11C69.03,96.13 68.37,94.18 67.91,92.7C67.46,91.23 66.95,89.65 66.66,88.28C66.41,87.11 66.3,85.81 66.18,85C66.11,84.53 66.01,84.24 66.01,83.87C66.01,83.52 65.99,83.26 66.18,82.86C66.57,82.02 68.29,79.91 69.02,79.45C69.34,79.25 69.57,79.24 69.86,79.24C70.16,79.24 70.4,79.36 70.8,79.45C71.47,79.6 72.57,79.73 73.54,80.03C74.69,80.38 75.99,80.99 77.21,81.53C78.44,82.08 80.08,82.88 80.89,83.32C81.31,83.54 81.42,83.65 81.81,83.87C82.48,84.26 83.59,84.83 84.57,85.39C85.71,86.04 87.39,87.05 88.24,87.58C88.71,87.87 88.87,88 89.31,88.28C89.99,88.71 90.98,89.29 91.92,89.88C93.05,90.59 94.89,91.79 95.6,92.27C95.89,92.47 95.93,92.51 96.21,92.7C96.84,93.12 98.21,93.97 99.27,94.67C100.43,95.44 101.66,96.34 102.875,97.16C104.11,98 105.5,98.87 106.63,99.65C107.59,100.31 108.58,101.06 109.26,101.53C109.68,101.82 109.85,101.91 110.3,102.22C111.15,102.8 113,104.07 113.98,104.76C114.64,105.22 115.03,105.53 115.61,105.94C116.25,106.39 116.88,106.79 117.66,107.34C118.71,108.08 120.67,109.5 121.33,109.98C121.58,110.16 121.6,110.18 121.84,110.35C122.44,110.78 123.97,111.79 125.01,112.53C126.04,113.26 127.4,114.31 128.04,114.77C128.33,114.98 128.39,115.01 128.69,115.22C129.42,115.73 131.35,117.09 132.36,117.82C133.08,118.34 133.58,118.73 134.19,119.18C134.8,119.62 135.32,119.97 136.04,120.49C137.06,121.23 139.06,122.72 139.72,123.22C139.96,123.4 139.98,123.42 140.22,123.6C140.82,124.04 142.37,125.1 143.39,125.85C144.37,126.57 145.55,127.51 146.22,128.01C146.58,128.28 146.69,128.34 147.07,128.62C147.87,129.2 149.82,130.65 150.75,131.35C151.33,131.79 151.62,132.03 152.14,132.42C152.8,132.92 153.58,133.47 154.42,134.11C155.48,134.92 156.78,135.98 157.995,136.92000000000002C159.23,137.88 160.75,138.99 161.78,139.79C162.5,140.35 162.99,140.77 163.6,141.25C164.21,141.73 164.73,142.12 165.45,142.69C166.47,143.5 167.87,144.7 169.1,145.695C170.33,146.69 171.82,147.85 172.81,148.66C173.48,149.21 173.9,149.59 174.48,150.08C175.12,150.61 175.74,151.11 176.48,151.74C177.41,152.54 179.01,153.95 179.62,154.49C179.87,154.71 179.9,154.73 180.16,154.96C180.84,155.56 183.07,157.51 183.84,158.2C184.19,158.52 184.27,158.6 184.61,158.91C185.27,159.51 186.66,160.73 187.52,161.53C188.22,162.18 188.79,162.73 189.41,163.32C190.01,163.89 190.53,164.38 191.19,165.01C192.01,165.81 193.29,167.08 193.96,167.74C194.35,168.12 194.47,168.24 194.87,168.64C195.67,169.44 197.21,171.03 198.41500000000002,172.29000000000002C199.69,173.63 201.05,175.08 202.32,176.45999999999998C203.55,177.79 205.26,179.71 205.9,180.43C206.14,180.7 206.15,180.71 206.38,180.98C206.98,181.67 208.95,183.98 209.58,184.72C209.84,185.03 209.88,185.07 210.14,185.39C210.76,186.14 212.67,188.53 213.25,189.24C213.47,189.51 213.49,189.53 213.71,189.81C214.31,190.57 215.91,192.64 217.02,194.10500000000002C218.17,195.63 219.38,197.27 220.49,198.8C221.54,200.25 222.86,202.09 223.53,203.05C223.87,203.53 223.96,203.69 224.28,204.15C224.83,204.96 225.9,206.47 226.56,207.46C227.09,208.25 227.49,208.88 227.96,209.61C228.45,210.36 228.91,211.04 229.45,211.88C230.11,212.91 231.14,214.57 231.64,215.36C231.9,215.77 231.96,215.86 232.22,216.29C232.79,217.22 234.44,219.9 234.93,220.71C235.12,221.02 235.13,221.05 235.31,221.35C235.75,222.08 236.95,224 237.61,225.12C238.14,226.01 238.55,226.76 238.99,227.53C239.4,228.23 239.71,228.74 240.17,229.54C240.85,230.73 241.81,232.52 242.64499999999998,233.99C243.47,235.46 244.48,237.14 245.15,238.36C245.63,239.22 245.94,239.85 246.34,240.59C246.74,241.33 247.09,241.92 247.56,242.78C248.23,244.02 249.15,245.83 249.95,247.32C250.73,248.77 251.61,250.34 252.29,251.61C252.83,252.62 253.28,253.55 253.7,254.35C254.03,254.98 254.23,255.33 254.59,256.02C255.18,257.14 256.38,259.47 256.86,260.43C257.09,260.89 257.14,261.01 257.37,261.45C257.78,262.25 258.57,263.68 259.17,264.85C259.8,266.08 260.68,267.93 261.05,268.65C261.2,268.94 261.22,268.96 261.37,269.26C261.78,270.06 263.03,272.46 263.64,273.68C264.07,274.54 264.36,275.16 264.73,275.9C265.1,276.63 265.43,277.23 265.86,278.09C266.47,279.3 267.61,281.64 268.03,282.51C268.21,282.88 268.23,282.94 268.4,283.29C268.78,284.06 269.65,285.69 270.26,286.92C270.88,288.17 271.72,290 272.08,290.72C272.22,291.01 272.24,291.03 272.39,291.33C272.79,292.13 273.98,294.49 274.59,295.75C275.05,296.69 275.38,297.44 275.76,298.21C276.1,298.9 276.36,299.38 276.74,300.16C277.32,301.33 278.37,303.56 278.85,304.58C279.11,305.12 279.19,305.32 279.43,305.83C279.82,306.65 280.44,307.84 280.99,308.99C281.64,310.35 282.37,312.01 283.07,313.49C283.76,314.95 284.5,316.43 285.14,317.82C285.73,319.09 286.44,320.73 286.79,321.49C286.95,321.83 286.98,321.88 287.14,322.23C287.53,323.08 288.54,325.3 289.13,326.65C289.62,327.78 290.1,328.96 290.46,329.77C290.69,330.3 290.81,330.5 291.05,331.06C291.5,332.09 292.33,334.1 292.87,335.47C293.34,336.65 293.82,337.97 294.14,338.78C294.33,339.25 294.41,339.39 294.6,339.89C294.97,340.87 295.63,342.82 296.09,344.3C296.54,345.77 297.05,347.35 297.34,348.72C297.59,349.89 297.7,351.19 297.82,352C297.89,352.47 297.99,352.76 297.99,353.13C297.99,353.48 298.01,353.74 297.82,354.14C297.43,354.98 295.71,357.09 294.98,357.55C294.66,357.75 294.43,357.76 294.14,357.76Z" style="stroke-miterlimit: 1; vector-effect: non-scaling-stroke; fill: none; stroke: rgb(112, 77, 54); stroke-opacity: 1; stroke-width: 2px;"/></g><g class="contourlevel"><path class="closedline" d="M271.95,339.96500000000003C270.74,339.34 269.59,338.67 268.4,337.98C267.18,337.28 265.39,336.21 264.73,335.8C264.48,335.65 264.47,335.62 264.23,335.47C263.63,335.09 262.14,334.2 261.05,333.5C259.86,332.74 258.59,331.88 257.36,331.07C256.14,330.26 254.84,329.43 253.7,328.66C252.68,327.97 251.48,327.1 250.82,326.65C250.47,326.41 250.38,326.36 250.02,326.12C249.24,325.59 247.36,324.31 246.34,323.59C245.61,323.07 245.09,322.67 244.47,322.23C243.87,321.8 243.37,321.49 242.67,320.99C241.66,320.28 239.74,318.88 238.99,318.34C238.66,318.1 238.6,318.05 238.28,317.82C237.63,317.35 236.31,316.44 235.31,315.72C234.28,314.97 232.83,313.86 232.21,313.4C231.95,313.21 231.91,313.19 231.64,312.99C230.95,312.49 228.96,311.06 227.96,310.32C227.27,309.81 226.82,309.44 226.22,308.99C225.59,308.52 225.03,308.14 224.28,307.58C223.22,306.79 221.75,305.61 220.5,304.66499999999996C219.3,303.75 217.99,302.81 216.93,302C216.07,301.34 215.27,300.68 214.6,300.16C214.09,299.77 213.81,299.57 213.25,299.14C212.32,298.42 210.29,296.79 209.58,296.23C209.29,296 209.25,295.97 208.97,295.75C208.34,295.26 206.86,294.13 205.9,293.36C205.03,292.66 204.12,291.88 203.44,291.33C202.96,290.95 202.73,290.78 202.22,290.36C201.32,289.63 199.19,287.82 198.55,287.29C198.33,287.11 198.32,287.1 198.1,286.92C197.51,286.44 195.82,285.05 194.87,284.25C194.12,283.61 193.5,283.06 192.86,282.51C192.28,282.01 191.84,281.65 191.19,281.08C190.23,280.24 188.88,279.01 187.69,277.94C186.44,276.81 184.66,275.23 183.84,274.48C183.45,274.12 183.35,274.02 182.98,273.68C182.31,273.06 181,271.86 180.16,271.07C179.47,270.42 178.91,269.86 178.29,269.26C177.68,268.68 177.14,268.17 176.48,267.53C175.67,266.74 174.5,265.53 173.82,264.85C173.4,264.43 173.24,264.27 172.81,263.83C172.03,263.03 170.12,261.02 169.55,260.43C169.34,260.22 169.34,260.22 169.13,260C168.51,259.35 166.69,257.37 165.45999999999998,256.015C164.2,254.62 162.91,253.19 161.655,251.75C160.4,250.31 159.16,248.86 157.935,247.39C156.71,245.92 155.49,244.43 154.3,242.93C153.1,241.42 151.91,239.87 150.755,238.35500000000002C149.62,236.88 147.98,234.69 147.43,233.95C147.25,233.7 147.25,233.7 147.07,233.45C146.57,232.76 144.9,230.48 144.24,229.54C143.87,229.02 143.74,228.82 143.39,228.32C142.82,227.51 141.82,226.09 141.16,225.12C140.62,224.33 140.21,223.68 139.72,222.95C139.22,222.21 138.75,221.54 138.21,220.71C137.55,219.7 136.56,218.13 136.04,217.33C135.75,216.88 135.67,216.76 135.37,216.29C134.74,215.3 133.43,213.18 132.49,211.675C131.6,210.24 130.57,208.61 129.87,207.46C129.39,206.67 129.11,206.16 128.69,205.46C128.23,204.69 127.76,203.95 127.23,203.05C126.56,201.91 125.41,199.87 125.01,199.17C124.86,198.91 124.85,198.9 124.7,198.64C124.26,197.88 122.76,195.3 122.15,194.22C121.8,193.6 121.65,193.33 121.33,192.76C120.87,191.95 120.23,190.85 119.65,189.81C119.01,188.65 118.08,186.88 117.66,186.12C117.47,185.78 117.44,185.74 117.25,185.39C116.78,184.54 115.43,182.09 114.83,180.98C114.47,180.31 114.31,179.98 113.98,179.37C113.55,178.56 112.99,177.61 112.44,176.57C111.76,175.3 110.99,173.73 110.22999999999999,172.28C109.44,170.79 108.46,169.01 107.8,167.74C107.33,166.84 107.02,166.16 106.63,165.41C106.26,164.69 105.95,164.15 105.52,163.32C104.9,162.12 103.71,159.74 103.29,158.91C103.13,158.58 103.11,158.54 102.95,158.22C102.57,157.47 101.64,155.72 101.02,154.49C100.42,153.29 99.66,151.71 99.27,150.93C99.08,150.55 99.04,150.47 98.84,150.08C98.39,149.18 97.22,146.88 96.63,145.67C96.22,144.82 95.96,144.23 95.6,143.5C95.24,142.75 94.9,142.13 94.47,141.25C93.87,140.03 92.8,137.78 92.36,136.84C92.16,136.4 92.12,136.3 91.92,135.88C91.55,135.08 90.83,133.65 90.25,132.42C89.6,131.05 88.91,129.49 88.235,128.02499999999998C87.56,126.55 86.84,125.02 86.21,123.6C85.63,122.28 84.89,120.5 84.57,119.78C84.44,119.49 84.42,119.47 84.29,119.18C83.94,118.39 83.06,116.23 82.48,114.77C81.91,113.34 81.35,111.96 80.825,110.50999999999999C80.29,109.02 79.76,107.46 79.32,105.94C78.89,104.46 78.45,103.01 78.19,101.53C77.93,100.07 77.36,98.45 77.77,97.11C78.2,95.71 79.65,93.84 80.89,93.36C81.97,92.94 83.36,93.57 84.57,93.87C85.81,94.18 87.02,94.71 88.24,95.22C89.51,95.75 90.81,96.4 92.05000000000001,97.035C93.26,97.66 94.41,98.33 95.6,99.02C96.82,99.72 98.61,100.79 99.27,101.2C99.52,101.35 99.53,101.38 99.77,101.53C100.37,101.91 101.86,102.8 102.95,103.5C104.14,104.26 105.41,105.12 106.64,105.93C107.86,106.74 109.16,107.57 110.3,108.34C111.32,109.03 112.52,109.9 113.18,110.35C113.53,110.59 113.62,110.64 113.98,110.88C114.76,111.41 116.64,112.69 117.66,113.41C118.39,113.93 118.91,114.33 119.53,114.77C120.13,115.2 120.63,115.51 121.33,116.01C122.34,116.72 124.26,118.12 125.01,118.66C125.34,118.9 125.4,118.95 125.72,119.18C126.37,119.65 127.69,120.56 128.69,121.28C129.72,122.03 131.17,123.14 131.79,123.6C132.05,123.79 132.09,123.81 132.36,124.01C133.05,124.51 135.04,125.94 136.04,126.68C136.73,127.19 137.18,127.56 137.78,128.01C138.41,128.48 138.97,128.86 139.72,129.42C140.78,130.21 142.25,131.39 143.5,132.33499999999998C144.7,133.25 146.01,134.19 147.07,135C147.93,135.66 148.73,136.32 149.4,136.84C149.91,137.23 150.19,137.43 150.75,137.86C151.68,138.58 153.71,140.21 154.42,140.77C154.71,141 154.75,141.03 155.03,141.25C155.66,141.74 157.14,142.87 158.1,143.64C158.97,144.34 159.88,145.12 160.56,145.67C161.04,146.05 161.27,146.22 161.78,146.64C162.68,147.37 164.81,149.18 165.45,149.71C165.67,149.89 165.68,149.9 165.9,150.08C166.49,150.56 168.18,151.95 169.13,152.75C169.88,153.39 170.5,153.94 171.14,154.49C171.72,154.99 172.16,155.35 172.81,155.92C173.77,156.76 175.12,157.99 176.31,159.06C177.56,160.19 179.34,161.77 180.16,162.52C180.55,162.88 180.65,162.98 181.02,163.32C181.69,163.94 183,165.14 183.84,165.93C184.53,166.58 185.09,167.14 185.71,167.74C186.32,168.32 186.86,168.83 187.52,169.47C188.33,170.26 189.5,171.47 190.18,172.15C190.6,172.57 190.76,172.73 191.19,173.17C191.97,173.97 193.88,175.98 194.45,176.57C194.66,176.78 194.66,176.78 194.87,177C195.49,177.65 197.31,179.63 198.54000000000002,180.985C199.8,182.38 201.09,183.81 202.345,185.25C203.6,186.69 204.84,188.14 206.065,189.61C207.29,191.08 208.51,192.57 209.7,194.07C210.9,195.58 212.09,197.13 213.245,198.64499999999998C214.38,200.12 216.02,202.31 216.57,203.05C216.75,203.3 216.75,203.3 216.93,203.55C217.43,204.24 219.1,206.52 219.76,207.46C220.13,207.98 220.26,208.18 220.61,208.68C221.18,209.49 222.18,210.91 222.84,211.88C223.38,212.67 223.79,213.32 224.28,214.05C224.78,214.79 225.25,215.46 225.79,216.29C226.45,217.3 227.44,218.87 227.96,219.67C228.25,220.12 228.33,220.24 228.63,220.71C229.26,221.7 230.57,223.82 231.51,225.325C232.4,226.76 233.43,228.39 234.13,229.54C234.61,230.33 234.89,230.84 235.31,231.54C235.77,232.31 236.24,233.05 236.77,233.95C237.44,235.09 238.59,237.13 238.99,237.83C239.14,238.09 239.15,238.1 239.3,238.36C239.74,239.12 241.24,241.7 241.85,242.78C242.2,243.4 242.35,243.67 242.67,244.24C243.13,245.05 243.77,246.15 244.35,247.19C244.99,248.35 245.92,250.12 246.34,250.88C246.53,251.22 246.56,251.26 246.75,251.61C247.22,252.46 248.57,254.91 249.17,256.02C249.53,256.69 249.69,257.02 250.02,257.63C250.45,258.44 251.01,259.39 251.56,260.43C252.24,261.7 253.01,263.27 253.76999999999998,264.72C254.56,266.21 255.54,267.99 256.2,269.26C256.67,270.16 256.98,270.84 257.37,271.59C257.74,272.31 258.05,272.85 258.48,273.68C259.1,274.88 260.29,277.26 260.71,278.09C260.87,278.42 260.89,278.46 261.05,278.78C261.43,279.53 262.36,281.28 262.98,282.51C263.58,283.71 264.34,285.29 264.73,286.07C264.92,286.45 264.96,286.53 265.16,286.92C265.61,287.82 266.78,290.12 267.37,291.33C267.78,292.18 268.04,292.77 268.4,293.5C268.76,294.25 269.1,294.87 269.53,295.75C270.13,296.97 271.2,299.22 271.64,300.16C271.84,300.6 271.88,300.7 272.08,301.12C272.45,301.92 273.17,303.35 273.75,304.58C274.4,305.95 275.09,307.51 275.765,308.975C276.44,310.45 277.16,311.98 277.79,313.4C278.37,314.72 279.11,316.5 279.43,317.22C279.56,317.51 279.58,317.53 279.71,317.82C280.06,318.61 280.94,320.77 281.52,322.23C282.09,323.66 282.65,325.04 283.175,326.49C283.71,327.98 284.24,329.54 284.68,331.06C285.11,332.54 285.55,333.99 285.81,335.47C286.07,336.93 286.64,338.55 286.23,339.89C285.8,341.29 284.35,343.16 283.11,343.64C282.03,344.06 280.64,343.43 279.43,343.13C278.19,342.82 276.98,342.29 275.76,341.78C274.49,341.25 273.19,340.6 271.95,339.96500000000003Z" style="stroke-miterlimit: 1; vector-effect: non-scaling-stroke; fill: none; stroke: rgb(138, 93, 57); stroke-opacity: 1; stroke-width: 2px;"/></g><g class="contourlevel"><path class="closedline" d="M272.08,331.64C271.22,331.66 270.06,331.2 269.38,331.06C268.97,330.97 268.82,330.99 268.4,330.86C267.56,330.59 265.95,329.84 264.73,329.27C263.5,328.69 261.96,327.93 261.05,327.43C260.49,327.13 260.23,326.94 259.73,326.65C259.06,326.26 258.24,325.82 257.37,325.31C256.28,324.67 254.6,323.64 253.7,323.07C253.16,322.73 252.92,322.55 252.43,322.23C251.76,321.79 250.9,321.28 250.02,320.7C248.92,319.98 247.04,318.72 246.34,318.24C246.05,318.04 246.02,318.01 245.74,317.82C245.11,317.39 243.72,316.46 242.67,315.73C241.54,314.95 240.39,314.1 239.195,313.26C237.94,312.37 236.4,311.31 235.31,310.52C234.51,309.94 233.91,309.46 233.26,308.99C232.69,308.57 232.29,308.3 231.64,307.83C230.66,307.11 228.69,305.64 227.96,305.09C227.65,304.85 227.59,304.81 227.29,304.58C226.65,304.1 225.26,303.11 224.28,302.36C223.32,301.63 222.13,300.67 221.46,300.16C221.1,299.88 220.99,299.81 220.61,299.52C219.81,298.91 217.81,297.37 216.93,296.68C216.43,296.29 216.22,296.12 215.76,295.75C215.08,295.22 214.12,294.49 213.25,293.8C212.28,293.03 210.86,291.84 210.22,291.33C209.93,291.1 209.88,291.06 209.58,290.82C208.86,290.24 206.77,288.55 205.9,287.84C205.42,287.45 205.24,287.29 204.8,286.92C204.12,286.36 203.08,285.53 202.22,284.81C201.33,284.07 200.23,283.09 199.55,282.51C199.14,282.16 198.99,282.04 198.55,281.66C197.68,280.91 195.93,279.37 194.67000000000002,278.265C193.48,277.22 192.13,276.07 191.19,275.22C190.53,274.63 190.1,274.21 189.52,273.68C188.88,273.1 188.24,272.52 187.52,271.86C186.67,271.07 185.44,269.9 184.77,269.26C184.38,268.89 184.25,268.77 183.84,268.38C183.02,267.59 181.41,266.02 180.195,264.815C178.96,263.6 177.22,261.88 176.48,261.13C176.16,260.81 176.11,260.75 175.81,260.43C175.17,259.76 173.59,258.16 172.81,257.34C172.31,256.81 172.06,256.54 171.58,256.02C170.9,255.29 169.86,254.18 169.13,253.39C168.54,252.74 168.1,252.24 167.53,251.61C166.88,250.89 166.12,250.04 165.45,249.28C164.83,248.57 164.25,247.9 163.65,247.19C163.03,246.47 162.4,245.73 161.78,244.99C161.16,244.26 160.54,243.52 159.93,242.78C159.32,242.04 158.7,241.27 158.1,240.53C157.51,239.8 156.95,239.11 156.36,238.36C155.73,237.56 155.02,236.66 154.42,235.88C153.89,235.2 153.48,234.66 152.94,233.95C152.28,233.07 151.36,231.82 150.75,231.01C150.32,230.44 150.09,230.14 149.65,229.54C148.97,228.61 147.62,226.7 147.07,225.93C146.81,225.56 146.76,225.5 146.49,225.12C145.87,224.23 144.43,222.15 143.42,220.66500000000002C142.42,219.2 141.1,217.27 140.45,216.29C140.12,215.8 140.03,215.64 139.72,215.17C139.19,214.36 138.2,212.89 137.55,211.88C137,211.02 136.52,210.25 136.04,209.48C135.6,208.78 135.26,208.26 134.76,207.46C134.05,206.32 133.08,204.72 132.215,203.29000000000002C131.3,201.78 130.01,199.69 129.39,198.64C129.07,198.11 128.98,197.93 128.69,197.43C128.21,196.61 127.39,195.28 126.77,194.22C126.16,193.18 125.48,191.93 125.01,191.12C124.7,190.59 124.57,190.38 124.24,189.81C123.64,188.77 122.25,186.26 121.76,185.39C121.56,185.03 121.53,184.97 121.33,184.62C120.9,183.86 119.91,182.14 119.27,180.98C118.69,179.93 118.1,178.78 117.66,177.97C117.36,177.41 117.21,177.17 116.88,176.57C116.3,175.51 115.02,173.11 114.51,172.15C114.27,171.69 114.21,171.57 113.98,171.13C113.56,170.33 112.76,168.89 112.15,167.74C111.53,166.56 110.7,164.9 110.3,164.13C110.11,163.76 110.07,163.7 109.87,163.32C109.41,162.44 108.18,160.08 107.59,158.91C107.2,158.13 106.98,157.65 106.63,156.97C106.24,156.19 105.83,155.45 105.35,154.49C104.69,153.18 103.81,151.34 103.065,149.835C102.36,148.41 101.66,147.02 101.01,145.67C100.4,144.4 99.63,142.72 99.27,141.97C99.11,141.64 99.08,141.59 98.92,141.25C98.52,140.4 97.47,138.16 96.87,136.84C96.39,135.78 95.96,134.76 95.6,133.95C95.33,133.36 95.18,133.06 94.9,132.42C94.42,131.33 93.57,129.32 93.03,128.01C92.6,126.97 92.24,126 91.92,125.19C91.68,124.58 91.52,124.27 91.27,123.6C90.85,122.5 90.22,120.66 89.74,119.18C89.27,117.71 88.63,115.78 88.41,114.77C88.3,114.26 88.31,114.09 88.24,113.6C88.12,112.79 87.75,111.38 87.76,110.35C87.77,109.4 87.89,108.4 88.24,107.64C88.56,106.96 89.06,106.32 89.66,105.94C90.28,105.55 91.13,105.38 91.92,105.36C92.78,105.34 93.94,105.8 94.62,105.94C95.03,106.03 95.18,106.01 95.6,106.14C96.44,106.41 98.05,107.16 99.27,107.73C100.5,108.31 102.04,109.07 102.95,109.57C103.51,109.87 103.77,110.06 104.27,110.35C104.94,110.74 105.76,111.18 106.63,111.69C107.72,112.33 109.4,113.36 110.3,113.93C110.84,114.27 111.08,114.45 111.57,114.77C112.24,115.21 113.1,115.72 113.98,116.3C115.08,117.02 116.96,118.28 117.66,118.76C117.95,118.96 117.98,118.99 118.26,119.18C118.89,119.61 120.28,120.54 121.33,121.27C122.46,122.05 123.61,122.9 124.805,123.74C126.06,124.63 127.6,125.69 128.69,126.48C129.49,127.06 130.09,127.54 130.74,128.01C131.31,128.43 131.71,128.7 132.36,129.17C133.34,129.89 135.31,131.36 136.04,131.91C136.35,132.15 136.41,132.19 136.71,132.42C137.35,132.9 138.74,133.89 139.72,134.64C140.68,135.37 141.87,136.33 142.54,136.84C142.9,137.12 143.01,137.19 143.39,137.48C144.19,138.09 146.19,139.63 147.07,140.32C147.57,140.71 147.78,140.88 148.24,141.25C148.92,141.78 149.88,142.51 150.75,143.2C151.72,143.97 153.14,145.16 153.78,145.67C154.07,145.9 154.12,145.94 154.42,146.18C155.14,146.76 157.23,148.45 158.1,149.16C158.58,149.55 158.76,149.71 159.2,150.08C159.88,150.64 160.92,151.47 161.78,152.19C162.67,152.93 163.77,153.91 164.45,154.49C164.86,154.84 165.01,154.96 165.45,155.34C166.32,156.09 168.07,157.63 169.32999999999998,158.735C170.52,159.78 171.87,160.93 172.81,161.78C173.47,162.37 173.9,162.79 174.48,163.32C175.12,163.9 175.76,164.48 176.48,165.14C177.33,165.93 178.56,167.1 179.23,167.74C179.62,168.11 179.75,168.23 180.16,168.62C180.98,169.41 182.59,170.98 183.805,172.185C185.04,173.4 186.78,175.12 187.52,175.87C187.84,176.19 187.89,176.25 188.19,176.57C188.83,177.24 190.41,178.84 191.19,179.66C191.69,180.19 191.94,180.46 192.42,180.98C193.1,181.71 194.14,182.82 194.87,183.61C195.46,184.26 195.9,184.76 196.47,185.39C197.12,186.11 197.88,186.96 198.55,187.72C199.17,188.43 199.75,189.1 200.35,189.81C200.97,190.53 201.6,191.27 202.22,192.01C202.84,192.74 203.46,193.48 204.07,194.22C204.68,194.96 205.3,195.73 205.9,196.47C206.49,197.2 207.05,197.89 207.64,198.64C208.27,199.44 208.98,200.34 209.58,201.12C210.11,201.8 210.52,202.34 211.06,203.05C211.72,203.93 212.64,205.18 213.25,205.99C213.68,206.56 213.91,206.86 214.35,207.46C215.03,208.39 216.38,210.3 216.93,211.07C217.19,211.44 217.24,211.5 217.51,211.88C218.13,212.77 219.57,214.85 220.58,216.33499999999998C221.58,217.8 222.9,219.73 223.55,220.71C223.88,221.2 223.97,221.36 224.28,221.83C224.81,222.64 225.8,224.11 226.45,225.12C227,225.98 227.48,226.75 227.96,227.52C228.4,228.22 228.74,228.74 229.24,229.54C229.95,230.68 230.92,232.28 231.785,233.70999999999998C232.7,235.22 233.99,237.31 234.61,238.36C234.93,238.89 235.02,239.07 235.31,239.57C235.79,240.39 236.61,241.72 237.23,242.78C237.84,243.82 238.52,245.07 238.99,245.88C239.3,246.41 239.43,246.62 239.76,247.19C240.36,248.23 241.75,250.74 242.24,251.61C242.44,251.97 242.47,252.03 242.67,252.38C243.1,253.14 244.09,254.86 244.73,256.02C245.31,257.07 245.9,258.22 246.34,259.03C246.64,259.59 246.79,259.83 247.12,260.43C247.7,261.49 248.98,263.89 249.49,264.85C249.73,265.31 249.79,265.43 250.02,265.87C250.44,266.67 251.24,268.11 251.85,269.26C252.47,270.44 253.3,272.1 253.7,272.87C253.89,273.24 253.93,273.3 254.13,273.68C254.59,274.56 255.82,276.92 256.41,278.09C256.8,278.87 257.02,279.35 257.37,280.03C257.76,280.81 258.17,281.55 258.65,282.51C259.31,283.82 260.19,285.66 260.935,287.165C261.64,288.59 262.34,289.98 262.99,291.33C263.6,292.6 264.37,294.28 264.73,295.03C264.89,295.36 264.92,295.41 265.08,295.75C265.48,296.6 266.53,298.84 267.13,300.16C267.61,301.22 268.04,302.24 268.4,303.05C268.67,303.64 268.82,303.94 269.1,304.58C269.58,305.67 270.43,307.68 270.97,308.99C271.4,310.03 271.76,311 272.08,311.81C272.32,312.42 272.48,312.73 272.73,313.4C273.15,314.5 273.78,316.34 274.26,317.82C274.73,319.29 275.37,321.22 275.59,322.23C275.7,322.74 275.69,322.91 275.76,323.4C275.88,324.21 276.25,325.62 276.24,326.65C276.23,327.6 276.11,328.6 275.76,329.36C275.44,330.04 274.94,330.68 274.34,331.06C273.72,331.45 272.87,331.62 272.08,331.64Z" style="stroke-miterlimit: 1; vector-effect: non-scaling-stroke; fill: none; stroke: rgb(161, 112, 59); stroke-opacity: 1; stroke-width: 2px;"/></g><g class="contourlevel"><path class="closedline" d="M257.37,319.16C256.35,318.75 255.21,318.13 254.54,317.82C254.18,317.65 254.07,317.62 253.7,317.43C252.9,317.02 251.22,316.07 250.02,315.37C248.84,314.69 247.73,314.02 246.55,313.28C245.29,312.49 243.84,311.56 242.67,310.79C241.7,310.15 240.69,309.44 240.01,308.99C239.59,308.71 239.43,308.62 238.99,308.32C238.14,307.75 236.29,306.46 235.31,305.77C234.65,305.3 234.25,304.99 233.67,304.58C233.03,304.12 232.42,303.7 231.64,303.14C230.56,302.36 229.03,301.23 227.78,300.3C226.58,299.42 225.35,298.52 224.28,297.71C223.36,297.02 222.43,296.27 221.75,295.75C221.3,295.4 221.1,295.26 220.61,294.89C219.73,294.22 217.72,292.65 216.93,292.02C216.55,291.71 216.45,291.62 216.08,291.33C215.41,290.8 214.17,289.86 213.25,289.12C212.34,288.39 211.26,287.47 210.58,286.92C210.17,286.58 210.02,286.47 209.58,286.11C208.74,285.42 206.63,283.67 205.9,283.06C205.59,282.8 205.54,282.76 205.24,282.51C204.6,281.97 203.14,280.77 202.22,279.98C201.44,279.31 200.72,278.66 200.06,278.09C199.51,277.62 199.16,277.32 198.55,276.79C197.61,275.96 196.18,274.67 194.97500000000002,273.58500000000004C193.73,272.47 192.03,270.95 191.19,270.17C190.76,269.77 190.63,269.64 190.23,269.26C189.56,268.63 188.35,267.52 187.52,266.74C186.81,266.07 186.19,265.46 185.56,264.85C184.97,264.28 184.48,263.82 183.84,263.19C183.03,262.39 181.75,261.1 181.08,260.43C180.69,260.04 180.56,259.92 180.16,259.51C179.36,258.7 177.83,257.12 176.635,255.85999999999999C175.36,254.52 174,253.07 172.735,251.69C171.5,250.35 169.76,248.43 169.13,247.72C168.9,247.46 168.89,247.45 168.67,247.19C168.08,246.51 166.1,244.24 165.45,243.49C165.17,243.16 165.13,243.11 164.85,242.78C164.22,242.03 162.41,239.85 161.78,239.09C161.5,238.75 161.46,238.7 161.18,238.36C160.55,237.58 158.66,235.22 158.1,234.51C157.89,234.24 157.87,234.23 157.66,233.95C157.07,233.19 155.46,231.1 154.355,229.63C153.21,228.1 151.99,226.46 150.88,224.935C149.83,223.49 148.52,221.67 147.84,220.71C147.5,220.22 147.4,220.07 147.07,219.6C146.51,218.79 145.44,217.27 144.77,216.29C144.25,215.52 143.86,214.94 143.39,214.23C142.88,213.47 142.38,212.73 141.82,211.88C141.17,210.88 140.25,209.43 139.72,208.62C139.4,208.13 139.29,207.98 138.96,207.46C138.31,206.45 137.05,204.42 136.12,202.925C135.22,201.48 134.14,199.77 133.45,198.64C133,197.91 132.76,197.48 132.36,196.82C131.88,196.03 131.35,195.16 130.79,194.22C130.14,193.12 129.14,191.37 128.69,190.6C128.48,190.24 128.44,190.18 128.22,189.81C127.71,188.94 126.25,186.4 125.68,185.39C125.38,184.87 125.29,184.69 125.01,184.19C124.55,183.38 123.79,182.07 123.18,180.98C122.56,179.87 121.77,178.39 121.33,177.59C121.09,177.15 121.01,177.03 120.76,176.57C120.23,175.61 118.93,173.21 118.37,172.15C118.06,171.57 117.95,171.33 117.66,170.78C117.23,169.96 116.6,168.84 116.02,167.74C115.34,166.46 114.6,164.97 113.86500000000001,163.54C113.09,162.03 112.15,160.21 111.5,158.91C111.03,157.97 110.68,157.24 110.3,156.47C109.95,155.77 109.69,155.28 109.3,154.49C108.72,153.31 107.67,151.1 107.19,150.08C106.94,149.54 106.86,149.35 106.63,148.85C106.25,148.04 105.66,146.83 105.13,145.67C104.49,144.27 103.7,142.52 103.05000000000001,141C102.44,139.58 101.88,138.25 101.31,136.84C100.73,135.39 99.93,133.38 99.59,132.42C99.43,131.97 99.41,131.85 99.27,131.41C99.01,130.61 98.5,129.22 98.16,128.01C97.78,126.64 97.32,125.08 97.14,123.6C96.96,122.14 96.64,120.4 97.07,119.18C97.45,118.1 98.31,116.97 99.27,116.54C100.26,116.09 101.74,116.41 102.95,116.62C104.19,116.83 105.5,117.39 106.63,117.84C107.65,118.25 108.79,118.87 109.46,119.18C109.82,119.35 109.93,119.38 110.3,119.57C111.1,119.98 112.78,120.93 113.98,121.63C115.16,122.31 116.27,122.98 117.44999999999999,123.72C118.71,124.51 120.16,125.44 121.33,126.21C122.3,126.85 123.31,127.56 123.99,128.01C124.41,128.29 124.57,128.38 125.01,128.68C125.86,129.25 127.71,130.54 128.69,131.23C129.35,131.7 129.75,132.01 130.33,132.42C130.97,132.88 131.58,133.3 132.36,133.86C133.44,134.64 134.97,135.77 136.22,136.7C137.42,137.58 138.65,138.48 139.72,139.29C140.64,139.98 141.57,140.73 142.25,141.25C142.7,141.6 142.9,141.74 143.39,142.11C144.27,142.78 146.28,144.35 147.07,144.98C147.45,145.29 147.55,145.38 147.92,145.67C148.59,146.2 149.83,147.14 150.75,147.88C151.66,148.61 152.74,149.53 153.42,150.08C153.83,150.42 153.98,150.53 154.42,150.89C155.26,151.58 157.37,153.33 158.1,153.94C158.41,154.2 158.46,154.24 158.76,154.49C159.4,155.03 160.86,156.23 161.78,157.02C162.56,157.69 163.28,158.34 163.94,158.91C164.49,159.38 164.84,159.68 165.45,160.21C166.39,161.04 167.82,162.33 169.02499999999998,163.415C170.27,164.53 171.97,166.05 172.81,166.83C173.24,167.23 173.37,167.36 173.77,167.74C174.44,168.37 175.65,169.48 176.48,170.26C177.19,170.93 177.81,171.54 178.44,172.15C179.03,172.72 179.52,173.18 180.16,173.81C180.97,174.61 182.25,175.9 182.92,176.57C183.31,176.96 183.44,177.08 183.84,177.49C184.64,178.3 186.17,179.88 187.365,181.14C188.64,182.48 190,183.93 191.265,185.31C192.5,186.65 194.24,188.57 194.87,189.28C195.1,189.54 195.11,189.55 195.33,189.81C195.92,190.49 197.9,192.76 198.55,193.51C198.83,193.84 198.87,193.89 199.15,194.22C199.78,194.97 201.59,197.15 202.22,197.91C202.5,198.25 202.54,198.3 202.82,198.64C203.45,199.42 205.34,201.78 205.9,202.49C206.11,202.76 206.13,202.77 206.34,203.05C206.93,203.81 208.54,205.9 209.645,207.37C210.79,208.9 212.01,210.54 213.12,212.065C214.17,213.51 215.48,215.33 216.16,216.29C216.5,216.78 216.6,216.93 216.93,217.4C217.49,218.21 218.56,219.73 219.23,220.71C219.75,221.48 220.14,222.06 220.61,222.77C221.12,223.53 221.62,224.27 222.18,225.12C222.83,226.12 223.75,227.57 224.28,228.38C224.6,228.87 224.71,229.02 225.04,229.54C225.69,230.55 226.95,232.58 227.88,234.075C228.78,235.52 229.86,237.23 230.55,238.36C231,239.09 231.24,239.52 231.64,240.18C232.12,240.97 232.65,241.84 233.21,242.78C233.86,243.88 234.86,245.63 235.31,246.4C235.52,246.76 235.56,246.82 235.78,247.19C236.29,248.06 237.75,250.6 238.32,251.61C238.62,252.13 238.71,252.31 238.99,252.81C239.45,253.62 240.21,254.93 240.82,256.02C241.44,257.13 242.23,258.61 242.67,259.41C242.91,259.85 242.99,259.97 243.24,260.43C243.77,261.39 245.07,263.79 245.63,264.85C245.94,265.43 246.05,265.67 246.34,266.22C246.77,267.04 247.4,268.16 247.98,269.26C248.66,270.54 249.4,272.03 250.135,273.46000000000004C250.91,274.97 251.85,276.79 252.5,278.09C252.97,279.03 253.32,279.76 253.7,280.53C254.05,281.23 254.31,281.72 254.7,282.51C255.28,283.69 256.33,285.9 256.81,286.92C257.06,287.46 257.14,287.65 257.37,288.15C257.75,288.96 258.34,290.17 258.87,291.33C259.51,292.73 260.3,294.48 260.95000000000005,296C261.56,297.42 262.12,298.75 262.69,300.16C263.27,301.61 264.07,303.62 264.41,304.58C264.57,305.03 264.59,305.15 264.73,305.59C264.99,306.39 265.5,307.78 265.84,308.99C266.22,310.36 266.68,311.92 266.86,313.4C267.04,314.86 267.36,316.6 266.93,317.82C266.55,318.9 265.69,320.03 264.73,320.46C263.74,320.91 262.26,320.59 261.05,320.38C259.81,320.17 258.5,319.61 257.37,319.16Z" style="stroke-miterlimit: 1; vector-effect: non-scaling-stroke; fill: none; stroke: rgb(180, 134, 64); stroke-opacity: 1; stroke-width: 2px;"/></g><g class="contourlevel"><path class="closedline" d="M250.02,309.5C249.55,309.32 249.39,309.2 248.95,308.99C248.27,308.67 247.28,308.24 246.34,307.77C245.21,307.2 243.69,306.37 242.67,305.78C241.91,305.34 241.35,304.96 240.72,304.58C240.13,304.22 239.67,303.96 238.99,303.54C237.99,302.92 236.25,301.8 235.31,301.17C234.71,300.77 234.4,300.53 233.86,300.16C233.2,299.71 232.48,299.23 231.64,298.65C230.52,297.87 229.01,296.8 227.755,295.9C226.56,295.04 225.36,294.16 224.28,293.36C223.33,292.65 222.3,291.84 221.62,291.33C221.2,291.02 221.05,290.91 220.61,290.58C219.76,289.94 217.77,288.4 216.93,287.74C216.48,287.39 216.33,287.26 215.91,286.92C215.23,286.38 214.15,285.54 213.25,284.82C212.32,284.07 211.1,283.05 210.43,282.51C210.06,282.21 209.96,282.13 209.58,281.82C208.78,281.16 206.67,279.4 205.9,278.75C205.55,278.45 205.47,278.38 205.13,278.09C204.47,277.53 203.12,276.41 202.22,275.63C201.43,274.95 200.68,274.26 200.02,273.68C199.48,273.21 199.14,272.92 198.55,272.39C197.62,271.56 196.19,270.26 194.985,269.155C193.74,268.01 192,266.42 191.19,265.66C190.8,265.3 190.71,265.2 190.34,264.85C189.67,264.22 188.35,262.97 187.52,262.17C186.86,261.53 186.35,261.02 185.75,260.43C185.13,259.82 184.51,259.23 183.84,258.55C183.06,257.77 182.04,256.71 181.36,256.02C180.89,255.54 180.65,255.31 180.16,254.8C179.38,253.99 177.78,252.29 177.14,251.61C176.84,251.29 176.79,251.24 176.48,250.91C175.77,250.14 174.14,248.37 172.945,247.04C171.7,245.65 170.41,244.19 169.16,242.745C167.91,241.3 166.67,239.84 165.445,238.37C164.22,236.9 163.01,235.41 161.805,233.915C160.6,232.41 159.38,230.87 158.225,229.375C157.11,227.94 155.64,225.97 155,225.12C154.73,224.76 154.68,224.7 154.42,224.34C153.85,223.57 152.43,221.65 151.76,220.71C151.34,220.12 151.15,219.84 150.75,219.27C150.18,218.45 149.29,217.22 148.64,216.29C148.07,215.48 147.58,214.74 147.07,213.99C146.58,213.27 146.16,212.67 145.63,211.88C144.96,210.89 143.92,209.29 143.39,208.49C143.1,208.05 143.01,207.93 142.71,207.46C142.08,206.48 140.75,204.4 139.805,202.91000000000003C138.89,201.47 137.8,199.76 137.11,198.64C136.67,197.92 136.43,197.52 136.04,196.87C135.56,196.07 134.99,195.17 134.42,194.22C133.77,193.14 132.83,191.52 132.36,190.73C132.12,190.32 132.06,190.23 131.81,189.81C131.27,188.89 129.8,186.35 129.26,185.39C129,184.93 128.94,184.81 128.69,184.37C128.24,183.57 127.38,182.1 126.76,180.98C126.16,179.9 125.46,178.59 125.01,177.78C124.73,177.28 124.62,177.1 124.33,176.57C123.78,175.56 122.49,173.17 121.96,172.15C121.68,171.62 121.59,171.43 121.33,170.93C120.9,170.12 120.23,168.88 119.64,167.74C118.97,166.44 118.24,165 117.53,163.565C116.78,162.06 115.89,160.25 115.24,158.91C114.75,157.9 114.36,157.04 113.98,156.24C113.67,155.59 113.47,155.21 113.14,154.49C112.61,153.36 111.68,151.28 111.16,150.08C110.81,149.26 110.6,148.72 110.3,148.01C109.98,147.25 109.66,146.58 109.3,145.67C108.8,144.43 108.11,142.6 107.64,141.25C107.25,140.12 106.9,138.93 106.63,138.12C106.46,137.6 106.35,137.4 106.2,136.84C105.93,135.82 105.43,133.9 105.37,132.42C105.31,130.95 105.43,128.92 105.81,128.01C106.02,127.52 106.19,127.27 106.63,127.03C107.38,126.61 109.08,126.43 110.3,126.5C111.53,126.58 113.13,127.18 113.98,127.5C114.45,127.68 114.61,127.8 115.05,128.01C115.73,128.33 116.72,128.76 117.66,129.23C118.79,129.8 120.31,130.63 121.33,131.22C122.09,131.66 122.65,132.04 123.28,132.42C123.87,132.78 124.33,133.04 125.01,133.46C126.01,134.08 127.75,135.2 128.69,135.83C129.29,136.23 129.6,136.47 130.14,136.84C130.8,137.29 131.52,137.77 132.36,138.35C133.48,139.13 134.99,140.2 136.245,141.1C137.44,141.96 138.64,142.84 139.72,143.64C140.67,144.35 141.7,145.16 142.38,145.67C142.8,145.98 142.95,146.09 143.39,146.42C144.24,147.06 146.23,148.6 147.07,149.26C147.52,149.61 147.67,149.74 148.09,150.08C148.77,150.62 149.85,151.46 150.75,152.18C151.68,152.93 152.9,153.95 153.57,154.49C153.94,154.79 154.04,154.87 154.42,155.18C155.22,155.84 157.33,157.6 158.1,158.25C158.45,158.55 158.53,158.62 158.87,158.91C159.53,159.47 160.88,160.59 161.78,161.37C162.57,162.05 163.32,162.74 163.98,163.32C164.52,163.79 164.86,164.08 165.45,164.61C166.38,165.44 167.81,166.74 169.015,167.845C170.26,168.99 172,170.58 172.81,171.34C173.2,171.7 173.29,171.8 173.66,172.15C174.33,172.78 175.65,174.03 176.48,174.83C177.14,175.47 177.65,175.98 178.25,176.57C178.87,177.18 179.49,177.77 180.16,178.45C180.94,179.23 181.96,180.29 182.64,180.98C183.11,181.46 183.35,181.69 183.84,182.2C184.62,183.01 186.22,184.71 186.86,185.39C187.16,185.71 187.21,185.76 187.52,186.09C188.23,186.86 189.86,188.63 191.055,189.96C192.3,191.35 193.59,192.81 194.84,194.255C196.09,195.7 197.33,197.16 198.555,198.63C199.78,200.1 200.99,201.59 202.195,203.085C203.4,204.59 204.62,206.13 205.775,207.625C206.89,209.06 208.36,211.03 209,211.88C209.27,212.24 209.32,212.3 209.58,212.66C210.15,213.43 211.57,215.35 212.24,216.29C212.66,216.88 212.85,217.16 213.25,217.73C213.82,218.55 214.71,219.78 215.36,220.71C215.93,221.52 216.42,222.26 216.93,223.01C217.42,223.73 217.84,224.33 218.37,225.12C219.04,226.11 220.08,227.71 220.61,228.51C220.9,228.95 220.99,229.07 221.29,229.54C221.92,230.52 223.25,232.6 224.195,234.08999999999997C225.11,235.53 226.2,237.24 226.89,238.36C227.33,239.08 227.57,239.48 227.96,240.13C228.44,240.93 229.01,241.83 229.58,242.78C230.23,243.86 231.17,245.48 231.64,246.27C231.88,246.68 231.94,246.77 232.19,247.19C232.73,248.11 234.2,250.65 234.74,251.61C235,252.07 235.06,252.19 235.31,252.63C235.76,253.43 236.62,254.9 237.24,256.02C237.84,257.1 238.54,258.41 238.99,259.22C239.27,259.72 239.38,259.9 239.67,260.43C240.22,261.44 241.51,263.83 242.04,264.85C242.32,265.38 242.41,265.57 242.67,266.07C243.1,266.88 243.77,268.12 244.36,269.26C245.03,270.56 245.76,272 246.47,273.435C247.22,274.94 248.11,276.75 248.76,278.09C249.25,279.1 249.64,279.96 250.02,280.76C250.33,281.41 250.53,281.79 250.86,282.51C251.39,283.64 252.32,285.72 252.84,286.92C253.19,287.74 253.4,288.28 253.7,288.99C254.02,289.75 254.34,290.42 254.7,291.33C255.2,292.57 255.89,294.4 256.36,295.75C256.75,296.88 257.1,298.07 257.37,298.88C257.54,299.4 257.65,299.6 257.8,300.16C258.07,301.18 258.57,303.1 258.63,304.58C258.69,306.05 258.57,308.08 258.19,308.99C257.98,309.48 257.81,309.73 257.37,309.97C256.62,310.39 254.92,310.57 253.7,310.5C252.47,310.42 250.87,309.82 250.02,309.5Z" style="stroke-miterlimit: 1; vector-effect: non-scaling-stroke; fill: none; stroke: rgb(195, 160, 78); stroke-opacity: 1; stroke-width: 2px;"/></g><g class="contourlevel"><path class="closedline" d="M246.34,301.01C245.14,301.02 243.94,300.56 242.75,300.14C241.49,299.69 240.23,298.98 238.99,298.35C237.75,297.72 236.14,296.87 235.31,296.38C234.87,296.12 234.72,296.01 234.31,295.75C233.63,295.33 232.6,294.7 231.64,294.09C230.51,293.37 228.61,292.13 227.96,291.68C227.72,291.51 227.71,291.5 227.47,291.33C226.87,290.91 225.32,289.84 224.28,289.09C223.27,288.37 221.97,287.4 221.32,286.92C221,286.69 220.94,286.64 220.61,286.4C219.86,285.84 217.87,284.34 216.93,283.62C216.35,283.17 216.05,282.92 215.52,282.51C214.85,281.99 214.08,281.39 213.25,280.73C212.21,279.9 210.97,278.89 209.79000000000002,277.91999999999996C208.53,276.89 206.82,275.48 205.9,274.7C205.39,274.27 205.19,274.08 204.72,273.68C204.04,273.1 203.06,272.28 202.22,271.55C201.37,270.81 200.33,269.86 199.65,269.26C199.21,268.87 199.02,268.71 198.55,268.29C197.67,267.5 196.06,266.03 194.825,264.89C193.6,263.76 192.05,262.32 191.19,261.5C190.71,261.05 190.53,260.86 190.09,260.43C189.41,259.77 188.31,258.73 187.52,257.95C186.83,257.27 186.22,256.65 185.59,256.02C184.99,255.42 184.48,254.92 183.84,254.27C183.06,253.48 181.95,252.32 181.27,251.61C180.82,251.14 180.62,250.94 180.16,250.45C179.39,249.64 177.76,247.88 177.12,247.19C176.83,246.88 176.78,246.83 176.48,246.5C175.78,245.73 174.16,243.93 172.975,242.59C171.74,241.19 170.46,239.71 169.22,238.255C167.98,236.8 166.75,235.32 165.54,233.83999999999997C164.32,232.35 163.1,230.82 161.935,229.33999999999997C160.82,227.92 159.32,225.96 158.68,225.12C158.41,224.76 158.36,224.71 158.1,224.36C157.53,223.6 156.05,221.63 155.38,220.71C154.98,220.16 154.81,219.92 154.42,219.38C153.83,218.56 152.87,217.22 152.21,216.29C151.67,215.52 151.25,214.91 150.75,214.19C150.23,213.44 149.71,212.71 149.14,211.88C148.49,210.93 147.62,209.61 147.07,208.79C146.71,208.25 146.56,208.03 146.18,207.46C145.5,206.43 144.29,204.57 143.355,203.10500000000002C142.41,201.63 141.18,199.69 140.53,198.64C140.18,198.07 140.05,197.84 139.72,197.31C139.22,196.49 138.44,195.24 137.82,194.22C137.21,193.22 136.53,192.04 136.04,191.23C135.71,190.67 135.55,190.42 135.19,189.81C134.54,188.7 133.37,186.65 132.505,185.135C131.69,183.71 130.85,182.22 130.16,180.98C129.61,179.98 129.13,179.05 128.69,178.25C128.35,177.62 128.13,177.27 127.76,176.57C127.16,175.45 125.9,173.05 125.44,172.15C125.24,171.75 125.2,171.67 125.01,171.29C124.62,170.51 123.8,168.95 123.2,167.74C122.58,166.49 121.68,164.63 121.33,163.91C121.19,163.63 121.18,163.61 121.04,163.32C120.67,162.53 119.64,160.27 119.04,158.91C118.53,157.76 118.01,156.5 117.66,155.69C117.44,155.19 117.35,155.02 117.13,154.49C116.72,153.49 116.01,151.56 115.49,150.08C114.97,148.59 114.37,147.07 113.995,145.57C113.64,144.13 113.26,142.69 113.27,141.25C113.28,139.8 113.23,137.78 114.03999999999999,136.91C114.78,136.11 116.46,136 117.66,135.99C118.86,135.98 120.06,136.44 121.25,136.86C122.51,137.31 123.77,138.02 125.01,138.65C126.25,139.28 127.86,140.13 128.69,140.62C129.13,140.88 129.28,140.99 129.69,141.25C130.37,141.67 131.4,142.3 132.36,142.91C133.49,143.63 135.39,144.87 136.04,145.32C136.28,145.49 136.29,145.5 136.53,145.67C137.13,146.09 138.68,147.16 139.72,147.91C140.73,148.63 142.03,149.6 142.68,150.08C143,150.31 143.06,150.36 143.39,150.6C144.14,151.16 146.13,152.66 147.07,153.38C147.65,153.83 147.95,154.08 148.48,154.49C149.15,155.01 149.92,155.61 150.75,156.27C151.79,157.1 153.03,158.11 154.20999999999998,159.07999999999998C155.47,160.11 157.18,161.52 158.1,162.3C158.61,162.73 158.81,162.92 159.28,163.32C159.96,163.9 160.94,164.72 161.78,165.45C162.63,166.19 163.67,167.14 164.35,167.74C164.79,168.13 164.98,168.29 165.45,168.71C166.33,169.5 167.94,170.97 169.175,172.11C170.4,173.24 171.95,174.68 172.81,175.5C173.29,175.95 173.47,176.14 173.91,176.57C174.59,177.23 175.69,178.27 176.48,179.05C177.17,179.73 177.78,180.35 178.41,180.98C179.01,181.58 179.52,182.08 180.16,182.73C180.94,183.52 182.05,184.68 182.73,185.39C183.18,185.86 183.38,186.06 183.84,186.55C184.61,187.36 186.24,189.12 186.88,189.81C187.17,190.12 187.22,190.17 187.52,190.5C188.22,191.27 189.84,193.07 191.025,194.41C192.26,195.81 193.54,197.29 194.78,198.745C196.02,200.2 197.25,201.68 198.46,203.16000000000003C199.68,204.65 200.9,206.18 202.065,207.66000000000003C203.18,209.08 204.68,211.04 205.32,211.88C205.59,212.24 205.64,212.29 205.9,212.64C206.47,213.4 207.95,215.37 208.62,216.29C209.02,216.84 209.19,217.08 209.58,217.62C210.17,218.44 211.13,219.78 211.79,220.71C212.33,221.48 212.75,222.09 213.25,222.81C213.77,223.56 214.29,224.29 214.86,225.12C215.51,226.07 216.38,227.39 216.93,228.21C217.29,228.75 217.44,228.97 217.82,229.54C218.5,230.57 219.71,232.43 220.645,233.89499999999998C221.59,235.37 222.82,237.31 223.47,238.36C223.82,238.93 223.95,239.16 224.28,239.69C224.78,240.51 225.56,241.76 226.18,242.78C226.79,243.78 227.47,244.96 227.96,245.77C228.29,246.33 228.45,246.58 228.81,247.19C229.46,248.3 230.63,250.35 231.495,251.865C232.31,253.29 233.15,254.78 233.84,256.02C234.39,257.02 234.87,257.95 235.31,258.75C235.65,259.38 235.87,259.73 236.24,260.43C236.84,261.55 238.1,263.95 238.56,264.85C238.76,265.25 238.8,265.33 238.99,265.71C239.38,266.49 240.2,268.05 240.8,269.26C241.42,270.51 242.32,272.37 242.67,273.09C242.81,273.37 242.82,273.39 242.96,273.68C243.33,274.47 244.36,276.73 244.96,278.09C245.47,279.24 245.99,280.5 246.34,281.31C246.56,281.81 246.65,281.98 246.87,282.51C247.28,283.51 247.99,285.44 248.51,286.92C249.03,288.41 249.63,289.93 250.005,291.42999999999995C250.36,292.87 250.74,294.31 250.73,295.75C250.72,297.2 250.77,299.22 249.96,300.09000000000003C249.22,300.89 247.54,301 246.34,301.01Z" style="stroke-miterlimit: 1; vector-effect: non-scaling-stroke; fill: none; stroke: rgb(207, 188, 102); stroke-opacity: 1; stroke-width: 2px;"/></g><g class="contourlevel"><path class="closedline" d="M238.99,291.71C238.49,291.7 238.09,291.47 237.56,291.33C236.89,291.15 236.14,291.04 235.31,290.74C234.22,290.35 232.86,289.64 231.64,289.02C230.38,288.39 229.1,287.71 227.87,286.98C226.64,286.25 225.44,285.42 224.28,284.65C223.19,283.93 221.71,282.92 221.11,282.51C220.87,282.35 220.85,282.34 220.61,282.17C219.95,281.7 217.94,280.24 216.93,279.48C216.22,278.95 215.73,278.55 215.12,278.09C214.5,277.62 213.98,277.24 213.25,276.68C212.22,275.88 210.75,274.72 209.52,273.725C208.3,272.74 206.88,271.57 205.9,270.74C205.22,270.17 204.77,269.77 204.18,269.26C203.55,268.72 202.94,268.22 202.22,267.59C201.3,266.79 199.74,265.4 199.12,264.85C198.85,264.61 198.82,264.59 198.55,264.34C197.86,263.71 195.57,261.64 194.87,260.99C194.59,260.73 194.55,260.69 194.28,260.43C193.65,259.84 192.04,258.33 191.19,257.52C190.59,256.94 190.21,256.56 189.66,256.02C189.01,255.38 188.24,254.64 187.52,253.92C186.77,253.17 185.89,252.29 185.22,251.61C184.7,251.08 184.38,250.75 183.84,250.19C183.06,249.38 181.64,247.89 180.98,247.19C180.62,246.82 180.52,246.72 180.16,246.33C179.43,245.55 177.47,243.41 176.9,242.78C176.69,242.55 176.69,242.55 176.48,242.32C175.87,241.64 174.1,239.64 172.9,238.255C171.67,236.83 170.41,235.35 169.185,233.885C167.96,232.41 166.72,230.91 165.54,229.43C164.38,227.99 162.72,225.85 162.16,225.12C161.97,224.87 161.97,224.87 161.78,224.62C161.26,223.93 159.47,221.58 158.82,220.71C158.5,220.28 158.41,220.16 158.1,219.73C157.52,218.93 156.28,217.23 155.6,216.29C155.13,215.64 154.86,215.25 154.42,214.63C153.85,213.83 153.11,212.78 152.49,211.88C151.89,211.01 151.28,210.1 150.75,209.31C150.3,208.64 149.98,208.18 149.5,207.46C148.82,206.44 147.56,204.51 147.07,203.76C146.86,203.43 146.83,203.39 146.61,203.05C146.07,202.21 144.33,199.47 143.81,198.64C143.61,198.31 143.59,198.27 143.39,197.95C142.93,197.2 141.77,195.32 141.11,194.22C140.59,193.35 140.17,192.63 139.72,191.87C139.3,191.16 138.97,190.63 138.49,189.81C137.8,188.63 136.82,186.92 136,185.45999999999998C135.17,183.98 134.21,182.22 133.54,180.98C133.07,180.11 132.75,179.48 132.36,178.74C131.97,178.01 131.65,177.42 131.21,176.57C130.58,175.36 129.36,172.95 128.97,172.15C128.83,171.86 128.82,171.83 128.69,171.54C128.35,170.81 127.5,169.05 126.9,167.74C126.26,166.35 125.56,164.89 124.96000000000001,163.43C124.35,161.95 123.79,160.41 123.26,158.91C122.74,157.43 122.15,155.79 121.82,154.49C121.57,153.49 121.47,152.6 121.33,151.8C121.21,151.16 121.03,150.68 121.02,150.08C121.01,149.43 121.03,148.72 121.33,148.06C121.7,147.24 122.6,146.11 123.32,145.67C123.85,145.34 124.47,145.28 125.01,145.29C125.51,145.3 125.91,145.53 126.44,145.67C127.11,145.85 127.86,145.96 128.69,146.26C129.78,146.65 131.14,147.36 132.36,147.98C133.62,148.61 134.9,149.29 136.13,150.02C137.36,150.75 138.56,151.58 139.72,152.35C140.81,153.07 142.29,154.08 142.89,154.49C143.13,154.65 143.15,154.66 143.39,154.83C144.05,155.3 146.06,156.76 147.07,157.52C147.78,158.05 148.27,158.45 148.88,158.91C149.5,159.38 150.02,159.76 150.75,160.32C151.78,161.12 153.25,162.28 154.48,163.27499999999998C155.7,164.26 157.12,165.43 158.1,166.26C158.78,166.83 159.23,167.23 159.82,167.74C160.45,168.28 161.06,168.78 161.78,169.41C162.7,170.21 164.26,171.6 164.88,172.15C165.15,172.39 165.18,172.41 165.45,172.66C166.14,173.29 168.43,175.36 169.13,176.01C169.41,176.27 169.45,176.31 169.72,176.57C170.35,177.16 171.96,178.67 172.81,179.48C173.41,180.06 173.79,180.44 174.34,180.98C174.99,181.62 175.76,182.36 176.48,183.08C177.23,183.83 178.11,184.71 178.78,185.39C179.3,185.92 179.62,186.25 180.16,186.81C180.94,187.62 182.36,189.11 183.02,189.81C183.38,190.18 183.48,190.28 183.84,190.67C184.57,191.45 186.53,193.59 187.1,194.22C187.31,194.45 187.31,194.45 187.52,194.68C188.13,195.36 189.9,197.36 191.1,198.745C192.33,200.17 193.59,201.65 194.815,203.115C196.04,204.59 197.28,206.09 198.46,207.57C199.62,209.01 201.28,211.15 201.84,211.88C202.03,212.13 202.03,212.13 202.22,212.38C202.74,213.07 204.53,215.42 205.18,216.29C205.5,216.72 205.59,216.84 205.9,217.27C206.48,218.07 207.72,219.77 208.4,220.71C208.87,221.36 209.14,221.75 209.58,222.37C210.15,223.17 210.89,224.22 211.51,225.12C212.11,225.99 212.72,226.9 213.25,227.69C213.7,228.36 214.02,228.82 214.5,229.54C215.18,230.56 216.44,232.49 216.93,233.24C217.14,233.57 217.17,233.61 217.39,233.95C217.93,234.79 219.67,237.53 220.19,238.36C220.39,238.69 220.41,238.73 220.61,239.05C221.07,239.8 222.23,241.68 222.89,242.78C223.41,243.65 223.83,244.37 224.28,245.13C224.7,245.84 225.03,246.37 225.51,247.19C226.2,248.37 227.18,250.08 228,251.54000000000002C228.83,253.02 229.79,254.78 230.46,256.02C230.93,256.89 231.25,257.52 231.64,258.26C232.03,258.99 232.35,259.58 232.79,260.43C233.42,261.64 234.64,264.05 235.03,264.85C235.17,265.14 235.18,265.17 235.31,265.46C235.65,266.19 236.5,267.95 237.1,269.26C237.74,270.65 238.44,272.11 239.04000000000002,273.57C239.65,275.05 240.21,276.59 240.74,278.09C241.26,279.57 241.85,281.21 242.18,282.51C242.43,283.51 242.53,284.4 242.67,285.2C242.79,285.84 242.97,286.32 242.98,286.92C242.99,287.57 242.97,288.28 242.67,288.94C242.3,289.76 241.4,290.89 240.68,291.33C240.15,291.66 239.53,291.72 238.99,291.71Z" style="stroke-miterlimit: 1; vector-effect: non-scaling-stroke; fill: none; stroke: rgb(219, 216, 134); stroke-opacity: 1; stroke-width: 2px;"/></g><g class="contourlevel"><path class="closedline" d="M224.28,279.62C223.3,279.12 222.26,278.47 221.59,278.09C221.18,277.86 221.04,277.79 220.61,277.53C219.77,277.01 217.96,275.8 216.93,275.09C216.17,274.56 215.59,274.13 214.96,273.68C214.37,273.26 213.92,272.95 213.25,272.46C212.25,271.73 210.25,270.22 209.58,269.69C209.32,269.49 209.3,269.46 209.05,269.26C208.44,268.77 206.86,267.5 205.9,266.71C205.09,266.04 204.34,265.4 203.68,264.85C203.14,264.4 202.81,264.14 202.22,263.63C201.27,262.82 199.77,261.52 198.55,260.43C197.32,259.33 195.74,257.88 194.87,257.07C194.39,256.62 194.21,256.44 193.76,256.02C193.08,255.38 191.99,254.35 191.19,253.58C190.48,252.89 189.82,252.24 189.18,251.61C188.6,251.04 188.14,250.58 187.52,249.96C186.72,249.16 185.48,247.88 184.8,247.19C184.4,246.78 184.25,246.64 183.84,246.21C183.08,245.42 181.2,243.4 180.61,242.78C180.39,242.55 180.38,242.54 180.16,242.3C179.53,241.62 177.75,239.67 176.54,238.3C175.29,236.89 174.02,235.43 172.785,233.975C171.55,232.52 170.32,231.05 169.11,229.565C167.89,228.08 166.67,226.55 165.505,225.055C164.37,223.6 162.75,221.47 162.18,220.71C161.98,220.44 161.97,220.43 161.78,220.17C161.26,219.47 159.58,217.2 158.92,216.29C158.56,215.8 158.44,215.62 158.1,215.14C157.52,214.33 156.46,212.84 155.79,211.88C155.27,211.13 154.9,210.58 154.42,209.88C153.9,209.11 153.35,208.32 152.78,207.46C152.14,206.5 151.29,205.19 150.75,204.38C150.4,203.84 150.24,203.62 149.87,203.05C149.2,202.01 147.98,200.12 147.07,198.64C146.16,197.17 145.09,195.36 144.41,194.22C143.99,193.51 143.76,193.12 143.39,192.48C142.93,191.69 142.39,190.78 141.84,189.81C141.18,188.66 140.13,186.76 139.72,186.03C139.55,185.73 139.53,185.7 139.36,185.39C138.92,184.58 137.66,182.17 137.05,180.98C136.64,180.17 136.39,179.64 136.04,178.93C135.66,178.17 135.31,177.48 134.87,176.57C134.28,175.33 133.26,173.16 132.83,172.15C132.61,171.64 132.55,171.46 132.36,170.97C132.04,170.16 131.51,168.91 131.09,167.74C130.61,166.39 130.06,164.8 129.68,163.32C129.31,161.86 128.47,160.29 128.82,158.91C129.21,157.38 131.02,155.07 132.36,154.65C133.47,154.3 134.83,155.23 136.04,155.68C137.29,156.14 138.6,156.8 139.72,157.38C140.7,157.88 141.74,158.53 142.41,158.91C142.82,159.14 142.96,159.21 143.39,159.47C144.23,159.99 146.04,161.2 147.07,161.91C147.83,162.44 148.41,162.87 149.04,163.32C149.63,163.74 150.08,164.05 150.75,164.54C151.75,165.27 153.75,166.78 154.42,167.31C154.68,167.51 154.7,167.54 154.95,167.74C155.56,168.23 157.14,169.5 158.1,170.29C158.91,170.96 159.66,171.6 160.32,172.15C160.86,172.6 161.19,172.86 161.78,173.37C162.73,174.18 164.23,175.48 165.45,176.57C166.68,177.67 168.26,179.12 169.13,179.93C169.61,180.38 169.79,180.56 170.24,180.98C170.92,181.62 172.01,182.65 172.81,183.42C173.52,184.11 174.18,184.76 174.82,185.39C175.4,185.96 175.86,186.42 176.48,187.04C177.28,187.84 178.52,189.12 179.2,189.81C179.6,190.22 179.75,190.36 180.16,190.79C180.92,191.58 182.8,193.6 183.39,194.22C183.61,194.45 183.62,194.46 183.84,194.7C184.47,195.38 186.25,197.33 187.46,198.7C188.71,200.11 189.98,201.57 191.215,203.025C192.45,204.48 193.68,205.95 194.89,207.435C196.11,208.92 197.33,210.45 198.495,211.945C199.63,213.4 201.25,215.53 201.82,216.29C202.02,216.56 202.03,216.57 202.22,216.83C202.74,217.53 204.42,219.8 205.08,220.71C205.44,221.2 205.56,221.38 205.9,221.86C206.48,222.67 207.54,224.16 208.21,225.12C208.73,225.87 209.1,226.42 209.58,227.12C210.1,227.89 210.65,228.68 211.22,229.54C211.86,230.5 212.71,231.81 213.25,232.62C213.6,233.16 213.76,233.38 214.13,233.95C214.8,234.99 216.02,236.88 216.93,238.36C217.84,239.83 218.91,241.64 219.59,242.78C220.01,243.49 220.24,243.88 220.61,244.52C221.07,245.31 221.61,246.22 222.16,247.19C222.82,248.34 223.87,250.24 224.28,250.97C224.45,251.27 224.47,251.3 224.64,251.61C225.08,252.42 226.34,254.83 226.95,256.02C227.36,256.83 227.61,257.36 227.96,258.07C228.34,258.83 228.69,259.52 229.13,260.43C229.72,261.67 230.74,263.84 231.17,264.85C231.39,265.36 231.45,265.54 231.64,266.03C231.96,266.84 232.49,268.09 232.91,269.26C233.39,270.61 233.94,272.2 234.32,273.68C234.69,275.14 235.53,276.71 235.18,278.09C234.79,279.62 232.98,281.93 231.64,282.35C230.53,282.7 229.17,281.77 227.96,281.32C226.71,280.86 225.4,280.2 224.28,279.62Z" style="stroke-miterlimit: 1; vector-effect: non-scaling-stroke; fill: none; stroke: rgb(232, 245, 171); stroke-opacity: 1; stroke-width: 2px;"/></g></g></g></g></g><g class="overplot"/><path class="xlines-above crisp" d="" style="fill: none; stroke-width: 1px; stroke: rgb(0, 0, 0); stroke-opacity: 0;"/><path class="ylines-above crisp" d="" style="fill: none; stroke-width: 1px; stroke: rgb(0, 0, 0); stroke-opacity: 0;"/><g class="overlines-above"/><g class="xaxislayer-above"><path class="xtick ticks crisp" d="M0,478v5" transform="translate(84.61,0)" style="stroke: rgb(51, 51, 51); stroke-opacity: 1; stroke-width: 1px;"/><path class="xtick ticks crisp" d="M0,478v5" transform="translate(208,0)" style="stroke: rgb(51, 51, 51); stroke-opacity: 1; stroke-width: 1px;"/><path class="xtick ticks crisp" d="M0,478v5" transform="translate(331.39,0)" style="stroke: rgb(51, 51, 51); stroke-opacity: 1; stroke-width: 1px;"/><g class="xtick"><text text-anchor="middle" x="0" y="497.4" transform="translate(84.61,0)" style="font-family: 'Open Sans', verdana, arial, sans-serif; font-size: 12px; fill: rgb(51, 51, 51); fill-opacity: 1; white-space: pre; opacity: 1;">2</text></g><g class="xtick"><text text-anchor="middle" x="0" y="497.4" style="font-family: 'Open Sans', verdana, arial, sans-serif; font-size: 12px; fill: rgb(51, 51, 51); fill-opacity: 1; white-space: pre; opacity: 1;" transform="translate(208,0)">0</text></g><g class="xtick"><text text-anchor="middle" x="0" y="497.4" style="font-family: 'Open Sans', verdana, arial, sans-serif; font-size: 12px; fill: rgb(51, 51, 51); fill-opacity: 1; white-space: pre; opacity: 1;" transform="translate(331.39,0)">2</text></g></g><g class="yaxislayer-above"><path class="ytick ticks crisp" d="M25,0h-5" transform="translate(0,406.64)" style="stroke: rgb(51, 51, 51); stroke-opacity: 1; stroke-width: 1px;"/><path class="ytick ticks crisp" d="M25,0h-5" transform="translate(0,332.57)" style="stroke: rgb(51, 51, 51); stroke-opacity: 1; stroke-width: 1px;"/><path class="ytick ticks crisp" d="M25,0h-5" transform="translate(0,258.5)" style="stroke: rgb(51, 51, 51); stroke-opacity: 1; stroke-width: 1px;"/><path class="ytick ticks crisp" d="M25,0h-5" transform="translate(0,184.43)" style="stroke: rgb(51, 51, 51); stroke-opacity: 1; stroke-width: 1px;"/><path class="ytick ticks crisp" d="M25,0h-5" transform="translate(0,110.36)" style="stroke: rgb(51, 51, 51); stroke-opacity: 1; stroke-width: 1px;"/><g class="ytick"><text text-anchor="end" x="17.6" y="4.199999999999999" transform="translate(0,406.64)" style="font-family: 'Open Sans', verdana, arial, sans-serif; font-size: 12px; fill: rgb(51, 51, 51); fill-opacity: 1; white-space: pre; opacity: 1;">2</text></g><g class="ytick"><text text-anchor="end" x="17.6" y="4.199999999999999" style="font-family: 'Open Sans', verdana, arial, sans-serif; font-size: 12px; fill: rgb(51, 51, 51); fill-opacity: 1; white-space: pre; opacity: 1;" transform="translate(0,332.57)">1</text></g><g class="ytick"><text text-anchor="end" x="17.6" y="4.199999999999999" style="font-family: 'Open Sans', verdana, arial, sans-serif; font-size: 12px; fill: rgb(51, 51, 51); fill-opacity: 1; white-space: pre; opacity: 1;" transform="translate(0,258.5)">0</text></g><g class="ytick"><text text-anchor="end" x="17.6" y="4.199999999999999" style="font-family: 'Open Sans', verdana, arial, sans-serif; font-size: 12px; fill: rgb(51, 51, 51); fill-opacity: 1; white-space: pre; opacity: 1;" transform="translate(0,184.43)">1</text></g><g class="ytick"><text text-anchor="end" x="17.6" y="4.199999999999999" style="font-family: 'Open Sans', verdana, arial, sans-serif; font-size: 12px; fill: rgb(51, 51, 51); fill-opacity: 1; white-space: pre; opacity: 1;" transform="translate(0,110.36)">2</text></g></g><g class="overaxes-above"/></g></g><g class="polarlayer"/><g class="ternarylayer"/><g class="geolayer"/><g class="funnelarealayer"/><g class="pielayer"/><g class="iciclelayer"/><g class="treemaplayer"/><g class="sunburstlayer"/><g class="glimages"/><defs id="topdefs-6d0d7a"><g class="clips"/></defs><g class="layer-above"><g class="imagelayer"/><g class="shapelayer"/></g><g class="infolayer"><g class="cbc6f6c5 colorbar" transform="translate(26,40)"><rect class="cbbg" x="371" y="0" width="102.28125" height="437" style="fill: rgb(0, 0, 0); fill-opacity: 0; stroke: rgb(68, 68, 68); stroke-opacity: 1; stroke-width: 0;"/><g class="cbfills" transform="translate(0,10)"/><g class="cblines" transform="translate(0,10)"><path class="cbline" d="M381,417h30" style="fill: none; stroke: rgb(34, 30, 27); stroke-opacity: 1; stroke-width: 2px;"/><path class="cbline" d="M381,375h30" style="fill: none; stroke: rgb(59, 46, 38); stroke-opacity: 1; stroke-width: 2px;"/><path class="cbline" d="M381,334h30" style="fill: none; stroke: rgb(85, 62, 47); stroke-opacity: 1; stroke-width: 2px;"/><path class="cbline" d="M381,292h30" style="fill: none; stroke: rgb(112, 77, 54); stroke-opacity: 1; stroke-width: 2px;"/><path class="cbline" d="M381,250h30" style="fill: none; stroke: rgb(138, 93, 57); stroke-opacity: 1; stroke-width: 2px;"/><path class="cbline" d="M381,209h30" style="fill: none; stroke: rgb(161, 112, 59); stroke-opacity: 1; stroke-width: 2px;"/><path class="cbline" d="M381,167h30" style="fill: none; stroke: rgb(180, 134, 64); stroke-opacity: 1; stroke-width: 2px;"/><path class="cbline" d="M381,125h30" style="fill: none; stroke: rgb(195, 160, 78); stroke-opacity: 1; stroke-width: 2px;"/><path class="cbline" d="M381,83h30" style="fill: none; stroke: rgb(207, 188, 102); stroke-opacity: 1; stroke-width: 2px;"/><path class="cbline" d="M381,42h30" style="fill: none; stroke: rgb(219, 216, 134); stroke-opacity: 1; stroke-width: 2px;"/><path class="cbline" d="M381,0h30" style="fill: none; stroke: rgb(232, 245, 171); stroke-opacity: 1; stroke-width: 2px;"/></g><g class="cbaxis crisp" transform="translate(0,-40)"><path class="ycbc6f6c5tick ticks crisp" d="M410.5,0h-6" transform="translate(0,383.6)" style="stroke: rgb(237, 237, 237); stroke-opacity: 1; stroke-width: 1px;"/><path class="ycbc6f6c5tick ticks crisp" d="M410.5,0h-6" transform="translate(0,300.2)" style="stroke: rgb(237, 237, 237); stroke-opacity: 1; stroke-width: 1px;"/><path class="ycbc6f6c5tick ticks crisp" d="M410.5,0h-6" transform="translate(0,216.8)" style="stroke: rgb(237, 237, 237); stroke-opacity: 1; stroke-width: 1px;"/><path class="ycbc6f6c5tick ticks crisp" d="M410.5,0h-6" transform="translate(0,133.40000000000003)" style="stroke: rgb(237, 237, 237); stroke-opacity: 1; stroke-width: 1px;"/><g class="ycbc6f6c5tick"><text text-anchor="start" x="413.9" y="4.199999999999999" transform="translate(0,467)" style="font-family: 'Open Sans', verdana, arial, sans-serif; font-size: 12px; fill: rgb(51, 51, 51); fill-opacity: 1; white-space: pre; opacity: 1;">0.0001</text></g><g class="ycbc6f6c5tick"><text text-anchor="start" x="413.9" y="4.199999999999999" style="font-family: 'Open Sans', verdana, arial, sans-serif; font-size: 12px; fill: rgb(51, 51, 51); fill-opacity: 1; white-space: pre; opacity: 1;" transform="translate(0,383.6)">0.0478</text></g><g class="ycbc6f6c5tick"><text text-anchor="start" x="413.9" y="4.199999999999999" style="font-family: 'Open Sans', verdana, arial, sans-serif; font-size: 12px; fill: rgb(51, 51, 51); fill-opacity: 1; white-space: pre; opacity: 1;" transform="translate(0,300.2)">0.0956</text></g><g class="ycbc6f6c5tick"><text text-anchor="start" x="413.9" y="4.199999999999999" style="font-family: 'Open Sans', verdana, arial, sans-serif; font-size: 12px; fill: rgb(51, 51, 51); fill-opacity: 1; white-space: pre; opacity: 1;" transform="translate(0,216.8)">0.1433</text></g><g class="ycbc6f6c5tick"><text text-anchor="start" x="413.9" y="4.199999999999999" style="font-family: 'Open Sans', verdana, arial, sans-serif; font-size: 12px; fill: rgb(51, 51, 51); fill-opacity: 1; white-space: pre; opacity: 1;" transform="translate(0,133.40000000000003)">0.1911</text></g><g class="ycbc6f6c5tick"><text text-anchor="start" x="413.9" y="4.199999999999999" style="font-family: 'Open Sans', verdana, arial, sans-serif; font-size: 12px; fill: rgb(51, 51, 51); fill-opacity: 1; white-space: pre; opacity: 1;" transform="translate(0,50.000000000000014)">0.2388</text></g></g><g class="cbtitleunshift" transform="translate(-26,-40)"><g class="cbtitle"/></g><rect class="cboutline" x="381" y="10" width="30" height="417" style="stroke: rgb(68, 68, 68); stroke-opacity: 1; fill: none; stroke-width: 0;"/></g><g class="g-gtitle"><text class="gtitle" x="250" y="20" text-anchor="middle" dy="0em" style="font-family: 'Open Sans', verdana, arial, sans-serif; font-size: 17px; fill: rgb(51, 51, 51); opacity: 1; font-weight: normal; white-space: pre;">Student copula</text></g><g class="g-xtitle"/><g class="g-ytitle"/></g></svg>