<?xml version="1.0" encoding="utf-8" standalone="no"?>
<!DOCTYPE svg PUBLIC "-//W3C//DTD SVG 1.1//EN"
  "http://www.w3.org/Graphics/SVG/1.1/DTD/svg11.dtd">
<svg xmlns:xlink="http://www.w3.org/1999/xlink" width="832.32pt" height="256.32pt" viewBox="0 0 832.32 256.32" xmlns="http://www.w3.org/2000/svg" version="1.1">
 <metadata>
  <rdf:RDF xmlns:dc="http://purl.org/dc/elements/1.1/" xmlns:cc="http://creativecommons.org/ns#" xmlns:rdf="http://www.w3.org/1999/02/22-rdf-syntax-ns#">
   <cc:Work>
    <dc:type rdf:resource="http://purl.org/dc/dcmitype/StillImage"/>
    <dc:date>2022-05-10T03:40:05.460484</dc:date>
    <dc:format>image/svg+xml</dc:format>
    <dc:creator>
     <cc:Agent>
      <dc:title>Matplotlib v3.5.1, https://matplotlib.org/</dc:title>
     </cc:Agent>
    </dc:creator>
   </cc:Work>
  </rdf:RDF>
 </metadata>
 <defs>
  <style type="text/css">*{stroke-linejoin: round; stroke-linecap: butt}</style>
 </defs>
 <g id="figure_1">
  <g id="patch_1">
   <path d="M -0 256.32 
L 832.32 256.32 
L 832.32 0 
L -0 0 
z
" style="fill: #ffffff"/>
  </g>
  <g id="axes_1">
   <g id="patch_2">
    <path d="M 66.840221 205.666804 
L 261.844398 205.666804 
L 261.844398 3.6 
L 66.840221 3.6 
z
" style="fill: #e5e5e5"/>
   </g>
   <g id="matplotlib.axis_1">
    <g id="xtick_1">
     <g id="line2d_1">
      <path d="M 66.840221 205.666804 
L 66.840221 3.6 
" clip-path="url(#pc554c8eb0f)" style="fill: none; stroke: #ffffff; stroke-width: 1.5; stroke-linecap: square"/>
     </g>
     <g id="line2d_2">
      <defs>
       <path id="m0d57107656" d="M 0 0 
L 0 9 
" style="stroke: #555555; stroke-width: 1.875"/>
      </defs>
      <g>
       <use xlink:href="#m0d57107656" x="66.840221" y="205.666804" style="fill: #555555; stroke: #555555; stroke-width: 1.875"/>
      </g>
     </g>
     <g id="text_1">
      <!-- $\mathdefault{0.0}$ -->
      <g style="fill: #555555" transform="translate(56.556854 229.582309)scale(0.165 -0.165)">
       <defs>
        <path id="CMR17-30" d="M 2688 2025 
C 2688 2416 2682 3080 2413 3591 
C 2176 4039 1798 4198 1466 4198 
C 1158 4198 768 4058 525 3597 
C 269 3118 243 2524 243 2025 
C 243 1661 250 1106 448 619 
C 723 -39 1216 -128 1466 -128 
C 1760 -128 2208 -7 2470 600 
C 2662 1042 2688 1559 2688 2025 
z
M 1466 -26 
C 1056 -26 813 325 723 812 
C 653 1188 653 1738 653 2096 
C 653 2588 653 2997 736 3387 
C 858 3929 1216 4096 1466 4096 
C 1728 4096 2067 3923 2189 3400 
C 2272 3036 2278 2607 2278 2096 
C 2278 1680 2278 1169 2202 792 
C 2067 95 1690 -26 1466 -26 
z
" transform="scale(0.015625)"/>
        <path id="CMMI12-3a" d="M 1178 307 
C 1178 492 1024 619 870 619 
C 685 619 557 466 557 313 
C 557 128 710 0 864 0 
C 1050 0 1178 153 1178 307 
z
" transform="scale(0.015625)"/>
       </defs>
       <use xlink:href="#CMR17-30" transform="scale(0.996264)"/>
       <use xlink:href="#CMMI12-3a" transform="translate(45.690477 0)scale(0.996264)"/>
       <use xlink:href="#CMR17-30" transform="translate(72.787654 0)scale(0.996264)"/>
      </g>
     </g>
    </g>
    <g id="xtick_2">
     <g id="line2d_3">
      <path d="M 154.136828 205.666804 
L 154.136828 3.6 
" clip-path="url(#pc554c8eb0f)" style="fill: none; stroke: #ffffff; stroke-width: 1.5; stroke-linecap: square"/>
     </g>
     <g id="line2d_4">
      <g>
       <use xlink:href="#m0d57107656" x="154.136828" y="205.666804" style="fill: #555555; stroke: #555555; stroke-width: 1.875"/>
      </g>
     </g>
     <g id="text_2">
      <!-- $\mathdefault{0.2}$ -->
      <g style="fill: #555555" transform="translate(143.85346 229.582309)scale(0.165 -0.165)">
       <defs>
        <path id="CMR17-32" d="M 2669 989 
L 2554 989 
C 2490 536 2438 459 2413 420 
C 2381 369 1920 369 1830 369 
L 602 369 
C 832 619 1280 1072 1824 1597 
C 2214 1967 2669 2402 2669 3035 
C 2669 3790 2067 4224 1395 4224 
C 691 4224 262 3604 262 3030 
C 262 2780 448 2748 525 2748 
C 589 2748 781 2787 781 3010 
C 781 3207 614 3264 525 3264 
C 486 3264 448 3258 422 3245 
C 544 3790 915 4058 1306 4058 
C 1862 4058 2227 3617 2227 3035 
C 2227 2479 1901 2000 1536 1584 
L 262 146 
L 262 0 
L 2515 0 
L 2669 989 
z
" transform="scale(0.015625)"/>
       </defs>
       <use xlink:href="#CMR17-30" transform="scale(0.996264)"/>
       <use xlink:href="#CMMI12-3a" transform="translate(45.690477 0)scale(0.996264)"/>
       <use xlink:href="#CMR17-32" transform="translate(72.787654 0)scale(0.996264)"/>
      </g>
     </g>
    </g>
    <g id="xtick_3">
     <g id="line2d_5">
      <path d="M 241.433434 205.666804 
L 241.433434 3.6 
" clip-path="url(#pc554c8eb0f)" style="fill: none; stroke: #ffffff; stroke-width: 1.5; stroke-linecap: square"/>
     </g>
     <g id="line2d_6">
      <g>
       <use xlink:href="#m0d57107656" x="241.433434" y="205.666804" style="fill: #555555; stroke: #555555; stroke-width: 1.875"/>
      </g>
     </g>
     <g id="text_3">
      <!-- $\mathdefault{0.4}$ -->
      <g style="fill: #555555" transform="translate(231.150067 229.582309)scale(0.165 -0.165)">
       <defs>
        <path id="CMR17-34" d="M 2150 4122 
C 2150 4256 2144 4256 2029 4256 
L 128 1254 
L 128 1088 
L 1779 1088 
L 1779 457 
C 1779 224 1766 160 1318 160 
L 1197 160 
L 1197 0 
C 1402 0 1747 0 1965 0 
C 2182 0 2528 0 2733 0 
L 2733 160 
L 2611 160 
C 2163 160 2150 224 2150 457 
L 2150 1088 
L 2803 1088 
L 2803 1254 
L 2150 1254 
L 2150 4122 
z
M 1798 3703 
L 1798 1254 
L 256 1254 
L 1798 3703 
z
" transform="scale(0.015625)"/>
       </defs>
       <use xlink:href="#CMR17-30" transform="scale(0.996264)"/>
       <use xlink:href="#CMMI12-3a" transform="translate(45.690477 0)scale(0.996264)"/>
       <use xlink:href="#CMR17-34" transform="translate(72.787654 0)scale(0.996264)"/>
      </g>
     </g>
    </g>
    <g id="xtick_4">
     <g id="line2d_7">
      <defs>
       <path id="me0bd542a54" d="M 0 0 
L 0 6 
" style="stroke: #555555; stroke-width: 1.5"/>
      </defs>
      <g>
       <use xlink:href="#me0bd542a54" x="88.664373" y="205.666804" style="fill: #555555; stroke: #555555; stroke-width: 1.5"/>
      </g>
     </g>
    </g>
    <g id="xtick_5">
     <g id="line2d_8">
      <g>
       <use xlink:href="#me0bd542a54" x="110.488524" y="205.666804" style="fill: #555555; stroke: #555555; stroke-width: 1.5"/>
      </g>
     </g>
    </g>
    <g id="xtick_6">
     <g id="line2d_9">
      <g>
       <use xlink:href="#me0bd542a54" x="132.312676" y="205.666804" style="fill: #555555; stroke: #555555; stroke-width: 1.5"/>
      </g>
     </g>
    </g>
    <g id="xtick_7">
     <g id="line2d_10">
      <g>
       <use xlink:href="#me0bd542a54" x="175.960979" y="205.666804" style="fill: #555555; stroke: #555555; stroke-width: 1.5"/>
      </g>
     </g>
    </g>
    <g id="xtick_8">
     <g id="line2d_11">
      <g>
       <use xlink:href="#me0bd542a54" x="197.785131" y="205.666804" style="fill: #555555; stroke: #555555; stroke-width: 1.5"/>
      </g>
     </g>
    </g>
    <g id="xtick_9">
     <g id="line2d_12">
      <g>
       <use xlink:href="#me0bd542a54" x="219.609283" y="205.666804" style="fill: #555555; stroke: #555555; stroke-width: 1.5"/>
      </g>
     </g>
    </g>
    <g id="text_4">
     <!-- Soybean -->
     <g style="fill: #555555" transform="translate(134.386232 249.231936)scale(0.18 -0.18)">
      <defs>
       <path id="CMR17-53" d="M 2803 4290 
C 2803 4404 2797 4411 2758 4411 
C 2720 4411 2707 4385 2682 4328 
L 2490 3907 
C 2246 4257 1875 4416 1472 4416 
C 819 4416 294 3901 294 3253 
C 294 3056 339 2776 557 2510 
C 794 2218 1018 2167 1530 2033 
C 1722 1982 2042 1899 2106 1874 
C 2470 1722 2662 1341 2662 985 
C 2662 527 2336 38 1779 38 
C 1094 38 454 419 410 1311 
C 403 1413 397 1419 352 1419 
C 301 1419 294 1413 294 1285 
L 294 -1 
C 294 -115 301 -122 339 -122 
C 384 -122 397 -90 486 108 
C 493 127 493 140 614 381 
C 934 -39 1472 -128 1779 -128 
C 2477 -128 2970 451 2970 1124 
C 2970 1454 2848 1708 2778 1823 
C 2509 2230 2221 2306 1914 2382 
C 1869 2402 1856 2402 1498 2490 
C 1152 2579 1005 2624 845 2796 
C 666 2992 602 3196 602 3399 
C 602 3812 934 4263 1478 4263 
C 2157 4263 2579 3786 2675 2993 
C 2694 2878 2701 2872 2746 2872 
C 2803 2872 2803 2891 2803 2999 
L 2803 4290 
z
" transform="scale(0.015625)"/>
       <path id="CMR17-6f" d="M 2758 1356 
C 2758 2176 2163 2816 1466 2816 
C 768 2816 173 2176 173 1356 
C 173 551 768 -64 1466 -64 
C 2163 -64 2758 551 2758 1356 
z
M 1466 51 
C 1165 51 909 230 762 480 
C 602 767 582 1126 582 1408 
C 582 1677 595 2010 762 2298 
C 890 2509 1139 2714 1466 2714 
C 1754 2714 1997 2554 2150 2330 
C 2349 2029 2349 1607 2349 1408 
C 2349 1158 2336 775 2163 467 
C 1984 173 1709 51 1466 51 
z
" transform="scale(0.015625)"/>
       <path id="CMR17-79" d="M 2496 2197 
C 2656 2586 2944 2586 3034 2586 
L 3034 2752 
C 2912 2752 2752 2752 2630 2752 
C 2496 2752 2285 2752 2157 2758 
L 2157 2592 
C 2400 2573 2406 2394 2406 2343 
C 2406 2280 2394 2248 2362 2171 
L 1664 449 
L 902 2306 
C 870 2382 870 2426 870 2433 
C 870 2573 1018 2586 1171 2586 
L 1171 2758 
C 1018 2752 742 2752 582 2752 
C 410 2752 205 2752 64 2758 
L 64 2586 
C 410 2586 448 2554 531 2350 
L 1485 15 
C 1197 -738 1030 -1178 627 -1178 
C 557 -1178 397 -1159 282 -1044 
C 429 -1031 493 -942 493 -833 
C 493 -725 416 -629 288 -629 
C 147 -629 77 -725 77 -840 
C 77 -1095 339 -1280 627 -1280 
C 998 -1280 1229 -922 1357 -604 
L 2496 2197 
z
" transform="scale(0.015625)"/>
       <path id="CMR17-62" d="M 960 4396 
L 198 4326 
L 198 4160 
C 576 4160 634 4122 634 3817 
L 634 -13 
L 749 -13 
L 934 441 
C 1120 141 1395 -64 1766 -64 
C 2406 -64 3053 500 3053 1370 
C 3053 2188 2477 2790 1830 2790 
C 1434 2790 1152 2579 960 2330 
L 960 4396 
z
M 973 2004 
C 973 2118 973 2138 1062 2272 
C 1312 2657 1670 2688 1792 2688 
C 1984 2688 2643 2585 2643 1376 
C 2643 108 1888 38 1734 38 
C 1536 38 1248 114 1043 486 
C 973 608 973 621 973 735 
L 973 2004 
z
" transform="scale(0.015625)"/>
       <path id="CMR17-65" d="M 2438 1472 
C 2464 1498 2464 1511 2464 1576 
C 2464 2238 2118 2816 1389 2816 
C 710 2816 173 2169 173 1383 
C 173 551 781 -64 1459 -64 
C 2176 -64 2458 607 2458 740 
C 2458 784 2419 784 2406 784 
C 2362 784 2355 771 2330 696 
C 2189 265 1837 51 1504 51 
C 1229 51 954 203 781 480 
C 582 803 582 1176 582 1472 
L 2438 1472 
z
M 589 1568 
C 634 2505 1126 2714 1382 2714 
C 1818 2714 2112 2297 2118 1568 
L 589 1568 
z
" transform="scale(0.015625)"/>
       <path id="CMR17-61" d="M 2304 1653 
C 2304 2072 2304 2294 2035 2543 
C 1798 2752 1523 2816 1306 2816 
C 800 2816 435 2407 435 1971 
C 435 1728 627 1728 666 1728 
C 749 1728 896 1778 896 1954 
C 896 2112 774 2181 666 2181 
C 640 2181 608 2174 589 2168 
C 723 2592 1069 2714 1293 2714 
C 1613 2714 1965 2429 1965 1885 
L 1965 1600 
C 1587 1600 1133 1549 774 1357 
C 371 1133 256 813 256 570 
C 256 77 832 -64 1171 -64 
C 1523 -64 1850 139 1990 511 
C 2003 233 2182 -18 2464 -18 
C 2598 -18 2938 70 2938 567 
L 2938 920 
L 2822 920 
L 2822 562 
C 2822 178 2650 128 2566 128 
C 2304 128 2304 458 2304 738 
L 2304 1653 
z
M 1965 870 
C 1965 317 1568 38 1216 38 
C 896 38 646 275 646 570 
C 646 761 730 1100 1101 1305 
C 1408 1478 1760 1504 1965 1504 
L 1965 870 
z
" transform="scale(0.015625)"/>
       <path id="CMR17-6e" d="M 2656 1933 
C 2656 2259 2592 2790 1837 2790 
C 1331 2790 1069 2400 973 2144 
L 966 2144 
L 966 2790 
L 211 2720 
L 211 2554 
C 589 2554 646 2515 646 2208 
L 646 428 
C 646 184 621 153 211 153 
L 211 -13 
C 365 0 646 0 813 0 
C 979 0 1267 0 1421 -13 
L 1421 153 
C 1011 153 986 178 986 428 
L 986 1658 
C 986 2247 1344 2688 1792 2688 
C 2266 2688 2317 2266 2317 1958 
L 2317 428 
C 2317 184 2291 153 1882 153 
L 1882 -13 
C 2035 0 2317 0 2483 0 
C 2650 0 2938 0 3091 -13 
L 3091 153 
C 2682 153 2656 178 2656 428 
L 2656 1933 
z
" transform="scale(0.015625)"/>
      </defs>
      <use xlink:href="#CMR17-53" transform="scale(0.996264)"/>
      <use xlink:href="#CMR17-6f" transform="translate(50.89537 0)scale(0.996264)"/>
      <use xlink:href="#CMR17-79" transform="translate(93.983393 0)scale(0.996264)"/>
      <use xlink:href="#CMR17-62" transform="translate(142.276309 0)scale(0.996264)"/>
      <use xlink:href="#CMR17-65" transform="translate(195.774117 0)scale(0.996264)"/>
      <use xlink:href="#CMR17-61" transform="translate(236.259778 0)scale(0.996264)"/>
      <use xlink:href="#CMR17-6e" transform="translate(281.950255 0)scale(0.996264)"/>
     </g>
    </g>
   </g>
   <g id="matplotlib.axis_2">
    <g id="ytick_1">
     <g id="line2d_13">
      <path d="M 66.840221 161.832513 
L 261.844398 161.832513 
" clip-path="url(#pc554c8eb0f)" style="fill: none; stroke: #ffffff; stroke-width: 1.5; stroke-linecap: square"/>
     </g>
     <g id="line2d_14">
      <defs>
       <path id="m6094178d86" d="M 0 0 
L -9 0 
" style="stroke: #555555; stroke-width: 1.875"/>
      </defs>
      <g>
       <use xlink:href="#m6094178d86" x="66.840221" y="161.832513" style="fill: #555555; stroke: #555555; stroke-width: 1.875"/>
      </g>
     </g>
     <g id="text_5">
      <!-- $\mathdefault{10^{-7}}$ -->
      <g style="fill: #555555" transform="translate(23.541364 167.540266)scale(0.165 -0.165)">
       <defs>
        <path id="CMR17-31" d="M 1702 4058 
C 1702 4192 1696 4192 1606 4192 
C 1357 3916 979 3827 621 3827 
C 602 3827 570 3827 563 3808 
C 557 3795 557 3782 557 3648 
C 755 3648 1088 3686 1344 3839 
L 1344 461 
C 1344 236 1331 160 781 160 
L 589 160 
L 589 0 
C 896 0 1216 0 1523 0 
C 1830 0 2150 0 2458 0 
L 2458 160 
L 2266 160 
C 1715 160 1702 230 1702 458 
L 1702 4058 
z
" transform="scale(0.015625)"/>
        <path id="CMSY10-0" d="M 4218 1472 
C 4326 1472 4442 1472 4442 1600 
C 4442 1728 4326 1728 4218 1728 
L 755 1728 
C 646 1728 531 1728 531 1600 
C 531 1472 646 1472 755 1472 
L 4218 1472 
z
" transform="scale(0.015625)"/>
        <path id="CMR17-37" d="M 2886 3941 
L 2886 4081 
L 1382 4081 
C 634 4081 621 4165 595 4288 
L 480 4288 
L 294 3094 
L 410 3094 
C 429 3215 474 3540 550 3661 
C 589 3712 1062 3712 1171 3712 
L 2579 3712 
L 1869 2661 
C 1395 1954 1069 999 1069 165 
C 1069 89 1069 -128 1299 -128 
C 1530 -128 1530 89 1530 171 
L 1530 465 
C 1530 1508 1709 2196 2003 2636 
L 2886 3941 
z
" transform="scale(0.015625)"/>
       </defs>
       <use xlink:href="#CMR17-31" transform="scale(0.996264)"/>
       <use xlink:href="#CMR17-30" transform="translate(45.690477 0)scale(0.996264)"/>
       <use xlink:href="#CMSY10-0" transform="translate(91.380954 36.153639)scale(0.697382)"/>
       <use xlink:href="#CMR17-37" transform="translate(145.621947 36.153639)scale(0.697382)"/>
      </g>
     </g>
    </g>
    <g id="ytick_2">
     <g id="line2d_15">
      <path d="M 66.840221 116.623224 
L 261.844398 116.623224 
" clip-path="url(#pc554c8eb0f)" style="fill: none; stroke: #ffffff; stroke-width: 1.5; stroke-linecap: square"/>
     </g>
     <g id="line2d_16">
      <g>
       <use xlink:href="#m6094178d86" x="66.840221" y="116.623224" style="fill: #555555; stroke: #555555; stroke-width: 1.875"/>
      </g>
     </g>
     <g id="text_6">
      <!-- $\mathdefault{10^{-5}}$ -->
      <g style="fill: #555555" transform="translate(23.541364 122.330976)scale(0.165 -0.165)">
       <defs>
        <path id="CMR17-35" d="M 730 3692 
C 794 3666 1056 3584 1325 3584 
C 1920 3584 2246 3911 2432 4100 
C 2432 4157 2432 4192 2394 4192 
C 2387 4192 2374 4192 2323 4163 
C 2099 4058 1837 3973 1517 3973 
C 1325 3973 1037 3999 723 4139 
C 653 4171 640 4171 634 4171 
C 602 4171 595 4164 595 4037 
L 595 2203 
C 595 2089 595 2057 659 2057 
C 691 2057 704 2070 736 2114 
C 941 2401 1222 2522 1542 2522 
C 1766 2522 2246 2382 2246 1289 
C 2246 1085 2246 715 2054 421 
C 1894 159 1645 25 1370 25 
C 947 25 518 320 403 814 
C 429 807 480 795 506 795 
C 589 795 749 840 749 1038 
C 749 1210 627 1280 506 1280 
C 358 1280 262 1190 262 1011 
C 262 454 704 -128 1382 -128 
C 2042 -128 2669 440 2669 1264 
C 2669 2030 2170 2624 1549 2624 
C 1222 2624 947 2503 730 2274 
L 730 3692 
z
" transform="scale(0.015625)"/>
       </defs>
       <use xlink:href="#CMR17-31" transform="scale(0.996264)"/>
       <use xlink:href="#CMR17-30" transform="translate(45.690477 0)scale(0.996264)"/>
       <use xlink:href="#CMSY10-0" transform="translate(91.380954 36.153639)scale(0.697382)"/>
       <use xlink:href="#CMR17-35" transform="translate(145.621947 36.153639)scale(0.697382)"/>
      </g>
     </g>
    </g>
    <g id="ytick_3">
     <g id="line2d_17">
      <path d="M 66.840221 71.413934 
L 261.844398 71.413934 
" clip-path="url(#pc554c8eb0f)" style="fill: none; stroke: #ffffff; stroke-width: 1.5; stroke-linecap: square"/>
     </g>
     <g id="line2d_18">
      <g>
       <use xlink:href="#m6094178d86" x="66.840221" y="71.413934" style="fill: #555555; stroke: #555555; stroke-width: 1.875"/>
      </g>
     </g>
     <g id="text_7">
      <!-- $\mathdefault{10^{-3}}$ -->
      <g style="fill: #555555" transform="translate(23.541364 77.121687)scale(0.165 -0.165)">
       <defs>
        <path id="CMR17-33" d="M 1414 2157 
C 1984 2157 2234 1662 2234 1090 
C 2234 320 1824 25 1453 25 
C 1114 25 563 194 390 693 
C 422 680 454 680 486 680 
C 640 680 755 782 755 948 
C 755 1133 614 1216 486 1216 
C 378 1216 211 1165 211 926 
C 211 335 787 -128 1466 -128 
C 2176 -128 2720 430 2720 1085 
C 2720 1707 2208 2157 1600 2227 
C 2086 2328 2554 2756 2554 3329 
C 2554 3820 2048 4179 1472 4179 
C 890 4179 378 3829 378 3329 
C 378 3110 544 3072 627 3072 
C 762 3072 877 3155 877 3321 
C 877 3486 762 3569 627 3569 
C 602 3569 570 3569 544 3557 
C 730 3959 1235 4032 1459 4032 
C 1683 4032 2106 3925 2106 3320 
C 2106 3143 2080 2828 1862 2550 
C 1670 2304 1453 2304 1242 2284 
C 1210 2284 1062 2269 1037 2269 
C 992 2263 966 2257 966 2208 
C 966 2163 973 2157 1101 2157 
L 1414 2157 
z
" transform="scale(0.015625)"/>
       </defs>
       <use xlink:href="#CMR17-31" transform="scale(0.996264)"/>
       <use xlink:href="#CMR17-30" transform="translate(45.690477 0)scale(0.996264)"/>
       <use xlink:href="#CMSY10-0" transform="translate(91.380954 36.153639)scale(0.697382)"/>
       <use xlink:href="#CMR17-33" transform="translate(145.621947 36.153639)scale(0.697382)"/>
      </g>
     </g>
    </g>
    <g id="ytick_4">
     <g id="line2d_19">
      <path d="M 66.840221 26.204645 
L 261.844398 26.204645 
" clip-path="url(#pc554c8eb0f)" style="fill: none; stroke: #ffffff; stroke-width: 1.5; stroke-linecap: square"/>
     </g>
     <g id="line2d_20">
      <g>
       <use xlink:href="#m6094178d86" x="66.840221" y="26.204645" style="fill: #555555; stroke: #555555; stroke-width: 1.875"/>
      </g>
     </g>
     <g id="text_8">
      <!-- $\mathdefault{10^{-1}}$ -->
      <g style="fill: #555555" transform="translate(23.541364 31.912397)scale(0.165 -0.165)">
       <use xlink:href="#CMR17-31" transform="scale(0.996264)"/>
       <use xlink:href="#CMR17-30" transform="translate(45.690477 0)scale(0.996264)"/>
       <use xlink:href="#CMSY10-0" transform="translate(91.380954 36.153639)scale(0.697382)"/>
       <use xlink:href="#CMR17-31" transform="translate(145.621947 36.153639)scale(0.697382)"/>
      </g>
     </g>
    </g>
    <g id="text_9">
     <!-- Proportion -->
     <g style="fill: #555555" transform="translate(16.0533 143.762151)rotate(-90)scale(0.18 -0.18)">
      <defs>
       <path id="CMR17-50" d="M 1267 2042 
L 2291 2042 
C 3117 2042 3718 2578 3718 3184 
C 3718 3791 3130 4352 2291 4352 
L 333 4352 
L 333 4186 
C 774 4186 845 4186 845 3899 
L 845 446 
C 845 160 774 160 333 160 
L 333 0 
C 518 0 858 0 1056 0 
C 1254 0 1594 0 1779 0 
L 1779 160 
C 1338 160 1267 160 1267 446 
L 1267 2042 
z
M 1254 2176 
L 1254 3938 
C 1254 4155 1267 4186 1523 4186 
L 2170 4186 
C 2995 4186 3232 3714 3232 3184 
C 3232 2604 2950 2176 2170 2176 
L 1254 2176 
z
" transform="scale(0.015625)"/>
       <path id="CMR17-72" d="M 960 1497 
C 960 2112 1222 2688 1702 2688 
C 1747 2688 1792 2682 1837 2662 
C 1837 2662 1696 2617 1696 2452 
C 1696 2298 1818 2234 1914 2234 
C 1990 2234 2131 2279 2131 2458 
C 2131 2663 1926 2790 1709 2790 
C 1222 2790 1011 2317 947 2093 
L 941 2093 
L 941 2790 
L 198 2720 
L 198 2554 
C 576 2554 634 2515 634 2208 
L 634 428 
C 634 184 608 153 198 153 
L 198 -13 
C 352 0 646 0 813 0 
C 998 0 1325 0 1498 -13 
L 1498 153 
C 1037 153 960 153 960 440 
L 960 1497 
z
" transform="scale(0.015625)"/>
       <path id="CMR17-70" d="M 1408 -1063 
C 998 -1063 973 -1037 973 -789 
L 973 402 
C 1158 134 1427 -38 1766 -38 
C 2406 -38 3053 523 3053 1388 
C 3053 2191 2496 2802 1837 2802 
C 1453 2802 1139 2592 960 2338 
L 960 2802 
L 198 2732 
L 198 2567 
C 576 2567 634 2528 634 2223 
L 634 -789 
C 634 -1031 608 -1063 198 -1063 
L 198 -1228 
C 352 -1216 634 -1216 800 -1216 
C 966 -1216 1254 -1216 1408 -1228 
L 1408 -1063 
z
M 973 2012 
C 973 2102 973 2235 1222 2471 
C 1254 2497 1472 2688 1792 2688 
C 2259 2688 2643 2108 2643 1382 
C 2643 656 2234 64 1728 64 
C 1498 64 1248 172 1056 472 
C 973 612 973 650 973 752 
L 973 2012 
z
" transform="scale(0.015625)"/>
       <path id="CMR17-74" d="M 966 2560 
L 1862 2560 
L 1862 2725 
L 966 2725 
L 966 3904 
L 851 3904 
C 838 3245 614 2668 70 2668 
L 70 2560 
L 627 2560 
L 627 771 
C 627 650 627 -64 1370 -64 
C 1747 -64 1965 306 1965 777 
L 1965 1140 
L 1850 1140 
L 1850 783 
C 1850 344 1677 51 1408 51 
C 1222 51 966 178 966 758 
L 966 2560 
z
" transform="scale(0.015625)"/>
       <path id="CMR17-69" d="M 992 3909 
C 992 4049 877 4170 730 4170 
C 589 4170 467 4056 467 3909 
C 467 3769 582 3648 730 3648 
C 870 3648 992 3763 992 3909 
z
M 243 2706 
L 243 2541 
C 602 2541 653 2502 653 2197 
L 653 427 
C 653 184 627 153 218 153 
L 218 -13 
C 371 0 646 0 806 0 
C 960 0 1222 0 1370 -13 
L 1370 153 
C 992 153 979 191 979 420 
L 979 2776 
L 243 2706 
z
" transform="scale(0.015625)"/>
      </defs>
      <use xlink:href="#CMR17-50" transform="scale(0.996264)"/>
      <use xlink:href="#CMR17-72" transform="translate(62.586301 0)scale(0.996264)"/>
      <use xlink:href="#CMR17-6f" transform="translate(97.867068 0)scale(0.996264)"/>
      <use xlink:href="#CMR17-70" transform="translate(143.557545 0)scale(0.996264)"/>
      <use xlink:href="#CMR17-6f" transform="translate(197.055354 0)scale(0.996264)"/>
      <use xlink:href="#CMR17-72" transform="translate(242.745831 0)scale(0.996264)"/>
      <use xlink:href="#CMR17-74" transform="translate(278.026599 0)scale(0.996264)"/>
      <use xlink:href="#CMR17-69" transform="translate(313.307367 0)scale(0.996264)"/>
      <use xlink:href="#CMR17-6f" transform="translate(338.178425 0)scale(0.996264)"/>
      <use xlink:href="#CMR17-6e" transform="translate(383.868902 0)scale(0.996264)"/>
     </g>
    </g>
   </g>
   <g id="line2d_21">
    <path d="M -1 3.911679 
L 9.780964 4.007146 
L 9.780964 4.023148 
L 14.76916 4.11971 
L 14.76916 4.135896 
L 19.287851 4.233579 
L 19.287851 4.249955 
L 23.733706 4.348785 
L 23.733706 4.365354 
L 26.804126 4.465359 
L 26.804126 4.482126 
L 32.037196 4.583334 
L 32.053933 4.617303 
L 34.781651 4.719921 
L 34.781651 4.737129 
L 35.762293 4.841015 
L 35.762293 4.858436 
L 38.656793 4.96362 
L 38.656793 4.981261 
L 40.054271 5.087776 
L 40.054271 5.105642 
L 42.086926 5.213523 
L 42.152572 5.249748 
L 43.128996 5.359233 
L 43.128996 5.3776 
L 44.167223 5.488529 
L 44.167223 5.507139 
L 45.848088 5.600725 
L 45.848088 5.61955 
L 46.621419 5.714219 
L 46.621419 5.733262 
L 47.724498 5.829039 
L 47.724498 5.848308 
L 48.975314 5.945219 
L 49.075485 6.003829 
L 50.356795 6.102296 
L 50.430135 6.141961 
L 50.939251 6.24183 
L 51.004648 6.282064 
L 51.785436 6.383376 
L 51.785436 6.403765 
L 52.486857 6.506347 
L 52.573552 6.547683 
L 53.013811 6.651788 
L 53.1204 6.714786 
L 53.914688 6.820688 
L 54.013192 6.884783 
L 54.564515 6.992545 
L 54.564515 7.01424 
L 55.173056 7.123441 
L 55.173056 7.145428 
L 56.056689 7.256107 
L 56.056689 7.278393 
L 56.66863 7.368047 
L 56.66863 7.390589 
L 57.493839 7.481279 
L 57.570581 7.52694 
L 58.447531 7.618903 
L 58.490663 7.688446 
L 58.925268 7.781943 
L 58.925268 7.805457 
L 59.642787 7.90008 
L 59.741468 7.971651 
L 60.214505 8.067897 
L 60.214505 8.092107 
L 60.610426 8.189548 
L 60.610426 8.21406 
L 61.157633 8.312725 
L 61.245723 8.362431 
L 61.944617 8.462606 
L 61.944617 8.487811 
L 62.795063 8.58928 
L 62.832259 8.640411 
L 63.241241 8.743478 
L 63.303751 8.79542 
L 63.613765 8.900137 
L 63.717188 9.032623 
L 64.33555 9.139914 
L 64.432914 9.248392 
L 64.993003 9.358081 
L 65.015838 9.413388 
L 65.315388 9.496938 
L 65.372271 9.637788 
L 65.911731 9.723278 
L 66.020428 9.80952 
L 66.276765 9.896525 
L 66.276765 9.9257 
L 66.622152 10.013746 
L 66.71794 10.102589 
L 67.220764 10.192243 
L 67.220764 10.22231 
L 67.508169 10.31307 
L 67.531123 10.435402 
L 67.741469 10.528163 
L 67.741469 10.559279 
L 68.295352 10.653223 
L 68.304208 10.716355 
L 68.961964 10.811822 
L 68.961964 10.843852 
L 69.344095 10.940572 
L 69.418033 11.038255 
L 70.190603 11.13692 
L 70.204131 11.203252 
L 70.700113 11.303598 
L 70.700113 11.337276 
L 71.207972 11.439008 
L 71.316281 11.50742 
L 71.734664 11.61094 
L 71.734664 11.645691 
L 72.533559 11.750687 
L 72.632301 11.892452 
L 73.239461 12.000136 
L 73.320979 12.072587 
L 74.104885 12.182276 
L 74.14871 12.330461 
L 74.934714 12.405401 
L 74.934714 12.443087 
L 75.133884 12.518895 
L 75.133884 12.557019 
L 75.47993 12.633716 
L 75.57477 12.711016 
L 75.702305 12.788929 
L 75.702305 12.828119 
L 75.949418 12.906972 
L 75.994261 13.066603 
L 76.169681 13.147402 
L 76.169681 13.188052 
L 76.416258 13.269862 
L 76.471785 13.352359 
L 76.774033 13.435555 
L 76.87911 13.604092 
L 77.368475 13.689459 
L 77.409637 13.775574 
L 77.853074 13.862451 
L 77.853074 13.90618 
L 78.236056 13.994226 
L 78.303375 14.127794 
L 78.748049 14.217859 
L 78.831727 14.400508 
L 79.017993 14.493122 
L 79.025132 14.586619 
L 79.484975 14.681015 
L 79.568312 14.776327 
L 79.79501 14.872573 
L 79.79501 14.921053 
L 80.354707 15.018736 
L 80.430954 15.117401 
L 80.606061 15.217067 
L 80.60869 15.317756 
L 80.929482 15.419488 
L 80.929482 15.470752 
L 81.144929 15.574091 
L 81.187932 15.678529 
L 81.99213 15.78409 
L 82.055062 15.998679 
L 82.271526 16.107759 
L 82.320166 16.273685 
L 82.741404 16.329623 
L 82.741404 16.385882 
L 82.914757 16.442464 
L 82.935394 16.556618 
L 83.734915 16.614196 
L 83.795526 16.730376 
L 83.997236 16.788985 
L 83.997236 16.847947 
L 84.168653 16.907265 
L 84.168653 16.966943 
L 84.379229 17.026987 
L 84.379229 17.087399 
L 84.857686 17.148186 
L 84.94822 17.332839 
L 85.316336 17.39517 
L 85.349827 17.521031 
L 85.771531 17.584573 
L 85.771531 17.648528 
L 86.681469 17.712902 
L 86.681469 17.777702 
L 87.050909 17.842932 
L 87.050909 17.908598 
L 87.529801 17.974706 
L 87.55187 18.175746 
L 87.817815 18.243684 
L 87.817815 18.312096 
L 88.533283 18.380988 
L 88.533283 18.450367 
L 89.075689 18.52024 
L 89.159284 18.661495 
L 89.413264 18.732892 
L 89.443786 18.877263 
L 89.646294 18.950253 
L 89.746253 19.247763 
L 90.296998 19.323571 
L 90.392292 19.476966 
L 90.840186 19.554571 
L 90.926568 19.711648 
L 91.406396 19.791139 
L 91.406396 19.871279 
L 91.696804 19.952078 
L 91.696804 20.033548 
L 92.171062 20.1157 
L 92.260842 20.282095 
L 92.356967 20.366362 
L 92.420789 20.537098 
L 92.869826 20.623593 
L 92.869826 20.710856 
L 93.525559 20.798902 
L 93.525559 20.887745 
L 93.887502 20.977399 
L 93.887502 21.06788 
L 94.732779 21.159202 
L 94.780534 21.344435 
L 95.882761 21.438379 
L 95.911158 21.725729 
L 96.386049 21.823412 
L 96.386049 21.922077 
L 97.419232 22.021743 
L 97.472643 22.224164 
L 97.656365 22.326962 
L 97.656365 22.430847 
L 97.968461 22.535844 
L 97.968461 22.641975 
L 98.599646 22.749267 
L 98.648779 22.967433 
L 99.052772 23.078361 
L 99.052772 23.190558 
L 99.886473 23.190558 
L 99.886473 23.304051 
L 100.190709 23.304051 
L 100.275972 23.535052 
L 100.457988 23.535052 
L 100.529716 23.771619 
L 100.66027 23.771619 
L 100.66027 23.892076 
L 100.775865 23.892076 
L 100.775865 24.014028 
L 101.400739 24.014028 
L 101.432439 24.262575 
L 101.669834 24.262575 
L 101.669834 24.389249 
L 102.041078 24.389249 
L 102.041078 24.517578 
L 102.26253 24.517578 
L 102.26253 24.647608 
L 102.497694 24.647608 
L 102.497694 24.779382 
L 102.697476 24.779382 
L 102.725172 25.04836 
L 103.113101 25.04836 
L 103.113101 25.185664 
L 103.239857 25.185664 
L 103.239857 25.324916 
L 103.441023 25.324916 
L 103.441023 25.466171 
L 103.918912 25.466171 
L 104.022548 25.754929 
L 104.206903 25.754929 
L 104.206903 25.902557 
L 104.660898 25.902557 
L 104.675108 26.204645 
L 104.902581 26.204645 
L 104.902581 26.359248 
L 105.095477 26.359248 
L 105.095477 26.516324 
L 105.29134 26.516324 
L 105.29134 26.675955 
L 106.588669 26.675955 
L 106.639784 27.003221 
L 106.94148 27.003221 
L 106.94148 27.171038 
L 107.846173 27.171038 
L 107.846173 27.341774 
L 108.095272 27.341774 
L 108.095272 27.515532 
L 108.289089 27.515532 
L 108.375303 27.872556 
L 108.685684 27.872556 
L 108.685684 28.056058 
L 109.004408 28.056058 
L 109.004408 28.243055 
L 109.376242 28.243055 
L 109.376242 28.433684 
L 110.011781 28.433684 
L 110.011781 28.628088 
L 110.902589 28.628088 
L 110.902589 28.826419 
L 111.642798 28.826419 
L 111.642798 29.028841 
L 112.552967 29.028841 
L 112.552967 29.235523 
L 112.919987 29.235523 
L 112.919987 29.446651 
L 113.058261 29.446651 
L 113.058261 29.66242 
L 113.438453 29.66242 
L 113.513041 30.108727 
L 113.742878 30.108727 
L 113.742878 30.339728 
L 114.229686 30.339728 
L 114.229686 30.576295 
L 114.344037 30.576295 
L 114.344037 30.818704 
L 115.036965 30.818704 
L 115.036965 31.067251 
L 115.722715 31.067251 
L 115.722715 31.322254 
L 115.952508 31.322254 
L 115.952508 31.584059 
L 116.792603 31.584059 
L 116.883246 32.129592 
L 117.116407 32.129592 
L 117.116407 32.414165 
L 117.348938 32.414165 
L 117.348938 32.707233 
L 117.751833 32.707233 
L 117.751833 33.009321 
L 118.292056 33.009321 
L 118.292056 33.321 
L 118.999731 33.321 
L 118.999731 33.6429 
L 119.115836 33.6429 
L 119.115836 33.975714 
L 119.699194 33.975714 
L 119.699194 34.320208 
L 120.469153 34.320208 
L 120.521289 35.047732 
L 120.743044 35.047732 
L 120.743044 35.432764 
L 125.522376 35.432764 
L 125.522376 35.833517 
L 126.022282 35.833517 
L 126.094406 36.687714 
L 126.891128 36.687714 
L 126.891128 37.144404 
L 127.204478 37.144404 
L 127.204478 37.623381 
L 127.801659 37.623381 
L 127.801659 38.126931 
L 129.090897 38.126931 
L 129.090897 38.657712 
L 129.372603 38.657712 
L 129.372603 39.218841 
L 129.832474 39.218841 
L 129.832474 39.813997 
L 131.206916 39.813997 
L 131.206916 40.447576 
L 135.937586 40.447576 
L 135.965505 41.852408 
L 136.491405 41.852408 
L 136.491405 42.638193 
L 137.933238 42.638193 
L 137.933238 43.49239 
L 143.804918 43.49239 
L 143.804918 44.428057 
L 145.506719 44.428057 
L 145.506719 45.462388 
L 147.617503 45.462388 
L 147.617503 46.618673 
L 148.535235 46.618673 
L 148.535235 47.92956 
L 149.421764 47.92956 
L 149.421764 49.442869 
L 160.414977 49.442869 
L 160.414977 51.232733 
L 165.758035 51.232733 
L 165.758035 53.423349 
L 176.296087 53.423349 
L 176.296087 56.247545 
L 176.891516 56.247545 
L 176.891516 60.228025 
L 251.959757 60.228025 
L 251.959757 67.032701 
L 263.814137 67.032701 
L 263.814137 257.32 
L 263.814137 257.32 
" clip-path="url(#pc554c8eb0f)" style="fill: none; stroke: #4d3c2f; stroke-width: 2.25; stroke-linecap: square"/>
   </g>
   <g id="line2d_22">
    <path d="M -1 3.798226 
L -0.80044 3.800838 
L 2.636113 3.856574 
L 6.072666 3.924983 
L 9.509219 4.008194 
L 12.945772 4.108524 
L 16.382325 4.228465 
L 19.818878 4.370668 
L 23.255431 4.537921 
L 26.691984 4.733122 
L 30.128537 4.95926 
L 33.56509 5.219382 
L 37.001642 5.516566 
L 40.438195 5.853898 
L 43.874748 6.234447 
L 47.311301 6.661241 
L 50.747854 7.137245 
L 54.184407 7.665351 
L 57.62096 8.248355 
L 61.057513 8.888955 
L 64.494066 9.589733 
L 67.930619 10.353157 
L 71.367172 11.181575 
L 74.803725 12.077211 
L 78.240278 13.042167 
L 81.676831 14.078426 
L 85.113384 15.187853 
L 88.549937 16.372198 
L 91.98649 17.633103 
L 95.423043 18.972104 
L 98.859595 20.390637 
L 102.296148 21.890045 
L 105.732701 23.471581 
L 109.169254 25.136414 
L 112.605807 26.885635 
L 116.04236 28.720262 
L 119.478913 30.641243 
L 122.915466 32.649464 
L 126.352019 34.74575 
L 129.788572 36.93087 
L 133.225125 39.205546 
L 136.661678 41.570446 
L 140.098231 44.0262 
L 143.534784 46.573392 
L 146.971337 49.21257 
L 150.40789 51.944249 
L 153.844443 54.768907 
L 157.280996 57.686994 
L 160.717549 60.698932 
L 164.154101 63.805117 
L 167.590654 67.005919 
L 171.027207 70.301689 
L 174.46376 73.692753 
L 177.900313 77.17942 
L 181.336866 80.761981 
L 184.773419 84.44071 
L 188.209972 88.215864 
L 191.646525 92.087687 
L 195.083078 96.056408 
L 198.519631 100.122246 
L 201.956184 104.285405 
L 205.392737 108.54608 
L 208.82929 112.904456 
L 212.265843 117.360705 
L 215.702396 121.914994 
L 219.138949 126.56748 
L 222.575502 131.318312 
L 226.012055 136.167631 
L 229.448607 141.115571 
L 232.88516 146.162262 
L 236.321713 151.307824 
L 239.758266 156.552375 
L 243.194819 161.896024 
L 246.631372 167.338877 
L 250.067925 172.881035 
L 253.504478 178.522594 
L 256.941031 184.263646 
L 260.377584 190.104278 
L 263.814137 196.044575 
" clip-path="url(#pc554c8eb0f)" style="fill: none; stroke: #3a578a; stroke-width: 2; stroke-linecap: square"/>
   </g>
   <g id="patch_3">
    <path d="M 66.840221 205.666804 
L 66.840221 3.6 
" style="fill: none; stroke: #ffffff; stroke-width: 1.875; stroke-linejoin: miter; stroke-linecap: square"/>
   </g>
   <g id="patch_4">
    <path d="M 66.840221 205.666804 
L 261.844398 205.666804 
" style="fill: none; stroke: #ffffff; stroke-width: 1.875; stroke-linejoin: miter; stroke-linecap: square"/>
   </g>
   <g id="legend_1">
    <g id="line2d_23">
     <path d="M 81.690221 158.849151 
L 98.190221 158.849151 
L 98.190221 158.849151 
L 114.690221 158.849151 
L 114.690221 158.849151 
" style="fill: none; stroke: #4d3c2f; stroke-width: 2.25; stroke-linecap: square"/>
    </g>
    <g id="text_10">
     <!-- Empirical -->
     <g transform="translate(127.890221 164.624151)scale(0.165 -0.165)">
      <defs>
       <path id="CMR17-45" d="M 3885 1615 
L 3770 1615 
C 3629 676 3546 166 2419 166 
L 1530 166 
C 1274 166 1261 197 1261 414 
L 1261 2176 
L 1862 2176 
C 2464 2176 2522 1960 2522 1430 
L 2637 1430 
L 2637 3081 
L 2522 3081 
C 2522 2557 2464 2342 1862 2342 
L 1261 2342 
L 1261 3913 
C 1261 4128 1274 4160 1530 4160 
L 2406 4160 
C 3398 4160 3514 3769 3603 2929 
L 3718 2929 
L 3565 4325 
L 326 4325 
L 326 4160 
C 768 4160 838 4160 838 3874 
L 838 451 
C 838 166 768 166 326 166 
L 326 0 
L 3654 0 
L 3885 1615 
z
" transform="scale(0.015625)"/>
       <path id="CMR17-6d" d="M 4326 1933 
C 4326 2252 4269 2790 3507 2790 
C 3072 2790 2771 2496 2656 2151 
L 2650 2151 
C 2573 2676 2195 2790 1837 2790 
C 1331 2790 1069 2400 973 2144 
L 966 2144 
L 966 2790 
L 211 2720 
L 211 2554 
C 589 2554 646 2515 646 2208 
L 646 428 
C 646 184 621 153 211 153 
L 211 -13 
C 365 0 646 0 813 0 
C 979 0 1267 0 1421 -13 
L 1421 153 
C 1011 153 986 178 986 428 
L 986 1658 
C 986 2247 1344 2688 1792 2688 
C 2266 2688 2317 2266 2317 1958 
L 2317 428 
C 2317 184 2291 153 1882 153 
L 1882 -13 
C 2035 0 2317 0 2483 0 
C 2650 0 2938 0 3091 -13 
L 3091 153 
C 2682 153 2656 178 2656 428 
L 2656 1658 
C 2656 2247 3014 2688 3462 2688 
C 3936 2688 3987 2266 3987 1958 
L 3987 428 
C 3987 184 3962 153 3552 153 
L 3552 -13 
C 3706 0 3987 0 4154 0 
C 4320 0 4608 0 4762 -13 
L 4762 153 
C 4352 153 4326 178 4326 428 
L 4326 1933 
z
" transform="scale(0.015625)"/>
       <path id="CMR17-63" d="M 2234 2240 
C 2112 2240 1933 2240 1933 2017 
C 1933 1838 2080 1787 2163 1787 
C 2208 1787 2394 1807 2394 2024 
C 2394 2467 1958 2803 1466 2803 
C 787 2803 211 2178 211 1363 
C 211 516 813 -64 1466 -64 
C 2259 -64 2458 677 2458 748 
C 2458 774 2451 793 2406 793 
C 2362 793 2355 787 2330 703 
C 2163 180 1798 51 1523 51 
C 1114 51 621 427 621 1369 
C 621 2338 1094 2688 1472 2688 
C 1722 2688 2093 2573 2234 2240 
z
" transform="scale(0.015625)"/>
       <path id="CMR17-6c" d="M 979 4396 
L 218 4326 
L 218 4160 
C 595 4160 653 4122 653 3817 
L 653 426 
C 653 184 627 153 218 153 
L 218 -13 
C 371 0 653 0 813 0 
C 979 0 1261 0 1414 -13 
L 1414 153 
C 1005 153 979 178 979 426 
L 979 4396 
z
" transform="scale(0.015625)"/>
      </defs>
      <use xlink:href="#CMR17-45" transform="scale(0.996264)"/>
      <use xlink:href="#CMR17-6d" transform="translate(62.586301 0)scale(0.996264)"/>
      <use xlink:href="#CMR17-70" transform="translate(139.50589 0)scale(0.996264)"/>
      <use xlink:href="#CMR17-69" transform="translate(190.40126 0)scale(0.996264)"/>
      <use xlink:href="#CMR17-72" transform="translate(215.272319 0)scale(0.996264)"/>
      <use xlink:href="#CMR17-69" transform="translate(250.553086 0)scale(0.996264)"/>
      <use xlink:href="#CMR17-63" transform="translate(275.424145 0)scale(0.996264)"/>
      <use xlink:href="#CMR17-61" transform="translate(315.909805 0)scale(0.996264)"/>
      <use xlink:href="#CMR17-6c" transform="translate(361.600283 0)scale(0.996264)"/>
     </g>
    </g>
    <g id="line2d_24">
     <path d="M 81.690221 181.845477 
L 98.190221 181.845477 
L 114.690221 181.845477 
" style="fill: none; stroke: #3a578a; stroke-width: 2; stroke-linecap: square"/>
    </g>
    <g id="text_11">
     <!-- Fitted normal -->
     <g transform="translate(127.890221 187.620477)scale(0.165 -0.165)">
      <defs>
       <path id="CMR17-46" d="M 3482 4325 
L 326 4325 
L 326 4160 
C 768 4160 838 4160 838 3874 
L 838 446 
C 838 160 768 160 326 160 
L 326 0 
C 512 0 870 0 1069 0 
C 1331 0 1638 0 1901 0 
L 1901 160 
L 1760 160 
C 1274 160 1261 223 1261 452 
L 1261 2075 
L 1837 2075 
C 2432 2075 2490 1865 2490 1332 
L 2605 1332 
L 2605 2987 
L 2490 2987 
C 2490 2450 2432 2240 1837 2240 
L 1261 2240 
L 1261 3911 
C 1261 4128 1274 4160 1530 4160 
L 2355 4160 
C 3322 4160 3430 3765 3520 2916 
L 3635 2916 
L 3482 4325 
z
" transform="scale(0.015625)"/>
       <path id="CMR17-64" d="M 1869 4326 
L 1869 4160 
C 2246 4160 2304 4122 2304 3820 
L 2304 2345 
C 2278 2377 2016 2790 1498 2790 
C 845 2790 211 2208 211 1364 
C 211 525 806 -64 1434 -64 
C 1978 -64 2259 337 2291 380 
L 2291 -63 
L 3066 -63 
L 3066 128 
C 2688 128 2630 166 2630 473 
L 2630 4396 
L 1869 4326 
z
M 2291 755 
C 2291 563 2176 390 2029 262 
C 1811 70 1594 38 1472 38 
C 1286 38 621 134 621 1356 
C 621 2612 1363 2688 1530 2688 
C 1824 2688 2061 2522 2208 2291 
C 2291 2157 2291 2138 2291 2023 
L 2291 755 
z
" transform="scale(0.015625)"/>
      </defs>
      <use xlink:href="#CMR17-46" transform="scale(0.996264)"/>
      <use xlink:href="#CMR17-69" transform="translate(59.983847 0)scale(0.996264)"/>
      <use xlink:href="#CMR17-74" transform="translate(84.854905 0)scale(0.996264)"/>
      <use xlink:href="#CMR17-74" transform="translate(120.135673 0)scale(0.996264)"/>
      <use xlink:href="#CMR17-65" transform="translate(155.416441 0)scale(0.996264)"/>
      <use xlink:href="#CMR17-64" transform="translate(195.902101 0)scale(0.996264)"/>
      <use xlink:href="#CMR17-6e" transform="translate(276.873437 0)scale(0.996264)"/>
      <use xlink:href="#CMR17-6f" transform="translate(327.768807 0)scale(0.996264)"/>
      <use xlink:href="#CMR17-72" transform="translate(373.459284 0)scale(0.996264)"/>
      <use xlink:href="#CMR17-6d" transform="translate(408.740052 0)scale(0.996264)"/>
      <use xlink:href="#CMR17-61" transform="translate(485.659642 0)scale(0.996264)"/>
      <use xlink:href="#CMR17-6c" transform="translate(531.350119 0)scale(0.996264)"/>
     </g>
    </g>
   </g>
  </g>
  <g id="axes_2">
   <g id="patch_5">
    <path d="M 350.278022 205.666804 
L 545.282199 205.666804 
L 545.282199 3.6 
L 350.278022 3.6 
z
" style="fill: #e5e5e5"/>
   </g>
   <g id="matplotlib.axis_3">
    <g id="xtick_10">
     <g id="line2d_25">
      <path d="M 350.278022 205.666804 
L 350.278022 3.6 
" clip-path="url(#p4272deb8f8)" style="fill: none; stroke: #ffffff; stroke-width: 1.5; stroke-linecap: square"/>
     </g>
     <g id="line2d_26">
      <g>
       <use xlink:href="#m0d57107656" x="350.278022" y="205.666804" style="fill: #555555; stroke: #555555; stroke-width: 1.875"/>
      </g>
     </g>
     <g id="text_12">
      <!-- $\mathdefault{0.0}$ -->
      <g style="fill: #555555" transform="translate(339.994655 229.582309)scale(0.165 -0.165)">
       <use xlink:href="#CMR17-30" transform="scale(0.996264)"/>
       <use xlink:href="#CMMI12-3a" transform="translate(45.690477 0)scale(0.996264)"/>
       <use xlink:href="#CMR17-30" transform="translate(72.787654 0)scale(0.996264)"/>
      </g>
     </g>
    </g>
    <g id="xtick_11">
     <g id="line2d_27">
      <path d="M 449.819833 205.666804 
L 449.819833 3.6 
" clip-path="url(#p4272deb8f8)" style="fill: none; stroke: #ffffff; stroke-width: 1.5; stroke-linecap: square"/>
     </g>
     <g id="line2d_28">
      <g>
       <use xlink:href="#m0d57107656" x="449.819833" y="205.666804" style="fill: #555555; stroke: #555555; stroke-width: 1.875"/>
      </g>
     </g>
     <g id="text_13">
      <!-- $\mathdefault{0.2}$ -->
      <g style="fill: #555555" transform="translate(439.536466 229.582309)scale(0.165 -0.165)">
       <use xlink:href="#CMR17-30" transform="scale(0.996264)"/>
       <use xlink:href="#CMMI12-3a" transform="translate(45.690477 0)scale(0.996264)"/>
       <use xlink:href="#CMR17-32" transform="translate(72.787654 0)scale(0.996264)"/>
      </g>
     </g>
    </g>
    <g id="xtick_12">
     <g id="line2d_29">
      <g>
       <use xlink:href="#me0bd542a54" x="375.163475" y="205.666804" style="fill: #555555; stroke: #555555; stroke-width: 1.5"/>
      </g>
     </g>
    </g>
    <g id="xtick_13">
     <g id="line2d_30">
      <g>
       <use xlink:href="#me0bd542a54" x="400.048927" y="205.666804" style="fill: #555555; stroke: #555555; stroke-width: 1.5"/>
      </g>
     </g>
    </g>
    <g id="xtick_14">
     <g id="line2d_31">
      <g>
       <use xlink:href="#me0bd542a54" x="424.93438" y="205.666804" style="fill: #555555; stroke: #555555; stroke-width: 1.5"/>
      </g>
     </g>
    </g>
    <g id="xtick_15">
     <g id="line2d_32">
      <g>
       <use xlink:href="#me0bd542a54" x="474.705285" y="205.666804" style="fill: #555555; stroke: #555555; stroke-width: 1.5"/>
      </g>
     </g>
    </g>
    <g id="xtick_16">
     <g id="line2d_33">
      <g>
       <use xlink:href="#me0bd542a54" x="499.590738" y="205.666804" style="fill: #555555; stroke: #555555; stroke-width: 1.5"/>
      </g>
     </g>
    </g>
    <g id="xtick_17">
     <g id="line2d_34">
      <g>
       <use xlink:href="#me0bd542a54" x="524.476191" y="205.666804" style="fill: #555555; stroke: #555555; stroke-width: 1.5"/>
      </g>
     </g>
    </g>
    <g id="text_14">
     <!-- Soybean Oil -->
     <g style="fill: #555555" transform="translate(404.186081 249.231936)scale(0.18 -0.18)">
      <defs>
       <path id="CMR17-4f" d="M 4307 2135 
C 4307 3437 3366 4416 2304 4416 
C 1216 4416 294 3424 294 2135 
C 294 845 1229 -128 2298 -128 
C 3392 -128 4307 864 4307 2135 
z
M 2304 -13 
C 1574 -13 781 711 781 2217 
C 781 3716 1651 4301 2298 4301 
C 2976 4301 3821 3698 3821 2217 
C 3821 686 3008 -13 2304 -13 
z
" transform="scale(0.015625)"/>
      </defs>
      <use xlink:href="#CMR17-53" transform="scale(0.996264)"/>
      <use xlink:href="#CMR17-6f" transform="translate(50.89537 0)scale(0.996264)"/>
      <use xlink:href="#CMR17-79" transform="translate(93.983393 0)scale(0.996264)"/>
      <use xlink:href="#CMR17-62" transform="translate(142.276309 0)scale(0.996264)"/>
      <use xlink:href="#CMR17-65" transform="translate(195.774117 0)scale(0.996264)"/>
      <use xlink:href="#CMR17-61" transform="translate(236.259778 0)scale(0.996264)"/>
      <use xlink:href="#CMR17-6e" transform="translate(281.950255 0)scale(0.996264)"/>
      <use xlink:href="#CMR17-4f" transform="translate(362.921591 0)scale(0.996264)"/>
      <use xlink:href="#CMR17-69" transform="translate(434.636379 0)scale(0.996264)"/>
      <use xlink:href="#CMR17-6c" transform="translate(459.507438 0)scale(0.996264)"/>
     </g>
    </g>
   </g>
   <g id="matplotlib.axis_4">
    <g id="ytick_5">
     <g id="line2d_35">
      <path d="M 350.278022 166.924233 
L 545.282199 166.924233 
" clip-path="url(#p4272deb8f8)" style="fill: none; stroke: #ffffff; stroke-width: 1.5; stroke-linecap: square"/>
     </g>
     <g id="line2d_36">
      <g>
       <use xlink:href="#m6094178d86" x="350.278022" y="166.924233" style="fill: #555555; stroke: #555555; stroke-width: 1.875"/>
      </g>
     </g>
     <g id="text_15">
      <!-- $\mathdefault{10^{-5}}$ -->
      <g style="fill: #555555" transform="translate(306.979165 172.631986)scale(0.165 -0.165)">
       <use xlink:href="#CMR17-31" transform="scale(0.996264)"/>
       <use xlink:href="#CMR17-30" transform="translate(45.690477 0)scale(0.996264)"/>
       <use xlink:href="#CMSY10-0" transform="translate(91.380954 36.153639)scale(0.697382)"/>
       <use xlink:href="#CMR17-35" transform="translate(145.621947 36.153639)scale(0.697382)"/>
      </g>
     </g>
    </g>
    <g id="ytick_6">
     <g id="line2d_37">
      <path d="M 350.278022 101.59454 
L 545.282199 101.59454 
" clip-path="url(#p4272deb8f8)" style="fill: none; stroke: #ffffff; stroke-width: 1.5; stroke-linecap: square"/>
     </g>
     <g id="line2d_38">
      <g>
       <use xlink:href="#m6094178d86" x="350.278022" y="101.59454" style="fill: #555555; stroke: #555555; stroke-width: 1.875"/>
      </g>
     </g>
     <g id="text_16">
      <!-- $\mathdefault{10^{-3}}$ -->
      <g style="fill: #555555" transform="translate(306.979165 107.302292)scale(0.165 -0.165)">
       <use xlink:href="#CMR17-31" transform="scale(0.996264)"/>
       <use xlink:href="#CMR17-30" transform="translate(45.690477 0)scale(0.996264)"/>
       <use xlink:href="#CMSY10-0" transform="translate(91.380954 36.153639)scale(0.697382)"/>
       <use xlink:href="#CMR17-33" transform="translate(145.621947 36.153639)scale(0.697382)"/>
      </g>
     </g>
    </g>
    <g id="ytick_7">
     <g id="line2d_39">
      <path d="M 350.278022 36.264847 
L 545.282199 36.264847 
" clip-path="url(#p4272deb8f8)" style="fill: none; stroke: #ffffff; stroke-width: 1.5; stroke-linecap: square"/>
     </g>
     <g id="line2d_40">
      <g>
       <use xlink:href="#m6094178d86" x="350.278022" y="36.264847" style="fill: #555555; stroke: #555555; stroke-width: 1.875"/>
      </g>
     </g>
     <g id="text_17">
      <!-- $\mathdefault{10^{-1}}$ -->
      <g style="fill: #555555" transform="translate(306.979165 41.972599)scale(0.165 -0.165)">
       <use xlink:href="#CMR17-31" transform="scale(0.996264)"/>
       <use xlink:href="#CMR17-30" transform="translate(45.690477 0)scale(0.996264)"/>
       <use xlink:href="#CMSY10-0" transform="translate(91.380954 36.153639)scale(0.697382)"/>
       <use xlink:href="#CMR17-31" transform="translate(145.621947 36.153639)scale(0.697382)"/>
      </g>
     </g>
    </g>
    <g id="text_18">
     <!-- Proportion -->
     <g style="fill: #555555" transform="translate(299.491101 143.762151)rotate(-90)scale(0.18 -0.18)">
      <use xlink:href="#CMR17-50" transform="scale(0.996264)"/>
      <use xlink:href="#CMR17-72" transform="translate(62.586301 0)scale(0.996264)"/>
      <use xlink:href="#CMR17-6f" transform="translate(97.867068 0)scale(0.996264)"/>
      <use xlink:href="#CMR17-70" transform="translate(143.557545 0)scale(0.996264)"/>
      <use xlink:href="#CMR17-6f" transform="translate(197.055354 0)scale(0.996264)"/>
      <use xlink:href="#CMR17-72" transform="translate(242.745831 0)scale(0.996264)"/>
      <use xlink:href="#CMR17-74" transform="translate(278.026599 0)scale(0.996264)"/>
      <use xlink:href="#CMR17-69" transform="translate(313.307367 0)scale(0.996264)"/>
      <use xlink:href="#CMR17-6f" transform="translate(338.178425 0)scale(0.996264)"/>
      <use xlink:href="#CMR17-6e" transform="translate(383.868902 0)scale(0.996264)"/>
     </g>
    </g>
   </g>
   <g id="line2d_41">
    <path d="M 202.849955 3.6 
L 202.849955 3.622183 
L 230.09732 3.711265 
L 230.09732 3.733623 
L 247.850129 3.823409 
L 247.850129 3.845944 
L 261.191992 3.936447 
L 261.191992 3.959163 
L 272.366564 4.050392 
L 272.366564 4.073292 
L 282.639223 4.165261 
L 282.639223 4.188346 
L 287.272212 4.281067 
L 287.272212 4.304342 
L 289.291921 4.397826 
L 289.291921 4.421293 
L 295.085095 4.515554 
L 295.134778 4.56292 
L 298.334549 4.65813 
L 298.371993 4.705975 
L 304.028931 4.802153 
L 304.028931 4.8263 
L 304.268322 4.923299 
L 304.326583 4.972049 
L 306.261166 5.070054 
L 306.295896 5.119312 
L 309.485662 5.218343 
L 309.485662 5.243209 
L 310.477837 5.343112 
L 310.477837 5.368198 
L 312.024599 5.468988 
L 312.024599 5.494298 
L 313.420869 5.595991 
L 313.420869 5.621529 
L 314.469496 5.724142 
L 314.469496 5.749912 
L 315.588483 5.853461 
L 315.588483 5.879466 
L 316.448675 5.983969 
L 316.448675 6.010215 
L 317.740446 6.115689 
L 317.740446 6.142181 
L 319.613381 6.248644 
L 319.613381 6.275385 
L 320.468841 6.382856 
L 320.506795 6.436899 
L 321.22414 6.545606 
L 321.283866 6.600273 
L 322.791552 6.710244 
L 322.791552 6.73787 
L 324.97679 6.848917 
L 324.97679 6.876815 
L 326.082829 6.96084 
L 326.082829 6.988959 
L 326.756554 7.073653 
L 326.816954 7.130398 
L 327.524099 7.215943 
L 327.614702 7.302007 
L 327.999905 7.388596 
L 327.999905 7.417577 
L 328.621371 7.504877 
L 328.621371 7.534096 
L 329.550435 7.622118 
L 329.608932 7.681105 
L 330.276976 7.770046 
L 330.276976 7.799818 
L 330.924165 7.88951 
L 330.924165 7.919533 
L 331.768501 8.009987 
L 331.862918 8.070612 
L 333.26067 8.162038 
L 333.26067 8.192644 
L 333.565377 8.284862 
L 333.670804 8.377684 
L 334.284047 8.471117 
L 334.392342 8.565169 
L 335.44598 8.659849 
L 335.44598 8.69155 
L 336.12193 8.78708 
L 336.12193 8.819067 
L 336.641305 8.915462 
L 336.69983 8.980092 
L 337.004994 9.077592 
L 337.004994 9.110241 
L 337.383284 9.208642 
L 337.442407 9.274625 
L 337.934946 9.374177 
L 337.934946 9.407517 
L 338.577694 9.50801 
L 338.636758 9.575403 
L 339.114894 9.677096 
L 339.114894 9.711157 
L 339.394127 9.813831 
L 339.441005 9.917255 
L 340.342536 10.021437 
L 340.342536 10.056336 
L 340.718099 10.161549 
L 340.828421 10.232127 
L 341.221769 10.338657 
L 341.232433 10.410124 
L 341.597345 10.518004 
L 341.597345 10.554147 
L 342.690847 10.663132 
L 342.748241 10.772961 
L 343.681154 10.883647 
L 343.750597 10.95792 
L 344.070345 11.032584 
L 344.105445 11.107643 
L 344.499484 11.183102 
L 344.570089 11.258964 
L 345.06831 11.335234 
L 345.106972 11.411916 
L 345.247439 11.489015 
L 345.311008 11.566535 
L 345.460192 11.644481 
L 345.460192 11.683615 
L 345.86512 11.762209 
L 345.86512 11.80167 
L 346.243066 11.880923 
L 346.353414 11.96062 
L 347.049628 12.040768 
L 347.049628 12.081013 
L 347.386649 12.161846 
L 347.386649 12.202436 
L 347.80416 12.283966 
L 347.861954 12.407146 
L 348.352646 12.489864 
L 348.395136 12.573068 
L 349.237334 12.656762 
L 349.31003 12.740953 
L 349.570546 12.825647 
L 349.570546 12.868184 
L 349.782049 12.953644 
L 349.782049 12.996567 
L 350.031692 13.082805 
L 350.100364 13.213154 
L 350.278022 13.213154 
L 350.278022 13.300723 
L 350.278022 13.344711 
L 350.607849 13.433099 
L 350.718928 13.52204 
L 351.515592 13.611543 
L 351.624547 13.746865 
L 351.818441 13.837803 
L 351.911344 13.975311 
L 352.359401 14.067729 
L 352.359401 14.114165 
L 352.92222 14.207496 
L 353.025571 14.301444 
L 353.130231 14.396019 
L 353.167767 14.491228 
L 353.661345 14.587081 
L 353.661345 14.635252 
L 353.877761 14.732086 
L 353.877761 14.780752 
L 354.392344 14.878588 
L 354.392344 14.92776 
L 355.226453 15.026619 
L 355.295925 15.126171 
L 355.571418 15.226427 
L 355.571418 15.276822 
L 356.314592 15.378152 
L 356.314592 15.42909 
L 356.69622 15.531518 
L 356.733011 15.63469 
L 357.484024 15.738619 
L 357.523828 15.843314 
L 357.935236 15.948788 
L 357.935236 16.00182 
L 358.567358 16.108484 
L 358.567358 16.162118 
L 359.151248 16.269998 
L 359.194872 16.433372 
L 359.769782 16.543343 
L 359.86501 16.654173 
L 360.200114 16.709914 
L 360.264569 16.878464 
L 360.50528 16.935096 
L 360.50528 16.991954 
L 360.798686 17.049042 
L 360.817783 17.221695 
L 361.210056 17.279716 
L 361.210056 17.337975 
L 361.584724 17.396475 
L 361.584724 17.455217 
L 361.855182 17.514203 
L 361.893696 17.752632 
L 362.441519 17.81287 
L 362.490885 17.995136 
L 362.773466 18.056416 
L 362.878924 18.241858 
L 363.055386 18.304215 
L 363.152508 18.492947 
L 363.374024 18.55642 
L 363.432224 18.684224 
L 363.627 18.748561 
L 363.718327 18.94334 
L 364.199629 19.008865 
L 364.199629 19.074694 
L 364.650353 19.14083 
L 364.650353 19.207276 
L 365.31087 19.274034 
L 365.382077 19.476216 
L 365.974099 19.544255 
L 365.974099 19.612622 
L 366.603697 19.681321 
L 366.603697 19.750353 
L 366.968586 19.819723 
L 366.968586 19.889434 
L 367.160217 19.95949 
L 367.160217 20.029893 
L 367.474338 20.100647 
L 367.474338 20.171755 
L 368.482498 20.243222 
L 368.482498 20.315051 
L 368.766036 20.387245 
L 368.777813 20.532746 
L 369.00221 20.60606 
L 369.00221 20.679754 
L 369.152189 20.753833 
L 369.152189 20.828302 
L 369.417995 20.903163 
L 369.499535 21.054081 
L 370.025238 21.130146 
L 370.073135 21.283512 
L 370.147441 21.360821 
L 370.22963 21.516714 
L 370.792139 21.595308 
L 370.792139 21.67434 
L 371.251386 21.753814 
L 371.251386 21.833737 
L 372.16915 21.914112 
L 372.278614 22.240245 
L 372.652598 22.322963 
L 372.652598 22.406167 
L 373.452702 22.489861 
L 373.452702 22.574052 
L 373.938828 22.658746 
L 374.033535 22.829666 
L 374.479565 22.915904 
L 374.479565 23.00267 
L 375.02916 23.089969 
L 375.052796 23.266197 
L 375.648426 23.355139 
L 375.658669 23.534713 
L 375.978497 23.62536 
L 375.978497 23.716589 
L 376.187564 23.80841 
L 376.267494 24.087491 
L 376.342043 24.181751 
L 376.342043 24.276642 
L 377.377552 24.372172 
L 377.377552 24.46835 
L 378.078722 24.565184 
L 378.131896 24.760859 
L 378.412189 24.859717 
L 378.412189 24.95927 
L 378.703065 25.059526 
L 378.703065 25.160495 
L 378.960553 25.262189 
L 378.978734 25.467789 
L 379.356023 25.571717 
L 379.356023 25.676413 
L 379.476676 25.781886 
L 379.476676 25.88815 
L 379.815838 25.995216 
L 379.815838 26.103096 
L 380.007657 26.211803 
L 380.106117 26.431748 
L 380.125637 26.431748 
L 380.125637 26.543013 
L 380.286011 26.543013 
L 380.286011 26.655157 
L 380.434354 26.655157 
L 380.542561 26.88214 
L 381.165007 26.88214 
L 381.165007 26.997009 
L 382.060582 26.997009 
L 382.117292 27.229574 
L 382.247942 27.229574 
L 382.247942 27.347302 
L 383.20181 27.347302 
L 383.219998 27.58573 
L 383.442188 27.58573 
L 383.442188 27.706465 
L 383.578219 27.706465 
L 383.578219 27.828235 
L 383.776641 27.828235 
L 383.776641 27.95106 
L 384.348741 27.95106 
L 384.348741 28.074957 
L 384.570882 28.074957 
L 384.570882 28.199946 
L 384.890997 28.199946 
L 384.890997 28.326046 
L 385.18067 28.326046 
L 385.18067 28.453277 
L 385.527983 28.453277 
L 385.527983 28.58166 
L 385.650626 28.58166 
L 385.650626 28.711214 
L 386.284566 28.711214 
L 386.383496 29.107133 
L 386.612458 29.107133 
L 386.615867 29.377354 
L 387.007822 29.377354 
L 387.007822 29.514419 
L 387.147044 29.514419 
L 387.147044 29.652822 
L 387.414959 29.652822 
L 387.456255 29.933745 
L 388.199857 29.933745 
L 388.199857 30.076321 
L 388.479619 30.076321 
L 388.479619 30.220344 
L 388.677845 30.220344 
L 388.677845 30.365845 
L 388.906707 30.365845 
L 388.921863 30.6614 
L 389.419419 30.6614 
L 389.419419 30.81152 
L 389.57648 30.81152 
L 389.57648 30.963245 
L 389.696734 30.963245 
L 389.696734 31.11661 
L 389.99367 31.11661 
L 389.99367 31.271652 
L 390.149614 31.271652 
L 390.149614 31.428407 
L 390.471582 31.428407 
L 390.503032 31.74721 
L 390.734885 31.74721 
L 390.734885 31.90934 
L 390.910906 31.90934 
L 390.983572 32.239265 
L 391.116423 32.239265 
L 391.175676 32.577047 
L 391.298678 32.577047 
L 391.344118 32.923068 
L 391.642763 32.923068 
L 391.642763 33.099296 
L 391.754528 33.099296 
L 391.754528 33.277741 
L 391.869865 33.277741 
L 391.869865 33.458458 
L 392.00361 33.458458 
L 392.00361 33.641508 
L 392.404324 33.641508 
L 392.505393 34.01485 
L 393.223213 34.01485 
L 393.223213 34.205271 
L 393.369981 34.205271 
L 393.369981 34.398283 
L 393.555609 34.398283 
L 393.555609 34.593957 
L 394.120936 34.593957 
L 394.14655 34.993594 
L 394.573264 34.993594 
L 394.573264 35.197715 
L 395.12681 35.197715 
L 395.12681 35.404816 
L 395.589153 35.404816 
L 395.589153 35.614985 
L 395.896587 35.614985 
L 395.937611 36.044902 
L 396.072156 36.044902 
L 396.072156 36.264847 
L 396.506729 36.264847 
L 396.506729 36.488255 
L 398.001368 36.488255 
L 398.001368 36.715239 
L 398.832671 36.715239 
L 398.92911 37.180401 
L 399.365866 37.180401 
L 399.365866 37.418829 
L 401.737449 37.418829 
L 401.737449 37.661334 
L 402.361502 37.661334 
L 402.361502 37.908056 
L 402.655074 37.908056 
L 402.680667 38.414758 
L 402.996046 38.414758 
L 402.996046 38.675062 
L 403.400102 38.675062 
L 403.400102 38.940232 
L 404.02965 38.940232 
L 404.02965 39.210452 
L 405.06593 39.210452 
L 405.06593 39.485921 
L 405.300652 39.485921 
L 405.300652 39.766844 
L 405.51303 39.766844 
L 405.51303 40.053443 
L 405.71396 40.053443 
L 405.71396 40.345951 
L 406.040944 40.345951 
L 406.040944 40.644618 
L 406.625144 40.644618 
L 406.625144 40.949709 
L 407.252342 40.949709 
L 407.252342 41.261505 
L 408.179494 41.261505 
L 408.179494 41.580309 
L 409.122743 41.580309 
L 409.122743 41.906442 
L 409.699822 41.906442 
L 409.699822 42.240249 
L 411.21787 42.240249 
L 411.21787 42.582101 
L 411.342927 42.582101 
L 411.342927 42.932395 
L 411.72222 42.932395 
L 411.72222 43.291557 
L 411.883504 43.291557 
L 411.895192 44.03837 
L 412.167669 44.03837 
L 412.167669 44.427056 
L 412.697518 44.427056 
L 412.697518 44.826693 
L 413.761133 44.826693 
L 413.817125 45.661414 
L 414.522636 45.661414 
L 414.596649 46.548338 
L 417.030891 46.548338 
L 417.030891 47.013499 
L 418.770481 47.013499 
L 418.826298 47.992243 
L 419.293197 47.992243 
L 419.293197 48.508161 
L 420.576616 48.508161 
L 420.576616 49.043551 
L 421.661047 49.043551 
L 421.661047 49.599943 
L 424.604876 49.599943 
L 424.604876 50.17905 
L 425.711092 50.17905 
L 425.711092 50.782808 
L 428.668201 50.782808 
L 428.668201 51.413408 
L 432.080913 51.413408 
L 432.080913 52.073348 
L 432.439708 52.073348 
L 432.454349 53.493148 
L 433.422352 53.493148 
L 433.422352 54.260155 
L 434.248365 54.260155 
L 434.248365 55.071013 
L 437.867717 55.071013 
L 437.867717 55.931044 
L 440.382614 55.931044 
L 440.382614 56.846598 
L 441.772938 56.846598 
L 441.772938 57.825342 
L 442.902812 57.825342 
L 442.968477 60.012149 
L 448.390877 60.012149 
L 448.390877 61.246506 
L 452.985298 61.246506 
L 452.985298 62.598592 
L 458.463915 62.598592 
L 458.513363 65.764143 
L 467.445524 65.764143 
L 467.445524 67.658441 
L 468.706592 67.658441 
L 468.706592 69.845247 
L 472.623994 69.845247 
L 472.623994 72.431691 
L 496.222101 72.431691 
L 496.222101 75.597241 
L 497.732201 75.597241 
L 497.732201 79.678346 
L 529.944725 79.678346 
L 529.944725 85.43034 
L 541.035584 85.43034 
L 541.035584 95.263439 
L 547.251938 95.263439 
L 547.251938 257.32 
L 547.251938 257.32 
" clip-path="url(#p4272deb8f8)" style="fill: none; stroke: #c07156; stroke-width: 2.25; stroke-linecap: square"/>
   </g>
   <g id="line2d_42">
    <path d="M 202.849955 3.602292 
L 206.328763 3.603152 
L 209.807571 3.604307 
L 213.286379 3.605847 
L 216.765187 3.607884 
L 220.243994 3.610562 
L 223.722802 3.614057 
L 227.20161 3.618588 
L 230.680418 3.624419 
L 234.159226 3.631874 
L 237.638034 3.641338 
L 241.116842 3.65327 
L 244.59565 3.668213 
L 248.074458 3.686799 
L 251.553266 3.709761 
L 255.032074 3.737941 
L 258.510881 3.772295 
L 261.989689 3.813903 
L 265.468497 3.863973 
L 268.947305 3.923841 
L 272.426113 3.994978 
L 275.904921 4.078983 
L 279.383729 4.177585 
L 282.862537 4.292639 
L 286.341345 4.426112 
L 289.820153 4.580081 
L 293.298961 4.756719 
L 296.777768 4.958282 
L 300.256576 5.1871 
L 303.735384 5.445556 
L 307.214192 5.736078 
L 310.693 6.061121 
L 314.171808 6.423153 
L 317.650616 6.824641 
L 321.129424 7.268038 
L 324.608232 7.755772 
L 328.08704 8.290234 
L 331.565848 8.87377 
L 335.044656 9.508667 
L 338.523463 10.197155 
L 342.002271 10.941392 
L 345.481079 11.743467 
L 348.959887 12.605391 
L 352.438695 13.529098 
L 355.917503 14.516441 
L 359.396311 15.569193 
L 362.875119 16.689048 
L 366.353927 17.87762 
L 369.832735 19.136445 
L 373.311543 20.466982 
L 376.79035 21.870616 
L 380.269158 23.348662 
L 383.747966 24.902363 
L 387.226774 26.532898 
L 390.705582 28.241381 
L 394.18439 30.028866 
L 397.663198 31.896349 
L 401.142006 33.84477 
L 404.620814 35.875018 
L 408.099622 37.987933 
L 411.57843 40.184307 
L 415.057237 42.464888 
L 418.536045 44.830383 
L 422.014853 47.281461 
L 425.493661 49.818751 
L 428.972469 52.442849 
L 432.451277 55.15432 
L 435.930085 57.953694 
L 439.408893 60.841476 
L 442.887701 63.818141 
L 446.366509 66.88414 
L 449.845317 70.0399 
L 453.324124 73.285824 
L 456.802932 76.622295 
L 460.28174 80.049677 
L 463.760548 83.568312 
L 467.239356 87.178528 
L 470.718164 90.880633 
L 474.196972 94.674923 
L 477.67578 98.561676 
L 481.154588 102.541158 
L 484.633396 106.613621 
L 488.112204 110.779306 
L 491.591011 115.038442 
L 495.069819 119.391246 
L 498.548627 123.837926 
L 502.027435 128.37868 
L 505.506243 133.013697 
L 508.985051 137.743156 
L 512.463859 142.567229 
L 515.942667 147.486081 
L 519.421475 152.499869 
L 522.900283 157.608743 
L 526.379091 162.812846 
L 529.857898 168.112315 
L 533.336706 173.507283 
L 536.815514 178.997875 
L 540.294322 184.584211 
L 543.77313 190.266407 
L 547.251938 196.044575 
" clip-path="url(#p4272deb8f8)" style="fill: none; stroke: #3a578a; stroke-width: 2; stroke-linecap: square"/>
   </g>
   <g id="patch_6">
    <path d="M 350.278022 205.666804 
L 350.278022 3.6 
" style="fill: none; stroke: #ffffff; stroke-width: 1.875; stroke-linejoin: miter; stroke-linecap: square"/>
   </g>
   <g id="patch_7">
    <path d="M 350.278022 205.666804 
L 545.282199 205.666804 
" style="fill: none; stroke: #ffffff; stroke-width: 1.875; stroke-linejoin: miter; stroke-linecap: square"/>
   </g>
   <g id="legend_2">
    <g id="line2d_43">
     <path d="M 365.128022 158.849151 
L 381.628022 158.849151 
L 381.628022 158.849151 
L 398.128022 158.849151 
L 398.128022 158.849151 
" style="fill: none; stroke: #c07156; stroke-width: 2.25; stroke-linecap: square"/>
    </g>
    <g id="text_19">
     <!-- Empirical -->
     <g transform="translate(411.328022 164.624151)scale(0.165 -0.165)">
      <use xlink:href="#CMR17-45" transform="scale(0.996264)"/>
      <use xlink:href="#CMR17-6d" transform="translate(62.586301 0)scale(0.996264)"/>
      <use xlink:href="#CMR17-70" transform="translate(139.50589 0)scale(0.996264)"/>
      <use xlink:href="#CMR17-69" transform="translate(190.40126 0)scale(0.996264)"/>
      <use xlink:href="#CMR17-72" transform="translate(215.272319 0)scale(0.996264)"/>
      <use xlink:href="#CMR17-69" transform="translate(250.553086 0)scale(0.996264)"/>
      <use xlink:href="#CMR17-63" transform="translate(275.424145 0)scale(0.996264)"/>
      <use xlink:href="#CMR17-61" transform="translate(315.909805 0)scale(0.996264)"/>
      <use xlink:href="#CMR17-6c" transform="translate(361.600283 0)scale(0.996264)"/>
     </g>
    </g>
    <g id="line2d_44">
     <path d="M 365.128022 181.845477 
L 381.628022 181.845477 
L 398.128022 181.845477 
" style="fill: none; stroke: #3a578a; stroke-width: 2; stroke-linecap: square"/>
    </g>
    <g id="text_20">
     <!-- Fitted normal -->
     <g transform="translate(411.328022 187.620477)scale(0.165 -0.165)">
      <use xlink:href="#CMR17-46" transform="scale(0.996264)"/>
      <use xlink:href="#CMR17-69" transform="translate(59.983847 0)scale(0.996264)"/>
      <use xlink:href="#CMR17-74" transform="translate(84.854905 0)scale(0.996264)"/>
      <use xlink:href="#CMR17-74" transform="translate(120.135673 0)scale(0.996264)"/>
      <use xlink:href="#CMR17-65" transform="translate(155.416441 0)scale(0.996264)"/>
      <use xlink:href="#CMR17-64" transform="translate(195.902101 0)scale(0.996264)"/>
      <use xlink:href="#CMR17-6e" transform="translate(276.873437 0)scale(0.996264)"/>
      <use xlink:href="#CMR17-6f" transform="translate(327.768807 0)scale(0.996264)"/>
      <use xlink:href="#CMR17-72" transform="translate(373.459284 0)scale(0.996264)"/>
      <use xlink:href="#CMR17-6d" transform="translate(408.740052 0)scale(0.996264)"/>
      <use xlink:href="#CMR17-61" transform="translate(485.659642 0)scale(0.996264)"/>
      <use xlink:href="#CMR17-6c" transform="translate(531.350119 0)scale(0.996264)"/>
     </g>
    </g>
   </g>
  </g>
  <g id="axes_3">
   <g id="patch_8">
    <path d="M 633.715823 205.666804 
L 828.72 205.666804 
L 828.72 3.6 
L 633.715823 3.6 
z
" style="fill: #e5e5e5"/>
   </g>
   <g id="matplotlib.axis_5">
    <g id="xtick_18">
     <g id="line2d_45">
      <path d="M 633.715823 205.666804 
L 633.715823 3.6 
" clip-path="url(#pbc4b606cfc)" style="fill: none; stroke: #ffffff; stroke-width: 1.5; stroke-linecap: square"/>
     </g>
     <g id="line2d_46">
      <g>
       <use xlink:href="#m0d57107656" x="633.715823" y="205.666804" style="fill: #555555; stroke: #555555; stroke-width: 1.875"/>
      </g>
     </g>
     <g id="text_21">
      <!-- $\mathdefault{0.00}$ -->
      <g style="fill: #555555" transform="translate(619.408529 229.582309)scale(0.165 -0.165)">
       <use xlink:href="#CMR17-30" transform="scale(0.996264)"/>
       <use xlink:href="#CMMI12-3a" transform="translate(45.690477 0)scale(0.996264)"/>
       <use xlink:href="#CMR17-30" transform="translate(72.787654 0)scale(0.996264)"/>
       <use xlink:href="#CMR17-30" transform="translate(118.478131 0)scale(0.996264)"/>
      </g>
     </g>
    </g>
    <g id="xtick_19">
     <g id="line2d_47">
      <path d="M 714.291808 205.666804 
L 714.291808 3.6 
" clip-path="url(#pbc4b606cfc)" style="fill: none; stroke: #ffffff; stroke-width: 1.5; stroke-linecap: square"/>
     </g>
     <g id="line2d_48">
      <g>
       <use xlink:href="#m0d57107656" x="714.291808" y="205.666804" style="fill: #555555; stroke: #555555; stroke-width: 1.875"/>
      </g>
     </g>
     <g id="text_22">
      <!-- $\mathdefault{0.25}$ -->
      <g style="fill: #555555" transform="translate(699.984513 229.582309)scale(0.165 -0.165)">
       <use xlink:href="#CMR17-30" transform="scale(0.996264)"/>
       <use xlink:href="#CMMI12-3a" transform="translate(45.690477 0)scale(0.996264)"/>
       <use xlink:href="#CMR17-32" transform="translate(72.787654 0)scale(0.996264)"/>
       <use xlink:href="#CMR17-35" transform="translate(118.478131 0)scale(0.996264)"/>
      </g>
     </g>
    </g>
    <g id="xtick_20">
     <g id="line2d_49">
      <path d="M 794.867792 205.666804 
L 794.867792 3.6 
" clip-path="url(#pbc4b606cfc)" style="fill: none; stroke: #ffffff; stroke-width: 1.5; stroke-linecap: square"/>
     </g>
     <g id="line2d_50">
      <g>
       <use xlink:href="#m0d57107656" x="794.867792" y="205.666804" style="fill: #555555; stroke: #555555; stroke-width: 1.875"/>
      </g>
     </g>
     <g id="text_23">
      <!-- $\mathdefault{0.50}$ -->
      <g style="fill: #555555" transform="translate(780.560498 229.582309)scale(0.165 -0.165)">
       <use xlink:href="#CMR17-30" transform="scale(0.996264)"/>
       <use xlink:href="#CMMI12-3a" transform="translate(45.690477 0)scale(0.996264)"/>
       <use xlink:href="#CMR17-35" transform="translate(72.787654 0)scale(0.996264)"/>
       <use xlink:href="#CMR17-30" transform="translate(118.478131 0)scale(0.996264)"/>
      </g>
     </g>
    </g>
    <g id="xtick_21">
     <g id="line2d_51">
      <g>
       <use xlink:href="#me0bd542a54" x="649.83102" y="205.666804" style="fill: #555555; stroke: #555555; stroke-width: 1.5"/>
      </g>
     </g>
    </g>
    <g id="xtick_22">
     <g id="line2d_52">
      <g>
       <use xlink:href="#me0bd542a54" x="665.946217" y="205.666804" style="fill: #555555; stroke: #555555; stroke-width: 1.5"/>
      </g>
     </g>
    </g>
    <g id="xtick_23">
     <g id="line2d_53">
      <g>
       <use xlink:href="#me0bd542a54" x="682.061414" y="205.666804" style="fill: #555555; stroke: #555555; stroke-width: 1.5"/>
      </g>
     </g>
    </g>
    <g id="xtick_24">
     <g id="line2d_54">
      <g>
       <use xlink:href="#me0bd542a54" x="698.176611" y="205.666804" style="fill: #555555; stroke: #555555; stroke-width: 1.5"/>
      </g>
     </g>
    </g>
    <g id="xtick_25">
     <g id="line2d_55">
      <g>
       <use xlink:href="#me0bd542a54" x="730.407004" y="205.666804" style="fill: #555555; stroke: #555555; stroke-width: 1.5"/>
      </g>
     </g>
    </g>
    <g id="xtick_26">
     <g id="line2d_56">
      <g>
       <use xlink:href="#me0bd542a54" x="746.522201" y="205.666804" style="fill: #555555; stroke: #555555; stroke-width: 1.5"/>
      </g>
     </g>
    </g>
    <g id="xtick_27">
     <g id="line2d_57">
      <g>
       <use xlink:href="#me0bd542a54" x="762.637398" y="205.666804" style="fill: #555555; stroke: #555555; stroke-width: 1.5"/>
      </g>
     </g>
    </g>
    <g id="xtick_28">
     <g id="line2d_58">
      <g>
       <use xlink:href="#me0bd542a54" x="778.752595" y="205.666804" style="fill: #555555; stroke: #555555; stroke-width: 1.5"/>
      </g>
     </g>
    </g>
    <g id="xtick_29">
     <g id="line2d_59">
      <g>
       <use xlink:href="#me0bd542a54" x="810.982989" y="205.666804" style="fill: #555555; stroke: #555555; stroke-width: 1.5"/>
      </g>
     </g>
    </g>
    <g id="xtick_30">
     <g id="line2d_60">
      <g>
       <use xlink:href="#me0bd542a54" x="827.098186" y="205.666804" style="fill: #555555; stroke: #555555; stroke-width: 1.5"/>
      </g>
     </g>
    </g>
    <g id="text_24">
     <!-- Soybean Meal -->
     <g style="fill: #555555" transform="translate(680.938929 249.231936)scale(0.18 -0.18)">
      <defs>
       <path id="CMR17-4d" d="M 1338 4224 
C 1299 4320 1293 4320 1158 4320 
L 339 4320 
L 339 4160 
C 781 4160 851 4160 851 3875 
L 851 610 
C 851 451 851 153 339 153 
L 339 -13 
C 486 0 755 0 915 0 
C 1075 0 1344 0 1491 -13 
L 1491 153 
C 979 153 979 451 979 610 
L 979 4135 
L 986 4135 
L 2490 89 
C 2515 25 2528 -13 2579 -13 
C 2630 -13 2643 25 2669 89 
L 4186 4166 
L 4192 4166 
L 4192 438 
C 4192 153 4122 153 3680 153 
L 3680 -13 
C 3853 0 4198 0 4384 0 
C 4570 0 4922 0 5094 -13 
L 5094 153 
C 4653 153 4582 153 4582 438 
L 4582 3875 
C 4582 4160 4653 4160 5094 4160 
L 5094 4320 
L 4282 4320 
C 4147 4320 4141 4314 4102 4218 
L 2720 502 
L 1338 4224 
z
" transform="scale(0.015625)"/>
      </defs>
      <use xlink:href="#CMR17-53" transform="scale(0.996264)"/>
      <use xlink:href="#CMR17-6f" transform="translate(50.89537 0)scale(0.996264)"/>
      <use xlink:href="#CMR17-79" transform="translate(93.983393 0)scale(0.996264)"/>
      <use xlink:href="#CMR17-62" transform="translate(142.276309 0)scale(0.996264)"/>
      <use xlink:href="#CMR17-65" transform="translate(195.774117 0)scale(0.996264)"/>
      <use xlink:href="#CMR17-61" transform="translate(236.259778 0)scale(0.996264)"/>
      <use xlink:href="#CMR17-6e" transform="translate(281.950255 0)scale(0.996264)"/>
      <use xlink:href="#CMR17-4d" transform="translate(362.921591 0)scale(0.996264)"/>
      <use xlink:href="#CMR17-65" transform="translate(447.608532 0)scale(0.996264)"/>
      <use xlink:href="#CMR17-61" transform="translate(488.094192 0)scale(0.996264)"/>
      <use xlink:href="#CMR17-6c" transform="translate(533.784669 0)scale(0.996264)"/>
     </g>
    </g>
   </g>
   <g id="matplotlib.axis_6">
    <g id="ytick_8">
     <g id="line2d_61">
      <path d="M 633.715823 160.476843 
L 828.72 160.476843 
" clip-path="url(#pbc4b606cfc)" style="fill: none; stroke: #ffffff; stroke-width: 1.5; stroke-linecap: square"/>
     </g>
     <g id="line2d_62">
      <g>
       <use xlink:href="#m6094178d86" x="633.715823" y="160.476843" style="fill: #555555; stroke: #555555; stroke-width: 1.875"/>
      </g>
     </g>
     <g id="text_25">
      <!-- $\mathdefault{10^{-10}}$ -->
      <g style="fill: #555555" transform="translate(584.663563 166.184595)scale(0.165 -0.165)">
       <use xlink:href="#CMR17-31" transform="scale(0.996264)"/>
       <use xlink:href="#CMR17-30" transform="translate(45.690477 0)scale(0.996264)"/>
       <use xlink:href="#CMSY10-0" transform="translate(91.380954 36.153639)scale(0.697382)"/>
       <use xlink:href="#CMR17-31" transform="translate(145.621947 36.153639)scale(0.697382)"/>
       <use xlink:href="#CMR17-30" transform="translate(177.605129 36.153639)scale(0.697382)"/>
      </g>
     </g>
    </g>
    <g id="ytick_9">
     <g id="line2d_63">
      <path d="M 633.715823 113.41379 
L 828.72 113.41379 
" clip-path="url(#pbc4b606cfc)" style="fill: none; stroke: #ffffff; stroke-width: 1.5; stroke-linecap: square"/>
     </g>
     <g id="line2d_64">
      <g>
       <use xlink:href="#m6094178d86" x="633.715823" y="113.41379" style="fill: #555555; stroke: #555555; stroke-width: 1.875"/>
      </g>
     </g>
     <g id="text_26">
      <!-- $\mathdefault{10^{-7}}$ -->
      <g style="fill: #555555" transform="translate(590.416967 119.121542)scale(0.165 -0.165)">
       <use xlink:href="#CMR17-31" transform="scale(0.996264)"/>
       <use xlink:href="#CMR17-30" transform="translate(45.690477 0)scale(0.996264)"/>
       <use xlink:href="#CMSY10-0" transform="translate(91.380954 36.153639)scale(0.697382)"/>
       <use xlink:href="#CMR17-37" transform="translate(145.621947 36.153639)scale(0.697382)"/>
      </g>
     </g>
    </g>
    <g id="ytick_10">
     <g id="line2d_65">
      <path d="M 633.715823 66.350737 
L 828.72 66.350737 
" clip-path="url(#pbc4b606cfc)" style="fill: none; stroke: #ffffff; stroke-width: 1.5; stroke-linecap: square"/>
     </g>
     <g id="line2d_66">
      <g>
       <use xlink:href="#m6094178d86" x="633.715823" y="66.350737" style="fill: #555555; stroke: #555555; stroke-width: 1.875"/>
      </g>
     </g>
     <g id="text_27">
      <!-- $\mathdefault{10^{-4}}$ -->
      <g style="fill: #555555" transform="translate(590.416967 72.058489)scale(0.165 -0.165)">
       <use xlink:href="#CMR17-31" transform="scale(0.996264)"/>
       <use xlink:href="#CMR17-30" transform="translate(45.690477 0)scale(0.996264)"/>
       <use xlink:href="#CMSY10-0" transform="translate(91.380954 36.153639)scale(0.697382)"/>
       <use xlink:href="#CMR17-34" transform="translate(145.621947 36.153639)scale(0.697382)"/>
      </g>
     </g>
    </g>
    <g id="ytick_11">
     <g id="line2d_67">
      <path d="M 633.715823 19.287684 
L 828.72 19.287684 
" clip-path="url(#pbc4b606cfc)" style="fill: none; stroke: #ffffff; stroke-width: 1.5; stroke-linecap: square"/>
     </g>
     <g id="line2d_68">
      <g>
       <use xlink:href="#m6094178d86" x="633.715823" y="19.287684" style="fill: #555555; stroke: #555555; stroke-width: 1.875"/>
      </g>
     </g>
     <g id="text_28">
      <!-- $\mathdefault{10^{-1}}$ -->
      <g style="fill: #555555" transform="translate(590.416967 24.995437)scale(0.165 -0.165)">
       <use xlink:href="#CMR17-31" transform="scale(0.996264)"/>
       <use xlink:href="#CMR17-30" transform="translate(45.690477 0)scale(0.996264)"/>
       <use xlink:href="#CMSY10-0" transform="translate(91.380954 36.153639)scale(0.697382)"/>
       <use xlink:href="#CMR17-31" transform="translate(145.621947 36.153639)scale(0.697382)"/>
      </g>
     </g>
    </g>
    <g id="text_29">
     <!-- Proportion -->
     <g style="fill: #555555" transform="translate(577.175499 143.762151)rotate(-90)scale(0.18 -0.18)">
      <use xlink:href="#CMR17-50" transform="scale(0.996264)"/>
      <use xlink:href="#CMR17-72" transform="translate(62.586301 0)scale(0.996264)"/>
      <use xlink:href="#CMR17-6f" transform="translate(97.867068 0)scale(0.996264)"/>
      <use xlink:href="#CMR17-70" transform="translate(143.557545 0)scale(0.996264)"/>
      <use xlink:href="#CMR17-6f" transform="translate(197.055354 0)scale(0.996264)"/>
      <use xlink:href="#CMR17-72" transform="translate(242.745831 0)scale(0.996264)"/>
      <use xlink:href="#CMR17-74" transform="translate(278.026599 0)scale(0.996264)"/>
      <use xlink:href="#CMR17-69" transform="translate(313.307367 0)scale(0.996264)"/>
      <use xlink:href="#CMR17-6f" transform="translate(338.178425 0)scale(0.996264)"/>
      <use xlink:href="#CMR17-6e" transform="translate(383.868902 0)scale(0.996264)"/>
     </g>
    </g>
   </g>
   <g id="line2d_69">
    <path d="M 510.919242 3.6 
L 510.919242 3.610654 
L 569.726575 3.718118 
L 569.726575 3.728958 
L 588.804417 3.838319 
L 588.804417 3.849353 
L 591.701115 3.949465 
L 591.701115 3.96068 
L 597.937582 4.062454 
L 597.937582 4.073857 
L 602.571937 4.177348 
L 602.65129 4.200562 
L 606.409421 4.306011 
L 606.43553 4.329668 
L 608.315124 4.43715 
L 608.371944 4.461268 
L 610.039992 4.570864 
L 610.039992 4.58315 
L 611.112645 4.682251 
L 611.112645 4.694741 
L 612.67189 4.795491 
L 612.67189 4.80819 
L 614.091934 4.910644 
L 614.091934 4.92356 
L 615.852948 5.027777 
L 615.963276 5.054083 
L 616.974101 5.160331 
L 617.06632 5.187155 
L 618.485768 5.295516 
L 618.562222 5.322878 
L 619.311717 5.433437 
L 619.362256 5.46136 
L 620.746103 5.559999 
L 620.746103 5.574208 
L 621.519618 5.674508 
L 621.535165 5.703438 
L 622.891881 5.805672 
L 622.891881 5.820403 
L 623.534738 5.924422 
L 623.606858 5.984582 
L 624.292081 6.091157 
L 624.292081 6.106519 
L 625.131397 6.215035 
L 625.131397 6.230679 
L 626.305372 6.341206 
L 626.402292 6.373118 
L 627.250269 6.469759 
L 627.337433 6.551353 
L 627.989632 6.650575 
L 628.03883 6.683972 
L 628.46185 6.785158 
L 628.46185 6.80217 
L 628.749627 6.90514 
L 628.816678 6.939812 
L 629.29621 7.0449 
L 629.367505 7.080293 
L 630.229557 7.187588 
L 630.229557 7.205636 
L 630.787934 7.314939 
L 630.787934 7.333328 
L 631.289888 7.426024 
L 631.289888 7.444716 
L 631.654955 7.53895 
L 631.753146 7.634507 
L 632.426695 7.731423 
L 632.501617 7.790241 
L 632.981088 7.889414 
L 633.010517 7.929491 
L 633.525842 8.030728 
L 633.601888 8.092199 
L 633.923248 8.195901 
L 633.963527 8.237828 
L 634.178295 8.343788 
L 634.178295 8.365179 
L 634.590348 8.473154 
L 634.623296 8.53877 
L 635.022406 8.649554 
L 635.022406 8.671929 
L 635.721252 8.762169 
L 635.829794 8.853621 
L 636.16884 8.946318 
L 636.252611 9.016677 
L 636.676012 9.111634 
L 636.774642 9.159614 
L 636.996178 9.256599 
L 636.996178 9.281062 
L 637.751999 9.379804 
L 637.791556 9.454811 
L 638.432003 9.556123 
L 638.432003 9.581688 
L 639.030732 9.684918 
L 639.138666 9.737126 
L 639.700846 9.842757 
L 639.807219 10.00434 
L 640.520144 10.11423 
L 640.596439 10.169848 
L 641.246908 10.254134 
L 641.343003 10.339476 
L 641.559688 10.425901 
L 641.640778 10.484133 
L 641.900045 10.572425 
L 641.998873 10.691956 
L 642.270873 10.783 
L 642.276569 10.84438 
L 642.582664 10.937498 
L 642.638964 11.000292 
L 643.230609 11.095581 
L 643.29805 11.224743 
L 643.645032 11.323247 
L 643.669298 11.423196 
L 643.940092 11.524633 
L 643.98293 11.593107 
L 644.23074 11.697125 
L 644.23074 11.732154 
L 644.810288 11.838334 
L 644.810288 11.874098 
L 645.209788 11.982532 
L 645.287959 12.055791 
L 645.692814 12.129847 
L 645.721947 12.204717 
L 646.050546 12.280418 
L 646.052039 12.356971 
L 646.976789 12.434393 
L 647.026417 12.512705 
L 647.319804 12.591927 
L 647.39919 12.672082 
L 647.481913 12.753191 
L 647.485803 12.835277 
L 647.822695 12.918365 
L 647.822695 12.960291 
L 648.098937 13.044927 
L 648.179586 13.173885 
L 648.58484 13.261233 
L 648.58484 13.305331 
L 648.949708 13.394392 
L 649.032807 13.530205 
L 649.134815 13.622275 
L 649.134815 13.668781 
L 649.478945 13.762756 
L 649.478945 13.810234 
L 650.577946 13.906195 
L 650.648466 14.003526 
L 651.318424 14.102268 
L 651.399773 14.304151 
L 651.626905 14.407382 
L 651.71742 14.5122 
L 651.96927 14.618657 
L 651.96927 14.672515 
L 652.26032 14.781527 
L 652.339105 14.948386 
L 652.630418 15.004927 
L 652.693876 15.119435 
L 652.955247 15.177419 
L 652.955247 15.2359 
L 653.640655 15.294888 
L 653.73577 15.414419 
L 653.892336 15.47498 
L 653.892336 15.536084 
L 654.446105 15.597742 
L 654.446105 15.659962 
L 654.799351 15.722756 
L 654.823878 15.850106 
L 655.248521 15.914686 
L 655.340189 16.11218 
L 655.436131 16.179305 
L 655.436131 16.247097 
L 655.616589 16.315571 
L 655.616589 16.384739 
L 656.472794 16.454618 
L 656.472794 16.52522 
L 656.624288 16.596562 
L 656.624288 16.668659 
L 657.65199 16.741526 
L 657.65199 16.815182 
L 658.206749 16.889643 
L 658.303062 17.118035 
L 658.696512 17.1959 
L 658.696512 17.274665 
L 659.542005 17.35435 
L 659.542005 17.43498 
L 660.56417 17.516574 
L 660.570817 17.682755 
L 661.667125 17.767391 
L 661.667125 17.853091 
L 662.086564 17.939883 
L 662.086564 18.027795 
L 662.663926 18.116856 
L 662.749101 18.298548 
L 663.036386 18.391245 
L 663.036386 18.48522 
L 663.519106 18.580509 
L 663.536469 18.775181 
L 663.751853 18.874644 
L 663.751853 18.97558 
L 664.365882 19.078035 
L 664.365882 19.182053 
L 664.706709 19.287684 
L 664.706709 19.394979 
L 665.168503 19.503991 
L 665.168503 19.614775 
L 665.549436 19.614775 
L 665.65283 19.841898 
L 666.066102 19.841898 
L 666.171629 20.076855 
L 666.266027 20.076855 
L 666.314715 20.320205 
L 666.486622 20.320205 
L 666.486622 20.445219 
L 666.890933 20.445219 
L 666.890933 20.57257 
L 667.874379 20.57257 
L 667.874379 20.702347 
L 668.297509 20.702347 
L 668.297509 20.834644 
L 668.472951 20.834644 
L 668.472951 20.96956 
L 668.907931 20.96956 
L 668.907931 21.107203 
L 669.089766 21.107203 
L 669.089766 21.247684 
L 669.270762 21.247684 
L 669.270762 21.391122 
L 669.68634 21.391122 
L 669.697018 21.687389 
L 669.878189 21.687389 
L 669.93155 21.997128 
L 670.17991 21.997128 
L 670.17991 22.157443 
L 671.078782 22.157443 
L 671.078782 22.321621 
L 671.931819 22.321621 
L 671.931819 22.489854 
L 672.344065 22.489854 
L 672.344065 22.662346 
L 672.82439 22.662346 
L 672.82439 22.839319 
L 674.215486 22.839319 
L 674.261933 23.207683 
L 675.679238 23.207683 
L 675.679238 23.399613 
L 676.561434 23.399613 
L 676.561434 23.597108 
L 677.580358 23.597108 
L 677.580358 23.800498 
L 677.736222 23.800498 
L 677.736222 24.010148 
L 678.479492 24.010148 
L 678.561026 24.449854 
L 678.863177 24.449854 
L 678.868136 24.919907 
L 679.799158 24.919907 
L 679.799158 25.167683 
L 680.466951 25.167683 
L 680.466951 25.42481 
L 680.812027 25.42481 
L 680.812027 25.692024 
L 681.738187 25.692024 
L 681.738187 25.970147 
L 682.081624 25.970147 
L 682.081624 26.260109 
L 683.261516 26.260109 
L 683.261516 26.562962 
L 683.465333 26.562962 
L 683.465333 26.879907 
L 683.807846 26.879907 
L 683.807846 27.212318 
L 683.965385 27.212318 
L 683.965385 27.561783 
L 684.379746 27.561783 
L 684.379746 27.930147 
L 686.487186 27.930147 
L 686.487186 28.319571 
L 688.009857 28.319571 
L 688.009857 28.732611 
L 688.311759 28.732611 
L 688.311759 29.172317 
L 688.832724 29.172317 
L 688.832724 29.642371 
L 689.001965 29.642371 
L 689.001965 30.147274 
L 691.289077 30.147274 
L 691.289077 30.692611 
L 693.837348 30.692611 
L 693.837348 31.285426 
L 695.140263 31.285426 
L 695.140263 31.934781 
L 695.296931 31.934781 
L 695.296931 32.65261 
L 702.168886 32.65261 
L 702.168886 33.455075 
L 707.020702 33.455075 
L 707.020702 34.364834 
L 707.36645 34.364834 
L 707.36645 35.415074 
L 707.986746 35.415074 
L 707.986746 36.657245 
L 711.811441 36.657245 
L 711.811441 38.177538 
L 717.406406 38.177538 
L 717.406406 40.137538 
L 741.443646 40.137538 
L 741.443646 42.900002 
L 790.940887 42.900002 
L 790.940887 47.622465 
L 830.689739 47.622465 
L 830.689739 257.32 
L 830.689739 257.32 
" clip-path="url(#pbc4b606cfc)" style="fill: none; stroke: #e8c767; stroke-width: 2.25; stroke-linecap: square"/>
   </g>
   <g id="line2d_70">
    <path d="M 510.919242 3.600024 
L 514.149247 3.600041 
L 517.379252 3.60007 
L 520.609257 3.600118 
L 523.839262 3.600196 
L 527.069267 3.60032 
L 530.299272 3.600517 
L 533.529277 3.600824 
L 536.759282 3.601295 
L 539.989287 3.602009 
L 543.219292 3.603078 
L 546.449297 3.604656 
L 549.679302 3.606952 
L 552.909307 3.610248 
L 556.139312 3.614918 
L 559.369317 3.621444 
L 562.599322 3.630442 
L 565.829327 3.642686 
L 569.059332 3.659126 
L 572.289337 3.680917 
L 575.519342 3.709429 
L 578.749347 3.746267 
L 581.979352 3.793278 
L 585.209357 3.852549 
L 588.439362 3.926403 
L 591.669367 4.017383 
L 594.899372 4.128232 
L 598.129377 4.261864 
L 601.359382 4.421329 
L 604.589387 4.609781 
L 607.819392 4.830438 
L 611.049397 5.086546 
L 614.279402 5.381342 
L 617.509407 5.718022 
L 620.739412 6.099715 
L 623.969418 6.529454 
L 627.199423 7.010164 
L 630.429428 7.544638 
L 633.659433 8.135535 
L 636.889438 8.785368 
L 640.119443 9.496505 
L 643.349448 10.271164 
L 646.579453 11.11142 
L 649.809458 12.019204 
L 653.039463 12.996313 
L 656.269468 14.044414 
L 659.499473 15.16505 
L 662.729478 16.359649 
L 665.959483 17.629531 
L 669.189488 18.975915 
L 672.419493 20.399926 
L 675.649498 21.902603 
L 678.879503 23.484904 
L 682.109508 25.147715 
L 685.339513 26.891853 
L 688.569518 28.718074 
L 691.799523 30.627074 
L 695.029528 32.6195 
L 698.259533 34.695948 
L 701.489538 36.856973 
L 704.719543 39.103086 
L 707.949548 41.434764 
L 711.179553 43.852448 
L 714.409558 46.356549 
L 717.639563 48.947448 
L 720.869568 51.625501 
L 724.099573 54.391039 
L 727.329578 57.244373 
L 730.559583 60.185789 
L 733.789588 63.215558 
L 737.019593 66.333932 
L 740.249598 69.541148 
L 743.479603 72.837427 
L 746.709608 76.222977 
L 749.939614 79.697993 
L 753.169619 83.26266 
L 756.399624 86.917148 
L 759.629629 90.661621 
L 762.859634 94.496233 
L 766.089639 98.421127 
L 769.319644 102.43644 
L 772.549649 106.542301 
L 775.779654 110.738832 
L 779.009659 115.026148 
L 782.239664 119.404359 
L 785.469669 123.873568 
L 788.699674 128.433873 
L 791.929679 133.085368 
L 795.159684 137.828141 
L 798.389689 142.662277 
L 801.619694 147.587855 
L 804.849699 152.604954 
L 808.079704 157.713642 
L 811.309709 162.913987 
L 814.539714 168.206067 
L 817.769719 173.589948 
L 820.999724 179.06568 
L 824.229729 184.633266 
L 827.459734 190.292697 
L 830.689739 196.044575 
" clip-path="url(#pbc4b606cfc)" style="fill: none; stroke: #3a578a; stroke-width: 2; stroke-linecap: square"/>
   </g>
   <g id="patch_9">
    <path d="M 633.715823 205.666804 
L 633.715823 3.6 
" style="fill: none; stroke: #ffffff; stroke-width: 1.875; stroke-linejoin: miter; stroke-linecap: square"/>
   </g>
   <g id="patch_10">
    <path d="M 633.715823 205.666804 
L 828.72 205.666804 
" style="fill: none; stroke: #ffffff; stroke-width: 1.875; stroke-linejoin: miter; stroke-linecap: square"/>
   </g>
   <g id="legend_3">
    <g id="line2d_71">
     <path d="M 648.565823 158.849151 
L 665.065823 158.849151 
L 665.065823 158.849151 
L 681.565823 158.849151 
L 681.565823 158.849151 
" style="fill: none; stroke: #e8c767; stroke-width: 2.25; stroke-linecap: square"/>
    </g>
    <g id="text_30">
     <!-- Empirical -->
     <g transform="translate(694.765823 164.624151)scale(0.165 -0.165)">
      <use xlink:href="#CMR17-45" transform="scale(0.996264)"/>
      <use xlink:href="#CMR17-6d" transform="translate(62.586301 0)scale(0.996264)"/>
      <use xlink:href="#CMR17-70" transform="translate(139.50589 0)scale(0.996264)"/>
      <use xlink:href="#CMR17-69" transform="translate(190.40126 0)scale(0.996264)"/>
      <use xlink:href="#CMR17-72" transform="translate(215.272319 0)scale(0.996264)"/>
      <use xlink:href="#CMR17-69" transform="translate(250.553086 0)scale(0.996264)"/>
      <use xlink:href="#CMR17-63" transform="translate(275.424145 0)scale(0.996264)"/>
      <use xlink:href="#CMR17-61" transform="translate(315.909805 0)scale(0.996264)"/>
      <use xlink:href="#CMR17-6c" transform="translate(361.600283 0)scale(0.996264)"/>
     </g>
    </g>
    <g id="line2d_72">
     <path d="M 648.565823 181.845477 
L 665.065823 181.845477 
L 681.565823 181.845477 
" style="fill: none; stroke: #3a578a; stroke-width: 2; stroke-linecap: square"/>
    </g>
    <g id="text_31">
     <!-- Fitted normal -->
     <g transform="translate(694.765823 187.620477)scale(0.165 -0.165)">
      <use xlink:href="#CMR17-46" transform="scale(0.996264)"/>
      <use xlink:href="#CMR17-69" transform="translate(59.983847 0)scale(0.996264)"/>
      <use xlink:href="#CMR17-74" transform="translate(84.854905 0)scale(0.996264)"/>
      <use xlink:href="#CMR17-74" transform="translate(120.135673 0)scale(0.996264)"/>
      <use xlink:href="#CMR17-65" transform="translate(155.416441 0)scale(0.996264)"/>
      <use xlink:href="#CMR17-64" transform="translate(195.902101 0)scale(0.996264)"/>
      <use xlink:href="#CMR17-6e" transform="translate(276.873437 0)scale(0.996264)"/>
      <use xlink:href="#CMR17-6f" transform="translate(327.768807 0)scale(0.996264)"/>
      <use xlink:href="#CMR17-72" transform="translate(373.459284 0)scale(0.996264)"/>
      <use xlink:href="#CMR17-6d" transform="translate(408.740052 0)scale(0.996264)"/>
      <use xlink:href="#CMR17-61" transform="translate(485.659642 0)scale(0.996264)"/>
      <use xlink:href="#CMR17-6c" transform="translate(531.350119 0)scale(0.996264)"/>
     </g>
    </g>
   </g>
  </g>
 </g>
 <defs>
  <clipPath id="pc554c8eb0f">
   <rect x="66.840221" y="3.6" width="195.004177" height="202.066804"/>
  </clipPath>
  <clipPath id="p4272deb8f8">
   <rect x="350.278022" y="3.6" width="195.004177" height="202.066804"/>
  </clipPath>
  <clipPath id="pbc4b606cfc">
   <rect x="633.715823" y="3.6" width="195.004177" height="202.066804"/>
  </clipPath>
 </defs>
</svg>
