<?xml version="1.0" encoding="utf-8" standalone="no"?>
<!DOCTYPE svg PUBLIC "-//W3C//DTD SVG 1.1//EN"
  "http://www.w3.org/Graphics/SVG/1.1/DTD/svg11.dtd">
<svg xmlns:xlink="http://www.w3.org/1999/xlink" width="688.32pt" height="328.283485pt" viewBox="0 0 688.32 328.283485" xmlns="http://www.w3.org/2000/svg" version="1.1">
 <metadata>
  <rdf:RDF xmlns:dc="http://purl.org/dc/elements/1.1/" xmlns:cc="http://creativecommons.org/ns#" xmlns:rdf="http://www.w3.org/1999/02/22-rdf-syntax-ns#">
   <cc:Work>
    <dc:type rdf:resource="http://purl.org/dc/dcmitype/StillImage"/>
    <dc:date>2022-05-07T22:35:02.062853</dc:date>
    <dc:format>image/svg+xml</dc:format>
    <dc:creator>
     <cc:Agent>
      <dc:title>Matplotlib v3.5.1, https://matplotlib.org/</dc:title>
     </cc:Agent>
    </dc:creator>
   </cc:Work>
  </rdf:RDF>
 </metadata>
 <defs>
  <style type="text/css">*{stroke-linejoin: round; stroke-linecap: butt}</style>
 </defs>
 <g id="figure_1">
  <g id="patch_1">
   <path d="M 0 328.283485 
L 688.32 328.283485 
L 688.32 0 
L 0 0 
z
" style="fill: #ffffff"/>
  </g>
  <g id="axes_1">
   <g id="patch_2">
    <path d="M 59.496058 277.630289 
L 342.14342 277.630289 
L 342.14342 3.961209 
L 59.496058 3.961209 
z
" style="fill: #e5e5e5"/>
   </g>
   <g id="matplotlib.axis_1">
    <g id="xtick_1">
     <g id="line2d_1">
      <path d="M 127.102632 277.630289 
L 127.102632 3.961209 
" clip-path="url(#pdc5a309e82)" style="fill: none; stroke: #ffffff; stroke-width: 1.5; stroke-linecap: square"/>
     </g>
     <g id="line2d_2">
      <defs>
       <path id="md809138f9f" d="M 0 0 
L 0 9 
" style="stroke: #555555; stroke-width: 1.875"/>
      </defs>
      <g>
       <use xlink:href="#md809138f9f" x="127.102632" y="277.630289" style="fill: #555555; stroke: #555555; stroke-width: 1.875"/>
      </g>
     </g>
     <g id="text_1">
      <!-- $\mathdefault{−4}$ -->
      <g style="fill: #555555" transform="translate(116.685991 301.545794)scale(0.165 -0.165)">
       <defs>
        <path id="CMSY10-0" d="M 4218 1472 
C 4326 1472 4442 1472 4442 1600 
C 4442 1728 4326 1728 4218 1728 
L 755 1728 
C 646 1728 531 1728 531 1600 
C 531 1472 646 1472 755 1472 
L 4218 1472 
z
" transform="scale(0.015625)"/>
        <path id="CMR17-34" d="M 2150 4122 
C 2150 4256 2144 4256 2029 4256 
L 128 1254 
L 128 1088 
L 1779 1088 
L 1779 457 
C 1779 224 1766 160 1318 160 
L 1197 160 
L 1197 0 
C 1402 0 1747 0 1965 0 
C 2182 0 2528 0 2733 0 
L 2733 160 
L 2611 160 
C 2163 160 2150 224 2150 457 
L 2150 1088 
L 2803 1088 
L 2803 1254 
L 2150 1254 
L 2150 4122 
z
M 1798 3703 
L 1798 1254 
L 256 1254 
L 1798 3703 
z
" transform="scale(0.015625)"/>
       </defs>
       <use xlink:href="#CMSY10-0" transform="scale(0.996264)"/>
       <use xlink:href="#CMR17-34" transform="translate(77.487468 0)scale(0.996264)"/>
      </g>
     </g>
    </g>
    <g id="xtick_2">
     <g id="line2d_3">
      <path d="M 213.627335 277.630289 
L 213.627335 3.961209 
" clip-path="url(#pdc5a309e82)" style="fill: none; stroke: #ffffff; stroke-width: 1.5; stroke-linecap: square"/>
     </g>
     <g id="line2d_4">
      <g>
       <use xlink:href="#md809138f9f" x="213.627335" y="277.630289" style="fill: #555555; stroke: #555555; stroke-width: 1.875"/>
      </g>
     </g>
     <g id="text_2">
      <!-- $\mathdefault{−2}$ -->
      <g style="fill: #555555" transform="translate(203.210693 301.545794)scale(0.165 -0.165)">
       <defs>
        <path id="CMR17-32" d="M 2669 989 
L 2554 989 
C 2490 536 2438 459 2413 420 
C 2381 369 1920 369 1830 369 
L 602 369 
C 832 619 1280 1072 1824 1597 
C 2214 1967 2669 2402 2669 3035 
C 2669 3790 2067 4224 1395 4224 
C 691 4224 262 3604 262 3030 
C 262 2780 448 2748 525 2748 
C 589 2748 781 2787 781 3010 
C 781 3207 614 3264 525 3264 
C 486 3264 448 3258 422 3245 
C 544 3790 915 4058 1306 4058 
C 1862 4058 2227 3617 2227 3035 
C 2227 2479 1901 2000 1536 1584 
L 262 146 
L 262 0 
L 2515 0 
L 2669 989 
z
" transform="scale(0.015625)"/>
       </defs>
       <use xlink:href="#CMSY10-0" transform="scale(0.996264)"/>
       <use xlink:href="#CMR17-32" transform="translate(77.487468 0)scale(0.996264)"/>
      </g>
     </g>
    </g>
    <g id="xtick_3">
     <g id="line2d_5">
      <path d="M 300.152037 277.630289 
L 300.152037 3.961209 
" clip-path="url(#pdc5a309e82)" style="fill: none; stroke: #ffffff; stroke-width: 1.5; stroke-linecap: square"/>
     </g>
     <g id="line2d_6">
      <g>
       <use xlink:href="#md809138f9f" x="300.152037" y="277.630289" style="fill: #555555; stroke: #555555; stroke-width: 1.875"/>
      </g>
     </g>
     <g id="text_3">
      <!-- $\mathdefault{0}$ -->
      <g style="fill: #555555" transform="translate(296.12811 301.545794)scale(0.165 -0.165)">
       <defs>
        <path id="CMR17-30" d="M 2688 2025 
C 2688 2416 2682 3080 2413 3591 
C 2176 4039 1798 4198 1466 4198 
C 1158 4198 768 4058 525 3597 
C 269 3118 243 2524 243 2025 
C 243 1661 250 1106 448 619 
C 723 -39 1216 -128 1466 -128 
C 1760 -128 2208 -7 2470 600 
C 2662 1042 2688 1559 2688 2025 
z
M 1466 -26 
C 1056 -26 813 325 723 812 
C 653 1188 653 1738 653 2096 
C 653 2588 653 2997 736 3387 
C 858 3929 1216 4096 1466 4096 
C 1728 4096 2067 3923 2189 3400 
C 2272 3036 2278 2607 2278 2096 
C 2278 1680 2278 1169 2202 792 
C 2067 95 1690 -26 1466 -26 
z
" transform="scale(0.015625)"/>
       </defs>
       <use xlink:href="#CMR17-30" transform="scale(0.996264)"/>
      </g>
     </g>
    </g>
    <g id="xtick_4">
     <g id="line2d_7">
      <defs>
       <path id="m57ad87d4fa" d="M 0 0 
L 0 6 
" style="stroke: #555555; stroke-width: 1.5"/>
      </defs>
      <g>
       <use xlink:href="#m57ad87d4fa" x="62.209105" y="277.630289" style="fill: #555555; stroke: #555555; stroke-width: 1.5"/>
      </g>
     </g>
    </g>
    <g id="xtick_5">
     <g id="line2d_8">
      <g>
       <use xlink:href="#m57ad87d4fa" x="83.840281" y="277.630289" style="fill: #555555; stroke: #555555; stroke-width: 1.5"/>
      </g>
     </g>
    </g>
    <g id="xtick_6">
     <g id="line2d_9">
      <g>
       <use xlink:href="#m57ad87d4fa" x="105.471456" y="277.630289" style="fill: #555555; stroke: #555555; stroke-width: 1.5"/>
      </g>
     </g>
    </g>
    <g id="xtick_7">
     <g id="line2d_10">
      <g>
       <use xlink:href="#m57ad87d4fa" x="148.733808" y="277.630289" style="fill: #555555; stroke: #555555; stroke-width: 1.5"/>
      </g>
     </g>
    </g>
    <g id="xtick_8">
     <g id="line2d_11">
      <g>
       <use xlink:href="#m57ad87d4fa" x="170.364983" y="277.630289" style="fill: #555555; stroke: #555555; stroke-width: 1.5"/>
      </g>
     </g>
    </g>
    <g id="xtick_9">
     <g id="line2d_12">
      <g>
       <use xlink:href="#m57ad87d4fa" x="191.996159" y="277.630289" style="fill: #555555; stroke: #555555; stroke-width: 1.5"/>
      </g>
     </g>
    </g>
    <g id="xtick_10">
     <g id="line2d_13">
      <g>
       <use xlink:href="#m57ad87d4fa" x="235.25851" y="277.630289" style="fill: #555555; stroke: #555555; stroke-width: 1.5"/>
      </g>
     </g>
    </g>
    <g id="xtick_11">
     <g id="line2d_14">
      <g>
       <use xlink:href="#m57ad87d4fa" x="256.889686" y="277.630289" style="fill: #555555; stroke: #555555; stroke-width: 1.5"/>
      </g>
     </g>
    </g>
    <g id="xtick_12">
     <g id="line2d_15">
      <g>
       <use xlink:href="#m57ad87d4fa" x="278.520862" y="277.630289" style="fill: #555555; stroke: #555555; stroke-width: 1.5"/>
      </g>
     </g>
    </g>
    <g id="xtick_13">
     <g id="line2d_16">
      <g>
       <use xlink:href="#m57ad87d4fa" x="321.783213" y="277.630289" style="fill: #555555; stroke: #555555; stroke-width: 1.5"/>
      </g>
     </g>
    </g>
    <g id="text_4">
     <!-- x+y -->
     <g style="fill: #555555" transform="translate(185.672698 321.195421)scale(0.18 -0.18)">
      <defs>
       <path id="CMR17-78" d="M 1664 1477 
C 1856 1726 2074 2006 2253 2216 
C 2464 2458 2707 2560 2989 2560 
L 2989 2726 
C 2880 2726 2656 2726 2541 2726 
C 2368 2726 2170 2726 2022 2732 
L 2022 2566 
C 2112 2553 2163 2489 2163 2400 
C 2163 2285 2099 2215 2067 2171 
L 1594 1573 
L 1030 2306 
C 973 2376 973 2388 973 2420 
C 973 2497 1037 2560 1146 2560 
L 1146 2732 
C 992 2726 717 2726 557 2726 
C 384 2726 179 2726 38 2732 
L 38 2560 
C 384 2560 461 2534 614 2343 
L 1350 1395 
C 1363 1382 1395 1344 1395 1325 
C 1395 1299 838 619 768 530 
C 480 185 179 160 6 160 
L 6 0 
C 115 0 339 0 454 0 
C 582 0 864 0 979 -6 
L 979 160 
C 941 166 838 179 838 325 
C 838 440 890 510 947 586 
L 1478 1236 
L 2035 512 
C 2086 442 2163 346 2163 301 
C 2163 211 2086 160 1984 160 
L 1984 -6 
C 2138 0 2413 0 2573 0 
C 2746 0 2950 0 3091 -6 
L 3091 160 
C 2771 160 2675 172 2522 370 
L 1664 1477 
z
" transform="scale(0.015625)"/>
       <path id="CMR17-2b" d="M 2413 1472 
L 4109 1472 
C 4198 1472 4307 1472 4307 1580 
C 4307 1695 4205 1695 4109 1695 
L 2413 1695 
L 2413 3386 
C 2413 3475 2413 3584 2304 3584 
C 2189 3584 2189 3482 2189 3386 
L 2189 1695 
L 493 1695 
C 403 1695 294 1695 294 1587 
C 294 1472 397 1472 493 1472 
L 2189 1472 
L 2189 -218 
C 2189 -307 2189 -416 2298 -416 
C 2413 -416 2413 -314 2413 -218 
L 2413 1472 
z
" transform="scale(0.015625)"/>
       <path id="CMR17-79" d="M 2496 2197 
C 2656 2586 2944 2586 3034 2586 
L 3034 2752 
C 2912 2752 2752 2752 2630 2752 
C 2496 2752 2285 2752 2157 2758 
L 2157 2592 
C 2400 2573 2406 2394 2406 2343 
C 2406 2280 2394 2248 2362 2171 
L 1664 449 
L 902 2306 
C 870 2382 870 2426 870 2433 
C 870 2573 1018 2586 1171 2586 
L 1171 2758 
C 1018 2752 742 2752 582 2752 
C 410 2752 205 2752 64 2758 
L 64 2586 
C 410 2586 448 2554 531 2350 
L 1485 15 
C 1197 -738 1030 -1178 627 -1178 
C 557 -1178 397 -1159 282 -1044 
C 429 -1031 493 -942 493 -833 
C 493 -725 416 -629 288 -629 
C 147 -629 77 -725 77 -840 
C 77 -1095 339 -1280 627 -1280 
C 998 -1280 1229 -922 1357 -604 
L 2496 2197 
z
" transform="scale(0.015625)"/>
      </defs>
      <use xlink:href="#CMR17-78" transform="scale(0.996264)"/>
      <use xlink:href="#CMR17-2b" transform="translate(48.292916 0)scale(0.996264)"/>
      <use xlink:href="#CMR17-79" transform="translate(120.007704 0)scale(0.996264)"/>
     </g>
    </g>
   </g>
   <g id="matplotlib.axis_2">
    <g id="ytick_1">
     <g id="line2d_17">
      <path d="M 59.496058 265.190792 
L 342.14342 265.190792 
" clip-path="url(#pdc5a309e82)" style="fill: none; stroke: #ffffff; stroke-width: 1.5; stroke-linecap: square"/>
     </g>
     <g id="line2d_18">
      <defs>
       <path id="mf1d3b83798" d="M 0 0 
L -9 0 
" style="stroke: #555555; stroke-width: 1.875"/>
      </defs>
      <g>
       <use xlink:href="#mf1d3b83798" x="59.496058" y="265.190792" style="fill: #555555; stroke: #555555; stroke-width: 1.875"/>
      </g>
     </g>
     <g id="text_5">
      <!-- $\mathdefault{0.0}$ -->
      <g style="fill: #555555" transform="translate(26.429323 270.898545)scale(0.165 -0.165)">
       <defs>
        <path id="CMMI12-3a" d="M 1178 307 
C 1178 492 1024 619 870 619 
C 685 619 557 466 557 313 
C 557 128 710 0 864 0 
C 1050 0 1178 153 1178 307 
z
" transform="scale(0.015625)"/>
       </defs>
       <use xlink:href="#CMR17-30" transform="scale(0.996264)"/>
       <use xlink:href="#CMMI12-3a" transform="translate(45.690477 0)scale(0.996264)"/>
       <use xlink:href="#CMR17-30" transform="translate(72.787654 0)scale(0.996264)"/>
      </g>
     </g>
    </g>
    <g id="ytick_2">
     <g id="line2d_19">
      <path d="M 59.496058 222.543619 
L 342.14342 222.543619 
" clip-path="url(#pdc5a309e82)" style="fill: none; stroke: #ffffff; stroke-width: 1.5; stroke-linecap: square"/>
     </g>
     <g id="line2d_20">
      <g>
       <use xlink:href="#mf1d3b83798" x="59.496058" y="222.543619" style="fill: #555555; stroke: #555555; stroke-width: 1.875"/>
      </g>
     </g>
     <g id="text_6">
      <!-- $\mathdefault{0.2}$ -->
      <g style="fill: #555555" transform="translate(26.429323 228.251371)scale(0.165 -0.165)">
       <use xlink:href="#CMR17-30" transform="scale(0.996264)"/>
       <use xlink:href="#CMMI12-3a" transform="translate(45.690477 0)scale(0.996264)"/>
       <use xlink:href="#CMR17-32" transform="translate(72.787654 0)scale(0.996264)"/>
      </g>
     </g>
    </g>
    <g id="ytick_3">
     <g id="line2d_21">
      <path d="M 59.496058 179.896446 
L 342.14342 179.896446 
" clip-path="url(#pdc5a309e82)" style="fill: none; stroke: #ffffff; stroke-width: 1.5; stroke-linecap: square"/>
     </g>
     <g id="line2d_22">
      <g>
       <use xlink:href="#mf1d3b83798" x="59.496058" y="179.896446" style="fill: #555555; stroke: #555555; stroke-width: 1.875"/>
      </g>
     </g>
     <g id="text_7">
      <!-- $\mathdefault{0.4}$ -->
      <g style="fill: #555555" transform="translate(26.429323 185.604198)scale(0.165 -0.165)">
       <use xlink:href="#CMR17-30" transform="scale(0.996264)"/>
       <use xlink:href="#CMMI12-3a" transform="translate(45.690477 0)scale(0.996264)"/>
       <use xlink:href="#CMR17-34" transform="translate(72.787654 0)scale(0.996264)"/>
      </g>
     </g>
    </g>
    <g id="ytick_4">
     <g id="line2d_23">
      <path d="M 59.496058 137.249272 
L 342.14342 137.249272 
" clip-path="url(#pdc5a309e82)" style="fill: none; stroke: #ffffff; stroke-width: 1.5; stroke-linecap: square"/>
     </g>
     <g id="line2d_24">
      <g>
       <use xlink:href="#mf1d3b83798" x="59.496058" y="137.249272" style="fill: #555555; stroke: #555555; stroke-width: 1.875"/>
      </g>
     </g>
     <g id="text_8">
      <!-- $\mathdefault{0.6}$ -->
      <g style="fill: #555555" transform="translate(26.429323 142.957025)scale(0.165 -0.165)">
       <defs>
        <path id="CMR17-36" d="M 678 2176 
C 678 3690 1395 4032 1811 4032 
C 1946 4032 2272 4009 2400 3776 
C 2298 3776 2106 3776 2106 3553 
C 2106 3381 2246 3323 2336 3323 
C 2394 3323 2566 3348 2566 3560 
C 2566 3954 2246 4179 1805 4179 
C 1043 4179 243 3390 243 1984 
C 243 253 966 -128 1478 -128 
C 2099 -128 2688 427 2688 1283 
C 2688 2081 2170 2662 1517 2662 
C 1126 2662 838 2407 678 1960 
L 678 2176 
z
M 1478 25 
C 691 25 691 1200 691 1436 
C 691 1896 909 2560 1504 2560 
C 1613 2560 1926 2560 2138 2120 
C 2253 1870 2253 1609 2253 1289 
C 2253 944 2253 690 2118 434 
C 1978 171 1773 25 1478 25 
z
" transform="scale(0.015625)"/>
       </defs>
       <use xlink:href="#CMR17-30" transform="scale(0.996264)"/>
       <use xlink:href="#CMMI12-3a" transform="translate(45.690477 0)scale(0.996264)"/>
       <use xlink:href="#CMR17-36" transform="translate(72.787654 0)scale(0.996264)"/>
      </g>
     </g>
    </g>
    <g id="ytick_5">
     <g id="line2d_25">
      <path d="M 59.496058 94.602099 
L 342.14342 94.602099 
" clip-path="url(#pdc5a309e82)" style="fill: none; stroke: #ffffff; stroke-width: 1.5; stroke-linecap: square"/>
     </g>
     <g id="line2d_26">
      <g>
       <use xlink:href="#mf1d3b83798" x="59.496058" y="94.602099" style="fill: #555555; stroke: #555555; stroke-width: 1.875"/>
      </g>
     </g>
     <g id="text_9">
      <!-- $\mathdefault{0.8}$ -->
      <g style="fill: #555555" transform="translate(26.429323 100.309851)scale(0.165 -0.165)">
       <defs>
        <path id="CMR17-38" d="M 1741 2264 
C 2144 2467 2554 2773 2554 3263 
C 2554 3841 1990 4179 1472 4179 
C 890 4179 378 3759 378 3180 
C 378 3021 416 2747 666 2505 
C 730 2442 998 2251 1171 2130 
C 883 1983 211 1634 211 934 
C 211 279 838 -128 1459 -128 
C 2144 -128 2720 362 2720 1010 
C 2720 1590 2330 1857 2074 2029 
L 1741 2264 
z
M 902 2822 
C 851 2854 595 3051 595 3351 
C 595 3739 998 4032 1459 4032 
C 1965 4032 2336 3676 2336 3262 
C 2336 2669 1670 2331 1638 2331 
C 1632 2331 1626 2331 1574 2370 
L 902 2822 
z
M 2080 1519 
C 2176 1449 2483 1240 2483 851 
C 2483 381 2010 25 1472 25 
C 890 25 448 438 448 940 
C 448 1443 838 1862 1280 2060 
L 2080 1519 
z
" transform="scale(0.015625)"/>
       </defs>
       <use xlink:href="#CMR17-30" transform="scale(0.996264)"/>
       <use xlink:href="#CMMI12-3a" transform="translate(45.690477 0)scale(0.996264)"/>
       <use xlink:href="#CMR17-38" transform="translate(72.787654 0)scale(0.996264)"/>
      </g>
     </g>
    </g>
    <g id="ytick_6">
     <g id="line2d_27">
      <path d="M 59.496058 51.954926 
L 342.14342 51.954926 
" clip-path="url(#pdc5a309e82)" style="fill: none; stroke: #ffffff; stroke-width: 1.5; stroke-linecap: square"/>
     </g>
     <g id="line2d_28">
      <g>
       <use xlink:href="#mf1d3b83798" x="59.496058" y="51.954926" style="fill: #555555; stroke: #555555; stroke-width: 1.875"/>
      </g>
     </g>
     <g id="text_10">
      <!-- $\mathdefault{1.0}$ -->
      <g style="fill: #555555" transform="translate(26.429323 57.662678)scale(0.165 -0.165)">
       <defs>
        <path id="CMR17-31" d="M 1702 4058 
C 1702 4192 1696 4192 1606 4192 
C 1357 3916 979 3827 621 3827 
C 602 3827 570 3827 563 3808 
C 557 3795 557 3782 557 3648 
C 755 3648 1088 3686 1344 3839 
L 1344 461 
C 1344 236 1331 160 781 160 
L 589 160 
L 589 0 
C 896 0 1216 0 1523 0 
C 1830 0 2150 0 2458 0 
L 2458 160 
L 2266 160 
C 1715 160 1702 230 1702 458 
L 1702 4058 
z
" transform="scale(0.015625)"/>
       </defs>
       <use xlink:href="#CMR17-31" transform="scale(0.996264)"/>
       <use xlink:href="#CMMI12-3a" transform="translate(45.690477 0)scale(0.996264)"/>
       <use xlink:href="#CMR17-30" transform="translate(72.787654 0)scale(0.996264)"/>
      </g>
     </g>
    </g>
    <g id="ytick_7">
     <g id="line2d_29">
      <path d="M 59.496058 9.307752 
L 342.14342 9.307752 
" clip-path="url(#pdc5a309e82)" style="fill: none; stroke: #ffffff; stroke-width: 1.5; stroke-linecap: square"/>
     </g>
     <g id="line2d_30">
      <g>
       <use xlink:href="#mf1d3b83798" x="59.496058" y="9.307752" style="fill: #555555; stroke: #555555; stroke-width: 1.875"/>
      </g>
     </g>
     <g id="text_11">
      <!-- $\mathdefault{1.2}$ -->
      <g style="fill: #555555" transform="translate(26.429323 15.015505)scale(0.165 -0.165)">
       <use xlink:href="#CMR17-31" transform="scale(0.996264)"/>
       <use xlink:href="#CMMI12-3a" transform="translate(45.690477 0)scale(0.996264)"/>
       <use xlink:href="#CMR17-32" transform="translate(72.787654 0)scale(0.996264)"/>
      </g>
     </g>
    </g>
    <g id="ytick_8">
     <g id="line2d_31">
      <defs>
       <path id="m55bcbf1223" d="M 0 0 
L -6 0 
" style="stroke: #555555; stroke-width: 1.5"/>
      </defs>
      <g>
       <use xlink:href="#m55bcbf1223" x="59.496058" y="275.852586" style="fill: #555555; stroke: #555555; stroke-width: 1.5"/>
      </g>
     </g>
    </g>
    <g id="ytick_9">
     <g id="line2d_32">
      <g>
       <use xlink:href="#m55bcbf1223" x="59.496058" y="254.528999" style="fill: #555555; stroke: #555555; stroke-width: 1.5"/>
      </g>
     </g>
    </g>
    <g id="ytick_10">
     <g id="line2d_33">
      <g>
       <use xlink:href="#m55bcbf1223" x="59.496058" y="243.867206" style="fill: #555555; stroke: #555555; stroke-width: 1.5"/>
      </g>
     </g>
    </g>
    <g id="ytick_11">
     <g id="line2d_34">
      <g>
       <use xlink:href="#m55bcbf1223" x="59.496058" y="233.205412" style="fill: #555555; stroke: #555555; stroke-width: 1.5"/>
      </g>
     </g>
    </g>
    <g id="ytick_12">
     <g id="line2d_35">
      <g>
       <use xlink:href="#m55bcbf1223" x="59.496058" y="211.881826" style="fill: #555555; stroke: #555555; stroke-width: 1.5"/>
      </g>
     </g>
    </g>
    <g id="ytick_13">
     <g id="line2d_36">
      <g>
       <use xlink:href="#m55bcbf1223" x="59.496058" y="201.220032" style="fill: #555555; stroke: #555555; stroke-width: 1.5"/>
      </g>
     </g>
    </g>
    <g id="ytick_14">
     <g id="line2d_37">
      <g>
       <use xlink:href="#m55bcbf1223" x="59.496058" y="190.558239" style="fill: #555555; stroke: #555555; stroke-width: 1.5"/>
      </g>
     </g>
    </g>
    <g id="ytick_15">
     <g id="line2d_38">
      <g>
       <use xlink:href="#m55bcbf1223" x="59.496058" y="169.234652" style="fill: #555555; stroke: #555555; stroke-width: 1.5"/>
      </g>
     </g>
    </g>
    <g id="ytick_16">
     <g id="line2d_39">
      <g>
       <use xlink:href="#m55bcbf1223" x="59.496058" y="158.572859" style="fill: #555555; stroke: #555555; stroke-width: 1.5"/>
      </g>
     </g>
    </g>
    <g id="ytick_17">
     <g id="line2d_40">
      <g>
       <use xlink:href="#m55bcbf1223" x="59.496058" y="147.911066" style="fill: #555555; stroke: #555555; stroke-width: 1.5"/>
      </g>
     </g>
    </g>
    <g id="ytick_18">
     <g id="line2d_41">
      <g>
       <use xlink:href="#m55bcbf1223" x="59.496058" y="126.587479" style="fill: #555555; stroke: #555555; stroke-width: 1.5"/>
      </g>
     </g>
    </g>
    <g id="ytick_19">
     <g id="line2d_42">
      <g>
       <use xlink:href="#m55bcbf1223" x="59.496058" y="115.925686" style="fill: #555555; stroke: #555555; stroke-width: 1.5"/>
      </g>
     </g>
    </g>
    <g id="ytick_20">
     <g id="line2d_43">
      <g>
       <use xlink:href="#m55bcbf1223" x="59.496058" y="105.263892" style="fill: #555555; stroke: #555555; stroke-width: 1.5"/>
      </g>
     </g>
    </g>
    <g id="ytick_21">
     <g id="line2d_44">
      <g>
       <use xlink:href="#m55bcbf1223" x="59.496058" y="83.940306" style="fill: #555555; stroke: #555555; stroke-width: 1.5"/>
      </g>
     </g>
    </g>
    <g id="ytick_22">
     <g id="line2d_45">
      <g>
       <use xlink:href="#m55bcbf1223" x="59.496058" y="73.278512" style="fill: #555555; stroke: #555555; stroke-width: 1.5"/>
      </g>
     </g>
    </g>
    <g id="ytick_23">
     <g id="line2d_46">
      <g>
       <use xlink:href="#m55bcbf1223" x="59.496058" y="62.616719" style="fill: #555555; stroke: #555555; stroke-width: 1.5"/>
      </g>
     </g>
    </g>
    <g id="ytick_24">
     <g id="line2d_47">
      <g>
       <use xlink:href="#m55bcbf1223" x="59.496058" y="41.293132" style="fill: #555555; stroke: #555555; stroke-width: 1.5"/>
      </g>
     </g>
    </g>
    <g id="ytick_25">
     <g id="line2d_48">
      <g>
       <use xlink:href="#m55bcbf1223" x="59.496058" y="30.631339" style="fill: #555555; stroke: #555555; stroke-width: 1.5"/>
      </g>
     </g>
    </g>
    <g id="ytick_26">
     <g id="line2d_49">
      <g>
       <use xlink:href="#m55bcbf1223" x="59.496058" y="19.969546" style="fill: #555555; stroke: #555555; stroke-width: 1.5"/>
      </g>
     </g>
    </g>
    <g id="text_12">
     <!-- $f_{X + Y | X = -1.64}$ -->
     <g style="fill: #555555" transform="translate(16.053285 188.352944)rotate(-90)scale(0.18 -0.18)">
      <defs>
       <path id="CMMI12-66" d="M 2854 2566 
C 2982 2566 3034 2566 3034 2688 
C 3034 2752 2982 2752 2867 2752 
L 2349 2752 
C 2470 3429 2560 3897 2611 4107 
C 2650 4265 2784 4416 2950 4416 
C 3085 4416 3219 4358 3283 4298 
C 3034 4272 2957 4082 2957 3969 
C 2957 3837 3053 3759 3174 3759 
C 3302 3759 3494 3870 3494 4119 
C 3494 4393 3226 4544 2944 4544 
C 2669 4544 2400 4334 2272 4078 
C 2157 3848 2093 3611 1946 2752 
L 1517 2752 
C 1395 2752 1331 2752 1331 2637 
C 1331 2566 1370 2566 1498 2566 
L 1907 2566 
C 1792 1976 1530 542 1382 -137 
C 1274 -689 1178 -1152 858 -1152 
C 838 -1152 653 -1152 538 -1031 
C 864 -1005 864 -726 864 -720 
C 864 -593 768 -517 646 -517 
C 518 -517 326 -625 326 -867 
C 326 -1140 608 -1280 858 -1280 
C 1510 -1280 1779 -118 1850 199 
C 1965 688 2278 2376 2310 2566 
L 2854 2566 
z
" transform="scale(0.015625)"/>
       <path id="CMMI12-58" d="M 3040 2596 
L 2438 3994 
C 2522 4147 2714 4172 2790 4179 
C 2829 4179 2899 4179 2899 4292 
C 2899 4364 2842 4364 2803 4364 
C 2694 4364 2566 4364 2458 4364 
L 2086 4364 
C 1696 4364 1414 4364 1408 4364 
C 1357 4364 1293 4364 1293 4243 
C 1293 4179 1350 4179 1434 4179 
C 1805 4179 1830 4115 1894 3962 
L 2656 2185 
L 1267 693 
C 1037 442 762 198 288 198 
C 211 192 160 192 160 68 
C 160 48 166 0 237 0 
C 326 0 422 0 512 0 
L 813 0 
C 1018 0 1242 0 1440 0 
C 1485 0 1562 0 1562 115 
C 1562 179 1517 185 1478 185 
C 1350 198 1267 268 1267 370 
C 1267 479 1344 557 1530 748 
L 2099 1368 
C 2240 1516 2579 1886 2720 2026 
L 3392 453 
C 3398 441 3424 377 3424 370 
C 3424 313 3283 198 3078 198 
C 3040 198 2970 198 2970 71 
C 2970 0 3034 0 3066 0 
C 3174 0 3302 0 3411 0 
L 4115 0 
C 4230 0 4352 0 4461 0 
C 4506 0 4576 0 4576 130 
C 4576 198 4512 198 4454 198 
C 4070 198 4058 230 3949 465 
L 3104 2441 
L 3917 3316 
C 3981 3381 4128 3542 4186 3606 
C 4461 3896 4717 4160 5235 4160 
C 5299 4179 5363 4179 5363 4292 
C 5363 4364 5306 4364 5280 4364 
C 5190 4364 5094 4364 5005 4364 
L 4710 4364 
C 4506 4364 4282 4364 4083 4364 
C 4038 4364 3962 4364 3962 4249 
C 3962 4185 4006 4179 4045 4179 
C 4147 4167 4256 4116 4256 3994 
L 4250 3982 
C 4243 3937 4230 3873 4160 3797 
L 3040 2596 
z
" transform="scale(0.015625)"/>
       <path id="CMMI12-59" d="M 3763 3645 
L 3910 3791 
C 4192 4078 4429 4149 4653 4167 
C 4723 4173 4781 4179 4781 4288 
C 4781 4352 4717 4352 4704 4352 
C 4627 4352 4544 4352 4467 4352 
L 4205 4352 
C 4019 4352 3821 4352 3642 4352 
C 3597 4352 3526 4352 3526 4226 
C 3526 4166 3590 4160 3610 4160 
C 3802 4160 3802 4064 3802 4026 
C 3802 3956 3750 3860 3622 3713 
L 2099 1969 
L 1376 3911 
C 1338 4000 1338 4013 1338 4026 
C 1338 4160 1600 4160 1677 4160 
C 1754 4160 1824 4160 1824 4279 
C 1824 4352 1766 4352 1728 4352 
C 1619 4352 1491 4352 1382 4352 
L 672 4352 
C 557 4352 435 4352 326 4352 
C 282 4352 211 4352 211 4226 
C 211 4160 269 4160 365 4160 
C 678 4160 736 4102 794 3956 
L 1587 1835 
C 1594 1816 1613 1745 1613 1726 
C 1613 1707 1299 452 1280 388 
C 1229 217 1165 185 755 185 
C 646 185 595 185 595 64 
C 595 0 666 0 685 0 
C 800 0 934 0 1056 0 
L 1811 0 
C 1926 0 2061 0 2176 0 
C 2221 0 2298 0 2298 115 
C 2298 185 2253 185 2144 185 
C 1747 185 1747 230 1747 300 
C 1747 345 1798 548 1830 676 
L 2061 1594 
C 2099 1727 2099 1739 2157 1803 
L 3763 3645 
z
" transform="scale(0.015625)"/>
       <path id="CMSY10-6a" d="M 1018 4570 
C 1018 4685 1018 4800 890 4800 
C 762 4800 762 4685 762 4570 
L 762 -1370 
C 762 -1485 762 -1600 890 -1600 
C 1018 -1600 1018 -1485 1018 -1370 
L 1018 4570 
z
" transform="scale(0.015625)"/>
       <path id="CMR17-3d" d="M 4115 2017 
C 4211 2017 4307 2017 4307 2125 
C 4307 2240 4198 2240 4090 2240 
L 512 2240 
C 403 2240 294 2240 294 2125 
C 294 2017 390 2017 486 2017 
L 4115 2017 
z
M 4090 896 
C 4198 896 4307 896 4307 1011 
C 4307 1119 4211 1119 4115 1119 
L 486 1119 
C 390 1119 294 1119 294 1011 
C 294 896 403 896 512 896 
L 4090 896 
z
" transform="scale(0.015625)"/>
      </defs>
      <use xlink:href="#CMMI12-66" transform="scale(0.996264)"/>
      <use xlink:href="#CMMI12-58" transform="translate(48.083238 -17.987904)scale(0.697382)"/>
      <use xlink:href="#CMR17-2b" transform="translate(110.237747 -17.987904)scale(0.697382)"/>
      <use xlink:href="#CMMI12-59" transform="translate(160.437878 -17.987904)scale(0.697382)"/>
      <use xlink:href="#CMSY10-6a" transform="translate(215.231076 -17.987904)scale(0.697382)"/>
      <use xlink:href="#CMMI12-58" transform="translate(234.602844 -17.987904)scale(0.697382)"/>
      <use xlink:href="#CMR17-3d" transform="translate(296.757353 -17.987904)scale(0.697382)"/>
      <use xlink:href="#CMSY10-0" transform="translate(346.957485 -17.987904)scale(0.697382)"/>
      <use xlink:href="#CMR17-31" transform="translate(401.198478 -17.987904)scale(0.697382)"/>
      <use xlink:href="#CMMI12-3a" transform="translate(433.18166 -17.987904)scale(0.697382)"/>
      <use xlink:href="#CMR17-36" transform="translate(452.149593 -17.987904)scale(0.697382)"/>
      <use xlink:href="#CMR17-34" transform="translate(484.132775 -17.987904)scale(0.697382)"/>
     </g>
    </g>
   </g>
   <g id="line2d_50">
    <path d="M 72.343665 260.524375 
L 74.965626 259.420391 
L 77.587586 258.106403 
L 80.209547 256.555584 
L 82.831508 254.740769 
L 85.453468 252.635242 
L 88.075429 250.213675 
L 90.69739 247.453197 
L 93.31935 244.334588 
L 95.941311 240.843547 
L 98.563272 236.972 
L 101.185232 232.719392 
L 103.807193 228.09389 
L 106.429154 223.113451 
L 109.051115 217.806657 
L 111.673075 212.213269 
L 114.295036 206.384423 
L 116.916997 200.382421 
L 119.538957 194.280076 
L 122.160918 188.159593 
L 124.782879 182.110987 
L 127.404839 176.230069 
L 130.0268 170.61605 
L 132.648761 165.368842 
L 135.270721 160.58615 
L 137.892682 156.360476 
L 140.514643 152.776159 
L 143.136603 149.906583 
L 145.758564 147.811677 
L 148.380525 146.535842 
L 151.002485 146.10638 
L 153.624446 146.532527 
L 156.246407 147.805118 
L 158.868368 149.89692 
L 161.490328 152.763597 
L 164.112289 156.345274 
L 166.73425 160.568615 
L 169.35621 165.34932 
L 171.978171 170.594911 
L 174.600132 176.207699 
L 177.222092 182.087774 
L 179.844053 188.135918 
L 182.466014 194.2563 
L 185.087974 200.35888 
L 187.709935 206.361419 
L 190.331896 212.191064 
L 192.953856 217.785473 
L 195.575817 223.093463 
L 198.197778 228.075231 
L 200.819739 232.702152 
L 203.441699 236.956229 
L 206.06366 240.829259 
L 208.685621 244.321765 
L 211.307581 247.441796 
L 213.929542 250.20363 
L 216.551503 252.62647 
L 219.173463 254.733176 
L 221.795424 256.549068 
L 224.417385 258.10086 
L 227.039345 259.415715 
L 229.661306 260.520462 
L 232.283267 261.440964 
L 234.905227 262.201632 
L 237.527188 262.825085 
L 240.149149 263.331932 
L 242.77111 263.740663 
L 245.39307 264.067635 
L 248.015031 264.327121 
L 250.636992 264.531421 
L 253.258952 264.691004 
L 255.880913 264.814681 
L 258.502874 264.909783 
L 261.124834 264.982344 
L 263.746795 265.037278 
L 266.368756 265.078545 
L 268.990716 265.109308 
L 271.612677 265.132064 
L 274.234638 265.148768 
L 276.856598 265.160937 
L 279.478559 265.169734 
L 282.10052 265.176046 
L 284.722481 265.18054 
L 287.344441 265.183715 
L 289.966402 265.185942 
L 292.588363 265.187492 
L 295.210323 265.188563 
L 297.832284 265.189297 
L 300.454245 265.189797 
L 303.076205 265.190134 
L 305.698166 265.19036 
L 308.320127 265.190511 
L 310.942087 265.19061 
L 313.564048 265.190675 
L 316.186009 265.190718 
L 318.807969 265.190745 
L 321.42993 265.190763 
L 324.051891 265.190774 
L 326.673852 265.190781 
L 329.295812 265.190785 
" clip-path="url(#pdc5a309e82)" style="fill: none; stroke: #4d3c2f; stroke-width: 2.25; stroke-linecap: square"/>
   </g>
   <g id="line2d_51">
    <path d="M 72.343665 265.150172 
L 74.965626 265.117697 
L 77.587586 265.060721 
L 80.209547 264.961946 
L 82.831508 264.792788 
L 85.453468 264.50676 
L 88.075429 264.029544 
L 90.69739 263.244638 
L 93.31935 261.973522 
L 95.941311 259.950026 
L 98.563272 256.790484 
L 101.185232 251.965294 
L 103.807193 244.784334 
L 106.429154 234.418258 
L 109.051115 219.986984 
L 111.673075 200.747602 
L 114.295036 176.392742 
L 116.916997 147.414695 
L 119.538957 115.406988 
L 122.160918 83.110712 
L 124.782879 54.045997 
L 127.404839 31.744114 
L 130.0268 18.838188 
L 132.648761 16.400713 
L 135.270721 23.805955 
L 137.892682 39.114893 
L 140.514643 59.739112 
L 143.136603 83.084958 
L 145.758564 106.987018 
L 148.380525 129.890564 
L 151.002485 150.842625 
L 153.624446 169.380368 
L 156.246407 185.389313 
L 158.868368 198.973864 
L 161.490328 210.357307 
L 164.112289 219.812949 
L 166.73425 227.621185 
L 169.35621 234.045451 
L 171.978171 239.320726 
L 174.600132 243.64976 
L 177.222092 247.203648 
L 179.844053 250.124602 
L 182.466014 252.529616 
L 185.087974 254.514267 
L 187.709935 256.156291 
L 190.331896 257.51874 
L 192.953856 258.652693 
L 195.575817 259.599513 
L 198.197778 260.392715 
L 200.819739 261.059485 
L 203.441699 261.62191 
L 206.06366 262.097966 
L 208.685621 262.502321 
L 211.307581 262.846966 
L 213.929542 263.141733 
L 216.551503 263.394703 
L 219.173463 263.612537 
L 221.795424 263.800741 
L 224.417385 263.963876 
L 227.039345 264.105736 
L 229.661306 264.229481 
L 232.283267 264.337752 
L 234.905227 264.432764 
L 237.527188 264.516376 
L 240.149149 264.590155 
L 242.77111 264.655425 
L 245.39307 264.713307 
L 248.015031 264.764754 
L 250.636992 264.810575 
L 253.258952 264.851462 
L 255.880913 264.888008 
L 258.502874 264.920721 
L 261.124834 264.950038 
L 263.746795 264.976337 
L 266.368756 264.999945 
L 268.990716 265.021147 
L 271.612677 265.040192 
L 274.234638 265.057298 
L 276.856598 265.072656 
L 279.478559 265.086437 
L 282.10052 265.098791 
L 284.722481 265.109854 
L 287.344441 265.119747 
L 289.966402 265.128579 
L 292.588363 265.136449 
L 295.210323 265.143448 
L 297.832284 265.149658 
L 300.454245 265.155154 
L 303.076205 265.160006 
L 305.698166 265.164277 
L 308.320127 265.168026 
L 310.942087 265.171306 
L 313.564048 265.174167 
L 316.186009 265.176654 
L 318.807969 265.178809 
L 321.42993 265.18067 
L 324.051891 265.182271 
L 326.673852 265.183643 
L 329.295812 265.184816 
" clip-path="url(#pdc5a309e82)" style="fill: none; stroke: #c07156; stroke-width: 2.25; stroke-linecap: square"/>
   </g>
   <g id="line2d_52">
    <path d="M 72.343665 264.536775 
L 74.965626 264.287548 
L 77.587586 263.945588 
L 80.209547 263.477151 
L 82.831508 262.8366 
L 85.453468 261.962527 
L 88.075429 260.772862 
L 90.69739 259.158991 
L 93.31935 256.979101 
L 95.941311 254.051517 
L 98.563272 250.149654 
L 101.185232 245.001588 
L 103.807193 238.299114 
L 106.429154 229.723128 
L 109.051115 218.993125 
L 111.673075 205.946337 
L 114.295036 190.643523 
L 116.916997 173.481828 
L 119.538957 155.273741 
L 122.160918 137.237322 
L 124.782879 120.855277 
L 127.404839 107.609498 
L 130.0268 98.665525 
L 132.648761 94.623374 
L 135.270721 95.429429 
L 137.892682 100.467901 
L 140.514643 108.771703 
L 143.136603 119.259497 
L 145.758564 130.924612 
L 148.380525 142.944697 
L 151.002485 154.718021 
L 153.624446 165.850155 
L 156.246407 176.116086 
L 158.868368 185.416072 
L 161.490328 193.735506 
L 164.112289 201.112919 
L 166.73425 207.61662 
L 169.35621 213.328759 
L 171.978171 218.335119 
L 174.600132 222.718995 
L 177.222092 226.557859 
L 179.844053 229.921808 
L 182.466014 232.873129 
L 185.087974 235.466491 
L 187.709935 237.749492 
L 190.331896 239.763354 
L 192.953856 241.543671 
L 195.575817 243.121126 
L 198.197778 244.522162 
L 200.819739 245.769588 
L 203.441699 246.883107 
L 206.06366 247.87978 
L 208.685621 248.774421 
L 211.307581 249.579945 
L 213.929542 250.307653 
L 216.551503 250.967486 
L 219.173463 251.568228 
L 221.795424 252.117692 
L 224.417385 252.622862 
L 227.039345 253.090025 
L 229.661306 253.524872 
L 232.283267 253.932584 
L 234.905227 254.317899 
L 237.527188 254.68517 
L 240.149149 255.038398 
L 242.77111 255.381262 
L 245.39307 255.717134 
L 248.015031 256.049075 
L 250.636992 256.379836 
L 253.258952 256.711833 
L 255.880913 257.04713 
L 258.502874 257.387403 
L 261.124834 257.733907 
L 263.746795 258.08745 
L 266.368756 258.448354 
L 268.990716 258.81644 
L 271.612677 259.191014 
L 274.234638 259.57087 
L 276.856598 259.954317 
L 279.478559 260.339218 
L 282.10052 260.723059 
L 284.722481 261.103033 
L 287.344441 261.476145 
L 289.966402 261.83933 
L 292.588363 262.189581 
L 295.210323 262.52407 
L 297.832284 262.840269 
L 300.454245 263.13605 
L 303.076205 263.40976 
L 305.698166 263.660276 
L 308.320127 263.887021 
L 310.942087 264.089957 
L 313.564048 264.269547 
L 316.186009 264.426695 
L 318.807969 264.562672 
L 321.42993 264.679027 
L 324.051891 264.777502 
L 326.673852 264.859944 
L 329.295812 264.928231 
" clip-path="url(#pdc5a309e82)" style="fill: none; stroke: #e8c767; stroke-width: 2.25; stroke-linecap: square"/>
   </g>
   <g id="patch_3">
    <path d="M 59.496058 277.630289 
L 59.496058 3.961209 
" style="fill: none; stroke: #ffffff; stroke-width: 1.875; stroke-linejoin: miter; stroke-linecap: square"/>
   </g>
   <g id="patch_4">
    <path d="M 59.496058 277.630289 
L 342.14342 277.630289 
" style="fill: none; stroke: #ffffff; stroke-width: 1.875; stroke-linejoin: miter; stroke-linecap: square"/>
   </g>
   <g id="legend_1">
    <g id="line2d_53">
     <path d="M 217.315573 24.586209 
L 233.815573 24.586209 
L 250.315573 24.586209 
" style="fill: none; stroke: #4d3c2f; stroke-width: 2.25; stroke-linecap: square"/>
    </g>
    <g id="text_13">
     <!-- Gaussian -->
     <g transform="translate(263.515573 30.361209)scale(0.165 -0.165)">
      <defs>
       <path id="CMR17-47" d="M 3974 1233 
C 3974 1473 3994 1505 4390 1505 
L 4390 1670 
C 4237 1664 3891 1664 3718 1664 
C 3539 1664 3040 1664 2797 1664 
L 2797 1505 
L 2989 1505 
C 3539 1505 3552 1434 3552 1201 
L 3552 774 
C 3552 63 2720 63 2522 63 
C 1862 63 781 511 781 2160 
C 781 3808 1843 4250 2464 4250 
C 3187 4250 3712 3626 3834 2741 
C 3846 2664 3846 2651 3904 2651 
C 3974 2651 3974 2664 3974 2779 
L 3974 4288 
C 3974 4402 3968 4409 3930 4409 
C 3904 4409 3898 4402 3853 4326 
L 3571 3791 
C 3258 4187 2874 4416 2381 4416 
C 1286 4416 294 3456 294 2148 
C 294 845 1267 -128 2394 -128 
C 2912 -128 3418 56 3616 417 
C 3725 158 3904 -20 3936 -20 
C 3968 -20 3974 -13 3974 100 
L 3974 1233 
z
" transform="scale(0.015625)"/>
       <path id="CMR17-61" d="M 2304 1653 
C 2304 2072 2304 2294 2035 2543 
C 1798 2752 1523 2816 1306 2816 
C 800 2816 435 2407 435 1971 
C 435 1728 627 1728 666 1728 
C 749 1728 896 1778 896 1954 
C 896 2112 774 2181 666 2181 
C 640 2181 608 2174 589 2168 
C 723 2592 1069 2714 1293 2714 
C 1613 2714 1965 2429 1965 1885 
L 1965 1600 
C 1587 1600 1133 1549 774 1357 
C 371 1133 256 813 256 570 
C 256 77 832 -64 1171 -64 
C 1523 -64 1850 139 1990 511 
C 2003 233 2182 -18 2464 -18 
C 2598 -18 2938 70 2938 567 
L 2938 920 
L 2822 920 
L 2822 562 
C 2822 178 2650 128 2566 128 
C 2304 128 2304 458 2304 738 
L 2304 1653 
z
M 1965 870 
C 1965 317 1568 38 1216 38 
C 896 38 646 275 646 570 
C 646 761 730 1100 1101 1305 
C 1408 1478 1760 1504 1965 1504 
L 1965 870 
z
" transform="scale(0.015625)"/>
       <path id="CMR17-75" d="M 1882 2693 
L 1882 2528 
C 2259 2528 2317 2489 2317 2186 
L 2317 1032 
C 2317 500 2029 38 1555 38 
C 1030 38 986 348 986 678 
L 986 2763 
L 211 2693 
L 211 2528 
C 467 2528 640 2528 646 2274 
L 646 1058 
C 646 633 646 361 813 183 
C 896 101 1056 -64 1517 -64 
C 2061 -64 2272 377 2323 506 
L 2330 506 
L 2330 -63 
L 3091 -63 
L 3091 128 
C 2714 128 2656 166 2656 473 
L 2656 2763 
L 1882 2693 
z
" transform="scale(0.015625)"/>
       <path id="CMR17-73" d="M 1978 2697 
C 1978 2813 1971 2819 1933 2819 
C 1907 2819 1901 2813 1824 2717 
C 1805 2691 1747 2626 1728 2601 
C 1523 2819 1235 2819 1126 2819 
C 416 2819 160 2447 160 2076 
C 160 1498 813 1365 998 1325 
C 1402 1243 1542 1217 1677 1101 
C 1760 1025 1901 884 1901 654 
C 1901 384 1747 38 1158 38 
C 602 38 403 460 288 1021 
C 269 1110 269 1117 218 1117 
C 166 1117 160 1110 160 983 
L 160 63 
C 160 -51 166 -58 205 -58 
C 237 -58 243 -51 275 0 
C 314 57 410 211 448 276 
C 576 103 800 -64 1158 -64 
C 1792 -64 2131 283 2131 784 
C 2131 1112 1958 1285 1875 1362 
C 1683 1561 1459 1606 1190 1657 
C 838 1735 390 1825 390 2217 
C 390 2383 480 2737 1126 2737 
C 1811 2737 1850 2094 1862 1888 
C 1869 1856 1901 1849 1920 1849 
C 1978 1849 1978 1869 1978 1978 
L 1978 2697 
z
" transform="scale(0.015625)"/>
       <path id="CMR17-69" d="M 992 3909 
C 992 4049 877 4170 730 4170 
C 589 4170 467 4056 467 3909 
C 467 3769 582 3648 730 3648 
C 870 3648 992 3763 992 3909 
z
M 243 2706 
L 243 2541 
C 602 2541 653 2502 653 2197 
L 653 427 
C 653 184 627 153 218 153 
L 218 -13 
C 371 0 646 0 806 0 
C 960 0 1222 0 1370 -13 
L 1370 153 
C 992 153 979 191 979 420 
L 979 2776 
L 243 2706 
z
" transform="scale(0.015625)"/>
       <path id="CMR17-6e" d="M 2656 1933 
C 2656 2259 2592 2790 1837 2790 
C 1331 2790 1069 2400 973 2144 
L 966 2144 
L 966 2790 
L 211 2720 
L 211 2554 
C 589 2554 646 2515 646 2208 
L 646 428 
C 646 184 621 153 211 153 
L 211 -13 
C 365 0 646 0 813 0 
C 979 0 1267 0 1421 -13 
L 1421 153 
C 1011 153 986 178 986 428 
L 986 1658 
C 986 2247 1344 2688 1792 2688 
C 2266 2688 2317 2266 2317 1958 
L 2317 428 
C 2317 184 2291 153 1882 153 
L 1882 -13 
C 2035 0 2317 0 2483 0 
C 2650 0 2938 0 3091 -13 
L 3091 153 
C 2682 153 2656 178 2656 428 
L 2656 1933 
z
" transform="scale(0.015625)"/>
      </defs>
      <use xlink:href="#CMR17-47" transform="scale(0.996264)"/>
      <use xlink:href="#CMR17-61" transform="translate(72.355346 0)scale(0.996264)"/>
      <use xlink:href="#CMR17-75" transform="translate(118.045823 0)scale(0.996264)"/>
      <use xlink:href="#CMR17-73" transform="translate(168.941193 0)scale(0.996264)"/>
      <use xlink:href="#CMR17-73" transform="translate(204.74253 0)scale(0.996264)"/>
      <use xlink:href="#CMR17-69" transform="translate(240.543868 0)scale(0.996264)"/>
      <use xlink:href="#CMR17-61" transform="translate(265.414927 0)scale(0.996264)"/>
      <use xlink:href="#CMR17-6e" transform="translate(311.105404 0)scale(0.996264)"/>
     </g>
    </g>
    <g id="line2d_54">
     <path d="M 217.315573 47.582536 
L 233.815573 47.582536 
L 250.315573 47.582536 
" style="fill: none; stroke: #c07156; stroke-width: 2.25; stroke-linecap: square"/>
    </g>
    <g id="text_14">
     <!-- Clayton -->
     <g transform="translate(263.515573 53.357536)scale(0.165 -0.165)">
      <defs>
       <path id="CMR17-43" d="M 3974 4289 
C 3974 4403 3968 4410 3930 4410 
C 3904 4410 3898 4403 3853 4327 
L 3571 3792 
C 3258 4187 2874 4416 2381 4416 
C 1286 4416 294 3456 294 2148 
C 294 826 1286 -128 2387 -128 
C 3366 -128 3974 730 3974 1461 
C 3974 1524 3974 1550 3917 1550 
C 3866 1550 3866 1531 3859 1474 
C 3808 585 3168 38 2477 38 
C 1824 38 781 495 781 2147 
C 781 3805 1843 4250 2464 4250 
C 3187 4250 3712 3628 3834 2745 
C 3846 2668 3846 2655 3904 2655 
C 3974 2655 3974 2668 3974 2783 
L 3974 4289 
z
" transform="scale(0.015625)"/>
       <path id="CMR17-6c" d="M 979 4396 
L 218 4326 
L 218 4160 
C 595 4160 653 4122 653 3817 
L 653 426 
C 653 184 627 153 218 153 
L 218 -13 
C 371 0 653 0 813 0 
C 979 0 1261 0 1414 -13 
L 1414 153 
C 1005 153 979 178 979 426 
L 979 4396 
z
" transform="scale(0.015625)"/>
       <path id="CMR17-74" d="M 966 2560 
L 1862 2560 
L 1862 2725 
L 966 2725 
L 966 3904 
L 851 3904 
C 838 3245 614 2668 70 2668 
L 70 2560 
L 627 2560 
L 627 771 
C 627 650 627 -64 1370 -64 
C 1747 -64 1965 306 1965 777 
L 1965 1140 
L 1850 1140 
L 1850 783 
C 1850 344 1677 51 1408 51 
C 1222 51 966 178 966 758 
L 966 2560 
z
" transform="scale(0.015625)"/>
       <path id="CMR17-6f" d="M 2758 1356 
C 2758 2176 2163 2816 1466 2816 
C 768 2816 173 2176 173 1356 
C 173 551 768 -64 1466 -64 
C 2163 -64 2758 551 2758 1356 
z
M 1466 51 
C 1165 51 909 230 762 480 
C 602 767 582 1126 582 1408 
C 582 1677 595 2010 762 2298 
C 890 2509 1139 2714 1466 2714 
C 1754 2714 1997 2554 2150 2330 
C 2349 2029 2349 1607 2349 1408 
C 2349 1158 2336 775 2163 467 
C 1984 173 1709 51 1466 51 
z
" transform="scale(0.015625)"/>
      </defs>
      <use xlink:href="#CMR17-43" transform="scale(0.996264)"/>
      <use xlink:href="#CMR17-6c" transform="translate(66.509881 0)scale(0.996264)"/>
      <use xlink:href="#CMR17-61" transform="translate(91.380939 0)scale(0.996264)"/>
      <use xlink:href="#CMR17-79" transform="translate(134.468962 0)scale(0.996264)"/>
      <use xlink:href="#CMR17-74" transform="translate(182.761878 0)scale(0.996264)"/>
      <use xlink:href="#CMR17-6f" transform="translate(218.042646 0)scale(0.996264)"/>
      <use xlink:href="#CMR17-6e" transform="translate(263.733123 0)scale(0.996264)"/>
     </g>
    </g>
    <g id="line2d_55">
     <path d="M 217.315573 70.578863 
L 233.815573 70.578863 
L 250.315573 70.578863 
" style="fill: none; stroke: #e8c767; stroke-width: 2.25; stroke-linecap: square"/>
    </g>
    <g id="text_15">
     <!-- Student -->
     <g transform="translate(263.515573 76.353863)scale(0.165 -0.165)">
      <defs>
       <path id="CMR17-53" d="M 2803 4290 
C 2803 4404 2797 4411 2758 4411 
C 2720 4411 2707 4385 2682 4328 
L 2490 3907 
C 2246 4257 1875 4416 1472 4416 
C 819 4416 294 3901 294 3253 
C 294 3056 339 2776 557 2510 
C 794 2218 1018 2167 1530 2033 
C 1722 1982 2042 1899 2106 1874 
C 2470 1722 2662 1341 2662 985 
C 2662 527 2336 38 1779 38 
C 1094 38 454 419 410 1311 
C 403 1413 397 1419 352 1419 
C 301 1419 294 1413 294 1285 
L 294 -1 
C 294 -115 301 -122 339 -122 
C 384 -122 397 -90 486 108 
C 493 127 493 140 614 381 
C 934 -39 1472 -128 1779 -128 
C 2477 -128 2970 451 2970 1124 
C 2970 1454 2848 1708 2778 1823 
C 2509 2230 2221 2306 1914 2382 
C 1869 2402 1856 2402 1498 2490 
C 1152 2579 1005 2624 845 2796 
C 666 2992 602 3196 602 3399 
C 602 3812 934 4263 1478 4263 
C 2157 4263 2579 3786 2675 2993 
C 2694 2878 2701 2872 2746 2872 
C 2803 2872 2803 2891 2803 2999 
L 2803 4290 
z
" transform="scale(0.015625)"/>
       <path id="CMR17-64" d="M 1869 4326 
L 1869 4160 
C 2246 4160 2304 4122 2304 3820 
L 2304 2345 
C 2278 2377 2016 2790 1498 2790 
C 845 2790 211 2208 211 1364 
C 211 525 806 -64 1434 -64 
C 1978 -64 2259 337 2291 380 
L 2291 -63 
L 3066 -63 
L 3066 128 
C 2688 128 2630 166 2630 473 
L 2630 4396 
L 1869 4326 
z
M 2291 755 
C 2291 563 2176 390 2029 262 
C 1811 70 1594 38 1472 38 
C 1286 38 621 134 621 1356 
C 621 2612 1363 2688 1530 2688 
C 1824 2688 2061 2522 2208 2291 
C 2291 2157 2291 2138 2291 2023 
L 2291 755 
z
" transform="scale(0.015625)"/>
       <path id="CMR17-65" d="M 2438 1472 
C 2464 1498 2464 1511 2464 1576 
C 2464 2238 2118 2816 1389 2816 
C 710 2816 173 2169 173 1383 
C 173 551 781 -64 1459 -64 
C 2176 -64 2458 607 2458 740 
C 2458 784 2419 784 2406 784 
C 2362 784 2355 771 2330 696 
C 2189 265 1837 51 1504 51 
C 1229 51 954 203 781 480 
C 582 803 582 1176 582 1472 
L 2438 1472 
z
M 589 1568 
C 634 2505 1126 2714 1382 2714 
C 1818 2714 2112 2297 2118 1568 
L 589 1568 
z
" transform="scale(0.015625)"/>
      </defs>
      <use xlink:href="#CMR17-53" transform="scale(0.996264)"/>
      <use xlink:href="#CMR17-74" transform="translate(50.89537 0)scale(0.996264)"/>
      <use xlink:href="#CMR17-75" transform="translate(86.176138 0)scale(0.996264)"/>
      <use xlink:href="#CMR17-64" transform="translate(137.071507 0)scale(0.996264)"/>
      <use xlink:href="#CMR17-65" transform="translate(187.966877 0)scale(0.996264)"/>
      <use xlink:href="#CMR17-6e" transform="translate(228.452538 0)scale(0.996264)"/>
      <use xlink:href="#CMR17-74" transform="translate(276.745453 0)scale(0.996264)"/>
     </g>
    </g>
   </g>
  </g>
  <g id="axes_2">
   <g id="patch_5">
    <path d="M 402.072638 277.630289 
L 684.72 277.630289 
L 684.72 3.961209 
L 402.072638 3.961209 
z
" style="fill: #e5e5e5"/>
   </g>
   <g id="matplotlib.axis_3">
    <g id="xtick_14">
     <g id="line2d_56">
      <path d="M 457.745603 277.630289 
L 457.745603 3.961209 
" clip-path="url(#pe9378f70bd)" style="fill: none; stroke: #ffffff; stroke-width: 1.5; stroke-linecap: square"/>
     </g>
     <g id="line2d_57">
      <g>
       <use xlink:href="#md809138f9f" x="457.745603" y="277.630289" style="fill: #555555; stroke: #555555; stroke-width: 1.875"/>
      </g>
     </g>
     <g id="text_16">
      <!-- $\mathdefault{−2}$ -->
      <g style="fill: #555555" transform="translate(447.328962 301.545794)scale(0.165 -0.165)">
       <use xlink:href="#CMSY10-0" transform="scale(0.996264)"/>
       <use xlink:href="#CMR17-32" transform="translate(77.487468 0)scale(0.996264)"/>
      </g>
     </g>
    </g>
    <g id="xtick_15">
     <g id="line2d_58">
      <path d="M 543.396319 277.630289 
L 543.396319 3.961209 
" clip-path="url(#pe9378f70bd)" style="fill: none; stroke: #ffffff; stroke-width: 1.5; stroke-linecap: square"/>
     </g>
     <g id="line2d_59">
      <g>
       <use xlink:href="#md809138f9f" x="543.396319" y="277.630289" style="fill: #555555; stroke: #555555; stroke-width: 1.875"/>
      </g>
     </g>
     <g id="text_17">
      <!-- $\mathdefault{0}$ -->
      <g style="fill: #555555" transform="translate(539.372392 301.545794)scale(0.165 -0.165)">
       <use xlink:href="#CMR17-30" transform="scale(0.996264)"/>
      </g>
     </g>
    </g>
    <g id="xtick_16">
     <g id="line2d_60">
      <path d="M 629.047035 277.630289 
L 629.047035 3.961209 
" clip-path="url(#pe9378f70bd)" style="fill: none; stroke: #ffffff; stroke-width: 1.5; stroke-linecap: square"/>
     </g>
     <g id="line2d_61">
      <g>
       <use xlink:href="#md809138f9f" x="629.047035" y="277.630289" style="fill: #555555; stroke: #555555; stroke-width: 1.875"/>
      </g>
     </g>
     <g id="text_18">
      <!-- $\mathdefault{2}$ -->
      <g style="fill: #555555" transform="translate(625.023108 301.545794)scale(0.165 -0.165)">
       <use xlink:href="#CMR17-32" transform="scale(0.996264)"/>
      </g>
     </g>
    </g>
    <g id="xtick_17">
     <g id="line2d_62">
      <g>
       <use xlink:href="#m57ad87d4fa" x="414.920245" y="277.630289" style="fill: #555555; stroke: #555555; stroke-width: 1.5"/>
      </g>
     </g>
    </g>
    <g id="xtick_18">
     <g id="line2d_63">
      <g>
       <use xlink:href="#m57ad87d4fa" x="436.332924" y="277.630289" style="fill: #555555; stroke: #555555; stroke-width: 1.5"/>
      </g>
     </g>
    </g>
    <g id="xtick_19">
     <g id="line2d_64">
      <g>
       <use xlink:href="#m57ad87d4fa" x="479.158282" y="277.630289" style="fill: #555555; stroke: #555555; stroke-width: 1.5"/>
      </g>
     </g>
    </g>
    <g id="xtick_20">
     <g id="line2d_65">
      <g>
       <use xlink:href="#m57ad87d4fa" x="500.570961" y="277.630289" style="fill: #555555; stroke: #555555; stroke-width: 1.5"/>
      </g>
     </g>
    </g>
    <g id="xtick_21">
     <g id="line2d_66">
      <g>
       <use xlink:href="#m57ad87d4fa" x="521.98364" y="277.630289" style="fill: #555555; stroke: #555555; stroke-width: 1.5"/>
      </g>
     </g>
    </g>
    <g id="xtick_22">
     <g id="line2d_67">
      <g>
       <use xlink:href="#m57ad87d4fa" x="564.808998" y="277.630289" style="fill: #555555; stroke: #555555; stroke-width: 1.5"/>
      </g>
     </g>
    </g>
    <g id="xtick_23">
     <g id="line2d_68">
      <g>
       <use xlink:href="#m57ad87d4fa" x="586.221677" y="277.630289" style="fill: #555555; stroke: #555555; stroke-width: 1.5"/>
      </g>
     </g>
    </g>
    <g id="xtick_24">
     <g id="line2d_69">
      <g>
       <use xlink:href="#m57ad87d4fa" x="607.634356" y="277.630289" style="fill: #555555; stroke: #555555; stroke-width: 1.5"/>
      </g>
     </g>
    </g>
    <g id="xtick_25">
     <g id="line2d_70">
      <g>
       <use xlink:href="#m57ad87d4fa" x="650.459714" y="277.630289" style="fill: #555555; stroke: #555555; stroke-width: 1.5"/>
      </g>
     </g>
    </g>
    <g id="xtick_26">
     <g id="line2d_71">
      <g>
       <use xlink:href="#m57ad87d4fa" x="671.872393" y="277.630289" style="fill: #555555; stroke: #555555; stroke-width: 1.5"/>
      </g>
     </g>
    </g>
    <g id="text_19">
     <!-- x -->
     <g style="fill: #555555" transform="translate(539.049962 321.195421)scale(0.18 -0.18)">
      <use xlink:href="#CMR17-78" transform="scale(0.996264)"/>
     </g>
    </g>
   </g>
   <g id="matplotlib.axis_4">
    <g id="ytick_27">
     <g id="line2d_72">
      <path d="M 402.072638 258.538172 
L 684.72 258.538172 
" clip-path="url(#pe9378f70bd)" style="fill: none; stroke: #ffffff; stroke-width: 1.5; stroke-linecap: square"/>
     </g>
     <g id="line2d_73">
      <g>
       <use xlink:href="#mf1d3b83798" x="402.072638" y="258.538172" style="fill: #555555; stroke: #555555; stroke-width: 1.875"/>
      </g>
     </g>
     <g id="text_20">
      <!-- $\mathdefault{2}$ -->
      <g style="fill: #555555" transform="translate(381.524784 264.245924)scale(0.165 -0.165)">
       <use xlink:href="#CMR17-32" transform="scale(0.996264)"/>
      </g>
     </g>
    </g>
    <g id="ytick_28">
     <g id="line2d_74">
      <path d="M 402.072638 199.30244 
L 684.72 199.30244 
" clip-path="url(#pe9378f70bd)" style="fill: none; stroke: #ffffff; stroke-width: 1.5; stroke-linecap: square"/>
     </g>
     <g id="line2d_75">
      <g>
       <use xlink:href="#mf1d3b83798" x="402.072638" y="199.30244" style="fill: #555555; stroke: #555555; stroke-width: 1.875"/>
      </g>
     </g>
     <g id="text_21">
      <!-- $\mathdefault{3}$ -->
      <g style="fill: #555555" transform="translate(381.524784 205.010193)scale(0.165 -0.165)">
       <defs>
        <path id="CMR17-33" d="M 1414 2157 
C 1984 2157 2234 1662 2234 1090 
C 2234 320 1824 25 1453 25 
C 1114 25 563 194 390 693 
C 422 680 454 680 486 680 
C 640 680 755 782 755 948 
C 755 1133 614 1216 486 1216 
C 378 1216 211 1165 211 926 
C 211 335 787 -128 1466 -128 
C 2176 -128 2720 430 2720 1085 
C 2720 1707 2208 2157 1600 2227 
C 2086 2328 2554 2756 2554 3329 
C 2554 3820 2048 4179 1472 4179 
C 890 4179 378 3829 378 3329 
C 378 3110 544 3072 627 3072 
C 762 3072 877 3155 877 3321 
C 877 3486 762 3569 627 3569 
C 602 3569 570 3569 544 3557 
C 730 3959 1235 4032 1459 4032 
C 1683 4032 2106 3925 2106 3320 
C 2106 3143 2080 2828 1862 2550 
C 1670 2304 1453 2304 1242 2284 
C 1210 2284 1062 2269 1037 2269 
C 992 2263 966 2257 966 2208 
C 966 2163 973 2157 1101 2157 
L 1414 2157 
z
" transform="scale(0.015625)"/>
       </defs>
       <use xlink:href="#CMR17-33" transform="scale(0.996264)"/>
      </g>
     </g>
    </g>
    <g id="ytick_29">
     <g id="line2d_76">
      <path d="M 402.072638 140.066709 
L 684.72 140.066709 
" clip-path="url(#pe9378f70bd)" style="fill: none; stroke: #ffffff; stroke-width: 1.5; stroke-linecap: square"/>
     </g>
     <g id="line2d_77">
      <g>
       <use xlink:href="#mf1d3b83798" x="402.072638" y="140.066709" style="fill: #555555; stroke: #555555; stroke-width: 1.875"/>
      </g>
     </g>
     <g id="text_22">
      <!-- $\mathdefault{4}$ -->
      <g style="fill: #555555" transform="translate(381.524784 145.774461)scale(0.165 -0.165)">
       <use xlink:href="#CMR17-34" transform="scale(0.996264)"/>
      </g>
     </g>
    </g>
    <g id="ytick_30">
     <g id="line2d_78">
      <path d="M 402.072638 80.830977 
L 684.72 80.830977 
" clip-path="url(#pe9378f70bd)" style="fill: none; stroke: #ffffff; stroke-width: 1.5; stroke-linecap: square"/>
     </g>
     <g id="line2d_79">
      <g>
       <use xlink:href="#mf1d3b83798" x="402.072638" y="80.830977" style="fill: #555555; stroke: #555555; stroke-width: 1.875"/>
      </g>
     </g>
     <g id="text_23">
      <!-- $\mathdefault{5}$ -->
      <g style="fill: #555555" transform="translate(381.524784 86.53873)scale(0.165 -0.165)">
       <defs>
        <path id="CMR17-35" d="M 730 3692 
C 794 3666 1056 3584 1325 3584 
C 1920 3584 2246 3911 2432 4100 
C 2432 4157 2432 4192 2394 4192 
C 2387 4192 2374 4192 2323 4163 
C 2099 4058 1837 3973 1517 3973 
C 1325 3973 1037 3999 723 4139 
C 653 4171 640 4171 634 4171 
C 602 4171 595 4164 595 4037 
L 595 2203 
C 595 2089 595 2057 659 2057 
C 691 2057 704 2070 736 2114 
C 941 2401 1222 2522 1542 2522 
C 1766 2522 2246 2382 2246 1289 
C 2246 1085 2246 715 2054 421 
C 1894 159 1645 25 1370 25 
C 947 25 518 320 403 814 
C 429 807 480 795 506 795 
C 589 795 749 840 749 1038 
C 749 1210 627 1280 506 1280 
C 358 1280 262 1190 262 1011 
C 262 454 704 -128 1382 -128 
C 2042 -128 2669 440 2669 1264 
C 2669 2030 2170 2624 1549 2624 
C 1222 2624 947 2503 730 2274 
L 730 3692 
z
" transform="scale(0.015625)"/>
       </defs>
       <use xlink:href="#CMR17-35" transform="scale(0.996264)"/>
      </g>
     </g>
    </g>
    <g id="ytick_31">
     <g id="line2d_80">
      <path d="M 402.072638 21.595246 
L 684.72 21.595246 
" clip-path="url(#pe9378f70bd)" style="fill: none; stroke: #ffffff; stroke-width: 1.5; stroke-linecap: square"/>
     </g>
     <g id="line2d_81">
      <g>
       <use xlink:href="#mf1d3b83798" x="402.072638" y="21.595246" style="fill: #555555; stroke: #555555; stroke-width: 1.875"/>
      </g>
     </g>
     <g id="text_24">
      <!-- $\mathdefault{6}$ -->
      <g style="fill: #555555" transform="translate(381.524784 27.302998)scale(0.165 -0.165)">
       <use xlink:href="#CMR17-36" transform="scale(0.996264)"/>
      </g>
     </g>
    </g>
    <g id="ytick_32">
     <g id="line2d_82">
      <g>
       <use xlink:href="#m55bcbf1223" x="402.072638" y="270.385318" style="fill: #555555; stroke: #555555; stroke-width: 1.5"/>
      </g>
     </g>
    </g>
    <g id="ytick_33">
     <g id="line2d_83">
      <g>
       <use xlink:href="#m55bcbf1223" x="402.072638" y="246.691025" style="fill: #555555; stroke: #555555; stroke-width: 1.5"/>
      </g>
     </g>
    </g>
    <g id="ytick_34">
     <g id="line2d_84">
      <g>
       <use xlink:href="#m55bcbf1223" x="402.072638" y="234.843879" style="fill: #555555; stroke: #555555; stroke-width: 1.5"/>
      </g>
     </g>
    </g>
    <g id="ytick_35">
     <g id="line2d_85">
      <g>
       <use xlink:href="#m55bcbf1223" x="402.072638" y="222.996733" style="fill: #555555; stroke: #555555; stroke-width: 1.5"/>
      </g>
     </g>
    </g>
    <g id="ytick_36">
     <g id="line2d_86">
      <g>
       <use xlink:href="#m55bcbf1223" x="402.072638" y="211.149587" style="fill: #555555; stroke: #555555; stroke-width: 1.5"/>
      </g>
     </g>
    </g>
    <g id="ytick_37">
     <g id="line2d_87">
      <g>
       <use xlink:href="#m55bcbf1223" x="402.072638" y="187.455294" style="fill: #555555; stroke: #555555; stroke-width: 1.5"/>
      </g>
     </g>
    </g>
    <g id="ytick_38">
     <g id="line2d_88">
      <g>
       <use xlink:href="#m55bcbf1223" x="402.072638" y="175.608148" style="fill: #555555; stroke: #555555; stroke-width: 1.5"/>
      </g>
     </g>
    </g>
    <g id="ytick_39">
     <g id="line2d_89">
      <g>
       <use xlink:href="#m55bcbf1223" x="402.072638" y="163.761001" style="fill: #555555; stroke: #555555; stroke-width: 1.5"/>
      </g>
     </g>
    </g>
    <g id="ytick_40">
     <g id="line2d_90">
      <g>
       <use xlink:href="#m55bcbf1223" x="402.072638" y="151.913855" style="fill: #555555; stroke: #555555; stroke-width: 1.5"/>
      </g>
     </g>
    </g>
    <g id="ytick_41">
     <g id="line2d_91">
      <g>
       <use xlink:href="#m55bcbf1223" x="402.072638" y="128.219562" style="fill: #555555; stroke: #555555; stroke-width: 1.5"/>
      </g>
     </g>
    </g>
    <g id="ytick_42">
     <g id="line2d_92">
      <g>
       <use xlink:href="#m55bcbf1223" x="402.072638" y="116.372416" style="fill: #555555; stroke: #555555; stroke-width: 1.5"/>
      </g>
     </g>
    </g>
    <g id="ytick_43">
     <g id="line2d_93">
      <g>
       <use xlink:href="#m55bcbf1223" x="402.072638" y="104.52527" style="fill: #555555; stroke: #555555; stroke-width: 1.5"/>
      </g>
     </g>
    </g>
    <g id="ytick_44">
     <g id="line2d_94">
      <g>
       <use xlink:href="#m55bcbf1223" x="402.072638" y="92.678124" style="fill: #555555; stroke: #555555; stroke-width: 1.5"/>
      </g>
     </g>
    </g>
    <g id="ytick_45">
     <g id="line2d_95">
      <g>
       <use xlink:href="#m55bcbf1223" x="402.072638" y="68.983831" style="fill: #555555; stroke: #555555; stroke-width: 1.5"/>
      </g>
     </g>
    </g>
    <g id="ytick_46">
     <g id="line2d_96">
      <g>
       <use xlink:href="#m55bcbf1223" x="402.072638" y="57.136685" style="fill: #555555; stroke: #555555; stroke-width: 1.5"/>
      </g>
     </g>
    </g>
    <g id="ytick_47">
     <g id="line2d_97">
      <g>
       <use xlink:href="#m55bcbf1223" x="402.072638" y="45.289538" style="fill: #555555; stroke: #555555; stroke-width: 1.5"/>
      </g>
     </g>
    </g>
    <g id="ytick_48">
     <g id="line2d_98">
      <g>
       <use xlink:href="#m55bcbf1223" x="402.072638" y="33.442392" style="fill: #555555; stroke: #555555; stroke-width: 1.5"/>
      </g>
     </g>
    </g>
    <g id="ytick_49">
     <g id="line2d_99">
      <g>
       <use xlink:href="#m55bcbf1223" x="402.072638" y="9.748099" style="fill: #555555; stroke: #555555; stroke-width: 1.5"/>
      </g>
     </g>
    </g>
    <g id="text_25">
     <!-- Portfolio VaR -->
     <g style="fill: #555555" transform="translate(374.03672 190.26469)rotate(-90)scale(0.18 -0.18)">
      <defs>
       <path id="CMR17-50" d="M 1267 2042 
L 2291 2042 
C 3117 2042 3718 2578 3718 3184 
C 3718 3791 3130 4352 2291 4352 
L 333 4352 
L 333 4186 
C 774 4186 845 4186 845 3899 
L 845 446 
C 845 160 774 160 333 160 
L 333 0 
C 518 0 858 0 1056 0 
C 1254 0 1594 0 1779 0 
L 1779 160 
C 1338 160 1267 160 1267 446 
L 1267 2042 
z
M 1254 2176 
L 1254 3938 
C 1254 4155 1267 4186 1523 4186 
L 2170 4186 
C 2995 4186 3232 3714 3232 3184 
C 3232 2604 2950 2176 2170 2176 
L 1254 2176 
z
" transform="scale(0.015625)"/>
       <path id="CMR17-72" d="M 960 1497 
C 960 2112 1222 2688 1702 2688 
C 1747 2688 1792 2682 1837 2662 
C 1837 2662 1696 2617 1696 2452 
C 1696 2298 1818 2234 1914 2234 
C 1990 2234 2131 2279 2131 2458 
C 2131 2663 1926 2790 1709 2790 
C 1222 2790 1011 2317 947 2093 
L 941 2093 
L 941 2790 
L 198 2720 
L 198 2554 
C 576 2554 634 2515 634 2208 
L 634 428 
C 634 184 608 153 198 153 
L 198 -13 
C 352 0 646 0 813 0 
C 998 0 1325 0 1498 -13 
L 1498 153 
C 1037 153 960 153 960 440 
L 960 1497 
z
" transform="scale(0.015625)"/>
       <path id="CMR17-66" d="M 979 2560 
L 1709 2560 
L 1709 2725 
L 966 2725 
L 966 3494 
C 966 4022 1235 4352 1510 4352 
C 1594 4352 1690 4327 1754 4282 
C 1702 4269 1568 4225 1568 4067 
C 1568 3901 1696 3850 1786 3850 
C 1875 3850 2003 3901 2003 4067 
C 2003 4308 1773 4454 1517 4454 
C 1152 4454 653 4156 653 3481 
L 653 2725 
L 141 2725 
L 141 2560 
L 653 2560 
L 653 427 
C 653 184 627 153 218 153 
L 218 -13 
C 371 0 666 0 832 0 
C 1018 0 1344 0 1517 -13 
L 1517 153 
C 1056 153 979 153 979 439 
L 979 2560 
z
" transform="scale(0.015625)"/>
       <path id="CMR17-56" d="M 3776 3745 
C 3834 3886 3936 4160 4365 4160 
L 4365 4332 
C 4218 4319 4051 4319 3891 4319 
C 3738 4319 3475 4319 3328 4332 
L 3328 4160 
C 3648 4160 3661 3936 3661 3898 
C 3661 3827 3642 3783 3622 3732 
L 2362 446 
L 1043 3886 
C 1024 3931 1011 3963 1011 3994 
C 1011 4160 1267 4160 1402 4160 
L 1402 4319 
C 1197 4319 896 4319 685 4319 
C 518 4319 218 4319 64 4332 
L 64 4160 
C 435 4160 506 4135 582 3931 
L 2106 -26 
C 2138 -115 2144 -128 2214 -128 
C 2285 -128 2291 -115 2323 -26 
L 3776 3745 
z
" transform="scale(0.015625)"/>
       <path id="CMR17-52" d="M 2509 2146 
C 3117 2268 3629 2676 3629 3186 
C 3629 3785 2950 4326 2054 4326 
L 333 4326 
L 333 4160 
C 774 4160 845 4160 845 3873 
L 845 415 
C 845 128 774 128 333 128 
L 333 -26 
C 518 -26 851 -26 1050 -26 
C 1248 -26 1581 -26 1766 -26 
L 1766 128 
C 1325 128 1254 128 1254 417 
L 1254 2112 
L 2003 2112 
C 2368 2112 2573 1964 2662 1881 
C 2918 1632 2918 1459 2918 1024 
C 2918 595 2918 377 3110 160 
C 3354 -102 3680 -128 3821 -128 
C 4294 -128 4365 396 4365 503 
C 4365 540 4365 585 4307 585 
C 4256 585 4250 547 4250 522 
C 4218 112 4032 -26 3834 -26 
C 3482 -26 3443 375 3405 764 
C 3386 898 3373 993 3360 1133 
C 3322 1452 3270 1917 2509 2146 
z
M 1984 2214 
L 1254 2214 
L 1254 3913 
C 1254 4129 1267 4160 1523 4160 
L 1990 4160 
C 2522 4160 3142 3977 3142 3190 
C 3142 2372 2464 2214 1984 2214 
z
" transform="scale(0.015625)"/>
      </defs>
      <use xlink:href="#CMR17-50" transform="scale(0.996264)"/>
      <use xlink:href="#CMR17-6f" transform="translate(59.983847 0)scale(0.996264)"/>
      <use xlink:href="#CMR17-72" transform="translate(105.674324 0)scale(0.996264)"/>
      <use xlink:href="#CMR17-74" transform="translate(140.955092 0)scale(0.996264)"/>
      <use xlink:href="#CMR17-66" transform="translate(176.235859 0)scale(0.996264)"/>
      <use xlink:href="#CMR17-6f" transform="translate(203.709372 0)scale(0.996264)"/>
      <use xlink:href="#CMR17-6c" transform="translate(249.399849 0)scale(0.996264)"/>
      <use xlink:href="#CMR17-69" transform="translate(274.270907 0)scale(0.996264)"/>
      <use xlink:href="#CMR17-6f" transform="translate(299.141966 0)scale(0.996264)"/>
      <use xlink:href="#CMR17-56" transform="translate(374.908409 0)scale(0.996264)"/>
      <use xlink:href="#CMR17-61" transform="translate(436.173584 0)scale(0.996264)"/>
      <use xlink:href="#CMR17-52" transform="translate(481.864061 0)scale(0.996264)"/>
     </g>
    </g>
   </g>
   <g id="line2d_100">
    <path d="M 414.920245 16.400713 
L 417.515722 18.913744 
L 420.111198 21.426775 
L 422.706674 23.939806 
L 425.30215 26.452837 
L 427.897626 28.965868 
L 430.493103 31.478899 
L 433.088579 33.99193 
L 435.684055 36.504961 
L 438.279531 39.017992 
L 440.875008 41.531023 
L 443.470484 44.044054 
L 446.06596 46.557085 
L 448.661436 49.070116 
L 451.256913 51.583147 
L 453.852389 54.096178 
L 456.447865 56.609209 
L 459.043341 59.122241 
L 461.638818 61.635272 
L 464.234294 64.148303 
L 466.82977 66.661334 
L 469.425246 69.174365 
L 472.020722 71.687396 
L 474.616199 74.200427 
L 477.211675 76.713458 
L 479.807151 79.226489 
L 482.402627 81.73952 
L 484.998104 84.252551 
L 487.59358 86.765582 
L 490.189056 89.278613 
L 492.784532 91.791644 
L 495.380009 94.304675 
L 497.975485 96.817706 
L 500.570961 99.330737 
L 503.166437 101.843768 
L 505.761914 104.356799 
L 508.35739 106.86983 
L 510.952866 109.382861 
L 513.548342 111.895892 
L 516.143818 114.408923 
L 518.739295 116.921954 
L 521.334771 119.434985 
L 523.930247 121.948016 
L 526.525723 124.461047 
L 529.1212 126.974078 
L 531.716676 129.487109 
L 534.312152 132.00014 
L 536.907628 134.513171 
L 539.503105 137.026203 
L 542.098581 139.539234 
L 544.694057 142.052265 
L 547.289533 144.565296 
L 549.88501 147.078327 
L 552.480486 149.591358 
L 555.075962 152.104389 
L 557.671438 154.61742 
L 560.266914 157.130451 
L 562.862391 159.643482 
L 565.457867 162.156513 
L 568.053343 164.669544 
L 570.648819 167.182575 
L 573.244296 169.695606 
L 575.839772 172.208637 
L 578.435248 174.721668 
L 581.030724 177.234699 
L 583.626201 179.74773 
L 586.221677 182.260761 
L 588.817153 184.773792 
L 591.412629 187.286823 
L 594.008106 189.799854 
L 596.603582 192.312885 
L 599.199058 194.825916 
L 601.794534 197.338947 
L 604.39001 199.851978 
L 606.985487 202.365009 
L 609.580963 204.87804 
L 612.176439 207.391071 
L 614.771915 209.904102 
L 617.367392 212.417133 
L 619.962868 214.930165 
L 622.558344 217.443196 
L 625.15382 219.956227 
L 627.749297 222.469258 
L 630.344773 224.982289 
L 632.940249 227.49532 
L 635.535725 230.008351 
L 638.131202 232.521382 
L 640.726678 235.034413 
L 643.322154 237.547444 
L 645.91763 240.060475 
L 648.513107 242.573506 
L 651.108583 245.086537 
L 653.704059 247.599568 
L 656.299535 250.112599 
L 658.895011 252.62563 
L 661.490488 255.138661 
L 664.085964 257.651692 
L 666.68144 260.164723 
L 669.276916 262.677754 
L 671.872393 265.190785 
" clip-path="url(#pe9378f70bd)" style="fill: none; stroke: #4d3c2f; stroke-width: 2.25; stroke-linecap: square"/>
   </g>
   <g id="line2d_101">
    <path d="M 414.920245 36.575698 
L 417.515722 39.776025 
L 420.111198 42.965358 
L 422.706674 46.143282 
L 425.30215 49.30936 
L 427.897626 52.46314 
L 430.493103 55.604148 
L 433.088579 58.73189 
L 435.684055 61.845848 
L 438.279531 64.945484 
L 440.875008 68.030235 
L 443.470484 71.099514 
L 446.06596 74.152708 
L 448.661436 77.189176 
L 451.256913 80.208252 
L 453.852389 83.209239 
L 456.447865 86.191412 
L 459.043341 89.154012 
L 461.638818 92.09625 
L 464.234294 95.017306 
L 466.82977 97.91632 
L 469.425246 100.792403 
L 472.020722 103.644626 
L 474.616199 106.472024 
L 477.211675 109.273594 
L 479.807151 112.048293 
L 482.402627 114.795042 
L 484.998104 117.51272 
L 487.59358 120.200166 
L 490.189056 122.85618 
L 492.784532 125.479524 
L 495.380009 128.06892 
L 497.975485 130.623054 
L 500.570961 133.140578 
L 503.166437 135.620109 
L 505.761914 138.060238 
L 508.35739 140.459527 
L 510.952866 142.816521 
L 513.548342 145.129747 
L 516.143818 147.397726 
L 518.739295 149.618977 
L 521.334771 151.792024 
L 523.930247 153.915412 
L 526.525723 155.987708 
L 529.1212 158.007519 
L 531.716676 159.973499 
L 534.312152 161.884367 
L 536.907628 163.738909 
L 539.503105 165.536003 
L 542.098581 167.274621 
L 544.694057 168.95385 
L 547.289533 170.572898 
L 549.88501 172.131106 
L 552.480486 173.627963 
L 555.075962 175.063109 
L 557.671438 176.436349 
L 560.266914 177.747654 
L 562.862391 178.997169 
L 565.457867 180.185217 
L 568.053343 181.312298 
L 570.648819 182.379088 
L 573.244296 183.386438 
L 575.839772 184.335371 
L 578.435248 185.227071 
L 581.030724 186.062879 
L 583.626201 186.844284 
L 586.221677 187.572907 
L 588.817153 188.250493 
L 591.412629 188.878898 
L 594.008106 189.460069 
L 596.603582 189.996037 
L 599.199058 190.488894 
L 601.794534 190.940781 
L 604.39001 191.353873 
L 606.985487 191.730361 
L 609.580963 192.072439 
L 612.176439 192.382286 
L 614.771915 192.662059 
L 617.367392 192.913872 
L 619.962868 193.139789 
L 622.558344 193.341814 
L 625.15382 193.521878 
L 627.749297 193.681837 
L 630.344773 193.823458 
L 632.940249 193.94842 
L 635.535725 194.058305 
L 638.131202 194.154603 
L 640.726678 194.238699 
L 643.322154 194.311886 
L 645.91763 194.375355 
L 648.513107 194.430203 
L 651.108583 194.477434 
L 653.704059 194.51796 
L 656.299535 194.55261 
L 658.895011 194.58213 
L 661.490488 194.607188 
L 664.085964 194.628384 
L 666.68144 194.646246 
L 669.276916 194.661246 
L 671.872393 194.673796 
" clip-path="url(#pe9378f70bd)" style="fill: none; stroke: #c07156; stroke-width: 2.25; stroke-linecap: square"/>
   </g>
   <g id="line2d_102">
    <path d="M 414.920245 30.215518 
L 417.515722 33.327478 
L 420.111198 36.426162 
L 422.706674 39.51104 
L 425.30215 42.581554 
L 427.897626 45.637116 
L 430.493103 48.677102 
L 433.088579 51.700854 
L 435.684055 54.707676 
L 438.279531 57.696831 
L 440.875008 60.667539 
L 443.470484 63.618975 
L 446.06596 66.550267 
L 448.661436 69.460491 
L 451.256913 72.348673 
L 453.852389 75.21378 
L 456.447865 78.054725 
L 459.043341 80.870361 
L 461.638818 83.659479 
L 464.234294 86.420809 
L 466.82977 89.153016 
L 469.425246 91.854699 
L 472.020722 94.524393 
L 474.616199 97.160567 
L 477.211675 99.761623 
L 479.807151 102.3259 
L 482.402627 104.851669 
L 484.998104 107.337142 
L 487.59358 109.780467 
L 490.189056 112.179733 
L 492.784532 114.53297 
L 495.380009 116.838156 
L 497.975485 119.093213 
L 500.570961 121.296014 
L 503.166437 123.444384 
L 505.761914 125.5361 
L 508.35739 127.568896 
L 510.952866 129.540462 
L 513.548342 131.448447 
L 516.143818 133.290457 
L 518.739295 135.064055 
L 521.334771 136.766762 
L 523.930247 138.396054 
L 526.525723 139.949358 
L 529.1212 141.424056 
L 531.716676 142.817474 
L 534.312152 144.126884 
L 536.907628 145.349503 
L 539.503105 146.482483 
L 542.098581 147.522918 
L 544.694057 148.467838 
L 547.289533 149.314212 
L 549.88501 150.058949 
L 552.480486 150.698908 
L 555.075962 151.230901 
L 557.671438 151.651713 
L 560.266914 151.958108 
L 562.862391 152.146864 
L 565.457867 152.214786 
L 568.053343 152.15875 
L 570.648819 151.975736 
L 573.244296 151.66287 
L 575.839772 151.217482 
L 578.435248 150.637154 
L 581.030724 149.919784 
L 583.626201 149.063647 
L 586.221677 148.067462 
L 588.817153 146.930451 
L 591.412629 145.652401 
L 594.008106 144.233718 
L 596.603582 142.675471 
L 599.199058 140.979423 
L 601.794534 139.148045 
L 604.39001 137.184523 
L 606.985487 135.09273 
L 609.580963 132.877196 
L 612.176439 130.543045 
L 614.771915 128.095926 
L 617.367392 125.541927 
L 619.962868 122.887473 
L 622.558344 120.139228 
L 625.15382 117.303985 
L 627.749297 114.388567 
L 630.344773 111.399728 
L 632.940249 108.344066 
L 635.535725 105.227947 
L 638.131202 102.057443 
L 640.726678 98.838284 
L 643.322154 95.57582 
L 645.91763 92.275003 
L 648.513107 88.940373 
L 651.108583 85.576061 
L 653.704059 82.185795 
L 656.299535 78.772914 
L 658.895011 75.340394 
L 661.490488 71.890863 
L 664.085964 68.426636 
L 666.68144 64.949736 
L 669.276916 61.461922 
L 671.872393 57.96472 
" clip-path="url(#pe9378f70bd)" style="fill: none; stroke: #e8c767; stroke-width: 2.25; stroke-linecap: square"/>
   </g>
   <g id="patch_6">
    <path d="M 402.072638 277.630289 
L 402.072638 3.961209 
" style="fill: none; stroke: #ffffff; stroke-width: 1.875; stroke-linejoin: miter; stroke-linecap: square"/>
   </g>
   <g id="patch_7">
    <path d="M 402.072638 277.630289 
L 684.72 277.630289 
" style="fill: none; stroke: #ffffff; stroke-width: 1.875; stroke-linejoin: miter; stroke-linecap: square"/>
   </g>
   <g id="legend_2">
    <g id="line2d_103">
     <path d="M 416.922638 203.518987 
L 433.422638 203.518987 
L 449.922638 203.518987 
" style="fill: none; stroke: #4d3c2f; stroke-width: 2.25; stroke-linecap: square"/>
    </g>
    <g id="text_26">
     <!-- $VaR_{0.01} | X = x$ -->
     <g transform="translate(463.122638 209.293987)scale(0.165 -0.165)">
      <defs>
       <path id="CMMI12-56" d="M 3962 3640 
C 4179 3984 4378 4136 4704 4162 
C 4768 4168 4819 4168 4819 4282 
C 4819 4308 4806 4346 4749 4346 
C 4634 4346 4358 4346 4243 4346 
C 4058 4346 3866 4346 3686 4346 
C 3635 4346 3571 4346 3571 4226 
C 3571 4168 3629 4162 3654 4162 
C 3891 4143 3917 4029 3917 3952 
C 3917 3857 3827 3710 3821 3704 
L 1811 540 
L 1363 3969 
C 1363 4160 1696 4160 1766 4160 
C 1862 4160 1920 4160 1920 4282 
C 1920 4346 1850 4346 1830 4346 
C 1722 4346 1594 4346 1485 4346 
L 1126 4346 
C 659 4346 467 4346 461 4346 
C 422 4346 346 4346 346 4230 
C 346 4160 390 4160 493 4160 
C 819 4160 838 4102 858 3944 
L 1370 24 
C 1389 -109 1389 -128 1478 -128 
C 1555 -128 1587 -109 1651 -8 
L 3962 3640 
z
" transform="scale(0.015625)"/>
       <path id="CMMI12-61" d="M 1926 760 
C 1894 651 1894 639 1805 517 
C 1664 338 1382 64 1082 64 
C 819 64 672 300 672 677 
C 672 1028 870 1743 992 2012 
C 1210 2459 1510 2689 1760 2689 
C 2182 2689 2266 2165 2266 2114 
C 2266 2108 2246 2024 2240 2012 
L 1926 760 
z
M 2336 2395 
C 2266 2561 2093 2816 1760 2816 
C 1037 2816 256 1884 256 939 
C 256 307 627 -64 1062 -64 
C 1414 -64 1715 211 1894 422 
C 1958 45 2259 -64 2451 -64 
C 2643 -64 2797 51 2912 281 
C 3014 498 3104 888 3104 913 
C 3104 945 3078 971 3040 971 
C 2982 971 2976 939 2950 843 
C 2854 466 2733 64 2470 64 
C 2285 64 2272 230 2272 358 
C 2272 505 2291 575 2349 824 
C 2394 984 2426 1124 2477 1309 
C 2714 2267 2771 2497 2771 2535 
C 2771 2625 2701 2695 2605 2695 
C 2400 2695 2349 2472 2336 2395 
z
" transform="scale(0.015625)"/>
       <path id="CMMI12-52" d="M 2355 3924 
C 2413 4160 2438 4160 2688 4160 
L 3149 4160 
C 3699 4160 4109 3995 4109 3499 
C 4109 3175 3942 2240 2656 2240 
L 1933 2240 
L 2355 3924 
z
M 3245 2169 
C 4038 2341 4659 2851 4659 3398 
C 4659 3894 4154 4352 3264 4352 
L 1530 4352 
C 1402 4352 1344 4352 1344 4226 
C 1344 4160 1389 4160 1510 4160 
C 1894 4160 1894 4112 1894 4045 
C 1894 4033 1894 3994 1869 3899 
L 1005 479 
C 947 256 934 192 493 192 
C 346 192 301 192 301 71 
C 301 7 371 7 390 7 
C 506 7 640 7 762 7 
L 1517 7 
C 1632 7 1766 7 1882 7 
C 1933 7 2003 7 2003 128 
C 2003 192 1946 192 1850 192 
C 1459 192 1459 243 1459 306 
C 1459 313 1459 357 1472 407 
L 1901 2112 
L 2669 2112 
C 3277 2112 3392 1731 3392 1522 
C 3392 1427 3328 1179 3283 1014 
C 3213 723 3194 652 3194 532 
C 3194 82 3565 -128 3994 -128 
C 4512 -128 4736 501 4736 591 
C 4736 635 4704 654 4666 654 
C 4614 654 4602 616 4589 565 
C 4435 114 4173 0 4013 0 
C 3853 0 3750 70 3750 356 
C 3750 509 3827 1088 3834 1120 
C 3866 1355 3866 1380 3866 1432 
C 3866 1896 3488 2093 3245 2169 
z
" transform="scale(0.015625)"/>
       <path id="CMMI12-78" d="M 3034 2606 
C 2829 2567 2752 2414 2752 2293 
C 2752 2139 2874 2088 2963 2088 
C 3155 2088 3290 2254 3290 2427 
C 3290 2695 2982 2816 2714 2816 
C 2323 2816 2106 2433 2048 2312 
C 1901 2816 1504 2816 1389 2816 
C 736 2816 390 1980 390 1839 
C 390 1814 416 1782 461 1782 
C 512 1782 525 1820 538 1846 
C 755 2555 1184 2689 1370 2689 
C 1658 2689 1715 2420 1715 2267 
C 1715 2127 1677 1980 1600 1673 
L 1382 798 
C 1286 415 1101 64 762 64 
C 730 64 570 64 435 147 
C 666 192 717 383 717 460 
C 717 588 621 664 499 664 
C 346 664 179 530 179 326 
C 179 57 480 -64 755 -64 
C 1062 -64 1280 179 1414 441 
C 1517 64 1837 -64 2074 -64 
C 2726 -64 3072 773 3072 913 
C 3072 945 3046 971 3008 971 
C 2950 971 2944 939 2925 888 
C 2752 326 2381 64 2093 64 
C 1869 64 1747 230 1747 492 
C 1747 632 1773 734 1875 1156 
L 2099 2024 
C 2195 2408 2413 2689 2707 2689 
C 2720 2689 2899 2689 3034 2606 
z
" transform="scale(0.015625)"/>
      </defs>
      <use xlink:href="#CMMI12-56" transform="scale(0.996264)"/>
      <use xlink:href="#CMMI12-61" transform="translate(78.547321 0)scale(0.996264)"/>
      <use xlink:href="#CMMI12-52" transform="translate(129.755178 0)scale(0.996264)"/>
      <use xlink:href="#CMR17-30" transform="translate(204.006004 -14.943915)scale(0.697382)"/>
      <use xlink:href="#CMMI12-3a" transform="translate(235.989186 -14.943915)scale(0.697382)"/>
      <use xlink:href="#CMR17-30" transform="translate(254.957119 -14.943915)scale(0.697382)"/>
      <use xlink:href="#CMR17-31" transform="translate(286.940301 -14.943915)scale(0.697382)"/>
      <use xlink:href="#CMSY10-6a" transform="translate(319.421615 0)scale(0.996264)"/>
      <use xlink:href="#CMMI12-58" transform="translate(347.095699 0)scale(0.996264)"/>
      <use xlink:href="#CMR17-3d" transform="translate(463.56227 0)scale(0.996264)"/>
      <use xlink:href="#CMMI12-78" transform="translate(562.951067 0)scale(0.996264)"/>
     </g>
    </g>
    <g id="line2d_104">
     <path d="M 416.922638 228.207344 
L 433.422638 228.207344 
L 449.922638 228.207344 
" style="fill: none; stroke: #c07156; stroke-width: 2.25; stroke-linecap: square"/>
    </g>
    <g id="text_27">
     <!-- $VaR_{0.01} | X = x$ -->
     <g transform="translate(463.122638 233.982344)scale(0.165 -0.165)">
      <use xlink:href="#CMMI12-56" transform="scale(0.996264)"/>
      <use xlink:href="#CMMI12-61" transform="translate(78.547321 0)scale(0.996264)"/>
      <use xlink:href="#CMMI12-52" transform="translate(129.755178 0)scale(0.996264)"/>
      <use xlink:href="#CMR17-30" transform="translate(204.006004 -14.943915)scale(0.697382)"/>
      <use xlink:href="#CMMI12-3a" transform="translate(235.989186 -14.943915)scale(0.697382)"/>
      <use xlink:href="#CMR17-30" transform="translate(254.957119 -14.943915)scale(0.697382)"/>
      <use xlink:href="#CMR17-31" transform="translate(286.940301 -14.943915)scale(0.697382)"/>
      <use xlink:href="#CMSY10-6a" transform="translate(319.421615 0)scale(0.996264)"/>
      <use xlink:href="#CMMI12-58" transform="translate(347.095699 0)scale(0.996264)"/>
      <use xlink:href="#CMR17-3d" transform="translate(463.56227 0)scale(0.996264)"/>
      <use xlink:href="#CMMI12-78" transform="translate(562.951067 0)scale(0.996264)"/>
     </g>
    </g>
    <g id="line2d_105">
     <path d="M 416.922638 252.8957 
L 433.422638 252.8957 
L 449.922638 252.8957 
" style="fill: none; stroke: #e8c767; stroke-width: 2.25; stroke-linecap: square"/>
    </g>
    <g id="text_28">
     <!-- $VaR_{0.01} | X = x$ -->
     <g transform="translate(463.122638 258.6707)scale(0.165 -0.165)">
      <use xlink:href="#CMMI12-56" transform="scale(0.996264)"/>
      <use xlink:href="#CMMI12-61" transform="translate(78.547321 0)scale(0.996264)"/>
      <use xlink:href="#CMMI12-52" transform="translate(129.755178 0)scale(0.996264)"/>
      <use xlink:href="#CMR17-30" transform="translate(204.006004 -14.943915)scale(0.697382)"/>
      <use xlink:href="#CMMI12-3a" transform="translate(235.989186 -14.943915)scale(0.697382)"/>
      <use xlink:href="#CMR17-30" transform="translate(254.957119 -14.943915)scale(0.697382)"/>
      <use xlink:href="#CMR17-31" transform="translate(286.940301 -14.943915)scale(0.697382)"/>
      <use xlink:href="#CMSY10-6a" transform="translate(319.421615 0)scale(0.996264)"/>
      <use xlink:href="#CMMI12-58" transform="translate(347.095699 0)scale(0.996264)"/>
      <use xlink:href="#CMR17-3d" transform="translate(463.56227 0)scale(0.996264)"/>
      <use xlink:href="#CMMI12-78" transform="translate(562.951067 0)scale(0.996264)"/>
     </g>
    </g>
   </g>
  </g>
 </g>
 <defs>
  <clipPath id="pdc5a309e82">
   <rect x="59.496058" y="3.961209" width="282.647362" height="273.669079"/>
  </clipPath>
  <clipPath id="pe9378f70bd">
   <rect x="402.072638" y="3.961209" width="282.647362" height="273.669079"/>
  </clipPath>
 </defs>
</svg>
