<svg class="main-svg" xmlns="http://www.w3.org/2000/svg" xmlns:xlink="http://www.w3.org/1999/xlink" width="1500" height="1500" style="" viewBox="0 0 500 500"><rect x="0" y="0" width="500" height="500" style="fill: rgb(255, 255, 255); fill-opacity: 1;"/><defs id="defs-c7cda3"><g class="clips"><clipPath id="clipc7cda3xyplot" class="plotclip"><rect width="377" height="437"/></clipPath><clipPath class="axesclip" id="clipc7cda3x"><rect x="28" y="0" width="377" height="500"/></clipPath><clipPath class="axesclip" id="clipc7cda3y"><rect x="0" y="40" width="500" height="437"/></clipPath><clipPath class="axesclip" id="clipc7cda3xy"><rect x="28" y="40" width="377" height="437"/></clipPath><clipPath class="contourclip" id="clip026f04"><path d="M0,0L377,0L377,437L0,437Z"/></clipPath></g><g class="gradients"/><g class="patterns"/></defs><g class="bglayer"><rect class="bg" x="28" y="40" width="377" height="437" style="fill: rgb(237, 237, 237); fill-opacity: 1; stroke-width: 0;"/></g><g class="layer-below"><g class="imagelayer"/><g class="shapelayer"/></g><g class="cartesianlayer"><g class="subplot xy"><g class="layer-subplot"><g class="shapelayer"/><g class="imagelayer"/></g><g class="gridlayer"><g class="x"><path class="xgrid crisp" transform="translate(90.83,0)" d="M0,40v437" style="stroke: rgb(255, 255, 255); stroke-opacity: 1; stroke-width: 1px;"/><path class="xgrid crisp" transform="translate(174.61,0)" d="M0,40v437" style="stroke: rgb(255, 255, 255); stroke-opacity: 1; stroke-width: 1px;"/><path class="xgrid crisp" transform="translate(258.39,0)" d="M0,40v437" style="stroke: rgb(255, 255, 255); stroke-opacity: 1; stroke-width: 1px;"/><path class="xgrid crisp" transform="translate(342.17,0)" d="M0,40v437" style="stroke: rgb(255, 255, 255); stroke-opacity: 1; stroke-width: 1px;"/></g><g class="y"><path class="ygrid crisp" transform="translate(0,452.72)" d="M28,0h377" style="stroke: rgb(255, 255, 255); stroke-opacity: 1; stroke-width: 1px;"/><path class="ygrid crisp" transform="translate(0,404.17)" d="M28,0h377" style="stroke: rgb(255, 255, 255); stroke-opacity: 1; stroke-width: 1px;"/><path class="ygrid crisp" transform="translate(0,355.61)" d="M28,0h377" style="stroke: rgb(255, 255, 255); stroke-opacity: 1; stroke-width: 1px;"/><path class="ygrid crisp" transform="translate(0,307.06)" d="M28,0h377" style="stroke: rgb(255, 255, 255); stroke-opacity: 1; stroke-width: 1px;"/><path class="ygrid crisp" transform="translate(0,258.5)" d="M28,0h377" style="stroke: rgb(255, 255, 255); stroke-opacity: 1; stroke-width: 1px;"/><path class="ygrid crisp" transform="translate(0,209.94)" d="M28,0h377" style="stroke: rgb(255, 255, 255); stroke-opacity: 1; stroke-width: 1px;"/><path class="ygrid crisp" transform="translate(0,161.39)" d="M28,0h377" style="stroke: rgb(255, 255, 255); stroke-opacity: 1; stroke-width: 1px;"/><path class="ygrid crisp" transform="translate(0,112.83)" d="M28,0h377" style="stroke: rgb(255, 255, 255); stroke-opacity: 1; stroke-width: 1px;"/><path class="ygrid crisp" transform="translate(0,64.28)" d="M28,0h377" style="stroke: rgb(255, 255, 255); stroke-opacity: 1; stroke-width: 1px;"/></g></g><g class="zerolinelayer"/><path class="xlines-below"/><path class="ylines-below"/><g class="overlines-below"/><g class="xaxislayer-below"/><g class="yaxislayer-below"/><g class="overaxes-below"/><g class="plot" transform="translate(28,40)" clip-path="url(#clipc7cda3xyplot)"><g class="contourlayer mlayer"><g class="contour" clip-path="url(#clip026f04)" style="opacity: 1;"><g class="heatmapcoloring"/><g class="contourbg"/><g class="contourfill"/><g class="contourlines"><g class="contourlevel"/><g class="contourlevel"><path class="openline" d="M0,357.6Q0.85,354.61 1.29,353.13C1.73,351.65 2.2,350.12 2.64,348.72C3.04,347.44 3.57,345.82 3.81,345.06C3.92,344.71 3.94,344.66 4.05,344.3C4.32,343.44 4.95,341.36 5.42,339.89C5.89,338.42 6.45,336.7 6.86,335.47C7.15,334.58 7.37,333.92 7.62,333.17C7.86,332.45 8.04,331.89 8.31,331.06C8.71,329.86 9.27,328.13 9.77,326.65C10.28,325.13 10.84,323.55 11.36,322.05C11.85,320.61 12.31,319.24 12.8,317.82C13.3,316.36 13.9,314.66 14.35,313.4C14.68,312.45 14.95,311.69 15.23,310.92C15.48,310.24 15.65,309.76 15.93,308.99C16.35,307.82 16.98,306.04 17.51,304.58C18.03,303.14 18.56,301.74 19.09,300.295C19.64,298.8 20.2,297.25 20.76,295.75C21.31,294.27 22.06,292.32 22.43,291.33C22.62,290.83 22.67,290.68 22.85,290.21C23.16,289.4 23.65,288.1 24.1,286.92C24.62,285.56 25.34,283.73 25.81,282.51C26.14,281.65 26.37,281.04 26.66,280.3C26.95,279.56 27.19,278.95 27.53,278.09C28.01,276.87 28.74,275.01 29.27,273.68C29.7,272.58 30.13,271.48 30.46,270.67C30.69,270.11 30.8,269.86 31.04,269.26C31.47,268.2 32.26,266.24 32.82,264.85C33.33,263.6 33.95,262.06 34.27,261.28C34.43,260.9 34.47,260.82 34.63,260.43C35,259.53 35.84,257.47 36.44,256.02C37.03,254.61 37.59,253.29 38.19,251.86C38.83,250.35 39.51,248.71 40.15,247.19C40.76,245.74 41.35,244.4 41.97,242.95999999999998C42.61,241.46 43.29,239.86 43.94,238.36C44.56,236.92 45.16,235.59 45.790000000000006,234.14999999999998C46.45,232.65 47.17,231 47.82,229.54C48.41,228.21 49.18,226.47 49.51,225.74C49.64,225.45 49.65,225.42 49.79,225.12C50.15,224.32 51.15,222.09 51.77,220.71C52.31,219.5 52.94,218.1 53.31,217.3C53.51,216.86 53.57,216.75 53.78,216.29C54.22,215.34 55.21,213.19 55.81,211.88C56.29,210.83 56.74,209.84 57.12,209.03C57.4,208.43 57.55,208.12 57.86,207.46C58.38,206.36 59.36,204.25 59.93,203.05C60.32,202.22 60.59,201.65 60.93,200.93C61.29,200.18 61.6,199.53 62.03,198.64C62.62,197.41 63.66,195.24 64.15,194.22C64.41,193.68 64.5,193.5 64.74,192.99C65.13,192.18 65.73,190.96 66.29,189.81C66.96,188.44 67.77,186.8 68.50999999999999,185.31C69.23,183.85 69.99,182.33 70.66,180.98C71.26,179.79 71.94,178.41 72.35,177.61C72.58,177.16 72.65,177.04 72.89,176.57C73.38,175.61 74.54,173.33 75.14,172.15C75.55,171.36 75.8,170.85 76.16,170.16C76.56,169.39 76.94,168.68 77.43,167.74C78.11,166.45 79.06,164.62 79.86,163.115C80.62,161.68 81.41,160.21 82.1,158.91C82.7,157.79 83.34,156.62 83.78,155.8C84.07,155.27 84.19,155.06 84.5,154.49C85.07,153.45 86.37,151.08 86.93,150.08C87.22,149.56 87.31,149.38 87.59,148.89C88.04,148.08 88.78,146.76 89.4,145.67C90.05,144.53 90.94,142.96 91.39,142.17C91.62,141.76 91.68,141.67 91.92,141.25C92.45,140.33 93.9,137.85 94.49,136.84C94.8,136.31 94.9,136.13 95.2,135.63C95.68,134.82 96.47,133.48 97.11,132.42C97.74,131.37 98.51,130.1 99.01,129.29C99.33,128.77 99.45,128.57 99.8,128.01C100.46,126.95 101.73,124.88 102.68,123.375C103.58,121.94 104.62,120.32 105.35,119.18C105.85,118.4 106.18,117.9 106.63,117.21C107.13,116.44 107.65,115.64 108.23,114.77C108.9,113.75 109.89,112.28 110.43,111.47C110.75,111 110.85,110.85 111.19,110.35C111.87,109.36 113.21,107.41 114.245,105.945C115.28,104.47 116.73,102.45 117.39,101.53C117.69,101.11 117.76,101.02 118.05,100.62C118.63,99.83 119.94,98.06 120.64,97.11C121.12,96.47 121.4,96.1 121.86,95.49C122.47,94.68 123.33,93.57 124,92.7C124.59,91.94 125.1,91.29 125.67,90.57C126.26,89.82 126.87,89.05 127.49,88.28C128.13,87.48 128.84,86.62 129.47,85.85C130.04,85.15 130.53,84.57 131.12,83.87C131.79,83.07 132.61,82.11 133.28,81.33C133.86,80.66 134.32,80.12 134.9,79.45C135.57,78.68 136.4,77.76 137.09,76.99C137.71,76.3 138.25,75.71 138.86,75.04C139.51,74.33 140.21,73.57 140.9,72.84C141.59,72.1 142.33,71.32 143,70.63C143.6,70.01 144.08,69.52 144.71,68.87C145.49,68.07 146.64,66.91 147.35,66.21C147.82,65.75 148.02,65.55 148.52,65.07C149.39,64.23 150.89,62.78 152.13,61.62C153.42,60.41 155.36,58.65 156.13,57.96C156.44,57.68 156.48,57.64 156.78,57.38C157.44,56.8 159.01,55.44 159.94,54.64C160.67,54.01 161.26,53.51 161.91,52.97C162.53,52.45 163.03,52.04 163.75,51.46C164.77,50.63 166.21,49.47 167.47,48.49C168.75,47.49 170.3,46.31 171.36,45.51C172.08,44.96 172.57,44.6 173.2,44.14C173.84,43.67 174.39,43.27 175.17,42.72C176.28,41.93 177.9,40.79 179.21499999999997,39.89C180.44,39.05 181.59,38.28 182.79,37.49C183.98,36.71 185.14,35.96 186.375,35.175C187.67,34.35 189.16,33.44 190.4,32.68C191.46,32.03 192.68,31.31 193.37,30.9C193.73,30.68 193.83,30.63 194.21,30.41C195.02,29.94 196.81,28.92 198.02,28.24C199.12,27.62 200.52,26.84 201.18,26.48C201.48,26.32 201.52,26.3 201.83,26.14C202.57,25.75 204.36,24.8 205.64,24.13C206.93,23.46 208.26,22.77 209.54500000000002,22.125C210.79,21.5 212,20.9 213.25,20.3C214.51,19.69 216.03,18.98 217.06,18.49C217.76,18.16 218.21,17.94 218.82,17.66C219.48,17.36 220.08,17.09 220.87,16.74C221.94,16.26 223.4,15.61 224.68,15.04C225.99,14.46 227.36,13.87 228.655,13.315000000000001C229.89,12.79 231.06,12.31 232.29,11.81C233.54,11.3 234.84,10.77 236.1,10.26C237.34,9.76 238.56,9.28 239.815,8.795C241.1,8.3 242.43,7.8 243.72,7.31C245,6.83 246.25,6.36 247.53,5.89C248.83,5.41 250.16,4.92 251.45,4.455C252.7,4.01 253.9,3.6 255.14,3.17C256.4,2.73 257.68,2.29 258.95,1.86C260.22,1.43 261.74,0.92 262.76,0.58Q263.45,0.35 264.48,0" style="stroke-miterlimit: 1; vector-effect: non-scaling-stroke; fill: none; stroke: rgb(47, 38, 33); stroke-opacity: 1; stroke-width: 2px;"/><path class="openline" d="M377,130.43Q376.7,131.63 376.5,132.42C376.2,133.6 375.76,135.37 375.39,136.84C375.02,138.31 374.65,139.79 374.27,141.25C373.9,142.69 373.54,144.08 373.155,145.52999999999997C372.76,147.02 372.33,148.58 371.92,150.08C371.51,151.56 371.11,153.01 370.7,154.49C370.28,155.99 369.85,157.53 369.41499999999996,159.01999999999998C369,160.47 368.58,161.88 368.15,163.32C367.71,164.78 367.25,166.29 366.81,167.74C366.38,169.16 365.97,170.52 365.515,171.95C365.04,173.46 364.52,175.05 364.02,176.57C363.53,178.06 362.97,179.74 362.56,180.98C362.26,181.89 362.03,182.59 361.77,183.35C361.53,184.06 361.34,184.58 361.05,185.39C360.63,186.58 360.01,188.35 359.48,189.81C358.96,191.25 358.45,192.66 357.91499999999996,194.10500000000002C357.36,195.6 356.77,197.14 356.19,198.64C355.62,200.12 354.79,202.19 354.45,203.05C354.31,203.4 354.29,203.46 354.15,203.8C353.84,204.56 353.17,206.18 352.64,207.46C352.05,208.87 351.16,210.94 350.76,211.88C350.57,212.32 350.53,212.43 350.34,212.85C349.99,213.65 349.37,215.06 348.81,216.29C348.16,217.73 347.37,219.46 346.655,220.965C345.98,222.39 345.33,223.74 344.65,225.12C343.97,226.5 343.31,227.84 342.59000000000003,229.265C341.82,230.78 340.82,232.67 340.14,233.95C339.67,234.85 339.33,235.49 338.92,236.24C338.53,236.96 338.21,237.52 337.74,238.36C337.05,239.59 336.03,241.4 335.17,242.88C334.32,244.34 333.31,246.01 332.6,247.19C332.1,248.03 331.75,248.6 331.3,249.32C330.83,250.07 330.4,250.76 329.86,251.61C329.17,252.69 327.99,254.51 327.49,255.27C327.26,255.62 327.23,255.66 326.99,256.02C326.39,256.91 324.89,259.15 323.845,260.655C322.85,262.09 321.59,263.84 320.86,264.85C320.45,265.43 320.28,265.66 319.88,266.2C319.28,267.02 318.28,268.35 317.59,269.26C317.03,270 316.61,270.56 316.07,271.25C315.47,272.02 314.8,272.88 314.16,273.68C313.53,274.48 312.88,275.29 312.26,276.05C311.69,276.76 311.17,277.37 310.58,278.09C309.91,278.89 309.11,279.85 308.45,280.63C307.88,281.31 307.42,281.84 306.84,282.51C306.17,283.29 305.34,284.23 304.65,285.01C304.05,285.69 303.54,286.26 302.94,286.92C302.28,287.65 301.53,288.47 300.84,289.22C300.17,289.94 299.51,290.64 298.86,291.33C298.24,291.99 297.68,292.58 297.03,293.26C296.28,294.04 295.32,295.04 294.62,295.75C294.09,296.29 293.78,296.6 293.22,297.16C292.41,297.97 290.88,299.49 290.2,300.16C289.85,300.5 289.77,300.58 289.41,300.93C288.62,301.7 286.88,303.37 285.61,304.57C284.35,305.76 282.65,307.33 281.8,308.11C281.37,308.5 281.24,308.62 280.83,308.99C280.13,309.62 278.87,310.77 277.99,311.55C277.24,312.22 276.55,312.82 275.89,313.4C275.29,313.92 274.86,314.31 274.18,314.89C273.2,315.74 271.8,316.93 270.56,317.98C269.26,319.07 267.49,320.56 266.57,321.32C266.09,321.72 265.91,321.86 265.46,322.23C264.76,322.8 263.67,323.7 262.76,324.43C261.84,325.17 260.69,326.09 259.99,326.65C259.56,326.99 259.41,327.11 258.95,327.47C258.08,328.15 255.94,329.83 255.14,330.45C254.78,330.73 254.7,330.79 254.35,331.06C253.67,331.58 252.32,332.62 251.33,333.37C250.39,334.09 249.25,334.94 248.55,335.47C248.13,335.79 247.98,335.9 247.53,336.24C246.66,336.89 244.62,338.4 243.72,339.06C243.23,339.42 243.05,339.56 242.59,339.89C241.89,340.4 240.87,341.14 239.91,341.83C238.79,342.63 237.52,343.55 236.28,344.43C234.98,345.35 233.41,346.46 232.29,347.25C231.48,347.82 230.86,348.26 230.2,348.72C229.6,349.14 229.17,349.43 228.48,349.9C227.46,350.6 225.51,351.94 224.68,352.51C224.28,352.79 224.17,352.87 223.78,353.13C223.09,353.6 221.9,354.41 220.87,355.1C219.7,355.88 218.39,356.76 217.13,357.595C215.85,358.45 214.43,359.38 213.25,360.16C212.26,360.81 211.21,361.51 210.51,361.96C210.07,362.24 209.91,362.34 209.44,362.64C208.56,363.2 206.7,364.42 205.64,365.1C204.87,365.59 204.31,365.96 203.66,366.37C203.04,366.77 202.55,367.07 201.83,367.53C200.79,368.19 198.97,369.33 198.02,369.93C197.46,370.29 197.19,370.46 196.67,370.79C195.97,371.23 195.12,371.75 194.21,372.31C193.08,373.01 191.22,374.15 190.4,374.66C190.01,374.9 189.91,374.97 189.54,375.2C188.85,375.62 187.64,376.36 186.6,376.99C185.41,377.71 183.48,378.87 182.79,379.29C182.53,379.45 182.51,379.47 182.25,379.62C181.62,380 180.12,380.89 178.98,381.57C177.72,382.32 176.29,383.16 174.995,383.92499999999995C173.76,384.65 172.6,385.34 171.36,386.06C170.07,386.81 168.69,387.6 167.4,388.35C166.16,389.07 165,389.74 163.75,390.45C162.44,391.2 161.02,392 159.72,392.735C158.49,393.43 157.35,394.08 156.13,394.76C154.88,395.46 153.09,396.43 152.32,396.86C151.98,397.05 151.92,397.09 151.59,397.27C150.92,397.64 149.6,398.37 148.52,398.96C147.32,399.61 145.63,400.52 144.71,401.02C144.19,401.3 143.97,401.43 143.49,401.69C142.79,402.07 141.85,402.57 140.9,403.07C139.75,403.68 138.14,404.53 137.09,405.09C136.35,405.48 135.83,405.77 135.19,406.1C134.56,406.43 134.03,406.7 133.28,407.09C132.23,407.64 130.65,408.45 129.47,409.06C128.45,409.58 127.33,410.17 126.63,410.52C126.23,410.72 126.1,410.79 125.67,411C124.82,411.43 123.14,412.29 121.86,412.93C120.56,413.58 119.22,414.23 117.935,414.87C116.68,415.49 115.48,416.09 114.24,416.7C112.98,417.32 111.44,418.05 110.43,418.54C109.76,418.86 109.36,419.06 108.77,419.34C108.1,419.66 107.45,419.97 106.63,420.36C105.54,420.88 104.08,421.58 102.82,422.16C101.59,422.73 100.41,423.26 99.16499999999999,423.83C97.87,424.43 96.51,425.08 95.2,425.67C93.92,426.25 92.43,426.9 91.39,427.36C90.68,427.68 90.2,427.9 89.58,428.17C88.93,428.46 88.36,428.71 87.59,429.05C86.52,429.52 85.05,430.18 83.78,430.72C82.51,431.26 80.71,432 79.97,432.31C79.66,432.44 79.62,432.46 79.32,432.59C78.66,432.87 77.26,433.48 76.16,433.94C74.95,434.45 73.63,435 72.35,435.51Q71.07,436.02 68.5,437" style="stroke-miterlimit: 1; vector-effect: non-scaling-stroke; fill: none; stroke: rgb(47, 38, 33); stroke-opacity: 1; stroke-width: 2px;"/></g><g class="contourlevel"><path class="openline" d="M0,379.97Q1.25,376.77 1.88,375.2C2.5,373.67 3.14,372.16 3.765,370.675C4.37,369.22 4.95,367.82 5.57,366.37C6.21,364.87 6.9,363.31 7.5600000000000005,361.82C8.2,360.37 8.82,358.98 9.47,357.55C10.12,356.11 10.78,354.66 11.46,353.205C12.15,351.72 12.91,350.12 13.57,348.72C14.16,347.48 14.84,346.02 15.23,345.23C15.43,344.82 15.49,344.73 15.71,344.3C16.18,343.38 17.28,341.13 17.89,339.89C18.34,338.98 18.66,338.29 19.04,337.53C19.4,336.82 19.7,336.29 20.13,335.47C20.75,334.28 21.95,331.97 22.41,331.06C22.62,330.66 22.65,330.57 22.85,330.18C23.26,329.39 24.12,327.83 24.75,326.65C25.39,325.46 26.23,323.85 26.66,323.07C26.87,322.69 26.92,322.62 27.14,322.23C27.64,321.34 28.97,318.94 29.58,317.82C29.95,317.14 30.12,316.79 30.46,316.17C30.91,315.36 31.49,314.4 32.07,313.4C32.75,312.22 33.86,310.22 34.27,309.52C34.42,309.26 34.44,309.25 34.6,308.99C35.06,308.23 36.55,305.68 37.19,304.58C37.57,303.93 37.73,303.62 38.08,303.02C38.56,302.21 39.23,301.16 39.83,300.16C40.49,299.06 41.4,297.49 41.89,296.7C42.15,296.28 42.23,296.18 42.5,295.75C43.09,294.82 44.68,292.21 45.22,291.33C45.45,290.96 45.48,290.9 45.7,290.54C46.18,289.77 47.32,288.01 48,286.92C48.56,286.03 49.02,285.25 49.51,284.48C49.95,283.78 50.31,283.28 50.81,282.51C51.51,281.43 52.86,279.28 53.31,278.59C53.47,278.34 53.48,278.34 53.65,278.09C54.14,277.35 55.95,274.6 56.54,273.68C56.81,273.26 56.86,273.17 57.12,272.77C57.64,271.98 58.79,270.3 59.48,269.26C60.02,268.44 60.44,267.78 60.93,267.05C61.43,266.31 61.89,265.67 62.45,264.85C63.14,263.84 64.19,262.23 64.74,261.43C65.04,261 65.13,260.88 65.44,260.43C66.1,259.47 67.48,257.44 68.505,255.95999999999998C69.51,254.5 70.84,252.61 71.53,251.61C71.89,251.08 72,250.9 72.35,250.4C72.92,249.58 73.95,248.16 74.63,247.19C75.19,246.38 75.64,245.7 76.16,244.97C76.68,244.23 77.17,243.58 77.74,242.78C78.42,241.82 79.39,240.41 79.97,239.6C80.34,239.09 80.49,238.9 80.88,238.36C81.6,237.37 82.87,235.56 83.905,234.12C84.98,232.62 86.65,230.32 87.21,229.54C87.4,229.27 87.4,229.26 87.59,229C88.09,228.3 89.71,226.09 90.41,225.12C90.82,224.55 90.99,224.29 91.39,223.74C91.98,222.92 92.95,221.64 93.63,220.71C94.2,219.92 94.67,219.25 95.2,218.52C95.74,217.78 96.27,217.09 96.86,216.29C97.53,215.37 98.41,214.13 99.01,213.32C99.43,212.75 99.65,212.47 100.09,211.88C100.79,210.93 102.27,208.9 102.82,208.15C103.06,207.83 103.09,207.79 103.33,207.46C103.95,206.62 105.52,204.49 106.61,203.02C107.7,201.55 109.22,199.52 109.86,198.64C110.13,198.27 110.17,198.2 110.43,197.84C110.99,197.07 112.43,195.17 113.13,194.22C113.58,193.61 113.81,193.29 114.24,192.71C114.84,191.9 115.75,190.71 116.42,189.81C117.01,189.02 117.5,188.33 118.05,187.59C118.6,186.85 119.11,186.18 119.7,185.39C120.37,184.49 121.25,183.29 121.86,182.48C122.3,181.9 122.53,181.59 122.99,180.98C123.69,180.04 125.09,178.16 125.67,177.39C125.95,177.02 126,176.95 126.29,176.57C126.95,175.69 128.44,173.69 129.53,172.23000000000002C130.64,170.74 132.35,168.49 132.91,167.74C133.1,167.49 133.1,167.48 133.28,167.24C133.79,166.55 135.55,164.23 136.24,163.32C136.61,162.83 136.73,162.66 137.09,162.19C137.7,161.38 138.88,159.83 139.58,158.91C140.09,158.24 140.41,157.8 140.9,157.16C141.5,156.36 142.28,155.35 142.93,154.49C143.54,153.68 144.13,152.91 144.71,152.15C145.25,151.44 145.72,150.83 146.29,150.08C146.97,149.19 147.9,147.98 148.52,147.17C148.97,146.59 149.22,146.27 149.68,145.67C150.38,144.76 151.7,143.03 152.32,142.23C152.65,141.8 152.74,141.69 153.08,141.25C153.76,140.38 155.61,138 156.13,137.32C156.31,137.08 156.31,137.08 156.5,136.84C157.07,136.11 158.78,133.92 159.95,132.435C161.15,130.91 162.4,129.32 163.595,127.82C164.74,126.38 166.31,124.43 166.97,123.6C167.25,123.25 167.29,123.2 167.56,122.86C168.17,122.1 169.84,120.03 170.53,119.18C170.89,118.73 171,118.6 171.36,118.16C172.01,117.36 173.43,115.63 174.13,114.77C174.56,114.25 174.74,114.02 175.17,113.51C175.84,112.69 177.09,111.19 177.79,110.35C178.26,109.79 178.51,109.5 178.98,108.94C179.66,108.13 180.8,106.77 181.5,105.94C182,105.35 182.29,105.01 182.79,104.43C183.48,103.62 184.57,102.34 185.27,101.53C185.78,100.94 186.09,100.59 186.6,100C187.31,99.19 188.41,97.91 189.11,97.11C189.61,96.54 189.89,96.22 190.4,95.65C191.12,94.84 192.32,93.49 193.02,92.7C193.49,92.17 193.73,91.91 194.21,91.38C194.95,90.56 196.31,89.04 197.01,88.28C197.43,87.82 197.59,87.66 198.02,87.2C198.77,86.4 200.41,84.59 201.09,83.87C201.42,83.52 201.49,83.45 201.83,83.09C202.58,82.3 204.21,80.56 205.45499999999998,79.265C206.76,77.9 208.17,76.45 209.495,75.095C210.77,73.8 212.5,72.07 213.25,71.32C213.57,71 213.63,70.94 213.94,70.63C214.6,69.97 216.23,68.4 217.06,67.58C217.61,67.03 217.91,66.72 218.44,66.21C219.13,65.54 220.08,64.67 220.87,63.92C221.63,63.2 222.4,62.44 223.08,61.8C223.65,61.26 224.06,60.91 224.68,60.34C225.56,59.53 227.21,57.97 227.86,57.38C228.14,57.12 228.19,57.1 228.48,56.84C229.21,56.19 231.61,54.03 232.29,53.42C232.53,53.2 232.55,53.18 232.79,52.97C233.41,52.43 235.17,50.92 236.1,50.11C236.78,49.52 237.25,49.08 237.86,48.56C238.51,48 239.15,47.49 239.91,46.86C240.86,46.06 242.48,44.67 243.13,44.14C243.4,43.92 243.44,43.9 243.72,43.67C244.44,43.09 246.67,41.29 247.53,40.58C247.98,40.21 248.12,40.07 248.55,39.73C249.25,39.17 250.4,38.3 251.33,37.57C252.28,36.83 253.48,35.84 254.18,35.31C254.58,35 254.72,34.93 255.14,34.61C255.99,33.98 258.07,32.4 258.95,31.73C259.42,31.37 259.58,31.23 260.02,30.9C260.72,30.38 261.8,29.62 262.76,28.93C263.82,28.16 265.49,26.9 266.1,26.48C266.33,26.32 266.34,26.33 266.57,26.17C267.23,25.72 269.3,24.26 270.37,23.51C271.15,22.96 271.73,22.52 272.39,22.07C273,21.65 273.47,21.37 274.18,20.9C275.21,20.22 277.13,18.93 277.99,18.35C278.43,18.05 278.57,17.94 278.99,17.66C279.69,17.2 280.78,16.53 281.8,15.88C283.01,15.11 284.46,14.15 285.76,13.344999999999999C287,12.57 288.18,11.88 289.41,11.13C290.66,10.37 291.93,9.57 293.20500000000004,8.82C294.47,8.07 295.76,7.36 297.03,6.63C298.31,5.9 299.58,5.14 300.86,4.425000000000001C302.12,3.72 303.39,3.07 304.65,2.39C305.92,1.71 307.72,0.75 308.45,0.35Q308.75,0.19 309.07,0" style="stroke-miterlimit: 1; vector-effect: non-scaling-stroke; fill: none; stroke: rgb(59, 46, 38); stroke-opacity: 1; stroke-width: 2px;"/><path class="openline" d="M377,78.74Q376.84,79.11 376.7,79.45C376.35,80.29 375.53,82.4 374.94,83.87C374.35,85.34 373.79,86.8 373.18,88.25999999999999C372.57,89.74 371.91,91.22 371.28,92.7C370.65,94.18 370.04,95.66 369.39,97.13C368.74,98.6 368.06,100.08 367.4,101.53C366.76,102.95 366.16,104.33 365.49,105.765C364.79,107.27 363.96,108.95 363.3,110.35C362.74,111.53 362.17,112.8 361.77,113.61C361.53,114.1 361.43,114.26 361.17,114.77C360.66,115.77 359.56,117.98 358.97,119.18C358.57,120 358.32,120.55 357.96,121.26C357.57,122.02 357.19,122.7 356.72,123.6C356.07,124.84 354.82,127.24 354.43,128.01C354.29,128.28 354.29,128.3 354.15,128.56C353.78,129.27 352.7,131.19 352.04,132.42C351.44,133.53 350.79,134.79 350.34,135.6C350.06,136.11 349.94,136.3 349.63,136.84C349.05,137.86 347.7,140.27 347.15,141.25C346.88,141.74 346.81,141.89 346.54,142.36C346.08,143.17 345.23,144.57 344.59,145.67C343.96,146.75 343.21,148.08 342.73,148.89C342.43,149.39 342.31,149.56 341.99,150.08C341.38,151.08 339.83,153.66 339.33,154.49C339.13,154.82 339.12,154.86 338.92,155.18C338.46,155.93 337.27,157.81 336.58,158.91C336.03,159.79 335.59,160.52 335.11,161.28C334.66,161.99 334.28,162.53 333.77,163.32C333.07,164.4 331.77,166.44 331.3,167.16C331.12,167.44 331.1,167.46 330.91,167.74C330.39,168.52 328.53,171.3 327.97,172.15C327.74,172.49 327.71,172.54 327.49,172.87C326.98,173.63 325.65,175.55 324.95,176.57C324.46,177.29 324.15,177.76 323.69,178.42C323.14,179.21 322.48,180.11 321.86,180.98C321.21,181.89 320.46,182.99 319.88,183.79C319.44,184.4 319.17,184.75 318.7,185.39C318,186.35 316.64,188.25 316.07,189.02C315.8,189.38 315.75,189.44 315.47,189.81C314.82,190.68 313.33,192.69 312.21500000000003,194.16C311.05,195.7 309.79,197.33 308.615,198.85C307.49,200.29 305.99,202.18 305.31,203.05C305.01,203.44 304.95,203.52 304.65,203.9C304.03,204.68 302.48,206.59 301.78,207.46C301.38,207.96 301.24,208.15 300.84,208.64C300.18,209.46 298.87,211.03 298.17,211.88C297.71,212.44 297.49,212.71 297.03,213.26C296.35,214.08 295.18,215.45 294.48,216.29C293.99,216.88 293.71,217.22 293.22,217.8C292.53,218.61 291.43,219.89 290.73,220.71C290.22,221.3 289.92,221.66 289.41,222.25C288.71,223.06 287.61,224.32 286.91,225.12C286.41,225.7 286.12,226.04 285.61,226.62C284.9,227.43 283.72,228.75 283.02,229.54C282.54,230.08 282.29,230.37 281.8,230.92C281.07,231.74 279.77,233.17 279.07,233.95C278.63,234.44 278.44,234.66 277.99,235.16C277.26,235.97 275.76,237.6 275.07,238.36C274.69,238.78 274.57,238.91 274.18,239.33C273.45,240.13 271.67,242.07 271.01,242.78C270.72,243.1 270.67,243.14 270.37,243.46C269.65,244.23 267.97,246.04 266.73,247.365C265.43,248.75 264.06,250.21 262.75,251.60000000000002C261.47,252.95 259.58,254.93 258.95,255.59C258.74,255.81 258.74,255.81 258.54,256.02C257.96,256.63 255.89,258.78 255.14,259.56C254.77,259.95 254.67,260.05 254.3,260.43C253.61,261.14 252.12,262.68 251.33,263.5C250.81,264.04 250.53,264.33 250.03,264.85C249.33,265.57 248.29,266.63 247.53,267.42C246.88,268.08 246.36,268.63 245.74,269.26C245.09,269.93 244.41,270.61 243.72,271.32C242.98,272.08 242.11,272.98 241.42,273.68C240.86,274.25 240.49,274.62 239.91,275.21C239.11,276.02 237.78,277.38 237.08,278.09C236.67,278.51 236.52,278.65 236.1,279.08C235.31,279.88 233.31,281.92 232.72,282.51C232.51,282.72 232.5,282.72 232.29,282.93C231.64,283.57 229.7,285.56 228.415,286.85C227.16,288.12 225.44,289.85 224.68,290.61C224.35,290.94 224.29,291.01 223.97,291.33C223.3,292 221.68,293.61 220.87,294.43C220.34,294.96 220.08,295.24 219.57,295.75C218.87,296.45 217.84,297.47 217.06,298.25C216.38,298.93 215.8,299.53 215.17,300.16C214.53,300.8 213.93,301.38 213.25,302.06C212.47,302.84 211.45,303.88 210.75,304.58C210.25,305.08 209.97,305.34 209.44,305.86C208.62,306.67 206.98,308.33 206.32,308.99C206.01,309.3 205.96,309.35 205.64,309.66C204.89,310.4 203.12,312.17 201.85500000000002,313.42499999999995C200.58,314.69 198.74,316.5 198.02,317.22C197.74,317.5 197.71,317.54 197.43,317.82C196.79,318.46 195.03,320.16 194.21,320.98C193.7,321.49 193.46,321.74 192.97,322.23C192.27,322.92 191.19,323.95 190.4,324.73C189.71,325.41 189.12,326.02 188.48,326.65C187.85,327.27 187.28,327.81 186.6,328.47C185.8,329.26 184.69,330.37 183.98,331.06C183.51,331.52 183.29,331.72 182.79,332.2C181.95,333.01 180.04,334.89 179.44,335.47C179.22,335.69 179.21,335.69 178.98,335.91C178.31,336.56 176.32,338.5 175.02499999999998,339.745C173.78,340.94 172.22,342.42 171.36,343.25C170.9,343.7 170.73,343.88 170.29,344.3C169.59,344.97 168.39,346.09 167.56,346.88C166.87,347.54 166.3,348.12 165.66,348.72C165.03,349.32 164.44,349.84 163.75,350.49C162.91,351.28 161.68,352.47 160.98,353.13C160.55,353.53 160.39,353.66 159.94,354.08C159.08,354.88 157.45,356.42 156.185,357.595C154.91,358.78 153.14,360.37 152.32,361.14C151.93,361.51 151.84,361.61 151.46,361.96C150.78,362.59 149.39,363.81 148.52,364.61C147.82,365.25 147.26,365.79 146.62,366.37C145.99,366.94 145.42,367.42 144.71,368.05C143.81,368.85 142.36,370.19 141.68,370.79C141.34,371.09 141.26,371.15 140.9,371.46C140.11,372.15 137.73,374.24 137.09,374.81C136.87,375 136.87,375.01 136.66,375.2C136.07,375.72 134.21,377.3 133.28,378.11C132.61,378.69 132.17,379.1 131.57,379.62C130.91,380.18 130.24,380.71 129.47,381.36C128.53,382.15 127.01,383.48 126.35,384.03C126.04,384.29 125.99,384.32 125.67,384.58C124.91,385.2 122.67,387.06 121.86,387.74C121.48,388.06 121.39,388.14 121.03,388.44C120.35,389 118.99,390.07 118.05,390.84C117.19,391.54 116.29,392.3 115.59,392.86C115.08,393.27 114.8,393.45 114.24,393.89C113.29,394.63 111.08,396.38 110.43,396.9C110.2,397.08 110.2,397.09 109.97,397.27C109.37,397.74 107.65,399.04 106.63,399.83C105.77,400.5 104.94,401.17 104.24,401.69C103.71,402.09 103.41,402.29 102.82,402.72C101.86,403.43 99.78,404.97 99.01,405.55C98.67,405.8 98.62,405.86 98.29,406.1C97.62,406.59 96.23,407.57 95.2,408.31C94.18,409.05 92.83,410.05 92.15,410.52C91.81,410.75 91.74,410.79 91.39,411.03C90.61,411.57 88.62,412.95 87.59,413.67C86.88,414.16 86.43,414.51 85.81,414.93C85.16,415.38 84.56,415.75 83.78,416.27C82.71,416.98 80.77,418.25 79.97,418.79C79.6,419.04 79.52,419.1 79.17,419.34C78.49,419.79 77.23,420.59 76.16,421.27C74.95,422.04 73.57,422.91 72.28999999999999,423.71500000000003C71.03,424.5 69.8,425.27 68.55,426.03C67.32,426.78 66.11,427.5 64.86,428.24C63.57,429 62.22,429.81 60.93,430.55C59.68,431.27 58.47,431.94 57.22,432.64C55.93,433.36 54.63,434.1 53.31,434.82Q51.96,435.55 49.2,437" style="stroke-miterlimit: 1; vector-effect: non-scaling-stroke; fill: none; stroke: rgb(59, 46, 38); stroke-opacity: 1; stroke-width: 2px;"/></g><g class="contourlevel"><path class="openline" d="M0,391.13Q0.83,389.45 1.32,388.44C1.95,387.15 3.09,384.86 3.49,384.03C3.65,383.7 3.65,383.66 3.81,383.34C4.18,382.59 5.11,380.85 5.75,379.62C6.38,378.41 7.19,376.79 7.62,376.02C7.83,375.65 7.88,375.58 8.1,375.2C8.6,374.32 9.93,371.91 10.54,370.79C10.91,370.11 11.07,369.76 11.42,369.14C11.88,368.33 12.5,367.36 13.09,366.37C13.76,365.23 14.76,363.45 15.23,362.7C15.44,362.36 15.49,362.31 15.72,361.96C16.27,361.11 17.89,358.49 18.46,357.55C18.73,357.11 18.78,356.99 19.04,356.57C19.54,355.77 20.64,354.18 21.32,353.13C21.88,352.26 22.34,351.49 22.85,350.73C23.33,350.02 23.75,349.49 24.28,348.72C24.98,347.71 26.1,345.98 26.66,345.2C26.95,344.8 27.03,344.72 27.33,344.3C27.99,343.39 29.4,341.37 30.475,339.905C31.56,338.42 33.21,336.29 33.81,335.47C34.04,335.16 34.04,335.12 34.27,334.82C34.82,334.08 36.56,331.95 37.24,331.06C37.61,330.58 37.71,330.41 38.08,329.94C38.72,329.13 40.1,327.52 40.8,326.65C41.25,326.09 41.44,325.81 41.89,325.26C42.56,324.44 43.79,323.06 44.49,322.23C44.97,321.65 45.21,321.32 45.7,320.75C46.4,319.93 47.62,318.62 48.32,317.82C48.8,317.27 49.02,316.96 49.51,316.41C50.24,315.59 51.6,314.17 52.29,313.4C52.72,312.92 52.87,312.71 53.31,312.23C54.06,311.41 55.73,309.71 56.4,308.99C56.73,308.63 56.78,308.54 57.12,308.18C57.87,307.38 59.53,305.7 60.795,304.42999999999995C62.13,303.09 63.58,301.64 64.91499999999999,300.32500000000005C66.16,299.1 67.67,297.64 68.55,296.81C69.04,296.35 69.26,296.18 69.72,295.75C70.42,295.09 71.51,294.01 72.35,293.24C73.1,292.55 73.84,291.94 74.51,291.33C75.1,290.79 75.51,290.37 76.16,289.78C77.06,288.96 78.82,287.48 79.44,286.92C79.69,286.69 79.71,286.66 79.97,286.43C80.66,285.82 82.97,283.83 83.78,283.16C84.15,282.86 84.24,282.8 84.59,282.51C85.28,281.94 86.64,280.75 87.59,279.97C88.42,279.29 89.26,278.65 89.95,278.09C90.49,277.64 90.79,277.36 91.39,276.87C92.37,276.07 94.03,274.78 95.32,273.765C96.57,272.79 97.93,271.73 99.01,270.91C99.84,270.28 100.56,269.77 101.24,269.26C101.81,268.82 102.18,268.52 102.82,268.03C103.81,267.28 105.93,265.72 106.63,265.22C106.89,265.04 106.92,265.03 107.17,264.85C107.8,264.4 109.37,263.24 110.43,262.48C111.43,261.77 112.68,260.92 113.37,260.43C113.75,260.16 113.85,260.08 114.24,259.8C115.06,259.22 117.02,257.87 118.05,257.18C118.75,256.71 119.21,256.43 119.82,256.02C120.48,255.58 121.07,255.14 121.86,254.61C122.93,253.89 124.88,252.6 125.67,252.09C126.03,251.86 126.11,251.83 126.45,251.61C127.13,251.18 128.4,250.33 129.47,249.64C130.67,248.87 132.02,248 133.3,247.2C134.56,246.41 135.84,245.64 137.09,244.88C138.31,244.13 139.48,243.41 140.72,242.66500000000002C142.02,241.89 143.42,241.09 144.71,240.33C145.94,239.61 147.07,238.93 148.3,238.23000000000002C149.6,237.49 151,236.72 152.32,235.99C153.59,235.28 154.8,234.59 156.06,233.91C157.34,233.23 158.65,232.58 159.94,231.92C161.22,231.27 162.88,230.39 163.75,229.98C164.19,229.77 164.34,229.73 164.76,229.54C165.46,229.22 166.55,228.68 167.56,228.23C168.73,227.72 170.09,227.15 171.36,226.65C172.62,226.16 174.34,225.46 175.17,225.25C175.56,225.15 175.68,225.18 176.06,225.12C176.75,225.01 178.1,224.6 178.98,224.63C179.72,224.66 180.39,224.75 180.99,225.12C181.68,225.54 182.42,226.44 182.79,227.21C183.13,227.92 183.19,228.69 183.21,229.54C183.24,230.56 182.89,232.12 182.79,232.92C182.74,233.36 182.76,233.49 182.67,233.95C182.48,234.91 181.9,236.89 181.47,238.36C181.04,239.84 180.54,241.42 180.1,242.78C179.72,243.95 179.25,245.21 178.98,246.02C178.82,246.51 178.78,246.68 178.6,247.19C178.25,248.19 177.48,250.13 176.92,251.61C176.35,253.1 175.79,254.62 175.20499999999998,256.1C174.62,257.56 174.02,258.96 173.41,260.43C172.78,261.96 172.11,263.59 171.47500000000002,265.1C170.87,266.53 170.29,267.84 169.67,269.26C169.02,270.76 168.32,272.38 167.655,273.885C167.01,275.32 166.39,276.67 165.74,278.09C165.08,279.54 164.42,281.02 163.74,282.49C163.05,283.97 162.3,285.53 161.63,286.92C161.04,288.16 160.31,289.63 159.94,290.42C159.75,290.82 159.72,290.91 159.52,291.33C159.08,292.25 157.98,294.51 157.35,295.75C156.89,296.66 156.51,297.36 156.13,298.12C155.78,298.82 155.54,299.35 155.14,300.16C154.54,301.35 153.37,303.63 152.87,304.58C152.63,305.03 152.55,305.15 152.32,305.58C151.9,306.38 151.17,307.83 150.56,308.99C149.91,310.22 148.91,312.04 148.52,312.77C148.36,313.07 148.35,313.1 148.19,313.4C147.76,314.21 146.42,316.67 145.77,317.82C145.35,318.57 145.09,318.99 144.71,319.65C144.27,320.43 143.83,321.26 143.29,322.23C142.59,323.48 141.67,325.06 140.825,326.51C139.95,328.01 138.83,329.92 138.14,331.06C137.71,331.76 137.47,332.11 137.09,332.74C136.6,333.54 136.06,334.51 135.47,335.47C134.8,336.56 133.77,338.14 133.28,338.94C133.03,339.35 132.98,339.46 132.72,339.89C132.15,340.83 130.43,343.5 129.9,344.3C129.7,344.6 129.67,344.62 129.47,344.92C128.98,345.65 127.71,347.67 127.01,348.72C126.5,349.47 126.13,349.95 125.67,350.63C125.14,351.4 124.61,352.26 124.02,353.13C123.36,354.1 122.42,355.36 121.86,356.18C121.49,356.72 121.35,356.97 120.95,357.55C120.24,358.57 118.97,360.31 117.91,361.755C116.78,363.3 115.53,364.99 114.37,366.53C113.27,367.99 111.82,369.92 111.13,370.79C110.82,371.18 110.74,371.25 110.43,371.63C109.81,372.4 108.35,374.33 107.64,375.2C107.23,375.71 107.04,375.89 106.63,376.39C105.96,377.2 104.74,378.78 104.03,379.62C103.56,380.18 103.29,380.44 102.82,380.99C102.13,381.8 101,383.22 100.29,384.03C99.8,384.59 99.51,384.86 99.01,385.42C98.29,386.23 97.11,387.66 96.4,388.44C95.93,388.96 95.68,389.18 95.2,389.7C94.45,390.51 93.07,392.12 92.36,392.86C91.96,393.28 91.8,393.4 91.39,393.83C90.62,394.62 88.79,396.62 88.15,397.27C87.89,397.53 87.86,397.55 87.59,397.81C86.88,398.51 85.05,400.41 83.765,401.66999999999996C82.5,402.91 80.75,404.55 79.97,405.32C79.61,405.67 79.55,405.77 79.2,406.1C78.53,406.75 77.03,408.05 76.16,408.86C75.5,409.48 75.04,409.97 74.43,410.52C73.78,411.11 73.1,411.63 72.35,412.28C71.45,413.07 70.08,414.35 69.39,414.93C69.03,415.23 68.93,415.29 68.55,415.6C67.74,416.26 65.48,418.15 64.74,418.78C64.44,419.04 64.4,419.09 64.1,419.34C63.45,419.88 61.91,421.04 60.93,421.82C60.07,422.5 59.24,423.22 58.54,423.76C58.01,424.16 57.71,424.35 57.12,424.78C56.16,425.48 54.07,427.02 53.31,427.61C52.98,427.86 52.93,427.93 52.61,428.17C51.95,428.66 50.55,429.6 49.51,430.33C48.45,431.07 46.94,432.16 46.29,432.59C46.02,432.77 45.98,432.78 45.7,432.96C44.98,433.42 43,434.74 41.89,435.47Q41.02,436.04 39.57,437" style="stroke-miterlimit: 1; vector-effect: non-scaling-stroke; fill: none; stroke: rgb(72, 54, 43); stroke-opacity: 1; stroke-width: 2px;"/><path class="openline" d="M377,56.45Q376.69,56.95 376.44,57.38C375.9,58.3 374.56,60.72 373.97,61.8C373.63,62.42 373.52,62.7 373.19,63.27C372.72,64.09 371.97,65.2 371.35,66.21C370.7,67.28 369.9,68.72 369.38,69.52C369.07,70 368.94,70.13 368.61,70.63C367.94,71.63 366.66,73.69 365.65999999999997,75.17500000000001C364.68,76.63 363.35,78.43 362.65,79.45C362.26,80.02 362.15,80.25 361.77,80.78C361.18,81.6 360.09,82.94 359.41,83.87C358.86,84.62 358.49,85.21 357.96,85.91C357.37,86.68 356.66,87.47 356.03,88.28C355.39,89.09 354.77,90 354.15,90.77C353.59,91.46 353.07,92 352.49,92.7C351.81,93.51 351.01,94.59 350.34,95.38C349.79,96.03 349.34,96.47 348.78,97.11C348.09,97.9 347.24,98.99 346.54,99.78C345.96,100.43 345.48,100.89 344.9,101.53C344.22,102.28 343.44,103.23 342.73,104C342.09,104.69 341.47,105.27 340.84,105.94C340.2,106.62 339.6,107.34 338.92,108.05C338.19,108.81 337.28,109.65 336.6,110.35C336.04,110.92 335.7,111.34 335.11,111.94C334.31,112.76 332.88,114.08 332.19,114.77C331.8,115.15 331.7,115.28 331.3,115.68C330.49,116.48 328.81,118.05 327.55,119.23500000000001C326.28,120.43 324.55,122.04 323.69,122.8C323.28,123.17 323.15,123.25 322.75,123.6C322.05,124.21 320.78,125.42 319.88,126.2C319.12,126.87 318.39,127.43 317.72,128.01C317.13,128.52 316.73,128.91 316.07,129.48C315.09,130.32 313.65,131.51 312.4,132.54C311.11,133.61 309.44,134.99 308.45,135.77C307.87,136.23 307.58,136.43 307.05,136.84C306.35,137.39 305.52,138.1 304.65,138.78C303.66,139.56 302.05,140.75 301.41,141.25C301.14,141.46 301.12,141.49 300.84,141.71C300.13,142.26 298.02,143.84 297.03,144.57C296.41,145.03 296.05,145.26 295.49,145.67C294.8,146.17 294.08,146.73 293.22,147.36C292.12,148.16 290.69,149.18 289.42,150.08C288.15,150.97 286.76,151.94 285.61,152.73C284.66,153.38 283.69,154 282.99,154.49C282.51,154.82 282.31,154.99 281.8,155.34C280.89,155.96 279,157.21 277.99,157.87C277.34,158.3 276.94,158.53 276.36,158.91C275.68,159.35 275.01,159.82 274.18,160.36C273.09,161.07 271.19,162.29 270.37,162.8C269.98,163.04 269.87,163.09 269.5,163.32C268.81,163.74 267.62,164.51 266.57,165.17C265.34,165.94 263.87,166.84 262.57,167.63C261.34,168.38 260.18,169.05 258.95,169.78C257.67,170.54 256.33,171.35 255.04,172.095C253.79,172.82 252.59,173.48 251.33,174.19C250.02,174.93 248.63,175.75 247.325,176.465C246.1,177.14 244.94,177.74 243.72,178.39C242.47,179.06 240.81,179.97 239.91,180.43C239.42,180.68 239.23,180.75 238.77,180.98C238.07,181.33 237.07,181.85 236.1,182.33C234.95,182.9 233.46,183.62 232.29,184.16C231.3,184.62 230.24,185.07 229.54,185.39C229.1,185.59 228.95,185.69 228.48,185.89C227.61,186.26 225.96,186.88 224.68,187.3C223.42,187.72 222.15,188.2 220.87,188.41C219.61,188.62 218.14,189.05 217.06,188.59C215.93,188.1 214.74,186.64 214.3,185.39C213.85,184.11 214.28,182.44 214.46,180.98C214.64,179.5 215.05,178.04 215.41,176.57C215.77,175.09 216.31,173.16 216.63,172.15C216.8,171.61 216.89,171.43 217.06,170.93C217.34,170.12 217.73,168.89 218.13,167.74C218.6,166.38 219.22,164.66 219.71,163.32C220.12,162.2 220.57,161.04 220.87,160.23C221.07,159.7 221.13,159.48 221.35,158.91C221.75,157.87 222.52,155.94 223.1,154.49C223.66,153.08 224.18,151.74 224.77,150.315C225.39,148.81 226.09,147.19 226.73,145.67C227.34,144.21 227.91,142.81 228.53,141.365C229.17,139.87 229.88,138.32 230.53,136.84C231.16,135.41 231.74,134.07 232.385,132.64C233.06,131.13 233.85,129.43 234.51,128.01C235.08,126.79 235.73,125.4 236.1,124.6C236.3,124.17 236.34,124.05 236.55,123.6C236.99,122.65 238.04,120.45 238.66,119.18C239.13,118.22 239.53,117.43 239.91,116.65C240.23,115.98 240.43,115.53 240.8,114.77C241.36,113.6 242.45,111.4 242.99,110.35C243.29,109.76 243.44,109.52 243.72,108.97C244.14,108.16 244.68,107.04 245.24,105.94C245.92,104.6 246.75,102.99 247.525,101.52000000000001C248.3,100.05 249.18,98.39 249.87,97.11C250.41,96.12 250.9,95.27 251.33,94.48C251.68,93.83 251.89,93.42 252.28,92.7C252.9,91.55 254.26,89.1 254.74,88.28C254.93,87.96 254.96,87.93 255.14,87.62C255.57,86.88 256.61,85.02 257.28,83.87C257.87,82.87 258.48,81.89 258.95,81.08C259.31,80.47 259.48,80.13 259.88,79.45C260.55,78.31 261.74,76.37 262.655,74.88C263.54,73.44 264.57,71.76 265.3,70.63C265.79,69.86 266.13,69.4 266.57,68.71C267.07,67.93 267.55,67.1 268.13,66.21C268.8,65.17 269.84,63.69 270.37,62.88C270.67,62.42 270.74,62.28 271.06,61.8C271.71,60.81 273.1,58.79 274.13,57.315C275.15,55.85 276.5,53.91 277.2,52.97C277.54,52.5 277.66,52.39 277.99,51.94C278.58,51.14 279.72,49.49 280.43,48.56C280.94,47.88 281.31,47.47 281.8,46.83C282.41,46.04 283.13,44.99 283.79,44.14C284.4,43.35 285.02,42.65 285.61,41.91C286.18,41.18 286.68,40.48 287.28,39.73C287.94,38.91 288.77,38 289.41,37.21C289.96,36.54 290.35,35.98 290.92,35.31C291.6,34.5 292.54,33.5 293.22,32.71C293.78,32.06 294.16,31.54 294.72,30.9C295.4,30.13 296.33,29.19 297.03,28.41C297.64,27.73 298.1,27.13 298.7,26.48C299.36,25.77 300.14,25.04 300.84,24.3C301.53,23.57 302.21,22.75 302.88,22.07C303.48,21.46 304.01,21.02 304.65,20.38C305.45,19.59 306.6,18.34 307.31,17.66C307.76,17.23 307.97,17.09 308.45,16.64C309.33,15.83 310.88,14.29 312.145,13.145C313.42,11.98 315.21,10.5 316.07,9.72C316.5,9.33 316.61,9.19 317.02,8.83C317.71,8.23 318.96,7.3 319.88,6.55C320.75,5.83 321.7,4.96 322.41,4.41C322.9,4.03 323.15,3.9 323.69,3.51C324.62,2.83 326.69,1.27 327.49,0.65Q327.86,0.36 328.3,0" style="stroke-miterlimit: 1; vector-effect: non-scaling-stroke; fill: none; stroke: rgb(72, 54, 43); stroke-opacity: 1; stroke-width: 2px;"/></g><g class="contourlevel"><path class="openline" d="M0,398.44Q0.4,397.79 0.7,397.27C1.28,396.27 2.62,393.87 3.17,392.86C3.46,392.34 3.53,392.16 3.81,391.67C4.28,390.85 5.17,389.5 5.82,388.44C6.44,387.42 7.1,386.23 7.62,385.42C7.98,384.86 8.19,384.63 8.59,384.03C9.3,382.98 10.46,381.11 11.45,379.655C12.46,378.17 13.96,376.14 14.6,375.2C14.89,374.77 14.94,374.66 15.23,374.25C15.8,373.45 17.2,371.73 17.9,370.79C18.37,370.16 18.58,369.8 19.04,369.2C19.67,368.38 20.72,367.22 21.4,366.37C21.95,365.69 22.3,365.15 22.85,364.49C23.51,363.7 24.44,362.75 25.12,361.96C25.69,361.3 26.08,360.75 26.66,360.09C27.36,359.3 28.39,358.3 29.08,357.55C29.61,356.97 29.9,356.56 30.46,355.97C31.23,355.15 32.65,353.84 33.34,353.13C33.74,352.71 33.85,352.55 34.27,352.12C35.09,351.3 36.73,349.78 37.995,348.63C39.27,347.47 40.97,345.93 41.89,345.17C42.37,344.77 42.56,344.66 43.01,344.3C43.72,343.73 44.77,342.77 45.7,342.04C46.64,341.3 47.93,340.42 48.62,339.89C49.01,339.59 49.1,339.48 49.51,339.17C50.33,338.56 52.27,337.2 53.31,336.53C54,336.08 54.47,335.85 55.08,335.47C55.74,335.06 56.33,334.62 57.12,334.14C58.18,333.5 59.85,332.55 60.93,332C61.7,331.61 62.29,331.38 62.94,331.06C63.56,330.76 64.02,330.47 64.74,330.14C65.77,329.67 67.27,329.03 68.55,328.56C69.81,328.09 71.15,327.65 72.35,327.32C73.4,327.03 74.67,326.81 75.35,326.65C75.71,326.57 75.79,326.51 76.16,326.45C76.96,326.31 78.7,326.09 79.97,326.06C81.24,326.03 82.81,326.12 83.78,326.27C84.4,326.36 84.72,326.49 85.27,326.65C85.96,326.85 86.76,326.98 87.59,327.4C88.74,327.98 90.6,329.38 91.39,330.09C91.8,330.46 91.91,330.59 92.23,331.06C92.86,331.98 94.05,334.15 94.55,335.47C94.92,336.45 95.03,337.36 95.2,338.16C95.34,338.8 95.44,339.18 95.52,339.89C95.65,341.02 95.73,342.83 95.71,344.3C95.69,345.77 95.49,347.8 95.37,348.72C95.31,349.15 95.27,349.24 95.2,349.65C95.06,350.44 94.87,351.91 94.62,353.13C94.34,354.52 93.95,356.08 93.55,357.55C93.14,359.03 92.6,360.77 92.19,361.96C91.9,362.79 91.65,363.33 91.39,364.05C91.12,364.8 90.92,365.48 90.58,366.37C90.1,367.61 89.3,369.55 88.74,370.79C88.33,371.71 87.95,372.39 87.59,373.15C87.26,373.85 87.06,374.39 86.67,375.2C86.09,376.4 84.92,378.67 84.39,379.62C84.13,380.09 84.03,380.2 83.78,380.65C83.32,381.45 82.56,382.94 81.92,384.03C81.29,385.1 80.46,386.32 79.97,387.14C79.66,387.66 79.57,387.88 79.23,388.44C78.58,389.5 77.25,391.48 76.24,392.96000000000004C75.25,394.42 73.93,396.32 73.22,397.27C72.85,397.76 72.71,397.89 72.35,398.36C71.73,399.16 70.61,400.79 69.9,401.69C69.4,402.33 69.05,402.68 68.55,403.29C67.9,404.09 67.04,405.28 66.35,406.1C65.78,406.77 65.31,407.23 64.74,407.89C64.06,408.68 63.24,409.75 62.55,410.52C61.98,411.15 61.52,411.56 60.93,412.19C60.19,412.98 59.2,414.19 58.49,414.93C57.98,415.46 57.66,415.71 57.12,416.25C56.31,417.06 54.82,418.67 54.13,419.34C53.78,419.68 53.68,419.73 53.31,420.07C52.5,420.82 50.76,422.55 49.474999999999994,423.725C48.22,424.87 46.6,426.23 45.7,427.05C45.18,427.52 44.99,427.75 44.5,428.17C43.81,428.77 42.77,429.54 41.89,430.26C40.97,431.01 39.81,432.04 39.1,432.59C38.68,432.91 38.53,432.99 38.08,433.32C37.21,433.96 35.13,435.52 34.27,436.19Q33.83,436.54 33.27,437" style="stroke-miterlimit: 1; vector-effect: non-scaling-stroke; fill: none; stroke: rgb(85, 62, 47); stroke-opacity: 1; stroke-width: 2px;"/><path class="openline" d="M377,43.22Q376.58,43.72 376.25,44.14C375.55,45.04 374.2,47.01 373.08000000000004,48.44C371.91,49.94 370.63,51.47 369.34000000000003,52.93C368.05,54.39 366.67,55.85 365.36,57.19C364.15,58.43 362.7,59.88 361.77,60.7C361.22,61.19 360.92,61.36 360.41,61.8C359.71,62.4 358.83,63.3 357.96,64.02C357.05,64.77 355.74,65.66 355.05,66.21C354.66,66.52 354.56,66.65 354.15,66.97C353.33,67.6 351.38,68.95 350.34,69.61C349.65,70.05 349.18,70.26 348.57,70.63C347.91,71.03 347.33,71.47 346.54,71.93C345.48,72.55 343.89,73.39 342.73,73.94C341.79,74.39 340.82,74.73 340.12,75.04C339.64,75.25 339.44,75.4 338.92,75.61C338.01,75.98 336.39,76.57 335.11,76.95C333.85,77.33 332.58,77.66 331.3,77.9C330.04,78.14 328.76,78.32 327.49,78.4C326.23,78.48 324.95,78.49 323.69,78.36C322.41,78.22 321.12,78 319.88,77.58C318.58,77.14 316.87,76.22 316.07,75.72C315.66,75.46 315.56,75.38 315.21,75.04C314.5,74.36 312.85,72.45 312.26,71.63C311.96,71.21 311.89,71.1 311.67,70.63C311.23,69.69 310.45,67.7 310.07,66.21C309.7,64.76 309.52,63.28 309.4,61.8C309.28,60.33 309.29,58.85 309.36,57.38C309.43,55.91 309.59,54.44 309.8,52.97C310.01,51.5 310.29,50.03 310.62,48.56C310.95,47.08 311.45,45.19 311.77,44.14C311.95,43.54 312.07,43.3 312.26,42.75C312.53,41.94 312.83,40.83 313.22,39.73C313.69,38.39 314.4,36.54 314.94,35.31C315.34,34.4 315.72,33.72 316.07,32.96C316.39,32.25 316.57,31.71 316.95,30.9C317.52,29.7 318.69,27.43 319.23,26.48C319.5,26.01 319.61,25.9 319.88,25.45C320.35,24.65 321.11,23.13 321.77,22.07C322.39,21.07 323.17,20.04 323.69,19.23C324.07,18.64 324.21,18.3 324.63,17.66C325.34,16.59 326.58,14.91 327.65999999999997,13.495000000000001C328.81,11.98 330.07,10.38 331.33500000000004,8.879999999999999C332.59,7.39 333.91,5.91 335.21000000000004,4.54C336.44,3.25 338.14,1.68 338.92,0.87Q339.29,0.49 339.72,0" style="stroke-miterlimit: 1; vector-effect: non-scaling-stroke; fill: none; stroke: rgb(85, 62, 47); stroke-opacity: 1; stroke-width: 2px;"/></g><g class="contourlevel"><path class="openline" d="M0,403.75Q0.88,402.49 1.4,401.69C2.1,400.61 3.31,398.56 3.81,397.85C4.01,397.56 4.05,397.56 4.26,397.27C4.85,396.47 6.39,394.14 7.48,392.645C8.54,391.2 10.03,389.36 10.71,388.44C11.04,388 11.09,387.86 11.42,387.44C12.05,386.63 13.67,384.87 14.35,384.03C14.74,383.56 14.83,383.36 15.23,382.9C15.93,382.08 17.64,380.37 18.31,379.62C18.64,379.25 18.69,379.14 19.04,378.76C19.79,377.95 21.49,376.3 22.755000000000003,375.1C24.03,373.89 25.77,372.29 26.66,371.55C27.1,371.19 27.26,371.12 27.68,370.79C28.39,370.23 29.5,369.19 30.46,368.45C31.42,367.71 32.76,366.87 33.44,366.37C33.81,366.1 33.88,365.99 34.27,365.72C35.07,365.16 36.91,363.99 38.08,363.32C39.03,362.78 40.04,362.34 40.74,361.96C41.21,361.71 41.39,361.55 41.89,361.3C42.78,360.86 44.42,360.14 45.7,359.67C46.96,359.21 48.23,358.8 49.51,358.49C50.77,358.19 52.04,357.94 53.31,357.84C54.57,357.74 55.86,357.69 57.12,357.86C58.4,358.03 59.7,358.3 60.93,358.89C62.3,359.55 63.83,360.56 64.9,361.775C66,363.03 66.83,364.81 67.39,366.37C67.91,367.82 68.12,369.31 68.27,370.79C68.42,372.25 68.38,373.73 68.29,375.2C68.2,376.68 67.99,378.15 67.73,379.62C67.47,381.1 67.11,382.57 66.71,384.03C66.31,385.51 65.69,387.4 65.31,388.44C65.09,389.02 64.96,389.24 64.74,389.78C64.41,390.59 64.03,391.75 63.56,392.86C62.99,394.21 61.98,396.34 61.49,397.27C61.26,397.72 61.16,397.81 60.93,398.24C60.5,399.03 59.78,400.57 59.14,401.69C58.51,402.8 57.6,404.1 57.12,404.92C56.83,405.41 56.78,405.59 56.46,406.1C55.83,407.13 54.44,409.14 53.400000000000006,410.625C52.37,412.09 50.95,414.06 50.25,414.93C49.93,415.33 49.83,415.39 49.51,415.77C48.86,416.54 47.39,418.52 46.68,419.34C46.28,419.8 46.11,419.92 45.7,420.37C44.98,421.17 43.46,423.02 42.76,423.76C42.4,424.14 42.27,424.21 41.89,424.59C41.09,425.38 39.52,427.1 38.265,428.33000000000004C36.98,429.59 34.96,431.39 34.27,432.07C34.02,432.32 34.02,432.36 33.77,432.59C33.16,433.16 31.39,434.57 30.46,435.38Q29.77,435.99 28.68,437" style="stroke-miterlimit: 1; vector-effect: non-scaling-stroke; fill: none; stroke: rgb(98, 69, 51); stroke-opacity: 1; stroke-width: 2px;"/><path class="openline" d="M377,34.09Q376.19,34.81 375.69,35.31C374.98,36.02 374.02,37.25 373.19,38.02C372.48,38.69 371.73,39.16 371.07,39.73C370.46,40.26 370.08,40.74 369.38,41.31C368.37,42.14 366.77,43.23 365.46500000000003,44.085C364.23,44.89 363.03,45.65 361.77,46.31C360.53,46.96 359.01,47.63 357.96,48.02C357.25,48.28 356.76,48.36 356.14,48.56C355.49,48.77 354.93,49.04 354.15,49.24C353.09,49.51 351.61,49.78 350.34,49.87C349.08,49.96 347.8,49.98 346.54,49.81C345.26,49.64 343.44,49.11 342.73,48.85C342.44,48.74 342.41,48.71 342.14,48.56C341.49,48.18 339.82,47.19 338.92,46.4C338.13,45.7 337.56,45.03 336.97,44.14C336.27,43.09 335.43,41.16 335.11,40.41C334.98,40.1 334.95,40.06 334.86,39.73C334.63,38.91 334.18,36.79 334.03,35.31C333.89,33.85 333.9,32.37 333.98,30.9C334.06,29.42 334.29,27.71 334.52,26.48C334.69,25.58 334.93,24.92 335.11,24.17C335.28,23.45 335.34,22.89 335.57,22.07C335.9,20.86 336.49,19.11 337.05,17.66C337.62,16.21 338.27,14.81 338.97,13.370000000000001C339.7,11.87 340.64,10.01 341.36,8.83C341.85,8.02 342.28,7.57 342.73,6.87C343.23,6.1 343.62,5.24 344.2,4.41C344.86,3.46 345.93,2.34 346.54,1.52Q346.97,0.94 347.59,0" style="stroke-miterlimit: 1; vector-effect: non-scaling-stroke; fill: none; stroke: rgb(98, 69, 51); stroke-opacity: 1; stroke-width: 2px;"/></g><g class="contourlevel"><path class="openline" d="M0,407.95Q0.91,406.82 1.44,406.1C2.14,405.14 3.19,403.47 3.81,402.68C4.16,402.24 4.32,402.13 4.69,401.69C5.39,400.85 6.97,398.67 7.62,397.94C7.91,397.61 7.99,397.59 8.29,397.27C8.96,396.55 10.67,394.44 11.42,393.68C11.8,393.29 11.96,393.23 12.34,392.86C13.04,392.18 14.37,390.67 15.23,389.87C15.87,389.28 16.38,388.96 16.98,388.44C17.65,387.86 18.25,387.17 19.04,386.51C20,385.71 21.76,384.51 22.37,384.03C22.61,383.84 22.61,383.8 22.85,383.62C23.51,383.13 25.46,381.82 26.66,381.12C27.68,380.52 28.91,380 29.59,379.62C29.97,379.41 30.06,379.3 30.46,379.1C31.27,378.7 32.99,377.99 34.27,377.58C35.53,377.18 36.8,376.84 38.08,376.66C39.34,376.48 40.63,376.36 41.89,376.47C43.17,376.59 44.52,376.84 45.7,377.36C46.89,377.89 48.37,379.07 48.98,379.62C49.25,379.87 49.3,379.92 49.51,380.23C49.99,380.94 51,382.68 51.45,384.03C51.91,385.41 52.12,386.96 52.22,388.44C52.32,389.91 52.22,391.39 52.06,392.86C51.9,394.34 51.61,395.81 51.26,397.27C50.91,398.75 50.29,400.74 49.95,401.69C49.78,402.15 49.69,402.26 49.51,402.7C49.18,403.5 48.73,404.9 48.21,406.1C47.61,407.49 46.48,409.76 46.05,410.52C45.89,410.8 45.86,410.8 45.7,411.07C45.28,411.77 44.25,413.81 43.55,414.93C42.98,415.84 42.39,416.55 41.89,417.32C41.44,418.01 41.17,418.6 40.66,419.34C39.98,420.33 38.66,421.89 38.08,422.7C37.76,423.15 37.71,423.31 37.37,423.76C36.72,424.62 34.89,426.62 34.27,427.39C33.99,427.74 33.98,427.83 33.69,428.17C33.06,428.92 31.18,430.75 30.46,431.56C30.08,431.99 30,432.18 29.61,432.59C28.94,433.3 27.49,434.53 26.66,435.34Q26.04,435.95 25.06,437" style="stroke-miterlimit: 1; vector-effect: non-scaling-stroke; fill: none; stroke: rgb(112, 77, 54); stroke-opacity: 1; stroke-width: 2px;"/><path class="openline" d="M377,27.17Q374.2,29.44 373.19,30.09C372.58,30.48 372.2,30.58 371.64,30.9C370.95,31.3 370.25,31.88 369.38,32.33C368.3,32.88 366.86,33.47 365.58,33.86C364.33,34.24 363.05,34.54 361.77,34.68C360.51,34.81 359.22,34.86 357.96,34.68C356.68,34.5 355.36,34.19 354.15,33.58C352.84,32.92 351.46,31.93 350.45,30.775C349.41,29.58 348.59,27.97 348.03,26.48C347.49,25.06 347.24,23.55 347.08,22.07C346.92,20.61 346.96,19.13 347.08,17.66C347.2,16.18 347.46,14.7 347.79,13.24C348.13,11.76 348.63,10.09 349.11,8.83C349.49,7.83 350,7.01 350.34,6.21C350.62,5.56 350.7,5.13 351.04,4.41Q351.59,3.25 353.56,0" style="stroke-miterlimit: 1; vector-effect: non-scaling-stroke; fill: none; stroke: rgb(112, 77, 54); stroke-opacity: 1; stroke-width: 2px;"/></g><g class="contourlevel"><path class="openline" d="M0,411.44Q0.48,410.94 0.84,410.52C1.54,409.69 3.16,407.44 3.81,406.72C4.09,406.41 4.17,406.4 4.46,406.1C5.13,405.41 6.84,403.31 7.62,402.55C8.04,402.15 8.23,402.07 8.64,401.69C9.35,401.04 10.52,399.7 11.42,398.92C12.17,398.27 12.94,397.82 13.6,397.27C14.19,396.78 14.55,396.35 15.23,395.82C16.21,395.06 18.21,393.74 19.04,393.27C19.42,393.05 19.53,393.05 19.9,392.86C20.59,392.5 21.78,391.7 22.85,391.21C24.02,390.67 25.38,390.15 26.66,389.8C27.91,389.46 29.19,389.16 30.46,389.1C31.72,389.04 33.04,389.04 34.27,389.41C35.58,389.8 37.21,390.78 38.08,391.48C38.64,391.94 38.88,392.23 39.27,392.86C39.89,393.88 40.71,395.77 41.05,397.27C41.38,398.72 41.37,400.22 41.32,401.69C41.27,403.16 41.02,404.64 40.72,406.1C40.42,407.58 39.97,409.16 39.5,410.52C39.08,411.74 38.39,413.13 38.08,413.93C37.92,414.36 37.92,414.49 37.73,414.93C37.32,415.89 36.18,418.19 35.52,419.34C35.07,420.12 34.69,420.55 34.27,421.24C33.8,422.01 33.43,422.89 32.86,423.76C32.19,424.79 31.02,426.16 30.46,426.98C30.13,427.46 30.07,427.68 29.72,428.17C29.07,429.07 27.26,431.06 26.66,431.83C26.4,432.17 26.39,432.26 26.12,432.59C25.5,433.34 23.56,435.21 22.85,436.02Q22.48,436.44 22.05,437" style="stroke-miterlimit: 1; vector-effect: non-scaling-stroke; fill: none; stroke: rgb(125, 85, 56); stroke-opacity: 1; stroke-width: 2px;"/><path class="openline" d="M377,21.62Q376.4,21.86 375.99,22.07C375.28,22.43 374.22,23.22 373.19,23.67C372.04,24.17 370.66,24.61 369.38,24.84C368.13,25.07 366.84,25.19 365.58,25.07C364.3,24.95 362.9,24.62 361.77,24.09C360.71,23.59 359.61,22.69 358.94,22.07C358.5,21.67 358.3,21.43 357.96,20.93C357.42,20.14 356.65,18.87 356.22,17.66C355.75,16.33 355.48,14.72 355.37,13.24C355.26,11.78 355.37,10.29 355.57,8.83C355.77,7.35 356.14,5.75 356.58,4.41C356.96,3.23 357.65,1.99 357.96,1.17Q358.14,0.69 358.35,0" style="stroke-miterlimit: 1; vector-effect: non-scaling-stroke; fill: none; stroke: rgb(125, 85, 56); stroke-opacity: 1; stroke-width: 2px;"/></g><g class="contourlevel"><path class="openline" d="M0,414.41Q2.41,411.66 3.6799999999999997,410.355C4.95,409.05 6.83,407.21 7.62,406.57C7.93,406.32 8,406.33 8.3,406.1C8.97,405.59 10.36,404.28 11.42,403.53C12.42,402.82 13.82,402.13 14.49,401.69C14.83,401.47 14.87,401.36 15.23,401.15C15.99,400.7 17.75,399.85 19.04,399.39C20.29,398.95 21.57,398.58 22.85,398.43C24.11,398.29 25.42,398.2 26.66,398.5C27.96,398.82 29.61,399.74 30.46,400.4C31,400.82 31.22,401.09 31.58,401.69C32.17,402.69 32.94,404.6 33.22,406.1C33.49,407.55 33.41,409.05 33.28,410.52C33.15,412 32.84,413.47 32.45,414.93C32.06,416.41 31.32,418.45 30.93,419.34C30.75,419.75 30.65,419.82 30.46,420.21C30.08,420.99 29.5,422.59 28.88,423.76C28.24,424.98 27.1,426.59 26.66,427.37C26.46,427.73 26.47,427.81 26.25,428.17C25.7,429.08 24.12,431.26 22.990000000000002,432.735Q21.87,434.2 19.49,437" style="stroke-miterlimit: 1; vector-effect: non-scaling-stroke; fill: none; stroke: rgb(138, 93, 57); stroke-opacity: 1; stroke-width: 2px;"/><path class="openline" d="M377,16.97Q375.15,17.44 374.45,17.66C373.95,17.81 373.73,18.01 373.19,18.1C372.27,18.26 370.33,18.28 369.38,18.13C368.78,18.04 368.49,17.87 367.96,17.66C367.26,17.38 366.35,17.13 365.58,16.55C364.59,15.8 363.36,14.36 362.72,13.24C362.2,12.33 362.01,11.29 361.77,10.48C361.59,9.86 361.44,9.52 361.36,8.83C361.23,7.72 361.25,5.48 361.39,4.41C361.47,3.79 361.64,3.53 361.77,2.96Q361.96,2.15 362.36,0" style="stroke-miterlimit: 1; vector-effect: non-scaling-stroke; fill: none; stroke: rgb(138, 93, 57); stroke-opacity: 1; stroke-width: 2px;"/></g><g class="contourlevel"><path class="openline" d="M0,416.9Q1.54,415.59 2.2,414.93C2.8,414.34 3.13,413.79 3.81,413.16C4.75,412.29 6.17,411.23 7.42,410.33C8.7,409.41 10.07,408.44 11.42,407.72C12.67,407.05 13.93,406.49 15.22,406.1C16.47,405.72 17.76,405.37 19.04,405.36C20.34,405.35 21.77,405.37 22.96,406.04C24.39,406.85 26.01,408.81 26.715,410.39C27.34,411.8 27.3,413.43 27.29,414.93C27.28,416.41 26.99,417.89 26.66,419.345C26.32,420.83 25.85,422.29 25.26,423.76C24.64,425.31 23.81,426.91 23.01,428.4C22.24,429.85 21.32,431.5 20.56,432.59C20.03,433.36 19.54,433.77 19.04,434.45Q18.47,435.22 17.34,437" style="stroke-miterlimit: 1; vector-effect: non-scaling-stroke; fill: none; stroke: rgb(150, 102, 58); stroke-opacity: 1; stroke-width: 2px;"/><path class="openline" d="M377,12.88Q374.44,13.28 373.19,13.06C371.89,12.83 370.42,12.23 369.38,11.48C368.42,10.79 367.69,9.9 367.1,8.83C366.42,7.6 365.93,5.9 365.73,4.41Q365.54,2.96 365.89,0" style="stroke-miterlimit: 1; vector-effect: non-scaling-stroke; fill: none; stroke: rgb(150, 102, 58); stroke-opacity: 1; stroke-width: 2px;"/></g><g class="contourlevel"><path class="openline" d="M0,419.3Q2.76,416.69 3.81,415.93C4.47,415.46 4.93,415.32 5.52,414.93C6.2,414.48 6.79,413.87 7.62,413.38C8.67,412.77 10.13,412.08 11.42,411.68C12.67,411.29 13.96,410.92 15.23,410.96C16.5,411 17.97,411.25 19.04,411.91C20.11,412.57 21.07,413.74 21.64,414.93C22.25,416.19 22.43,417.87 22.46,419.34C22.49,420.81 22.19,422.3 21.85,423.76C21.5,425.25 20.92,426.94 20.38,428.17C19.96,429.12 19.42,429.82 19.04,430.6C18.7,431.29 18.6,431.82 18.18,432.59Q17.53,433.8 15.27,437" style="stroke-miterlimit: 1; vector-effect: non-scaling-stroke; fill: none; stroke: rgb(161, 112, 59); stroke-opacity: 1; stroke-width: 2px;"/><path class="openline" d="M377,9.18Q375.97,8.98 375.39,8.83C374.71,8.65 373.92,8.64 373.19,8.16C372.11,7.46 370.57,5.61 369.96,4.41C369.52,3.54 369.53,2.65 369.38,1.87Q369.25,1.2 369.08,0" style="stroke-miterlimit: 1; vector-effect: non-scaling-stroke; fill: none; stroke: rgb(161, 112, 59); stroke-opacity: 1; stroke-width: 2px;"/></g><g class="contourlevel"><path class="openline" d="M0,421.27Q2.12,419.88 2.81,419.34C3.24,419 3.34,418.78 3.81,418.46C4.65,417.89 6.32,416.97 7.62,416.48C8.86,416.02 10.15,415.59 11.42,415.56C12.69,415.53 14.16,415.68 15.23,416.3C16.32,416.93 17.31,418.14 17.86,419.34C18.44,420.61 18.53,422.29 18.5,423.76C18.47,425.23 18.11,426.72 17.7,428.17C17.28,429.66 16.51,431.61 16,432.59C15.73,433.12 15.52,433.26 15.23,433.75Q14.76,434.55 13.57,437" style="stroke-miterlimit: 1; vector-effect: non-scaling-stroke; fill: none; stroke: rgb(171, 122, 60); stroke-opacity: 1; stroke-width: 2px;"/><path class="openline" d="M377,5.68Q375.48,4.94 374.85,4.41C374.21,3.88 373.64,3.21 373.19,2.49Q372.72,1.75 372.1,0" style="stroke-miterlimit: 1; vector-effect: non-scaling-stroke; fill: none; stroke: rgb(171, 122, 60); stroke-opacity: 1; stroke-width: 2px;"/></g><g class="contourlevel"><path class="openline" d="M0,423.24Q2.5,421.46 3.81,420.83C5.05,420.23 6.33,419.69 7.62,419.49C8.87,419.3 10.28,419.06 11.42,419.61C12.79,420.26 14.41,422.24 15,423.76C15.53,425.12 15.28,426.71 15.11,428.17C14.94,429.65 14.48,431.14 13.95,432.59Q13.41,434.09 11.87,437" style="stroke-miterlimit: 1; vector-effect: non-scaling-stroke; fill: none; stroke: rgb(180, 134, 64); stroke-opacity: 1; stroke-width: 2px;"/><path class="openline" d="M377,2.08L375.21,0" style="stroke-miterlimit: 1; vector-effect: non-scaling-stroke; fill: none; stroke: rgb(180, 134, 64); stroke-opacity: 1; stroke-width: 2px;"/></g><g class="contourlevel"><path class="openline" d="M0,425Q2.07,424.13 2.76,423.76C3.2,423.53 3.33,423.3 3.81,423.12C4.66,422.81 6.46,422.4 7.62,422.55C8.65,422.68 9.78,423.28 10.44,423.76C10.9,424.1 11.13,424.38 11.42,424.89C11.86,425.67 12.35,426.98 12.47,428.17C12.61,429.52 12.26,431.59 11.98,432.59C11.83,433.14 11.62,433.29 11.42,433.8Q11.1,434.61 10.35,437" style="stroke-miterlimit: 1; vector-effect: non-scaling-stroke; fill: none; stroke: rgb(188, 147, 69); stroke-opacity: 1; stroke-width: 2px;"/></g><g class="contourlevel"><path class="openline" d="M0,426.7Q2.53,425.5 3.81,425.38C5.07,425.27 6.64,425.43 7.62,425.97C8.47,426.44 9.1,427.23 9.51,428.17C10.02,429.33 10.12,431.13 10.02,432.59Q9.92,434.07 8.89,437" style="stroke-miterlimit: 1; vector-effect: non-scaling-stroke; fill: none; stroke: rgb(195, 160, 78); stroke-opacity: 1; stroke-width: 2px;"/></g><g class="contourlevel"><path class="openline" d="M0,428.38Q0.83,428.27 1.34,428.17C2.04,428.04 3.11,427.59 3.81,427.64C4.35,427.68 4.73,427.83 5.22,428.17C5.98,428.7 7.16,430.1 7.62,430.95C7.93,431.53 8.04,431.96 8.08,432.59C8.13,433.41 7.73,434.64 7.62,435.45Q7.54,436.04 7.44,437" style="stroke-miterlimit: 1; vector-effect: non-scaling-stroke; fill: none; stroke: rgb(202, 174, 89); stroke-opacity: 1; stroke-width: 2px;"/></g><g class="contourlevel"><path class="openline" d="M0,429.97Q2.81,429.72 3.81,430.22C4.71,430.67 5.45,431.6 5.85,432.59Q6.32,433.77 6.06,437" style="stroke-miterlimit: 1; vector-effect: non-scaling-stroke; fill: none; stroke: rgb(207, 188, 102); stroke-opacity: 1; stroke-width: 2px;"/></g><g class="contourlevel"><path class="openline" d="M0,431.57Q2.59,432.18 3.21,432.59C3.53,432.8 3.63,432.93 3.81,433.28Q4.18,434 4.69,437" style="stroke-miterlimit: 1; vector-effect: non-scaling-stroke; fill: none; stroke: rgb(213, 202, 117); stroke-opacity: 1; stroke-width: 2px;"/></g><g class="contourlevel"><path class="openline" d="M0,433.26L3.22,437" style="stroke-miterlimit: 1; vector-effect: non-scaling-stroke; fill: none; stroke: rgb(219, 216, 134); stroke-opacity: 1; stroke-width: 2px;"/></g><g class="contourlevel"><path class="openline" d="M0,435.13L1.61,437" style="stroke-miterlimit: 1; vector-effect: non-scaling-stroke; fill: none; stroke: rgb(225, 231, 152); stroke-opacity: 1; stroke-width: 2px;"/></g><g class="contourlevel"/></g></g></g></g><g class="overplot"/><path class="xlines-above crisp" d="" style="fill: none; stroke-width: 1px; stroke: rgb(0, 0, 0); stroke-opacity: 0;"/><path class="ylines-above crisp" d="" style="fill: none; stroke-width: 1px; stroke: rgb(0, 0, 0); stroke-opacity: 0;"/><g class="overlines-above"/><g class="xaxislayer-above"><path class="xtick ticks crisp" d="M0,478v5" transform="translate(90.83,0)" style="stroke: rgb(51, 51, 51); stroke-opacity: 1; stroke-width: 1px;"/><path class="xtick ticks crisp" d="M0,478v5" transform="translate(174.61,0)" style="stroke: rgb(51, 51, 51); stroke-opacity: 1; stroke-width: 1px;"/><path class="xtick ticks crisp" d="M0,478v5" transform="translate(258.39,0)" style="stroke: rgb(51, 51, 51); stroke-opacity: 1; stroke-width: 1px;"/><path class="xtick ticks crisp" d="M0,478v5" transform="translate(342.17,0)" style="stroke: rgb(51, 51, 51); stroke-opacity: 1; stroke-width: 1px;"/><g class="xtick"><text text-anchor="middle" x="0" y="497.4" transform="translate(90.83,0)" style="font-family: 'Open Sans', verdana, arial, sans-serif; font-size: 12px; fill: rgb(51, 51, 51); fill-opacity: 1; white-space: pre; opacity: 1;">0.2</text></g><g class="xtick"><text text-anchor="middle" x="0" y="497.4" style="font-family: 'Open Sans', verdana, arial, sans-serif; font-size: 12px; fill: rgb(51, 51, 51); fill-opacity: 1; white-space: pre; opacity: 1;" transform="translate(174.61,0)">0.4</text></g><g class="xtick"><text text-anchor="middle" x="0" y="497.4" style="font-family: 'Open Sans', verdana, arial, sans-serif; font-size: 12px; fill: rgb(51, 51, 51); fill-opacity: 1; white-space: pre; opacity: 1;" transform="translate(258.39,0)">0.6</text></g><g class="xtick"><text text-anchor="middle" x="0" y="497.4" style="font-family: 'Open Sans', verdana, arial, sans-serif; font-size: 12px; fill: rgb(51, 51, 51); fill-opacity: 1; white-space: pre; opacity: 1;" transform="translate(342.17,0)">0.8</text></g></g><g class="yaxislayer-above"><path class="ytick ticks crisp" d="M27,0h-5" transform="translate(0,452.72)" style="stroke: rgb(51, 51, 51); stroke-opacity: 1; stroke-width: 1px;"/><path class="ytick ticks crisp" d="M27,0h-5" transform="translate(0,404.17)" style="stroke: rgb(51, 51, 51); stroke-opacity: 1; stroke-width: 1px;"/><path class="ytick ticks crisp" d="M27,0h-5" transform="translate(0,355.61)" style="stroke: rgb(51, 51, 51); stroke-opacity: 1; stroke-width: 1px;"/><path class="ytick ticks crisp" d="M27,0h-5" transform="translate(0,307.06)" style="stroke: rgb(51, 51, 51); stroke-opacity: 1; stroke-width: 1px;"/><path class="ytick ticks crisp" d="M27,0h-5" transform="translate(0,258.5)" style="stroke: rgb(51, 51, 51); stroke-opacity: 1; stroke-width: 1px;"/><path class="ytick ticks crisp" d="M27,0h-5" transform="translate(0,209.94)" style="stroke: rgb(51, 51, 51); stroke-opacity: 1; stroke-width: 1px;"/><path class="ytick ticks crisp" d="M27,0h-5" transform="translate(0,161.39)" style="stroke: rgb(51, 51, 51); stroke-opacity: 1; stroke-width: 1px;"/><path class="ytick ticks crisp" d="M27,0h-5" transform="translate(0,112.83)" style="stroke: rgb(51, 51, 51); stroke-opacity: 1; stroke-width: 1px;"/><path class="ytick ticks crisp" d="M27,0h-5" transform="translate(0,64.28)" style="stroke: rgb(51, 51, 51); stroke-opacity: 1; stroke-width: 1px;"/><g class="ytick"><text text-anchor="end" x="19.6" y="4.199999999999999" transform="translate(0,452.72)" style="font-family: 'Open Sans', verdana, arial, sans-serif; font-size: 12px; fill: rgb(51, 51, 51); fill-opacity: 1; white-space: pre; opacity: 1;">0.1</text></g><g class="ytick"><text text-anchor="end" x="19.6" y="4.199999999999999" style="font-family: 'Open Sans', verdana, arial, sans-serif; font-size: 12px; fill: rgb(51, 51, 51); fill-opacity: 1; white-space: pre; opacity: 1;" transform="translate(0,404.17)">0.2</text></g><g class="ytick"><text text-anchor="end" x="19.6" y="4.199999999999999" style="font-family: 'Open Sans', verdana, arial, sans-serif; font-size: 12px; fill: rgb(51, 51, 51); fill-opacity: 1; white-space: pre; opacity: 1;" transform="translate(0,355.61)">0.3</text></g><g class="ytick"><text text-anchor="end" x="19.6" y="4.199999999999999" style="font-family: 'Open Sans', verdana, arial, sans-serif; font-size: 12px; fill: rgb(51, 51, 51); fill-opacity: 1; white-space: pre; opacity: 1;" transform="translate(0,307.06)">0.4</text></g><g class="ytick"><text text-anchor="end" x="19.6" y="4.199999999999999" style="font-family: 'Open Sans', verdana, arial, sans-serif; font-size: 12px; fill: rgb(51, 51, 51); fill-opacity: 1; white-space: pre; opacity: 1;" transform="translate(0,258.5)">0.5</text></g><g class="ytick"><text text-anchor="end" x="19.6" y="4.199999999999999" style="font-family: 'Open Sans', verdana, arial, sans-serif; font-size: 12px; fill: rgb(51, 51, 51); fill-opacity: 1; white-space: pre; opacity: 1;" transform="translate(0,209.94)">0.6</text></g><g class="ytick"><text text-anchor="end" x="19.6" y="4.199999999999999" style="font-family: 'Open Sans', verdana, arial, sans-serif; font-size: 12px; fill: rgb(51, 51, 51); fill-opacity: 1; white-space: pre; opacity: 1;" transform="translate(0,161.39)">0.7</text></g><g class="ytick"><text text-anchor="end" x="19.6" y="4.199999999999999" style="font-family: 'Open Sans', verdana, arial, sans-serif; font-size: 12px; fill: rgb(51, 51, 51); fill-opacity: 1; white-space: pre; opacity: 1;" transform="translate(0,112.83)">0.8</text></g><g class="ytick"><text text-anchor="end" x="19.6" y="4.199999999999999" style="font-family: 'Open Sans', verdana, arial, sans-serif; font-size: 12px; fill: rgb(51, 51, 51); fill-opacity: 1; white-space: pre; opacity: 1;" transform="translate(0,64.28)">0.9</text></g></g><g class="overaxes-above"/></g></g><g class="polarlayer"/><g class="ternarylayer"/><g class="geolayer"/><g class="funnelarealayer"/><g class="pielayer"/><g class="iciclelayer"/><g class="treemaplayer"/><g class="sunburstlayer"/><g class="glimages"/><defs id="topdefs-c7cda3"><g class="clips"/></defs><g class="layer-above"><g class="imagelayer"/><g class="shapelayer"/></g><g class="infolayer"><g class="cb026f04 colorbar" transform="translate(28,40)"><rect class="cbbg" x="385" y="0" width="87.03125" height="437" style="fill: rgb(0, 0, 0); fill-opacity: 0; stroke: rgb(68, 68, 68); stroke-opacity: 1; stroke-width: 0;"/><g class="cbfills" transform="translate(0,10)"/><g class="cblines" transform="translate(0,10)"><path class="cbline" d="M395,417h30" style="fill: none; stroke: rgb(34, 30, 27); stroke-opacity: 1; stroke-width: 2px;"/><path class="cbline" d="M395,396h30" style="fill: none; stroke: rgb(47, 38, 33); stroke-opacity: 1; stroke-width: 2px;"/><path class="cbline" d="M395,375h30" style="fill: none; stroke: rgb(59, 46, 38); stroke-opacity: 1; stroke-width: 2px;"/><path class="cbline" d="M395,354h30" style="fill: none; stroke: rgb(72, 54, 43); stroke-opacity: 1; stroke-width: 2px;"/><path class="cbline" d="M395,334h30" style="fill: none; stroke: rgb(85, 62, 47); stroke-opacity: 1; stroke-width: 2px;"/><path class="cbline" d="M395,313h30" style="fill: none; stroke: rgb(98, 69, 51); stroke-opacity: 1; stroke-width: 2px;"/><path class="cbline" d="M395,292h30" style="fill: none; stroke: rgb(111, 77, 54); stroke-opacity: 1; stroke-width: 2px;"/><path class="cbline" d="M395,271h30" style="fill: none; stroke: rgb(125, 85, 56); stroke-opacity: 1; stroke-width: 2px;"/><path class="cbline" d="M395,250h30" style="fill: none; stroke: rgb(138, 93, 57); stroke-opacity: 1; stroke-width: 2px;"/><path class="cbline" d="M395,229h30" style="fill: none; stroke: rgb(150, 102, 58); stroke-opacity: 1; stroke-width: 2px;"/><path class="cbline" d="M395,209h30" style="fill: none; stroke: rgb(161, 112, 59); stroke-opacity: 1; stroke-width: 2px;"/><path class="cbline" d="M395,188h30" style="fill: none; stroke: rgb(171, 122, 60); stroke-opacity: 1; stroke-width: 2px;"/><path class="cbline" d="M395,167h30" style="fill: none; stroke: rgb(180, 134, 64); stroke-opacity: 1; stroke-width: 2px;"/><path class="cbline" d="M395,146h30" style="fill: none; stroke: rgb(188, 147, 69); stroke-opacity: 1; stroke-width: 2px;"/><path class="cbline" d="M395,125h30" style="fill: none; stroke: rgb(195, 161, 78); stroke-opacity: 1; stroke-width: 2px;"/><path class="cbline" d="M395,104h30" style="fill: none; stroke: rgb(202, 174, 89); stroke-opacity: 1; stroke-width: 2px;"/><path class="cbline" d="M395,83h30" style="fill: none; stroke: rgb(207, 188, 102); stroke-opacity: 1; stroke-width: 2px;"/><path class="cbline" d="M395,63h30" style="fill: none; stroke: rgb(213, 202, 118); stroke-opacity: 1; stroke-width: 2px;"/><path class="cbline" d="M395,42h30" style="fill: none; stroke: rgb(219, 216, 134); stroke-opacity: 1; stroke-width: 2px;"/><path class="cbline" d="M395,21h30" style="fill: none; stroke: rgb(225, 231, 152); stroke-opacity: 1; stroke-width: 2px;"/><path class="cbline" d="M395,0h30" style="fill: none; stroke: rgb(232, 245, 171); stroke-opacity: 1; stroke-width: 2px;"/></g><g class="cbaxis crisp" transform="translate(0,-40)"><path class="ycb026f04tick ticks crisp" d="M424.5,0h-6" transform="translate(0,362.75)" style="stroke: rgb(237, 237, 237); stroke-opacity: 1; stroke-width: 1px;"/><path class="ycb026f04tick ticks crisp" d="M424.5,0h-6" transform="translate(0,258.5)" style="stroke: rgb(237, 237, 237); stroke-opacity: 1; stroke-width: 1px;"/><path class="ycb026f04tick ticks crisp" d="M424.5,0h-6" transform="translate(0,154.25)" style="stroke: rgb(237, 237, 237); stroke-opacity: 1; stroke-width: 1px;"/><g class="ycb026f04tick"><text text-anchor="start" x="427.9" y="4.199999999999999" transform="translate(0,467)" style="font-family: 'Open Sans', verdana, arial, sans-serif; font-size: 12px; fill: rgb(51, 51, 51); fill-opacity: 1; white-space: pre; opacity: 1;">0</text></g><g class="ycb026f04tick"><text text-anchor="start" x="427.9" y="4.199999999999999" style="font-family: 'Open Sans', verdana, arial, sans-serif; font-size: 12px; fill: rgb(51, 51, 51); fill-opacity: 1; white-space: pre; opacity: 1;" transform="translate(0,362.75)">2.9</text></g><g class="ycb026f04tick"><text text-anchor="start" x="427.9" y="4.199999999999999" style="font-family: 'Open Sans', verdana, arial, sans-serif; font-size: 12px; fill: rgb(51, 51, 51); fill-opacity: 1; white-space: pre; opacity: 1;" transform="translate(0,258.5)">5.8</text></g><g class="ycb026f04tick"><text text-anchor="start" x="427.9" y="4.199999999999999" style="font-family: 'Open Sans', verdana, arial, sans-serif; font-size: 12px; fill: rgb(51, 51, 51); fill-opacity: 1; white-space: pre; opacity: 1;" transform="translate(0,154.25)">8.7</text></g><g class="ycb026f04tick"><text text-anchor="start" x="427.9" y="4.199999999999999" style="font-family: 'Open Sans', verdana, arial, sans-serif; font-size: 12px; fill: rgb(51, 51, 51); fill-opacity: 1; white-space: pre; opacity: 1;" transform="translate(0,50.000000000000014)">11.6</text></g></g><g class="cbtitleunshift" transform="translate(-28,-40)"><g class="cbtitle"/></g><rect class="cboutline" x="395" y="10" width="30" height="417" style="stroke: rgb(68, 68, 68); stroke-opacity: 1; fill: none; stroke-width: 0;"/></g><g class="g-gtitle"><text class="gtitle" x="250" y="20" text-anchor="middle" dy="0em" style="font-family: 'Open Sans', verdana, arial, sans-serif; font-size: 17px; fill: rgb(51, 51, 51); opacity: 1; font-weight: normal; white-space: pre;">Best fit: BB7(1.81, 1.54) copula</text></g><g class="g-xtitle"/><g class="g-ytitle"/></g></svg>