<svg class="main-svg" xmlns="http://www.w3.org/2000/svg" xmlns:xlink="http://www.w3.org/1999/xlink" width="1500" height="1500" style="" viewBox="0 0 500 500"><rect x="0" y="0" width="500" height="500" style="fill: rgb(255, 255, 255); fill-opacity: 1;"/><defs id="defs-778d10"><g class="clips"><clipPath id="clip778d10xyplot" class="plotclip"><rect width="370" height="437"/></clipPath><clipPath class="axesclip" id="clip778d10x"><rect x="28" y="0" width="370" height="500"/></clipPath><clipPath class="axesclip" id="clip778d10y"><rect x="0" y="40" width="500" height="437"/></clipPath><clipPath class="axesclip" id="clip778d10xy"><rect x="28" y="40" width="370" height="437"/></clipPath><clipPath class="contourclip" id="clip43e08f"><path d="M0,33.5L370,33.5L370,403.5L0,403.5Z"/></clipPath></g><g class="gradients"/><g class="patterns"/></defs><g class="bglayer"><rect class="bg" x="28" y="40" width="370" height="437" style="fill: rgb(237, 237, 237); fill-opacity: 1; stroke-width: 0;"/></g><g class="layer-below"><g class="imagelayer"/><g class="shapelayer"/></g><g class="cartesianlayer"><g class="subplot xy"><g class="layer-subplot"><g class="shapelayer"/><g class="imagelayer"/></g><g class="gridlayer"><g class="x"><path class="xgrid crisp" transform="translate(89.67,0)" d="M0,40v437" style="stroke: rgb(255, 255, 255); stroke-opacity: 1; stroke-width: 1px;"/><path class="xgrid crisp" transform="translate(171.89,0)" d="M0,40v437" style="stroke: rgb(255, 255, 255); stroke-opacity: 1; stroke-width: 1px;"/><path class="xgrid crisp" transform="translate(254.11,0)" d="M0,40v437" style="stroke: rgb(255, 255, 255); stroke-opacity: 1; stroke-width: 1px;"/><path class="xgrid crisp" transform="translate(336.33,0)" d="M0,40v437" style="stroke: rgb(255, 255, 255); stroke-opacity: 1; stroke-width: 1px;"/></g><g class="y"><path class="ygrid crisp" transform="translate(0,381.83)" d="M28,0h370" style="stroke: rgb(255, 255, 255); stroke-opacity: 1; stroke-width: 1px;"/><path class="ygrid crisp" transform="translate(0,299.61)" d="M28,0h370" style="stroke: rgb(255, 255, 255); stroke-opacity: 1; stroke-width: 1px;"/><path class="ygrid crisp" transform="translate(0,217.39)" d="M28,0h370" style="stroke: rgb(255, 255, 255); stroke-opacity: 1; stroke-width: 1px;"/><path class="ygrid crisp" transform="translate(0,135.17000000000002)" d="M28,0h370" style="stroke: rgb(255, 255, 255); stroke-opacity: 1; stroke-width: 1px;"/><path class="ygrid crisp" transform="translate(0,52.94)" d="M28,0h370" style="stroke: rgb(255, 255, 255); stroke-opacity: 1; stroke-width: 1px;"/></g></g><g class="zerolinelayer"><path class="yzl zl crisp" transform="translate(0,464.06)" d="M28,0h370" style="stroke: rgb(255, 255, 255); stroke-opacity: 1; stroke-width: 1px;"/></g><path class="xlines-below"/><path class="ylines-below"/><g class="overlines-below"/><g class="xaxislayer-below"/><g class="yaxislayer-below"/><g class="overaxes-below"/><g class="plot" transform="translate(28,40)" clip-path="url(#clip778d10xyplot)"><g class="contourlayer mlayer"><g class="contour" clip-path="url(#clip43e08f)" style="opacity: 1;"><g class="heatmapcoloring"/><g class="contourbg"/><g class="contourfill"/><g class="contourlines"><g class="contourlevel"/><g class="contourlevel"><path class="openline" d="M0,360.05Q0.35,359.23 0.6,358.65C1.01,357.7 1.68,356.1 2.22,354.91C2.72,353.81 3.44,352.4 3.74,351.77C3.87,351.5 3.88,351.46 4.01,351.18C4.33,350.47 5.1,348.67 5.68,347.44C6.26,346.2 6.91,345.01 7.505,343.77C8.11,342.52 8.66,341.22 9.27,339.96C9.89,338.7 10.57,337.45 11.195,336.20000000000005C11.81,334.96 12.36,333.72 12.98,332.49C13.61,331.24 14.31,330 14.95,328.75C15.59,327.51 16.18,326.25 16.82,325.02C17.45,323.8 18.11,322.64 18.759999999999998,321.40999999999997C19.43,320.14 20.14,318.75 20.78,317.54C21.35,316.47 22.05,315.19 22.42,314.53C22.6,314.2 22.64,314.14 22.83,313.8C23.25,313.04 24.25,311.17 24.85,310.07C25.33,309.19 25.78,308.39 26.16,307.71C26.45,307.19 26.62,306.9 26.94,306.33C27.47,305.39 28.49,303.56 29.04,302.59C29.39,301.97 29.59,301.62 29.9,301.06C30.28,300.39 30.68,299.68 31.16,298.85C31.79,297.77 32.95,295.8 33.34,295.12C33.49,294.87 33.5,294.85 33.64,294.6C34,293.98 34.88,292.45 35.5,291.38C36.12,290.32 36.99,288.86 37.37,288.23C37.54,287.95 37.56,287.92 37.73,287.64C38.16,286.93 39.33,284.94 39.95,283.9C40.4,283.15 40.73,282.6 41.11,281.97C41.48,281.36 41.78,280.88 42.21,280.17C42.84,279.15 44.08,277.13 44.51,276.43C44.67,276.16 44.69,276.13 44.85,275.87C45.23,275.24 46.17,273.72 46.81,272.69C47.42,271.71 48.16,270.52 48.59,269.84C48.83,269.46 48.9,269.35 49.15,268.95C49.67,268.13 50.93,266.15 51.51,265.22C51.85,264.67 52,264.41 52.32,263.91C52.75,263.22 53.31,262.37 53.88,261.48C54.57,260.41 55.39,259.13 56.18,257.92C57,256.65 58.04,255.04 58.71,254.01C59.15,253.33 59.42,252.92 59.8,252.33C60.23,251.68 60.64,251.05 61.16,250.27C61.85,249.22 62.77,247.84 63.59,246.60500000000002C64.42,245.35 65.44,243.82 66.12,242.79C66.58,242.1 66.87,241.65 67.27,241.05C67.7,240.41 68.11,239.82 68.63,239.06C69.33,238.03 70.25,236.66 71.08500000000001,235.43C71.94,234.17 73.02,232.57 73.7,231.58C74.13,230.95 74.37,230.6 74.75,230.04C75.21,229.37 75.72,228.64 76.27,227.84C76.94,226.87 78.05,225.24 78.48,224.63C78.65,224.38 78.67,224.36 78.85,224.11C79.33,223.43 80.84,221.26 81.45,220.37C81.78,219.88 81.91,219.69 82.22,219.24C82.7,218.55 83.44,217.51 84.06,216.63C84.69,215.74 85.47,214.61 85.96,213.92C86.26,213.49 86.37,213.34 86.69,212.89C87.3,212.03 88.87,209.84 89.34,209.16C89.52,208.91 89.53,208.89 89.7,208.64C90.13,208.02 91.32,206.37 91.99,205.42C92.53,204.66 92.97,204.02 93.43,203.37C93.85,202.78 94.18,202.35 94.66,201.68C95.37,200.7 96.38,199.28 97.255,198.055C98.16,196.79 99.35,195.14 100.02,194.21C100.4,193.68 100.56,193.45 100.91,192.96C101.41,192.27 102.11,191.32 102.72,190.47C103.35,189.59 104.15,188.48 104.65,187.79C104.97,187.36 105.09,187.2 105.43,186.73C106.08,185.84 107.34,184.1 108.25999999999999,182.825C109.14,181.61 110.15,180.24 110.86,179.26C111.36,178.57 111.68,178.1 112.12,177.5C112.59,176.86 113.04,176.26 113.58,175.52C114.26,174.6 115.39,173.03 115.86,172.39C116.07,172.11 116.1,172.07 116.31,171.78C116.83,171.06 118.46,168.83 119.03,168.05C119.29,167.69 119.35,167.61 119.6,167.26C120.09,166.59 121.1,165.22 121.76,164.31C122.33,163.53 122.84,162.79 123.33,162.13C123.74,161.56 124.03,161.2 124.49,160.57C125.2,159.61 126.25,158.16 127.13999999999999,156.93C128.06,155.67 129.26,154.02 129.93,153.1C130.31,152.58 130.46,152.36 130.81,151.88C131.31,151.19 132.03,150.21 132.65,149.36C133.28,148.5 134.05,147.43 134.55,146.74C134.88,146.29 135.01,146.11 135.36,145.62C136.02,144.71 137.26,143 138.175,141.73000000000002C139.06,140.51 140.05,139.14 140.76,138.15C141.26,137.46 141.59,136.98 142.02,136.38C142.48,135.74 142.92,135.15 143.45,134.41C144.13,133.47 145.32,131.79 145.76,131.18C145.93,130.94 145.94,130.92 146.12,130.67C146.6,130 148.18,127.78 148.78,126.93C149.09,126.49 149.19,126.34 149.49,125.92C149.98,125.23 150.8,124.1 151.43,123.2C152.04,122.33 152.74,121.32 153.23,120.63C153.56,120.16 153.7,119.97 154.06,119.46C154.71,118.53 155.93,116.79 156.825,115.515C157.67,114.31 158.57,113 159.28,111.98C159.82,111.2 160.26,110.56 160.71,109.91C161.11,109.33 161.4,108.92 161.86,108.25C162.55,107.25 163.58,105.75 164.435,104.5C165.28,103.26 166.28,101.79 166.97,100.77C167.45,100.06 167.77,99.58 168.18,98.97C168.61,98.34 168.99,97.79 169.49,97.04C170.18,96.01 171.13,94.59 171.95499999999998,93.35C172.79,92.1 173.78,90.59 174.46,89.56C174.93,88.84 175.26,88.36 175.66,87.74C176.07,87.11 176.42,86.57 176.91,85.82C177.59,84.77 178.56,83.3 179.365,82.05000000000001C180.17,80.81 181.05,79.42 181.74,78.35C182.27,77.53 182.71,76.83 183.13,76.16C183.49,75.6 183.72,75.24 184.12,74.61C184.74,73.63 186.01,71.6 186.47,70.87C186.66,70.57 186.69,70.52 186.87,70.23C187.27,69.59 188.16,68.16 188.79,67.14C189.41,66.14 190.2,64.85 190.61,64.18C190.82,63.84 190.87,63.76 191.09,63.4C191.57,62.62 192.75,60.66 193.35,59.66C193.75,59 193.99,58.59 194.34,58.01C194.73,57.35 195.11,56.73 195.59,55.92C196.25,54.81 197.19,53.24 197.945,51.955C198.65,50.75 199.32,49.59 199.98,48.45C200.61,47.37 201.46,45.91 201.82,45.28C201.97,45.01 201.99,44.98 202.14,44.71C202.54,44.01 203.64,42.06 204.26,40.97C204.75,40.12 205.18,39.37 205.56,38.69C205.86,38.15 206.03,37.84 206.36,37.24Q206.89,36.28 208.43,33.5" style="stroke-miterlimit: 1; vector-effect: non-scaling-stroke; fill: none; stroke: rgb(47, 38, 33); stroke-opacity: 1; stroke-width: 2px;"/><path class="openline" d="M370,195.07Q367.22,196.61 366.26,197.14C365.66,197.47 365.35,197.64 364.81,197.94C364.13,198.32 363.38,198.75 362.53,199.24C361.44,199.86 359.49,200.96 358.79,201.36C358.52,201.51 358.49,201.53 358.22,201.68C357.59,202.04 356.13,202.89 355.05,203.52C353.91,204.18 352.75,204.85 351.54499999999996,205.555C350.26,206.31 348.69,207.25 347.58,207.91C346.77,208.39 346.15,208.77 345.49,209.16C344.91,209.51 344.5,209.75 343.84,210.15C342.84,210.75 340.88,211.93 340.1,212.41C339.74,212.63 339.66,212.68 339.32,212.89C338.65,213.3 337.36,214.09 336.36,214.71C335.34,215.34 333.91,216.23 333.27,216.63C332.98,216.81 332.93,216.84 332.63,217.03C331.9,217.49 329.87,218.76 328.89,219.38C328.26,219.78 327.9,220.01 327.34,220.37C326.67,220.79 325.97,221.23 325.15,221.76C324.08,222.45 322.69,223.33 321.45000000000005,224.135C320.2,224.94 318.73,225.91 317.68,226.59C316.93,227.08 316.39,227.43 315.76,227.84C315.14,228.24 314.66,228.57 313.94,229.04C312.91,229.72 311.4,230.71 310.15,231.54500000000002C308.91,232.37 307.49,233.32 306.46,234.01C305.71,234.51 305.16,234.89 304.53,235.32C303.92,235.73 303.44,236.05 302.73,236.53C301.71,237.22 300.24,238.22 299,239.065C297.75,239.92 296.25,240.95 295.25,241.64C294.58,242.1 294.17,242.39 293.59,242.79C292.94,243.24 292.3,243.68 291.52,244.22C290.5,244.93 289.19,245.83 287.985,246.675C286.71,247.57 284.97,248.79 284.04,249.44C283.53,249.8 283.34,249.94 282.87,250.27C282.18,250.76 281.17,251.46 280.3,252.07C279.4,252.7 278.27,253.52 277.58,254.01C277.16,254.31 277.01,254.41 276.57,254.72C275.72,255.32 273.5,256.9 272.83,257.38C272.58,257.56 272.56,257.57 272.32,257.74C271.71,258.18 270.03,259.37 269.09,260.05C268.35,260.58 267.76,261.02 267.12,261.48C266.52,261.91 266.04,262.24 265.35,262.74C264.36,263.45 262.99,264.44 261.77,265.32500000000005C260.5,266.24 258.79,267.48 257.88,268.14C257.39,268.49 257.21,268.62 256.76,268.95C256.07,269.45 255,270.22 254.14,270.85C253.29,271.47 252.31,272.19 251.62,272.69C251.14,273.04 250.92,273.19 250.4,273.57C249.48,274.24 247.83,275.44 246.57,276.36C245.34,277.25 243.89,278.3 242.93,279.01C242.3,279.47 241.94,279.76 241.37,280.17C240.71,280.66 239.97,281.17 239.19,281.74C238.28,282.4 236.91,283.41 236.24,283.9C235.89,284.15 235.81,284.21 235.45,284.47C234.67,285.04 232.44,286.67 231.72,287.19C231.43,287.4 231.39,287.43 231.11,287.64C230.47,288.11 228.9,289.24 227.98,289.92C227.24,290.46 226.64,290.91 226,291.38C225.4,291.82 224.93,292.14 224.24,292.64C223.26,293.35 221.89,294.36 220.675,295.24C219.4,296.16 217.66,297.42 216.77,298.07C216.3,298.41 216.14,298.53 215.71,298.85C215.02,299.35 213.91,300.15 213.03,300.78C212.18,301.39 211.23,302.09 210.54,302.59C210.05,302.94 209.82,303.1 209.29,303.48C208.36,304.15 206.71,305.34 205.445,306.245C204.22,307.12 202.8,308.13 201.82,308.84C201.15,309.32 200.72,309.65 200.13,310.07C199.48,310.53 198.84,310.97 198.08,311.51C197.13,312.18 195.48,313.37 194.86,313.8C194.61,313.97 194.59,313.98 194.34,314.16C193.66,314.63 191.47,316.2 190.61,316.81C190.16,317.13 190.01,317.24 189.58,317.54C188.89,318.03 187.76,318.81 186.87,319.44C185.99,320.06 184.95,320.8 184.26,321.28C183.81,321.59 183.62,321.72 183.13,322.05C182.24,322.66 180.07,324.17 179.39,324.65C179.14,324.83 179.12,324.85 178.87,325.02C178.26,325.45 176.63,326.56 175.66,327.23C174.86,327.78 174.13,328.29 173.46,328.75C172.9,329.13 172.55,329.37 171.92,329.8C170.93,330.48 169.33,331.56 168.07,332.41499999999996C166.84,333.25 165.47,334.17 164.44,334.87C163.68,335.39 163.09,335.8 162.45,336.23C161.85,336.63 161.4,336.92 160.71,337.38C159.68,338.06 158.15,339.08 156.89499999999998,339.90999999999997C155.66,340.73 154.28,341.65 153.23,342.34C152.45,342.86 151.82,343.27 151.17,343.7C150.58,344.08 150.17,344.35 149.49,344.79C148.46,345.46 146.85,346.5 145.57999999999998,347.32C144.37,348.11 143.09,348.93 142.02,349.62C141.13,350.19 140.28,350.75 139.59,351.18C139.09,351.5 138.83,351.65 138.28,351.99C137.35,352.57 135.37,353.83 134.55,354.35C134.15,354.6 134.04,354.67 133.66,354.91C132.98,355.34 131.79,356.08 130.81,356.69C129.78,357.33 128.26,358.27 127.63,358.65C127.37,358.81 127.34,358.83 127.07,358.99C126.37,359.42 124.35,360.66 123.33,361.29C122.62,361.72 122.14,362.02 121.53,362.39C120.9,362.77 120.35,363.1 119.6,363.55C118.56,364.17 116.57,365.34 115.86,365.77C115.58,365.94 115.55,365.96 115.27,366.13C114.64,366.51 113.18,367.38 112.12,368C111.05,368.62 109.52,369.5 108.9,369.86C108.65,370 108.63,370.01 108.38,370.16C107.7,370.55 105.73,371.71 104.65,372.34C103.82,372.82 103.11,373.22 102.44,373.6C101.88,373.91 101.53,374.11 100.91,374.46C99.94,375.01 98.11,376.03 97.17,376.56C96.6,376.88 96.31,377.05 95.79,377.34C95.11,377.72 94.31,378.17 93.43,378.65C92.33,379.25 90.46,380.25 89.7,380.67C89.36,380.86 89.3,380.9 88.97,381.08C88.31,381.45 87.03,382.15 85.96,382.72C84.75,383.36 83.36,384.07 82.09,384.74C80.86,385.39 79.7,386.05 78.48,386.68C77.25,387.32 75.99,387.91 74.75,388.55C73.5,389.19 72.26,389.89 71.01,390.52C69.78,391.14 68.54,391.69 67.3,392.305C66.05,392.93 64.8,393.61 63.54,394.23C62.28,394.84 60.98,395.39 59.73,395.995C58.49,396.59 57.3,397.24 56.06,397.82C54.83,398.4 53.03,399.17 52.32,399.49C52.04,399.62 52,399.63 51.73,399.76C51.1,400.06 49.69,400.78 48.59,401.28C47.4,401.82 45.8,402.49 44.85,402.9Q44.27,403.15 43.45,403.5" style="stroke-miterlimit: 1; vector-effect: non-scaling-stroke; fill: none; stroke: rgb(47, 38, 33); stroke-opacity: 1; stroke-width: 2px;"/></g><g class="contourlevel"><path class="openline" d="M0,370.95Q0.34,370.33 0.6,369.86C1.08,368.99 2.05,367.17 2.63,366.13C3.05,365.37 3.38,364.8 3.74,364.16C4.09,363.55 4.35,363.09 4.76,362.39C5.35,361.37 6.47,359.47 6.95,358.65C7.18,358.25 7.25,358.13 7.47,357.75C7.87,357.07 8.55,355.9 9.16,354.91C9.84,353.8 10.6,352.6 11.350000000000001,351.39C12.14,350.11 13.14,348.51 13.8,347.44C14.25,346.71 14.55,346.22 14.95,345.6C15.35,344.97 15.71,344.44 16.2,343.7C16.89,342.66 17.86,341.21 18.685000000000002,339.96C19.51,338.72 20.48,337.26 21.17,336.23C21.66,335.49 21.99,334.96 22.42,334.34C22.85,333.72 23.23,333.21 23.74,332.49C24.45,331.49 25.4,330.11 26.265,328.89C27.16,327.62 28.38,325.95 29.04,325.02C29.41,324.49 29.55,324.26 29.9,323.78C30.4,323.09 31.15,322.12 31.77,321.28C32.4,320.43 33.12,319.41 33.64,318.72C34,318.25 34.17,318.04 34.56,317.54C35.25,316.65 36.44,315.06 37.39,313.82C38.35,312.57 39.64,310.94 40.31,310.07C40.66,309.61 40.77,309.43 41.11,309C41.65,308.31 42.61,307.16 43.27,306.33C43.84,305.61 44.33,304.96 44.85,304.32C45.34,303.72 45.76,303.24 46.29,302.59C46.97,301.76 48.02,300.44 48.59,299.76C48.92,299.37 49.03,299.26 49.37,298.85C50.05,298.04 51.37,296.44 52.41,295.22C53.48,293.96 55.16,292.03 55.7,291.38C55.88,291.16 55.88,291.15 56.06,290.94C56.56,290.35 58.29,288.42 58.96,287.64C59.33,287.22 59.44,287.07 59.8,286.66C60.41,285.97 61.6,284.67 62.29,283.9C62.78,283.35 63.06,283 63.54,282.47C64.15,281.79 65.01,280.89 65.67,280.17C66.24,279.54 66.71,278.98 67.27,278.37C67.86,277.73 68.5,277.09 69.12,276.43C69.75,275.75 70.4,275.01 71.01,274.36C71.57,273.77 72.06,273.29 72.63,272.69C73.29,271.99 74.11,271.09 74.75,270.42C75.28,269.87 75.66,269.5 76.2,268.95C76.88,268.25 77.81,267.24 78.48,266.56C78.99,266.04 79.33,265.74 79.84,265.22C80.53,264.53 81.54,263.45 82.22,262.77C82.72,262.27 83.04,261.98 83.55,261.48C84.24,260.8 85.27,259.72 85.96,259.04C86.47,258.53 86.81,258.24 87.32,257.74C88.01,257.07 89,256.06 89.7,255.38C90.24,254.86 90.62,254.53 91.16,254.01C91.84,253.36 92.73,252.45 93.43,251.78C94.01,251.22 94.48,250.81 95.06,250.27C95.72,249.64 96.48,248.87 97.17,248.23C97.81,247.63 98.42,247.11 99.04,246.53C99.67,245.95 100.26,245.35 100.91,244.75C101.6,244.11 102.41,243.4 103.07,242.79C103.64,242.26 104.06,241.85 104.65,241.31C105.39,240.63 106.5,239.69 107.18,239.06C107.66,238.62 107.89,238.38 108.38,237.93C109.14,237.23 110.67,235.92 111.34,235.32C111.69,235.01 111.76,234.92 112.12,234.6C112.88,233.92 114.48,232.52 115.71000000000001,231.445C117.01,230.31 118.43,229.08 119.72999999999999,227.95C120.96,226.88 122.52,225.52 123.33,224.85C123.73,224.51 123.86,224.43 124.24,224.11C124.93,223.54 126.26,222.36 127.07,221.68C127.68,221.17 128.1,220.85 128.67,220.37C129.33,219.81 130.08,219.15 130.81,218.54C131.57,217.91 132.46,217.2 133.14,216.63C133.67,216.19 133.99,215.9 134.55,215.43C135.38,214.74 137.01,213.43 137.65,212.89C137.94,212.65 137.98,212.6 138.28,212.35C139.01,211.74 140.85,210.26 142.11,209.23000000000002C143.34,208.23 144.9,206.94 145.76,206.26C146.22,205.89 146.4,205.77 146.83,205.42C147.52,204.87 148.67,203.9 149.49,203.24C150.2,202.67 150.83,202.19 151.47,201.68C152.08,201.19 152.57,200.77 153.23,200.24C154.07,199.56 155.44,198.49 156.12,197.94C156.49,197.64 156.58,197.55 156.97,197.24C157.78,196.59 159.49,195.23 160.735,194.23000000000002C161.98,193.24 163.59,191.93 164.44,191.26C164.88,190.91 165.03,190.8 165.45,190.47C166.14,189.92 167.35,188.93 168.18,188.26C168.88,187.7 169.48,187.24 170.11,186.73C170.73,186.23 171.25,185.79 171.92,185.24C172.75,184.57 174.03,183.55 174.71,182.99C175.11,182.66 175.24,182.55 175.66,182.21C176.48,181.53 178.09,180.22 179.32,179.2C180.58,178.16 182.39,176.65 183.13,176.04C183.43,175.79 183.48,175.76 183.77,175.52C184.42,174.98 186.05,173.59 186.87,172.9C187.41,172.45 187.69,172.21 188.2,171.78C188.89,171.19 189.85,170.34 190.61,169.69C191.28,169.11 191.89,168.6 192.52,168.05C193.14,167.51 193.69,167 194.34,166.42C195.08,165.76 196.04,164.93 196.72,164.31C197.24,163.84 197.55,163.54 198.08,163.05C198.83,162.36 200.09,161.21 200.78,160.57C201.21,160.17 201.39,159.99 201.82,159.58C202.54,158.89 204.03,157.48 204.71,156.83C205.08,156.47 205.19,156.35 205.56,155.99C206.24,155.32 207.82,153.78 208.49,153.1C208.84,152.74 208.94,152.63 209.29,152.27C209.94,151.59 211.44,150.08 212.12,149.36C212.51,148.95 212.65,148.79 213.03,148.38C213.67,147.69 214.9,146.37 215.59,145.62C216.06,145.1 216.32,144.81 216.77,144.3C217.38,143.62 218.26,142.64 218.92,141.88C219.49,141.22 219.98,140.63 220.51,140.01C221.04,139.39 221.52,138.83 222.08,138.15C222.75,137.34 223.68,136.16 224.24,135.47C224.59,135.04 224.73,134.87 225.1,134.41C225.78,133.55 227.03,131.91 227.97,130.66C228.9,129.42 230.04,127.87 230.73,126.93C231.15,126.36 231.35,126.07 231.72,125.55C232.2,124.87 232.79,124.04 233.37,123.2C234.03,122.24 235.02,120.73 235.45,120.09C235.64,119.8 235.67,119.76 235.87,119.46C236.35,118.74 237.68,116.68 238.29,115.72C238.67,115.13 238.86,114.81 239.19,114.27C239.61,113.59 240.08,112.84 240.6,111.98C241.27,110.87 242.13,109.4 242.865,108.14C243.58,106.92 244.29,105.68 244.95,104.51C245.56,103.43 246.32,102.02 246.67,101.38C246.82,101.1 246.84,101.06 247,100.77C247.38,100.05 248.38,98.19 248.98,97.04C249.5,96.05 250.05,94.96 250.4,94.27C250.61,93.86 250.68,93.73 250.89,93.3C251.31,92.46 252.18,90.73 252.75,89.56C253.25,88.53 253.82,87.34 254.14,86.66C254.31,86.3 254.35,86.2 254.53,85.82C254.9,85.02 255.7,83.33 256.27,82.09C256.83,80.87 257.37,79.67 257.91499999999996,78.435C258.48,77.18 259.05,75.88 259.6,74.61C260.14,73.36 260.83,71.72 261.19,70.87C261.38,70.43 261.44,70.28 261.62,69.86C261.91,69.17 262.34,68.12 262.74,67.14C263.21,65.99 263.79,64.56 264.25,63.4C264.65,62.4 265.08,61.3 265.35,60.61C265.51,60.21 265.56,60.08 265.72,59.66C266.04,58.82 266.69,57.17 267.16,55.92C267.63,54.68 268.21,53.14 268.56,52.19C268.78,51.6 268.89,51.29 269.09,50.76C269.34,50.08 269.62,49.31 269.93,48.45C270.33,47.35 270.83,45.96 271.27,44.71C271.71,43.46 272.31,41.72 272.58,40.97C272.69,40.65 272.72,40.59 272.83,40.28C273.06,39.63 273.5,38.31 273.86,37.24Q274.26,36.06 275.12,33.5" style="stroke-miterlimit: 1; vector-effect: non-scaling-stroke; fill: none; stroke: rgb(59, 46, 38); stroke-opacity: 1; stroke-width: 2px;"/><path class="openline" d="M370,128.38Q367.44,129.24 366.26,129.64C365.19,130 363.87,130.44 363.22,130.67C362.91,130.78 362.85,130.81 362.53,130.92C361.78,131.19 360.04,131.79 358.79,132.23C357.54,132.67 356.15,133.17 355.05,133.57C354.19,133.88 353.42,134.16 352.74,134.41C352.21,134.61 351.9,134.72 351.31,134.94C350.36,135.29 348.82,135.87 347.58,136.34C346.33,136.81 344.68,137.46 343.84,137.78C343.42,137.94 343.29,137.99 342.89,138.15C342.2,138.42 341.1,138.85 340.1,139.25C338.94,139.71 337.51,140.29 336.36,140.76C335.38,141.16 334.33,141.59 333.64,141.88C333.22,142.06 333.07,142.12 332.63,142.31C331.78,142.67 330.14,143.36 328.89,143.9C327.62,144.45 326.32,145.02 325.065,145.585C323.83,146.13 322.63,146.67 321.41,147.23C320.17,147.8 318.48,148.6 317.68,148.97C317.3,149.15 317.2,149.19 316.84,149.36C316.16,149.68 314.97,150.25 313.94,150.75C312.77,151.32 311.04,152.19 310.2,152.61C309.77,152.82 309.64,152.89 309.23,153.1C308.54,153.45 307.45,154 306.46,154.52C305.31,155.12 303.45,156.12 302.73,156.5C302.44,156.66 302.4,156.68 302.12,156.83C301.48,157.18 300.07,157.94 298.99,158.55C297.82,159.21 296.58,159.92 295.36,160.635C294.1,161.37 292.63,162.23 291.52,162.9C290.66,163.42 289.91,163.89 289.23,164.31C288.69,164.64 288.37,164.83 287.78,165.21C286.82,165.82 284.76,167.15 284.04,167.63C283.74,167.83 283.7,167.86 283.41,168.05C282.77,168.48 281.26,169.47 280.3,170.13C279.46,170.71 278.63,171.3 277.95,171.78C277.43,172.15 277.14,172.35 276.57,172.77C275.63,173.46 274.08,174.6 272.84000000000003,175.53C271.59,176.47 269.95,177.72 269.09,178.4C268.63,178.77 268.46,178.91 268.03,179.26C267.34,179.82 266.16,180.75 265.35,181.42C264.67,181.98 264.11,182.46 263.49,182.99C262.87,183.52 262.28,184.01 261.62,184.58C260.86,185.24 259.88,186.12 259.2,186.73C258.69,187.18 258.4,187.44 257.88,187.91C257.13,188.6 255.81,189.83 255.12,190.47C254.71,190.85 254.55,190.99 254.14,191.38C253.42,192.06 251.91,193.56 251.23,194.21C250.87,194.56 250.76,194.66 250.4,195.01C249.72,195.68 248.18,197.26 247.51,197.94C247.15,198.31 247.03,198.42 246.67,198.79C246.02,199.47 244.61,200.96 243.92,201.68C243.51,202.11 243.33,202.29 242.93,202.72C242.29,203.41 241.14,204.67 240.45,205.42C239.96,205.95 239.66,206.26 239.19,206.78C238.57,207.46 237.74,208.42 237.08,209.16C236.5,209.81 235.99,210.36 235.45,210.98C234.9,211.61 234.39,212.22 233.81,212.89C233.16,213.65 232.31,214.61 231.72,215.3C231.29,215.81 231.05,216.09 230.6,216.63C229.91,217.45 228.52,219.08 227.98,219.73C227.74,220.02 227.71,220.07 227.46,220.37C226.85,221.11 225.34,222.92 224.3,224.18C223.28,225.41 221.97,227.02 221.29,227.84C220.95,228.26 220.84,228.39 220.51,228.79C219.95,229.47 218.93,230.75 218.26,231.58C217.71,232.25 217.27,232.77 216.77,233.39C216.26,234.02 215.8,234.62 215.24,235.32C214.57,236.15 213.58,237.36 213.03,238.05C212.7,238.47 212.59,238.62 212.24,239.06C211.57,239.91 210.26,241.52 209.26999999999998,242.765C208.27,244.01 206.91,245.72 206.26,246.53C205.95,246.92 205.86,247.01 205.56,247.38C205.01,248.06 203.94,249.43 203.26,250.27C202.73,250.93 202.31,251.42 201.82,252.03C201.31,252.67 200.83,253.3 200.26,254.01C199.6,254.83 198.63,255.98 198.08,256.67C197.73,257.1 197.61,257.28 197.24,257.74C196.56,258.6 195.27,260.16 194.26999999999998,261.39C193.24,262.65 191.76,264.49 191.15,265.22C190.9,265.52 190.85,265.56 190.61,265.85C190.07,266.49 188.76,268.12 188.07,268.95C187.6,269.51 187.31,269.83 186.87,270.36C186.3,271.04 185.59,271.93 184.96,272.69C184.35,273.42 183.69,274.17 183.13,274.83C182.65,275.4 182.33,275.82 181.82,276.43C181.14,277.24 179.96,278.57 179.39,279.26C179.07,279.64 178.99,279.77 178.65,280.17C177.98,280.98 176.62,282.54 175.55,283.77C174.42,285.07 173.19,286.49 172.055,287.78999999999996C170.98,289.02 169.58,290.62 168.9,291.38C168.58,291.74 168.49,291.81 168.18,292.16C167.58,292.83 166.27,294.36 165.57,295.12C165.12,295.61 164.88,295.84 164.44,296.32C163.81,297 162.87,298.11 162.19,298.85C161.65,299.44 161.24,299.86 160.71,300.43C160.1,301.09 159.39,301.9 158.75,302.59C158.15,303.24 157.55,303.83 156.97,304.46C156.39,305.08 155.87,305.69 155.27,306.33C154.63,307.02 153.86,307.78 153.23,308.44C152.69,309.02 152.28,309.49 151.72,310.07C151.05,310.77 150.14,311.66 149.49,312.34C148.97,312.88 148.64,313.26 148.12,313.8C147.44,314.5 146.43,315.49 145.76,316.18C145.26,316.69 144.97,317.03 144.46,317.54C143.78,318.23 142.7,319.26 142.02,319.95C141.52,320.46 141.23,320.78 140.73,321.28C140.05,321.96 138.97,322.97 138.28,323.66C137.76,324.17 137.46,324.51 136.94,325.02C136.26,325.69 135.25,326.62 134.55,327.3C134,327.84 133.63,328.22 133.08,328.75C132.41,329.39 131.51,330.21 130.81,330.87C130.21,331.44 129.73,331.93 129.14,332.49C128.49,333.1 127.75,333.75 127.07,334.38C126.41,335 125.77,335.64 125.13,336.23C124.52,336.79 123.96,337.26 123.33,337.83C122.61,338.49 121.71,339.35 121.03,339.96C120.5,340.44 120.15,340.72 119.6,341.21C118.83,341.9 117.53,343.09 116.84,343.7C116.43,344.06 116.28,344.17 115.86,344.54C115.08,345.21 113.15,346.94 112.56,347.44C112.35,347.62 112.34,347.62 112.12,347.8C111.47,348.34 109.54,350.02 108.28,351.09000000000003C107.06,352.13 105.46,353.45 104.65,354.13C104.24,354.47 104.13,354.58 103.74,354.91C103.06,355.48 101.74,356.53 100.91,357.21C100.26,357.74 99.78,358.16 99.18,358.65C98.54,359.17 97.89,359.66 97.17,360.23C96.34,360.89 95.19,361.85 94.5,362.39C94.07,362.73 93.89,362.84 93.43,363.19C92.56,363.86 90.93,365.15 89.68,366.11C88.44,367.06 86.85,368.25 85.96,368.94C85.46,369.33 85.25,369.5 84.78,369.86C84.09,370.38 83.07,371.1 82.22,371.73C81.38,372.35 80.41,373.1 79.72,373.6C79.24,373.95 79.01,374.09 78.48,374.46C77.55,375.12 75.88,376.34 74.61,377.235C73.39,378.1 72.01,379.05 71.01,379.76C70.29,380.27 69.78,380.65 69.16,381.08C68.54,381.51 68.01,381.84 67.27,382.33C66.24,383.02 64.78,383.98 63.54,384.81C62.29,385.64 60.84,386.61 59.8,387.3C59.06,387.79 58.53,388.15 57.9,388.55C57.28,388.95 56.79,389.25 56.06,389.7C54.99,390.36 53.39,391.36 52.11,392.15C50.9,392.9 49.7,393.66 48.59,394.34C47.6,394.95 46.43,395.63 45.75,396.03C45.37,396.25 45.25,396.32 44.85,396.55C44.03,397.03 42.13,398.15 41.11,398.74C40.41,399.15 39.95,399.41 39.34,399.76C38.7,400.12 38.13,400.45 37.37,400.87C36.33,401.45 34.51,402.42 33.64,402.9Q33.17,403.16 32.55,403.5" style="stroke-miterlimit: 1; vector-effect: non-scaling-stroke; fill: none; stroke: rgb(59, 46, 38); stroke-opacity: 1; stroke-width: 2px;"/></g><g class="contourlevel"><path class="openline" d="M0,376.72Q1.28,374.61 1.92,373.6C2.53,372.63 3.29,371.44 3.74,370.76C4,370.37 4.09,370.26 4.36,369.86C4.91,369.04 6.29,366.97 6.84,366.13C7.12,365.7 7.2,365.56 7.47,365.15C7.93,364.46 8.78,363.3 9.41,362.39C10.02,361.51 10.71,360.49 11.21,359.8C11.55,359.34 11.72,359.15 12.09,358.65C12.76,357.75 13.96,356.09 14.895,354.83500000000004C15.82,353.6 16.97,352.11 17.67,351.18C18.1,350.61 18.29,350.32 18.69,349.8C19.22,349.11 19.98,348.23 20.61,347.44C21.23,346.66 21.87,345.78 22.42,345.11C22.86,344.57 23.16,344.26 23.64,343.7C24.33,342.88 25.61,341.27 26.16,340.62C26.42,340.32 26.48,340.27 26.75,339.96C27.39,339.23 28.84,337.51 29.935,336.265C31.08,334.96 32.31,333.58 33.47,332.295C34.58,331.07 36.09,329.48 36.75,328.75C37.04,328.43 37.08,328.36 37.37,328.05C37.98,327.39 39.65,325.73 40.32,325.02C40.67,324.65 40.76,324.52 41.11,324.15C41.77,323.46 43.35,321.97 44.02,321.28C44.39,320.91 44.48,320.77 44.85,320.4C45.53,319.71 47.19,318.19 47.85,317.54C48.18,317.21 48.25,317.12 48.59,316.79C49.28,316.12 51.21,314.38 51.82,313.8C52.06,313.57 52.07,313.54 52.32,313.31C52.98,312.69 54.76,311.11 56.005,310.015C57.26,308.91 59.12,307.28 59.8,306.72C60.04,306.52 60.06,306.52 60.3,306.33C60.91,305.83 62.69,304.29 63.54,303.61C64.08,303.18 64.37,302.99 64.88,302.59C65.57,302.05 66.46,301.27 67.27,300.64C68.06,300.02 69,299.37 69.68,298.85C70.19,298.46 70.45,298.22 71.01,297.79C71.93,297.09 73.48,295.99 74.72999999999999,295.105C75.97,294.22 77.45,293.18 78.48,292.5C79.18,292.04 79.66,291.77 80.27,291.38C80.91,290.96 81.45,290.55 82.22,290.06C83.28,289.38 84.8,288.46 86.07499999999999,287.705C87.3,286.98 88.5,286.29 89.7,285.63C90.87,284.98 92,284.38 93.21000000000001,283.775C94.48,283.13 95.85,282.47 97.17,281.88C98.47,281.29 99.81,280.73 101.095,280.23C102.3,279.76 103.44,279.35 104.65,278.97C105.87,278.58 107.13,278.22 108.38,277.93C109.62,277.65 110.87,277.39 112.12,277.25C113.36,277.11 114.62,277.01 115.86,277.08C117.11,277.15 118.39,277.27 119.6,277.69C120.88,278.13 122.72,279.29 123.33,279.75C123.56,279.92 123.58,279.94 123.75,280.17C124.21,280.78 125.37,282.62 125.81,283.9C126.23,285.11 126.35,286.39 126.42,287.64C126.49,288.88 126.39,290.14 126.25,291.38C126.11,292.63 125.85,293.88 125.57,295.12C125.28,296.37 124.92,297.63 124.53,298.85C124.15,300.06 123.74,301.2 123.27,302.405C122.77,303.69 122.21,305.03 121.62,306.33C121.03,307.65 120.37,309.02 119.725,310.28999999999996C119.12,311.5 118.52,312.63 117.87,313.8C117.21,315 116.52,316.2 115.795,317.425C115.04,318.7 114.12,320.22 113.44,321.28C112.95,322.05 112.54,322.59 112.12,323.23C111.73,323.84 111.46,324.32 111,325.02C110.32,326.05 109.28,327.53 108.395,328.77C107.51,330.02 106.41,331.57 105.71,332.49C105.28,333.05 105.04,333.31 104.65,333.82C104.13,334.5 103.48,335.44 102.86,336.23C102.23,337.04 101.45,337.93 100.91,338.62C100.51,339.13 100.32,339.42 99.89,339.96C99.21,340.81 97.67,342.59 97.17,343.2C96.98,343.44 96.98,343.46 96.78,343.7C96.22,344.38 94.59,346.24 93.48500000000001,347.495C92.39,348.74 90.81,350.52 90.19,351.18C89.96,351.43 89.93,351.44 89.7,351.68C89.12,352.29 87.38,354.22 86.71,354.91C86.38,355.25 86.29,355.32 85.96,355.65C85.31,356.31 83.79,357.97 83.1,358.65C82.73,359.02 82.59,359.11 82.22,359.48C81.53,360.15 80.04,361.73 79.35,362.39C78.98,362.74 78.85,362.83 78.48,363.18C77.77,363.85 76.11,365.52 75.45,366.13C75.14,366.42 75.07,366.46 74.75,366.75C74.02,367.41 72.43,368.92 71.20500000000001,370.03C69.92,371.19 68.54,372.42 67.235,373.565C65.99,374.66 64.27,376.11 63.54,376.75C63.23,377.02 63.18,377.08 62.88,377.34C62.23,377.89 60.62,379.17 59.8,379.86C59.24,380.34 58.93,380.64 58.39,381.08C57.72,381.63 56.84,382.27 56.06,382.89C55.27,383.52 54.39,384.28 53.7,384.81C53.18,385.21 52.89,385.4 52.32,385.83C51.39,386.53 49.9,387.68 48.665000000000006,388.605C47.41,389.54 45.75,390.74 44.85,391.41C44.35,391.78 44.16,391.95 43.7,392.29C43.01,392.79 41.99,393.48 41.11,394.09C40.2,394.72 39.04,395.57 38.35,396.03C37.94,396.3 37.8,396.38 37.37,396.66C36.53,397.21 34.46,398.59 33.64,399.14C33.24,399.41 33.13,399.5 32.74,399.76C32.06,400.21 30.87,400.97 29.9,401.58Q28.89,402.22 26.78,403.5" style="stroke-miterlimit: 1; vector-effect: non-scaling-stroke; fill: none; stroke: rgb(72, 54, 43); stroke-opacity: 1; stroke-width: 2px;"/><path class="openline" d="M370,75.95Q367.34,75.41 366.26,75.16C365.43,74.97 364.74,74.78 364.07,74.61C363.51,74.47 363.15,74.38 362.53,74.2C361.55,73.92 360.03,73.46 358.79,73.03C357.54,72.59 356.03,72 355.05,71.59C354.4,71.32 354.01,71.14 353.44,70.87C352.78,70.56 352.11,70.26 351.31,69.83C350.23,69.25 348.36,68.13 347.58,67.65C347.22,67.43 347.14,67.38 346.8,67.14C346.13,66.67 344.68,65.6 343.84,64.91C343.18,64.37 342.71,63.95 342.12,63.4C341.46,62.79 340.71,62.04 340.1,61.38C339.55,60.79 339.13,60.32 338.59,59.66C337.9,58.82 336.83,57.37 336.36,56.7C336.12,56.36 336.07,56.28 335.85,55.92C335.37,55.14 334.25,53.27 333.67,52.19C333.24,51.39 332.94,50.72 332.63,50.06C332.36,49.49 332.18,49.1 331.91,48.45C331.5,47.47 330.91,45.96 330.47,44.71C330.04,43.47 329.58,41.95 329.3,40.97C329.12,40.35 329.03,39.99 328.89,39.43C328.72,38.76 328.53,38.07 328.34,37.24Q328.09,36.16 327.55,33.5" style="stroke-miterlimit: 1; vector-effect: non-scaling-stroke; fill: none; stroke: rgb(72, 54, 43); stroke-opacity: 1; stroke-width: 2px;"/></g><g class="contourlevel"><path class="openline" d="M0,380.57Q1.57,378.31 2.24,377.34C2.79,376.54 3.26,375.82 3.74,375.16C4.16,374.59 4.47,374.23 4.95,373.6C5.67,372.66 6.69,371.24 7.619999999999999,370.03499999999997C8.6,368.76 10.11,366.9 10.7,366.13C10.95,365.81 10.97,365.75 11.21,365.44C11.73,364.78 13.09,363.23 13.78,362.39C14.25,361.81 14.5,361.45 14.95,360.91C15.53,360.23 16.35,359.39 16.99,358.65C17.59,357.97 18.12,357.28 18.69,356.64C19.24,356.03 19.77,355.54 20.35,354.91C21.01,354.2 21.78,353.25 22.42,352.58C22.94,352.04 23.34,351.72 23.87,351.18C24.55,350.48 25.48,349.41 26.16,348.73C26.67,348.22 27.04,347.94 27.56,347.44C28.25,346.77 29.19,345.73 29.9,345.06C30.46,344.53 30.89,344.21 31.44,343.7C32.11,343.08 32.92,342.23 33.64,341.58C34.29,340.99 34.94,340.51 35.56,339.96C36.18,339.41 36.7,338.86 37.37,338.29C38.14,337.63 39.25,336.81 39.93,336.23C40.4,335.83 40.6,335.6 41.11,335.18C41.98,334.46 43.49,333.31 44.72,332.38C45.98,331.42 47.66,330.16 48.59,329.52C49.1,329.17 49.32,329.07 49.79,328.75C50.48,328.29 51.42,327.57 52.32,326.98C53.31,326.33 54.9,325.42 55.52,325.02C55.78,324.85 55.79,324.82 56.06,324.65C56.74,324.23 58.65,323.14 59.8,322.54C60.74,322.05 61.73,321.63 62.42,321.28C62.87,321.05 63.05,320.91 63.54,320.68C64.41,320.27 66.02,319.6 67.27,319.13C68.51,318.67 69.98,318.17 71.01,317.9C71.72,317.71 72.22,317.67 72.84,317.54C73.47,317.41 74,317.22 74.75,317.13C75.78,317 77.36,316.9 78.48,317C79.41,317.08 80.33,317.35 81.02,317.54C81.5,317.67 81.76,317.66 82.22,317.95C83.11,318.5 85,320.39 85.55,321.28C85.84,321.74 85.83,322 85.96,322.48C86.15,323.17 86.42,324.09 86.5,325.02C86.6,326.14 86.5,327.72 86.37,328.75C86.28,329.5 86.09,330.03 85.96,330.66C85.83,331.28 85.79,331.78 85.6,332.49C85.33,333.52 84.83,334.99 84.37,336.23C83.9,337.48 83.23,339.09 82.82,339.96C82.59,340.45 82.45,340.63 82.22,341.08C81.87,341.77 81.45,342.76 80.96,343.7C80.36,344.85 79.27,346.76 78.85,347.44C78.68,347.71 78.65,347.72 78.48,347.98C78.08,348.6 77.17,350.19 76.52,351.18C75.93,352.08 75.21,353.02 74.75,353.71C74.43,354.18 74.33,354.4 73.98,354.91C73.34,355.84 72.08,357.52 71.12,358.78C70.19,360.01 69.04,361.52 68.32,362.39C67.9,362.9 67.67,363.1 67.27,363.57C66.69,364.25 65.87,365.36 65.21,366.13C64.64,366.8 64.09,367.32 63.54,367.94C62.99,368.56 62.51,369.21 61.92,369.86C61.27,370.58 60.42,371.39 59.8,372.06C59.29,372.61 58.97,373.04 58.44,373.6C57.77,374.31 56.73,375.25 56.06,375.94C55.56,376.46 55.28,376.83 54.77,377.34C54.09,378.02 53.02,378.95 52.32,379.63C51.78,380.16 51.46,380.56 50.92,381.08C50.25,381.72 49.3,382.49 48.59,383.15C47.96,383.73 47.47,384.26 46.86,384.81C46.22,385.38 45.53,385.91 44.85,386.51C44.11,387.15 43.27,387.97 42.59,388.55C42.05,389 41.69,389.25 41.11,389.72C40.27,390.41 38.72,391.77 38.06,392.29C37.75,392.53 37.69,392.55 37.37,392.8C36.6,393.39 34.74,394.9 33.465,395.88C32.26,396.81 30.84,397.83 29.9,398.55C29.27,399.03 28.91,399.34 28.34,399.76C27.68,400.24 26.96,400.71 26.16,401.26Q25.19,401.93 22.93,403.5" style="stroke-miterlimit: 1; vector-effect: non-scaling-stroke; fill: none; stroke: rgb(85, 62, 47); stroke-opacity: 1; stroke-width: 2px;"/></g><g class="contourlevel"><path class="openline" d="M0,383.36Q1.21,381.87 1.82,381.08C2.46,380.25 3.19,379.18 3.74,378.5C4.12,378.03 4.35,377.83 4.77,377.34C5.46,376.52 6.96,374.58 7.47,374.01C7.66,373.8 7.68,373.81 7.87,373.6C8.44,372.98 10.04,371.07 11.175,369.815C12.34,368.52 13.56,367.21 14.785,365.94C16.01,364.67 17.25,363.42 18.509999999999998,362.19C19.77,360.96 21.04,359.75 22.345,358.57C23.66,357.38 25.06,356.17 26.365000000000002,355.06C27.57,354.04 28.98,352.85 29.9,352.15C30.47,351.72 30.79,351.56 31.31,351.18C32,350.67 32.81,349.95 33.64,349.35C34.54,348.7 35.86,347.91 36.53,347.44C36.9,347.18 36.98,347.07 37.37,346.81C38.16,346.27 40.1,345.1 41.11,344.54C41.77,344.17 42.21,344.01 42.8,343.7C43.45,343.36 44.05,342.95 44.85,342.56C45.9,342.04 47.39,341.4 48.59,340.95C49.66,340.55 51.06,340.17 51.7,339.96C51.99,339.86 52.02,339.81 52.32,339.74C53.04,339.56 54.81,339.21 56.06,339.18C57.3,339.15 59,339.34 59.8,339.56C60.21,339.67 60.33,339.72 60.68,339.96C61.4,340.46 63.04,342.1 63.54,342.82C63.78,343.17 63.83,343.29 63.94,343.7C64.16,344.5 64.35,346.2 64.32,347.44C64.29,348.69 63.94,350.46 63.76,351.18C63.69,351.48 63.64,351.51 63.54,351.8C63.33,352.44 62.95,353.84 62.55,354.91C62.1,356.11 61.46,357.6 60.94,358.65C60.55,359.45 60.14,360.05 59.8,360.7C59.49,361.29 59.33,361.73 58.96,362.39C58.4,363.4 57.23,365.34 56.69,366.13C56.43,366.52 56.32,366.6 56.06,366.97C55.59,367.64 54.8,368.96 54.15,369.86C53.55,370.69 52.83,371.5 52.32,372.19C51.94,372.71 51.78,373.03 51.35,373.6C50.65,374.52 49.46,375.93 48.44,377.135C47.33,378.44 46.12,379.84 44.93,381.155C43.75,382.46 42.54,383.73 41.31,384.99C40.08,386.25 38.83,387.49 37.56,388.71500000000003C36.29,389.94 34.98,391.16 33.685,392.32500000000005C32.43,393.46 30.52,395.06 29.9,395.63C29.69,395.82 29.7,395.84 29.49,396.03C28.92,396.54 26.98,398.04 26.16,398.73C25.67,399.15 25.47,399.38 25,399.76C24.32,400.31 23.25,401.04 22.42,401.68Q21.63,402.29 20.14,403.5" style="stroke-miterlimit: 1; vector-effect: non-scaling-stroke; fill: none; stroke: rgb(98, 69, 51); stroke-opacity: 1; stroke-width: 2px;"/></g><g class="contourlevel"><path class="openline" d="M0,385.69Q0.47,385.21 0.82,384.81C1.52,384.02 2.78,382.4 3.84,381.17499999999995C4.96,379.88 6.18,378.52 7.38,377.23C8.58,375.94 9.81,374.67 11.06,373.43C12.31,372.19 13.6,370.96 14.885,369.79C16.14,368.64 18.03,366.97 18.69,366.45C18.91,366.28 18.93,366.29 19.14,366.13C19.74,365.68 21.5,364.12 22.42,363.45C23.04,363 23.46,362.79 24.03,362.39C24.7,361.92 25.34,361.33 26.16,360.76C27.18,360.05 28.5,359.25 29.729999999999997,358.53C30.99,357.79 32.35,357.04 33.64,356.41C34.86,355.82 36.03,355.29 37.269999999999996,354.86C38.52,354.43 39.83,354.01 41.11,353.82C42.35,353.63 43.69,353.5 44.85,353.7C45.93,353.89 47.23,354.49 47.87,354.91C48.23,355.14 48.36,355.27 48.59,355.63C49.01,356.27 49.61,357.57 49.8,358.65C50,359.81 49.87,361.15 49.68,362.39C49.49,363.67 49.07,364.98 48.64,366.23C48.21,367.47 47.68,368.64 47.09,369.86C46.46,371.15 45.71,372.51 44.97,373.77C44.25,375 43.45,376.32 42.74,377.34C42.17,378.16 41.58,378.8 41.11,379.47C40.71,380.04 40.5,380.46 40.05,381.08C39.38,382 37.82,383.76 37.37,384.36C37.21,384.57 37.22,384.59 37.05,384.81C36.53,385.47 34.86,387.36 33.71,388.615C32.54,389.9 31.31,391.19 30.07,392.44C28.83,393.69 27.56,394.92 26.27,396.12C24.98,397.32 23.62,398.54 22.325000000000003,399.65999999999997C21.1,400.72 19.48,401.98 18.69,402.68Q18.29,403.03 17.81,403.5" style="stroke-miterlimit: 1; vector-effect: non-scaling-stroke; fill: none; stroke: rgb(112, 77, 54); stroke-opacity: 1; stroke-width: 2px;"/></g><g class="contourlevel"><path class="openline" d="M0,387.61Q1.94,385.59 2.62,384.81C3.08,384.28 3.28,383.95 3.74,383.45C4.39,382.75 5.53,381.78 6.21,381.08C6.71,380.56 6.95,380.19 7.47,379.68C8.18,378.98 9.46,377.98 10.14,377.34C10.59,376.92 10.74,376.68 11.21,376.25C11.99,375.54 13.89,374.12 14.48,373.6C14.71,373.4 14.71,373.36 14.95,373.16C15.6,372.62 17.85,370.94 18.69,370.39C19.09,370.13 19.23,370.1 19.61,369.86C20.3,369.43 21.41,368.58 22.42,367.97C23.54,367.3 24.8,366.63 26.045,366.055C27.29,365.48 28.61,364.91 29.9,364.54C31.14,364.18 32.39,363.82 33.64,363.83C34.88,363.84 36.45,364.09 37.37,364.59C38.07,364.96 38.54,365.43 38.91,366.13C39.41,367.05 39.66,368.62 39.67,369.86C39.68,371.11 39.32,372.36 38.96,373.6C38.59,374.89 38.02,376.21 37.445,377.455C36.87,378.7 36.2,379.96 35.53,381.08C34.92,382.09 34.07,383.2 33.64,383.89C33.4,384.27 33.37,384.41 33.11,384.81C32.56,385.65 30.88,387.9 30.34,388.55C30.14,388.79 30.1,388.79 29.9,389.02C29.38,389.61 27.96,391.51 27.25,392.29C26.82,392.76 26.58,392.91 26.16,393.36C25.52,394.04 24.52,395.32 23.82,396.03C23.31,396.55 22.94,396.79 22.42,397.29C21.72,397.97 20.75,399.11 20.05,399.76C19.55,400.22 19.22,400.42 18.69,400.88Q17.91,401.56 15.89,403.5" style="stroke-miterlimit: 1; vector-effect: non-scaling-stroke; fill: none; stroke: rgb(125, 85, 56); stroke-opacity: 1; stroke-width: 2px;"/></g><g class="contourlevel"><path class="openline" d="M0,389.28Q0.49,388.89 0.84,388.55C1.53,387.89 3.05,386.11 3.74,385.47C4.09,385.15 4.22,385.12 4.57,384.81C5.25,384.21 6.67,382.68 7.47,382.02C7.97,381.6 8.29,381.47 8.78,381.08C9.48,380.53 10.38,379.59 11.21,378.95C12,378.35 12.97,377.83 13.65,377.34C14.16,376.97 14.39,376.69 14.95,376.3C15.86,375.67 17.77,374.54 18.69,374.09C19.2,373.84 19.45,373.81 19.93,373.6C20.62,373.3 21.49,372.73 22.42,372.4C23.52,372.01 24.91,371.55 26.16,371.49C27.4,371.43 28.97,371.57 29.9,372.03C30.61,372.39 31.11,372.89 31.47,373.6C31.93,374.53 32.07,376.1 32.01,377.34C31.95,378.59 31.49,379.98 31.1,381.08C30.77,382.01 30.2,382.88 29.9,383.57C29.69,384.05 29.66,384.3 29.41,384.81C28.96,385.73 27.83,387.64 27.2,388.55C26.81,389.11 26.53,389.34 26.16,389.85C25.67,390.53 25.15,391.5 24.55,392.29C23.91,393.12 22.97,394.02 22.42,394.72C22.03,395.21 21.9,395.53 21.48,396.03C20.82,396.83 19.29,398.25 18.69,398.93C18.38,399.28 18.35,399.41 18.03,399.76C17.39,400.45 15.61,401.97 14.95,402.66Q14.61,403.01 14.22,403.5" style="stroke-miterlimit: 1; vector-effect: non-scaling-stroke; fill: none; stroke: rgb(138, 93, 57); stroke-opacity: 1; stroke-width: 2px;"/></g><g class="contourlevel"><path class="openline" d="M0,390.72Q1.79,389.2 2.47,388.55C2.98,388.06 3.2,387.69 3.74,387.2C4.51,386.49 6.12,385.38 6.77,384.81C7.1,384.53 7.13,384.41 7.47,384.13C8.21,383.52 10.39,381.97 11.21,381.49C11.59,381.27 11.71,381.28 12.07,381.08C12.76,380.71 13.9,379.86 14.95,379.33C16.09,378.75 17.48,378.14 18.69,377.81C19.77,377.51 21.17,377.42 21.86,377.34C22.2,377.3 22.3,377.17 22.61,377.28499999999997C23.41,377.58 25.92,380.09 26.215,380.89C26.33,381.2 26.2,381.3 26.16,381.64C26.08,382.33 25.99,383.73 25.69,384.81C25.36,386.02 24.75,387.41 24.17,388.55C23.64,389.6 22.79,390.74 22.42,391.43C22.22,391.79 22.23,391.91 22.01,392.29C21.53,393.11 19.98,395.29 19.37,396.03C19.09,396.37 18.97,396.4 18.69,396.73C18.12,397.38 17.01,398.99 16.3,399.76C15.81,400.3 15.44,400.52 14.95,401.03Q14.3,401.71 12.78,403.5" style="stroke-miterlimit: 1; vector-effect: non-scaling-stroke; fill: none; stroke: rgb(150, 102, 58); stroke-opacity: 1; stroke-width: 2px;"/></g><g class="contourlevel"><path class="openline" d="M0,392.15Q3.04,389.39 3.74,388.88C3.99,388.7 4.04,388.72 4.29,388.55C4.92,388.12 6.46,386.76 7.47,386.1C8.3,385.56 9.19,385.22 9.87,384.81C10.39,384.49 10.63,384.21 11.21,383.9C12.12,383.42 13.68,382.72 14.95,382.43C16.18,382.15 17.62,381.75 18.69,382.15C19.76,382.55 20.95,383.74 21.35,384.81C21.75,385.88 21.35,387.32 21.07,388.55C20.78,389.82 20.08,391.38 19.6,392.29C19.29,392.87 19.01,393.11 18.69,393.63C18.28,394.31 17.94,395.2 17.4,396.03C16.74,397.04 15.38,398.58 14.95,399.21C14.78,399.46 14.8,399.51 14.62,399.76Q14.11,400.46 11.35,403.5" style="stroke-miterlimit: 1; vector-effect: non-scaling-stroke; fill: none; stroke: rgb(161, 112, 59); stroke-opacity: 1; stroke-width: 2px;"/></g><g class="contourlevel"><path class="openline" d="M0,393.3Q0.98,392.7 1.52,392.29C2.21,391.77 2.91,390.95 3.74,390.35C4.64,389.69 6.11,388.99 6.76,388.55C7.09,388.33 7.12,388.21 7.47,388C8.21,387.56 9.94,386.72 11.21,386.38C12.43,386.06 13.89,385.6 14.95,385.97C15.99,386.34 17.16,387.51 17.53,388.55C17.9,389.61 17.44,391.07 17.12,392.29C16.78,393.56 15.94,395.29 15.5,396.03C15.29,396.38 15.17,396.41 14.95,396.74C14.51,397.39 13.81,398.86 13.15,399.76C12.55,400.59 11.73,401.29 11.21,401.98Q10.8,402.52 10.2,403.5" style="stroke-miterlimit: 1; vector-effect: non-scaling-stroke; fill: none; stroke: rgb(171, 122, 60); stroke-opacity: 1; stroke-width: 2px;"/></g><g class="contourlevel"><path class="openline" d="M0,394.43Q2.6,392.76 3.21,392.29C3.47,392.09 3.47,392.01 3.74,391.83C4.41,391.38 6.2,390.39 7.47,389.92C8.69,389.47 10.09,388.72 11.21,389.04C12.44,389.39 14.11,391.06 14.46,392.29C14.78,393.41 14.03,394.81 13.58,396.03C13.11,397.3 12.12,399.09 11.67,399.76C11.49,400.03 11.41,400.03 11.21,400.29Q10.74,400.9 9.07,403.5" style="stroke-miterlimit: 1; vector-effect: non-scaling-stroke; fill: none; stroke: rgb(180, 134, 64); stroke-opacity: 1; stroke-width: 2px;"/></g><g class="contourlevel"><path class="openline" d="M0,395.55Q2.56,393.83 3.74,393.27C4.72,392.81 5.86,392.57 6.54,392.29C6.94,392.13 7.06,391.91 7.47,391.85C8.18,391.74 9.87,391.97 10.5,392.29C10.86,392.47 11.03,392.64 11.21,393C11.53,393.63 11.76,395.32 11.65,396.03C11.59,396.44 11.37,396.56 11.21,396.96C10.93,397.64 10.69,398.78 10.23,399.76Q9.67,400.94 7.95,403.5" style="stroke-miterlimit: 1; vector-effect: non-scaling-stroke; fill: none; stroke: rgb(188, 147, 69); stroke-opacity: 1; stroke-width: 2px;"/></g><g class="contourlevel"><path class="openline" d="M0,396.61Q0.91,396.29 1.43,396.03C2.12,395.69 2.84,394.98 3.74,394.69C4.8,394.34 6.52,393.95 7.47,394.29C8.24,394.56 8.94,395.26 9.21,396.03C9.55,396.98 9.16,398.7 8.81,399.76C8.52,400.66 7.81,401.38 7.47,402.07Q7.21,402.59 6.89,403.5" style="stroke-miterlimit: 1; vector-effect: non-scaling-stroke; fill: none; stroke: rgb(195, 161, 78); stroke-opacity: 1; stroke-width: 2px;"/></g><g class="contourlevel"><path class="openline" d="M0,397.62Q2.58,395.9 3.74,396.14C5.05,396.41 7.09,398.45 7.36,399.76Q7.6,400.92 5.88,403.5" style="stroke-miterlimit: 1; vector-effect: non-scaling-stroke; fill: none; stroke: rgb(202, 174, 89); stroke-opacity: 1; stroke-width: 2px;"/></g><g class="contourlevel"><path class="openline" d="M0,398.64Q2.79,397.71 3.74,398.02C4.51,398.27 5.23,398.99 5.48,399.76Q5.79,400.71 4.86,403.5" style="stroke-miterlimit: 1; vector-effect: non-scaling-stroke; fill: none; stroke: rgb(207, 188, 102); stroke-opacity: 1; stroke-width: 2px;"/></g><g class="contourlevel"><path class="openline" d="M0,399.65Q1.6,399.48 2.23,399.76C2.84,400.03 3.47,400.66 3.74,401.27Q4.02,401.9 3.85,403.5" style="stroke-miterlimit: 1; vector-effect: non-scaling-stroke; fill: none; stroke: rgb(213, 202, 118); stroke-opacity: 1; stroke-width: 2px;"/></g><g class="contourlevel"><path class="openline" d="M0,400.91L2.59,403.5" style="stroke-miterlimit: 1; vector-effect: non-scaling-stroke; fill: none; stroke: rgb(219, 216, 134); stroke-opacity: 1; stroke-width: 2px;"/></g><g class="contourlevel"><path class="openline" d="M0,402.21L1.29,403.5" style="stroke-miterlimit: 1; vector-effect: non-scaling-stroke; fill: none; stroke: rgb(225, 231, 152); stroke-opacity: 1; stroke-width: 2px;"/></g><g class="contourlevel"/></g></g></g></g><g class="overplot"/><path class="xlines-above crisp" d="" style="fill: none; stroke-width: 1px; stroke: rgb(0, 0, 0); stroke-opacity: 0;"/><path class="ylines-above crisp" d="" style="fill: none; stroke-width: 1px; stroke: rgb(0, 0, 0); stroke-opacity: 0;"/><g class="overlines-above"/><g class="xaxislayer-above"><path class="xtick ticks crisp" d="M0,478v5" transform="translate(89.67,0)" style="stroke: rgb(51, 51, 51); stroke-opacity: 1; stroke-width: 1px;"/><path class="xtick ticks crisp" d="M0,478v5" transform="translate(171.89,0)" style="stroke: rgb(51, 51, 51); stroke-opacity: 1; stroke-width: 1px;"/><path class="xtick ticks crisp" d="M0,478v5" transform="translate(254.11,0)" style="stroke: rgb(51, 51, 51); stroke-opacity: 1; stroke-width: 1px;"/><path class="xtick ticks crisp" d="M0,478v5" transform="translate(336.33,0)" style="stroke: rgb(51, 51, 51); stroke-opacity: 1; stroke-width: 1px;"/><g class="xtick"><text text-anchor="middle" x="0" y="497.4" transform="translate(89.67,0)" style="font-family: 'Open Sans', verdana, arial, sans-serif; font-size: 12px; fill: rgb(51, 51, 51); fill-opacity: 1; white-space: pre; opacity: 1;">0.2</text></g><g class="xtick"><text text-anchor="middle" x="0" y="497.4" style="font-family: 'Open Sans', verdana, arial, sans-serif; font-size: 12px; fill: rgb(51, 51, 51); fill-opacity: 1; white-space: pre; opacity: 1;" transform="translate(171.89,0)">0.4</text></g><g class="xtick"><text text-anchor="middle" x="0" y="497.4" style="font-family: 'Open Sans', verdana, arial, sans-serif; font-size: 12px; fill: rgb(51, 51, 51); fill-opacity: 1; white-space: pre; opacity: 1;" transform="translate(254.11,0)">0.6</text></g><g class="xtick"><text text-anchor="middle" x="0" y="497.4" style="font-family: 'Open Sans', verdana, arial, sans-serif; font-size: 12px; fill: rgb(51, 51, 51); fill-opacity: 1; white-space: pre; opacity: 1;" transform="translate(336.33,0)">0.8</text></g></g><g class="yaxislayer-above"><path class="ytick ticks crisp" d="M27,0h-5" transform="translate(0,464.06)" style="stroke: rgb(51, 51, 51); stroke-opacity: 1; stroke-width: 1px;"/><path class="ytick ticks crisp" d="M27,0h-5" transform="translate(0,381.83)" style="stroke: rgb(51, 51, 51); stroke-opacity: 1; stroke-width: 1px;"/><path class="ytick ticks crisp" d="M27,0h-5" transform="translate(0,299.61)" style="stroke: rgb(51, 51, 51); stroke-opacity: 1; stroke-width: 1px;"/><path class="ytick ticks crisp" d="M27,0h-5" transform="translate(0,217.39)" style="stroke: rgb(51, 51, 51); stroke-opacity: 1; stroke-width: 1px;"/><path class="ytick ticks crisp" d="M27,0h-5" transform="translate(0,135.17000000000002)" style="stroke: rgb(51, 51, 51); stroke-opacity: 1; stroke-width: 1px;"/><path class="ytick ticks crisp" d="M27,0h-5" transform="translate(0,52.94)" style="stroke: rgb(51, 51, 51); stroke-opacity: 1; stroke-width: 1px;"/><g class="ytick"><text text-anchor="end" x="19.6" y="4.199999999999999" transform="translate(0,464.06)" style="font-family: 'Open Sans', verdana, arial, sans-serif; font-size: 12px; fill: rgb(51, 51, 51); fill-opacity: 1; white-space: pre; opacity: 1;">0</text></g><g class="ytick"><text text-anchor="end" x="19.6" y="4.199999999999999" style="font-family: 'Open Sans', verdana, arial, sans-serif; font-size: 12px; fill: rgb(51, 51, 51); fill-opacity: 1; white-space: pre; opacity: 1;" transform="translate(0,381.83)">0.2</text></g><g class="ytick"><text text-anchor="end" x="19.6" y="4.199999999999999" style="font-family: 'Open Sans', verdana, arial, sans-serif; font-size: 12px; fill: rgb(51, 51, 51); fill-opacity: 1; white-space: pre; opacity: 1;" transform="translate(0,299.61)">0.4</text></g><g class="ytick"><text text-anchor="end" x="19.6" y="4.199999999999999" style="font-family: 'Open Sans', verdana, arial, sans-serif; font-size: 12px; fill: rgb(51, 51, 51); fill-opacity: 1; white-space: pre; opacity: 1;" transform="translate(0,217.39)">0.6</text></g><g class="ytick"><text text-anchor="end" x="19.6" y="4.199999999999999" style="font-family: 'Open Sans', verdana, arial, sans-serif; font-size: 12px; fill: rgb(51, 51, 51); fill-opacity: 1; white-space: pre; opacity: 1;" transform="translate(0,135.17000000000002)">0.8</text></g><g class="ytick"><text text-anchor="end" x="19.6" y="4.199999999999999" style="font-family: 'Open Sans', verdana, arial, sans-serif; font-size: 12px; fill: rgb(51, 51, 51); fill-opacity: 1; white-space: pre; opacity: 1;" transform="translate(0,52.94)">1</text></g></g><g class="overaxes-above"/></g></g><g class="polarlayer"/><g class="ternarylayer"/><g class="geolayer"/><g class="funnelarealayer"/><g class="pielayer"/><g class="iciclelayer"/><g class="treemaplayer"/><g class="sunburstlayer"/><g class="glimages"/><defs id="topdefs-778d10"><g class="clips"/></defs><g class="layer-above"><g class="imagelayer"/><g class="shapelayer"/></g><g class="infolayer"><g class="cb43e08f colorbar" transform="translate(28,40)"><rect class="cbbg" x="377" y="0" width="94.65625" height="437" style="fill: rgb(0, 0, 0); fill-opacity: 0; stroke: rgb(68, 68, 68); stroke-opacity: 1; stroke-width: 0;"/><g class="cbfills" transform="translate(0,10)"/><g class="cblines" transform="translate(0,10)"><path class="cbline" d="M387,417h30" style="fill: none; stroke: rgb(34, 30, 27); stroke-opacity: 1; stroke-width: 2px;"/><path class="cbline" d="M387,396h30" style="fill: none; stroke: rgb(47, 38, 33); stroke-opacity: 1; stroke-width: 2px;"/><path class="cbline" d="M387,375h30" style="fill: none; stroke: rgb(59, 46, 38); stroke-opacity: 1; stroke-width: 2px;"/><path class="cbline" d="M387,354h30" style="fill: none; stroke: rgb(72, 54, 43); stroke-opacity: 1; stroke-width: 2px;"/><path class="cbline" d="M387,334h30" style="fill: none; stroke: rgb(85, 62, 47); stroke-opacity: 1; stroke-width: 2px;"/><path class="cbline" d="M387,313h30" style="fill: none; stroke: rgb(98, 69, 51); stroke-opacity: 1; stroke-width: 2px;"/><path class="cbline" d="M387,292h30" style="fill: none; stroke: rgb(112, 77, 54); stroke-opacity: 1; stroke-width: 2px;"/><path class="cbline" d="M387,271h30" style="fill: none; stroke: rgb(125, 85, 56); stroke-opacity: 1; stroke-width: 2px;"/><path class="cbline" d="M387,250h30" style="fill: none; stroke: rgb(138, 93, 57); stroke-opacity: 1; stroke-width: 2px;"/><path class="cbline" d="M387,229h30" style="fill: none; stroke: rgb(150, 102, 58); stroke-opacity: 1; stroke-width: 2px;"/><path class="cbline" d="M387,209h30" style="fill: none; stroke: rgb(161, 112, 59); stroke-opacity: 1; stroke-width: 2px;"/><path class="cbline" d="M387,188h30" style="fill: none; stroke: rgb(171, 122, 60); stroke-opacity: 1; stroke-width: 2px;"/><path class="cbline" d="M387,167h30" style="fill: none; stroke: rgb(180, 134, 64); stroke-opacity: 1; stroke-width: 2px;"/><path class="cbline" d="M387,146h30" style="fill: none; stroke: rgb(188, 147, 69); stroke-opacity: 1; stroke-width: 2px;"/><path class="cbline" d="M387,125h30" style="fill: none; stroke: rgb(195, 161, 78); stroke-opacity: 1; stroke-width: 2px;"/><path class="cbline" d="M387,104h30" style="fill: none; stroke: rgb(202, 174, 89); stroke-opacity: 1; stroke-width: 2px;"/><path class="cbline" d="M387,83h30" style="fill: none; stroke: rgb(207, 188, 102); stroke-opacity: 1; stroke-width: 2px;"/><path class="cbline" d="M387,63h30" style="fill: none; stroke: rgb(213, 202, 118); stroke-opacity: 1; stroke-width: 2px;"/><path class="cbline" d="M387,42h30" style="fill: none; stroke: rgb(219, 216, 134); stroke-opacity: 1; stroke-width: 2px;"/><path class="cbline" d="M387,21h30" style="fill: none; stroke: rgb(225, 231, 152); stroke-opacity: 1; stroke-width: 2px;"/><path class="cbline" d="M387,0h30" style="fill: none; stroke: rgb(232, 245, 171); stroke-opacity: 1; stroke-width: 2px;"/></g><g class="cbaxis crisp" transform="translate(0,-40)"><path class="ycb43e08ftick ticks crisp" d="M416.5,0h-6" transform="translate(0,362.75)" style="stroke: rgb(237, 237, 237); stroke-opacity: 1; stroke-width: 1px;"/><path class="ycb43e08ftick ticks crisp" d="M416.5,0h-6" transform="translate(0,258.5)" style="stroke: rgb(237, 237, 237); stroke-opacity: 1; stroke-width: 1px;"/><path class="ycb43e08ftick ticks crisp" d="M416.5,0h-6" transform="translate(0,154.25)" style="stroke: rgb(237, 237, 237); stroke-opacity: 1; stroke-width: 1px;"/><g class="ycb43e08ftick"><text text-anchor="start" x="419.9" y="4.199999999999999" transform="translate(0,467)" style="font-family: 'Open Sans', verdana, arial, sans-serif; font-size: 12px; fill: rgb(51, 51, 51); fill-opacity: 1; white-space: pre; opacity: 1;">0</text></g><g class="ycb43e08ftick"><text text-anchor="start" x="419.9" y="4.199999999999999" style="font-family: 'Open Sans', verdana, arial, sans-serif; font-size: 12px; fill: rgb(51, 51, 51); fill-opacity: 1; white-space: pre; opacity: 1;" transform="translate(0,362.75)">3.97</text></g><g class="ycb43e08ftick"><text text-anchor="start" x="419.9" y="4.199999999999999" style="font-family: 'Open Sans', verdana, arial, sans-serif; font-size: 12px; fill: rgb(51, 51, 51); fill-opacity: 1; white-space: pre; opacity: 1;" transform="translate(0,258.5)">7.94</text></g><g class="ycb43e08ftick"><text text-anchor="start" x="419.9" y="4.199999999999999" style="font-family: 'Open Sans', verdana, arial, sans-serif; font-size: 12px; fill: rgb(51, 51, 51); fill-opacity: 1; white-space: pre; opacity: 1;" transform="translate(0,154.25)">11.91</text></g><g class="ycb43e08ftick"><text text-anchor="start" x="419.9" y="4.199999999999999" style="font-family: 'Open Sans', verdana, arial, sans-serif; font-size: 12px; fill: rgb(51, 51, 51); fill-opacity: 1; white-space: pre; opacity: 1;" transform="translate(0,50.000000000000014)">15.88</text></g></g><g class="cbtitleunshift" transform="translate(-28,-40)"><g class="cbtitle"/></g><rect class="cboutline" x="387" y="10" width="30" height="417" style="stroke: rgb(68, 68, 68); stroke-opacity: 1; fill: none; stroke-width: 0;"/></g><g class="g-gtitle"><text class="gtitle" x="250" y="20" text-anchor="middle" dy="0em" style="font-family: 'Open Sans', verdana, arial, sans-serif; font-size: 17px; fill: rgb(51, 51, 51); opacity: 1; font-weight: normal; white-space: pre;">Clayton copula</text></g><g class="g-xtitle"/><g class="g-ytitle"/></g></svg>