<?xml version="1.0" encoding="utf-8" standalone="no"?>
<!DOCTYPE svg PUBLIC "-//W3C//DTD SVG 1.1//EN"
  "http://www.w3.org/Graphics/SVG/1.1/DTD/svg11.dtd">
<svg xmlns:xlink="http://www.w3.org/1999/xlink" width="864.747854pt" height="324.565132pt" viewBox="0 0 864.747854 324.565132" xmlns="http://www.w3.org/2000/svg" version="1.1">
 <metadata>
  <rdf:RDF xmlns:dc="http://purl.org/dc/elements/1.1/" xmlns:cc="http://creativecommons.org/ns#" xmlns:rdf="http://www.w3.org/1999/02/22-rdf-syntax-ns#">
   <cc:Work>
    <dc:type rdf:resource="http://purl.org/dc/dcmitype/StillImage"/>
    <dc:date>2022-05-03T16:07:35.391983</dc:date>
    <dc:format>image/svg+xml</dc:format>
    <dc:creator>
     <cc:Agent>
      <dc:title>Matplotlib v3.5.1, https://matplotlib.org/</dc:title>
     </cc:Agent>
    </dc:creator>
   </cc:Work>
  </rdf:RDF>
 </metadata>
 <defs>
  <style type="text/css">*{stroke-linejoin: round; stroke-linecap: butt}</style>
 </defs>
 <g id="figure_1">
  <g id="patch_1">
   <path d="M 0 324.565132 
L 864.747854 324.565132 
L 864.747854 0 
L 0 0 
z
" style="fill: #ffffff"/>
  </g>
  <g id="axes_1">
   <g id="patch_2">
    <path d="M 24.147854 145.598755 
L 861.147854 145.598755 
L 861.147854 22.0533 
L 24.147854 22.0533 
z
" style="fill: #e5e5e5"/>
   </g>
   <g id="matplotlib.axis_1">
    <g id="xtick_1">
     <g id="line2d_1">
      <path d="M 38.566273 145.598755 
L 38.566273 22.0533 
" clip-path="url(#pddf7a4ab61)" style="fill: none; stroke: #ffffff; stroke-width: 1.5; stroke-linecap: square"/>
     </g>
     <g id="line2d_2">
      <defs>
       <path id="m8827e8ae84" d="M 0 0 
L 0 9 
" style="stroke: #555555; stroke-width: 1.875"/>
      </defs>
      <g>
       <use xlink:href="#m8827e8ae84" x="38.566273" y="145.598755" style="fill: #555555; stroke: #555555; stroke-width: 1.875"/>
      </g>
     </g>
    </g>
    <g id="xtick_2">
     <g id="line2d_3">
      <path d="M 195.748564 145.598755 
L 195.748564 22.0533 
" clip-path="url(#pddf7a4ab61)" style="fill: none; stroke: #ffffff; stroke-width: 1.5; stroke-linecap: square"/>
     </g>
     <g id="line2d_4">
      <g>
       <use xlink:href="#m8827e8ae84" x="195.748564" y="145.598755" style="fill: #555555; stroke: #555555; stroke-width: 1.875"/>
      </g>
     </g>
    </g>
    <g id="xtick_3">
     <g id="line2d_5">
      <path d="M 352.973894 145.598755 
L 352.973894 22.0533 
" clip-path="url(#pddf7a4ab61)" style="fill: none; stroke: #ffffff; stroke-width: 1.5; stroke-linecap: square"/>
     </g>
     <g id="line2d_6">
      <g>
       <use xlink:href="#m8827e8ae84" x="352.973894" y="145.598755" style="fill: #555555; stroke: #555555; stroke-width: 1.875"/>
      </g>
     </g>
    </g>
    <g id="xtick_4">
     <g id="line2d_7">
      <path d="M 510.156184 145.598755 
L 510.156184 22.0533 
" clip-path="url(#pddf7a4ab61)" style="fill: none; stroke: #ffffff; stroke-width: 1.5; stroke-linecap: square"/>
     </g>
     <g id="line2d_8">
      <g>
       <use xlink:href="#m8827e8ae84" x="510.156184" y="145.598755" style="fill: #555555; stroke: #555555; stroke-width: 1.875"/>
      </g>
     </g>
    </g>
    <g id="xtick_5">
     <g id="line2d_9">
      <path d="M 667.381515 145.598755 
L 667.381515 22.0533 
" clip-path="url(#pddf7a4ab61)" style="fill: none; stroke: #ffffff; stroke-width: 1.5; stroke-linecap: square"/>
     </g>
     <g id="line2d_10">
      <g>
       <use xlink:href="#m8827e8ae84" x="667.381515" y="145.598755" style="fill: #555555; stroke: #555555; stroke-width: 1.875"/>
      </g>
     </g>
    </g>
    <g id="xtick_6">
     <g id="line2d_11">
      <path d="M 824.563805 145.598755 
L 824.563805 22.0533 
" clip-path="url(#pddf7a4ab61)" style="fill: none; stroke: #ffffff; stroke-width: 1.5; stroke-linecap: square"/>
     </g>
     <g id="line2d_12">
      <g>
       <use xlink:href="#m8827e8ae84" x="824.563805" y="145.598755" style="fill: #555555; stroke: #555555; stroke-width: 1.875"/>
      </g>
     </g>
    </g>
    <g id="xtick_7">
     <g id="line2d_13">
      <defs>
       <path id="m852ffb242f" d="M 0 0 
L 0 6 
" style="stroke: #555555; stroke-width: 1.5"/>
      </defs>
      <g>
       <use xlink:href="#m852ffb242f" x="77.872606" y="145.598755" style="fill: #555555; stroke: #555555; stroke-width: 1.5"/>
      </g>
     </g>
    </g>
    <g id="xtick_8">
     <g id="line2d_14">
      <g>
       <use xlink:href="#m852ffb242f" x="117.178938" y="145.598755" style="fill: #555555; stroke: #555555; stroke-width: 1.5"/>
      </g>
     </g>
    </g>
    <g id="xtick_9">
     <g id="line2d_15">
      <g>
       <use xlink:href="#m852ffb242f" x="156.485271" y="145.598755" style="fill: #555555; stroke: #555555; stroke-width: 1.5"/>
      </g>
     </g>
    </g>
    <g id="xtick_10">
     <g id="line2d_16">
      <g>
       <use xlink:href="#m852ffb242f" x="195.791604" y="145.598755" style="fill: #555555; stroke: #555555; stroke-width: 1.5"/>
      </g>
     </g>
    </g>
    <g id="xtick_11">
     <g id="line2d_17">
      <g>
       <use xlink:href="#m852ffb242f" x="235.097936" y="145.598755" style="fill: #555555; stroke: #555555; stroke-width: 1.5"/>
      </g>
     </g>
    </g>
    <g id="xtick_12">
     <g id="line2d_18">
      <g>
       <use xlink:href="#m852ffb242f" x="274.404269" y="145.598755" style="fill: #555555; stroke: #555555; stroke-width: 1.5"/>
      </g>
     </g>
    </g>
    <g id="xtick_13">
     <g id="line2d_19">
      <g>
       <use xlink:href="#m852ffb242f" x="313.710601" y="145.598755" style="fill: #555555; stroke: #555555; stroke-width: 1.5"/>
      </g>
     </g>
    </g>
    <g id="xtick_14">
     <g id="line2d_20">
      <g>
       <use xlink:href="#m852ffb242f" x="353.016934" y="145.598755" style="fill: #555555; stroke: #555555; stroke-width: 1.5"/>
      </g>
     </g>
    </g>
    <g id="xtick_15">
     <g id="line2d_21">
      <g>
       <use xlink:href="#m852ffb242f" x="392.323267" y="145.598755" style="fill: #555555; stroke: #555555; stroke-width: 1.5"/>
      </g>
     </g>
    </g>
    <g id="xtick_16">
     <g id="line2d_22">
      <g>
       <use xlink:href="#m852ffb242f" x="431.629599" y="145.598755" style="fill: #555555; stroke: #555555; stroke-width: 1.5"/>
      </g>
     </g>
    </g>
    <g id="xtick_17">
     <g id="line2d_23">
      <g>
       <use xlink:href="#m852ffb242f" x="470.935932" y="145.598755" style="fill: #555555; stroke: #555555; stroke-width: 1.5"/>
      </g>
     </g>
    </g>
    <g id="xtick_18">
     <g id="line2d_24">
      <g>
       <use xlink:href="#m852ffb242f" x="510.242264" y="145.598755" style="fill: #555555; stroke: #555555; stroke-width: 1.5"/>
      </g>
     </g>
    </g>
    <g id="xtick_19">
     <g id="line2d_25">
      <g>
       <use xlink:href="#m852ffb242f" x="549.548597" y="145.598755" style="fill: #555555; stroke: #555555; stroke-width: 1.5"/>
      </g>
     </g>
    </g>
    <g id="xtick_20">
     <g id="line2d_26">
      <g>
       <use xlink:href="#m852ffb242f" x="588.85493" y="145.598755" style="fill: #555555; stroke: #555555; stroke-width: 1.5"/>
      </g>
     </g>
    </g>
    <g id="xtick_21">
     <g id="line2d_27">
      <g>
       <use xlink:href="#m852ffb242f" x="628.161262" y="145.598755" style="fill: #555555; stroke: #555555; stroke-width: 1.5"/>
      </g>
     </g>
    </g>
    <g id="xtick_22">
     <g id="line2d_28">
      <g>
       <use xlink:href="#m852ffb242f" x="667.467595" y="145.598755" style="fill: #555555; stroke: #555555; stroke-width: 1.5"/>
      </g>
     </g>
    </g>
    <g id="xtick_23">
     <g id="line2d_29">
      <g>
       <use xlink:href="#m852ffb242f" x="706.773927" y="145.598755" style="fill: #555555; stroke: #555555; stroke-width: 1.5"/>
      </g>
     </g>
    </g>
    <g id="xtick_24">
     <g id="line2d_30">
      <g>
       <use xlink:href="#m852ffb242f" x="746.08026" y="145.598755" style="fill: #555555; stroke: #555555; stroke-width: 1.5"/>
      </g>
     </g>
    </g>
    <g id="xtick_25">
     <g id="line2d_31">
      <g>
       <use xlink:href="#m852ffb242f" x="785.386593" y="145.598755" style="fill: #555555; stroke: #555555; stroke-width: 1.5"/>
      </g>
     </g>
    </g>
    <g id="xtick_26">
     <g id="line2d_32">
      <g>
       <use xlink:href="#m852ffb242f" x="824.692925" y="145.598755" style="fill: #555555; stroke: #555555; stroke-width: 1.5"/>
      </g>
     </g>
    </g>
   </g>
   <g id="matplotlib.axis_2">
    <g id="ytick_1">
     <g id="line2d_33">
      <path d="M 24.147854 90.049199 
L 861.147854 90.049199 
" clip-path="url(#pddf7a4ab61)" style="fill: none; stroke: #ffffff; stroke-width: 1.5; stroke-linecap: square"/>
     </g>
     <g id="line2d_34">
      <defs>
       <path id="mc3911e0ca4" d="M 0 0 
L -9 0 
" style="stroke: #555555; stroke-width: 1.875"/>
      </defs>
      <g>
       <use xlink:href="#mc3911e0ca4" x="24.147854" y="90.049199" style="fill: #555555; stroke: #555555; stroke-width: 1.875"/>
      </g>
     </g>
     <g id="text_1">
      <!-- $\mathdefault{0}$ -->
      <g style="fill: #555555" transform="translate(3.6 95.756951)scale(0.165 -0.165)">
       <defs>
        <path id="CMR17-30" d="M 2688 2025 
C 2688 2416 2682 3080 2413 3591 
C 2176 4039 1798 4198 1466 4198 
C 1158 4198 768 4058 525 3597 
C 269 3118 243 2524 243 2025 
C 243 1661 250 1106 448 619 
C 723 -39 1216 -128 1466 -128 
C 1760 -128 2208 -7 2470 600 
C 2662 1042 2688 1559 2688 2025 
z
M 1466 -26 
C 1056 -26 813 325 723 812 
C 653 1188 653 1738 653 2096 
C 653 2588 653 2997 736 3387 
C 858 3929 1216 4096 1466 4096 
C 1728 4096 2067 3923 2189 3400 
C 2272 3036 2278 2607 2278 2096 
C 2278 1680 2278 1169 2202 792 
C 2067 95 1690 -26 1466 -26 
z
" transform="scale(0.015625)"/>
       </defs>
       <use xlink:href="#CMR17-30" transform="scale(0.996264)"/>
      </g>
     </g>
    </g>
    <g id="ytick_2">
     <g id="line2d_35">
      <path d="M 24.147854 23.069848 
L 861.147854 23.069848 
" clip-path="url(#pddf7a4ab61)" style="fill: none; stroke: #ffffff; stroke-width: 1.5; stroke-linecap: square"/>
     </g>
     <g id="line2d_36">
      <g>
       <use xlink:href="#mc3911e0ca4" x="24.147854" y="23.069848" style="fill: #555555; stroke: #555555; stroke-width: 1.875"/>
      </g>
     </g>
     <g id="text_2">
      <!-- $\mathdefault{5}$ -->
      <g style="fill: #555555" transform="translate(3.6 28.7776)scale(0.165 -0.165)">
       <defs>
        <path id="CMR17-35" d="M 730 3692 
C 794 3666 1056 3584 1325 3584 
C 1920 3584 2246 3911 2432 4100 
C 2432 4157 2432 4192 2394 4192 
C 2387 4192 2374 4192 2323 4163 
C 2099 4058 1837 3973 1517 3973 
C 1325 3973 1037 3999 723 4139 
C 653 4171 640 4171 634 4171 
C 602 4171 595 4164 595 4037 
L 595 2203 
C 595 2089 595 2057 659 2057 
C 691 2057 704 2070 736 2114 
C 941 2401 1222 2522 1542 2522 
C 1766 2522 2246 2382 2246 1289 
C 2246 1085 2246 715 2054 421 
C 1894 159 1645 25 1370 25 
C 947 25 518 320 403 814 
C 429 807 480 795 506 795 
C 589 795 749 840 749 1038 
C 749 1210 627 1280 506 1280 
C 358 1280 262 1190 262 1011 
C 262 454 704 -128 1382 -128 
C 2042 -128 2669 440 2669 1264 
C 2669 2030 2170 2624 1549 2624 
C 1222 2624 947 2503 730 2274 
L 730 3692 
z
" transform="scale(0.015625)"/>
       </defs>
       <use xlink:href="#CMR17-35" transform="scale(0.996264)"/>
      </g>
     </g>
    </g>
    <g id="ytick_3">
     <g id="line2d_37">
      <defs>
       <path id="m6eff78a889" d="M 0 0 
L -6 0 
" style="stroke: #555555; stroke-width: 1.5"/>
      </defs>
      <g>
       <use xlink:href="#m6eff78a889" x="24.147854" y="143.632679" style="fill: #555555; stroke: #555555; stroke-width: 1.5"/>
      </g>
     </g>
    </g>
    <g id="ytick_4">
     <g id="line2d_38">
      <g>
       <use xlink:href="#m6eff78a889" x="24.147854" y="130.236809" style="fill: #555555; stroke: #555555; stroke-width: 1.5"/>
      </g>
     </g>
    </g>
    <g id="ytick_5">
     <g id="line2d_39">
      <g>
       <use xlink:href="#m6eff78a889" x="24.147854" y="116.840939" style="fill: #555555; stroke: #555555; stroke-width: 1.5"/>
      </g>
     </g>
    </g>
    <g id="ytick_6">
     <g id="line2d_40">
      <g>
       <use xlink:href="#m6eff78a889" x="24.147854" y="103.445069" style="fill: #555555; stroke: #555555; stroke-width: 1.5"/>
      </g>
     </g>
    </g>
    <g id="ytick_7">
     <g id="line2d_41">
      <g>
       <use xlink:href="#m6eff78a889" x="24.147854" y="76.653329" style="fill: #555555; stroke: #555555; stroke-width: 1.5"/>
      </g>
     </g>
    </g>
    <g id="ytick_8">
     <g id="line2d_42">
      <g>
       <use xlink:href="#m6eff78a889" x="24.147854" y="63.257458" style="fill: #555555; stroke: #555555; stroke-width: 1.5"/>
      </g>
     </g>
    </g>
    <g id="ytick_9">
     <g id="line2d_43">
      <g>
       <use xlink:href="#m6eff78a889" x="24.147854" y="49.861588" style="fill: #555555; stroke: #555555; stroke-width: 1.5"/>
      </g>
     </g>
    </g>
    <g id="ytick_10">
     <g id="line2d_44">
      <g>
       <use xlink:href="#m6eff78a889" x="24.147854" y="36.465718" style="fill: #555555; stroke: #555555; stroke-width: 1.5"/>
      </g>
     </g>
    </g>
   </g>
   <g id="line2d_45">
    <path d="M 24.147854 91.692523 
L 25.352976 92.978331 
L 26.687217 96.007758 
L 27.978419 90.764649 
L 29.312661 92.155848 
L 30.603863 88.708399 
L 31.938104 91.006401 
L 33.272346 88.844222 
L 34.563548 90.301516 
L 35.89779 79.364772 
L 37.188991 99.004925 
L 38.523233 81.248462 
L 39.857475 86.329086 
L 41.062597 82.986222 
L 42.396838 91.799041 
L 43.68804 79.571338 
L 45.022282 86.657758 
L 46.313484 65.446698 
L 47.647725 98.705479 
L 48.981967 95.199928 
L 50.273169 83.25971 
L 51.607411 69.296836 
L 52.898612 97.663886 
L 54.232854 92.573565 
L 55.567096 80.897392 
L 56.772218 91.089429 
L 58.106459 97.049613 
L 59.397661 96.241292 
L 60.731903 74.477743 
L 63.357346 84.767118 
L 64.691588 104.725269 
L 65.98279 95.270171 
L 67.317032 79.090223 
L 68.608233 101.47387 
L 69.942475 85.893321 
L 71.276717 92.081372 
L 72.524879 72.025239 
L 73.859121 83.134568 
L 75.150322 85.958538 
L 76.484564 90.129494 
L 77.775766 92.476123 
L 79.110008 100.047421 
L 81.735451 81.664773 
L 83.069693 84.17902 
L 84.360895 68.526321 
L 85.695136 58.127172 
L 87.029378 62.286438 
L 88.2345 54.349881 
L 89.568742 104.88707 
L 90.859943 63.092829 
L 92.194185 53.053505 
L 93.485387 93.311381 
L 94.819629 94.918991 
L 96.15387 110.84117 
L 97.445072 96.032614 
L 98.779314 102.807546 
L 100.070516 82.379504 
L 101.404757 92.597555 
L 102.738999 81.772221 
L 103.944121 93.021749 
L 105.278363 91.809066 
L 106.569564 103.998549 
L 107.903806 90.363111 
L 109.195008 85.101092 
L 110.52925 27.669003 
L 111.863491 103.014669 
L 113.154693 78.417115 
L 114.488935 94.847524 
L 115.780137 93.67643 
L 117.114378 98.099932 
L 118.44862 104.894459 
L 119.653742 105.737984 
L 120.987984 74.100416 
L 122.279185 101.087742 
L 124.904629 90.085663 
L 126.238871 75.135583 
L 127.573112 92.840001 
L 128.864314 90.097988 
L 130.198556 106.404948 
L 131.489758 94.184877 
L 132.823999 98.457208 
L 134.158241 87.135321 
L 135.406403 84.766696 
L 136.740645 95.717794 
L 138.031846 84.535155 
L 139.366088 56.29981 
L 140.65729 70.00411 
L 141.991532 102.685457 
L 143.325773 77.805448 
L 144.616975 98.083867 
L 145.951217 79.783303 
L 147.242419 92.078664 
L 148.57666 82.284982 
L 149.910902 87.359993 
L 151.116024 76.534819 
L 152.450266 66.260765 
L 153.741467 75.805222 
L 155.075709 94.006855 
L 156.366911 128.883215 
L 157.701153 120.864221 
L 159.035394 98.252831 
L 160.326596 87.442026 
L 162.95204 85.002144 
L 164.286282 87.138331 
L 165.620523 98.531088 
L 166.825645 84.737395 
L 168.159887 66.977907 
L 169.451088 87.258359 
L 170.78533 84.428643 
L 172.076532 103.225777 
L 173.410774 102.496929 
L 174.745016 85.998212 
L 176.036217 88.493905 
L 177.370459 73.11333 
L 178.661661 99.803775 
L 179.995903 87.916275 
L 181.330144 85.378151 
L 182.535266 74.392228 
L 185.160709 102.01214 
L 186.494951 88.30557 
L 187.786153 88.288657 
L 189.120395 101.137268 
L 190.454637 88.25644 
L 191.745838 94.375709 
L 193.08008 110.56762 
L 194.371282 83.9005 
L 195.705524 98.855398 
L 197.039765 85.5934 
L 198.287927 99.049825 
L 199.622169 121.860874 
L 200.913371 81.000634 
L 202.247612 86.33078 
L 203.538814 72.005536 
L 204.873056 61.26142 
L 206.207298 84.269274 
L 207.498499 90.763981 
L 208.832741 67.387162 
L 210.123943 87.737462 
L 211.458185 114.789441 
L 212.792426 106.979687 
L 213.997548 84.595345 
L 215.33179 85.03938 
L 216.622992 87.68751 
L 219.248435 108.345449 
L 220.582677 80.055719 
L 221.916919 107.905164 
L 223.20812 96.104489 
L 224.542362 85.126158 
L 225.833564 96.678398 
L 227.167806 98.085106 
L 228.502047 79.253834 
L 229.707169 99.693466 
L 231.041411 86.937295 
L 232.332613 82.17565 
L 233.666854 100.971132 
L 234.958056 98.816528 
L 236.292298 96.236744 
L 237.62654 110.390237 
L 238.917741 100.820896 
L 240.251983 86.238427 
L 241.543185 77.571445 
L 242.877427 91.463403 
L 244.211668 75.956048 
L 245.41679 104.465842 
L 246.751032 64.680711 
L 249.376475 106.010001 
L 250.667677 88.961971 
L 252.001919 59.451106 
L 253.336161 49.46 
L 254.627362 95.314889 
L 255.961604 95.549408 
L 257.252806 94.933189 
L 258.587048 84.95692 
L 259.921289 108.863276 
L 261.169451 84.7006 
L 262.503693 85.276487 
L 263.794895 92.19897 
L 265.129136 76.112161 
L 266.420338 110.965788 
L 267.75458 121.759954 
L 269.088822 86.015771 
L 270.380023 99.280809 
L 271.714265 82.430285 
L 273.005467 94.803246 
L 274.339709 97.136982 
L 275.673951 85.303463 
L 276.879072 99.686921 
L 278.213314 79.593935 
L 279.504516 94.329423 
L 280.838757 99.471717 
L 282.129959 93.546182 
L 283.464201 106.050573 
L 284.798443 94.475412 
L 286.089645 90.432717 
L 287.423886 84.770175 
L 288.715088 103.756982 
L 290.04933 70.793581 
L 291.383572 93.645455 
L 292.588693 92.293459 
L 293.922935 84.78616 
L 295.214137 86.697719 
L 296.548378 103.406352 
L 297.83958 101.909952 
L 299.173822 90.997694 
L 300.508064 103.902729 
L 301.799266 87.119537 
L 303.133507 83.120461 
L 304.424709 88.476313 
L 305.758951 96.58258 
L 307.093193 86.816696 
L 308.298314 102.12399 
L 309.632556 82.157642 
L 310.923758 66.60489 
L 312.258 84.828683 
L 313.549201 94.667797 
L 316.217685 102.374803 
L 317.508887 76.16132 
L 318.843128 86.776325 
L 320.13433 58.563752 
L 321.468572 87.844347 
L 322.802814 91.890217 
L 324.050975 78.532628 
L 325.385217 86.076554 
L 326.676419 74.478538 
L 328.010661 58.248957 
L 329.301862 53.114651 
L 330.636104 118.558498 
L 331.970346 80.454705 
L 333.261548 96.318353 
L 334.595789 93.781816 
L 335.886991 93.77699 
L 337.221233 81.780726 
L 338.555475 97.858169 
L 339.760596 90.653636 
L 341.094838 97.435347 
L 342.38604 92.797861 
L 343.720282 94.106135 
L 345.011483 90.561683 
L 346.345725 130.053247 
L 347.679967 92.179125 
L 348.971169 95.596426 
L 350.30541 89.989119 
L 351.596612 86.289495 
L 354.265096 97.407855 
L 355.470217 83.92952 
L 356.804459 83.718796 
L 358.095661 70.575055 
L 359.429903 103.958317 
L 360.721104 83.07247 
L 362.055346 101.763604 
L 363.389588 85.741876 
L 364.68079 88.129036 
L 366.015031 95.548846 
L 367.306233 97.991067 
L 368.640475 99.08379 
L 369.974717 93.125043 
L 371.179838 81.190494 
L 372.51408 96.183863 
L 373.805282 84.427226 
L 375.139524 93.481573 
L 376.430725 121.194333 
L 377.764967 65.74392 
L 379.099209 90.603 
L 380.390411 90.972999 
L 381.724652 99.153227 
L 383.015854 93.988305 
L 384.350096 90.813956 
L 385.684338 83.404044 
L 386.932499 83.370215 
L 388.266741 90.307274 
L 389.557943 95.413015 
L 390.892185 72.795702 
L 392.183386 94.897404 
L 393.517628 115.042154 
L 394.85187 96.143968 
L 396.143072 91.58507 
L 397.477314 85.218825 
L 398.768515 84.908422 
L 400.102757 85.967871 
L 401.436999 90.285365 
L 402.64212 87.813153 
L 403.976362 85.915398 
L 405.267564 89.398339 
L 406.601806 80.734438 
L 407.893007 66.422456 
L 409.227249 77.698681 
L 410.561491 100.009067 
L 411.852693 104.362599 
L 413.186935 91.531671 
L 414.478136 72.206815 
L 415.812378 76.493961 
L 417.14662 98.90392 
L 418.351741 92.162249 
L 419.685983 90.91732 
L 420.977185 92.778178 
L 422.311427 80.361889 
L 423.602629 110.333584 
L 424.93687 122.701765 
L 426.271112 91.338362 
L 427.562314 104.580287 
L 428.896556 84.909133 
L 430.187757 86.107934 
L 431.521999 92.202854 
L 432.856241 95.718109 
L 434.061363 83.706938 
L 435.395604 85.452709 
L 436.686806 89.049738 
L 438.021048 89.029656 
L 439.31225 90.348718 
L 440.646491 78.168991 
L 441.980733 82.714041 
L 444.606177 74.051639 
L 445.897378 89.215159 
L 447.23162 67.392044 
L 448.565862 91.978309 
L 449.814024 89.138015 
L 451.148265 87.695009 
L 452.439467 74.589845 
L 453.773709 92.47229 
L 455.064911 96.524012 
L 456.399152 99.176934 
L 457.733394 72.429025 
L 459.024596 104.6376 
L 460.358838 122.664983 
L 461.650039 78.754937 
L 462.984281 96.998882 
L 464.318523 76.620095 
L 465.523645 76.554134 
L 466.857886 75.744518 
L 469.48333 92.092581 
L 470.774532 131.573282 
L 472.108773 95.511561 
L 473.443015 105.370748 
L 474.734217 93.132072 
L 476.068459 72.84981 
L 477.35966 85.545981 
L 478.693902 100.394816 
L 480.028144 91.008294 
L 481.233266 94.727804 
L 482.567507 94.176354 
L 483.858709 92.487974 
L 485.192951 98.00876 
L 486.484153 84.885158 
L 487.818394 117.809764 
L 489.152636 110.726159 
L 490.443838 87.562808 
L 491.77808 74.672543 
L 493.069281 81.941807 
L 494.403523 108.326985 
L 495.737765 101.82445 
L 496.942887 109.151427 
L 498.277128 80.916808 
L 500.902572 99.450621 
L 502.193774 95.436367 
L 503.528015 99.160582 
L 504.862257 66.897549 
L 506.153459 87.045136 
L 507.487701 94.945433 
L 508.778902 92.319592 
L 510.113144 94.475692 
L 511.447386 70.810094 
L 512.695548 90.094775 
L 514.02979 74.352513 
L 515.320991 94.172897 
L 516.655233 99.233805 
L 517.946435 108.01414 
L 519.280677 108.271065 
L 520.614918 65.477532 
L 521.90612 94.678005 
L 523.240362 99.004109 
L 524.531564 75.641024 
L 525.865805 89.848017 
L 527.200047 110.765075 
L 528.405169 92.10911 
L 529.739411 102.374198 
L 531.030612 86.531221 
L 532.364854 83.980593 
L 533.656056 78.521638 
L 534.990298 73.982331 
L 536.324539 102.315413 
L 537.615741 105.682415 
L 538.949983 97.880441 
L 540.241185 86.001978 
L 541.575426 102.35288 
L 542.909668 86.199257 
L 544.11479 85.563951 
L 545.449032 70.109318 
L 546.740233 95.535235 
L 548.074475 69.595794 
L 549.365677 81.806627 
L 550.699919 79.911201 
L 552.03416 94.236668 
L 553.325362 91.396112 
L 554.659604 81.235947 
L 555.950806 84.962463 
L 557.285047 96.783262 
L 558.619289 91.632787 
L 559.824411 84.808607 
L 561.158653 91.219435 
L 562.449854 63.261496 
L 563.784096 91.405502 
L 565.075298 94.42205 
L 566.40954 136.492598 
L 567.743781 70.825562 
L 569.034983 70.338103 
L 570.369225 68.764277 
L 571.660427 96.503379 
L 572.994668 84.297864 
L 574.32891 85.824106 
L 575.577072 69.947708 
L 576.911314 82.396888 
L 578.202515 87.172862 
L 579.536757 125.917415 
L 580.827959 91.575538 
L 582.162201 130.299744 
L 583.496442 84.024969 
L 584.787644 105.131133 
L 586.121886 89.397944 
L 587.413088 89.831676 
L 588.747329 87.854211 
L 590.081571 97.417645 
L 591.286693 67.075116 
L 592.620935 89.123154 
L 593.912136 90.82485 
L 595.246378 79.132676 
L 596.53758 95.488652 
L 597.871822 85.760016 
L 599.206063 110.61149 
L 600.497265 96.076251 
L 601.831507 90.267449 
L 603.122709 95.198332 
L 604.456951 73.684199 
L 605.791192 95.376758 
L 606.996314 91.431669 
L 608.330556 97.480801 
L 609.621757 80.6889 
L 610.955999 97.608913 
L 612.247201 82.785797 
L 613.581443 96.731591 
L 614.915685 104.460761 
L 616.206886 93.035418 
L 617.541128 49.908249 
L 618.83233 79.570733 
L 620.166572 88.234523 
L 621.500813 83.954009 
L 622.705935 73.454079 
L 624.040177 96.096966 
L 625.331378 96.087248 
L 626.66562 72.477282 
L 627.956822 79.095016 
L 629.291064 93.982011 
L 630.625306 80.614169 
L 631.916507 64.210497 
L 633.250749 84.89084 
L 634.541951 79.989775 
L 635.876193 67.832549 
L 637.210434 81.725402 
L 638.458596 57.154774 
L 639.792838 122.591606 
L 641.08404 81.571799 
L 642.418281 86.329347 
L 643.709483 72.412911 
L 645.043725 104.810397 
L 646.377967 95.590466 
L 647.669168 117.442846 
L 649.00341 100.780184 
L 650.294612 95.359056 
L 651.628854 79.580052 
L 652.963095 90.124453 
L 654.168217 104.3629 
L 655.502459 79.877262 
L 656.793661 77.129919 
L 658.127902 76.131998 
L 659.419104 95.024163 
L 660.753346 100.153654 
L 662.087588 98.449235 
L 663.378789 102.390899 
L 664.713031 82.395774 
L 666.004233 77.054696 
L 667.338475 92.542845 
L 668.672716 114.571963 
L 669.877838 83.246373 
L 671.21208 93.428056 
L 672.503282 80.389285 
L 673.837523 101.518876 
L 675.128725 91.101102 
L 676.462967 73.013115 
L 677.797209 92.412193 
L 679.08841 71.832431 
L 680.422652 70.098261 
L 681.713854 89.208486 
L 683.048096 68.387768 
L 684.382337 89.05714 
L 685.587459 96.795522 
L 686.921701 84.091883 
L 688.212903 92.872417 
L 689.547144 93.325348 
L 690.838346 103.654962 
L 692.172588 82.203193 
L 693.50683 72.716547 
L 694.798031 136.614065 
L 696.132273 86.514005 
L 697.423475 100.283464 
L 698.757717 81.179093 
L 700.091958 91.264088 
L 701.34012 74.570113 
L 702.674362 80.431278 
L 703.965564 78.653257 
L 705.299805 110.310215 
L 706.591007 74.309396 
L 707.925249 73.297353 
L 709.259491 83.072774 
L 710.550692 104.569966 
L 711.884934 95.36129 
L 713.176136 102.254459 
L 714.510378 93.554389 
L 715.84462 83.406457 
L 717.049741 92.011207 
L 718.383983 97.968949 
L 719.675185 89.317755 
L 721.009426 75.135401 
L 723.63487 121.516769 
L 724.969112 78.090209 
L 726.260314 101.84352 
L 727.594555 92.315478 
L 728.885757 80.647437 
L 730.219999 96.475766 
L 731.554241 92.750023 
L 732.759362 68.636826 
L 734.093604 83.689513 
L 735.384806 83.209535 
L 736.719047 93.916606 
L 738.010249 115.303124 
L 739.344491 124.588135 
L 740.678733 101.24407 
L 741.969935 108.011866 
L 743.304176 72.400428 
L 744.595378 94.200406 
L 745.92962 89.525631 
L 747.263862 99.536838 
L 748.468983 79.471949 
L 749.803225 99.671367 
L 751.094427 89.872806 
L 752.428669 98.583191 
L 753.71987 67.964572 
L 755.054112 105.638382 
L 756.388354 102.417821 
L 757.679556 89.963154 
L 759.013797 91.779908 
L 760.304999 91.442023 
L 761.639241 94.220449 
L 762.973483 86.28666 
L 764.221644 96.899359 
L 765.555886 76.079039 
L 766.847088 61.30539 
L 768.18133 81.552172 
L 769.472531 73.911954 
L 770.806773 116.128341 
L 773.432217 89.173364 
L 774.766458 80.862882 
L 776.05766 86.595194 
L 777.391902 96.05853 
L 778.726144 86.099387 
L 779.931265 88.614809 
L 781.265507 111.419023 
L 782.556709 88.780512 
L 783.890951 99.570139 
L 785.182152 83.232593 
L 786.516394 77.745179 
L 787.850636 103.944106 
L 789.141838 84.635221 
L 790.476079 87.054251 
L 791.767281 89.797727 
L 793.101523 97.985737 
L 794.435765 80.391869 
L 795.640886 74.896589 
L 796.975128 92.827851 
L 798.26633 90.256729 
L 799.600572 98.649709 
L 800.891773 139.983052 
L 802.226015 82.174261 
L 803.560257 103.392676 
L 804.851459 89.610033 
L 806.1857 89.660312 
L 807.476902 79.926073 
L 808.811144 91.04413 
L 810.145386 84.906142 
L 811.350507 92.563874 
L 812.684749 97.281138 
L 813.975951 100.590389 
L 815.310193 82.638857 
L 816.601394 82.811048 
L 817.935636 101.873105 
L 819.269878 91.113149 
L 820.56108 77.862088 
L 821.895321 83.590885 
L 823.186523 107.52522 
L 824.520765 68.686866 
L 825.855007 110.644068 
L 827.103168 86.316523 
L 828.43741 91.732036 
L 829.728612 99.075583 
L 831.062854 94.400471 
L 832.354055 79.113424 
L 833.688297 87.236974 
L 835.022539 72.791375 
L 836.313741 73.030283 
L 837.647983 83.360357 
L 838.939184 66.408724 
L 840.273426 67.283799 
L 841.607668 82.982674 
L 842.812789 85.924639 
L 844.147031 86.008329 
L 845.438233 75.568306 
L 846.772475 92.006421 
L 848.063676 105.054946 
L 849.397918 100.708979 
L 850.73216 102.556843 
L 852.023362 96.926682 
L 853.357604 92.241084 
L 854.648805 96.426352 
L 855.983047 66.741952 
L 857.317289 67.366349 
L 858.52241 73.204549 
L 859.856652 92.560159 
L 861.147854 82.381402 
L 861.147854 82.381402 
" clip-path="url(#pddf7a4ab61)" style="fill: none; stroke: #4d3c2f; stroke-width: 2.25; stroke-linecap: square"/>
   </g>
   <g id="patch_3">
    <path d="M 24.147854 145.598755 
L 24.147854 22.0533 
" style="fill: none; stroke: #ffffff; stroke-width: 1.875; stroke-linejoin: miter; stroke-linecap: square"/>
   </g>
   <g id="patch_4">
    <path d="M 24.147854 145.598755 
L 861.147854 145.598755 
" style="fill: none; stroke: #ffffff; stroke-width: 1.875; stroke-linejoin: miter; stroke-linecap: square"/>
   </g>
   <g id="text_3">
    <!-- Standardized Residuals -->
    <g transform="translate(358.998275 16.0533)scale(0.18 -0.18)">
     <defs>
      <path id="CMR17-53" d="M 2803 4290 
C 2803 4404 2797 4411 2758 4411 
C 2720 4411 2707 4385 2682 4328 
L 2490 3907 
C 2246 4257 1875 4416 1472 4416 
C 819 4416 294 3901 294 3253 
C 294 3056 339 2776 557 2510 
C 794 2218 1018 2167 1530 2033 
C 1722 1982 2042 1899 2106 1874 
C 2470 1722 2662 1341 2662 985 
C 2662 527 2336 38 1779 38 
C 1094 38 454 419 410 1311 
C 403 1413 397 1419 352 1419 
C 301 1419 294 1413 294 1285 
L 294 -1 
C 294 -115 301 -122 339 -122 
C 384 -122 397 -90 486 108 
C 493 127 493 140 614 381 
C 934 -39 1472 -128 1779 -128 
C 2477 -128 2970 451 2970 1124 
C 2970 1454 2848 1708 2778 1823 
C 2509 2230 2221 2306 1914 2382 
C 1869 2402 1856 2402 1498 2490 
C 1152 2579 1005 2624 845 2796 
C 666 2992 602 3196 602 3399 
C 602 3812 934 4263 1478 4263 
C 2157 4263 2579 3786 2675 2993 
C 2694 2878 2701 2872 2746 2872 
C 2803 2872 2803 2891 2803 2999 
L 2803 4290 
z
" transform="scale(0.015625)"/>
      <path id="CMR17-74" d="M 966 2560 
L 1862 2560 
L 1862 2725 
L 966 2725 
L 966 3904 
L 851 3904 
C 838 3245 614 2668 70 2668 
L 70 2560 
L 627 2560 
L 627 771 
C 627 650 627 -64 1370 -64 
C 1747 -64 1965 306 1965 777 
L 1965 1140 
L 1850 1140 
L 1850 783 
C 1850 344 1677 51 1408 51 
C 1222 51 966 178 966 758 
L 966 2560 
z
" transform="scale(0.015625)"/>
      <path id="CMR17-61" d="M 2304 1653 
C 2304 2072 2304 2294 2035 2543 
C 1798 2752 1523 2816 1306 2816 
C 800 2816 435 2407 435 1971 
C 435 1728 627 1728 666 1728 
C 749 1728 896 1778 896 1954 
C 896 2112 774 2181 666 2181 
C 640 2181 608 2174 589 2168 
C 723 2592 1069 2714 1293 2714 
C 1613 2714 1965 2429 1965 1885 
L 1965 1600 
C 1587 1600 1133 1549 774 1357 
C 371 1133 256 813 256 570 
C 256 77 832 -64 1171 -64 
C 1523 -64 1850 139 1990 511 
C 2003 233 2182 -18 2464 -18 
C 2598 -18 2938 70 2938 567 
L 2938 920 
L 2822 920 
L 2822 562 
C 2822 178 2650 128 2566 128 
C 2304 128 2304 458 2304 738 
L 2304 1653 
z
M 1965 870 
C 1965 317 1568 38 1216 38 
C 896 38 646 275 646 570 
C 646 761 730 1100 1101 1305 
C 1408 1478 1760 1504 1965 1504 
L 1965 870 
z
" transform="scale(0.015625)"/>
      <path id="CMR17-6e" d="M 2656 1933 
C 2656 2259 2592 2790 1837 2790 
C 1331 2790 1069 2400 973 2144 
L 966 2144 
L 966 2790 
L 211 2720 
L 211 2554 
C 589 2554 646 2515 646 2208 
L 646 428 
C 646 184 621 153 211 153 
L 211 -13 
C 365 0 646 0 813 0 
C 979 0 1267 0 1421 -13 
L 1421 153 
C 1011 153 986 178 986 428 
L 986 1658 
C 986 2247 1344 2688 1792 2688 
C 2266 2688 2317 2266 2317 1958 
L 2317 428 
C 2317 184 2291 153 1882 153 
L 1882 -13 
C 2035 0 2317 0 2483 0 
C 2650 0 2938 0 3091 -13 
L 3091 153 
C 2682 153 2656 178 2656 428 
L 2656 1933 
z
" transform="scale(0.015625)"/>
      <path id="CMR17-64" d="M 1869 4326 
L 1869 4160 
C 2246 4160 2304 4122 2304 3820 
L 2304 2345 
C 2278 2377 2016 2790 1498 2790 
C 845 2790 211 2208 211 1364 
C 211 525 806 -64 1434 -64 
C 1978 -64 2259 337 2291 380 
L 2291 -63 
L 3066 -63 
L 3066 128 
C 2688 128 2630 166 2630 473 
L 2630 4396 
L 1869 4326 
z
M 2291 755 
C 2291 563 2176 390 2029 262 
C 1811 70 1594 38 1472 38 
C 1286 38 621 134 621 1356 
C 621 2612 1363 2688 1530 2688 
C 1824 2688 2061 2522 2208 2291 
C 2291 2157 2291 2138 2291 2023 
L 2291 755 
z
" transform="scale(0.015625)"/>
      <path id="CMR17-72" d="M 960 1497 
C 960 2112 1222 2688 1702 2688 
C 1747 2688 1792 2682 1837 2662 
C 1837 2662 1696 2617 1696 2452 
C 1696 2298 1818 2234 1914 2234 
C 1990 2234 2131 2279 2131 2458 
C 2131 2663 1926 2790 1709 2790 
C 1222 2790 1011 2317 947 2093 
L 941 2093 
L 941 2790 
L 198 2720 
L 198 2554 
C 576 2554 634 2515 634 2208 
L 634 428 
C 634 184 608 153 198 153 
L 198 -13 
C 352 0 646 0 813 0 
C 998 0 1325 0 1498 -13 
L 1498 153 
C 1037 153 960 153 960 440 
L 960 1497 
z
" transform="scale(0.015625)"/>
      <path id="CMR17-69" d="M 992 3909 
C 992 4049 877 4170 730 4170 
C 589 4170 467 4056 467 3909 
C 467 3769 582 3648 730 3648 
C 870 3648 992 3763 992 3909 
z
M 243 2706 
L 243 2541 
C 602 2541 653 2502 653 2197 
L 653 427 
C 653 184 627 153 218 153 
L 218 -13 
C 371 0 646 0 806 0 
C 960 0 1222 0 1370 -13 
L 1370 153 
C 992 153 979 191 979 420 
L 979 2776 
L 243 2706 
z
" transform="scale(0.015625)"/>
      <path id="CMR17-7a" d="M 2310 2605 
C 2362 2670 2362 2682 2362 2695 
C 2362 2752 2336 2752 2221 2752 
L 275 2752 
L 211 1760 
L 326 1760 
C 371 2381 442 2650 1178 2650 
L 1958 2650 
L 128 96 
C 128 0 134 0 269 0 
L 2291 0 
L 2381 1152 
L 2266 1152 
C 2214 442 2131 115 1350 115 
L 531 115 
L 2310 2605 
z
" transform="scale(0.015625)"/>
      <path id="CMR17-65" d="M 2438 1472 
C 2464 1498 2464 1511 2464 1576 
C 2464 2238 2118 2816 1389 2816 
C 710 2816 173 2169 173 1383 
C 173 551 781 -64 1459 -64 
C 2176 -64 2458 607 2458 740 
C 2458 784 2419 784 2406 784 
C 2362 784 2355 771 2330 696 
C 2189 265 1837 51 1504 51 
C 1229 51 954 203 781 480 
C 582 803 582 1176 582 1472 
L 2438 1472 
z
M 589 1568 
C 634 2505 1126 2714 1382 2714 
C 1818 2714 2112 2297 2118 1568 
L 589 1568 
z
" transform="scale(0.015625)"/>
      <path id="CMR17-52" d="M 2509 2146 
C 3117 2268 3629 2676 3629 3186 
C 3629 3785 2950 4326 2054 4326 
L 333 4326 
L 333 4160 
C 774 4160 845 4160 845 3873 
L 845 415 
C 845 128 774 128 333 128 
L 333 -26 
C 518 -26 851 -26 1050 -26 
C 1248 -26 1581 -26 1766 -26 
L 1766 128 
C 1325 128 1254 128 1254 417 
L 1254 2112 
L 2003 2112 
C 2368 2112 2573 1964 2662 1881 
C 2918 1632 2918 1459 2918 1024 
C 2918 595 2918 377 3110 160 
C 3354 -102 3680 -128 3821 -128 
C 4294 -128 4365 396 4365 503 
C 4365 540 4365 585 4307 585 
C 4256 585 4250 547 4250 522 
C 4218 112 4032 -26 3834 -26 
C 3482 -26 3443 375 3405 764 
C 3386 898 3373 993 3360 1133 
C 3322 1452 3270 1917 2509 2146 
z
M 1984 2214 
L 1254 2214 
L 1254 3913 
C 1254 4129 1267 4160 1523 4160 
L 1990 4160 
C 2522 4160 3142 3977 3142 3190 
C 3142 2372 2464 2214 1984 2214 
z
" transform="scale(0.015625)"/>
      <path id="CMR17-73" d="M 1978 2697 
C 1978 2813 1971 2819 1933 2819 
C 1907 2819 1901 2813 1824 2717 
C 1805 2691 1747 2626 1728 2601 
C 1523 2819 1235 2819 1126 2819 
C 416 2819 160 2447 160 2076 
C 160 1498 813 1365 998 1325 
C 1402 1243 1542 1217 1677 1101 
C 1760 1025 1901 884 1901 654 
C 1901 384 1747 38 1158 38 
C 602 38 403 460 288 1021 
C 269 1110 269 1117 218 1117 
C 166 1117 160 1110 160 983 
L 160 63 
C 160 -51 166 -58 205 -58 
C 237 -58 243 -51 275 0 
C 314 57 410 211 448 276 
C 576 103 800 -64 1158 -64 
C 1792 -64 2131 283 2131 784 
C 2131 1112 1958 1285 1875 1362 
C 1683 1561 1459 1606 1190 1657 
C 838 1735 390 1825 390 2217 
C 390 2383 480 2737 1126 2737 
C 1811 2737 1850 2094 1862 1888 
C 1869 1856 1901 1849 1920 1849 
C 1978 1849 1978 1869 1978 1978 
L 1978 2697 
z
" transform="scale(0.015625)"/>
      <path id="CMR17-75" d="M 1882 2693 
L 1882 2528 
C 2259 2528 2317 2489 2317 2186 
L 2317 1032 
C 2317 500 2029 38 1555 38 
C 1030 38 986 348 986 678 
L 986 2763 
L 211 2693 
L 211 2528 
C 467 2528 640 2528 646 2274 
L 646 1058 
C 646 633 646 361 813 183 
C 896 101 1056 -64 1517 -64 
C 2061 -64 2272 377 2323 506 
L 2330 506 
L 2330 -63 
L 3091 -63 
L 3091 128 
C 2714 128 2656 166 2656 473 
L 2656 2763 
L 1882 2693 
z
" transform="scale(0.015625)"/>
      <path id="CMR17-6c" d="M 979 4396 
L 218 4326 
L 218 4160 
C 595 4160 653 4122 653 3817 
L 653 426 
C 653 184 627 153 218 153 
L 218 -13 
C 371 0 653 0 813 0 
C 979 0 1261 0 1414 -13 
L 1414 153 
C 1005 153 979 178 979 426 
L 979 4396 
z
" transform="scale(0.015625)"/>
     </defs>
     <use xlink:href="#CMR17-53" transform="scale(0.996264)"/>
     <use xlink:href="#CMR17-74" transform="translate(50.89537 0)scale(0.996264)"/>
     <use xlink:href="#CMR17-61" transform="translate(86.176138 0)scale(0.996264)"/>
     <use xlink:href="#CMR17-6e" transform="translate(131.866615 0)scale(0.996264)"/>
     <use xlink:href="#CMR17-64" transform="translate(182.761984 0)scale(0.996264)"/>
     <use xlink:href="#CMR17-61" transform="translate(233.657354 0)scale(0.996264)"/>
     <use xlink:href="#CMR17-72" transform="translate(279.347831 0)scale(0.996264)"/>
     <use xlink:href="#CMR17-64" transform="translate(314.628599 0)scale(0.996264)"/>
     <use xlink:href="#CMR17-69" transform="translate(365.523969 0)scale(0.996264)"/>
     <use xlink:href="#CMR17-7a" transform="translate(390.395027 0)scale(0.996264)"/>
     <use xlink:href="#CMR17-65" transform="translate(430.880688 0)scale(0.996264)"/>
     <use xlink:href="#CMR17-64" transform="translate(471.366348 0)scale(0.996264)"/>
     <use xlink:href="#CMR17-52" transform="translate(552.337684 0)scale(0.996264)"/>
     <use xlink:href="#CMR17-65" transform="translate(620.128786 0)scale(0.996264)"/>
     <use xlink:href="#CMR17-73" transform="translate(660.614447 0)scale(0.996264)"/>
     <use xlink:href="#CMR17-69" transform="translate(696.415785 0)scale(0.996264)"/>
     <use xlink:href="#CMR17-64" transform="translate(721.286843 0)scale(0.996264)"/>
     <use xlink:href="#CMR17-75" transform="translate(772.182213 0)scale(0.996264)"/>
     <use xlink:href="#CMR17-61" transform="translate(823.077583 0)scale(0.996264)"/>
     <use xlink:href="#CMR17-6c" transform="translate(868.76806 0)scale(0.996264)"/>
     <use xlink:href="#CMR17-73" transform="translate(893.639118 0)scale(0.996264)"/>
    </g>
   </g>
  </g>
  <g id="axes_2">
   <g id="patch_5">
    <path d="M 24.147854 293.8533 
L 861.147854 293.8533 
L 861.147854 170.307846 
L 24.147854 170.307846 
z
" style="fill: #e5e5e5"/>
   </g>
   <g id="matplotlib.axis_3">
    <g id="xtick_27">
     <g id="line2d_46">
      <path d="M 38.566273 293.8533 
L 38.566273 170.307846 
" clip-path="url(#p66b0d56f54)" style="fill: none; stroke: #ffffff; stroke-width: 1.5; stroke-linecap: square"/>
     </g>
     <g id="line2d_47">
      <g>
       <use xlink:href="#m8827e8ae84" x="38.566273" y="293.8533" style="fill: #555555; stroke: #555555; stroke-width: 1.875"/>
      </g>
     </g>
     <g id="text_4">
      <!-- $\mathdefault{1970}$ -->
      <g style="fill: #555555" transform="translate(22.470565 317.768805)scale(0.165 -0.165)">
       <defs>
        <path id="CMR17-31" d="M 1702 4058 
C 1702 4192 1696 4192 1606 4192 
C 1357 3916 979 3827 621 3827 
C 602 3827 570 3827 563 3808 
C 557 3795 557 3782 557 3648 
C 755 3648 1088 3686 1344 3839 
L 1344 461 
C 1344 236 1331 160 781 160 
L 589 160 
L 589 0 
C 896 0 1216 0 1523 0 
C 1830 0 2150 0 2458 0 
L 2458 160 
L 2266 160 
C 1715 160 1702 230 1702 458 
L 1702 4058 
z
" transform="scale(0.015625)"/>
        <path id="CMR17-39" d="M 2253 1864 
C 2253 464 1670 31 1190 31 
C 1043 31 685 31 538 294 
C 704 268 826 357 826 518 
C 826 692 685 749 595 749 
C 538 749 365 723 365 506 
C 365 71 742 -128 1203 -128 
C 1939 -128 2688 674 2688 2073 
C 2688 3817 1971 4179 1485 4179 
C 851 4179 243 3628 243 2778 
C 243 1991 762 1408 1414 1408 
C 1952 1408 2189 1903 2253 2112 
L 2253 1864 
z
M 1427 1510 
C 1254 1510 1011 1542 813 1922 
C 678 2169 678 2461 678 2771 
C 678 3146 678 3405 858 3684 
C 947 3817 1114 4032 1485 4032 
C 2240 4032 2240 2885 2240 2632 
C 2240 2182 2035 1510 1427 1510 
z
" transform="scale(0.015625)"/>
        <path id="CMR17-37" d="M 2886 3941 
L 2886 4081 
L 1382 4081 
C 634 4081 621 4165 595 4288 
L 480 4288 
L 294 3094 
L 410 3094 
C 429 3215 474 3540 550 3661 
C 589 3712 1062 3712 1171 3712 
L 2579 3712 
L 1869 2661 
C 1395 1954 1069 999 1069 165 
C 1069 89 1069 -128 1299 -128 
C 1530 -128 1530 89 1530 171 
L 1530 465 
C 1530 1508 1709 2196 2003 2636 
L 2886 3941 
z
" transform="scale(0.015625)"/>
       </defs>
       <use xlink:href="#CMR17-31" transform="scale(0.996264)"/>
       <use xlink:href="#CMR17-39" transform="translate(45.690477 0)scale(0.996264)"/>
       <use xlink:href="#CMR17-37" transform="translate(91.380954 0)scale(0.996264)"/>
       <use xlink:href="#CMR17-30" transform="translate(137.071431 0)scale(0.996264)"/>
      </g>
     </g>
    </g>
    <g id="xtick_28">
     <g id="line2d_48">
      <path d="M 195.748564 293.8533 
L 195.748564 170.307846 
" clip-path="url(#p66b0d56f54)" style="fill: none; stroke: #ffffff; stroke-width: 1.5; stroke-linecap: square"/>
     </g>
     <g id="line2d_49">
      <g>
       <use xlink:href="#m8827e8ae84" x="195.748564" y="293.8533" style="fill: #555555; stroke: #555555; stroke-width: 1.875"/>
      </g>
     </g>
     <g id="text_5">
      <!-- $\mathdefault{1980}$ -->
      <g style="fill: #555555" transform="translate(179.652856 317.768805)scale(0.165 -0.165)">
       <defs>
        <path id="CMR17-38" d="M 1741 2264 
C 2144 2467 2554 2773 2554 3263 
C 2554 3841 1990 4179 1472 4179 
C 890 4179 378 3759 378 3180 
C 378 3021 416 2747 666 2505 
C 730 2442 998 2251 1171 2130 
C 883 1983 211 1634 211 934 
C 211 279 838 -128 1459 -128 
C 2144 -128 2720 362 2720 1010 
C 2720 1590 2330 1857 2074 2029 
L 1741 2264 
z
M 902 2822 
C 851 2854 595 3051 595 3351 
C 595 3739 998 4032 1459 4032 
C 1965 4032 2336 3676 2336 3262 
C 2336 2669 1670 2331 1638 2331 
C 1632 2331 1626 2331 1574 2370 
L 902 2822 
z
M 2080 1519 
C 2176 1449 2483 1240 2483 851 
C 2483 381 2010 25 1472 25 
C 890 25 448 438 448 940 
C 448 1443 838 1862 1280 2060 
L 2080 1519 
z
" transform="scale(0.015625)"/>
       </defs>
       <use xlink:href="#CMR17-31" transform="scale(0.996264)"/>
       <use xlink:href="#CMR17-39" transform="translate(45.690477 0)scale(0.996264)"/>
       <use xlink:href="#CMR17-38" transform="translate(91.380954 0)scale(0.996264)"/>
       <use xlink:href="#CMR17-30" transform="translate(137.071431 0)scale(0.996264)"/>
      </g>
     </g>
    </g>
    <g id="xtick_29">
     <g id="line2d_50">
      <path d="M 352.973894 293.8533 
L 352.973894 170.307846 
" clip-path="url(#p66b0d56f54)" style="fill: none; stroke: #ffffff; stroke-width: 1.5; stroke-linecap: square"/>
     </g>
     <g id="line2d_51">
      <g>
       <use xlink:href="#m8827e8ae84" x="352.973894" y="293.8533" style="fill: #555555; stroke: #555555; stroke-width: 1.875"/>
      </g>
     </g>
     <g id="text_6">
      <!-- $\mathdefault{1990}$ -->
      <g style="fill: #555555" transform="translate(336.878186 317.768805)scale(0.165 -0.165)">
       <use xlink:href="#CMR17-31" transform="scale(0.996264)"/>
       <use xlink:href="#CMR17-39" transform="translate(45.690477 0)scale(0.996264)"/>
       <use xlink:href="#CMR17-39" transform="translate(91.380954 0)scale(0.996264)"/>
       <use xlink:href="#CMR17-30" transform="translate(137.071431 0)scale(0.996264)"/>
      </g>
     </g>
    </g>
    <g id="xtick_30">
     <g id="line2d_52">
      <path d="M 510.156184 293.8533 
L 510.156184 170.307846 
" clip-path="url(#p66b0d56f54)" style="fill: none; stroke: #ffffff; stroke-width: 1.5; stroke-linecap: square"/>
     </g>
     <g id="line2d_53">
      <g>
       <use xlink:href="#m8827e8ae84" x="510.156184" y="293.8533" style="fill: #555555; stroke: #555555; stroke-width: 1.875"/>
      </g>
     </g>
     <g id="text_7">
      <!-- $\mathdefault{2000}$ -->
      <g style="fill: #555555" transform="translate(494.060476 317.768805)scale(0.165 -0.165)">
       <defs>
        <path id="CMR17-32" d="M 2669 989 
L 2554 989 
C 2490 536 2438 459 2413 420 
C 2381 369 1920 369 1830 369 
L 602 369 
C 832 619 1280 1072 1824 1597 
C 2214 1967 2669 2402 2669 3035 
C 2669 3790 2067 4224 1395 4224 
C 691 4224 262 3604 262 3030 
C 262 2780 448 2748 525 2748 
C 589 2748 781 2787 781 3010 
C 781 3207 614 3264 525 3264 
C 486 3264 448 3258 422 3245 
C 544 3790 915 4058 1306 4058 
C 1862 4058 2227 3617 2227 3035 
C 2227 2479 1901 2000 1536 1584 
L 262 146 
L 262 0 
L 2515 0 
L 2669 989 
z
" transform="scale(0.015625)"/>
       </defs>
       <use xlink:href="#CMR17-32" transform="scale(0.996264)"/>
       <use xlink:href="#CMR17-30" transform="translate(45.690477 0)scale(0.996264)"/>
       <use xlink:href="#CMR17-30" transform="translate(91.380954 0)scale(0.996264)"/>
       <use xlink:href="#CMR17-30" transform="translate(137.071431 0)scale(0.996264)"/>
      </g>
     </g>
    </g>
    <g id="xtick_31">
     <g id="line2d_54">
      <path d="M 667.381515 293.8533 
L 667.381515 170.307846 
" clip-path="url(#p66b0d56f54)" style="fill: none; stroke: #ffffff; stroke-width: 1.5; stroke-linecap: square"/>
     </g>
     <g id="line2d_55">
      <g>
       <use xlink:href="#m8827e8ae84" x="667.381515" y="293.8533" style="fill: #555555; stroke: #555555; stroke-width: 1.875"/>
      </g>
     </g>
     <g id="text_8">
      <!-- $\mathdefault{2010}$ -->
      <g style="fill: #555555" transform="translate(651.285807 317.768805)scale(0.165 -0.165)">
       <use xlink:href="#CMR17-32" transform="scale(0.996264)"/>
       <use xlink:href="#CMR17-30" transform="translate(45.690477 0)scale(0.996264)"/>
       <use xlink:href="#CMR17-31" transform="translate(91.380954 0)scale(0.996264)"/>
       <use xlink:href="#CMR17-30" transform="translate(137.071431 0)scale(0.996264)"/>
      </g>
     </g>
    </g>
    <g id="xtick_32">
     <g id="line2d_56">
      <path d="M 824.563805 293.8533 
L 824.563805 170.307846 
" clip-path="url(#p66b0d56f54)" style="fill: none; stroke: #ffffff; stroke-width: 1.5; stroke-linecap: square"/>
     </g>
     <g id="line2d_57">
      <g>
       <use xlink:href="#m8827e8ae84" x="824.563805" y="293.8533" style="fill: #555555; stroke: #555555; stroke-width: 1.875"/>
      </g>
     </g>
     <g id="text_9">
      <!-- $\mathdefault{2020}$ -->
      <g style="fill: #555555" transform="translate(808.468097 317.768805)scale(0.165 -0.165)">
       <use xlink:href="#CMR17-32" transform="scale(0.996264)"/>
       <use xlink:href="#CMR17-30" transform="translate(45.690477 0)scale(0.996264)"/>
       <use xlink:href="#CMR17-32" transform="translate(91.380954 0)scale(0.996264)"/>
       <use xlink:href="#CMR17-30" transform="translate(137.071431 0)scale(0.996264)"/>
      </g>
     </g>
    </g>
    <g id="xtick_33">
     <g id="line2d_58">
      <g>
       <use xlink:href="#m852ffb242f" x="77.872606" y="293.8533" style="fill: #555555; stroke: #555555; stroke-width: 1.5"/>
      </g>
     </g>
    </g>
    <g id="xtick_34">
     <g id="line2d_59">
      <g>
       <use xlink:href="#m852ffb242f" x="117.178938" y="293.8533" style="fill: #555555; stroke: #555555; stroke-width: 1.5"/>
      </g>
     </g>
    </g>
    <g id="xtick_35">
     <g id="line2d_60">
      <g>
       <use xlink:href="#m852ffb242f" x="156.485271" y="293.8533" style="fill: #555555; stroke: #555555; stroke-width: 1.5"/>
      </g>
     </g>
    </g>
    <g id="xtick_36">
     <g id="line2d_61">
      <g>
       <use xlink:href="#m852ffb242f" x="195.791604" y="293.8533" style="fill: #555555; stroke: #555555; stroke-width: 1.5"/>
      </g>
     </g>
    </g>
    <g id="xtick_37">
     <g id="line2d_62">
      <g>
       <use xlink:href="#m852ffb242f" x="235.097936" y="293.8533" style="fill: #555555; stroke: #555555; stroke-width: 1.5"/>
      </g>
     </g>
    </g>
    <g id="xtick_38">
     <g id="line2d_63">
      <g>
       <use xlink:href="#m852ffb242f" x="274.404269" y="293.8533" style="fill: #555555; stroke: #555555; stroke-width: 1.5"/>
      </g>
     </g>
    </g>
    <g id="xtick_39">
     <g id="line2d_64">
      <g>
       <use xlink:href="#m852ffb242f" x="313.710601" y="293.8533" style="fill: #555555; stroke: #555555; stroke-width: 1.5"/>
      </g>
     </g>
    </g>
    <g id="xtick_40">
     <g id="line2d_65">
      <g>
       <use xlink:href="#m852ffb242f" x="353.016934" y="293.8533" style="fill: #555555; stroke: #555555; stroke-width: 1.5"/>
      </g>
     </g>
    </g>
    <g id="xtick_41">
     <g id="line2d_66">
      <g>
       <use xlink:href="#m852ffb242f" x="392.323267" y="293.8533" style="fill: #555555; stroke: #555555; stroke-width: 1.5"/>
      </g>
     </g>
    </g>
    <g id="xtick_42">
     <g id="line2d_67">
      <g>
       <use xlink:href="#m852ffb242f" x="431.629599" y="293.8533" style="fill: #555555; stroke: #555555; stroke-width: 1.5"/>
      </g>
     </g>
    </g>
    <g id="xtick_43">
     <g id="line2d_68">
      <g>
       <use xlink:href="#m852ffb242f" x="470.935932" y="293.8533" style="fill: #555555; stroke: #555555; stroke-width: 1.5"/>
      </g>
     </g>
    </g>
    <g id="xtick_44">
     <g id="line2d_69">
      <g>
       <use xlink:href="#m852ffb242f" x="510.242264" y="293.8533" style="fill: #555555; stroke: #555555; stroke-width: 1.5"/>
      </g>
     </g>
    </g>
    <g id="xtick_45">
     <g id="line2d_70">
      <g>
       <use xlink:href="#m852ffb242f" x="549.548597" y="293.8533" style="fill: #555555; stroke: #555555; stroke-width: 1.5"/>
      </g>
     </g>
    </g>
    <g id="xtick_46">
     <g id="line2d_71">
      <g>
       <use xlink:href="#m852ffb242f" x="588.85493" y="293.8533" style="fill: #555555; stroke: #555555; stroke-width: 1.5"/>
      </g>
     </g>
    </g>
    <g id="xtick_47">
     <g id="line2d_72">
      <g>
       <use xlink:href="#m852ffb242f" x="628.161262" y="293.8533" style="fill: #555555; stroke: #555555; stroke-width: 1.5"/>
      </g>
     </g>
    </g>
    <g id="xtick_48">
     <g id="line2d_73">
      <g>
       <use xlink:href="#m852ffb242f" x="667.467595" y="293.8533" style="fill: #555555; stroke: #555555; stroke-width: 1.5"/>
      </g>
     </g>
    </g>
    <g id="xtick_49">
     <g id="line2d_74">
      <g>
       <use xlink:href="#m852ffb242f" x="706.773927" y="293.8533" style="fill: #555555; stroke: #555555; stroke-width: 1.5"/>
      </g>
     </g>
    </g>
    <g id="xtick_50">
     <g id="line2d_75">
      <g>
       <use xlink:href="#m852ffb242f" x="746.08026" y="293.8533" style="fill: #555555; stroke: #555555; stroke-width: 1.5"/>
      </g>
     </g>
    </g>
    <g id="xtick_51">
     <g id="line2d_76">
      <g>
       <use xlink:href="#m852ffb242f" x="785.386593" y="293.8533" style="fill: #555555; stroke: #555555; stroke-width: 1.5"/>
      </g>
     </g>
    </g>
    <g id="xtick_52">
     <g id="line2d_77">
      <g>
       <use xlink:href="#m852ffb242f" x="824.692925" y="293.8533" style="fill: #555555; stroke: #555555; stroke-width: 1.5"/>
      </g>
     </g>
    </g>
   </g>
   <g id="matplotlib.axis_4">
    <g id="ytick_11">
     <g id="line2d_78">
      <path d="M 24.147854 250.370475 
L 861.147854 250.370475 
" clip-path="url(#p66b0d56f54)" style="fill: none; stroke: #ffffff; stroke-width: 1.5; stroke-linecap: square"/>
     </g>
     <g id="line2d_79">
      <g>
       <use xlink:href="#mc3911e0ca4" x="24.147854" y="250.370475" style="fill: #555555; stroke: #555555; stroke-width: 1.875"/>
      </g>
     </g>
     <g id="text_10">
      <!-- $\mathdefault{1}$ -->
      <g style="fill: #555555" transform="translate(3.6 256.078227)scale(0.165 -0.165)">
       <use xlink:href="#CMR17-31" transform="scale(0.996264)"/>
      </g>
     </g>
    </g>
    <g id="ytick_12">
     <g id="line2d_80">
      <path d="M 24.147854 190.558079 
L 861.147854 190.558079 
" clip-path="url(#p66b0d56f54)" style="fill: none; stroke: #ffffff; stroke-width: 1.5; stroke-linecap: square"/>
     </g>
     <g id="line2d_81">
      <g>
       <use xlink:href="#mc3911e0ca4" x="24.147854" y="190.558079" style="fill: #555555; stroke: #555555; stroke-width: 1.875"/>
      </g>
     </g>
     <g id="text_11">
      <!-- $\mathdefault{2}$ -->
      <g style="fill: #555555" transform="translate(3.6 196.265832)scale(0.165 -0.165)">
       <use xlink:href="#CMR17-32" transform="scale(0.996264)"/>
      </g>
     </g>
    </g>
    <g id="ytick_13">
     <g id="line2d_82">
      <g>
       <use xlink:href="#m6eff78a889" x="24.147854" y="286.257912" style="fill: #555555; stroke: #555555; stroke-width: 1.5"/>
      </g>
     </g>
    </g>
    <g id="ytick_14">
     <g id="line2d_83">
      <g>
       <use xlink:href="#m6eff78a889" x="24.147854" y="274.295433" style="fill: #555555; stroke: #555555; stroke-width: 1.5"/>
      </g>
     </g>
    </g>
    <g id="ytick_15">
     <g id="line2d_84">
      <g>
       <use xlink:href="#m6eff78a889" x="24.147854" y="262.332954" style="fill: #555555; stroke: #555555; stroke-width: 1.5"/>
      </g>
     </g>
    </g>
    <g id="ytick_16">
     <g id="line2d_85">
      <g>
       <use xlink:href="#m6eff78a889" x="24.147854" y="238.407996" style="fill: #555555; stroke: #555555; stroke-width: 1.5"/>
      </g>
     </g>
    </g>
    <g id="ytick_17">
     <g id="line2d_86">
      <g>
       <use xlink:href="#m6eff78a889" x="24.147854" y="226.445516" style="fill: #555555; stroke: #555555; stroke-width: 1.5"/>
      </g>
     </g>
    </g>
    <g id="ytick_18">
     <g id="line2d_87">
      <g>
       <use xlink:href="#m6eff78a889" x="24.147854" y="214.483037" style="fill: #555555; stroke: #555555; stroke-width: 1.5"/>
      </g>
     </g>
    </g>
    <g id="ytick_19">
     <g id="line2d_88">
      <g>
       <use xlink:href="#m6eff78a889" x="24.147854" y="202.520558" style="fill: #555555; stroke: #555555; stroke-width: 1.5"/>
      </g>
     </g>
    </g>
    <g id="ytick_20">
     <g id="line2d_89">
      <g>
       <use xlink:href="#m6eff78a889" x="24.147854" y="178.5956" style="fill: #555555; stroke: #555555; stroke-width: 1.5"/>
      </g>
     </g>
    </g>
   </g>
   <g id="line2d_90">
    <path d="M 24.147854 281.66571 
L 25.352976 283.06729 
L 26.687217 284.157931 
L 27.978419 284.712483 
L 29.312661 285.63561 
L 31.938104 286.963301 
L 34.563548 287.888604 
L 35.89779 288.237598 
L 37.188991 287.299218 
L 39.857475 286.500604 
L 41.062597 286.944897 
L 42.396838 286.893624 
L 43.68804 287.395065 
L 45.022282 286.610599 
L 46.313484 287.063333 
L 47.647725 281.34908 
L 48.981967 281.737375 
L 50.273169 282.777245 
L 51.607411 283.389548 
L 52.898612 279.150018 
L 54.232854 280.058427 
L 55.567096 281.656091 
L 56.772218 281.882064 
L 58.106459 283.272624 
L 60.731903 284.349929 
L 62.023105 282.306631 
L 63.357346 282.06825 
L 64.691588 283.039507 
L 65.98279 281.386706 
L 67.317032 282.467176 
L 69.942475 281.631258 
L 72.524879 284.015918 
L 73.859121 281.013237 
L 75.150322 281.840996 
L 79.110008 285.164048 
L 80.444249 284.766443 
L 81.735451 285.678864 
L 83.069693 285.574443 
L 84.360895 285.922959 
L 85.695136 281.477089 
L 88.2345 259.829459 
L 89.568742 237.38734 
L 90.859943 236.321798 
L 92.194185 218.821908 
L 93.485387 175.923548 
L 94.819629 189.292456 
L 96.15387 200.391239 
L 97.445072 188.407698 
L 98.779314 198.79479 
L 100.070516 200.851732 
L 101.404757 208.743137 
L 102.738999 218.872638 
L 103.944121 224.840386 
L 106.569564 240.669232 
L 107.903806 240.469266 
L 109.195008 247.31334 
L 110.52925 252.511209 
L 111.863491 185.549119 
L 113.154693 187.605086 
L 114.488935 191.654113 
L 117.114378 212.974081 
L 118.44862 219.580971 
L 119.653742 218.502841 
L 120.987984 216.275874 
L 122.279185 213.644517 
L 123.613427 217.323759 
L 126.238871 233.869555 
L 127.573112 232.723798 
L 128.864314 240.146561 
L 130.198556 247.032342 
L 131.489758 244.504197 
L 132.823999 250.261881 
L 134.158241 253.672952 
L 135.406403 258.673628 
L 136.740645 262.53905 
L 138.031846 265.866116 
L 139.366088 268.860773 
L 140.65729 252.146824 
L 141.991532 246.119883 
L 143.325773 246.945317 
L 144.616975 248.052526 
L 145.951217 251.845177 
L 147.242419 254.0747 
L 148.57666 259.161124 
L 149.910902 262.097895 
L 151.116024 266.115184 
L 152.450266 265.665931 
L 153.741467 257.534506 
L 155.075709 256.82235 
L 156.366911 261.241606 
L 159.035394 211.497743 
L 160.326596 218.089246 
L 161.660838 227.178809 
L 162.95204 234.893341 
L 165.620523 247.77424 
L 166.825645 251.34815 
L 168.159887 255.9953 
L 169.451088 247.192201 
L 170.78533 252.972768 
L 172.076532 257.343564 
L 173.410774 257.394795 
L 174.745016 257.934708 
L 177.370459 266.33263 
L 178.661661 263.693635 
L 179.995903 265.363414 
L 181.330144 269.035157 
L 182.535266 271.848165 
L 183.869508 270.039575 
L 185.160709 273.127041 
L 186.494951 273.131052 
L 187.786153 275.797474 
L 189.120395 278.084086 
L 190.454637 278.072513 
L 191.745838 280.022502 
L 193.08008 281.431834 
L 194.371282 277.198599 
L 195.705524 278.681985 
L 197.039765 279.334112 
L 198.287927 280.825144 
L 199.622169 281.185603 
L 200.913371 270.224076 
L 202.247612 271.639199 
L 203.538814 274.290612 
L 204.873056 271.121345 
L 206.207298 259.679078 
L 208.832741 267.324609 
L 210.123943 260.379396 
L 211.458185 264.659846 
L 212.792426 255.508435 
L 213.997548 252.63654 
L 216.622992 261.217368 
L 217.957233 265.387498 
L 219.248435 267.745815 
L 220.582677 264.193383 
L 221.916919 265.71332 
L 223.20812 262.403249 
L 225.833564 268.798021 
L 227.167806 271.156906 
L 228.502047 272.83349 
L 229.707169 273.350288 
L 231.041411 274.264174 
L 232.332613 276.644639 
L 233.666854 277.780616 
L 234.958056 277.852879 
L 236.292298 278.606032 
L 237.62654 279.899196 
L 238.917741 275.671464 
L 240.251983 275.973154 
L 241.543185 278.028066 
L 242.877427 277.504624 
L 244.211668 279.560173 
L 246.751032 276.962305 
L 248.042234 269.359181 
L 249.376475 272.130887 
L 250.667677 270.147547 
L 252.001919 273.263387 
L 253.336161 260.860475 
L 254.627362 232.81673 
L 257.252806 245.200967 
L 258.587048 250.64501 
L 259.921289 255.439693 
L 261.169451 250.859434 
L 263.794895 259.903106 
L 265.129136 264.262187 
L 266.420338 263.613328 
L 267.75458 257.744157 
L 269.088822 239.41135 
L 270.380023 245.75522 
L 271.714265 249.043873 
L 273.005467 252.96212 
L 274.339709 257.610199 
L 275.673951 260.9682 
L 276.879072 264.720642 
L 278.213314 266.363419 
L 279.504516 267.507372 
L 280.838757 270.586395 
L 282.129959 271.828423 
L 283.464201 274.487552 
L 284.798443 272.467884 
L 287.423886 277.366655 
L 288.715088 278.997783 
L 290.04933 277.925574 
L 291.383572 274.189773 
L 292.588693 276.518592 
L 293.922935 278.665914 
L 296.548378 281.635205 
L 297.83958 280.546971 
L 299.173822 280.065699 
L 300.508064 281.748457 
L 301.799266 280.470652 
L 303.133507 281.970621 
L 304.424709 282.667094 
L 305.758951 283.909277 
L 307.093193 284.406049 
L 308.298314 285.250992 
L 309.632556 284.292864 
L 310.923758 284.479322 
L 312.258 279.023468 
L 314.883443 281.747193 
L 316.217685 282.154771 
L 317.508887 281.388235 
L 318.843128 280.117786 
L 320.13433 281.638305 
L 321.468572 271.025907 
L 324.050975 276.490096 
L 325.385217 276.446768 
L 326.676419 278.413551 
L 328.010661 276.5514 
L 329.301862 264.168999 
L 330.636104 242.158813 
L 331.970346 223.655302 
L 333.261548 228.185866 
L 334.595789 234.712152 
L 335.886991 241.65934 
L 337.221233 247.84683 
L 339.760596 255.137427 
L 341.094838 260.207634 
L 342.38604 263.197368 
L 343.720282 267.069389 
L 346.345725 273.367325 
L 347.679967 252.652048 
L 348.971169 257.89668 
L 350.30541 261.767373 
L 351.596612 266.01499 
L 354.265096 272.567293 
L 356.804459 276.152963 
L 358.095661 277.728857 
L 359.429903 273.863249 
L 360.721104 272.928112 
L 362.055346 274.728056 
L 363.389588 274.732311 
L 366.015031 279.000288 
L 367.306233 280.370969 
L 368.640475 281.052087 
L 369.974717 281.377775 
L 371.179838 282.724245 
L 372.51408 282.897793 
L 376.430725 285.144624 
L 377.764967 275.739025 
L 379.099209 268.67227 
L 380.390411 272.007059 
L 381.724652 274.873983 
L 383.015854 275.830112 
L 385.684338 279.909338 
L 386.932499 280.938214 
L 388.266741 281.823651 
L 389.557943 283.238673 
L 390.892185 284.02283 
L 392.183386 281.337327 
L 393.517628 282.480679 
L 394.85187 275.966169 
L 396.143072 277.617269 
L 397.477314 279.649849 
L 398.768515 281.040348 
L 403.976362 285.376361 
L 406.601806 286.674377 
L 407.893007 286.240613 
L 409.227249 280.879551 
L 410.561491 280.202956 
L 411.852693 280.361124 
L 413.186935 278.976428 
L 414.478136 280.806679 
L 415.812378 277.866049 
L 417.14662 276.914846 
L 418.351741 277.742033 
L 420.977185 281.459014 
L 422.311427 282.822835 
L 423.602629 282.776024 
L 424.93687 278.728359 
L 426.271112 266.403839 
L 427.562314 270.009242 
L 428.896556 268.866123 
L 431.521999 274.220794 
L 432.856241 276.703492 
L 434.061363 278.348518 
L 435.395604 279.643523 
L 439.31225 283.86733 
L 440.646491 284.941718 
L 441.980733 284.068965 
L 443.271935 284.396497 
L 444.606177 283.683629 
L 445.897378 281.503134 
L 447.23162 282.960724 
L 448.565862 277.749285 
L 449.814024 279.738866 
L 451.148265 281.473732 
L 452.439467 282.86365 
L 453.773709 280.920207 
L 455.064911 282.392229 
L 456.399152 283.116892 
L 457.733394 283.1775 
L 459.024596 280.345439 
L 460.358838 278.849583 
L 461.650039 266.591691 
L 462.984281 267.3172 
L 464.318523 269.740325 
L 466.857886 268.659238 
L 468.149088 267.677501 
L 469.48333 270.214984 
L 470.774532 273.257541 
L 472.108773 251.054357 
L 473.443015 255.68115 
L 474.734217 254.158132 
L 476.068459 259.070659 
L 477.35966 256.06543 
L 478.693902 260.437604 
L 480.028144 262.051768 
L 481.233266 266.239044 
L 483.858709 272.262773 
L 485.192951 274.990998 
L 486.484153 276.286691 
L 487.818394 278.082382 
L 489.152636 269.057046 
L 490.443838 263.849128 
L 491.77808 267.6738 
L 493.069281 266.06703 
L 494.403523 268.220385 
L 495.737765 264.699534 
L 496.942887 265.288493 
L 498.277128 261.021026 
L 499.56833 263.192446 
L 500.902572 267.256468 
L 502.193774 268.793747 
L 503.528015 271.478426 
L 504.862257 272.75527 
L 506.153459 266.101572 
L 507.487701 269.572034 
L 510.113144 275.015367 
L 511.447386 277.107996 
L 512.695548 273.346839 
L 514.02979 276.04276 
L 515.320991 274.163621 
L 516.655233 276.418524 
L 517.946435 277.195555 
L 520.614918 270.860029 
L 521.90612 262.858087 
L 523.240362 266.41997 
L 524.531564 268.211984 
L 525.865805 267.181158 
L 527.200047 270.721683 
L 528.405169 265.619898 
L 529.739411 269.265955 
L 531.030612 269.323411 
L 532.364854 272.306188 
L 533.656056 274.410659 
L 534.990298 274.513595 
L 536.324539 272.458684 
L 537.615741 272.367369 
L 538.949983 270.567272 
L 540.241185 272.370412 
L 541.575426 274.874384 
L 542.909668 274.622319 
L 544.11479 276.856742 
L 545.449032 278.690757 
L 546.740233 274.61434 
L 548.074475 276.564356 
L 549.365677 272.066075 
L 550.699919 273.58313 
L 552.03416 274.295269 
L 554.659604 278.726654 
L 555.950806 279.371918 
L 557.285047 280.76129 
L 558.619289 281.659332 
L 559.824411 283.064796 
L 561.158653 283.893287 
L 562.449854 284.945907 
L 563.784096 277.858244 
L 565.075298 279.863674 
L 566.40954 281.289835 
L 567.743781 259.870601 
L 569.034983 255.182678 
L 570.369225 249.72642 
L 571.660427 242.128196 
L 575.577072 257.044279 
L 576.911314 251.353503 
L 578.202515 255.049904 
L 579.536757 259.893962 
L 580.827959 237.271426 
L 582.162201 244.40175 
L 583.496442 207.896857 
L 584.787644 216.458973 
L 586.121886 215.051548 
L 587.413088 224.808104 
L 588.747329 233.472364 
L 590.081571 240.936176 
L 591.286693 245.70027 
L 592.620935 235.587574 
L 593.912136 242.972746 
L 595.246378 249.502388 
L 596.53758 251.453083 
L 599.206063 260.475074 
L 600.497265 254.640148 
L 601.831507 258.694832 
L 603.122709 263.331085 
L 604.456951 266.71035 
L 605.791192 264.465057 
L 608.330556 271.101201 
L 609.621757 272.972739 
L 610.955999 274.022527 
L 613.581443 276.96312 
L 614.915685 278.358911 
L 616.206886 277.018732 
L 617.541128 279.025418 
L 618.83233 261.135781 
L 620.166572 262.632715 
L 621.500813 266.684587 
L 622.705935 269.429858 
L 624.040177 267.058613 
L 625.331378 269.775122 
L 626.66562 272.184375 
L 627.956822 269.247267 
L 629.291064 269.957889 
L 630.625306 272.792541 
L 631.916507 273.832204 
L 633.250749 265.351115 
L 634.541951 268.495095 
L 635.876193 269.654603 
L 637.210434 263.335599 
L 638.458596 265.659154 
L 639.792838 248.662656 
L 641.08404 226.151669 
L 642.418281 231.410718 
L 643.709483 238.719786 
L 645.043725 234.553832 
L 646.377967 233.575155 
L 647.669168 239.949201 
L 649.00341 222.596755 
L 650.294612 226.146114 
L 651.628854 233.366208 
L 652.963095 236.564028 
L 654.168217 243.870056 
L 655.502459 243.285409 
L 656.793661 246.119707 
L 658.127902 246.713425 
L 659.419104 246.446319 
L 660.753346 251.727185 
L 662.087588 254.063265 
L 663.378789 257.161927 
L 664.713031 257.781175 
L 666.004233 260.892281 
L 667.338475 260.942734 
L 668.672716 265.129961 
L 669.877838 256.255757 
L 671.21208 259.857842 
L 672.503282 264.037724 
L 673.837523 265.724372 
L 675.128725 266.414678 
L 676.462967 270.03176 
L 677.797209 267.388612 
L 679.08841 270.773891 
L 680.422652 267.388351 
L 681.713854 262.601388 
L 683.048096 266.723816 
L 684.382337 260.532812 
L 685.587459 264.911496 
L 690.838346 275.769405 
L 692.172588 274.897052 
L 693.50683 276.235524 
L 694.798031 273.503981 
L 696.132273 246.608525 
L 697.423475 252.293733 
L 698.757717 254.513559 
L 700.091958 257.338281 
L 701.34012 262.103511 
L 702.674362 260.45526 
L 703.965564 262.438896 
L 705.299805 263.361529 
L 706.591007 258.027665 
L 707.925249 256.177934 
L 709.259491 253.475597 
L 710.550692 257.277633 
L 711.884934 256.364688 
L 713.176136 260.473765 
L 714.510378 261.031482 
L 715.84462 265.046797 
L 717.049741 267.807535 
L 718.383983 271.17763 
L 719.675185 272.889473 
L 721.009426 275.639423 
L 722.300628 274.15664 
L 723.63487 275.426276 
L 724.969112 262.956836 
L 727.594555 264.179351 
L 728.885757 267.988204 
L 730.219999 269.463349 
L 731.554241 271.805015 
L 732.759362 274.56802 
L 734.093604 269.312417 
L 735.384806 271.689422 
L 736.719047 273.666815 
L 738.010249 276.027328 
L 739.344491 268.348776 
L 740.678733 250.65683 
L 741.969935 252.355415 
L 744.595378 244.650378 
L 747.263862 256.04128 
L 748.468983 258.424604 
L 749.803225 260.046961 
L 751.094427 262.059538 
L 752.428669 266.268995 
L 753.71987 268.241324 
L 755.054112 261.870293 
L 756.388354 260.143463 
L 757.679556 260.616105 
L 759.013797 265.010513 
L 760.304999 268.765446 
L 761.639241 272.051321 
L 764.221644 276.829509 
L 765.555886 278.202706 
L 766.847088 277.059429 
L 768.18133 267.106678 
L 769.472531 269.015851 
L 770.806773 266.930176 
L 772.141015 256.958301 
L 773.432217 257.817768 
L 774.766458 262.543598 
L 776.05766 264.565774 
L 777.391902 268.158692 
L 778.726144 270.761083 
L 779.931265 273.489858 
L 781.265507 276.125282 
L 782.556709 271.031934 
L 783.890951 274.017866 
L 785.182152 274.914643 
L 786.516394 276.525931 
L 787.850636 276.169561 
L 789.141838 275.148688 
L 793.101523 280.901397 
L 794.435765 281.518574 
L 795.640886 281.624671 
L 796.975128 279.848659 
L 798.26633 281.457052 
L 799.600572 282.931839 
L 800.891773 283.141266 
L 802.226015 260.47052 
L 803.560257 263.240232 
L 804.851459 262.990158 
L 806.1857 267.075764 
L 807.476902 270.627741 
L 808.811144 271.590572 
L 810.145386 274.512454 
L 812.684749 278.664366 
L 813.975951 279.722974 
L 815.310193 279.749398 
L 817.935636 281.441265 
L 819.269878 280.899114 
L 820.56108 282.446805 
L 821.895321 281.702233 
L 823.186523 282.526205 
L 824.520765 279.757607 
L 827.103168 270.267255 
L 829.728612 275.770479 
L 831.062854 276.662444 
L 832.354055 278.543853 
L 833.688297 278.546186 
L 835.022539 280.346978 
L 837.647983 275.121353 
L 838.939184 276.7395 
L 841.607668 263.583767 
L 845.438233 272.467812 
L 846.772475 271.289373 
L 848.063676 274.193748 
L 849.397918 272.700112 
L 850.73216 273.281833 
L 852.023362 273.03367 
L 853.357604 274.848166 
L 854.648805 277.239156 
L 855.983047 278.668577 
L 857.317289 272.635045 
L 858.52241 266.306384 
L 859.856652 263.730031 
L 861.147854 267.566664 
L 861.147854 267.566664 
" clip-path="url(#p66b0d56f54)" style="fill: none; stroke: #4d3c2f; stroke-width: 2.25; stroke-linecap: square"/>
   </g>
   <g id="patch_6">
    <path d="M 24.147854 293.8533 
L 24.147854 170.307846 
" style="fill: none; stroke: #ffffff; stroke-width: 1.875; stroke-linejoin: miter; stroke-linecap: square"/>
   </g>
   <g id="patch_7">
    <path d="M 24.147854 293.8533 
L 861.147854 293.8533 
" style="fill: none; stroke: #ffffff; stroke-width: 1.875; stroke-linejoin: miter; stroke-linecap: square"/>
   </g>
   <g id="text_12">
    <!-- Conditional Volatility -->
    <g transform="translate(364.832134 164.307846)scale(0.18 -0.18)">
     <defs>
      <path id="CMR17-43" d="M 3974 4289 
C 3974 4403 3968 4410 3930 4410 
C 3904 4410 3898 4403 3853 4327 
L 3571 3792 
C 3258 4187 2874 4416 2381 4416 
C 1286 4416 294 3456 294 2148 
C 294 826 1286 -128 2387 -128 
C 3366 -128 3974 730 3974 1461 
C 3974 1524 3974 1550 3917 1550 
C 3866 1550 3866 1531 3859 1474 
C 3808 585 3168 38 2477 38 
C 1824 38 781 495 781 2147 
C 781 3805 1843 4250 2464 4250 
C 3187 4250 3712 3628 3834 2745 
C 3846 2668 3846 2655 3904 2655 
C 3974 2655 3974 2668 3974 2783 
L 3974 4289 
z
" transform="scale(0.015625)"/>
      <path id="CMR17-6f" d="M 2758 1356 
C 2758 2176 2163 2816 1466 2816 
C 768 2816 173 2176 173 1356 
C 173 551 768 -64 1466 -64 
C 2163 -64 2758 551 2758 1356 
z
M 1466 51 
C 1165 51 909 230 762 480 
C 602 767 582 1126 582 1408 
C 582 1677 595 2010 762 2298 
C 890 2509 1139 2714 1466 2714 
C 1754 2714 1997 2554 2150 2330 
C 2349 2029 2349 1607 2349 1408 
C 2349 1158 2336 775 2163 467 
C 1984 173 1709 51 1466 51 
z
" transform="scale(0.015625)"/>
      <path id="CMR17-56" d="M 3776 3745 
C 3834 3886 3936 4160 4365 4160 
L 4365 4332 
C 4218 4319 4051 4319 3891 4319 
C 3738 4319 3475 4319 3328 4332 
L 3328 4160 
C 3648 4160 3661 3936 3661 3898 
C 3661 3827 3642 3783 3622 3732 
L 2362 446 
L 1043 3886 
C 1024 3931 1011 3963 1011 3994 
C 1011 4160 1267 4160 1402 4160 
L 1402 4319 
C 1197 4319 896 4319 685 4319 
C 518 4319 218 4319 64 4332 
L 64 4160 
C 435 4160 506 4135 582 3931 
L 2106 -26 
C 2138 -115 2144 -128 2214 -128 
C 2285 -128 2291 -115 2323 -26 
L 3776 3745 
z
" transform="scale(0.015625)"/>
      <path id="CMR17-79" d="M 2496 2197 
C 2656 2586 2944 2586 3034 2586 
L 3034 2752 
C 2912 2752 2752 2752 2630 2752 
C 2496 2752 2285 2752 2157 2758 
L 2157 2592 
C 2400 2573 2406 2394 2406 2343 
C 2406 2280 2394 2248 2362 2171 
L 1664 449 
L 902 2306 
C 870 2382 870 2426 870 2433 
C 870 2573 1018 2586 1171 2586 
L 1171 2758 
C 1018 2752 742 2752 582 2752 
C 410 2752 205 2752 64 2758 
L 64 2586 
C 410 2586 448 2554 531 2350 
L 1485 15 
C 1197 -738 1030 -1178 627 -1178 
C 557 -1178 397 -1159 282 -1044 
C 429 -1031 493 -942 493 -833 
C 493 -725 416 -629 288 -629 
C 147 -629 77 -725 77 -840 
C 77 -1095 339 -1280 627 -1280 
C 998 -1280 1229 -922 1357 -604 
L 2496 2197 
z
" transform="scale(0.015625)"/>
     </defs>
     <use xlink:href="#CMR17-43" transform="scale(0.996264)"/>
     <use xlink:href="#CMR17-6f" transform="translate(66.509881 0)scale(0.996264)"/>
     <use xlink:href="#CMR17-6e" transform="translate(112.200358 0)scale(0.996264)"/>
     <use xlink:href="#CMR17-64" transform="translate(163.095727 0)scale(0.996264)"/>
     <use xlink:href="#CMR17-69" transform="translate(213.991097 0)scale(0.996264)"/>
     <use xlink:href="#CMR17-74" transform="translate(238.862156 0)scale(0.996264)"/>
     <use xlink:href="#CMR17-69" transform="translate(274.142924 0)scale(0.996264)"/>
     <use xlink:href="#CMR17-6f" transform="translate(299.013982 0)scale(0.996264)"/>
     <use xlink:href="#CMR17-6e" transform="translate(344.704459 0)scale(0.996264)"/>
     <use xlink:href="#CMR17-61" transform="translate(395.599829 0)scale(0.996264)"/>
     <use xlink:href="#CMR17-6c" transform="translate(441.290306 0)scale(0.996264)"/>
     <use xlink:href="#CMR17-56" transform="translate(496.237331 0)scale(0.996264)"/>
     <use xlink:href="#CMR17-6f" transform="translate(557.502505 0)scale(0.996264)"/>
     <use xlink:href="#CMR17-6c" transform="translate(603.192982 0)scale(0.996264)"/>
     <use xlink:href="#CMR17-61" transform="translate(628.064041 0)scale(0.996264)"/>
     <use xlink:href="#CMR17-74" transform="translate(673.754518 0)scale(0.996264)"/>
     <use xlink:href="#CMR17-69" transform="translate(709.035286 0)scale(0.996264)"/>
     <use xlink:href="#CMR17-6c" transform="translate(733.906344 0)scale(0.996264)"/>
     <use xlink:href="#CMR17-69" transform="translate(758.777403 0)scale(0.996264)"/>
     <use xlink:href="#CMR17-74" transform="translate(783.648461 0)scale(0.996264)"/>
     <use xlink:href="#CMR17-79" transform="translate(816.326775 0)scale(0.996264)"/>
    </g>
   </g>
  </g>
 </g>
 <defs>
  <clipPath id="pddf7a4ab61">
   <rect x="24.147854" y="22.0533" width="837" height="123.545455"/>
  </clipPath>
  <clipPath id="p66b0d56f54">
   <rect x="24.147854" y="170.307846" width="837" height="123.545455"/>
  </clipPath>
 </defs>
</svg>
