<?xml version="1.0" encoding="utf-8" standalone="no"?>
<!DOCTYPE svg PUBLIC "-//W3C//DTD SVG 1.1//EN"
  "http://www.w3.org/Graphics/SVG/1.1/DTD/svg11.dtd">
<svg xmlns:xlink="http://www.w3.org/1999/xlink" width="332.274647pt" height="331.760948pt" viewBox="0 0 332.274647 331.760948" xmlns="http://www.w3.org/2000/svg" version="1.1">
 <metadata>
  <rdf:RDF xmlns:dc="http://purl.org/dc/elements/1.1/" xmlns:cc="http://creativecommons.org/ns#" xmlns:rdf="http://www.w3.org/1999/02/22-rdf-syntax-ns#">
   <cc:Work>
    <dc:type rdf:resource="http://purl.org/dc/dcmitype/StillImage"/>
    <dc:date>2022-08-18T01:09:58.525047</dc:date>
    <dc:format>image/svg+xml</dc:format>
    <dc:creator>
     <cc:Agent>
      <dc:title>Matplotlib v3.5.1, https://matplotlib.org/</dc:title>
     </cc:Agent>
    </dc:creator>
   </cc:Work>
  </rdf:RDF>
 </metadata>
 <defs>
  <style type="text/css">*{stroke-linejoin: round; stroke-linecap: butt}</style>
 </defs>
 <g id="figure_1">
  <g id="patch_1">
   <path d="M 0 331.760948 
L 332.274647 331.760948 
L 332.274647 0 
L 0 0 
z
" style="fill: #ffffff"/>
  </g>
  <g id="axes_1">
   <g id="patch_2">
    <path d="M 56.874647 281.107752 
L 328.674647 281.107752 
L 328.674647 9.307752 
L 56.874647 9.307752 
z
" style="fill: #e5e5e5"/>
   </g>
   <g id="matplotlib.axis_1">
    <g id="xtick_1">
     <g id="line2d_1">
      <path d="M 102.174647 281.107752 
L 102.174647 9.307752 
" clip-path="url(#pf2290e26a2)" style="fill: none; stroke: #ffffff; stroke-width: 1.5; stroke-linecap: square"/>
     </g>
     <g id="line2d_2">
      <defs>
       <path id="md64966706e" d="M 0 0 
L 0 9 
" style="stroke: #555555; stroke-width: 1.875"/>
      </defs>
      <g>
       <use xlink:href="#md64966706e" x="102.174647" y="281.107752" style="fill: #555555; stroke: #555555; stroke-width: 1.875"/>
      </g>
     </g>
     <g id="text_1">
      <!-- $\mathdefault{−2}$ -->
      <g style="fill: #555555" transform="translate(91.758006 305.023257)scale(0.165 -0.165)">
       <defs>
        <path id="CMSY10-0" d="M 4218 1472 
C 4326 1472 4442 1472 4442 1600 
C 4442 1728 4326 1728 4218 1728 
L 755 1728 
C 646 1728 531 1728 531 1600 
C 531 1472 646 1472 755 1472 
L 4218 1472 
z
" transform="scale(0.015625)"/>
        <path id="CMR17-32" d="M 2669 989 
L 2554 989 
C 2490 536 2438 459 2413 420 
C 2381 369 1920 369 1830 369 
L 602 369 
C 832 619 1280 1072 1824 1597 
C 2214 1967 2669 2402 2669 3035 
C 2669 3790 2067 4224 1395 4224 
C 691 4224 262 3604 262 3030 
C 262 2780 448 2748 525 2748 
C 589 2748 781 2787 781 3010 
C 781 3207 614 3264 525 3264 
C 486 3264 448 3258 422 3245 
C 544 3790 915 4058 1306 4058 
C 1862 4058 2227 3617 2227 3035 
C 2227 2479 1901 2000 1536 1584 
L 262 146 
L 262 0 
L 2515 0 
L 2669 989 
z
" transform="scale(0.015625)"/>
       </defs>
       <use xlink:href="#CMSY10-0" transform="scale(0.996264)"/>
       <use xlink:href="#CMR17-32" transform="translate(77.487468 0)scale(0.996264)"/>
      </g>
     </g>
    </g>
    <g id="xtick_2">
     <g id="line2d_3">
      <path d="M 192.774647 281.107752 
L 192.774647 9.307752 
" clip-path="url(#pf2290e26a2)" style="fill: none; stroke: #ffffff; stroke-width: 1.5; stroke-linecap: square"/>
     </g>
     <g id="line2d_4">
      <g>
       <use xlink:href="#md64966706e" x="192.774647" y="281.107752" style="fill: #555555; stroke: #555555; stroke-width: 1.875"/>
      </g>
     </g>
     <g id="text_2">
      <!-- $\mathdefault{0}$ -->
      <g style="fill: #555555" transform="translate(188.75072 305.023257)scale(0.165 -0.165)">
       <defs>
        <path id="CMR17-30" d="M 2688 2025 
C 2688 2416 2682 3080 2413 3591 
C 2176 4039 1798 4198 1466 4198 
C 1158 4198 768 4058 525 3597 
C 269 3118 243 2524 243 2025 
C 243 1661 250 1106 448 619 
C 723 -39 1216 -128 1466 -128 
C 1760 -128 2208 -7 2470 600 
C 2662 1042 2688 1559 2688 2025 
z
M 1466 -26 
C 1056 -26 813 325 723 812 
C 653 1188 653 1738 653 2096 
C 653 2588 653 2997 736 3387 
C 858 3929 1216 4096 1466 4096 
C 1728 4096 2067 3923 2189 3400 
C 2272 3036 2278 2607 2278 2096 
C 2278 1680 2278 1169 2202 792 
C 2067 95 1690 -26 1466 -26 
z
" transform="scale(0.015625)"/>
       </defs>
       <use xlink:href="#CMR17-30" transform="scale(0.996264)"/>
      </g>
     </g>
    </g>
    <g id="xtick_3">
     <g id="line2d_5">
      <path d="M 283.374647 281.107752 
L 283.374647 9.307752 
" clip-path="url(#pf2290e26a2)" style="fill: none; stroke: #ffffff; stroke-width: 1.5; stroke-linecap: square"/>
     </g>
     <g id="line2d_6">
      <g>
       <use xlink:href="#md64966706e" x="283.374647" y="281.107752" style="fill: #555555; stroke: #555555; stroke-width: 1.875"/>
      </g>
     </g>
     <g id="text_3">
      <!-- $\mathdefault{2}$ -->
      <g style="fill: #555555" transform="translate(279.35072 305.023257)scale(0.165 -0.165)">
       <use xlink:href="#CMR17-32" transform="scale(0.996264)"/>
      </g>
     </g>
    </g>
    <g id="xtick_4">
     <g id="line2d_7">
      <defs>
       <path id="md3240e35ed" d="M 0 0 
L 0 6 
" style="stroke: #555555; stroke-width: 1.5"/>
      </defs>
      <g>
       <use xlink:href="#md3240e35ed" x="79.524647" y="281.107752" style="fill: #555555; stroke: #555555; stroke-width: 1.5"/>
      </g>
     </g>
    </g>
    <g id="xtick_5">
     <g id="line2d_8">
      <g>
       <use xlink:href="#md3240e35ed" x="124.824647" y="281.107752" style="fill: #555555; stroke: #555555; stroke-width: 1.5"/>
      </g>
     </g>
    </g>
    <g id="xtick_6">
     <g id="line2d_9">
      <g>
       <use xlink:href="#md3240e35ed" x="147.474647" y="281.107752" style="fill: #555555; stroke: #555555; stroke-width: 1.5"/>
      </g>
     </g>
    </g>
    <g id="xtick_7">
     <g id="line2d_10">
      <g>
       <use xlink:href="#md3240e35ed" x="170.124647" y="281.107752" style="fill: #555555; stroke: #555555; stroke-width: 1.5"/>
      </g>
     </g>
    </g>
    <g id="xtick_8">
     <g id="line2d_11">
      <g>
       <use xlink:href="#md3240e35ed" x="215.424647" y="281.107752" style="fill: #555555; stroke: #555555; stroke-width: 1.5"/>
      </g>
     </g>
    </g>
    <g id="xtick_9">
     <g id="line2d_12">
      <g>
       <use xlink:href="#md3240e35ed" x="238.074647" y="281.107752" style="fill: #555555; stroke: #555555; stroke-width: 1.5"/>
      </g>
     </g>
    </g>
    <g id="xtick_10">
     <g id="line2d_13">
      <g>
       <use xlink:href="#md3240e35ed" x="260.724647" y="281.107752" style="fill: #555555; stroke: #555555; stroke-width: 1.5"/>
      </g>
     </g>
    </g>
    <g id="xtick_11">
     <g id="line2d_14">
      <g>
       <use xlink:href="#md3240e35ed" x="306.024647" y="281.107752" style="fill: #555555; stroke: #555555; stroke-width: 1.5"/>
      </g>
     </g>
    </g>
    <g id="xtick_12">
     <g id="line2d_15">
      <g>
       <use xlink:href="#md3240e35ed" x="328.674647" y="281.107752" style="fill: #555555; stroke: #555555; stroke-width: 1.5"/>
      </g>
     </g>
    </g>
    <g id="text_4">
     <!-- $x$ -->
     <g style="fill: #555555" transform="translate(187.785582 324.672884)scale(0.18 -0.18)">
      <defs>
       <path id="CMMI12-78" d="M 3034 2606 
C 2829 2567 2752 2414 2752 2293 
C 2752 2139 2874 2088 2963 2088 
C 3155 2088 3290 2254 3290 2427 
C 3290 2695 2982 2816 2714 2816 
C 2323 2816 2106 2433 2048 2312 
C 1901 2816 1504 2816 1389 2816 
C 736 2816 390 1980 390 1839 
C 390 1814 416 1782 461 1782 
C 512 1782 525 1820 538 1846 
C 755 2555 1184 2689 1370 2689 
C 1658 2689 1715 2420 1715 2267 
C 1715 2127 1677 1980 1600 1673 
L 1382 798 
C 1286 415 1101 64 762 64 
C 730 64 570 64 435 147 
C 666 192 717 383 717 460 
C 717 588 621 664 499 664 
C 346 664 179 530 179 326 
C 179 57 480 -64 755 -64 
C 1062 -64 1280 179 1414 441 
C 1517 64 1837 -64 2074 -64 
C 2726 -64 3072 773 3072 913 
C 3072 945 3046 971 3008 971 
C 2950 971 2944 939 2925 888 
C 2752 326 2381 64 2093 64 
C 1869 64 1747 230 1747 492 
C 1747 632 1773 734 1875 1156 
L 2099 2024 
C 2195 2408 2413 2689 2707 2689 
C 2720 2689 2899 2689 3034 2606 
z
" transform="scale(0.015625)"/>
      </defs>
      <use xlink:href="#CMMI12-78" transform="scale(0.996264)"/>
     </g>
    </g>
   </g>
   <g id="matplotlib.axis_2">
    <g id="ytick_1">
     <g id="line2d_16">
      <path d="M 56.874647 281.107752 
L 328.674647 281.107752 
" clip-path="url(#pf2290e26a2)" style="fill: none; stroke: #ffffff; stroke-width: 1.5; stroke-linecap: square"/>
     </g>
     <g id="line2d_17">
      <defs>
       <path id="m2beb2524b6" d="M 0 0 
L -9 0 
" style="stroke: #555555; stroke-width: 1.875"/>
      </defs>
      <g>
       <use xlink:href="#m2beb2524b6" x="56.874647" y="281.107752" style="fill: #555555; stroke: #555555; stroke-width: 1.875"/>
      </g>
     </g>
     <g id="text_5">
      <!-- $\mathdefault{−3}$ -->
      <g style="fill: #555555" transform="translate(23.541364 286.815505)scale(0.165 -0.165)">
       <defs>
        <path id="CMR17-33" d="M 1414 2157 
C 1984 2157 2234 1662 2234 1090 
C 2234 320 1824 25 1453 25 
C 1114 25 563 194 390 693 
C 422 680 454 680 486 680 
C 640 680 755 782 755 948 
C 755 1133 614 1216 486 1216 
C 378 1216 211 1165 211 926 
C 211 335 787 -128 1466 -128 
C 2176 -128 2720 430 2720 1085 
C 2720 1707 2208 2157 1600 2227 
C 2086 2328 2554 2756 2554 3329 
C 2554 3820 2048 4179 1472 4179 
C 890 4179 378 3829 378 3329 
C 378 3110 544 3072 627 3072 
C 762 3072 877 3155 877 3321 
C 877 3486 762 3569 627 3569 
C 602 3569 570 3569 544 3557 
C 730 3959 1235 4032 1459 4032 
C 1683 4032 2106 3925 2106 3320 
C 2106 3143 2080 2828 1862 2550 
C 1670 2304 1453 2304 1242 2284 
C 1210 2284 1062 2269 1037 2269 
C 992 2263 966 2257 966 2208 
C 966 2163 973 2157 1101 2157 
L 1414 2157 
z
" transform="scale(0.015625)"/>
       </defs>
       <use xlink:href="#CMSY10-0" transform="scale(0.996264)"/>
       <use xlink:href="#CMR17-33" transform="translate(77.487468 0)scale(0.996264)"/>
      </g>
     </g>
    </g>
    <g id="ytick_2">
     <g id="line2d_18">
      <path d="M 56.874647 235.807752 
L 328.674647 235.807752 
" clip-path="url(#pf2290e26a2)" style="fill: none; stroke: #ffffff; stroke-width: 1.5; stroke-linecap: square"/>
     </g>
     <g id="line2d_19">
      <g>
       <use xlink:href="#m2beb2524b6" x="56.874647" y="235.807752" style="fill: #555555; stroke: #555555; stroke-width: 1.875"/>
      </g>
     </g>
     <g id="text_6">
      <!-- $\mathdefault{−2}$ -->
      <g style="fill: #555555" transform="translate(23.541364 241.515505)scale(0.165 -0.165)">
       <use xlink:href="#CMSY10-0" transform="scale(0.996264)"/>
       <use xlink:href="#CMR17-32" transform="translate(77.487468 0)scale(0.996264)"/>
      </g>
     </g>
    </g>
    <g id="ytick_3">
     <g id="line2d_20">
      <path d="M 56.874647 190.507752 
L 328.674647 190.507752 
" clip-path="url(#pf2290e26a2)" style="fill: none; stroke: #ffffff; stroke-width: 1.5; stroke-linecap: square"/>
     </g>
     <g id="line2d_21">
      <g>
       <use xlink:href="#m2beb2524b6" x="56.874647" y="190.507752" style="fill: #555555; stroke: #555555; stroke-width: 1.875"/>
      </g>
     </g>
     <g id="text_7">
      <!-- $\mathdefault{−1}$ -->
      <g style="fill: #555555" transform="translate(23.541364 196.215505)scale(0.165 -0.165)">
       <defs>
        <path id="CMR17-31" d="M 1702 4058 
C 1702 4192 1696 4192 1606 4192 
C 1357 3916 979 3827 621 3827 
C 602 3827 570 3827 563 3808 
C 557 3795 557 3782 557 3648 
C 755 3648 1088 3686 1344 3839 
L 1344 461 
C 1344 236 1331 160 781 160 
L 589 160 
L 589 0 
C 896 0 1216 0 1523 0 
C 1830 0 2150 0 2458 0 
L 2458 160 
L 2266 160 
C 1715 160 1702 230 1702 458 
L 1702 4058 
z
" transform="scale(0.015625)"/>
       </defs>
       <use xlink:href="#CMSY10-0" transform="scale(0.996264)"/>
       <use xlink:href="#CMR17-31" transform="translate(77.487468 0)scale(0.996264)"/>
      </g>
     </g>
    </g>
    <g id="ytick_4">
     <g id="line2d_22">
      <path d="M 56.874647 145.207752 
L 328.674647 145.207752 
" clip-path="url(#pf2290e26a2)" style="fill: none; stroke: #ffffff; stroke-width: 1.5; stroke-linecap: square"/>
     </g>
     <g id="line2d_23">
      <g>
       <use xlink:href="#m2beb2524b6" x="56.874647" y="145.207752" style="fill: #555555; stroke: #555555; stroke-width: 1.875"/>
      </g>
     </g>
     <g id="text_8">
      <!-- $\mathdefault{0}$ -->
      <g style="fill: #555555" transform="translate(36.326793 150.915505)scale(0.165 -0.165)">
       <use xlink:href="#CMR17-30" transform="scale(0.996264)"/>
      </g>
     </g>
    </g>
    <g id="ytick_5">
     <g id="line2d_24">
      <path d="M 56.874647 99.907752 
L 328.674647 99.907752 
" clip-path="url(#pf2290e26a2)" style="fill: none; stroke: #ffffff; stroke-width: 1.5; stroke-linecap: square"/>
     </g>
     <g id="line2d_25">
      <g>
       <use xlink:href="#m2beb2524b6" x="56.874647" y="99.907752" style="fill: #555555; stroke: #555555; stroke-width: 1.875"/>
      </g>
     </g>
     <g id="text_9">
      <!-- $\mathdefault{1}$ -->
      <g style="fill: #555555" transform="translate(36.326793 105.615505)scale(0.165 -0.165)">
       <use xlink:href="#CMR17-31" transform="scale(0.996264)"/>
      </g>
     </g>
    </g>
    <g id="ytick_6">
     <g id="line2d_26">
      <path d="M 56.874647 54.607752 
L 328.674647 54.607752 
" clip-path="url(#pf2290e26a2)" style="fill: none; stroke: #ffffff; stroke-width: 1.5; stroke-linecap: square"/>
     </g>
     <g id="line2d_27">
      <g>
       <use xlink:href="#m2beb2524b6" x="56.874647" y="54.607752" style="fill: #555555; stroke: #555555; stroke-width: 1.875"/>
      </g>
     </g>
     <g id="text_10">
      <!-- $\mathdefault{2}$ -->
      <g style="fill: #555555" transform="translate(36.326793 60.315505)scale(0.165 -0.165)">
       <use xlink:href="#CMR17-32" transform="scale(0.996264)"/>
      </g>
     </g>
    </g>
    <g id="ytick_7">
     <g id="line2d_28">
      <path d="M 56.874647 9.307752 
L 328.674647 9.307752 
" clip-path="url(#pf2290e26a2)" style="fill: none; stroke: #ffffff; stroke-width: 1.5; stroke-linecap: square"/>
     </g>
     <g id="line2d_29">
      <g>
       <use xlink:href="#m2beb2524b6" x="56.874647" y="9.307752" style="fill: #555555; stroke: #555555; stroke-width: 1.875"/>
      </g>
     </g>
     <g id="text_11">
      <!-- $\mathdefault{3}$ -->
      <g style="fill: #555555" transform="translate(36.326793 15.015505)scale(0.165 -0.165)">
       <use xlink:href="#CMR17-33" transform="scale(0.996264)"/>
      </g>
     </g>
    </g>
    <g id="ytick_8">
     <g id="line2d_30">
      <defs>
       <path id="m6fedb0c46d" d="M 0 0 
L -6 0 
" style="stroke: #555555; stroke-width: 1.5"/>
      </defs>
      <g>
       <use xlink:href="#m6fedb0c46d" x="56.874647" y="272.047752" style="fill: #555555; stroke: #555555; stroke-width: 1.5"/>
      </g>
     </g>
    </g>
    <g id="ytick_9">
     <g id="line2d_31">
      <g>
       <use xlink:href="#m6fedb0c46d" x="56.874647" y="262.987752" style="fill: #555555; stroke: #555555; stroke-width: 1.5"/>
      </g>
     </g>
    </g>
    <g id="ytick_10">
     <g id="line2d_32">
      <g>
       <use xlink:href="#m6fedb0c46d" x="56.874647" y="253.927752" style="fill: #555555; stroke: #555555; stroke-width: 1.5"/>
      </g>
     </g>
    </g>
    <g id="ytick_11">
     <g id="line2d_33">
      <g>
       <use xlink:href="#m6fedb0c46d" x="56.874647" y="244.867752" style="fill: #555555; stroke: #555555; stroke-width: 1.5"/>
      </g>
     </g>
    </g>
    <g id="ytick_12">
     <g id="line2d_34">
      <g>
       <use xlink:href="#m6fedb0c46d" x="56.874647" y="226.747752" style="fill: #555555; stroke: #555555; stroke-width: 1.5"/>
      </g>
     </g>
    </g>
    <g id="ytick_13">
     <g id="line2d_35">
      <g>
       <use xlink:href="#m6fedb0c46d" x="56.874647" y="217.687752" style="fill: #555555; stroke: #555555; stroke-width: 1.5"/>
      </g>
     </g>
    </g>
    <g id="ytick_14">
     <g id="line2d_36">
      <g>
       <use xlink:href="#m6fedb0c46d" x="56.874647" y="208.627752" style="fill: #555555; stroke: #555555; stroke-width: 1.5"/>
      </g>
     </g>
    </g>
    <g id="ytick_15">
     <g id="line2d_37">
      <g>
       <use xlink:href="#m6fedb0c46d" x="56.874647" y="199.567752" style="fill: #555555; stroke: #555555; stroke-width: 1.5"/>
      </g>
     </g>
    </g>
    <g id="ytick_16">
     <g id="line2d_38">
      <g>
       <use xlink:href="#m6fedb0c46d" x="56.874647" y="181.447752" style="fill: #555555; stroke: #555555; stroke-width: 1.5"/>
      </g>
     </g>
    </g>
    <g id="ytick_17">
     <g id="line2d_39">
      <g>
       <use xlink:href="#m6fedb0c46d" x="56.874647" y="172.387752" style="fill: #555555; stroke: #555555; stroke-width: 1.5"/>
      </g>
     </g>
    </g>
    <g id="ytick_18">
     <g id="line2d_40">
      <g>
       <use xlink:href="#m6fedb0c46d" x="56.874647" y="163.327752" style="fill: #555555; stroke: #555555; stroke-width: 1.5"/>
      </g>
     </g>
    </g>
    <g id="ytick_19">
     <g id="line2d_41">
      <g>
       <use xlink:href="#m6fedb0c46d" x="56.874647" y="154.267752" style="fill: #555555; stroke: #555555; stroke-width: 1.5"/>
      </g>
     </g>
    </g>
    <g id="ytick_20">
     <g id="line2d_42">
      <g>
       <use xlink:href="#m6fedb0c46d" x="56.874647" y="136.147752" style="fill: #555555; stroke: #555555; stroke-width: 1.5"/>
      </g>
     </g>
    </g>
    <g id="ytick_21">
     <g id="line2d_43">
      <g>
       <use xlink:href="#m6fedb0c46d" x="56.874647" y="127.087752" style="fill: #555555; stroke: #555555; stroke-width: 1.5"/>
      </g>
     </g>
    </g>
    <g id="ytick_22">
     <g id="line2d_44">
      <g>
       <use xlink:href="#m6fedb0c46d" x="56.874647" y="118.027752" style="fill: #555555; stroke: #555555; stroke-width: 1.5"/>
      </g>
     </g>
    </g>
    <g id="ytick_23">
     <g id="line2d_45">
      <g>
       <use xlink:href="#m6fedb0c46d" x="56.874647" y="108.967752" style="fill: #555555; stroke: #555555; stroke-width: 1.5"/>
      </g>
     </g>
    </g>
    <g id="ytick_24">
     <g id="line2d_46">
      <g>
       <use xlink:href="#m6fedb0c46d" x="56.874647" y="90.847752" style="fill: #555555; stroke: #555555; stroke-width: 1.5"/>
      </g>
     </g>
    </g>
    <g id="ytick_25">
     <g id="line2d_47">
      <g>
       <use xlink:href="#m6fedb0c46d" x="56.874647" y="81.787752" style="fill: #555555; stroke: #555555; stroke-width: 1.5"/>
      </g>
     </g>
    </g>
    <g id="ytick_26">
     <g id="line2d_48">
      <g>
       <use xlink:href="#m6fedb0c46d" x="56.874647" y="72.727752" style="fill: #555555; stroke: #555555; stroke-width: 1.5"/>
      </g>
     </g>
    </g>
    <g id="ytick_27">
     <g id="line2d_49">
      <g>
       <use xlink:href="#m6fedb0c46d" x="56.874647" y="63.667752" style="fill: #555555; stroke: #555555; stroke-width: 1.5"/>
      </g>
     </g>
    </g>
    <g id="ytick_28">
     <g id="line2d_50">
      <g>
       <use xlink:href="#m6fedb0c46d" x="56.874647" y="45.547752" style="fill: #555555; stroke: #555555; stroke-width: 1.5"/>
      </g>
     </g>
    </g>
    <g id="ytick_29">
     <g id="line2d_51">
      <g>
       <use xlink:href="#m6fedb0c46d" x="56.874647" y="36.487752" style="fill: #555555; stroke: #555555; stroke-width: 1.5"/>
      </g>
     </g>
    </g>
    <g id="ytick_30">
     <g id="line2d_52">
      <g>
       <use xlink:href="#m6fedb0c46d" x="56.874647" y="27.427752" style="fill: #555555; stroke: #555555; stroke-width: 1.5"/>
      </g>
     </g>
    </g>
    <g id="ytick_31">
     <g id="line2d_53">
      <g>
       <use xlink:href="#m6fedb0c46d" x="56.874647" y="18.367752" style="fill: #555555; stroke: #555555; stroke-width: 1.5"/>
      </g>
     </g>
    </g>
    <g id="text_12">
     <!-- $y$ -->
     <g style="fill: #555555" transform="translate(16.0533 149.488529)rotate(-90)scale(0.18 -0.18)">
      <defs>
       <path id="CMMI12-79" d="M 1683 -700 
C 1510 -939 1261 -1152 947 -1152 
C 870 -1152 563 -1152 467 -889 
C 486 -895 518 -895 531 -895 
C 723 -895 851 -729 851 -582 
C 851 -435 730 -384 634 -384 
C 531 -384 307 -458 307 -759 
C 307 -1071 582 -1286 947 -1286 
C 1587 -1286 2234 -700 2413 6 
L 3040 2485 
C 3046 2517 3059 2556 3059 2594 
C 3059 2689 2982 2753 2886 2753 
C 2829 2753 2694 2727 2643 2535 
L 2170 658 
C 2138 543 2138 530 2086 460 
C 1958 281 1747 64 1440 64 
C 1082 64 1050 415 1050 588 
C 1050 952 1222 1443 1395 1903 
C 1466 2088 1504 2178 1504 2305 
C 1504 2574 1312 2816 998 2816 
C 410 2816 173 1890 173 1839 
C 173 1814 198 1782 243 1782 
C 301 1782 307 1807 333 1897 
C 486 2433 730 2689 979 2689 
C 1037 2689 1146 2689 1146 2478 
C 1146 2312 1075 2127 979 1884 
C 666 1047 666 837 666 683 
C 666 77 1101 -64 1421 -64 
C 1606 -64 1837 -6 2061 230 
L 2067 224 
C 1971 -147 1907 -392 1683 -700 
z
" transform="scale(0.015625)"/>
      </defs>
      <use xlink:href="#CMMI12-79" transform="scale(0.996264)"/>
     </g>
    </g>
   </g>
   <g id="PathCollection_1"/>
   <g id="PathCollection_2">
    <path d="M 193.284209 210.131336 
L 210.441647 202.376047 
L 226.749647 194.473578 
L 234.996189 190.054752 
L 240.339647 187.01344 
L 245.775647 183.692511 
L 252.447923 179.182752 
L 256.647647 176.051912 
L 262.083647 171.566353 
L 265.626967 168.310752 
L 268.329143 165.592752 
L 270.812072 162.874752 
L 273.081663 160.156752 
L 275.673647 156.738905 
L 277.100996 154.720752 
L 280.384023 149.284752 
L 283.027738 143.848752 
L 285.075203 138.412752 
L 285.875626 135.694752 
L 287.081774 130.258752 
L 287.499169 127.540752 
L 287.782141 124.822752 
L 287.936659 122.104752 
L 287.966395 119.386752 
L 287.87288 116.668752 
L 287.655598 113.950752 
L 287.312026 111.232752 
L 286.253878 105.796752 
L 285.561974 103.078752 
L 284.725616 100.360752 
L 282.668819 94.924752 
L 280.062401 89.488752 
L 276.864313 84.052752 
L 275.014744 81.334752 
L 272.955647 78.588922 
L 270.237647 75.284993 
L 267.519647 72.320602 
L 264.801647 69.64118 
L 262.083647 67.210116 
L 259.365647 65.004667 
L 255.683314 62.308752 
L 253.929647 61.118086 
L 248.493647 57.919998 
L 243.057647 55.31358 
L 237.621647 53.256783 
L 234.903647 52.420425 
L 229.467647 51.14479 
L 226.749647 50.670373 
L 224.031647 50.326801 
L 221.313647 50.10952 
L 218.595647 50.016004 
L 215.877647 50.04574 
L 213.159647 50.200258 
L 210.441647 50.48323 
L 207.723647 50.900625 
L 202.287647 52.106773 
L 199.569647 52.907196 
L 194.133647 54.954661 
L 190.131991 56.872752 
L 188.697647 57.598376 
L 185.317408 59.590752 
L 183.261647 60.881403 
L 180.543647 62.798632 
L 177.674165 65.026752 
L 174.472935 67.744752 
L 171.563879 70.462752 
L 168.891231 73.180752 
L 166.416047 75.898752 
L 161.930487 81.334752 
L 158.799647 85.534477 
L 156.081647 89.501835 
L 152.591679 94.924752 
L 149.369062 100.360752 
L 143.508821 111.232752 
L 136.911089 124.822752 
L 133.110445 132.976752 
L 120.747647 160.737948 
L 117.328763 168.310752 
L 103.730558 198.208752 
L 96.36855 214.516752 
L 93.567647 220.935026 
L 91.665663 225.388752 
L 88.550303 233.542752 
L 86.843649 238.978752 
L 86.208352 241.696752 
L 85.795932 244.414752 
L 85.779401 247.132752 
L 86.655111 249.850752 
L 88.131647 251.327288 
L 90.849647 252.202999 
L 93.567647 252.186467 
L 96.285647 251.774047 
L 99.003647 251.13875 
L 104.439647 249.432096 
L 109.875647 247.395303 
L 126.183647 240.443614 
L 142.491647 232.999524 
L 173.24769 219.050246 
L 173.24769 219.050246 
" clip-path="url(#pf2290e26a2)" style="fill: none; stroke: #23160e; stroke-width: 2.25"/>
   </g>
   <g id="PathCollection_3">
    <path d="M 124.460224 173.431091 
L 117.990591 187.336752 
L 114.236932 195.490752 
L 109.514608 206.362752 
L 107.157647 212.291068 
L 105.369255 217.234752 
L 104.439647 220.255875 
L 103.794435 222.670752 
L 103.264747 225.388752 
L 103.019358 228.106752 
L 103.284346 230.824752 
L 104.439647 233.210134 
L 104.772266 233.542752 
L 107.157647 234.698054 
L 109.875647 234.963041 
L 112.593647 234.717652 
L 115.311647 234.187964 
L 118.029647 233.466254 
L 123.465647 231.672499 
L 131.619647 228.467792 
L 147.927647 221.275676 
L 194.133647 199.38473 
L 213.159647 189.694264 
L 218.595647 186.733297 
L 224.031647 183.626211 
L 232.185647 178.579279 
L 237.621647 174.889224 
L 242.785092 171.028752 
L 246.130374 168.310752 
L 249.234842 165.592752 
L 252.094931 162.874752 
L 254.721259 160.156752 
L 257.121034 157.438752 
L 259.365647 154.634375 
L 262.083647 150.81764 
L 263.099404 149.284752 
L 264.801647 146.338683 
L 266.122798 143.848752 
L 267.519647 140.692619 
L 268.43917 138.412752 
L 269.348397 135.694752 
L 270.237647 132.240569 
L 270.68121 130.258752 
L 271.127243 127.540752 
L 271.415982 124.822752 
L 271.552648 122.104752 
L 271.539828 119.386752 
L 271.377631 116.668752 
L 271.063766 113.950752 
L 270.237647 109.688722 
L 269.976465 108.514752 
L 269.216908 105.796752 
L 268.281251 103.078752 
L 267.173416 100.360752 
L 265.905152 97.642752 
L 264.4325 94.924752 
L 262.083647 91.198331 
L 260.886638 89.488752 
L 258.751254 86.770752 
L 256.337404 84.052752 
L 253.596781 81.334752 
L 250.452136 78.616752 
L 246.784069 75.898752 
L 245.775647 75.211431 
L 242.380422 73.180752 
L 240.339647 72.077247 
L 236.765917 70.462752 
L 234.903647 69.701148 
L 232.185647 68.765491 
L 228.293677 67.744752 
L 226.749647 67.388846 
L 224.031647 66.918634 
L 221.313647 66.604768 
L 218.595647 66.442571 
L 215.877647 66.429751 
L 213.159647 66.566417 
L 210.441647 66.855157 
L 207.723647 67.30119 
L 205.005647 67.901076 
L 202.287647 68.634002 
L 199.569647 69.543229 
L 196.851647 70.633415 
L 194.133647 71.859601 
L 191.415647 73.299117 
L 187.16476 75.898752 
L 185.979647 76.676494 
L 183.261647 78.680271 
L 180.003453 81.334752 
L 176.997322 84.052752 
L 174.255422 86.770752 
L 171.726828 89.488752 
L 169.376203 92.206752 
L 165.075628 97.642752 
L 161.517647 102.63823 
L 158.799647 106.733837 
L 156.001049 111.232752 
L 152.785402 116.668752 
L 148.288136 124.822752 
L 142.491647 136.050985 
L 138.824045 143.39942 
L 138.824045 143.39942 
" clip-path="url(#pf2290e26a2)" style="fill: none; stroke: #452c1c; stroke-width: 2.25"/>
   </g>
   <g id="PathCollection_4">
    <path d="M 220.267887 177.147756 
L 225.403325 173.746752 
L 229.467647 170.840119 
L 234.903647 166.61333 
L 237.621647 164.300496 
L 240.339647 161.821712 
L 243.057647 159.139982 
L 245.775647 156.202003 
L 248.493647 152.930951 
L 249.229346 152.002752 
L 251.211647 149.211247 
L 252.919586 146.566752 
L 254.45297 143.848752 
L 255.800646 141.130752 
L 256.946602 138.412752 
L 257.926405 135.694752 
L 258.710127 132.976752 
L 259.365647 129.904479 
L 259.75312 127.540752 
L 260.019477 124.822752 
L 260.109676 122.104752 
L 260.02421 119.386752 
L 259.760748 116.668752 
L 259.31621 113.950752 
L 258.702663 111.232752 
L 257.892786 108.514752 
L 256.647647 105.290233 
L 255.651361 103.078752 
L 253.929647 99.933054 
L 252.481084 97.642752 
L 250.478236 94.924752 
L 248.139479 92.206752 
L 245.388201 89.488752 
L 242.09576 86.770752 
L 240.339647 85.501315 
L 237.621647 83.792033 
L 234.903647 82.331039 
L 232.185647 81.109969 
L 229.467647 80.089613 
L 226.749647 79.279736 
L 223.724052 78.616752 
L 221.313647 78.221651 
L 218.595647 77.95819 
L 215.877647 77.872723 
L 213.159647 77.962922 
L 210.441647 78.22928 
L 207.723647 78.672366 
L 205.005647 79.272273 
L 202.287647 80.055994 
L 198.873012 81.334752 
L 196.851647 82.181753 
L 193.213957 84.052752 
L 191.415647 85.062813 
L 188.697647 86.817903 
L 185.051448 89.488752 
L 181.780396 92.206752 
L 178.842417 94.924752 
L 176.160688 97.642752 
L 173.681904 100.360752 
L 171.369069 103.078752 
L 169.196811 105.796752 
L 165.17494 111.232752 
L 161.509087 116.668752 
L 158.073435 122.104752 
L 153.301525 130.258752 
L 148.79471 138.412752 
L 141.7241 152.002752 
L 134.337647 166.928294 
L 131.045858 173.746752 
L 125.982793 184.618752 
L 122.372726 192.772752 
L 120.137514 198.208752 
L 118.029647 203.899368 
L 117.217965 206.362752 
L 116.442702 209.080752 
L 115.813714 211.798752 
L 115.405008 214.516752 
L 115.394748 217.234752 
L 116.251555 219.952752 
L 118.029647 221.730844 
L 120.747647 222.587651 
L 123.465647 222.577392 
L 126.183647 222.168685 
L 128.901647 221.539698 
L 134.083031 219.952752 
L 134.337647 219.871904 
L 139.773647 217.844886 
L 147.927647 214.424715 
L 156.081647 210.766202 
L 169.671647 204.327982 
L 191.415647 193.476677 
L 200.54839 188.65512 
L 200.54839 188.65512 
" clip-path="url(#pf2290e26a2)" style="fill: none; stroke: #69422a; stroke-width: 2.25"/>
   </g>
   <g id="PathCollection_5">
    <path d="M 145.979954 155.242306 
L 140.747412 165.592752 
L 135.558607 176.464752 
L 131.949974 184.618752 
L 128.901647 192.349832 
L 128.740897 192.772752 
L 127.023252 198.208752 
L 126.183647 201.970267 
L 125.914359 203.644752 
L 125.841709 206.362752 
L 126.456929 209.080752 
L 128.901647 211.52547 
L 129.791282 211.798752 
L 131.619647 212.14069 
L 134.337647 212.06804 
L 137.055647 211.634578 
L 139.773647 210.959148 
L 145.209647 209.241502 
L 153.363647 206.032426 
L 161.517647 202.423792 
L 172.389647 197.234987 
L 183.261647 191.735135 
L 194.133647 185.920988 
L 202.287647 181.284378 
L 210.203404 176.464752 
L 215.877647 172.745446 
L 222.084883 168.310752 
L 226.749647 164.624602 
L 229.467647 162.299818 
L 232.185647 159.807715 
L 234.903647 157.104999 
L 237.621647 154.129051 
L 240.339647 150.788439 
L 241.481051 149.284752 
L 243.314948 146.566752 
L 244.944889 143.848752 
L 246.354819 141.130752 
L 247.561292 138.412752 
L 248.552451 135.694752 
L 249.361158 132.976752 
L 249.963315 130.258752 
L 250.365158 127.540752 
L 250.569247 124.822752 
L 250.57473 122.104752 
L 250.377504 119.386752 
L 249.970293 116.668752 
L 249.342635 113.950752 
L 248.480892 111.232752 
L 247.374636 108.514752 
L 245.775647 105.432839 
L 244.293959 103.078752 
L 242.230531 100.360752 
L 239.71364 97.642752 
L 236.582829 94.924752 
L 234.903647 93.688441 
L 232.185647 91.990533 
L 229.467647 90.607764 
L 226.71037 89.488752 
L 224.031647 88.639765 
L 221.313647 88.012106 
L 218.595647 87.604895 
L 215.877647 87.407669 
L 213.159647 87.413152 
L 210.441647 87.617242 
L 207.723647 88.019085 
L 205.005647 88.621241 
L 202.129381 89.488752 
L 199.569647 90.421107 
L 195.742241 92.206752 
L 194.133647 93.03751 
L 191.035005 94.924752 
L 187.193961 97.642752 
L 185.979647 98.566912 
L 183.261647 100.863431 
L 180.543647 103.39228 
L 177.825647 106.156244 
L 173.357797 111.232752 
L 171.170381 113.950752 
L 169.099865 116.668752 
L 165.236953 122.104752 
L 161.510763 127.789964 
L 161.510763 127.789964 
" clip-path="url(#pf2290e26a2)" style="fill: none; stroke: #8c5838; stroke-width: 2.25"/>
   </g>
   <g id="PathCollection_6">
    <path d="M 163.963871 133.652067 
L 160.971005 138.412752 
L 156.081647 146.732274 
L 151.698036 154.720752 
L 147.493945 162.874752 
L 143.577138 171.028752 
L 141.159686 176.464752 
L 138.956305 181.900752 
L 137.055647 187.349168 
L 136.327978 190.054752 
L 135.776834 192.772752 
L 135.506175 195.490752 
L 135.742081 198.208752 
L 137.055647 200.927581 
L 139.773647 202.240319 
L 142.491647 202.476225 
L 145.209647 202.205565 
L 147.927647 201.654421 
L 150.645647 200.923436 
L 156.081647 199.026094 
L 161.517647 196.822713 
L 166.953647 194.405262 
L 175.107647 190.488455 
L 183.261647 186.284363 
L 191.415647 181.806926 
L 199.569647 177.011395 
L 205.005647 173.583032 
L 210.441647 169.911369 
L 215.877647 165.920219 
L 219.685217 162.874752 
L 224.031647 159.020658 
L 226.749647 156.365608 
L 229.467647 153.446405 
L 230.734736 152.002752 
L 232.887728 149.284752 
L 234.903647 146.400956 
L 236.489717 143.848752 
L 237.9409 141.130752 
L 239.171237 138.412752 
L 240.339647 135.100914 
L 240.95309 132.976752 
L 241.510155 130.258752 
L 241.840358 127.540752 
L 241.940602 124.822752 
L 241.803744 122.104752 
L 241.418693 119.386752 
L 240.770392 116.668752 
L 239.831135 113.950752 
L 238.566847 111.232752 
L 236.925947 108.514752 
L 234.8305 105.796752 
L 232.100784 103.078752 
L 229.467647 101.056453 
L 226.749647 99.415552 
L 224.031647 98.151264 
L 221.313647 97.212008 
L 218.595647 96.563706 
L 215.877647 96.178655 
L 213.159647 96.041798 
L 210.441647 96.142041 
L 207.723647 96.472245 
L 205.005647 97.029309 
L 202.287647 97.811873 
L 199.569647 98.811162 
L 196.255915 100.360752 
L 194.133647 101.492682 
L 191.415647 103.181725 
L 187.808057 105.796752 
L 184.535994 108.514752 
L 181.616792 111.232752 
L 181.354066 111.48963 
L 181.354066 111.48963 
" clip-path="url(#pf2290e26a2)" style="fill: none; stroke: #af6f47; stroke-width: 2.25"/>
   </g>
   <g id="PathCollection_7">
    <path d="M 184.518552 116.754471 
L 183.261647 117.908217 
L 181.785919 119.386752 
L 180.543647 120.646607 
L 179.211158 122.104752 
L 177.825647 123.641711 
L 176.8288 124.822752 
L 175.107647 126.892471 
L 174.598196 127.540752 
L 172.495266 130.258752 
L 172.389647 130.397118 
L 170.514437 132.976752 
L 169.671647 134.154842 
L 168.61456 135.694752 
L 166.953647 138.154989 
L 166.785492 138.412752 
L 165.041391 141.130752 
L 164.235647 142.406567 
L 163.350837 143.848752 
L 161.712036 146.566752 
L 161.517647 146.895216 
L 160.137579 149.284752 
L 158.799647 151.638454 
L 158.596443 152.002752 
L 157.119172 154.720752 
L 156.081647 156.662524 
L 155.673206 157.438752 
L 154.287366 160.156752 
L 153.363647 162.008472 
L 152.936742 162.874752 
L 151.65374 165.592752 
L 150.645647 167.78687 
L 150.40718 168.310752 
L 149.255232 171.028752 
L 148.148198 173.746752 
L 147.927647 174.353499 
L 147.166378 176.464752 
L 146.300734 179.182752 
L 145.568261 181.900752 
L 145.209647 183.851546 
L 145.069474 184.618752 
L 144.960062 187.336752 
L 145.209647 188.804675 
L 145.568278 190.054752 
L 147.927647 192.414121 
L 149.177724 192.772752 
L 150.645647 193.022338 
L 153.363647 192.912926 
L 154.130853 192.772752 
L 156.081647 192.414139 
L 158.799647 191.681665 
L 161.517647 190.816022 
L 163.6289 190.054752 
L 164.235647 189.834202 
L 166.953647 188.727167 
L 169.671647 187.57522 
L 170.19553 187.336752 
L 172.389647 186.328659 
L 175.107647 185.045658 
L 175.973927 184.618752 
L 177.825647 183.695033 
L 180.543647 182.309193 
L 181.319875 181.900752 
L 183.261647 180.863227 
L 185.979647 179.385956 
L 186.343945 179.182752 
L 188.697647 177.84482 
L 191.087184 176.464752 
L 191.415647 176.270364 
L 194.133647 174.631563 
L 195.575832 173.746752 
L 196.851647 172.941008 
L 199.569647 171.196908 
L 199.827411 171.028752 
L 202.287647 169.36784 
L 203.827557 168.310752 
L 205.005647 167.467962 
L 207.585282 165.592752 
L 207.723647 165.487134 
L 210.441647 163.384203 
L 211.089929 162.874752 
L 213.159647 161.1536 
L 214.340688 160.156752 
L 215.877647 158.771241 
L 217.335793 157.438752 
L 218.595647 156.196481 
L 220.074182 154.720752 
L 221.313647 153.370465 
L 222.556114 152.002752 
L 224.031647 150.206667 
L 224.78276 149.284752 
L 226.749647 146.574961 
L 226.755571 146.566752 
L 228.474913 143.848752 
L 229.467647 142.015174 
L 229.945666 141.130752 
L 231.163723 138.412752 
L 232.13488 135.694752 
L 232.185647 135.500584 
L 232.847786 132.976752 
L 233.301731 130.258752 
L 233.48839 127.540752 
L 233.393408 124.822752 
L 232.996862 122.104752 
L 232.273136 119.386752 
L 232.185647 119.15765 
L 231.138311 116.668752 
L 229.56556 113.950752 
L 229.467647 113.813964 
L 227.333268 111.232752 
L 226.749647 110.649132 
L 224.168435 108.514752 
L 224.031647 108.41684 
L 221.313647 106.844088 
L 218.824749 105.796752 
L 218.595647 105.709263 
L 215.877647 104.985538 
L 213.159647 104.588992 
L 210.441647 104.49401 
L 207.723647 104.680668 
L 205.005647 105.134613 
L 204.171949 105.353338 
" clip-path="url(#pf2290e26a2)" style="fill: none; stroke: #d28555; stroke-width: 2.25"/>
   </g>
   <g id="PathCollection_8">
    <path d="M 200.056645 164.562687 
L 202.287647 162.927357 
L 202.357858 162.874752 
L 205.005647 160.770841 
L 205.767128 160.156752 
L 207.723647 158.468211 
L 208.899162 157.438752 
L 210.441647 155.978333 
L 211.751077 154.720752 
L 213.159647 153.241164 
L 214.322641 152.002752 
L 215.877647 150.167296 
L 216.615924 149.284752 
L 218.595647 146.619839 
L 218.634641 146.566752 
L 220.354647 143.848752 
L 221.313647 142.05988 
L 221.806589 141.130752 
L 222.96096 138.412752 
L 223.836194 135.694752 
L 224.031647 134.746681 
L 224.392547 132.976752 
L 224.620211 130.258752 
L 224.496516 127.540752 
L 224.031647 125.080769 
L 223.975882 124.822752 
L 222.920561 122.104752 
L 221.313647 119.443438 
L 221.271452 119.386752 
L 218.595647 116.710947 
L 218.538962 116.668752 
L 215.877647 115.061839 
L 213.159647 114.006517 
L 212.90163 113.950752 
L 210.441647 113.485883 
L 207.723647 113.362188 
L 205.005647 113.589853 
L 203.235719 113.950752 
L 202.287647 114.146205 
L 199.569647 115.021439 
L 196.851647 116.175811 
L 195.92252 116.668752 
L 194.133647 117.627752 
L 191.415647 119.347758 
L 191.36256 119.386752 
L 188.697647 121.366476 
L 187.815104 122.104752 
L 185.979647 123.659758 
L 184.741235 124.822752 
L 183.261647 126.231322 
L 182.004066 127.540752 
L 180.543647 129.083238 
L 179.514188 130.258752 
L 177.825647 132.215271 
L 177.211559 132.976752 
L 175.107647 135.624541 
L 175.055043 135.694752 
L 173.062742 138.412752 
L 172.389647 139.345695 
L 171.166698 141.130752 
L 169.671647 143.34587 
L 169.346978 143.848752 
L 167.638673 146.566752 
L 166.953647 147.679869 
L 166.003756 149.284752 
L 164.426426 152.002752 
L 164.235647 152.345848 
L 162.959569 154.720752 
L 161.520726 157.438752 
L 161.517647 157.445002 
L 160.221046 160.156752 
L 158.953067 162.874752 
L 158.799647 163.239831 
L 157.83649 165.592752 
L 156.812935 168.310752 
L 156.081647 170.519306 
L 155.916744 171.028752 
L 155.2886 173.746752 
L 154.952164 176.464752 
L 155.145859 179.182752 
L 156.081647 181.251636 
L 156.730763 181.900752 
L 158.799647 182.83654 
L 161.517647 183.030235 
L 164.235647 182.693799 
L 166.953647 182.065656 
L 167.463093 181.900752 
L 169.671647 181.169464 
L 172.389647 180.145909 
L 174.742569 179.182752 
L 175.107647 179.029333 
L 177.825647 177.761353 
L 180.407999 176.526623 
" clip-path="url(#pf2290e26a2)" style="fill: none; stroke: #f69b63; stroke-width: 2.25"/>
   </g>
   <g id="PathCollection_9">
    <path d="M 208.447852 147.997934 
L 209.507371 146.566752 
L 210.441647 145.087436 
L 211.203114 143.848752 
L 212.540393 141.130752 
L 213.159647 139.414959 
L 213.509949 138.412752 
L 214.039498 135.694752 
L 214.106871 132.976752 
L 213.598454 130.258752 
L 213.159647 129.235249 
L 212.158828 127.540752 
L 210.441647 125.823571 
L 208.747151 124.822752 
L 207.723647 124.383945 
L 205.005647 123.875529 
L 202.287647 123.942901 
L 199.569647 124.47245 
L 198.567441 124.822752 
L 196.851647 125.442007 
L 194.133647 126.779285 
L 192.894963 127.540752 
L 191.415647 128.475028 
L 189.006222 130.258752 
L 188.697647 130.493608 
L 185.979647 132.86666 
L 185.867436 132.976752 
L 183.261647 135.590156 
L 183.166827 135.694752 
L 180.770879 138.412752 
L 180.543647 138.678241 
L 178.616186 141.130752 
L 177.825647 142.162492 
L 176.625893 143.848752 
L 175.107647 146.0344 
L 174.760934 146.566752 
L 173.086799 149.284752 
L 172.389647 150.471714 
L 171.541074 152.002752 
L 170.120411 154.720752 
L 169.671647 155.677899 
L 168.888211 157.438752 
L 167.833445 160.156752 
L 166.953647 162.858114 
L 166.94848 162.874752 
L 166.516851 165.592752 
L 166.650495 168.310752 
L 166.953647 169.066109 
L 168.916291 171.028752 
L 169.671647 171.331905 
L 172.389647 171.465549 
L 175.107647 171.03392 
L 175.124285 171.028752 
L 177.825647 170.148954 
L 180.543647 169.094189 
L 182.304501 168.310752 
L 183.261647 167.861988 
L 185.979647 166.441325 
L 187.510686 165.592752 
L 188.697647 164.895601 
L 189.621221 164.326731 
" clip-path="url(#pf2290e26a2)" style="fill: none; stroke: #ffb171; stroke-width: 2.25"/>
   </g>
   <g id="PathCollection_10"/>
   <g id="patch_3">
    <path d="M 56.874647 281.107752 
L 56.874647 9.307752 
" style="fill: none; stroke: #ffffff; stroke-width: 1.875; stroke-linejoin: miter; stroke-linecap: square"/>
   </g>
   <g id="patch_4">
    <path d="M 56.874647 281.107752 
L 328.674647 281.107752 
" style="fill: none; stroke: #ffffff; stroke-width: 1.875; stroke-linejoin: miter; stroke-linecap: square"/>
   </g>
   <g id="text_13">
    <!-- $\mathdefault{0.0219}$ -->
    <g transform="translate(168.005999 220.916578)rotate(-12.234883)scale(0.12 -0.12)">
     <defs>
      <path id="CMMI12-3a" d="M 1178 307 
C 1178 492 1024 619 870 619 
C 685 619 557 466 557 313 
C 557 128 710 0 864 0 
C 1050 0 1178 153 1178 307 
z
" transform="scale(0.015625)"/>
      <path id="CMR17-39" d="M 2253 1864 
C 2253 464 1670 31 1190 31 
C 1043 31 685 31 538 294 
C 704 268 826 357 826 518 
C 826 692 685 749 595 749 
C 538 749 365 723 365 506 
C 365 71 742 -128 1203 -128 
C 1939 -128 2688 674 2688 2073 
C 2688 3817 1971 4179 1485 4179 
C 851 4179 243 3628 243 2778 
C 243 1991 762 1408 1414 1408 
C 1952 1408 2189 1903 2253 2112 
L 2253 1864 
z
M 1427 1510 
C 1254 1510 1011 1542 813 1922 
C 678 2169 678 2461 678 2771 
C 678 3146 678 3405 858 3684 
C 947 3817 1114 4032 1485 4032 
C 2240 4032 2240 2885 2240 2632 
C 2240 2182 2035 1510 1427 1510 
z
" transform="scale(0.015625)"/>
     </defs>
     <use xlink:href="#CMR17-30" transform="scale(0.996264)"/>
     <use xlink:href="#CMMI12-3a" transform="translate(45.690477 0)scale(0.996264)"/>
     <use xlink:href="#CMR17-30" transform="translate(72.787654 0)scale(0.996264)"/>
     <use xlink:href="#CMR17-32" transform="translate(118.478131 0)scale(0.996264)"/>
     <use xlink:href="#CMR17-31" transform="translate(164.168608 0)scale(0.996264)"/>
     <use xlink:href="#CMR17-39" transform="translate(209.859086 0)scale(0.996264)"/>
    </g>
   </g>
   <g id="text_14">
    <!-- $\mathdefault{0.0438}$ -->
    <g transform="translate(122.367774 172.068934)rotate(-45.550065)scale(0.12 -0.12)">
     <defs>
      <path id="CMR17-34" d="M 2150 4122 
C 2150 4256 2144 4256 2029 4256 
L 128 1254 
L 128 1088 
L 1779 1088 
L 1779 457 
C 1779 224 1766 160 1318 160 
L 1197 160 
L 1197 0 
C 1402 0 1747 0 1965 0 
C 2182 0 2528 0 2733 0 
L 2733 160 
L 2611 160 
C 2163 160 2150 224 2150 457 
L 2150 1088 
L 2803 1088 
L 2803 1254 
L 2150 1254 
L 2150 4122 
z
M 1798 3703 
L 1798 1254 
L 256 1254 
L 1798 3703 
z
" transform="scale(0.015625)"/>
      <path id="CMR17-38" d="M 1741 2264 
C 2144 2467 2554 2773 2554 3263 
C 2554 3841 1990 4179 1472 4179 
C 890 4179 378 3759 378 3180 
C 378 3021 416 2747 666 2505 
C 730 2442 998 2251 1171 2130 
C 883 1983 211 1634 211 934 
C 211 279 838 -128 1459 -128 
C 2144 -128 2720 362 2720 1010 
C 2720 1590 2330 1857 2074 2029 
L 1741 2264 
z
M 902 2822 
C 851 2854 595 3051 595 3351 
C 595 3739 998 4032 1459 4032 
C 1965 4032 2336 3676 2336 3262 
C 2336 2669 1670 2331 1638 2331 
C 1632 2331 1626 2331 1574 2370 
L 902 2822 
z
M 2080 1519 
C 2176 1449 2483 1240 2483 851 
C 2483 381 2010 25 1472 25 
C 890 25 448 438 448 940 
C 448 1443 838 1862 1280 2060 
L 2080 1519 
z
" transform="scale(0.015625)"/>
     </defs>
     <use xlink:href="#CMR17-30" transform="scale(0.996264)"/>
     <use xlink:href="#CMMI12-3a" transform="translate(45.690477 0)scale(0.996264)"/>
     <use xlink:href="#CMR17-30" transform="translate(72.787654 0)scale(0.996264)"/>
     <use xlink:href="#CMR17-34" transform="translate(118.478131 0)scale(0.996264)"/>
     <use xlink:href="#CMR17-33" transform="translate(164.168608 0)scale(0.996264)"/>
     <use xlink:href="#CMR17-38" transform="translate(209.859086 0)scale(0.996264)"/>
    </g>
   </g>
   <g id="text_15">
    <!-- $\mathdefault{0.0657}$ -->
    <g transform="translate(195.611572 190.445512)rotate(-15.80134)scale(0.12 -0.12)">
     <defs>
      <path id="CMR17-36" d="M 678 2176 
C 678 3690 1395 4032 1811 4032 
C 1946 4032 2272 4009 2400 3776 
C 2298 3776 2106 3776 2106 3553 
C 2106 3381 2246 3323 2336 3323 
C 2394 3323 2566 3348 2566 3560 
C 2566 3954 2246 4179 1805 4179 
C 1043 4179 243 3390 243 1984 
C 243 253 966 -128 1478 -128 
C 2099 -128 2688 427 2688 1283 
C 2688 2081 2170 2662 1517 2662 
C 1126 2662 838 2407 678 1960 
L 678 2176 
z
M 1478 25 
C 691 25 691 1200 691 1436 
C 691 1896 909 2560 1504 2560 
C 1613 2560 1926 2560 2138 2120 
C 2253 1870 2253 1609 2253 1289 
C 2253 944 2253 690 2118 434 
C 1978 171 1773 25 1478 25 
z
" transform="scale(0.015625)"/>
      <path id="CMR17-35" d="M 730 3692 
C 794 3666 1056 3584 1325 3584 
C 1920 3584 2246 3911 2432 4100 
C 2432 4157 2432 4192 2394 4192 
C 2387 4192 2374 4192 2323 4163 
C 2099 4058 1837 3973 1517 3973 
C 1325 3973 1037 3999 723 4139 
C 653 4171 640 4171 634 4171 
C 602 4171 595 4164 595 4037 
L 595 2203 
C 595 2089 595 2057 659 2057 
C 691 2057 704 2070 736 2114 
C 941 2401 1222 2522 1542 2522 
C 1766 2522 2246 2382 2246 1289 
C 2246 1085 2246 715 2054 421 
C 1894 159 1645 25 1370 25 
C 947 25 518 320 403 814 
C 429 807 480 795 506 795 
C 589 795 749 840 749 1038 
C 749 1210 627 1280 506 1280 
C 358 1280 262 1190 262 1011 
C 262 454 704 -128 1382 -128 
C 2042 -128 2669 440 2669 1264 
C 2669 2030 2170 2624 1549 2624 
C 1222 2624 947 2503 730 2274 
L 730 3692 
z
" transform="scale(0.015625)"/>
      <path id="CMR17-37" d="M 2886 3941 
L 2886 4081 
L 1382 4081 
C 634 4081 621 4165 595 4288 
L 480 4288 
L 294 3094 
L 410 3094 
C 429 3215 474 3540 550 3661 
C 589 3712 1062 3712 1171 3712 
L 2579 3712 
L 1869 2661 
C 1395 1954 1069 999 1069 165 
C 1069 89 1069 -128 1299 -128 
C 1530 -128 1530 89 1530 171 
L 1530 465 
C 1530 1508 1709 2196 2003 2636 
L 2886 3941 
z
" transform="scale(0.015625)"/>
     </defs>
     <use xlink:href="#CMR17-30" transform="scale(0.996264)"/>
     <use xlink:href="#CMMI12-3a" transform="translate(45.690477 0)scale(0.996264)"/>
     <use xlink:href="#CMR17-30" transform="translate(72.787654 0)scale(0.996264)"/>
     <use xlink:href="#CMR17-36" transform="translate(118.478131 0)scale(0.996264)"/>
     <use xlink:href="#CMR17-35" transform="translate(164.168608 0)scale(0.996264)"/>
     <use xlink:href="#CMR17-37" transform="translate(209.859086 0)scale(0.996264)"/>
    </g>
   </g>
   <g id="text_16">
    <!-- $\mathdefault{0.0876}$ -->
    <g transform="translate(143.23328 154.0196)rotate(-40.815686)scale(0.12 -0.12)">
     <use xlink:href="#CMR17-30" transform="scale(0.996264)"/>
     <use xlink:href="#CMMI12-3a" transform="translate(45.690477 0)scale(0.996264)"/>
     <use xlink:href="#CMR17-30" transform="translate(72.787654 0)scale(0.996264)"/>
     <use xlink:href="#CMR17-38" transform="translate(118.478131 0)scale(0.996264)"/>
     <use xlink:href="#CMR17-37" transform="translate(164.168608 0)scale(0.996264)"/>
     <use xlink:href="#CMR17-36" transform="translate(209.859086 0)scale(0.996264)"/>
    </g>
   </g>
   <g id="text_17">
    <!-- $\mathdefault{0.1095}$ -->
    <g transform="translate(160.170915 132.809747)rotate(-31.924284)scale(0.12 -0.12)">
     <use xlink:href="#CMR17-30" transform="scale(0.996264)"/>
     <use xlink:href="#CMMI12-3a" transform="translate(45.690477 0)scale(0.996264)"/>
     <use xlink:href="#CMR17-31" transform="translate(72.787654 0)scale(0.996264)"/>
     <use xlink:href="#CMR17-30" transform="translate(118.478131 0)scale(0.996264)"/>
     <use xlink:href="#CMR17-39" transform="translate(164.168608 0)scale(0.996264)"/>
     <use xlink:href="#CMR17-35" transform="translate(209.859086 0)scale(0.996264)"/>
    </g>
   </g>
   <g id="text_18">
    <!-- $\mathdefault{0.1314}$ -->
    <g transform="translate(179.31127 116.82613)rotate(-15.861672)scale(0.12 -0.12)">
     <use xlink:href="#CMR17-30" transform="scale(0.996264)"/>
     <use xlink:href="#CMMI12-3a" transform="translate(45.690477 0)scale(0.996264)"/>
     <use xlink:href="#CMR17-31" transform="translate(72.787654 0)scale(0.996264)"/>
     <use xlink:href="#CMR17-33" transform="translate(118.478131 0)scale(0.996264)"/>
     <use xlink:href="#CMR17-31" transform="translate(164.168608 0)scale(0.996264)"/>
     <use xlink:href="#CMR17-34" transform="translate(209.859086 0)scale(0.996264)"/>
    </g>
   </g>
   <g id="text_19">
    <!-- $\mathdefault{0.1533}$ -->
    <g transform="translate(175.556659 178.500344)rotate(-16.454416)scale(0.12 -0.12)">
     <use xlink:href="#CMR17-30" transform="scale(0.996264)"/>
     <use xlink:href="#CMMI12-3a" transform="translate(45.690477 0)scale(0.996264)"/>
     <use xlink:href="#CMR17-31" transform="translate(72.787654 0)scale(0.996264)"/>
     <use xlink:href="#CMR17-35" transform="translate(118.478131 0)scale(0.996264)"/>
     <use xlink:href="#CMR17-33" transform="translate(164.168608 0)scale(0.996264)"/>
     <use xlink:href="#CMR17-33" transform="translate(209.859086 0)scale(0.996264)"/>
    </g>
   </g>
   <g id="text_20">
    <!-- $\mathdefault{0.1752}$ -->
    <g transform="translate(185.438736 166.439611)rotate(-22.573484)scale(0.12 -0.12)">
     <use xlink:href="#CMR17-30" transform="scale(0.996264)"/>
     <use xlink:href="#CMMI12-3a" transform="translate(45.690477 0)scale(0.996264)"/>
     <use xlink:href="#CMR17-31" transform="translate(72.787654 0)scale(0.996264)"/>
     <use xlink:href="#CMR17-37" transform="translate(118.478131 0)scale(0.996264)"/>
     <use xlink:href="#CMR17-35" transform="translate(164.168608 0)scale(0.996264)"/>
     <use xlink:href="#CMR17-32" transform="translate(209.859086 0)scale(0.996264)"/>
    </g>
   </g>
  </g>
 </g>
 <defs>
  <clipPath id="pf2290e26a2">
   <rect x="56.874647" y="9.307752" width="271.8" height="271.8"/>
  </clipPath>
 </defs>
</svg>
