<?xml version="1.0" encoding="utf-8" standalone="no"?>
<!DOCTYPE svg PUBLIC "-//W3C//DTD SVG 1.1//EN"
  "http://www.w3.org/Graphics/SVG/1.1/DTD/svg11.dtd">
<svg xmlns:xlink="http://www.w3.org/1999/xlink" width="347.571464pt" height="333.817556pt" viewBox="0 0 347.571464 333.817556" xmlns="http://www.w3.org/2000/svg" version="1.1">
 <metadata>
  <rdf:RDF xmlns:dc="http://purl.org/dc/elements/1.1/" xmlns:cc="http://creativecommons.org/ns#" xmlns:rdf="http://www.w3.org/1999/02/22-rdf-syntax-ns#">
   <cc:Work>
    <dc:type rdf:resource="http://purl.org/dc/dcmitype/StillImage"/>
    <dc:date>2022-08-18T01:10:32.292370</dc:date>
    <dc:format>image/svg+xml</dc:format>
    <dc:creator>
     <cc:Agent>
      <dc:title>Matplotlib v3.5.1, https://matplotlib.org/</dc:title>
     </cc:Agent>
    </dc:creator>
   </cc:Work>
  </rdf:RDF>
 </metadata>
 <defs>
  <style type="text/css">*{stroke-linejoin: round; stroke-linecap: butt}</style>
 </defs>
 <g id="figure_1">
  <g id="patch_1">
   <path d="M 0 333.817556 
L 347.571464 333.817556 
L 347.571464 0 
L 0 0 
z
" style="fill: #ffffff"/>
  </g>
  <g id="patch_2">
   <path d="M 3.6 324.72 
L 324.72 324.72 
L 324.72 3.6 
L 3.6 3.6 
z
" style="fill: #ffffff"/>
  </g>
  <g id="pane3d_1">
   <g id="patch_3">
    <path d="M 34.938629 258.643868 
L 111.762766 160.642883 
L 109.336047 32.086677 
L 28.641521 121.554732 
" style="fill: #f2f2f2; opacity: 0.5; stroke: #f2f2f2; stroke-width: 1.5; stroke-linejoin: miter"/>
   </g>
  </g>
  <g id="pane3d_2">
   <g id="patch_4">
    <path d="M 111.762766 160.642883 
L 294.245607 194.225295 
L 299.812026 62.660731 
L 109.336047 32.086677 
" style="fill: #e6e6e6; opacity: 0.5; stroke: #e6e6e6; stroke-width: 1.5; stroke-linejoin: miter"/>
   </g>
  </g>
  <g id="pane3d_3">
   <g id="patch_5">
    <path d="M 34.938629 258.643868 
L 233.076486 299.2424 
L 294.245607 194.225295 
L 111.762766 160.642883 
" style="fill: #ececec; opacity: 0.5; stroke: #ececec; stroke-width: 1.5; stroke-linejoin: miter"/>
   </g>
  </g>
  <g id="axis3d_1">
   <g id="line2d_1">
    <path d="M 34.938629 258.643868 
L 233.076486 299.2424 
" style="fill: none; stroke: #ffffff; stroke-width: 1.875; stroke-linecap: square"/>
   </g>
   <g id="text_1">
    <!-- $u$ -->
    <g style="fill: #555555" transform="translate(115.988605 319.807328)scale(0.18 -0.18)">
     <defs>
      <path id="CMMI12-75" d="M 2182 370 
C 2266 13 2573 -64 2726 -64 
C 2931 -64 3085 70 3187 287 
C 3296 517 3379 894 3379 913 
C 3379 945 3354 971 3315 971 
C 3258 971 3251 939 3226 843 
C 3110 402 2995 64 2739 64 
C 2547 64 2547 275 2547 358 
C 2547 505 2566 568 2630 837 
C 2675 1009 2720 1181 2758 1360 
L 3021 2401 
C 3066 2561 3066 2574 3066 2593 
C 3066 2689 2989 2753 2893 2753 
C 2707 2753 2662 2593 2624 2433 
C 2560 2184 2214 811 2170 588 
C 2163 588 1914 64 1446 64 
C 1114 64 1050 351 1050 588 
C 1050 952 1229 1462 1395 1890 
C 1472 2095 1504 2178 1504 2305 
C 1504 2580 1306 2816 998 2816 
C 410 2816 173 1890 173 1839 
C 173 1814 198 1782 243 1782 
C 301 1782 307 1807 333 1896 
C 486 2441 736 2682 979 2682 
C 1043 2682 1146 2682 1146 2478 
C 1146 2312 1075 2127 979 1884 
C 698 1124 666 881 666 690 
C 666 38 1158 -64 1421 -64 
C 1830 -64 2054 217 2182 370 
z
" transform="scale(0.015625)"/>
     </defs>
     <use xlink:href="#CMMI12-75" transform="scale(0.996264)"/>
    </g>
   </g>
   <g id="Line3DCollection_1">
    <path d="M 38.763177 259.42752 
L 115.296471 161.293192 
L 113.019355 32.6779 
" style="fill: none; stroke: #ffffff; stroke-width: 1.5"/>
    <path d="M 75.757754 267.007724 
L 149.454652 167.57934 
L 148.634198 38.394579 
" style="fill: none; stroke: #ffffff; stroke-width: 1.5"/>
    <path d="M 113.26491 274.692957 
L 184.043423 173.94473 
L 184.717463 44.186447 
" style="fill: none; stroke: #ffffff; stroke-width: 1.5"/>
    <path d="M 151.295369 282.485414 
L 219.070979 180.390869 
L 221.278452 50.054996 
" style="fill: none; stroke: #ffffff; stroke-width: 1.5"/>
    <path d="M 189.860163 290.387357 
L 254.545724 186.919305 
L 258.326717 56.00176 
" style="fill: none; stroke: #ffffff; stroke-width: 1.5"/>
    <path d="M 228.97063 298.401109 
L 290.476274 193.531623 
L 295.872063 62.028312 
" style="fill: none; stroke: #ffffff; stroke-width: 1.5"/>
    <path d="M 47.964343 261.312842 
L 123.796089 162.857381 
L 121.879651 34.100101 
" style="fill: none; stroke: #ffffff; stroke-width: 1.5"/>
    <path d="M 57.197052 263.204629 
L 132.322242 164.426454 
L 130.768796 35.526933 
" style="fill: none; stroke: #ffffff; stroke-width: 1.5"/>
    <path d="M 66.461468 265.102911 
L 140.875054 166.000432 
L 139.686931 36.958418 
" style="fill: none; stroke: #ffffff; stroke-width: 1.5"/>
    <path d="M 85.086075 268.919101 
L 158.06116 169.1632 
L 157.610741 39.83544 
" style="fill: none; stroke: #ffffff; stroke-width: 1.5"/>
    <path d="M 94.446596 270.837076 
L 166.694706 170.752036 
L 166.616702 41.281022 
" style="fill: none; stroke: #ffffff; stroke-width: 1.5"/>
    <path d="M 103.839485 272.761683 
L 175.355418 172.345871 
L 175.652228 42.73135 
" style="fill: none; stroke: #ffffff; stroke-width: 1.5"/>
    <path d="M 122.723039 276.630932 
L 192.758851 175.548634 
L 193.812555 45.646336 
" style="fill: none; stroke: #ffffff; stroke-width: 1.5"/>
    <path d="M 132.214044 278.575643 
L 201.501833 177.15761 
L 202.937651 47.111042 
" style="fill: none; stroke: #ffffff; stroke-width: 1.5"/>
    <path d="M 141.738097 280.527125 
L 210.272498 178.77168 
L 212.0929 48.580587 
" style="fill: none; stroke: #ffffff; stroke-width: 1.5"/>
    <path d="M 160.886036 284.450546 
L 227.897409 182.015201 
L 230.494458 51.534294 
" style="fill: none; stroke: #ffffff; stroke-width: 1.5"/>
    <path d="M 170.510273 286.422556 
L 236.75192 183.644702 
L 239.741068 53.018504 
" style="fill: none; stroke: #ffffff; stroke-width: 1.5"/>
    <path d="M 180.168256 288.401481 
L 245.634646 185.279395 
L 249.018437 54.507651 
" style="fill: none; stroke: #ffffff; stroke-width: 1.5"/>
    <path d="M 199.586172 292.380221 
L 263.485288 188.564457 
L 267.666063 57.500855 
" style="fill: none; stroke: #ffffff; stroke-width: 1.5"/>
    <path d="M 209.346466 294.380109 
L 272.453476 190.214878 
L 277.036631 59.004962 
" style="fill: none; stroke: #ffffff; stroke-width: 1.5"/>
    <path d="M 219.141224 296.387059 
L 281.450425 191.870591 
L 286.438578 60.514106 
" style="fill: none; stroke: #ffffff; stroke-width: 1.5"/>
   </g>
   <g id="xtick_1">
    <g id="line2d_2">
     <path d="M 168.499459 159.820541 
" clip-path="url(#p3fe30d7f33)" style="fill: none; stroke: #ffffff; stroke-width: 1.5; stroke-linecap: square"/>
    </g>
    <g id="line2d_3">
     <path d="M 39.434785 258.566354 
L 37.416803 261.153898 
" style="fill: none; stroke: #555555; stroke-width: 1.875; stroke-linecap: square"/>
    </g>
    <g id="text_2">
     <!-- $\mathdefault{0.0}$ -->
     <g style="fill: #555555" transform="translate(23.085256 287.315901)scale(0.165 -0.165)">
      <defs>
       <path id="CMR17-30" d="M 2688 2025 
C 2688 2416 2682 3080 2413 3591 
C 2176 4039 1798 4198 1466 4198 
C 1158 4198 768 4058 525 3597 
C 269 3118 243 2524 243 2025 
C 243 1661 250 1106 448 619 
C 723 -39 1216 -128 1466 -128 
C 1760 -128 2208 -7 2470 600 
C 2662 1042 2688 1559 2688 2025 
z
M 1466 -26 
C 1056 -26 813 325 723 812 
C 653 1188 653 1738 653 2096 
C 653 2588 653 2997 736 3387 
C 858 3929 1216 4096 1466 4096 
C 1728 4096 2067 3923 2189 3400 
C 2272 3036 2278 2607 2278 2096 
C 2278 1680 2278 1169 2202 792 
C 2067 95 1690 -26 1466 -26 
z
" transform="scale(0.015625)"/>
       <path id="CMMI12-3a" d="M 1178 307 
C 1178 492 1024 619 870 619 
C 685 619 557 466 557 313 
C 557 128 710 0 864 0 
C 1050 0 1178 153 1178 307 
z
" transform="scale(0.015625)"/>
      </defs>
      <use xlink:href="#CMR17-30" transform="scale(0.996264)"/>
      <use xlink:href="#CMMI12-3a" transform="translate(45.690477 0)scale(0.996264)"/>
      <use xlink:href="#CMR17-30" transform="translate(72.787654 0)scale(0.996264)"/>
     </g>
    </g>
   </g>
   <g id="xtick_2">
    <g id="line2d_4">
     <path d="M 168.499459 159.820541 
" clip-path="url(#p3fe30d7f33)" style="fill: none; stroke: #ffffff; stroke-width: 1.5; stroke-linecap: square"/>
    </g>
    <g id="line2d_5">
     <path d="M 76.404865 266.134673 
L 74.46047 268.757959 
" style="fill: none; stroke: #555555; stroke-width: 1.875; stroke-linecap: square"/>
    </g>
    <g id="text_3">
     <!-- $\mathdefault{0.2}$ -->
     <g style="fill: #555555" transform="translate(60.178112 295.037626)scale(0.165 -0.165)">
      <defs>
       <path id="CMR17-32" d="M 2669 989 
L 2554 989 
C 2490 536 2438 459 2413 420 
C 2381 369 1920 369 1830 369 
L 602 369 
C 832 619 1280 1072 1824 1597 
C 2214 1967 2669 2402 2669 3035 
C 2669 3790 2067 4224 1395 4224 
C 691 4224 262 3604 262 3030 
C 262 2780 448 2748 525 2748 
C 589 2748 781 2787 781 3010 
C 781 3207 614 3264 525 3264 
C 486 3264 448 3258 422 3245 
C 544 3790 915 4058 1306 4058 
C 1862 4058 2227 3617 2227 3035 
C 2227 2479 1901 2000 1536 1584 
L 262 146 
L 262 0 
L 2515 0 
L 2669 989 
z
" transform="scale(0.015625)"/>
      </defs>
      <use xlink:href="#CMR17-30" transform="scale(0.996264)"/>
      <use xlink:href="#CMMI12-3a" transform="translate(45.690477 0)scale(0.996264)"/>
      <use xlink:href="#CMR17-32" transform="translate(72.787654 0)scale(0.996264)"/>
     </g>
    </g>
   </g>
   <g id="xtick_3">
    <g id="line2d_6">
     <path d="M 168.499459 159.820541 
" clip-path="url(#p3fe30d7f33)" style="fill: none; stroke: #ffffff; stroke-width: 1.5; stroke-linecap: square"/>
    </g>
    <g id="line2d_7">
     <path d="M 113.886777 273.807772 
L 112.018211 276.467545 
" style="fill: none; stroke: #555555; stroke-width: 1.875; stroke-linecap: square"/>
    </g>
    <g id="text_4">
     <!-- $\mathdefault{0.4}$ -->
     <g style="fill: #555555" transform="translate(97.786803 302.866733)scale(0.165 -0.165)">
      <defs>
       <path id="CMR17-34" d="M 2150 4122 
C 2150 4256 2144 4256 2029 4256 
L 128 1254 
L 128 1088 
L 1779 1088 
L 1779 457 
C 1779 224 1766 160 1318 160 
L 1197 160 
L 1197 0 
C 1402 0 1747 0 1965 0 
C 2182 0 2528 0 2733 0 
L 2733 160 
L 2611 160 
C 2163 160 2150 224 2150 457 
L 2150 1088 
L 2803 1088 
L 2803 1254 
L 2150 1254 
L 2150 4122 
z
M 1798 3703 
L 1798 1254 
L 256 1254 
L 1798 3703 
z
" transform="scale(0.015625)"/>
      </defs>
      <use xlink:href="#CMR17-30" transform="scale(0.996264)"/>
      <use xlink:href="#CMMI12-3a" transform="translate(45.690477 0)scale(0.996264)"/>
      <use xlink:href="#CMR17-34" transform="translate(72.787654 0)scale(0.996264)"/>
     </g>
    </g>
   </g>
   <g id="xtick_4">
    <g id="line2d_8">
     <path d="M 168.499459 159.820541 
" clip-path="url(#p3fe30d7f33)" style="fill: none; stroke: #ffffff; stroke-width: 1.5; stroke-linecap: square"/>
    </g>
    <g id="line2d_9">
     <path d="M 151.891224 281.587841 
L 150.100799 284.284868 
" style="fill: none; stroke: #555555; stroke-width: 1.875; stroke-linecap: square"/>
    </g>
    <g id="text_5">
     <!-- $\mathdefault{0.6}$ -->
     <g style="fill: #555555" transform="translate(135.922164 310.805479)scale(0.165 -0.165)">
      <defs>
       <path id="CMR17-36" d="M 678 2176 
C 678 3690 1395 4032 1811 4032 
C 1946 4032 2272 4009 2400 3776 
C 2298 3776 2106 3776 2106 3553 
C 2106 3381 2246 3323 2336 3323 
C 2394 3323 2566 3348 2566 3560 
C 2566 3954 2246 4179 1805 4179 
C 1043 4179 243 3390 243 1984 
C 243 253 966 -128 1478 -128 
C 2099 -128 2688 427 2688 1283 
C 2688 2081 2170 2662 1517 2662 
C 1126 2662 838 2407 678 1960 
L 678 2176 
z
M 1478 25 
C 691 25 691 1200 691 1436 
C 691 1896 909 2560 1504 2560 
C 1613 2560 1926 2560 2138 2120 
C 2253 1870 2253 1609 2253 1289 
C 2253 944 2253 690 2118 434 
C 1978 171 1773 25 1478 25 
z
" transform="scale(0.015625)"/>
      </defs>
      <use xlink:href="#CMR17-30" transform="scale(0.996264)"/>
      <use xlink:href="#CMMI12-3a" transform="translate(45.690477 0)scale(0.996264)"/>
      <use xlink:href="#CMR17-36" transform="translate(72.787654 0)scale(0.996264)"/>
     </g>
    </g>
   </g>
   <g id="xtick_5">
    <g id="line2d_10">
     <path d="M 168.499459 159.820541 
" clip-path="url(#p3fe30d7f33)" style="fill: none; stroke: #ffffff; stroke-width: 1.5; stroke-linecap: square"/>
    </g>
    <g id="line2d_11">
     <path d="M 190.429211 289.477134 
L 188.719316 292.212203 
" style="fill: none; stroke: #555555; stroke-width: 1.875; stroke-linecap: square"/>
    </g>
    <g id="text_6">
     <!-- $\mathdefault{0.8}$ -->
     <g style="fill: #555555" transform="translate(174.595337 318.856183)scale(0.165 -0.165)">
      <defs>
       <path id="CMR17-38" d="M 1741 2264 
C 2144 2467 2554 2773 2554 3263 
C 2554 3841 1990 4179 1472 4179 
C 890 4179 378 3759 378 3180 
C 378 3021 416 2747 666 2505 
C 730 2442 998 2251 1171 2130 
C 883 1983 211 1634 211 934 
C 211 279 838 -128 1459 -128 
C 2144 -128 2720 362 2720 1010 
C 2720 1590 2330 1857 2074 2029 
L 1741 2264 
z
M 902 2822 
C 851 2854 595 3051 595 3351 
C 595 3739 998 4032 1459 4032 
C 1965 4032 2336 3676 2336 3262 
C 2336 2669 1670 2331 1638 2331 
C 1632 2331 1626 2331 1574 2370 
L 902 2822 
z
M 2080 1519 
C 2176 1449 2483 1240 2483 851 
C 2483 381 2010 25 1472 25 
C 890 25 448 438 448 940 
C 448 1443 838 1862 1280 2060 
L 2080 1519 
z
" transform="scale(0.015625)"/>
      </defs>
      <use xlink:href="#CMR17-30" transform="scale(0.996264)"/>
      <use xlink:href="#CMMI12-3a" transform="translate(45.690477 0)scale(0.996264)"/>
      <use xlink:href="#CMR17-38" transform="translate(72.787654 0)scale(0.996264)"/>
     </g>
    </g>
   </g>
   <g id="xtick_6">
    <g id="line2d_12">
     <path d="M 168.499459 159.820541 
" clip-path="url(#p3fe30d7f33)" style="fill: none; stroke: #ffffff; stroke-width: 1.5; stroke-linecap: square"/>
    </g>
    <g id="line2d_13">
     <path d="M 229.512051 297.477966 
L 227.885154 300.251888 
" style="fill: none; stroke: #555555; stroke-width: 1.875; stroke-linecap: square"/>
    </g>
    <g id="text_7">
     <!-- $\mathdefault{1.0}$ -->
     <g style="fill: #555555" transform="translate(213.817779 327.021229)scale(0.165 -0.165)">
      <defs>
       <path id="CMR17-31" d="M 1702 4058 
C 1702 4192 1696 4192 1606 4192 
C 1357 3916 979 3827 621 3827 
C 602 3827 570 3827 563 3808 
C 557 3795 557 3782 557 3648 
C 755 3648 1088 3686 1344 3839 
L 1344 461 
C 1344 236 1331 160 781 160 
L 589 160 
L 589 0 
C 896 0 1216 0 1523 0 
C 1830 0 2150 0 2458 0 
L 2458 160 
L 2266 160 
C 1715 160 1702 230 1702 458 
L 1702 4058 
z
" transform="scale(0.015625)"/>
      </defs>
      <use xlink:href="#CMR17-31" transform="scale(0.996264)"/>
      <use xlink:href="#CMMI12-3a" transform="translate(45.690477 0)scale(0.996264)"/>
      <use xlink:href="#CMR17-30" transform="translate(72.787654 0)scale(0.996264)"/>
     </g>
    </g>
   </g>
   <g id="xtick_7">
    <g id="line2d_14">
     <path d="M 48.629895 260.448729 
L 46.630104 263.045139 
" style="fill: none; stroke: #555555; stroke-width: 1.5; stroke-linecap: square"/>
    </g>
   </g>
   <g id="xtick_8">
    <g id="line2d_15">
     <path d="M 57.856503 262.337551 
L 55.87504 264.942874 
" style="fill: none; stroke: #555555; stroke-width: 1.5; stroke-linecap: square"/>
    </g>
   </g>
   <g id="xtick_9">
    <g id="line2d_16">
     <path d="M 67.114772 264.232855 
L 65.151774 266.847136 
" style="fill: none; stroke: #555555; stroke-width: 1.5; stroke-linecap: square"/>
    </g>
   </g>
   <g id="xtick_10">
    <g id="line2d_17">
     <path d="M 85.726946 268.04304 
L 83.801295 270.675377 
" style="fill: none; stroke: #555555; stroke-width: 1.5; stroke-linecap: square"/>
    </g>
   </g>
   <g id="xtick_11">
    <g id="line2d_18">
     <path d="M 95.08118 269.95799 
L 93.174415 272.599424 
" style="fill: none; stroke: #555555; stroke-width: 1.5; stroke-linecap: square"/>
    </g>
   </g>
   <g id="xtick_12">
    <g id="line2d_19">
     <path d="M 104.467735 271.879555 
L 102.579997 274.530135 
" style="fill: none; stroke: #555555; stroke-width: 1.5; stroke-linecap: square"/>
    </g>
   </g>
   <g id="xtick_13">
    <g id="line2d_20">
     <path d="M 123.338477 275.742674 
L 121.489226 278.411688 
" style="fill: none; stroke: #555555; stroke-width: 1.5; stroke-linecap: square"/>
    </g>
   </g>
   <g id="xtick_14">
    <g id="line2d_21">
     <path d="M 132.823003 277.684296 
L 130.993214 280.362599 
" style="fill: none; stroke: #555555; stroke-width: 1.5; stroke-linecap: square"/>
    </g>
   </g>
   <g id="xtick_15">
    <g id="line2d_22">
     <path d="M 142.340528 279.632673 
L 140.530347 282.320314 
" style="fill: none; stroke: #555555; stroke-width: 1.5; stroke-linecap: square"/>
    </g>
   </g>
   <g id="xtick_16">
    <g id="line2d_23">
     <path d="M 161.475265 283.549835 
L 159.704746 286.256298 
" style="fill: none; stroke: #555555; stroke-width: 1.5; stroke-linecap: square"/>
    </g>
   </g>
   <g id="xtick_17">
    <g id="line2d_24">
     <path d="M 171.092825 285.518691 
L 169.342362 288.234639 
" style="fill: none; stroke: #555555; stroke-width: 1.5; stroke-linecap: square"/>
    </g>
   </g>
   <g id="xtick_18">
    <g id="line2d_25">
     <path d="M 180.744082 287.494445 
L 179.013826 290.219929 
" style="fill: none; stroke: #555555; stroke-width: 1.5; stroke-linecap: square"/>
    </g>
   </g>
   <g id="xtick_19">
    <g id="line2d_26">
     <path d="M 200.148392 291.466793 
L 198.459012 294.211498 
" style="fill: none; stroke: #555555; stroke-width: 1.5; stroke-linecap: square"/>
    </g>
   </g>
   <g id="xtick_20">
    <g id="line2d_27">
     <path d="M 209.901804 293.46346 
L 208.233095 296.217853 
" style="fill: none; stroke: #555555; stroke-width: 1.5; stroke-linecap: square"/>
    </g>
   </g>
   <g id="xtick_21">
    <g id="line2d_28">
     <path d="M 219.68963 295.467172 
L 218.041748 298.231303 
" style="fill: none; stroke: #555555; stroke-width: 1.5; stroke-linecap: square"/>
    </g>
   </g>
  </g>
  <g id="axis3d_2">
   <g id="line2d_29">
    <path d="M 294.245607 194.225295 
L 233.076486 299.2424 
" style="fill: none; stroke: #ffffff; stroke-width: 1.875; stroke-linecap: square"/>
   </g>
   <g id="text_8">
    <!-- $v$ -->
    <g style="fill: #555555" transform="translate(289.605994 273.758243)scale(0.18 -0.18)">
     <defs>
      <path id="CMMI12-76" d="M 2925 2389 
C 2925 2791 2720 2816 2669 2816 
C 2515 2816 2374 2663 2374 2535 
C 2374 2459 2419 2414 2445 2389 
C 2509 2331 2675 2159 2675 1827 
C 2675 1558 2291 64 1523 64 
C 1133 64 1056 390 1056 626 
C 1056 945 1203 1392 1376 1852 
C 1478 2114 1504 2178 1504 2305 
C 1504 2574 1312 2816 998 2816 
C 410 2816 173 1890 173 1839 
C 173 1814 198 1782 243 1782 
C 301 1782 307 1807 333 1897 
C 486 2446 736 2689 979 2689 
C 1037 2689 1146 2689 1146 2478 
C 1146 2312 1075 2127 979 1884 
C 672 1067 672 869 672 715 
C 672 575 691 313 890 134 
C 1120 -64 1440 -64 1498 -64 
C 2560 -64 2925 2024 2925 2389 
z
" transform="scale(0.015625)"/>
     </defs>
     <use xlink:href="#CMMI12-76" transform="scale(0.996264)"/>
    </g>
   </g>
   <g id="Line3DCollection_2">
    <path d="M 30.416906 119.586317 
L 36.621952 256.496531 
L 234.421088 296.933944 
" style="fill: none; stroke: #ffffff; stroke-width: 1.5"/>
    <path d="M 47.09876 101.090725 
L 52.453901 236.300448 
L 247.057856 275.238737 
" style="fill: none; stroke: #ffffff; stroke-width: 1.5"/>
    <path d="M 63.151206 83.292974 
L 67.714384 216.833359 
L 259.222331 254.354377 
" style="fill: none; stroke: #ffffff; stroke-width: 1.5"/>
    <path d="M 78.609207 66.154299 
L 82.433793 198.056492 
L 270.940505 234.23624 
" style="fill: none; stroke: #ffffff; stroke-width: 1.5"/>
    <path d="M 93.505182 49.638756 
L 96.640403 179.933779 
L 282.236497 214.842919 
" style="fill: none; stroke: #ffffff; stroke-width: 1.5"/>
    <path d="M 107.869234 33.712969 
L 110.360554 162.43162 
L 293.13272 196.135936 
" style="fill: none; stroke: #ffffff; stroke-width: 1.5"/>
    <path d="M 34.648391 114.894763 
L 40.635262 251.376938 
L 237.626055 291.431555 
" style="fill: none; stroke: #ffffff; stroke-width: 1.5"/>
    <path d="M 38.8388 110.248751 
L 44.611348 246.30483 
L 240.800211 285.982061 
" style="fill: none; stroke: #ffffff; stroke-width: 1.5"/>
    <path d="M 42.988729 105.647621 
L 48.550726 241.279548 
L 243.944 280.584703 
" style="fill: none; stroke: #ffffff; stroke-width: 1.5"/>
    <path d="M 51.169467 96.57743 
L 56.321372 231.366896 
L 250.142203 269.943431 
" style="fill: none; stroke: #ffffff; stroke-width: 1.5"/>
    <path d="M 55.201412 92.107111 
L 60.153625 226.478269 
L 253.197459 264.698069 
" style="fill: none; stroke: #ffffff; stroke-width: 1.5"/>
    <path d="M 59.195145 87.679159 
L 63.951139 221.633956 
L 256.224035 259.501948 
" style="fill: none; stroke: #ffffff; stroke-width: 1.5"/>
    <path d="M 67.070128 78.947967 
L 71.443823 212.075887 
L 262.192742 249.254679 
" style="fill: none; stroke: #ffffff; stroke-width: 1.5"/>
    <path d="M 70.952429 74.643561 
L 75.139908 207.360963 
L 265.135656 244.202191 
" style="fill: none; stroke: #ffffff; stroke-width: 1.5"/>
    <path d="M 74.798622 70.37919 
L 78.803086 202.688017 
L 268.051453 239.196258 
" style="fill: none; stroke: #ffffff; stroke-width: 1.5"/>
    <path d="M 82.384677 61.96834 
L 86.03246 193.46584 
L 273.803179 229.32151 
" style="fill: none; stroke: #ffffff; stroke-width: 1.5"/>
    <path d="M 86.125514 57.820779 
L 89.599509 188.915522 
L 276.639835 224.451448 
" style="fill: none; stroke: #ffffff; stroke-width: 1.5"/>
    <path d="M 89.832194 53.71109 
L 93.135354 184.405008 
L 279.450825 219.62545 
" style="fill: none; stroke: #ffffff; stroke-width: 1.5"/>
    <path d="M 97.144934 45.603271 
L 100.115058 175.501324 
L 284.997191 210.103271 
" style="fill: none; stroke: #ffffff; stroke-width: 1.5"/>
    <path d="M 100.751901 41.604135 
L 103.559711 171.10714 
L 287.733242 205.405933 
" style="fill: none; stroke: #ffffff; stroke-width: 1.5"/>
    <path d="M 104.326524 37.640862 
L 106.974749 166.750734 
L 290.444977 200.750339 
" style="fill: none; stroke: #ffffff; stroke-width: 1.5"/>
   </g>
   <g id="xtick_22">
    <g id="line2d_30">
     <path d="M 168.499459 159.820541 
" clip-path="url(#p3fe30d7f33)" style="fill: none; stroke: #ffffff; stroke-width: 1.5; stroke-linecap: square"/>
    </g>
    <g id="line2d_31">
     <path d="M 232.780945 296.598638 
L 237.704273 297.605147 
" style="fill: none; stroke: #555555; stroke-width: 1.875; stroke-linecap: square"/>
    </g>
    <g id="text_9">
     <!-- $\mathdefault{0.0}$ -->
     <g style="fill: #555555" transform="translate(238.018236 320.416242)scale(0.165 -0.165)">
      <use xlink:href="#CMR17-30" transform="scale(0.996264)"/>
      <use xlink:href="#CMMI12-3a" transform="translate(45.690477 0)scale(0.996264)"/>
      <use xlink:href="#CMR17-30" transform="translate(72.787654 0)scale(0.996264)"/>
     </g>
    </g>
   </g>
   <g id="xtick_23">
    <g id="line2d_32">
     <path d="M 168.499459 159.820541 
" clip-path="url(#p3fe30d7f33)" style="fill: none; stroke: #ffffff; stroke-width: 1.5; stroke-linecap: square"/>
    </g>
    <g id="line2d_33">
     <path d="M 245.445289 274.916078 
L 250.285785 275.884613 
" style="fill: none; stroke: #555555; stroke-width: 1.875; stroke-linecap: square"/>
    </g>
    <g id="text_10">
     <!-- $\mathdefault{0.2}$ -->
     <g style="fill: #555555" transform="translate(250.382511 298.505716)scale(0.165 -0.165)">
      <use xlink:href="#CMR17-30" transform="scale(0.996264)"/>
      <use xlink:href="#CMMI12-3a" transform="translate(45.690477 0)scale(0.996264)"/>
      <use xlink:href="#CMR17-32" transform="translate(72.787654 0)scale(0.996264)"/>
     </g>
    </g>
   </g>
   <g id="xtick_24">
    <g id="line2d_34">
     <path d="M 168.499459 159.820541 
" clip-path="url(#p3fe30d7f33)" style="fill: none; stroke: #ffffff; stroke-width: 1.5; stroke-linecap: square"/>
    </g>
    <g id="line2d_35">
     <path d="M 257.636443 254.043663 
L 262.396804 254.976333 
" style="fill: none; stroke: #555555; stroke-width: 1.875; stroke-linecap: square"/>
    </g>
    <g id="text_11">
     <!-- $\mathdefault{0.4}$ -->
     <g style="fill: #555555" transform="translate(262.284976 277.413553)scale(0.165 -0.165)">
      <use xlink:href="#CMR17-30" transform="scale(0.996264)"/>
      <use xlink:href="#CMMI12-3a" transform="translate(45.690477 0)scale(0.996264)"/>
      <use xlink:href="#CMR17-34" transform="translate(72.787654 0)scale(0.996264)"/>
     </g>
    </g>
   </g>
   <g id="xtick_25">
    <g id="line2d_36">
     <path d="M 168.499459 159.820541 
" clip-path="url(#p3fe30d7f33)" style="fill: none; stroke: #ffffff; stroke-width: 1.5; stroke-linecap: square"/>
    </g>
    <g id="line2d_37">
     <path d="M 269.380442 233.93682 
L 274.063235 234.83558 
" style="fill: none; stroke: #555555; stroke-width: 1.875; stroke-linecap: square"/>
    </g>
    <g id="text_12">
     <!-- $\mathdefault{0.6}$ -->
     <g style="fill: #555555" transform="translate(273.751031 257.094745)scale(0.165 -0.165)">
      <use xlink:href="#CMR17-30" transform="scale(0.996264)"/>
      <use xlink:href="#CMMI12-3a" transform="translate(45.690477 0)scale(0.996264)"/>
      <use xlink:href="#CMR17-36" transform="translate(72.787654 0)scale(0.996264)"/>
     </g>
    </g>
   </g>
   <g id="xtick_26">
    <g id="line2d_38">
     <path d="M 168.499459 159.820541 
" clip-path="url(#p3fe30d7f33)" style="fill: none; stroke: #ffffff; stroke-width: 1.5; stroke-linecap: square"/>
    </g>
    <g id="line2d_39">
     <path d="M 280.701445 214.554188 
L 285.30912 215.420855 
" style="fill: none; stroke: #555555; stroke-width: 1.875; stroke-linecap: square"/>
    </g>
    <g id="text_13">
     <!-- $\mathdefault{0.8}$ -->
     <g style="fill: #555555" transform="translate(284.804246 237.507526)scale(0.165 -0.165)">
      <use xlink:href="#CMR17-30" transform="scale(0.996264)"/>
      <use xlink:href="#CMMI12-3a" transform="translate(45.690477 0)scale(0.996264)"/>
      <use xlink:href="#CMR17-38" transform="translate(72.787654 0)scale(0.996264)"/>
     </g>
    </g>
   </g>
   <g id="xtick_27">
    <g id="line2d_40">
     <path d="M 168.499459 159.820541 
" clip-path="url(#p3fe30d7f33)" style="fill: none; stroke: #ffffff; stroke-width: 1.5; stroke-linecap: square"/>
    </g>
    <g id="line2d_41">
     <path d="M 291.6219 195.857331 
L 296.156793 196.693593 
" style="fill: none; stroke: #555555; stroke-width: 1.875; stroke-linecap: square"/>
    </g>
    <g id="text_14">
     <!-- $\mathdefault{1.0}$ -->
     <g style="fill: #555555" transform="translate(295.466522 218.613082)scale(0.165 -0.165)">
      <use xlink:href="#CMR17-31" transform="scale(0.996264)"/>
      <use xlink:href="#CMMI12-3a" transform="translate(45.690477 0)scale(0.996264)"/>
      <use xlink:href="#CMR17-30" transform="translate(72.787654 0)scale(0.996264)"/>
     </g>
    </g>
   </g>
   <g id="xtick_28">
    <g id="line2d_42">
     <path d="M 235.992892 291.09948 
L 240.895252 292.096289 
" style="fill: none; stroke: #555555; stroke-width: 1.5; stroke-linecap: square"/>
    </g>
   </g>
   <g id="xtick_29">
    <g id="line2d_43">
     <path d="M 239.173971 285.65317 
L 244.055538 286.640418 
" style="fill: none; stroke: #555555; stroke-width: 1.5; stroke-linecap: square"/>
    </g>
   </g>
   <g id="xtick_30">
    <g id="line2d_44">
     <path d="M 242.324625 280.258951 
L 247.185572 281.236775 
" style="fill: none; stroke: #555555; stroke-width: 1.5; stroke-linecap: square"/>
    </g>
   </g>
   <g id="xtick_31">
    <g id="line2d_45">
     <path d="M 248.536388 269.623822 
L 253.356603 270.583199 
" style="fill: none; stroke: #555555; stroke-width: 1.5; stroke-linecap: square"/>
    </g>
   </g>
   <g id="xtick_32">
    <g id="line2d_46">
     <path d="M 251.598342 264.381467 
L 256.398441 265.331815 
" style="fill: none; stroke: #555555; stroke-width: 1.5; stroke-linecap: square"/>
    </g>
   </g>
   <g id="xtick_33">
    <g id="line2d_47">
     <path d="M 254.631559 259.188311 
L 259.411708 260.129757 
" style="fill: none; stroke: #555555; stroke-width: 1.5; stroke-linecap: square"/>
    </g>
   </g>
   <g id="xtick_34">
    <g id="line2d_48">
     <path d="M 260.613389 248.946848 
L 265.354122 249.870863 
" style="fill: none; stroke: #555555; stroke-width: 1.5; stroke-linecap: square"/>
    </g>
   </g>
   <g id="xtick_35">
    <g id="line2d_49">
     <path d="M 263.562785 243.897202 
L 268.284049 244.812681 
" style="fill: none; stroke: #555555; stroke-width: 1.5; stroke-linecap: square"/>
    </g>
   </g>
   <g id="xtick_36">
    <g id="line2d_50">
     <path d="M 266.485012 238.894073 
L 271.186963 239.801135 
" style="fill: none; stroke: #555555; stroke-width: 1.5; stroke-linecap: square"/>
    </g>
   </g>
   <g id="xtick_37">
    <g id="line2d_51">
     <path d="M 272.249444 229.024817 
L 276.913232 229.915388 
" style="fill: none; stroke: #555555; stroke-width: 1.5; stroke-linecap: square"/>
    </g>
   </g>
   <g id="xtick_38">
    <g id="line2d_52">
     <path d="M 275.092377 224.157446 
L 279.737312 225.03994 
" style="fill: none; stroke: #555555; stroke-width: 1.5; stroke-linecap: square"/>
    </g>
   </g>
   <g id="xtick_39">
    <g id="line2d_53">
     <path d="M 277.909595 219.334101 
L 282.535826 220.208628 
" style="fill: none; stroke: #555555; stroke-width: 1.5; stroke-linecap: square"/>
    </g>
   </g>
   <g id="xtick_40">
    <g id="line2d_54">
     <path d="M 283.468269 209.817123 
L 288.057533 210.676035 
" style="fill: none; stroke: #555555; stroke-width: 1.5; stroke-linecap: square"/>
    </g>
   </g>
   <g id="xtick_41">
    <g id="line2d_55">
     <path d="M 286.210401 205.122333 
L 290.781399 205.973594 
" style="fill: none; stroke: #555555; stroke-width: 1.5; stroke-linecap: square"/>
    </g>
   </g>
   <g id="xtick_42">
    <g id="line2d_56">
     <path d="M 288.92817 200.469253 
L 293.481045 201.312965 
" style="fill: none; stroke: #555555; stroke-width: 1.5; stroke-linecap: square"/>
    </g>
   </g>
  </g>
  <g id="axis3d_3">
   <g id="line2d_57">
    <path d="M 294.245607 194.225295 
L 299.812026 62.660731 
" style="fill: none; stroke: #ffffff; stroke-width: 1.875; stroke-linecap: square"/>
   </g>
   <g id="text_15">
    <!-- $C(u,v)$ -->
    <g style="fill: #555555" transform="translate(337.243895 148.194901)rotate(-87.577294)scale(0.18 -0.18)">
     <defs>
      <path id="CMMI12-43" d="M 4781 4423 
C 4781 4480 4736 4480 4723 4480 
C 4710 4480 4685 4480 4634 4416 
L 4192 3882 
C 3968 4264 3616 4480 3136 4480 
C 1754 4480 320 3088 320 1595 
C 320 533 1069 -128 2003 -128 
C 2515 -128 2963 88 3334 400 
C 3891 863 4058 1481 4058 1531 
C 4058 1588 4006 1588 3987 1588 
C 3930 1588 3923 1550 3910 1524 
C 3616 534 2752 57 2112 57 
C 1434 57 845 489 845 1391 
C 845 1595 909 2700 1632 3532 
C 1984 3939 2586 4295 3194 4295 
C 3898 4295 4211 3717 4211 3068 
C 4211 2903 4192 2764 4192 2738 
C 4192 2681 4256 2681 4275 2681 
C 4346 2681 4352 2687 4378 2801 
L 4781 4423 
z
" transform="scale(0.015625)"/>
      <path id="CMR17-28" d="M 1958 -1561 
C 1958 -1555 1958 -1542 1939 -1523 
C 1645 -1224 858 -407 858 1581 
C 858 3569 1632 4379 1946 4697 
C 1946 4704 1958 4717 1958 4736 
C 1958 4755 1939 4768 1914 4768 
C 1843 4768 1299 4296 986 3594 
C 666 2887 576 2199 576 1588 
C 576 1128 621 351 1005 -471 
C 1312 -1135 1837 -1600 1914 -1600 
C 1946 -1600 1958 -1587 1958 -1561 
z
" transform="scale(0.015625)"/>
      <path id="CMMI12-3b" d="M 1248 -31 
C 1248 343 1126 619 864 619 
C 659 619 557 453 557 313 
C 557 172 653 0 870 0 
C 954 0 1024 26 1082 83 
C 1094 96 1101 96 1107 96 
C 1120 96 1120 5 1120 -27 
C 1120 -240 1082 -659 710 -1080 
C 640 -1157 640 -1170 640 -1183 
C 640 -1216 672 -1248 704 -1248 
C 755 -1248 1248 -771 1248 -31 
z
" transform="scale(0.015625)"/>
      <path id="CMR17-29" d="M 1683 1581 
C 1683 2040 1638 2817 1254 3639 
C 947 4303 422 4768 346 4768 
C 326 4768 301 4761 301 4729 
C 301 4717 307 4710 314 4697 
C 621 4378 1402 3568 1402 1584 
C 1402 -407 627 -1217 314 -1537 
C 307 -1549 301 -1556 301 -1568 
C 301 -1600 326 -1600 346 -1600 
C 416 -1600 960 -1128 1274 -426 
C 1594 281 1683 969 1683 1581 
z
" transform="scale(0.015625)"/>
     </defs>
     <use xlink:href="#CMMI12-43" transform="scale(0.996264)"/>
     <use xlink:href="#CMR17-28" transform="translate(76.946847 0)scale(0.996264)"/>
     <use xlink:href="#CMMI12-75" transform="translate(112.227614 0)scale(0.996264)"/>
     <use xlink:href="#CMMI12-3b" transform="translate(167.747944 0)scale(0.996264)"/>
     <use xlink:href="#CMMI12-76" transform="translate(211.449526 0)scale(0.996264)"/>
     <use xlink:href="#CMR17-29" transform="translate(262.1847 0)scale(0.996264)"/>
    </g>
   </g>
   <g id="Line3DCollection_3">
    <path d="M 294.352307 191.703408 
L 111.716184 158.175195 
L 34.818249 256.023174 
" style="fill: none; stroke: #ffffff; stroke-width: 1.5"/>
    <path d="M 295.37889 167.439693 
L 111.268139 134.439875 
L 33.659393 230.794687 
" style="fill: none; stroke: #ffffff; stroke-width: 1.5"/>
    <path d="M 296.422359 142.776884 
L 110.812968 110.327013 
L 32.48027 205.124974 
" style="fill: none; stroke: #ffffff; stroke-width: 1.5"/>
    <path d="M 297.483134 117.705052 
L 110.350498 85.827527 
L 31.280343 179.002357 
" style="fill: none; stroke: #ffffff; stroke-width: 1.5"/>
    <path d="M 298.561648 92.213938 
L 109.880553 60.932043 
L 30.059057 152.414744 
" style="fill: none; stroke: #ffffff; stroke-width: 1.5"/>
    <path d="M 299.65835 66.292934 
L 109.40295 35.630884 
L 28.815836 125.349608 
" style="fill: none; stroke: #ffffff; stroke-width: 1.5"/>
    <path d="M 294.556292 186.882127 
L 111.627138 153.457908 
L 34.588074 251.012228 
" style="fill: none; stroke: #ffffff; stroke-width: 1.5"/>
    <path d="M 294.76094 182.045191 
L 111.537811 148.725803 
L 34.357105 245.983996 
" style="fill: none; stroke: #ffffff; stroke-width: 1.5"/>
    <path d="M 294.966254 177.192525 
L 111.448203 143.978809 
L 34.125338 240.938389 
" style="fill: none; stroke: #ffffff; stroke-width: 1.5"/>
    <path d="M 295.172236 172.324052 
L 111.358313 139.216857 
L 33.892769 235.875316 
" style="fill: none; stroke: #ffffff; stroke-width: 1.5"/>
    <path d="M 295.58622 162.539372 
L 111.177681 129.647793 
L 33.425207 225.696411 
" style="fill: none; stroke: #ffffff; stroke-width: 1.5"/>
    <path d="M 295.794228 157.623009 
L 111.086935 124.840537 
L 33.190206 220.580394 
" style="fill: none; stroke: #ffffff; stroke-width: 1.5"/>
    <path d="M 296.002919 152.690527 
L 110.995902 120.018038 
L 32.954386 215.446545 
" style="fill: none; stroke: #ffffff; stroke-width: 1.5"/>
    <path d="M 296.212295 147.741845 
L 110.90458 115.18022 
L 32.717742 210.294769 
" style="fill: none; stroke: #ffffff; stroke-width: 1.5"/>
    <path d="M 296.633116 137.795563 
L 110.721063 105.458341 
L 32.241967 199.937064 
" style="fill: none; stroke: #ffffff; stroke-width: 1.5"/>
    <path d="M 296.844568 132.797801 
L 110.628865 100.574131 
L 32.002827 194.730943 
" style="fill: none; stroke: #ffffff; stroke-width: 1.5"/>
    <path d="M 297.05672 127.783517 
L 110.536373 95.674309 
L 31.762846 189.506517 
" style="fill: none; stroke: #ffffff; stroke-width: 1.5"/>
    <path d="M 297.269574 122.752628 
L 110.443584 90.758799 
L 31.52202 184.263687 
" style="fill: none; stroke: #ffffff; stroke-width: 1.5"/>
    <path d="M 297.697403 112.640707 
L 110.257112 80.880415 
L 31.037813 173.722429 
" style="fill: none; stroke: #ffffff; stroke-width: 1.5"/>
    <path d="M 297.912386 107.559507 
L 110.163427 75.917388 
L 30.794424 168.423803 
" style="fill: none; stroke: #ffffff; stroke-width: 1.5"/>
    <path d="M 298.128085 102.461369 
L 110.069439 70.938369 
L 30.550171 163.106381 
" style="fill: none; stroke: #ffffff; stroke-width: 1.5"/>
    <path d="M 298.344504 97.346208 
L 109.975148 65.94328 
L 30.30505 157.770061 
" style="fill: none; stroke: #ffffff; stroke-width: 1.5"/>
    <path d="M 298.779518 87.064474 
L 109.785651 55.904581 
L 29.812187 147.040328 
" style="fill: none; stroke: #ffffff; stroke-width: 1.5"/>
    <path d="M 298.99812 81.897729 
L 109.690441 50.860813 
L 29.564434 141.646709 
" style="fill: none; stroke: #ffffff; stroke-width: 1.5"/>
    <path d="M 299.217457 76.713616 
L 109.594922 45.800661 
L 29.315794 136.233786 
" style="fill: none; stroke: #ffffff; stroke-width: 1.5"/>
    <path d="M 299.437532 71.512047 
L 109.499092 40.724045 
L 29.066263 130.801453 
" style="fill: none; stroke: #ffffff; stroke-width: 1.5"/>
   </g>
   <g id="xtick_43">
    <g id="line2d_58">
     <path d="M 168.499459 159.820541 
" clip-path="url(#p3fe30d7f33)" style="fill: none; stroke: #ffffff; stroke-width: 1.5; stroke-linecap: square"/>
    </g>
    <g id="line2d_59">
     <path d="M 292.84266 191.426268 
L 297.37403 192.258134 
" style="fill: none; stroke: #555555; stroke-width: 1.875; stroke-linecap: square"/>
    </g>
    <g id="text_16">
     <!-- $\mathdefault{0}$ -->
     <g style="fill: #555555" transform="translate(307.06137 198.972012)scale(0.165 -0.165)">
      <use xlink:href="#CMR17-30" transform="scale(0.996264)"/>
     </g>
    </g>
   </g>
   <g id="xtick_44">
    <g id="line2d_60">
     <path d="M 168.499459 159.820541 
" clip-path="url(#p3fe30d7f33)" style="fill: none; stroke: #ffffff; stroke-width: 1.5; stroke-linecap: square"/>
    </g>
    <g id="line2d_61">
     <path d="M 293.856655 167.166849 
L 298.425831 167.985823 
" style="fill: none; stroke: #555555; stroke-width: 1.875; stroke-linecap: square"/>
    </g>
    <g id="text_17">
     <!-- $\mathdefault{1}$ -->
     <g style="fill: #555555" transform="translate(308.219742 174.772705)scale(0.165 -0.165)">
      <use xlink:href="#CMR17-31" transform="scale(0.996264)"/>
     </g>
    </g>
   </g>
   <g id="xtick_45">
    <g id="line2d_62">
     <path d="M 168.499459 159.820541 
" clip-path="url(#p3fe30d7f33)" style="fill: none; stroke: #ffffff; stroke-width: 1.5; stroke-linecap: square"/>
    </g>
    <g id="line2d_63">
     <path d="M 294.887324 142.508516 
L 299.494941 143.31406 
" style="fill: none; stroke: #555555; stroke-width: 1.875; stroke-linecap: square"/>
    </g>
    <g id="text_18">
     <!-- $\mathdefault{2}$ -->
     <g style="fill: #555555" transform="translate(309.39709 150.176986)scale(0.165 -0.165)">
      <use xlink:href="#CMR17-32" transform="scale(0.996264)"/>
     </g>
    </g>
   </g>
   <g id="xtick_46">
    <g id="line2d_64">
     <path d="M 168.499459 159.820541 
" clip-path="url(#p3fe30d7f33)" style="fill: none; stroke: #ffffff; stroke-width: 1.5; stroke-linecap: square"/>
    </g>
    <g id="line2d_65">
     <path d="M 295.935082 117.441346 
L 300.581791 118.2329 
" style="fill: none; stroke: #555555; stroke-width: 1.875; stroke-linecap: square"/>
    </g>
    <g id="text_19">
     <!-- $\mathdefault{3}$ -->
     <g style="fill: #555555" transform="translate(310.593884 125.175033)scale(0.165 -0.165)">
      <defs>
       <path id="CMR17-33" d="M 1414 2157 
C 1984 2157 2234 1662 2234 1090 
C 2234 320 1824 25 1453 25 
C 1114 25 563 194 390 693 
C 422 680 454 680 486 680 
C 640 680 755 782 755 948 
C 755 1133 614 1216 486 1216 
C 378 1216 211 1165 211 926 
C 211 335 787 -128 1466 -128 
C 2176 -128 2720 430 2720 1085 
C 2720 1707 2208 2157 1600 2227 
C 2086 2328 2554 2756 2554 3329 
C 2554 3820 2048 4179 1472 4179 
C 890 4179 378 3829 378 3329 
C 378 3110 544 3072 627 3072 
C 762 3072 877 3155 877 3321 
C 877 3486 762 3569 627 3569 
C 602 3569 570 3569 544 3557 
C 730 3959 1235 4032 1459 4032 
C 1683 4032 2106 3925 2106 3320 
C 2106 3143 2080 2828 1862 2550 
C 1670 2304 1453 2304 1242 2284 
C 1210 2284 1062 2269 1037 2269 
C 992 2263 966 2257 966 2208 
C 966 2163 973 2157 1101 2157 
L 1414 2157 
z
" transform="scale(0.015625)"/>
      </defs>
      <use xlink:href="#CMR17-33" transform="scale(0.996264)"/>
     </g>
    </g>
   </g>
   <g id="xtick_47">
    <g id="line2d_66">
     <path d="M 168.499459 159.820541 
" clip-path="url(#p3fe30d7f33)" style="fill: none; stroke: #ffffff; stroke-width: 1.5; stroke-linecap: square"/>
    </g>
    <g id="line2d_67">
     <path d="M 297.000356 91.955088 
L 301.686827 92.732069 
" style="fill: none; stroke: #555555; stroke-width: 1.875; stroke-linecap: square"/>
    </g>
    <g id="text_20">
     <!-- $\mathdefault{4}$ -->
     <g style="fill: #555555" transform="translate(311.810608 99.756699)scale(0.165 -0.165)">
      <use xlink:href="#CMR17-34" transform="scale(0.996264)"/>
     </g>
    </g>
   </g>
   <g id="xtick_48">
    <g id="line2d_68">
     <path d="M 168.499459 159.820541 
" clip-path="url(#p3fe30d7f33)" style="fill: none; stroke: #ffffff; stroke-width: 1.5; stroke-linecap: square"/>
    </g>
    <g id="line2d_69">
     <path d="M 298.083591 66.039142 
L 302.810509 66.800945 
" style="fill: none; stroke: #555555; stroke-width: 1.875; stroke-linecap: square"/>
    </g>
    <g id="text_21">
     <!-- $\mathdefault{5}$ -->
     <g style="fill: #555555" transform="translate(313.047767 73.911494)scale(0.165 -0.165)">
      <defs>
       <path id="CMR17-35" d="M 730 3692 
C 794 3666 1056 3584 1325 3584 
C 1920 3584 2246 3911 2432 4100 
C 2432 4157 2432 4192 2394 4192 
C 2387 4192 2374 4192 2323 4163 
C 2099 4058 1837 3973 1517 3973 
C 1325 3973 1037 3999 723 4139 
C 653 4171 640 4171 634 4171 
C 602 4171 595 4164 595 4037 
L 595 2203 
C 595 2089 595 2057 659 2057 
C 691 2057 704 2070 736 2114 
C 941 2401 1222 2522 1542 2522 
C 1766 2522 2246 2382 2246 1289 
C 2246 1085 2246 715 2054 421 
C 1894 159 1645 25 1370 25 
C 947 25 518 320 403 814 
C 429 807 480 795 506 795 
C 589 795 749 840 749 1038 
C 749 1210 627 1280 506 1280 
C 358 1280 262 1190 262 1011 
C 262 454 704 -128 1382 -128 
C 2042 -128 2669 440 2669 1264 
C 2669 2030 2170 2624 1549 2624 
C 1222 2624 947 2503 730 2274 
L 730 3692 
z
" transform="scale(0.015625)"/>
      </defs>
      <use xlink:href="#CMR17-35" transform="scale(0.996264)"/>
     </g>
    </g>
   </g>
   <g id="xtick_49">
    <g id="line2d_70">
     <path d="M 293.044144 186.605832 
L 297.583026 187.435161 
" style="fill: none; stroke: #555555; stroke-width: 1.5; stroke-linecap: square"/>
    </g>
   </g>
   <g id="xtick_50">
    <g id="line2d_71">
     <path d="M 293.246283 181.769749 
L 297.7927 182.596521 
" style="fill: none; stroke: #555555; stroke-width: 1.5; stroke-linecap: square"/>
    </g>
   </g>
   <g id="xtick_51">
    <g id="line2d_72">
     <path d="M 293.449079 176.917942 
L 298.003057 177.742136 
" style="fill: none; stroke: #555555; stroke-width: 1.5; stroke-linecap: square"/>
    </g>
   </g>
   <g id="xtick_52">
    <g id="line2d_73">
     <path d="M 293.652535 172.050334 
L 298.214099 172.871929 
" style="fill: none; stroke: #555555; stroke-width: 1.5; stroke-linecap: square"/>
    </g>
   </g>
   <g id="xtick_53">
    <g id="line2d_74">
     <path d="M 294.061442 162.267408 
L 298.638254 163.08374 
" style="fill: none; stroke: #555555; stroke-width: 1.5; stroke-linecap: square"/>
    </g>
   </g>
   <g id="xtick_54">
    <g id="line2d_75">
     <path d="M 294.266899 157.351934 
L 298.851374 158.165602 
" style="fill: none; stroke: #555555; stroke-width: 1.5; stroke-linecap: square"/>
    </g>
   </g>
   <g id="xtick_55">
    <g id="line2d_76">
     <path d="M 294.473029 152.420347 
L 299.065192 153.231329 
" style="fill: none; stroke: #555555; stroke-width: 1.5; stroke-linecap: square"/>
    </g>
   </g>
   <g id="xtick_56">
    <g id="line2d_77">
     <path d="M 294.679837 147.472567 
L 299.279713 148.280841 
" style="fill: none; stroke: #555555; stroke-width: 1.5; stroke-linecap: square"/>
    </g>
   </g>
   <g id="xtick_57">
    <g id="line2d_78">
     <path d="M 295.095495 137.528112 
L 299.710877 138.330904 
" style="fill: none; stroke: #555555; stroke-width: 1.5; stroke-linecap: square"/>
    </g>
   </g>
   <g id="xtick_58">
    <g id="line2d_79">
     <path d="M 295.304353 132.531275 
L 299.927527 133.331291 
" style="fill: none; stroke: #555555; stroke-width: 1.5; stroke-linecap: square"/>
    </g>
   </g>
   <g id="xtick_59">
    <g id="line2d_80">
     <path d="M 295.513901 127.517923 
L 300.144894 128.315142 
" style="fill: none; stroke: #555555; stroke-width: 1.5; stroke-linecap: square"/>
    </g>
   </g>
   <g id="xtick_60">
    <g id="line2d_81">
     <path d="M 295.724143 122.487974 
L 300.36298 123.282372 
" style="fill: none; stroke: #555555; stroke-width: 1.5; stroke-linecap: square"/>
    </g>
   </g>
   <g id="xtick_61">
    <g id="line2d_82">
     <path d="M 296.146721 112.377956 
L 300.801329 113.166643 
" style="fill: none; stroke: #555555; stroke-width: 1.5; stroke-linecap: square"/>
    </g>
   </g>
   <g id="xtick_62">
    <g id="line2d_83">
     <path d="M 296.359065 107.297719 
L 301.021598 108.083515 
" style="fill: none; stroke: #555555; stroke-width: 1.5; stroke-linecap: square"/>
    </g>
   </g>
   <g id="xtick_63">
    <g id="line2d_84">
     <path d="M 296.572116 102.200552 
L 301.242601 102.983434 
" style="fill: none; stroke: #555555; stroke-width: 1.5; stroke-linecap: square"/>
    </g>
   </g>
   <g id="xtick_64">
    <g id="line2d_85">
     <path d="M 296.785879 97.08637 
L 301.464343 97.866314 
" style="fill: none; stroke: #555555; stroke-width: 1.5; stroke-linecap: square"/>
    </g>
   </g>
   <g id="xtick_65">
    <g id="line2d_86">
     <path d="M 297.215552 86.806619 
L 301.910057 87.580614 
" style="fill: none; stroke: #555555; stroke-width: 1.5; stroke-linecap: square"/>
    </g>
   </g>
   <g id="xtick_66">
    <g id="line2d_87">
     <path d="M 297.43147 81.640877 
L 302.134036 82.411861 
" style="fill: none; stroke: #555555; stroke-width: 1.5; stroke-linecap: square"/>
    </g>
   </g>
   <g id="xtick_67">
    <g id="line2d_88">
     <path d="M 297.648113 76.457776 
L 302.358769 77.225724 
" style="fill: none; stroke: #555555; stroke-width: 1.5; stroke-linecap: square"/>
    </g>
   </g>
   <g id="xtick_68">
    <g id="line2d_89">
     <path d="M 297.865485 71.257227 
L 302.584259 72.022115 
" style="fill: none; stroke: #555555; stroke-width: 1.5; stroke-linecap: square"/>
    </g>
   </g>
  </g>
  <g id="axes_1">
   <g id="Line3DCollection_4"/>
   <g id="Line3DCollection_5"/>
   <g id="Line3DCollection_6">
    <path d="M 122.22568 257.22875 
L 123.358102 256.78843 
L 148.384023 249.244471 
L 153.801078 247.525819 
L 175.407642 241.61956 
L 182.977747 239.564167 
L 203.500459 234.38101 
L 211.177625 232.584401 
L 232.848141 227.551057 
L 238.547521 226.453343 
L 263.950785 221.21061 
L 265.222795 221.037413 
" clip-path="url(#p3fe30d7f33)" style="fill: none; stroke: #000000; stroke-width: 2.25"/>
    <path d="M 210.892765 165.020432 
L 209.887064 165.390282 
L 187.188062 171.816307 
L 182.196854 173.30431 
L 161.993624 178.487775 
L 154.814028 180.317457 
L 135.103956 184.992042 
L 127.645732 186.632961 
L 106.331844 191.287827 
L 100.68885 192.31446 
L 75.196267 197.275512 
L 73.922427 197.441054 
" clip-path="url(#p3fe30d7f33)" style="fill: none; stroke: #000000; stroke-width: 2.25"/>
   </g>
   <g id="Line3DCollection_7">
    <path d="M 96.565697 237.854741 
L 105.820952 233.07642 
L 117.413688 228.928712 
L 138.53467 220.914855 
L 139.84708 220.52289 
L 164.880509 212.813446 
L 168.642754 211.733561 
L 192.751607 205.821113 
L 196.694741 205.010171 
L 223.326289 200.017145 
L 224.6874 199.751005 
L 248.764698 196.576351 
L 261.416041 194.70652 
L 273.447399 194.134518 
" clip-path="url(#p3fe30d7f33)" style="fill: none; stroke: #000000; stroke-width: 2.25"/>
    <path d="M 234.966822 155.768839 
L 226.912045 159.883545 
L 216.465721 163.51292 
L 197.04857 170.681926 
L 195.817831 171.037985 
L 171.999511 178.146992 
L 168.360593 179.159122 
L 144.734303 184.773799 
L 140.82796 185.553695 
L 114.178021 190.408795 
L 112.801145 190.670185 
L 88.44804 193.808791 
L 75.49607 195.675384 
L 63.337409 196.249088 
" clip-path="url(#p3fe30d7f33)" style="fill: none; stroke: #000000; stroke-width: 2.25"/>
   </g>
   <g id="Line3DCollection_8">
    <path d="M 79.791833 220.216469 
L 80.980784 219.203552 
L 95.709732 210.430157 
L 107.480032 200.084158 
L 101.337526 192.754692 
L 79.483498 190.609197 
L 58.195204 190.650165 
L 56.100968 190.458543 
" clip-path="url(#p3fe30d7f33)" style="fill: none; stroke: #000000; stroke-width: 2.25"/>
    <path d="M 250.914352 144.841306 
L 249.959544 145.717223 
L 237.348887 153.441219 
L 227.340966 162.87788 
L 234.171256 169.788924 
L 255.8987 171.848715 
L 276.79184 171.809224 
L 278.888461 171.993988 
" clip-path="url(#p3fe30d7f33)" style="fill: none; stroke: #000000; stroke-width: 2.25"/>
   </g>
   <g id="Line3DCollection_9">
    <path d="M 69.78091 203.832025 
L 75.921257 192.270893 
L 71.056168 186.29326 
L 51.56122 181.029442 
" clip-path="url(#p3fe30d7f33)" style="fill: none; stroke: #000000; stroke-width: 2.25"/>
    <path d="M 260.496583 132.601929 
L 256.656417 142.861369 
L 262.347723 148.343525 
L 282.266317 153.275654 
" clip-path="url(#p3fe30d7f33)" style="fill: none; stroke: #000000; stroke-width: 2.25"/>
   </g>
   <g id="Line3DCollection_10">
    <path d="M 59.706577 187.343799 
L 60.165335 184.562408 
L 50.938558 173.095566 
L 46.933779 171.418201 
" clip-path="url(#p3fe30d7f33)" style="fill: none; stroke: #000000; stroke-width: 2.25"/>
    <path d="M 270.199067 120.208953 
L 270.302274 122.652245 
L 281.418585 133.002306 
L 285.644617 134.554855 
" clip-path="url(#p3fe30d7f33)" style="fill: none; stroke: #000000; stroke-width: 2.25"/>
   </g>
   <g id="Line3DCollection_11">
    <path d="M 52.985476 171.39335 
L 43.690448 159.88987 
" clip-path="url(#p3fe30d7f33)" style="fill: none; stroke: #000000; stroke-width: 2.25"/>
    <path d="M 276.686684 107.095154 
L 288.018664 117.412367 
" clip-path="url(#p3fe30d7f33)" style="fill: none; stroke: #000000; stroke-width: 2.25"/>
   </g>
   <g id="Line3DCollection_12">
    <path d="M 46.884445 155.445207 
L 40.68634 147.838485 
" clip-path="url(#p3fe30d7f33)" style="fill: none; stroke: #000000; stroke-width: 2.25"/>
    <path d="M 282.591185 93.721029 
L 290.204135 100.516137 
" clip-path="url(#p3fe30d7f33)" style="fill: none; stroke: #000000; stroke-width: 2.25"/>
   </g>
   <g id="Line3DCollection_13">
    <path d="M 40.734984 139.370472 
L 37.635398 135.599215 
" clip-path="url(#p3fe30d7f33)" style="fill: none; stroke: #000000; stroke-width: 2.25"/>
    <path d="M 288.562569 80.195412 
L 292.398555 83.550727 
" clip-path="url(#p3fe30d7f33)" style="fill: none; stroke: #000000; stroke-width: 2.25"/>
   </g>
   <g id="Poly3DCollection_1">
    <path d="M 125.403474 171.379801 
L 132.806718 162.70362 
L 113.840168 159.812293 
z
" clip-path="url(#p3fe30d7f33)" style="fill: #040201; fill-opacity: 0.9"/>
    <path d="M 113.840168 159.812293 
L 106.284183 168.854166 
L 125.403474 171.379801 
z
" clip-path="url(#p3fe30d7f33)" style="fill: #040201; fill-opacity: 0.9"/>
    <path d="M 151.910893 165.172034 
L 132.806718 162.70362 
L 144.665084 173.195054 
z
" clip-path="url(#p3fe30d7f33)" style="fill: #060402; fill-opacity: 0.9"/>
    <path d="M 132.806718 162.70362 
L 125.403474 171.379801 
L 144.665084 173.195054 
z
" clip-path="url(#p3fe30d7f33)" style="fill: #060402; fill-opacity: 0.9"/>
    <path d="M 144.665084 173.195054 
L 171.163099 166.882512 
L 151.910893 165.172034 
z
" clip-path="url(#p3fe30d7f33)" style="fill: #090503; fill-opacity: 0.9"/>
    <path d="M 125.403474 171.379801 
L 106.284183 168.854166 
L 98.567823 177.627519 
z
" clip-path="url(#p3fe30d7f33)" style="fill: #050302; fill-opacity: 0.9"/>
    <path d="M 164.084237 173.819004 
L 171.163099 166.882512 
L 144.665084 173.195054 
z
" clip-path="url(#p3fe30d7f33)" style="fill: #0e0905; fill-opacity: 0.9"/>
    <path d="M 144.665084 173.195054 
L 125.403474 171.379801 
L 117.838204 179.498366 
z
" clip-path="url(#p3fe30d7f33)" style="fill: #090503; fill-opacity: 0.9"/>
    <path d="M 190.584474 167.247151 
L 171.163099 166.882512 
L 183.690244 172.538096 
z
" clip-path="url(#p3fe30d7f33)" style="fill: #140c08; fill-opacity: 0.9"/>
    <path d="M 98.567823 177.627519 
L 117.838204 179.498366 
L 125.403474 171.379801 
z
" clip-path="url(#p3fe30d7f33)" style="fill: #070503; fill-opacity: 0.9"/>
    <path d="M 183.690244 172.538096 
L 171.163099 166.882512 
L 164.084237 173.819004 
z
" clip-path="url(#p3fe30d7f33)" style="fill: #140c08; fill-opacity: 0.9"/>
    <path d="M 144.665084 173.195054 
L 117.838204 179.498366 
L 137.256826 180.246514 
z
" clip-path="url(#p3fe30d7f33)" style="fill: #0c0805; fill-opacity: 0.9"/>
    <path d="M 203.534065 168.443243 
L 210.218057 165.231222 
L 190.584474 167.247151 
z
" clip-path="url(#p3fe30d7f33)" style="fill: #23160e; fill-opacity: 0.9"/>
    <path d="M 144.665084 173.195054 
L 156.845897 179.307909 
L 164.084237 173.819004 
z
" clip-path="url(#p3fe30d7f33)" style="fill: #140c08; fill-opacity: 0.9"/>
    <path d="M 190.584474 167.247151 
L 183.690244 172.538096 
L 203.534065 168.443243 
z
" clip-path="url(#p3fe30d7f33)" style="fill: #21150d; fill-opacity: 0.9"/>
    <path d="M 110.090836 186.570518 
L 117.838204 179.498366 
L 98.567823 177.627519 
z
" clip-path="url(#p3fe30d7f33)" style="fill: #0b0704; fill-opacity: 0.9"/>
    <path d="M 137.256826 180.246514 
L 156.845897 179.307909 
L 144.665084 173.195054 
z
" clip-path="url(#p3fe30d7f33)" style="fill: #140c08; fill-opacity: 0.9"/>
    <path d="M 164.084237 173.819004 
L 156.845897 179.307909 
L 183.690244 172.538096 
z
" clip-path="url(#p3fe30d7f33)" style="fill: #1a100a; fill-opacity: 0.9"/>
    <path d="M 203.534065 168.443243 
L 230.151071 159.003804 
L 210.218057 165.231222 
z
" clip-path="url(#p3fe30d7f33)" style="fill: #301e13; fill-opacity: 0.9"/>
    <path d="M 110.090836 186.570518 
L 98.567823 177.627519 
L 90.673933 185.79283 
z
" clip-path="url(#p3fe30d7f33)" style="fill: #0b0704; fill-opacity: 0.9"/>
    <path d="M 137.256826 180.246514 
L 117.838204 179.498366 
L 129.665049 185.750991 
z
" clip-path="url(#p3fe30d7f33)" style="fill: #140c08; fill-opacity: 0.9"/>
    <path d="M 117.838204 179.498366 
L 110.090836 186.570518 
L 129.665049 185.750991 
z
" clip-path="url(#p3fe30d7f33)" style="fill: #140c08; fill-opacity: 0.9"/>
    <path d="M 156.845897 179.307909 
L 176.64295 176.153851 
L 183.690244 172.538096 
z
" clip-path="url(#p3fe30d7f33)" style="fill: #24170e; fill-opacity: 0.9"/>
    <path d="M 203.534065 168.443243 
L 183.690244 172.538096 
L 176.64295 176.153851 
z
" clip-path="url(#p3fe30d7f33)" style="fill: #2b1b11; fill-opacity: 0.9"/>
    <path d="M 223.689262 160.758874 
L 230.151071 159.003804 
L 203.534065 168.443243 
z
" clip-path="url(#p3fe30d7f33)" style="fill: #3f2819; fill-opacity: 0.9"/>
    <path d="M 90.673933 185.79283 
L 82.573541 192.747963 
L 110.090836 186.570518 
z
" clip-path="url(#p3fe30d7f33)" style="fill: #100a06; fill-opacity: 0.9"/>
    <path d="M 149.4288 182.993144 
L 156.845897 179.307909 
L 137.256826 180.246514 
z
" clip-path="url(#p3fe30d7f33)" style="fill: #1f140c; fill-opacity: 0.9"/>
    <path d="M 137.256826 180.246514 
L 129.665049 185.750991 
L 149.4288 182.993144 
z
" clip-path="url(#p3fe30d7f33)" style="fill: #1f140c; fill-opacity: 0.9"/>
    <path d="M 230.151071 159.003804 
L 244.22515 149.757507 
L 250.559583 145.294453 
z
" clip-path="url(#p3fe30d7f33)" style="fill: #5d3b25; fill-opacity: 0.9"/>
    <path d="M 149.4288 182.993144 
L 176.64295 176.153851 
L 156.845897 179.307909 
z
" clip-path="url(#p3fe30d7f33)" style="fill: #291a10; fill-opacity: 0.9"/>
    <path d="M 223.689262 160.758874 
L 244.22515 149.757507 
L 230.151071 159.003804 
z
" clip-path="url(#p3fe30d7f33)" style="fill: #553622; fill-opacity: 0.9"/>
    <path d="M 203.534065 168.443243 
L 176.64295 176.153851 
L 196.695204 170.803902 
z
" clip-path="url(#p3fe30d7f33)" style="fill: #392417; fill-opacity: 0.9"/>
    <path d="M 110.090836 186.570518 
L 82.573541 192.747963 
L 102.129993 191.8638 
z
" clip-path="url(#p3fe30d7f33)" style="fill: #160e09; fill-opacity: 0.9"/>
    <path d="M 121.862287 189.158977 
L 129.665049 185.750991 
L 110.090836 186.570518 
z
" clip-path="url(#p3fe30d7f33)" style="fill: #20140d; fill-opacity: 0.9"/>
    <path d="M 203.534065 168.443243 
L 217.027426 164.691009 
L 223.689262 160.758874 
z
" clip-path="url(#p3fe30d7f33)" style="fill: #4b301e; fill-opacity: 0.9"/>
    <path d="M 196.695204 170.803902 
L 217.027426 164.691009 
L 203.534065 168.443243 
z
" clip-path="url(#p3fe30d7f33)" style="fill: #492e1d; fill-opacity: 0.9"/>
    <path d="M 121.862287 189.158977 
L 110.090836 186.570518 
L 102.129993 191.8638 
z
" clip-path="url(#p3fe30d7f33)" style="fill: #20140d; fill-opacity: 0.9"/>
    <path d="M 169.423914 178.667939 
L 176.64295 176.153851 
L 149.4288 182.993144 
z
" clip-path="url(#p3fe30d7f33)" style="fill: #362216; fill-opacity: 0.9"/>
    <path d="M 121.862287 189.158977 
L 149.4288 182.993144 
L 129.665049 185.750991 
z
" clip-path="url(#p3fe30d7f33)" style="fill: #291a10; fill-opacity: 0.9"/>
    <path d="M 244.22515 149.757507 
L 271.799763 118.164384 
L 250.559583 145.294453 
z
" clip-path="url(#p3fe30d7f33)" style="fill: #855436; fill-opacity: 0.9"/>
    <path d="M 196.695204 170.803902 
L 176.64295 176.153851 
L 189.67291 174.572317 
z
" clip-path="url(#p3fe30d7f33)" style="fill: #442b1b; fill-opacity: 0.9"/>
    <path d="M 102.129993 191.8638 
L 82.573541 192.747963 
L 93.910013 194.434276 
z
" clip-path="url(#p3fe30d7f33)" style="fill: #21150d; fill-opacity: 0.9"/>
    <path d="M 237.584182 161.077114 
L 244.22515 149.757507 
L 223.689262 160.758874 
z
" clip-path="url(#p3fe30d7f33)" style="fill: #68422a; fill-opacity: 0.9"/>
    <path d="M 189.67291 174.572317 
L 176.64295 176.153851 
L 169.423914 178.667939 
z
" clip-path="url(#p3fe30d7f33)" style="fill: #432a1b; fill-opacity: 0.9"/>
    <path d="M 223.689262 160.758874 
L 217.027426 164.691009 
L 237.584182 161.077114 
z
" clip-path="url(#p3fe30d7f33)" style="fill: #603d27; fill-opacity: 0.9"/>
    <path d="M 93.910013 194.434276 
L 82.573541 192.747963 
L 74.215348 197.424441 
z
" clip-path="url(#p3fe30d7f33)" style="fill: #23160e; fill-opacity: 0.9"/>
    <path d="M 141.815443 185.227431 
L 149.4288 182.993144 
L 121.862287 189.158977 
z
" clip-path="url(#p3fe30d7f33)" style="fill: #362216; fill-opacity: 0.9"/>
    <path d="M 189.67291 174.572317 
L 217.027426 164.691009 
L 196.695204 170.803902 
z
" clip-path="url(#p3fe30d7f33)" style="fill: #543522; fill-opacity: 0.9"/>
    <path d="M 102.129993 191.8638 
L 93.910013 194.434276 
L 121.862287 189.158977 
z
" clip-path="url(#p3fe30d7f33)" style="fill: #2b1b11; fill-opacity: 0.9"/>
    <path d="M 265.1269 138.162442 
L 271.799763 118.164384 
L 244.22515 149.757507 
z
" clip-path="url(#p3fe30d7f33)" style="fill: #975f3d; fill-opacity: 0.9"/>
    <path d="M 149.4288 182.993144 
L 162.02225 182.087009 
L 169.423914 178.667939 
z
" clip-path="url(#p3fe30d7f33)" style="fill: #432a1b; fill-opacity: 0.9"/>
    <path d="M 265.1269 138.162442 
L 244.22515 149.757507 
L 237.584182 161.077114 
z
" clip-path="url(#p3fe30d7f33)" style="fill: #805134; fill-opacity: 0.9"/>
    <path d="M 149.4288 182.993144 
L 141.815443 185.227431 
L 162.02225 182.087009 
z
" clip-path="url(#p3fe30d7f33)" style="fill: #432a1b; fill-opacity: 0.9"/>
    <path d="M 162.02225 182.087009 
L 189.67291 174.572317 
L 169.423914 178.667939 
z
" clip-path="url(#p3fe30d7f33)" style="fill: #4f3220; fill-opacity: 0.9"/>
    <path d="M 210.131994 173.788395 
L 217.027426 164.691009 
L 189.67291 174.572317 
z
" clip-path="url(#p3fe30d7f33)" style="fill: #5e3b26; fill-opacity: 0.9"/>
    <path d="M 286.19796 131.488513 
L 271.799763 118.164384 
L 265.1269 138.162442 
z
" clip-path="url(#p3fe30d7f33)" style="fill: #ac6d45; fill-opacity: 0.9"/>
    <path d="M 237.584182 161.077114 
L 217.027426 164.691009 
L 210.131994 173.788395 
z
" clip-path="url(#p3fe30d7f33)" style="fill: #674129; fill-opacity: 0.9"/>
    <path d="M 93.910013 194.434276 
L 113.824112 190.466357 
L 121.862287 189.158977 
z
" clip-path="url(#p3fe30d7f33)" style="fill: #392417; fill-opacity: 0.9"/>
    <path d="M 74.215348 197.424441 
L 65.50555 197.91842 
L 93.910013 194.434276 
z
" clip-path="url(#p3fe30d7f33)" style="fill: #301e13; fill-opacity: 0.9"/>
    <path d="M 237.584182 161.077114 
L 258.21254 163.492121 
L 265.1269 138.162442 
z
" clip-path="url(#p3fe30d7f33)" style="fill: #805134; fill-opacity: 0.9"/>
    <path d="M 134.007614 187.807135 
L 141.815443 185.227431 
L 121.862287 189.158977 
z
" clip-path="url(#p3fe30d7f33)" style="fill: #432a1b; fill-opacity: 0.9"/>
    <path d="M 258.21254 163.492121 
L 286.19796 131.488513 
L 265.1269 138.162442 
z
" clip-path="url(#p3fe30d7f33)" style="fill: #975f3d; fill-opacity: 0.9"/>
    <path d="M 121.862287 189.158977 
L 113.824112 190.466357 
L 134.007614 187.807135 
z
" clip-path="url(#p3fe30d7f33)" style="fill: #442b1b; fill-opacity: 0.9"/>
    <path d="M 210.131994 173.788395 
L 230.687155 178.682415 
L 237.584182 161.077114 
z
" clip-path="url(#p3fe30d7f33)" style="fill: #674129; fill-opacity: 0.9"/>
    <path d="M 294.601978 66.515711 
L 271.799763 118.164384 
L 286.19796 131.488513 
z
" clip-path="url(#p3fe30d7f33)" style="fill: #e28f5b; fill-opacity: 0.9"/>
    <path d="M 237.584182 161.077114 
L 251.23886 188.678051 
L 258.21254 163.492121 
z
" clip-path="url(#p3fe30d7f33)" style="fill: #68422a; fill-opacity: 0.9"/>
    <path d="M 182.456397 182.694273 
L 189.67291 174.572317 
L 162.02225 182.087009 
z
" clip-path="url(#p3fe30d7f33)" style="fill: #583723; fill-opacity: 0.9"/>
    <path d="M 258.21254 163.492121 
L 278.7626 172.691443 
L 286.19796 131.488513 
z
" clip-path="url(#p3fe30d7f33)" style="fill: #855436; fill-opacity: 0.9"/>
    <path d="M 189.67291 174.572317 
L 203.02377 188.776754 
L 210.131994 173.788395 
z
" clip-path="url(#p3fe30d7f33)" style="fill: #5a3924; fill-opacity: 0.9"/>
    <path d="M 230.687155 178.682415 
L 251.23886 188.678051 
L 237.584182 161.077114 
z
" clip-path="url(#p3fe30d7f33)" style="fill: #603d27; fill-opacity: 0.9"/>
    <path d="M 278.7626 172.691443 
L 258.21254 163.492121 
L 251.23886 188.678051 
z
" clip-path="url(#p3fe30d7f33)" style="fill: #643f28; fill-opacity: 0.9"/>
    <path d="M 113.824112 190.466357 
L 93.910013 194.434276 
L 85.376541 193.457055 
z
" clip-path="url(#p3fe30d7f33)" style="fill: #432a1b; fill-opacity: 0.9"/>
    <path d="M 154.45129 189.394561 
L 162.02225 182.087009 
L 141.815443 185.227431 
z
" clip-path="url(#p3fe30d7f33)" style="fill: #523421; fill-opacity: 0.9"/>
    <path d="M 93.910013 194.434276 
L 65.50555 197.91842 
L 85.376541 193.457055 
z
" clip-path="url(#p3fe30d7f33)" style="fill: #3f2819; fill-opacity: 0.9"/>
    <path d="M 182.456397 182.694273 
L 203.02377 188.776754 
L 189.67291 174.572317 
z
" clip-path="url(#p3fe30d7f33)" style="fill: #593824; fill-opacity: 0.9"/>
    <path d="M 210.131994 173.788395 
L 203.02377 188.776754 
L 230.687155 178.682415 
z
" clip-path="url(#p3fe30d7f33)" style="fill: #5e3b26; fill-opacity: 0.9"/>
    <path d="M 271.783386 200.847632 
L 278.7626 172.691443 
L 251.23886 188.678051 
z
" clip-path="url(#p3fe30d7f33)" style="fill: #503320; fill-opacity: 0.9"/>
    <path d="M 141.815443 185.227431 
L 134.007614 187.807135 
L 154.45129 189.394561 
z
" clip-path="url(#p3fe30d7f33)" style="fill: #533421; fill-opacity: 0.9"/>
    <path d="M 251.23886 188.678051 
L 230.687155 178.682415 
L 223.63457 199.151132 
z
" clip-path="url(#p3fe30d7f33)" style="fill: #523421; fill-opacity: 0.9"/>
    <path d="M 162.02225 182.087009 
L 175.067709 196.485628 
L 182.456397 182.694273 
z
" clip-path="url(#p3fe30d7f33)" style="fill: #583723; fill-opacity: 0.9"/>
    <path d="M 230.687155 178.682415 
L 203.02377 188.776754 
L 223.63457 199.151132 
z
" clip-path="url(#p3fe30d7f33)" style="fill: #543522; fill-opacity: 0.9"/>
    <path d="M 251.23886 188.678051 
L 264.989789 221.754472 
L 271.783386 200.847632 
z
" clip-path="url(#p3fe30d7f33)" style="fill: #3a2517; fill-opacity: 0.9"/>
    <path d="M 223.63457 199.151132 
L 244.274314 210.911065 
L 251.23886 188.678051 
z
" clip-path="url(#p3fe30d7f33)" style="fill: #432a1b; fill-opacity: 0.9"/>
    <path d="M 113.824112 190.466357 
L 85.376541 193.457055 
L 105.555089 191.10575 
z
" clip-path="url(#p3fe30d7f33)" style="fill: #523421; fill-opacity: 0.9"/>
    <path d="M 154.45129 189.394561 
L 175.067709 196.485628 
L 162.02225 182.087009 
z
" clip-path="url(#p3fe30d7f33)" style="fill: #583723; fill-opacity: 0.9"/>
    <path d="M 251.23886 188.678051 
L 244.274314 210.911065 
L 264.989789 221.754472 
z
" clip-path="url(#p3fe30d7f33)" style="fill: #362216; fill-opacity: 0.9"/>
    <path d="M 126.044495 193.861398 
L 134.007614 187.807135 
L 113.824112 190.466357 
z
" clip-path="url(#p3fe30d7f33)" style="fill: #553622; fill-opacity: 0.9"/>
    <path d="M 182.456397 182.694273 
L 175.067709 196.485628 
L 203.02377 188.776754 
z
" clip-path="url(#p3fe30d7f33)" style="fill: #583723; fill-opacity: 0.9"/>
    <path d="M 203.02377 188.776754 
L 216.495195 219.206882 
L 223.63457 199.151132 
z
" clip-path="url(#p3fe30d7f33)" style="fill: #442b1b; fill-opacity: 0.9"/>
    <path d="M 105.555089 191.10575 
L 126.044495 193.861398 
L 113.824112 190.466357 
z
" clip-path="url(#p3fe30d7f33)" style="fill: #583723; fill-opacity: 0.9"/>
    <path d="M 85.376541 193.457055 
L 65.50555 197.91842 
L 76.496467 189.165692 
z
" clip-path="url(#p3fe30d7f33)" style="fill: #553622; fill-opacity: 0.9"/>
    <path d="M 223.63457 199.151132 
L 216.495195 219.206882 
L 244.274314 210.911065 
z
" clip-path="url(#p3fe30d7f33)" style="fill: #392417; fill-opacity: 0.9"/>
    <path d="M 203.02377 188.776754 
L 175.067709 196.485628 
L 195.759493 207.409003 
z
" clip-path="url(#p3fe30d7f33)" style="fill: #4f3220; fill-opacity: 0.9"/>
    <path d="M 154.45129 189.394561 
L 134.007614 187.807135 
L 146.746881 202.386363 
z
" clip-path="url(#p3fe30d7f33)" style="fill: #593824; fill-opacity: 0.9"/>
    <path d="M 195.759493 207.409003 
L 216.495195 219.206882 
L 203.02377 188.776754 
z
" clip-path="url(#p3fe30d7f33)" style="fill: #432a1b; fill-opacity: 0.9"/>
    <path d="M 258.234708 238.635998 
L 264.989789 221.754472 
L 244.274314 210.911065 
z
" clip-path="url(#p3fe30d7f33)" style="fill: #23160e; fill-opacity: 0.9"/>
    <path d="M 76.496467 189.165692 
L 65.50555 197.91842 
L 56.268471 190.806449 
z
" clip-path="url(#p3fe30d7f33)" style="fill: #5d3b25; fill-opacity: 0.9"/>
    <path d="M 244.274314 210.911065 
L 216.495195 219.206882 
L 237.305093 229.82524 
z
" clip-path="url(#p3fe30d7f33)" style="fill: #2b1b11; fill-opacity: 0.9"/>
    <path d="M 146.746881 202.386363 
L 175.067709 196.485628 
L 154.45129 189.394561 
z
" clip-path="url(#p3fe30d7f33)" style="fill: #583723; fill-opacity: 0.9"/>
    <path d="M 146.746881 202.386363 
L 134.007614 187.807135 
L 126.044495 193.861398 
z
" clip-path="url(#p3fe30d7f33)" style="fill: #5a3924; fill-opacity: 0.9"/>
    <path d="M 105.555089 191.10575 
L 85.376541 193.457055 
L 76.496467 189.165692 
z
" clip-path="url(#p3fe30d7f33)" style="fill: #623e27; fill-opacity: 0.9"/>
    <path d="M 237.305093 229.82524 
L 258.234708 238.635998 
L 244.274314 210.911065 
z
" clip-path="url(#p3fe30d7f33)" style="fill: #21150d; fill-opacity: 0.9"/>
    <path d="M 175.067709 196.485628 
L 188.381489 226.616183 
L 195.759493 207.409003 
z
" clip-path="url(#p3fe30d7f33)" style="fill: #432a1b; fill-opacity: 0.9"/>
    <path d="M 188.381489 226.616183 
L 216.495195 219.206882 
L 195.759493 207.409003 
z
" clip-path="url(#p3fe30d7f33)" style="fill: #362216; fill-opacity: 0.9"/>
    <path d="M 167.542702 214.344244 
L 175.067709 196.485628 
L 146.746881 202.386363 
z
" clip-path="url(#p3fe30d7f33)" style="fill: #4f3220; fill-opacity: 0.9"/>
    <path d="M 167.542702 214.344244 
L 188.381489 226.616183 
L 175.067709 196.485628 
z
" clip-path="url(#p3fe30d7f33)" style="fill: #432a1b; fill-opacity: 0.9"/>
    <path d="M 126.044495 193.861398 
L 105.555089 191.10575 
L 97.120219 194.403535 
z
" clip-path="url(#p3fe30d7f33)" style="fill: #674129; fill-opacity: 0.9"/>
    <path d="M 216.495195 219.206882 
L 230.289787 246.141391 
L 237.305093 229.82524 
z
" clip-path="url(#p3fe30d7f33)" style="fill: #20140d; fill-opacity: 0.9"/>
    <path d="M 209.282977 237.350806 
L 216.495195 219.206882 
L 188.381489 226.616183 
z
" clip-path="url(#p3fe30d7f33)" style="fill: #291a10; fill-opacity: 0.9"/>
    <path d="M 230.289787 246.141391 
L 258.234708 238.635998 
L 237.305093 229.82524 
z
" clip-path="url(#p3fe30d7f33)" style="fill: #160e09; fill-opacity: 0.9"/>
    <path d="M 97.120219 194.403535 
L 105.555089 191.10575 
L 76.496467 189.165692 
z
" clip-path="url(#p3fe30d7f33)" style="fill: #6d452c; fill-opacity: 0.9"/>
    <path d="M 209.282977 237.350806 
L 230.289787 246.141391 
L 216.495195 219.206882 
z
" clip-path="url(#p3fe30d7f33)" style="fill: #20140d; fill-opacity: 0.9"/>
    <path d="M 146.746881 202.386363 
L 126.044495 193.861398 
L 117.988251 205.846157 
z
" clip-path="url(#p3fe30d7f33)" style="fill: #5e3b26; fill-opacity: 0.9"/>
    <path d="M 146.746881 202.386363 
L 159.898709 233.342369 
L 167.542702 214.344244 
z
" clip-path="url(#p3fe30d7f33)" style="fill: #432a1b; fill-opacity: 0.9"/>
    <path d="M 167.542702 214.344244 
L 159.898709 233.342369 
L 188.381489 226.616183 
z
" clip-path="url(#p3fe30d7f33)" style="fill: #362216; fill-opacity: 0.9"/>
    <path d="M 97.120219 194.403535 
L 117.988251 205.846157 
L 126.044495 193.861398 
z
" clip-path="url(#p3fe30d7f33)" style="fill: #674129; fill-opacity: 0.9"/>
    <path d="M 230.289787 246.141391 
L 251.436235 253.315867 
L 258.234708 238.635998 
z
" clip-path="url(#p3fe30d7f33)" style="fill: #100a06; fill-opacity: 0.9"/>
    <path d="M 146.746881 202.386363 
L 117.988251 205.846157 
L 138.936237 219.940566 
z
" clip-path="url(#p3fe30d7f33)" style="fill: #543522; fill-opacity: 0.9"/>
    <path d="M 138.936237 219.940566 
L 159.898709 233.342369 
L 146.746881 202.386363 
z
" clip-path="url(#p3fe30d7f33)" style="fill: #442b1b; fill-opacity: 0.9"/>
    <path d="M 188.381489 226.616183 
L 201.9805 253.510274 
L 209.282977 237.350806 
z
" clip-path="url(#p3fe30d7f33)" style="fill: #1f140c; fill-opacity: 0.9"/>
    <path d="M 56.268471 190.806449 
L 46.167361 169.826343 
L 76.496467 189.165692 
z
" clip-path="url(#p3fe30d7f33)" style="fill: #855436; fill-opacity: 0.9"/>
    <path d="M 188.381489 226.616183 
L 159.898709 233.342369 
L 180.897211 244.54937 
z
" clip-path="url(#p3fe30d7f33)" style="fill: #291a10; fill-opacity: 0.9"/>
    <path d="M 223.189027 260.749064 
L 230.289787 246.141391 
L 209.282977 237.350806 
z
" clip-path="url(#p3fe30d7f33)" style="fill: #140c08; fill-opacity: 0.9"/>
    <path d="M 180.897211 244.54937 
L 201.9805 253.510274 
L 188.381489 226.616183 
z
" clip-path="url(#p3fe30d7f33)" style="fill: #1f140c; fill-opacity: 0.9"/>
    <path d="M 97.120219 194.403535 
L 76.496467 189.165692 
L 88.631853 204.021287 
z
" clip-path="url(#p3fe30d7f33)" style="fill: #74492f; fill-opacity: 0.9"/>
    <path d="M 251.436235 253.315867 
L 230.289787 246.141391 
L 223.189027 260.749064 
z
" clip-path="url(#p3fe30d7f33)" style="fill: #0e0905; fill-opacity: 0.9"/>
    <path d="M 209.282977 237.350806 
L 201.9805 253.510274 
L 223.189027 260.749064 
z
" clip-path="url(#p3fe30d7f33)" style="fill: #140c08; fill-opacity: 0.9"/>
    <path d="M 88.631853 204.021287 
L 117.988251 205.846157 
L 97.120219 194.403535 
z
" clip-path="url(#p3fe30d7f33)" style="fill: #6d452c; fill-opacity: 0.9"/>
    <path d="M 138.936237 219.940566 
L 117.988251 205.846157 
L 131.013651 239.162526 
z
" clip-path="url(#p3fe30d7f33)" style="fill: #492e1d; fill-opacity: 0.9"/>
    <path d="M 131.013651 239.162526 
L 159.898709 233.342369 
L 138.936237 219.940566 
z
" clip-path="url(#p3fe30d7f33)" style="fill: #392417; fill-opacity: 0.9"/>
    <path d="M 159.898709 233.342369 
L 173.292555 260.785697 
L 180.897211 244.54937 
z
" clip-path="url(#p3fe30d7f33)" style="fill: #20140d; fill-opacity: 0.9"/>
    <path d="M 88.631853 204.021287 
L 76.496467 189.165692 
L 67.323003 184.322181 
z
" clip-path="url(#p3fe30d7f33)" style="fill: #825234; fill-opacity: 0.9"/>
    <path d="M 117.988251 205.846157 
L 109.871249 223.253114 
L 131.013651 239.162526 
z
" clip-path="url(#p3fe30d7f33)" style="fill: #4b301e; fill-opacity: 0.9"/>
    <path d="M 76.496467 189.165692 
L 46.167361 169.826343 
L 67.323003 184.322181 
z
" clip-path="url(#p3fe30d7f33)" style="fill: #975f3d; fill-opacity: 0.9"/>
    <path d="M 88.631853 204.021287 
L 109.871249 223.253114 
L 117.988251 205.846157 
z
" clip-path="url(#p3fe30d7f33)" style="fill: #623e27; fill-opacity: 0.9"/>
    <path d="M 152.127995 251.417511 
L 159.898709 233.342369 
L 131.013651 239.162526 
z
" clip-path="url(#p3fe30d7f33)" style="fill: #2b1b11; fill-opacity: 0.9"/>
    <path d="M 244.547554 266.836873 
L 251.436235 253.315867 
L 223.189027 260.749064 
z
" clip-path="url(#p3fe30d7f33)" style="fill: #090503; fill-opacity: 0.9"/>
    <path d="M 194.563358 268.190092 
L 201.9805 253.510274 
L 180.897211 244.54937 
z
" clip-path="url(#p3fe30d7f33)" style="fill: #140c08; fill-opacity: 0.9"/>
    <path d="M 152.127995 251.417511 
L 173.292555 260.785697 
L 159.898709 233.342369 
z
" clip-path="url(#p3fe30d7f33)" style="fill: #20140d; fill-opacity: 0.9"/>
    <path d="M 201.9805 253.510274 
L 194.563358 268.190092 
L 223.189027 260.749064 
z
" clip-path="url(#p3fe30d7f33)" style="fill: #0c0805; fill-opacity: 0.9"/>
    <path d="M 180.897211 244.54937 
L 173.292555 260.785697 
L 194.563358 268.190092 
z
" clip-path="url(#p3fe30d7f33)" style="fill: #140c08; fill-opacity: 0.9"/>
    <path d="M 131.013651 239.162526 
L 109.871249 223.253114 
L 101.666959 243.151222 
z
" clip-path="url(#p3fe30d7f33)" style="fill: #3f2819; fill-opacity: 0.9"/>
    <path d="M 101.666959 243.151222 
L 109.871249 223.253114 
L 88.631853 204.021287 
z
" clip-path="url(#p3fe30d7f33)" style="fill: #553622; fill-opacity: 0.9"/>
    <path d="M 131.013651 239.162526 
L 144.212119 267.923017 
L 152.127995 251.417511 
z
" clip-path="url(#p3fe30d7f33)" style="fill: #21150d; fill-opacity: 0.9"/>
    <path d="M 223.189027 260.749064 
L 194.563358 268.190092 
L 215.973547 274.36261 
z
" clip-path="url(#p3fe30d7f33)" style="fill: #090503; fill-opacity: 0.9"/>
    <path d="M 223.189027 260.749064 
L 237.540892 279.800118 
L 244.547554 266.836873 
z
" clip-path="url(#p3fe30d7f33)" style="fill: #060402; fill-opacity: 0.9"/>
    <path d="M 131.013651 239.162526 
L 101.666959 243.151222 
L 122.951107 257.725483 
z
" clip-path="url(#p3fe30d7f33)" style="fill: #301e13; fill-opacity: 0.9"/>
    <path d="M 165.548775 275.639824 
L 173.292555 260.785697 
L 152.127995 251.417511 
z
" clip-path="url(#p3fe30d7f33)" style="fill: #140c08; fill-opacity: 0.9"/>
    <path d="M 122.951107 257.725483 
L 144.212119 267.923017 
L 131.013651 239.162526 
z
" clip-path="url(#p3fe30d7f33)" style="fill: #23160e; fill-opacity: 0.9"/>
    <path d="M 80.163653 220.825012 
L 101.666959 243.151222 
L 88.631853 204.021287 
z
" clip-path="url(#p3fe30d7f33)" style="fill: #5d3b25; fill-opacity: 0.9"/>
    <path d="M 215.973547 274.36261 
L 237.540892 279.800118 
L 223.189027 260.749064 
z
" clip-path="url(#p3fe30d7f33)" style="fill: #060402; fill-opacity: 0.9"/>
    <path d="M 67.323003 184.322181 
L 58.05051 184.633385 
L 88.631853 204.021287 
z
" clip-path="url(#p3fe30d7f33)" style="fill: #975f3d; fill-opacity: 0.9"/>
    <path d="M 173.292555 260.785697 
L 165.548775 275.639824 
L 194.563358 268.190092 
z
" clip-path="url(#p3fe30d7f33)" style="fill: #0e0905; fill-opacity: 0.9"/>
    <path d="M 46.167361 169.826343 
L 58.05051 184.633385 
L 67.323003 184.322181 
z
" clip-path="url(#p3fe30d7f33)" style="fill: #ac6d45; fill-opacity: 0.9"/>
    <path d="M 152.127995 251.417511 
L 144.212119 267.923017 
L 165.548775 275.639824 
z
" clip-path="url(#p3fe30d7f33)" style="fill: #140c08; fill-opacity: 0.9"/>
    <path d="M 88.631853 204.021287 
L 58.05051 184.633385 
L 80.163653 220.825012 
z
" clip-path="url(#p3fe30d7f33)" style="fill: #855436; fill-opacity: 0.9"/>
    <path d="M 194.563358 268.190092 
L 208.623231 287.47282 
L 215.973547 274.36261 
z
" clip-path="url(#p3fe30d7f33)" style="fill: #060402; fill-opacity: 0.9"/>
    <path d="M 194.563358 268.190092 
L 165.548775 275.639824 
L 187.0108 281.951739 
z
" clip-path="url(#p3fe30d7f33)" style="fill: #090503; fill-opacity: 0.9"/>
    <path d="M 208.623231 287.47282 
L 237.540892 279.800118 
L 215.973547 274.36261 
z
" clip-path="url(#p3fe30d7f33)" style="fill: #040201; fill-opacity: 0.9"/>
    <path d="M 187.0108 281.951739 
L 208.623231 287.47282 
L 194.563358 268.190092 
z
" clip-path="url(#p3fe30d7f33)" style="fill: #060402; fill-opacity: 0.9"/>
    <path d="M 34.536517 123.167631 
L 58.05051 184.633385 
L 46.167361 169.826343 
z
" clip-path="url(#p3fe30d7f33)" style="fill: #e28f5b; fill-opacity: 0.9"/>
    <path d="M 230.398818 292.554803 
L 237.540892 279.800118 
L 208.623231 287.47282 
z
" clip-path="url(#p3fe30d7f33)" style="fill: #020201; fill-opacity: 0.9"/>
   </g>
  </g>
 </g>
 <defs>
  <clipPath id="p3fe30d7f33">
   <rect x="3.6" y="3.6" width="321.12" height="321.12"/>
  </clipPath>
 </defs>
</svg>
