<?xml version="1.0" encoding="utf-8" standalone="no"?>
<!DOCTYPE svg PUBLIC "-//W3C//DTD SVG 1.1//EN"
  "http://www.w3.org/Graphics/SVG/1.1/DTD/svg11.dtd">
<svg xmlns:xlink="http://www.w3.org/1999/xlink" width="342.291466pt" height="331.760948pt" viewBox="0 0 342.291466 331.760948" xmlns="http://www.w3.org/2000/svg" version="1.1">
 <metadata>
  <rdf:RDF xmlns:dc="http://purl.org/dc/elements/1.1/" xmlns:cc="http://creativecommons.org/ns#" xmlns:rdf="http://www.w3.org/1999/02/22-rdf-syntax-ns#">
   <cc:Work>
    <dc:type rdf:resource="http://purl.org/dc/dcmitype/StillImage"/>
    <dc:date>2022-08-18T01:10:37.499879</dc:date>
    <dc:format>image/svg+xml</dc:format>
    <dc:creator>
     <cc:Agent>
      <dc:title>Matplotlib v3.5.1, https://matplotlib.org/</dc:title>
     </cc:Agent>
    </dc:creator>
   </cc:Work>
  </rdf:RDF>
 </metadata>
 <defs>
  <style type="text/css">*{stroke-linejoin: round; stroke-linecap: butt}</style>
 </defs>
 <g id="figure_1">
  <g id="patch_1">
   <path d="M 0 331.760948 
L 342.291466 331.760948 
L 342.291466 0 
L 0 0 
z
" style="fill: #ffffff"/>
  </g>
  <g id="axes_1">
   <g id="patch_2">
    <path d="M 56.608099 281.107752 
L 328.408099 281.107752 
L 328.408099 9.307752 
L 56.608099 9.307752 
z
" style="fill: #e5e5e5"/>
   </g>
   <g id="matplotlib.axis_1">
    <g id="xtick_1">
     <g id="line2d_1">
      <path d="M 56.608099 281.107752 
L 56.608099 9.307752 
" clip-path="url(#p04bb8ec28c)" style="fill: none; stroke: #ffffff; stroke-width: 1.5; stroke-linecap: square"/>
     </g>
     <g id="line2d_2">
      <defs>
       <path id="m44ce53baef" d="M 0 0 
L 0 9 
" style="stroke: #555555; stroke-width: 1.875"/>
      </defs>
      <g>
       <use xlink:href="#m44ce53baef" x="56.608099" y="281.107752" style="fill: #555555; stroke: #555555; stroke-width: 1.875"/>
      </g>
     </g>
     <g id="text_1">
      <!-- $\mathdefault{0.0}$ -->
      <g style="fill: #555555" transform="translate(46.324732 305.023257)scale(0.165 -0.165)">
       <defs>
        <path id="CMR17-30" d="M 2688 2025 
C 2688 2416 2682 3080 2413 3591 
C 2176 4039 1798 4198 1466 4198 
C 1158 4198 768 4058 525 3597 
C 269 3118 243 2524 243 2025 
C 243 1661 250 1106 448 619 
C 723 -39 1216 -128 1466 -128 
C 1760 -128 2208 -7 2470 600 
C 2662 1042 2688 1559 2688 2025 
z
M 1466 -26 
C 1056 -26 813 325 723 812 
C 653 1188 653 1738 653 2096 
C 653 2588 653 2997 736 3387 
C 858 3929 1216 4096 1466 4096 
C 1728 4096 2067 3923 2189 3400 
C 2272 3036 2278 2607 2278 2096 
C 2278 1680 2278 1169 2202 792 
C 2067 95 1690 -26 1466 -26 
z
" transform="scale(0.015625)"/>
        <path id="CMMI12-3a" d="M 1178 307 
C 1178 492 1024 619 870 619 
C 685 619 557 466 557 313 
C 557 128 710 0 864 0 
C 1050 0 1178 153 1178 307 
z
" transform="scale(0.015625)"/>
       </defs>
       <use xlink:href="#CMR17-30" transform="scale(0.996264)"/>
       <use xlink:href="#CMMI12-3a" transform="translate(45.690477 0)scale(0.996264)"/>
       <use xlink:href="#CMR17-30" transform="translate(72.787654 0)scale(0.996264)"/>
      </g>
     </g>
    </g>
    <g id="xtick_2">
     <g id="line2d_3">
      <path d="M 110.968099 281.107752 
L 110.968099 9.307752 
" clip-path="url(#p04bb8ec28c)" style="fill: none; stroke: #ffffff; stroke-width: 1.5; stroke-linecap: square"/>
     </g>
     <g id="line2d_4">
      <g>
       <use xlink:href="#m44ce53baef" x="110.968099" y="281.107752" style="fill: #555555; stroke: #555555; stroke-width: 1.875"/>
      </g>
     </g>
     <g id="text_2">
      <!-- $\mathdefault{0.2}$ -->
      <g style="fill: #555555" transform="translate(100.684732 305.023257)scale(0.165 -0.165)">
       <defs>
        <path id="CMR17-32" d="M 2669 989 
L 2554 989 
C 2490 536 2438 459 2413 420 
C 2381 369 1920 369 1830 369 
L 602 369 
C 832 619 1280 1072 1824 1597 
C 2214 1967 2669 2402 2669 3035 
C 2669 3790 2067 4224 1395 4224 
C 691 4224 262 3604 262 3030 
C 262 2780 448 2748 525 2748 
C 589 2748 781 2787 781 3010 
C 781 3207 614 3264 525 3264 
C 486 3264 448 3258 422 3245 
C 544 3790 915 4058 1306 4058 
C 1862 4058 2227 3617 2227 3035 
C 2227 2479 1901 2000 1536 1584 
L 262 146 
L 262 0 
L 2515 0 
L 2669 989 
z
" transform="scale(0.015625)"/>
       </defs>
       <use xlink:href="#CMR17-30" transform="scale(0.996264)"/>
       <use xlink:href="#CMMI12-3a" transform="translate(45.690477 0)scale(0.996264)"/>
       <use xlink:href="#CMR17-32" transform="translate(72.787654 0)scale(0.996264)"/>
      </g>
     </g>
    </g>
    <g id="xtick_3">
     <g id="line2d_5">
      <path d="M 165.328099 281.107752 
L 165.328099 9.307752 
" clip-path="url(#p04bb8ec28c)" style="fill: none; stroke: #ffffff; stroke-width: 1.5; stroke-linecap: square"/>
     </g>
     <g id="line2d_6">
      <g>
       <use xlink:href="#m44ce53baef" x="165.328099" y="281.107752" style="fill: #555555; stroke: #555555; stroke-width: 1.875"/>
      </g>
     </g>
     <g id="text_3">
      <!-- $\mathdefault{0.4}$ -->
      <g style="fill: #555555" transform="translate(155.044732 305.023257)scale(0.165 -0.165)">
       <defs>
        <path id="CMR17-34" d="M 2150 4122 
C 2150 4256 2144 4256 2029 4256 
L 128 1254 
L 128 1088 
L 1779 1088 
L 1779 457 
C 1779 224 1766 160 1318 160 
L 1197 160 
L 1197 0 
C 1402 0 1747 0 1965 0 
C 2182 0 2528 0 2733 0 
L 2733 160 
L 2611 160 
C 2163 160 2150 224 2150 457 
L 2150 1088 
L 2803 1088 
L 2803 1254 
L 2150 1254 
L 2150 4122 
z
M 1798 3703 
L 1798 1254 
L 256 1254 
L 1798 3703 
z
" transform="scale(0.015625)"/>
       </defs>
       <use xlink:href="#CMR17-30" transform="scale(0.996264)"/>
       <use xlink:href="#CMMI12-3a" transform="translate(45.690477 0)scale(0.996264)"/>
       <use xlink:href="#CMR17-34" transform="translate(72.787654 0)scale(0.996264)"/>
      </g>
     </g>
    </g>
    <g id="xtick_4">
     <g id="line2d_7">
      <path d="M 219.688099 281.107752 
L 219.688099 9.307752 
" clip-path="url(#p04bb8ec28c)" style="fill: none; stroke: #ffffff; stroke-width: 1.5; stroke-linecap: square"/>
     </g>
     <g id="line2d_8">
      <g>
       <use xlink:href="#m44ce53baef" x="219.688099" y="281.107752" style="fill: #555555; stroke: #555555; stroke-width: 1.875"/>
      </g>
     </g>
     <g id="text_4">
      <!-- $\mathdefault{0.6}$ -->
      <g style="fill: #555555" transform="translate(209.404732 305.023257)scale(0.165 -0.165)">
       <defs>
        <path id="CMR17-36" d="M 678 2176 
C 678 3690 1395 4032 1811 4032 
C 1946 4032 2272 4009 2400 3776 
C 2298 3776 2106 3776 2106 3553 
C 2106 3381 2246 3323 2336 3323 
C 2394 3323 2566 3348 2566 3560 
C 2566 3954 2246 4179 1805 4179 
C 1043 4179 243 3390 243 1984 
C 243 253 966 -128 1478 -128 
C 2099 -128 2688 427 2688 1283 
C 2688 2081 2170 2662 1517 2662 
C 1126 2662 838 2407 678 1960 
L 678 2176 
z
M 1478 25 
C 691 25 691 1200 691 1436 
C 691 1896 909 2560 1504 2560 
C 1613 2560 1926 2560 2138 2120 
C 2253 1870 2253 1609 2253 1289 
C 2253 944 2253 690 2118 434 
C 1978 171 1773 25 1478 25 
z
" transform="scale(0.015625)"/>
       </defs>
       <use xlink:href="#CMR17-30" transform="scale(0.996264)"/>
       <use xlink:href="#CMMI12-3a" transform="translate(45.690477 0)scale(0.996264)"/>
       <use xlink:href="#CMR17-36" transform="translate(72.787654 0)scale(0.996264)"/>
      </g>
     </g>
    </g>
    <g id="xtick_5">
     <g id="line2d_9">
      <path d="M 274.048099 281.107752 
L 274.048099 9.307752 
" clip-path="url(#p04bb8ec28c)" style="fill: none; stroke: #ffffff; stroke-width: 1.5; stroke-linecap: square"/>
     </g>
     <g id="line2d_10">
      <g>
       <use xlink:href="#m44ce53baef" x="274.048099" y="281.107752" style="fill: #555555; stroke: #555555; stroke-width: 1.875"/>
      </g>
     </g>
     <g id="text_5">
      <!-- $\mathdefault{0.8}$ -->
      <g style="fill: #555555" transform="translate(263.764732 305.023257)scale(0.165 -0.165)">
       <defs>
        <path id="CMR17-38" d="M 1741 2264 
C 2144 2467 2554 2773 2554 3263 
C 2554 3841 1990 4179 1472 4179 
C 890 4179 378 3759 378 3180 
C 378 3021 416 2747 666 2505 
C 730 2442 998 2251 1171 2130 
C 883 1983 211 1634 211 934 
C 211 279 838 -128 1459 -128 
C 2144 -128 2720 362 2720 1010 
C 2720 1590 2330 1857 2074 2029 
L 1741 2264 
z
M 902 2822 
C 851 2854 595 3051 595 3351 
C 595 3739 998 4032 1459 4032 
C 1965 4032 2336 3676 2336 3262 
C 2336 2669 1670 2331 1638 2331 
C 1632 2331 1626 2331 1574 2370 
L 902 2822 
z
M 2080 1519 
C 2176 1449 2483 1240 2483 851 
C 2483 381 2010 25 1472 25 
C 890 25 448 438 448 940 
C 448 1443 838 1862 1280 2060 
L 2080 1519 
z
" transform="scale(0.015625)"/>
       </defs>
       <use xlink:href="#CMR17-30" transform="scale(0.996264)"/>
       <use xlink:href="#CMMI12-3a" transform="translate(45.690477 0)scale(0.996264)"/>
       <use xlink:href="#CMR17-38" transform="translate(72.787654 0)scale(0.996264)"/>
      </g>
     </g>
    </g>
    <g id="xtick_6">
     <g id="line2d_11">
      <path d="M 328.408099 281.107752 
L 328.408099 9.307752 
" clip-path="url(#p04bb8ec28c)" style="fill: none; stroke: #ffffff; stroke-width: 1.5; stroke-linecap: square"/>
     </g>
     <g id="line2d_12">
      <g>
       <use xlink:href="#m44ce53baef" x="328.408099" y="281.107752" style="fill: #555555; stroke: #555555; stroke-width: 1.875"/>
      </g>
     </g>
     <g id="text_6">
      <!-- $\mathdefault{1.0}$ -->
      <g style="fill: #555555" transform="translate(318.124732 305.023257)scale(0.165 -0.165)">
       <defs>
        <path id="CMR17-31" d="M 1702 4058 
C 1702 4192 1696 4192 1606 4192 
C 1357 3916 979 3827 621 3827 
C 602 3827 570 3827 563 3808 
C 557 3795 557 3782 557 3648 
C 755 3648 1088 3686 1344 3839 
L 1344 461 
C 1344 236 1331 160 781 160 
L 589 160 
L 589 0 
C 896 0 1216 0 1523 0 
C 1830 0 2150 0 2458 0 
L 2458 160 
L 2266 160 
C 1715 160 1702 230 1702 458 
L 1702 4058 
z
" transform="scale(0.015625)"/>
       </defs>
       <use xlink:href="#CMR17-31" transform="scale(0.996264)"/>
       <use xlink:href="#CMMI12-3a" transform="translate(45.690477 0)scale(0.996264)"/>
       <use xlink:href="#CMR17-30" transform="translate(72.787654 0)scale(0.996264)"/>
      </g>
     </g>
    </g>
    <g id="xtick_7">
     <g id="line2d_13">
      <defs>
       <path id="m67b2d22eae" d="M 0 0 
L 0 6 
" style="stroke: #555555; stroke-width: 1.5"/>
      </defs>
      <g>
       <use xlink:href="#m67b2d22eae" x="70.198099" y="281.107752" style="fill: #555555; stroke: #555555; stroke-width: 1.5"/>
      </g>
     </g>
    </g>
    <g id="xtick_8">
     <g id="line2d_14">
      <g>
       <use xlink:href="#m67b2d22eae" x="83.788099" y="281.107752" style="fill: #555555; stroke: #555555; stroke-width: 1.5"/>
      </g>
     </g>
    </g>
    <g id="xtick_9">
     <g id="line2d_15">
      <g>
       <use xlink:href="#m67b2d22eae" x="97.378099" y="281.107752" style="fill: #555555; stroke: #555555; stroke-width: 1.5"/>
      </g>
     </g>
    </g>
    <g id="xtick_10">
     <g id="line2d_16">
      <g>
       <use xlink:href="#m67b2d22eae" x="124.558099" y="281.107752" style="fill: #555555; stroke: #555555; stroke-width: 1.5"/>
      </g>
     </g>
    </g>
    <g id="xtick_11">
     <g id="line2d_17">
      <g>
       <use xlink:href="#m67b2d22eae" x="138.148099" y="281.107752" style="fill: #555555; stroke: #555555; stroke-width: 1.5"/>
      </g>
     </g>
    </g>
    <g id="xtick_12">
     <g id="line2d_18">
      <g>
       <use xlink:href="#m67b2d22eae" x="151.738099" y="281.107752" style="fill: #555555; stroke: #555555; stroke-width: 1.5"/>
      </g>
     </g>
    </g>
    <g id="xtick_13">
     <g id="line2d_19">
      <g>
       <use xlink:href="#m67b2d22eae" x="178.918099" y="281.107752" style="fill: #555555; stroke: #555555; stroke-width: 1.5"/>
      </g>
     </g>
    </g>
    <g id="xtick_14">
     <g id="line2d_20">
      <g>
       <use xlink:href="#m67b2d22eae" x="192.508099" y="281.107752" style="fill: #555555; stroke: #555555; stroke-width: 1.5"/>
      </g>
     </g>
    </g>
    <g id="xtick_15">
     <g id="line2d_21">
      <g>
       <use xlink:href="#m67b2d22eae" x="206.098099" y="281.107752" style="fill: #555555; stroke: #555555; stroke-width: 1.5"/>
      </g>
     </g>
    </g>
    <g id="xtick_16">
     <g id="line2d_22">
      <g>
       <use xlink:href="#m67b2d22eae" x="233.278099" y="281.107752" style="fill: #555555; stroke: #555555; stroke-width: 1.5"/>
      </g>
     </g>
    </g>
    <g id="xtick_17">
     <g id="line2d_23">
      <g>
       <use xlink:href="#m67b2d22eae" x="246.868099" y="281.107752" style="fill: #555555; stroke: #555555; stroke-width: 1.5"/>
      </g>
     </g>
    </g>
    <g id="xtick_18">
     <g id="line2d_24">
      <g>
       <use xlink:href="#m67b2d22eae" x="260.458099" y="281.107752" style="fill: #555555; stroke: #555555; stroke-width: 1.5"/>
      </g>
     </g>
    </g>
    <g id="xtick_19">
     <g id="line2d_25">
      <g>
       <use xlink:href="#m67b2d22eae" x="287.638099" y="281.107752" style="fill: #555555; stroke: #555555; stroke-width: 1.5"/>
      </g>
     </g>
    </g>
    <g id="xtick_20">
     <g id="line2d_26">
      <g>
       <use xlink:href="#m67b2d22eae" x="301.228099" y="281.107752" style="fill: #555555; stroke: #555555; stroke-width: 1.5"/>
      </g>
     </g>
    </g>
    <g id="xtick_21">
     <g id="line2d_27">
      <g>
       <use xlink:href="#m67b2d22eae" x="314.818099" y="281.107752" style="fill: #555555; stroke: #555555; stroke-width: 1.5"/>
      </g>
     </g>
    </g>
    <g id="text_7">
     <!-- $u$ -->
     <g style="fill: #555555" transform="translate(187.511273 324.672884)scale(0.18 -0.18)">
      <defs>
       <path id="CMMI12-75" d="M 2182 370 
C 2266 13 2573 -64 2726 -64 
C 2931 -64 3085 70 3187 287 
C 3296 517 3379 894 3379 913 
C 3379 945 3354 971 3315 971 
C 3258 971 3251 939 3226 843 
C 3110 402 2995 64 2739 64 
C 2547 64 2547 275 2547 358 
C 2547 505 2566 568 2630 837 
C 2675 1009 2720 1181 2758 1360 
L 3021 2401 
C 3066 2561 3066 2574 3066 2593 
C 3066 2689 2989 2753 2893 2753 
C 2707 2753 2662 2593 2624 2433 
C 2560 2184 2214 811 2170 588 
C 2163 588 1914 64 1446 64 
C 1114 64 1050 351 1050 588 
C 1050 952 1229 1462 1395 1890 
C 1472 2095 1504 2178 1504 2305 
C 1504 2580 1306 2816 998 2816 
C 410 2816 173 1890 173 1839 
C 173 1814 198 1782 243 1782 
C 301 1782 307 1807 333 1896 
C 486 2441 736 2682 979 2682 
C 1043 2682 1146 2682 1146 2478 
C 1146 2312 1075 2127 979 1884 
C 698 1124 666 881 666 690 
C 666 38 1158 -64 1421 -64 
C 1830 -64 2054 217 2182 370 
z
" transform="scale(0.015625)"/>
      </defs>
      <use xlink:href="#CMMI12-75" transform="scale(0.996264)"/>
     </g>
    </g>
   </g>
   <g id="matplotlib.axis_2">
    <g id="ytick_1">
     <g id="line2d_28">
      <path d="M 56.608099 281.107752 
L 328.408099 281.107752 
" clip-path="url(#p04bb8ec28c)" style="fill: none; stroke: #ffffff; stroke-width: 1.5; stroke-linecap: square"/>
     </g>
     <g id="line2d_29">
      <defs>
       <path id="mc86786b8e9" d="M 0 0 
L -9 0 
" style="stroke: #555555; stroke-width: 1.875"/>
      </defs>
      <g>
       <use xlink:href="#mc86786b8e9" x="56.608099" y="281.107752" style="fill: #555555; stroke: #555555; stroke-width: 1.875"/>
      </g>
     </g>
     <g id="text_8">
      <!-- $\mathdefault{0.0}$ -->
      <g style="fill: #555555" transform="translate(23.541364 286.815505)scale(0.165 -0.165)">
       <use xlink:href="#CMR17-30" transform="scale(0.996264)"/>
       <use xlink:href="#CMMI12-3a" transform="translate(45.690477 0)scale(0.996264)"/>
       <use xlink:href="#CMR17-30" transform="translate(72.787654 0)scale(0.996264)"/>
      </g>
     </g>
    </g>
    <g id="ytick_2">
     <g id="line2d_30">
      <path d="M 56.608099 226.747752 
L 328.408099 226.747752 
" clip-path="url(#p04bb8ec28c)" style="fill: none; stroke: #ffffff; stroke-width: 1.5; stroke-linecap: square"/>
     </g>
     <g id="line2d_31">
      <g>
       <use xlink:href="#mc86786b8e9" x="56.608099" y="226.747752" style="fill: #555555; stroke: #555555; stroke-width: 1.875"/>
      </g>
     </g>
     <g id="text_9">
      <!-- $\mathdefault{0.2}$ -->
      <g style="fill: #555555" transform="translate(23.541364 232.455505)scale(0.165 -0.165)">
       <use xlink:href="#CMR17-30" transform="scale(0.996264)"/>
       <use xlink:href="#CMMI12-3a" transform="translate(45.690477 0)scale(0.996264)"/>
       <use xlink:href="#CMR17-32" transform="translate(72.787654 0)scale(0.996264)"/>
      </g>
     </g>
    </g>
    <g id="ytick_3">
     <g id="line2d_32">
      <path d="M 56.608099 172.387752 
L 328.408099 172.387752 
" clip-path="url(#p04bb8ec28c)" style="fill: none; stroke: #ffffff; stroke-width: 1.5; stroke-linecap: square"/>
     </g>
     <g id="line2d_33">
      <g>
       <use xlink:href="#mc86786b8e9" x="56.608099" y="172.387752" style="fill: #555555; stroke: #555555; stroke-width: 1.875"/>
      </g>
     </g>
     <g id="text_10">
      <!-- $\mathdefault{0.4}$ -->
      <g style="fill: #555555" transform="translate(23.541364 178.095505)scale(0.165 -0.165)">
       <use xlink:href="#CMR17-30" transform="scale(0.996264)"/>
       <use xlink:href="#CMMI12-3a" transform="translate(45.690477 0)scale(0.996264)"/>
       <use xlink:href="#CMR17-34" transform="translate(72.787654 0)scale(0.996264)"/>
      </g>
     </g>
    </g>
    <g id="ytick_4">
     <g id="line2d_34">
      <path d="M 56.608099 118.027752 
L 328.408099 118.027752 
" clip-path="url(#p04bb8ec28c)" style="fill: none; stroke: #ffffff; stroke-width: 1.5; stroke-linecap: square"/>
     </g>
     <g id="line2d_35">
      <g>
       <use xlink:href="#mc86786b8e9" x="56.608099" y="118.027752" style="fill: #555555; stroke: #555555; stroke-width: 1.875"/>
      </g>
     </g>
     <g id="text_11">
      <!-- $\mathdefault{0.6}$ -->
      <g style="fill: #555555" transform="translate(23.541364 123.735505)scale(0.165 -0.165)">
       <use xlink:href="#CMR17-30" transform="scale(0.996264)"/>
       <use xlink:href="#CMMI12-3a" transform="translate(45.690477 0)scale(0.996264)"/>
       <use xlink:href="#CMR17-36" transform="translate(72.787654 0)scale(0.996264)"/>
      </g>
     </g>
    </g>
    <g id="ytick_5">
     <g id="line2d_36">
      <path d="M 56.608099 63.667752 
L 328.408099 63.667752 
" clip-path="url(#p04bb8ec28c)" style="fill: none; stroke: #ffffff; stroke-width: 1.5; stroke-linecap: square"/>
     </g>
     <g id="line2d_37">
      <g>
       <use xlink:href="#mc86786b8e9" x="56.608099" y="63.667752" style="fill: #555555; stroke: #555555; stroke-width: 1.875"/>
      </g>
     </g>
     <g id="text_12">
      <!-- $\mathdefault{0.8}$ -->
      <g style="fill: #555555" transform="translate(23.541364 69.375505)scale(0.165 -0.165)">
       <use xlink:href="#CMR17-30" transform="scale(0.996264)"/>
       <use xlink:href="#CMMI12-3a" transform="translate(45.690477 0)scale(0.996264)"/>
       <use xlink:href="#CMR17-38" transform="translate(72.787654 0)scale(0.996264)"/>
      </g>
     </g>
    </g>
    <g id="ytick_6">
     <g id="line2d_38">
      <path d="M 56.608099 9.307752 
L 328.408099 9.307752 
" clip-path="url(#p04bb8ec28c)" style="fill: none; stroke: #ffffff; stroke-width: 1.5; stroke-linecap: square"/>
     </g>
     <g id="line2d_39">
      <g>
       <use xlink:href="#mc86786b8e9" x="56.608099" y="9.307752" style="fill: #555555; stroke: #555555; stroke-width: 1.875"/>
      </g>
     </g>
     <g id="text_13">
      <!-- $\mathdefault{1.0}$ -->
      <g style="fill: #555555" transform="translate(23.541364 15.015505)scale(0.165 -0.165)">
       <use xlink:href="#CMR17-31" transform="scale(0.996264)"/>
       <use xlink:href="#CMMI12-3a" transform="translate(45.690477 0)scale(0.996264)"/>
       <use xlink:href="#CMR17-30" transform="translate(72.787654 0)scale(0.996264)"/>
      </g>
     </g>
    </g>
    <g id="ytick_7">
     <g id="line2d_40">
      <defs>
       <path id="mc739edf9c0" d="M 0 0 
L -6 0 
" style="stroke: #555555; stroke-width: 1.5"/>
      </defs>
      <g>
       <use xlink:href="#mc739edf9c0" x="56.608099" y="267.517752" style="fill: #555555; stroke: #555555; stroke-width: 1.5"/>
      </g>
     </g>
    </g>
    <g id="ytick_8">
     <g id="line2d_41">
      <g>
       <use xlink:href="#mc739edf9c0" x="56.608099" y="253.927752" style="fill: #555555; stroke: #555555; stroke-width: 1.5"/>
      </g>
     </g>
    </g>
    <g id="ytick_9">
     <g id="line2d_42">
      <g>
       <use xlink:href="#mc739edf9c0" x="56.608099" y="240.337752" style="fill: #555555; stroke: #555555; stroke-width: 1.5"/>
      </g>
     </g>
    </g>
    <g id="ytick_10">
     <g id="line2d_43">
      <g>
       <use xlink:href="#mc739edf9c0" x="56.608099" y="213.157752" style="fill: #555555; stroke: #555555; stroke-width: 1.5"/>
      </g>
     </g>
    </g>
    <g id="ytick_11">
     <g id="line2d_44">
      <g>
       <use xlink:href="#mc739edf9c0" x="56.608099" y="199.567752" style="fill: #555555; stroke: #555555; stroke-width: 1.5"/>
      </g>
     </g>
    </g>
    <g id="ytick_12">
     <g id="line2d_45">
      <g>
       <use xlink:href="#mc739edf9c0" x="56.608099" y="185.977752" style="fill: #555555; stroke: #555555; stroke-width: 1.5"/>
      </g>
     </g>
    </g>
    <g id="ytick_13">
     <g id="line2d_46">
      <g>
       <use xlink:href="#mc739edf9c0" x="56.608099" y="158.797752" style="fill: #555555; stroke: #555555; stroke-width: 1.5"/>
      </g>
     </g>
    </g>
    <g id="ytick_14">
     <g id="line2d_47">
      <g>
       <use xlink:href="#mc739edf9c0" x="56.608099" y="145.207752" style="fill: #555555; stroke: #555555; stroke-width: 1.5"/>
      </g>
     </g>
    </g>
    <g id="ytick_15">
     <g id="line2d_48">
      <g>
       <use xlink:href="#mc739edf9c0" x="56.608099" y="131.617752" style="fill: #555555; stroke: #555555; stroke-width: 1.5"/>
      </g>
     </g>
    </g>
    <g id="ytick_16">
     <g id="line2d_49">
      <g>
       <use xlink:href="#mc739edf9c0" x="56.608099" y="104.437752" style="fill: #555555; stroke: #555555; stroke-width: 1.5"/>
      </g>
     </g>
    </g>
    <g id="ytick_17">
     <g id="line2d_50">
      <g>
       <use xlink:href="#mc739edf9c0" x="56.608099" y="90.847752" style="fill: #555555; stroke: #555555; stroke-width: 1.5"/>
      </g>
     </g>
    </g>
    <g id="ytick_18">
     <g id="line2d_51">
      <g>
       <use xlink:href="#mc739edf9c0" x="56.608099" y="77.257752" style="fill: #555555; stroke: #555555; stroke-width: 1.5"/>
      </g>
     </g>
    </g>
    <g id="ytick_19">
     <g id="line2d_52">
      <g>
       <use xlink:href="#mc739edf9c0" x="56.608099" y="50.077752" style="fill: #555555; stroke: #555555; stroke-width: 1.5"/>
      </g>
     </g>
    </g>
    <g id="ytick_20">
     <g id="line2d_53">
      <g>
       <use xlink:href="#mc739edf9c0" x="56.608099" y="36.487752" style="fill: #555555; stroke: #555555; stroke-width: 1.5"/>
      </g>
     </g>
    </g>
    <g id="ytick_21">
     <g id="line2d_54">
      <g>
       <use xlink:href="#mc739edf9c0" x="56.608099" y="22.897752" style="fill: #555555; stroke: #555555; stroke-width: 1.5"/>
      </g>
     </g>
    </g>
    <g id="text_14">
     <!-- $v$ -->
     <g style="fill: #555555" transform="translate(16.0533 149.452204)rotate(-90)scale(0.18 -0.18)">
      <defs>
       <path id="CMMI12-76" d="M 2925 2389 
C 2925 2791 2720 2816 2669 2816 
C 2515 2816 2374 2663 2374 2535 
C 2374 2459 2419 2414 2445 2389 
C 2509 2331 2675 2159 2675 1827 
C 2675 1558 2291 64 1523 64 
C 1133 64 1056 390 1056 626 
C 1056 945 1203 1392 1376 1852 
C 1478 2114 1504 2178 1504 2305 
C 1504 2574 1312 2816 998 2816 
C 410 2816 173 1890 173 1839 
C 173 1814 198 1782 243 1782 
C 301 1782 307 1807 333 1897 
C 486 2446 736 2689 979 2689 
C 1037 2689 1146 2689 1146 2478 
C 1146 2312 1075 2127 979 1884 
C 672 1067 672 869 672 715 
C 672 575 691 313 890 134 
C 1120 -64 1440 -64 1498 -64 
C 2560 -64 2925 2024 2925 2389 
z
" transform="scale(0.015625)"/>
      </defs>
      <use xlink:href="#CMMI12-76" transform="scale(0.996264)"/>
     </g>
    </g>
   </g>
   <g id="PathCollection_1"/>
   <g id="PathCollection_2">
    <path d="M 176.200925 281.107752 
L 178.449478 278.181279 
L 183.76865 271.735339 
L 187.821892 266.709545 
L 191.539993 262.362925 
L 197.194306 255.638244 
L 199.531003 252.990511 
L 206.56672 244.921426 
L 207.748965 243.618097 
L 215.939133 234.521835 
L 216.195852 234.245683 
L 224.919702 224.87327 
L 225.311547 224.45321 
L 225.914005 223.823039 
" clip-path="url(#p04bb8ec28c)" style="fill: none; stroke: #23160e; stroke-width: 2.25"/>
    <path d="M 241.860141 207.316184 
L 243.021857 206.128442 
L 244.056375 205.079871 
L 252.380217 196.756028 
L 253.428789 195.721511 
L 261.953476 187.383614 
L 262.801202 186.569853 
L 271.753556 178.011201 
L 272.173616 177.619355 
L 281.54603 168.895505 
L 281.822182 168.638787 
L 290.918444 160.448618 
L 292.221773 159.266373 
L 300.290858 152.230657 
L 302.93859 149.893959 
L 309.663271 144.239647 
L 314.009891 140.521546 
L 319.035685 136.468304 
L 325.481625 131.149132 
L 328.408099 128.900579 
" clip-path="url(#p04bb8ec28c)" style="fill: none; stroke: #23160e; stroke-width: 2.25"/>
    <path d="M 208.815272 9.307752 
L 206.56672 12.234226 
L 201.247548 18.680166 
L 197.194306 23.70596 
L 193.476204 28.05258 
L 187.821892 34.777261 
L 185.485195 37.424994 
L 178.449478 45.494078 
L 177.267233 46.797408 
L 169.077064 55.893669 
L 168.820346 56.169821 
L 160.096496 65.542235 
L 159.704651 65.962295 
L 159.102193 66.592466 
" clip-path="url(#p04bb8ec28c)" style="fill: none; stroke: #23160e; stroke-width: 2.25"/>
    <path d="M 143.156057 83.099321 
L 141.99434 84.287063 
L 140.959823 85.335634 
L 132.635981 93.659477 
L 131.587409 94.693994 
L 123.062721 103.03189 
L 122.214995 103.845652 
L 113.262641 112.404304 
L 112.842582 112.79615 
L 103.470168 121.52 
L 103.194016 121.776718 
L 94.097754 129.966886 
L 92.794425 131.149132 
L 84.72534 138.184848 
L 82.077607 140.521546 
L 75.352926 146.175858 
L 71.006307 149.893959 
L 65.980513 153.947201 
L 59.534573 159.266373 
L 56.608099 161.514926 
" clip-path="url(#p04bb8ec28c)" style="fill: none; stroke: #23160e; stroke-width: 2.25"/>
   </g>
   <g id="PathCollection_3">
    <path d="M 138.529169 281.107752 
L 140.959823 276.576316 
L 143.959149 271.735339 
L 149.57589 262.362925 
L 150.332237 261.072463 
L 155.656647 252.990511 
L 159.704651 246.728223 
L 161.919616 243.618097 
L 168.489769 234.245683 
L 169.077064 233.3967 
L 175.461546 224.87327 
L 178.449478 220.877367 
L 180.194915 218.692146 
" clip-path="url(#p04bb8ec28c)" style="fill: none; stroke: #452c1c; stroke-width: 2.25"/>
    <path d="M 195.568042 200.039824 
L 197.194306 198.12967 
L 198.417241 196.756028 
L 206.56672 187.708211 
L 206.869885 187.383614 
L 215.761393 178.011201 
L 215.939133 177.827966 
L 225.128313 168.638787 
L 225.311547 168.461047 
L 234.683961 159.569539 
L 235.008557 159.266373 
L 244.056375 151.116895 
L 245.430016 149.893959 
L 253.428789 143.083978 
L 256.459328 140.521546 
L 262.801202 135.443598 
L 268.177713 131.149132 
L 272.173616 128.1612 
L 280.697047 121.776718 
L 281.54603 121.189422 
L 290.918444 114.61927 
L 294.02857 112.404304 
L 300.290858 108.356301 
L 308.372809 103.03189 
L 309.663271 102.275544 
L 319.035685 96.658802 
L 323.876663 93.659477 
L 328.408099 91.228823 
" clip-path="url(#p04bb8ec28c)" style="fill: none; stroke: #452c1c; stroke-width: 2.25"/>
    <path d="M 246.487029 9.307752 
L 244.056375 13.839189 
L 241.057049 18.680166 
L 235.440308 28.05258 
L 234.683961 29.343042 
L 229.359551 37.424994 
L 225.311547 43.687282 
L 223.096582 46.797408 
L 216.526429 56.169821 
L 215.939133 57.018805 
L 209.554651 65.542235 
L 206.56672 69.538138 
L 204.821283 71.723359 
" clip-path="url(#p04bb8ec28c)" style="fill: none; stroke: #452c1c; stroke-width: 2.25"/>
    <path d="M 189.448156 90.375681 
L 187.821892 92.285835 
L 186.598956 93.659477 
L 178.449478 102.707294 
L 178.146313 103.03189 
L 169.254805 112.404304 
L 169.077064 112.587539 
L 159.887885 121.776718 
L 159.704651 121.954458 
L 150.332237 130.845966 
L 150.007641 131.149132 
L 140.959823 139.29861 
L 139.586181 140.521546 
L 131.587409 147.331526 
L 128.556869 149.893959 
L 122.214995 154.971906 
L 116.838485 159.266373 
L 112.842582 162.254305 
L 104.319151 168.638787 
L 103.470168 169.226082 
L 94.097754 175.796235 
L 90.987628 178.011201 
L 84.72534 182.059204 
L 76.643388 187.383614 
L 75.352926 188.139961 
L 65.980513 193.756703 
L 61.139535 196.756028 
L 56.608099 199.186682 
" clip-path="url(#p04bb8ec28c)" style="fill: none; stroke: #452c1c; stroke-width: 2.25"/>
   </g>
   <g id="PathCollection_4">
    <path d="M 116.518686 281.107752 
L 119.670643 271.735339 
L 122.214995 263.803397 
L 122.778704 262.362925 
L 125.950861 252.990511 
L 128.878585 243.618097 
L 131.565941 234.245683 
L 131.587409 234.127399 
L 133.573347 224.87327 
L 133.802692 221.769647 
" clip-path="url(#p04bb8ec28c)" style="fill: none; stroke: #69422a; stroke-width: 2.25"/>
    <path d="M 121.970705 203.467974 
L 112.842582 204.142504 
L 103.588452 206.128442 
L 103.470168 206.14991 
L 94.097754 208.837266 
L 84.72534 211.76499 
L 75.352926 214.937148 
L 73.912454 215.500856 
L 65.980513 218.045209 
L 56.608099 221.197166 
" clip-path="url(#p04bb8ec28c)" style="fill: none; stroke: #69422a; stroke-width: 2.25"/>
    <path d="M 268.497512 9.307752 
L 265.345555 18.680166 
L 262.801202 26.612108 
L 262.237494 28.05258 
L 259.065337 37.424994 
L 256.137613 46.797408 
L 253.450257 56.169821 
L 253.428789 56.288106 
L 251.44285 65.542235 
L 251.213506 68.645858 
" clip-path="url(#p04bb8ec28c)" style="fill: none; stroke: #69422a; stroke-width: 2.25"/>
    <path d="M 263.045493 86.947531 
L 272.173616 86.273001 
L 281.427746 84.287063 
L 281.54603 84.265594 
L 290.918444 81.578238 
L 300.290858 78.650514 
L 309.663271 75.478357 
L 311.103744 74.914649 
L 319.035685 72.370296 
L 328.408099 69.218339 
" clip-path="url(#p04bb8ec28c)" style="fill: none; stroke: #69422a; stroke-width: 2.25"/>
   </g>
   <g id="PathCollection_5">
    <path d="M 100.856776 281.107752 
L 101.619262 271.735339 
L 101.621792 262.362925 
L 100.4414 254.960413 
" clip-path="url(#p04bb8ec28c)" style="fill: none; stroke: #8c5838; stroke-width: 2.25"/>
    <path d="M 85.45427 237.976627 
L 84.72534 237.588569 
L 75.352926 236.094059 
L 65.980513 236.096589 
L 56.608099 236.859075 
" clip-path="url(#p04bb8ec28c)" style="fill: none; stroke: #8c5838; stroke-width: 2.25"/>
    <path d="M 284.159422 9.307752 
L 283.396936 18.680166 
L 283.394406 28.05258 
L 284.574798 35.455092 
" clip-path="url(#p04bb8ec28c)" style="fill: none; stroke: #8c5838; stroke-width: 2.25"/>
    <path d="M 299.561927 52.438878 
L 300.290858 52.826936 
L 309.663271 54.321445 
L 319.035685 54.318916 
L 328.408099 53.55643 
" clip-path="url(#p04bb8ec28c)" style="fill: none; stroke: #8c5838; stroke-width: 2.25"/>
   </g>
   <g id="PathCollection_6">
    <path d="M 88.756409 281.107752 
L 86.932495 271.735339 
L 84.72534 266.158656 
L 83.261303 263.362869 
" clip-path="url(#p04bb8ec28c)" style="fill: none; stroke: #af6f47; stroke-width: 2.25"/>
    <path d="M 66.635715 251.042674 
L 65.980513 250.783357 
L 56.608099 248.959443 
" clip-path="url(#p04bb8ec28c)" style="fill: none; stroke: #af6f47; stroke-width: 2.25"/>
    <path d="M 296.259789 9.307752 
L 298.083703 18.680166 
L 300.290858 24.256849 
L 301.754895 27.052636 
" clip-path="url(#p04bb8ec28c)" style="fill: none; stroke: #af6f47; stroke-width: 2.25"/>
    <path d="M 318.380483 39.372831 
L 319.035685 39.632148 
L 328.408099 41.456062 
" clip-path="url(#p04bb8ec28c)" style="fill: none; stroke: #af6f47; stroke-width: 2.25"/>
   </g>
   <g id="PathCollection_7">
    <path d="M 78.834869 281.107752 
L 75.352926 273.683366 
L 74.211458 271.735339 
L 74.008184 271.532064 
" clip-path="url(#p04bb8ec28c)" style="fill: none; stroke: #d28555; stroke-width: 2.25"/>
    <path d="M 57.302317 259.206562 
L 56.608099 258.880983 
" clip-path="url(#p04bb8ec28c)" style="fill: none; stroke: #d28555; stroke-width: 2.25"/>
    <path d="M 306.181329 9.307752 
L 309.663271 16.732139 
L 310.80474 18.680166 
L 311.008014 18.88344 
" clip-path="url(#p04bb8ec28c)" style="fill: none; stroke: #d28555; stroke-width: 2.25"/>
    <path d="M 327.713881 31.208943 
L 328.408099 31.534522 
" clip-path="url(#p04bb8ec28c)" style="fill: none; stroke: #d28555; stroke-width: 2.25"/>
   </g>
   <g id="PathCollection_8">
    <path d="M 70.470457 281.107752 
L 65.980513 274.881198 
L 62.834654 271.735339 
L 56.608099 267.245395 
" clip-path="url(#p04bb8ec28c)" style="fill: none; stroke: #f69b63; stroke-width: 2.25"/>
    <path d="M 314.545741 9.307752 
L 319.035685 15.534307 
L 322.181544 18.680166 
L 328.408099 23.17011 
" clip-path="url(#p04bb8ec28c)" style="fill: none; stroke: #f69b63; stroke-width: 2.25"/>
   </g>
   <g id="PathCollection_9">
    <path d="M 63.183744 281.107752 
L 56.608099 274.532108 
" clip-path="url(#p04bb8ec28c)" style="fill: none; stroke: #ffb171; stroke-width: 2.25"/>
    <path d="M 321.832454 9.307752 
L 328.408099 15.883397 
" clip-path="url(#p04bb8ec28c)" style="fill: none; stroke: #ffb171; stroke-width: 2.25"/>
   </g>
   <g id="PathCollection_10"/>
   <g id="patch_3">
    <path d="M 56.608099 281.107752 
L 56.608099 9.307752 
" style="fill: none; stroke: #ffffff; stroke-width: 1.875; stroke-linejoin: miter; stroke-linecap: square"/>
   </g>
   <g id="patch_4">
    <path d="M 56.608099 281.107752 
L 328.408099 281.107752 
" style="fill: none; stroke: #ffffff; stroke-width: 1.875; stroke-linejoin: miter; stroke-linecap: square"/>
   </g>
   <g id="text_15">
    <!-- $\mathdefault{0.559}$ -->
    <g transform="translate(223.31294 224.173475)rotate(-26.766625)scale(0.12 -0.12)">
     <defs>
      <path id="CMR17-35" d="M 730 3692 
C 794 3666 1056 3584 1325 3584 
C 1920 3584 2246 3911 2432 4100 
C 2432 4157 2432 4192 2394 4192 
C 2387 4192 2374 4192 2323 4163 
C 2099 4058 1837 3973 1517 3973 
C 1325 3973 1037 3999 723 4139 
C 653 4171 640 4171 634 4171 
C 602 4171 595 4164 595 4037 
L 595 2203 
C 595 2089 595 2057 659 2057 
C 691 2057 704 2070 736 2114 
C 941 2401 1222 2522 1542 2522 
C 1766 2522 2246 2382 2246 1289 
C 2246 1085 2246 715 2054 421 
C 1894 159 1645 25 1370 25 
C 947 25 518 320 403 814 
C 429 807 480 795 506 795 
C 589 795 749 840 749 1038 
C 749 1210 627 1280 506 1280 
C 358 1280 262 1190 262 1011 
C 262 454 704 -128 1382 -128 
C 2042 -128 2669 440 2669 1264 
C 2669 2030 2170 2624 1549 2624 
C 1222 2624 947 2503 730 2274 
L 730 3692 
z
" transform="scale(0.015625)"/>
      <path id="CMR17-39" d="M 2253 1864 
C 2253 464 1670 31 1190 31 
C 1043 31 685 31 538 294 
C 704 268 826 357 826 518 
C 826 692 685 749 595 749 
C 538 749 365 723 365 506 
C 365 71 742 -128 1203 -128 
C 1939 -128 2688 674 2688 2073 
C 2688 3817 1971 4179 1485 4179 
C 851 4179 243 3628 243 2778 
C 243 1991 762 1408 1414 1408 
C 1952 1408 2189 1903 2253 2112 
L 2253 1864 
z
M 1427 1510 
C 1254 1510 1011 1542 813 1922 
C 678 2169 678 2461 678 2771 
C 678 3146 678 3405 858 3684 
C 947 3817 1114 4032 1485 4032 
C 2240 4032 2240 2885 2240 2632 
C 2240 2182 2035 1510 1427 1510 
z
" transform="scale(0.015625)"/>
     </defs>
     <use xlink:href="#CMR17-30" transform="scale(0.996264)"/>
     <use xlink:href="#CMMI12-3a" transform="translate(45.690477 0)scale(0.996264)"/>
     <use xlink:href="#CMR17-35" transform="translate(72.787654 0)scale(0.996264)"/>
     <use xlink:href="#CMR17-35" transform="translate(118.478131 0)scale(0.996264)"/>
     <use xlink:href="#CMR17-39" transform="translate(164.168608 0)scale(0.996264)"/>
    </g>
   </g>
   <g id="text_16">
    <!-- $\mathdefault{0.559}$ -->
    <g transform="translate(140.588738 83.587268)rotate(-26.766625)scale(0.12 -0.12)">
     <use xlink:href="#CMR17-30" transform="scale(0.996264)"/>
     <use xlink:href="#CMMI12-3a" transform="translate(45.690477 0)scale(0.996264)"/>
     <use xlink:href="#CMR17-35" transform="translate(72.787654 0)scale(0.996264)"/>
     <use xlink:href="#CMR17-35" transform="translate(118.478131 0)scale(0.996264)"/>
     <use xlink:href="#CMR17-39" transform="translate(164.168608 0)scale(0.996264)"/>
    </g>
   </g>
   <g id="text_17">
    <!-- $\mathdefault{1.119}$ -->
    <g transform="translate(177.865743 218.515539)rotate(-30.585807)scale(0.12 -0.12)">
     <use xlink:href="#CMR17-31" transform="scale(0.996264)"/>
     <use xlink:href="#CMMI12-3a" transform="translate(45.690477 0)scale(0.996264)"/>
     <use xlink:href="#CMR17-31" transform="translate(72.787654 0)scale(0.996264)"/>
     <use xlink:href="#CMR17-31" transform="translate(118.478131 0)scale(0.996264)"/>
     <use xlink:href="#CMR17-39" transform="translate(164.168608 0)scale(0.996264)"/>
    </g>
   </g>
   <g id="text_18">
    <!-- $\mathdefault{1.119}$ -->
    <g transform="translate(187.238157 90.61308)rotate(-30.585807)scale(0.12 -0.12)">
     <use xlink:href="#CMR17-31" transform="scale(0.996264)"/>
     <use xlink:href="#CMMI12-3a" transform="translate(45.690477 0)scale(0.996264)"/>
     <use xlink:href="#CMR17-31" transform="translate(72.787654 0)scale(0.996264)"/>
     <use xlink:href="#CMR17-31" transform="translate(118.478131 0)scale(0.996264)"/>
     <use xlink:href="#CMR17-39" transform="translate(164.168608 0)scale(0.996264)"/>
    </g>
   </g>
   <g id="text_19">
    <!-- $\mathdefault{1.678}$ -->
    <g transform="translate(117.935221 201.531412)rotate(-327.702416)scale(0.12 -0.12)">
     <defs>
      <path id="CMR17-37" d="M 2886 3941 
L 2886 4081 
L 1382 4081 
C 634 4081 621 4165 595 4288 
L 480 4288 
L 294 3094 
L 410 3094 
C 429 3215 474 3540 550 3661 
C 589 3712 1062 3712 1171 3712 
L 2579 3712 
L 1869 2661 
C 1395 1954 1069 999 1069 165 
C 1069 89 1069 -128 1299 -128 
C 1530 -128 1530 89 1530 171 
L 1530 465 
C 1530 1508 1709 2196 2003 2636 
L 2886 3941 
z
" transform="scale(0.015625)"/>
     </defs>
     <use xlink:href="#CMR17-31" transform="scale(0.996264)"/>
     <use xlink:href="#CMMI12-3a" transform="translate(45.690477 0)scale(0.996264)"/>
     <use xlink:href="#CMR17-36" transform="translate(72.787654 0)scale(0.996264)"/>
     <use xlink:href="#CMR17-37" transform="translate(118.478131 0)scale(0.996264)"/>
     <use xlink:href="#CMR17-38" transform="translate(164.168608 0)scale(0.996264)"/>
    </g>
   </g>
   <g id="text_20">
    <!-- $\mathdefault{1.678}$ -->
    <g transform="translate(241.348711 79.690033)rotate(-327.702416)scale(0.12 -0.12)">
     <use xlink:href="#CMR17-31" transform="scale(0.996264)"/>
     <use xlink:href="#CMMI12-3a" transform="translate(45.690477 0)scale(0.996264)"/>
     <use xlink:href="#CMR17-36" transform="translate(72.787654 0)scale(0.996264)"/>
     <use xlink:href="#CMR17-37" transform="translate(118.478131 0)scale(0.996264)"/>
     <use xlink:href="#CMR17-38" transform="translate(164.168608 0)scale(0.996264)"/>
    </g>
   </g>
   <g id="text_21">
    <!-- $\mathdefault{2.237}$ -->
    <g transform="translate(80.862215 239.188355)rotate(-332.99874)scale(0.12 -0.12)">
     <defs>
      <path id="CMR17-33" d="M 1414 2157 
C 1984 2157 2234 1662 2234 1090 
C 2234 320 1824 25 1453 25 
C 1114 25 563 194 390 693 
C 422 680 454 680 486 680 
C 640 680 755 782 755 948 
C 755 1133 614 1216 486 1216 
C 378 1216 211 1165 211 926 
C 211 335 787 -128 1466 -128 
C 2176 -128 2720 430 2720 1085 
C 2720 1707 2208 2157 1600 2227 
C 2086 2328 2554 2756 2554 3329 
C 2554 3820 2048 4179 1472 4179 
C 890 4179 378 3829 378 3329 
C 378 3110 544 3072 627 3072 
C 762 3072 877 3155 877 3321 
C 877 3486 762 3569 627 3569 
C 602 3569 570 3569 544 3557 
C 730 3959 1235 4032 1459 4032 
C 1683 4032 2106 3925 2106 3320 
C 2106 3143 2080 2828 1862 2550 
C 1670 2304 1453 2304 1242 2284 
C 1210 2284 1062 2269 1037 2269 
C 992 2263 966 2257 966 2208 
C 966 2163 973 2157 1101 2157 
L 1414 2157 
z
" transform="scale(0.015625)"/>
     </defs>
     <use xlink:href="#CMR17-32" transform="scale(0.996264)"/>
     <use xlink:href="#CMMI12-3a" transform="translate(45.690477 0)scale(0.996264)"/>
     <use xlink:href="#CMR17-32" transform="translate(72.787654 0)scale(0.996264)"/>
     <use xlink:href="#CMR17-33" transform="translate(118.478131 0)scale(0.996264)"/>
     <use xlink:href="#CMR17-37" transform="translate(164.168608 0)scale(0.996264)"/>
    </g>
   </g>
   <g id="text_22">
    <!-- $\mathdefault{2.237}$ -->
    <g transform="translate(277.682904 44.447603)rotate(-332.99874)scale(0.12 -0.12)">
     <use xlink:href="#CMR17-32" transform="scale(0.996264)"/>
     <use xlink:href="#CMMI12-3a" transform="translate(45.690477 0)scale(0.996264)"/>
     <use xlink:href="#CMR17-32" transform="translate(72.787654 0)scale(0.996264)"/>
     <use xlink:href="#CMR17-33" transform="translate(118.478131 0)scale(0.996264)"/>
     <use xlink:href="#CMR17-37" transform="translate(164.168608 0)scale(0.996264)"/>
    </g>
   </g>
   <g id="text_23">
    <!-- $\mathdefault{2.797}$ -->
    <g transform="translate(61.787202 253.353008)rotate(-340.532611)scale(0.12 -0.12)">
     <use xlink:href="#CMR17-32" transform="scale(0.996264)"/>
     <use xlink:href="#CMMI12-3a" transform="translate(45.690477 0)scale(0.996264)"/>
     <use xlink:href="#CMR17-37" transform="translate(72.787654 0)scale(0.996264)"/>
     <use xlink:href="#CMR17-39" transform="translate(118.478131 0)scale(0.996264)"/>
     <use xlink:href="#CMR17-37" transform="translate(164.168608 0)scale(0.996264)"/>
    </g>
   </g>
   <g id="text_24">
    <!-- $\mathdefault{2.797}$ -->
    <g transform="translate(296.097547 33.812157)rotate(-340.532611)scale(0.12 -0.12)">
     <use xlink:href="#CMR17-32" transform="scale(0.996264)"/>
     <use xlink:href="#CMMI12-3a" transform="translate(45.690477 0)scale(0.996264)"/>
     <use xlink:href="#CMR17-37" transform="translate(72.787654 0)scale(0.996264)"/>
     <use xlink:href="#CMR17-39" transform="translate(118.478131 0)scale(0.996264)"/>
     <use xlink:href="#CMR17-37" transform="translate(164.168608 0)scale(0.996264)"/>
    </g>
   </g>
   <g id="text_25">
    <!-- $\mathdefault{3.356}$ -->
    <g transform="translate(52.427377 261.777382)rotate(-340.102279)scale(0.12 -0.12)">
     <use xlink:href="#CMR17-33" transform="scale(0.996264)"/>
     <use xlink:href="#CMMI12-3a" transform="translate(45.690477 0)scale(0.996264)"/>
     <use xlink:href="#CMR17-33" transform="translate(72.787654 0)scale(0.996264)"/>
     <use xlink:href="#CMR17-35" transform="translate(118.478131 0)scale(0.996264)"/>
     <use xlink:href="#CMR17-36" transform="translate(164.168608 0)scale(0.996264)"/>
    </g>
   </g>
   <g id="text_26">
    <!-- $\mathdefault{3.356}$ -->
    <g transform="translate(305.482549 25.1841)rotate(-340.102279)scale(0.12 -0.12)">
     <use xlink:href="#CMR17-33" transform="scale(0.996264)"/>
     <use xlink:href="#CMMI12-3a" transform="translate(45.690477 0)scale(0.996264)"/>
     <use xlink:href="#CMR17-33" transform="translate(72.787654 0)scale(0.996264)"/>
     <use xlink:href="#CMR17-35" transform="translate(118.478131 0)scale(0.996264)"/>
     <use xlink:href="#CMR17-36" transform="translate(164.168608 0)scale(0.996264)"/>
    </g>
   </g>
  </g>
 </g>
 <defs>
  <clipPath id="p04bb8ec28c">
   <rect x="56.608099" y="9.307752" width="271.8" height="271.8"/>
  </clipPath>
 </defs>
</svg>
