<?xml version="1.0" encoding="utf-8" standalone="no"?>
<!DOCTYPE svg PUBLIC "-//W3C//DTD SVG 1.1//EN"
  "http://www.w3.org/Graphics/SVG/1.1/DTD/svg11.dtd">
<svg xmlns:xlink="http://www.w3.org/1999/xlink" width="332.274647pt" height="331.760948pt" viewBox="0 0 332.274647 331.760948" xmlns="http://www.w3.org/2000/svg" version="1.1">
 <metadata>
  <rdf:RDF xmlns:dc="http://purl.org/dc/elements/1.1/" xmlns:cc="http://creativecommons.org/ns#" xmlns:rdf="http://www.w3.org/1999/02/22-rdf-syntax-ns#">
   <cc:Work>
    <dc:type rdf:resource="http://purl.org/dc/dcmitype/StillImage"/>
    <dc:date>2022-08-18T01:10:31.588489</dc:date>
    <dc:format>image/svg+xml</dc:format>
    <dc:creator>
     <cc:Agent>
      <dc:title>Matplotlib v3.5.1, https://matplotlib.org/</dc:title>
     </cc:Agent>
    </dc:creator>
   </cc:Work>
  </rdf:RDF>
 </metadata>
 <defs>
  <style type="text/css">*{stroke-linejoin: round; stroke-linecap: butt}</style>
 </defs>
 <g id="figure_1">
  <g id="patch_1">
   <path d="M 0 331.760948 
L 332.274647 331.760948 
L 332.274647 0 
L 0 0 
z
" style="fill: #ffffff"/>
  </g>
  <g id="axes_1">
   <g id="patch_2">
    <path d="M 56.874647 281.107752 
L 328.674647 281.107752 
L 328.674647 9.307752 
L 56.874647 9.307752 
z
" style="fill: #e5e5e5"/>
   </g>
   <g id="matplotlib.axis_1">
    <g id="xtick_1">
     <g id="line2d_1">
      <path d="M 102.174647 281.107752 
L 102.174647 9.307752 
" clip-path="url(#p89dc6eaec2)" style="fill: none; stroke: #ffffff; stroke-width: 1.5; stroke-linecap: square"/>
     </g>
     <g id="line2d_2">
      <defs>
       <path id="ma223a11c5f" d="M 0 0 
L 0 9 
" style="stroke: #555555; stroke-width: 1.875"/>
      </defs>
      <g>
       <use xlink:href="#ma223a11c5f" x="102.174647" y="281.107752" style="fill: #555555; stroke: #555555; stroke-width: 1.875"/>
      </g>
     </g>
     <g id="text_1">
      <!-- $\mathdefault{−2}$ -->
      <g style="fill: #555555" transform="translate(91.758006 305.023257)scale(0.165 -0.165)">
       <defs>
        <path id="CMSY10-0" d="M 4218 1472 
C 4326 1472 4442 1472 4442 1600 
C 4442 1728 4326 1728 4218 1728 
L 755 1728 
C 646 1728 531 1728 531 1600 
C 531 1472 646 1472 755 1472 
L 4218 1472 
z
" transform="scale(0.015625)"/>
        <path id="CMR17-32" d="M 2669 989 
L 2554 989 
C 2490 536 2438 459 2413 420 
C 2381 369 1920 369 1830 369 
L 602 369 
C 832 619 1280 1072 1824 1597 
C 2214 1967 2669 2402 2669 3035 
C 2669 3790 2067 4224 1395 4224 
C 691 4224 262 3604 262 3030 
C 262 2780 448 2748 525 2748 
C 589 2748 781 2787 781 3010 
C 781 3207 614 3264 525 3264 
C 486 3264 448 3258 422 3245 
C 544 3790 915 4058 1306 4058 
C 1862 4058 2227 3617 2227 3035 
C 2227 2479 1901 2000 1536 1584 
L 262 146 
L 262 0 
L 2515 0 
L 2669 989 
z
" transform="scale(0.015625)"/>
       </defs>
       <use xlink:href="#CMSY10-0" transform="scale(0.996264)"/>
       <use xlink:href="#CMR17-32" transform="translate(77.487468 0)scale(0.996264)"/>
      </g>
     </g>
    </g>
    <g id="xtick_2">
     <g id="line2d_3">
      <path d="M 192.774647 281.107752 
L 192.774647 9.307752 
" clip-path="url(#p89dc6eaec2)" style="fill: none; stroke: #ffffff; stroke-width: 1.5; stroke-linecap: square"/>
     </g>
     <g id="line2d_4">
      <g>
       <use xlink:href="#ma223a11c5f" x="192.774647" y="281.107752" style="fill: #555555; stroke: #555555; stroke-width: 1.875"/>
      </g>
     </g>
     <g id="text_2">
      <!-- $\mathdefault{0}$ -->
      <g style="fill: #555555" transform="translate(188.75072 305.023257)scale(0.165 -0.165)">
       <defs>
        <path id="CMR17-30" d="M 2688 2025 
C 2688 2416 2682 3080 2413 3591 
C 2176 4039 1798 4198 1466 4198 
C 1158 4198 768 4058 525 3597 
C 269 3118 243 2524 243 2025 
C 243 1661 250 1106 448 619 
C 723 -39 1216 -128 1466 -128 
C 1760 -128 2208 -7 2470 600 
C 2662 1042 2688 1559 2688 2025 
z
M 1466 -26 
C 1056 -26 813 325 723 812 
C 653 1188 653 1738 653 2096 
C 653 2588 653 2997 736 3387 
C 858 3929 1216 4096 1466 4096 
C 1728 4096 2067 3923 2189 3400 
C 2272 3036 2278 2607 2278 2096 
C 2278 1680 2278 1169 2202 792 
C 2067 95 1690 -26 1466 -26 
z
" transform="scale(0.015625)"/>
       </defs>
       <use xlink:href="#CMR17-30" transform="scale(0.996264)"/>
      </g>
     </g>
    </g>
    <g id="xtick_3">
     <g id="line2d_5">
      <path d="M 283.374647 281.107752 
L 283.374647 9.307752 
" clip-path="url(#p89dc6eaec2)" style="fill: none; stroke: #ffffff; stroke-width: 1.5; stroke-linecap: square"/>
     </g>
     <g id="line2d_6">
      <g>
       <use xlink:href="#ma223a11c5f" x="283.374647" y="281.107752" style="fill: #555555; stroke: #555555; stroke-width: 1.875"/>
      </g>
     </g>
     <g id="text_3">
      <!-- $\mathdefault{2}$ -->
      <g style="fill: #555555" transform="translate(279.35072 305.023257)scale(0.165 -0.165)">
       <use xlink:href="#CMR17-32" transform="scale(0.996264)"/>
      </g>
     </g>
    </g>
    <g id="xtick_4">
     <g id="line2d_7">
      <defs>
       <path id="m2aa8874b08" d="M 0 0 
L 0 6 
" style="stroke: #555555; stroke-width: 1.5"/>
      </defs>
      <g>
       <use xlink:href="#m2aa8874b08" x="79.524647" y="281.107752" style="fill: #555555; stroke: #555555; stroke-width: 1.5"/>
      </g>
     </g>
    </g>
    <g id="xtick_5">
     <g id="line2d_8">
      <g>
       <use xlink:href="#m2aa8874b08" x="124.824647" y="281.107752" style="fill: #555555; stroke: #555555; stroke-width: 1.5"/>
      </g>
     </g>
    </g>
    <g id="xtick_6">
     <g id="line2d_9">
      <g>
       <use xlink:href="#m2aa8874b08" x="147.474647" y="281.107752" style="fill: #555555; stroke: #555555; stroke-width: 1.5"/>
      </g>
     </g>
    </g>
    <g id="xtick_7">
     <g id="line2d_10">
      <g>
       <use xlink:href="#m2aa8874b08" x="170.124647" y="281.107752" style="fill: #555555; stroke: #555555; stroke-width: 1.5"/>
      </g>
     </g>
    </g>
    <g id="xtick_8">
     <g id="line2d_11">
      <g>
       <use xlink:href="#m2aa8874b08" x="215.424647" y="281.107752" style="fill: #555555; stroke: #555555; stroke-width: 1.5"/>
      </g>
     </g>
    </g>
    <g id="xtick_9">
     <g id="line2d_12">
      <g>
       <use xlink:href="#m2aa8874b08" x="238.074647" y="281.107752" style="fill: #555555; stroke: #555555; stroke-width: 1.5"/>
      </g>
     </g>
    </g>
    <g id="xtick_10">
     <g id="line2d_13">
      <g>
       <use xlink:href="#m2aa8874b08" x="260.724647" y="281.107752" style="fill: #555555; stroke: #555555; stroke-width: 1.5"/>
      </g>
     </g>
    </g>
    <g id="xtick_11">
     <g id="line2d_14">
      <g>
       <use xlink:href="#m2aa8874b08" x="306.024647" y="281.107752" style="fill: #555555; stroke: #555555; stroke-width: 1.5"/>
      </g>
     </g>
    </g>
    <g id="xtick_12">
     <g id="line2d_15">
      <g>
       <use xlink:href="#m2aa8874b08" x="328.674647" y="281.107752" style="fill: #555555; stroke: #555555; stroke-width: 1.5"/>
      </g>
     </g>
    </g>
    <g id="text_4">
     <!-- $x$ -->
     <g style="fill: #555555" transform="translate(187.785582 324.672884)scale(0.18 -0.18)">
      <defs>
       <path id="CMMI12-78" d="M 3034 2606 
C 2829 2567 2752 2414 2752 2293 
C 2752 2139 2874 2088 2963 2088 
C 3155 2088 3290 2254 3290 2427 
C 3290 2695 2982 2816 2714 2816 
C 2323 2816 2106 2433 2048 2312 
C 1901 2816 1504 2816 1389 2816 
C 736 2816 390 1980 390 1839 
C 390 1814 416 1782 461 1782 
C 512 1782 525 1820 538 1846 
C 755 2555 1184 2689 1370 2689 
C 1658 2689 1715 2420 1715 2267 
C 1715 2127 1677 1980 1600 1673 
L 1382 798 
C 1286 415 1101 64 762 64 
C 730 64 570 64 435 147 
C 666 192 717 383 717 460 
C 717 588 621 664 499 664 
C 346 664 179 530 179 326 
C 179 57 480 -64 755 -64 
C 1062 -64 1280 179 1414 441 
C 1517 64 1837 -64 2074 -64 
C 2726 -64 3072 773 3072 913 
C 3072 945 3046 971 3008 971 
C 2950 971 2944 939 2925 888 
C 2752 326 2381 64 2093 64 
C 1869 64 1747 230 1747 492 
C 1747 632 1773 734 1875 1156 
L 2099 2024 
C 2195 2408 2413 2689 2707 2689 
C 2720 2689 2899 2689 3034 2606 
z
" transform="scale(0.015625)"/>
      </defs>
      <use xlink:href="#CMMI12-78" transform="scale(0.996264)"/>
     </g>
    </g>
   </g>
   <g id="matplotlib.axis_2">
    <g id="ytick_1">
     <g id="line2d_16">
      <path d="M 56.874647 281.107752 
L 328.674647 281.107752 
" clip-path="url(#p89dc6eaec2)" style="fill: none; stroke: #ffffff; stroke-width: 1.5; stroke-linecap: square"/>
     </g>
     <g id="line2d_17">
      <defs>
       <path id="m8b0d0c987b" d="M 0 0 
L -9 0 
" style="stroke: #555555; stroke-width: 1.875"/>
      </defs>
      <g>
       <use xlink:href="#m8b0d0c987b" x="56.874647" y="281.107752" style="fill: #555555; stroke: #555555; stroke-width: 1.875"/>
      </g>
     </g>
     <g id="text_5">
      <!-- $\mathdefault{−3}$ -->
      <g style="fill: #555555" transform="translate(23.541364 286.815505)scale(0.165 -0.165)">
       <defs>
        <path id="CMR17-33" d="M 1414 2157 
C 1984 2157 2234 1662 2234 1090 
C 2234 320 1824 25 1453 25 
C 1114 25 563 194 390 693 
C 422 680 454 680 486 680 
C 640 680 755 782 755 948 
C 755 1133 614 1216 486 1216 
C 378 1216 211 1165 211 926 
C 211 335 787 -128 1466 -128 
C 2176 -128 2720 430 2720 1085 
C 2720 1707 2208 2157 1600 2227 
C 2086 2328 2554 2756 2554 3329 
C 2554 3820 2048 4179 1472 4179 
C 890 4179 378 3829 378 3329 
C 378 3110 544 3072 627 3072 
C 762 3072 877 3155 877 3321 
C 877 3486 762 3569 627 3569 
C 602 3569 570 3569 544 3557 
C 730 3959 1235 4032 1459 4032 
C 1683 4032 2106 3925 2106 3320 
C 2106 3143 2080 2828 1862 2550 
C 1670 2304 1453 2304 1242 2284 
C 1210 2284 1062 2269 1037 2269 
C 992 2263 966 2257 966 2208 
C 966 2163 973 2157 1101 2157 
L 1414 2157 
z
" transform="scale(0.015625)"/>
       </defs>
       <use xlink:href="#CMSY10-0" transform="scale(0.996264)"/>
       <use xlink:href="#CMR17-33" transform="translate(77.487468 0)scale(0.996264)"/>
      </g>
     </g>
    </g>
    <g id="ytick_2">
     <g id="line2d_18">
      <path d="M 56.874647 235.807752 
L 328.674647 235.807752 
" clip-path="url(#p89dc6eaec2)" style="fill: none; stroke: #ffffff; stroke-width: 1.5; stroke-linecap: square"/>
     </g>
     <g id="line2d_19">
      <g>
       <use xlink:href="#m8b0d0c987b" x="56.874647" y="235.807752" style="fill: #555555; stroke: #555555; stroke-width: 1.875"/>
      </g>
     </g>
     <g id="text_6">
      <!-- $\mathdefault{−2}$ -->
      <g style="fill: #555555" transform="translate(23.541364 241.515505)scale(0.165 -0.165)">
       <use xlink:href="#CMSY10-0" transform="scale(0.996264)"/>
       <use xlink:href="#CMR17-32" transform="translate(77.487468 0)scale(0.996264)"/>
      </g>
     </g>
    </g>
    <g id="ytick_3">
     <g id="line2d_20">
      <path d="M 56.874647 190.507752 
L 328.674647 190.507752 
" clip-path="url(#p89dc6eaec2)" style="fill: none; stroke: #ffffff; stroke-width: 1.5; stroke-linecap: square"/>
     </g>
     <g id="line2d_21">
      <g>
       <use xlink:href="#m8b0d0c987b" x="56.874647" y="190.507752" style="fill: #555555; stroke: #555555; stroke-width: 1.875"/>
      </g>
     </g>
     <g id="text_7">
      <!-- $\mathdefault{−1}$ -->
      <g style="fill: #555555" transform="translate(23.541364 196.215505)scale(0.165 -0.165)">
       <defs>
        <path id="CMR17-31" d="M 1702 4058 
C 1702 4192 1696 4192 1606 4192 
C 1357 3916 979 3827 621 3827 
C 602 3827 570 3827 563 3808 
C 557 3795 557 3782 557 3648 
C 755 3648 1088 3686 1344 3839 
L 1344 461 
C 1344 236 1331 160 781 160 
L 589 160 
L 589 0 
C 896 0 1216 0 1523 0 
C 1830 0 2150 0 2458 0 
L 2458 160 
L 2266 160 
C 1715 160 1702 230 1702 458 
L 1702 4058 
z
" transform="scale(0.015625)"/>
       </defs>
       <use xlink:href="#CMSY10-0" transform="scale(0.996264)"/>
       <use xlink:href="#CMR17-31" transform="translate(77.487468 0)scale(0.996264)"/>
      </g>
     </g>
    </g>
    <g id="ytick_4">
     <g id="line2d_22">
      <path d="M 56.874647 145.207752 
L 328.674647 145.207752 
" clip-path="url(#p89dc6eaec2)" style="fill: none; stroke: #ffffff; stroke-width: 1.5; stroke-linecap: square"/>
     </g>
     <g id="line2d_23">
      <g>
       <use xlink:href="#m8b0d0c987b" x="56.874647" y="145.207752" style="fill: #555555; stroke: #555555; stroke-width: 1.875"/>
      </g>
     </g>
     <g id="text_8">
      <!-- $\mathdefault{0}$ -->
      <g style="fill: #555555" transform="translate(36.326793 150.915505)scale(0.165 -0.165)">
       <use xlink:href="#CMR17-30" transform="scale(0.996264)"/>
      </g>
     </g>
    </g>
    <g id="ytick_5">
     <g id="line2d_24">
      <path d="M 56.874647 99.907752 
L 328.674647 99.907752 
" clip-path="url(#p89dc6eaec2)" style="fill: none; stroke: #ffffff; stroke-width: 1.5; stroke-linecap: square"/>
     </g>
     <g id="line2d_25">
      <g>
       <use xlink:href="#m8b0d0c987b" x="56.874647" y="99.907752" style="fill: #555555; stroke: #555555; stroke-width: 1.875"/>
      </g>
     </g>
     <g id="text_9">
      <!-- $\mathdefault{1}$ -->
      <g style="fill: #555555" transform="translate(36.326793 105.615505)scale(0.165 -0.165)">
       <use xlink:href="#CMR17-31" transform="scale(0.996264)"/>
      </g>
     </g>
    </g>
    <g id="ytick_6">
     <g id="line2d_26">
      <path d="M 56.874647 54.607752 
L 328.674647 54.607752 
" clip-path="url(#p89dc6eaec2)" style="fill: none; stroke: #ffffff; stroke-width: 1.5; stroke-linecap: square"/>
     </g>
     <g id="line2d_27">
      <g>
       <use xlink:href="#m8b0d0c987b" x="56.874647" y="54.607752" style="fill: #555555; stroke: #555555; stroke-width: 1.875"/>
      </g>
     </g>
     <g id="text_10">
      <!-- $\mathdefault{2}$ -->
      <g style="fill: #555555" transform="translate(36.326793 60.315505)scale(0.165 -0.165)">
       <use xlink:href="#CMR17-32" transform="scale(0.996264)"/>
      </g>
     </g>
    </g>
    <g id="ytick_7">
     <g id="line2d_28">
      <path d="M 56.874647 9.307752 
L 328.674647 9.307752 
" clip-path="url(#p89dc6eaec2)" style="fill: none; stroke: #ffffff; stroke-width: 1.5; stroke-linecap: square"/>
     </g>
     <g id="line2d_29">
      <g>
       <use xlink:href="#m8b0d0c987b" x="56.874647" y="9.307752" style="fill: #555555; stroke: #555555; stroke-width: 1.875"/>
      </g>
     </g>
     <g id="text_11">
      <!-- $\mathdefault{3}$ -->
      <g style="fill: #555555" transform="translate(36.326793 15.015505)scale(0.165 -0.165)">
       <use xlink:href="#CMR17-33" transform="scale(0.996264)"/>
      </g>
     </g>
    </g>
    <g id="ytick_8">
     <g id="line2d_30">
      <defs>
       <path id="m83f1ecaad2" d="M 0 0 
L -6 0 
" style="stroke: #555555; stroke-width: 1.5"/>
      </defs>
      <g>
       <use xlink:href="#m83f1ecaad2" x="56.874647" y="272.047752" style="fill: #555555; stroke: #555555; stroke-width: 1.5"/>
      </g>
     </g>
    </g>
    <g id="ytick_9">
     <g id="line2d_31">
      <g>
       <use xlink:href="#m83f1ecaad2" x="56.874647" y="262.987752" style="fill: #555555; stroke: #555555; stroke-width: 1.5"/>
      </g>
     </g>
    </g>
    <g id="ytick_10">
     <g id="line2d_32">
      <g>
       <use xlink:href="#m83f1ecaad2" x="56.874647" y="253.927752" style="fill: #555555; stroke: #555555; stroke-width: 1.5"/>
      </g>
     </g>
    </g>
    <g id="ytick_11">
     <g id="line2d_33">
      <g>
       <use xlink:href="#m83f1ecaad2" x="56.874647" y="244.867752" style="fill: #555555; stroke: #555555; stroke-width: 1.5"/>
      </g>
     </g>
    </g>
    <g id="ytick_12">
     <g id="line2d_34">
      <g>
       <use xlink:href="#m83f1ecaad2" x="56.874647" y="226.747752" style="fill: #555555; stroke: #555555; stroke-width: 1.5"/>
      </g>
     </g>
    </g>
    <g id="ytick_13">
     <g id="line2d_35">
      <g>
       <use xlink:href="#m83f1ecaad2" x="56.874647" y="217.687752" style="fill: #555555; stroke: #555555; stroke-width: 1.5"/>
      </g>
     </g>
    </g>
    <g id="ytick_14">
     <g id="line2d_36">
      <g>
       <use xlink:href="#m83f1ecaad2" x="56.874647" y="208.627752" style="fill: #555555; stroke: #555555; stroke-width: 1.5"/>
      </g>
     </g>
    </g>
    <g id="ytick_15">
     <g id="line2d_37">
      <g>
       <use xlink:href="#m83f1ecaad2" x="56.874647" y="199.567752" style="fill: #555555; stroke: #555555; stroke-width: 1.5"/>
      </g>
     </g>
    </g>
    <g id="ytick_16">
     <g id="line2d_38">
      <g>
       <use xlink:href="#m83f1ecaad2" x="56.874647" y="181.447752" style="fill: #555555; stroke: #555555; stroke-width: 1.5"/>
      </g>
     </g>
    </g>
    <g id="ytick_17">
     <g id="line2d_39">
      <g>
       <use xlink:href="#m83f1ecaad2" x="56.874647" y="172.387752" style="fill: #555555; stroke: #555555; stroke-width: 1.5"/>
      </g>
     </g>
    </g>
    <g id="ytick_18">
     <g id="line2d_40">
      <g>
       <use xlink:href="#m83f1ecaad2" x="56.874647" y="163.327752" style="fill: #555555; stroke: #555555; stroke-width: 1.5"/>
      </g>
     </g>
    </g>
    <g id="ytick_19">
     <g id="line2d_41">
      <g>
       <use xlink:href="#m83f1ecaad2" x="56.874647" y="154.267752" style="fill: #555555; stroke: #555555; stroke-width: 1.5"/>
      </g>
     </g>
    </g>
    <g id="ytick_20">
     <g id="line2d_42">
      <g>
       <use xlink:href="#m83f1ecaad2" x="56.874647" y="136.147752" style="fill: #555555; stroke: #555555; stroke-width: 1.5"/>
      </g>
     </g>
    </g>
    <g id="ytick_21">
     <g id="line2d_43">
      <g>
       <use xlink:href="#m83f1ecaad2" x="56.874647" y="127.087752" style="fill: #555555; stroke: #555555; stroke-width: 1.5"/>
      </g>
     </g>
    </g>
    <g id="ytick_22">
     <g id="line2d_44">
      <g>
       <use xlink:href="#m83f1ecaad2" x="56.874647" y="118.027752" style="fill: #555555; stroke: #555555; stroke-width: 1.5"/>
      </g>
     </g>
    </g>
    <g id="ytick_23">
     <g id="line2d_45">
      <g>
       <use xlink:href="#m83f1ecaad2" x="56.874647" y="108.967752" style="fill: #555555; stroke: #555555; stroke-width: 1.5"/>
      </g>
     </g>
    </g>
    <g id="ytick_24">
     <g id="line2d_46">
      <g>
       <use xlink:href="#m83f1ecaad2" x="56.874647" y="90.847752" style="fill: #555555; stroke: #555555; stroke-width: 1.5"/>
      </g>
     </g>
    </g>
    <g id="ytick_25">
     <g id="line2d_47">
      <g>
       <use xlink:href="#m83f1ecaad2" x="56.874647" y="81.787752" style="fill: #555555; stroke: #555555; stroke-width: 1.5"/>
      </g>
     </g>
    </g>
    <g id="ytick_26">
     <g id="line2d_48">
      <g>
       <use xlink:href="#m83f1ecaad2" x="56.874647" y="72.727752" style="fill: #555555; stroke: #555555; stroke-width: 1.5"/>
      </g>
     </g>
    </g>
    <g id="ytick_27">
     <g id="line2d_49">
      <g>
       <use xlink:href="#m83f1ecaad2" x="56.874647" y="63.667752" style="fill: #555555; stroke: #555555; stroke-width: 1.5"/>
      </g>
     </g>
    </g>
    <g id="ytick_28">
     <g id="line2d_50">
      <g>
       <use xlink:href="#m83f1ecaad2" x="56.874647" y="45.547752" style="fill: #555555; stroke: #555555; stroke-width: 1.5"/>
      </g>
     </g>
    </g>
    <g id="ytick_29">
     <g id="line2d_51">
      <g>
       <use xlink:href="#m83f1ecaad2" x="56.874647" y="36.487752" style="fill: #555555; stroke: #555555; stroke-width: 1.5"/>
      </g>
     </g>
    </g>
    <g id="ytick_30">
     <g id="line2d_52">
      <g>
       <use xlink:href="#m83f1ecaad2" x="56.874647" y="27.427752" style="fill: #555555; stroke: #555555; stroke-width: 1.5"/>
      </g>
     </g>
    </g>
    <g id="ytick_31">
     <g id="line2d_53">
      <g>
       <use xlink:href="#m83f1ecaad2" x="56.874647" y="18.367752" style="fill: #555555; stroke: #555555; stroke-width: 1.5"/>
      </g>
     </g>
    </g>
    <g id="text_12">
     <!-- $y$ -->
     <g style="fill: #555555" transform="translate(16.0533 149.488529)rotate(-90)scale(0.18 -0.18)">
      <defs>
       <path id="CMMI12-79" d="M 1683 -700 
C 1510 -939 1261 -1152 947 -1152 
C 870 -1152 563 -1152 467 -889 
C 486 -895 518 -895 531 -895 
C 723 -895 851 -729 851 -582 
C 851 -435 730 -384 634 -384 
C 531 -384 307 -458 307 -759 
C 307 -1071 582 -1286 947 -1286 
C 1587 -1286 2234 -700 2413 6 
L 3040 2485 
C 3046 2517 3059 2556 3059 2594 
C 3059 2689 2982 2753 2886 2753 
C 2829 2753 2694 2727 2643 2535 
L 2170 658 
C 2138 543 2138 530 2086 460 
C 1958 281 1747 64 1440 64 
C 1082 64 1050 415 1050 588 
C 1050 952 1222 1443 1395 1903 
C 1466 2088 1504 2178 1504 2305 
C 1504 2574 1312 2816 998 2816 
C 410 2816 173 1890 173 1839 
C 173 1814 198 1782 243 1782 
C 301 1782 307 1807 333 1897 
C 486 2433 730 2689 979 2689 
C 1037 2689 1146 2689 1146 2478 
C 1146 2312 1075 2127 979 1884 
C 666 1047 666 837 666 683 
C 666 77 1101 -64 1421 -64 
C 1606 -64 1837 -6 2061 230 
L 2067 224 
C 1971 -147 1907 -392 1683 -700 
z
" transform="scale(0.015625)"/>
      </defs>
      <use xlink:href="#CMMI12-79" transform="scale(0.996264)"/>
     </g>
    </g>
   </g>
   <g id="PathCollection_1"/>
   <g id="PathCollection_2">
    <path d="M 200.516642 77.857946 
L 185.911011 84.996398 
L 174.929192 91.002591 
L 166.692829 95.963996 
L 158.456465 101.465369 
L 152.965556 105.521143 
L 147.474647 109.863288 
L 143.096739 113.635025 
L 139.238283 117.20167 
L 134.557989 121.871389 
L 131.00192 125.731129 
L 127.251014 130.107752 
L 122.765556 135.933606 
L 119.150432 141.089571 
L 115.714202 146.58048 
L 112.666333 152.071389 
L 109.976319 157.562298 
L 107.636006 163.053207 
L 105.658313 168.544116 
L 104.023184 174.035025 
L 102.732282 179.525934 
L 101.820933 185.016843 
L 101.323747 190.507752 
L 101.233653 193.253207 
L 101.255571 195.998662 
L 101.397516 198.744116 
L 101.670478 201.489571 
L 102.088847 204.235025 
L 102.670957 206.98048 
L 103.547374 210.042358 
L 104.374656 212.471389 
L 105.548888 215.216843 
L 106.985676 217.962298 
L 109.038283 221.120187 
L 111.783738 224.465078 
L 114.529192 227.109891 
L 117.274647 229.244618 
L 120.020101 230.996723 
L 122.765556 232.433511 
L 125.511011 233.607744 
L 128.256465 234.542618 
L 131.00192 235.311443 
L 133.747374 235.893552 
L 136.492829 236.311921 
L 139.238283 236.584883 
L 141.983738 236.726829 
L 144.729192 236.748747 
L 150.220101 236.461909 
L 155.711011 235.758022 
L 161.20192 234.634168 
L 166.692829 233.198806 
L 172.183738 231.362492 
L 174.929192 230.346393 
L 180.420101 228.006081 
L 185.911011 225.316066 
L 191.40192 222.268197 
L 198.157501 217.962298 
L 199.638283 216.969484 
L 205.675695 212.471389 
L 210.620101 208.425263 
L 216.111011 203.424411 
L 220.780729 198.744116 
L 224.347374 194.885661 
L 228.119111 190.507752 
L 232.583738 184.854511 
L 236.51703 179.525934 
L 242.018404 171.289571 
L 246.979808 163.053207 
L 250.065002 157.562298 
L 255.772007 146.58048 
L 263.539724 130.107752 
L 269.640414 116.38048 
L 274.389546 105.398662 
L 281.4888 88.925934 
L 284.747374 81.248669 
L 286.193566 77.944116 
L 291.74753 64.216843 
L 293.708969 58.725934 
L 294.575986 55.98048 
L 295.318189 53.235025 
L 295.892881 50.489571 
L 296.147504 47.744116 
L 295.729192 44.78298 
L 292.983738 42.158763 
L 290.238283 41.834895 
L 286.758128 42.253207 
L 284.747374 42.664211 
L 282.00192 43.406413 
L 276.511011 45.241841 
L 271.020101 47.309568 
L 240.820101 60.019273 
L 231.203463 64.216843 
L 227.092829 65.957163 
L 220.742982 68.732744 
L 220.742982 68.732744 
" clip-path="url(#p89dc6eaec2)" style="fill: none; stroke: #23160e; stroke-width: 2.25"/>
   </g>
   <g id="PathCollection_3">
    <path d="M 265.241281 103.569551 
L 272.661123 86.18048 
L 275.745591 77.944116 
L 277.446517 72.453207 
L 278.086272 69.707752 
L 278.498733 66.962298 
L 278.498412 64.216843 
L 277.544793 61.471389 
L 276.511011 60.437607 
L 273.765556 59.483987 
L 271.020101 59.483667 
L 268.274647 59.896128 
L 265.529192 60.535883 
L 260.038283 62.236809 
L 254.547374 64.262582 
L 247.841735 66.962298 
L 243.565556 68.731365 
L 221.60192 78.528923 
L 213.365556 82.388677 
L 196.892829 90.627457 
L 185.911011 96.706622 
L 177.674647 101.688633 
L 172.067898 105.398662 
L 166.692829 109.165339 
L 160.872398 113.635025 
L 155.711011 117.924538 
L 151.352776 121.871389 
L 147.474647 125.676252 
L 143.299804 130.107752 
L 138.651522 135.598662 
L 134.504557 141.089571 
L 130.85886 146.58048 
L 128.256465 150.987037 
L 127.634286 152.071389 
L 124.860844 157.562298 
L 122.765556 162.487412 
L 121.498698 165.798662 
L 119.824714 171.289571 
L 119.129761 174.035025 
L 118.564942 176.78048 
L 118.127897 179.525934 
L 117.819398 182.271389 
L 117.643512 185.016843 
L 117.60788 187.762298 
L 117.724119 190.507752 
L 118.008385 193.253207 
L 118.482102 195.998662 
L 119.172927 198.744116 
L 120.113757 201.489571 
L 121.332343 204.235025 
L 122.913775 206.98048 
L 125.511011 210.366944 
L 128.256465 213.032692 
L 131.24061 215.216843 
L 133.747374 216.650057 
L 136.756959 217.962298 
L 139.238283 218.809472 
L 141.983738 219.500298 
L 144.729192 219.974015 
L 147.474647 220.25828 
L 150.220101 220.37452 
L 152.965556 220.338887 
L 155.711011 220.163001 
L 158.456465 219.854502 
L 161.20192 219.417458 
L 163.947374 218.852639 
L 169.438283 217.37686 
L 172.183738 216.483701 
L 177.674647 214.351078 
L 183.165556 211.789941 
L 188.656465 208.8045 
L 194.147374 205.372645 
L 199.638283 201.446725 
L 205.129192 197.077043 
L 209.427333 193.253207 
L 213.365556 189.463977 
L 217.60617 185.016843 
L 221.60192 180.465853 
L 224.61106 176.78048 
L 228.81706 171.289571 
L 232.663477 165.798662 
L 236.293766 160.307752 
L 241.275778 152.071389 
L 244.39145 146.58048 
L 249.056465 137.766059 
L 250.885696 134.19989 
L 250.885696 134.19989 
" clip-path="url(#p89dc6eaec2)" style="fill: none; stroke: #452c1c; stroke-width: 2.25"/>
   </g>
   <g id="PathCollection_4">
    <path d="M 163.155103 121.402943 
L 159.594472 124.616843 
L 155.711011 128.405438 
L 151.515531 132.853207 
L 147.474647 137.636904 
L 146.898264 138.344116 
L 142.828184 143.835025 
L 139.238283 149.447477 
L 137.709838 152.071389 
L 134.931269 157.562298 
L 132.654378 163.053207 
L 131.711113 165.798662 
L 130.213185 171.289571 
L 129.671563 174.035025 
L 129.283363 176.78048 
L 129.054833 179.525934 
L 128.997272 182.271389 
L 129.127734 185.016843 
L 129.469992 187.762298 
L 130.055827 190.507752 
L 131.00192 193.435701 
L 132.147405 195.998662 
L 133.803672 198.744116 
L 136.492829 201.894528 
L 139.321323 204.235025 
L 141.983738 205.834995 
L 144.729192 207.055671 
L 147.474647 207.926572 
L 150.220101 208.512407 
L 152.965556 208.854665 
L 155.711011 208.985127 
L 158.456465 208.927566 
L 161.20192 208.699036 
L 163.947374 208.310836 
L 166.692829 207.769215 
L 172.183738 206.271286 
L 174.929192 205.328022 
L 180.420101 203.05113 
L 185.911011 200.272562 
L 191.40192 196.989361 
L 196.892829 193.172232 
L 200.345495 190.507752 
L 203.639126 187.762298 
L 206.704795 185.016843 
L 210.620101 181.240561 
L 214.841413 176.78048 
L 218.856465 172.161128 
L 221.774182 168.544116 
L 225.928807 163.053207 
L 229.838283 157.408167 
L 233.318081 152.071389 
L 238.255005 143.835025 
L 241.350903 138.344116 
L 245.722061 130.107752 
L 251.80192 117.765633 
L 254.547374 111.874079 
L 256.25273 108.144116 
L 260.911413 97.162298 
L 262.992449 91.671389 
L 264.780782 86.18048 
L 265.529192 83.352438 
L 266.028828 80.689571 
L 266.232202 77.944116 
L 265.86992 75.198662 
L 265.529192 74.461616 
L 263.520783 72.453207 
L 262.783738 72.11248 
L 260.038283 71.750197 
L 257.292829 71.953571 
L 254.547374 72.468056 
L 249.056465 74.046953 
L 243.565556 76.004214 
L 238.074647 78.195394 
L 229.838283 81.729669 
L 218.856465 86.814066 
L 210.620101 90.856557 
L 198.69248 97.162298 
L 193.840178 99.907752 
L 188.656465 102.975561 
L 182.595992 106.794606 
L 182.595992 106.794606 
" clip-path="url(#p89dc6eaec2)" style="fill: none; stroke: #69422a; stroke-width: 2.25"/>
   </g>
   <g id="PathCollection_5">
    <path d="M 239.915685 129.970204 
L 244.032146 121.871389 
L 247.909504 113.635025 
L 251.411364 105.398662 
L 253.454982 99.907752 
L 254.547374 96.455222 
L 255.116747 94.416843 
L 255.689554 91.671389 
L 255.989742 88.925934 
L 255.793878 86.18048 
L 254.47353 83.435025 
L 251.80192 82.188521 
L 249.056465 81.992658 
L 246.311011 82.292846 
L 243.565556 82.865653 
L 240.820101 83.626948 
L 235.329192 85.5087 
L 229.838283 87.688035 
L 221.60192 91.332267 
L 213.365556 95.3089 
L 205.129192 99.6164 
L 196.892829 104.262325 
L 188.656465 109.355224 
L 182.345127 113.635025 
L 177.674647 117.048821 
L 171.621266 121.871389 
L 166.692829 126.202888 
L 162.626791 130.107752 
L 158.456465 134.538671 
L 155.711011 137.722559 
L 155.187413 138.344116 
L 151.003075 143.835025 
L 147.474647 149.243822 
L 147.422692 149.325934 
L 145.829097 152.071389 
L 143.098643 157.562298 
L 141.962653 160.307752 
L 140.951033 163.053207 
L 140.106151 165.798662 
L 139.238283 169.562307 
L 138.905872 171.289571 
L 138.568036 174.035025 
L 138.430905 176.78048 
L 138.515564 179.525934 
L 138.852223 182.271389 
L 139.486764 185.016843 
L 140.495071 187.762298 
L 141.983738 190.542467 
L 144.729192 193.842835 
L 147.474647 196.02204 
L 150.220101 197.487329 
L 152.965556 198.495635 
L 155.711011 199.130176 
L 158.456465 199.466835 
L 161.20192 199.551494 
L 163.947374 199.414364 
L 166.692829 199.076528 
L 169.438283 198.55674 
L 172.183738 197.876248 
L 174.929192 197.031366 
L 177.724001 195.998662 
L 180.420101 194.883757 
L 183.78659 193.253207 
L 185.911011 192.153302 
L 191.40192 188.850189 
L 196.804757 185.016843 
L 196.892829 184.952226 
L 200.259841 182.271389 
L 203.443728 179.525934 
L 206.403238 176.78048 
L 209.172971 174.035025 
L 213.365556 169.544458 
L 216.578648 165.798662 
L 221.60192 159.418661 
L 223.747838 156.478266 
L 223.747838 156.478266 
" clip-path="url(#p89dc6eaec2)" style="fill: none; stroke: #8c5838; stroke-width: 2.25"/>
   </g>
   <g id="PathCollection_6">
    <path d="M 203.752242 171.886073 
L 207.190098 168.544116 
L 209.80882 165.798662 
L 213.365556 161.795063 
L 216.823892 157.562298 
L 220.94933 152.071389 
L 224.73497 146.58048 
L 228.238875 141.089571 
L 232.583738 133.661361 
L 235.329192 128.588942 
L 238.074647 123.1635 
L 239.994571 119.125934 
L 242.387002 113.635025 
L 244.478759 108.144116 
L 245.362755 105.398662 
L 246.311011 101.649321 
L 246.64484 99.907752 
L 246.82216 97.162298 
L 246.311011 94.213852 
L 243.565556 91.577013 
L 240.820101 91.160239 
L 238.074647 91.337559 
L 235.329192 91.860881 
L 232.583738 92.619644 
L 227.092829 94.494602 
L 220.702743 97.162298 
L 214.818899 99.907752 
L 209.393458 102.653207 
L 204.321038 105.398662 
L 199.55238 108.144116 
L 194.147374 111.464483 
L 188.656465 115.099129 
L 183.065995 119.125934 
L 177.674647 123.373774 
L 173.060936 127.362298 
L 169.438283 130.792302 
L 166.692829 133.589675 
L 163.947374 136.600236 
L 161.20192 139.869333 
L 160.217864 141.089571 
L 158.17392 143.835025 
L 155.711011 147.5052 
L 154.563426 149.325934 
L 152.965556 152.163392 
L 151.610418 154.816843 
L 150.220101 158.003396 
L 149.326702 160.307752 
L 148.450062 163.053207 
L 147.762616 165.798662 
L 147.276768 168.544116 
L 147.01708 171.289571 
L 147.010802 174.035025 
L 147.474647 177.587878 
L 147.953938 179.525934 
L 149.084275 182.271389 
L 150.876309 185.016843 
L 152.965556 187.106091 
L 153.844474 187.762298 
L 155.711011 188.898124 
L 158.456465 190.028461 
L 161.20192 190.685246 
L 163.947374 190.971597 
L 166.692829 190.96532 
L 170.535151 190.507752 
L 172.183738 190.219784 
L 174.929192 189.532337 
L 177.674647 188.655697 
L 180.420101 187.595393 
L 184.221318 185.832796 
L 184.221318 185.832796 
" clip-path="url(#p89dc6eaec2)" style="fill: none; stroke: #af6f47; stroke-width: 2.25"/>
   </g>
   <g id="PathCollection_7">
    <path d="M 164.47304 181.932706 
L 165.755973 182.271389 
L 166.692829 182.479507 
L 169.438283 182.701578 
L 172.183738 182.580079 
L 174.221021 182.271389 
L 174.929192 182.165975 
L 177.674647 181.488996 
L 180.420101 180.590023 
L 183.055155 179.525934 
L 183.165556 179.481909 
L 185.911011 178.165771 
L 188.43803 176.78048 
L 188.656465 176.661583 
L 191.40192 174.966536 
L 192.759946 174.035025 
L 194.147374 173.084656 
L 196.531819 171.289571 
L 196.892829 171.017041 
L 199.638283 168.761506 
L 199.884012 168.544116 
L 202.383738 166.313417 
L 202.923394 165.798662 
L 205.129192 163.668218 
L 205.729485 163.053207 
L 207.874647 160.819744 
L 208.341636 160.307752 
L 210.620101 157.760349 
L 210.78951 157.562298 
L 213.088504 154.816843 
L 213.365556 154.478412 
L 215.260824 152.071389 
L 216.111011 150.962784 
L 217.326337 149.325934 
L 218.856465 147.204524 
L 219.295008 146.58048 
L 221.16663 143.835025 
L 221.60192 143.176797 
L 222.95333 141.089571 
L 224.347374 138.863592 
L 224.667773 138.344116 
L 226.297606 135.598662 
L 227.092829 134.210033 
L 227.861338 132.853207 
L 229.351568 130.107752 
L 229.838283 129.168334 
L 230.767379 127.362298 
L 232.111874 124.616843 
L 232.583738 123.590098 
L 233.37086 121.871389 
L 234.538082 119.125934 
L 235.329192 117.111392 
L 235.616198 116.38048 
L 236.530222 113.635025 
L 237.296537 110.889571 
L 237.845175 108.144116 
L 238.00266 105.398662 
L 237.296036 102.653207 
L 235.329192 100.686363 
L 232.583738 99.979739 
L 229.838283 100.137225 
L 227.092829 100.685863 
L 224.347374 101.452177 
L 221.60192 102.366202 
L 220.871007 102.653207 
L 218.856465 103.444317 
L 216.111011 104.61154 
L 214.392301 105.398662 
L 213.365556 105.870525 
L 210.620101 107.215021 
L 208.814065 108.144116 
L 207.874647 108.630831 
L 205.129192 110.121062 
L 203.772366 110.889571 
L 202.383738 111.684794 
L 199.638283 113.314626 
L 199.118808 113.635025 
L 196.892829 115.029069 
L 194.805602 116.38048 
L 194.147374 116.81577 
L 191.40192 118.687391 
L 190.777875 119.125934 
L 188.656465 120.656063 
L 187.019616 121.871389 
L 185.911011 122.721575 
L 183.503987 124.616843 
L 183.165556 124.893896 
L 180.420101 127.192889 
L 180.222051 127.362298 
L 177.674647 129.640763 
L 177.162655 130.107752 
L 174.929192 132.252915 
L 174.314182 132.853207 
L 172.183738 135.059005 
L 171.668983 135.598662 
L 169.438283 138.098387 
L 169.220894 138.344116 
L 166.965358 141.089571 
L 166.692829 141.45058 
L 164.897744 143.835025 
L 163.947374 145.222453 
L 163.015863 146.58048 
L 161.320816 149.325934 
L 161.20192 149.54437 
L 159.816628 152.071389 
L 159.137333 153.488394 
" clip-path="url(#p89dc6eaec2)" style="fill: none; stroke: #d28555; stroke-width: 2.25"/>
   </g>
   <g id="PathCollection_8">
    <path d="M 205.996799 115.132894 
L 205.129192 115.587039 
L 203.699423 116.38048 
L 202.383738 117.129613 
L 199.638283 118.765914 
L 199.06522 119.125934 
L 196.892829 120.532545 
L 194.890102 121.871389 
L 194.147374 122.38645 
L 191.40192 124.356787 
L 191.052258 124.616843 
L 188.656465 126.474537 
L 187.541259 127.362298 
L 185.911011 128.724842 
L 184.295554 130.107752 
L 183.165556 131.130925 
L 181.303662 132.853207 
L 180.420101 133.724506 
L 178.554444 135.598662 
L 177.674647 136.548761 
L 176.037581 138.344116 
L 174.929192 139.662624 
L 173.744045 141.089571 
L 172.183738 143.147164 
L 171.66653 143.835025 
L 169.814819 146.58048 
L 169.438283 147.216304 
L 168.194979 149.325934 
L 166.785277 152.071389 
L 166.692829 152.294464 
L 165.649149 154.816843 
L 164.764153 157.562298 
L 164.164078 160.307752 
L 163.947374 162.747899 
L 163.920299 163.053207 
L 163.947374 163.463388 
L 164.13855 165.798662 
L 165.014689 168.544116 
L 166.692829 171.077303 
L 166.905096 171.289571 
L 169.438283 172.96771 
L 172.183738 173.843849 
L 174.519012 174.035025 
L 174.929192 174.0621 
L 175.2345 174.035025 
L 177.674647 173.818321 
L 180.420101 173.218246 
L 183.165556 172.33325 
L 185.687936 171.289571 
L 185.911011 171.197123 
L 188.656465 169.787421 
L 190.766095 168.544116 
L 191.40192 168.167581 
L 194.147374 166.315869 
L 194.835236 165.798662 
L 196.892829 164.238355 
L 198.319775 163.053207 
L 199.638283 161.944819 
L 201.433639 160.307752 
L 202.383738 159.427956 
L 204.257893 157.562298 
L 205.129192 156.678737 
L 206.851474 154.816843 
L 207.874647 153.686845 
L 209.257557 152.071389 
L 210.620101 150.44114 
L 211.507863 149.325934 
L 213.365556 146.930142 
L 213.625612 146.58048 
L 215.595949 143.835025 
L 216.111011 143.092298 
L 217.449855 141.089571 
L 218.856465 138.917179 
L 219.216485 138.344116 
L 220.852786 135.598662 
L 221.60192 134.282977 
L 222.39536 132.853207 
L 223.832458 130.107752 
L 224.347374 129.044046 
L 225.144179 127.362298 
L 226.327715 124.616843 
L 227.092829 122.62747 
L 227.378591 121.871389 
L 228.17708 119.125934 
L 228.716857 116.38048 
L 228.793171 113.635025 
L 227.841774 110.889571 
L 227.092829 110.140626 
L 226.396648 109.899374 
" clip-path="url(#p89dc6eaec2)" style="fill: none; stroke: #f69b63; stroke-width: 2.25"/>
   </g>
   <g id="PathCollection_9">
    <path d="M 177.157485 147.247949 
L 176.087172 149.325934 
L 174.935658 152.071389 
L 174.929192 152.097177 
L 174.267249 154.816843 
L 174.089851 157.562298 
L 174.649466 160.307752 
L 174.929192 160.8218 
L 177.160599 163.053207 
L 177.674647 163.332933 
L 180.420101 163.892549 
L 183.165556 163.715151 
L 185.885223 163.053207 
L 185.911011 163.046741 
L 188.656465 161.895228 
L 191.40192 160.48112 
L 191.673317 160.307752 
L 194.147374 158.693671 
L 195.67871 157.562298 
L 196.892829 156.642792 
L 199.054251 154.816843 
L 199.638283 154.309384 
L 201.977833 152.071389 
L 202.383738 151.670828 
L 204.567201 149.325934 
L 205.129192 148.701687 
L 206.902271 146.58048 
L 207.874647 145.374626 
L 209.038247 143.835025 
L 210.620101 141.661577 
L 211.013662 141.089571 
L 212.772167 138.344116 
L 213.365556 137.345804 
L 214.351769 135.598662 
L 215.782888 132.853207 
L 216.111011 132.100126 
L 216.938781 130.107752 
L 217.829145 127.362298 
L 218.344792 124.616843 
L 217.981907 121.871389 
L 216.111011 120.000492 
L 213.365556 119.637608 
L 210.620101 120.153254 
L 207.874647 121.043619 
L 205.882273 121.871389 
L 205.129192 122.199511 
L 202.383738 123.63063 
L 200.636595 124.616843 
L 199.638283 125.210233 
L 196.892829 126.968737 
L 196.320822 127.362298 
L 195.490718 127.966455 
" clip-path="url(#p89dc6eaec2)" style="fill: none; stroke: #ffb171; stroke-width: 2.25"/>
   </g>
   <g id="PathCollection_10"/>
   <g id="patch_3">
    <path d="M 56.874647 281.107752 
L 56.874647 9.307752 
" style="fill: none; stroke: #ffffff; stroke-width: 1.875; stroke-linejoin: miter; stroke-linecap: square"/>
   </g>
   <g id="patch_4">
    <path d="M 56.874647 281.107752 
L 328.674647 281.107752 
" style="fill: none; stroke: #ffffff; stroke-width: 1.875; stroke-linejoin: miter; stroke-linecap: square"/>
   </g>
   <g id="text_13">
    <!-- $\mathdefault{0.0247}$ -->
    <g transform="translate(195.369318 79.582474)rotate(-12.278624)scale(0.12 -0.12)">
     <defs>
      <path id="CMMI12-3a" d="M 1178 307 
C 1178 492 1024 619 870 619 
C 685 619 557 466 557 313 
C 557 128 710 0 864 0 
C 1050 0 1178 153 1178 307 
z
" transform="scale(0.015625)"/>
      <path id="CMR17-34" d="M 2150 4122 
C 2150 4256 2144 4256 2029 4256 
L 128 1254 
L 128 1088 
L 1779 1088 
L 1779 457 
C 1779 224 1766 160 1318 160 
L 1197 160 
L 1197 0 
C 1402 0 1747 0 1965 0 
C 2182 0 2528 0 2733 0 
L 2733 160 
L 2611 160 
C 2163 160 2150 224 2150 457 
L 2150 1088 
L 2803 1088 
L 2803 1254 
L 2150 1254 
L 2150 4122 
z
M 1798 3703 
L 1798 1254 
L 256 1254 
L 1798 3703 
z
" transform="scale(0.015625)"/>
      <path id="CMR17-37" d="M 2886 3941 
L 2886 4081 
L 1382 4081 
C 634 4081 621 4165 595 4288 
L 480 4288 
L 294 3094 
L 410 3094 
C 429 3215 474 3540 550 3661 
C 589 3712 1062 3712 1171 3712 
L 2579 3712 
L 1869 2661 
C 1395 1954 1069 999 1069 165 
C 1069 89 1069 -128 1299 -128 
C 1530 -128 1530 89 1530 171 
L 1530 465 
C 1530 1508 1709 2196 2003 2636 
L 2886 3941 
z
" transform="scale(0.015625)"/>
     </defs>
     <use xlink:href="#CMR17-30" transform="scale(0.996264)"/>
     <use xlink:href="#CMMI12-3a" transform="translate(45.690477 0)scale(0.996264)"/>
     <use xlink:href="#CMR17-30" transform="translate(72.787654 0)scale(0.996264)"/>
     <use xlink:href="#CMR17-32" transform="translate(118.478131 0)scale(0.996264)"/>
     <use xlink:href="#CMR17-34" transform="translate(164.168608 0)scale(0.996264)"/>
     <use xlink:href="#CMR17-37" transform="translate(209.859086 0)scale(0.996264)"/>
    </g>
   </g>
   <g id="text_14">
    <!-- $\mathdefault{0.0494}$ -->
    <g transform="translate(249.073444 132.918561)rotate(-46.133013)scale(0.12 -0.12)">
     <defs>
      <path id="CMR17-39" d="M 2253 1864 
C 2253 464 1670 31 1190 31 
C 1043 31 685 31 538 294 
C 704 268 826 357 826 518 
C 826 692 685 749 595 749 
C 538 749 365 723 365 506 
C 365 71 742 -128 1203 -128 
C 1939 -128 2688 674 2688 2073 
C 2688 3817 1971 4179 1485 4179 
C 851 4179 243 3628 243 2778 
C 243 1991 762 1408 1414 1408 
C 1952 1408 2189 1903 2253 2112 
L 2253 1864 
z
M 1427 1510 
C 1254 1510 1011 1542 813 1922 
C 678 2169 678 2461 678 2771 
C 678 3146 678 3405 858 3684 
C 947 3817 1114 4032 1485 4032 
C 2240 4032 2240 2885 2240 2632 
C 2240 2182 2035 1510 1427 1510 
z
" transform="scale(0.015625)"/>
     </defs>
     <use xlink:href="#CMR17-30" transform="scale(0.996264)"/>
     <use xlink:href="#CMMI12-3a" transform="translate(45.690477 0)scale(0.996264)"/>
     <use xlink:href="#CMR17-30" transform="translate(72.787654 0)scale(0.996264)"/>
     <use xlink:href="#CMR17-34" transform="translate(118.478131 0)scale(0.996264)"/>
     <use xlink:href="#CMR17-39" transform="translate(164.168608 0)scale(0.996264)"/>
     <use xlink:href="#CMR17-34" transform="translate(209.859086 0)scale(0.996264)"/>
    </g>
   </g>
   <g id="text_15">
    <!-- $\mathdefault{0.0741}$ -->
    <g transform="translate(158.542371 122.013307)rotate(-20.036452)scale(0.12 -0.12)">
     <use xlink:href="#CMR17-30" transform="scale(0.996264)"/>
     <use xlink:href="#CMMI12-3a" transform="translate(45.690477 0)scale(0.996264)"/>
     <use xlink:href="#CMR17-30" transform="translate(72.787654 0)scale(0.996264)"/>
     <use xlink:href="#CMR17-37" transform="translate(118.478131 0)scale(0.996264)"/>
     <use xlink:href="#CMR17-34" transform="translate(164.168608 0)scale(0.996264)"/>
     <use xlink:href="#CMR17-31" transform="translate(209.859086 0)scale(0.996264)"/>
    </g>
   </g>
   <g id="text_16">
    <!-- $\mathdefault{0.0988}$ -->
    <g transform="translate(221.238954 156.324033)rotate(-38.652773)scale(0.12 -0.12)">
     <defs>
      <path id="CMR17-38" d="M 1741 2264 
C 2144 2467 2554 2773 2554 3263 
C 2554 3841 1990 4179 1472 4179 
C 890 4179 378 3759 378 3180 
C 378 3021 416 2747 666 2505 
C 730 2442 998 2251 1171 2130 
C 883 1983 211 1634 211 934 
C 211 279 838 -128 1459 -128 
C 2144 -128 2720 362 2720 1010 
C 2720 1590 2330 1857 2074 2029 
L 1741 2264 
z
M 902 2822 
C 851 2854 595 3051 595 3351 
C 595 3739 998 4032 1459 4032 
C 1965 4032 2336 3676 2336 3262 
C 2336 2669 1670 2331 1638 2331 
C 1632 2331 1626 2331 1574 2370 
L 902 2822 
z
M 2080 1519 
C 2176 1449 2483 1240 2483 851 
C 2483 381 2010 25 1472 25 
C 890 25 448 438 448 940 
C 448 1443 838 1862 1280 2060 
L 2080 1519 
z
" transform="scale(0.015625)"/>
     </defs>
     <use xlink:href="#CMR17-30" transform="scale(0.996264)"/>
     <use xlink:href="#CMMI12-3a" transform="translate(45.690477 0)scale(0.996264)"/>
     <use xlink:href="#CMR17-30" transform="translate(72.787654 0)scale(0.996264)"/>
     <use xlink:href="#CMR17-39" transform="translate(118.478131 0)scale(0.996264)"/>
     <use xlink:href="#CMR17-38" transform="translate(164.168608 0)scale(0.996264)"/>
     <use xlink:href="#CMR17-38" transform="translate(209.859086 0)scale(0.996264)"/>
    </g>
   </g>
   <g id="text_17">
    <!-- $\mathdefault{0.1235}$ -->
    <g transform="translate(179.775817 187.976941)rotate(-19.196419)scale(0.12 -0.12)">
     <defs>
      <path id="CMR17-35" d="M 730 3692 
C 794 3666 1056 3584 1325 3584 
C 1920 3584 2246 3911 2432 4100 
C 2432 4157 2432 4192 2394 4192 
C 2387 4192 2374 4192 2323 4163 
C 2099 4058 1837 3973 1517 3973 
C 1325 3973 1037 3999 723 4139 
C 653 4171 640 4171 634 4171 
C 602 4171 595 4164 595 4037 
L 595 2203 
C 595 2089 595 2057 659 2057 
C 691 2057 704 2070 736 2114 
C 941 2401 1222 2522 1542 2522 
C 1766 2522 2246 2382 2246 1289 
C 2246 1085 2246 715 2054 421 
C 1894 159 1645 25 1370 25 
C 947 25 518 320 403 814 
C 429 807 480 795 506 795 
C 589 795 749 840 749 1038 
C 749 1210 627 1280 506 1280 
C 358 1280 262 1190 262 1011 
C 262 454 704 -128 1382 -128 
C 2042 -128 2669 440 2669 1264 
C 2669 2030 2170 2624 1549 2624 
C 1222 2624 947 2503 730 2274 
L 730 3692 
z
" transform="scale(0.015625)"/>
     </defs>
     <use xlink:href="#CMR17-30" transform="scale(0.996264)"/>
     <use xlink:href="#CMMI12-3a" transform="translate(45.690477 0)scale(0.996264)"/>
     <use xlink:href="#CMR17-31" transform="translate(72.787654 0)scale(0.996264)"/>
     <use xlink:href="#CMR17-32" transform="translate(118.478131 0)scale(0.996264)"/>
     <use xlink:href="#CMR17-33" transform="translate(164.168608 0)scale(0.996264)"/>
     <use xlink:href="#CMR17-35" transform="translate(209.859086 0)scale(0.996264)"/>
    </g>
   </g>
   <g id="text_18">
    <!-- $\mathdefault{0.1482}$ -->
    <g transform="translate(146.944545 158.211631)rotate(-291.610121)scale(0.12 -0.12)">
     <use xlink:href="#CMR17-30" transform="scale(0.996264)"/>
     <use xlink:href="#CMMI12-3a" transform="translate(45.690477 0)scale(0.996264)"/>
     <use xlink:href="#CMR17-31" transform="translate(72.787654 0)scale(0.996264)"/>
     <use xlink:href="#CMR17-34" transform="translate(118.478131 0)scale(0.996264)"/>
     <use xlink:href="#CMR17-38" transform="translate(164.168608 0)scale(0.996264)"/>
     <use xlink:href="#CMR17-32" transform="translate(209.859086 0)scale(0.996264)"/>
    </g>
   </g>
   <g id="text_19">
    <!-- $\mathdefault{0.1728}$ -->
    <g transform="translate(200.460094 115.924918)rotate(-8.360889)scale(0.12 -0.12)">
     <use xlink:href="#CMR17-30" transform="scale(0.996264)"/>
     <use xlink:href="#CMMI12-3a" transform="translate(45.690477 0)scale(0.996264)"/>
     <use xlink:href="#CMR17-31" transform="translate(72.787654 0)scale(0.996264)"/>
     <use xlink:href="#CMR17-37" transform="translate(118.478131 0)scale(0.996264)"/>
     <use xlink:href="#CMR17-32" transform="translate(164.168608 0)scale(0.996264)"/>
     <use xlink:href="#CMR17-38" transform="translate(209.859086 0)scale(0.996264)"/>
    </g>
   </g>
   <g id="text_20">
    <!-- $\mathdefault{0.1975}$ -->
    <g transform="translate(172.707089 145.950514)rotate(-26.572665)scale(0.12 -0.12)">
     <use xlink:href="#CMR17-30" transform="scale(0.996264)"/>
     <use xlink:href="#CMMI12-3a" transform="translate(45.690477 0)scale(0.996264)"/>
     <use xlink:href="#CMR17-31" transform="translate(72.787654 0)scale(0.996264)"/>
     <use xlink:href="#CMR17-39" transform="translate(118.478131 0)scale(0.996264)"/>
     <use xlink:href="#CMR17-37" transform="translate(164.168608 0)scale(0.996264)"/>
     <use xlink:href="#CMR17-35" transform="translate(209.859086 0)scale(0.996264)"/>
    </g>
   </g>
  </g>
 </g>
 <defs>
  <clipPath id="p89dc6eaec2">
   <rect x="56.874647" y="9.307752" width="271.8" height="271.8"/>
  </clipPath>
 </defs>
</svg>
