<?xml version="1.0" encoding="utf-8" standalone="no"?>
<!DOCTYPE svg PUBLIC "-//W3C//DTD SVG 1.1//EN"
  "http://www.w3.org/Graphics/SVG/1.1/DTD/svg11.dtd">
<svg xmlns:xlink="http://www.w3.org/1999/xlink" width="342.291466pt" height="331.760948pt" viewBox="0 0 342.291466 331.760948" xmlns="http://www.w3.org/2000/svg" version="1.1">
 <metadata>
  <rdf:RDF xmlns:dc="http://purl.org/dc/elements/1.1/" xmlns:cc="http://creativecommons.org/ns#" xmlns:rdf="http://www.w3.org/1999/02/22-rdf-syntax-ns#">
   <cc:Work>
    <dc:type rdf:resource="http://purl.org/dc/dcmitype/StillImage"/>
    <dc:date>2022-08-18T01:09:41.526536</dc:date>
    <dc:format>image/svg+xml</dc:format>
    <dc:creator>
     <cc:Agent>
      <dc:title>Matplotlib v3.5.1, https://matplotlib.org/</dc:title>
     </cc:Agent>
    </dc:creator>
   </cc:Work>
  </rdf:RDF>
 </metadata>
 <defs>
  <style type="text/css">*{stroke-linejoin: round; stroke-linecap: butt}</style>
 </defs>
 <g id="figure_1">
  <g id="patch_1">
   <path d="M 0 331.760948 
L 342.291466 331.760948 
L 342.291466 0 
L 0 0 
z
" style="fill: #ffffff"/>
  </g>
  <g id="axes_1">
   <g id="patch_2">
    <path d="M 56.608099 281.107752 
L 328.408099 281.107752 
L 328.408099 9.307752 
L 56.608099 9.307752 
z
" style="fill: #e5e5e5"/>
   </g>
   <g id="matplotlib.axis_1">
    <g id="xtick_1">
     <g id="line2d_1">
      <path d="M 56.608099 281.107752 
L 56.608099 9.307752 
" clip-path="url(#p74ce7a8ea4)" style="fill: none; stroke: #ffffff; stroke-width: 1.5; stroke-linecap: square"/>
     </g>
     <g id="line2d_2">
      <defs>
       <path id="m566dcc6ae7" d="M 0 0 
L 0 9 
" style="stroke: #555555; stroke-width: 1.875"/>
      </defs>
      <g>
       <use xlink:href="#m566dcc6ae7" x="56.608099" y="281.107752" style="fill: #555555; stroke: #555555; stroke-width: 1.875"/>
      </g>
     </g>
     <g id="text_1">
      <!-- $\mathdefault{0.0}$ -->
      <g style="fill: #555555" transform="translate(46.324732 305.023257)scale(0.165 -0.165)">
       <defs>
        <path id="CMR17-30" d="M 2688 2025 
C 2688 2416 2682 3080 2413 3591 
C 2176 4039 1798 4198 1466 4198 
C 1158 4198 768 4058 525 3597 
C 269 3118 243 2524 243 2025 
C 243 1661 250 1106 448 619 
C 723 -39 1216 -128 1466 -128 
C 1760 -128 2208 -7 2470 600 
C 2662 1042 2688 1559 2688 2025 
z
M 1466 -26 
C 1056 -26 813 325 723 812 
C 653 1188 653 1738 653 2096 
C 653 2588 653 2997 736 3387 
C 858 3929 1216 4096 1466 4096 
C 1728 4096 2067 3923 2189 3400 
C 2272 3036 2278 2607 2278 2096 
C 2278 1680 2278 1169 2202 792 
C 2067 95 1690 -26 1466 -26 
z
" transform="scale(0.015625)"/>
        <path id="CMMI12-3a" d="M 1178 307 
C 1178 492 1024 619 870 619 
C 685 619 557 466 557 313 
C 557 128 710 0 864 0 
C 1050 0 1178 153 1178 307 
z
" transform="scale(0.015625)"/>
       </defs>
       <use xlink:href="#CMR17-30" transform="scale(0.996264)"/>
       <use xlink:href="#CMMI12-3a" transform="translate(45.690477 0)scale(0.996264)"/>
       <use xlink:href="#CMR17-30" transform="translate(72.787654 0)scale(0.996264)"/>
      </g>
     </g>
    </g>
    <g id="xtick_2">
     <g id="line2d_3">
      <path d="M 110.968099 281.107752 
L 110.968099 9.307752 
" clip-path="url(#p74ce7a8ea4)" style="fill: none; stroke: #ffffff; stroke-width: 1.5; stroke-linecap: square"/>
     </g>
     <g id="line2d_4">
      <g>
       <use xlink:href="#m566dcc6ae7" x="110.968099" y="281.107752" style="fill: #555555; stroke: #555555; stroke-width: 1.875"/>
      </g>
     </g>
     <g id="text_2">
      <!-- $\mathdefault{0.2}$ -->
      <g style="fill: #555555" transform="translate(100.684732 305.023257)scale(0.165 -0.165)">
       <defs>
        <path id="CMR17-32" d="M 2669 989 
L 2554 989 
C 2490 536 2438 459 2413 420 
C 2381 369 1920 369 1830 369 
L 602 369 
C 832 619 1280 1072 1824 1597 
C 2214 1967 2669 2402 2669 3035 
C 2669 3790 2067 4224 1395 4224 
C 691 4224 262 3604 262 3030 
C 262 2780 448 2748 525 2748 
C 589 2748 781 2787 781 3010 
C 781 3207 614 3264 525 3264 
C 486 3264 448 3258 422 3245 
C 544 3790 915 4058 1306 4058 
C 1862 4058 2227 3617 2227 3035 
C 2227 2479 1901 2000 1536 1584 
L 262 146 
L 262 0 
L 2515 0 
L 2669 989 
z
" transform="scale(0.015625)"/>
       </defs>
       <use xlink:href="#CMR17-30" transform="scale(0.996264)"/>
       <use xlink:href="#CMMI12-3a" transform="translate(45.690477 0)scale(0.996264)"/>
       <use xlink:href="#CMR17-32" transform="translate(72.787654 0)scale(0.996264)"/>
      </g>
     </g>
    </g>
    <g id="xtick_3">
     <g id="line2d_5">
      <path d="M 165.328099 281.107752 
L 165.328099 9.307752 
" clip-path="url(#p74ce7a8ea4)" style="fill: none; stroke: #ffffff; stroke-width: 1.5; stroke-linecap: square"/>
     </g>
     <g id="line2d_6">
      <g>
       <use xlink:href="#m566dcc6ae7" x="165.328099" y="281.107752" style="fill: #555555; stroke: #555555; stroke-width: 1.875"/>
      </g>
     </g>
     <g id="text_3">
      <!-- $\mathdefault{0.4}$ -->
      <g style="fill: #555555" transform="translate(155.044732 305.023257)scale(0.165 -0.165)">
       <defs>
        <path id="CMR17-34" d="M 2150 4122 
C 2150 4256 2144 4256 2029 4256 
L 128 1254 
L 128 1088 
L 1779 1088 
L 1779 457 
C 1779 224 1766 160 1318 160 
L 1197 160 
L 1197 0 
C 1402 0 1747 0 1965 0 
C 2182 0 2528 0 2733 0 
L 2733 160 
L 2611 160 
C 2163 160 2150 224 2150 457 
L 2150 1088 
L 2803 1088 
L 2803 1254 
L 2150 1254 
L 2150 4122 
z
M 1798 3703 
L 1798 1254 
L 256 1254 
L 1798 3703 
z
" transform="scale(0.015625)"/>
       </defs>
       <use xlink:href="#CMR17-30" transform="scale(0.996264)"/>
       <use xlink:href="#CMMI12-3a" transform="translate(45.690477 0)scale(0.996264)"/>
       <use xlink:href="#CMR17-34" transform="translate(72.787654 0)scale(0.996264)"/>
      </g>
     </g>
    </g>
    <g id="xtick_4">
     <g id="line2d_7">
      <path d="M 219.688099 281.107752 
L 219.688099 9.307752 
" clip-path="url(#p74ce7a8ea4)" style="fill: none; stroke: #ffffff; stroke-width: 1.5; stroke-linecap: square"/>
     </g>
     <g id="line2d_8">
      <g>
       <use xlink:href="#m566dcc6ae7" x="219.688099" y="281.107752" style="fill: #555555; stroke: #555555; stroke-width: 1.875"/>
      </g>
     </g>
     <g id="text_4">
      <!-- $\mathdefault{0.6}$ -->
      <g style="fill: #555555" transform="translate(209.404732 305.023257)scale(0.165 -0.165)">
       <defs>
        <path id="CMR17-36" d="M 678 2176 
C 678 3690 1395 4032 1811 4032 
C 1946 4032 2272 4009 2400 3776 
C 2298 3776 2106 3776 2106 3553 
C 2106 3381 2246 3323 2336 3323 
C 2394 3323 2566 3348 2566 3560 
C 2566 3954 2246 4179 1805 4179 
C 1043 4179 243 3390 243 1984 
C 243 253 966 -128 1478 -128 
C 2099 -128 2688 427 2688 1283 
C 2688 2081 2170 2662 1517 2662 
C 1126 2662 838 2407 678 1960 
L 678 2176 
z
M 1478 25 
C 691 25 691 1200 691 1436 
C 691 1896 909 2560 1504 2560 
C 1613 2560 1926 2560 2138 2120 
C 2253 1870 2253 1609 2253 1289 
C 2253 944 2253 690 2118 434 
C 1978 171 1773 25 1478 25 
z
" transform="scale(0.015625)"/>
       </defs>
       <use xlink:href="#CMR17-30" transform="scale(0.996264)"/>
       <use xlink:href="#CMMI12-3a" transform="translate(45.690477 0)scale(0.996264)"/>
       <use xlink:href="#CMR17-36" transform="translate(72.787654 0)scale(0.996264)"/>
      </g>
     </g>
    </g>
    <g id="xtick_5">
     <g id="line2d_9">
      <path d="M 274.048099 281.107752 
L 274.048099 9.307752 
" clip-path="url(#p74ce7a8ea4)" style="fill: none; stroke: #ffffff; stroke-width: 1.5; stroke-linecap: square"/>
     </g>
     <g id="line2d_10">
      <g>
       <use xlink:href="#m566dcc6ae7" x="274.048099" y="281.107752" style="fill: #555555; stroke: #555555; stroke-width: 1.875"/>
      </g>
     </g>
     <g id="text_5">
      <!-- $\mathdefault{0.8}$ -->
      <g style="fill: #555555" transform="translate(263.764732 305.023257)scale(0.165 -0.165)">
       <defs>
        <path id="CMR17-38" d="M 1741 2264 
C 2144 2467 2554 2773 2554 3263 
C 2554 3841 1990 4179 1472 4179 
C 890 4179 378 3759 378 3180 
C 378 3021 416 2747 666 2505 
C 730 2442 998 2251 1171 2130 
C 883 1983 211 1634 211 934 
C 211 279 838 -128 1459 -128 
C 2144 -128 2720 362 2720 1010 
C 2720 1590 2330 1857 2074 2029 
L 1741 2264 
z
M 902 2822 
C 851 2854 595 3051 595 3351 
C 595 3739 998 4032 1459 4032 
C 1965 4032 2336 3676 2336 3262 
C 2336 2669 1670 2331 1638 2331 
C 1632 2331 1626 2331 1574 2370 
L 902 2822 
z
M 2080 1519 
C 2176 1449 2483 1240 2483 851 
C 2483 381 2010 25 1472 25 
C 890 25 448 438 448 940 
C 448 1443 838 1862 1280 2060 
L 2080 1519 
z
" transform="scale(0.015625)"/>
       </defs>
       <use xlink:href="#CMR17-30" transform="scale(0.996264)"/>
       <use xlink:href="#CMMI12-3a" transform="translate(45.690477 0)scale(0.996264)"/>
       <use xlink:href="#CMR17-38" transform="translate(72.787654 0)scale(0.996264)"/>
      </g>
     </g>
    </g>
    <g id="xtick_6">
     <g id="line2d_11">
      <path d="M 328.408099 281.107752 
L 328.408099 9.307752 
" clip-path="url(#p74ce7a8ea4)" style="fill: none; stroke: #ffffff; stroke-width: 1.5; stroke-linecap: square"/>
     </g>
     <g id="line2d_12">
      <g>
       <use xlink:href="#m566dcc6ae7" x="328.408099" y="281.107752" style="fill: #555555; stroke: #555555; stroke-width: 1.875"/>
      </g>
     </g>
     <g id="text_6">
      <!-- $\mathdefault{1.0}$ -->
      <g style="fill: #555555" transform="translate(318.124732 305.023257)scale(0.165 -0.165)">
       <defs>
        <path id="CMR17-31" d="M 1702 4058 
C 1702 4192 1696 4192 1606 4192 
C 1357 3916 979 3827 621 3827 
C 602 3827 570 3827 563 3808 
C 557 3795 557 3782 557 3648 
C 755 3648 1088 3686 1344 3839 
L 1344 461 
C 1344 236 1331 160 781 160 
L 589 160 
L 589 0 
C 896 0 1216 0 1523 0 
C 1830 0 2150 0 2458 0 
L 2458 160 
L 2266 160 
C 1715 160 1702 230 1702 458 
L 1702 4058 
z
" transform="scale(0.015625)"/>
       </defs>
       <use xlink:href="#CMR17-31" transform="scale(0.996264)"/>
       <use xlink:href="#CMMI12-3a" transform="translate(45.690477 0)scale(0.996264)"/>
       <use xlink:href="#CMR17-30" transform="translate(72.787654 0)scale(0.996264)"/>
      </g>
     </g>
    </g>
    <g id="xtick_7">
     <g id="line2d_13">
      <defs>
       <path id="mbb7332d6c5" d="M 0 0 
L 0 6 
" style="stroke: #555555; stroke-width: 1.5"/>
      </defs>
      <g>
       <use xlink:href="#mbb7332d6c5" x="70.198099" y="281.107752" style="fill: #555555; stroke: #555555; stroke-width: 1.5"/>
      </g>
     </g>
    </g>
    <g id="xtick_8">
     <g id="line2d_14">
      <g>
       <use xlink:href="#mbb7332d6c5" x="83.788099" y="281.107752" style="fill: #555555; stroke: #555555; stroke-width: 1.5"/>
      </g>
     </g>
    </g>
    <g id="xtick_9">
     <g id="line2d_15">
      <g>
       <use xlink:href="#mbb7332d6c5" x="97.378099" y="281.107752" style="fill: #555555; stroke: #555555; stroke-width: 1.5"/>
      </g>
     </g>
    </g>
    <g id="xtick_10">
     <g id="line2d_16">
      <g>
       <use xlink:href="#mbb7332d6c5" x="124.558099" y="281.107752" style="fill: #555555; stroke: #555555; stroke-width: 1.5"/>
      </g>
     </g>
    </g>
    <g id="xtick_11">
     <g id="line2d_17">
      <g>
       <use xlink:href="#mbb7332d6c5" x="138.148099" y="281.107752" style="fill: #555555; stroke: #555555; stroke-width: 1.5"/>
      </g>
     </g>
    </g>
    <g id="xtick_12">
     <g id="line2d_18">
      <g>
       <use xlink:href="#mbb7332d6c5" x="151.738099" y="281.107752" style="fill: #555555; stroke: #555555; stroke-width: 1.5"/>
      </g>
     </g>
    </g>
    <g id="xtick_13">
     <g id="line2d_19">
      <g>
       <use xlink:href="#mbb7332d6c5" x="178.918099" y="281.107752" style="fill: #555555; stroke: #555555; stroke-width: 1.5"/>
      </g>
     </g>
    </g>
    <g id="xtick_14">
     <g id="line2d_20">
      <g>
       <use xlink:href="#mbb7332d6c5" x="192.508099" y="281.107752" style="fill: #555555; stroke: #555555; stroke-width: 1.5"/>
      </g>
     </g>
    </g>
    <g id="xtick_15">
     <g id="line2d_21">
      <g>
       <use xlink:href="#mbb7332d6c5" x="206.098099" y="281.107752" style="fill: #555555; stroke: #555555; stroke-width: 1.5"/>
      </g>
     </g>
    </g>
    <g id="xtick_16">
     <g id="line2d_22">
      <g>
       <use xlink:href="#mbb7332d6c5" x="233.278099" y="281.107752" style="fill: #555555; stroke: #555555; stroke-width: 1.5"/>
      </g>
     </g>
    </g>
    <g id="xtick_17">
     <g id="line2d_23">
      <g>
       <use xlink:href="#mbb7332d6c5" x="246.868099" y="281.107752" style="fill: #555555; stroke: #555555; stroke-width: 1.5"/>
      </g>
     </g>
    </g>
    <g id="xtick_18">
     <g id="line2d_24">
      <g>
       <use xlink:href="#mbb7332d6c5" x="260.458099" y="281.107752" style="fill: #555555; stroke: #555555; stroke-width: 1.5"/>
      </g>
     </g>
    </g>
    <g id="xtick_19">
     <g id="line2d_25">
      <g>
       <use xlink:href="#mbb7332d6c5" x="287.638099" y="281.107752" style="fill: #555555; stroke: #555555; stroke-width: 1.5"/>
      </g>
     </g>
    </g>
    <g id="xtick_20">
     <g id="line2d_26">
      <g>
       <use xlink:href="#mbb7332d6c5" x="301.228099" y="281.107752" style="fill: #555555; stroke: #555555; stroke-width: 1.5"/>
      </g>
     </g>
    </g>
    <g id="xtick_21">
     <g id="line2d_27">
      <g>
       <use xlink:href="#mbb7332d6c5" x="314.818099" y="281.107752" style="fill: #555555; stroke: #555555; stroke-width: 1.5"/>
      </g>
     </g>
    </g>
    <g id="text_7">
     <!-- $u$ -->
     <g style="fill: #555555" transform="translate(187.511273 324.672884)scale(0.18 -0.18)">
      <defs>
       <path id="CMMI12-75" d="M 2182 370 
C 2266 13 2573 -64 2726 -64 
C 2931 -64 3085 70 3187 287 
C 3296 517 3379 894 3379 913 
C 3379 945 3354 971 3315 971 
C 3258 971 3251 939 3226 843 
C 3110 402 2995 64 2739 64 
C 2547 64 2547 275 2547 358 
C 2547 505 2566 568 2630 837 
C 2675 1009 2720 1181 2758 1360 
L 3021 2401 
C 3066 2561 3066 2574 3066 2593 
C 3066 2689 2989 2753 2893 2753 
C 2707 2753 2662 2593 2624 2433 
C 2560 2184 2214 811 2170 588 
C 2163 588 1914 64 1446 64 
C 1114 64 1050 351 1050 588 
C 1050 952 1229 1462 1395 1890 
C 1472 2095 1504 2178 1504 2305 
C 1504 2580 1306 2816 998 2816 
C 410 2816 173 1890 173 1839 
C 173 1814 198 1782 243 1782 
C 301 1782 307 1807 333 1896 
C 486 2441 736 2682 979 2682 
C 1043 2682 1146 2682 1146 2478 
C 1146 2312 1075 2127 979 1884 
C 698 1124 666 881 666 690 
C 666 38 1158 -64 1421 -64 
C 1830 -64 2054 217 2182 370 
z
" transform="scale(0.015625)"/>
      </defs>
      <use xlink:href="#CMMI12-75" transform="scale(0.996264)"/>
     </g>
    </g>
   </g>
   <g id="matplotlib.axis_2">
    <g id="ytick_1">
     <g id="line2d_28">
      <path d="M 56.608099 281.107752 
L 328.408099 281.107752 
" clip-path="url(#p74ce7a8ea4)" style="fill: none; stroke: #ffffff; stroke-width: 1.5; stroke-linecap: square"/>
     </g>
     <g id="line2d_29">
      <defs>
       <path id="mf93539c396" d="M 0 0 
L -9 0 
" style="stroke: #555555; stroke-width: 1.875"/>
      </defs>
      <g>
       <use xlink:href="#mf93539c396" x="56.608099" y="281.107752" style="fill: #555555; stroke: #555555; stroke-width: 1.875"/>
      </g>
     </g>
     <g id="text_8">
      <!-- $\mathdefault{0.0}$ -->
      <g style="fill: #555555" transform="translate(23.541364 286.815505)scale(0.165 -0.165)">
       <use xlink:href="#CMR17-30" transform="scale(0.996264)"/>
       <use xlink:href="#CMMI12-3a" transform="translate(45.690477 0)scale(0.996264)"/>
       <use xlink:href="#CMR17-30" transform="translate(72.787654 0)scale(0.996264)"/>
      </g>
     </g>
    </g>
    <g id="ytick_2">
     <g id="line2d_30">
      <path d="M 56.608099 226.747752 
L 328.408099 226.747752 
" clip-path="url(#p74ce7a8ea4)" style="fill: none; stroke: #ffffff; stroke-width: 1.5; stroke-linecap: square"/>
     </g>
     <g id="line2d_31">
      <g>
       <use xlink:href="#mf93539c396" x="56.608099" y="226.747752" style="fill: #555555; stroke: #555555; stroke-width: 1.875"/>
      </g>
     </g>
     <g id="text_9">
      <!-- $\mathdefault{0.2}$ -->
      <g style="fill: #555555" transform="translate(23.541364 232.455505)scale(0.165 -0.165)">
       <use xlink:href="#CMR17-30" transform="scale(0.996264)"/>
       <use xlink:href="#CMMI12-3a" transform="translate(45.690477 0)scale(0.996264)"/>
       <use xlink:href="#CMR17-32" transform="translate(72.787654 0)scale(0.996264)"/>
      </g>
     </g>
    </g>
    <g id="ytick_3">
     <g id="line2d_32">
      <path d="M 56.608099 172.387752 
L 328.408099 172.387752 
" clip-path="url(#p74ce7a8ea4)" style="fill: none; stroke: #ffffff; stroke-width: 1.5; stroke-linecap: square"/>
     </g>
     <g id="line2d_33">
      <g>
       <use xlink:href="#mf93539c396" x="56.608099" y="172.387752" style="fill: #555555; stroke: #555555; stroke-width: 1.875"/>
      </g>
     </g>
     <g id="text_10">
      <!-- $\mathdefault{0.4}$ -->
      <g style="fill: #555555" transform="translate(23.541364 178.095505)scale(0.165 -0.165)">
       <use xlink:href="#CMR17-30" transform="scale(0.996264)"/>
       <use xlink:href="#CMMI12-3a" transform="translate(45.690477 0)scale(0.996264)"/>
       <use xlink:href="#CMR17-34" transform="translate(72.787654 0)scale(0.996264)"/>
      </g>
     </g>
    </g>
    <g id="ytick_4">
     <g id="line2d_34">
      <path d="M 56.608099 118.027752 
L 328.408099 118.027752 
" clip-path="url(#p74ce7a8ea4)" style="fill: none; stroke: #ffffff; stroke-width: 1.5; stroke-linecap: square"/>
     </g>
     <g id="line2d_35">
      <g>
       <use xlink:href="#mf93539c396" x="56.608099" y="118.027752" style="fill: #555555; stroke: #555555; stroke-width: 1.875"/>
      </g>
     </g>
     <g id="text_11">
      <!-- $\mathdefault{0.6}$ -->
      <g style="fill: #555555" transform="translate(23.541364 123.735505)scale(0.165 -0.165)">
       <use xlink:href="#CMR17-30" transform="scale(0.996264)"/>
       <use xlink:href="#CMMI12-3a" transform="translate(45.690477 0)scale(0.996264)"/>
       <use xlink:href="#CMR17-36" transform="translate(72.787654 0)scale(0.996264)"/>
      </g>
     </g>
    </g>
    <g id="ytick_5">
     <g id="line2d_36">
      <path d="M 56.608099 63.667752 
L 328.408099 63.667752 
" clip-path="url(#p74ce7a8ea4)" style="fill: none; stroke: #ffffff; stroke-width: 1.5; stroke-linecap: square"/>
     </g>
     <g id="line2d_37">
      <g>
       <use xlink:href="#mf93539c396" x="56.608099" y="63.667752" style="fill: #555555; stroke: #555555; stroke-width: 1.875"/>
      </g>
     </g>
     <g id="text_12">
      <!-- $\mathdefault{0.8}$ -->
      <g style="fill: #555555" transform="translate(23.541364 69.375505)scale(0.165 -0.165)">
       <use xlink:href="#CMR17-30" transform="scale(0.996264)"/>
       <use xlink:href="#CMMI12-3a" transform="translate(45.690477 0)scale(0.996264)"/>
       <use xlink:href="#CMR17-38" transform="translate(72.787654 0)scale(0.996264)"/>
      </g>
     </g>
    </g>
    <g id="ytick_6">
     <g id="line2d_38">
      <path d="M 56.608099 9.307752 
L 328.408099 9.307752 
" clip-path="url(#p74ce7a8ea4)" style="fill: none; stroke: #ffffff; stroke-width: 1.5; stroke-linecap: square"/>
     </g>
     <g id="line2d_39">
      <g>
       <use xlink:href="#mf93539c396" x="56.608099" y="9.307752" style="fill: #555555; stroke: #555555; stroke-width: 1.875"/>
      </g>
     </g>
     <g id="text_13">
      <!-- $\mathdefault{1.0}$ -->
      <g style="fill: #555555" transform="translate(23.541364 15.015505)scale(0.165 -0.165)">
       <use xlink:href="#CMR17-31" transform="scale(0.996264)"/>
       <use xlink:href="#CMMI12-3a" transform="translate(45.690477 0)scale(0.996264)"/>
       <use xlink:href="#CMR17-30" transform="translate(72.787654 0)scale(0.996264)"/>
      </g>
     </g>
    </g>
    <g id="ytick_7">
     <g id="line2d_40">
      <defs>
       <path id="md53c365a56" d="M 0 0 
L -6 0 
" style="stroke: #555555; stroke-width: 1.5"/>
      </defs>
      <g>
       <use xlink:href="#md53c365a56" x="56.608099" y="267.517752" style="fill: #555555; stroke: #555555; stroke-width: 1.5"/>
      </g>
     </g>
    </g>
    <g id="ytick_8">
     <g id="line2d_41">
      <g>
       <use xlink:href="#md53c365a56" x="56.608099" y="253.927752" style="fill: #555555; stroke: #555555; stroke-width: 1.5"/>
      </g>
     </g>
    </g>
    <g id="ytick_9">
     <g id="line2d_42">
      <g>
       <use xlink:href="#md53c365a56" x="56.608099" y="240.337752" style="fill: #555555; stroke: #555555; stroke-width: 1.5"/>
      </g>
     </g>
    </g>
    <g id="ytick_10">
     <g id="line2d_43">
      <g>
       <use xlink:href="#md53c365a56" x="56.608099" y="213.157752" style="fill: #555555; stroke: #555555; stroke-width: 1.5"/>
      </g>
     </g>
    </g>
    <g id="ytick_11">
     <g id="line2d_44">
      <g>
       <use xlink:href="#md53c365a56" x="56.608099" y="199.567752" style="fill: #555555; stroke: #555555; stroke-width: 1.5"/>
      </g>
     </g>
    </g>
    <g id="ytick_12">
     <g id="line2d_45">
      <g>
       <use xlink:href="#md53c365a56" x="56.608099" y="185.977752" style="fill: #555555; stroke: #555555; stroke-width: 1.5"/>
      </g>
     </g>
    </g>
    <g id="ytick_13">
     <g id="line2d_46">
      <g>
       <use xlink:href="#md53c365a56" x="56.608099" y="158.797752" style="fill: #555555; stroke: #555555; stroke-width: 1.5"/>
      </g>
     </g>
    </g>
    <g id="ytick_14">
     <g id="line2d_47">
      <g>
       <use xlink:href="#md53c365a56" x="56.608099" y="145.207752" style="fill: #555555; stroke: #555555; stroke-width: 1.5"/>
      </g>
     </g>
    </g>
    <g id="ytick_15">
     <g id="line2d_48">
      <g>
       <use xlink:href="#md53c365a56" x="56.608099" y="131.617752" style="fill: #555555; stroke: #555555; stroke-width: 1.5"/>
      </g>
     </g>
    </g>
    <g id="ytick_16">
     <g id="line2d_49">
      <g>
       <use xlink:href="#md53c365a56" x="56.608099" y="104.437752" style="fill: #555555; stroke: #555555; stroke-width: 1.5"/>
      </g>
     </g>
    </g>
    <g id="ytick_17">
     <g id="line2d_50">
      <g>
       <use xlink:href="#md53c365a56" x="56.608099" y="90.847752" style="fill: #555555; stroke: #555555; stroke-width: 1.5"/>
      </g>
     </g>
    </g>
    <g id="ytick_18">
     <g id="line2d_51">
      <g>
       <use xlink:href="#md53c365a56" x="56.608099" y="77.257752" style="fill: #555555; stroke: #555555; stroke-width: 1.5"/>
      </g>
     </g>
    </g>
    <g id="ytick_19">
     <g id="line2d_52">
      <g>
       <use xlink:href="#md53c365a56" x="56.608099" y="50.077752" style="fill: #555555; stroke: #555555; stroke-width: 1.5"/>
      </g>
     </g>
    </g>
    <g id="ytick_20">
     <g id="line2d_53">
      <g>
       <use xlink:href="#md53c365a56" x="56.608099" y="36.487752" style="fill: #555555; stroke: #555555; stroke-width: 1.5"/>
      </g>
     </g>
    </g>
    <g id="ytick_21">
     <g id="line2d_54">
      <g>
       <use xlink:href="#md53c365a56" x="56.608099" y="22.897752" style="fill: #555555; stroke: #555555; stroke-width: 1.5"/>
      </g>
     </g>
    </g>
    <g id="text_14">
     <!-- $v$ -->
     <g style="fill: #555555" transform="translate(16.0533 149.452204)rotate(-90)scale(0.18 -0.18)">
      <defs>
       <path id="CMMI12-76" d="M 2925 2389 
C 2925 2791 2720 2816 2669 2816 
C 2515 2816 2374 2663 2374 2535 
C 2374 2459 2419 2414 2445 2389 
C 2509 2331 2675 2159 2675 1827 
C 2675 1558 2291 64 1523 64 
C 1133 64 1056 390 1056 626 
C 1056 945 1203 1392 1376 1852 
C 1478 2114 1504 2178 1504 2305 
C 1504 2574 1312 2816 998 2816 
C 410 2816 173 1890 173 1839 
C 173 1814 198 1782 243 1782 
C 301 1782 307 1807 333 1897 
C 486 2446 736 2689 979 2689 
C 1037 2689 1146 2689 1146 2478 
C 1146 2312 1075 2127 979 1884 
C 672 1067 672 869 672 715 
C 672 575 691 313 890 134 
C 1120 -64 1440 -64 1498 -64 
C 2560 -64 2925 2024 2925 2389 
z
" transform="scale(0.015625)"/>
      </defs>
      <use xlink:href="#CMMI12-76" transform="scale(0.996264)"/>
     </g>
    </g>
   </g>
   <g id="PathCollection_1"/>
   <g id="PathCollection_2">
    <path d="M 194.915891 272.953752 
L 195.11516 272.886123 
L 200.329283 271.169141 
L 205.543405 269.427736 
L 210.483651 267.73963 
L 210.757527 267.619 
L 215.97165 265.366129 
L 221.185772 263.064603 
L 222.40605 262.525508 
L 226.399895 260.440997 
L 231.614017 257.672963 
L 232.293697 257.311385 
L 232.835519 256.985603 
" clip-path="url(#p74ce7a8ea4)" style="fill: none; stroke: #23160e; stroke-width: 2.25"/>
    <path d="M 248.846484 246.644917 
L 252.470507 243.939839 
L 255.447909 241.669018 
L 257.68463 239.853485 
L 261.77718 236.454895 
L 262.898752 235.474299 
L 267.617797 231.240773 
L 268.112874 230.777221 
L 273.036203 226.02665 
L 273.326997 225.735856 
L 278.077567 220.812528 
L 278.541119 220.31745 
L 282.774646 215.598405 
L 283.755242 214.476834 
L 287.153831 210.384283 
L 288.969364 208.147562 
L 291.240185 205.170161 
L 294.183487 201.226988 
L 295.06281 199.956038 
L 298.615178 194.741916 
L 299.397609 193.583928 
L 301.885304 189.527793 
L 304.611732 184.99335 
L 304.973309 184.313671 
L 307.741344 179.099548 
L 309.825854 175.105704 
L 310.364949 173.885426 
L 312.666475 168.671303 
L 314.919347 163.457181 
L 315.039976 163.183304 
L 316.728083 158.243059 
L 318.469487 153.028936 
L 320.186469 147.814814 
L 320.254099 147.615545 
" clip-path="url(#p74ce7a8ea4)" style="fill: none; stroke: #23160e; stroke-width: 2.25"/>
    <path d="M 190.100307 17.461752 
L 189.901038 17.529382 
L 184.686915 19.246364 
L 179.472793 20.987769 
L 174.532547 22.675875 
L 174.25867 22.796505 
L 169.044548 25.049376 
L 163.830425 27.350902 
L 162.610148 27.889997 
L 158.616303 29.974508 
L 153.402181 32.742542 
L 152.722501 33.10412 
L 152.180679 33.429901 
" clip-path="url(#p74ce7a8ea4)" style="fill: none; stroke: #23160e; stroke-width: 2.25"/>
    <path d="M 136.169714 43.770588 
L 132.545691 46.475666 
L 129.568289 48.746487 
L 127.331568 50.56202 
L 123.239018 53.96061 
L 122.117446 54.941206 
L 117.398401 59.174732 
L 116.903323 59.638284 
L 111.979995 64.388854 
L 111.689201 64.679649 
L 106.938631 69.602977 
L 106.475078 70.098054 
L 102.241552 74.817099 
L 101.260956 75.938671 
L 97.862367 80.031222 
L 96.046834 82.267943 
L 93.776013 85.245344 
L 90.832711 89.188517 
L 89.953388 90.459467 
L 86.40102 95.673589 
L 85.618589 96.831577 
L 83.130894 100.887712 
L 80.404466 105.422155 
L 80.042889 106.101834 
L 77.274854 111.315957 
L 75.190344 115.309801 
L 74.651249 116.530079 
L 72.349722 121.744201 
L 70.096851 126.958324 
L 69.976221 127.232201 
L 68.288115 132.172446 
L 66.54671 137.386569 
L 64.829729 142.600691 
L 64.762099 142.79996 
" clip-path="url(#p74ce7a8ea4)" style="fill: none; stroke: #23160e; stroke-width: 2.25"/>
   </g>
   <g id="PathCollection_3">
    <path d="M 150.72987 272.953752 
L 153.402181 271.553513 
L 158.616303 269.019741 
L 161.412657 267.73963 
L 163.830425 266.154872 
L 169.044548 262.968799 
L 169.812616 262.525508 
L 174.25867 259.253598 
L 177.066338 257.311385 
L 179.472793 255.311947 
L 183.580897 252.097263 
L 184.686915 251.098795 
L 189.627444 246.88314 
L 189.901038 246.62163 
L 195.11516 241.885889 
L 195.364795 241.669018 
L 200.329283 236.95922 
L 200.883484 236.454895 
L 205.543405 231.90394 
L 206.24828 231.240773 
L 210.757527 226.752451 
L 211.511084 226.02665 
L 215.97165 221.535787 
L 216.710653 220.812528 
L 221.185772 216.281456 
L 221.876503 215.598405 
L 226.399895 211.012357 
L 227.031117 210.384283 
L 231.614017 205.74632 
L 232.191198 205.170161 
L 236.82814 200.496011 
L 237.368342 199.956038 
L 242.042262 195.269013 
L 242.56936 194.741916 
L 247.256385 190.067995 
L 247.796357 189.527793 
L 250.754374 186.593323 
" clip-path="url(#p74ce7a8ea4)" style="fill: none; stroke: #452c1c; stroke-width: 2.25"/>
    <path d="M 265.874586 171.620955 
L 268.112874 169.410306 
L 268.836133 168.671303 
L 273.326997 164.210737 
L 274.052798 163.457181 
L 278.541119 158.947934 
L 279.204287 158.243059 
L 283.755242 153.583138 
L 284.259566 153.028936 
L 288.969364 148.064449 
L 289.186235 147.814814 
L 293.921977 142.600691 
L 294.183487 142.327097 
L 298.399142 137.386569 
L 299.397609 136.28055 
L 302.612294 132.172446 
L 304.611732 129.765992 
L 306.553945 126.958324 
L 309.825854 122.51227 
L 310.269146 121.744201 
L 313.455219 116.530079 
L 315.039976 114.112311 
L 316.320087 111.315957 
L 318.85386 106.101834 
L 320.254099 103.429523 
" clip-path="url(#p74ce7a8ea4)" style="fill: none; stroke: #452c1c; stroke-width: 2.25"/>
    <path d="M 234.286328 17.461752 
L 231.614017 18.861991 
L 226.399895 21.395764 
L 223.60354 22.675875 
L 221.185772 24.260633 
L 215.97165 27.446705 
L 215.203582 27.889997 
L 210.757527 31.161907 
L 207.94986 33.10412 
L 205.543405 35.103557 
L 201.435301 38.318242 
L 200.329283 39.31671 
L 195.388754 43.532365 
L 195.11516 43.793875 
L 189.901038 48.529616 
L 189.651402 48.746487 
L 184.686915 53.456285 
L 184.132714 53.96061 
L 179.472793 58.511565 
L 178.767918 59.174732 
L 174.25867 63.663053 
L 173.505114 64.388854 
L 169.044548 68.879718 
L 168.305545 69.602977 
L 163.830425 74.134049 
L 163.139695 74.817099 
L 158.616303 79.403148 
L 157.985081 80.031222 
L 153.402181 84.669184 
L 152.825 85.245344 
L 148.188058 89.919494 
L 147.647856 90.459467 
L 142.973936 95.146491 
L 142.446838 95.673589 
L 137.759813 100.34751 
L 137.219841 100.887712 
L 134.261824 103.822181 
" clip-path="url(#p74ce7a8ea4)" style="fill: none; stroke: #452c1c; stroke-width: 2.25"/>
    <path d="M 119.141612 118.79455 
L 116.903323 121.005199 
L 116.180064 121.744201 
L 111.689201 126.204767 
L 110.9634 126.958324 
L 106.475078 131.467571 
L 105.811911 132.172446 
L 101.260956 136.832367 
L 100.756632 137.386569 
L 96.046834 142.351056 
L 95.829962 142.600691 
L 91.094221 147.814814 
L 90.832711 148.088407 
L 86.617056 153.028936 
L 85.618589 154.134955 
L 82.403904 158.243059 
L 80.404466 160.649513 
L 78.462253 163.457181 
L 75.190344 167.903235 
L 74.747052 168.671303 
L 71.560979 173.885426 
L 69.976221 176.303194 
L 68.696111 179.099548 
L 66.162338 184.313671 
L 64.762099 186.985982 
" clip-path="url(#p74ce7a8ea4)" style="fill: none; stroke: #452c1c; stroke-width: 2.25"/>
   </g>
   <g id="PathCollection_4">
    <path d="M 124.742309 272.953752 
L 127.331568 270.536659 
L 130.866298 267.73963 
L 132.545691 265.598058 
L 135.346985 262.525508 
L 137.759813 258.841565 
L 138.908023 257.311385 
L 141.891445 252.097263 
L 142.973936 249.732974 
L 144.447379 246.88314 
L 145.232938 245.031509 
" clip-path="url(#p74ce7a8ea4)" style="fill: none; stroke: #69422a; stroke-width: 2.25"/>
    <path d="M 153.69094 215.577162 
L 154.22423 210.384283 
L 154.339031 205.170161 
L 153.876418 199.956038 
L 153.402181 197.867274 
L 152.464508 194.741916 
L 149.281837 189.527793 
L 148.188058 188.434014 
L 142.973936 185.251344 
L 139.848577 184.313671 
L 137.759813 183.839433 
L 132.545691 183.37682 
L 127.331568 183.491621 
L 122.117446 184.027093 
L 120.527736 184.313671 
L 116.903323 184.903631 
L 111.689201 186.060457 
L 106.475078 187.470858 
L 101.260956 189.138654 
L 100.292493 189.527793 
L 96.046834 191.056367 
L 90.832711 193.268473 
L 87.982877 194.741916 
L 85.618589 195.824406 
L 80.404466 198.807828 
L 78.874287 199.956038 
L 75.190344 202.368867 
L 72.117794 205.170161 
L 69.976221 206.849554 
L 67.179193 210.384283 
L 64.762099 212.973543 
" clip-path="url(#p74ce7a8ea4)" style="fill: none; stroke: #69422a; stroke-width: 2.25"/>
    <path d="M 260.273889 17.461752 
L 257.68463 19.878846 
L 254.1499 22.675875 
L 252.470507 24.817447 
L 249.669213 27.889997 
L 247.256385 31.57394 
L 246.108175 33.10412 
L 243.124752 38.318242 
L 242.042262 40.68253 
L 240.568819 43.532365 
L 239.78326 45.383995 
" clip-path="url(#p74ce7a8ea4)" style="fill: none; stroke: #69422a; stroke-width: 2.25"/>
    <path d="M 231.325258 74.838343 
L 230.791968 80.031222 
L 230.677167 85.245344 
L 231.139779 90.459467 
L 231.614017 92.548231 
L 232.55169 95.673589 
L 235.734361 100.887712 
L 236.82814 101.98149 
L 242.042262 105.164161 
L 245.16762 106.101834 
L 247.256385 106.576072 
L 252.470507 107.038685 
L 257.68463 106.923884 
L 262.898752 106.388412 
L 264.488462 106.101834 
L 268.112874 105.511874 
L 273.326997 104.355048 
L 278.541119 102.944647 
L 283.755242 101.276851 
L 284.723704 100.887712 
L 288.969364 99.359138 
L 294.183487 97.147032 
L 297.033321 95.673589 
L 299.397609 94.591099 
L 304.611732 91.607676 
L 306.141911 90.459467 
L 309.825854 88.046638 
L 312.898404 85.245344 
L 315.039976 83.565951 
L 317.837005 80.031222 
L 320.254099 77.441962 
" clip-path="url(#p74ce7a8ea4)" style="fill: none; stroke: #69422a; stroke-width: 2.25"/>
   </g>
   <g id="PathCollection_5">
    <path d="M 107.37078 272.953752 
L 109.921521 267.73963 
L 110.984228 262.525508 
L 111.11179 257.311385 
L 110.428505 252.097263 
L 108.884902 246.88314 
L 108.08582 245.254696 
" clip-path="url(#p74ce7a8ea4)" style="fill: none; stroke: #8c5838; stroke-width: 2.25"/>
    <path d="M 93.299599 230.041458 
L 90.832711 228.830949 
L 85.618589 227.287346 
L 80.404466 226.604061 
L 75.190344 226.731623 
L 69.976221 227.79433 
L 64.762099 230.345072 
" clip-path="url(#p74ce7a8ea4)" style="fill: none; stroke: #8c5838; stroke-width: 2.25"/>
    <path d="M 277.645418 17.461752 
L 275.094677 22.675875 
L 274.031969 27.889997 
L 273.904408 33.10412 
L 274.587693 38.318242 
L 276.131296 43.532365 
L 276.930378 45.160809 
" clip-path="url(#p74ce7a8ea4)" style="fill: none; stroke: #8c5838; stroke-width: 2.25"/>
    <path d="M 291.716598 60.374047 
L 294.183487 61.584555 
L 299.397609 63.128158 
L 304.611732 63.811444 
L 309.825854 63.683882 
L 315.039976 62.621175 
L 320.254099 60.070433 
" clip-path="url(#p74ce7a8ea4)" style="fill: none; stroke: #8c5838; stroke-width: 2.25"/>
   </g>
   <g id="PathCollection_6">
    <path d="M 95.05737 272.953752 
L 94.850263 267.73963 
L 93.251252 262.525508 
L 92.530005 261.185676 
" clip-path="url(#p74ce7a8ea4)" style="fill: none; stroke: #af6f47; stroke-width: 2.25"/>
    <path d="M 77.713457 245.82282 
L 75.190344 244.4646 
L 69.976221 242.865588 
L 64.762099 242.658481 
" clip-path="url(#p74ce7a8ea4)" style="fill: none; stroke: #af6f47; stroke-width: 2.25"/>
    <path d="M 289.958828 17.461752 
L 290.165935 22.675875 
L 291.764946 27.889997 
L 292.486193 29.229829 
" clip-path="url(#p74ce7a8ea4)" style="fill: none; stroke: #af6f47; stroke-width: 2.25"/>
    <path d="M 307.302741 44.592685 
L 309.825854 45.950905 
L 315.039976 47.549917 
L 320.254099 47.757024 
" clip-path="url(#p74ce7a8ea4)" style="fill: none; stroke: #af6f47; stroke-width: 2.25"/>
   </g>
   <g id="PathCollection_7">
    <path d="M 85.912525 272.953752 
L 85.618589 272.17942 
L 83.761596 267.73963 
L 82.523514 265.989639 
" clip-path="url(#p74ce7a8ea4)" style="fill: none; stroke: #d28555; stroke-width: 2.25"/>
    <path d="M 67.163309 252.777723 
L 65.536431 252.097263 
L 64.762099 251.803326 
" clip-path="url(#p74ce7a8ea4)" style="fill: none; stroke: #d28555; stroke-width: 2.25"/>
    <path d="M 299.103673 17.461752 
L 299.397609 18.236085 
L 301.254602 22.675875 
L 302.492684 24.425866 
" clip-path="url(#p74ce7a8ea4)" style="fill: none; stroke: #d28555; stroke-width: 2.25"/>
    <path d="M 317.852889 37.637782 
L 319.479767 38.318242 
L 320.254099 38.612179 
" clip-path="url(#p74ce7a8ea4)" style="fill: none; stroke: #d28555; stroke-width: 2.25"/>
   </g>
   <g id="PathCollection_8">
    <path d="M 79.118283 272.953752 
L 75.347271 267.73963 
L 75.190344 267.55667 
L 70.159182 262.525508 
L 69.976221 262.36858 
L 64.762099 258.597569 
" clip-path="url(#p74ce7a8ea4)" style="fill: none; stroke: #f69b63; stroke-width: 2.25"/>
    <path d="M 305.897915 17.461752 
L 309.668926 22.675875 
L 309.825854 22.858835 
L 314.857016 27.889997 
L 315.039976 28.046925 
L 320.254099 31.817936 
" clip-path="url(#p74ce7a8ea4)" style="fill: none; stroke: #f69b63; stroke-width: 2.25"/>
   </g>
   <g id="PathCollection_9">
    <path d="M 73.853384 272.953752 
L 69.976221 268.55645 
L 69.159401 267.73963 
L 64.762099 263.862468 
" clip-path="url(#p74ce7a8ea4)" style="fill: none; stroke: #ffb171; stroke-width: 2.25"/>
    <path d="M 311.162814 17.461752 
L 315.039976 21.859055 
L 315.856797 22.675875 
L 320.254099 26.553037 
" clip-path="url(#p74ce7a8ea4)" style="fill: none; stroke: #ffb171; stroke-width: 2.25"/>
   </g>
   <g id="PathCollection_10">
    <path d="M 69.646886 272.953752 
L 64.762099 268.068965 
" clip-path="url(#p74ce7a8ea4)" style="fill: none; stroke: #ffc77f; stroke-width: 2.25"/>
    <path d="M 315.369311 17.461752 
L 320.254099 22.34654 
" clip-path="url(#p74ce7a8ea4)" style="fill: none; stroke: #ffc77f; stroke-width: 2.25"/>
   </g>
   <g id="patch_3">
    <path d="M 56.608099 281.107752 
L 56.608099 9.307752 
" style="fill: none; stroke: #ffffff; stroke-width: 1.875; stroke-linejoin: miter; stroke-linecap: square"/>
   </g>
   <g id="patch_4">
    <path d="M 56.608099 281.107752 
L 328.408099 281.107752 
" style="fill: none; stroke: #ffffff; stroke-width: 1.875; stroke-linejoin: miter; stroke-linecap: square"/>
   </g>
   <g id="text_15">
    <!-- $\mathdefault{0.444}$ -->
    <g transform="translate(229.060418 258.943174)rotate(-17.434544)scale(0.12 -0.12)">
     <use xlink:href="#CMR17-30" transform="scale(0.996264)"/>
     <use xlink:href="#CMMI12-3a" transform="translate(45.690477 0)scale(0.996264)"/>
     <use xlink:href="#CMR17-34" transform="translate(72.787654 0)scale(0.996264)"/>
     <use xlink:href="#CMR17-34" transform="translate(118.478131 0)scale(0.996264)"/>
     <use xlink:href="#CMR17-34" transform="translate(164.168608 0)scale(0.996264)"/>
    </g>
   </g>
   <g id="text_16">
    <!-- $\mathdefault{0.444}$ -->
    <g transform="translate(132.308068 45.164153)rotate(-17.434544)scale(0.12 -0.12)">
     <use xlink:href="#CMR17-30" transform="scale(0.996264)"/>
     <use xlink:href="#CMMI12-3a" transform="translate(45.690477 0)scale(0.996264)"/>
     <use xlink:href="#CMR17-34" transform="translate(72.787654 0)scale(0.996264)"/>
     <use xlink:href="#CMR17-34" transform="translate(118.478131 0)scale(0.996264)"/>
     <use xlink:href="#CMR17-34" transform="translate(164.168608 0)scale(0.996264)"/>
    </g>
   </g>
   <g id="text_17">
    <!-- $\mathdefault{0.889}$ -->
    <g transform="translate(247.602624 187.582723)rotate(-25.745898)scale(0.12 -0.12)">
     <defs>
      <path id="CMR17-39" d="M 2253 1864 
C 2253 464 1670 31 1190 31 
C 1043 31 685 31 538 294 
C 704 268 826 357 826 518 
C 826 692 685 749 595 749 
C 538 749 365 723 365 506 
C 365 71 742 -128 1203 -128 
C 1939 -128 2688 674 2688 2073 
C 2688 3817 1971 4179 1485 4179 
C 851 4179 243 3628 243 2778 
C 243 1991 762 1408 1414 1408 
C 1952 1408 2189 1903 2253 2112 
L 2253 1864 
z
M 1427 1510 
C 1254 1510 1011 1542 813 1922 
C 678 2169 678 2461 678 2771 
C 678 3146 678 3405 858 3684 
C 947 3817 1114 4032 1485 4032 
C 2240 4032 2240 2885 2240 2632 
C 2240 2182 2035 1510 1427 1510 
z
" transform="scale(0.015625)"/>
     </defs>
     <use xlink:href="#CMR17-30" transform="scale(0.996264)"/>
     <use xlink:href="#CMMI12-3a" transform="translate(45.690477 0)scale(0.996264)"/>
     <use xlink:href="#CMR17-38" transform="translate(72.787654 0)scale(0.996264)"/>
     <use xlink:href="#CMR17-38" transform="translate(118.478131 0)scale(0.996264)"/>
     <use xlink:href="#CMR17-39" transform="translate(164.168608 0)scale(0.996264)"/>
    </g>
   </g>
   <g id="text_18">
    <!-- $\mathdefault{0.889}$ -->
    <g transform="translate(115.993415 119.799132)rotate(-25.745898)scale(0.12 -0.12)">
     <use xlink:href="#CMR17-30" transform="scale(0.996264)"/>
     <use xlink:href="#CMMI12-3a" transform="translate(45.690477 0)scale(0.996264)"/>
     <use xlink:href="#CMR17-38" transform="translate(72.787654 0)scale(0.996264)"/>
     <use xlink:href="#CMR17-38" transform="translate(118.478131 0)scale(0.996264)"/>
     <use xlink:href="#CMR17-39" transform="translate(164.168608 0)scale(0.996264)"/>
    </g>
   </g>
   <g id="text_19">
    <!-- $\mathdefault{1.333}$ -->
    <g transform="translate(146.002532 244.228136)rotate(-59.273892)scale(0.12 -0.12)">
     <defs>
      <path id="CMR17-33" d="M 1414 2157 
C 1984 2157 2234 1662 2234 1090 
C 2234 320 1824 25 1453 25 
C 1114 25 563 194 390 693 
C 422 680 454 680 486 680 
C 640 680 755 782 755 948 
C 755 1133 614 1216 486 1216 
C 378 1216 211 1165 211 926 
C 211 335 787 -128 1466 -128 
C 2176 -128 2720 430 2720 1085 
C 2720 1707 2208 2157 1600 2227 
C 2086 2328 2554 2756 2554 3329 
C 2554 3820 2048 4179 1472 4179 
C 890 4179 378 3829 378 3329 
C 378 3110 544 3072 627 3072 
C 762 3072 877 3155 877 3321 
C 877 3486 762 3569 627 3569 
C 602 3569 570 3569 544 3557 
C 730 3959 1235 4032 1459 4032 
C 1683 4032 2106 3925 2106 3320 
C 2106 3143 2080 2828 1862 2550 
C 1670 2304 1453 2304 1242 2284 
C 1210 2284 1062 2269 1037 2269 
C 992 2263 966 2257 966 2208 
C 966 2163 973 2157 1101 2157 
L 1414 2157 
z
" transform="scale(0.015625)"/>
     </defs>
     <use xlink:href="#CMR17-31" transform="scale(0.996264)"/>
     <use xlink:href="#CMMI12-3a" transform="translate(45.690477 0)scale(0.996264)"/>
     <use xlink:href="#CMR17-33" transform="translate(72.787654 0)scale(0.996264)"/>
     <use xlink:href="#CMR17-33" transform="translate(118.478131 0)scale(0.996264)"/>
     <use xlink:href="#CMR17-33" transform="translate(164.168608 0)scale(0.996264)"/>
    </g>
   </g>
   <g id="text_20">
    <!-- $\mathdefault{1.333}$ -->
    <g transform="translate(230.528744 72.162095)rotate(-59.273892)scale(0.12 -0.12)">
     <use xlink:href="#CMR17-31" transform="scale(0.996264)"/>
     <use xlink:href="#CMMI12-3a" transform="translate(45.690477 0)scale(0.996264)"/>
     <use xlink:href="#CMR17-33" transform="translate(72.787654 0)scale(0.996264)"/>
     <use xlink:href="#CMR17-33" transform="translate(118.478131 0)scale(0.996264)"/>
     <use xlink:href="#CMR17-33" transform="translate(164.168608 0)scale(0.996264)"/>
    </g>
   </g>
   <g id="text_21">
    <!-- $\mathdefault{1.778}$ -->
    <g transform="translate(87.952838 232.31991)rotate(-334.281694)scale(0.12 -0.12)">
     <defs>
      <path id="CMR17-37" d="M 2886 3941 
L 2886 4081 
L 1382 4081 
C 634 4081 621 4165 595 4288 
L 480 4288 
L 294 3094 
L 410 3094 
C 429 3215 474 3540 550 3661 
C 589 3712 1062 3712 1171 3712 
L 2579 3712 
L 1869 2661 
C 1395 1954 1069 999 1069 165 
C 1069 89 1069 -128 1299 -128 
C 1530 -128 1530 89 1530 171 
L 1530 465 
C 1530 1508 1709 2196 2003 2636 
L 2886 3941 
z
" transform="scale(0.015625)"/>
     </defs>
     <use xlink:href="#CMR17-31" transform="scale(0.996264)"/>
     <use xlink:href="#CMMI12-3a" transform="translate(45.690477 0)scale(0.996264)"/>
     <use xlink:href="#CMR17-37" transform="translate(72.787654 0)scale(0.996264)"/>
     <use xlink:href="#CMR17-37" transform="translate(118.478131 0)scale(0.996264)"/>
     <use xlink:href="#CMR17-38" transform="translate(164.168608 0)scale(0.996264)"/>
    </g>
   </g>
   <g id="text_22">
    <!-- $\mathdefault{1.778}$ -->
    <g transform="translate(270.447124 51.910433)rotate(-334.281694)scale(0.12 -0.12)">
     <use xlink:href="#CMR17-31" transform="scale(0.996264)"/>
     <use xlink:href="#CMMI12-3a" transform="translate(45.690477 0)scale(0.996264)"/>
     <use xlink:href="#CMR17-37" transform="translate(72.787654 0)scale(0.996264)"/>
     <use xlink:href="#CMR17-37" transform="translate(118.478131 0)scale(0.996264)"/>
     <use xlink:href="#CMR17-38" transform="translate(164.168608 0)scale(0.996264)"/>
    </g>
   </g>
   <g id="text_23">
    <!-- $\mathdefault{2.222}$ -->
    <g transform="translate(72.33504 248.347472)rotate(-333.83403)scale(0.12 -0.12)">
     <use xlink:href="#CMR17-32" transform="scale(0.996264)"/>
     <use xlink:href="#CMMI12-3a" transform="translate(45.690477 0)scale(0.996264)"/>
     <use xlink:href="#CMR17-32" transform="translate(72.787654 0)scale(0.996264)"/>
     <use xlink:href="#CMR17-32" transform="translate(118.478131 0)scale(0.996264)"/>
     <use xlink:href="#CMR17-32" transform="translate(164.168608 0)scale(0.996264)"/>
    </g>
   </g>
   <g id="text_24">
    <!-- $\mathdefault{2.222}$ -->
    <g transform="translate(286.11406 35.675103)rotate(-333.83403)scale(0.12 -0.12)">
     <use xlink:href="#CMR17-32" transform="scale(0.996264)"/>
     <use xlink:href="#CMMI12-3a" transform="translate(45.690477 0)scale(0.996264)"/>
     <use xlink:href="#CMR17-32" transform="translate(72.787654 0)scale(0.996264)"/>
     <use xlink:href="#CMR17-32" transform="translate(118.478131 0)scale(0.996264)"/>
     <use xlink:href="#CMR17-32" transform="translate(164.168608 0)scale(0.996264)"/>
    </g>
   </g>
   <g id="text_25">
    <!-- $\mathdefault{2.667}$ -->
    <g transform="translate(61.734609 255.32056)rotate(-337.378015)scale(0.12 -0.12)">
     <use xlink:href="#CMR17-32" transform="scale(0.996264)"/>
     <use xlink:href="#CMMI12-3a" transform="translate(45.690477 0)scale(0.996264)"/>
     <use xlink:href="#CMR17-36" transform="translate(72.787654 0)scale(0.996264)"/>
     <use xlink:href="#CMR17-36" transform="translate(118.478131 0)scale(0.996264)"/>
     <use xlink:href="#CMR17-37" transform="translate(164.168608 0)scale(0.996264)"/>
    </g>
   </g>
   <g id="text_26">
    <!-- $\mathdefault{2.667}$ -->
    <g transform="translate(296.370119 30.35648)rotate(-337.378015)scale(0.12 -0.12)">
     <use xlink:href="#CMR17-32" transform="scale(0.996264)"/>
     <use xlink:href="#CMMI12-3a" transform="translate(45.690477 0)scale(0.996264)"/>
     <use xlink:href="#CMR17-36" transform="translate(72.787654 0)scale(0.996264)"/>
     <use xlink:href="#CMR17-36" transform="translate(118.478131 0)scale(0.996264)"/>
     <use xlink:href="#CMR17-37" transform="translate(164.168608 0)scale(0.996264)"/>
    </g>
   </g>
  </g>
 </g>
 <defs>
  <clipPath id="p74ce7a8ea4">
   <rect x="56.608099" y="9.307752" width="271.8" height="271.8"/>
  </clipPath>
 </defs>
</svg>
