<?xml version="1.0" encoding="utf-8" standalone="no"?>
<!DOCTYPE svg PUBLIC "-//W3C//DTD SVG 1.1//EN"
  "http://www.w3.org/Graphics/SVG/1.1/DTD/svg11.dtd">
<svg xmlns:xlink="http://www.w3.org/1999/xlink" width="347.571464pt" height="333.817556pt" viewBox="0 0 347.571464 333.817556" xmlns="http://www.w3.org/2000/svg" version="1.1">
 <metadata>
  <rdf:RDF xmlns:dc="http://purl.org/dc/elements/1.1/" xmlns:cc="http://creativecommons.org/ns#" xmlns:rdf="http://www.w3.org/1999/02/22-rdf-syntax-ns#">
   <cc:Work>
    <dc:type rdf:resource="http://purl.org/dc/dcmitype/StillImage"/>
    <dc:date>2022-08-18T01:08:58.817760</dc:date>
    <dc:format>image/svg+xml</dc:format>
    <dc:creator>
     <cc:Agent>
      <dc:title>Matplotlib v3.5.1, https://matplotlib.org/</dc:title>
     </cc:Agent>
    </dc:creator>
   </cc:Work>
  </rdf:RDF>
 </metadata>
 <defs>
  <style type="text/css">*{stroke-linejoin: round; stroke-linecap: butt}</style>
 </defs>
 <g id="figure_1">
  <g id="patch_1">
   <path d="M 0 333.817556 
L 347.571464 333.817556 
L 347.571464 0 
L 0 0 
z
" style="fill: #ffffff"/>
  </g>
  <g id="patch_2">
   <path d="M 3.6 324.72 
L 324.72 324.72 
L 324.72 3.6 
L 3.6 3.6 
z
" style="fill: #ffffff"/>
  </g>
  <g id="pane3d_1">
   <g id="patch_3">
    <path d="M 34.938629 258.643868 
L 111.762766 160.642883 
L 109.336047 32.086677 
L 28.641521 121.554732 
" style="fill: #f2f2f2; opacity: 0.5; stroke: #f2f2f2; stroke-width: 1.5; stroke-linejoin: miter"/>
   </g>
  </g>
  <g id="pane3d_2">
   <g id="patch_4">
    <path d="M 111.762766 160.642883 
L 294.245607 194.225295 
L 299.812026 62.660731 
L 109.336047 32.086677 
" style="fill: #e6e6e6; opacity: 0.5; stroke: #e6e6e6; stroke-width: 1.5; stroke-linejoin: miter"/>
   </g>
  </g>
  <g id="pane3d_3">
   <g id="patch_5">
    <path d="M 34.938629 258.643868 
L 233.076486 299.2424 
L 294.245607 194.225295 
L 111.762766 160.642883 
" style="fill: #ececec; opacity: 0.5; stroke: #ececec; stroke-width: 1.5; stroke-linejoin: miter"/>
   </g>
  </g>
  <g id="axis3d_1">
   <g id="line2d_1">
    <path d="M 34.938629 258.643868 
L 233.076486 299.2424 
" style="fill: none; stroke: #ffffff; stroke-width: 1.875; stroke-linecap: square"/>
   </g>
   <g id="text_1">
    <!-- $u$ -->
    <g style="fill: #555555" transform="translate(115.988605 319.807328)scale(0.18 -0.18)">
     <defs>
      <path id="CMMI12-75" d="M 2182 370 
C 2266 13 2573 -64 2726 -64 
C 2931 -64 3085 70 3187 287 
C 3296 517 3379 894 3379 913 
C 3379 945 3354 971 3315 971 
C 3258 971 3251 939 3226 843 
C 3110 402 2995 64 2739 64 
C 2547 64 2547 275 2547 358 
C 2547 505 2566 568 2630 837 
C 2675 1009 2720 1181 2758 1360 
L 3021 2401 
C 3066 2561 3066 2574 3066 2593 
C 3066 2689 2989 2753 2893 2753 
C 2707 2753 2662 2593 2624 2433 
C 2560 2184 2214 811 2170 588 
C 2163 588 1914 64 1446 64 
C 1114 64 1050 351 1050 588 
C 1050 952 1229 1462 1395 1890 
C 1472 2095 1504 2178 1504 2305 
C 1504 2580 1306 2816 998 2816 
C 410 2816 173 1890 173 1839 
C 173 1814 198 1782 243 1782 
C 301 1782 307 1807 333 1896 
C 486 2441 736 2682 979 2682 
C 1043 2682 1146 2682 1146 2478 
C 1146 2312 1075 2127 979 1884 
C 698 1124 666 881 666 690 
C 666 38 1158 -64 1421 -64 
C 1830 -64 2054 217 2182 370 
z
" transform="scale(0.015625)"/>
     </defs>
     <use xlink:href="#CMMI12-75" transform="scale(0.996264)"/>
    </g>
   </g>
   <g id="Line3DCollection_1">
    <path d="M 38.763177 259.42752 
L 115.296471 161.293192 
L 113.019355 32.6779 
" style="fill: none; stroke: #ffffff; stroke-width: 1.5"/>
    <path d="M 75.757754 267.007724 
L 149.454652 167.57934 
L 148.634198 38.394579 
" style="fill: none; stroke: #ffffff; stroke-width: 1.5"/>
    <path d="M 113.26491 274.692957 
L 184.043423 173.94473 
L 184.717463 44.186447 
" style="fill: none; stroke: #ffffff; stroke-width: 1.5"/>
    <path d="M 151.295369 282.485414 
L 219.070979 180.390869 
L 221.278452 50.054996 
" style="fill: none; stroke: #ffffff; stroke-width: 1.5"/>
    <path d="M 189.860163 290.387357 
L 254.545724 186.919305 
L 258.326717 56.00176 
" style="fill: none; stroke: #ffffff; stroke-width: 1.5"/>
    <path d="M 228.97063 298.401109 
L 290.476274 193.531623 
L 295.872063 62.028312 
" style="fill: none; stroke: #ffffff; stroke-width: 1.5"/>
    <path d="M 47.964343 261.312842 
L 123.796089 162.857381 
L 121.879651 34.100101 
" style="fill: none; stroke: #ffffff; stroke-width: 1.5"/>
    <path d="M 57.197052 263.204629 
L 132.322242 164.426454 
L 130.768796 35.526933 
" style="fill: none; stroke: #ffffff; stroke-width: 1.5"/>
    <path d="M 66.461468 265.102911 
L 140.875054 166.000432 
L 139.686931 36.958418 
" style="fill: none; stroke: #ffffff; stroke-width: 1.5"/>
    <path d="M 85.086075 268.919101 
L 158.06116 169.1632 
L 157.610741 39.83544 
" style="fill: none; stroke: #ffffff; stroke-width: 1.5"/>
    <path d="M 94.446596 270.837076 
L 166.694706 170.752036 
L 166.616702 41.281022 
" style="fill: none; stroke: #ffffff; stroke-width: 1.5"/>
    <path d="M 103.839485 272.761683 
L 175.355418 172.345871 
L 175.652228 42.73135 
" style="fill: none; stroke: #ffffff; stroke-width: 1.5"/>
    <path d="M 122.723039 276.630932 
L 192.758851 175.548634 
L 193.812555 45.646336 
" style="fill: none; stroke: #ffffff; stroke-width: 1.5"/>
    <path d="M 132.214044 278.575643 
L 201.501833 177.15761 
L 202.937651 47.111042 
" style="fill: none; stroke: #ffffff; stroke-width: 1.5"/>
    <path d="M 141.738097 280.527125 
L 210.272498 178.77168 
L 212.0929 48.580587 
" style="fill: none; stroke: #ffffff; stroke-width: 1.5"/>
    <path d="M 160.886036 284.450546 
L 227.897409 182.015201 
L 230.494458 51.534294 
" style="fill: none; stroke: #ffffff; stroke-width: 1.5"/>
    <path d="M 170.510273 286.422556 
L 236.75192 183.644702 
L 239.741068 53.018504 
" style="fill: none; stroke: #ffffff; stroke-width: 1.5"/>
    <path d="M 180.168256 288.401481 
L 245.634646 185.279395 
L 249.018437 54.507651 
" style="fill: none; stroke: #ffffff; stroke-width: 1.5"/>
    <path d="M 199.586172 292.380221 
L 263.485288 188.564457 
L 267.666063 57.500855 
" style="fill: none; stroke: #ffffff; stroke-width: 1.5"/>
    <path d="M 209.346466 294.380109 
L 272.453476 190.214878 
L 277.036631 59.004962 
" style="fill: none; stroke: #ffffff; stroke-width: 1.5"/>
    <path d="M 219.141224 296.387059 
L 281.450425 191.870591 
L 286.438578 60.514106 
" style="fill: none; stroke: #ffffff; stroke-width: 1.5"/>
   </g>
   <g id="xtick_1">
    <g id="line2d_2">
     <path d="M 168.499459 159.820541 
" clip-path="url(#p4b4651ddbe)" style="fill: none; stroke: #ffffff; stroke-width: 1.5; stroke-linecap: square"/>
    </g>
    <g id="line2d_3">
     <path d="M 39.434785 258.566354 
L 37.416803 261.153898 
" style="fill: none; stroke: #555555; stroke-width: 1.875; stroke-linecap: square"/>
    </g>
    <g id="text_2">
     <!-- $\mathdefault{0.0}$ -->
     <g style="fill: #555555" transform="translate(23.085256 287.315901)scale(0.165 -0.165)">
      <defs>
       <path id="CMR17-30" d="M 2688 2025 
C 2688 2416 2682 3080 2413 3591 
C 2176 4039 1798 4198 1466 4198 
C 1158 4198 768 4058 525 3597 
C 269 3118 243 2524 243 2025 
C 243 1661 250 1106 448 619 
C 723 -39 1216 -128 1466 -128 
C 1760 -128 2208 -7 2470 600 
C 2662 1042 2688 1559 2688 2025 
z
M 1466 -26 
C 1056 -26 813 325 723 812 
C 653 1188 653 1738 653 2096 
C 653 2588 653 2997 736 3387 
C 858 3929 1216 4096 1466 4096 
C 1728 4096 2067 3923 2189 3400 
C 2272 3036 2278 2607 2278 2096 
C 2278 1680 2278 1169 2202 792 
C 2067 95 1690 -26 1466 -26 
z
" transform="scale(0.015625)"/>
       <path id="CMMI12-3a" d="M 1178 307 
C 1178 492 1024 619 870 619 
C 685 619 557 466 557 313 
C 557 128 710 0 864 0 
C 1050 0 1178 153 1178 307 
z
" transform="scale(0.015625)"/>
      </defs>
      <use xlink:href="#CMR17-30" transform="scale(0.996264)"/>
      <use xlink:href="#CMMI12-3a" transform="translate(45.690477 0)scale(0.996264)"/>
      <use xlink:href="#CMR17-30" transform="translate(72.787654 0)scale(0.996264)"/>
     </g>
    </g>
   </g>
   <g id="xtick_2">
    <g id="line2d_4">
     <path d="M 168.499459 159.820541 
" clip-path="url(#p4b4651ddbe)" style="fill: none; stroke: #ffffff; stroke-width: 1.5; stroke-linecap: square"/>
    </g>
    <g id="line2d_5">
     <path d="M 76.404865 266.134673 
L 74.46047 268.757959 
" style="fill: none; stroke: #555555; stroke-width: 1.875; stroke-linecap: square"/>
    </g>
    <g id="text_3">
     <!-- $\mathdefault{0.2}$ -->
     <g style="fill: #555555" transform="translate(60.178112 295.037626)scale(0.165 -0.165)">
      <defs>
       <path id="CMR17-32" d="M 2669 989 
L 2554 989 
C 2490 536 2438 459 2413 420 
C 2381 369 1920 369 1830 369 
L 602 369 
C 832 619 1280 1072 1824 1597 
C 2214 1967 2669 2402 2669 3035 
C 2669 3790 2067 4224 1395 4224 
C 691 4224 262 3604 262 3030 
C 262 2780 448 2748 525 2748 
C 589 2748 781 2787 781 3010 
C 781 3207 614 3264 525 3264 
C 486 3264 448 3258 422 3245 
C 544 3790 915 4058 1306 4058 
C 1862 4058 2227 3617 2227 3035 
C 2227 2479 1901 2000 1536 1584 
L 262 146 
L 262 0 
L 2515 0 
L 2669 989 
z
" transform="scale(0.015625)"/>
      </defs>
      <use xlink:href="#CMR17-30" transform="scale(0.996264)"/>
      <use xlink:href="#CMMI12-3a" transform="translate(45.690477 0)scale(0.996264)"/>
      <use xlink:href="#CMR17-32" transform="translate(72.787654 0)scale(0.996264)"/>
     </g>
    </g>
   </g>
   <g id="xtick_3">
    <g id="line2d_6">
     <path d="M 168.499459 159.820541 
" clip-path="url(#p4b4651ddbe)" style="fill: none; stroke: #ffffff; stroke-width: 1.5; stroke-linecap: square"/>
    </g>
    <g id="line2d_7">
     <path d="M 113.886777 273.807772 
L 112.018211 276.467545 
" style="fill: none; stroke: #555555; stroke-width: 1.875; stroke-linecap: square"/>
    </g>
    <g id="text_4">
     <!-- $\mathdefault{0.4}$ -->
     <g style="fill: #555555" transform="translate(97.786803 302.866733)scale(0.165 -0.165)">
      <defs>
       <path id="CMR17-34" d="M 2150 4122 
C 2150 4256 2144 4256 2029 4256 
L 128 1254 
L 128 1088 
L 1779 1088 
L 1779 457 
C 1779 224 1766 160 1318 160 
L 1197 160 
L 1197 0 
C 1402 0 1747 0 1965 0 
C 2182 0 2528 0 2733 0 
L 2733 160 
L 2611 160 
C 2163 160 2150 224 2150 457 
L 2150 1088 
L 2803 1088 
L 2803 1254 
L 2150 1254 
L 2150 4122 
z
M 1798 3703 
L 1798 1254 
L 256 1254 
L 1798 3703 
z
" transform="scale(0.015625)"/>
      </defs>
      <use xlink:href="#CMR17-30" transform="scale(0.996264)"/>
      <use xlink:href="#CMMI12-3a" transform="translate(45.690477 0)scale(0.996264)"/>
      <use xlink:href="#CMR17-34" transform="translate(72.787654 0)scale(0.996264)"/>
     </g>
    </g>
   </g>
   <g id="xtick_4">
    <g id="line2d_8">
     <path d="M 168.499459 159.820541 
" clip-path="url(#p4b4651ddbe)" style="fill: none; stroke: #ffffff; stroke-width: 1.5; stroke-linecap: square"/>
    </g>
    <g id="line2d_9">
     <path d="M 151.891224 281.587841 
L 150.100799 284.284868 
" style="fill: none; stroke: #555555; stroke-width: 1.875; stroke-linecap: square"/>
    </g>
    <g id="text_5">
     <!-- $\mathdefault{0.6}$ -->
     <g style="fill: #555555" transform="translate(135.922164 310.805479)scale(0.165 -0.165)">
      <defs>
       <path id="CMR17-36" d="M 678 2176 
C 678 3690 1395 4032 1811 4032 
C 1946 4032 2272 4009 2400 3776 
C 2298 3776 2106 3776 2106 3553 
C 2106 3381 2246 3323 2336 3323 
C 2394 3323 2566 3348 2566 3560 
C 2566 3954 2246 4179 1805 4179 
C 1043 4179 243 3390 243 1984 
C 243 253 966 -128 1478 -128 
C 2099 -128 2688 427 2688 1283 
C 2688 2081 2170 2662 1517 2662 
C 1126 2662 838 2407 678 1960 
L 678 2176 
z
M 1478 25 
C 691 25 691 1200 691 1436 
C 691 1896 909 2560 1504 2560 
C 1613 2560 1926 2560 2138 2120 
C 2253 1870 2253 1609 2253 1289 
C 2253 944 2253 690 2118 434 
C 1978 171 1773 25 1478 25 
z
" transform="scale(0.015625)"/>
      </defs>
      <use xlink:href="#CMR17-30" transform="scale(0.996264)"/>
      <use xlink:href="#CMMI12-3a" transform="translate(45.690477 0)scale(0.996264)"/>
      <use xlink:href="#CMR17-36" transform="translate(72.787654 0)scale(0.996264)"/>
     </g>
    </g>
   </g>
   <g id="xtick_5">
    <g id="line2d_10">
     <path d="M 168.499459 159.820541 
" clip-path="url(#p4b4651ddbe)" style="fill: none; stroke: #ffffff; stroke-width: 1.5; stroke-linecap: square"/>
    </g>
    <g id="line2d_11">
     <path d="M 190.429211 289.477134 
L 188.719316 292.212203 
" style="fill: none; stroke: #555555; stroke-width: 1.875; stroke-linecap: square"/>
    </g>
    <g id="text_6">
     <!-- $\mathdefault{0.8}$ -->
     <g style="fill: #555555" transform="translate(174.595337 318.856183)scale(0.165 -0.165)">
      <defs>
       <path id="CMR17-38" d="M 1741 2264 
C 2144 2467 2554 2773 2554 3263 
C 2554 3841 1990 4179 1472 4179 
C 890 4179 378 3759 378 3180 
C 378 3021 416 2747 666 2505 
C 730 2442 998 2251 1171 2130 
C 883 1983 211 1634 211 934 
C 211 279 838 -128 1459 -128 
C 2144 -128 2720 362 2720 1010 
C 2720 1590 2330 1857 2074 2029 
L 1741 2264 
z
M 902 2822 
C 851 2854 595 3051 595 3351 
C 595 3739 998 4032 1459 4032 
C 1965 4032 2336 3676 2336 3262 
C 2336 2669 1670 2331 1638 2331 
C 1632 2331 1626 2331 1574 2370 
L 902 2822 
z
M 2080 1519 
C 2176 1449 2483 1240 2483 851 
C 2483 381 2010 25 1472 25 
C 890 25 448 438 448 940 
C 448 1443 838 1862 1280 2060 
L 2080 1519 
z
" transform="scale(0.015625)"/>
      </defs>
      <use xlink:href="#CMR17-30" transform="scale(0.996264)"/>
      <use xlink:href="#CMMI12-3a" transform="translate(45.690477 0)scale(0.996264)"/>
      <use xlink:href="#CMR17-38" transform="translate(72.787654 0)scale(0.996264)"/>
     </g>
    </g>
   </g>
   <g id="xtick_6">
    <g id="line2d_12">
     <path d="M 168.499459 159.820541 
" clip-path="url(#p4b4651ddbe)" style="fill: none; stroke: #ffffff; stroke-width: 1.5; stroke-linecap: square"/>
    </g>
    <g id="line2d_13">
     <path d="M 229.512051 297.477966 
L 227.885154 300.251888 
" style="fill: none; stroke: #555555; stroke-width: 1.875; stroke-linecap: square"/>
    </g>
    <g id="text_7">
     <!-- $\mathdefault{1.0}$ -->
     <g style="fill: #555555" transform="translate(213.817779 327.021229)scale(0.165 -0.165)">
      <defs>
       <path id="CMR17-31" d="M 1702 4058 
C 1702 4192 1696 4192 1606 4192 
C 1357 3916 979 3827 621 3827 
C 602 3827 570 3827 563 3808 
C 557 3795 557 3782 557 3648 
C 755 3648 1088 3686 1344 3839 
L 1344 461 
C 1344 236 1331 160 781 160 
L 589 160 
L 589 0 
C 896 0 1216 0 1523 0 
C 1830 0 2150 0 2458 0 
L 2458 160 
L 2266 160 
C 1715 160 1702 230 1702 458 
L 1702 4058 
z
" transform="scale(0.015625)"/>
      </defs>
      <use xlink:href="#CMR17-31" transform="scale(0.996264)"/>
      <use xlink:href="#CMMI12-3a" transform="translate(45.690477 0)scale(0.996264)"/>
      <use xlink:href="#CMR17-30" transform="translate(72.787654 0)scale(0.996264)"/>
     </g>
    </g>
   </g>
   <g id="xtick_7">
    <g id="line2d_14">
     <path d="M 48.629895 260.448729 
L 46.630104 263.045139 
" style="fill: none; stroke: #555555; stroke-width: 1.5; stroke-linecap: square"/>
    </g>
   </g>
   <g id="xtick_8">
    <g id="line2d_15">
     <path d="M 57.856503 262.337551 
L 55.87504 264.942874 
" style="fill: none; stroke: #555555; stroke-width: 1.5; stroke-linecap: square"/>
    </g>
   </g>
   <g id="xtick_9">
    <g id="line2d_16">
     <path d="M 67.114772 264.232855 
L 65.151774 266.847136 
" style="fill: none; stroke: #555555; stroke-width: 1.5; stroke-linecap: square"/>
    </g>
   </g>
   <g id="xtick_10">
    <g id="line2d_17">
     <path d="M 85.726946 268.04304 
L 83.801295 270.675377 
" style="fill: none; stroke: #555555; stroke-width: 1.5; stroke-linecap: square"/>
    </g>
   </g>
   <g id="xtick_11">
    <g id="line2d_18">
     <path d="M 95.08118 269.95799 
L 93.174415 272.599424 
" style="fill: none; stroke: #555555; stroke-width: 1.5; stroke-linecap: square"/>
    </g>
   </g>
   <g id="xtick_12">
    <g id="line2d_19">
     <path d="M 104.467735 271.879555 
L 102.579997 274.530135 
" style="fill: none; stroke: #555555; stroke-width: 1.5; stroke-linecap: square"/>
    </g>
   </g>
   <g id="xtick_13">
    <g id="line2d_20">
     <path d="M 123.338477 275.742674 
L 121.489226 278.411688 
" style="fill: none; stroke: #555555; stroke-width: 1.5; stroke-linecap: square"/>
    </g>
   </g>
   <g id="xtick_14">
    <g id="line2d_21">
     <path d="M 132.823003 277.684296 
L 130.993214 280.362599 
" style="fill: none; stroke: #555555; stroke-width: 1.5; stroke-linecap: square"/>
    </g>
   </g>
   <g id="xtick_15">
    <g id="line2d_22">
     <path d="M 142.340528 279.632673 
L 140.530347 282.320314 
" style="fill: none; stroke: #555555; stroke-width: 1.5; stroke-linecap: square"/>
    </g>
   </g>
   <g id="xtick_16">
    <g id="line2d_23">
     <path d="M 161.475265 283.549835 
L 159.704746 286.256298 
" style="fill: none; stroke: #555555; stroke-width: 1.5; stroke-linecap: square"/>
    </g>
   </g>
   <g id="xtick_17">
    <g id="line2d_24">
     <path d="M 171.092825 285.518691 
L 169.342362 288.234639 
" style="fill: none; stroke: #555555; stroke-width: 1.5; stroke-linecap: square"/>
    </g>
   </g>
   <g id="xtick_18">
    <g id="line2d_25">
     <path d="M 180.744082 287.494445 
L 179.013826 290.219929 
" style="fill: none; stroke: #555555; stroke-width: 1.5; stroke-linecap: square"/>
    </g>
   </g>
   <g id="xtick_19">
    <g id="line2d_26">
     <path d="M 200.148392 291.466793 
L 198.459012 294.211498 
" style="fill: none; stroke: #555555; stroke-width: 1.5; stroke-linecap: square"/>
    </g>
   </g>
   <g id="xtick_20">
    <g id="line2d_27">
     <path d="M 209.901804 293.46346 
L 208.233095 296.217853 
" style="fill: none; stroke: #555555; stroke-width: 1.5; stroke-linecap: square"/>
    </g>
   </g>
   <g id="xtick_21">
    <g id="line2d_28">
     <path d="M 219.68963 295.467172 
L 218.041748 298.231303 
" style="fill: none; stroke: #555555; stroke-width: 1.5; stroke-linecap: square"/>
    </g>
   </g>
  </g>
  <g id="axis3d_2">
   <g id="line2d_29">
    <path d="M 294.245607 194.225295 
L 233.076486 299.2424 
" style="fill: none; stroke: #ffffff; stroke-width: 1.875; stroke-linecap: square"/>
   </g>
   <g id="text_8">
    <!-- $v$ -->
    <g style="fill: #555555" transform="translate(289.605994 273.758243)scale(0.18 -0.18)">
     <defs>
      <path id="CMMI12-76" d="M 2925 2389 
C 2925 2791 2720 2816 2669 2816 
C 2515 2816 2374 2663 2374 2535 
C 2374 2459 2419 2414 2445 2389 
C 2509 2331 2675 2159 2675 1827 
C 2675 1558 2291 64 1523 64 
C 1133 64 1056 390 1056 626 
C 1056 945 1203 1392 1376 1852 
C 1478 2114 1504 2178 1504 2305 
C 1504 2574 1312 2816 998 2816 
C 410 2816 173 1890 173 1839 
C 173 1814 198 1782 243 1782 
C 301 1782 307 1807 333 1897 
C 486 2446 736 2689 979 2689 
C 1037 2689 1146 2689 1146 2478 
C 1146 2312 1075 2127 979 1884 
C 672 1067 672 869 672 715 
C 672 575 691 313 890 134 
C 1120 -64 1440 -64 1498 -64 
C 2560 -64 2925 2024 2925 2389 
z
" transform="scale(0.015625)"/>
     </defs>
     <use xlink:href="#CMMI12-76" transform="scale(0.996264)"/>
    </g>
   </g>
   <g id="Line3DCollection_2">
    <path d="M 30.416906 119.586317 
L 36.621952 256.496531 
L 234.421088 296.933944 
" style="fill: none; stroke: #ffffff; stroke-width: 1.5"/>
    <path d="M 47.09876 101.090725 
L 52.453901 236.300448 
L 247.057856 275.238737 
" style="fill: none; stroke: #ffffff; stroke-width: 1.5"/>
    <path d="M 63.151206 83.292974 
L 67.714384 216.833359 
L 259.222331 254.354377 
" style="fill: none; stroke: #ffffff; stroke-width: 1.5"/>
    <path d="M 78.609207 66.154299 
L 82.433793 198.056492 
L 270.940505 234.23624 
" style="fill: none; stroke: #ffffff; stroke-width: 1.5"/>
    <path d="M 93.505182 49.638756 
L 96.640403 179.933779 
L 282.236497 214.842919 
" style="fill: none; stroke: #ffffff; stroke-width: 1.5"/>
    <path d="M 107.869234 33.712969 
L 110.360554 162.43162 
L 293.13272 196.135936 
" style="fill: none; stroke: #ffffff; stroke-width: 1.5"/>
    <path d="M 34.648391 114.894763 
L 40.635262 251.376938 
L 237.626055 291.431555 
" style="fill: none; stroke: #ffffff; stroke-width: 1.5"/>
    <path d="M 38.8388 110.248751 
L 44.611348 246.30483 
L 240.800211 285.982061 
" style="fill: none; stroke: #ffffff; stroke-width: 1.5"/>
    <path d="M 42.988729 105.647621 
L 48.550726 241.279548 
L 243.944 280.584703 
" style="fill: none; stroke: #ffffff; stroke-width: 1.5"/>
    <path d="M 51.169467 96.57743 
L 56.321372 231.366896 
L 250.142203 269.943431 
" style="fill: none; stroke: #ffffff; stroke-width: 1.5"/>
    <path d="M 55.201412 92.107111 
L 60.153625 226.478269 
L 253.197459 264.698069 
" style="fill: none; stroke: #ffffff; stroke-width: 1.5"/>
    <path d="M 59.195145 87.679159 
L 63.951139 221.633956 
L 256.224035 259.501948 
" style="fill: none; stroke: #ffffff; stroke-width: 1.5"/>
    <path d="M 67.070128 78.947967 
L 71.443823 212.075887 
L 262.192742 249.254679 
" style="fill: none; stroke: #ffffff; stroke-width: 1.5"/>
    <path d="M 70.952429 74.643561 
L 75.139908 207.360963 
L 265.135656 244.202191 
" style="fill: none; stroke: #ffffff; stroke-width: 1.5"/>
    <path d="M 74.798622 70.37919 
L 78.803086 202.688017 
L 268.051453 239.196258 
" style="fill: none; stroke: #ffffff; stroke-width: 1.5"/>
    <path d="M 82.384677 61.96834 
L 86.03246 193.46584 
L 273.803179 229.32151 
" style="fill: none; stroke: #ffffff; stroke-width: 1.5"/>
    <path d="M 86.125514 57.820779 
L 89.599509 188.915522 
L 276.639835 224.451448 
" style="fill: none; stroke: #ffffff; stroke-width: 1.5"/>
    <path d="M 89.832194 53.71109 
L 93.135354 184.405008 
L 279.450825 219.62545 
" style="fill: none; stroke: #ffffff; stroke-width: 1.5"/>
    <path d="M 97.144934 45.603271 
L 100.115058 175.501324 
L 284.997191 210.103271 
" style="fill: none; stroke: #ffffff; stroke-width: 1.5"/>
    <path d="M 100.751901 41.604135 
L 103.559711 171.10714 
L 287.733242 205.405933 
" style="fill: none; stroke: #ffffff; stroke-width: 1.5"/>
    <path d="M 104.326524 37.640862 
L 106.974749 166.750734 
L 290.444977 200.750339 
" style="fill: none; stroke: #ffffff; stroke-width: 1.5"/>
   </g>
   <g id="xtick_22">
    <g id="line2d_30">
     <path d="M 168.499459 159.820541 
" clip-path="url(#p4b4651ddbe)" style="fill: none; stroke: #ffffff; stroke-width: 1.5; stroke-linecap: square"/>
    </g>
    <g id="line2d_31">
     <path d="M 232.780945 296.598638 
L 237.704273 297.605147 
" style="fill: none; stroke: #555555; stroke-width: 1.875; stroke-linecap: square"/>
    </g>
    <g id="text_9">
     <!-- $\mathdefault{0.0}$ -->
     <g style="fill: #555555" transform="translate(238.018236 320.416242)scale(0.165 -0.165)">
      <use xlink:href="#CMR17-30" transform="scale(0.996264)"/>
      <use xlink:href="#CMMI12-3a" transform="translate(45.690477 0)scale(0.996264)"/>
      <use xlink:href="#CMR17-30" transform="translate(72.787654 0)scale(0.996264)"/>
     </g>
    </g>
   </g>
   <g id="xtick_23">
    <g id="line2d_32">
     <path d="M 168.499459 159.820541 
" clip-path="url(#p4b4651ddbe)" style="fill: none; stroke: #ffffff; stroke-width: 1.5; stroke-linecap: square"/>
    </g>
    <g id="line2d_33">
     <path d="M 245.445289 274.916078 
L 250.285785 275.884613 
" style="fill: none; stroke: #555555; stroke-width: 1.875; stroke-linecap: square"/>
    </g>
    <g id="text_10">
     <!-- $\mathdefault{0.2}$ -->
     <g style="fill: #555555" transform="translate(250.382511 298.505716)scale(0.165 -0.165)">
      <use xlink:href="#CMR17-30" transform="scale(0.996264)"/>
      <use xlink:href="#CMMI12-3a" transform="translate(45.690477 0)scale(0.996264)"/>
      <use xlink:href="#CMR17-32" transform="translate(72.787654 0)scale(0.996264)"/>
     </g>
    </g>
   </g>
   <g id="xtick_24">
    <g id="line2d_34">
     <path d="M 168.499459 159.820541 
" clip-path="url(#p4b4651ddbe)" style="fill: none; stroke: #ffffff; stroke-width: 1.5; stroke-linecap: square"/>
    </g>
    <g id="line2d_35">
     <path d="M 257.636443 254.043663 
L 262.396804 254.976333 
" style="fill: none; stroke: #555555; stroke-width: 1.875; stroke-linecap: square"/>
    </g>
    <g id="text_11">
     <!-- $\mathdefault{0.4}$ -->
     <g style="fill: #555555" transform="translate(262.284976 277.413553)scale(0.165 -0.165)">
      <use xlink:href="#CMR17-30" transform="scale(0.996264)"/>
      <use xlink:href="#CMMI12-3a" transform="translate(45.690477 0)scale(0.996264)"/>
      <use xlink:href="#CMR17-34" transform="translate(72.787654 0)scale(0.996264)"/>
     </g>
    </g>
   </g>
   <g id="xtick_25">
    <g id="line2d_36">
     <path d="M 168.499459 159.820541 
" clip-path="url(#p4b4651ddbe)" style="fill: none; stroke: #ffffff; stroke-width: 1.5; stroke-linecap: square"/>
    </g>
    <g id="line2d_37">
     <path d="M 269.380442 233.93682 
L 274.063235 234.83558 
" style="fill: none; stroke: #555555; stroke-width: 1.875; stroke-linecap: square"/>
    </g>
    <g id="text_12">
     <!-- $\mathdefault{0.6}$ -->
     <g style="fill: #555555" transform="translate(273.751031 257.094745)scale(0.165 -0.165)">
      <use xlink:href="#CMR17-30" transform="scale(0.996264)"/>
      <use xlink:href="#CMMI12-3a" transform="translate(45.690477 0)scale(0.996264)"/>
      <use xlink:href="#CMR17-36" transform="translate(72.787654 0)scale(0.996264)"/>
     </g>
    </g>
   </g>
   <g id="xtick_26">
    <g id="line2d_38">
     <path d="M 168.499459 159.820541 
" clip-path="url(#p4b4651ddbe)" style="fill: none; stroke: #ffffff; stroke-width: 1.5; stroke-linecap: square"/>
    </g>
    <g id="line2d_39">
     <path d="M 280.701445 214.554188 
L 285.30912 215.420855 
" style="fill: none; stroke: #555555; stroke-width: 1.875; stroke-linecap: square"/>
    </g>
    <g id="text_13">
     <!-- $\mathdefault{0.8}$ -->
     <g style="fill: #555555" transform="translate(284.804246 237.507526)scale(0.165 -0.165)">
      <use xlink:href="#CMR17-30" transform="scale(0.996264)"/>
      <use xlink:href="#CMMI12-3a" transform="translate(45.690477 0)scale(0.996264)"/>
      <use xlink:href="#CMR17-38" transform="translate(72.787654 0)scale(0.996264)"/>
     </g>
    </g>
   </g>
   <g id="xtick_27">
    <g id="line2d_40">
     <path d="M 168.499459 159.820541 
" clip-path="url(#p4b4651ddbe)" style="fill: none; stroke: #ffffff; stroke-width: 1.5; stroke-linecap: square"/>
    </g>
    <g id="line2d_41">
     <path d="M 291.6219 195.857331 
L 296.156793 196.693593 
" style="fill: none; stroke: #555555; stroke-width: 1.875; stroke-linecap: square"/>
    </g>
    <g id="text_14">
     <!-- $\mathdefault{1.0}$ -->
     <g style="fill: #555555" transform="translate(295.466522 218.613082)scale(0.165 -0.165)">
      <use xlink:href="#CMR17-31" transform="scale(0.996264)"/>
      <use xlink:href="#CMMI12-3a" transform="translate(45.690477 0)scale(0.996264)"/>
      <use xlink:href="#CMR17-30" transform="translate(72.787654 0)scale(0.996264)"/>
     </g>
    </g>
   </g>
   <g id="xtick_28">
    <g id="line2d_42">
     <path d="M 235.992892 291.09948 
L 240.895252 292.096289 
" style="fill: none; stroke: #555555; stroke-width: 1.5; stroke-linecap: square"/>
    </g>
   </g>
   <g id="xtick_29">
    <g id="line2d_43">
     <path d="M 239.173971 285.65317 
L 244.055538 286.640418 
" style="fill: none; stroke: #555555; stroke-width: 1.5; stroke-linecap: square"/>
    </g>
   </g>
   <g id="xtick_30">
    <g id="line2d_44">
     <path d="M 242.324625 280.258951 
L 247.185572 281.236775 
" style="fill: none; stroke: #555555; stroke-width: 1.5; stroke-linecap: square"/>
    </g>
   </g>
   <g id="xtick_31">
    <g id="line2d_45">
     <path d="M 248.536388 269.623822 
L 253.356603 270.583199 
" style="fill: none; stroke: #555555; stroke-width: 1.5; stroke-linecap: square"/>
    </g>
   </g>
   <g id="xtick_32">
    <g id="line2d_46">
     <path d="M 251.598342 264.381467 
L 256.398441 265.331815 
" style="fill: none; stroke: #555555; stroke-width: 1.5; stroke-linecap: square"/>
    </g>
   </g>
   <g id="xtick_33">
    <g id="line2d_47">
     <path d="M 254.631559 259.188311 
L 259.411708 260.129757 
" style="fill: none; stroke: #555555; stroke-width: 1.5; stroke-linecap: square"/>
    </g>
   </g>
   <g id="xtick_34">
    <g id="line2d_48">
     <path d="M 260.613389 248.946848 
L 265.354122 249.870863 
" style="fill: none; stroke: #555555; stroke-width: 1.5; stroke-linecap: square"/>
    </g>
   </g>
   <g id="xtick_35">
    <g id="line2d_49">
     <path d="M 263.562785 243.897202 
L 268.284049 244.812681 
" style="fill: none; stroke: #555555; stroke-width: 1.5; stroke-linecap: square"/>
    </g>
   </g>
   <g id="xtick_36">
    <g id="line2d_50">
     <path d="M 266.485012 238.894073 
L 271.186963 239.801135 
" style="fill: none; stroke: #555555; stroke-width: 1.5; stroke-linecap: square"/>
    </g>
   </g>
   <g id="xtick_37">
    <g id="line2d_51">
     <path d="M 272.249444 229.024817 
L 276.913232 229.915388 
" style="fill: none; stroke: #555555; stroke-width: 1.5; stroke-linecap: square"/>
    </g>
   </g>
   <g id="xtick_38">
    <g id="line2d_52">
     <path d="M 275.092377 224.157446 
L 279.737312 225.03994 
" style="fill: none; stroke: #555555; stroke-width: 1.5; stroke-linecap: square"/>
    </g>
   </g>
   <g id="xtick_39">
    <g id="line2d_53">
     <path d="M 277.909595 219.334101 
L 282.535826 220.208628 
" style="fill: none; stroke: #555555; stroke-width: 1.5; stroke-linecap: square"/>
    </g>
   </g>
   <g id="xtick_40">
    <g id="line2d_54">
     <path d="M 283.468269 209.817123 
L 288.057533 210.676035 
" style="fill: none; stroke: #555555; stroke-width: 1.5; stroke-linecap: square"/>
    </g>
   </g>
   <g id="xtick_41">
    <g id="line2d_55">
     <path d="M 286.210401 205.122333 
L 290.781399 205.973594 
" style="fill: none; stroke: #555555; stroke-width: 1.5; stroke-linecap: square"/>
    </g>
   </g>
   <g id="xtick_42">
    <g id="line2d_56">
     <path d="M 288.92817 200.469253 
L 293.481045 201.312965 
" style="fill: none; stroke: #555555; stroke-width: 1.5; stroke-linecap: square"/>
    </g>
   </g>
  </g>
  <g id="axis3d_3">
   <g id="line2d_57">
    <path d="M 294.245607 194.225295 
L 299.812026 62.660731 
" style="fill: none; stroke: #ffffff; stroke-width: 1.875; stroke-linecap: square"/>
   </g>
   <g id="text_15">
    <!-- $C(u,v)$ -->
    <g style="fill: #555555" transform="translate(337.243895 148.194901)rotate(-87.577294)scale(0.18 -0.18)">
     <defs>
      <path id="CMMI12-43" d="M 4781 4423 
C 4781 4480 4736 4480 4723 4480 
C 4710 4480 4685 4480 4634 4416 
L 4192 3882 
C 3968 4264 3616 4480 3136 4480 
C 1754 4480 320 3088 320 1595 
C 320 533 1069 -128 2003 -128 
C 2515 -128 2963 88 3334 400 
C 3891 863 4058 1481 4058 1531 
C 4058 1588 4006 1588 3987 1588 
C 3930 1588 3923 1550 3910 1524 
C 3616 534 2752 57 2112 57 
C 1434 57 845 489 845 1391 
C 845 1595 909 2700 1632 3532 
C 1984 3939 2586 4295 3194 4295 
C 3898 4295 4211 3717 4211 3068 
C 4211 2903 4192 2764 4192 2738 
C 4192 2681 4256 2681 4275 2681 
C 4346 2681 4352 2687 4378 2801 
L 4781 4423 
z
" transform="scale(0.015625)"/>
      <path id="CMR17-28" d="M 1958 -1561 
C 1958 -1555 1958 -1542 1939 -1523 
C 1645 -1224 858 -407 858 1581 
C 858 3569 1632 4379 1946 4697 
C 1946 4704 1958 4717 1958 4736 
C 1958 4755 1939 4768 1914 4768 
C 1843 4768 1299 4296 986 3594 
C 666 2887 576 2199 576 1588 
C 576 1128 621 351 1005 -471 
C 1312 -1135 1837 -1600 1914 -1600 
C 1946 -1600 1958 -1587 1958 -1561 
z
" transform="scale(0.015625)"/>
      <path id="CMMI12-3b" d="M 1248 -31 
C 1248 343 1126 619 864 619 
C 659 619 557 453 557 313 
C 557 172 653 0 870 0 
C 954 0 1024 26 1082 83 
C 1094 96 1101 96 1107 96 
C 1120 96 1120 5 1120 -27 
C 1120 -240 1082 -659 710 -1080 
C 640 -1157 640 -1170 640 -1183 
C 640 -1216 672 -1248 704 -1248 
C 755 -1248 1248 -771 1248 -31 
z
" transform="scale(0.015625)"/>
      <path id="CMR17-29" d="M 1683 1581 
C 1683 2040 1638 2817 1254 3639 
C 947 4303 422 4768 346 4768 
C 326 4768 301 4761 301 4729 
C 301 4717 307 4710 314 4697 
C 621 4378 1402 3568 1402 1584 
C 1402 -407 627 -1217 314 -1537 
C 307 -1549 301 -1556 301 -1568 
C 301 -1600 326 -1600 346 -1600 
C 416 -1600 960 -1128 1274 -426 
C 1594 281 1683 969 1683 1581 
z
" transform="scale(0.015625)"/>
     </defs>
     <use xlink:href="#CMMI12-43" transform="scale(0.996264)"/>
     <use xlink:href="#CMR17-28" transform="translate(76.946847 0)scale(0.996264)"/>
     <use xlink:href="#CMMI12-75" transform="translate(112.227614 0)scale(0.996264)"/>
     <use xlink:href="#CMMI12-3b" transform="translate(167.747944 0)scale(0.996264)"/>
     <use xlink:href="#CMMI12-76" transform="translate(211.449526 0)scale(0.996264)"/>
     <use xlink:href="#CMR17-29" transform="translate(262.1847 0)scale(0.996264)"/>
    </g>
   </g>
   <g id="Line3DCollection_3">
    <path d="M 294.352307 191.703408 
L 111.716184 158.175195 
L 34.818249 256.023174 
" style="fill: none; stroke: #ffffff; stroke-width: 1.5"/>
    <path d="M 295.385911 167.273745 
L 111.265076 134.277584 
L 33.651464 230.622052 
" style="fill: none; stroke: #ffffff; stroke-width: 1.5"/>
    <path d="M 296.436634 142.439487 
L 110.806742 109.997229 
L 32.464131 204.773618 
" style="fill: none; stroke: #ffffff; stroke-width: 1.5"/>
    <path d="M 297.504904 117.190499 
L 110.341009 85.324859 
L 31.255704 178.465951 
" style="fill: none; stroke: #ffffff; stroke-width: 1.5"/>
    <path d="M 298.591164 91.516305 
L 109.867695 60.250905 
L 30.025615 151.686703 
" style="fill: none; stroke: #ffffff; stroke-width: 1.5"/>
    <path d="M 299.695873 65.406072 
L 109.386614 34.765481 
L 28.773277 124.423079 
" style="fill: none; stroke: #ffffff; stroke-width: 1.5"/>
    <path d="M 294.609126 185.633381 
L 111.604075 152.236178 
L 34.52845 249.714193 
" style="fill: none; stroke: #ffffff; stroke-width: 1.5"/>
    <path d="M 294.866996 179.53853 
L 111.491523 146.273665 
L 34.237391 243.377798 
" style="fill: none; stroke: #ffffff; stroke-width: 1.5"/>
    <path d="M 295.125922 173.418703 
L 111.378524 140.287513 
L 33.945065 237.013812 
" style="fill: none; stroke: #ffffff; stroke-width: 1.5"/>
    <path d="M 295.646971 161.103501 
L 111.151177 128.243734 
L 33.356578 224.202338 
" style="fill: none; stroke: #ffffff; stroke-width: 1.5"/>
    <path d="M 295.909107 154.907816 
L 111.036823 122.185822 
L 33.060399 217.754484 
" style="fill: none; stroke: #ffffff; stroke-width: 1.5"/>
    <path d="M 296.172325 148.68653 
L 110.922013 116.103702 
L 32.76292 211.278307 
" style="fill: none; stroke: #ffffff; stroke-width: 1.5"/>
    <path d="M 296.70204 136.166524 
L 110.69101 103.866256 
L 32.164024 198.240229 
" style="fill: none; stroke: #ffffff; stroke-width: 1.5"/>
    <path d="M 296.968548 129.867481 
L 110.574812 97.710637 
L 31.862589 191.67795 
" style="fill: none; stroke: #ffffff; stroke-width: 1.5"/>
    <path d="M 297.236168 123.542194 
L 110.458146 91.530221 
L 31.559819 185.086588 
" style="fill: none; stroke: #ffffff; stroke-width: 1.5"/>
    <path d="M 297.774765 110.81223 
L 110.223398 79.0944 
L 30.950235 171.815842 
" style="fill: none; stroke: #ffffff; stroke-width: 1.5"/>
    <path d="M 298.045757 104.407221 
L 110.105311 72.838691 
L 30.643403 165.136063 
" style="fill: none; stroke: #ffffff; stroke-width: 1.5"/>
    <path d="M 298.317888 97.975302 
L 109.986744 66.557577 
L 30.3352 158.426417 
" style="fill: none; stroke: #ffffff; stroke-width: 1.5"/>
    <path d="M 298.865593 85.030056 
L 109.74816 53.918518 
L 29.71464 144.916717 
" style="fill: none; stroke: #ffffff; stroke-width: 1.5"/>
    <path d="M 299.141183 78.516384 
L 109.628137 47.560257 
L 29.402265 138.116255 
" style="fill: none; stroke: #ffffff; stroke-width: 1.5"/>
    <path d="M 299.41794 71.975115 
L 109.507623 41.175965 
L 29.08848 131.285112 
" style="fill: none; stroke: #ffffff; stroke-width: 1.5"/>
   </g>
   <g id="xtick_43">
    <g id="line2d_58">
     <path d="M 168.499459 159.820541 
" clip-path="url(#p4b4651ddbe)" style="fill: none; stroke: #ffffff; stroke-width: 1.5; stroke-linecap: square"/>
    </g>
    <g id="line2d_59">
     <path d="M 292.84266 191.426268 
L 297.37403 192.258134 
" style="fill: none; stroke: #555555; stroke-width: 1.875; stroke-linecap: square"/>
    </g>
    <g id="text_16">
     <!-- $\mathdefault{0.0}$ -->
     <g style="fill: #555555" transform="translate(300.801929 198.972012)scale(0.165 -0.165)">
      <use xlink:href="#CMR17-30" transform="scale(0.996264)"/>
      <use xlink:href="#CMMI12-3a" transform="translate(45.690477 0)scale(0.996264)"/>
      <use xlink:href="#CMR17-30" transform="translate(72.787654 0)scale(0.996264)"/>
     </g>
    </g>
   </g>
   <g id="xtick_44">
    <g id="line2d_60">
     <path d="M 168.499459 159.820541 
" clip-path="url(#p4b4651ddbe)" style="fill: none; stroke: #ffffff; stroke-width: 1.5; stroke-linecap: square"/>
    </g>
    <g id="line2d_61">
     <path d="M 293.86359 167.00093 
L 298.433024 167.819815 
" style="fill: none; stroke: #555555; stroke-width: 1.875; stroke-linecap: square"/>
    </g>
    <g id="text_17">
     <!-- $\mathdefault{0.2}$ -->
     <g style="fill: #555555" transform="translate(301.968224 174.607203)scale(0.165 -0.165)">
      <use xlink:href="#CMR17-30" transform="scale(0.996264)"/>
      <use xlink:href="#CMMI12-3a" transform="translate(45.690477 0)scale(0.996264)"/>
      <use xlink:href="#CMR17-32" transform="translate(72.787654 0)scale(0.996264)"/>
     </g>
    </g>
   </g>
   <g id="xtick_45">
    <g id="line2d_62">
     <path d="M 168.499459 159.820541 
" clip-path="url(#p4b4651ddbe)" style="fill: none; stroke: #ffffff; stroke-width: 1.5; stroke-linecap: square"/>
    </g>
    <g id="line2d_63">
     <path d="M 294.901424 142.17118 
L 299.509566 142.976538 
" style="fill: none; stroke: #555555; stroke-width: 1.875; stroke-linecap: square"/>
    </g>
    <g id="text_18">
     <!-- $\mathdefault{0.4}$ -->
     <g style="fill: #555555" transform="translate(303.153756 149.840518)scale(0.165 -0.165)">
      <use xlink:href="#CMR17-30" transform="scale(0.996264)"/>
      <use xlink:href="#CMMI12-3a" transform="translate(45.690477 0)scale(0.996264)"/>
      <use xlink:href="#CMR17-34" transform="translate(72.787654 0)scale(0.996264)"/>
     </g>
    </g>
   </g>
   <g id="xtick_46">
    <g id="line2d_64">
     <path d="M 168.499459 159.820541 
" clip-path="url(#p4b4651ddbe)" style="fill: none; stroke: #ffffff; stroke-width: 1.5; stroke-linecap: square"/>
    </g>
    <g id="line2d_65">
     <path d="M 295.956585 116.926889 
L 300.604097 117.718153 
" style="fill: none; stroke: #555555; stroke-width: 1.875; stroke-linecap: square"/>
    </g>
    <g id="text_19">
     <!-- $\mathdefault{0.6}$ -->
     <g style="fill: #555555" transform="translate(304.359004 124.661931)scale(0.165 -0.165)">
      <use xlink:href="#CMR17-30" transform="scale(0.996264)"/>
      <use xlink:href="#CMMI12-3a" transform="translate(45.690477 0)scale(0.996264)"/>
      <use xlink:href="#CMR17-36" transform="translate(72.787654 0)scale(0.996264)"/>
     </g>
    </g>
   </g>
   <g id="xtick_47">
    <g id="line2d_66">
     <path d="M 168.499459 159.820541 
" clip-path="url(#p4b4651ddbe)" style="fill: none; stroke: #ffffff; stroke-width: 1.5; stroke-linecap: square"/>
    </g>
    <g id="line2d_67">
     <path d="M 297.02951 91.257589 
L 301.71707 92.034166 
" style="fill: none; stroke: #555555; stroke-width: 1.875; stroke-linecap: square"/>
    </g>
    <g id="text_20">
     <!-- $\mathdefault{0.8}$ -->
     <g style="fill: #555555" transform="translate(305.584466 99.061082)scale(0.165 -0.165)">
      <use xlink:href="#CMR17-30" transform="scale(0.996264)"/>
      <use xlink:href="#CMMI12-3a" transform="translate(45.690477 0)scale(0.996264)"/>
      <use xlink:href="#CMR17-38" transform="translate(72.787654 0)scale(0.996264)"/>
     </g>
    </g>
   </g>
   <g id="xtick_48">
    <g id="line2d_68">
     <path d="M 168.499459 159.820541 
" clip-path="url(#p4b4651ddbe)" style="fill: none; stroke: #ffffff; stroke-width: 1.5; stroke-linecap: square"/>
    </g>
    <g id="line2d_69">
     <path d="M 298.120653 65.152455 
L 302.848955 65.913731 
" style="fill: none; stroke: #555555; stroke-width: 1.875; stroke-linecap: square"/>
    </g>
    <g id="text_21">
     <!-- $\mathdefault{1.0}$ -->
     <g style="fill: #555555" transform="translate(306.830653 73.027257)scale(0.165 -0.165)">
      <use xlink:href="#CMR17-31" transform="scale(0.996264)"/>
      <use xlink:href="#CMMI12-3a" transform="translate(45.690477 0)scale(0.996264)"/>
      <use xlink:href="#CMR17-30" transform="translate(72.787654 0)scale(0.996264)"/>
     </g>
    </g>
   </g>
   <g id="xtick_49">
    <g id="line2d_70">
     <path d="M 293.09633 185.357306 
L 297.637157 186.185976 
" style="fill: none; stroke: #555555; stroke-width: 1.5; stroke-linecap: square"/>
    </g>
   </g>
   <g id="xtick_50">
    <g id="line2d_71">
     <path d="M 293.351038 179.263531 
L 297.901361 180.088973 
" style="fill: none; stroke: #555555; stroke-width: 1.5; stroke-linecap: square"/>
    </g>
   </g>
   <g id="xtick_51">
    <g id="line2d_72">
     <path d="M 293.606789 173.14479 
L 298.166648 173.966971 
" style="fill: none; stroke: #555555; stroke-width: 1.5; stroke-linecap: square"/>
    </g>
   </g>
   <g id="xtick_52">
    <g id="line2d_73">
     <path d="M 294.121447 160.831797 
L 298.700498 161.647352 
" style="fill: none; stroke: #555555; stroke-width: 1.5; stroke-linecap: square"/>
    </g>
   </g>
   <g id="xtick_53">
    <g id="line2d_74">
     <path d="M 294.380368 154.637232 
L 298.969075 155.449423 
" style="fill: none; stroke: #555555; stroke-width: 1.5; stroke-linecap: square"/>
    </g>
   </g>
   <g id="xtick_54">
    <g id="line2d_75">
     <path d="M 294.640358 148.41708 
L 299.238762 149.225872 
" style="fill: none; stroke: #555555; stroke-width: 1.5; stroke-linecap: square"/>
    </g>
   </g>
   <g id="xtick_55">
    <g id="line2d_76">
     <path d="M 295.163573 135.899374 
L 299.781495 136.701262 
" style="fill: none; stroke: #555555; stroke-width: 1.5; stroke-linecap: square"/>
    </g>
   </g>
   <g id="xtick_56">
    <g id="line2d_77">
     <path d="M 295.426812 129.601498 
L 300.054555 130.399882 
" style="fill: none; stroke: #555555; stroke-width: 1.5; stroke-linecap: square"/>
    </g>
   </g>
   <g id="xtick_57">
    <g id="line2d_78">
     <path d="M 295.691147 123.277392 
L 300.328753 124.072233 
" style="fill: none; stroke: #555555; stroke-width: 1.5; stroke-linecap: square"/>
    </g>
   </g>
   <g id="xtick_58">
    <g id="line2d_79">
     <path d="M 296.223133 110.549825 
L 300.880593 111.337474 
" style="fill: none; stroke: #555555; stroke-width: 1.5; stroke-linecap: square"/>
    </g>
   </g>
   <g id="xtick_59">
    <g id="line2d_80">
     <path d="M 296.490799 104.146033 
L 301.158249 104.930029 
" style="fill: none; stroke: #555555; stroke-width: 1.5; stroke-linecap: square"/>
    </g>
   </g>
   <g id="xtick_60">
    <g id="line2d_81">
     <path d="M 296.759589 97.715344 
L 301.437072 98.49565 
" style="fill: none; stroke: #555555; stroke-width: 1.5; stroke-linecap: square"/>
    </g>
   </g>
   <g id="xtick_61">
    <g id="line2d_82">
     <path d="M 297.30057 84.772596 
L 301.998249 85.545406 
" style="fill: none; stroke: #555555; stroke-width: 1.5; stroke-linecap: square"/>
    </g>
   </g>
   <g id="xtick_62">
    <g id="line2d_83">
     <path d="M 297.572776 78.260192 
L 302.280618 79.029197 
" style="fill: none; stroke: #555555; stroke-width: 1.5; stroke-linecap: square"/>
    </g>
   </g>
   <g id="xtick_63">
    <g id="line2d_84">
     <path d="M 297.846134 71.720203 
L 302.564184 72.485364 
" style="fill: none; stroke: #555555; stroke-width: 1.5; stroke-linecap: square"/>
    </g>
   </g>
  </g>
  <g id="axes_1">
   <g id="Line3DCollection_4"/>
   <g id="Line3DCollection_5">
    <path d="M 280.784217 73.709224 
L 290.227346 81.971941 
" clip-path="url(#p4b4651ddbe)" style="fill: none; stroke: #000000; stroke-width: 2.25"/>
   </g>
   <g id="Line3DCollection_6">
    <path d="M 267.115037 80.825386 
L 271.214285 84.487903 
L 281.606134 93.772611 
L 285.821406 97.53879 
" clip-path="url(#p4b4651ddbe)" style="fill: none; stroke: #000000; stroke-width: 2.25"/>
   </g>
   <g id="Line3DCollection_7">
    <path d="M 253.592054 87.865438 
L 266.786807 99.901866 
L 267.815946 100.84066 
L 281.383818 113.217452 
" clip-path="url(#p4b4651ddbe)" style="fill: none; stroke: #000000; stroke-width: 2.25"/>
   </g>
   <g id="Line3DCollection_8">
    <path d="M 240.212936 94.830595 
L 248.143817 102.216325 
L 254.1745 107.832472 
L 262.32786 115.425388 
L 268.52891 121.200192 
L 276.914242 129.009135 
" clip-path="url(#p4b4651ddbe)" style="fill: none; stroke: #000000; stroke-width: 2.25"/>
   </g>
   <g id="Line3DCollection_9">
    <path d="M 226.975397 101.722044 
L 229.880472 104.483652 
L 240.679403 114.749275 
L 243.665328 117.587739 
L 254.76691 128.141067 
L 257.837106 131.059641 
L 269.254244 141.912941 
L 272.41233 144.915065 
" clip-path="url(#p4b4651ddbe)" style="fill: none; stroke: #000000; stroke-width: 2.25"/>
   </g>
   <g id="Line3DCollection_10">
    <path d="M 213.877204 108.540951 
L 225.384162 119.705903 
L 227.328312 121.592269 
L 239.155223 133.067664 
L 241.153807 135.006846 
L 253.314204 146.805815 
L 255.369541 148.800063 
L 267.87773 160.936487 
" clip-path="url(#p4b4651ddbe)" style="fill: none; stroke: #000000; stroke-width: 2.25"/>
   </g>
   <g id="Line3DCollection_11">
    <path d="M 200.916167 115.288455 
L 207.472792 121.78122 
L 214.118934 128.362628 
L 220.856437 135.034509 
L 227.687199 141.79874 
L 234.613169 148.657252 
L 241.636352 155.61203 
L 248.758809 162.665115 
L 255.98266 169.818606 
L 263.310085 177.074663 
" clip-path="url(#p4b4651ddbe)" style="fill: none; stroke: #000000; stroke-width: 2.25"/>
   </g>
   <g id="Line3DCollection_12">
    <path d="M 188.090143 121.965671 
L 189.92011 123.814977 
L 201.049025 135.061505 
L 202.929082 136.961431 
L 214.364733 148.517936 
L 216.296966 150.47059 
L 228.05221 162.350066 
L 230.038823 164.357673 
L 242.127248 176.573852 
L 244.170567 178.638765 
L 256.606543 191.206167 
L 258.709032 193.330875 
" clip-path="url(#p4b4651ddbe)" style="fill: none; stroke: #000000; stroke-width: 2.25"/>
   </g>
   <g id="Line3DCollection_13">
    <path d="M 175.397033 128.573691 
L 185.361964 138.849633 
L 188.116387 141.690023 
L 198.353839 152.246993 
L 201.184107 155.165594 
L 211.705415 166.015279 
L 214.614704 169.015368 
L 225.43184 180.170113 
L 228.423505 183.255151 
L 239.549124 194.728006 
L 242.626715 197.901652 
L 254.074203 209.706422 
" clip-path="url(#p4b4651ddbe)" style="fill: none; stroke: #000000; stroke-width: 2.25"/>
   </g>
   <g id="Line3DCollection_14">
    <path d="M 162.834783 135.113587 
L 168.144332 140.700271 
L 175.31887 148.249287 
L 180.772504 153.987577 
L 188.143068 161.742852 
L 193.746734 167.639004 
L 201.32147 175.609108 
L 207.081444 181.669727 
L 214.868954 189.863711 
L 220.791869 196.095776 
L 228.801247 204.523208 
L 234.894116 210.934098 
L 243.13498 219.605098 
L 249.405224 226.202622 
" clip-path="url(#p4b4651ddbe)" style="fill: none; stroke: #000000; stroke-width: 2.25"/>
   </g>
   <g id="Line3DCollection_15">
    <path d="M 150.401379 141.586405 
L 151.26586 142.514454 
L 162.654366 154.740376 
L 163.542128 155.693416 
L 175.239411 168.250821 
L 176.151406 169.229877 
L 188.170197 182.132431 
L 189.107432 183.138582 
L 201.461171 196.400714 
L 202.424707 197.435101 
L 215.127595 211.072054 
L 216.118555 212.135881 
L 229.185605 226.163774 
L 230.205178 227.258318 
L 243.652276 241.694205 
L 244.701718 242.820815 
" clip-path="url(#p4b4651ddbe)" style="fill: none; stroke: #000000; stroke-width: 2.25"/>
   </g>
   <g id="Line3DCollection_16">
    <path d="M 138.094848 147.993173 
L 146.652305 157.36554 
L 150.120813 161.164347 
L 158.908514 170.788885 
L 162.470975 174.690591 
L 171.498341 184.577616 
L 175.158625 188.586461 
L 184.435594 198.746858 
L 188.197786 202.867316 
L 197.734856 213.312583 
L 201.603272 217.54938 
L 211.411538 228.291667 
L 215.39074 232.649802 
L 225.481936 243.701962 
L 229.576754 248.186721 
L 239.9633 259.562358 
" clip-path="url(#p4b4651ddbe)" style="fill: none; stroke: #000000; stroke-width: 2.25"/>
   </g>
   <g id="Line3DCollection_17">
    <path d="M 125.913258 154.334897 
L 130.093038 159.004938 
L 137.716189 167.522236 
L 142.007576 172.316975 
L 149.835647 181.063229 
L 154.24317 185.987726 
L 162.284538 194.972294 
L 166.812977 200.031891 
L 175.076478 209.264647 
L 179.730878 214.464979 
L 188.225846 223.956351 
L 193.011537 229.303373 
L 201.747834 239.064383 
L 206.670451 244.56439 
L 215.65851 254.606691 
L 220.724013 260.266346 
L 229.974876 270.602276 
L 235.189579 276.42863 
" clip-path="url(#p4b4651ddbe)" style="fill: none; stroke: #000000; stroke-width: 2.25"/>
   </g>
   <g id="Poly3DCollection_1">
    <path d="M 125.438517 173.815058 
L 132.665497 150.819688 
L 113.854718 160.612562 
z
" clip-path="url(#p4b4651ddbe)" style="fill: #0b0704; fill-opacity: 0.9"/>
    <path d="M 113.854718 160.612562 
L 106.313324 170.25814 
L 125.438517 173.815058 
z
" clip-path="url(#p4b4651ddbe)" style="fill-opacity: 0.9"/>
    <path d="M 125.438517 173.815058 
L 106.313324 170.25814 
L 98.625467 180.091048 
z
" clip-path="url(#p4b4651ddbe)" style="fill-opacity: 0.9"/>
    <path d="M 132.665497 150.819688 
L 125.438517 173.815058 
L 144.591848 163.998173 
z
" clip-path="url(#p4b4651ddbe)" style="fill: #160e09; fill-opacity: 0.9"/>
    <path d="M 151.776567 140.870483 
L 132.665497 150.819688 
L 144.591848 163.998173 
z
" clip-path="url(#p4b4651ddbe)" style="fill: #2e1d12; fill-opacity: 0.9"/>
    <path d="M 98.625467 180.091048 
L 117.909768 183.717504 
L 125.438517 173.815058 
z
" clip-path="url(#p4b4651ddbe)" style="fill-opacity: 0.9"/>
    <path d="M 144.591848 163.998173 
L 125.438517 173.815058 
L 117.909768 183.717504 
z
" clip-path="url(#p4b4651ddbe)" style="fill: #0b0704; fill-opacity: 0.9"/>
    <path d="M 144.591848 163.998173 
L 171.195177 130.761174 
L 151.776567 140.870483 
z
" clip-path="url(#p4b4651ddbe)" style="fill: #452c1c; fill-opacity: 0.9"/>
    <path d="M 144.591848 163.998173 
L 117.909768 183.717504 
L 137.331356 187.369777 
z
" clip-path="url(#p4b4651ddbe)" style="fill: #0b0704; fill-opacity: 0.9"/>
    <path d="M 164.055029 154.022477 
L 171.195177 130.761174 
L 144.591848 163.998173 
z
" clip-path="url(#p4b4651ddbe)" style="fill: #452c1c; fill-opacity: 0.9"/>
    <path d="M 110.232839 193.81485 
L 117.909768 183.717504 
L 98.625467 180.091048 
z
" clip-path="url(#p4b4651ddbe)" style="fill-opacity: 0.9"/>
    <path d="M 110.232839 193.81485 
L 98.625467 180.091048 
L 90.786839 190.116796 
z
" clip-path="url(#p4b4651ddbe)" style="fill-opacity: 0.9"/>
    <path d="M 137.331356 187.369777 
L 156.838965 177.5311 
L 144.591848 163.998173 
z
" clip-path="url(#p4b4651ddbe)" style="fill: #160e09; fill-opacity: 0.9"/>
    <path d="M 144.591848 163.998173 
L 156.838965 177.5311 
L 164.055029 154.022477 
z
" clip-path="url(#p4b4651ddbe)" style="fill: #2e1d12; fill-opacity: 0.9"/>
    <path d="M 137.331356 187.369777 
L 117.909768 183.717504 
L 129.818645 197.539491 
z
" clip-path="url(#p4b4651ddbe)" style="fill-opacity: 0.9"/>
    <path d="M 183.835639 143.884086 
L 171.195177 130.761174 
L 164.055029 154.022477 
z
" clip-path="url(#p4b4651ddbe)" style="fill: #5d3b25; fill-opacity: 0.9"/>
    <path d="M 117.909768 183.717504 
L 110.232839 193.81485 
L 129.818645 197.539491 
z
" clip-path="url(#p4b4651ddbe)" style="fill-opacity: 0.9"/>
    <path d="M 190.928811 120.487863 
L 171.195177 130.761174 
L 183.835639 143.884086 
z
" clip-path="url(#p4b4651ddbe)" style="fill: #74492f; fill-opacity: 0.9"/>
    <path d="M 90.786839 190.116796 
L 82.792959 200.341112 
L 110.232839 193.81485 
z
" clip-path="url(#p4b4651ddbe)" style="fill-opacity: 0.9"/>
    <path d="M 149.545768 201.291007 
L 156.838965 177.5311 
L 137.331356 187.369777 
z
" clip-path="url(#p4b4651ddbe)" style="fill: #0b0704; fill-opacity: 0.9"/>
    <path d="M 164.055029 154.022477 
L 156.838965 177.5311 
L 183.835639 143.884086 
z
" clip-path="url(#p4b4651ddbe)" style="fill: #452c1c; fill-opacity: 0.9"/>
    <path d="M 137.331356 187.369777 
L 129.818645 197.539491 
L 149.545768 201.291007 
z
" clip-path="url(#p4b4651ddbe)" style="fill-opacity: 0.9"/>
    <path d="M 110.232839 193.81485 
L 82.792959 200.341112 
L 102.403312 204.112906 
z
" clip-path="url(#p4b4651ddbe)" style="fill-opacity: 0.9"/>
    <path d="M 156.838965 177.5311 
L 176.666434 167.531101 
L 183.835639 143.884086 
z
" clip-path="url(#p4b4651ddbe)" style="fill: #452c1c; fill-opacity: 0.9"/>
    <path d="M 190.928811 120.487863 
L 183.835639 143.884086 
L 203.941509 133.578985 
z
" clip-path="url(#p4b4651ddbe)" style="fill: #805134; fill-opacity: 0.9"/>
    <path d="M 122.156058 207.912088 
L 129.818645 197.539491 
L 110.232839 193.81485 
z
" clip-path="url(#p4b4651ddbe)" style="fill-opacity: 0.9"/>
    <path d="M 149.545768 201.291007 
L 176.666434 167.531101 
L 156.838965 177.5311 
z
" clip-path="url(#p4b4651ddbe)" style="fill: #23160e; fill-opacity: 0.9"/>
    <path d="M 203.941509 133.578985 
L 210.985197 110.046528 
L 190.928811 120.487863 
z
" clip-path="url(#p4b4651ddbe)" style="fill: #98603d; fill-opacity: 0.9"/>
    <path d="M 122.156058 207.912088 
L 110.232839 193.81485 
L 102.403312 204.112906 
z
" clip-path="url(#p4b4651ddbe)" style="fill-opacity: 0.9"/>
    <path d="M 122.156058 207.912088 
L 149.545768 201.291007 
L 129.818645 197.539491 
z
" clip-path="url(#p4b4651ddbe)" style="fill-opacity: 0.9"/>
    <path d="M 203.941509 133.578985 
L 183.835639 143.884086 
L 176.666434 167.531101 
z
" clip-path="url(#p4b4651ddbe)" style="fill: #69422a; fill-opacity: 0.9"/>
    <path d="M 169.419965 191.432964 
L 176.666434 167.531101 
L 149.545768 201.291007 
z
" clip-path="url(#p4b4651ddbe)" style="fill: #23160e; fill-opacity: 0.9"/>
    <path d="M 102.403312 204.112906 
L 82.792959 200.341112 
L 94.41659 214.617718 
z
" clip-path="url(#p4b4651ddbe)" style="fill-opacity: 0.9"/>
    <path d="M 203.941509 133.578985 
L 231.372318 99.433012 
L 210.985197 110.046528 
z
" clip-path="url(#p4b4651ddbe)" style="fill: #af6f47; fill-opacity: 0.9"/>
    <path d="M 142.052753 211.738956 
L 149.545768 201.291007 
L 122.156058 207.912088 
z
" clip-path="url(#p4b4651ddbe)" style="fill-opacity: 0.9"/>
    <path d="M 203.941509 133.578985 
L 176.666434 167.531101 
L 196.821694 157.36578 
z
" clip-path="url(#p4b4651ddbe)" style="fill: #69422a; fill-opacity: 0.9"/>
    <path d="M 94.41659 214.617718 
L 82.792959 200.341112 
L 74.63917 210.769956 
z
" clip-path="url(#p4b4651ddbe)" style="fill-opacity: 0.9"/>
    <path d="M 102.403312 204.112906 
L 94.41659 214.617718 
L 122.156058 207.912088 
z
" clip-path="url(#p4b4651ddbe)" style="fill-opacity: 0.9"/>
    <path d="M 149.545768 201.291007 
L 162.094976 215.593815 
L 169.419965 191.432964 
z
" clip-path="url(#p4b4651ddbe)" style="fill: #0b0704; fill-opacity: 0.9"/>
    <path d="M 149.545768 201.291007 
L 142.052753 211.738956 
L 162.094976 215.593815 
z
" clip-path="url(#p4b4651ddbe)" style="fill-opacity: 0.9"/>
    <path d="M 189.62451 181.41106 
L 176.666434 167.531101 
L 169.419965 191.432964 
z
" clip-path="url(#p4b4651ddbe)" style="fill: #3a2517; fill-opacity: 0.9"/>
    <path d="M 224.380728 123.103029 
L 231.372318 99.433012 
L 203.941509 133.578985 
z
" clip-path="url(#p4b4651ddbe)" style="fill: #af6f47; fill-opacity: 0.9"/>
    <path d="M 196.821694 157.36578 
L 176.666434 167.531101 
L 189.62451 181.41106 
z
" clip-path="url(#p4b4651ddbe)" style="fill: #523421; fill-opacity: 0.9"/>
    <path d="M 94.41659 214.617718 
L 114.339064 218.4937 
L 122.156058 207.912088 
z
" clip-path="url(#p4b4651ddbe)" style="fill-opacity: 0.9"/>
    <path d="M 196.821694 157.36578 
L 217.312943 147.031004 
L 203.941509 133.578985 
z
" clip-path="url(#p4b4651ddbe)" style="fill: #805134; fill-opacity: 0.9"/>
    <path d="M 134.408191 222.398214 
L 142.052753 211.738956 
L 122.156058 207.912088 
z
" clip-path="url(#p4b4651ddbe)" style="fill-opacity: 0.9"/>
    <path d="M 162.094976 215.593815 
L 189.62451 181.41106 
L 169.419965 191.432964 
z
" clip-path="url(#p4b4651ddbe)" style="fill: #23160e; fill-opacity: 0.9"/>
    <path d="M 203.941509 133.578985 
L 217.312943 147.031004 
L 224.380728 123.103029 
z
" clip-path="url(#p4b4651ddbe)" style="fill: #98603d; fill-opacity: 0.9"/>
    <path d="M 74.63917 210.769956 
L 66.320624 221.409526 
L 94.41659 214.617718 
z
" clip-path="url(#p4b4651ddbe)" style="fill-opacity: 0.9"/>
    <path d="M 122.156058 207.912088 
L 114.339064 218.4937 
L 134.408191 222.398214 
z
" clip-path="url(#p4b4651ddbe)" style="fill-opacity: 0.9"/>
    <path d="M 224.380728 123.103029 
L 245.161654 112.451934 
L 231.372318 99.433012 
z
" clip-path="url(#p4b4651ddbe)" style="fill: #c77e50; fill-opacity: 0.9"/>
    <path d="M 189.62451 181.41106 
L 217.312943 147.031004 
L 196.821694 157.36578 
z
" clip-path="url(#p4b4651ddbe)" style="fill: #69422a; fill-opacity: 0.9"/>
    <path d="M 154.625599 226.331577 
L 162.094976 215.593815 
L 142.052753 211.738956 
z
" clip-path="url(#p4b4651ddbe)" style="fill-opacity: 0.9"/>
    <path d="M 231.372318 99.433012 
L 245.161654 112.451934 
L 252.098423 88.643021 
z
" clip-path="url(#p4b4651ddbe)" style="fill: #de8d5a; fill-opacity: 0.9"/>
    <path d="M 114.339064 218.4937 
L 94.41659 214.617718 
L 86.267893 225.335574 
z
" clip-path="url(#p4b4651ddbe)" style="fill-opacity: 0.9"/>
    <path d="M 182.348689 205.719059 
L 189.62451 181.41106 
L 162.094976 215.593815 
z
" clip-path="url(#p4b4651ddbe)" style="fill: #23160e; fill-opacity: 0.9"/>
    <path d="M 142.052753 211.738956 
L 134.408191 222.398214 
L 154.625599 226.331577 
z
" clip-path="url(#p4b4651ddbe)" style="fill-opacity: 0.9"/>
    <path d="M 94.41659 214.617718 
L 66.320624 221.409526 
L 86.267893 225.335574 
z
" clip-path="url(#p4b4651ddbe)" style="fill-opacity: 0.9"/>
    <path d="M 210.16771 171.221176 
L 217.312943 147.031004 
L 189.62451 181.41106 
z
" clip-path="url(#p4b4651ddbe)" style="fill: #69422a; fill-opacity: 0.9"/>
    <path d="M 224.380728 123.103029 
L 217.312943 147.031004 
L 238.148651 136.522499 
z
" clip-path="url(#p4b4651ddbe)" style="fill: #a36742; fill-opacity: 0.9"/>
    <path d="M 162.094976 215.593815 
L 174.992935 230.294109 
L 182.348689 205.719059 
z
" clip-path="url(#p4b4651ddbe)" style="fill: #0b0704; fill-opacity: 0.9"/>
    <path d="M 238.148651 136.522499 
L 245.161654 112.451934 
L 224.380728 123.103029 
z
" clip-path="url(#p4b4651ddbe)" style="fill: #bb764b; fill-opacity: 0.9"/>
    <path d="M 245.161654 112.451934 
L 273.172039 77.672117 
L 252.098423 88.643021 
z
" clip-path="url(#p4b4651ddbe)" style="fill: #f69b63; fill-opacity: 0.9"/>
    <path d="M 154.625599 226.331577 
L 174.992935 230.294109 
L 162.094976 215.593815 
z
" clip-path="url(#p4b4651ddbe)" style="fill-opacity: 0.9"/>
    <path d="M 114.339064 218.4937 
L 86.267893 225.335574 
L 106.362949 229.290709 
z
" clip-path="url(#p4b4651ddbe)" style="fill-opacity: 0.9"/>
    <path d="M 126.60744 233.275257 
L 134.408191 222.398214 
L 114.339064 218.4937 
z
" clip-path="url(#p4b4651ddbe)" style="fill-opacity: 0.9"/>
    <path d="M 182.348689 205.719059 
L 202.943751 195.677878 
L 189.62451 181.41106 
z
" clip-path="url(#p4b4651ddbe)" style="fill: #3a2517; fill-opacity: 0.9"/>
    <path d="M 189.62451 181.41106 
L 202.943751 195.677878 
L 210.16771 171.221176 
z
" clip-path="url(#p4b4651ddbe)" style="fill: #523421; fill-opacity: 0.9"/>
    <path d="M 238.148651 136.522499 
L 217.312943 147.031004 
L 210.16771 171.221176 
z
" clip-path="url(#p4b4651ddbe)" style="fill: #8c5838; fill-opacity: 0.9"/>
    <path d="M 106.362949 229.290709 
L 126.60744 233.275257 
L 114.339064 218.4937 
z
" clip-path="url(#p4b4651ddbe)" style="fill-opacity: 0.9"/>
    <path d="M 86.267893 225.335574 
L 66.320624 221.409526 
L 77.952241 236.273022 
z
" clip-path="url(#p4b4651ddbe)" style="fill-opacity: 0.9"/>
    <path d="M 154.625599 226.331577 
L 134.408191 222.398214 
L 147.003041 237.289546 
z
" clip-path="url(#p4b4651ddbe)" style="fill-opacity: 0.9"/>
    <path d="M 266.292929 101.62127 
L 273.172039 77.672117 
L 245.161654 112.451934 
z
" clip-path="url(#p4b4651ddbe)" style="fill: #f69b63; fill-opacity: 0.9"/>
    <path d="M 182.348689 205.719059 
L 174.992935 230.294109 
L 202.943751 195.677878 
z
" clip-path="url(#p4b4651ddbe)" style="fill: #23160e; fill-opacity: 0.9"/>
    <path d="M 266.292929 101.62127 
L 245.161654 112.451934 
L 238.148651 136.522499 
z
" clip-path="url(#p4b4651ddbe)" style="fill: #d28555; fill-opacity: 0.9"/>
    <path d="M 77.952241 236.273022 
L 66.320624 221.409526 
L 57.832278 232.266275 
z
" clip-path="url(#p4b4651ddbe)" style="fill-opacity: 0.9"/>
    <path d="M 106.362949 229.290709 
L 86.267893 225.335574 
L 77.952241 236.273022 
z
" clip-path="url(#p4b4651ddbe)" style="fill-opacity: 0.9"/>
    <path d="M 147.003041 237.289546 
L 134.408191 222.398214 
L 126.60744 233.275257 
z
" clip-path="url(#p4b4651ddbe)" style="fill-opacity: 0.9"/>
    <path d="M 147.003041 237.289546 
L 174.992935 230.294109 
L 154.625599 226.331577 
z
" clip-path="url(#p4b4651ddbe)" style="fill-opacity: 0.9"/>
    <path d="M 210.16771 171.221176 
L 231.058152 160.859052 
L 238.148651 136.522499 
z
" clip-path="url(#p4b4651ddbe)" style="fill: #8c5838; fill-opacity: 0.9"/>
    <path d="M 210.16771 171.221176 
L 202.943751 195.677878 
L 231.058152 160.859052 
z
" clip-path="url(#p4b4651ddbe)" style="fill: #69422a; fill-opacity: 0.9"/>
    <path d="M 126.60744 233.275257 
L 106.362949 229.290709 
L 98.222804 240.30976 
z
" clip-path="url(#p4b4651ddbe)" style="fill-opacity: 0.9"/>
    <path d="M 202.943751 195.677878 
L 174.992935 230.294109 
L 195.639756 220.40554 
z
" clip-path="url(#p4b4651ddbe)" style="fill: #23160e; fill-opacity: 0.9"/>
    <path d="M 238.148651 136.522499 
L 259.337579 125.835847 
L 266.292929 101.62127 
z
" clip-path="url(#p4b4651ddbe)" style="fill: #d28555; fill-opacity: 0.9"/>
    <path d="M 287.783488 90.606458 
L 273.172039 77.672117 
L 266.292929 101.62127 
z
" clip-path="url(#p4b4651ddbe)" style="fill: #ffaa6c; fill-opacity: 0.9"/>
    <path d="M 98.222804 240.30976 
L 106.362949 229.290709 
L 77.952241 236.273022 
z
" clip-path="url(#p4b4651ddbe)" style="fill-opacity: 0.9"/>
    <path d="M 294.601978 66.515711 
L 273.172039 77.672117 
L 287.783488 90.606458 
z
" clip-path="url(#p4b4651ddbe)" style="fill: #ffb976; fill-opacity: 0.9"/>
    <path d="M 167.551449 241.333911 
L 174.992935 230.294109 
L 147.003041 237.289546 
z
" clip-path="url(#p4b4651ddbe)" style="fill-opacity: 0.9"/>
    <path d="M 57.832278 232.266275 
L 49.168878 243.34692 
L 77.952241 236.273022 
z
" clip-path="url(#p4b4651ddbe)" style="fill-opacity: 0.9"/>
    <path d="M 231.058152 160.859052 
L 202.943751 195.677878 
L 223.888865 185.466027 
z
" clip-path="url(#p4b4651ddbe)" style="fill: #69422a; fill-opacity: 0.9"/>
    <path d="M 231.058152 160.859052 
L 252.304715 150.320284 
L 238.148651 136.522499 
z
" clip-path="url(#p4b4651ddbe)" style="fill: #a36742; fill-opacity: 0.9"/>
    <path d="M 147.003041 237.289546 
L 126.60744 233.275257 
L 118.645663 244.376827 
z
" clip-path="url(#p4b4651ddbe)" style="fill-opacity: 0.9"/>
    <path d="M 174.992935 230.294109 
L 188.254389 245.40869 
L 195.639756 220.40554 
z
" clip-path="url(#p4b4651ddbe)" style="fill: #0b0704; fill-opacity: 0.9"/>
    <path d="M 238.148651 136.522499 
L 252.304715 150.320284 
L 259.337579 125.835847 
z
" clip-path="url(#p4b4651ddbe)" style="fill: #bb764b; fill-opacity: 0.9"/>
    <path d="M 259.337579 125.835847 
L 287.783488 90.606458 
L 266.292929 101.62127 
z
" clip-path="url(#p4b4651ddbe)" style="fill: #f69b63; fill-opacity: 0.9"/>
    <path d="M 167.551449 241.333911 
L 188.254389 245.40869 
L 174.992935 230.294109 
z
" clip-path="url(#p4b4651ddbe)" style="fill-opacity: 0.9"/>
    <path d="M 98.222804 240.30976 
L 118.645663 244.376827 
L 126.60744 233.275257 
z
" clip-path="url(#p4b4651ddbe)" style="fill-opacity: 0.9"/>
    <path d="M 195.639756 220.40554 
L 216.63947 210.347958 
L 202.943751 195.677878 
z
" clip-path="url(#p4b4651ddbe)" style="fill: #3a2517; fill-opacity: 0.9"/>
    <path d="M 202.943751 195.677878 
L 216.63947 210.347958 
L 223.888865 185.466027 
z
" clip-path="url(#p4b4651ddbe)" style="fill: #523421; fill-opacity: 0.9"/>
    <path d="M 252.304715 150.320284 
L 231.058152 160.859052 
L 223.888865 185.466027 
z
" clip-path="url(#p4b4651ddbe)" style="fill: #8c5838; fill-opacity: 0.9"/>
    <path d="M 77.952241 236.273022 
L 49.168878 243.34692 
L 69.464451 247.436881 
z
" clip-path="url(#p4b4651ddbe)" style="fill-opacity: 0.9"/>
    <path d="M 98.222804 240.30976 
L 77.952241 236.273022 
L 89.913516 251.557773 
z
" clip-path="url(#p4b4651ddbe)" style="fill-opacity: 0.9"/>
    <path d="M 147.003041 237.289546 
L 118.645663 244.376827 
L 139.222543 248.474566 
z
" clip-path="url(#p4b4651ddbe)" style="fill-opacity: 0.9"/>
    <path d="M 147.003041 237.289546 
L 159.955191 252.603325 
L 167.551449 241.333911 
z
" clip-path="url(#p4b4651ddbe)" style="fill-opacity: 0.9"/>
    <path d="M 259.337579 125.835847 
L 280.888785 114.96648 
L 287.783488 90.606458 
z
" clip-path="url(#p4b4651ddbe)" style="fill: #f69b63; fill-opacity: 0.9"/>
    <path d="M 188.254389 245.40869 
L 216.63947 210.347958 
L 195.639756 220.40554 
z
" clip-path="url(#p4b4651ddbe)" style="fill: #23160e; fill-opacity: 0.9"/>
    <path d="M 280.888785 114.96648 
L 259.337579 125.835847 
L 252.304715 150.320284 
z
" clip-path="url(#p4b4651ddbe)" style="fill: #d28555; fill-opacity: 0.9"/>
    <path d="M 89.913516 251.557773 
L 77.952241 236.273022 
L 69.464451 247.436881 
z
" clip-path="url(#p4b4651ddbe)" style="fill-opacity: 0.9"/>
    <path d="M 89.913516 251.557773 
L 118.645663 244.376827 
L 98.222804 240.30976 
z
" clip-path="url(#p4b4651ddbe)" style="fill-opacity: 0.9"/>
    <path d="M 139.222543 248.474566 
L 159.955191 252.603325 
L 147.003041 237.289546 
z
" clip-path="url(#p4b4651ddbe)" style="fill-opacity: 0.9"/>
    <path d="M 167.551449 241.333911 
L 159.955191 252.603325 
L 188.254389 245.40869 
z
" clip-path="url(#p4b4651ddbe)" style="fill-opacity: 0.9"/>
    <path d="M 223.888865 185.466027 
L 245.193033 175.079119 
L 252.304715 150.320284 
z
" clip-path="url(#p4b4651ddbe)" style="fill: #8c5838; fill-opacity: 0.9"/>
    <path d="M 223.888865 185.466027 
L 216.63947 210.347958 
L 245.193033 175.079119 
z
" clip-path="url(#p4b4651ddbe)" style="fill: #69422a; fill-opacity: 0.9"/>
    <path d="M 209.308616 235.509477 
L 216.63947 210.347958 
L 188.254389 245.40869 
z
" clip-path="url(#p4b4651ddbe)" style="fill: #23160e; fill-opacity: 0.9"/>
    <path d="M 49.168878 243.34692 
L 60.799122 258.834254 
L 69.464451 247.436881 
z
" clip-path="url(#p4b4651ddbe)" style="fill-opacity: 0.9"/>
    <path d="M 273.916582 139.600317 
L 280.888785 114.96648 
L 252.304715 150.320284 
z
" clip-path="url(#p4b4651ddbe)" style="fill: #d28555; fill-opacity: 0.9"/>
    <path d="M 89.913516 251.557773 
L 110.517822 255.70995 
L 118.645663 244.376827 
z
" clip-path="url(#p4b4651ddbe)" style="fill-opacity: 0.9"/>
    <path d="M 139.222543 248.474566 
L 118.645663 244.376827 
L 131.279143 259.893769 
z
" clip-path="url(#p4b4651ddbe)" style="fill-opacity: 0.9"/>
    <path d="M 188.254389 245.40869 
L 159.955191 252.603325 
L 180.845383 256.763458 
z
" clip-path="url(#p4b4651ddbe)" style="fill-opacity: 0.9"/>
    <path d="M 40.324953 254.65846 
L 60.799122 258.834254 
L 49.168878 243.34692 
z
" clip-path="url(#p4b4651ddbe)" style="fill-opacity: 0.9"/>
    <path d="M 69.464451 247.436881 
L 60.799122 258.834254 
L 89.913516 251.557773 
z
" clip-path="url(#p4b4651ddbe)" style="fill-opacity: 0.9"/>
    <path d="M 245.193033 175.079119 
L 216.63947 210.347958 
L 238.001202 200.116991 
z
" clip-path="url(#p4b4651ddbe)" style="fill: #69422a; fill-opacity: 0.9"/>
    <path d="M 252.304715 150.320284 
L 245.193033 175.079119 
L 266.865567 164.512614 
z
" clip-path="url(#p4b4651ddbe)" style="fill: #a36742; fill-opacity: 0.9"/>
    <path d="M 118.645663 244.376827 
L 110.517822 255.70995 
L 131.279143 259.893769 
z
" clip-path="url(#p4b4651ddbe)" style="fill-opacity: 0.9"/>
    <path d="M 131.279143 259.893769 
L 159.955191 252.603325 
L 139.222543 248.474566 
z
" clip-path="url(#p4b4651ddbe)" style="fill-opacity: 0.9"/>
    <path d="M 188.254389 245.40869 
L 201.894922 260.955324 
L 209.308616 235.509477 
z
" clip-path="url(#p4b4651ddbe)" style="fill: #0b0704; fill-opacity: 0.9"/>
    <path d="M 252.304715 150.320284 
L 266.865567 164.512614 
L 273.916582 139.600317 
z
" clip-path="url(#p4b4651ddbe)" style="fill: #bb764b; fill-opacity: 0.9"/>
    <path d="M 180.845383 256.763458 
L 201.894922 260.955324 
L 188.254389 245.40869 
z
" clip-path="url(#p4b4651ddbe)" style="fill-opacity: 0.9"/>
    <path d="M 209.308616 235.509477 
L 230.727858 225.438642 
L 216.63947 210.347958 
z
" clip-path="url(#p4b4651ddbe)" style="fill: #3a2517; fill-opacity: 0.9"/>
    <path d="M 216.63947 210.347958 
L 230.727858 225.438642 
L 238.001202 200.116991 
z
" clip-path="url(#p4b4651ddbe)" style="fill: #523421; fill-opacity: 0.9"/>
    <path d="M 89.913516 251.557773 
L 60.799122 258.834254 
L 81.42976 263.04196 
z
" clip-path="url(#p4b4651ddbe)" style="fill-opacity: 0.9"/>
    <path d="M 102.218667 267.281947 
L 110.517822 255.70995 
L 89.913516 251.557773 
z
" clip-path="url(#p4b4651ddbe)" style="fill-opacity: 0.9"/>
    <path d="M 152.19928 264.109592 
L 159.955191 252.603325 
L 131.279143 259.893769 
z
" clip-path="url(#p4b4651ddbe)" style="fill-opacity: 0.9"/>
    <path d="M 238.001202 200.116991 
L 259.734394 189.708117 
L 245.193033 175.079119 
z
" clip-path="url(#p4b4651ddbe)" style="fill: #805134; fill-opacity: 0.9"/>
    <path d="M 159.955191 252.603325 
L 173.280063 268.357788 
L 180.845383 256.763458 
z
" clip-path="url(#p4b4651ddbe)" style="fill-opacity: 0.9"/>
    <path d="M 259.734394 189.708117 
L 266.865567 164.512614 
L 245.193033 175.079119 
z
" clip-path="url(#p4b4651ddbe)" style="fill: #98603d; fill-opacity: 0.9"/>
    <path d="M 81.42976 263.04196 
L 102.218667 267.281947 
L 89.913516 251.557773 
z
" clip-path="url(#p4b4651ddbe)" style="fill-opacity: 0.9"/>
    <path d="M 131.279143 259.893769 
L 110.517822 255.70995 
L 102.218667 267.281947 
z
" clip-path="url(#p4b4651ddbe)" style="fill-opacity: 0.9"/>
    <path d="M 152.19928 264.109592 
L 173.280063 268.357788 
L 159.955191 252.603325 
z
" clip-path="url(#p4b4651ddbe)" style="fill-opacity: 0.9"/>
    <path d="M 209.308616 235.509477 
L 201.894922 260.955324 
L 223.371608 251.048925 
z
" clip-path="url(#p4b4651ddbe)" style="fill: #160e09; fill-opacity: 0.9"/>
    <path d="M 223.371608 251.048925 
L 230.727858 225.438642 
L 209.308616 235.509477 
z
" clip-path="url(#p4b4651ddbe)" style="fill: #2e1d12; fill-opacity: 0.9"/>
    <path d="M 230.727858 225.438642 
L 259.734394 189.708117 
L 238.001202 200.116991 
z
" clip-path="url(#p4b4651ddbe)" style="fill: #69422a; fill-opacity: 0.9"/>
    <path d="M 194.52335 272.638732 
L 201.894922 260.955324 
L 180.845383 256.763458 
z
" clip-path="url(#p4b4651ddbe)" style="fill-opacity: 0.9"/>
    <path d="M 180.845383 256.763458 
L 173.280063 268.357788 
L 194.52335 272.638732 
z
" clip-path="url(#p4b4651ddbe)" style="fill-opacity: 0.9"/>
    <path d="M 131.279143 259.893769 
L 102.218667 267.281947 
L 123.167672 271.554586 
z
" clip-path="url(#p4b4651ddbe)" style="fill-opacity: 0.9"/>
    <path d="M 131.279143 259.893769 
L 144.278631 275.860256 
L 152.19928 264.109592 
z
" clip-path="url(#p4b4651ddbe)" style="fill-opacity: 0.9"/>
    <path d="M 201.894922 260.955324 
L 194.52335 272.638732 
L 223.371608 251.048925 
z
" clip-path="url(#p4b4651ddbe)" style="fill: #0b0704; fill-opacity: 0.9"/>
    <path d="M 230.727858 225.438642 
L 252.521689 215.191683 
L 259.734394 189.708117 
z
" clip-path="url(#p4b4651ddbe)" style="fill: #69422a; fill-opacity: 0.9"/>
    <path d="M 123.167672 271.554586 
L 144.278631 275.860256 
L 131.279143 259.893769 
z
" clip-path="url(#p4b4651ddbe)" style="fill-opacity: 0.9"/>
    <path d="M 252.521689 215.191683 
L 230.727858 225.438642 
L 223.371608 251.048925 
z
" clip-path="url(#p4b4651ddbe)" style="fill: #452c1c; fill-opacity: 0.9"/>
    <path d="M 165.553429 280.199342 
L 173.280063 268.357788 
L 152.19928 264.109592 
z
" clip-path="url(#p4b4651ddbe)" style="fill-opacity: 0.9"/>
    <path d="M 223.371608 251.048925 
L 194.52335 272.638732 
L 215.931026 276.952804 
z
" clip-path="url(#p4b4651ddbe)" style="fill: #0b0704; fill-opacity: 0.9"/>
    <path d="M 152.19928 264.109592 
L 144.278631 275.860256 
L 165.553429 280.199342 
z
" clip-path="url(#p4b4651ddbe)" style="fill-opacity: 0.9"/>
    <path d="M 173.280063 268.357788 
L 165.553429 280.199342 
L 194.52335 272.638732 
z
" clip-path="url(#p4b4651ddbe)" style="fill-opacity: 0.9"/>
    <path d="M 245.226047 240.968282 
L 252.521689 215.191683 
L 223.371608 251.048925 
z
" clip-path="url(#p4b4651ddbe)" style="fill: #452c1c; fill-opacity: 0.9"/>
    <path d="M 215.931026 276.952804 
L 237.846028 267.042997 
L 223.371608 251.048925 
z
" clip-path="url(#p4b4651ddbe)" style="fill: #160e09; fill-opacity: 0.9"/>
    <path d="M 194.52335 272.638732 
L 165.553429 280.199342 
L 186.993982 284.572234 
z
" clip-path="url(#p4b4651ddbe)" style="fill-opacity: 0.9"/>
    <path d="M 223.371608 251.048925 
L 237.846028 267.042997 
L 245.226047 240.968282 
z
" clip-path="url(#p4b4651ddbe)" style="fill: #2e1d12; fill-opacity: 0.9"/>
    <path d="M 194.52335 272.638732 
L 208.602234 288.979329 
L 215.931026 276.952804 
z
" clip-path="url(#p4b4651ddbe)" style="fill-opacity: 0.9"/>
    <path d="M 186.993982 284.572234 
L 208.602234 288.979329 
L 194.52335 272.638732 
z
" clip-path="url(#p4b4651ddbe)" style="fill-opacity: 0.9"/>
    <path d="M 208.602234 288.979329 
L 237.846028 267.042997 
L 215.931026 276.952804 
z
" clip-path="url(#p4b4651ddbe)" style="fill: #0b0704; fill-opacity: 0.9"/>
    <path d="M 230.38016 293.42103 
L 237.846028 267.042997 
L 208.602234 288.979329 
z
" clip-path="url(#p4b4651ddbe)" style="fill: #0b0704; fill-opacity: 0.9"/>
   </g>
   <g id="Line3DCollection_18">
    <path d="M 113.854718 160.612562 
L 125.438517 173.815058 
L 137.331356 187.369777 
L 149.545768 201.291007 
L 162.094976 215.593815 
L 174.992935 230.294109 
L 188.254389 245.40869 
L 201.894922 260.955324 
L 215.931026 276.952804 
L 230.38016 293.42103 
" clip-path="url(#p4b4651ddbe)" style="fill: none; stroke: #000000; stroke-width: 2.25"/>
   </g>
  </g>
 </g>
 <defs>
  <clipPath id="p4b4651ddbe">
   <rect x="3.6" y="3.6" width="321.12" height="321.12"/>
  </clipPath>
 </defs>
</svg>
