<?xml version="1.0" encoding="utf-8" standalone="no"?>
<!DOCTYPE svg PUBLIC "-//W3C//DTD SVG 1.1//EN"
  "http://www.w3.org/Graphics/SVG/1.1/DTD/svg11.dtd">
<svg xmlns:xlink="http://www.w3.org/1999/xlink" width="332.274647pt" height="331.760948pt" viewBox="0 0 332.274647 331.760948" xmlns="http://www.w3.org/2000/svg" version="1.1">
 <metadata>
  <rdf:RDF xmlns:dc="http://purl.org/dc/elements/1.1/" xmlns:cc="http://creativecommons.org/ns#" xmlns:rdf="http://www.w3.org/1999/02/22-rdf-syntax-ns#">
   <cc:Work>
    <dc:type rdf:resource="http://purl.org/dc/dcmitype/StillImage"/>
    <dc:date>2022-08-18T01:45:20.452640</dc:date>
    <dc:format>image/svg+xml</dc:format>
    <dc:creator>
     <cc:Agent>
      <dc:title>Matplotlib v3.5.1, https://matplotlib.org/</dc:title>
     </cc:Agent>
    </dc:creator>
   </cc:Work>
  </rdf:RDF>
 </metadata>
 <defs>
  <style type="text/css">*{stroke-linejoin: round; stroke-linecap: butt}</style>
 </defs>
 <g id="figure_1">
  <g id="patch_1">
   <path d="M 0 331.760948 
L 332.274647 331.760948 
L 332.274647 0 
L 0 0 
z
" style="fill: #ffffff"/>
  </g>
  <g id="axes_1">
   <g id="patch_2">
    <path d="M 56.874647 281.107752 
L 328.674647 281.107752 
L 328.674647 9.307752 
L 56.874647 9.307752 
z
" style="fill: #e5e5e5"/>
   </g>
   <g id="matplotlib.axis_1">
    <g id="xtick_1">
     <g id="line2d_1">
      <path d="M 102.174647 281.107752 
L 102.174647 9.307752 
" clip-path="url(#p08d408c461)" style="fill: none; stroke: #ffffff; stroke-width: 1.5; stroke-linecap: square"/>
     </g>
     <g id="line2d_2">
      <defs>
       <path id="mc5be5b213f" d="M 0 0 
L 0 9 
" style="stroke: #555555; stroke-width: 1.875"/>
      </defs>
      <g>
       <use xlink:href="#mc5be5b213f" x="102.174647" y="281.107752" style="fill: #555555; stroke: #555555; stroke-width: 1.875"/>
      </g>
     </g>
     <g id="text_1">
      <!-- $\mathdefault{−2}$ -->
      <g style="fill: #555555" transform="translate(91.758006 305.023257)scale(0.165 -0.165)">
       <defs>
        <path id="CMSY10-0" d="M 4218 1472 
C 4326 1472 4442 1472 4442 1600 
C 4442 1728 4326 1728 4218 1728 
L 755 1728 
C 646 1728 531 1728 531 1600 
C 531 1472 646 1472 755 1472 
L 4218 1472 
z
" transform="scale(0.015625)"/>
        <path id="CMR17-32" d="M 2669 989 
L 2554 989 
C 2490 536 2438 459 2413 420 
C 2381 369 1920 369 1830 369 
L 602 369 
C 832 619 1280 1072 1824 1597 
C 2214 1967 2669 2402 2669 3035 
C 2669 3790 2067 4224 1395 4224 
C 691 4224 262 3604 262 3030 
C 262 2780 448 2748 525 2748 
C 589 2748 781 2787 781 3010 
C 781 3207 614 3264 525 3264 
C 486 3264 448 3258 422 3245 
C 544 3790 915 4058 1306 4058 
C 1862 4058 2227 3617 2227 3035 
C 2227 2479 1901 2000 1536 1584 
L 262 146 
L 262 0 
L 2515 0 
L 2669 989 
z
" transform="scale(0.015625)"/>
       </defs>
       <use xlink:href="#CMSY10-0" transform="scale(0.996264)"/>
       <use xlink:href="#CMR17-32" transform="translate(77.487468 0)scale(0.996264)"/>
      </g>
     </g>
    </g>
    <g id="xtick_2">
     <g id="line2d_3">
      <path d="M 192.774647 281.107752 
L 192.774647 9.307752 
" clip-path="url(#p08d408c461)" style="fill: none; stroke: #ffffff; stroke-width: 1.5; stroke-linecap: square"/>
     </g>
     <g id="line2d_4">
      <g>
       <use xlink:href="#mc5be5b213f" x="192.774647" y="281.107752" style="fill: #555555; stroke: #555555; stroke-width: 1.875"/>
      </g>
     </g>
     <g id="text_2">
      <!-- $\mathdefault{0}$ -->
      <g style="fill: #555555" transform="translate(188.75072 305.023257)scale(0.165 -0.165)">
       <defs>
        <path id="CMR17-30" d="M 2688 2025 
C 2688 2416 2682 3080 2413 3591 
C 2176 4039 1798 4198 1466 4198 
C 1158 4198 768 4058 525 3597 
C 269 3118 243 2524 243 2025 
C 243 1661 250 1106 448 619 
C 723 -39 1216 -128 1466 -128 
C 1760 -128 2208 -7 2470 600 
C 2662 1042 2688 1559 2688 2025 
z
M 1466 -26 
C 1056 -26 813 325 723 812 
C 653 1188 653 1738 653 2096 
C 653 2588 653 2997 736 3387 
C 858 3929 1216 4096 1466 4096 
C 1728 4096 2067 3923 2189 3400 
C 2272 3036 2278 2607 2278 2096 
C 2278 1680 2278 1169 2202 792 
C 2067 95 1690 -26 1466 -26 
z
" transform="scale(0.015625)"/>
       </defs>
       <use xlink:href="#CMR17-30" transform="scale(0.996264)"/>
      </g>
     </g>
    </g>
    <g id="xtick_3">
     <g id="line2d_5">
      <path d="M 283.374647 281.107752 
L 283.374647 9.307752 
" clip-path="url(#p08d408c461)" style="fill: none; stroke: #ffffff; stroke-width: 1.5; stroke-linecap: square"/>
     </g>
     <g id="line2d_6">
      <g>
       <use xlink:href="#mc5be5b213f" x="283.374647" y="281.107752" style="fill: #555555; stroke: #555555; stroke-width: 1.875"/>
      </g>
     </g>
     <g id="text_3">
      <!-- $\mathdefault{2}$ -->
      <g style="fill: #555555" transform="translate(279.35072 305.023257)scale(0.165 -0.165)">
       <use xlink:href="#CMR17-32" transform="scale(0.996264)"/>
      </g>
     </g>
    </g>
    <g id="xtick_4">
     <g id="line2d_7">
      <defs>
       <path id="mbee042fee7" d="M 0 0 
L 0 6 
" style="stroke: #555555; stroke-width: 1.5"/>
      </defs>
      <g>
       <use xlink:href="#mbee042fee7" x="79.524647" y="281.107752" style="fill: #555555; stroke: #555555; stroke-width: 1.5"/>
      </g>
     </g>
    </g>
    <g id="xtick_5">
     <g id="line2d_8">
      <g>
       <use xlink:href="#mbee042fee7" x="124.824647" y="281.107752" style="fill: #555555; stroke: #555555; stroke-width: 1.5"/>
      </g>
     </g>
    </g>
    <g id="xtick_6">
     <g id="line2d_9">
      <g>
       <use xlink:href="#mbee042fee7" x="147.474647" y="281.107752" style="fill: #555555; stroke: #555555; stroke-width: 1.5"/>
      </g>
     </g>
    </g>
    <g id="xtick_7">
     <g id="line2d_10">
      <g>
       <use xlink:href="#mbee042fee7" x="170.124647" y="281.107752" style="fill: #555555; stroke: #555555; stroke-width: 1.5"/>
      </g>
     </g>
    </g>
    <g id="xtick_8">
     <g id="line2d_11">
      <g>
       <use xlink:href="#mbee042fee7" x="215.424647" y="281.107752" style="fill: #555555; stroke: #555555; stroke-width: 1.5"/>
      </g>
     </g>
    </g>
    <g id="xtick_9">
     <g id="line2d_12">
      <g>
       <use xlink:href="#mbee042fee7" x="238.074647" y="281.107752" style="fill: #555555; stroke: #555555; stroke-width: 1.5"/>
      </g>
     </g>
    </g>
    <g id="xtick_10">
     <g id="line2d_13">
      <g>
       <use xlink:href="#mbee042fee7" x="260.724647" y="281.107752" style="fill: #555555; stroke: #555555; stroke-width: 1.5"/>
      </g>
     </g>
    </g>
    <g id="xtick_11">
     <g id="line2d_14">
      <g>
       <use xlink:href="#mbee042fee7" x="306.024647" y="281.107752" style="fill: #555555; stroke: #555555; stroke-width: 1.5"/>
      </g>
     </g>
    </g>
    <g id="xtick_12">
     <g id="line2d_15">
      <g>
       <use xlink:href="#mbee042fee7" x="328.674647" y="281.107752" style="fill: #555555; stroke: #555555; stroke-width: 1.5"/>
      </g>
     </g>
    </g>
    <g id="text_4">
     <!-- $x$ -->
     <g style="fill: #555555" transform="translate(187.785582 324.672884)scale(0.18 -0.18)">
      <defs>
       <path id="CMMI12-78" d="M 3034 2606 
C 2829 2567 2752 2414 2752 2293 
C 2752 2139 2874 2088 2963 2088 
C 3155 2088 3290 2254 3290 2427 
C 3290 2695 2982 2816 2714 2816 
C 2323 2816 2106 2433 2048 2312 
C 1901 2816 1504 2816 1389 2816 
C 736 2816 390 1980 390 1839 
C 390 1814 416 1782 461 1782 
C 512 1782 525 1820 538 1846 
C 755 2555 1184 2689 1370 2689 
C 1658 2689 1715 2420 1715 2267 
C 1715 2127 1677 1980 1600 1673 
L 1382 798 
C 1286 415 1101 64 762 64 
C 730 64 570 64 435 147 
C 666 192 717 383 717 460 
C 717 588 621 664 499 664 
C 346 664 179 530 179 326 
C 179 57 480 -64 755 -64 
C 1062 -64 1280 179 1414 441 
C 1517 64 1837 -64 2074 -64 
C 2726 -64 3072 773 3072 913 
C 3072 945 3046 971 3008 971 
C 2950 971 2944 939 2925 888 
C 2752 326 2381 64 2093 64 
C 1869 64 1747 230 1747 492 
C 1747 632 1773 734 1875 1156 
L 2099 2024 
C 2195 2408 2413 2689 2707 2689 
C 2720 2689 2899 2689 3034 2606 
z
" transform="scale(0.015625)"/>
      </defs>
      <use xlink:href="#CMMI12-78" transform="scale(0.996264)"/>
     </g>
    </g>
   </g>
   <g id="matplotlib.axis_2">
    <g id="ytick_1">
     <g id="line2d_16">
      <path d="M 56.874647 281.107752 
L 328.674647 281.107752 
" clip-path="url(#p08d408c461)" style="fill: none; stroke: #ffffff; stroke-width: 1.5; stroke-linecap: square"/>
     </g>
     <g id="line2d_17">
      <defs>
       <path id="md7c9a66d5b" d="M 0 0 
L -9 0 
" style="stroke: #555555; stroke-width: 1.875"/>
      </defs>
      <g>
       <use xlink:href="#md7c9a66d5b" x="56.874647" y="281.107752" style="fill: #555555; stroke: #555555; stroke-width: 1.875"/>
      </g>
     </g>
     <g id="text_5">
      <!-- $\mathdefault{−3}$ -->
      <g style="fill: #555555" transform="translate(23.541364 286.815505)scale(0.165 -0.165)">
       <defs>
        <path id="CMR17-33" d="M 1414 2157 
C 1984 2157 2234 1662 2234 1090 
C 2234 320 1824 25 1453 25 
C 1114 25 563 194 390 693 
C 422 680 454 680 486 680 
C 640 680 755 782 755 948 
C 755 1133 614 1216 486 1216 
C 378 1216 211 1165 211 926 
C 211 335 787 -128 1466 -128 
C 2176 -128 2720 430 2720 1085 
C 2720 1707 2208 2157 1600 2227 
C 2086 2328 2554 2756 2554 3329 
C 2554 3820 2048 4179 1472 4179 
C 890 4179 378 3829 378 3329 
C 378 3110 544 3072 627 3072 
C 762 3072 877 3155 877 3321 
C 877 3486 762 3569 627 3569 
C 602 3569 570 3569 544 3557 
C 730 3959 1235 4032 1459 4032 
C 1683 4032 2106 3925 2106 3320 
C 2106 3143 2080 2828 1862 2550 
C 1670 2304 1453 2304 1242 2284 
C 1210 2284 1062 2269 1037 2269 
C 992 2263 966 2257 966 2208 
C 966 2163 973 2157 1101 2157 
L 1414 2157 
z
" transform="scale(0.015625)"/>
       </defs>
       <use xlink:href="#CMSY10-0" transform="scale(0.996264)"/>
       <use xlink:href="#CMR17-33" transform="translate(77.487468 0)scale(0.996264)"/>
      </g>
     </g>
    </g>
    <g id="ytick_2">
     <g id="line2d_18">
      <path d="M 56.874647 235.807752 
L 328.674647 235.807752 
" clip-path="url(#p08d408c461)" style="fill: none; stroke: #ffffff; stroke-width: 1.5; stroke-linecap: square"/>
     </g>
     <g id="line2d_19">
      <g>
       <use xlink:href="#md7c9a66d5b" x="56.874647" y="235.807752" style="fill: #555555; stroke: #555555; stroke-width: 1.875"/>
      </g>
     </g>
     <g id="text_6">
      <!-- $\mathdefault{−2}$ -->
      <g style="fill: #555555" transform="translate(23.541364 241.515505)scale(0.165 -0.165)">
       <use xlink:href="#CMSY10-0" transform="scale(0.996264)"/>
       <use xlink:href="#CMR17-32" transform="translate(77.487468 0)scale(0.996264)"/>
      </g>
     </g>
    </g>
    <g id="ytick_3">
     <g id="line2d_20">
      <path d="M 56.874647 190.507752 
L 328.674647 190.507752 
" clip-path="url(#p08d408c461)" style="fill: none; stroke: #ffffff; stroke-width: 1.5; stroke-linecap: square"/>
     </g>
     <g id="line2d_21">
      <g>
       <use xlink:href="#md7c9a66d5b" x="56.874647" y="190.507752" style="fill: #555555; stroke: #555555; stroke-width: 1.875"/>
      </g>
     </g>
     <g id="text_7">
      <!-- $\mathdefault{−1}$ -->
      <g style="fill: #555555" transform="translate(23.541364 196.215505)scale(0.165 -0.165)">
       <defs>
        <path id="CMR17-31" d="M 1702 4058 
C 1702 4192 1696 4192 1606 4192 
C 1357 3916 979 3827 621 3827 
C 602 3827 570 3827 563 3808 
C 557 3795 557 3782 557 3648 
C 755 3648 1088 3686 1344 3839 
L 1344 461 
C 1344 236 1331 160 781 160 
L 589 160 
L 589 0 
C 896 0 1216 0 1523 0 
C 1830 0 2150 0 2458 0 
L 2458 160 
L 2266 160 
C 1715 160 1702 230 1702 458 
L 1702 4058 
z
" transform="scale(0.015625)"/>
       </defs>
       <use xlink:href="#CMSY10-0" transform="scale(0.996264)"/>
       <use xlink:href="#CMR17-31" transform="translate(77.487468 0)scale(0.996264)"/>
      </g>
     </g>
    </g>
    <g id="ytick_4">
     <g id="line2d_22">
      <path d="M 56.874647 145.207752 
L 328.674647 145.207752 
" clip-path="url(#p08d408c461)" style="fill: none; stroke: #ffffff; stroke-width: 1.5; stroke-linecap: square"/>
     </g>
     <g id="line2d_23">
      <g>
       <use xlink:href="#md7c9a66d5b" x="56.874647" y="145.207752" style="fill: #555555; stroke: #555555; stroke-width: 1.875"/>
      </g>
     </g>
     <g id="text_8">
      <!-- $\mathdefault{0}$ -->
      <g style="fill: #555555" transform="translate(36.326793 150.915505)scale(0.165 -0.165)">
       <use xlink:href="#CMR17-30" transform="scale(0.996264)"/>
      </g>
     </g>
    </g>
    <g id="ytick_5">
     <g id="line2d_24">
      <path d="M 56.874647 99.907752 
L 328.674647 99.907752 
" clip-path="url(#p08d408c461)" style="fill: none; stroke: #ffffff; stroke-width: 1.5; stroke-linecap: square"/>
     </g>
     <g id="line2d_25">
      <g>
       <use xlink:href="#md7c9a66d5b" x="56.874647" y="99.907752" style="fill: #555555; stroke: #555555; stroke-width: 1.875"/>
      </g>
     </g>
     <g id="text_9">
      <!-- $\mathdefault{1}$ -->
      <g style="fill: #555555" transform="translate(36.326793 105.615505)scale(0.165 -0.165)">
       <use xlink:href="#CMR17-31" transform="scale(0.996264)"/>
      </g>
     </g>
    </g>
    <g id="ytick_6">
     <g id="line2d_26">
      <path d="M 56.874647 54.607752 
L 328.674647 54.607752 
" clip-path="url(#p08d408c461)" style="fill: none; stroke: #ffffff; stroke-width: 1.5; stroke-linecap: square"/>
     </g>
     <g id="line2d_27">
      <g>
       <use xlink:href="#md7c9a66d5b" x="56.874647" y="54.607752" style="fill: #555555; stroke: #555555; stroke-width: 1.875"/>
      </g>
     </g>
     <g id="text_10">
      <!-- $\mathdefault{2}$ -->
      <g style="fill: #555555" transform="translate(36.326793 60.315505)scale(0.165 -0.165)">
       <use xlink:href="#CMR17-32" transform="scale(0.996264)"/>
      </g>
     </g>
    </g>
    <g id="ytick_7">
     <g id="line2d_28">
      <path d="M 56.874647 9.307752 
L 328.674647 9.307752 
" clip-path="url(#p08d408c461)" style="fill: none; stroke: #ffffff; stroke-width: 1.5; stroke-linecap: square"/>
     </g>
     <g id="line2d_29">
      <g>
       <use xlink:href="#md7c9a66d5b" x="56.874647" y="9.307752" style="fill: #555555; stroke: #555555; stroke-width: 1.875"/>
      </g>
     </g>
     <g id="text_11">
      <!-- $\mathdefault{3}$ -->
      <g style="fill: #555555" transform="translate(36.326793 15.015505)scale(0.165 -0.165)">
       <use xlink:href="#CMR17-33" transform="scale(0.996264)"/>
      </g>
     </g>
    </g>
    <g id="ytick_8">
     <g id="line2d_30">
      <defs>
       <path id="m048b8fbd6e" d="M 0 0 
L -6 0 
" style="stroke: #555555; stroke-width: 1.5"/>
      </defs>
      <g>
       <use xlink:href="#m048b8fbd6e" x="56.874647" y="272.047752" style="fill: #555555; stroke: #555555; stroke-width: 1.5"/>
      </g>
     </g>
    </g>
    <g id="ytick_9">
     <g id="line2d_31">
      <g>
       <use xlink:href="#m048b8fbd6e" x="56.874647" y="262.987752" style="fill: #555555; stroke: #555555; stroke-width: 1.5"/>
      </g>
     </g>
    </g>
    <g id="ytick_10">
     <g id="line2d_32">
      <g>
       <use xlink:href="#m048b8fbd6e" x="56.874647" y="253.927752" style="fill: #555555; stroke: #555555; stroke-width: 1.5"/>
      </g>
     </g>
    </g>
    <g id="ytick_11">
     <g id="line2d_33">
      <g>
       <use xlink:href="#m048b8fbd6e" x="56.874647" y="244.867752" style="fill: #555555; stroke: #555555; stroke-width: 1.5"/>
      </g>
     </g>
    </g>
    <g id="ytick_12">
     <g id="line2d_34">
      <g>
       <use xlink:href="#m048b8fbd6e" x="56.874647" y="226.747752" style="fill: #555555; stroke: #555555; stroke-width: 1.5"/>
      </g>
     </g>
    </g>
    <g id="ytick_13">
     <g id="line2d_35">
      <g>
       <use xlink:href="#m048b8fbd6e" x="56.874647" y="217.687752" style="fill: #555555; stroke: #555555; stroke-width: 1.5"/>
      </g>
     </g>
    </g>
    <g id="ytick_14">
     <g id="line2d_36">
      <g>
       <use xlink:href="#m048b8fbd6e" x="56.874647" y="208.627752" style="fill: #555555; stroke: #555555; stroke-width: 1.5"/>
      </g>
     </g>
    </g>
    <g id="ytick_15">
     <g id="line2d_37">
      <g>
       <use xlink:href="#m048b8fbd6e" x="56.874647" y="199.567752" style="fill: #555555; stroke: #555555; stroke-width: 1.5"/>
      </g>
     </g>
    </g>
    <g id="ytick_16">
     <g id="line2d_38">
      <g>
       <use xlink:href="#m048b8fbd6e" x="56.874647" y="181.447752" style="fill: #555555; stroke: #555555; stroke-width: 1.5"/>
      </g>
     </g>
    </g>
    <g id="ytick_17">
     <g id="line2d_39">
      <g>
       <use xlink:href="#m048b8fbd6e" x="56.874647" y="172.387752" style="fill: #555555; stroke: #555555; stroke-width: 1.5"/>
      </g>
     </g>
    </g>
    <g id="ytick_18">
     <g id="line2d_40">
      <g>
       <use xlink:href="#m048b8fbd6e" x="56.874647" y="163.327752" style="fill: #555555; stroke: #555555; stroke-width: 1.5"/>
      </g>
     </g>
    </g>
    <g id="ytick_19">
     <g id="line2d_41">
      <g>
       <use xlink:href="#m048b8fbd6e" x="56.874647" y="154.267752" style="fill: #555555; stroke: #555555; stroke-width: 1.5"/>
      </g>
     </g>
    </g>
    <g id="ytick_20">
     <g id="line2d_42">
      <g>
       <use xlink:href="#m048b8fbd6e" x="56.874647" y="136.147752" style="fill: #555555; stroke: #555555; stroke-width: 1.5"/>
      </g>
     </g>
    </g>
    <g id="ytick_21">
     <g id="line2d_43">
      <g>
       <use xlink:href="#m048b8fbd6e" x="56.874647" y="127.087752" style="fill: #555555; stroke: #555555; stroke-width: 1.5"/>
      </g>
     </g>
    </g>
    <g id="ytick_22">
     <g id="line2d_44">
      <g>
       <use xlink:href="#m048b8fbd6e" x="56.874647" y="118.027752" style="fill: #555555; stroke: #555555; stroke-width: 1.5"/>
      </g>
     </g>
    </g>
    <g id="ytick_23">
     <g id="line2d_45">
      <g>
       <use xlink:href="#m048b8fbd6e" x="56.874647" y="108.967752" style="fill: #555555; stroke: #555555; stroke-width: 1.5"/>
      </g>
     </g>
    </g>
    <g id="ytick_24">
     <g id="line2d_46">
      <g>
       <use xlink:href="#m048b8fbd6e" x="56.874647" y="90.847752" style="fill: #555555; stroke: #555555; stroke-width: 1.5"/>
      </g>
     </g>
    </g>
    <g id="ytick_25">
     <g id="line2d_47">
      <g>
       <use xlink:href="#m048b8fbd6e" x="56.874647" y="81.787752" style="fill: #555555; stroke: #555555; stroke-width: 1.5"/>
      </g>
     </g>
    </g>
    <g id="ytick_26">
     <g id="line2d_48">
      <g>
       <use xlink:href="#m048b8fbd6e" x="56.874647" y="72.727752" style="fill: #555555; stroke: #555555; stroke-width: 1.5"/>
      </g>
     </g>
    </g>
    <g id="ytick_27">
     <g id="line2d_49">
      <g>
       <use xlink:href="#m048b8fbd6e" x="56.874647" y="63.667752" style="fill: #555555; stroke: #555555; stroke-width: 1.5"/>
      </g>
     </g>
    </g>
    <g id="ytick_28">
     <g id="line2d_50">
      <g>
       <use xlink:href="#m048b8fbd6e" x="56.874647" y="45.547752" style="fill: #555555; stroke: #555555; stroke-width: 1.5"/>
      </g>
     </g>
    </g>
    <g id="ytick_29">
     <g id="line2d_51">
      <g>
       <use xlink:href="#m048b8fbd6e" x="56.874647" y="36.487752" style="fill: #555555; stroke: #555555; stroke-width: 1.5"/>
      </g>
     </g>
    </g>
    <g id="ytick_30">
     <g id="line2d_52">
      <g>
       <use xlink:href="#m048b8fbd6e" x="56.874647" y="27.427752" style="fill: #555555; stroke: #555555; stroke-width: 1.5"/>
      </g>
     </g>
    </g>
    <g id="ytick_31">
     <g id="line2d_53">
      <g>
       <use xlink:href="#m048b8fbd6e" x="56.874647" y="18.367752" style="fill: #555555; stroke: #555555; stroke-width: 1.5"/>
      </g>
     </g>
    </g>
    <g id="text_12">
     <!-- $y$ -->
     <g style="fill: #555555" transform="translate(16.0533 149.488529)rotate(-90)scale(0.18 -0.18)">
      <defs>
       <path id="CMMI12-79" d="M 1683 -700 
C 1510 -939 1261 -1152 947 -1152 
C 870 -1152 563 -1152 467 -889 
C 486 -895 518 -895 531 -895 
C 723 -895 851 -729 851 -582 
C 851 -435 730 -384 634 -384 
C 531 -384 307 -458 307 -759 
C 307 -1071 582 -1286 947 -1286 
C 1587 -1286 2234 -700 2413 6 
L 3040 2485 
C 3046 2517 3059 2556 3059 2594 
C 3059 2689 2982 2753 2886 2753 
C 2829 2753 2694 2727 2643 2535 
L 2170 658 
C 2138 543 2138 530 2086 460 
C 1958 281 1747 64 1440 64 
C 1082 64 1050 415 1050 588 
C 1050 952 1222 1443 1395 1903 
C 1466 2088 1504 2178 1504 2305 
C 1504 2574 1312 2816 998 2816 
C 410 2816 173 1890 173 1839 
C 173 1814 198 1782 243 1782 
C 301 1782 307 1807 333 1897 
C 486 2433 730 2689 979 2689 
C 1037 2689 1146 2689 1146 2478 
C 1146 2312 1075 2127 979 1884 
C 666 1047 666 837 666 683 
C 666 77 1101 -64 1421 -64 
C 1606 -64 1837 -6 2061 230 
L 2067 224 
C 1971 -147 1907 -392 1683 -700 
z
" transform="scale(0.015625)"/>
      </defs>
      <use xlink:href="#CMMI12-79" transform="scale(0.996264)"/>
     </g>
    </g>
   </g>
   <g id="PathCollection_1"/>
   <g id="PathCollection_2">
    <path d="M 317.901067 9.760752 
L 317.276435 10.385204 
L 314.540132 10.38499 
L 312.427767 12.497055 
L 311.803829 13.120742 
L 309.690855 15.233358 
L 309.067526 15.856393 
L 306.953832 17.969662 
L 306.331223 18.591927 
L 304.21668 20.705965 
L 303.59492 21.327325 
L 301.479381 23.442268 
L 300.858617 24.062569 
L 298.741912 26.178571 
L 298.122314 26.797634 
L 296.00425 28.914874 
L 295.386011 29.532498 
L 293.266367 31.651177 
L 292.649708 32.267132 
L 290.528235 34.38748 
L 289.913405 35.001506 
L 287.789821 37.123783 
L 287.177101 37.735588 
L 285.051091 39.860086 
L 284.440798 40.469342 
L 281.704495 40.468171 
L 279.574533 42.596389 
L 278.968192 43.201412 
L 276.834906 45.332692 
L 276.231889 45.934233 
L 274.094825 48.068995 
L 273.495586 48.666588 
L 271.354244 50.805298 
L 270.759283 51.398429 
L 268.61311 53.541601 
L 268.02298 54.129707 
L 265.87137 56.277904 
L 265.286677 56.860366 
L 263.128967 59.014207 
L 262.550374 59.59035 
L 260.385841 61.75051 
L 259.814071 62.319602 
L 257.077768 62.316668 
L 254.90271 64.486813 
L 254.341465 65.044876 
L 252.157702 67.223116 
L 251.605162 67.772219 
L 249.411768 69.959419 
L 248.868859 70.498633 
L 246.66484 72.695722 
L 246.132556 73.224053 
L 243.916846 75.432025 
L 243.396253 75.94841 
L 241.167716 78.168328 
L 240.65995 78.671635 
L 237.923647 78.666866 
L 235.676371 80.904631 
L 235.187344 81.38865 
L 232.924515 83.640934 
L 232.451041 84.109178 
L 230.171311 86.377237 
L 229.714738 86.828383 
L 227.416686 89.11354 
L 226.978435 89.546196 
L 224.660564 91.849843 
L 224.242132 92.262548 
L 221.902866 94.586146 
L 221.505829 94.977369 
L 218.769526 94.971292 
L 216.401361 97.322449 
L 216.033223 97.684494 
L 213.640299 100.058752 
L 213.29692 100.396084 
L 210.877488 102.795055 
L 210.560617 103.105998 
L 208.112852 105.531358 
L 207.824314 105.81417 
L 205.346312 108.267662 
L 205.088011 108.520532 
L 202.351708 108.514966 
L 199.836454 111.003965 
L 199.615405 111.219878 
L 197.066378 113.740268 
L 196.879101 113.922955 
L 194.29427 116.476571 
L 194.142798 116.624133 
L 191.520051 119.212874 
L 191.406495 119.323345 
L 188.670192 119.320234 
L 186.005231 121.949177 
L 185.933889 122.01841 
L 183.22768 124.68548 
L 183.197586 124.714641 
L 180.461283 126.571272 
L 177.72498 126.571272 
L 174.988677 126.571272 
L 172.252374 126.571272 
L 169.516071 126.571272 
L 166.779768 126.571272 
L 164.043465 126.571272 
L 161.307162 126.571272 
L 158.570859 126.571272 
L 155.834556 126.571272 
L 153.098253 126.571272 
L 150.36195 126.571272 
L 147.625647 126.571272 
L 144.889344 126.571272 
L 142.153041 126.571272 
L 139.416738 126.571272 
L 136.680435 126.571272 
L 133.944132 126.571272 
L 131.207829 126.571272 
L 128.471526 126.571272 
L 125.735223 126.571272 
L 123.689612 126.571272 
" clip-path="url(#p08d408c461)" style="fill: none; stroke: #100a06; stroke-width: 2.25"/>
    <path d="M 105.890409 126.571272 
L 103.844798 126.571272 
L 101.108495 126.571272 
L 98.372192 126.571272 
L 95.635889 126.571272 
L 92.899586 126.571272 
L 90.163283 126.571272 
L 87.42698 126.571272 
L 84.690677 126.571272 
L 81.954374 126.571272 
L 79.218071 126.571272 
L 76.481768 126.571272 
L 73.745465 126.571272 
L 71.009162 126.571272 
L 68.272859 126.571272 
L 65.536556 126.571272 
L 62.800253 126.571272 
L 60.06395 126.571272 
L 57.327647 126.571272 
" clip-path="url(#p08d408c461)" style="fill: none; stroke: #100a06; stroke-width: 2.25"/>
   </g>
   <g id="PathCollection_3">
    <path d="M 243.178466 280.654752 
L 243.178466 277.918449 
L 243.178466 275.182146 
L 243.178466 272.445843 
L 243.178466 269.70954 
L 243.178466 266.973237 
L 243.178466 264.236934 
L 243.178466 263.353518 
" clip-path="url(#p08d408c461)" style="fill: none; stroke: #20140d; stroke-width: 2.25"/>
    <path d="M 243.178466 226.812108 
L 243.178466 80.904631 
L 237.875609 80.904631 
L 221.505829 97.076816 
L 218.769526 97.038131 
L 205.088011 110.482682 
L 202.351708 110.433929 
L 191.406495 121.139602 
L 188.670192 121.085349 
L 177.72498 131.74919 
L 174.988677 131.693668 
L 166.779768 139.668037 
L 164.043465 139.615346 
L 153.098253 150.223216 
L 150.36195 150.179446 
L 142.153041 158.122296 
L 139.416738 158.08977 
L 131.207829 166.027149 
L 128.471526 166.009235 
L 120.262617 173.945017 
L 117.526314 174.108218 
L 57.327647 174.108218 
L 57.327647 174.108218 
" clip-path="url(#p08d408c461)" style="fill: none; stroke: #20140d; stroke-width: 2.25"/>
   </g>
   <g id="PathCollection_4">
    <path d="M 165.338914 280.654752 
L 165.338914 277.918449 
L 165.338914 275.182146 
L 165.338914 272.445843 
L 165.338914 269.70954 
L 165.338914 266.973237 
L 165.338914 264.236934 
L 165.338914 263.353518 
" clip-path="url(#p08d408c461)" style="fill: none; stroke: #311f14; stroke-width: 2.25"/>
    <path d="M 165.338914 226.812108 
L 165.338914 225.928692 
L 165.338914 223.192389 
L 165.338914 220.456086 
L 165.338914 217.719783 
L 165.338914 214.98348 
L 165.338914 212.247177 
L 165.338914 209.510874 
L 165.338914 206.774571 
L 165.338914 204.038268 
L 165.338914 201.301965 
L 165.338914 198.565662 
L 165.338914 195.829358 
L 165.338914 193.093055 
L 165.338914 190.356752 
L 165.338914 187.620449 
L 165.338914 184.884146 
L 165.338914 182.147843 
L 165.338914 179.41154 
L 165.338914 176.675237 
L 165.338914 173.938934 
L 165.338914 171.202631 
L 165.338914 168.466328 
L 165.338914 165.730025 
L 165.338914 162.993722 
L 165.338914 160.257419 
L 165.338914 157.521116 
L 165.338914 154.784813 
L 165.338914 152.04851 
L 165.338914 149.312207 
L 165.338914 146.575904 
L 165.338914 143.839601 
L 165.338914 141.103298 
L 164.043465 141.050834 
L 163.989945 141.103298 
L 161.307162 143.673026 
L 161.13702 143.839601 
L 158.570859 146.293285 
L 158.2818 146.575904 
L 155.834556 148.911623 
L 155.424262 149.312207 
L 153.098253 151.528037 
L 150.36195 151.421577 
L 149.719644 152.04851 
L 147.625647 154.038132 
L 146.85952 154.784813 
L 144.889344 156.653127 
L 143.99734 157.521116 
L 142.153041 159.266522 
L 139.416738 159.172088 
L 138.301266 160.257419 
L 136.680435 161.787457 
L 135.438626 162.993722 
L 133.944132 164.401545 
L 132.574097 165.730025 
L 131.207829 167.014259 
L 128.471526 166.936832 
L 126.894367 168.466328 
L 125.735223 169.553233 
L 124.03131 171.202631 
L 122.99892 172.168508 
L 121.166385 173.938934 
L 120.262617 174.782499 
L 118.299337 176.675237 
L 117.526314 177.395004 
L 114.790011 177.345526 
L 112.647948 179.41154 
L 112.053708 179.963597 
L 109.78409 182.147843 
L 109.317405 182.580307 
L 106.917844 184.884146 
L 106.581101 185.195372 
L 103.844798 185.171945 
L 101.296496 187.620449 
L 101.108495 187.793847 
L 98.434575 190.356752 
L 98.372192 190.414133 
L 95.635889 191.658882 
L 92.899586 191.658882 
L 90.163283 191.658882 
L 87.42698 191.658882 
L 84.690677 191.658882 
L 81.954374 191.658882 
L 79.218071 191.658882 
L 76.481768 191.658882 
L 73.745465 191.658882 
L 71.009162 191.658882 
L 68.272859 191.658882 
L 65.536556 191.658882 
L 62.800253 191.658882 
L 60.06395 191.658882 
L 57.327647 191.658882 
" clip-path="url(#p08d408c461)" style="fill: none; stroke: #311f14; stroke-width: 2.25"/>
   </g>
   <g id="PathCollection_5">
    <path d="M 139.472433 280.654752 
L 139.472433 277.918449 
L 139.472433 275.182146 
L 139.472433 272.445843 
L 139.472433 269.70954 
L 139.472433 266.973237 
L 139.472433 264.236934 
L 139.472433 263.353518 
" clip-path="url(#p08d408c461)" style="fill: none; stroke: #41291a; stroke-width: 2.25"/>
    <path d="M 139.472433 226.812108 
L 139.472433 225.928692 
L 139.472433 223.192389 
L 139.472433 220.456086 
L 139.472433 217.719783 
L 139.472433 214.98348 
L 139.472433 212.247177 
L 139.472433 209.510874 
L 139.472433 206.774571 
L 139.472433 204.038268 
L 139.472433 201.301965 
L 139.472433 198.565662 
L 139.472433 195.829358 
L 139.472433 193.093055 
L 139.472433 190.356752 
L 139.472433 187.620449 
L 139.472433 184.884146 
L 139.472433 182.147843 
L 139.472433 179.41154 
L 139.472433 176.675237 
L 139.472433 173.938934 
L 139.472433 171.202631 
L 139.472433 168.466328 
L 139.472433 165.730025 
L 139.472433 162.993722 
L 139.472433 160.257419 
L 139.416738 160.254406 
L 139.413641 160.257419 
L 136.680435 162.83752 
L 136.51963 162.993722 
L 133.944132 165.419857 
L 133.624261 165.730025 
L 131.207829 168.001369 
L 128.471526 167.864429 
L 127.85087 168.466328 
L 125.735223 170.450126 
L 124.957847 171.202631 
L 122.99892 173.035351 
L 122.063638 173.938934 
L 120.262617 175.619981 
L 119.168031 176.675237 
L 117.526314 178.203851 
L 114.790011 178.098772 
L 113.42892 179.41154 
L 112.053708 180.68913 
L 110.53798 182.147843 
L 109.317405 183.278915 
L 107.645478 184.884146 
L 106.581101 185.867869 
L 103.844798 185.793821 
L 101.943719 187.620449 
L 101.108495 188.390799 
L 99.057384 190.356752 
L 98.372192 190.987002 
L 96.169055 193.093055 
L 95.635889 193.582064 
L 92.899586 193.542007 
L 90.509472 195.829358 
L 90.163283 196.146299 
L 87.628252 198.565662 
L 87.42698 198.749385 
L 84.690677 198.733575 
L 82.003189 201.301965 
L 81.954374 201.346451 
L 79.218071 202.247901 
L 76.481768 202.247901 
L 73.745465 202.247901 
L 71.009162 202.247901 
L 68.272859 202.247901 
L 65.536556 202.247901 
L 62.800253 202.247901 
L 60.06395 202.247901 
L 57.327647 202.247901 
" clip-path="url(#p08d408c461)" style="fill: none; stroke: #41291a; stroke-width: 2.25"/>
   </g>
   <g id="PathCollection_6">
    <path d="M 123.56919 280.654752 
L 123.56919 277.918449 
L 123.56919 275.182146 
L 123.56919 272.445843 
L 123.56919 269.70954 
L 123.56919 266.973237 
L 123.56919 264.236934 
L 123.56919 263.353518 
" clip-path="url(#p08d408c461)" style="fill: none; stroke: #533421; stroke-width: 2.25"/>
    <path d="M 123.56919 226.812108 
L 123.56919 225.928692 
L 123.56919 223.192389 
L 123.56919 220.456086 
L 123.56919 217.719783 
L 123.56919 214.98348 
L 123.56919 212.247177 
L 123.56919 209.510874 
L 123.56919 206.774571 
L 123.56919 204.038268 
L 123.56919 201.301965 
L 123.56919 198.565662 
L 123.56919 195.829358 
L 123.56919 193.093055 
L 123.56919 190.356752 
L 123.56919 187.620449 
L 123.56919 184.884146 
L 123.56919 182.147843 
L 123.56919 179.41154 
L 123.56919 176.675237 
L 123.56919 173.938934 
L 122.99892 173.902194 
L 122.96089 173.938934 
L 120.262617 176.457463 
L 120.036726 176.675237 
L 117.526314 179.012698 
L 114.790011 178.852017 
L 114.209891 179.41154 
L 112.053708 181.414662 
L 111.29187 182.147843 
L 109.317405 183.977524 
L 108.373113 184.884146 
L 106.581101 186.540366 
L 103.844798 186.415698 
L 102.590943 187.620449 
L 101.108495 188.987751 
L 99.680194 190.356752 
L 98.372192 191.559872 
L 96.768333 193.093055 
L 95.635889 194.13171 
L 92.899586 194.046628 
L 91.036764 195.829358 
L 90.163283 196.629041 
L 88.134074 198.565662 
L 87.42698 199.211103 
L 84.690677 199.155563 
L 82.444745 201.301965 
L 81.954374 201.74885 
L 79.551975 204.038268 
L 79.218071 204.341638 
L 76.657143 206.774571 
L 76.481768 206.933397 
L 73.745465 206.918665 
L 71.021798 209.510874 
L 71.009162 209.522302 
L 68.272859 209.733633 
L 65.536556 209.733633 
L 62.800253 209.733633 
L 60.06395 209.733633 
L 57.327647 209.733633 
" clip-path="url(#p08d408c461)" style="fill: none; stroke: #533421; stroke-width: 2.25"/>
   </g>
   <g id="PathCollection_7">
    <path d="M 112.161452 280.654752 
L 112.161452 277.918449 
L 112.161452 275.182146 
L 112.161452 272.445843 
L 112.161452 269.70954 
L 112.161452 266.973237 
L 112.161452 264.236934 
L 112.161452 261.500631 
L 112.161452 258.764328 
L 112.161452 256.028025 
L 112.161452 253.291722 
L 112.161452 250.555419 
L 112.161452 247.819116 
L 112.161452 245.082813 
L 112.161452 242.34651 
L 112.161452 239.610207 
L 112.161452 236.873904 
L 112.161452 234.137601 
L 112.161452 231.401298 
L 112.161452 228.664995 
L 112.161452 225.928692 
L 112.161452 223.192389 
L 112.161452 220.456086 
L 112.161452 217.719783 
L 112.161452 214.98348 
L 112.161452 212.247177 
L 112.161452 209.510874 
L 112.161452 206.774571 
L 112.161452 204.038268 
L 112.161452 201.301965 
L 112.161452 198.565662 
L 112.161452 195.829358 
L 112.161452 194.033765 
" clip-path="url(#p08d408c461)" style="fill: none; stroke: #633e28; stroke-width: 2.25"/>
    <path d="M 100.967975 189.719389 
L 100.303003 190.356752 
L 98.372192 192.132742 
L 97.367611 193.093055 
L 95.635889 194.681355 
L 92.899586 194.551249 
L 91.564055 195.829358 
L 90.163283 197.111783 
L 88.639896 198.565662 
L 87.42698 199.672822 
L 84.690677 199.577551 
L 82.886301 201.301965 
L 81.954374 202.15125 
L 79.974233 204.038268 
L 79.218071 204.725283 
L 77.060972 206.774571 
L 76.481768 207.299118 
L 73.745465 207.250465 
L 71.370424 209.510874 
L 71.009162 209.837608 
L 68.469293 212.247177 
L 68.272859 212.42425 
L 65.565771 214.98348 
L 65.536556 215.009722 
L 62.800253 215.007109 
L 60.06395 215.433967 
L 57.327647 215.433967 
" clip-path="url(#p08d408c461)" style="fill: none; stroke: #633e28; stroke-width: 2.25"/>
   </g>
   <g id="PathCollection_8">
    <path d="M 103.362797 280.654752 
L 103.362797 277.918449 
L 103.362797 275.182146 
L 103.362797 272.445843 
L 103.362797 269.70954 
L 103.362797 266.973237 
L 103.362797 264.236934 
L 103.362797 263.353518 
" clip-path="url(#p08d408c461)" style="fill: none; stroke: #74492f; stroke-width: 2.25"/>
    <path d="M 103.362797 226.812108 
L 103.362797 225.928692 
L 103.362797 223.192389 
L 103.362797 220.456086 
L 103.362797 217.719783 
L 103.362797 214.98348 
L 103.362797 212.247177 
L 103.362797 209.510874 
L 103.362797 206.774571 
L 103.362797 204.038268 
L 103.362797 201.301965 
L 103.362797 198.565662 
L 103.362797 195.829358 
L 103.362797 193.093055 
L 103.362797 190.356752 
L 101.108495 190.181654 
L 100.925813 190.356752 
L 98.372192 192.705612 
L 97.966889 193.093055 
L 95.635889 195.231 
L 92.899586 195.055869 
L 92.091347 195.829358 
L 90.163283 197.594525 
L 89.145717 198.565662 
L 87.42698 200.134541 
L 84.690677 199.999539 
L 83.327857 201.301965 
L 81.954374 202.553649 
L 80.396491 204.038268 
L 79.218071 205.108928 
L 77.4648 206.774571 
L 76.481768 207.66484 
L 73.745465 207.582266 
L 71.719051 209.510874 
L 71.009162 210.152914 
L 68.80165 212.247177 
L 68.272859 212.72385 
L 65.882679 214.98348 
L 65.536556 215.294393 
L 62.800253 215.263431 
L 60.207926 217.719783 
L 60.06395 217.848983 
L 57.327647 220.032672 
" clip-path="url(#p08d408c461)" style="fill: none; stroke: #74492f; stroke-width: 2.25"/>
   </g>
   <g id="PathCollection_9">
    <path d="M 96.224062 280.654752 
L 96.224062 277.918449 
L 96.224062 275.182146 
L 96.224062 272.445843 
L 96.224062 269.70954 
L 96.224062 266.973237 
L 96.224062 264.236934 
L 96.224062 261.500631 
L 96.224062 258.764328 
L 96.224062 256.028025 
L 96.224062 253.291722 
L 96.224062 250.555419 
L 96.224062 247.819116 
L 96.224062 245.082813 
L 96.224062 242.34651 
L 96.224062 239.610207 
L 96.224062 236.873904 
L 96.224062 234.137601 
L 96.224062 231.401298 
L 96.224062 228.664995 
L 96.224062 225.928692 
L 96.224062 223.192389 
L 96.224062 220.456086 
L 96.224062 217.719783 
L 96.224062 214.98348 
L 96.224062 212.247177 
L 96.224062 209.510874 
L 96.224062 206.774571 
L 96.224062 204.038268 
L 96.224062 201.301965 
L 96.224062 198.565662 
L 96.224062 195.829358 
L 95.635889 195.780646 
L 92.899586 195.56049 
L 92.618639 195.829358 
L 92.12406 196.282152 
" clip-path="url(#p08d408c461)" style="fill: none; stroke: #845435; stroke-width: 2.25"/>
    <path d="M 75.573353 207.991887 
L 73.745465 207.914066 
L 72.067678 209.510874 
L 71.009162 210.468221 
L 69.134007 212.247177 
L 68.272859 213.023449 
L 66.199588 214.98348 
L 65.536556 215.579064 
L 62.800253 215.519752 
L 60.478437 217.719783 
L 60.06395 218.091731 
L 57.559706 220.456086 
L 57.327647 220.663578 
" clip-path="url(#p08d408c461)" style="fill: none; stroke: #845435; stroke-width: 2.25"/>
   </g>
   <g id="PathCollection_10">
    <path d="M 90.230185 280.654752 
L 90.230185 277.918449 
L 90.230185 275.182146 
L 90.230185 272.445843 
L 90.230185 269.70954 
L 90.230185 266.973237 
L 90.230185 264.236934 
L 90.230185 263.353518 
" clip-path="url(#p08d408c461)" style="fill: none; stroke: #955f3c; stroke-width: 2.25"/>
    <path d="M 90.230185 226.812108 
L 90.230185 225.928692 
L 90.230185 223.192389 
L 90.230185 220.456086 
L 90.230185 217.719783 
L 90.230185 214.98348 
L 90.230185 212.247177 
L 90.230185 209.510874 
L 90.230185 206.774571 
L 90.230185 204.038268 
L 90.230185 201.301965 
L 90.230185 198.565662 
L 90.163283 198.560009 
L 90.157361 198.565662 
L 87.42698 201.057979 
L 84.690677 200.843515 
L 84.210969 201.301965 
L 81.954374 203.358448 
L 81.241006 204.038268 
L 79.218071 205.876217 
L 78.272456 206.774571 
L 76.481768 208.396283 
L 73.745465 208.245866 
L 72.416305 209.510874 
L 71.009162 210.783527 
L 69.466364 212.247177 
L 68.272859 213.323049 
L 66.516497 214.98348 
L 65.536556 215.863735 
L 62.800253 215.776074 
L 60.748948 217.719783 
L 60.06395 218.334479 
L 57.816817 220.456086 
L 57.327647 220.89347 
" clip-path="url(#p08d408c461)" style="fill: none; stroke: #955f3c; stroke-width: 2.25"/>
   </g>
   <g id="PathCollection_11">
    <path d="M 85.114407 280.654752 
L 85.114407 277.918449 
L 85.114407 275.182146 
L 85.114407 272.445843 
L 85.114407 269.70954 
L 85.114407 266.973237 
L 85.114407 264.236934 
L 85.114407 263.353518 
" clip-path="url(#p08d408c461)" style="fill: none; stroke: #a66943; stroke-width: 2.25"/>
    <path d="M 85.114407 226.812108 
L 85.114407 225.928692 
L 85.114407 223.192389 
L 85.114407 220.456086 
L 85.114407 217.719783 
L 85.114407 214.98348 
L 85.114407 212.247177 
L 85.114407 209.510874 
L 85.114407 206.774571 
L 85.114407 204.038268 
L 85.114407 201.301965 
L 84.690677 201.265503 
L 84.652525 201.301965 
L 81.954374 203.760848 
L 81.663264 204.038268 
L 79.218071 206.259862 
L 78.676284 206.774571 
L 76.481768 208.762005 
L 73.745465 208.577666 
L 72.764931 209.510874 
L 71.009162 211.098833 
L 69.798721 212.247177 
L 68.272859 213.622648 
L 66.833406 214.98348 
L 65.536556 216.148405 
L 62.800253 216.032396 
L 61.019459 217.719783 
L 60.06395 218.577227 
L 58.073927 220.456086 
L 57.327647 221.123362 
" clip-path="url(#p08d408c461)" style="fill: none; stroke: #a66943; stroke-width: 2.25"/>
   </g>
   <g id="PathCollection_12">
    <path d="M 80.651339 280.654752 
L 80.651339 277.918449 
L 80.651339 275.182146 
L 80.651339 272.445843 
L 80.651339 269.70954 
L 80.651339 266.973237 
L 80.651339 264.236934 
L 80.651339 261.500631 
L 80.651339 258.764328 
L 80.651339 256.028025 
L 80.651339 253.291722 
L 80.651339 250.555419 
L 80.651339 247.819116 
L 80.651339 245.082813 
L 80.651339 242.34651 
L 80.651339 239.610207 
L 80.651339 236.873904 
L 80.651339 234.137601 
L 80.651339 231.401298 
L 80.651339 228.664995 
L 80.651339 225.928692 
L 80.651339 223.192389 
L 80.651339 220.456086 
L 80.651339 217.719783 
L 80.651339 214.98348 
L 80.651339 212.247177 
L 80.651339 209.510874 
L 80.651339 206.774571 
L 79.218071 206.643507 
L 79.080112 206.774571 
L 76.481768 209.127726 
L 73.745465 208.909466 
L 73.113558 209.510874 
L 71.009162 211.41414 
L 70.131078 212.247177 
L 69.647839 212.682787 
" clip-path="url(#p08d408c461)" style="fill: none; stroke: #b7744a; stroke-width: 2.25"/>
   </g>
   <g id="PathCollection_13">
    <path d="M 76.666434 280.654752 
L 76.666434 277.918449 
L 76.666434 275.182146 
L 76.666434 272.445843 
L 76.666434 269.70954 
L 76.666434 266.973237 
L 76.666434 264.236934 
L 76.666434 263.353518 
" clip-path="url(#p08d408c461)" style="fill: none; stroke: #c77e50; stroke-width: 2.25"/>
    <path d="M 76.666434 226.812108 
L 76.666434 225.928692 
L 76.666434 223.192389 
L 76.666434 220.456086 
L 76.666434 217.719783 
L 76.666434 214.98348 
L 76.666434 212.247177 
L 76.666434 209.510874 
L 76.481768 209.493448 
L 73.745465 209.241266 
L 73.462185 209.510874 
L 71.009162 211.729446 
L 70.463435 212.247177 
L 68.272859 214.221847 
L 67.467224 214.98348 
L 65.536556 216.717747 
L 62.800253 216.54504 
L 61.56048 217.719783 
L 60.06395 219.062724 
L 58.588149 220.456086 
L 57.327647 221.583146 
" clip-path="url(#p08d408c461)" style="fill: none; stroke: #c77e50; stroke-width: 2.25"/>
   </g>
   <g id="PathCollection_14">
    <path d="M 73.127102 280.654752 
L 73.127102 277.918449 
L 73.127102 275.182146 
L 73.127102 272.445843 
L 73.127102 269.70954 
L 73.127102 266.973237 
L 73.127102 264.236934 
L 73.127102 263.353518 
" clip-path="url(#p08d408c461)" style="fill: none; stroke: #d88957; stroke-width: 2.25"/>
    <path d="M 73.127102 226.812108 
L 73.127102 225.928692 
L 73.127102 223.192389 
L 73.127102 220.456086 
L 73.127102 217.719783 
L 73.127102 214.98348 
L 73.127102 212.247177 
L 71.009162 212.044752 
L 70.795791 212.247177 
L 68.272859 214.521447 
L 67.784132 214.98348 
L 65.536556 217.002418 
L 62.800253 216.801361 
L 61.830991 217.719783 
L 60.06395 219.305472 
L 58.845259 220.456086 
L 57.327647 221.813037 
" clip-path="url(#p08d408c461)" style="fill: none; stroke: #d88957; stroke-width: 2.25"/>
   </g>
   <g id="PathCollection_15">
    <path d="M 69.920911 280.654752 
L 69.920911 277.918449 
L 69.920911 275.182146 
L 69.920911 272.445843 
L 69.920911 269.70954 
L 69.920911 266.973237 
L 69.920911 264.236934 
L 69.920911 263.353518 
" clip-path="url(#p08d408c461)" style="fill: none; stroke: #e8935e; stroke-width: 2.25"/>
    <path d="M 69.920911 226.812108 
L 69.920911 225.928692 
L 69.920911 223.192389 
L 69.920911 220.456086 
L 69.920911 217.719783 
L 69.920911 214.98348 
L 68.272859 214.821046 
L 68.101041 214.98348 
L 65.536556 217.287088 
L 62.800253 217.057683 
L 62.101502 217.719783 
L 60.06395 219.54822 
L 59.10237 220.456086 
L 57.327647 222.042929 
" clip-path="url(#p08d408c461)" style="fill: none; stroke: #e8935e; stroke-width: 2.25"/>
   </g>
   <g id="PathCollection_16">
    <path d="M 66.991667 280.654752 
L 66.991667 277.918449 
L 66.991667 275.182146 
L 66.991667 272.445843 
L 66.991667 269.70954 
L 66.991667 266.973237 
L 66.991667 264.236934 
L 66.991667 263.353518 
" clip-path="url(#p08d408c461)" style="fill: none; stroke: #fa9e64; stroke-width: 2.25"/>
    <path d="M 66.991667 226.812108 
L 66.991667 225.928692 
L 66.991667 223.192389 
L 66.991667 220.456086 
L 66.991667 217.719783 
L 65.536556 217.571759 
L 62.800253 217.314005 
L 62.372013 217.719783 
L 60.06395 219.790969 
L 59.359481 220.456086 
L 57.327647 222.272821 
" clip-path="url(#p08d408c461)" style="fill: none; stroke: #fa9e64; stroke-width: 2.25"/>
   </g>
   <g id="PathCollection_17">
    <path d="M 64.301041 280.654752 
L 64.301041 277.918449 
L 64.301041 275.182146 
L 64.301041 272.445843 
L 64.301041 269.70954 
L 64.301041 266.973237 
L 64.301041 264.236934 
L 64.301041 263.353518 
" clip-path="url(#p08d408c461)" style="fill: none; stroke: #ffa86b; stroke-width: 2.25"/>
    <path d="M 64.301041 226.812108 
L 64.301041 225.928692 
L 64.301041 223.192389 
L 64.301041 220.456086 
L 64.301041 217.719783 
L 62.800253 217.570327 
L 62.642523 217.719783 
L 60.06395 220.033717 
L 59.616591 220.456086 
L 57.327647 222.502713 
" clip-path="url(#p08d408c461)" style="fill: none; stroke: #ffa86b; stroke-width: 2.25"/>
   </g>
   <g id="PathCollection_18">
    <path d="M 61.814125 280.654752 
L 61.814125 277.918449 
L 61.814125 275.182146 
L 61.814125 272.445843 
L 61.814125 269.70954 
L 61.814125 266.973237 
L 61.814125 264.236934 
L 61.814125 263.353518 
" clip-path="url(#p08d408c461)" style="fill: none; stroke: #ffb372; stroke-width: 2.25"/>
    <path d="M 61.814125 226.812108 
L 61.814125 225.928692 
L 61.814125 223.192389 
L 61.814125 220.456086 
L 60.06395 220.276465 
L 59.873702 220.456086 
L 57.327647 222.732605 
" clip-path="url(#p08d408c461)" style="fill: none; stroke: #ffb372; stroke-width: 2.25"/>
   </g>
   <g id="PathCollection_19">
    <path d="M 59.499223 280.654752 
L 59.499223 277.918449 
L 59.499223 275.182146 
L 59.499223 272.445843 
L 59.499223 269.70954 
L 59.499223 268.826124 
" clip-path="url(#p08d408c461)" style="fill: none; stroke: #ffbd78; stroke-width: 2.25"/>
    <path d="M 59.499223 232.284714 
L 59.499223 231.401298 
L 59.499223 228.664995 
L 59.499223 225.928692 
L 59.499223 223.192389 
L 57.327647 222.962497 
" clip-path="url(#p08d408c461)" style="fill: none; stroke: #ffbd78; stroke-width: 2.25"/>
   </g>
   <g id="PathCollection_20"/>
   <g id="patch_3">
    <path d="M 56.874647 281.107752 
L 56.874647 9.307752 
" style="fill: none; stroke: #ffffff; stroke-width: 1.875; stroke-linejoin: miter; stroke-linecap: square"/>
   </g>
   <g id="patch_4">
    <path d="M 56.874647 281.107752 
L 328.674647 281.107752 
" style="fill: none; stroke: #ffffff; stroke-width: 1.875; stroke-linejoin: miter; stroke-linecap: square"/>
   </g>
   <g id="text_13">
    <!-- $\mathdefault{0.342}$ -->
    <g transform="translate(101.458199 129.560064)scale(0.12 -0.12)">
     <defs>
      <path id="CMMI12-3a" d="M 1178 307 
C 1178 492 1024 619 870 619 
C 685 619 557 466 557 313 
C 557 128 710 0 864 0 
C 1050 0 1178 153 1178 307 
z
" transform="scale(0.015625)"/>
      <path id="CMR17-34" d="M 2150 4122 
C 2150 4256 2144 4256 2029 4256 
L 128 1254 
L 128 1088 
L 1779 1088 
L 1779 457 
C 1779 224 1766 160 1318 160 
L 1197 160 
L 1197 0 
C 1402 0 1747 0 1965 0 
C 2182 0 2528 0 2733 0 
L 2733 160 
L 2611 160 
C 2163 160 2150 224 2150 457 
L 2150 1088 
L 2803 1088 
L 2803 1254 
L 2150 1254 
L 2150 4122 
z
M 1798 3703 
L 1798 1254 
L 256 1254 
L 1798 3703 
z
" transform="scale(0.015625)"/>
     </defs>
     <use xlink:href="#CMR17-30" transform="scale(0.996264)"/>
     <use xlink:href="#CMMI12-3a" transform="translate(45.690477 0)scale(0.996264)"/>
     <use xlink:href="#CMR17-33" transform="translate(72.787654 0)scale(0.996264)"/>
     <use xlink:href="#CMR17-34" transform="translate(118.478131 0)scale(0.996264)"/>
     <use xlink:href="#CMR17-32" transform="translate(164.168608 0)scale(0.996264)"/>
    </g>
   </g>
   <g id="text_14">
    <!-- $\mathdefault{0.683}$ -->
    <g transform="translate(240.189674 231.751002)rotate(-270)scale(0.12 -0.12)">
     <defs>
      <path id="CMR17-36" d="M 678 2176 
C 678 3690 1395 4032 1811 4032 
C 1946 4032 2272 4009 2400 3776 
C 2298 3776 2106 3776 2106 3553 
C 2106 3381 2246 3323 2336 3323 
C 2394 3323 2566 3348 2566 3560 
C 2566 3954 2246 4179 1805 4179 
C 1043 4179 243 3390 243 1984 
C 243 253 966 -128 1478 -128 
C 2099 -128 2688 427 2688 1283 
C 2688 2081 2170 2662 1517 2662 
C 1126 2662 838 2407 678 1960 
L 678 2176 
z
M 1478 25 
C 691 25 691 1200 691 1436 
C 691 1896 909 2560 1504 2560 
C 1613 2560 1926 2560 2138 2120 
C 2253 1870 2253 1609 2253 1289 
C 2253 944 2253 690 2118 434 
C 1978 171 1773 25 1478 25 
z
" transform="scale(0.015625)"/>
      <path id="CMR17-38" d="M 1741 2264 
C 2144 2467 2554 2773 2554 3263 
C 2554 3841 1990 4179 1472 4179 
C 890 4179 378 3759 378 3180 
C 378 3021 416 2747 666 2505 
C 730 2442 998 2251 1171 2130 
C 883 1983 211 1634 211 934 
C 211 279 838 -128 1459 -128 
C 2144 -128 2720 362 2720 1010 
C 2720 1590 2330 1857 2074 2029 
L 1741 2264 
z
M 902 2822 
C 851 2854 595 3051 595 3351 
C 595 3739 998 4032 1459 4032 
C 1965 4032 2336 3676 2336 3262 
C 2336 2669 1670 2331 1638 2331 
C 1632 2331 1626 2331 1574 2370 
L 902 2822 
z
M 2080 1519 
C 2176 1449 2483 1240 2483 851 
C 2483 381 2010 25 1472 25 
C 890 25 448 438 448 940 
C 448 1443 838 1862 1280 2060 
L 2080 1519 
z
" transform="scale(0.015625)"/>
     </defs>
     <use xlink:href="#CMR17-30" transform="scale(0.996264)"/>
     <use xlink:href="#CMMI12-3a" transform="translate(45.690477 0)scale(0.996264)"/>
     <use xlink:href="#CMR17-36" transform="translate(72.787654 0)scale(0.996264)"/>
     <use xlink:href="#CMR17-38" transform="translate(118.478131 0)scale(0.996264)"/>
     <use xlink:href="#CMR17-33" transform="translate(164.168608 0)scale(0.996264)"/>
    </g>
   </g>
   <g id="text_15">
    <!-- $\mathdefault{1.025}$ -->
    <g transform="translate(162.350122 231.751002)rotate(-270)scale(0.12 -0.12)">
     <defs>
      <path id="CMR17-35" d="M 730 3692 
C 794 3666 1056 3584 1325 3584 
C 1920 3584 2246 3911 2432 4100 
C 2432 4157 2432 4192 2394 4192 
C 2387 4192 2374 4192 2323 4163 
C 2099 4058 1837 3973 1517 3973 
C 1325 3973 1037 3999 723 4139 
C 653 4171 640 4171 634 4171 
C 602 4171 595 4164 595 4037 
L 595 2203 
C 595 2089 595 2057 659 2057 
C 691 2057 704 2070 736 2114 
C 941 2401 1222 2522 1542 2522 
C 1766 2522 2246 2382 2246 1289 
C 2246 1085 2246 715 2054 421 
C 1894 159 1645 25 1370 25 
C 947 25 518 320 403 814 
C 429 807 480 795 506 795 
C 589 795 749 840 749 1038 
C 749 1210 627 1280 506 1280 
C 358 1280 262 1190 262 1011 
C 262 454 704 -128 1382 -128 
C 2042 -128 2669 440 2669 1264 
C 2669 2030 2170 2624 1549 2624 
C 1222 2624 947 2503 730 2274 
L 730 3692 
z
" transform="scale(0.015625)"/>
     </defs>
     <use xlink:href="#CMR17-31" transform="scale(0.996264)"/>
     <use xlink:href="#CMMI12-3a" transform="translate(45.690477 0)scale(0.996264)"/>
     <use xlink:href="#CMR17-30" transform="translate(72.787654 0)scale(0.996264)"/>
     <use xlink:href="#CMR17-32" transform="translate(118.478131 0)scale(0.996264)"/>
     <use xlink:href="#CMR17-35" transform="translate(164.168608 0)scale(0.996264)"/>
    </g>
   </g>
   <g id="text_16">
    <!-- $\mathdefault{1.367}$ -->
    <g transform="translate(136.483641 231.751002)rotate(-270)scale(0.12 -0.12)">
     <defs>
      <path id="CMR17-37" d="M 2886 3941 
L 2886 4081 
L 1382 4081 
C 634 4081 621 4165 595 4288 
L 480 4288 
L 294 3094 
L 410 3094 
C 429 3215 474 3540 550 3661 
C 589 3712 1062 3712 1171 3712 
L 2579 3712 
L 1869 2661 
C 1395 1954 1069 999 1069 165 
C 1069 89 1069 -128 1299 -128 
C 1530 -128 1530 89 1530 171 
L 1530 465 
C 1530 1508 1709 2196 2003 2636 
L 2886 3941 
z
" transform="scale(0.015625)"/>
     </defs>
     <use xlink:href="#CMR17-31" transform="scale(0.996264)"/>
     <use xlink:href="#CMMI12-3a" transform="translate(45.690477 0)scale(0.996264)"/>
     <use xlink:href="#CMR17-33" transform="translate(72.787654 0)scale(0.996264)"/>
     <use xlink:href="#CMR17-36" transform="translate(118.478131 0)scale(0.996264)"/>
     <use xlink:href="#CMR17-37" transform="translate(164.168608 0)scale(0.996264)"/>
    </g>
   </g>
   <g id="text_17">
    <!-- $\mathdefault{1.708}$ -->
    <g transform="translate(120.580398 231.751002)rotate(-270)scale(0.12 -0.12)">
     <use xlink:href="#CMR17-31" transform="scale(0.996264)"/>
     <use xlink:href="#CMMI12-3a" transform="translate(45.690477 0)scale(0.996264)"/>
     <use xlink:href="#CMR17-37" transform="translate(72.787654 0)scale(0.996264)"/>
     <use xlink:href="#CMR17-30" transform="translate(118.478131 0)scale(0.996264)"/>
     <use xlink:href="#CMR17-38" transform="translate(164.168608 0)scale(0.996264)"/>
    </g>
   </g>
   <g id="text_18">
    <!-- $\mathdefault{2.050}$ -->
    <g transform="translate(95.799964 186.663308)rotate(-355.727121)scale(0.12 -0.12)">
     <use xlink:href="#CMR17-32" transform="scale(0.996264)"/>
     <use xlink:href="#CMMI12-3a" transform="translate(45.690477 0)scale(0.996264)"/>
     <use xlink:href="#CMR17-30" transform="translate(72.787654 0)scale(0.996264)"/>
     <use xlink:href="#CMR17-35" transform="translate(118.478131 0)scale(0.996264)"/>
     <use xlink:href="#CMR17-30" transform="translate(164.168608 0)scale(0.996264)"/>
    </g>
   </g>
   <g id="text_19">
    <!-- $\mathdefault{2.391}$ -->
    <g transform="translate(100.374005 231.751002)rotate(-270)scale(0.12 -0.12)">
     <defs>
      <path id="CMR17-39" d="M 2253 1864 
C 2253 464 1670 31 1190 31 
C 1043 31 685 31 538 294 
C 704 268 826 357 826 518 
C 826 692 685 749 595 749 
C 538 749 365 723 365 506 
C 365 71 742 -128 1203 -128 
C 1939 -128 2688 674 2688 2073 
C 2688 3817 1971 4179 1485 4179 
C 851 4179 243 3628 243 2778 
C 243 1991 762 1408 1414 1408 
C 1952 1408 2189 1903 2253 2112 
L 2253 1864 
z
M 1427 1510 
C 1254 1510 1011 1542 813 1922 
C 678 2169 678 2461 678 2771 
C 678 3146 678 3405 858 3684 
C 947 3817 1114 4032 1485 4032 
C 2240 4032 2240 2885 2240 2632 
C 2240 2182 2035 1510 1427 1510 
z
" transform="scale(0.015625)"/>
     </defs>
     <use xlink:href="#CMR17-32" transform="scale(0.996264)"/>
     <use xlink:href="#CMMI12-3a" transform="translate(45.690477 0)scale(0.996264)"/>
     <use xlink:href="#CMR17-33" transform="translate(72.787654 0)scale(0.996264)"/>
     <use xlink:href="#CMR17-39" transform="translate(118.478131 0)scale(0.996264)"/>
     <use xlink:href="#CMR17-31" transform="translate(164.168608 0)scale(0.996264)"/>
    </g>
   </g>
   <g id="text_20">
    <!-- $\mathdefault{2.733}$ -->
    <g transform="translate(72.12214 208.44417)rotate(-18.881047)scale(0.12 -0.12)">
     <use xlink:href="#CMR17-32" transform="scale(0.996264)"/>
     <use xlink:href="#CMMI12-3a" transform="translate(45.690477 0)scale(0.996264)"/>
     <use xlink:href="#CMR17-37" transform="translate(72.787654 0)scale(0.996264)"/>
     <use xlink:href="#CMR17-33" transform="translate(118.478131 0)scale(0.996264)"/>
     <use xlink:href="#CMR17-33" transform="translate(164.168608 0)scale(0.996264)"/>
    </g>
   </g>
   <g id="text_21">
    <!-- $\mathdefault{3.075}$ -->
    <g transform="translate(87.241393 231.751002)rotate(-270)scale(0.12 -0.12)">
     <use xlink:href="#CMR17-33" transform="scale(0.996264)"/>
     <use xlink:href="#CMMI12-3a" transform="translate(45.690477 0)scale(0.996264)"/>
     <use xlink:href="#CMR17-30" transform="translate(72.787654 0)scale(0.996264)"/>
     <use xlink:href="#CMR17-37" transform="translate(118.478131 0)scale(0.996264)"/>
     <use xlink:href="#CMR17-35" transform="translate(164.168608 0)scale(0.996264)"/>
    </g>
   </g>
   <g id="text_22">
    <!-- $\mathdefault{3.416}$ -->
    <g transform="translate(82.125615 231.751002)rotate(-270)scale(0.12 -0.12)">
     <use xlink:href="#CMR17-33" transform="scale(0.996264)"/>
     <use xlink:href="#CMMI12-3a" transform="translate(45.690477 0)scale(0.996264)"/>
     <use xlink:href="#CMR17-34" transform="translate(72.787654 0)scale(0.996264)"/>
     <use xlink:href="#CMR17-31" transform="translate(118.478131 0)scale(0.996264)"/>
     <use xlink:href="#CMR17-36" transform="translate(164.168608 0)scale(0.996264)"/>
    </g>
   </g>
   <g id="text_23">
    <!-- $\mathdefault{3.758}$ -->
    <g transform="translate(49.502736 224.62856)rotate(-17.739651)scale(0.12 -0.12)">
     <use xlink:href="#CMR17-33" transform="scale(0.996264)"/>
     <use xlink:href="#CMMI12-3a" transform="translate(45.690477 0)scale(0.996264)"/>
     <use xlink:href="#CMR17-37" transform="translate(72.787654 0)scale(0.996264)"/>
     <use xlink:href="#CMR17-35" transform="translate(118.478131 0)scale(0.996264)"/>
     <use xlink:href="#CMR17-38" transform="translate(164.168608 0)scale(0.996264)"/>
    </g>
   </g>
   <g id="text_24">
    <!-- $\mathdefault{4.100}$ -->
    <g transform="translate(73.677642 231.751002)rotate(-270)scale(0.12 -0.12)">
     <use xlink:href="#CMR17-34" transform="scale(0.996264)"/>
     <use xlink:href="#CMMI12-3a" transform="translate(45.690477 0)scale(0.996264)"/>
     <use xlink:href="#CMR17-31" transform="translate(72.787654 0)scale(0.996264)"/>
     <use xlink:href="#CMR17-30" transform="translate(118.478131 0)scale(0.996264)"/>
     <use xlink:href="#CMR17-30" transform="translate(164.168608 0)scale(0.996264)"/>
    </g>
   </g>
   <g id="text_25">
    <!-- $\mathdefault{4.441}$ -->
    <g transform="translate(70.13831 231.751002)rotate(-270)scale(0.12 -0.12)">
     <use xlink:href="#CMR17-34" transform="scale(0.996264)"/>
     <use xlink:href="#CMMI12-3a" transform="translate(45.690477 0)scale(0.996264)"/>
     <use xlink:href="#CMR17-34" transform="translate(72.787654 0)scale(0.996264)"/>
     <use xlink:href="#CMR17-34" transform="translate(118.478131 0)scale(0.996264)"/>
     <use xlink:href="#CMR17-31" transform="translate(164.168608 0)scale(0.996264)"/>
    </g>
   </g>
   <g id="text_26">
    <!-- $\mathdefault{4.783}$ -->
    <g transform="translate(66.932119 231.751002)rotate(-270)scale(0.12 -0.12)">
     <use xlink:href="#CMR17-34" transform="scale(0.996264)"/>
     <use xlink:href="#CMMI12-3a" transform="translate(45.690477 0)scale(0.996264)"/>
     <use xlink:href="#CMR17-37" transform="translate(72.787654 0)scale(0.996264)"/>
     <use xlink:href="#CMR17-38" transform="translate(118.478131 0)scale(0.996264)"/>
     <use xlink:href="#CMR17-33" transform="translate(164.168608 0)scale(0.996264)"/>
    </g>
   </g>
   <g id="text_27">
    <!-- $\mathdefault{5.125}$ -->
    <g transform="translate(64.002875 231.751002)rotate(-270)scale(0.12 -0.12)">
     <use xlink:href="#CMR17-35" transform="scale(0.996264)"/>
     <use xlink:href="#CMMI12-3a" transform="translate(45.690477 0)scale(0.996264)"/>
     <use xlink:href="#CMR17-31" transform="translate(72.787654 0)scale(0.996264)"/>
     <use xlink:href="#CMR17-32" transform="translate(118.478131 0)scale(0.996264)"/>
     <use xlink:href="#CMR17-35" transform="translate(164.168608 0)scale(0.996264)"/>
    </g>
   </g>
   <g id="text_28">
    <!-- $\mathdefault{5.466}$ -->
    <g transform="translate(61.312249 231.751002)rotate(-270)scale(0.12 -0.12)">
     <use xlink:href="#CMR17-35" transform="scale(0.996264)"/>
     <use xlink:href="#CMMI12-3a" transform="translate(45.690477 0)scale(0.996264)"/>
     <use xlink:href="#CMR17-34" transform="translate(72.787654 0)scale(0.996264)"/>
     <use xlink:href="#CMR17-36" transform="translate(118.478131 0)scale(0.996264)"/>
     <use xlink:href="#CMR17-36" transform="translate(164.168608 0)scale(0.996264)"/>
    </g>
   </g>
   <g id="text_29">
    <!-- $\mathdefault{5.808}$ -->
    <g transform="translate(58.825333 231.751002)rotate(-270)scale(0.12 -0.12)">
     <use xlink:href="#CMR17-35" transform="scale(0.996264)"/>
     <use xlink:href="#CMMI12-3a" transform="translate(45.690477 0)scale(0.996264)"/>
     <use xlink:href="#CMR17-38" transform="translate(72.787654 0)scale(0.996264)"/>
     <use xlink:href="#CMR17-30" transform="translate(118.478131 0)scale(0.996264)"/>
     <use xlink:href="#CMR17-38" transform="translate(164.168608 0)scale(0.996264)"/>
    </g>
   </g>
   <g id="text_30">
    <!-- $\mathdefault{6.150}$ -->
    <g transform="translate(56.510431 237.223608)rotate(-270)scale(0.12 -0.12)">
     <use xlink:href="#CMR17-36" transform="scale(0.996264)"/>
     <use xlink:href="#CMMI12-3a" transform="translate(45.690477 0)scale(0.996264)"/>
     <use xlink:href="#CMR17-31" transform="translate(72.787654 0)scale(0.996264)"/>
     <use xlink:href="#CMR17-35" transform="translate(118.478131 0)scale(0.996264)"/>
     <use xlink:href="#CMR17-30" transform="translate(164.168608 0)scale(0.996264)"/>
    </g>
   </g>
  </g>
 </g>
 <defs>
  <clipPath id="p08d408c461">
   <rect x="56.874647" y="9.307752" width="271.8" height="271.8"/>
  </clipPath>
 </defs>
</svg>
