<?xml version="1.0" encoding="utf-8" standalone="no"?>
<!DOCTYPE svg PUBLIC "-//W3C//DTD SVG 1.1//EN"
  "http://www.w3.org/Graphics/SVG/1.1/DTD/svg11.dtd">
<svg xmlns:xlink="http://www.w3.org/1999/xlink" width="332.274647pt" height="331.760948pt" viewBox="0 0 332.274647 331.760948" xmlns="http://www.w3.org/2000/svg" version="1.1">
 <metadata>
  <rdf:RDF xmlns:dc="http://purl.org/dc/elements/1.1/" xmlns:cc="http://creativecommons.org/ns#" xmlns:rdf="http://www.w3.org/1999/02/22-rdf-syntax-ns#">
   <cc:Work>
    <dc:type rdf:resource="http://purl.org/dc/dcmitype/StillImage"/>
    <dc:date>2022-08-18T01:10:13.996130</dc:date>
    <dc:format>image/svg+xml</dc:format>
    <dc:creator>
     <cc:Agent>
      <dc:title>Matplotlib v3.5.1, https://matplotlib.org/</dc:title>
     </cc:Agent>
    </dc:creator>
   </cc:Work>
  </rdf:RDF>
 </metadata>
 <defs>
  <style type="text/css">*{stroke-linejoin: round; stroke-linecap: butt}</style>
 </defs>
 <g id="figure_1">
  <g id="patch_1">
   <path d="M 0 331.760948 
L 332.274647 331.760948 
L 332.274647 0 
L 0 0 
z
" style="fill: #ffffff"/>
  </g>
  <g id="axes_1">
   <g id="patch_2">
    <path d="M 56.874647 281.107752 
L 328.674647 281.107752 
L 328.674647 9.307752 
L 56.874647 9.307752 
z
" style="fill: #e5e5e5"/>
   </g>
   <g id="matplotlib.axis_1">
    <g id="xtick_1">
     <g id="line2d_1">
      <path d="M 102.174647 281.107752 
L 102.174647 9.307752 
" clip-path="url(#p4035bf804a)" style="fill: none; stroke: #ffffff; stroke-width: 1.5; stroke-linecap: square"/>
     </g>
     <g id="line2d_2">
      <defs>
       <path id="m2422f035f1" d="M 0 0 
L 0 9 
" style="stroke: #555555; stroke-width: 1.875"/>
      </defs>
      <g>
       <use xlink:href="#m2422f035f1" x="102.174647" y="281.107752" style="fill: #555555; stroke: #555555; stroke-width: 1.875"/>
      </g>
     </g>
     <g id="text_1">
      <!-- $\mathdefault{−2}$ -->
      <g style="fill: #555555" transform="translate(91.758006 305.023257)scale(0.165 -0.165)">
       <defs>
        <path id="CMSY10-0" d="M 4218 1472 
C 4326 1472 4442 1472 4442 1600 
C 4442 1728 4326 1728 4218 1728 
L 755 1728 
C 646 1728 531 1728 531 1600 
C 531 1472 646 1472 755 1472 
L 4218 1472 
z
" transform="scale(0.015625)"/>
        <path id="CMR17-32" d="M 2669 989 
L 2554 989 
C 2490 536 2438 459 2413 420 
C 2381 369 1920 369 1830 369 
L 602 369 
C 832 619 1280 1072 1824 1597 
C 2214 1967 2669 2402 2669 3035 
C 2669 3790 2067 4224 1395 4224 
C 691 4224 262 3604 262 3030 
C 262 2780 448 2748 525 2748 
C 589 2748 781 2787 781 3010 
C 781 3207 614 3264 525 3264 
C 486 3264 448 3258 422 3245 
C 544 3790 915 4058 1306 4058 
C 1862 4058 2227 3617 2227 3035 
C 2227 2479 1901 2000 1536 1584 
L 262 146 
L 262 0 
L 2515 0 
L 2669 989 
z
" transform="scale(0.015625)"/>
       </defs>
       <use xlink:href="#CMSY10-0" transform="scale(0.996264)"/>
       <use xlink:href="#CMR17-32" transform="translate(77.487468 0)scale(0.996264)"/>
      </g>
     </g>
    </g>
    <g id="xtick_2">
     <g id="line2d_3">
      <path d="M 192.774647 281.107752 
L 192.774647 9.307752 
" clip-path="url(#p4035bf804a)" style="fill: none; stroke: #ffffff; stroke-width: 1.5; stroke-linecap: square"/>
     </g>
     <g id="line2d_4">
      <g>
       <use xlink:href="#m2422f035f1" x="192.774647" y="281.107752" style="fill: #555555; stroke: #555555; stroke-width: 1.875"/>
      </g>
     </g>
     <g id="text_2">
      <!-- $\mathdefault{0}$ -->
      <g style="fill: #555555" transform="translate(188.75072 305.023257)scale(0.165 -0.165)">
       <defs>
        <path id="CMR17-30" d="M 2688 2025 
C 2688 2416 2682 3080 2413 3591 
C 2176 4039 1798 4198 1466 4198 
C 1158 4198 768 4058 525 3597 
C 269 3118 243 2524 243 2025 
C 243 1661 250 1106 448 619 
C 723 -39 1216 -128 1466 -128 
C 1760 -128 2208 -7 2470 600 
C 2662 1042 2688 1559 2688 2025 
z
M 1466 -26 
C 1056 -26 813 325 723 812 
C 653 1188 653 1738 653 2096 
C 653 2588 653 2997 736 3387 
C 858 3929 1216 4096 1466 4096 
C 1728 4096 2067 3923 2189 3400 
C 2272 3036 2278 2607 2278 2096 
C 2278 1680 2278 1169 2202 792 
C 2067 95 1690 -26 1466 -26 
z
" transform="scale(0.015625)"/>
       </defs>
       <use xlink:href="#CMR17-30" transform="scale(0.996264)"/>
      </g>
     </g>
    </g>
    <g id="xtick_3">
     <g id="line2d_5">
      <path d="M 283.374647 281.107752 
L 283.374647 9.307752 
" clip-path="url(#p4035bf804a)" style="fill: none; stroke: #ffffff; stroke-width: 1.5; stroke-linecap: square"/>
     </g>
     <g id="line2d_6">
      <g>
       <use xlink:href="#m2422f035f1" x="283.374647" y="281.107752" style="fill: #555555; stroke: #555555; stroke-width: 1.875"/>
      </g>
     </g>
     <g id="text_3">
      <!-- $\mathdefault{2}$ -->
      <g style="fill: #555555" transform="translate(279.35072 305.023257)scale(0.165 -0.165)">
       <use xlink:href="#CMR17-32" transform="scale(0.996264)"/>
      </g>
     </g>
    </g>
    <g id="xtick_4">
     <g id="line2d_7">
      <defs>
       <path id="m1ceac5f68a" d="M 0 0 
L 0 6 
" style="stroke: #555555; stroke-width: 1.5"/>
      </defs>
      <g>
       <use xlink:href="#m1ceac5f68a" x="79.524647" y="281.107752" style="fill: #555555; stroke: #555555; stroke-width: 1.5"/>
      </g>
     </g>
    </g>
    <g id="xtick_5">
     <g id="line2d_8">
      <g>
       <use xlink:href="#m1ceac5f68a" x="124.824647" y="281.107752" style="fill: #555555; stroke: #555555; stroke-width: 1.5"/>
      </g>
     </g>
    </g>
    <g id="xtick_6">
     <g id="line2d_9">
      <g>
       <use xlink:href="#m1ceac5f68a" x="147.474647" y="281.107752" style="fill: #555555; stroke: #555555; stroke-width: 1.5"/>
      </g>
     </g>
    </g>
    <g id="xtick_7">
     <g id="line2d_10">
      <g>
       <use xlink:href="#m1ceac5f68a" x="170.124647" y="281.107752" style="fill: #555555; stroke: #555555; stroke-width: 1.5"/>
      </g>
     </g>
    </g>
    <g id="xtick_8">
     <g id="line2d_11">
      <g>
       <use xlink:href="#m1ceac5f68a" x="215.424647" y="281.107752" style="fill: #555555; stroke: #555555; stroke-width: 1.5"/>
      </g>
     </g>
    </g>
    <g id="xtick_9">
     <g id="line2d_12">
      <g>
       <use xlink:href="#m1ceac5f68a" x="238.074647" y="281.107752" style="fill: #555555; stroke: #555555; stroke-width: 1.5"/>
      </g>
     </g>
    </g>
    <g id="xtick_10">
     <g id="line2d_13">
      <g>
       <use xlink:href="#m1ceac5f68a" x="260.724647" y="281.107752" style="fill: #555555; stroke: #555555; stroke-width: 1.5"/>
      </g>
     </g>
    </g>
    <g id="xtick_11">
     <g id="line2d_14">
      <g>
       <use xlink:href="#m1ceac5f68a" x="306.024647" y="281.107752" style="fill: #555555; stroke: #555555; stroke-width: 1.5"/>
      </g>
     </g>
    </g>
    <g id="xtick_12">
     <g id="line2d_15">
      <g>
       <use xlink:href="#m1ceac5f68a" x="328.674647" y="281.107752" style="fill: #555555; stroke: #555555; stroke-width: 1.5"/>
      </g>
     </g>
    </g>
    <g id="text_4">
     <!-- $x$ -->
     <g style="fill: #555555" transform="translate(187.785582 324.672884)scale(0.18 -0.18)">
      <defs>
       <path id="CMMI12-78" d="M 3034 2606 
C 2829 2567 2752 2414 2752 2293 
C 2752 2139 2874 2088 2963 2088 
C 3155 2088 3290 2254 3290 2427 
C 3290 2695 2982 2816 2714 2816 
C 2323 2816 2106 2433 2048 2312 
C 1901 2816 1504 2816 1389 2816 
C 736 2816 390 1980 390 1839 
C 390 1814 416 1782 461 1782 
C 512 1782 525 1820 538 1846 
C 755 2555 1184 2689 1370 2689 
C 1658 2689 1715 2420 1715 2267 
C 1715 2127 1677 1980 1600 1673 
L 1382 798 
C 1286 415 1101 64 762 64 
C 730 64 570 64 435 147 
C 666 192 717 383 717 460 
C 717 588 621 664 499 664 
C 346 664 179 530 179 326 
C 179 57 480 -64 755 -64 
C 1062 -64 1280 179 1414 441 
C 1517 64 1837 -64 2074 -64 
C 2726 -64 3072 773 3072 913 
C 3072 945 3046 971 3008 971 
C 2950 971 2944 939 2925 888 
C 2752 326 2381 64 2093 64 
C 1869 64 1747 230 1747 492 
C 1747 632 1773 734 1875 1156 
L 2099 2024 
C 2195 2408 2413 2689 2707 2689 
C 2720 2689 2899 2689 3034 2606 
z
" transform="scale(0.015625)"/>
      </defs>
      <use xlink:href="#CMMI12-78" transform="scale(0.996264)"/>
     </g>
    </g>
   </g>
   <g id="matplotlib.axis_2">
    <g id="ytick_1">
     <g id="line2d_16">
      <path d="M 56.874647 281.107752 
L 328.674647 281.107752 
" clip-path="url(#p4035bf804a)" style="fill: none; stroke: #ffffff; stroke-width: 1.5; stroke-linecap: square"/>
     </g>
     <g id="line2d_17">
      <defs>
       <path id="m6b97ff3f4d" d="M 0 0 
L -9 0 
" style="stroke: #555555; stroke-width: 1.875"/>
      </defs>
      <g>
       <use xlink:href="#m6b97ff3f4d" x="56.874647" y="281.107752" style="fill: #555555; stroke: #555555; stroke-width: 1.875"/>
      </g>
     </g>
     <g id="text_5">
      <!-- $\mathdefault{−3}$ -->
      <g style="fill: #555555" transform="translate(23.541364 286.815505)scale(0.165 -0.165)">
       <defs>
        <path id="CMR17-33" d="M 1414 2157 
C 1984 2157 2234 1662 2234 1090 
C 2234 320 1824 25 1453 25 
C 1114 25 563 194 390 693 
C 422 680 454 680 486 680 
C 640 680 755 782 755 948 
C 755 1133 614 1216 486 1216 
C 378 1216 211 1165 211 926 
C 211 335 787 -128 1466 -128 
C 2176 -128 2720 430 2720 1085 
C 2720 1707 2208 2157 1600 2227 
C 2086 2328 2554 2756 2554 3329 
C 2554 3820 2048 4179 1472 4179 
C 890 4179 378 3829 378 3329 
C 378 3110 544 3072 627 3072 
C 762 3072 877 3155 877 3321 
C 877 3486 762 3569 627 3569 
C 602 3569 570 3569 544 3557 
C 730 3959 1235 4032 1459 4032 
C 1683 4032 2106 3925 2106 3320 
C 2106 3143 2080 2828 1862 2550 
C 1670 2304 1453 2304 1242 2284 
C 1210 2284 1062 2269 1037 2269 
C 992 2263 966 2257 966 2208 
C 966 2163 973 2157 1101 2157 
L 1414 2157 
z
" transform="scale(0.015625)"/>
       </defs>
       <use xlink:href="#CMSY10-0" transform="scale(0.996264)"/>
       <use xlink:href="#CMR17-33" transform="translate(77.487468 0)scale(0.996264)"/>
      </g>
     </g>
    </g>
    <g id="ytick_2">
     <g id="line2d_18">
      <path d="M 56.874647 235.807752 
L 328.674647 235.807752 
" clip-path="url(#p4035bf804a)" style="fill: none; stroke: #ffffff; stroke-width: 1.5; stroke-linecap: square"/>
     </g>
     <g id="line2d_19">
      <g>
       <use xlink:href="#m6b97ff3f4d" x="56.874647" y="235.807752" style="fill: #555555; stroke: #555555; stroke-width: 1.875"/>
      </g>
     </g>
     <g id="text_6">
      <!-- $\mathdefault{−2}$ -->
      <g style="fill: #555555" transform="translate(23.541364 241.515505)scale(0.165 -0.165)">
       <use xlink:href="#CMSY10-0" transform="scale(0.996264)"/>
       <use xlink:href="#CMR17-32" transform="translate(77.487468 0)scale(0.996264)"/>
      </g>
     </g>
    </g>
    <g id="ytick_3">
     <g id="line2d_20">
      <path d="M 56.874647 190.507752 
L 328.674647 190.507752 
" clip-path="url(#p4035bf804a)" style="fill: none; stroke: #ffffff; stroke-width: 1.5; stroke-linecap: square"/>
     </g>
     <g id="line2d_21">
      <g>
       <use xlink:href="#m6b97ff3f4d" x="56.874647" y="190.507752" style="fill: #555555; stroke: #555555; stroke-width: 1.875"/>
      </g>
     </g>
     <g id="text_7">
      <!-- $\mathdefault{−1}$ -->
      <g style="fill: #555555" transform="translate(23.541364 196.215505)scale(0.165 -0.165)">
       <defs>
        <path id="CMR17-31" d="M 1702 4058 
C 1702 4192 1696 4192 1606 4192 
C 1357 3916 979 3827 621 3827 
C 602 3827 570 3827 563 3808 
C 557 3795 557 3782 557 3648 
C 755 3648 1088 3686 1344 3839 
L 1344 461 
C 1344 236 1331 160 781 160 
L 589 160 
L 589 0 
C 896 0 1216 0 1523 0 
C 1830 0 2150 0 2458 0 
L 2458 160 
L 2266 160 
C 1715 160 1702 230 1702 458 
L 1702 4058 
z
" transform="scale(0.015625)"/>
       </defs>
       <use xlink:href="#CMSY10-0" transform="scale(0.996264)"/>
       <use xlink:href="#CMR17-31" transform="translate(77.487468 0)scale(0.996264)"/>
      </g>
     </g>
    </g>
    <g id="ytick_4">
     <g id="line2d_22">
      <path d="M 56.874647 145.207752 
L 328.674647 145.207752 
" clip-path="url(#p4035bf804a)" style="fill: none; stroke: #ffffff; stroke-width: 1.5; stroke-linecap: square"/>
     </g>
     <g id="line2d_23">
      <g>
       <use xlink:href="#m6b97ff3f4d" x="56.874647" y="145.207752" style="fill: #555555; stroke: #555555; stroke-width: 1.875"/>
      </g>
     </g>
     <g id="text_8">
      <!-- $\mathdefault{0}$ -->
      <g style="fill: #555555" transform="translate(36.326793 150.915505)scale(0.165 -0.165)">
       <use xlink:href="#CMR17-30" transform="scale(0.996264)"/>
      </g>
     </g>
    </g>
    <g id="ytick_5">
     <g id="line2d_24">
      <path d="M 56.874647 99.907752 
L 328.674647 99.907752 
" clip-path="url(#p4035bf804a)" style="fill: none; stroke: #ffffff; stroke-width: 1.5; stroke-linecap: square"/>
     </g>
     <g id="line2d_25">
      <g>
       <use xlink:href="#m6b97ff3f4d" x="56.874647" y="99.907752" style="fill: #555555; stroke: #555555; stroke-width: 1.875"/>
      </g>
     </g>
     <g id="text_9">
      <!-- $\mathdefault{1}$ -->
      <g style="fill: #555555" transform="translate(36.326793 105.615505)scale(0.165 -0.165)">
       <use xlink:href="#CMR17-31" transform="scale(0.996264)"/>
      </g>
     </g>
    </g>
    <g id="ytick_6">
     <g id="line2d_26">
      <path d="M 56.874647 54.607752 
L 328.674647 54.607752 
" clip-path="url(#p4035bf804a)" style="fill: none; stroke: #ffffff; stroke-width: 1.5; stroke-linecap: square"/>
     </g>
     <g id="line2d_27">
      <g>
       <use xlink:href="#m6b97ff3f4d" x="56.874647" y="54.607752" style="fill: #555555; stroke: #555555; stroke-width: 1.875"/>
      </g>
     </g>
     <g id="text_10">
      <!-- $\mathdefault{2}$ -->
      <g style="fill: #555555" transform="translate(36.326793 60.315505)scale(0.165 -0.165)">
       <use xlink:href="#CMR17-32" transform="scale(0.996264)"/>
      </g>
     </g>
    </g>
    <g id="ytick_7">
     <g id="line2d_28">
      <path d="M 56.874647 9.307752 
L 328.674647 9.307752 
" clip-path="url(#p4035bf804a)" style="fill: none; stroke: #ffffff; stroke-width: 1.5; stroke-linecap: square"/>
     </g>
     <g id="line2d_29">
      <g>
       <use xlink:href="#m6b97ff3f4d" x="56.874647" y="9.307752" style="fill: #555555; stroke: #555555; stroke-width: 1.875"/>
      </g>
     </g>
     <g id="text_11">
      <!-- $\mathdefault{3}$ -->
      <g style="fill: #555555" transform="translate(36.326793 15.015505)scale(0.165 -0.165)">
       <use xlink:href="#CMR17-33" transform="scale(0.996264)"/>
      </g>
     </g>
    </g>
    <g id="ytick_8">
     <g id="line2d_30">
      <defs>
       <path id="m86149fa471" d="M 0 0 
L -6 0 
" style="stroke: #555555; stroke-width: 1.5"/>
      </defs>
      <g>
       <use xlink:href="#m86149fa471" x="56.874647" y="272.047752" style="fill: #555555; stroke: #555555; stroke-width: 1.5"/>
      </g>
     </g>
    </g>
    <g id="ytick_9">
     <g id="line2d_31">
      <g>
       <use xlink:href="#m86149fa471" x="56.874647" y="262.987752" style="fill: #555555; stroke: #555555; stroke-width: 1.5"/>
      </g>
     </g>
    </g>
    <g id="ytick_10">
     <g id="line2d_32">
      <g>
       <use xlink:href="#m86149fa471" x="56.874647" y="253.927752" style="fill: #555555; stroke: #555555; stroke-width: 1.5"/>
      </g>
     </g>
    </g>
    <g id="ytick_11">
     <g id="line2d_33">
      <g>
       <use xlink:href="#m86149fa471" x="56.874647" y="244.867752" style="fill: #555555; stroke: #555555; stroke-width: 1.5"/>
      </g>
     </g>
    </g>
    <g id="ytick_12">
     <g id="line2d_34">
      <g>
       <use xlink:href="#m86149fa471" x="56.874647" y="226.747752" style="fill: #555555; stroke: #555555; stroke-width: 1.5"/>
      </g>
     </g>
    </g>
    <g id="ytick_13">
     <g id="line2d_35">
      <g>
       <use xlink:href="#m86149fa471" x="56.874647" y="217.687752" style="fill: #555555; stroke: #555555; stroke-width: 1.5"/>
      </g>
     </g>
    </g>
    <g id="ytick_14">
     <g id="line2d_36">
      <g>
       <use xlink:href="#m86149fa471" x="56.874647" y="208.627752" style="fill: #555555; stroke: #555555; stroke-width: 1.5"/>
      </g>
     </g>
    </g>
    <g id="ytick_15">
     <g id="line2d_37">
      <g>
       <use xlink:href="#m86149fa471" x="56.874647" y="199.567752" style="fill: #555555; stroke: #555555; stroke-width: 1.5"/>
      </g>
     </g>
    </g>
    <g id="ytick_16">
     <g id="line2d_38">
      <g>
       <use xlink:href="#m86149fa471" x="56.874647" y="181.447752" style="fill: #555555; stroke: #555555; stroke-width: 1.5"/>
      </g>
     </g>
    </g>
    <g id="ytick_17">
     <g id="line2d_39">
      <g>
       <use xlink:href="#m86149fa471" x="56.874647" y="172.387752" style="fill: #555555; stroke: #555555; stroke-width: 1.5"/>
      </g>
     </g>
    </g>
    <g id="ytick_18">
     <g id="line2d_40">
      <g>
       <use xlink:href="#m86149fa471" x="56.874647" y="163.327752" style="fill: #555555; stroke: #555555; stroke-width: 1.5"/>
      </g>
     </g>
    </g>
    <g id="ytick_19">
     <g id="line2d_41">
      <g>
       <use xlink:href="#m86149fa471" x="56.874647" y="154.267752" style="fill: #555555; stroke: #555555; stroke-width: 1.5"/>
      </g>
     </g>
    </g>
    <g id="ytick_20">
     <g id="line2d_42">
      <g>
       <use xlink:href="#m86149fa471" x="56.874647" y="136.147752" style="fill: #555555; stroke: #555555; stroke-width: 1.5"/>
      </g>
     </g>
    </g>
    <g id="ytick_21">
     <g id="line2d_43">
      <g>
       <use xlink:href="#m86149fa471" x="56.874647" y="127.087752" style="fill: #555555; stroke: #555555; stroke-width: 1.5"/>
      </g>
     </g>
    </g>
    <g id="ytick_22">
     <g id="line2d_44">
      <g>
       <use xlink:href="#m86149fa471" x="56.874647" y="118.027752" style="fill: #555555; stroke: #555555; stroke-width: 1.5"/>
      </g>
     </g>
    </g>
    <g id="ytick_23">
     <g id="line2d_45">
      <g>
       <use xlink:href="#m86149fa471" x="56.874647" y="108.967752" style="fill: #555555; stroke: #555555; stroke-width: 1.5"/>
      </g>
     </g>
    </g>
    <g id="ytick_24">
     <g id="line2d_46">
      <g>
       <use xlink:href="#m86149fa471" x="56.874647" y="90.847752" style="fill: #555555; stroke: #555555; stroke-width: 1.5"/>
      </g>
     </g>
    </g>
    <g id="ytick_25">
     <g id="line2d_47">
      <g>
       <use xlink:href="#m86149fa471" x="56.874647" y="81.787752" style="fill: #555555; stroke: #555555; stroke-width: 1.5"/>
      </g>
     </g>
    </g>
    <g id="ytick_26">
     <g id="line2d_48">
      <g>
       <use xlink:href="#m86149fa471" x="56.874647" y="72.727752" style="fill: #555555; stroke: #555555; stroke-width: 1.5"/>
      </g>
     </g>
    </g>
    <g id="ytick_27">
     <g id="line2d_49">
      <g>
       <use xlink:href="#m86149fa471" x="56.874647" y="63.667752" style="fill: #555555; stroke: #555555; stroke-width: 1.5"/>
      </g>
     </g>
    </g>
    <g id="ytick_28">
     <g id="line2d_50">
      <g>
       <use xlink:href="#m86149fa471" x="56.874647" y="45.547752" style="fill: #555555; stroke: #555555; stroke-width: 1.5"/>
      </g>
     </g>
    </g>
    <g id="ytick_29">
     <g id="line2d_51">
      <g>
       <use xlink:href="#m86149fa471" x="56.874647" y="36.487752" style="fill: #555555; stroke: #555555; stroke-width: 1.5"/>
      </g>
     </g>
    </g>
    <g id="ytick_30">
     <g id="line2d_52">
      <g>
       <use xlink:href="#m86149fa471" x="56.874647" y="27.427752" style="fill: #555555; stroke: #555555; stroke-width: 1.5"/>
      </g>
     </g>
    </g>
    <g id="ytick_31">
     <g id="line2d_53">
      <g>
       <use xlink:href="#m86149fa471" x="56.874647" y="18.367752" style="fill: #555555; stroke: #555555; stroke-width: 1.5"/>
      </g>
     </g>
    </g>
    <g id="text_12">
     <!-- $y$ -->
     <g style="fill: #555555" transform="translate(16.0533 149.488529)rotate(-90)scale(0.18 -0.18)">
      <defs>
       <path id="CMMI12-79" d="M 1683 -700 
C 1510 -939 1261 -1152 947 -1152 
C 870 -1152 563 -1152 467 -889 
C 486 -895 518 -895 531 -895 
C 723 -895 851 -729 851 -582 
C 851 -435 730 -384 634 -384 
C 531 -384 307 -458 307 -759 
C 307 -1071 582 -1286 947 -1286 
C 1587 -1286 2234 -700 2413 6 
L 3040 2485 
C 3046 2517 3059 2556 3059 2594 
C 3059 2689 2982 2753 2886 2753 
C 2829 2753 2694 2727 2643 2535 
L 2170 658 
C 2138 543 2138 530 2086 460 
C 1958 281 1747 64 1440 64 
C 1082 64 1050 415 1050 588 
C 1050 952 1222 1443 1395 1903 
C 1466 2088 1504 2178 1504 2305 
C 1504 2574 1312 2816 998 2816 
C 410 2816 173 1890 173 1839 
C 173 1814 198 1782 243 1782 
C 301 1782 307 1807 333 1897 
C 486 2433 730 2689 979 2689 
C 1037 2689 1146 2689 1146 2478 
C 1146 2312 1075 2127 979 1884 
C 666 1047 666 837 666 683 
C 666 77 1101 -64 1421 -64 
C 1606 -64 1837 -6 2061 230 
L 2067 224 
C 1971 -147 1907 -392 1683 -700 
z
" transform="scale(0.015625)"/>
      </defs>
      <use xlink:href="#CMMI12-79" transform="scale(0.996264)"/>
     </g>
    </g>
   </g>
   <g id="PathCollection_1"/>
   <g id="PathCollection_2">
    <path d="M 104.669925 200.761247 
L 103.184274 206.98048 
L 102.033098 212.471389 
L 101.190184 217.962298 
L 100.926422 220.707752 
L 100.816302 223.453207 
L 100.929511 226.198662 
L 101.388166 228.944116 
L 102.414075 231.689571 
L 103.547374 233.376676 
L 104.605723 234.435025 
L 106.292829 235.568325 
L 109.038283 236.594233 
L 111.783738 237.052888 
L 114.529192 237.166098 
L 117.274647 237.055978 
L 120.020101 236.792215 
L 125.511011 235.949301 
L 131.00192 234.798126 
L 143.25449 231.689571 
L 150.220101 229.787643 
L 185.911011 219.028964 
L 202.383738 213.382858 
L 211.523655 209.725934 
L 216.111011 207.691743 
L 221.60192 204.938695 
L 224.347374 203.411563 
L 229.838283 199.952785 
L 232.583738 197.965566 
L 235.329192 195.761026 
L 238.137982 193.253207 
L 240.879899 190.507752 
L 243.565556 187.47651 
L 246.311011 183.959185 
L 247.51968 182.271389 
L 250.978458 176.78048 
L 253.926247 171.289571 
L 256.51336 165.798662 
L 259.88555 157.562298 
L 263.875434 146.58048 
L 267.467658 135.598662 
L 278.133439 99.907752 
L 281.72118 86.18048 
L 283.516196 77.944116 
L 284.35911 72.453207 
L 284.622872 69.707752 
L 284.732992 66.962298 
L 284.619783 64.216843 
L 284.161128 61.471389 
L 283.135219 58.725934 
L 282.00192 57.038829 
L 280.943571 55.98048 
L 279.256465 54.84718 
L 276.511011 53.821271 
L 273.765556 53.362616 
L 271.020101 53.249407 
L 268.274647 53.359527 
L 265.529192 53.62329 
L 260.038283 54.466204 
L 254.547374 55.617379 
L 242.294804 58.725934 
L 235.329192 60.627862 
L 199.638283 71.38654 
L 183.165556 77.032647 
L 174.025639 80.689571 
L 169.438283 82.723762 
L 163.947374 85.47681 
L 161.20192 87.003941 
L 155.711011 90.462719 
L 152.965556 92.449938 
L 150.220101 94.654479 
L 147.411312 97.162298 
L 144.669395 99.907752 
L 141.983738 102.938995 
L 139.238283 106.45632 
L 138.029614 108.144116 
L 134.570836 113.635025 
L 131.623047 119.125934 
L 129.035934 124.616843 
L 125.663744 132.853207 
L 121.67386 143.835025 
L 118.081636 154.816843 
L 115.188049 164.151717 
L 115.188049 164.151717 
" clip-path="url(#p4035bf804a)" style="fill: none; stroke: #23160e; stroke-width: 2.25"/>
   </g>
   <g id="PathCollection_3">
    <path d="M 262.250839 112.315442 
L 264.143447 105.398662 
L 265.529192 99.413247 
L 266.522887 94.416843 
L 267.251549 88.925934 
L 267.42281 86.18048 
L 267.40674 83.435025 
L 267.123003 80.689571 
L 266.436059 77.944116 
L 265.0515 75.198662 
L 262.783738 72.9309 
L 262.009821 72.453207 
L 260.038283 71.54634 
L 257.292829 70.859397 
L 254.547374 70.57566 
L 251.80192 70.55959 
L 249.056465 70.73085 
L 243.565556 71.459512 
L 238.074647 72.5522 
L 232.583738 73.838952 
L 224.347374 76.099557 
L 216.111011 78.630131 
L 207.874647 81.390735 
L 199.638283 84.3985 
L 191.40192 87.72606 
L 182.861315 91.671389 
L 180.420101 92.879354 
L 174.929192 95.901063 
L 169.438283 99.355414 
L 166.692829 101.269792 
L 163.947374 103.360919 
L 161.20192 105.64418 
L 158.454853 108.144116 
L 155.709474 110.889571 
L 152.965556 113.921496 
L 150.220101 117.294691 
L 147.474647 121.070725 
L 145.142713 124.616843 
L 143.467958 127.362298 
L 140.446249 132.853207 
L 137.745709 138.344116 
L 134.157233 146.58048 
L 129.925271 157.562298 
L 127.083736 165.798662 
L 124.47961 174.035025 
L 122.13119 182.271389 
L 120.735196 187.762298 
L 119.535908 193.253207 
L 118.607647 198.744116 
L 118.297745 201.489571 
L 118.126484 204.235025 
L 118.142554 206.98048 
L 118.426291 209.725934 
L 119.113235 212.471389 
L 120.497794 215.216843 
L 122.765556 217.484605 
L 123.539473 217.962298 
L 125.511011 218.869164 
L 128.256465 219.556108 
L 131.00192 219.839845 
L 133.747374 219.855915 
L 136.492829 219.684655 
L 141.983738 218.955993 
L 147.474647 217.863305 
L 152.965556 216.576553 
L 161.20192 214.315948 
L 169.438283 211.785374 
L 177.674647 209.02477 
L 185.911011 206.017004 
L 194.147374 202.689445 
L 202.687979 198.744116 
L 205.129192 197.53615 
L 210.620101 194.514441 
L 216.111011 191.060091 
L 218.856465 189.145712 
L 221.60192 187.054586 
L 224.347374 184.771324 
L 227.094441 182.271389 
L 229.83982 179.525934 
L 232.583738 176.494008 
L 235.329192 173.120814 
L 238.074647 169.34478 
L 240.406581 165.798662 
L 242.081336 163.053207 
L 245.103045 157.562298 
L 247.803585 152.071389 
L 250.170004 146.773116 
L 250.170004 146.773116 
" clip-path="url(#p4035bf804a)" style="fill: none; stroke: #452c1c; stroke-width: 2.25"/>
   </g>
   <g id="PathCollection_4">
    <path d="M 192.257261 96.493499 
L 188.656465 98.259862 
L 183.165556 101.246326 
L 177.674647 104.635605 
L 174.929192 106.50804 
L 172.183738 108.538144 
L 169.246818 110.889571 
L 166.106046 113.635025 
L 163.258351 116.38048 
L 160.66518 119.125934 
L 158.296176 121.871389 
L 155.711011 125.141088 
L 152.965556 128.980963 
L 150.464925 132.853207 
L 147.474647 138.018637 
L 145.826756 141.089571 
L 143.154217 146.58048 
L 139.627236 154.816843 
L 136.492829 163.25131 
L 134.721963 168.544116 
L 132.366101 176.78048 
L 131.00192 182.858743 
L 130.166978 187.762298 
L 129.873844 190.507752 
L 129.739724 193.253207 
L 129.817412 195.998662 
L 130.192818 198.744116 
L 131.009276 201.489571 
L 132.724526 204.235025 
L 133.747374 205.257874 
L 136.512515 206.98048 
L 139.238283 207.789582 
L 141.983738 208.164987 
L 144.729192 208.242676 
L 147.474647 208.108556 
L 150.220101 207.815421 
L 155.711011 206.873583 
L 161.20192 205.616298 
L 166.692829 204.083616 
L 172.183738 202.374494 
L 180.420101 199.435679 
L 188.752453 195.998662 
L 194.147374 193.51193 
L 199.963763 190.507752 
L 204.722413 187.762298 
L 207.874647 185.7799 
L 210.620101 183.907465 
L 213.365556 181.87736 
L 216.302476 179.525934 
L 219.443248 176.78048 
L 222.290943 174.035025 
L 224.884114 171.289571 
L 227.253118 168.544116 
L 229.838283 165.274417 
L 232.583738 161.434542 
L 235.084369 157.562298 
L 238.074647 152.396868 
L 239.722538 149.325934 
L 242.395077 143.835025 
L 245.922058 135.598662 
L 249.056465 127.164195 
L 250.827331 121.871389 
L 253.183193 113.635025 
L 254.547374 107.556761 
L 255.382315 102.653207 
L 255.67545 99.907752 
L 255.80957 97.162298 
L 255.731882 94.416843 
L 255.356476 91.671389 
L 254.540018 88.925934 
L 252.824768 86.18048 
L 251.80192 85.157631 
L 249.036779 83.435025 
L 246.311011 82.625923 
L 243.565556 82.250518 
L 240.820101 82.172829 
L 238.074647 82.306949 
L 235.329192 82.600084 
L 229.838283 83.541921 
L 224.347374 84.799207 
L 218.856465 86.331889 
L 212.576173 88.315235 
L 212.576173 88.315235 
" clip-path="url(#p4035bf804a)" style="fill: none; stroke: #69422a; stroke-width: 2.25"/>
   </g>
   <g id="PathCollection_5">
    <path d="M 195.100388 185.622657 
L 199.638283 183.03117 
L 202.383738 181.310185 
L 207.874647 177.466967 
L 210.620101 175.316146 
L 213.365556 172.977452 
L 216.111011 170.42882 
L 218.856465 167.641491 
L 221.60192 164.579492 
L 224.347374 161.199208 
L 227.016119 157.562298 
L 229.838283 153.288209 
L 232.200937 149.325934 
L 235.117671 143.835025 
L 237.69839 138.344116 
L 239.98248 132.853207 
L 241.982954 127.362298 
L 243.688381 121.871389 
L 245.086878 116.38048 
L 245.636646 113.635025 
L 246.070526 110.889571 
L 246.362302 108.144116 
L 246.466659 105.398662 
L 246.311011 102.551394 
L 245.810683 99.907752 
L 244.716797 97.162298 
L 243.565556 95.486187 
L 242.496213 94.416843 
L 240.820101 93.265603 
L 238.074647 92.171717 
L 235.329192 91.655374 
L 232.583738 91.51574 
L 229.372695 91.671389 
L 227.092829 91.911873 
L 224.347374 92.345753 
L 218.856465 93.547148 
L 213.365556 95.109183 
L 207.38179 97.162298 
L 202.383738 99.102838 
L 196.892829 101.524697 
L 191.40192 104.266609 
L 185.911011 107.384334 
L 183.165556 109.10532 
L 177.674647 112.948538 
L 174.929192 115.099359 
L 172.183738 117.438053 
L 169.438283 119.986685 
L 166.692829 122.774014 
L 163.947374 125.836012 
L 161.20192 129.216296 
L 158.533175 132.853207 
L 155.711011 137.127296 
L 153.348357 141.089571 
L 150.431623 146.58048 
L 147.850904 152.071389 
L 145.566814 157.562298 
L 143.56634 163.053207 
L 141.860913 168.544116 
L 140.462416 174.035025 
L 139.912648 176.78048 
L 139.478768 179.525934 
L 139.186992 182.271389 
L 139.082635 185.016843 
L 139.238283 187.864111 
L 139.738611 190.507752 
L 140.832497 193.253207 
L 141.983738 194.929318 
L 143.053081 195.998662 
L 144.729192 197.149902 
L 147.474647 198.243788 
L 150.220101 198.760131 
L 152.965556 198.899765 
L 156.176598 198.744116 
L 158.456465 198.503632 
L 161.20192 198.069752 
L 166.692829 196.868357 
L 172.183738 195.306322 
L 174.84901 194.44206 
L 174.84901 194.44206 
" clip-path="url(#p4035bf804a)" style="fill: none; stroke: #8c5838; stroke-width: 2.25"/>
   </g>
   <g id="PathCollection_6">
    <path d="M 149.292333 165.446088 
L 149.190364 165.798662 
L 148.51449 168.544116 
L 147.967982 171.289571 
L 147.573522 174.035025 
L 147.474647 175.433001 
L 147.376574 176.78048 
L 147.433109 179.525934 
L 147.474647 179.840098 
L 147.865811 182.271389 
L 148.880533 185.016843 
L 150.220101 187.00055 
L 150.981849 187.762298 
L 152.965556 189.101867 
L 155.711011 190.116588 
L 158.142301 190.507752 
L 158.456465 190.54929 
L 161.20192 190.605825 
L 162.549399 190.507752 
L 163.947374 190.408878 
L 166.692829 190.014417 
L 169.438283 189.467909 
L 172.183738 188.792035 
L 174.929192 187.998016 
L 175.637268 187.762298 
L 177.674647 187.097229 
L 180.420101 186.099198 
L 183.11522 185.016843 
L 183.165556 184.996871 
L 185.911011 183.8086 
L 188.656465 182.512139 
L 189.130731 182.271389 
L 191.40192 181.12098 
L 194.147374 179.610344 
L 194.291764 179.525934 
L 196.892829 177.994791 
L 198.80186 176.78048 
L 199.638283 176.240838 
L 202.383738 174.347684 
L 202.811597 174.035025 
L 205.129192 172.300407 
L 206.395646 171.289571 
L 207.874647 170.071633 
L 209.62438 168.544116 
L 210.620101 167.640821 
L 212.547756 165.798662 
L 213.365556 164.980862 
L 215.207716 163.053207 
L 216.111011 162.057486 
L 217.638528 160.307752 
L 218.856465 158.828752 
L 219.867302 157.562298 
L 221.60192 155.244703 
L 221.914578 154.816843 
L 223.807733 152.071389 
L 224.347374 151.234965 
L 225.561685 149.325934 
L 227.092829 146.72487 
L 227.177238 146.58048 
L 228.687875 143.835025 
L 229.838283 141.563836 
L 230.079033 141.089571 
L 231.375495 138.344116 
L 232.563766 135.598662 
L 232.583738 135.548326 
L 233.666092 132.853207 
L 234.664124 130.107752 
L 235.329192 128.070373 
L 235.56491 127.362298 
L 236.35893 124.616843 
L 237.034804 121.871389 
L 237.581312 119.125934 
L 237.975772 116.38048 
L 238.074647 114.982504 
L 238.17272 113.635025 
L 238.116185 110.889571 
L 238.074647 110.575407 
L 237.683483 108.144116 
L 236.668761 105.398662 
L 235.329192 103.414955 
L 234.567445 102.653207 
L 232.583738 101.313638 
L 229.838283 100.298917 
L 227.406993 99.907752 
L 227.092829 99.866214 
L 224.347374 99.809679 
L 222.999895 99.907752 
L 221.60192 100.006627 
L 218.856465 100.401088 
L 216.111011 100.947596 
L 213.365556 101.62347 
L 210.620101 102.417489 
L 209.912026 102.653207 
L 207.874647 103.318275 
L 205.129192 104.316307 
L 202.434074 105.398662 
L 202.383738 105.418634 
L 199.638283 106.606905 
L 196.892829 107.903366 
L 196.418563 108.144116 
L 194.147374 109.294525 
L 191.40192 110.805161 
L 191.25753 110.889571 
L 188.656465 112.420714 
L 186.747434 113.635025 
L 185.911011 114.174667 
L 183.165556 116.067821 
L 182.737697 116.38048 
L 180.420101 118.115098 
L 179.153647 119.125934 
L 177.674647 120.343871 
L 175.924914 121.871389 
L 174.929192 122.774684 
L 173.001538 124.616843 
L 172.183738 125.434643 
L 170.341578 127.362298 
L 169.438283 128.358019 
L 167.910766 130.107752 
L 166.692829 131.586753 
L 165.681992 132.853207 
L 163.947374 135.170802 
L 163.735061 135.461343 
" clip-path="url(#p4035bf804a)" style="fill: none; stroke: #af6f47; stroke-width: 2.25"/>
   </g>
   <g id="PathCollection_7">
    <path d="M 168.629244 137.760605 
L 168.194924 138.344116 
L 166.692829 140.511249 
L 166.301739 141.089571 
L 164.574042 143.835025 
L 163.947374 144.912772 
L 162.992803 146.58048 
L 161.551247 149.325934 
L 161.20192 150.056388 
L 160.245132 152.071389 
L 159.069832 154.816843 
L 158.456465 156.428042 
L 158.024212 157.562298 
L 157.125378 160.307752 
L 156.369302 163.053207 
L 155.772653 165.798662 
L 155.711011 166.247271 
L 155.392213 168.544116 
L 155.263356 171.289571 
L 155.466532 174.035025 
L 155.711011 175.106517 
L 156.210036 176.78048 
L 157.900015 179.525934 
L 158.456465 180.082385 
L 161.20192 181.772364 
L 162.875883 182.271389 
L 163.947374 182.515867 
L 166.692829 182.719044 
L 169.438283 182.590186 
L 171.735129 182.271389 
L 172.183738 182.209746 
L 174.929192 181.613097 
L 177.674647 180.857021 
L 180.420101 179.958187 
L 181.554357 179.525934 
L 183.165556 178.912567 
L 185.911011 177.737267 
L 187.926011 176.78048 
L 188.656465 176.431152 
L 191.40192 174.989596 
L 193.069628 174.035025 
L 194.147374 173.408357 
L 196.892829 171.680661 
L 197.47115 171.289571 
L 199.638283 169.787475 
L 201.308743 168.544116 
L 202.383738 167.718025 
L 204.722785 165.798662 
L 205.129192 165.451872 
L 207.777856 163.053207 
L 207.874647 162.96141 
L 210.528305 160.307752 
L 210.620101 160.210961 
L 213.018766 157.562298 
L 213.365556 157.15589 
L 215.284919 154.816843 
L 216.111011 153.741848 
L 217.35437 152.071389 
L 218.856465 149.904255 
L 219.247555 149.325934 
L 220.975252 146.58048 
L 221.60192 145.502733 
L 222.556491 143.835025 
L 223.998046 141.089571 
L 224.347374 140.359117 
L 225.304162 138.344116 
L 226.479462 135.598662 
L 227.092829 133.987463 
L 227.525082 132.853207 
L 228.423916 130.107752 
L 229.179992 127.362298 
L 229.776641 124.616843 
L 229.838283 124.168234 
L 230.157081 121.871389 
L 230.285938 119.125934 
L 230.082762 116.38048 
L 229.838283 115.308988 
L 229.339258 113.635025 
L 227.649279 110.889571 
L 227.092829 110.33312 
L 224.347374 108.643141 
L 222.673411 108.144116 
L 221.60192 107.899638 
L 218.856465 107.696461 
L 216.111011 107.825319 
L 213.814165 108.144116 
L 213.365556 108.205759 
L 210.620101 108.802408 
L 207.874647 109.558484 
L 205.129192 110.457318 
L 203.994937 110.889571 
L 202.383738 111.502938 
L 199.638283 112.678238 
L 197.623283 113.635025 
L 196.892829 113.984353 
L 194.147374 115.425909 
L 192.479666 116.38048 
L 191.40192 117.007147 
L 188.656465 118.734844 
L 188.078144 119.125934 
L 187.303334 119.662974 
" clip-path="url(#p4035bf804a)" style="fill: none; stroke: #d28555; stroke-width: 2.25"/>
   </g>
   <g id="PathCollection_8">
    <path d="M 209.144393 153.983103 
L 210.620101 152.223389 
L 210.742056 152.071389 
L 212.785375 149.325934 
L 213.365556 148.48028 
L 214.622611 146.58048 
L 216.111011 144.126487 
L 216.282829 143.835025 
L 217.728698 141.089571 
L 218.856465 138.702759 
L 219.02253 138.344116 
L 220.097789 135.598662 
L 220.998659 132.853207 
L 221.60192 130.465636 
L 221.69125 130.107752 
L 222.088874 127.362298 
L 222.157287 124.616843 
L 221.760791 121.871389 
L 221.60192 121.421118 
L 220.421449 119.125934 
L 218.856465 117.56095 
L 216.561281 116.38048 
L 216.111011 116.221608 
L 213.365556 115.825112 
L 210.620101 115.893526 
L 207.874647 116.291149 
L 207.516763 116.38048 
L 205.129192 116.983741 
L 202.383738 117.88461 
L 199.638283 118.959869 
L 199.27964 119.125934 
L 196.892829 120.253702 
L 194.147374 121.699571 
L 193.855913 121.871389 
L 191.40192 123.359788 
L 189.502119 124.616843 
L 188.656465 125.197024 
L 185.911011 127.240343 
L 185.759011 127.362298 
L 183.165556 129.537188 
L 182.528422 130.107752 
L 180.420101 132.095749 
L 179.662643 132.853207 
L 177.674647 134.961528 
L 177.104082 135.598662 
L 174.929192 138.192116 
L 174.807238 138.344116 
L 172.763919 141.089571 
L 172.183738 141.935225 
L 170.926683 143.835025 
L 169.438283 146.289018 
L 169.266465 146.58048 
L 167.820596 149.325934 
L 166.692829 151.712746 
L 166.526764 152.071389 
L 165.451505 154.816843 
L 164.550635 157.562298 
L 163.947374 159.949869 
L 163.858043 160.307752 
L 163.46042 163.053207 
L 163.392007 165.798662 
L 163.788503 168.544116 
L 163.947374 168.994387 
L 165.127845 171.289571 
L 166.692829 172.854555 
L 168.988013 174.035025 
L 169.438283 174.193897 
L 172.183738 174.590393 
L 174.929192 174.521979 
L 177.674647 174.124356 
L 178.032531 174.035025 
L 180.420101 173.431764 
L 183.165556 172.530894 
L 185.911011 171.455635 
L 186.269654 171.289571 
L 188.656465 170.161803 
L 189.92803 169.492145 
" clip-path="url(#p4035bf804a)" style="fill: none; stroke: #f69b63; stroke-width: 2.25"/>
   </g>
   <g id="PathCollection_9">
    <path d="M 212.469748 135.071503 
L 212.81008 132.853207 
L 212.635312 130.107752 
L 211.395476 127.362298 
L 210.620101 126.586923 
L 207.874647 125.347087 
L 205.129192 125.17232 
L 202.383738 125.593528 
L 199.638283 126.395297 
L 197.199349 127.362298 
L 196.892829 127.490174 
L 194.147374 128.947104 
L 192.227628 130.107752 
L 191.40192 130.63645 
L 188.656465 132.617887 
L 188.363839 132.853207 
L 185.911011 134.954992 
L 185.218842 135.598662 
L 183.165556 137.651947 
L 182.521887 138.344116 
L 180.420101 140.796945 
L 180.184782 141.089571 
L 178.203344 143.835025 
L 177.674647 144.660734 
L 176.513999 146.58048 
L 175.057069 149.325934 
L 174.929192 149.632455 
L 173.962192 152.071389 
L 173.160422 154.816843 
L 172.739214 157.562298 
L 172.913982 160.307752 
L 174.153818 163.053207 
L 174.929192 163.828582 
L 177.674647 165.068418 
L 180.420101 165.243185 
L 183.165556 164.821977 
L 185.911011 164.020208 
L 188.349945 163.053207 
L 188.656465 162.925331 
L 191.40192 161.468401 
L 193.321666 160.307752 
L 194.147374 159.779055 
L 195.765817 158.611 
" clip-path="url(#p4035bf804a)" style="fill: none; stroke: #ffb171; stroke-width: 2.25"/>
   </g>
   <g id="PathCollection_10"/>
   <g id="patch_3">
    <path d="M 56.874647 281.107752 
L 56.874647 9.307752 
" style="fill: none; stroke: #ffffff; stroke-width: 1.875; stroke-linejoin: miter; stroke-linecap: square"/>
   </g>
   <g id="patch_4">
    <path d="M 56.874647 281.107752 
L 328.674647 281.107752 
" style="fill: none; stroke: #ffffff; stroke-width: 1.875; stroke-linejoin: miter; stroke-linecap: square"/>
   </g>
   <g id="text_13">
    <!-- $\mathdefault{0.0240}$ -->
    <g transform="translate(104.065284 197.784682)rotate(-59.376571)scale(0.12 -0.12)">
     <defs>
      <path id="CMMI12-3a" d="M 1178 307 
C 1178 492 1024 619 870 619 
C 685 619 557 466 557 313 
C 557 128 710 0 864 0 
C 1050 0 1178 153 1178 307 
z
" transform="scale(0.015625)"/>
      <path id="CMR17-34" d="M 2150 4122 
C 2150 4256 2144 4256 2029 4256 
L 128 1254 
L 128 1088 
L 1779 1088 
L 1779 457 
C 1779 224 1766 160 1318 160 
L 1197 160 
L 1197 0 
C 1402 0 1747 0 1965 0 
C 2182 0 2528 0 2733 0 
L 2733 160 
L 2611 160 
C 2163 160 2150 224 2150 457 
L 2150 1088 
L 2803 1088 
L 2803 1254 
L 2150 1254 
L 2150 4122 
z
M 1798 3703 
L 1798 1254 
L 256 1254 
L 1798 3703 
z
" transform="scale(0.015625)"/>
     </defs>
     <use xlink:href="#CMR17-30" transform="scale(0.996264)"/>
     <use xlink:href="#CMMI12-3a" transform="translate(45.690477 0)scale(0.996264)"/>
     <use xlink:href="#CMR17-30" transform="translate(72.787654 0)scale(0.996264)"/>
     <use xlink:href="#CMR17-32" transform="translate(118.478131 0)scale(0.996264)"/>
     <use xlink:href="#CMR17-34" transform="translate(164.168608 0)scale(0.996264)"/>
     <use xlink:href="#CMR17-30" transform="translate(209.859086 0)scale(0.996264)"/>
    </g>
   </g>
   <g id="text_14">
    <!-- $\mathdefault{0.0481}$ -->
    <g transform="translate(249.504307 145.042101)rotate(-54.196022)scale(0.12 -0.12)">
     <defs>
      <path id="CMR17-38" d="M 1741 2264 
C 2144 2467 2554 2773 2554 3263 
C 2554 3841 1990 4179 1472 4179 
C 890 4179 378 3759 378 3180 
C 378 3021 416 2747 666 2505 
C 730 2442 998 2251 1171 2130 
C 883 1983 211 1634 211 934 
C 211 279 838 -128 1459 -128 
C 2144 -128 2720 362 2720 1010 
C 2720 1590 2330 1857 2074 2029 
L 1741 2264 
z
M 902 2822 
C 851 2854 595 3051 595 3351 
C 595 3739 998 4032 1459 4032 
C 1965 4032 2336 3676 2336 3262 
C 2336 2669 1670 2331 1638 2331 
C 1632 2331 1626 2331 1574 2370 
L 902 2822 
z
M 2080 1519 
C 2176 1449 2483 1240 2483 851 
C 2483 381 2010 25 1472 25 
C 890 25 448 438 448 940 
C 448 1443 838 1862 1280 2060 
L 2080 1519 
z
" transform="scale(0.015625)"/>
     </defs>
     <use xlink:href="#CMR17-30" transform="scale(0.996264)"/>
     <use xlink:href="#CMMI12-3a" transform="translate(45.690477 0)scale(0.996264)"/>
     <use xlink:href="#CMR17-30" transform="translate(72.787654 0)scale(0.996264)"/>
     <use xlink:href="#CMR17-34" transform="translate(118.478131 0)scale(0.996264)"/>
     <use xlink:href="#CMR17-38" transform="translate(164.168608 0)scale(0.996264)"/>
     <use xlink:href="#CMR17-31" transform="translate(209.859086 0)scale(0.996264)"/>
    </g>
   </g>
   <g id="text_15">
    <!-- $\mathdefault{0.0721}$ -->
    <g transform="translate(186.998726 98.10739)rotate(-11.040728)scale(0.12 -0.12)">
     <defs>
      <path id="CMR17-37" d="M 2886 3941 
L 2886 4081 
L 1382 4081 
C 634 4081 621 4165 595 4288 
L 480 4288 
L 294 3094 
L 410 3094 
C 429 3215 474 3540 550 3661 
C 589 3712 1062 3712 1171 3712 
L 2579 3712 
L 1869 2661 
C 1395 1954 1069 999 1069 165 
C 1069 89 1069 -128 1299 -128 
C 1530 -128 1530 89 1530 171 
L 1530 465 
C 1530 1508 1709 2196 2003 2636 
L 2886 3941 
z
" transform="scale(0.015625)"/>
     </defs>
     <use xlink:href="#CMR17-30" transform="scale(0.996264)"/>
     <use xlink:href="#CMMI12-3a" transform="translate(45.690477 0)scale(0.996264)"/>
     <use xlink:href="#CMR17-30" transform="translate(72.787654 0)scale(0.996264)"/>
     <use xlink:href="#CMR17-37" transform="translate(118.478131 0)scale(0.996264)"/>
     <use xlink:href="#CMR17-32" transform="translate(164.168608 0)scale(0.996264)"/>
     <use xlink:href="#CMR17-31" transform="translate(209.859086 0)scale(0.996264)"/>
    </g>
   </g>
   <g id="text_16">
    <!-- $\mathdefault{0.0962}$ -->
    <g transform="translate(169.735896 196.795676)rotate(-11.940592)scale(0.12 -0.12)">
     <defs>
      <path id="CMR17-39" d="M 2253 1864 
C 2253 464 1670 31 1190 31 
C 1043 31 685 31 538 294 
C 704 268 826 357 826 518 
C 826 692 685 749 595 749 
C 538 749 365 723 365 506 
C 365 71 742 -128 1203 -128 
C 1939 -128 2688 674 2688 2073 
C 2688 3817 1971 4179 1485 4179 
C 851 4179 243 3628 243 2778 
C 243 1991 762 1408 1414 1408 
C 1952 1408 2189 1903 2253 2112 
L 2253 1864 
z
M 1427 1510 
C 1254 1510 1011 1542 813 1922 
C 678 2169 678 2461 678 2771 
C 678 3146 678 3405 858 3684 
C 947 3817 1114 4032 1485 4032 
C 2240 4032 2240 2885 2240 2632 
C 2240 2182 2035 1510 1427 1510 
z
" transform="scale(0.015625)"/>
      <path id="CMR17-36" d="M 678 2176 
C 678 3690 1395 4032 1811 4032 
C 1946 4032 2272 4009 2400 3776 
C 2298 3776 2106 3776 2106 3553 
C 2106 3381 2246 3323 2336 3323 
C 2394 3323 2566 3348 2566 3560 
C 2566 3954 2246 4179 1805 4179 
C 1043 4179 243 3390 243 1984 
C 243 253 966 -128 1478 -128 
C 2099 -128 2688 427 2688 1283 
C 2688 2081 2170 2662 1517 2662 
C 1126 2662 838 2407 678 1960 
L 678 2176 
z
M 1478 25 
C 691 25 691 1200 691 1436 
C 691 1896 909 2560 1504 2560 
C 1613 2560 1926 2560 2138 2120 
C 2253 1870 2253 1609 2253 1289 
C 2253 944 2253 690 2118 434 
C 1978 171 1773 25 1478 25 
z
" transform="scale(0.015625)"/>
     </defs>
     <use xlink:href="#CMR17-30" transform="scale(0.996264)"/>
     <use xlink:href="#CMMI12-3a" transform="translate(45.690477 0)scale(0.996264)"/>
     <use xlink:href="#CMR17-30" transform="translate(72.787654 0)scale(0.996264)"/>
     <use xlink:href="#CMR17-39" transform="translate(118.478131 0)scale(0.996264)"/>
     <use xlink:href="#CMR17-36" transform="translate(164.168608 0)scale(0.996264)"/>
     <use xlink:href="#CMR17-32" transform="translate(209.859086 0)scale(0.996264)"/>
    </g>
   </g>
   <g id="text_17">
    <!-- $\mathdefault{0.1202}$ -->
    <g transform="translate(146.320241 162.456037)rotate(-44.967129)scale(0.12 -0.12)">
     <use xlink:href="#CMR17-30" transform="scale(0.996264)"/>
     <use xlink:href="#CMMI12-3a" transform="translate(45.690477 0)scale(0.996264)"/>
     <use xlink:href="#CMR17-31" transform="translate(72.787654 0)scale(0.996264)"/>
     <use xlink:href="#CMR17-32" transform="translate(118.478131 0)scale(0.996264)"/>
     <use xlink:href="#CMR17-30" transform="translate(164.168608 0)scale(0.996264)"/>
     <use xlink:href="#CMR17-32" transform="translate(209.859086 0)scale(0.996264)"/>
    </g>
   </g>
   <g id="text_18">
    <!-- $\mathdefault{0.1442}$ -->
    <g transform="translate(164.222818 137.062097)rotate(-25.119937)scale(0.12 -0.12)">
     <use xlink:href="#CMR17-30" transform="scale(0.996264)"/>
     <use xlink:href="#CMMI12-3a" transform="translate(45.690477 0)scale(0.996264)"/>
     <use xlink:href="#CMR17-31" transform="translate(72.787654 0)scale(0.996264)"/>
     <use xlink:href="#CMR17-34" transform="translate(118.478131 0)scale(0.996264)"/>
     <use xlink:href="#CMR17-34" transform="translate(164.168608 0)scale(0.996264)"/>
     <use xlink:href="#CMR17-32" transform="translate(209.859086 0)scale(0.996264)"/>
    </g>
   </g>
   <g id="text_19">
    <!-- $\mathdefault{0.1683}$ -->
    <g transform="translate(185.734722 171.754161)rotate(-21.342684)scale(0.12 -0.12)">
     <use xlink:href="#CMR17-30" transform="scale(0.996264)"/>
     <use xlink:href="#CMMI12-3a" transform="translate(45.690477 0)scale(0.996264)"/>
     <use xlink:href="#CMR17-31" transform="translate(72.787654 0)scale(0.996264)"/>
     <use xlink:href="#CMR17-36" transform="translate(118.478131 0)scale(0.996264)"/>
     <use xlink:href="#CMR17-38" transform="translate(164.168608 0)scale(0.996264)"/>
     <use xlink:href="#CMR17-33" transform="translate(209.859086 0)scale(0.996264)"/>
    </g>
   </g>
   <g id="text_20">
    <!-- $\mathdefault{0.1923}$ -->
    <g transform="translate(193.112563 160.970477)rotate(-32.954196)scale(0.12 -0.12)">
     <use xlink:href="#CMR17-30" transform="scale(0.996264)"/>
     <use xlink:href="#CMMI12-3a" transform="translate(45.690477 0)scale(0.996264)"/>
     <use xlink:href="#CMR17-31" transform="translate(72.787654 0)scale(0.996264)"/>
     <use xlink:href="#CMR17-39" transform="translate(118.478131 0)scale(0.996264)"/>
     <use xlink:href="#CMR17-32" transform="translate(164.168608 0)scale(0.996264)"/>
     <use xlink:href="#CMR17-33" transform="translate(209.859086 0)scale(0.996264)"/>
    </g>
   </g>
  </g>
 </g>
 <defs>
  <clipPath id="p4035bf804a">
   <rect x="56.874647" y="9.307752" width="271.8" height="271.8"/>
  </clipPath>
 </defs>
</svg>
